<svg width="44" height="44" fill="none" xmlns="http://www.w3.org/2000/svg"><rect width="44" height="44" rx="6" fill="#FFD0CE"/><path d="M22.013 32a9.974 9.974 0 007.063-2.935c3.899-3.896 3.899-10.247 0-14.143-3.899-3.896-10.253-3.896-14.152 0-3.899 3.896-3.899 10.247 0 14.143C16.9 31.013 19.456 32 22.013 32z" fill="#fff" stroke="#EF3F3E" stroke-width="1.5"/><path d="M18.962 23.892h4.05a.897.897 0 00.887-.886v-5.06a.897.897 0 00-.886-.886.897.897 0 00-.886.886v4.175h-3.165a.897.897 0 00-.886.885c0 .48.405.886.886.886z" fill="#EF3F3E"/></svg>