<svg width="20" height="20" fill="none" xmlns="http://www.w3.org/2000/svg"><circle cx="10" cy="10" r="9.5" stroke="#EF3F3E"/><path d="M3.56 17.648l-.324-.273c.092-.066.507-.413.847-.652 1.046-.737 2.875-1.568 2.875-1.568a.811.811 0 00.423-.712V13.39a6.831 6.831 0 01-1.125-2.323 1.324 1.324 0 01-.487-1.026V8.752c0-.315.116-.621.322-.861V6.194c-.019-.189-.086-1.254.685-2.133C7.446 3.296 8.531 2.91 10 2.91c1.47 0 2.555.387 3.225 1.152.77.879.703 1.944.684 2.133V7.89c.207.24.323.546.323.861v1.29c0 .517-.298.977-.758 1.195a7.411 7.411 0 01-.952 1.863c-.077.11-.153.21-.224.298v1.075c0 .308.172.586.448.724 0 0 1.963.79 3.08 1.54.365.245.802.593.909.666l-.333.278c-.033.028-.07.052-.104.08-.152.123-.309.242-.468.357-.067.047-.132.096-.2.141a9.891 9.891 0 01-.734.456 9.995 9.995 0 01-.659.34l-.083.038a9.912 9.912 0 01-2.384.747l-.068.012c-.26.045-.525.08-.792.105l-.102.008A10.08 10.08 0 0110 20c-.275 0-.546-.014-.815-.036l-.099-.008a9.587 9.587 0 01-.799-.106l-.067-.012a9.93 9.93 0 01-2.418-.765l-.051-.024a9.836 9.836 0 01-.684-.356 10.005 10.005 0 01-.731-.458 10.231 10.231 0 01-.71-.536l-.065-.05z" fill="#322F31"/></svg>