<svg width="22" height="22" fill="none" xmlns="http://www.w3.org/2000/svg"><path fill-rule="evenodd" clip-rule="evenodd" d="M17.153 18.117c0-.57.467-1.034 1.041-1.034.574 0 1.041.464 1.041 1.034 0 .57-.467 1.034-1.04 1.034a1.039 1.039 0 01-1.042-1.034zm.617 0c0 .232.19.42.424.42a.423.423 0 00.424-.42.423.423 0 00-.848 0z" fill="#EF3F3E"/><path fill-rule="evenodd" clip-rule="evenodd" d="M20.09 16.102c.567.508.89 1.204.91 1.961a2.705 2.705 0 01-.806 2.005 2.738 2.738 0 01-2.009.8 2.737 2.737 0 01-1.97-.888l-4.636-5.036a.305.305 0 01.02-.433.31.31 0 01.435.02l4.636 5.035c.397.432.94.677 1.529.69a2.129 2.129 0 001.558-.621c.419-.416.64-.968.625-1.556a2.098 2.098 0 00-.705-1.521l-6.234-5.587-.369.367.304.301c.214.213.332.497.332.798 0 .301-.118.585-.332.798l-.713.708a.31.31 0 01-.33.069 1.678 1.678 0 00-1.784.372 1.651 1.651 0 00-.375 1.773.305.305 0 01-.07.328L6.33 20.237A2.614 2.614 0 014.475 21c-.7 0-1.359-.271-1.854-.763a2.596 2.596 0 010-3.685L6.398 12.8a.31.31 0 01.33-.069 1.678 1.678 0 001.784-.373c.125-.124.226-.265.304-.416l-1.621-1.76c-1.684.54-3.55.1-4.809-1.15a4.69 4.69 0 01-1.072-5.015.308.308 0 01.506-.107l2.422 2.406a.378.378 0 00.537 0L6.35 4.754a.373.373 0 000-.533L3.93 1.815a.305.305 0 01.108-.503 4.766 4.766 0 015.048 1.065A4.68 4.68 0 0110.21 7.25l2.097 1.879 1.927-1.914a.31.31 0 01.436 0c.12.12.12.314 0 .434l-2.655 2.637.623.62 6.083-6.044-.623-.619-2.379 2.363a.31.31 0 01-.436 0 .305.305 0 010-.433l2.592-2.575a.573.573 0 01.043-.107l.628-1.18a.574.574 0 01.425-.301.576.576 0 01.496.162l1.339 1.33c.131.13.19.31.163.493a.57.57 0 01-.302.422l-1.19.624a.587.587 0 01-.106.042l-5.49 5.455 6.21 5.565zM19.068 2.641l-.59 1.111.737.733 1.119-.587-1.266-1.257zM7.513 9.619a.31.31 0 00-.335-.08 4.151 4.151 0 01-4.356-.94 4.081 4.081 0 01-1.08-3.9l2.064 2.05c.188.188.438.29.704.29a.993.993 0 00.705-.29l1.572-1.562a.98.98 0 00.292-.7.98.98 0 00-.292-.7l-2.063-2.05A4.144 4.144 0 018.65 2.812a4.071 4.071 0 01.913 4.413.305.305 0 00.08.34l2.228 1.998-.291.29-.304-.301a1.128 1.128 0 00-.803-.331c-.303 0-.589.117-.803.33l-.713.708a.305.305 0 00-.069.328c.082.21.118.43.112.646L7.513 9.62zm4.85 3.756l.578-.574a.514.514 0 000-.729l-.521-.518-1.06-1.052-.521-.518a.522.522 0 00-.734 0l-.577.573a2.262 2.262 0 01-.58 2.235 2.297 2.297 0 01-2.25.576l-3.641 3.618a1.985 1.985 0 000 2.817c.379.377.882.584 1.418.584.536 0 1.04-.207 1.418-.584l3.642-3.618a2.262 2.262 0 01.58-2.234 2.298 2.298 0 012.249-.576z" fill="#322F31"/><path d="M21 18.063l.099-.002-.1.002zm-.91-1.96l.067-.075-.066.074zm.104 3.965l.07.07-.07-.07zm-2.009.8l-.002.1.002-.1zm-1.97-.888l-.074.067.074-.067zm-4.636-5.036l.074-.068-.074.068zm.02-.433l-.068-.074.068.074zm.435.02l.074-.068-.074.067zm4.636 5.035l.073-.068-.073.068zm1.529.69l-.002.1.002-.1zm1.558-.621l-.07-.071.07.07zm-.08-3.078l.067-.074-.067.075zm-6.234-5.586l.067-.074-.07-.063-.067.066.07.071zm-.369.367l-.07-.071-.072.07.072.072.07-.071zm.304.301l-.07.071.07-.07zm0 1.596l-.07-.071.07.07zm-.713.708l.07.07-.07-.07zm-.33.069l.036-.094-.036.094zm-1.784.372l-.07-.07.07.07zm-.375 1.773l-.093.036.093-.036zm-.07.328l.071.07-.07-.07zM6.33 20.237l-.07-.071.07.071zm-3.71 0l.071-.071-.07.07zm0-3.685l-.07-.07.07.07zM6.399 12.8l-.07-.07.07.07zm.33-.069l-.036.093.036-.093zm1.784-.373l.07.072-.07-.072zm.304-.416l.089.046.032-.062-.047-.052-.074.068zm-1.621-1.76l.074-.069-.044-.047-.06.02.03.095zm-4.809-1.15l-.07.071.07-.07zM1.314 4.017l-.093-.036.093.036zm.224-.19l-.02-.098.02.098zm.282.083l.07-.07-.07.07zm2.422 2.406l.07-.07-.07.07zm.537 0l-.071-.07.07.07zM6.35 4.754l-.07-.071.07.07zm0-.533l-.07.07.07-.07zM3.93 1.815L4 1.744l-.07.07zm-.083-.28l.098.02-.098-.02zm.191-.223l-.035-.093.035.093zm5.048 1.065l-.07.071.07-.07zM10.21 7.25l-.094-.033-.022.063.05.045.066-.075zm2.097 1.879l-.067.074.07.063.068-.066-.07-.071zm1.927-1.914l-.07-.07.07.07zm.436 0l.07-.07-.07.07zm0 .434l.07.07-.07-.07zm-2.655 2.637l-.07-.07-.072.07.071.071.07-.07zm.623.62l-.07.07.07.07.07-.07-.07-.07zm6.083-6.044l.07.071.072-.07-.072-.071-.07.07zm-.623-.619l.07-.07-.07-.07-.071.07.07.07zm-2.379 2.363l.07.071-.07-.07zm-.436 0l-.07.071.07-.07zm0-.433l-.07-.071.07.07zm2.592-2.575l.07.07.018-.017.008-.025-.096-.028zm.043-.107l-.088-.046.088.046zm.628-1.18l-.089-.048.088.047zm.425-.301l.015.099-.015-.1zm.496.162l.07-.071-.07.07zm1.339 1.33l.07-.07V3.43l-.07.071zm.163.493l-.099-.015.099.015zm-.302.422l.046.089-.046-.089zm-1.19.624l-.046-.089.047.089zm-.106.042l-.028-.096-.024.007-.018.018.07.071zm-5.49 5.455l-.071-.07-.076.074.08.07.066-.074zm4.595-6.785l-.088-.047-.035.066.053.052.07-.07zm.59-1.111l.071-.071-.095-.095-.063.119.088.047zm.148 1.844l-.07.071.052.052.065-.034-.047-.089zm1.119-.587l.046.089.121-.063-.096-.097-.071.071zM7.178 9.538l-.035-.093.035.093zm.335.08l.074-.067-.074.068zm-4.69-1.02l-.071.072.07-.071zM1.742 4.7l.07-.071-.124-.123-.044.17.097.024zm2.063 2.05l-.07.07.07-.07zm1.409 0l.07.07-.07-.07zm1.572-1.563l.07.071-.07-.07zm0-1.4l-.07.071.07-.07zm-2.063-2.05L4.7 1.642l-.172.043.126.124.07-.07zM8.65 2.812l-.07.07.07-.07zm.913 4.413l.093.037-.093-.037zm.08.34l.066-.074-.066.075zm2.228 1.998l.07.07.076-.074-.079-.07-.067.074zm-.291.29l-.071.07.07.07.071-.07-.07-.07zm-.304-.301l-.07.07.07-.07zm-1.606 0l.07.07-.07-.07zm-.713.707l-.07-.07.07.07zm-.069.328l.093-.036-.093.036zm.112.646l-.074.068.167.181.007-.246-.1-.003zm3.942 1.57l-.07-.072.07.071zm-.577.573l-.028.096.057.016.041-.041-.07-.071zm.577-1.303l-.07.071.07-.07zm-.521-.518l-.07.071.07-.07zm-1.06-1.052l-.07.07.07-.07zm-.521-.518l-.07.07.07-.07zm-.734 0l.07.07-.07-.07zm-.577.573l-.07-.07-.043.041.017.057.096-.028zm-.58 2.235l.07.07-.07-.07zm-2.25.576l.028-.096-.056-.017-.042.042.07.07zm-3.641 3.618l-.07-.071.07.07zm0 2.817l.07-.07-.07.07zm2.836 0l-.07-.07.07.07zm3.642-3.618l.07.071.043-.041-.017-.058-.096.028zm.58-2.234v-.1h-.042l-.029.029.07.07zm0 0v.1h.04l.03-.03-.07-.07zm10.984 4.11a2.803 2.803 0 00-.942-2.033l-.133.149c.546.489.856 1.16.875 1.889l.2-.005zm-.835 2.078a2.802 2.802 0 00.835-2.078l-.2.005a2.601 2.601 0 01-.776 1.931l.141.142zm-2.015.83c.76 0 1.475-.293 2.015-.83l-.141-.142c-.503.5-1.166.772-1.874.772v.2zm-.066 0h.066v-.2h-.062l-.004.2zm-2.042-.922c.53.577 1.256.904 2.042.921l.004-.2a2.637 2.637 0 01-1.899-.856l-.147.136zm-4.635-5.035l4.635 5.035.147-.135-4.635-5.036-.147.136zm.025-.575a.405.405 0 00-.025.575l.147-.136a.205.205 0 01.013-.29l-.135-.149zm.577.026a.41.41 0 00-.577-.026l.135.148a.21.21 0 01.295.013l.147-.135zm4.635 5.035l-4.635-5.035-.147.135 4.635 5.036.147-.136zm1.458.658a2.023 2.023 0 01-1.458-.658l-.147.136c.416.452.985.708 1.6.722l.005-.2zm1.486-.592a2.029 2.029 0 01-1.486.592l-.004.2a2.229 2.229 0 001.63-.65l-.14-.142zm.595-1.482a1.996 1.996 0 01-.595 1.482l.14.142a2.196 2.196 0 00.655-1.63l-.2.006zm-.671-1.45c.419.375.657.89.671 1.45l.2-.006a2.197 2.197 0 00-.738-1.593l-.133.149zm-6.234-5.586l6.234 5.586.133-.149-6.234-5.586-.133.149zm-.232.363l.369-.367-.141-.142-.37.367.142.142zm.303.16l-.303-.302-.141.142.303.301.141-.142zm.362.868a1.22 1.22 0 00-.362-.869l-.14.142c.195.194.302.452.302.727h.2zm-.362.869c.233-.232.362-.54.362-.869h-.2c0 .275-.107.533-.303.727l.141.142zm-.712.708l.712-.708-.14-.142-.713.708.14.142zm-.437.091a.41.41 0 00.437-.091l-.141-.142a.21.21 0 01-.224.046l-.072.187zm-1.678.35a1.578 1.578 0 011.678-.35l.072-.187a1.778 1.778 0 00-1.89.395l.14.142zm-.352 1.666a1.55 1.55 0 01.352-1.666l-.14-.142a1.751 1.751 0 00-.398 1.88l.186-.072zm-.092.435a.405.405 0 00.092-.435l-.186.072a.205.205 0 01-.047.22l.141.143zM6.4 20.308l3.777-3.752-.14-.142-3.778 3.752.141.142zm-1.925.792c.727 0 1.411-.281 1.925-.792l-.14-.142a2.514 2.514 0 01-1.785.734v.2zm-1.925-.792c.515.51 1.198.792 1.925.792v-.2c-.674 0-1.307-.26-1.784-.734l-.14.142zm0-3.826a2.696 2.696 0 000 3.826l.141-.142a2.496 2.496 0 010-3.543l-.14-.142zm3.777-3.753L2.55 16.482l.141.141 3.777-3.752-.14-.142zm.437-.091a.41.41 0 00-.437.091l.141.142a.21.21 0 01.224-.047l.072-.186zm1.677-.35a1.578 1.578 0 01-1.677.35l-.072.187a1.778 1.778 0 001.89-.395l-.14-.142zm.286-.392a1.552 1.552 0 01-.286.392l.141.142c.133-.132.24-.282.323-.442l-.178-.092zM7.121 10.25l1.621 1.76.148-.135-1.621-1.76-.148.135zM2.316 9.103a4.872 4.872 0 004.91 1.173l-.062-.19A4.673 4.673 0 012.457 8.96l-.141.142zM1.22 3.981a4.79 4.79 0 001.095 5.122l.14-.142a4.59 4.59 0 01-1.049-4.908l-.186-.072zm.296-.252a.408.408 0 00-.296.252l.186.072a.208.208 0 01.152-.128l-.042-.196zm.374.11a.41.41 0 00-.374-.11l.042.196a.21.21 0 01.19.056l.142-.142zm2.421 2.406L1.891 3.84l-.141.142 2.422 2.406.14-.142zm.198.082a.278.278 0 01-.197-.082l-.141.142c.09.09.21.14.338.14v-.2zm.198-.082a.278.278 0 01-.198.082v.2c.128 0 .249-.05.339-.14l-.141-.142zM6.28 4.683L4.708 6.245l.141.142 1.573-1.562-.141-.142zm.081-.196a.273.273 0 01-.081.196l.14.142a.472.472 0 00.141-.338h-.2zm-.081-.195a.273.273 0 01.081.195h.2a.473.473 0 00-.14-.337l-.141.142zM3.859 1.886l2.422 2.406.14-.142L4 1.744l-.141.142zm-.11-.373a.405.405 0 00.11.373L4 1.744a.205.205 0 01-.056-.189l-.196-.042zm.253-.294a.407.407 0 00-.254.294l.196.042a.207.207 0 01.129-.15l-.071-.186zm5.154 1.087A4.866 4.866 0 004.002 1.22l.07.186a4.666 4.666 0 014.943 1.043l.14-.142zm1.149 4.976a4.78 4.78 0 00-1.15-4.976l-.14.142a4.58 4.58 0 011.101 4.768l.189.066zm2.069 1.771l-2.097-1.878-.133.149 2.096 1.878.134-.149zm1.79-1.91l-1.927 1.914.14.142 1.927-1.914-.14-.142zm.576 0a.41.41 0 00-.577 0l.141.142a.21.21 0 01.295 0l.141-.142zm0 .575a.405.405 0 000-.575l-.14.142a.205.205 0 010 .292l.14.141zm-2.655 2.638l2.655-2.638-.14-.141-2.656 2.637.141.142zm.624.478l-.624-.62-.14.142.623.62.14-.143zM18.65 4.79l-6.082 6.043.14.141 6.083-6.043-.14-.141zm-.623-.478l.623.62.141-.142-.623-.62-.141.142zm-2.238 2.363l2.379-2.363-.141-.142-2.379 2.363.142.142zm-.577 0a.41.41 0 00.577 0l-.14-.142a.21.21 0 01-.296 0l-.14.142zm0-.575a.405.405 0 000 .575l.141-.142a.205.205 0 010-.291l-.14-.142zm2.592-2.575L15.212 6.1l.141.142 2.592-2.575-.14-.142zm.026-.082a.68.68 0 00-.051.124l.192.057c.009-.03.02-.06.035-.088l-.176-.093zm.627-1.182l-.627 1.182.176.093.628-1.18-.177-.095zm.5-.352a.674.674 0 00-.5.352l.177.094a.474.474 0 01.352-.248l-.03-.198zm.58.19a.676.676 0 00-.58-.19l.029.198a.476.476 0 01.41.134l.141-.142zm1.34 1.33l-1.34-1.33-.14.142 1.338 1.33.141-.142zm.19.579a.668.668 0 00-.19-.579l-.142.142a.468.468 0 01.135.407l.198.03zm-.354.496a.67.67 0 00.355-.496l-.198-.03a.47.47 0 01-.25.349l.093.177zm-1.189.623l1.19-.623-.094-.177-1.189.623.093.177zm-.124.05a.683.683 0 00.124-.05l-.093-.177a.485.485 0 01-.088.035l.057.192zm-5.45 5.43l5.492-5.455-.141-.142-5.491 5.455.14.142zm6.207 5.42l-6.21-5.565-.134.149 6.211 5.565.133-.15zM18.565 3.799l.59-1.111-.176-.094-.59 1.111.176.094zm.72.615l-.738-.733-.141.142.738.733.14-.142zm1.002-.604l-1.12.587.094.177 1.118-.587-.092-.177zm-1.29-1.098l1.265 1.257.142-.142-1.267-1.257-.14.142zM7.213 9.632a.21.21 0 01.227.054l.147-.135a.41.41 0 00-.444-.106l.07.187zM2.752 8.67a4.252 4.252 0 004.46.962l-.069-.187a4.051 4.051 0 01-4.25-.917l-.141.142zM1.645 4.675A4.181 4.181 0 002.752 8.67l.14-.142A3.981 3.981 0 011.84 4.724l-.194-.049zM3.876 6.68L1.813 4.63l-.141.142 2.063 2.05.141-.142zm.634.26a.893.893 0 01-.634-.26l-.14.142c.206.205.482.319.774.319v-.2zm.634-.26a.893.893 0 01-.634.26v.2c.293 0 .568-.113.775-.318l-.14-.142zm1.573-1.563L5.144 6.68l.141.142 1.573-1.563-.141-.142zm.262-.629a.88.88 0 01-.262.63l.14.141a1.08 1.08 0 00.322-.77h-.2zm-.262-.629a.88.88 0 01.262.63h.2a1.08 1.08 0 00-.321-.771l-.141.141zm-2.063-2.05l2.063 2.05.14-.141-2.062-2.05-.141.141zm4.065.932a4.244 4.244 0 00-4.02-1.1l.05.194a4.044 4.044 0 013.83 1.048l.14-.142zm.936 4.521a4.171 4.171 0 00-.936-4.521l-.14.142a3.971 3.971 0 01.89 4.305l.186.074zm.053.23a.205.205 0 01-.053-.23l-.186-.074a.405.405 0 00.106.452l.133-.149zm2.229 1.996L9.708 7.49l-.133.15 2.229 1.996.133-.149zm-.288.436l.292-.29-.141-.142-.292.29.141.142zm-.444-.302l.303.302.141-.142-.303-.301-.141.141zm-.733-.301c.277 0 .537.107.733.301l.14-.141a1.232 1.232 0 00-.873-.36v.2zm-.733.301c.196-.194.456-.301.733-.301v-.2c-.33 0-.64.128-.874.36l.141.141zm-.712.708l.712-.708-.14-.141-.713.707.14.142zm-.047.22a.205.205 0 01.047-.22l-.141-.142a.405.405 0 00-.092.435l.186-.072zm.119.686a1.745 1.745 0 00-.119-.685l-.186.072c.077.197.11.404.105.608l.2.005zm-1.66-1.549L8.926 11.3l.147-.135L7.587 9.55l-.147.135zm5.432 3.044l-.578.574.141.142.578-.574-.141-.142zm0-.587a.414.414 0 010 .587l.14.142a.614.614 0 000-.87l-.14.141zm-.522-.518l.522.518.14-.142-.52-.518-.142.142zm-1.06-1.052l1.06 1.052.141-.142-1.06-1.052-.14.142zm-.52-.518l.52.518.142-.142-.522-.518-.14.142zm-.594 0a.422.422 0 01.593 0l.141-.142a.622.622 0 00-.875 0l.141.142zm-.577.573l.577-.573-.14-.142-.578.573.141.142zm-.58 2.235c.618-.614.845-1.51.606-2.334l-.192.056a2.162 2.162 0 01-.554 2.136l.14.142zm-2.347.6c.829.238 1.73.013 2.348-.6l-.141-.142a2.197 2.197 0 01-2.152.55l-.055.193zm-3.544 3.594l3.642-3.618-.14-.142-3.642 3.618.14.142zm0 2.675a1.885 1.885 0 010-2.675l-.14-.142a2.085 2.085 0 000 2.96l.14-.143zm1.348.555c-.51 0-.988-.197-1.348-.555l-.14.142c.397.395.926.613 1.488.613v-.2zm1.348-.555a1.9 1.9 0 01-1.348.555v.2c.562 0 1.091-.218 1.489-.613l-.141-.142zm3.641-3.618l-3.641 3.618.14.142 3.642-3.618-.14-.142zm.58-2.234a2.362 2.362 0 00-.605 2.333l.192-.056a2.162 2.162 0 01.554-2.135l-.141-.142zm.07-.03v.2-.2zm2.277-.571a2.398 2.398 0 00-2.347.6l.141.143a2.198 2.198 0 012.151-.55l.055-.193z" fill="#322F31"/><path d="M7.317 14.525a.31.31 0 00-.436 0l-2.922 2.903a.305.305 0 00.218.523c.079 0 .158-.03.218-.09l2.922-2.902a.305.305 0 000-.434zm1.079 1.073a.31.31 0 00-.436 0l-2.922 2.903a.305.305 0 00.218.524c.079 0 .158-.03.218-.09l2.922-2.903a.305.305 0 000-.434z" fill="#EF3F3E"/></svg>