<svg width="32" height="32" fill="none" xmlns="http://www.w3.org/2000/svg"><path d="M11.508 22.743a27.17 27.17 0 012.26 3.26c.574 1.066.812 1.786 1.24 3.076.25.707.488.921.988.921.547 0 .797-.36.989-.92.4-1.211.707-2.132 1.196-3.01 1.883-3.464 4.953-5.926 6.682-9.3 0 0 1.138-2.06 1.138-4.946 0-2.69-1.121-4.558-1.121-4.558l-13.365 15.5-.007-.023z" fill="#34A853"/><path d="M6.976 16.405c1.077 2.394 3.131 4.49 4.533 6.337l7.43-8.593s-1.049 1.34-2.944 1.34c-2.112 0-3.832-1.641-3.832-3.715 0-1.427.872-2.417.872-2.417-5.468.794-5.164 2.086-6.075 7.044l.016.004z" fill="#FBBC04"/><path d="M19.031 2.45c2.477.776 4.58 2.415 5.841 4.809l-5.934 6.906s.871-.993.871-2.416c0-2.117-1.832-3.715-3.808-3.715-1.877 0-2.944 1.324-2.944 1.324.455-1.012 5.163-6.565 5.981-6.907l-.007-.002z" fill="#4285F4"/><path d="M8.331 5.487C9.808 3.773 12.397 2 15.971 2c1.727 0 3.038.447 3.038.447L13.05 9.353c-.402-.212-4.323-3.19-4.72-3.875v.01z" fill="#1A73E8"/><path d="M6.975 16.406s-.974-1.887-.974-4.604c0-2.576 1.033-4.832 2.336-6.291l4.72 3.875-6.075 7.02h-.007z" fill="#EA4335"/></svg>