<svg width="32" height="32" fill="none" xmlns="http://www.w3.org/2000/svg"><path d="M25.369 26.635c-.31-.054-.477-.162-.73-.296-.337-.189-.73-.432-1.432-.485a3.972 3.972 0 00-1.825.27.54.54 0 00-.309.7c.112.27.45.404.73.296.45-.161.87-.242 1.291-.188.422.027.674.162.955.35.28.162.59.35 1.095.432.197.027.365.054.506.054.561 0 1.01-.19 1.431-.405.394-.162.73-.323 1.264-.404.842-.108 1.769.135 2.752.7.252.163.617.082.758-.188a.497.497 0 00-.197-.728c-1.207-.7-2.387-.97-3.482-.836-.701.081-1.207.324-1.6.486-.421.188-.73.323-1.207.242zM.83 27.606c1.038-.459 2.02-.674 2.891-.62.59.027.955.188 1.348.323.45.162.955.378 1.713.378.814 0 1.291-.216 1.74-.405.197-.08.365-.162.562-.215l1.067-.243a.548.548 0 00.421-.647c-.084-.297-.365-.458-.674-.404l-1.067.242h-.028c-.28.081-.505.189-.73.27-.393.162-.73.323-1.291.323-.534 0-.87-.134-1.292-.296-.45-.162-.927-.378-1.713-.405-1.067-.08-2.218.162-3.453.701a.567.567 0 00-.281.728c.169.27.505.378.786.27zm0 4.286c1.038-.458 2.02-.674 2.891-.62.59.027.955.189 1.348.324.45.161.955.377 1.713.377.814 0 1.291-.216 1.74-.404.393-.162.73-.324 1.292-.324h.028c.562 0 .87.135 1.263.297.45.188.955.404 1.77.404.814 0 1.347-.189 1.824-.377.421-.162.787-.297 1.376-.297.618 0 .955.162 1.376.324.45.188.955.404 1.769.377.814 0 1.291-.216 1.74-.404.394-.162.703-.297 1.236-.297h.028c.562 0 .899.135 1.292.324.449.188.954.404 1.769.404.786 0 1.291-.216 1.74-.404.393-.162.758-.324 1.32-.35.842-.055 1.797.188 2.836.7.084.054.168.054.252.054a.595.595 0 00.506-.297.543.543 0 00-.225-.727c-1.207-.62-2.358-.89-3.425-.836-.758.054-1.264.242-1.713.431-.421.162-.73.324-1.291.324h-.029c-.561 0-.898-.135-1.291-.324-.45-.189-.955-.404-1.74-.404h-.029c-.786 0-1.292.215-1.713.404-.365.162-.702.324-1.263.324-.562 0-.899-.135-1.32-.297-.449-.189-.954-.404-1.797-.404-.842 0-1.348.189-1.825.377-.42.162-.786.297-1.376.297-.59 0-.954-.162-1.347-.324-.45-.189-.955-.404-1.741-.377-.814 0-1.292.215-1.74.404-.394.162-.73.324-1.292.324-.534 0-.87-.135-1.292-.297-.45-.162-.927-.377-1.713-.404-1.067-.081-2.218.162-3.453.7-.281.136-.393.459-.281.729.169.27.505.404.786.27zm14.936-5.634c1.086 0 1.966-.845 1.966-1.887 0-1.043-.88-1.887-1.966-1.887-1.085 0-1.965.844-1.965 1.887 0 1.042.88 1.887 1.965 1.887z" fill="#EF3F3E"/><path fill-rule="evenodd" clip-rule="evenodd" d="M13.66 2.022C13.66.89 14.615 0 15.766 0c1.151 0 2.106.917 2.106 2.022v17.766c1.881.782 3.117 2.588 3.117 4.583a4.838 4.838 0 01-1.6 3.612c-.983.917-2.275 1.402-3.623 1.402h-.224c-2.64-.108-4.858-2.184-4.998-4.718-.14-2.103 1.123-4.044 3.116-4.88V2.023zm2.107 25.126c1.6 0 2.892-1.24 2.892-2.777 0-1.375-1.04-2.507-2.415-2.723V2.965a.464.464 0 00-.477-.458.464.464 0 00-.478.458v18.683c-1.375.216-2.414 1.348-2.414 2.723 0 1.536 1.291 2.777 2.892 2.777z" fill="#EF3F3E"/><path d="M18.827 7.71h.673c.337 0 .618-.27.618-.593 0-.323-.28-.593-.617-.593h-.674c-.337 0-.618.27-.618.593 0 .324.28.593.618.593zm0 3.424h1.965c.337 0 .618-.27.618-.593 0-.324-.281-.593-.618-.593h-1.965c-.337 0-.618.27-.618.593 0 .35.28.593.618.593zm0 3.451h.673c.337 0 .618-.27.618-.594 0-.323-.28-.593-.617-.593h-.674c-.337 0-.618.27-.618.594 0 .323.28.593.618.593zm2.611 2.857c0-.323-.28-.593-.618-.593h-1.965c-.337 0-.618.27-.618.593 0 .324.281.593.618.593h1.965c.337 0 .618-.27.618-.593zM18.827 4.313h1.965c.337 0 .618-.27.618-.593 0-.323-.281-.593-.618-.593h-1.965c-.337 0-.618.27-.618.593 0 .324.28.593.618.593z" fill="#EF3F3E"/></svg>