<svg width="32" height="32" fill="none" xmlns="http://www.w3.org/2000/svg"><path fill-rule="evenodd" clip-rule="evenodd" d="M24.845 9.923H22.63a1.154 1.154 0 01-1.155-1.15v-2.27h-3.56a1.993 1.993 0 01-1.372 1.365v8.994c.844.306 1.448 1.31 1.448 2.536 0 1.225-.604 2.23-1.448 2.535v2.201a1.993 1.993 0 011.372 1.366h3.56v-2.272c0-.634.518-1.15 1.155-1.15h2.215c.637 0 1.155.516 1.155 1.15v5.624c0 .633-.518 1.149-1.155 1.149H22.63a1.154 1.154 0 01-1.155-1.15V26.58h-3.56a1.993 1.993 0 01-3.83 0h-3.56v2.272c0 .633-.518 1.149-1.155 1.149H7.155A1.154 1.154 0 016 28.85v-5.623c0-.634.518-1.15 1.155-1.15H9.37c.637 0 1.155.516 1.155 1.15v2.271h3.56a1.993 1.993 0 011.372-1.365v-2.201c-.844-.305-1.448-1.31-1.448-2.535 0-1.226.604-2.23 1.448-2.536V7.867a1.993 1.993 0 01-1.372-1.365h-3.56v2.272c0 .633-.518 1.149-1.155 1.149H7.155A1.154 1.154 0 016 8.773V3.15C6 2.516 6.518 2 7.155 2H9.37c.637 0 1.155.516 1.155 1.15v2.272h3.56a1.993 1.993 0 013.83 0h3.56V3.148c0-.633.518-1.149 1.155-1.149h2.215A1.155 1.155 0 0126 3.15v5.623c0 .634-.518 1.15-1.155 1.15z" fill="#EF3F3E"/></svg>