<svg width="32" height="32" fill="none" xmlns="http://www.w3.org/2000/svg"><path fill-rule="evenodd" clip-rule="evenodd" d="M25.933 14.144c.217 1.958 1.212 3.596 2.174 5.18C29.08 20.927 30 22.44 30 24.129a4.521 4.521 0 01-4.516 4.516c-.362 0-.712-.047-1.05-.128A2.255 2.255 0 0122.324 30H4.258A2.26 2.26 0 012 27.742V7.419c0-1.09.777-2.002 1.806-2.212V2h8.13v3.161h10.387A2.26 2.26 0 0124.58 7.42v8.59c.216-.593.381-1.21.454-1.865l.449-4.04.449 4.04zM10.129 5.16h.903V2.903h-.903v2.258zm-3.613 0V2.903h.904v2.258h-.904zm2.71-2.258h-.903V5.16h.903V2.903zm-4.517 0h.904V5.16h-.904V2.903zm-.451 26.194h18.065c.577 0 1.068-.366 1.263-.876a4.518 4.518 0 01-2.618-4.092c0-1.687.919-3.202 1.892-4.805.277-.456.555-.917.817-1.388V7.42c0-.747-.608-1.354-1.354-1.354H4.258c-.747 0-1.355.607-1.355 1.354v20.323c0 .747.608 1.355 1.355 1.355zm21.226-1.355a3.617 3.617 0 01-3.613-3.613c0-1.435.856-2.844 1.762-4.336l.003-.005c.66-1.09 1.382-2.277 1.848-3.611.466 1.335 1.189 2.525 1.851 3.616.906 1.492 1.762 2.901 1.762 4.336a3.617 3.617 0 01-3.613 3.613zM21.871 8.774c0-.747-.608-1.355-1.355-1.355h-6.295l7.65 5.885v-4.53zm-.904 2.696l-4.091-3.147h3.64c.249 0 .451.202.451.451v2.696zM8.323 19.16h9.935a2.26 2.26 0 012.258 2.258h-.903c0-.747-.608-1.354-1.355-1.354H8.323c-.747 0-1.355.607-1.355 1.354h-.904a2.26 2.26 0 012.259-2.258zm9.935-2.71H8.323a1.356 1.356 0 01-1.355-1.354h-.904a2.26 2.26 0 002.259 2.258h9.935a2.26 2.26 0 002.258-2.258h-.903c0 .747-.608 1.355-1.355 1.355zm9.032 7.678c0 .996-.81 1.806-1.807 1.806v.904a2.712 2.712 0 002.71-2.71h-.903zM5.16 7.419h-.903v.904h.903v-.904zm.903 0h.904v.904h-.904v-.904zm2.71 0H7.87v.904h.903v-.904zM4.258 26.84h.903v.903h-.903v-.903zm2.71 0h-.904v.903h.904v-.903z" fill="#EF3F3E"/><path d="M28.107 19.324l.128-.078-.128.078zm-2.174-5.18l.149-.017-.15.017zm-1.498 14.373l.035-.146-.13-.03-.046.124.14.052zM3.806 5.207l.03.147.12-.025v-.122h-.15zm0-3.207v-.15h-.15V2h.15zm8.13 0h.15v-.15h-.15V2zm0 3.161h-.15v.15h.15v-.15zM24.58 16.01h-.15l.29.052-.14-.052zm.454-1.865l-.15-.017.15.017zm.449-4.04l.149-.016h-.298l.149.016zM11.032 5.161v.15h.15v-.15h-.15zm-.903 0h-.15v.15h.15v-.15zm.903-2.258h.15v-.15h-.15v.15zm-.903 0v-.15h-.15v.15h.15zm-3.613 0v-.15h-.15v.15h.15zm0 2.258h-.15v.15h.15v-.15zm.904-2.258h.15v-.15h-.15v.15zm0 2.258v.15h.15v-.15h-.15zm.903-2.258v-.15h-.15v.15h.15zm.903 0h.15v-.15h-.15v.15zm-.903 2.258h-.15v.15h.15v-.15zm.903 0v.15h.15v-.15h-.15zM5.613 2.903h.15v-.15h-.15v.15zm-.904 0v-.15h-.15v.15h.15zm.904 2.258v.15h.15v-.15h-.15zm-.904 0h-.15v.15h.15v-.15zm18.877 23.06l.14.054.05-.13-.127-.06-.063.136zm-.726-8.897l.129.078-.129-.078zm0 0l-.127-.078.128.078zm.817-1.388l.131.073.02-.034v-.039h-.15zm-.044 1.857l-.128-.079v.001l.128.078zm0 0l.128.078-.128-.078zm.003-.005l.128.078.006-.01-.134-.068zm0 0l-.13-.078-.005.011.135.067zm1.848-3.611l.142-.05-.142-.406-.142.406.142.05zm1.851 3.616l-.128.078.128-.078zm0 0l.128-.078-.128.078zM14.221 7.419v-.15h-.441l.35.27.09-.12zm7.65 5.885l-.091.12.241.185v-.305h-.15zm-4.995-4.981v-.15h-.441l.35.268.09-.118zm4.091 3.147l-.091.119.241.185v-.304h-.15zm-.45 9.95v.15h.15v-.15h-.15zm-.904 0h-.15v.15h.15v-.15zm-12.645 0v.15h.15v-.15h-.15zm-.904 0h-.15v.15h.15v-.15zm.904-6.323h.15v-.15h-.15v.15zm-.904 0v-.15h-.15v.15h.15zm14.452 0h.15v-.15h-.15v.15zm-.903 0v-.15h-.15v.15h.15zm5.87 10.839v-.15h-.15v.15h.15zm1.807-1.807v-.15h-.15v.15h.15zm-1.807 2.71h-.15v.15h.15v-.15zm2.71-2.71h.15v-.15h-.15v.15zM4.258 7.419v-.15h-.15v.15h.15zm.903 0h.15v-.15h-.15v.15zm-.903.904h-.15v.15h.15v-.15zm.903 0v.15h.15v-.15h-.15zm1.807-.904h.15v-.15h-.15v.15zm-.904 0v-.15h-.15v.15h.15zm.904.904v.15h.15v-.15h-.15zm-.904 0h-.15v.15h.15v-.15zm1.807-.904v-.15h-.15v.15h.15zm.903 0h.15v-.15h-.15v.15zm-.903.904h-.15v.15h.15v-.15zm.903 0v.15h.15v-.15h-.15zM5.161 26.839h.15v-.15h-.15v.15zm-.903 0v-.15h-.15v.15h.15zm.903.903v.15h.15v-.15h-.15zm-.903 0h-.15v.15h.15v-.15zm1.806-.903v-.15h-.15v.15h.15zm.904 0h.15v-.15h-.15v.15zm-.904.903h-.15v.15h.15v-.15zm.904 0v.15h.15v-.15h-.15zm21.267-8.496c-.965-1.588-1.94-3.2-2.153-5.119l-.298.033c.221 1.996 1.235 3.663 2.195 5.242l.256-.156zm1.915 4.883c0-1.737-.947-3.289-1.915-4.883l-.256.156c.979 1.612 1.871 3.09 1.871 4.727h.3zm-4.666 4.666a4.671 4.671 0 004.666-4.666h-.3a4.371 4.371 0 01-4.366 4.366v.3zm-1.084-.132a4.65 4.65 0 001.084.132v-.3c-.349 0-.687-.046-1.015-.124l-.069.292zm-2.077 1.487a2.405 2.405 0 002.253-1.58l-.282-.105a2.105 2.105 0 01-1.971 1.385v.3zm-18.065 0h18.065v-.3H4.258v.3zM1.85 27.742a2.41 2.41 0 002.408 2.408v-.3a2.11 2.11 0 01-2.108-2.108h-.3zm0-20.323v20.323h.3V7.419h-.3zm1.926-2.36A2.412 2.412 0 001.85 7.42h.3c0-1.017.726-1.87 1.686-2.065l-.06-.294zM3.656 2v3.207h.3V2h-.3zm8.28-.15h-8.13v.3h8.13v-.3zm.15 3.311V2h-.3v3.161h.3zm10.237-.15H11.935v.3h10.388v-.3zM24.73 7.42a2.41 2.41 0 00-2.408-2.408v.3A2.11 2.11 0 0124.43 7.42h.3zm0 8.59V7.42h-.3v8.59h.3zm.155-1.882a7.85 7.85 0 01-.446 1.831l.282.103c.219-.602.388-1.23.462-1.9l-.298-.034zm.449-4.04l-.45 4.04.299.033.449-4.04-.298-.032zm.747 4.04l-.449-4.04-.298.034.449 4.04.298-.034zm-15.05-9.116h-.903v.3h.903v-.3zm-.15-2.108v2.258h.3V2.903h-.3zm-.753.15h.903v-.3h-.903v.3zm.15 2.108V2.903h-.3v2.258h.3zM6.366 2.903v2.258h.3V2.903h-.3zm1.054-.15h-.904v.3h.904v-.3zm.15 2.408V2.903h-.3v2.258h.3zm-1.054.15h.904v-.3h-.904v.3zm1.807-2.258h.903v-.3h-.903v.3zm.15 2.108V2.903h-.3v2.258h.3zm.753-.15h-.903v.3h.903v-.3zm-.15-2.108v2.258h.3V2.903h-.3zm-3.463-.15h-.904v.3h.904v-.3zm.15 2.408V2.903h-.3v2.258h.3zm-1.054.15h.904v-.3h-.904v.3zm-.15-2.408v2.258h.3V2.903h-.3zm17.764 26.044H4.258v.3h18.065v-.3zm1.122-.78c-.173.456-.61.78-1.122.78v.3c.642 0 1.187-.407 1.403-.972l-.28-.107zm-2.627-4.038a4.668 4.668 0 002.704 4.228l.127-.272a4.368 4.368 0 01-2.531-3.956h-.3zm1.914-4.883c-.968 1.595-1.914 3.146-1.914 4.883h.3c0-1.638.892-3.115 1.87-4.727l-.256-.156zm0 0l.257.156-.256-.156zm.814-1.383c-.261.468-.537.928-.813 1.383l.256.155c.276-.455.555-.919.82-1.392l-.263-.146zm-.019-10.444v10.517h.3V7.42h-.3zm-1.204-1.204c.664 0 1.204.54 1.204 1.204h.3c0-.83-.675-1.504-1.505-1.504v.3zm-10.388 0h10.388v-.3H11.935v.3zm-7.677 0h7.677v-.3H4.258v.3zM3.053 7.419c0-.664.54-1.204 1.205-1.204v-.3c-.83 0-1.505.675-1.505 1.504h.3zm0 20.323V7.419h-.3v20.323h.3zm1.205 1.205c-.664 0-1.205-.54-1.205-1.205h-.3c0 .83.675 1.505 1.505 1.505v-.3zm17.463-4.818a3.767 3.767 0 003.763 3.763v-.3a3.467 3.467 0 01-3.463-3.463h-.3zm1.784-4.414c-.452.744-.898 1.477-1.23 2.205-.331.729-.554 1.462-.554 2.209h.3c0-.688.205-1.377.528-2.084.323-.709.758-1.427 1.212-2.174l-.256-.156zm0 0l.256.156-.256-.157zm.002-.005l-.002.005.256.155.003-.004-.257-.156zm-.006.011l.269.134-.269-.134zm1.841-3.594c-.46 1.317-1.172 2.492-1.835 3.583l.257.156c.66-1.088 1.39-2.289 1.862-3.64l-.284-.099zm2.121 3.588c-.663-1.093-1.377-2.27-1.837-3.588l-.284.099c.473 1.353 1.204 2.556 1.865 3.645l.256-.156zm0 0l-.256.156.256-.157zm1.784 4.414c0-.747-.223-1.48-.555-2.209-.331-.728-.777-1.46-1.229-2.205l-.256.156c.454.748.89 1.465 1.212 2.174.323.707.528 1.396.528 2.084h.3zm-3.763 3.763a3.767 3.767 0 003.763-3.763h-.3a3.467 3.467 0 01-3.463 3.463v.3zM20.516 7.569c.664 0 1.205.541 1.205 1.205h.3c0-.83-.675-1.505-1.505-1.505v.3zm-6.295 0h6.295v-.3h-6.295v.3zm7.741 5.616L14.312 7.3l-.183.238 7.65 5.885.183-.238zm-.241-4.41v4.53h.3v-4.53h-.3zm-4.937-.334l4.092 3.148.183-.238-4.092-3.147-.183.237zm3.732-.268h-3.64v.3h3.64v-.3zm.601.601a.602.602 0 00-.601-.601v.3c.166 0 .301.135.301.301h.3zm0 2.696V8.774h-.3v2.696h.3zm-2.859 7.541H8.323v.3h9.935v-.3zm2.408 2.408a2.41 2.41 0 00-2.408-2.408v.3a2.11 2.11 0 012.108 2.108h.3zm-1.053.15h.903v-.3h-.903v.3zm-1.355-1.354c.664 0 1.205.54 1.205 1.204h.3c0-.83-.675-1.504-1.505-1.504v.3zm-9.935 0h9.935v-.3H8.323v.3zm-1.205 1.204c0-.664.54-1.204 1.205-1.204v-.3c-.83 0-1.505.675-1.505 1.504h.3zm-1.054.15h.904v-.3h-.904v.3zm2.259-2.558a2.41 2.41 0 00-2.409 2.408h.3a2.11 2.11 0 012.109-2.108v-.3zm0-2.41h9.935v-.3H8.323v.3zm-1.505-1.504c0 .83.675 1.505 1.505 1.505v-.3a1.206 1.206 0 01-1.205-1.205h-.3zm-.754.15h.904v-.3h-.904v.3zm2.259 1.958a2.11 2.11 0 01-2.109-2.108h-.3a2.41 2.41 0 002.409 2.408v-.3zm9.935 0H8.323v.3h9.935v-.3zm2.108-2.108a2.11 2.11 0 01-2.108 2.108v.3a2.41 2.41 0 002.408-2.408h-.3zm-.753.15h.903v-.3h-.903v.3zm-1.355 1.355c.83 0 1.505-.675 1.505-1.505h-.3c0 .664-.54 1.205-1.205 1.205v.3zm7.225 9.483c1.08 0 1.957-.877 1.957-1.956h-.3c0 .913-.743 1.656-1.657 1.656v.3zm.15.754v-.903h-.3v.903h.3zm2.41-2.71a2.562 2.562 0 01-2.56 2.56v.3a2.862 2.862 0 002.86-2.86h-.3zm-.753.15h.903v-.3h-.903v.3zM4.258 7.569h.903v-.3h-.903v.3zm.15.754v-.904h-.3v.904h.3zm.753-.15h-.903v.3h.903v-.3zm-.15-.754v.904h.3v-.904h-.3zm1.957-.15h-.904v.3h.904v-.3zm.15 1.054v-.904h-.3v.904h.3zm-1.054.15h.904v-.3h-.904v.3zm-.15-1.054v.904h.3v-.904h-.3zm1.957.15h.903v-.3h-.903v.3zm.15.754v-.904h-.3v.904h.3zm.753-.15h-.903v.3h.903v-.3zm-.15-.754v.904h.3v-.904h-.3zM5.161 26.69h-.903v.3h.903v-.3zm.15 1.053v-.903h-.3v.903h.3zm-1.053.15h.903v-.3h-.903v.3zm-.15-1.053v.903h.3v-.903h-.3zm1.956.15h.904v-.3h-.904v.3zm.15.753v-.903h-.3v.903h.3zm.754-.15h-.904v.3h.904v-.3zm-.15-.753v.903h.3v-.903h-.3z" fill="#EF3F3E"/></svg>