<svg width="32" height="32" fill="none" xmlns="http://www.w3.org/2000/svg"><path fill-rule="evenodd" clip-rule="evenodd" d="M27.455 2.667v16.928C29.005 20.862 30 22.838 30 25.067 30 28.907 27.047 32 23.382 32H3.527C2.662 32 2 31.307 2 30.4V2.667c0-.907.662-1.6 1.527-1.6h6.618C10.145.48 10.604 0 11.164 0h7.127c.56 0 1.018.48 1.018 1.067h6.618c.866 0 1.528.693 1.528 1.6zm-1.02 0c0-.32-.203-.534-.508-.534h-6.618V3.2h5.09c.56 0 1.019.48 1.019 1.067v14.199a6.41 6.41 0 011.018.444V2.667zm-9.668 22.617l.002.031a7.143 7.143 0 001.03 3.485H5.055V4.267h5.09c0 .586.459 1.066 1.019 1.066h7.127c.56 0 1.018-.48 1.018-1.066H24.4v13.947a6.542 6.542 0 00-.214-.03l-.015-.002a6.234 6.234 0 00-.17-.018l-.042-.004a6.184 6.184 0 00-.144-.012l-.028-.001-.025-.002a6.531 6.531 0 00-.14-.007l-.052-.002a6.553 6.553 0 00-.188-.002c-3.665 0-6.618 3.093-6.618 6.933 0 .072.001.145.003.217zm1.524-24.217h-7.127v3.2h7.127v-3.2zM3.527 30.933c-.305 0-.51-.213-.51-.533V2.667c0-.32.205-.534.51-.534h6.618V3.2h-5.09c-.56 0-1.019.48-1.019 1.067V28.8c0 .587.458 1.067 1.018 1.067H18.6a6.7 6.7 0 001.246 1.066H3.527zm15.765-1.849c1.02 1.14 2.472 1.85 4.09 1.85 3.105 0 5.6-2.614 5.6-5.867 0-2.05-.99-3.846-2.5-4.894a5.741 5.741 0 00-1.548-.743.372.372 0 01-.178-.017 3.768 3.768 0 00-.852-.187l-.016-.002-.118-.01a6.232 6.232 0 00-.13-.007l-.025-.002h-.02l-.017-.001a5.327 5.327 0 00-.196-.004c-3.106 0-5.6 2.613-5.6 5.867 0 .087.002.175.006.262v.01a5.969 5.969 0 001.42 3.621c.036.039.064.08.084.124z" fill="#E62625"/><path d="M26.76 22.135c-.27-.219-.593-.164-.754.11L22.99 26.63l-2.1-1.754c-.215-.22-.592-.165-.754.055-.215.219-.161.602.054.767 0 0 2.53 2.083 2.584 2.138.234.237.527.176.754-.055l3.338-4.878c.215-.274.162-.603-.108-.768z" fill="#E62625"/><path fill-rule="evenodd" clip-rule="evenodd" d="M20.772 16c-.228.917-1.027 1.6-1.972 1.6-.944 0-1.744-.683-1.971-1.6h-4.203c-.227.917-1.027 1.6-1.971 1.6-.945 0-1.744-.683-1.972-1.6h-.777c-.764 0-1.324-.587-1.324-1.387v-2.08c0-.746.56-1.386 1.324-1.386h1.033l1.97-2.88c.306-.48.815-.747 1.375-.747h4.886c.56 0 1.07.267 1.375.747l1.97 2.88H21.6c.713 0 1.324.586 1.324 1.386v2.08c-.051.8-.611 1.387-1.375 1.387h-.777zm-2.99-.533c0 .586.458 1.066 1.018 1.066s1.018-.48 1.018-1.066c0-.587-.458-1.067-1.018-1.067s-1.018.48-1.018 1.067zM17.68 8.8l1.593 2.347h-4.037V8.533h1.884c.254 0 .458.107.56.267zm-5.447-.267c-.204 0-.408.107-.56.267l-1.543 2.347h4.088V8.533h-1.985zm-1.58 8c-.56 0-1.018-.48-1.018-1.066 0-.587.459-1.067 1.019-1.067.56 0 1.018.48 1.018 1.067 0 .586-.458 1.066-1.018 1.066zm.036-3.2h.016c.967 0 1.731.694 1.986 1.6h4.137c.228-.917 1.027-1.6 1.972-1.6l.03.001h.07c.968 0 1.63.693 1.884 1.6h.814c.153 0 .306-.16.306-.32v-2.08c0-.16-.153-.32-.306-.32h-1.043a.507.507 0 01-.23.053h-11.2a.507.507 0 01-.228-.054h-.993c-.153 0-.305.16-.305.32v2.08c0 .16.152.32.305.32h.778c.227-.917 1.027-1.6 1.971-1.6h.035z" fill="#E62625"/><path d="M14.727 20.267H7.091c-.305 0-.509.213-.509.533 0 .32.204.533.51.533h7.635c.306 0 .51-.213.51-.533 0-.32-.204-.533-.51-.533zm0 2.666H7.091c-.305 0-.509.214-.509.534 0 .32.204.533.51.533h7.635c.306 0 .51-.213.51-.533 0-.32-.204-.534-.51-.534zm0 2.667H7.091c-.305 0-.509.213-.509.533 0 .32.204.534.51.534h7.635c.306 0 .51-.214.51-.534 0-.32-.204-.533-.51-.533z" fill="#E62625"/></svg>