<svg width="32" height="28" fill="none" xmlns="http://www.w3.org/2000/svg"><path fill-rule="evenodd" clip-rule="evenodd" d="M17.297 0c-2.563 0-4.638 2.054-4.638 4.587 0 2.314 1.723 4.232 3.975 4.547v8.191h-.662v3.932h-3.766v1.966h7.812v-1.966h-1.396v-3.932h-.662V9.134c2.252-.315 3.976-2.233 3.976-4.547C21.936 2.054 19.86 0 17.297 0zm0 .82a3.81 3.81 0 013.645 2.702c.005.02.003.035.001.053l-.002.03c0 .18-.147.327-.33.327h-.29a.4.4 0 01-.208-.082c-.834-.605-1.834-.893-2.816-.901-.982.008-1.982.296-2.816.901a.4.4 0 01-.207.082h-.29a.329.329 0 01-.332-.328l-.001-.03a.134.134 0 01.002-.052A3.811 3.811 0 0117.297.82zm.995 3.767a.989.989 0 00-.994-.983.989.989 0 00-.994.983c0 .543.445.983.994.983.549 0 .994-.44.994-.983zm-4.184.983h1.118c.1 0 .226.046.29.123.145.18.305.32.497.45.06.04.1.098.124.164l.539 1.475a.32.32 0 01-.207.41.349.349 0 01-.207 0c-1.118-.319-2.043-1.11-2.485-2.171-.07-.168.037-.34.207-.41l.03-.013a.24.24 0 01.094-.028zm6.378 0h-1.118c-.1 0-.226.046-.29.123-.144.18-.305.32-.497.45a.32.32 0 00-.124.164l-.538 1.475a.32.32 0 00.207.41c.067.022.142.02.207 0 1.117-.319 2.042-1.11 2.485-2.171.07-.168-.038-.34-.207-.41l-.03-.013a.24.24 0 00-.095-.028zM1.413 18.63l2.64.228c.365.031.636.35.603.71l-.692 7.835a.66.66 0 01-.719.595l-2.64-.228a.658.658 0 01-.602-.71l.693-7.835a.661.661 0 01.717-.595zm29.982.228l-2.64-.228a.659.659 0 00-.717.595l-.694 7.835a.658.658 0 00.603.71l2.64.228a.658.658 0 00.717-.595l.694-7.835a.659.659 0 00-.604-.71zM5.876 21.585H7.29v1.31H5.876a.66.66 0 01-.663-.655.66.66 0 01.663-.655zm2.739 2.228a.66.66 0 01-.663-.655v-1.835c0-.363.297-.655.663-.655a.66.66 0 01.662.655v1.835a.658.658 0 01-.662.655zm2.65-2.883a.66.66 0 00-.662-.656.66.66 0 00-.663.656v2.621a.66.66 0 00.663.655.66.66 0 00.663-.655V20.93zm15.524 1.966h-1.413v-1.31h1.413a.66.66 0 01.663.654.66.66 0 01-.663.656zm-2.076.262a.66.66 0 01-.662.655.658.658 0 01-.663-.655v-1.835c0-.362.296-.655.663-.655a.66.66 0 01.663.655v1.835zm-3.312.393V20.93c0-.362.295-.656.663-.656a.66.66 0 01.662.656v2.621a.66.66 0 01-.662.655.658.658 0 01-.663-.655z" fill="#EF3F3E"/></svg>