<svg width="24" height="24" fill="none" xmlns="http://www.w3.org/2000/svg"><path fill-rule="evenodd" clip-rule="evenodd" d="M20.077 13.266c-.465 3.84-2.98 4.441-3.89 4.66a3.362 3.362 0 00-.24.062c-.24.08-2.462.645-5.26.458L7.66 21.803l-.005-3.869-.022-.005c-4.016-1.14-3.935-5.383-3.892-7.682l.002-.093c.048-2.276.464-4.146 1.705-5.399 2.228-2.067 6.827-1.758 6.827-1.758 3.88.016 5.74 1.215 6.171 1.615 1.434 1.252 2.164 4.258 1.631 8.654zm-.57-9.72c-.512-.48-2.569-2.01-7.157-2.03 0 0-5.41-.336-8.047 2.142C2.837 5.16 2.32 7.36 2.262 10.09c-.054 2.728-.123 7.84 4.69 9.225h.005v2.115s-.032.858.522 1.029c.555.177.917-.244 1.393-.796.095-.111.195-.227.302-.345.351-.383.83-.948 1.193-1.38 3.294.283 5.825-.368 6.107-.458.061-.02.147-.043.254-.07 1.069-.281 4.225-1.108 4.783-5.755.623-5.276-.315-8.607-2.004-10.11zm-2.936 10.36s-.619-.528-.917-.752a11.4 11.4 0 00-.986-.645c-.453-.255-.916-.096-1.108.16l-.4.512c-.203.26-.517.213-.597.197-.586-.15-1.21-.512-1.85-1.13-.644-.623-1.038-1.273-1.177-1.95l-.01-.043a.785.785 0 01.122-.597l.021-.016c.077-.072.172-.148.271-.227.247-.196.515-.41.56-.615.17-.432-.44-1.271-.686-1.61a3.502 3.502 0 01-.086-.122s-.618-.815-.837-.975c-.234-.197-.602-.31-.975-.08l-.021.016c-1.066.72-1.45 1.135-1.343 1.748l.053.25c.538 1.7 1.583 3.512 3.134 5.127 1.534 1.594 3.197 2.547 4.833 3.208.427.144.869.022 1.322-.367l.005-.006a4.17 4.17 0 00.826-1.044v-.006c.208-.41.139-.783-.154-1.034zm-2.67-3.843a.127.127 0 00.122.117v.006a.125.125 0 00.118-.133c-.022-.507-.166-.896-.421-1.167-.256-.272-.624-.421-1.104-.448-.069-.005-.122.048-.127.117 0 .07.047.128.117.133.415.027.73.15.943.373.213.224.33.56.352 1.002zm1.332.533a.125.125 0 01-.123-.128c.022-.847-.229-1.561-.735-2.126a2.623 2.623 0 00-.911-.661 3.569 3.569 0 00-1.22-.288.121.121 0 01-.112-.133.125.125 0 01.133-.117c.975.074 1.748.42 2.297 1.034.549.612.82 1.39.799 2.302a.128.128 0 01-.128.117zm1.12.379a.12.12 0 00.122.122c.069-.005.122-.058.122-.122-.005-.778-.122-1.487-.351-2.1a4.454 4.454 0 00-1.029-1.615c-.9-.9-2.036-1.359-3.379-1.37a.12.12 0 00-.122.123c0 .07.053.128.122.128.64 0 1.231.112 1.764.33a4.447 4.447 0 011.444.97 4.3 4.3 0 01.97 1.524c.219.587.33 1.263.336 2.01z" fill="#7360F2"/></svg>