<svg width="61" height="61" fill="none" xmlns="http://www.w3.org/2000/svg"><path d="M51.14 25.296v-7.484a5.419 5.419 0 00-5.42-5.419H9.723a5.419 5.419 0 00-5.42 5.42v7.414m46.837-.318v.645M4.625 37.166v7.096a5.419 5.419 0 005.419 5.42h35.648a5.419 5.419 0 005.42-5.446l-.038-7.715" stroke="#4E4E4E" stroke-width=".903" stroke-linecap="round" stroke-linejoin="round"/><path d="M35.72 25.811h21.032v10.452H35.72a5.226 5.226 0 010-10.451z" stroke="#4E4E4E" stroke-width=".903"/><circle cx="4.561" cy="31.101" r=".903" fill="#4E4E4E"/><circle cx="35.914" cy="31.101" r=".903" fill="#4E4E4E"/><path d="M43.397 12.329h7.87a5.548 5.548 0 015.549 5.548v26.192a5.548 5.548 0 01-5.548 5.547h-15.16" stroke="#4E4E4E" stroke-width=".903"/></svg>