<svg width="52" height="58" fill="none" xmlns="http://www.w3.org/2000/svg"><mask id="a" fill="#fff"><path d="M9.853 13.739L26.1 6.984a.718.718 0 01.554 0l16.113 6.755s2.56 16.002-1.931 24.472C37.21 45.05 26.422 51.817 26.422 51.817s-11.21-6.645-14.908-13.606C7.02 29.752 9.853 13.74 9.853 13.74z"/></mask><path d="M9.853 13.739l-.242-.58-.317.131-.06.34.619.109zm32.914 0l.62-.1-.055-.345-.322-.135-.243.58zM26.422 51.817l-.32.54.33.196.324-.204-.334-.532zM40.836 38.21l.555.295-.555-.295zm-29.322 0l-.555.295.555-.295zM26.1 6.984l.241.58-.24-.58zm.554 0l-.243.58.243-.58zm16.113 6.755l-.621.1v.001l.002.008a10.66 10.66 0 00.025.165 63.51 63.51 0 01.299 2.424 73.49 73.49 0 01.385 6.372c.078 5.046-.411 11.024-2.576 15.108l1.11.589c2.326-4.386 2.802-10.645 2.723-15.717a74.808 74.808 0 00-.623-8.43 40.584 40.584 0 00-.103-.716v-.003l-.621.099zM40.28 37.917c-1.75 3.3-5.266 6.634-8.407 9.173a70.602 70.602 0 01-5.326 3.897l-.343.223-.088.056-.023.014-.005.003v.001h-.001l.334.533.334.532.003-.001a71.751 71.751 0 005.906-4.28c3.16-2.555 6.85-6.023 8.726-9.562l-1.11-.59zm-13.859 13.9l.32-.54v-.001l-.006-.004-.023-.014-.092-.055a59.068 59.068 0 01-1.662-1.058 69.081 69.081 0 01-4.219-3.018c-3.255-2.523-6.888-5.856-8.67-9.21l-1.111.59c1.916 3.605 5.736 7.075 9.01 9.614a70.34 70.34 0 005.632 3.93 39.312 39.312 0 00.466.286l.025.015.007.004.002.001.321-.54zm-14.353-13.9C9.905 33.841 9.48 27.868 9.626 22.82a71.984 71.984 0 01.735-8.284 40.529 40.529 0 01.103-.646l.006-.033.001-.008v-.001l-.618-.11-.62-.11v.004c0 .002 0 .006-.002.01l-.006.036a23.58 23.58 0 00-.107.67 73.251 73.251 0 00-.749 8.435c-.146 5.074.26 11.337 2.59 15.722l1.11-.59zm-1.975-23.598L26.34 7.564l-.482-1.16L9.61 13.157l.483 1.161zM26.41 7.564l16.113 6.755.486-1.16-16.113-6.754-.486 1.16zm-.07 0a.09.09 0 01.07 0l.486-1.16a1.347 1.347 0 00-1.038 0l.482 1.16z" fill="#4E4E4E" mask="url(#a)"/><path d="M26.046 48.749V36.027m0-13.659V9.646" stroke="#4E4E4E" stroke-width=".718" stroke-linecap="round"/><path d="M29.707 28.438l2.767-2.812-2.455-2.276-5.624 5.49-2.946-2.678-2.232 2.187 5.044 5.268 3.348-3.125" stroke="#4E4E4E" stroke-width=".808" stroke-linecap="round" stroke-linejoin="round"/><path d="M21.038 18.964a.416.416 0 01.17-.575 10.713 10.713 0 11-3.1 2.364.416.416 0 01.6-.012c.17.166.17.437.012.613a9.856 9.856 0 102.906-2.216.444.444 0 01-.588-.174z" fill="#4E4E4E"/></svg>