<svg width="61" height="61" fill="none" xmlns="http://www.w3.org/2000/svg"><path d="M38.819 43.011V14.018a.54.54 0 00-.54-.54H4.092a.54.54 0 00-.541.54v12.658M38.819 43.01h-17.85m17.85 0h2.759m-30.994.055H4.2a.54.54 0 01-.54-.54v-10.71" stroke="#4E4E4E" stroke-width=".649" stroke-linecap="round" stroke-linejoin="round"/><path d="M38.766 17.102H10.26" stroke="#4E4E4E" stroke-width=".757" stroke-linecap="round" stroke-linejoin="round"/><path d="M38.603 39.333H22.7" stroke="#4E4E4E" stroke-width=".757" stroke-linecap="round"/><circle cx="3.606" cy="29.326" r=".379" fill="#4E4E4E"/><path d="M39.469 19.752h9.005a.65.65 0 01.544.296l2.265 3.49m5.44 8.384h-13.63a.65.65 0 01-.65-.649v-6.835a.65.65 0 01.63-.648l8.21-.252m5.44 8.384l-5.44-8.384m5.44 8.384l.406.405c.121.122.19.287.19.46v9.467a.65.65 0 01-.65.649h-4.327m4.976-3.624h-3.3" stroke="#4E4E4E" stroke-width=".649" stroke-linecap="round" stroke-linejoin="round"/><circle cx="15.669" cy="42.903" r="5.085" stroke="#4E4E4E" stroke-width=".649"/><circle cx="47.041" cy="42.903" r="5.085" stroke="#4E4E4E" stroke-width=".649"/><circle cx="15.614" cy="43.065" r=".92" fill="#4E4E4E"/><circle cx="46.987" cy="43.065" r=".92" fill="#4E4E4E"/></svg>