<svg width="40" height="41" fill="none" xmlns="http://www.w3.org/2000/svg"><circle cx="20" cy="20.75" transform="rotate(-180 20 20.75)" fill="#0C6128" r="20"/><path d="M26.332 20.057h-1.37c-.29-1.05-1.21-1.817-2.292-1.817-1.082 0-2.003.786-2.31 1.817h-6.692a.68.68 0 00-.668.693.68.68 0 00.668.693h6.693c.288 1.05 1.209 1.817 2.291 1.817 1.082 0 2.003-.768 2.291-1.817h1.371a.68.68 0 00.668-.693.653.653 0 00-.65-.693zm-3.662 1.817c-.577 0-1.082-.487-1.082-1.124 0-.637.469-1.124 1.082-1.124.613 0 1.083.487 1.083 1.124 0 .637-.506 1.124-1.083 1.124zm-9.002-5.92h1.425c.288 1.049 1.209 1.817 2.291 1.817 1.082 0 2.003-.768 2.291-1.817h6.657A.68.68 0 0027 15.26c0-.393-.289-.693-.668-.693h-6.657c-.288-1.049-1.209-1.817-2.291-1.817-1.082 0-2.003.768-2.291 1.817h-1.425a.68.68 0 00-.668.694c0 .393.289.693.668.693zm3.716-1.818c.577 0 1.082.488 1.082 1.125s-.469 1.124-1.082 1.124c-.613 0-1.082-.525-1.082-1.125 0-.599.505-1.124 1.082-1.124zm8.948 11.41h-6.657c-.288-1.049-1.209-1.817-2.291-1.817-1.082 0-2.003.768-2.291 1.817h-1.425a.68.68 0 00-.668.694c0 .393.289.693.668.693h1.425c.288 1.049 1.209 1.817 2.291 1.817 1.082 0 2.003-.768 2.291-1.817h6.657a.68.68 0 00.668-.694c0-.393-.289-.693-.668-.693zm-8.948 1.818c-.577 0-1.082-.488-1.082-1.125s.469-1.124 1.082-1.124c.613 0 1.082.488 1.082 1.125s-.505 1.124-1.082 1.124z" fill="#fff"/></svg>