<svg width="48" height="480" fill="none" xmlns="http://www.w3.org/2000/svg"><path d="M4.72 475.083h18.538V451.03h4.315v24.053h20.023V480H.404v-31.894H4.72v26.977zM48 418.205c0 4.607-1.034 8.793-3.101 12.558-2.113 3.721-4.989 6.644-8.63 8.771-3.64 2.081-7.73 3.122-12.269 3.122-4.54 0-8.63-1.041-12.27-3.122-3.64-2.127-6.494-5.05-8.561-8.771C1.056 426.998 0 422.812 0 418.205s1.034-8.749 3.101-12.425c2.068-3.721 4.944-6.645 8.63-8.771 3.64-2.126 7.73-3.189 12.269-3.189 4.54 0 8.652 1.063 12.337 3.189 3.64 2.126 6.494 5.05 8.562 8.771 2.067 3.676 3.101 7.818 3.101 12.425zm-4.45 0c0-3.677-.83-6.999-2.494-9.967-1.708-2.968-4.045-5.293-7.011-6.977-3.011-1.683-6.36-2.525-10.045-2.525-3.685 0-7.011.842-9.977 2.525-3.012 1.684-5.349 4.009-7.012 6.977-1.708 2.968-2.562 6.29-2.562 9.967 0 3.676.854 7.021 2.562 10.033 1.663 2.968 4 5.316 7.012 7.043 2.966 1.683 6.292 2.525 9.977 2.525 3.685 0 7.034-.842 10.045-2.525a18.958 18.958 0 007.011-7.043c1.663-3.012 2.495-6.357 2.495-10.033zm4.046-67.167l-15.169 10.631a33.17 33.17 0 01.202 3.721v12.492h14.967v4.917H.404V365.39c0-5.936 1.439-10.587 4.315-13.953 2.877-3.367 6.832-5.05 11.865-5.05 3.686 0 6.81.93 9.371 2.79 2.517 1.817 4.337 4.43 5.46 7.841l16.18-11.362v5.382zm-19.214 14.485c0-4.607-1.034-8.129-3.101-10.565s-4.966-3.654-8.697-3.654c-3.82 0-6.741 1.218-8.764 3.654-2.067 2.436-3.1 5.958-3.1 10.565v12.359h23.662v-12.359zm14.898-63.631h4.316v32.89H.404v-31.894H4.72v26.977h16.787v-24.053h4.247v24.053H43.28v-27.973zM48 277.51a29.78 29.78 0 01-1.685 9.967c-1.124 3.145-2.607 5.581-4.45 7.309l-3.843-1.927c1.708-1.684 3.102-3.921 4.18-6.711a24.675 24.675 0 001.55-8.638c0-4.164-.763-7.287-2.291-9.369-1.573-2.082-3.596-3.123-6.068-3.123-1.887 0-3.393.576-4.517 1.728-1.123 1.107-1.977 2.48-2.561 4.119-.63 1.639-1.304 3.921-2.023 6.844-.899 3.5-1.753 6.29-2.562 8.372a14.35 14.35 0 01-3.842 5.382c-1.708 1.462-4.023 2.193-6.944 2.193-2.382 0-4.54-.62-6.472-1.86-1.978-1.241-3.55-3.145-4.72-5.715C.585 283.512 0 280.323 0 276.513c0-2.658.382-5.249 1.146-7.774.72-2.569 1.73-4.784 3.034-6.644l3.977 1.661a21.981 21.981 0 00-2.899 6.246c-.674 2.215-1.01 4.385-1.01 6.511 0 4.076.808 7.154 2.426 9.236 1.573 2.038 3.618 3.057 6.135 3.057 1.888 0 3.416-.554 4.584-1.662 1.124-1.151 2-2.569 2.63-4.252.584-1.728 1.235-4.031 1.954-6.91.854-3.411 1.708-6.158 2.562-8.239a13.091 13.091 0 013.776-5.382c1.662-1.462 3.932-2.193 6.809-2.193 2.382 0 4.561.642 6.539 1.927 1.933 1.24 3.483 3.167 4.652 5.78C47.438 270.489 48 273.7 48 277.51zM4.72 241.067v16.345H.403v-37.607H4.72v16.345h42.877v4.917H4.718zm42.876-78.268L32.427 173.43c.135 1.196.202 2.437.202 3.721v12.492h14.967v4.917H.404v-17.409c0-5.935 1.439-10.587 4.315-13.953 2.877-3.367 6.832-5.05 11.865-5.05 3.686 0 6.81.93 9.371 2.791 2.517 1.816 4.337 4.429 5.46 7.84l16.18-11.362v5.382zm-19.214 14.485c0-4.607-1.034-8.128-3.101-10.565-2.067-2.436-4.966-3.654-8.697-3.654-3.82 0-6.741 1.218-8.764 3.654-2.067 2.437-3.1 5.958-3.1 10.565v12.359h23.662v-12.359zM.404 146.543v-4.917h47.192v4.917H.404zm0-58.202l47.192 20.598v4.85L.404 134.387v-5.315l40.99-17.807-40.99-17.94V88.34zM43.28 48.7h4.316v32.89H.404V49.698H4.72v26.977h16.787V52.62h4.247v24.053H43.28V48.7zm4.316-43.318L32.427 16.013c.135 1.196.202 2.437.202 3.721v12.492h14.967v4.917H.404V19.734c0-5.936 1.439-10.587 4.315-13.953C7.596 2.414 11.551.73 16.584.73c3.686 0 6.81.93 9.371 2.79 2.517 1.817 4.337 4.43 5.46 7.841L47.596 0v5.382zM28.382 19.867c0-4.607-1.034-8.128-3.101-10.565-2.067-2.436-4.966-3.654-8.697-3.654-3.82 0-6.741 1.218-8.764 3.654-2.067 2.437-3.1 5.958-3.1 10.565v12.359h23.662V19.867z" opacity=".07" fill="#8B8B8B"/></svg>