<svg width="48" height="480" fill="none" xmlns="http://www.w3.org/2000/svg"><path d="M5.081 475.457h18.384v-22.224h4.279v22.224h19.855V480H.802v-29.469h4.279v24.926zM48 422.903c0 4.257-1.025 8.125-3.075 11.604-2.095 3.438-4.947 6.139-8.557 8.103-3.61 1.924-7.666 2.886-12.167 2.886-4.502 0-8.557-.962-12.167-2.886-3.61-1.964-6.44-4.665-8.49-8.103C1.448 431.028.4 427.16.4 422.903c0-4.256 1.025-8.083 3.076-11.48 2.05-3.438 4.902-6.139 8.557-8.104 3.61-1.964 7.665-2.947 12.167-2.947 4.501 0 8.579.983 12.234 2.947 3.61 1.965 6.44 4.666 8.49 8.104 2.05 3.397 3.075 7.224 3.075 11.48zm-4.412 0c0-3.397-.825-6.466-2.474-9.209-1.693-2.742-4.01-4.891-6.952-6.446-2.986-1.555-6.307-2.333-9.961-2.333-3.655 0-6.953.778-9.894 2.333-2.987 1.555-5.304 3.704-6.953 6.446-1.694 2.743-2.54 5.812-2.54 9.209 0 3.397.846 6.488 2.54 9.271 1.649 2.742 3.966 4.911 6.953 6.507 2.941 1.556 6.24 2.333 9.894 2.333s6.975-.777 9.96-2.333c2.942-1.596 5.26-3.765 6.953-6.507 1.65-2.783 2.474-5.874 2.474-9.271zm4.011-62.06l-15.042 9.823c.134 1.105.2 2.251.2 3.438v11.542H47.6v4.543H.802v-16.085c0-5.484 1.427-9.782 4.279-12.892 2.852-3.111 6.774-4.666 11.766-4.666 3.654 0 6.752.859 9.292 2.578 2.496 1.679 4.301 4.093 5.415 7.245L47.6 355.871v4.972zm-19.053 13.384c0-4.256-1.025-7.51-3.075-9.761-2.05-2.251-4.925-3.377-8.624-3.377-3.788 0-6.685 1.126-8.69 3.377-2.051 2.251-3.076 5.505-3.076 9.761v11.419h23.465v-11.419zm14.774-58.793h4.28v30.389H.802v-29.468h4.279v24.925h16.646v-22.224h4.212v22.224H43.32v-25.846zM48 292.906c0 3.193-.557 6.262-1.671 9.209-1.114 2.906-2.585 5.157-4.413 6.753l-3.81-1.78c1.694-1.555 3.075-3.622 4.145-6.201a21.416 21.416 0 001.537-7.981c0-3.847-.757-6.733-2.273-8.656-1.56-1.924-3.565-2.886-6.016-2.886-1.872 0-3.365.532-4.48 1.597-1.114 1.023-1.96 2.292-2.54 3.806-.624 1.514-1.292 3.622-2.005 6.323-.892 3.234-1.739 5.812-2.54 7.736-.848 1.923-2.118 3.581-3.811 4.973-1.694 1.35-3.99 2.026-6.886 2.026-2.362 0-4.501-.573-6.418-1.719-1.96-1.146-3.52-2.906-4.68-5.28-1.158-2.374-1.738-5.321-1.738-8.841 0-2.455.38-4.85 1.137-7.183.713-2.373 1.716-4.42 3.008-6.139l3.944 1.535a19.7 19.7 0 00-2.874 5.771c-.669 2.046-1.003 4.052-1.003 6.016 0 3.766.802 6.61 2.407 8.534 1.56 1.883 3.587 2.824 6.083 2.824 1.872 0 3.387-.512 4.546-1.535 1.114-1.064 1.983-2.374 2.607-3.929.58-1.596 1.226-3.724 1.94-6.385.846-3.151 1.693-5.689 2.54-7.613.802-1.964 2.05-3.622 3.743-4.972 1.65-1.351 3.9-2.026 6.752-2.026 2.362 0 4.524.593 6.485 1.78 1.916 1.146 3.454 2.926 4.613 5.341 1.114 2.415 1.671 5.382 1.671 8.902zM5.081 259.234v15.103H.802v-34.748h4.279v15.102h42.518v4.543H5.08zm42.518-72.317l-15.042 9.823c.134 1.105.2 2.251.2 3.438v11.542H47.6v4.543H.802v-16.085c0-5.484 1.427-9.782 4.279-12.892 2.852-3.111 6.774-4.666 11.766-4.666 3.654 0 6.752.859 9.292 2.578 2.496 1.679 4.301 4.093 5.415 7.245L47.6 181.945v4.972zm-19.053 13.384c0-4.256-1.025-7.51-3.075-9.761-2.05-2.251-4.925-3.377-8.624-3.377-3.788 0-6.685 1.126-8.69 3.377-2.051 2.251-3.076 5.505-3.076 9.761v11.419h23.465v-11.419zM.802 171.897v-4.543H47.6v4.543H.802zm0-53.776L47.6 137.152v4.482L.802 160.666v-4.912l40.647-16.453L.802 122.725v-4.604zM43.32 81.494h4.28v30.39H.802V82.415h4.279v24.926h16.646V85.116h4.212v22.225H43.32V81.494zm4.279-40.024l-15.042 9.822c.134 1.105.2 2.251.2 3.438v11.542H47.6v4.543H.802V54.73c0-5.484 1.427-9.782 4.279-12.892 2.852-3.11 6.774-4.666 11.766-4.666 3.654 0 6.752.86 9.292 2.579 2.496 1.678 4.301 4.092 5.415 7.244L47.6 36.497v4.972zM28.546 54.852c0-4.256-1.025-7.51-3.075-9.761-2.05-2.251-4.925-3.377-8.624-3.377-3.788 0-6.685 1.126-8.69 3.377-2.051 2.25-3.076 5.505-3.076 9.761v11.42h23.465v-11.42zm19.053-38.829a25.81 25.81 0 01-1.672 9.21c-1.114 2.905-2.585 5.156-4.412 6.753l-3.81-1.78c1.693-1.556 3.075-3.623 4.144-6.201a21.418 21.418 0 001.538-7.982c0-3.847-.758-6.732-2.273-8.656-1.56-1.923-3.565-2.885-6.017-2.885-1.872 0-3.364.532-4.479 1.596-1.114 1.023-1.96 2.292-2.54 3.806-.624 1.515-1.293 3.622-2.006 6.324-.891 3.233-1.738 5.812-2.54 7.735-.847 1.924-2.117 3.581-3.81 4.973-1.694 1.35-3.99 2.026-6.886 2.026-2.363 0-4.502-.573-6.418-1.72-1.961-1.145-3.521-2.905-4.68-5.279C.58 21.57 0 18.623 0 15.103c0-2.456.379-4.85 1.136-7.183.714-2.374 1.716-4.42 3.009-6.14l3.944 1.535a19.704 19.704 0 00-2.875 5.771c-.668 2.047-1.002 4.052-1.002 6.017 0 3.765.802 6.61 2.406 8.533 1.56 1.883 3.588 2.824 6.084 2.824 1.872 0 3.387-.511 4.546-1.535 1.114-1.064 1.983-2.373 2.607-3.929.58-1.596 1.226-3.724 1.939-6.384.847-3.152 1.693-5.69 2.54-7.613.802-1.965 2.05-3.622 3.744-4.973C29.727.676 31.978 0 34.83 0c2.362 0 4.524.593 6.485 1.78 1.916 1.146 3.454 2.927 4.612 5.342 1.115 2.414 1.672 5.382 1.672 8.901z" opacity=".07" fill="#8B8B8B"/></svg>