<svg width="99" height="68" fill="none" xmlns="http://www.w3.org/2000/svg"><path d="M73 .75H4a3 3 0 00-3 3v3a3 3 0 003 3h91.5a3 3 0 003-3v-3a3 3 0 00-3-3H79" stroke="#949494" stroke-linecap="round" stroke-linejoin="round"/><path d="M5.5 18.25v-5a3 3 0 013-3h81a3 3 0 013 3v5a3 3 0 01-3 3h-81a3 3 0 01-3-3z" stroke="#949494"/><path d="M14.5 21.75v18" stroke="#949494" stroke-linecap="round"/><path d="M23.5 21.75l-3.28 42.164a3.074 3.074 0 01-3.064 2.836v0a3.074 3.074 0 01-3.073-3.155L14.5 47.75M76 21.25l2.35 41.816a2.844 2.844 0 002.838 2.684v0a2.844 2.844 0 002.844-2.811L84.5 21.75" stroke="#949494" stroke-linecap="round" stroke-linejoin="round"/></svg>