<svg width="101" height="101" fill="none" xmlns="http://www.w3.org/2000/svg"><path d="M80 50.75c0 20.261-13.3 36.5-29.5 36.5S21 71.011 21 50.75c0-20.262 13.3-36.5 29.5-36.5S80 30.488 80 50.75z" stroke="#949494"/><path d="M88.306 60.025a.39.39 0 00.479-.316c1.678-10.416.383-21.214-3.68-30.635-4.118-9.547-10.83-17.103-19.013-21.404-8.184-4.302-17.344-5.09-25.952-2.231C31.532 8.297 24 14.628 18.8 23.374c-5.2 8.746-7.754 19.378-7.232 30.119.52 10.741 4.084 20.942 10.095 28.898 6.01 7.957 14.104 13.186 22.93 14.816 8.707 1.609 17.605-.383 25.248-5.643a.442.442 0 00.146-.557.45.45 0 00-.659-.173c-7.462 5.09-16.132 7.012-24.617 5.444-8.649-1.597-16.581-6.722-22.472-14.52-5.89-7.797-9.382-17.793-9.893-28.32-.51-10.527 1.991-20.946 7.088-29.517 5.096-8.57 12.479-14.775 20.914-17.576C48.783 3.544 57.76 4.315 65.78 8.53c8.02 4.216 14.597 11.62 18.633 20.976 3.988 9.248 5.255 19.849 3.598 30.07a.395.395 0 00.295.448z" fill="#949494"/><path d="M34.5 49.75l21-21M33 39.25l12-12m30.5 58.5l3.5-3.5m4.5-7.5l2-4.5" stroke="#949494" stroke-linecap="round"/></svg>