<svg width="101" height="101" fill="none" xmlns="http://www.w3.org/2000/svg"><g clip-path="url(#clip0)" stroke="#949494" stroke-linecap="round"><path d="M78.5 42.25L76 25.75m-1-6l-.084-1.47c-.514-8.997-7.96-16.03-16.972-16.03h-16.04c-8.188 0-15.055 6.182-15.912 14.325L25.5 21.25l-3.5 22"/><path d="M28 59.75l-6.069 37.813a2.32 2.32 0 002.29 2.687v0a2.32 2.32 0 002.24-1.718L31.5 79.75l3.646-11.5m2.854-9l-2.854 9m0 0l2.817-1.94a6 6 0 013.404-1.06h18.148a7 7 0 012.843.603L65.5 67.25m0 0l-2-8m2 8l2 5.5m5.5-13.5l6.141 37.792a2.156 2.156 0 01-1.86 2.485v0a2.156 2.156 0 01-2.323-1.487L69 79.25m-36.5-38.5l-4.357.156a10 10 0 00-9.643 9.993v.35a8 8 0 008 8H74a8 8 0 008-8v-2.76a7 7 0 00-6.198-6.954L69 40.75c-5.5-.833-19.3-2.1-30.5-.5" stroke-linejoin="round"/></g><defs><clipPath id="clip0"><path fill="#fff" transform="translate(.5 .75)" d="M0 0h100v100H0z"/></clipPath></defs></svg>