<svg width="55" height="557" fill="none" xmlns="http://www.w3.org/2000/svg"><path d="M5.407 551.294H26.65v-27.911h4.944v27.911h22.942V557H.463v-37.01h4.944v31.304zM55 485.292c0 5.346-1.184 10.203-3.553 14.572-2.42 4.318-5.717 7.711-9.888 10.178-4.171 2.416-8.858 3.624-14.059 3.624-5.201 0-9.888-1.208-14.059-3.624-4.171-2.467-7.441-5.86-9.81-10.178C1.21 495.495 0 490.638 0 485.292c0-5.346 1.184-10.152 3.553-14.419 2.37-4.317 5.665-7.71 9.888-10.177 4.171-2.468 8.858-3.701 14.059-3.701 5.201 0 9.913 1.233 14.136 3.701 4.172 2.467 7.442 5.86 9.81 10.177 2.37 4.267 3.554 9.073 3.554 14.419zm-5.098 0c0-4.267-.953-8.122-2.858-11.566-1.957-3.444-4.635-6.142-8.034-8.096-3.45-1.953-7.287-2.93-11.51-2.93s-8.034.977-11.433 2.93c-3.45 1.954-6.128 4.652-8.033 8.096-1.957 3.444-2.936 7.299-2.936 11.566 0 4.266.979 8.147 2.936 11.642 1.905 3.444 4.583 6.169 8.033 8.173 3.4 1.954 7.21 2.93 11.433 2.93s8.06-.976 11.51-2.93c3.399-2.004 6.077-4.729 8.034-8.173 1.905-3.495 2.858-7.376 2.858-11.642zm4.634-77.942l-17.38 12.337c.154 1.388.232 2.827.232 4.318V438.5h17.148v5.706H.463v-20.201c0-6.888 1.648-12.286 4.944-16.192 3.296-3.907 7.828-5.86 13.596-5.86 4.223 0 7.802 1.079 10.737 3.238 2.884 2.108 4.97 5.141 6.257 9.099l18.54-13.185v6.245zm-22.015 16.809c0-5.346-1.184-9.433-3.553-12.26-2.37-2.827-5.69-4.24-9.965-4.24-4.377 0-7.725 1.413-10.042 4.24-2.37 2.827-3.554 6.914-3.554 12.26V438.5h27.114v-14.341zm17.072-73.839h4.943v38.166H.463v-37.009h4.944v31.304h19.235v-27.912h4.866v27.912h20.085V350.32zM55 322.027c0 4.01-.644 7.865-1.931 11.566-1.288 3.649-2.987 6.476-5.099 8.481l-4.403-2.236c1.957-1.953 3.554-4.549 4.79-7.787a28.963 28.963 0 001.776-10.024c0-4.832-.875-8.456-2.626-10.871-1.802-2.416-4.12-3.624-6.952-3.624-2.163 0-3.888.668-5.176 2.004-1.287 1.285-2.266 2.879-2.935 4.781-.721 1.902-1.494 4.549-2.318 7.941-1.03 4.061-2.008 7.3-2.935 9.716a16.659 16.659 0 01-4.403 6.245c-1.957 1.696-4.61 2.544-7.957 2.544-2.729 0-5.2-.719-7.415-2.159-2.266-1.439-4.069-3.649-5.408-6.63C.67 328.992 0 325.291 0 320.871c0-3.085.438-6.092 1.313-9.022.824-2.981 1.983-5.551 3.476-7.71l4.558 1.928a25.649 25.649 0 00-3.322 7.247c-.772 2.571-1.158 5.089-1.158 7.557 0 4.729.927 8.301 2.78 10.717 1.803 2.365 4.146 3.547 7.03 3.547 2.163 0 3.914-.643 5.253-1.928 1.287-1.336 2.291-2.981 3.012-4.934.67-2.005 1.417-4.678 2.24-8.019.979-3.958 1.958-7.145 2.936-9.561.927-2.467 2.369-4.549 4.326-6.245 1.905-1.697 4.506-2.545 7.802-2.545 2.73 0 5.227.745 7.493 2.236 2.214 1.439 3.99 3.675 5.33 6.708 1.287 3.033 1.931 6.76 1.931 11.18zM5.407 279.738v18.968H.463v-43.641h4.944v18.968h49.13v5.705H5.406zm49.129-90.823l-17.38 12.336c.154 1.388.232 2.828.232 4.318v14.496h17.148v5.705H.463v-20.201c0-6.888 1.648-12.285 4.944-16.191 3.296-3.907 7.828-5.86 13.596-5.86 4.223 0 7.802 1.079 10.737 3.238 2.884 2.107 4.97 5.14 6.257 9.098l18.54-13.185v6.246zm-22.015 16.809c0-5.346-1.184-9.433-3.553-12.26-2.37-2.827-5.69-4.241-9.965-4.241-4.377 0-7.725 1.414-10.042 4.241-2.37 2.827-3.554 6.914-3.554 12.26v14.341h27.114v-14.341zM.463 170.051v-5.706h54.073v5.706H.463zm0-67.539l54.073 23.902v5.629L.463 155.945v-6.168l46.967-20.664L.463 108.295v-5.783zm49.13-45.999h4.943v38.166H.463V57.67h4.944v31.305h19.235V61.062h4.866v27.912h20.085V56.513zm4.943-50.268l-17.38 12.337c.154 1.388.232 2.827.232 4.318v14.495h17.148v5.706H.463V22.9c0-6.888 1.648-12.285 4.944-16.192C8.703 2.801 13.235.848 19.003.848c4.223 0 7.802 1.08 10.737 3.238 2.884 2.108 4.97 5.14 6.257 9.099L54.537 0v6.245zm-22.015 16.81c0-5.347-1.184-9.433-3.553-12.26-2.37-2.828-5.69-4.241-9.965-4.241-4.377 0-7.725 1.413-10.042 4.24-2.37 2.828-3.554 6.914-3.554 12.26v14.341h27.114v-14.34z" opacity=".3" fill="#949494"/></svg>