<?xml version="1.0" encoding="utf-8"?>
<!-- Generator: Adobe Illustrator 22.1.0, SVG Export Plug-In . SVG Version: 6.00 Build 0)  -->
<svg version="1.1" id="Layer_1" xmlns="http://www.w3.org/2000/svg" xmlns:xlink="http://www.w3.org/1999/xlink" x="0px" y="0px"
	 viewBox="0 0 503.6 503.6" enable-background="new 0 0 503.6 503.6" xml:space="preserve">
<g transform="translate(1 1)">
	<g>
		<g>
			<path fill="#D03D16" d="M494.2,41H7.4c-5,0-8.4,3.4-8.4,8.4v402.9c0,5,3.4,8.4,8.4,8.4H41h419.7h33.6c5,0,8.4-3.4,8.4-8.4V49.4
				C502.6,44.3,499.2,41,494.2,41z M49.4,309.6h402.9v33.6H49.4V309.6z M452.2,292.8H49.4v-33.6h402.9V292.8z M49.4,359.9h402.9
				v33.6H49.4V359.9z M452.2,242.4H49.4v-33.6h402.9V242.4z M49.4,443.9v-33.6h402.9v33.6H49.4z M485.8,443.9H469v-42v-50.4v-50.4
				v-50.4v-50.4c0-5-3.4-8.4-8.4-8.4H41c-5,0-8.4,3.4-8.4,8.4v50.4v50.4v50.4v50.4v42H15.8V57.8h470V443.9z"/>
			<path fill="#D03D16" d="M276,175.3h184.7c5,0,8.4-3.4,8.4-8.4v-37.8c0-2.5-1.7-5.9-4.2-7.6c-59.6-31.1-122.5-47-188.9-47
				c-5,0-8.4,3.4-8.4,8.4v83.9C267.6,171.9,270.9,175.3,276,175.3z M284.4,91.3c58.8,0.8,115,15.1,167.9,42.8v24.3H284.4V91.3z"/>
			<path fill="#D03D16" d="M41,175.3h184.7c5,0,8.4-3.4,8.4-8.4V82.9c0-5-3.4-8.4-8.4-8.4c-66.3,0-129.3,15.9-188.9,47
				c-2.5,1.7-4.2,4.2-4.2,7.6v37.8C32.6,171.9,35.9,175.3,41,175.3z M49.4,134.1c52.9-26.9,109.1-42,167.9-42.8v67.1H49.4V134.1z"/>
		</g>
	</g>
</g>
</svg>
