<?xml version="1.0" encoding="utf-8"?>
<!-- Generator: Adobe Illustrator 22.1.0, SVG Export Plug-In . SVG Version: 6.00 Build 0)  -->
<svg version="1.1" id="Слой_1" xmlns="http://www.w3.org/2000/svg" xmlns:xlink="http://www.w3.org/1999/xlink" x="0px" y="0px"
	 viewBox="0 0 500 418" enable-background="new 0 0 500 418" xml:space="preserve">
<path fill="#2DA5E1" d="M199.2,272.6c-1.9,1.7-3.1,4.1-3.3,6.7l-7.6,107c-0.2,2.9,2.1,5.4,5,5c8.2-1.3,12.6-5.7,17.8-10.8l55.5-53
	l115,84.2c21.1,11.8,35.9,5.6,41.6-19.4l75.5-353.6l0,0c6.7-31.2-11.3-43.4-31.8-35.7L23.2,172.7c-30.3,11.8-29.8,28.6-5.1,36.3
	l109,33.9c2.8,0.9,5.8,0.5,8.3-1.1L394.9,79.4c12.4-8.2,23.7-3.7,14.4,4.5L199.2,272.6z"/>
</svg>
