<?xml version="1.0" encoding="utf-8"?>
<!-- Generator: Adobe Illustrator 22.1.0, SVG Export Plug-In . SVG Version: 6.00 Build 0)  -->
<svg version="1.1" id="Слой_1" xmlns="http://www.w3.org/2000/svg" xmlns:xlink="http://www.w3.org/1999/xlink" x="0px" y="0px"
	 viewBox="0 0 500 500" enable-background="new 0 0 500 500" xml:space="preserve">
<path fill="#7BBF6A" d="M425.7,72.6C378.7,25.8,316.3,0,249.7,0C183.4,0,120.8,25.8,73.5,72.5C26.2,119.4,0.1,181.7,0,247.7v0.1v0
	c0,39.9,10.5,80.2,30.4,117L0.7,500l136.7-31.1c34.6,17.5,73.3,26.7,112.2,26.7h0.1c66.3,0,128.9-25.8,176.2-72.6
	c47.4-46.9,73.5-109.1,73.6-175.1C499.5,182.3,473.3,120.1,425.7,72.6L425.7,72.6z M249.7,456.5L249.7,456.5
	c-35.1,0-69.8-8.8-100.3-25.4l-6.5-3.5L52,448.3l19.7-89.8L68,352C49,319.3,39,283.3,39,247.8C39.1,132.7,133.6,39,249.7,39
	c56.1,0,108.8,21.8,148.4,61.2c40.2,40.1,62.3,92.5,62.3,147.6C460.4,362.9,365.9,456.5,249.7,456.5L249.7,456.5z"/>
<path fill="#7BBF6A" d="M181.8,138.5h-10.9c-3.8,0-10,1.4-15.2,7.1c-5.2,5.7-20,19.5-20,47.5c0,28,20.5,55.1,23.3,58.9
	c2.9,3.8,39.5,63.1,97.6,85.9c48.3,19,58.1,15.2,68.6,14.2c10.5-0.9,33.8-13.8,38.6-27.1c4.8-13.3,4.8-24.7,3.3-27.1
	c-1.4-2.4-5.2-3.8-11-6.6c-5.7-2.8-33.7-16.9-39-18.8c-5.2-1.9-9-2.8-12.9,2.9c-3.8,5.7-15,18.9-18.4,22.7
	c-3.3,3.8-6.7,4.3-12.4,1.4c-5.7-2.9-23.9-9-45.8-28.4c-17-15.1-28.8-34.3-32.1-40c-3.3-5.7-0.4-8.8,2.5-11.6c2.6-2.5,6-6,8.9-9.4
	c2.9-3.3,3.7-5.7,5.6-9.5c1.9-3.8,0.9-7.1-0.5-10c-1.4-2.8-12.4-31-17.5-42.3h0C190.4,139,185.9,138.7,181.8,138.5L181.8,138.5z"/>
</svg>
