<svg xmlns="http://www.w3.org/2000/svg" width="58" height="57">
    <path fill="#5474FD" fill-rule="evenodd" d="M57.266 53.812l-2.954 2.954L38 40.453c-.938.844-1.969 1.595-3.094 2.25-1.125.657-2.298 1.219-3.515 1.688-1.22.47-2.51.821-3.868 1.054-1.36.235-2.696.352-4.007.352-3.189 0-6.166-.609-8.93-1.828-2.766-1.218-5.181-2.859-7.242-4.922-2.064-2.061-3.681-4.476-4.852-7.242C1.319 29.04.734 26.109.734 23.016c0-3.186.585-6.164 1.758-8.93 1.171-2.764 2.788-5.179 4.852-7.242 2.061-2.061 4.476-3.679 7.242-4.852C17.35.821 20.327.234 23.516.234c3.093 0 6.022.587 8.789 1.758 2.764 1.173 5.179 2.791 7.242 4.852 2.061 2.063 3.702 4.478 4.922 7.242 1.217 2.766 1.828 5.744 1.828 8.93 0 1.313-.119 2.649-.352 4.007-.235 1.36-.586 2.65-1.054 3.867-.471 1.22-1.033 2.391-1.688 3.516-.657 1.125-1.406 2.158-2.25 3.094l16.313 16.312zM3.125 23.016c0 2.812.514 5.438 1.547 7.874 1.03 2.439 2.483 4.595 4.359 6.469 1.874 1.877 4.054 3.353 6.539 4.43 2.483 1.079 5.133 1.617 7.946 1.617 2.812 0 5.436-.538 7.875-1.617 2.436-1.077 4.592-2.553 6.468-4.43 1.875-1.874 3.351-4.03 4.43-6.469 1.077-2.436 1.617-5.062 1.617-7.874 0-2.813-.54-5.461-1.617-7.946-1.079-2.483-2.555-4.662-4.43-6.539-1.876-1.874-4.032-3.327-6.468-4.359-2.439-1.031-5.063-1.547-7.875-1.547-2.813 0-5.463.516-7.946 1.547-2.485 1.032-4.665 2.485-6.539 4.359-1.876 1.877-3.329 4.056-4.359 6.539-1.033 2.485-1.547 5.133-1.547 7.946z"/>
</svg>
