<svg xmlns="http://www.w3.org/2000/svg" width="62" height="59">
    <path fill="#00A2FF" fill-rule="evenodd" d="M61.586 28.656c0 .657-.095 1.266-.281 1.828-.189.563-.471 1.079-.844 1.547-.376.47-.798.844-1.266 1.125-.47.281-.984.516-1.547.703.282.47.515.963.703 1.477.187.516.282 1.103.282 1.758 0 .562-.095 1.125-.282 1.687-.188.563-.421 1.079-.703 1.547-.375.376-.797.727-1.265 1.055-.471.329-.938.586-1.406.773.281.47.514.984.703 1.547.186.563.281 1.125.281 1.688 0 .656-.095 1.243-.281 1.757-.189.517-.422 1.009-.703 1.477-.376.47-.798.868-1.266 1.195-.47.33-.985.541-1.547.633.374.47.655.963.844 1.476.187.517.281 1.104.281 1.758 0 .657-.141 1.314-.422 1.969-.281.657-.657 1.22-1.125 1.688-.562.47-1.173.843-1.828 1.125-.657.281-1.36.421-2.109.421H29.242c-.657 0-1.406-.092-2.25-.281-.844-.186-1.736-.468-2.672-.843-.938-.282-1.876-.633-2.812-1.055-.938-.422-1.877-.82-2.813-1.196-1.125-.468-2.228-.935-3.304-1.406-1.079-.468-1.853-.703-2.321-.703H.273V25.984l1.125-.14h10.969c.844 0 1.617-.093 2.32-.282.704-.186 1.429-.562 2.18-1.125.844-.468 1.804-1.125 2.883-1.968 1.077-.844 2.366-1.875 3.867-3.094 2.905-2.437 4.617-5.485 5.133-9.141.514-3.656.773-5.765.773-6.328 0-.562.141-1.101.422-1.617.281-.514.655-.914 1.125-1.195.468-.374.96-.633 1.477-.774.514-.141 1.006-.211 1.476-.211.75 0 1.499.095 2.25.281.75.189 1.453.611 2.11 1.266.655.657 1.171 1.525 1.547 2.602.373 1.079.562 2.509.562 4.289 0 1.595-.119 3.118-.351 4.57-.235 1.455-.541 2.837-.915 4.149-.281 1.313-.632 2.509-1.054 3.585-.422 1.079-.774 1.993-1.055 2.743h19.125c.844 0 1.569.118 2.18.351.609.235 1.195.587 1.758 1.055.468.47.819 1.009 1.054 1.617.233.611.352 1.29.352 2.039zm-5.344 2.953c.468 0 .89-.07 1.266-.211.373-.14.655-.351.843-.633.282-.281.515-.584.704-.913.186-.328.281-.726.281-1.196 0-.749-.281-1.406-.844-1.969-.562-.562-1.314-.843-2.25-.843h-8.437c0 .094 0 .094 0 0H33.32l.844-1.688c2.624-6.469 3.938-11.672 3.938-15.609 0-3.094-.517-4.898-1.547-5.414-1.033-.515-1.877-.774-2.532-.774-.281 0-.703.141-1.265.422-.563.281-.844.657-.844 1.125 0 .563-.048 1.501-.141 2.813-.094 1.314-.375 2.812-.843 4.5-.471 1.687-1.15 3.423-2.039 5.203-.892 1.782-2.134 3.329-3.727 4.64-1.595 1.314-2.931 2.415-4.008 3.305-1.079.892-2.087 1.617-3.023 2.18-.939.562-1.877.984-2.813 1.265-.938.282-1.922.422-2.953.422H2.664v22.782H13.07c.655 0 1.523.21 2.602.632 1.076.422 2.412.963 4.008 1.617.749.376 1.568.774 2.461 1.196.889.422 1.757.773 2.601 1.054.936.282 1.78.541 2.531.774.75.235 1.407.352 1.969.352h18.563c.468 0 .89-.093 1.265-.282.374-.187.703-.422.985-.703.281-.187.492-.468.632-.844.141-.373.211-.749.211-1.125 0-.468-.07-.865-.211-1.195-.14-.327-.351-.633-.632-.914-.282-.281-.611-.492-.985-.633-.375-.14-.797-.211-1.265-.211h-.282v-2.39h3.235c.373 0 .749-.071 1.125-.211.373-.141.703-.352.984-.633.187-.281.374-.609.563-.984.186-.374.281-.75.281-1.125 0-.374-.095-.75-.281-1.125-.189-.374-.376-.704-.563-.985-.281-.187-.611-.374-.984-.562-.376-.187-.752-.282-1.125-.282h-.985v-2.39h3.516c.374 0 .749-.071 1.125-.211.374-.141.703-.352.984-.633.282-.281.514-.609.704-.984.186-.374.281-.75.281-1.125 0-.468-.095-.89-.281-1.266-.19-.374-.422-.655-.704-.844-.281-.281-.61-.514-.984-.703-.376-.187-.751-.281-1.125-.281h-1.125v-2.391h4.078z"/>
</svg>
