<svg xmlns="http://www.w3.org/2000/svg" width="20" height="22">
    <path fill="#FFF" fill-rule="evenodd" d="M19.993 19.98l-1.044 1.047-5.767-5.784c-.332.299-.696.566-1.094.798-.398.233-.812.432-1.243.598-.431.167-.887.292-1.367.374-.481.083-.953.125-1.417.125-1.127 0-2.18-.216-3.157-.648-.978-.432-1.832-1.014-2.56-1.745-.73-.731-1.301-1.587-1.715-2.568-.415-.98-.622-2.019-.622-3.116 0-1.13.207-2.185.622-3.166.414-.98.985-1.836 1.715-2.568.728-.731 1.582-1.304 2.56-1.72.977-.415 2.03-.623 3.157-.623 1.094 0 2.129.208 3.107.623.978.416 1.831.989 2.561 1.72.728.732 1.309 1.588 1.74 2.568.43.981.646 2.036.646 3.166 0 .466-.042.939-.124 1.421-.083.482-.208.939-.373 1.371-.166.432-.365.847-.597 1.246-.232.399-.497.765-.795 1.097l5.767 5.784zM.852 9.061c0 .997.182 1.928.547 2.792.364.864.878 1.629 1.541 2.293.663.666 1.434 1.189 2.312 1.571.878.382 1.815.573 2.809.573.994 0 1.922-.191 2.784-.573.862-.382 1.624-.905 2.287-1.571.663-.664 1.185-1.429 1.566-2.293.381-.864.572-1.795.572-2.792 0-.997-.191-1.936-.572-2.817-.381-.88-.903-1.653-1.566-2.318s-1.425-1.18-2.287-1.546c-.862-.365-1.79-.549-2.784-.549-.994 0-1.931.184-2.809.549-.878.366-1.649.881-2.312 1.546-.663.665-1.177 1.438-1.541 2.318-.365.881-.547 1.82-.547 2.817z"/>
</svg>
