<svg width="582" height="321" fill="none" xmlns="http://www.w3.org/2000/svg"><path fill-rule="evenodd" clip-rule="evenodd" d="M161.572 187.892l25.979-3.651 5.138 36.563-25.979 3.651 6.947 49.431-45.502 6.395-6.947-49.431-93.997 13.211-6.061-28.273L95.571 51.866l45.975-6.462 20.026 142.488zm-96.163 13.527l50.7-7.112-11.357-80.657-2.262 5.598-37.081 82.171zm467.94-1.88l25.912 4.097-5.786 36.466-25.913-4.096-7.823 49.301-45.386-7.175 7.824-49.301-93.756-14.821 2.479-28.808L510.043 50.179l45.857 7.25-22.551 142.11zm-95.954-15.169l50.568 7.994 12.766-80.446-3.804 4.693-59.53 67.759z" fill="#F5CE00"/><path fill-rule="evenodd" clip-rule="evenodd" d="M440.811 126.239C440.811 56.499 384.172 0 314.338 0h-22.312c-69.834 0-126.473 56.499-126.473 126.239l-3.075 164.82v.999c0 15.986 12.586 28.942 28.14 28.942 15.519 0 28.141-12.956 28.141-28.942 0-16.025 12.587-28.981 28.141-28.981 15.554 0 28.141 12.956 28.141 28.981 0 15.986 12.587 28.942 28.141 28.942 15.554 0 28.141-12.956 28.141-28.942 0-16.025 12.586-28.981 28.141-28.981 15.554 0 28.14 12.956 28.14 28.981 0 15.986 12.587 28.942 28.141 28.942 15.555 0 28.138-12.956 28.138-28.942v-.999l-3.072-164.82zM212.86 178.561c-21.526 0-38.939-23.984-38.939-53.572s17.413-53.572 38.939-53.572c21.49 0 38.904 23.984 38.904 53.572s-17.414 53.572-38.904 53.572zm63.254-53.572c0 29.588 17.45 53.572 38.94 53.572s38.939-23.984 38.939-53.572-17.449-53.572-38.939-53.572-38.94 23.984-38.94 53.572zm-26.999.704c0 12.006-8.296 21.746-18.533 21.746-10.237 0-18.533-9.74-18.533-21.746 0-12.007 8.296-21.74 18.533-21.74 10.237 0 18.533 9.733 18.533 21.74zm65.227 0c0-12.003 8.299-21.74 18.533-21.74 10.234 0 18.529 9.733 18.533 21.74 0 12.006-8.296 21.746-18.533 21.746-10.237 0-18.533-9.74-18.533-21.746z" fill="#171616"/></svg>