<svg width="294" height="74" fill="none" xmlns="http://www.w3.org/2000/svg"><path d="M104.112 49.2h1.288V59h-1.288v-4.41h-4.76V59H98.05v-9.8h1.302v4.158h4.76V49.2zm9.615 2.8h1.218v7h-1.218v-1.204c-.606.924-1.488 1.386-2.646 1.386-.98 0-1.815-.355-2.506-1.064-.69-.719-1.036-1.591-1.036-2.618s.346-1.895 1.036-2.604c.691-.719 1.526-1.078 2.506-1.078 1.158 0 2.04.462 2.646 1.386V52zm-2.492 6.006c.71 0 1.302-.238 1.778-.714.476-.485.714-1.083.714-1.792 0-.71-.238-1.302-.714-1.778-.476-.485-1.068-.728-1.778-.728-.7 0-1.288.243-1.764.728-.476.476-.714 1.069-.714 1.778 0 .71.238 1.307.714 1.792.476.476 1.064.714 1.764.714zM122.195 52h1.218v7h-1.218v-2.926h-3.626V59h-1.218v-7h1.218v2.912h3.626V52zm9.54 6.118c-.719.71-1.592 1.064-2.618 1.064-1.027 0-1.9-.355-2.618-1.064-.71-.71-1.064-1.582-1.064-2.618 0-1.036.354-1.909 1.064-2.618.718-.71 1.591-1.064 2.618-1.064 1.026 0 1.899.355 2.618 1.064.718.71 1.078 1.582 1.078 2.618 0 1.036-.36 1.909-1.078 2.618zm-2.618-.126c.7 0 1.288-.238 1.764-.714s.714-1.069.714-1.778c0-.71-.238-1.302-.714-1.778s-1.064-.714-1.764-.714c-.691 0-1.274.238-1.75.714s-.714 1.069-.714 1.778c0 .71.238 1.302.714 1.778s1.059.714 1.75.714zM140.871 52v7h-1.218v-5.838h-3.626V59h-1.218v-7h6.062zm8.252 0v7h-1.218v-5.824h-2.758v2.856c0 1.148-.234 1.95-.7 2.408-.458.448-1.106.635-1.946.56v-1.148c.476.065.83-.037 1.064-.308.242-.28.364-.793.364-1.54V52h5.194zm8.201 0h1.218v7h-1.218v-1.204c-.607.924-1.489 1.386-2.646 1.386-.98 0-1.815-.355-2.506-1.064-.691-.719-1.036-1.591-1.036-2.618s.345-1.895 1.036-2.604c.691-.719 1.526-1.078 2.506-1.078 1.157 0 2.039.462 2.646 1.386V52zm-2.492 6.006c.709 0 1.302-.238 1.778-.714.476-.485.714-1.083.714-1.792 0-.71-.238-1.302-.714-1.778-.476-.485-1.069-.728-1.778-.728-.7 0-1.288.243-1.764.728-.476.476-.714 1.069-.714 1.778 0 .71.238 1.307.714 1.792.476.476 1.064.714 1.764.714zM166.156 52v1.176h-2.38V59h-1.218v-5.824h-2.394V52h5.992zm8.381 1.05c.654.672.98 1.489.98 2.45 0 .961-.326 1.778-.98 2.45-.653.672-1.526 1.069-2.618 1.19v2.66h-1.204v-2.66c-1.092-.121-1.964-.518-2.618-1.19-.653-.672-.98-1.489-.98-2.45 0-.961.327-1.778.98-2.45.654-.672 1.526-1.069 2.618-1.19V49.2h1.204v2.66c1.092.121 1.965.518 2.618 1.19zm-6.216 2.45c0 .644.21 1.19.63 1.638.43.448 1.018.723 1.764.826v-4.928c-.746.093-1.334.364-1.764.812-.42.448-.63.999-.63 1.652zm3.598 2.464c.747-.103 1.33-.378 1.75-.826.42-.448.63-.994.63-1.638 0-.644-.21-1.19-.63-1.638-.42-.448-1.003-.723-1.75-.826v4.928zm11.506.154c-.719.71-1.592 1.064-2.618 1.064-1.027 0-1.9-.355-2.618-1.064-.71-.71-1.064-1.582-1.064-2.618 0-1.036.354-1.909 1.064-2.618.718-.71 1.591-1.064 2.618-1.064 1.026 0 1.899.355 2.618 1.064.718.71 1.078 1.582 1.078 2.618 0 1.036-.36 1.909-1.078 2.618zm-2.618-.126c.7 0 1.288-.238 1.764-.714s.714-1.069.714-1.778c0-.71-.238-1.302-.714-1.778s-1.064-.714-1.764-.714c-.691 0-1.274.238-1.75.714s-.714 1.069-.714 1.778c0 .71.238 1.302.714 1.778s1.059.714 1.75.714zm9.556-6.174c.98 0 1.815.36 2.506 1.078.69.71 1.036 1.577 1.036 2.604 0 1.027-.346 1.9-1.036 2.618-.691.71-1.526 1.064-2.506 1.064-1.158 0-2.04-.462-2.646-1.386V61.8h-1.218V52h1.218v1.204c.606-.924 1.488-1.386 2.646-1.386zm-.154 6.188c.7 0 1.288-.238 1.764-.714.476-.485.714-1.083.714-1.792 0-.71-.238-1.302-.714-1.778-.476-.485-1.064-.728-1.764-.728-.71 0-1.302.243-1.778.728-.476.476-.714 1.069-.714 1.778 0 .71.238 1.307.714 1.792.476.476 1.068.714 1.778.714zM202.918 52v7h-1.19v-5.082l-2.226 3.584h-.154l-2.226-3.584V59h-1.204v-7h1.302l2.198 3.542L201.616 52h1.302zm8.215 0h1.218v7h-1.218v-1.204c-.606.924-1.488 1.386-2.646 1.386-.98 0-1.815-.355-2.506-1.064-.69-.719-1.036-1.591-1.036-2.618s.346-1.895 1.036-2.604c.691-.719 1.526-1.078 2.506-1.078 1.158 0 2.04.462 2.646 1.386V52zm-2.492 6.006c.71 0 1.302-.238 1.778-.714.476-.485.714-1.083.714-1.792 0-.71-.238-1.302-.714-1.778-.476-.485-1.068-.728-1.778-.728-.7 0-1.288.243-1.764.728-.476.476-.714 1.069-.714 1.778 0 .71.238 1.307.714 1.792.476.476 1.064.714 1.764.714zM223.899 52h.98v7h-1.204v-4.914L219.797 59h-.98v-7h1.204v4.914L223.899 52zm8.238 0h1.218v7h-1.218v-2.926h-3.626V59h-1.218v-7h1.218v2.912h3.626V52zm8.294 3.402c.718.299 1.078.84 1.078 1.624 0 .579-.196 1.055-.588 1.428-.383.364-.934.546-1.652.546h-3.5v-7h3.22c.7 0 1.241.177 1.624.532.382.345.574.803.574 1.372 0 .672-.252 1.171-.756 1.498zm-1.498-2.31h-1.974v1.834h1.974c.709 0 1.064-.313 1.064-.938 0-.597-.355-.896-1.064-.896zm.266 4.802c.354 0 .625-.084.812-.252.196-.168.294-.406.294-.714 0-.29-.098-.513-.294-.672-.187-.168-.458-.252-.812-.252h-2.24v1.89h2.24zm5.038-1.834c.122.625.406 1.11.854 1.456.458.345 1.018.518 1.68.518.924 0 1.596-.34 2.016-1.022l1.036.588c-.681 1.055-1.708 1.582-3.08 1.582-1.11 0-2.016-.345-2.716-1.036-.69-.7-1.036-1.582-1.036-2.646 0-1.055.341-1.932 1.022-2.632.682-.7 1.564-1.05 2.646-1.05 1.027 0 1.862.364 2.506 1.092.654.719.98 1.587.98 2.604 0 .177-.014.36-.042.546h-5.866zm2.422-3.094c-.653 0-1.194.187-1.624.56-.429.364-.695.854-.798 1.47h4.676c-.102-.663-.364-1.167-.784-1.512a2.245 2.245 0 00-1.47-.518zm8.723 6.216c-1.055 0-1.932-.35-2.632-1.05-.7-.71-1.05-1.587-1.05-2.632 0-1.045.35-1.918 1.05-2.618.7-.71 1.577-1.064 2.632-1.064.691 0 1.311.168 1.862.504.551.327.961.77 1.232 1.33l-1.022.588a2.064 2.064 0 00-.826-.896 2.328 2.328 0 00-1.246-.336c-.7 0-1.288.238-1.764.714-.467.476-.7 1.069-.7 1.778 0 .7.233 1.288.7 1.764.476.476 1.064.714 1.764.714a2.48 2.48 0 001.26-.322c.373-.224.658-.523.854-.896l1.036.602a3.46 3.46 0 01-1.288 1.33c-.56.327-1.181.49-1.862.49zM265.393 52v1.176h-2.38V59h-1.218v-5.824h-2.394V52h5.992zm7.262 6.118c-.719.71-1.591 1.064-2.618 1.064s-1.899-.355-2.618-1.064c-.709-.71-1.064-1.582-1.064-2.618 0-1.036.355-1.909 1.064-2.618.719-.71 1.591-1.064 2.618-1.064s1.899.355 2.618 1.064c.719.71 1.078 1.582 1.078 2.618 0 1.036-.359 1.909-1.078 2.618zm-2.618-.126c.7 0 1.288-.238 1.764-.714s.714-1.069.714-1.778c0-.71-.238-1.302-.714-1.778s-1.064-.714-1.764-.714c-.691 0-1.274.238-1.75.714s-.714 1.069-.714 1.778c0 .71.238 1.302.714 1.778s1.059.714 1.75.714zm9.556-6.174c.98 0 1.815.36 2.506 1.078.691.71 1.036 1.577 1.036 2.604 0 1.027-.345 1.9-1.036 2.618-.691.71-1.526 1.064-2.506 1.064-1.157 0-2.039-.462-2.646-1.386V61.8h-1.218V52h1.218v1.204c.607-.924 1.489-1.386 2.646-1.386zm-.154 6.188c.7 0 1.288-.238 1.764-.714.476-.485.714-1.083.714-1.792 0-.71-.238-1.302-.714-1.778-.476-.485-1.064-.728-1.764-.728-.709 0-1.302.243-1.778.728-.476.476-.714 1.069-.714 1.778 0 .71.238 1.307.714 1.792.476.476 1.069.714 1.778.714zM290.944 52h1.218v7h-1.218v-1.204c-.606.924-1.488 1.386-2.646 1.386-.98 0-1.815-.355-2.506-1.064-.69-.719-1.036-1.591-1.036-2.618s.346-1.895 1.036-2.604c.691-.719 1.526-1.078 2.506-1.078 1.158 0 2.04.462 2.646 1.386V52zm-2.492 6.006c.71 0 1.302-.238 1.778-.714.476-.485.714-1.083.714-1.792 0-.71-.238-1.302-.714-1.778-.476-.485-1.068-.728-1.778-.728-.7 0-1.288.243-1.764.728-.476.476-.714 1.069-.714 1.778 0 .71.238 1.307.714 1.792.476.476 1.064.714 1.764.714zM114.4 23.2V40h-3.192l-8.376-10.2V40h-3.84V23.2h3.216l8.352 10.2V23.2h3.84zm13.359 13.2h-7.8l-1.488 3.6h-3.984l7.488-16.8h3.84l7.512 16.8h-4.08l-1.488-3.6zm-1.224-2.952l-2.664-6.432-2.664 6.432h5.328zM148.798 23.2V40h-3.192l-8.376-10.2V40h-3.84V23.2h3.216l8.352 10.2V23.2h3.84zm10.431 17.088c-1.744 0-3.32-.376-4.728-1.128-1.392-.752-2.488-1.784-3.288-3.096-.784-1.328-1.176-2.816-1.176-4.464 0-1.648.392-3.128 1.176-4.44a8.452 8.452 0 013.288-3.12c1.408-.752 2.984-1.128 4.728-1.128 1.744 0 3.312.376 4.704 1.128a8.452 8.452 0 013.288 3.12c.8 1.312 1.2 2.792 1.2 4.44 0 1.648-.4 3.136-1.2 4.464-.8 1.312-1.896 2.344-3.288 3.096-1.392.752-2.96 1.128-4.704 1.128zm0-3.312c.992 0 1.888-.224 2.688-.672a4.909 4.909 0 001.872-1.92c.464-.816.696-1.744.696-2.784 0-1.04-.232-1.968-.696-2.784a4.744 4.744 0 00-1.872-1.896c-.8-.464-1.696-.696-2.688-.696-.992 0-1.888.232-2.688.696a4.907 4.907 0 00-1.896 1.896c-.448.816-.672 1.744-.672 2.784 0 1.04.224 1.968.672 2.784a5.08 5.08 0 001.896 1.92c.8.448 1.696.672 2.688.672zm18.474 3.312c-1.712 0-3.264-.368-4.656-1.104a8.555 8.555 0 01-3.264-3.096c-.784-1.328-1.176-2.824-1.176-4.488 0-1.664.392-3.152 1.176-4.464a8.323 8.323 0 013.264-3.096c1.392-.752 2.952-1.128 4.68-1.128 1.456 0 2.768.256 3.936.768a7.886 7.886 0 012.976 2.208l-2.496 2.304c-1.136-1.312-2.544-1.968-4.224-1.968-1.04 0-1.968.232-2.784.696a4.862 4.862 0 00-1.92 1.896c-.448.816-.672 1.744-.672 2.784 0 1.04.224 1.968.672 2.784a5.03 5.03 0 001.92 1.92c.816.448 1.744.672 2.784.672 1.68 0 3.088-.664 4.224-1.992l2.496 2.304a7.78 7.78 0 01-2.976 2.232c-1.184.512-2.504.768-3.96.768zM196.32 36.4h-7.8l-1.488 3.6h-3.984l7.488-16.8h3.84l7.512 16.8h-4.08l-1.488-3.6zm-1.224-2.952l-2.664-6.432-2.664 6.432h5.328zm12.375 6.84c-1.328 0-2.616-.176-3.864-.528-1.232-.368-2.224-.84-2.976-1.416l1.32-2.928c.72.528 1.576.952 2.568 1.272.992.32 1.984.48 2.976.48 1.104 0 1.92-.16 2.448-.48.528-.336.792-.776.792-1.32 0-.4-.16-.728-.48-.984-.304-.272-.704-.488-1.2-.648-.48-.16-1.136-.336-1.968-.528-1.28-.304-2.328-.608-3.144-.912a5.199 5.199 0 01-2.112-1.464c-.576-.672-.864-1.568-.864-2.688 0-.976.264-1.856.792-2.64.528-.8 1.32-1.432 2.376-1.896 1.072-.464 2.376-.696 3.912-.696 1.072 0 2.12.128 3.144.384s1.92.624 2.688 1.104l-1.2 2.952c-1.552-.88-3.104-1.32-4.656-1.32-1.088 0-1.896.176-2.424.528-.512.352-.768.816-.768 1.392s.296 1.008.888 1.296c.608.272 1.528.544 2.76.816 1.28.304 2.328.608 3.144.912a5.113 5.113 0 012.088 1.44c.592.656.888 1.544.888 2.664 0 .96-.272 1.84-.816 2.64-.528.784-1.328 1.408-2.4 1.872-1.072.464-2.376.696-3.912.696zm21.113-3.408V40h-13.008V23.2h12.696v3.12h-8.832v3.648h7.8v3.024h-7.8v3.888h9.144z" fill="#121212"/><g clip-path="url(#clip0)" fill-rule="evenodd" clip-rule="evenodd" fill="#121212"><path d="M12.318 63.654v-6.842c0-.12-.028-.21-.083-.273a.595.595 0 00-.294-.153v-.194h4.264c.968 0 1.708.133 2.222.402.646.337 1.14.854 1.48 1.55.296.613.444 1.307.444 2.085 0 .92-.198 1.714-.597 2.38-.36.592-.814 1.018-1.365 1.277-.551.258-1.279.387-2.184.387h-4.264v-.193c.142-.04.24-.091.294-.154a.403.403 0 00.083-.273zm.936-.144h2.917c.856 0 1.492-.133 1.906-.398.49-.315.848-.8 1.077-1.454.15-.434.225-.91.225-1.43 0-.94-.239-1.718-.717-2.336a2.17 2.17 0 00-.964-.723c-.379-.143-.887-.214-1.527-.214h-2.917v6.555zm10.004-2.884v2.945c0 .161.026.276.077.345.05.07.15.123.3.164v.193h-1.69v-.193c.15-.04.25-.093.3-.16.05-.067.077-.184.077-.35v-6.675c0-.166-.026-.283-.077-.352-.05-.07-.15-.12-.3-.157v-.194h4.447c.61 0 1.091.032 1.446.097.354.066.662.18.924.341.269.166.486.392.652.68.19.328.285.697.285 1.107 0 .616-.204 1.119-.616 1.507-.409.39-.974.612-1.69.666l2.063 3.193a.594.594 0 00.535.297v.193h-1.882v-.193c.195-.033.292-.087.292-.166 0-.04-.069-.168-.209-.386l-1.847-2.902h-3.087zm0-.763h3.281c.446 0 .784-.018 1.011-.056.227-.037.427-.105.602-.204.407-.237.611-.635.611-1.192 0-.56-.208-.96-.628-1.195a1.883 1.883 0 00-.621-.208 7.758 7.758 0 00-1.058-.053h-3.198v2.908zm13.753 2.133h-4.32l-.72 1.538c-.066.146-.098.249-.098.307 0 .12.115.198.348.239v.193h-1.799v-.193a.641.641 0 00.371-.178c.085-.091.197-.287.334-.592l2.966-6.381c.07-.154.107-.257.107-.313 0-.103-.097-.18-.29-.23v-.194h1.97v.194c-.195.062-.293.145-.293.248 0 .042.037.142.108.295l2.842 6.151c.21.454.348.719.415.798.067.078.215.147.44.202v.193h-1.927v-.193c.231-.033.347-.12.347-.26 0-.066-.045-.189-.132-.37l-.669-1.454zm-.338-.764l-1.823-3.984-1.819 3.984h3.642zm11.653-4.265l-.905 1.444-.154-.107c.07-.117.107-.206.107-.264 0-.124-.213-.297-.636-.521-.816-.44-1.65-.66-2.508-.66-.992 0-1.83.278-2.511.833-.78.632-1.171 1.484-1.171 2.559 0 1.046.373 1.878 1.116 2.498.687.571 1.562.858 2.627.858a4.89 4.89 0 001.607-.264 3.69 3.69 0 001.286-.738v-1.494h-1.92c-.167 0-.284.026-.353.077-.069.05-.122.15-.158.299h-.194v-1.515h.194c.036.15.087.248.158.299.069.05.186.077.352.077h3.185v.194c-.15.038-.25.093-.3.16-.05.066-.077.183-.077.346v1.046c0 .164.026.281.077.348.05.066.15.119.3.16v.169a7.284 7.284 0 01-1.264.927c-.86.48-1.837.72-2.937.72-1.353 0-2.447-.365-3.282-1.096a3.988 3.988 0 01-.98-1.29 4.158 4.158 0 01-.41-1.813c0-.913.268-1.723.803-2.43.494-.652 1.158-1.129 1.995-1.428a5.624 5.624 0 011.9-.314c.593 0 1.144.07 1.65.214.507.14 1.054.377 1.64.706.17.095.275.142.313.142.065 0 .163-.083.292-.249l.158.107zm6.285-.92c1.426 0 2.579.373 3.452 1.12.49.414.859.921 1.104 1.523.2.493.302 1.024.302 1.593 0 .77-.22 1.49-.659 2.163-.482.743-1.152 1.278-2.011 1.605-.64.245-1.365.368-2.175.368-1.42 0-2.565-.374-3.436-1.12a4.021 4.021 0 01-1.406-3.07c0-.802.217-1.54.653-2.216.474-.73 1.146-1.264 2.017-1.599.608-.234 1.329-.355 2.16-.367zm0 .811c-1.215 0-2.175.34-2.884 1.02-.648.624-.972 1.408-.972 2.35 0 .95.324 1.735.972 2.36.705.68 1.67 1.019 2.897 1.019 1.229 0 2.197-.34 2.906-1.02.644-.624.966-1.393.966-2.31 0-.991-.322-1.791-.966-2.399a3.404 3.404 0 00-1.245-.765c-.49-.166-1.05-.25-1.674-.255zm7.673.362v6.35c0 .162.026.277.077.346.05.07.15.123.3.164v.193h-1.604v-.193c.154-.04.253-.093.303-.16.05-.067.073-.184.073-.35v-6.675c0-.166-.026-.283-.077-.352-.05-.07-.15-.12-.3-.157v-.194h2.324v.194c-.184.062-.278.151-.278.266 0 .079.094.226.278.442l4.871 5.691v-5.89c0-.166-.026-.283-.077-.352-.05-.07-.15-.12-.3-.157v-.194h1.605v.194c-.15.036-.25.087-.3.157-.05.069-.077.186-.077.352v6.676c0 .165.026.282.077.35.05.066.15.118.3.159v.193H67.61v-.193c.183-.047.274-.128.274-.243 0-.087-.083-.228-.25-.426l-5.351-6.191zm-36.82 16.172h1.619c.052 0 .09-.008.11-.024.022-.016.039-.047.05-.094h.06v.476h-.06c-.011-.047-.028-.078-.05-.094-.02-.016-.058-.024-.11-.024h-2.031v-.061c.048-.013.08-.03.095-.05.015-.021.023-.058.023-.11v-2.097c0-.052-.008-.089-.024-.11-.016-.02-.047-.038-.094-.05v-.06h.53v.06c-.047.013-.078.03-.094.05-.016.021-.024.058-.024.11v2.078zm3.602-.346H27.97l-.158.35a.273.273 0 00-.03.097c0 .043.032.072.098.09v.049h-.515v-.05a.2.2 0 00.116-.058.7.7 0 00.1-.174l.692-1.5a.512.512 0 00.058-.17c0-.044-.031-.07-.094-.08v-.05h.607v.05c-.063.013-.094.04-.094.08 0 .023.025.09.075.198l.664 1.442a.85.85 0 00.116.197.199.199 0 00.122.065v.05h-.544v-.05c.058-.012.087-.033.087-.063a.495.495 0 00-.044-.123l-.161-.35zm-.088-.202l-.455-1.021-.461 1.021h.916zm1.352-.017v.596c0 .05.009.087.024.108.016.022.047.039.095.051v.05h-.504v-.05c.047-.012.078-.029.094-.051.016-.022.024-.058.024-.108v-1.664c0-.052-.008-.089-.024-.11-.016-.02-.047-.037-.094-.05v-.05h.504v.05c-.048.013-.079.03-.095.05-.015.021-.024.058-.024.11v.823l1-.776a2 2 0 00.126-.105c.016-.017.024-.034.024-.05 0-.026-.022-.043-.066-.052v-.05h.584v.05a.515.515 0 00-.102.028.55.55 0 00-.087.06l-.832.65.922 1.17c.026.03.047.05.065.06a.194.194 0 00.079.015v.05h-.555v-.05c.054-.014.082-.03.082-.05 0-.014-.022-.05-.065-.108l-.724-.935-.45.338zm3.938-1.17l-.205.406-.045-.022a.515.515 0 00.01-.074c0-.03-.04-.066-.122-.108a1.307 1.307 0 00-.626-.138c-.197 0-.365.037-.504.11-.138.074-.206.177-.206.31a.277.277 0 00.192.262c.058.02.122.033.19.04.069.005.215.013.44.022.188.006.33.017.427.034a.81.81 0 01.247.084c.073.041.131.1.173.178a.516.516 0 01.064.254.539.539 0 01-.237.46c-.189.135-.44.203-.753.203-.154 0-.316-.024-.485-.072a2.135 2.135 0 01-.473-.194c-.02-.012-.034-.018-.044-.018-.019 0-.047.022-.084.065l-.043-.028.237-.396.044.026-.007.03a.183.183 0 00-.01.048c0 .035.064.086.19.152.214.113.436.17.666.17.21 0 .384-.037.523-.108a.425.425 0 00.16-.141c.04-.06.06-.12.06-.185a.273.273 0 00-.182-.26.812.812 0 00-.171-.039 5.308 5.308 0 00-.355-.02 5.435 5.435 0 01-.44-.03 1.159 1.159 0 01-.25-.061.482.482 0 01-.331-.468c0-.2.09-.356.272-.47.185-.116.42-.175.706-.175.26 0 .523.059.786.176.04.016.063.024.07.024.019 0 .043-.023.07-.07l.046.024zm2.143 1.004h-1.375v.762c0 .05.009.087.024.108.016.022.047.039.095.051v.05h-.504v-.05c.047-.012.078-.029.094-.051.016-.022.024-.058.024-.108v-1.664c0-.052-.008-.089-.024-.11-.016-.02-.047-.037-.094-.05v-.05h.504v.05c-.047.013-.079.03-.095.05a.199.199 0 00-.024.11v.7h1.375v-.7c0-.052-.009-.088-.025-.11-.016-.02-.047-.037-.094-.05v-.05h.504v.05c-.047.013-.078.03-.094.052-.016.021-.024.058-.024.108v1.664c0 .05.008.087.024.108.016.022.047.039.094.051v.05h-.504v-.05c.047-.012.078-.029.094-.051.016-.022.025-.058.025-.108v-.762zm2.063.97l-.887-1.753v1.545c0 .05.008.087.024.108.016.022.047.039.094.051v.05h-.458v-.05c.047-.012.078-.029.094-.051.016-.022.024-.058.024-.108v-1.664c0-.052-.008-.089-.024-.11-.016-.02-.047-.037-.094-.05v-.05h.633v.05c-.063.019-.093.046-.093.082a.43.43 0 00.046.118l.66 1.328.664-1.328a.378.378 0 00.045-.118c0-.036-.032-.063-.094-.082v-.05h.64v.05c-.048.013-.079.03-.095.052-.016.021-.024.058-.024.108v1.664c0 .05.008.087.024.108.016.022.047.039.095.051v.05h-.504v-.05c.047-.012.078-.029.094-.051.016-.022.024-.058.024-.108v-1.545l-.888 1.754zm2.11-.974v.773h1.286c.052 0 .089-.007.111-.023.022-.016.038-.048.05-.095h.053v.438h-.054c-.011-.047-.027-.078-.048-.094s-.058-.024-.11-.024h-1.674v-.05c.048-.012.08-.029.095-.051.016-.022.023-.058.023-.108v-1.664c0-.052-.008-.089-.024-.11-.016-.02-.047-.037-.094-.05v-.05h1.664c.052 0 .09-.007.11-.023.021-.016.038-.047.05-.094h.05v.438h-.05c-.012-.047-.029-.08-.05-.095-.02-.016-.058-.023-.11-.023h-1.279v.704h.817c.053 0 .089-.008.11-.024.021-.016.038-.047.05-.094h.05v.438h-.05c-.012-.047-.029-.08-.05-.095-.023-.016-.059-.023-.11-.023h-.816zm5.585-1.32l-.285.453-.048-.033a.19.19 0 00.034-.083c0-.04-.067-.094-.2-.164a1.64 1.64 0 00-.788-.208c-.311 0-.575.088-.789.262-.245.199-.367.467-.367.804 0 .329.117.59.35.785.216.18.49.27.825.27.177 0 .345-.028.505-.084.16-.055.295-.132.404-.231v-.47h-.603c-.052 0-.09.009-.11.025-.023.015-.039.047-.05.094h-.062v-.476h.062c.011.047.027.078.05.093.02.016.058.025.11.025h1v.06c-.047.013-.078.03-.094.05-.016.022-.024.058-.024.11v.328c0 .052.008.089.024.11.016.02.047.037.094.05v.053c-.14.125-.273.222-.397.291-.27.151-.577.227-.923.227-.425 0-.768-.115-1.03-.345a1.247 1.247 0 01-.308-.405 1.306 1.306 0 01-.129-.57c0-.287.084-.541.252-.763.156-.205.364-.355.627-.449.185-.066.384-.099.597-.099.186 0 .36.023.518.068a2.3 2.3 0 01.515.222.34.34 0 00.099.044c.02 0 .05-.026.091-.078l.05.034zm.85 1.35v.735c0 .051.009.088.025.109.016.022.047.039.094.051v.05h-.504v-.05c.048-.012.08-.029.095-.051.016-.022.023-.058.023-.108v-1.664c0-.052-.008-.089-.024-.11-.016-.02-.047-.037-.094-.05v-.05h1.239c.14 0 .255.011.344.03.088.02.166.054.231.1a.51.51 0 01.217.446c0 .16-.05.286-.151.378-.101.092-.249.147-.444.166l.524.832a.173.173 0 00.055.057c.018.01.05.019.096.024v.05h-.517v-.05c.049-.01.073-.025.073-.046 0-.015-.015-.045-.044-.09l-.482-.758h-.756zm0-.2h.795c.128 0 .224-.005.288-.015a.473.473 0 00.163-.051c.099-.055.148-.15.148-.284 0-.13-.046-.229-.138-.294-.085-.061-.229-.091-.431-.091h-.825v.734zm3.225-.983c.373 0 .672.097.9.29.242.205.364.475.364.812a1 1 0 01-.18.577c-.225.33-.585.495-1.08.495-.37 0-.668-.097-.896-.291a.996.996 0 01-.363-.796c0-.22.059-.417.177-.592a1.07 1.07 0 01.528-.403c.155-.059.34-.09.55-.092zm0 .217c-.304 0-.548.093-.734.279a.8.8 0 00-.243.59c0 .234.08.431.243.592.186.186.431.279.738.279s.552-.093.738-.279a.788.788 0 00.243-.58.803.803 0 00-.243-.602c-.187-.184-.434-.276-.742-.279zm2.004.038v1.07c0 .164.009.278.025.34a.282.282 0 00.106.158c.111.09.302.134.573.134.298 0 .5-.055.606-.164a.31.31 0 00.077-.152 1.85 1.85 0 00.018-.317V71.76c0-.05-.008-.087-.024-.108-.016-.022-.047-.039-.094-.052v-.05h.458v.05c-.047.013-.078.03-.094.05-.016.021-.024.058-.024.11v1.124c0 .191-.016.326-.049.404a.54.54 0 01-.3.295c-.145.064-.345.096-.599.096-.365 0-.62-.068-.767-.203a.478.478 0 01-.142-.218 1.404 1.404 0 01-.037-.374V71.76c0-.052-.008-.089-.024-.11-.016-.02-.047-.037-.094-.05v-.05h.504v.05c-.047.013-.078.03-.094.052-.016.021-.025.058-.025.108zm2.544.937v.741c0 .038.008.066.026.086.016.02.046.035.089.048v.06h-.5v-.06a.192.192 0 00.092-.048.126.126 0 00.026-.085v-1.703c0-.036-.01-.063-.027-.08a.191.191 0 00-.091-.044v-.061h1.155c.154 0 .27.007.35.02.078.014.15.04.212.078.076.045.136.11.179.194a.602.602 0 01.066.281.604.604 0 01-.065.28.466.466 0 01-.182.192.612.612 0 01-.213.08c-.079.014-.194.02-.347.02h-.77zm0-.202h.734c.133 0 .231-.005.294-.016a.41.41 0 00.162-.06c.087-.057.13-.156.13-.297 0-.137-.043-.235-.13-.293a.412.412 0 00-.16-.06 1.919 1.919 0 00-.296-.016h-.734v.742z"/><path d="M65.09 34.597H16.462L40.776-.07l.077.11L65.09 34.596zm-48.267-.188h47.906L40.776.256 16.823 34.41z" stroke="#121212" stroke-width=".216"/><path d="M60.669 39.515H20.883l19.893-28.363 19.892 28.363zm-39.425-.188h39.064L40.776 11.478l-19.532 27.85z" stroke="#121212" stroke-width=".216"/><path d="M56.838 44.67H24.714l16.062-22.9 16.062 22.9zm-31.763-.187h31.402L40.776 22.096 25.075 44.483z" stroke="#121212" stroke-width=".216"/><path d="M40.776 41.06L20.883 12.697h39.785L40.776 41.06zM21.244 12.885l19.532 27.849 19.532-27.85H21.244z" stroke="#121212" stroke-width=".216"/><path d="M40.776 30.442l-16.062-22.9h32.124l-16.062 22.9zM25.075 7.73l15.701 22.387L56.477 7.729H25.075z" stroke="#121212" stroke-width=".216"/><path d="M40.776 53.229l-.077-.11-24.237-34.557H65.09L40.776 53.229zm-23.953-34.48l23.953 34.153L64.729 18.75H16.823z" stroke="#121212" stroke-width=".216"/><path d="M40.776 26.073a.403.403 0 110 .805.403.403 0 010-.805z"/><path d="M41.654 25.154c.017.094.049.432-.182 1.072-.446 1.24-1.836 1.855-1.836 1.855s.236-1.262.925-2.032l.06-.064c.25-.281 1.04-1.183 1.75-1.714 0 0-.416.403-.717.883zm19.6-3.672c5.246 1.45 6.788-1.48 6.895-1.7l-.003-.001c-1.824 2.526-7.05.764-7.827-.584-.779-1.35-4.152-1.35-4.152-1.35 3.302-.506 4.49-2.19 4.901-3.534a5.408 5.408 0 00-.572-.142c-1.065 1.49-2.866 1.696-5.61 1.257-.915.697-1.642 1.55-2.231 2.242-.134.157-.26.306-.38.443-.168.19-.31.36-.436.51-.58.693-.9 1.074-1.898 1.34-1.103.293-1.952.311-1.987.312a.416.416 0 01-.318-.69c.12-.136 2.352-2.649 4.649-4.5-3.378.123-4.756 3.52-4.756 3.52.487-5.97 9.8-7.85 9.8-7.85-12.518.753-13.27 7.667-13.27 7.667-.365-2.863-2.435-3.838-2.435-3.838.426 1.401.304 4.57-.305 6.458-.608 1.888-4.687 4.325-4.687 4.325.974 2.071-1.78 5.762-3.301 6.432-1.129.497-1.995.634-1.995.634 1.096 1.767-1.078 3.788-1.078 3.788.365 2.04-1.418 4.68-1.418 4.68.438.128 2.287-2.856 2.733-2.107.588.985 2.977 2.15 3.039 2.217.094.101-1.69-1.404-1.594-3.24.007-.133 1.336 1.565 1.19 1.21-.013-.03-.825-1.828.006-2.186 1.513-.653 3.948-.722 4.05 1.046 0 0 2.542-2.648 2.49-4.05 0 0-.467-.676-.311-1.091.155-.416 1.608-1.712 2.283-2.18.675-.467 2.024-.365 2.699-.157.674.208.882-1.09.934-1.454.052-.364 0-1.247.83-1.195.83.052 1.09.364 1.505.312.415-.052 2.52-1.09 2.687-1.506.168-.416.012-1.818.894-2.077.882-.26 9.393.103 7.37 10.698 2.283-4.051.726-10.18.726-10.18 7.629 2.13 4.411 10.284 4.411 10.284.57-1.04 2.128-5.973.415-9.787-1.712-3.814-7.162-4.183-7.162-4.183 1.194-.208 3.218.207 3.218.207z"/><path d="M45.896 32.707c3.005 1.792 5.645.71 5.645.71-2.076 2.402-4.023 1.81-5.684 2.987-1.66 1.178-6.098 6.429-4.645 8.333 1.453 1.904 4.117 1.046 4.117 1.046-3.322 2.216-6.331-.173-6.331-.173-.52 1.073-1.03 1.03-1.03 1.03.805-1.843-2.776-3.246-2.776-3.246 2.283.312 3.322-.85 3.322-.85-.904-.25-1.143-.863-1.143-.863.727 0 1.837-.022 2.484-.364 2.75-1.454 4.396-7.038 3.39-7.786-1.892-1.407-.88-2.385-.21-2.785.756-.451 2.19-.106 2.19-.106s-.35 1.458.67 2.067z"/><path d="M51.559 27.046c-1.43 1.039-2.582 1.523-2.942 1.42-.485-.139-.8-.302-1.114-.358-.67-.118-.83.816-.862 1.559-.033.742-.859 1.296-.859 1.296.213-.045 4.359.498 5.777-3.917z"/><path d="M45.774 31.469s1.75 0 3.198-.65c1.269-.568 2.146-1.278 2.877-3.376 0 0-.397 3.686 1.333 2.786 0 0 .153 1.006-1.493.893-.494-.034-1.096.493-.075.847 1.02.353.285.941-.284 1.101-.473.133-1.713.466-3.893-.192-1.721-.52-1.795-1.128-1.663-1.41z"/><path d="M55.496 29.206c5.507 2.225-2.478 11.072-7.808 15.43-6.67 5.45-2.273 9.44-2.273 9.44s-2.268-4.301 2.54-8.039c4.709-3.66 12.028-9.453 11.407-15.152-.62-5.7-6.153-6.15-6.836-5.972-.683.179-.743.862-.688 1.186.092.544.386.695.424.944.075.484-.052 1.658.923 1.801.976.143 1.592.071 2.311.362z"/><path d="M56.532 43.03c3.199-2.431 7.086-6.935 8.094-9.935 1.156-3.439-2.319-5.239-3.167-5.372 1.262 3.656-.356 7.085-2.462 10.278-1.296 1.965-2.648 3.74-4.41 5.312-1.672 1.493-2.297 2.163-3.955 3.47 0 0 4.621-2.782 5.9-3.753zm7.254-32.818C53.05 9.331 51.217 7.97 46.27 8.668c-7.273 1.028-7.27 7.358-7.179 8.662.193 2.787.545 4.817.545 4.817s1.222-1.27 1.222-1.909c0-.638-.616-1.106-.614-3.88.001-1.68 1.449-5.524 5.73-6.747 5.407-1.545 10.233.211 17.812.601z"/><path d="M75.938 20.841c-10.672-1.456-10.598-4.78-13.21-6.758-2.19-1.66-5.375-1.651-8.309.013-2.754 1.561-6.473 5.764-6.473 5.764s.822-.015 1.89-.3c1.064-.282 1.195-.659 2.126-1.72.984-1.122 2.398-3.031 4.595-3.804 2.197-.772 5.02-.242 6.058.771 1.171 1.143 2.439 2.682 4.128 3.778 1.69 1.096 4.12 1.51 9.195 2.256zM41.393 36.129c-.561 3.104-3.75 4.52-5.416 5.348-1.665.827-4.988 2.364-4.896 2.714.12.455.033.628-.488 1.776-.563 1.24-.42 2.472-.42 2.472-.546-1.75.283-3.862.283-3.862-2.51 1.876-2.661 4.009-2.661 4.009.356-3.06 2.664-4.899 5.328-6.137 2.664-1.238 6.41-2.48 7.597-5.645.883-2.352.4-4.064 1.091-5.063-.408.89-.124 2.762-.418 4.388zM38.58 67.098l-6.109.016c-2.478.003-4.917.035-7.277.05-2.36.013-4.641.048-6.805.075-2.163.025-4.209.063-6.097.098-1.888.03-3.619.072-5.153.108l-3.972.104-2.557.081-.905.031.905.03c.59.02 1.455.047 2.557.082l3.972.104c1.534.036 3.265.077 5.153.108 1.888.035 3.934.073 6.097.098 2.164.027 4.445.062 6.805.076 2.36.014 4.799.046 7.277.049l6.11.016a1.505 1.505 0 010-1.126zm42.23.532l-2.557-.082-3.972-.104a682.149 682.149 0 00-5.153-.108 768.352 768.352 0 00-6.097-.098c-2.164-.029-4.445-.062-6.805-.076-2.36-.014-4.799-.048-7.277-.048l-6.11-.016a1.506 1.506 0 010 1.126l6.11-.016c2.478 0 4.917-.034 7.277-.048 2.36-.014 4.641-.047 6.805-.076 2.163-.024 4.209-.062 6.097-.097 1.888-.032 3.619-.072 5.153-.109l3.972-.104 2.557-.082.905-.03-.905-.032z"/><path d="M40.691 67.168l1.063-.598-1.056 1.056-.007-.458z" stroke="#121212" stroke-width=".216"/><path d="M41.156 67.633l.598-1.063-1.056 1.056.458.007zm-.451.452l-1.063.598 1.056-1.057.007.459z" stroke="#121212" stroke-width=".216"/><path d="M40.24 67.62l-.598 1.063 1.056-1.057-.458-.007zm.916 0l.598 1.063-1.056-1.057.458-.007z" stroke="#121212" stroke-width=".216"/><path d="M40.691 68.085l1.063.598-1.056-1.057-.007.459zm-.451-.452l-.598-1.063 1.056 1.056-.458.007z" stroke="#121212" stroke-width=".216"/><path d="M40.705 67.168l-1.063-.598 1.056 1.056.007-.458z" stroke="#121212" stroke-width=".216"/><path d="M40.233 67.175l.465-1.662v2.113l-.465-.451z" stroke="#121212" stroke-width=".216"/><path d="M41.163 67.175l-.465-1.662v2.113l.465-.451zm0 .903l-.465 1.661v-2.113l.465.452z" stroke="#121212" stroke-width=".216"/><path d="M40.233 68.078l.465 1.661v-2.113l-.465.452zm.917-.917l1.66.465h-2.112l.451-.465z" stroke="#121212" stroke-width=".216"/><path d="M41.15 68.092l1.66-.466h-2.112l.451.466z" stroke="#121212" stroke-width=".216"/><path d="M40.247 68.092l-1.66-.466h2.111l-.451.466zm0-.931l-1.66.465h2.111l-.451-.465z" stroke="#121212" stroke-width=".216"/></g><defs><clipPath id="clip0"><path fill="#fff" d="M0 0h82v74H0z"/></clipPath></defs></svg>