<svg width="77" height="77" fill="none" xmlns="http://www.w3.org/2000/svg"><path d="M6.963 52.099a20.33 20.33 0 001.011 2.559l2.174-1.034a17.562 17.562 0 01-.89-2.253l-2.295.728zm6.702-18.757l-.843-.858-.887-.814a20.077 20.077 0 00-5.92 14.29c0 1.2.107 2.404.317 3.58l2.369-.424a17.968 17.968 0 01-.28-3.155 17.68 17.68 0 015.208-12.583l.036-.036zM32.523 26.6l1.701-1.701 1.702 1.701-1.702 1.702-1.701-1.702zm3.402 3.402l1.701-1.701 1.703 1.702-1.702 1.701-1.702-1.702zm7.17 8.97l2.214-.942c-.332-.78-.721-1.55-1.153-2.285l-2.075 1.22c.381.646.723 1.32 1.014 2.007zm-2.275-3.876l1.904-1.472a20.614 20.614 0 00-1.685-1.92l-1.706 1.697a18.642 18.642 0 011.488 1.695zM27.672 51.734h-2.406v2.407c-1.99 0-3.61 1.619-3.61 3.609s1.62 3.61 3.61 3.61h2.406a1.204 1.204 0 010 2.406h-3.61v-1.203h-2.406v3.609h3.61v2.406h2.406v-2.406c1.99 0 3.61-1.62 3.61-3.61 0-1.99-1.62-3.609-3.61-3.609h-2.406a1.204 1.204 0 010-2.406h3.609v1.203h2.406v-3.61h-3.61v-2.406z" fill="#F5CE00"/><path d="M73.39 27.672c0 3.045-1.642 6.135-4.882 9.18-4.53 4.256-10.428 6.854-16.855 7.496-.388-6.074-2.914-11.747-7.248-16.08l-9.016-9.018 6.72-6.72v-.499a5.298 5.298 0 00-4.635-5.25l-2.216-.277 1.155-3.754-6.818-1.704-3.07 4.09-1.91-2.865-8.142 1.63.88 2.643-1.892.237a5.298 5.298 0 00-4.633 5.25v.498l6.72 6.721-9.015 9.016c-4.728 4.726-7.33 11.011-7.33 17.695 0 8.38 4.147 16.121 11.101 20.785 2.493 5.336 7.897 9.05 14.165 9.05h49.328V27.673H73.39zm-24.875 19.25c1.084 0 2.157-.054 3.22-.155V73.39h-4.813V46.92h1.593zm5.626-.477a32.322 32.322 0 004.812-1.193V73.39h-4.812V46.445zm7.218-2.111a30.504 30.504 0 004.813-2.592v31.649h-4.813V44.334zM37.175 9.168a2.89 2.89 0 012.49 2.402l-6.476 6.477h-1.482l2.834-9.209 2.634.33zm-13.667-4.22L26.41 9.3l4.15-5.534 2.806.701-4.178 13.579h-5.463L19.619 5.724l3.889-.777zm-7.746 4.22l2.37-.296 3.059 9.175h-1.443l-6.476-6.477a2.892 2.892 0 012.49-2.402zM3.61 45.96a22.47 22.47 0 016.625-15.994l9.514-9.514H33.19l9.515 9.514c3.912 3.913 6.195 9.032 6.55 14.515-.248.006-.49.034-.74.034H26.47c-8.624 0-15.64 7.016-15.64 15.64 0 .877.09 1.733.229 2.571A22.536 22.536 0 013.61 45.96zm9.625 14.195c0-7.297 5.938-13.234 13.235-13.234s13.234 5.937 13.234 13.234S33.767 73.39 26.47 73.39s-13.235-5.938-13.235-13.235zm28.875 0c0-5.575-2.94-10.465-7.343-13.234h9.75V73.39h-9.75c4.403-2.77 7.343-7.66 7.343-13.235zM68.58 73.39V39.975c.538-.44 1.069-.892 1.578-1.37 1.309-1.231 2.378-2.482 3.234-3.748V73.39h-4.813z" fill="#F5CE00"/><path d="M66.172 7.717v13.94h2.406V7.716l2.759 2.759 1.701-1.702-5.663-5.663-5.663 5.663 1.701 1.702 2.759-2.76zm-10.828 8.422v13.94h2.406v-13.94l2.759 2.759 1.701-1.702-5.663-5.663-5.663 5.663 1.701 1.701 2.759-2.758z" fill="#F5CE00"/></svg>