<svg width="77" height="77" fill="none" xmlns="http://www.w3.org/2000/svg"><path d="M77 38.5C77 17.272 59.728 0 38.5 0a38.386 38.386 0 00-18.889 4.968h-4.708V0H7.452v15.756C2.583 22.388 0 30.237 0 38.5 0 59.73 17.272 77 38.5 77c4.73 0 9.348-.85 13.726-2.522A16.033 16.033 0 0060.855 77c3.872 0 7.618-1.392 10.546-3.92l-1.623-1.88a13.658 13.658 0 01-8.923 3.316c-7.532 0-13.661-6.129-13.661-13.661s6.128-13.661 13.66-13.661c7.533 0 13.662 6.128 13.662 13.66 0 3.15-1.04 6.109-3.012 8.559l1.937 1.557A16.198 16.198 0 0077 60.855c0-3.177-.935-6.133-2.525-8.633A38.347 38.347 0 0077 38.5zM19.871 12.42h2.484v17.386H19.87V12.42zm-4.968-4.968h2.484v22.355h-2.484V7.451zM9.935 2.484h2.484v27.322H9.935V2.485zm27.323 72.001C18.386 73.841 3.16 58.615 2.515 39.742h34.743v34.743zm0-37.227H2.534c.202-6.046 1.881-11.823 4.918-16.974V32.29h27.322V19.871h-4.968v-4.968H24.84V9.935h-4.97V7.69a35.861 35.861 0 0117.387-5.163v34.731zm-12.42-7.452V17.387h2.485v12.42h-2.484zm4.968 0v-7.451h2.484v7.451h-2.483zm44.68 7.452H63.852l9.133-9.133a35.83 35.83 0 011.5 9.133zm-6.259-19.064L54.356 32.066l1.756 1.756 13.475-13.475a35.97 35.97 0 012.497 5.167L60.341 37.258h-7.666l1.606-1.606-1.756-1.756-3.362 3.362h-7.665l23.315-23.315a36.445 36.445 0 013.414 4.251zM39.742 2.514a35.86 35.86 0 019.133 1.5l-9.133 9.133V2.515zm0 25.323l15.093-15.094-1.756-1.756-13.337 13.338v-7.666L51.486 4.916a35.714 35.714 0 015.167 2.497l-2 2 1.756 1.757 2.397-2.397a36.311 36.311 0 014.25 3.414L39.743 35.502v-7.665zM60.855 44.71c-8.902 0-16.145 7.243-16.145 16.145 0 4.67 2.005 8.871 5.186 11.822a35.8 35.8 0 01-10.154 1.81V39.743h34.746a35.832 35.832 0 01-1.815 10.15c-2.95-3.18-7.15-5.182-11.818-5.182z" fill="#F5CE00"/><path d="M30.176 45.073L15.273 59.977l1.756 1.756 14.903-14.904-1.756-1.756zm-1.611 9.572a3.73 3.73 0 00-3.726 3.726 3.73 3.73 0 003.726 3.726 3.73 3.73 0 003.726-3.726 3.73 3.73 0 00-3.726-3.726zm0 4.968a1.243 1.243 0 01-1.242-1.242 1.243 1.243 0 111.242 1.242zM18.63 44.71a3.73 3.73 0 00-3.727 3.725 3.73 3.73 0 003.726 3.726 3.73 3.73 0 003.726-3.726 3.73 3.73 0 00-3.726-3.725zm0 4.967a1.243 1.243 0 111.242-1.242c0 .686-.559 1.242-1.243 1.242zm42.225 9.936a2.486 2.486 0 01-2.484-2.484 2.486 2.486 0 012.484-2.484 2.486 2.486 0 012.484 2.484h2.484c0-2.309-1.59-4.236-3.726-4.791v-2.66h-2.484v2.66c-2.136.555-3.726 2.482-3.726 4.791a4.973 4.973 0 004.968 4.968 2.486 2.486 0 012.484 2.484 2.486 2.486 0 01-2.484 2.483 2.486 2.486 0 01-2.484-2.483h-2.484c0 2.308 1.59 4.236 3.726 4.791v2.66h2.484v-2.66c2.136-.555 3.726-2.483 3.726-4.791a4.973 4.973 0 00-4.968-4.968zm11.177 0h-2.484v2.484h2.484v-2.484zm-19.871 0h-2.484v2.484h2.484v-2.484z" fill="#F5CE00"/></svg>