<svg width="77" height="77" fill="none" xmlns="http://www.w3.org/2000/svg"><path d="M75.797 39.703c0-8.048-5.676-14.786-13.234-16.444V7.219a6.022 6.022 0 00-6.016-6.016H25.266A6.022 6.022 0 0019.25 7.22v13.234h-6.955l-.726 2.907-2.567-1.541-6.435 6.43 1.542 2.57-2.906.726v9.098l2.907.725-1.543 2.57 6.434 6.432 2.567-1.541.727 2.905h6.955v18.047a6.022 6.022 0 006.016 6.016h31.28a6.022 6.022 0 006.017-6.016V56.147c7.558-1.657 13.234-8.396 13.234-16.444zm-2.406 0a14.33 14.33 0 01-1.57 6.514 6.002 6.002 0 00-4.19-3.78l-5.069-1.267v-.288a6.022 6.022 0 002.407-4.787v-2.406a6.034 6.034 0 00-1.952-4.436 6.048 6.048 0 00-4.598-1.557c-3.074.266-5.481 3.009-5.481 6.24v2.158c0 1.88.907 3.657 2.406 4.787v.288l-5.069 1.268a6.002 6.002 0 00-4.19 3.779 14.321 14.321 0 01-1.57-6.513c0-7.961 6.477-14.437 14.438-14.437s14.438 6.476 14.438 14.437zM55.344 23.26a16.66 16.66 0 00-2.407.73v-3.536H28.875v16.844h13.427a16.703 16.703 0 00-.193 2.406c0 8.048 5.677 14.786 13.235 16.444v2.806H26.469V18.047h28.875v5.212zM42.819 34.89H31.281V22.859h19.25v2.28a16.902 16.902 0 00-7.712 9.752zM25.266 3.609h31.28c1.99 0 3.61 1.62 3.61 3.61v3.61h-38.5v-3.61c0-1.99 1.62-3.61 3.61-3.61zM19.25 41.594a5.975 5.975 0 01-2.406.515 6.022 6.022 0 01-6.016-6.015 6.022 6.022 0 016.016-6.016c.828 0 1.647.18 2.406.515v11.001zm-5.076 7.734l-.586-2.345-.244-.643-1.374-.559-2.596 1.56-3.776-3.777 1.56-2.598-.602-1.467-2.947-.736v-5.339l2.943-.735.605-1.468-1.559-2.598 3.776-3.776 2.596 1.56 1.468-.598.736-2.95h5.076v5.18a8.364 8.364 0 00-2.406-.367c-4.644 0-8.422 3.779-8.422 8.422 0 4.643 3.778 8.422 8.422 8.422.817 0 1.625-.133 2.406-.367v5.18h-5.076zm42.373 24.063H25.266c-1.99 0-3.61-1.62-3.61-3.61v-3.61h38.5v3.61c0 1.99-1.62 3.61-3.61 3.61zm3.61-9.625h-38.5V13.234h38.5v9.687c-.4-.03-.797-.062-1.204-.062-.407 0-.804.033-1.203.062v-7.28H24.062v45.718H57.75v-4.873c.4.028.797.06 1.203.06.407 0 .804-.032 1.203-.06v7.28zm-1.204-9.625c-4.313 0-8.18-1.912-10.828-4.92v-.948c0-1.66 1.125-3.1 2.733-3.502l6.892-1.722v-3.502l-.598-.348c-1.132-.66-1.808-1.82-1.808-3.105v-2.157c0-1.996 1.442-3.684 3.283-3.844a3.603 3.603 0 012.765.933 3.62 3.62 0 011.17 2.662v2.406c0 1.285-.676 2.446-1.808 3.105l-.598.348v3.502l6.892 1.722a3.606 3.606 0 012.733 3.502v.948c-2.648 3.008-6.515 4.92-10.828 4.92z" fill="#F5CE00"/><path d="M45.719 6.016h2.406v2.406h-2.406V6.016zm-12.031 0h9.624v2.406h-9.624V6.016zm2.406 62.562h9.625v2.406h-9.625v-2.406zm16.844 0h2.406v2.406h-2.407v-2.406zm-26.469 0h2.406v2.406h-2.406v-2.406zm2.406-28.875h10.828v2.406H28.875v-2.406zm0 4.813h10.828v2.406H28.875v-2.406zm0 4.812h10.828v2.406H28.875v-2.406zm0 4.812h10.828v2.407H28.875V54.14zm39.703-31.28c1.99 0 3.61-1.62 3.61-3.61 0-1.567-1.01-2.89-2.407-3.388V6.016h-2.406v9.846a3.603 3.603 0 00-2.406 3.388c0 1.99 1.62 3.61 3.61 3.61zm0-4.813a1.204 1.204 0 010 2.406 1.204 1.204 0 010-2.406zM67.375 1.203h2.406V3.61h-2.406V1.203zM13.234 54.14a3.614 3.614 0 00-3.609 3.61c0 1.566 1.01 2.89 2.406 3.388v9.846h2.406v-9.846c1.397-.498 2.407-1.822 2.407-3.388 0-1.99-1.62-3.61-3.61-3.61zm0 4.813a1.204 1.204 0 01-1.203-1.203c0-.664.54-1.203 1.203-1.203a1.204 1.204 0 010 2.406zM12.031 73.39h2.406v2.407h-2.406V73.39z" fill="#F5CE00"/></svg>