<svg width="77" height="77" fill="none" xmlns="http://www.w3.org/2000/svg"><g clip-path="url(#clip0)" fill="#F5CE00"><path d="M75.872 37.372h-18.16v-2.566h4.9a1.128 1.128 0 000-2.256h-4.9v-2.566h3.401a4.713 4.713 0 003.355-1.39l7.418-7.418c.484.24 1.02.369 1.575.369a3.52 3.52 0 002.503-1.037A3.516 3.516 0 0077 18.006c0-.946-.368-1.834-1.036-2.503a3.515 3.515 0 00-2.503-1.036c-.945 0-1.834.368-2.502 1.036a3.516 3.516 0 00-1.037 2.503c0 .555.128 1.091.369 1.575l-7.418 7.418c-.47.47-1.095.729-1.76.729h-3.402v-2.489c0-3.28-2.67-5.95-5.95-5.95h-2.489V9.304a3.545 3.545 0 002.412-3.354 3.543 3.543 0 00-3.54-3.539 3.543 3.543 0 00-3.538 3.54 3.545 3.545 0 002.41 3.353v9.985H44.45v-4.9a1.128 1.128 0 00-2.256 0v4.9h-2.566V1.128a1.128 1.128 0 00-2.256 0v18.16h-2.566V14.39a1.128 1.128 0 00-2.256 0v4.9h-2.566v-3.402a4.713 4.713 0 00-1.39-3.355l-7.42-7.42a3.543 3.543 0 00-.665-4.075 3.543 3.543 0 00-5.005 0 3.543 3.543 0 000 5.005 3.529 3.529 0 004.074.665L27 14.127c.47.47.73 1.095.73 1.76v3.402h-2.49c-.503 0-1.003.063-1.487.187a1.128 1.128 0 00.563 2.185c.3-.077.61-.116.924-.116h26.522a3.698 3.698 0 013.694 3.694V51.76c0 .313-.039.624-.116.924a1.128 1.128 0 002.185.561c.124-.483.187-.983.187-1.485v-2.489h9.985a3.545 3.545 0 003.354 2.411 3.543 3.543 0 003.539-3.539 3.543 3.543 0 00-3.54-3.539 3.544 3.544 0 00-3.353 2.411h-9.985V44.45h4.9a1.128 1.128 0 100-2.256h-4.9v-2.566h18.161a1.128 1.128 0 000-2.256zm-3.318-20.274c.242-.242.564-.375.907-.375.343 0 .665.133.907.375.243.243.376.565.376.908 0 .343-.133.665-.376.907a1.274 1.274 0 01-.907.376c-.343 0-.665-.134-.907-.376a1.274 1.274 0 01-.376-.907c0-.343.133-.665.376-.908zM18.914 4.447a1.285 1.285 0 11-.907-2.19 1.285 1.285 0 01.907 2.19zm29.23 2.786a1.285 1.285 0 01-1.283-1.283 1.285 1.285 0 012.566 0c0 .708-.575 1.283-1.282 1.283zM71.05 46.861a1.284 1.284 0 010 2.567 1.284 1.284 0 010-2.566zm-9.553 24.097a3.543 3.543 0 00-4.075-.665l-7.42-7.42a2.472 2.472 0 01-.73-1.76V57.71h2.489a5.97 5.97 0 001.486-.187 1.128 1.128 0 10-.562-2.185c-.3.077-.61.116-.924.116H25.239a3.698 3.698 0 01-3.694-3.694V25.239c0-.314.039-.625.116-.924a1.128 1.128 0 00-2.185-.563 5.964 5.964 0 00-.187 1.487v2.489H9.304a3.544 3.544 0 00-3.354-2.411 3.543 3.543 0 00-3.539 3.539 3.543 3.543 0 003.539 3.539 3.545 3.545 0 003.354-2.411h9.985v2.566h-4.9a1.128 1.128 0 000 2.256h4.9v2.566H1.128a1.128 1.128 0 000 2.256h18.16v2.566h-4.9a1.128 1.128 0 000 2.256h4.9v2.566h-3.401a4.713 4.713 0 00-3.355 1.39l-7.418 7.418a3.522 3.522 0 00-1.575-.369c-.946 0-1.834.368-2.503 1.037A3.517 3.517 0 000 58.994c0 .946.368 1.834 1.037 2.503a3.516 3.516 0 002.502 1.036 3.52 3.52 0 002.503-1.036 3.516 3.516 0 001.036-2.503c0-.556-.128-1.091-.369-1.575l7.418-7.418a2.473 2.473 0 011.76-.729h3.402v2.489c0 3.28 2.67 5.95 5.95 5.95h2.489v9.985a3.544 3.544 0 00-2.411 3.353 3.543 3.543 0 003.539 3.54 3.543 3.543 0 003.539-3.54 3.545 3.545 0 00-2.411-3.353V57.71h2.566v4.9a1.128 1.128 0 002.256 0v-4.9h2.566v18.16a1.128 1.128 0 102.256 0V57.71h2.566v4.9a1.128 1.128 0 002.256 0v-4.9h2.566v3.402c0 1.267.494 2.459 1.39 3.355l7.42 7.42a3.543 3.543 0 00.666 4.075 3.528 3.528 0 002.502 1.035 3.53 3.53 0 002.503-1.035 3.543 3.543 0 000-5.005zM5.95 30.138a1.285 1.285 0 01-1.283-1.282c0-.708.576-1.284 1.283-1.284s1.283.576 1.283 1.284c0 .707-.575 1.283-1.283 1.283zM4.446 59.903a1.275 1.275 0 01-.907.375c-.343 0-.665-.133-.907-.375a1.275 1.275 0 01-.376-.908c0-.343.133-.665.376-.907a1.27 1.27 0 01.907-.376c.343 0 .665.133.907.376.243.242.376.564.376.907 0 .343-.133.665-.376.908zM30.14 71.05a1.285 1.285 0 01-2.566 0 1.284 1.284 0 012.566 0zm29.763 3.318a1.284 1.284 0 110-1.815c.5.5.5 1.315 0 1.815z"/><path d="M50.478 35.486c0-2.412-1.765-4.455-4.18-5.12.071-.294.111-.598.111-.907 0-2.284-2.027-4.142-4.518-4.142-1.35 0-2.562.545-3.39 1.408-.83-.863-2.042-1.408-3.391-1.408-2.492 0-4.519 1.858-4.519 4.142 0 .31.04.613.111.908-2.415.664-4.18 2.707-4.18 5.12 0 1.178.418 2.29 1.188 3.21a5.577 5.577 0 00-1.188 3.42c0 1.918 1.025 3.708 2.713 4.82v.002c0 2.616 2.33 4.745 5.197 4.745 1.646 0 3.115-.704 4.068-1.799.953 1.095 2.422 1.799 4.069 1.799 2.758 0 5.02-1.972 5.185-4.452 1.675-.972 2.724-2.674 2.724-4.513 0-1.352-.577-2.641-1.569-3.616.992-.975 1.569-2.265 1.569-3.617zM46.486 40.1c1.087.574 1.736 1.553 1.736 2.62 0 .795-.37 1.553-.994 2.12-.593-1.098-1.641-1.972-2.965-2.388a1.128 1.128 0 00-.676 2.152c1.15.362 1.922 1.3 1.922 2.335 0 1.372-1.32 2.489-2.94 2.489-1.622 0-2.942-1.117-2.942-2.489v-7.233c0-1.373 1.32-2.489 2.941-2.489a1.128 1.128 0 000-2.256c-1.09 0-2.104.31-2.94.836v-1.44a1.128 1.128 0 00-2.256 0v6.26a5.378 5.378 0 00-1.246-.576 1.128 1.128 0 10-.677 2.152c1.15.361 1.923 1.3 1.923 2.335v2.41c0 1.373-1.32 2.49-2.941 2.49-1.622 0-2.941-1.117-2.941-2.49 0-.587.25-1.16.702-1.61a1.128 1.128 0 10-1.59-1.6c-.27.27-.503.563-.697.875-.712-.674-1.128-1.56-1.128-2.486 0-1.672 1.312-3.14 3.19-3.57a1.128 1.128 0 00-.505-2.2 6.872 6.872 0 00-2.069.844 2.722 2.722 0 01-.615-1.705c0-1.697 1.608-3.078 3.59-3.09h.031a1.127 1.127 0 00.957-1.722l-.025-.04-.015-.02a1.15 1.15 0 00-.055-.072l-.002-.002a1.674 1.674 0 01-.413-1.082c0-1.04 1.016-1.886 2.263-1.886 1.248 0 2.263.846 2.263 1.886a1.128 1.128 0 002.256 0c0-1.04 1.015-1.886 2.262-1.886 1.248 0 2.263.846 2.263 1.886 0 .278-.073.515-.17.71a6.265 6.265 0 00-1.85.464 1.128 1.128 0 00.876 2.079 4.07 4.07 0 011.56-.316l.031.002.03-.002c1.983.013 3.591 1.394 3.591 3.091 0 1.066-.648 2.046-1.735 2.62a1.128 1.128 0 000 1.994z"/></g><defs><clipPath id="clip0"><path fill="#fff" d="M0 0h77v77H0z"/></clipPath></defs></svg>