<svg width="47" height="61" viewBox="0 0 47 61" fill="none" xmlns="http://www.w3.org/2000/svg">
<g clip-path="url(#clip0)">
<path fill-rule="evenodd" clip-rule="evenodd" d="M16.6741 1.41333H42.7217L45.06 3.01993V37.3992L42.7217 39.0058H16.6741V1.41333Z" fill="url(#paint0_linear)"/>
<path fill-rule="evenodd" clip-rule="evenodd" d="M-6.34809e-06 14.2357C-6.34809e-06 11.0225 1.88898 8.84644 5.10536 8.84644V50.6587L9.18965 55.326L42.977 55.1735C42.9797 55.9373 42.8312 56.6942 42.5402 57.4008C42.2492 58.1075 41.8212 58.7502 41.2808 59.2922C40.7403 59.8342 40.098 60.2649 39.3904 60.5596C38.6828 60.8544 37.9238 61.0075 37.1568 61.0101H5.85074C5.08155 61.0101 4.31991 60.8591 3.6094 60.5656C2.89889 60.2722 2.25345 59.8421 1.71002 59.3C1.1666 58.7579 0.735848 58.1144 0.442421 57.4063C0.148995 56.6982 -0.00134874 55.9395 -6.34809e-06 55.1735V14.2357Z" fill="#DDE0E4"/>
<path d="M46.9694 51.2892C46.9694 51.177 46.9472 51.066 46.9041 50.9623C46.861 50.8587 46.7978 50.7646 46.7182 50.6852C46.6385 50.6059 46.544 50.543 46.4399 50.5001C46.3358 50.4572 46.2243 50.4351 46.1117 50.4351H12.8553C12.6278 50.4351 12.4097 50.5251 12.2488 50.6852C12.088 50.8454 11.9976 51.0627 11.9976 51.2892C11.9976 51.5157 12.088 51.733 12.2488 51.8932C12.4097 52.0534 12.6278 52.1434 12.8553 52.1434H45.2029L44.9681 52.6416C44.7097 53.1798 44.3047 53.6349 43.7992 53.9549C43.2937 54.2749 42.7081 54.447 42.1091 54.4516H13.6824C10.9868 54.4516 6.47361 53.5161 6.47361 47.2727C6.47361 41.0293 10.9868 40.0837 13.6824 40.0837H42.1091C43.4001 40.073 44.6347 39.5554 45.5447 38.6434C46.4548 37.7315 46.9667 36.4987 46.9694 35.213V4.87065C46.9667 3.58495 46.4548 2.35222 45.5447 1.44025C44.6347 0.52827 43.4001 0.0107114 42.1091 0L13.6824 0C11.3154 0.00538005 9.04713 0.944824 7.3744 2.61252C5.70167 4.28022 4.76091 6.54019 4.75821 8.89732V47.2727C4.75821 52.7535 8.1788 56.1599 13.6824 56.1599H42.1091C43.4001 56.1492 44.6347 55.6316 45.5447 54.7196C46.4548 53.8076 46.9667 52.5749 46.9694 51.2892ZM14.5401 1.70828H42.1091C42.9504 1.71097 43.7566 2.045 44.3515 2.63748C44.9465 3.22996 45.2819 4.03276 45.2846 4.87065V35.213C45.2846 36.0517 44.95 36.8561 44.3545 37.4492C43.759 38.0422 42.9513 38.3754 42.1091 38.3754H14.5401V1.70828ZM6.47361 8.89732C6.47524 7.21408 7.06992 5.58478 8.15401 4.29336C9.2381 3.00194 10.7429 2.13029 12.406 1.83031L12.8247 1.75913V8.27705H12.5184C10.415 8.56317 8.48608 9.59585 7.08626 11.1852L6.47361 11.8563V8.89732ZM6.47361 17.1744C6.44925 15.4772 7.03471 13.8272 8.12438 12.522C9.21405 11.2169 10.7362 10.3425 12.4163 10.0565L12.8247 9.98533V27.8816H12.5184C10.4269 28.155 8.50129 29.1607 7.08626 30.7186L6.47361 31.3897V17.1744ZM6.47361 36.7688C6.44925 35.0716 7.03471 33.4216 8.12438 32.1165C9.21405 30.8113 10.7362 29.9369 12.4163 29.6509L12.8247 29.5798V38.3957H12.4979C10.4573 38.5228 8.52999 39.3742 7.06583 40.7955L6.47361 41.3649V36.7688Z" fill="#494F65"/>
<path d="M46.1423 44.5273H12.8553C12.6427 44.5504 12.4461 44.6509 12.3032 44.8095C12.1604 44.968 12.0814 45.1735 12.0814 45.3866C12.0814 45.5996 12.1604 45.8051 12.3032 45.9637C12.4461 46.1223 12.6427 46.2227 12.8553 46.2458H46.1423C46.355 46.2227 46.5516 46.1223 46.6944 45.9637C46.8372 45.8051 46.9162 45.5996 46.9162 45.3866C46.9162 45.1735 46.8372 44.968 46.6944 44.8095C46.5516 44.6509 46.355 44.5504 46.1423 44.5273ZM21.708 14.2358L21.9735 14.4697L21.8101 14.7544L19.768 20.8554V21.2215C19.768 21.982 20.0714 22.7113 20.6113 23.2491C21.1513 23.7868 21.8837 24.0889 22.6474 24.0889C23.4111 24.0889 24.1435 23.7868 24.6835 23.2491C25.2235 22.7113 25.5268 21.982 25.5268 21.2215V21.1096L25.4758 21.0283L25.3737 20.9266V20.7435L23.7502 15.8831H28.8555V27.8411H27.375C27.1475 27.8411 26.9293 27.9311 26.7685 28.0912C26.6076 28.2514 26.5173 28.4687 26.5173 28.6952C26.5173 28.9217 26.6076 29.139 26.7685 29.2992C26.9293 29.4594 27.1475 29.5493 27.375 29.5493H31.929C32.1564 29.5493 32.3746 29.4594 32.5355 29.2992C32.6963 29.139 32.7867 28.9217 32.7867 28.6952C32.7867 28.4687 32.6963 28.2514 32.5355 28.0912C32.3746 27.9311 32.1564 27.8411 31.929 27.8411H30.5097V15.8831H35.615L34.012 20.8249C34.007 20.8824 34.007 20.9402 34.012 20.9978V21.191C34.0052 21.9515 34.3021 22.6835 34.8373 23.226C35.3725 23.7685 36.1022 24.0771 36.8659 24.0839C37.6295 24.0906 38.3646 23.795 38.9094 23.262C39.4542 22.729 39.764 22.0023 39.7708 21.2418V20.9978V20.7537L37.7287 14.6527L37.4836 14.4392V14.3782H30.5097V10.4125C30.5097 10.186 30.4193 9.96871 30.2585 9.80852C30.0976 9.64834 29.8794 9.55835 29.652 9.55835C29.4245 9.55835 29.2063 9.64834 29.0455 9.80852C28.8846 9.96871 28.7943 10.186 28.7943 10.4125V14.3782H22.0858L22.0348 14.2358L21.8306 14.1036L22.0552 14.368L21.708 14.2358ZM36.7586 17.754L37.9227 21.1401V21.2215C37.8837 21.5001 37.7461 21.7558 37.5345 21.9422C37.3229 22.1287 37.0513 22.2337 36.7689 22.2383C36.4869 22.2355 36.2155 22.1309 36.0052 21.9438C35.7949 21.7568 35.6599 21.5001 35.6252 21.2215V21.1401L36.7586 17.754ZM22.5351 17.754L23.6991 21.1401V21.2215C23.6645 21.5001 23.5295 21.7568 23.3192 21.9438C23.1088 22.1309 22.8375 22.2355 22.5555 22.2383C22.2729 22.2377 22.0004 22.1338 21.7896 21.9464C21.5788 21.7589 21.4444 21.501 21.4119 21.2215V21.1401L22.5351 17.754Z" fill="#494F65"/>
</g>
<defs>
<linearGradient id="paint0_linear" x1="41.6598" y1="39.6159" x2="18.9403" y2="0.111297" gradientUnits="userSpaceOnUse">
<stop stop-color="#B2EEFF"/>
<stop offset="0.03" stop-color="#AAEBFE"/>
<stop offset="0.28" stop-color="#6ED5F3"/>
<stop offset="0.52" stop-color="#3FC4EA"/>
<stop offset="0.72" stop-color="#1DB8E4"/>
<stop offset="0.89" stop-color="#08B1E0"/>
<stop offset="1" stop-color="#01AEDF"/>
</linearGradient>
<clipPath id="clip0">
<rect width="47" height="61" fill="white"/>
</clipPath>
</defs>
</svg>
