<svg width="68" height="56" viewBox="0 0 68 56" fill="none" xmlns="http://www.w3.org/2000/svg">
<g clip-path="url(#clip0)">
<path fill-rule="evenodd" clip-rule="evenodd" d="M28.4345 7.99414L26.2589 9.87628L56.4238 39.3025L63.2339 40.4662L65.5512 42.2066L66.5631 40.6078L63.5274 38.584L57.7292 36.7019L28.4345 7.99414Z" fill="#DDE0E4"/>
<path d="M42.8542 49.0673C43.2275 48.5863 43.5657 48.079 43.8661 47.5494L45.5357 44.453L47.2863 47.4887C48.2553 49.4886 49.7486 51.1883 51.6071 52.4065C53.4693 53.488 55.6776 53.8071 57.7696 53.297C59.8643 52.7607 60.6941 51.3643 61.7464 49.5934L62.1107 48.9458L61.2202 48.0756L60.7446 48.9054C59.6518 50.7268 59.0447 51.7286 57.3952 52.1434C56.8737 52.2817 56.336 52.3497 55.7964 52.3458C54.5095 52.3466 53.2466 51.9968 52.1435 51.3339C49.9577 50.0286 48.6524 47.6607 47.2863 44.9184L45.8697 42.075C45.8236 41.9807 45.7536 41.9001 45.6665 41.8415C45.5795 41.7829 45.4785 41.7482 45.3738 41.7411H45.2321C45.1194 41.756 45.0137 41.8045 44.9289 41.8803C44.8441 41.9561 44.784 42.0557 44.7566 42.1661C44.1429 44.3338 43.1753 46.3852 41.8929 48.2375C40.7089 49.9274 39.2923 51.769 37.3089 52.2143C37.0963 52.2618 36.8791 52.2855 36.6613 52.2851C34.9006 52.2851 33.8482 50.828 32.6137 49.128L32.3202 48.6625C31.1212 46.684 30.0334 44.6401 29.0619 42.5405L29.0012 42.328C29 42.1784 28.9445 42.0343 28.8451 41.9225C28.7456 41.8108 28.609 41.7389 28.4605 41.7204C28.3121 41.7018 28.1619 41.7378 28.038 41.8217C27.9141 41.9055 27.8249 42.0315 27.7869 42.1762C27.3424 44.1069 26.4322 45.8995 25.1357 47.3976C24.1426 48.921 22.7727 50.1619 21.1589 51C20.228 51.4362 19.212 51.6608 18.1839 51.6577C17.2004 51.6548 16.226 51.4696 15.3101 51.1113L13.1042 50.2714L14.9964 47.0839C15.4113 46.3958 15.7958 45.7482 16.0893 45.1917C18.8036 40.4961 20.4579 35.2637 20.9363 29.8613C21.1401 28.1692 21.0303 26.4541 20.6125 24.8018C20.3809 23.9174 19.9557 23.0956 19.3677 22.3956C18.7797 21.6956 18.0436 21.135 17.2125 20.7542C16.6056 20.5211 15.9602 20.4044 15.3101 20.4101C14.0065 20.4151 12.733 20.8021 11.647 21.5232C10.1391 22.6342 8.92087 24.092 8.09524 25.7732C6.41738 28.9452 5.54787 32.4822 5.56375 36.0706C5.57964 39.6591 6.48043 43.1882 8.18631 46.3452C8.66411 47.2321 9.25233 48.055 9.93691 48.794L11.3738 50.3524L9.72441 51.6881C8.45249 52.8422 6.8404 53.5524 5.13036 53.7119C4.29778 53.7381 3.48091 53.4812 2.8131 52.9833C2.18745 52.3674 1.77902 51.5648 1.64941 50.6964L1.52798 50.0286L0.364288 50.2309L0.475598 50.828C0.605833 51.915 1.08518 52.9305 1.84167 53.722C2.67678 54.5214 3.79228 54.961 4.94822 54.9464H5.24167C7.54111 54.7357 9.67145 53.6487 11.1917 51.9107L12.2036 50.8988L13.4887 51.5667C14.9457 52.3383 16.5657 52.7511 18.2143 52.7708C19.3951 52.7818 20.5647 52.5403 21.6446 52.0625C23.3605 51.0945 24.8425 49.761 25.9857 48.1565C26.178 47.853 26.4613 47.5089 26.7952 47.0839L28.6268 44.8071L30.0839 47.3167C30.772 48.5006 31.4095 49.4619 31.4298 49.5024L31.875 50.1905C32.897 51.6071 34.4048 53.6309 36.5702 53.6309C36.9106 53.6313 37.25 53.5939 37.5821 53.5196C40.0512 52.9125 41.7411 50.5952 42.8542 49.0673ZM12.0619 49.4417L10.3316 47.3571C9.91288 46.8663 9.55605 46.326 9.26905 45.7482C7.67728 42.7611 6.83125 39.4334 6.80306 36.0487C6.77487 32.6641 7.56535 29.3228 9.10715 26.3095C9.84179 24.8112 10.9159 23.5049 12.2441 22.4946C12.8542 22.034 13.5665 21.7273 14.3204 21.6005C15.0743 21.4737 15.8477 21.5305 16.575 21.7661C17.2629 22.0909 17.8729 22.5599 18.3636 23.1413C18.8542 23.7227 19.214 24.4029 19.4185 25.1357C19.8322 26.6412 19.9218 28.2174 19.6816 29.7601C19.2187 34.9537 17.6487 39.9878 15.0774 44.5238L14.6726 45.222C14.3185 45.8292 13.9542 46.4667 13.5292 47.1244L12.0619 49.4417Z" fill="#DDE0E4"/>
<path d="M42.8542 49.0673C43.2275 48.5863 43.5657 48.079 43.8661 47.5494L45.5357 44.453L47.2863 47.4887C48.2553 49.4886 49.7486 51.1883 51.6071 52.4065C53.4693 53.488 55.6776 53.8071 57.7696 53.297C59.8643 52.7607 60.6941 51.3643 61.7464 49.5934L62.1107 48.9458L61.2202 48.0756L60.7446 48.9054C59.6518 50.7268 59.0447 51.7286 57.3952 52.1434C56.8737 52.2817 56.336 52.3497 55.7964 52.3458C54.5095 52.3466 53.2466 51.9968 52.1435 51.3339C49.9577 50.0286 48.6524 47.6607 47.2863 44.9184L45.8697 42.075C45.8236 41.9807 45.7536 41.9001 45.6665 41.8415C45.5795 41.7829 45.4785 41.7482 45.3738 41.7411H45.2321C45.1194 41.756 45.0137 41.8045 44.9289 41.8803C44.8441 41.9561 44.784 42.0557 44.7566 42.1661C44.1429 44.3338 43.1753 46.3852 41.8929 48.2375C40.7089 49.9274 39.2923 51.769 37.3089 52.2143C37.0963 52.2618 36.8791 52.2855 36.6613 52.2851C34.9006 52.2851 33.8482 50.828 32.6137 49.128L32.3202 48.6625C31.1212 46.684 30.0334 44.6401 29.0619 42.5405L29.0012 42.328C29 42.1784 28.9445 42.0343 28.8451 41.9225C28.7456 41.8108 28.609 41.7389 28.4605 41.7204C28.3121 41.7018 28.1619 41.7378 28.038 41.8217C27.9141 41.9055 27.8249 42.0315 27.7869 42.1762C27.3424 44.1069 26.4322 45.8995 25.1357 47.3976C24.1426 48.921 22.7727 50.1619 21.1589 51C20.228 51.4362 19.212 51.6608 18.1839 51.6577C17.2004 51.6548 16.226 51.4696 15.3101 51.1113L13.1042 50.2714L14.9964 47.0839C15.4113 46.3958 15.7958 45.7482 16.0893 45.1917C18.8036 40.4961 20.4579 35.2637 20.9363 29.8613C21.1401 28.1692 21.0303 26.4541 20.6125 24.8018C20.3809 23.9174 19.9557 23.0956 19.3677 22.3956C18.7797 21.6956 18.0436 21.135 17.2125 20.7542C16.6056 20.5211 15.9602 20.4044 15.3101 20.4101C14.0065 20.4151 12.733 20.8021 11.647 21.5232C10.1391 22.6342 8.92087 24.092 8.09524 25.7732C6.41738 28.9452 5.54787 32.4822 5.56375 36.0706C5.57964 39.6591 6.48043 43.1882 8.18631 46.3452C8.66411 47.2321 9.25233 48.055 9.93691 48.794L11.3738 50.3524L9.72441 51.6881C8.45249 52.8422 6.8404 53.5524 5.13036 53.7119C4.29778 53.7381 3.48091 53.4812 2.8131 52.9833C2.18745 52.3674 1.77902 51.5648 1.64941 50.6964L1.52798 50.0286L0.364288 50.2309L0.475598 50.828C0.605833 51.915 1.08518 52.9306 1.84167 53.722C2.67678 54.5214 3.79228 54.961 4.94822 54.9464H5.24167C7.54111 54.7357 9.67145 53.6487 11.1917 51.9107L12.2036 50.8988L13.4887 51.5667C14.9457 52.3383 16.5657 52.7511 18.2143 52.7708C19.3951 52.7818 20.5647 52.5403 21.6446 52.0625C23.3605 51.0945 24.8425 49.761 25.9857 48.1565C26.178 47.853 26.4613 47.5089 26.7952 47.0839L28.6268 44.8071L30.0839 47.3167C30.772 48.5006 31.4095 49.4619 31.4298 49.5024L31.875 50.1905C32.897 51.6071 34.4048 53.6309 36.5702 53.6309C36.9106 53.6313 37.25 53.5939 37.5821 53.5196C40.0512 52.9125 41.7411 50.5952 42.8542 49.0673ZM12.0619 49.4417L10.3316 47.3571C9.91288 46.8663 9.55605 46.326 9.26905 45.7482C7.67728 42.7611 6.83125 39.4334 6.80306 36.0487C6.77487 32.6641 7.56535 29.3228 9.10715 26.3095C9.84179 24.8112 10.9159 23.5049 12.2441 22.4946C12.8542 22.034 13.5665 21.7273 14.3204 21.6005C15.0743 21.4737 15.8477 21.5305 16.575 21.7661C17.2629 22.0909 17.8729 22.5599 18.3636 23.1413C18.8542 23.7227 19.214 24.4029 19.4185 25.1357C19.8322 26.6412 19.9218 28.2174 19.6816 29.7601C19.2187 34.9537 17.6487 39.9878 15.0774 44.5238L14.6726 45.222C14.3185 45.8292 13.9542 46.4667 13.5292 47.1244L12.0619 49.4417Z" stroke="#DDE0E4" stroke-width="0.62" stroke-miterlimit="3.86"/>
<path d="M14.0756 44.5239L15.5125 42.2876C15.9274 41.6399 16.2917 41.0126 16.6357 40.4155L17.0304 39.7274C19.5586 35.2967 21.1112 30.377 21.5839 25.2977C21.8246 23.7853 21.7348 22.2387 21.3208 20.7643C21.122 20.0452 20.7706 19.3774 20.2903 18.8064C19.8101 18.2354 19.2125 17.7746 18.5381 17.4554C17.8239 17.2262 17.0651 17.1719 16.3256 17.2969C15.586 17.4219 14.8873 17.7227 14.2881 18.1739C12.9996 19.1655 11.9601 20.444 11.2524 21.9078C9.73643 24.8548 8.95489 28.1244 8.97427 31.4384C8.99365 34.7524 9.81337 38.0127 11.3637 40.9417C11.6417 41.5036 11.9811 42.033 12.3756 42.5203L14.0756 44.5239ZM44.8577 44.5947C43.7446 46.1227 42.0548 48.4298 39.5452 49.0066C39.2142 49.0886 38.8744 49.1294 38.5333 49.128C36.3577 49.128 34.8702 47.1042 33.7875 45.7078L33.3929 45.0399C33.3929 45.0399 32.725 44.028 32.047 42.8542L30.5899 40.3346L28.7583 42.6215C28.4693 42.9641 28.1991 43.3222 27.9488 43.6941C26.7953 45.2861 25.3065 46.6056 23.5875 47.5596C22.5133 48.0452 21.3461 48.2904 20.1673 48.278C18.5461 48.2685 16.9505 47.8731 15.5125 47.1245L14.2274 46.5477L13.2155 47.5596C11.6972 49.3001 9.5658 50.3876 7.26548 50.5953H6.95179C5.78669 50.5867 4.67139 50.1216 3.84524 49.3001C3.09161 48.5026 2.61291 47.4849 2.47917 46.3959L2.36786 45.809L3.52143 45.6066L3.64286 46.2745C3.77875 47.1459 4.1901 47.9508 4.81667 48.5715C5.48594 49.0665 6.30179 49.323 7.13393 49.3001C8.8436 49.1391 10.4553 48.4291 11.728 47.2762L13.3673 45.9405L11.9405 44.3316C11.2535 43.5908 10.6651 42.7643 10.1899 41.8727C8.47605 38.7213 7.56728 35.1954 7.54433 31.6082C7.52138 28.0211 8.38496 24.4838 10.0583 21.3108C10.8789 19.6233 12.1022 18.1637 13.6202 17.0608C14.7062 16.3489 15.9747 15.9659 17.2732 15.9578C17.9267 15.9511 18.5756 16.0678 19.1857 16.3018C20.0172 16.682 20.7537 17.2425 21.3418 17.9426C21.9298 18.6427 22.3547 19.4648 22.5857 20.3495C22.9986 22.0025 23.1083 23.7168 22.9095 25.409C22.4277 30.8139 20.7737 36.0489 18.0625 40.7495C17.769 41.306 17.3744 41.9536 16.9696 42.6316L15.0774 45.8191L17.2833 46.659C18.2012 47.0092 19.1747 47.1908 20.1571 47.1953C21.1845 47.2019 22.2005 46.9807 23.1321 46.5477C24.7459 45.7095 26.1158 44.4686 27.1089 42.9453C28.4054 41.4472 29.3156 39.6546 29.7601 37.7239C29.8125 37.5812 29.9101 37.4596 30.0379 37.3774C30.1658 37.2952 30.3169 37.257 30.4685 37.2685C30.6017 37.3097 30.7198 37.3892 30.808 37.4972C30.8962 37.6052 30.9506 37.7369 30.9643 37.8757L31.0351 38.0882C32.0025 40.1735 33.0905 42.2007 34.2935 44.1596L34.5869 44.6251C35.8113 46.3149 36.8637 47.7822 38.6345 47.7822C38.8564 47.7854 39.0777 47.7582 39.2923 47.7012C41.2655 47.2661 42.6923 45.4245 43.8661 43.7346C45.1567 41.8857 46.1281 39.8334 46.7399 37.6632C46.7673 37.5528 46.8274 37.4532 46.9122 37.3774C46.997 37.3016 47.1027 37.2531 47.2155 37.2382C47.3419 37.2208 47.4705 37.2438 47.5831 37.3037C47.6958 37.3637 47.7866 37.4576 47.8429 37.5721L49.2494 40.4762C50.6155 43.2084 51.9208 45.5358 54.1065 46.8917C55.2097 47.5546 56.4725 47.9044 57.7595 47.9036C58.2991 47.9075 58.8368 47.8395 59.3583 47.7012C61.0077 47.2864 61.6149 46.2846 62.7077 44.453L63.1833 43.6334L64.0738 44.5036L63.6994 45.1411C62.6875 46.912 61.8274 48.3185 59.7327 48.8548C57.6406 49.3649 55.4324 49.0458 53.5702 47.9643C51.7398 46.7485 50.2688 45.0643 49.3101 43.087L47.5494 40.0512L45.8292 43.1477C45.5428 43.6573 45.2181 44.1445 44.8577 44.6048V44.5947Z" fill="#3B454F"/>
<path d="M14.0756 44.5239L15.5125 42.2876C15.9274 41.6399 16.2917 41.0126 16.6357 40.4155L17.0304 39.7274C19.5586 35.2967 21.1112 30.377 21.5839 25.2977C21.8246 23.7853 21.7348 22.2387 21.3208 20.7643C21.122 20.0452 20.7706 19.3774 20.2903 18.8064C19.8101 18.2354 19.2125 17.7746 18.5381 17.4554C17.8239 17.2262 17.0651 17.1719 16.3256 17.2969C15.586 17.4219 14.8873 17.7227 14.2881 18.1739C12.9996 19.1655 11.9601 20.444 11.2524 21.9078C9.73643 24.8548 8.95489 28.1244 8.97427 31.4384C8.99365 34.7524 9.81338 38.0127 11.3637 40.9417C11.6417 41.5036 11.9811 42.033 12.3756 42.5203L14.0756 44.5239ZM44.8577 44.5947C43.7446 46.1227 42.0548 48.4298 39.5452 49.0066C39.2142 49.0886 38.8744 49.1294 38.5333 49.128C36.3577 49.128 34.8702 47.1042 33.7875 45.7078L33.3929 45.0399C33.3929 45.0399 32.725 44.028 32.047 42.8542L30.5899 40.3346L28.7583 42.6215C28.4693 42.9641 28.1991 43.3222 27.9488 43.6941C26.7953 45.2861 25.3065 46.6056 23.5875 47.5596C22.5133 48.0452 21.3461 48.2904 20.1673 48.278C18.5461 48.2685 16.9505 47.8731 15.5125 47.1245L14.2274 46.5477L13.2155 47.5596C11.6972 49.3001 9.5658 50.3876 7.26548 50.5953H6.95179C5.78669 50.5867 4.67139 50.1216 3.84524 49.3001C3.09161 48.5026 2.61291 47.4849 2.47917 46.3959L2.36786 45.809L3.52143 45.6066L3.64286 46.2745C3.77875 47.1459 4.1901 47.9508 4.81667 48.5715C5.48594 49.0665 6.30179 49.323 7.13393 49.3001C8.8436 49.1391 10.4553 48.4291 11.728 47.2762L13.3673 45.9405L11.9405 44.3316C11.2535 43.5908 10.6651 42.7643 10.1899 41.8727C8.47605 38.7213 7.56728 35.1954 7.54433 31.6082C7.52138 28.0211 8.38496 24.4838 10.0583 21.3108C10.8789 19.6233 12.1022 18.1637 13.6202 17.0608C14.7062 16.3489 15.9747 15.9659 17.2732 15.9578C17.9267 15.9511 18.5756 16.0678 19.1857 16.3018C20.0172 16.682 20.7537 17.2425 21.3418 17.9426C21.9298 18.6427 22.3547 19.4648 22.5857 20.3495C22.9986 22.0025 23.1083 23.7168 22.9095 25.409C22.4277 30.8139 20.7737 36.0489 18.0625 40.7495C17.769 41.306 17.3744 41.9536 16.9696 42.6316L15.0774 45.8191L17.2833 46.659C18.2012 47.0092 19.1747 47.1908 20.1571 47.1953C21.1845 47.2019 22.2005 46.9807 23.1321 46.5477C24.7459 45.7095 26.1158 44.4686 27.1089 42.9453C28.4054 41.4472 29.3156 39.6546 29.7601 37.7239C29.8125 37.5812 29.9101 37.4596 30.0379 37.3774C30.1658 37.2952 30.3169 37.257 30.4685 37.2685C30.6017 37.3097 30.7198 37.3892 30.808 37.4972C30.8962 37.6052 30.9506 37.7369 30.9643 37.8757L31.0351 38.0882C32.0025 40.1735 33.0905 42.2007 34.2935 44.1596L34.5869 44.6251C35.8113 46.3149 36.8637 47.7822 38.6345 47.7822C38.8564 47.7854 39.0777 47.7582 39.2923 47.7012C41.2655 47.2661 42.6923 45.4245 43.8661 43.7346C45.1567 41.8857 46.1281 39.8334 46.7399 37.6632C46.7673 37.5528 46.8274 37.4532 46.9122 37.3774C46.997 37.3016 47.1027 37.2531 47.2155 37.2382C47.3419 37.2208 47.4705 37.2438 47.5831 37.3037C47.6958 37.3637 47.7866 37.4576 47.8429 37.5721L49.2494 40.4762C50.6155 43.2084 51.9208 45.5358 54.1065 46.8917C55.2097 47.5546 56.4725 47.9044 57.7595 47.9036C58.2991 47.9075 58.8368 47.8395 59.3583 47.7012C61.0077 47.2864 61.6149 46.2846 62.7077 44.453L63.1833 43.6334L64.0738 44.5036L63.6994 45.1411C62.6875 46.912 61.8274 48.3185 59.7327 48.8548C57.6406 49.3649 55.4324 49.0458 53.5702 47.9643C51.7398 46.7485 50.2688 45.0643 49.3101 43.087L47.5494 40.0512L45.8292 43.1477C45.5428 43.6573 45.2181 44.1445 44.8577 44.6048V44.5947Z" stroke="#3B454F" stroke-width="0.62" stroke-miterlimit="3.86"/>
<path d="M57.2435 36.9346L64.9643 39.5453L66.8768 41.4882C66.9688 41.5706 67.0873 41.6172 67.2107 41.6197C67.3042 41.6217 67.3961 41.5955 67.4744 41.5445C67.5528 41.4934 67.6139 41.42 67.65 41.3338C67.686 41.2475 67.6952 41.1524 67.6764 41.0608C67.6577 40.9692 67.6117 40.8854 67.5447 40.8203L65.5208 38.7459L62.9911 31.1971L35.9732 4.20961L37.8554 2.32746L51.6071 15.9882C51.6985 16.0714 51.8175 16.1175 51.9411 16.1175C52.0646 16.1175 52.1837 16.0714 52.275 15.9882C52.3205 15.9459 52.356 15.894 52.3788 15.8362C52.4015 15.7784 52.411 15.7162 52.4066 15.6543C52.4088 15.594 52.3983 15.534 52.3756 15.4782C52.3529 15.4224 52.3186 15.372 52.275 15.3304L38.1893 1.32568C38.0976 1.24729 37.981 1.20422 37.8604 1.20422C37.7398 1.20422 37.6232 1.24729 37.5315 1.32568L35.3155 3.55187L33.7268 2.02389C33.6005 1.89858 33.4504 1.79996 33.2852 1.7339C33.1201 1.66784 32.9433 1.63569 32.7655 1.63937C32.5796 1.63173 32.3941 1.66187 32.2201 1.72796C32.0462 1.79405 31.8875 1.89472 31.7536 2.02389L31.45 2.32746L29.9018 0.698298C29.6448 0.448016 29.2992 0.30975 28.9405 0.313774C28.7539 0.307465 28.5679 0.339199 28.3939 0.407045C28.22 0.47489 28.0616 0.577428 27.9286 0.708417L26.694 2.02389C26.4401 2.28141 26.2977 2.62857 26.2977 2.99026C26.2977 3.35196 26.4401 3.69911 26.694 3.95663L28.3333 5.49473L28.0298 5.7983C27.9013 5.92535 27.7992 6.07662 27.7296 6.24337C27.66 6.41012 27.6241 6.58903 27.6241 6.76973C27.6241 6.95043 27.66 7.12933 27.7296 7.29608C27.7992 7.46283 27.9013 7.61411 28.0298 7.74116L57.2435 36.9346Z" fill="#3B454F"/>
<path d="M57.2435 36.9346L64.9643 39.5453L66.8768 41.4882C66.9688 41.5706 67.0873 41.6172 67.2107 41.6197C67.3042 41.6217 67.3961 41.5955 67.4744 41.5445C67.5528 41.4934 67.614 41.42 67.65 41.3338C67.686 41.2475 67.6952 41.1524 67.6764 41.0608C67.6577 40.9692 67.6117 40.8854 67.5446 40.8203L65.5208 38.7459L62.9911 31.1971L35.9732 4.20961L37.8554 2.32746L51.6071 15.9882C51.6985 16.0714 51.8175 16.1175 51.9411 16.1175C52.0646 16.1175 52.1837 16.0714 52.275 15.9882C52.3205 15.9459 52.356 15.894 52.3788 15.8362C52.4015 15.7784 52.411 15.7162 52.4066 15.6543C52.4088 15.594 52.3983 15.534 52.3756 15.4782C52.3529 15.4224 52.3186 15.372 52.275 15.3304L38.1893 1.32568C38.0976 1.24729 37.981 1.20422 37.8604 1.20422C37.7398 1.20422 37.6232 1.24729 37.5315 1.32568L35.3155 3.55187L33.7268 2.02389C33.6005 1.89858 33.4504 1.79996 33.2852 1.7339C33.1201 1.66784 32.9433 1.63569 32.7655 1.63937C32.5796 1.63173 32.3941 1.66187 32.2201 1.72796C32.0462 1.79405 31.8875 1.89472 31.7536 2.02389L31.45 2.32746L29.9018 0.698298C29.6448 0.448016 29.2992 0.30975 28.9405 0.313774C28.7539 0.307465 28.5679 0.339199 28.3939 0.407045C28.22 0.47489 28.0616 0.577428 27.9286 0.708417L26.694 2.02389C26.4401 2.28141 26.2977 2.62857 26.2977 2.99026C26.2977 3.35196 26.4401 3.69911 26.694 3.95663L28.3333 5.49473L28.0298 5.7983C27.9013 5.92535 27.7992 6.07662 27.7296 6.24337C27.66 6.41012 27.6241 6.58903 27.6241 6.76973C27.6241 6.95043 27.66 7.12933 27.7296 7.29608C27.7992 7.46283 27.9013 7.61411 28.0298 7.74116L57.2435 36.9346Z" stroke="#3B454F" stroke-width="0.62" stroke-miterlimit="3.86"/>
<path d="M27.047 2.95142L28.9271 1.06795L30.8106 2.94813L28.9304 4.8316L27.047 2.95142Z" fill="url(#paint0_linear)"/>
<path d="M27.047 2.95142L28.9271 1.06795L30.8106 2.94813L28.9304 4.8316L27.047 2.95142Z" fill="url(#paint1_linear)" stroke="#3B454F" stroke-width="0.62" stroke-miterlimit="3.86"/>
<path d="M63.7298 36.297L62.3839 37.6529L57.6381 36.0744L62.1411 31.5613L63.7298 36.297Z" fill="white"/>
<path d="M63.7298 36.297L62.3839 37.6529L57.6381 36.0744L62.1411 31.5613L63.7298 36.297V36.297Z" stroke="#3B454F" stroke-width="0.62" stroke-miterlimit="3.86"/>
<path d="M35.3155 4.87744L35.3964 4.95839L61.4429 30.934L57.0107 35.3763L56.9298 35.2953L30.8833 9.30958L35.3155 4.87744Z" fill="url(#paint2_linear)"/>
<path d="M35.3155 4.87744L35.3964 4.95839L61.4429 30.934L57.0107 35.3763L56.9298 35.2953L30.8833 9.30958L35.3155 4.87744Z" fill="url(#paint3_linear)" stroke="#3B454F" stroke-width="0.62" stroke-miterlimit="3.86"/>
<path d="M28.3364 6.77674L32.7655 2.33447L34.6507 4.21257L30.2205 8.65584L28.3364 6.77674Z" fill="white"/>
<path d="M28.3364 6.77674L32.7655 2.33447L34.6506 4.21257L30.2205 8.65584L28.3364 6.77674Z" stroke="#3B454F" stroke-width="0.62" stroke-miterlimit="3.86"/>
</g>
<defs>
<linearGradient id="paint0_linear" x1="29.7507" y1="4.36678" x2="28.1114" y2="1.53345" gradientUnits="userSpaceOnUse">
<stop stop-color="#B2EEFF"/>
<stop offset="0.03" stop-color="#AAEBFE"/>
<stop offset="0.28" stop-color="#6ED5F3"/>
<stop offset="0.52" stop-color="#3FC4EA"/>
<stop offset="0.72" stop-color="#1DB8E4"/>
<stop offset="0.89" stop-color="#08B1E0"/>
<stop offset="1" stop-color="#01AEDF"/>
</linearGradient>
<linearGradient id="paint1_linear" x1="29.7507" y1="4.36678" x2="28.1114" y2="1.53345" gradientUnits="userSpaceOnUse">
<stop stop-color="#B2EEFF"/>
<stop offset="0.03" stop-color="#AAEBFE"/>
<stop offset="0.28" stop-color="#6ED5F3"/>
<stop offset="0.52" stop-color="#3FC4EA"/>
<stop offset="0.72" stop-color="#1DB8E4"/>
<stop offset="0.89" stop-color="#08B1E0"/>
<stop offset="1" stop-color="#01AEDF"/>
</linearGradient>
<linearGradient id="paint2_linear" x1="1706.46" y1="1097.65" x2="1145.23" y2="124.076" gradientUnits="userSpaceOnUse">
<stop stop-color="#B2EEFF"/>
<stop offset="0.03" stop-color="#AAEBFE"/>
<stop offset="0.28" stop-color="#6ED5F3"/>
<stop offset="0.52" stop-color="#3FC4EA"/>
<stop offset="0.72" stop-color="#1DB8E4"/>
<stop offset="0.89" stop-color="#08B1E0"/>
<stop offset="1" stop-color="#01AEDF"/>
</linearGradient>
<linearGradient id="paint3_linear" x1="1706.46" y1="1097.65" x2="1145.23" y2="124.076" gradientUnits="userSpaceOnUse">
<stop stop-color="#B2EEFF"/>
<stop offset="0.03" stop-color="#AAEBFE"/>
<stop offset="0.28" stop-color="#6ED5F3"/>
<stop offset="0.52" stop-color="#3FC4EA"/>
<stop offset="0.72" stop-color="#1DB8E4"/>
<stop offset="0.89" stop-color="#08B1E0"/>
<stop offset="1" stop-color="#01AEDF"/>
</linearGradient>
<clipPath id="clip0">
<rect width="68" height="55.3107" fill="white"/>
</clipPath>
</defs>
</svg>
