<svg width="46" height="54" viewBox="0 0 46 54" fill="none" xmlns="http://www.w3.org/2000/svg">
<g clip-path="url(#clip0)">
<path d="M25.0217 10.4429H32.3368V43.4793H25.0217V10.4429Z" fill="#DDE0E4"/>
<path d="M8.23082 1.54328V7.36658H25.0011C25.2033 7.37422 25.3952 7.45797 25.5383 7.60106C25.6814 7.74415 25.7651 7.93601 25.7728 8.13822V42.9855H44.539V1.54328H8.23082ZM0.77164 53.3563C0.569427 53.3487 0.377564 53.2649 0.234476 53.1218C0.0913883 52.9787 0.00763874 52.7869 0 52.5847L0 8.13822C0.00763874 7.93601 0.0913883 7.74415 0.234476 7.60106C0.377564 7.45797 0.569427 7.37422 0.77164 7.36658H6.6361V0.771639C6.64606 0.570209 6.73056 0.379676 6.87317 0.237069C7.01578 0.0944616 7.20631 0.00996516 7.40774 0L45.2695 0C45.3708 0.00236943 45.4706 0.0255062 45.5626 0.0679788C45.6547 0.110451 45.737 0.171356 45.8045 0.246925C45.8634 0.319728 45.9066 0.403924 45.9314 0.494224C45.9562 0.584523 45.962 0.678973 45.9486 0.771639V52.5847C45.9409 52.7869 45.8572 52.9787 45.7141 53.1218C45.571 53.2649 45.3791 53.3487 45.1769 53.3563H0.77164Z" fill="#3B454F"/>
<path d="M1.54327 42.543H24.178V51.8129H1.54327V42.543Z" fill="url(#paint0_linear)"/>
<path d="M25.7213 44.5391H44.5287V51.813H25.7213V44.5391Z" fill="url(#paint1_linear)"/>
<path d="M1.54327 8.90991H24.178V40.9895H1.54327V8.90991Z" fill="white"/>
<path opacity="0.15" d="M24.9291 43.7263H32.3265V52.5333H24.9291V43.7263Z" fill="#3B454F"/>
<path d="M16.225 47.6256C16.4297 47.6256 16.6259 47.5443 16.7706 47.3995C16.9153 47.2548 16.9966 47.0586 16.9966 46.8539C16.9966 46.6493 16.9153 46.453 16.7706 46.3083C16.6259 46.1636 16.4297 46.0823 16.225 46.0823H9.49631C9.29166 46.0823 9.09539 46.1636 8.95068 46.3083C8.80597 46.453 8.72467 46.6493 8.72467 46.8539C8.72467 47.0586 8.80597 47.2548 8.95068 47.3995C9.09539 47.5443 9.29166 47.6256 9.49631 47.6256H16.225Z" fill="#3B454F"/>
</g>
<defs>
<linearGradient id="paint0_linear" x1="17.6963" y1="55.5477" x2="8.02504" y2="38.7979" gradientUnits="userSpaceOnUse">
<stop stop-color="#B2EEFF"/>
<stop offset="0.03" stop-color="#AAEBFE"/>
<stop offset="0.28" stop-color="#6ED5F3"/>
<stop offset="0.52" stop-color="#3FC4EA"/>
<stop offset="0.72" stop-color="#1DB8E4"/>
<stop offset="0.89" stop-color="#08B1E0"/>
<stop offset="1" stop-color="#01AEDF"/>
</linearGradient>
<linearGradient id="paint1_linear" x1="739.651" y1="433.188" x2="712.394" y2="311.078" gradientUnits="userSpaceOnUse">
<stop stop-color="#B2EEFF"/>
<stop offset="0.03" stop-color="#AAEBFE"/>
<stop offset="0.28" stop-color="#6ED5F3"/>
<stop offset="0.52" stop-color="#3FC4EA"/>
<stop offset="0.72" stop-color="#1DB8E4"/>
<stop offset="0.89" stop-color="#08B1E0"/>
<stop offset="1" stop-color="#01AEDF"/>
</linearGradient>
<clipPath id="clip0">
<rect width="46" height="53.3563" fill="white"/>
</clipPath>
</defs>
</svg>
