<svg width="50" height="52" viewBox="0 0 50 52" fill="none" xmlns="http://www.w3.org/2000/svg">
<g clip-path="url(#clip0)">
<path d="M10.1979 32.1689L10.1171 32.2497H9.90509C8.60174 32.1663 7.29574 32.3649 6.07606 32.8319C4.85638 33.2988 3.75169 34.0232 2.83724 34.9557C1.55445 36.2316 0.662189 37.8469 0.265159 39.6121C-0.131871 41.3772 -0.0171991 43.219 0.59572 44.9213L1.06018 46.2137L6.05816 41.2259L9.45073 41.862L10.0969 45.2545L5.04847 50.2424L6.32068 50.7069C7.36264 51.037 8.44862 51.2072 9.5416 51.2117C10.8278 51.2022 12.0989 50.9332 13.2788 50.421C14.4587 49.9087 15.5231 49.1636 16.4082 48.2304C17.2934 47.2971 17.9812 46.1948 18.4304 44.9895C18.8796 43.7843 19.0811 42.5007 19.0226 41.2158V41.0138L23.4047 36.6318L23.4855 36.7125L36.1975 49.3842C37.4183 50.6442 39.088 51.3701 40.8421 51.4036C41.7144 51.4103 42.5785 51.2341 43.3785 50.8863C44.1785 50.5385 44.8967 50.0267 45.4867 49.3842L46.3752 48.5058C47.6358 47.2812 48.3616 45.6082 48.3946 43.8511C48.3946 42.0942 47.7585 41.1552 46.3752 39.7315L44.4265 37.8232L33.6127 26.9791L37.813 22.7889H38.3683C39.6335 22.7861 40.8852 22.529 42.0491 22.0329C43.2129 21.5368 44.2652 20.8119 45.1434 19.9011C46.4206 18.6175 47.3067 16.9971 47.6982 15.2291C48.0897 13.4611 47.9705 11.6182 47.3546 9.91528L46.8901 8.63297L41.8417 13.6814L38.6309 12.8232L38.227 10.3999L37.9948 9.47102V9.42053L42.9523 4.46294L41.6801 4.00858C40.6643 3.65479 39.5955 3.47723 38.5198 3.48354C35.9715 3.45834 33.5157 4.43773 31.6842 6.20971C30.7573 7.14886 30.0258 8.26238 29.5319 9.48592C29.038 10.7095 28.7915 12.0188 28.8065 13.3381V13.53L24.6062 17.7202L24.5254 17.6394L13.126 6.16932C12.9645 5.99767 12.9039 5.94719 12.7423 5.94719L0.0504853 3.24121L2.74637 15.8725C2.7773 16.0494 2.85783 16.214 2.9786 16.347L14.4992 27.8676L10.3292 32.0377" fill="#DDE0E4"/>
<path fill-rule="evenodd" clip-rule="evenodd" d="M14.4285 3.60449L5.40186 12.409L17.2758 24.8484L26.3025 15.7006L14.4285 3.60449ZM25.313 32.3807L33.8853 23.5762L44.477 34.0568L36.147 43.2047L25.313 32.3807Z" fill="#B2EEFF"/>
<path d="M11.8134 28.9277L11.7326 29.0085H11.5307C10.2273 28.9251 8.92134 29.1237 7.70166 29.5907C6.48198 30.0576 5.37729 30.782 4.46284 31.7145C3.1854 32.9959 2.2991 34.6145 1.90753 36.381C1.51597 38.1475 1.63531 39.989 2.25161 41.6902L2.71607 42.9826L7.67366 37.9846L11.0561 38.6208L11.7023 42.0133H11.6519L6.71445 46.9608L7.98667 47.4556C9.02363 47.7932 10.1069 47.967 11.1975 47.9705C12.4846 47.9623 13.7568 47.6944 14.9378 47.1827C16.1189 46.671 17.1845 45.9262 18.0707 44.9928C18.957 44.0594 19.6457 42.9566 20.0955 41.7507C20.5453 40.5447 20.7471 39.2603 20.6886 37.9746V37.7726L25.0808 33.3805L25.1615 33.4713L37.813 46.143C39.0376 47.4035 40.7105 48.1293 42.4677 48.1624C43.34 48.1691 44.2041 47.9929 45.0041 47.6451C45.8041 47.2972 46.5223 46.7855 47.1123 46.143L48.0008 45.2645C49.2614 44.04 49.9872 42.367 50.0202 40.6099C50.0202 38.853 49.3841 37.914 47.9503 36.4903L46.1026 34.582L35.2383 23.7379L39.4285 19.5376H39.9737C41.24 19.538 42.4933 19.2834 43.6591 18.789C44.8248 18.2946 45.879 17.5705 46.7589 16.6599C48.0376 15.3772 48.9238 13.7563 49.3137 11.9876C49.7036 10.2188 49.5809 8.37554 48.96 6.67407L48.4653 5.39176L43.4168 10.4402L40.2868 9.5416L39.8728 7.06785L39.6405 6.14903H39.691L44.6385 1.19144L43.4168 0.716882C41.7078 0.135592 39.8721 0.0343835 38.1095 0.42428C36.347 0.814176 34.7252 1.68023 33.4208 2.92811C32.4786 3.86686 31.7341 4.98488 31.2312 6.21616C30.7283 7.44743 30.4772 8.767 30.4927 10.0969V10.2888L26.3025 14.4386L26.252 14.3578L14.7819 2.92811C14.6103 2.75646 14.5497 2.70598 14.3982 2.70598L1.67609 0L4.37197 12.6212C4.39618 12.8032 4.47748 12.9729 4.6042 13.1058L16.1551 24.6264L11.9851 28.7964" fill="#3B454F"/>
<path d="M34.5012 4.22063C35.2162 3.49459 36.0702 2.92012 37.0122 2.53152C37.9542 2.14292 38.9649 1.94818 39.9838 1.95892H41.2258L37.813 5.58372L38.8227 11.0764L44.3154 12.0357L47.9402 8.41086V9.52152C47.9673 11.6858 47.1569 13.7767 45.6785 15.3575C44.933 16.1011 44.0455 16.6871 43.069 17.0808C42.0924 17.4746 41.0467 17.668 39.9939 17.6495H39.2771C37.4897 17.4525 35.8225 16.6535 34.5491 15.3839C33.2758 14.1142 32.472 12.4493 32.2698 10.6625C32.1585 9.49154 32.3002 8.31037 32.6851 7.19895C33.0701 6.08753 33.6895 5.07183 34.5012 4.22063ZM4.04887 2.61522L12.5 4.35189L5.78554 11.0764L4.04887 2.61522ZM16.6801 44.3155C15.9056 45.0609 14.9911 45.6454 13.9894 46.0353C12.9877 46.4252 11.9187 46.6129 10.8441 46.5873H9.72334L13.3683 42.9424L12.3586 37.4698L11.4903 37.3588L6.9063 36.5207L3.27141 40.1556V39.0147C3.24499 36.8486 4.05932 34.7567 5.54321 33.1786C6.38216 32.3597 7.38934 31.7331 8.49478 31.3426C9.60023 30.952 10.7774 30.8067 11.9447 30.9169C13.7442 31.0752 15.4259 31.8785 16.6801 33.1786C17.9478 34.4478 18.7454 36.1109 18.9418 37.8939C19.055 39.0644 18.9113 40.2455 18.5206 41.3546C18.13 42.4638 17.5018 43.4743 16.6801 44.3155ZM30.7653 12.6415L30.9168 12.9949C31.4203 14.2661 32.1642 15.4283 33.1078 16.4177C34.0861 17.371 35.2376 18.1284 36.5004 18.6491L37.1264 18.9218L20.0626 35.7735L19.8001 35.1374C19.2942 33.8675 18.5505 32.7057 17.609 31.7146C16.6019 30.722 15.3885 29.9635 14.0549 29.4932" fill="white"/>
<path d="M34.2084 24.8383L34.1276 24.7576L30.8158 28.0795L40.0848 37.3585L40.1757 37.4393L43.4875 34.1174L34.2084 24.8383Z" fill="url(#paint0_linear)"/>
<path d="M14.4083 5.03833L11.0965 8.36022L21.7892 19.063L21.87 19.1437L25.1918 15.8219L14.4992 5.1292L14.4083 5.03833Z" fill="url(#paint1_linear)"/>
<path d="M9.79403 9.48096L6.47214 12.8028L17.1749 23.5056L17.2557 23.5864L20.5775 20.2645L9.8748 9.56173L9.79403 9.48096Z" fill="url(#paint2_linear)"/>
<path d="M29.6951 29.3821L26.3732 32.704L35.6522 41.9831L35.733 42.0638L39.0448 38.7419L29.7758 29.4629L29.6951 29.3821Z" fill="url(#paint3_linear)"/>
<path d="M46.8901 44.5778L46.0016 45.4664C45.5571 45.8998 45.0311 46.2407 44.454 46.4695C43.8768 46.6983 43.26 46.8103 42.6393 46.7992C41.3491 46.7936 40.1072 46.3076 39.1559 45.4361L36.8538 43.1845L44.6082 35.4199L46.8901 37.7018C47.3344 38.1367 47.686 38.657 47.9237 39.2313C48.1614 39.8057 48.2804 40.4223 48.2734 41.0439C48.2978 41.6964 48.1875 42.3468 47.9496 42.9548C47.7116 43.5628 47.3509 44.1153 46.8901 44.5778Z" fill="white"/>
</g>
<defs>
<linearGradient id="paint0_linear" x1="40.6502" y1="37.1667" x2="33.6531" y2="25.0403" gradientUnits="userSpaceOnUse">
<stop stop-color="#B2EEFF"/>
<stop offset="0.03" stop-color="#AAEBFE"/>
<stop offset="0.28" stop-color="#6ED5F3"/>
<stop offset="0.52" stop-color="#3FC4EA"/>
<stop offset="0.72" stop-color="#1DB8E4"/>
<stop offset="0.89" stop-color="#08B1E0"/>
<stop offset="1" stop-color="#01AEDF"/>
</linearGradient>
<linearGradient id="paint1_linear" x1="320.066" y1="270.361" x2="208.593" y2="77.6093" gradientUnits="userSpaceOnUse">
<stop stop-color="#B2EEFF"/>
<stop offset="0.03" stop-color="#AAEBFE"/>
<stop offset="0.28" stop-color="#6ED5F3"/>
<stop offset="0.52" stop-color="#3FC4EA"/>
<stop offset="0.72" stop-color="#1DB8E4"/>
<stop offset="0.89" stop-color="#08B1E0"/>
<stop offset="1" stop-color="#01AEDF"/>
</linearGradient>
<linearGradient id="paint2_linear" x1="251.06" y1="336.868" x2="139.768" y2="144.047" gradientUnits="userSpaceOnUse">
<stop stop-color="#B2EEFF"/>
<stop offset="0.03" stop-color="#AAEBFE"/>
<stop offset="0.28" stop-color="#6ED5F3"/>
<stop offset="0.52" stop-color="#3FC4EA"/>
<stop offset="0.72" stop-color="#1DB8E4"/>
<stop offset="0.89" stop-color="#08B1E0"/>
<stop offset="1" stop-color="#01AEDF"/>
</linearGradient>
<linearGradient id="paint3_linear" x1="480.778" y1="554.153" x2="392.859" y2="401.906" gradientUnits="userSpaceOnUse">
<stop stop-color="#B2EEFF"/>
<stop offset="0.03" stop-color="#AAEBFE"/>
<stop offset="0.28" stop-color="#6ED5F3"/>
<stop offset="0.52" stop-color="#3FC4EA"/>
<stop offset="0.72" stop-color="#1DB8E4"/>
<stop offset="0.89" stop-color="#08B1E0"/>
<stop offset="1" stop-color="#01AEDF"/>
</linearGradient>
<clipPath id="clip0">
<rect width="50" height="51.3833" fill="white"/>
</clipPath>
</defs>
</svg>
