<svg width="60" height="62" viewBox="0 0 60 62" fill="none" xmlns="http://www.w3.org/2000/svg">
<g clip-path="url(#clip0)">
<path d="M53.8698 43.9731L53.419 45.145C53.2966 45.465 53.2322 45.8041 53.2287 46.1467C53.2189 46.2867 53.2189 46.4273 53.2287 46.5674C53.2483 46.8107 53.2483 47.0553 53.2287 47.2986C53.2184 48.5247 52.7586 49.7044 51.9366 50.6141L50.7446 52.0866C50.3019 52.5759 50.0527 53.2098 50.0434 53.8696C50.045 54.2595 50.1376 54.6436 50.3139 54.9914L50.7045 55.7928C51.0061 56.4175 51.1628 57.1023 51.1628 57.7961C51.1628 58.4899 51.0061 59.1747 50.7045 59.7994C50.5119 60.1846 50.2037 60.4998 49.823 60.7009C49.5116 60.8476 49.1743 60.9311 48.8304 60.9466C48.4865 60.962 48.143 60.9092 47.8197 60.7911C47.5155 60.669 47.2444 60.4768 47.0284 60.2302L44.7245 57.6058C44.4487 57.3164 44.118 57.085 43.7516 56.925C43.3853 56.765 42.9907 56.6798 42.591 56.6742H41.429C40.2851 56.6699 39.1493 56.8665 38.0735 57.2552C36.9763 57.6581 35.8249 57.8944 34.6578 57.9564L31.6528 58.1066C31.4568 58.1109 31.2673 58.1776 31.1119 58.2969L31.0518 59.4889C31.0136 59.986 30.8073 60.4553 30.4669 60.8194C30.1264 61.1836 29.672 61.4209 29.1786 61.4923C28.6609 61.6006 28.1233 61.5624 27.626 61.3821C27.3057 61.2622 27.0152 61.0742 26.7746 60.8312L25.3523 59.4989C24.0674 58.2658 22.4987 57.3679 20.7846 56.8846L16.6077 55.6525C16.0983 55.4988 15.5997 55.3114 15.1152 55.0916L6.85142 51.6459C5.08347 50.924 3.50647 49.803 2.24374 48.3704C0.82274 46.754 0.0268735 44.6827 0 42.5307L0 41.8495L0.180301 39.5156C0.270297 38.5046 0.614901 37.5328 1.18197 36.6909C1.53427 36.1542 1.7603 35.5446 1.84307 34.908L2.31386 30.8111L2.67446 30.6108L2.83472 30.5206L3.18531 30.3203L8.02337 31.322C8.99661 31.5135 9.97977 31.6506 10.9683 31.7327L19.7329 32.0532L20.7346 34.1166L10.788 33.6959C9.71147 33.6049 8.6412 33.451 7.58264 33.2352L4.19699 32.554L3.89649 35.1383C3.77606 36.0773 3.4326 36.9737 2.89482 37.7527C2.50417 38.3537 57.3356 35.6392 57.3356 35.0582C57.3375 34.8503 57.3036 34.6436 57.2354 34.4472L57.0952 33.8963L56.0935 35.3487C55.1495 36.3935 53.9368 37.1593 52.5876 37.5624L51.9967 37.7427C51.8164 37.7881 51.6594 37.8987 51.5559 38.0532C51.104 38.8246 50.4538 39.461 49.6728 39.8963L49.4424 40.0265C49.2058 40.1544 48.9869 40.3126 48.7913 40.4973L47.6394 41.5991C47.3961 41.8242 47.11 41.998 46.798 42.11C46.3595 42.2597 45.891 42.2996 45.4334 42.2263C44.9759 42.1529 44.5434 41.9685 44.1736 41.6893C43.9514 41.5094 43.7703 41.284 43.6425 41.0283C43.5146 40.7726 43.443 40.4925 43.4324 40.2068V39.4155L43.212 39.3654C43.0856 39.3498 42.9578 39.3498 42.8314 39.3654C42.3059 39.3603 41.7928 39.5255 41.3689 39.8362L41.0684 40.0666C40.6603 40.3674 40.1827 40.56 39.68 40.6266C39.1774 40.6931 38.666 40.6314 38.1937 40.4472C37.9417 40.3504 37.708 40.2115 37.5025 40.0365L20.6845 34.1066L19.6828 32.1033L38.7947 38.534C38.9264 38.6363 39.0886 38.6919 39.2554 38.6919C39.4223 38.6919 39.5844 38.6363 39.7162 38.534L40.0267 38.2836C40.4991 37.9093 41.0435 37.6362 41.6259 37.4811C42.2083 37.326 42.8164 37.2923 43.4124 37.3821C43.9285 37.4272 44.4123 37.6528 44.7786 38.0191C45.145 38.3855 45.3706 38.8693 45.4157 39.3854V40.1868L45.8765 40.6776L46.3372 40.3971C46.3777 40.2803 46.3777 40.1533 46.3372 40.0365L47.3389 39.0348C47.6565 38.7327 48.0097 38.4704 48.3907 38.2535L48.621 38.1333C49.0934 37.8847 49.491 37.5148 49.773 37.0615C50.1327 36.451 50.7138 36.0026 51.3957 35.8095L51.9766 35.6292C52.9435 35.3454 53.8157 34.8054 54.5008 34.0666L55.1519 33.0649C55.3617 32.7487 55.657 32.4986 56.0033 32.3437C56.3398 32.1903 56.7053 32.111 57.0751 32.111C57.4449 32.111 57.8104 32.1903 58.1469 32.3437C58.5372 32.5526 58.8524 32.8783 59.0484 33.2752C59.3149 33.831 59.4453 34.4421 59.429 35.0582C59.408 35.6293 59.271 36.1902 59.0265 36.7068C58.782 37.2234 58.435 37.6849 58.0067 38.0632C57.9184 38.1326 57.8466 38.2207 57.7964 38.3212C57.7461 38.4216 57.7188 38.5319 57.7162 38.6442V38.8946C57.723 39.351 57.6163 39.8019 57.4057 40.2068L57.015 40.7878C56.7332 41.1062 56.3932 41.3679 56.0134 41.559C55.0328 42.081 54.2721 42.9376 53.8698 43.9731Z" fill="#DDE0E4"/>
<path fill-rule="evenodd" clip-rule="evenodd" d="M4.22704 26.4341L3.19532 31.0317L1.70284 35.8498L3.30551 42.4007L13.4124 48.0301L24.5609 52.5075L29.0384 55.2621L30.7613 54.8114L31.222 52.0468L35.9299 51.7062L41.4391 50.3239L44.424 50.6745L49.2521 55.0418L50.6344 54L50.7446 50.9049L49.6027 48.3706L53.0384 42.9817L53.6194 39.2955L55.1118 36.3105L57.2955 34.7079L57.9866 32.5242L59.0184 29.8798L58.0968 27.9266L56.2638 28.9583L52.2371 31.9533L49.6027 33.8965L47.0684 35.8498H45.576L44.5442 33.2154L42.02 33.556L40.0668 34.5877L37.6527 32.6344L35.1285 30.571L19.7329 27.8164L9.50584 27.6962L4.22704 26.4341Z" fill="white"/>
<path d="M18.7713 7.8829C20.1113 6.5232 21.7036 5.43784 23.4591 4.68758C26.0836 3.57973 28.9788 3.27962 31.7748 3.8256C34.5707 4.37159 37.1403 5.73886 39.1553 7.75268L39.4057 8.01312L18.7713 7.8829ZM29.0484 43.973L28.2771 42.9714C28.2771 42.9714 24.8815 38.5841 21.5559 33.4054C20.2204 31.2953 19.0684 29.352 18.1002 27.5757H22.1669L29.1786 38.1433L35.5893 30.0498L37.3222 32.2034L36.5209 33.4655C33.2053 38.6442 29.8397 42.9814 29.7997 43.0315L29.0484 43.973Z" fill="#DDE0E4"/>
<path d="M29.0484 40.4074L28.2771 39.4057C28.2771 39.4057 24.8614 35.0585 21.5359 29.8498C17.0083 22.8381 14.7145 17.5593 14.7145 14.3139C14.7121 12.4011 15.0936 10.5073 15.8364 8.74463C17.301 5.31701 20.0315 2.58653 23.4591 1.12193C25.2225 0.381415 27.1158 0 29.0284 0C30.9409 0 32.8343 0.381415 34.5977 1.12193C36.3041 1.8376 37.8528 2.88255 39.1553 4.19705C40.4611 5.50071 41.502 7.04503 42.2204 8.74463C42.968 10.5058 43.3496 12.4006 43.3422 14.3139C43.3422 17.5593 41.0484 22.788 36.5209 29.8498C33.2053 35.0385 29.8397 39.3757 29.7997 39.4157L29.0484 40.4074Z" fill="#3B454F"/>
<path d="M54.4407 38.6842C54.8666 37.6656 55.6405 36.8314 56.6244 36.3303C57.0038 36.1386 57.3437 35.8769 57.626 35.559L58.0568 34.918L56.8548 33.1951L56.1135 34.1968C55.9905 34.3567 55.833 34.4868 55.6528 34.5774C54.2461 35.3031 53.1449 36.5073 52.5476 37.9731L52.0868 39.1751C51.8764 39.7252 51.7678 40.309 51.7663 40.8979C51.7683 41.1698 51.7918 41.4411 51.8364 41.7093C51.8427 41.816 51.8427 41.9231 51.8364 42.0298C51.8188 42.786 51.531 43.5109 51.025 44.0732L49.7529 45.5357C48.9937 46.377 48.5696 47.4676 48.5609 48.6008C48.5583 49.2963 48.7196 49.9826 49.0317 50.6041L49.4224 51.4054C49.6035 51.7698 49.6994 52.1705 49.7028 52.5774C49.7001 52.8847 49.6459 53.1894 49.5426 53.4789L49.3723 53.9296L46.8681 51.0849C46.4036 50.5901 45.846 50.192 45.2271 49.9136C44.6082 49.6351 43.9404 49.4817 43.2621 49.4622H42.4407C40.8997 49.3888 39.3598 49.6273 37.9132 50.1634C37.0183 50.4889 36.0796 50.678 35.1285 50.7243L32.1235 50.8746C31.4685 50.9046 30.8403 51.1433 30.3305 51.5557C30.0793 51.7616 29.8757 52.0196 29.7338 52.3118C29.592 52.6041 29.5154 52.9237 29.5092 53.2485V54.2502L29.1886 54.3303C29.0454 54.3489 28.9002 54.3171 28.778 54.2402L27.3756 52.8478C25.8473 51.3745 23.9791 50.301 21.9366 49.7226L17.7596 48.4906C17.3293 48.3687 16.9077 48.2181 16.4975 48.0398L8.24374 44.554C6.78117 43.9569 5.47543 43.0316 4.42738 41.8495C3.28643 40.5837 2.64549 38.9458 2.62437 37.2418V36.731L2.81469 34.3871C2.87665 33.7036 3.10725 33.0463 3.48581 32.4739C4.02231 31.6905 4.36558 30.7912 4.48748 29.8495L4.78798 27.2652L8.19365 27.9664C9.25579 28.1789 10.3294 28.3294 11.409 28.4171L21.3556 28.8478L20.3539 26.7744L11.6194 26.4438C10.6099 26.3661 9.60633 26.2256 8.61435 26.0231L3.78631 25.0415L3.42571 25.2318H3.28547V25.352L2.93489 25.5524L2.45409 29.6492C2.37772 30.2874 2.15116 30.8984 1.79298 31.4322C1.22433 32.2769 0.879652 33.2524 0.791315 34.2669L0.600998 36.5707V37.2418C0.616705 39.3893 1.40622 41.4591 2.8247 43.0716C4.08102 44.5092 5.65525 45.6342 7.42237 46.357L15.6962 49.8328C16.187 50.0332 16.6978 50.2135 17.1886 50.3637L21.3556 51.5857C23.0724 52.0677 24.6422 52.9696 25.9232 54.2101L27.3055 55.5724C27.5519 55.8106 27.8453 55.9949 28.1669 56.1133C28.6643 56.2919 29.2006 56.3335 29.7195 56.2335C30.2104 56.1583 30.6614 55.9196 30.9996 55.5559C31.3378 55.1923 31.5432 54.7251 31.5826 54.2302V53.1083L31.6828 53.0181C31.8407 52.9033 32.0287 52.8372 32.2237 52.8278L35.2287 52.6776C36.3991 52.6229 37.5544 52.3898 38.6544 51.9864C39.73 51.5967 40.866 51.4 42.01 51.4054H43.1719C43.5709 51.4097 43.9651 51.4934 44.3314 51.6516C44.6977 51.8098 45.0289 52.0394 45.3055 52.327L47.5993 54.9614C47.8176 55.203 48.0883 55.3914 48.3906 55.5123C48.7129 55.6355 49.057 55.6911 49.4017 55.6756C49.7463 55.6601 50.0841 55.5738 50.394 55.4221C50.7782 55.2305 51.0882 54.917 51.2755 54.5306C51.5722 53.9045 51.7262 53.2202 51.7262 52.5273C51.721 51.8316 51.5565 51.1463 51.2454 50.524L50.8548 49.7226C50.676 49.3758 50.5832 48.991 50.5843 48.6008C50.5978 47.9429 50.8507 47.3126 51.2955 46.8278L52.5676 45.3554C53.3875 44.4539 53.8567 43.288 53.8898 42.0699C53.8893 41.8249 53.8692 41.5804 53.8297 41.3387C53.8194 41.202 53.8194 41.0647 53.8297 40.928C53.8316 40.5853 53.8961 40.2458 54.02 39.9263L54.4407 38.6842Z" fill="#3B454F"/>
<path d="M29.0484 2.00342C25.777 2.00337 22.6385 3.29812 20.3187 5.6048C17.9989 7.91147 16.6863 11.0426 16.6678 14.3139C16.6678 17.1386 18.9215 22.147 23.1887 28.7981C25.5125 32.4241 27.8564 35.6295 29.0284 37.2021C30.2003 35.6295 32.5543 32.4241 34.8781 28.7881C39.1352 22.137 41.389 17.1386 41.389 14.3139C41.3731 11.0487 40.0669 7.9221 37.7552 5.616C35.4435 3.30989 32.3137 2.01131 29.0484 2.00342Z" fill="url(#paint0_linear)"/>
<path d="M31.7229 15.1652C31.7229 15.714 31.5601 16.2505 31.2553 16.7067C30.9504 17.163 30.517 17.5187 30.01 17.7287C29.503 17.9387 28.9452 17.9936 28.4069 17.8866C27.8687 17.7795 27.3743 17.5152 26.9863 17.1272C26.5982 16.7392 26.334 16.2448 26.2269 15.7066C26.1199 15.1683 26.1748 14.6104 26.3848 14.1034C26.5948 13.5964 26.9505 13.1631 27.4067 12.8582C27.863 12.5534 28.3995 12.3906 28.9482 12.3906C29.6841 12.3906 30.3899 12.683 30.9102 13.2033C31.4305 13.7236 31.7229 14.4294 31.7229 15.1652ZM58.3072 33.6661V33.4056C58.3112 33.2951 58.3393 33.1867 58.3894 33.0881C58.4396 32.9895 58.5107 32.903 58.5977 32.8347C59.0342 32.4503 59.3861 31.9793 59.6309 31.4516C59.8758 30.924 60.0083 30.3512 60.02 29.7696C60.0253 29.1932 59.8949 28.6236 59.6394 28.1068C59.4504 27.705 59.1333 27.3773 58.7379 27.1753C58.4021 27.0193 58.0363 26.9385 57.6661 26.9385C57.2959 26.9385 56.9301 27.0193 56.5943 27.1753C56.2479 27.3302 55.9527 27.5803 55.7429 27.8965L55.1018 28.8981C54.4111 29.6351 53.5363 30.1745 52.5676 30.4607L51.9866 30.641C51.3113 30.8419 50.7359 31.2886 50.3739 31.8931C50.1036 32.3512 49.7119 32.7256 49.2421 32.9749L49.0217 33.1051C48.6401 33.3218 48.284 33.5805 47.9599 33.8764C47.6803 34.2435 47.3419 34.5616 46.9583 34.818C46.7291 34.9276 46.4912 35.0181 46.2471 35.0885L46.0768 34.9382V34.1269C46.0317 33.6107 45.8061 33.1269 45.4397 32.7606C45.0734 32.3942 44.5896 32.1686 44.0734 32.1235C43.4768 32.0375 42.8689 32.074 42.2868 32.2307C41.7047 32.3874 41.1606 32.6611 40.6878 33.035L40.3773 33.2854C40.2553 33.375 40.1079 33.4232 39.9566 33.4232C39.8053 33.4232 39.6579 33.375 39.5359 33.2854L39.4658 33.2253L36 30.1001L34.8481 31.5926L38.0634 34.7479C38.2725 34.9204 38.5053 35.0621 38.7546 35.1686C39.2278 35.3514 39.7396 35.4115 40.2422 35.3432C40.7449 35.2749 41.2221 35.0804 41.6294 34.7779L41.9499 34.5175C42.3709 34.2098 42.8809 34.048 43.4023 34.0567C43.5307 34.0585 43.6585 34.0753 43.783 34.1068H44.0133V34.9081C44.024 35.1938 44.0956 35.4739 44.2235 35.7296C44.3513 35.9853 44.5324 36.2107 44.7546 36.3906C45.1252 36.6682 45.5582 36.8508 46.0157 36.9224C46.4732 36.994 46.9412 36.9524 47.379 36.8013C47.6928 36.6933 47.9798 36.5191 48.2204 36.2905L49.3723 35.1986C49.5679 35.014 49.7867 34.8557 50.0234 34.7278L50.2537 34.5976C51.0397 34.1611 51.6936 33.521 52.1469 32.7445C52.2535 32.5932 52.4093 32.4835 52.5876 32.434L53.1686 32.2537C54.5171 31.8544 55.7299 31.092 56.6744 30.0501L57.6761 28.5976L57.8564 29.1486C57.9237 29.3418 57.9575 29.545 57.9566 29.7496C57.9445 30.064 57.8671 30.3725 57.7291 30.6554C57.5911 30.9382 57.3957 31.1892 57.1553 31.3923C56.8533 31.6754 56.6171 32.0212 56.463 32.4053C56.309 32.7895 56.241 33.2027 56.2638 33.616C56.2803 33.8128 56.2422 34.0104 56.1536 34.187L57.9967 34.9582C58.2026 34.5588 58.3091 34.1155 58.3072 33.6661Z" fill="#3B454F"/>
</g>
<defs>
<linearGradient id="paint0_linear" x1="38.9149" y1="31.4926" x2="22.8281" y2="3.62612" gradientUnits="userSpaceOnUse">
<stop stop-color="#B2EEFF"/>
<stop offset="0.03" stop-color="#AAEBFE"/>
<stop offset="0.28" stop-color="#6ED5F3"/>
<stop offset="0.52" stop-color="#3FC4EA"/>
<stop offset="0.72" stop-color="#1DB8E4"/>
<stop offset="0.89" stop-color="#08B1E0"/>
<stop offset="1" stop-color="#01AEDF"/>
</linearGradient>
<clipPath id="clip0">
<rect width="60" height="61.5826" fill="white"/>
</clipPath>
</defs>
</svg>
