<svg width="55" height="59" viewBox="0 0 55 59" fill="none" xmlns="http://www.w3.org/2000/svg">
<g clip-path="url(#clip0)">
<path d="M40.9693 50.8422C41.0704 50.7476 41.1509 50.6333 41.206 50.5062C41.2611 50.3792 41.2895 50.2422 41.2895 50.1038C41.2895 49.9653 41.2611 49.8284 41.206 49.7013C41.1509 49.5743 41.0704 49.46 40.9693 49.3653C40.755 49.1698 40.4754 49.0615 40.1853 49.0615C39.8952 49.0615 39.6156 49.1698 39.4013 49.3653L34.1917 54.4738V35.4054C34.1925 35.2627 34.1632 35.1214 34.1055 34.9908C34.0479 34.8602 33.9632 34.7433 33.8572 34.6477C33.7511 34.5522 33.626 34.4801 33.4902 34.4364C33.3543 34.3926 33.2107 34.3781 33.0688 34.3938C32.3202 34.3938 31.9358 34.758 31.9358 35.4762V54.6256L26.5845 49.3653C26.4821 49.2589 26.3597 49.1738 26.2243 49.1148C26.0889 49.0557 25.9432 49.024 25.7955 49.0214C25.6493 49.0242 25.5052 49.0561 25.3715 49.1151C25.2378 49.1742 25.1171 49.2592 25.0166 49.3653C24.9155 49.46 24.8349 49.5743 24.7798 49.7013C24.7248 49.8284 24.6963 49.9653 24.6963 50.1038C24.6963 50.2422 24.7248 50.3792 24.7798 50.5062C24.8349 50.6333 24.9155 50.7476 25.0166 50.8422L32.1988 57.9234C32.294 58.0387 32.4151 58.13 32.5522 58.1897C32.6893 58.2495 32.8386 58.2761 32.9879 58.2673C33.1329 58.2745 33.2778 58.2503 33.4127 58.1965C33.5515 58.1265 33.678 58.0342 33.787 57.9234L40.9693 50.8422Z" fill="#DDE0E4"/>
<path fill-rule="evenodd" clip-rule="evenodd" d="M53.1791 28.031C53.1791 28.031 47.3827 17.1261 40.1904 22.6999C40.1904 22.6999 33.696 2.04332 17.6825 17.8241C17.6825 17.8241 14.4353 11.3297 2.83244 16.6608L7.0103 12.2603L12.139 10.6317L16.7721 10.8644L20.4846 4.60263L27.9097 1.56787H33.2509L39.3204 4.34974L43.2656 8.76026L45.2888 16.1853L48.7686 16.418L52.4811 19.2201L53.8771 24.5511L53.1791 28.031Z" fill="url(#paint0_linear)"/>
<path d="M35.4056 42.3754C35.5066 42.2807 35.5872 42.1664 35.6423 42.0394C35.6974 41.9123 35.7258 41.7754 35.7258 41.6369C35.7258 41.4985 35.6974 41.3615 35.6423 41.2345C35.5872 41.1074 35.5066 40.9931 35.4056 40.8984C35.1896 40.7023 34.9083 40.5936 34.6165 40.5936C34.3247 40.5936 34.0434 40.7023 33.8275 40.8984L28.6279 45.9564V26.979C28.6279 26.2608 28.2435 25.8966 27.4949 25.8966C27.3469 25.8798 27.1969 25.8959 27.0558 25.9437C26.9147 25.9916 26.7859 26.07 26.6786 26.1734C26.5714 26.2768 26.4883 26.4027 26.4353 26.5419C26.3823 26.6812 26.3607 26.8304 26.3721 26.979V46.1486L21.0208 40.8984C20.9204 40.7893 20.7984 40.7022 20.6626 40.6426C20.5267 40.583 20.3801 40.5523 20.2317 40.5523C20.0834 40.5523 19.9367 40.583 19.8009 40.6426C19.6651 40.7022 19.5431 40.7893 19.4427 40.8984C19.3416 40.9931 19.2611 41.1074 19.206 41.2345C19.1509 41.3615 19.1225 41.4985 19.1225 41.6369C19.1225 41.7754 19.1509 41.9123 19.206 42.0394C19.2611 42.1664 19.3416 42.2807 19.4427 42.3754L26.6351 49.4565C26.7298 49.5725 26.8507 49.6642 26.988 49.724C27.1252 49.7838 27.2747 49.81 27.4241 49.8004C27.5692 49.8076 27.7141 49.7834 27.849 49.7296C27.9844 49.6589 28.1074 49.5667 28.2132 49.4565L35.4056 42.3754Z" fill="#3B454F"/>
<path d="M45.8451 14.2734L45.2989 14.1621L45.2483 13.6159C44.8343 9.84556 43.0333 6.36385 40.1953 3.84743C37.3574 1.33102 33.6851 -0.0403463 29.8924 -0.000115862C26.9054 0.0434575 23.9915 0.929639 21.486 2.55641C18.9805 4.18319 16.9854 6.48442 15.7302 9.19521L15.5076 9.67066L14.9917 9.58973C14.3838 9.48175 13.768 9.42423 13.1506 9.41776C9.70477 9.37727 6.38385 10.7067 3.91787 13.1139C1.45188 15.5211 0.0426707 18.809 0 22.2548C0.0171708 23.9636 0.371105 25.6522 1.04155 27.2241C1.712 28.7959 2.6858 30.2202 3.90724 31.4153C5.12867 32.6104 6.57378 33.553 8.15986 34.1891C9.74594 34.8251 11.4419 35.1422 13.1506 35.1222H21.6581C22.4067 35.1222 22.7911 34.758 22.7911 34.0398C22.8043 33.8895 22.7837 33.7381 22.7309 33.5967C22.678 33.4554 22.5942 33.3277 22.4855 33.2229C22.3769 33.1181 22.2462 33.039 22.103 32.9913C21.9599 32.9436 21.8078 32.9286 21.6581 32.9473H13.1506C10.3175 32.9473 7.6004 31.8218 5.59706 29.8185C3.59373 27.8152 2.46827 25.0981 2.46827 22.2649C2.46827 19.4318 3.59373 16.7147 5.59706 14.7114C7.6004 12.708 10.3175 11.5826 13.1506 11.5826H14.4455C14.9361 11.608 15.4219 11.6929 15.892 11.8355C16.0378 11.8716 16.187 11.8919 16.3371 11.8962C16.5797 11.9015 16.8184 11.8353 17.0235 11.7058C17.2286 11.5762 17.391 11.3891 17.4903 11.1678C18.2937 8.51017 19.9448 6.1885 22.1915 4.55735C24.4382 2.92619 27.1571 2.0752 29.9329 2.13433C31.6616 2.1061 33.3786 2.42274 34.9835 3.06575C36.5884 3.70876 38.0491 4.66525 39.2801 5.87929C40.5111 7.09334 41.4877 8.54059 42.153 10.1364C42.8182 11.7323 43.1586 13.4448 43.1543 15.1737C43.1429 15.3223 43.1645 15.4715 43.2175 15.6108C43.2705 15.75 43.3536 15.8759 43.4609 15.9793C43.5682 16.0827 43.697 16.1611 43.8381 16.209C43.9792 16.2568 44.1291 16.2729 44.2772 16.2561C45.3718 16.2561 46.4557 16.4717 47.467 16.8906C48.4783 17.3095 49.3972 17.9235 50.1712 18.6975C50.9453 19.4715 51.5593 20.3904 51.9782 21.4017C52.397 22.413 52.6127 23.4969 52.6127 24.5916C52.6127 25.6862 52.397 26.7701 51.9782 27.7814C51.5593 28.7927 50.9453 29.7116 50.1712 30.4856C49.3972 31.2597 48.4783 31.8737 47.467 32.2926C46.4557 32.7114 45.3718 32.9271 44.2772 32.9271H34.3029C34.0159 32.9271 33.7405 33.0411 33.5376 33.2441C33.3346 33.4471 33.2205 33.7224 33.2205 34.0094C33.2205 34.2965 33.3346 34.5718 33.5376 34.7748C33.7405 34.9778 34.0159 35.0919 34.3029 35.0919H44.2772C46.953 35.1444 49.5474 34.1702 51.5273 32.3694C53.5073 30.5686 54.7224 28.078 54.9231 25.4091C55.1238 22.7403 54.2949 20.0959 52.6066 18.0192C50.9182 15.9426 48.4988 14.5913 45.8451 14.243V14.2734Z" fill="#3B454F"/>
</g>
<defs>
<linearGradient id="paint0_linear" x1="38.41" y1="36.5587" x2="20.0395" y2="4.73414" gradientUnits="userSpaceOnUse">
<stop stop-color="#B2EEFF"/>
<stop offset="0.03" stop-color="#AAEBFE"/>
<stop offset="0.28" stop-color="#6ED5F3"/>
<stop offset="0.52" stop-color="#3FC4EA"/>
<stop offset="0.72" stop-color="#1DB8E4"/>
<stop offset="0.89" stop-color="#08B1E0"/>
<stop offset="1" stop-color="#01AEDF"/>
</linearGradient>
<clipPath id="clip0">
<rect width="55" height="58.2472" fill="white"/>
</clipPath>
</defs>
</svg>
