<svg width="51" height="69" viewBox="0 0 51 69" fill="none" xmlns="http://www.w3.org/2000/svg">
<g clip-path="url(#clip0)">
<path d="M26.5936 41.0713C27.99 40.6093 29.3043 40.1883 30.4543 39.8289C32.1793 39.2847 33.5346 38.72 33.5346 36.8718V6.30467C33.5346 4.89798 32.5079 3.32702 31.0704 3.32702C30.9407 3.31235 30.8098 3.31235 30.6802 3.32702C29.828 3.51184 28.7293 3.78907 27.3226 4.17924L26.8811 4.30245V2.97791C26.8811 1.57123 25.8543 0.000259147 24.4169 0.000259147C24.2872 -0.0144093 24.1563 -0.0144093 24.0267 0.000259146C21.7678 0.534183 18.2254 1.55069 14.4777 2.63908C10.2679 3.85067 5.9554 5.13414 3.00856 5.72967C2.20632 5.87373 1.47498 6.28105 0.930141 6.88726C0.385301 7.49346 0.0580438 8.26396 9.9092e-05 9.07697V39.6236C-0.0184921 40.0098 0.0430151 40.3956 0.180754 40.7569C0.318493 41.1182 0.529485 41.4471 0.800465 41.7229C1.07145 41.9987 1.39655 42.2155 1.75535 42.3595C2.11415 42.5036 2.49887 42.5719 2.88534 42.5602C3.80944 42.4267 4.9389 42.2008 6.22237 41.8825L6.65361 41.7798V42.9503C6.63502 43.3365 6.69653 43.7224 6.83427 44.0837C6.97201 44.445 7.183 44.7738 7.45398 45.0496C7.72496 45.3255 8.05007 45.5422 8.40886 45.6863C8.76766 45.8304 9.15239 45.8987 9.53886 45.8869C12.1443 45.4397 14.717 44.8188 17.2397 44.0284V41.9749C13.9232 42.9401 11.5719 43.5767 9.67234 44.0284C9.50815 44.0628 9.33755 44.0491 9.18094 43.989C9.02434 43.9289 8.88837 43.825 8.78931 43.6896C8.62516 43.4898 8.53455 43.2397 8.53261 42.9811V13.0506C8.4673 12.539 8.59685 12.0216 8.89552 11.6012C9.19419 11.1808 9.64011 10.8881 10.1447 10.7814C13.0607 10.0011 20.4843 7.97831 25.5463 6.6127L30.598 5.24709C30.8704 5.24709 31.1315 5.35527 31.3241 5.54782C31.5166 5.74038 31.6248 6.00155 31.6248 6.27386V36.8513C31.6248 37.149 31.5016 37.6727 30.6597 37.8781C29.4891 38.2169 28.0619 38.6481 26.4807 39.1307V41.0713H26.5936Z" fill="#3B454F"/>
<path d="M30.5363 67.7674C30.7214 67.576 30.8249 67.3201 30.8249 67.0538C30.8249 66.7875 30.7214 66.5317 30.5363 66.3402L28.3596 64.1737H33.1341C35.7475 64.172 38.3157 63.4913 40.5868 62.1983C42.858 60.9053 44.7542 59.0444 46.0897 56.7979C47.4252 54.5514 48.154 51.9965 48.2048 49.3836C48.2556 46.7706 47.6266 44.1893 46.3795 41.8926C46.2477 41.6624 46.0319 41.4921 45.7773 41.4175C45.5228 41.3428 45.2492 41.3696 45.0139 41.4922C44.8959 41.5576 44.7919 41.6455 44.7079 41.7511C44.6239 41.8567 44.5615 41.9777 44.5243 42.1074C44.4871 42.2371 44.4758 42.3729 44.4911 42.5069C44.5064 42.6409 44.548 42.7706 44.6135 42.8886C45.7124 44.8742 46.2732 47.1125 46.2403 49.3817C46.2075 51.6509 45.582 53.872 44.426 55.825C43.2701 57.7779 41.6237 59.3947 39.6502 60.5152C37.6767 61.6356 35.4446 62.2207 33.1752 62.2126H28.2466L30.5774 60.0358C30.7411 59.826 30.824 59.5643 30.8108 59.2985C30.7976 59.0328 30.6892 58.7806 30.5055 58.588C30.3157 58.4119 30.0663 58.3141 29.8073 58.3141C29.5484 58.3141 29.299 58.4119 29.1091 58.588L25.2484 62.5001L25.0636 62.8184V63.4755C25.07 63.506 25.07 63.5374 25.0636 63.5679L25.1766 63.8041L29.0989 67.7674C29.196 67.8638 29.3115 67.9398 29.4384 67.991C29.5654 68.0421 29.7013 68.0673 29.8381 68.0652V68.6607V68.0652C29.9688 68.0665 30.0983 68.0408 30.2185 67.9895C30.3386 67.9383 30.4469 67.8626 30.5363 67.7674Z" fill="#DDE0E4"/>
<path d="M26.2547 12.1982C26.1629 12.1833 26.0692 12.1833 25.9774 12.1982L14.7548 15.4018C14.6212 15.4371 14.4961 15.4991 14.3871 15.584C14.278 15.6689 14.1872 15.7749 14.1201 15.8957C14.053 16.0165 14.0109 16.1496 13.9965 16.287C13.982 16.4245 13.9955 16.5634 14.036 16.6955C14.1213 16.9542 14.3003 17.1715 14.538 17.3045C14.7756 17.4376 15.0544 17.4767 15.3195 17.4142L26.5422 14.3339C26.677 14.315 26.8068 14.2698 26.9242 14.2008C27.0415 14.1317 27.1441 14.0402 27.2261 13.9315C27.3081 13.8228 27.3679 13.6991 27.402 13.5673C27.4362 13.4355 27.4441 13.2982 27.4252 13.1634C27.4063 13.0286 27.3611 12.8988 27.292 12.7814C27.223 12.6641 27.1315 12.5615 27.0228 12.4795C26.9141 12.3975 26.7903 12.3377 26.6585 12.3035C26.5267 12.2694 26.3895 12.2615 26.2547 12.2804V12.1982ZM26.3676 17.979C26.2758 17.9637 26.1822 17.9637 26.0904 17.979L14.7958 20.6281C14.6627 20.6582 14.5369 20.7146 14.4259 20.7939C14.3148 20.8733 14.2207 20.974 14.149 21.0901C14.0748 21.2062 14.0248 21.336 14.0019 21.4719C13.9789 21.6077 13.9836 21.7467 14.0155 21.8807C14.0443 22.0164 14.1004 22.1449 14.1802 22.2584C14.2601 22.3718 14.3621 22.4679 14.4801 22.5409C14.5982 22.6138 14.7298 22.6621 14.867 22.6827C15.0042 22.7034 15.1441 22.696 15.2784 22.6611L26.573 20.0223C26.7087 19.9934 26.8372 19.9374 26.9506 19.8575C27.0641 19.7777 27.1602 19.6756 27.2331 19.5576C27.3061 19.4396 27.3543 19.308 27.375 19.1708C27.3956 19.0336 27.3883 18.8936 27.3533 18.7593C27.2987 18.5384 27.1723 18.3419 26.9939 18.2007C26.8154 18.0594 26.5952 17.9814 26.3676 17.979ZM27.1685 24.4887C27.2375 24.3705 27.2821 24.2396 27.2997 24.1038C27.3173 23.968 27.3076 23.8301 27.2712 23.6981C27.213 23.4722 27.0796 23.2729 26.8929 23.1329C26.7063 22.9929 26.4776 22.9207 26.2444 22.928C26.1526 22.9131 26.059 22.9131 25.9672 22.928L14.7548 26.1008C14.4825 26.1389 14.2364 26.2836 14.0708 26.5032C13.9052 26.7227 13.8336 26.999 13.8717 27.2713C13.9099 27.5436 14.0546 27.7896 14.2741 27.9552C14.4936 28.1208 14.7699 28.1925 15.0423 28.1543C15.1309 28.165 15.2206 28.165 15.3092 28.1543L26.5422 25.0227C26.8133 24.9345 27.0385 24.7425 27.1685 24.4887Z" fill="#3B454F"/>
<path d="M24.9712 4.85649L24.7145 4.93863C23.5645 5.25693 22.3632 5.60604 21.1311 5.96541C16.9418 7.18727 12.6191 8.42967 9.66196 9.06627C8.86057 9.2082 8.12946 9.61352 7.5845 10.218C7.03954 10.8225 6.7119 11.5915 6.6535 12.4033V39.7361L6.39681 39.808C5.0312 40.1776 3.95308 40.4446 3.00845 40.6705H2.82363C2.56395 40.6522 2.32089 40.5361 2.14362 40.3455C1.96634 40.1548 1.86809 39.904 1.86872 39.6437V9.72341C1.80376 9.2104 1.93473 8.69176 2.23547 8.2711C2.53622 7.85044 2.98459 7.55873 3.49103 7.45424C8.08072 6.2221 23.8109 1.93018 23.8109 1.93018H23.9136C24.1859 1.93018 24.4471 2.03835 24.6397 2.23091C24.8322 2.42347 24.9404 2.68463 24.9404 2.95695L24.9712 4.85649Z" fill="url(#paint0_linear)"/>
<path d="M43.6791 29.0885V28.6983C43.6699 28.6647 43.6699 28.6292 43.6791 28.5956L43.5353 28.2978L39.6233 24.2831C39.4318 24.0981 39.176 23.9946 38.9097 23.9946C38.6434 23.9946 38.3875 24.0981 38.1961 24.2831C38.011 24.4746 37.9076 24.7305 37.9076 24.9968C37.9076 25.263 38.011 25.5189 38.1961 25.7104L40.3729 27.8871H35.547C32.9398 27.8786 30.3749 28.5465 28.1029 29.8256C25.831 31.1047 23.9297 32.9513 22.5848 35.1849C21.2398 37.4185 20.4973 39.9628 20.4297 42.5691C20.362 45.1755 20.9716 47.7549 22.1989 50.0552C22.2654 50.1842 22.3602 50.2965 22.4761 50.3838V50.3119H23.7185C23.8898 50.1988 24.0195 50.033 24.0882 49.8396C24.1362 49.7259 24.1609 49.6037 24.1609 49.4802C24.1609 49.3568 24.1362 49.2346 24.0882 49.1209C23.0878 47.2198 22.5529 45.1083 22.5275 42.9602C22.5301 39.5006 23.9022 36.1827 26.3437 33.7315C28.7852 31.2804 32.0977 29.8954 35.5573 29.8791H40.4139L38.0831 32.0558C37.9194 32.2656 37.8366 32.5273 37.8498 32.7931C37.863 33.0589 37.9713 33.3111 38.155 33.5036C38.2447 33.5907 38.3508 33.6592 38.4671 33.705C38.5834 33.7508 38.7077 33.7731 38.8327 33.7706C38.9703 33.7714 39.1066 33.7445 39.2336 33.6916C39.3606 33.6387 39.4757 33.5608 39.572 33.4625L43.4326 29.5608L43.6791 29.0885ZM33.36 60.2717C33.545 60.0802 33.6485 59.8243 33.6485 59.5581C33.6485 59.2918 33.545 59.0359 33.36 58.8445L31.1524 56.678H35.9372C38.5506 56.6763 41.1188 55.9955 43.3899 54.7025C45.6611 53.4095 47.5573 51.5486 48.8928 49.3021C50.2282 47.0557 50.9571 44.5008 51.0079 41.8878C51.0587 39.2749 50.4297 36.6936 49.1826 34.3969C49.0508 34.1667 48.835 33.9964 48.5804 33.9217C48.3258 33.8471 48.0523 33.8738 47.817 33.9965C47.699 34.0618 47.595 34.1498 47.511 34.2553C47.427 34.3609 47.3646 34.482 47.3274 34.6117C47.2902 34.7414 47.2789 34.8771 47.2942 35.0111C47.3095 35.1452 47.3511 35.2749 47.4165 35.3929C48.511 37.3748 49.0689 39.6083 49.0349 41.8721C49.0009 44.1359 48.3761 46.3516 47.2226 48.2998C46.069 50.248 44.4267 51.8611 42.458 52.9794C40.4894 54.0977 38.2629 54.6825 35.9988 54.6757H31.0703L33.401 52.499C33.5648 52.2892 33.6476 52.0275 33.6344 51.7617C33.6212 51.4959 33.5129 51.2438 33.3292 51.0512C33.1399 50.878 32.8926 50.782 32.6361 50.782C32.3795 50.782 32.1323 50.878 31.943 51.0512L28.0721 54.9632L27.8872 55.2815V55.9387C27.8936 55.9691 27.8936 56.0006 27.8872 56.0311L28.0002 56.2672L31.9327 60.2614C32.0299 60.3578 32.1454 60.4338 32.2723 60.4849C32.3993 60.5361 32.5352 60.5613 32.672 60.5592V61.1547V60.5797C32.8017 60.5783 32.9297 60.5503 33.0481 60.4973C33.1664 60.4443 33.2726 60.3675 33.36 60.2717Z" fill="#3B454F"/>
</g>
<defs>
<linearGradient id="paint0_linear" x1="19.7141" y1="32.1996" x2="4.88745" y2="6.5404" gradientUnits="userSpaceOnUse">
<stop stop-color="#B2EEFF"/>
<stop offset="0.03" stop-color="#AAEBFE"/>
<stop offset="0.28" stop-color="#6ED5F3"/>
<stop offset="0.52" stop-color="#3FC4EA"/>
<stop offset="0.72" stop-color="#1DB8E4"/>
<stop offset="0.89" stop-color="#08B1E0"/>
<stop offset="1" stop-color="#01AEDF"/>
</linearGradient>
<clipPath id="clip0">
<rect width="51" height="68.7016" fill="white"/>
</clipPath>
</defs>
</svg>
