<svg width="70" height="50" viewBox="0 0 70 50" fill="none" xmlns="http://www.w3.org/2000/svg">
<g clip-path="url(#clip0)">
<path d="M53.3372 49.4421C54.3848 49.0392 55.3996 48.5555 56.3723 47.9954C59.4132 46.4936 62.0682 44.3129 64.1321 41.6216C65.6341 39.6844 66.5189 37.3403 66.6715 34.8938C66.6677 34.3559 66.7015 33.8184 66.7726 33.2852V22.0856C66.7924 21.8827 66.7695 21.6779 66.7052 21.4845C66.6409 21.291 66.5367 21.1132 66.3994 20.9626C66.2621 20.8119 66.0947 20.6917 65.9081 20.6098C65.7214 20.5279 65.5196 20.4861 65.3158 20.4871H64.8605C64.746 20.4773 64.631 20.4773 64.5165 20.4871C63.6845 20.4237 62.8569 20.3122 62.0378 20.1532C58.7613 19.3589 55.6806 17.9063 52.9831 15.8838C52.8387 15.7151 52.6595 15.5796 52.4578 15.4867C52.2561 15.3938 52.0366 15.3457 51.8145 15.3457C51.5925 15.3457 51.373 15.3938 51.1713 15.4867C50.9696 15.5796 50.7904 15.7151 50.646 15.8838C46.326 18.7469 42.4917 20.2342 38.4448 20.4871C37.3117 20.5579 36.8261 21.084 36.8261 22.2474V33.7607C36.8535 35.5918 37.2503 37.3985 37.9926 39.0726C38.7349 40.7467 39.8075 42.2537 41.1461 43.5034C44.014 46.3251 47.4682 48.4805 51.2632 49.8165C51.6941 49.955 52.1576 49.955 52.5885 49.8165C52.6974 49.7797 52.8025 49.7322 52.9021 49.6748C53.0422 49.5883 53.1875 49.5106 53.3372 49.4421Z" fill="#DDE0E4"/>
<path d="M56.5848 47.5503C57.6321 47.1508 58.6469 46.6704 59.6199 46.1137C62.6583 44.608 65.3124 42.4279 67.3797 39.74C68.8801 37.8018 69.7646 35.4582 69.9191 33.0121C69.9086 32.4747 69.9356 31.9372 70 31.4035V20.2342C70.0199 20.0318 69.997 19.8275 69.9326 19.6346C69.8682 19.4417 69.7639 19.2645 69.6264 19.1146C69.4889 18.9647 69.3214 18.8455 69.1348 18.7647C68.9481 18.684 68.7465 18.6435 68.5431 18.6459C68.4521 18.6459 68.2599 18.6459 68.0879 18.5953H67.7439C66.9109 18.5154 66.0833 18.387 65.2652 18.2108C61.9679 17.4317 58.8676 15.978 56.1599 13.9414C56.0155 13.7727 55.8363 13.6372 55.6346 13.5443C55.4329 13.4514 55.2134 13.4033 54.9913 13.4033C54.7693 13.4033 54.5498 13.4514 54.3481 13.5443C54.1464 13.6372 53.9672 13.7727 53.8228 13.9414C49.5231 16.8956 45.6583 18.3828 41.6823 18.6358C40.5492 18.6965 40.0636 19.2225 40.0636 20.3961V31.9093C40.0816 32.9332 40.2174 33.9516 40.4683 34.9445C41.1103 37.4985 42.4646 39.8176 44.3735 41.6318C47.2422 44.4501 50.6963 46.6021 54.4905 47.9348C54.9216 48.0726 55.3849 48.0726 55.8159 47.9348L56.1295 47.7931C56.2759 47.7026 56.428 47.6215 56.5848 47.5503Z" fill="#3B454F"/>
<path d="M7.42591 33.7811H41.4091C41.5215 33.7839 41.6333 33.7638 41.7376 33.7221C41.842 33.6804 41.9368 33.6179 42.0162 33.5384C42.0957 33.4589 42.1582 33.3641 42.1999 33.2598C42.2417 33.1554 42.2617 33.0437 42.259 32.9313C42.2617 32.8185 42.2417 32.7063 42.2 32.6014C42.1584 32.4965 42.0961 32.401 42.0168 32.3208C41.9375 32.2405 41.8428 32.177 41.7384 32.1342C41.634 32.0913 41.522 32.07 41.4091 32.0714H7.73954V1.72015H54.1465V10.6738C54.1438 10.7861 54.1638 10.8979 54.2056 11.0022C54.2473 11.1066 54.3098 11.2014 54.3893 11.2809C54.4687 11.3603 54.5635 11.4228 54.6679 11.4646C54.7723 11.5063 54.884 11.5264 54.9964 11.5236C55.1092 11.5263 55.2214 11.5063 55.3263 11.4647C55.4312 11.423 55.5266 11.3607 55.6069 11.2814C55.6872 11.2021 55.7506 11.1074 55.7935 11.003C55.8363 10.8986 55.8577 10.7866 55.8563 10.6738V0.850079C55.8577 0.737234 55.8363 0.625266 55.7935 0.520864C55.7506 0.416463 55.6872 0.32177 55.6069 0.242444C55.5266 0.163118 55.4312 0.100786 55.3263 0.0591727C55.2214 0.017559 55.1092 -0.00248258 54.9964 0.000245381H6.8897C6.77989 0.00155181 6.67143 0.0246488 6.57061 0.0681968C6.46979 0.111745 6.37862 0.174877 6.30239 0.253932C6.22616 0.332986 6.16638 0.42639 6.12653 0.528725C6.08667 0.63106 6.06753 0.74029 6.07022 0.850079V32.7897L0.0707978 44.7278C0.0153821 44.8682 -0.00792789 45.0192 0.00257548 45.1697C0.0130789 45.3203 0.0571295 45.4666 0.1315 45.5979C0.206666 45.7324 0.316975 45.8439 0.450628 45.9205C0.584281 45.9971 0.73625 46.036 0.89028 46.0329H55.1178C55.6034 46.0329 55.0368 45.6687 55.0368 45.1831C55.0201 44.9417 54.9251 44.7123 54.7662 44.5298C54.6074 44.3472 54.3934 44.2214 54.1566 44.1714H17.0169L2.37749 44.0398" fill="#3B454F"/>
<path d="M55.826 45.9112L55.5427 46.0326L55.2898 46.1338L55.1077 46.2248L54.9155 46.154C51.4457 44.9073 48.2802 42.9383 45.628 40.3772C43.9597 38.7974 42.7739 36.7767 42.2084 34.5497V34.317C42.0385 33.5249 41.9403 32.719 41.915 31.9092V20.3757H42.34C46.3868 20.0621 50.4336 18.4939 54.8649 15.4386L55.1178 15.2666L55.3809 15.4386C58.2815 17.5194 61.5494 19.0332 65.0123 19.9002L65.3462 19.9609C66.1049 20.0924 66.8233 20.224 67.582 20.2948H68.3307V24.7868L68.2498 32.8804C68.0906 35.0056 67.3212 37.0396 66.0341 38.7382C64.1131 41.2069 61.6707 43.2209 58.8814 44.6364C57.8895 45.1224 56.8692 45.5481 55.826 45.9112Z" fill="url(#paint0_linear)"/>
<path d="M52.7807 33.2951L49.6546 30.1791L48.4203 31.4133L52.7807 35.7738L61.6635 26.891L60.4292 25.6567L52.7807 33.2951Z" fill="#3B454F"/>
</g>
<defs>
<linearGradient id="paint0_linear" x1="63.3936" y1="41.9554" x2="48.6631" y2="16.4503" gradientUnits="userSpaceOnUse">
<stop stop-color="#B2EEFF"/>
<stop offset="0.03" stop-color="#AAEBFE"/>
<stop offset="0.28" stop-color="#6ED5F3"/>
<stop offset="0.52" stop-color="#3FC4EA"/>
<stop offset="0.72" stop-color="#1DB8E4"/>
<stop offset="0.89" stop-color="#08B1E0"/>
<stop offset="1" stop-color="#01AEDF"/>
</linearGradient>
<clipPath id="clip0">
<rect width="70" height="49.8771" fill="white"/>
</clipPath>
</defs>
</svg>
