<svg width="16" height="16" viewBox="0 0 16 16" fill="none" xmlns="http://www.w3.org/2000/svg">
<path d="M11.9375 15.3125C12.0867 15.3125 12.2298 15.2532 12.3352 15.1477C12.4407 15.0423 12.5 14.8992 12.5 14.75V12.5H13.3438C14.0149 12.4993 14.6583 12.2323 15.1328 11.7578C15.6073 11.2833 15.8743 10.6399 15.875 9.96875V3.21875C15.8743 2.54765 15.6073 1.90425 15.1328 1.42971C14.6583 0.955168 14.0149 0.688244 13.3438 0.6875H2.65625C1.98515 0.688244 1.34175 0.955168 0.867208 1.42971C0.392668 1.90425 0.125745 2.54765 0.125 3.21875V9.96875C0.125745 10.6399 0.392668 11.2833 0.867208 11.7578C1.34175 12.2323 1.98515 12.4993 2.65625 12.5H8.3607L11.5771 15.1821C11.6784 15.2663 11.8058 15.3124 11.9375 15.3125Z" fill="#FBFBFC"/>
</svg>
