<svg width="15" height="13" viewBox="0 0 15 13" fill="none" xmlns="http://www.w3.org/2000/svg">
<path d="M7.42969 10.6289C7.95312 10.6289 8.39062 10.4531 8.74219 10.1016C9.10156 9.74219 9.28125 9.29688 9.28125 8.76562C9.28125 8.24219 9.10156 7.80469 8.74219 7.45312C8.39062 7.09375 7.95312 6.91406 7.42969 6.91406C6.89844 6.91406 6.45312 7.09375 6.09375 7.45312C5.74219 7.80469 5.56641 8.24219 5.56641 8.76562C5.56641 9.30469 5.74219 9.75 6.09375 10.1016C6.45312 10.4531 6.89844 10.6289 7.42969 10.6289ZM1.05469 12.4805C0.921875 9.95703 1.53516 8.06641 2.89453 6.80859C4.25391 5.55078 5.76172 4.92188 7.41797 4.92188C9.07422 4.92188 10.582 5.55078 11.9414 6.80859C13.3008 8.06641 13.9141 9.95703 13.7812 12.4805C13.7812 12.6133 13.7695 12.6914 13.7461 12.7148C13.7227 12.7383 13.6445 12.75 13.5117 12.75H1.32422C1.19141 12.75 1.11328 12.7383 1.08984 12.7148C1.06641 12.6914 1.05469 12.6133 1.05469 12.4805ZM14.8477 3.73828C13.9883 2.73828 12.8945 1.99219 11.5664 1.5C10.2305 1 8.84766 0.75 7.41797 0.75C5.99609 0.75 4.62109 1 3.29297 1.5C1.95703 1.99219 0.859375 2.73828 0 3.73828L1.32422 5.58984L3.71484 4.26562C3.98047 4.13281 4.13281 3.88281 4.17188 3.51562C4.21875 3.14062 4.24219 2.95312 4.24219 2.95312C4.57812 2.75 5.03516 2.59766 5.61328 2.49609C6.19141 2.39453 6.79297 2.34375 7.41797 2.34375C8.05078 2.34375 8.66016 2.39453 9.24609 2.49609C9.82422 2.59766 10.2812 2.75 10.6172 2.95312C10.6172 2.95312 10.6406 3.14062 10.6875 3.51562C10.7344 3.88281 10.8906 4.13281 11.1562 4.26562L13.5469 5.58984L14.8477 3.73828Z" fill="#00B3E6"/>
</svg>
