<svg width="28" height="17" viewBox="0 0 28 17" fill="none" xmlns="http://www.w3.org/2000/svg">
<path d="M9.14285 0.000231064C6.88851 0.000231098 4.7265 0.895764 3.13245 2.48982C1.53839 4.08388 0.642853 6.24589 0.642853 8.50023C0.642853 10.7546 1.53839 12.9166 3.13245 14.5106C4.7265 16.1047 6.88851 17.0002 9.14285 17.0002C14.0498 17.0002 17.3044 13.5515 17.3044 8.69432C17.3008 8.22184 17.2558 7.75059 17.1701 7.28595H9.14285V10.2022H13.9652C13.7711 11.4513 12.507 13.865 9.14285 13.865C7.72003 13.865 6.35549 13.2998 5.3494 12.2937C4.34331 11.2876 3.7781 9.92305 3.7781 8.50023C3.7781 7.07741 4.34331 5.71286 5.3494 4.70678C6.35549 3.70069 7.72003 3.13548 9.14285 3.13548C10.4006 3.10953 11.6181 3.5797 12.5319 4.44432L14.8361 2.22476C13.3004 0.770188 11.2579 -0.0279031 9.14285 0.000231064ZM24.9286 4.85737H22.5V7.28595H20.0714V9.71452H22.5V12.1431H24.9286V9.71452H27.3571V7.28595H24.9286V4.85737Z" fill="#C1D7E4"/>
</svg>
