<svg width="14" height="13" viewBox="0 0 14 13" fill="none" xmlns="http://www.w3.org/2000/svg">
<path d="M2.75391 12.6562C2.64453 12.75 2.52734 12.7734 2.40234 12.7266C2.27734 12.6797 2.21484 12.5859 2.21484 12.4453L3.14062 9.71484C2.55469 9.53516 2.05859 9.30469 1.65234 9.02344C1.25391 8.74219 0.929688 8.42188 0.679688 8.0625C0.4375 7.70312 0.265625 7.30469 0.164062 6.86719C0.0546875 6.42969 0 5.96484 0 5.47266C0 4.76172 0.109375 4.11719 0.328125 3.53906C0.546875 2.96094 0.921875 2.46484 1.45312 2.05078C1.98438 1.63672 2.69531 1.31641 3.58594 1.08984C4.46875 0.863281 5.58203 0.75 6.92578 0.75C8.26172 0.75 9.37109 0.863281 10.2539 1.08984C11.1445 1.31641 11.8555 1.63672 12.3867 2.05078C12.918 2.46484 13.293 2.96094 13.5117 3.53906C13.7305 4.11719 13.8398 4.76172 13.8398 5.47266C13.8398 6.17578 13.7305 6.82031 13.5117 7.40625C13.293 7.98438 12.918 8.48047 12.3867 8.89453C11.8555 9.30078 11.1445 9.61719 10.2539 9.84375C9.37109 10.0703 8.26172 10.1836 6.92578 10.1836L2.75391 12.6562Z" fill="white"/>
</svg>
