<svg width="17" height="17" viewBox="0 0 17 17" fill="none" xmlns="http://www.w3.org/2000/svg">
<path d="M10.1875 0.875C6.91561 0.875 4.24999 3.54062 4.24999 6.8125C4.24999 8.21875 4.75624 9.50437 5.57811 10.5238L0.0499878 16.05L0.949988 16.95L6.47686 11.4219C7.49499 12.2437 8.78124 12.75 10.1875 12.75C13.4594 12.75 16.125 10.0844 16.125 6.8125C16.125 3.54062 13.4594 0.875 10.1875 0.875ZM10.1875 2.125C12.7837 2.125 14.875 4.21625 14.875 6.8125C14.875 9.40875 12.7837 11.5 10.1875 11.5C7.59124 11.5 5.49999 9.40875 5.49999 6.8125C5.49999 4.21625 7.59124 2.125 10.1875 2.125Z" fill="#FBFBFC"/>
</svg>
