<svg width="18" height="15" viewBox="0 0 18 15" fill="none" xmlns="http://www.w3.org/2000/svg">
<path d="M16.6203 6.43153C17.7999 6.33388 18.6001 5.79682 18.9077 5.07082C18.4825 5.33202 17.1618 5.61715 16.4324 5.34569C16.3967 5.17432 16.3567 5.01125 16.3176 4.86429C15.7615 2.82396 13.8589 1.17958 11.8649 1.37829C12.0265 1.31335 12.1901 1.25232 12.3532 1.19813C12.5724 1.11952 13.8603 0.910072 13.6572 0.455524C13.4864 0.0556589 11.9133 0.757742 11.6174 0.84953C12.008 0.70306 12.6549 0.449177 12.7242 0C12.1128 0.0908876 11.5421 0.361429 11.0847 0.777271C11.2488 0.60053 11.3733 0.386683 11.3996 0.153794C9.80164 1.1747 8.86813 3.23261 8.11283 5.22852C7.51962 4.65386 6.99428 4.20322 6.52264 3.94983C5.19757 3.24042 3.61471 2.50026 1.13252 1.57847C1.05636 2.40017 1.53922 3.49235 2.93118 4.21885C2.62994 4.17832 2.07921 4.26767 1.63882 4.3741C1.818 5.31542 2.40389 6.09074 3.99065 6.46571C3.26562 6.51453 2.89066 6.67858 2.55133 7.03401C2.88138 7.68874 3.68697 8.45869 5.13654 8.30343C3.52536 8.9977 4.47938 10.2842 5.79078 10.0923C3.55173 12.4012 0.0252023 12.2303 -2 10.2979C3.28759 17.5028 14.7816 14.5592 16.4944 7.61941C17.7775 7.63015 18.5323 7.17463 19 6.67272C18.2618 6.7982 17.1877 6.66832 16.6203 6.43153Z" fill="#C1D7E4"/>
</svg>
