<svg width="23" height="16" viewBox="0 0 23 16" fill="none" xmlns="http://www.w3.org/2000/svg">
<path d="M22.9286 3.41841C22.9289 2.96962 22.8408 2.52516 22.6693 2.11044C22.4978 1.69571 22.2462 1.31885 21.929 1.00138C21.6118 0.683922 21.2351 0.432083 20.8205 0.260261C20.4059 0.0884381 19.9615 -1.24043e-07 19.5127 0L3.4873 0C3.03851 -1.24043e-07 2.59411 0.0884381 2.17952 0.260261C1.76492 0.432083 1.38824 0.683922 1.07102 1.00138C0.753789 1.31885 0.50223 1.69571 0.330716 2.11044C0.159202 2.52516 0.0710937 2.96962 0.0714273 3.41841V12.5816C0.0714271 13.4878 0.431232 14.3569 1.07176 14.9979C1.71229 15.6389 2.58112 15.9993 3.4873 16H19.5127C20.4189 15.9993 21.2877 15.6389 21.9282 14.9979C22.5688 14.3569 22.9286 13.4878 22.9286 12.5816V3.41841ZM9.21428 11.8654V3.25841L15.7413 7.57587L9.21428 11.8654Z" fill="#C1D7E4"/>
</svg>
