<svg width="153" height="43" fill="none" xmlns="http://www.w3.org/2000/svg"><path d="M68.5 5.8V24h-3.562V12.196l-5.122 8.45H59.4l-5.122-8.424V24H50.69V5.8h3.692l5.226 8.606 5.2-8.606H68.5zM80.341 11h2.496v13h-3.276v-7.384L73.451 24h-2.496V11h3.276v7.384L80.341 11zm12.355-.364c1.75 0 3.242.667 4.472 2.002 1.248 1.317 1.872 2.938 1.872 4.862s-.624 3.553-1.872 4.888c-1.23 1.317-2.721 1.976-4.472 1.976-1.82 0-3.224-.633-4.212-1.898V29.2H85.13V11h3.354v1.534c.988-1.265 2.392-1.898 4.212-1.898zm-3.198 9.516c.676.676 1.534 1.014 2.574 1.014 1.04 0 1.898-.338 2.574-1.014.694-.693 1.04-1.577 1.04-2.652 0-1.075-.346-1.95-1.04-2.626-.676-.693-1.534-1.04-2.574-1.04-1.04 0-1.898.347-2.574 1.04-.676.676-1.014 1.551-1.014 2.626s.338 1.959 1.014 2.652zM110.012 11h2.496v13h-3.276v-7.384L103.122 24h-2.496V11h3.276v7.384l6.11-7.384zm9.471-.364c1.976 0 3.597.641 4.862 1.924 1.283 1.265 1.924 2.912 1.924 4.94 0 2.028-.641 3.683-1.924 4.966-1.265 1.265-2.895 1.898-4.888 1.898-1.335 0-2.531-.303-3.588-.91-1.057-.624-1.846-1.447-2.366-2.47l2.834-1.638c.225.537.615.97 1.17 1.3.555.33 1.222.494 2.002.494.728 0 1.369-.19 1.924-.572a3.44 3.44 0 001.248-1.56h-4.42v-3.016h4.42a3.286 3.286 0 00-1.248-1.534c-.555-.399-1.196-.598-1.924-.598-1.525 0-2.574.59-3.146 1.768l-2.834-1.638a6.233 6.233 0 012.392-2.444c1.057-.607 2.245-.91 3.562-.91zm19.225.364v13h-3.354v-9.776h-3.588v4.342c0 4.021-1.829 5.833-5.486 5.434v-3.146c.693.173 1.222.06 1.586-.338.364-.416.546-1.127.546-2.132V11h10.296zm8.135 4.16c1.474 0 2.661.407 3.562 1.222.902.797 1.352 1.863 1.352 3.198s-.45 2.41-1.352 3.224c-.901.797-2.088 1.196-3.562 1.196h-5.876V11h3.354v4.16h2.522zm.026 5.876c.468 0 .85-.13 1.144-.39.312-.277.468-.633.468-1.066 0-.433-.156-.789-.468-1.066-.294-.277-.676-.416-1.144-.416h-2.548v2.938h2.548z" fill="#E20145"/><path d="M57.71 40h-1.29l-2.41-3.28V40h-1.15v-3.28L50.45 40h-1.3l2.62-3.58L49.25 33h1.3l2.31 3.18V33h1.15v3.18L56.32 33h1.29l-2.51 3.42L57.71 40zm2.947-1.1h3.1V40h-4.25v-7h4.2v1.1h-3.05v1.82h2.8v1.09h-2.8v1.89zM69.91 33h1.15v7h-1.15v-3.03h-3V40h-1.15v-7h1.15v2.87h3V33zm6.81 7.13c-1.054 0-1.927-.347-2.62-1.04-.694-.7-1.04-1.563-1.04-2.59s.346-1.887 1.04-2.58c.693-.7 1.566-1.05 2.62-1.05.633 0 1.216.15 1.75.45.54.3.96.707 1.26 1.22l-1 .58a2.023 2.023 0 00-.82-.82 2.313 2.313 0 00-1.19-.31c-.747 0-1.354.237-1.82.71-.46.473-.69 1.073-.69 1.8 0 .727.23 1.327.69 1.8.466.473 1.073.71 1.82.71.44 0 .84-.1 1.2-.3.36-.207.63-.483.81-.83l1 .57a3.26 3.26 0 01-1.25 1.23c-.534.3-1.12.45-1.76.45zM86.914 40h-1.37l-2.76-3.33V40h-1.15v-7h1.15v3.14l2.66-3.14h1.37l-2.83 3.41 2.93 3.59zm5.895 0v-4.75L89.51 40h-.9v-7h1.15v4.75l3.3-4.75h.9v7h-1.15zm4.778-7.7v-.94h2.8v.94h-2.8zm2.92 7.7v-4.75l-3.3 4.75h-.9v-7h1.15v4.75l3.3-4.75h.9v7h-1.15zm14.958 0h-1.29l-2.41-3.28V40h-1.15v-3.28l-2.41 3.28h-1.3l2.62-3.58-2.52-3.42h1.3l2.31 3.18V33h1.15v3.18l2.31-3.18h1.29l-2.51 3.42 2.61 3.58zm5.542-7h1.16l-2.17 5.2c-.533 1.273-1.396 1.873-2.59 1.8v-1.07c.394.04.71-.02.95-.18.247-.16.444-.427.59-.8l-2.33-4.95h1.16l1.7 3.69 1.53-3.69zm5.489 0c.66 0 1.21.22 1.65.66.446.44.67.987.67 1.64 0 .647-.224 1.193-.67 1.64-.44.44-.99.66-1.65.66h-1.43V40h-1.15v-7h2.58zm0 3.52c.34 0 .62-.113.84-.34.22-.233.33-.527.33-.88s-.11-.643-.33-.87c-.22-.233-.5-.35-.84-.35h-1.43v2.44h1.43zm8.418-3.52h1.15v7h-1.15v-3.03h-3V40h-1.15v-7h1.15v2.87h3V33zm8.059 7l-.49-1.41h-2.98l-.49 1.41h-1.25l2.54-7h1.38l2.53 7h-1.24zm-3.09-2.49h2.22l-1.11-3.16-1.11 3.16zm5.512 2.49v-1.06c.44.06.767-.047.98-.32.22-.273.33-.797.33-1.57V33h4.69v7h-1.15v-5.9h-2.39v2.93c0 .613-.067 1.13-.2 1.55-.127.42-.31.737-.55.95-.24.207-.5.347-.78.42a2.796 2.796 0 01-.93.05z" fill="#CACACA"/><g clip-path="url(#clip0)"><path d="M33.633 30.716s1.572-.437 1.467-1.148c-.688.42-2.297-.952-2.297-.952s.792-1.374.739-3.064c-.054-1.69-.224-3.315-.224-3.315s.965 1.122 2.189.033c-2.413-1.182-2.269-2.782-2.003-3.814.264-1.03 1.31-5.79-2.682-9.453-2.624-2.28-4.082-.239-4.082-.239s-.385-.664-.87-.635c-.486.03-.832.556-.832.556s-.277-.843-.714-.723c-.435.119-.554.524-.554.524s-.476-2.536-5.785-4.766C12.674 1.49 5.7 5.04 4.235 6.306 2.768 7.575 2.213 7.972 2.688 9.478c.168.527.441.72.734.753-1.102 2.449-.516 5.452-.088 6.55.021.084.033.174.052.264-.313.047-.76.009-1.12-.502-.157.755.662.896 1.176.916.04.509-.027 1.052-.371 1.569-.756 1.134-1.602 1.654-1.874 2.415C.81 22.505 2.85 22.69 2.85 22.69l.005.404s-.653.633-.515 1.129c.186.66 1.5.425 1.5.425s-1.262.465-1.204 1.08c.06.615.587.882.587.882s-1.22 2.4.576 2.93c1.797.527 5.442-1.666 5.917.897.459 1.767 2.505 6.107 1.796 6.922-.71.812-1.796 2.059-1.796 2.059L28.364 40s-5.76-7.45-6.34-8.294c-.31-.45.371-.826 1.393-1.429.36 1.826 1.398 5.688 3.916 7.294 3.355 2.14 5.098.237 4.993-.514-1.797 1.122-2.18-1.032-2.18-1.032s2.998.939 3.091-.91c-2.443.792-3.011-3.765-3.011-3.765s4.74 4.927 5.626-.237c-1.545 1.73-2.219-.397-2.219-.397z" fill="#171717"/></g><defs><clipPath id="clip0"><path fill="#fff" transform="translate(0 3)" d="M0 0h37v37H0z"/></clipPath></defs></svg>