<svg width="44" height="44" fill="none" xmlns="http://www.w3.org/2000/svg"><rect width="44" height="44" rx="6" fill="#D3CBFF"/><rect x="13.75" y="11.75" width="16.5" height="20.5" rx="1.25" fill="#fff" stroke="#856EFF" stroke-width="1.5"/><path d="M17 28.5v-1.7a.1.1 0 01.18-.06l1.206 1.607a.1.1 0 00.174-.028l.854-2.56a.1.1 0 01.187-.006l.816 2.04a.1.1 0 00.183.008L22 25" stroke="#856EFF" stroke-linecap="round" stroke-linejoin="round"/><path fill="#856FFF" d="M17 15h4v1h-4zm0 2h7v1h-7zm0 2h9v1h-9zm0 2h6v1h-6z"/><path d="M26.224 28.553L26 28.44l-.224.112-1.276.638V25.5h3v3.691l-1.276-.638z" fill="#fff" stroke="#856EFF"/><circle cx="26" cy="25" r="2" fill="#856EFF"/></svg>