<svg width="44" height="44" fill="none" xmlns="http://www.w3.org/2000/svg"><rect width="44" height="44" rx="6" fill="#C0FAEB"/><path d="M12.75 26v-8.625h14.5V26c0 .69-.56 1.25-1.25 1.25H14c-.69 0-1.25-.56-1.25-1.25zm14.494-10.125H12.756A1.25 1.25 0 0114 14.75h12a1.25 1.25 0 011.244 1.125z" fill="#fff" stroke="#34B494" stroke-width="1.5" stroke-linecap="round"/><path d="M16 14.5v-2m8 1.5v-1.5" stroke="#34B494" stroke-width="1.5" stroke-linecap="round" stroke-linejoin="round"/><path d="M16.429 25H15m1.429-2.5H15m1.429-2.5H15m5.714 5h-1.428m1.428-2.5h-1.428m1.428-2.5h-1.428M25 25h-1.429M25 22.5h-1.429M25 20h-1.429" stroke="#34B494" stroke-width="1.5" stroke-linecap="round"/><circle cx="24" cy="24" r="7.25" fill="#fff" stroke="#34B494" stroke-width="1.5"/><path d="M24 20v3.882L26 26" stroke="#34B494" stroke-width="1.5" stroke-linecap="round" stroke-linejoin="round"/></svg>