<svg width="44" height="44" fill="none" xmlns="http://www.w3.org/2000/svg"><rect width="44" height="44" rx="6" fill="#FEF1C6"/><rect x="13.75" y="12.75" width="16.5" height="19.5" rx="1.25" fill="#fff" stroke="#FFAF37" stroke-width="1.5"/><rect x="18.75" y="11.75" width="6.5" height="1.5" rx=".75" stroke="#FFAC30" stroke-width="1.5"/><path fill-rule="evenodd" clip-rule="evenodd" d="M19.854 16.146a.5.5 0 010 .708l-2 2a.5.5 0 01-.708 0l-1-1a.5.5 0 01.708-.708l.646.647 1.646-1.647a.5.5 0 01.708 0zm0 5a.5.5 0 010 .708l-2 2a.5.5 0 01-.708 0l-1-1a.5.5 0 01.708-.708l.646.647 1.646-1.647a.5.5 0 01.708 0zm0 5a.5.5 0 010 .708l-2 2a.5.5 0 01-.708 0l-1-1a.5.5 0 01.708-.708l.646.647 1.646-1.647a.5.5 0 01.708 0z" fill="#FFAF37"/><path fill="#FFAC30" d="M22 16h5v1h-5zm0 5h5v1h-5zm0 5h5v1h-5zm0-3h4v1h-4zm0-5h4v1h-4zm0 10h4v1h-4z"/></svg>