<svg width="154" height="36" fill="none" xmlns="http://www.w3.org/2000/svg"><g clip-path="url(#clip0)" fill-rule="evenodd" clip-rule="evenodd"><path d="M28.272 22.102a.61.61 0 01.414.145c.11.097.215.2.312.312.096.112.2.216.312.313a.634.634 0 00.43.145.745.745 0 00.464-.145c.125-.097.244-.201.356-.313.11-.111.23-.215.356-.312a.737.737 0 01.465-.145c.096 0 .193.017.29.05.097.034.177.08.24.138a.417.417 0 01.123.218.455.455 0 01-.043.29c-.194.398-.47.716-.828.953-.359.237-.853.355-1.482.355-.62 0-1.093-.118-1.417-.356a1.683 1.683 0 01-.646-.951.477.477 0 01.145-.494.724.724 0 01.509-.203zm-1.12 2.6a.936.936 0 01.915 1.119 51.42 51.42 0 01-.318 1.641 44.19 44.19 0 01-.371 1.613 106.676 106.676 0 01-.734 2.746h.059c.338-.736.639-1.346.9-1.83.262-.485.494-.906.698-1.265l1.656-3.021a1.84 1.84 0 01.704-.734c.306-.18.637-.269.996-.269.3 0 .544.114.733.341a.91.91 0 01.196.792L30.872 34.8c-.068.32-.225.584-.472.792a1.299 1.299 0 01-.864.312.845.845 0 01-.4-.094.939.939 0 01-.305-.247.903.903 0 01-.182-.763c.106-.552.22-1.109.342-1.67.12-.562.239-1.105.356-1.628.116-.523.23-1.011.341-1.467.111-.455.206-.847.283-1.177h-.058c-.165.417-.37.877-.617 1.38-.247.504-.512 1.02-.792 1.548a75.29 75.29 0 01-.872 1.59l-.858 1.526c-.173.31-.416.555-.725.734-.31.18-.645.268-1.003.268a.947.947 0 01-.726-.349 1.012 1.012 0 01-.19-.362.889.889 0 01-.014-.422l1.7-8.95c.058-.329.213-.597.465-.806.252-.208.542-.312.872-.312z" fill="#fff"/><path d="M88.844 7.172c-.453-.11-.907-.217-1.36-.334-.897-.232-1.791-.482-2.692-.705-.97-.24-1.938-.482-2.917-.68-1.067-.214-2.15-.35-3.215-.573-1.787-.375-3.602-.498-5.408-.7-.182-.02-.362-.048-.544-.052-2.801-.065-5.603-.092-8.394.217a224.41 224.41 0 00-6.09.744c-1.033.142-2.05.385-3.074.59-1.023.204-2.051.39-3.064.634-.725.175-1.434.42-2.141.657a1.52 1.52 0 00-.508.323c-.324.291-.35.725-.008.993.332.258.72.461 1.11.628 1.453.619 2.917 1.212 4.377 1.89-.136 0-.279.024-.409-.005-1.218-.267-2.433-.549-3.652-.812-.954-.206-1.914-.379-2.865-.59-.863-.193-1.72-.415-2.577-.635-.352-.09-.674-.235-.928-.522-.342-.386-.324-.927.071-1.25.561-.457 1.26-.607 1.92-.827a36.56 36.56 0 012.412-.71 54.358 54.358 0 013.113-.723c1.85-.36 3.697-.764 5.565-.991 2.936-.357 5.89-.567 8.854-.52 2.05.032 4.1.03 6.148.088.839.025 1.678.15 2.51.268a74.87 74.87 0 013.499.555c.868.163 1.726.387 2.58.616 1.75.469 3.5.941 5.24 1.45.84.247 1.656.58 2.484.873l-.037.103zm40.204 8.361c.201-.398.46-.352.704-.298 1.662.369 3.322.744 4.981 1.118 1.725.389 3.405.933 5.05 1.572 1.789.694 3.573 1.409 5.315 2.213 1.265.585 2.463 1.317 3.677 2.01.247.142.581.303.467.774-.285 0-.592.066-.858-.011-.974-.289-1.931-.639-2.902-.94-1.212-.375-2.433-.726-3.65-1.085a97.403 97.403 0 00-1.566-.453c-.96-.267-1.934-.49-2.881-.801a18.252 18.252 0 01-2.327-.945c-1.788-.877-3.556-1.795-5.329-2.706-.236-.122-.448-.294-.681-.448zM10.303 16.98c-.094 1.245-.417 2.525-1.208 3.657-.026.037-.03.095-.062.12-.222.18-.409.475-.745.38-.307-.086-.426-.336-.508-.652-.247-.944-.07-1.863.152-2.762.139-.563.444-1.087.698-1.617.095-.2.25-.375.39-.549.174-.215.372-.45.678-.363.337.095.479.412.54.72.062.31.043.634.065 1.067z" fill="#EE403D"/><path d="M12.15 13.373c1.499-.11 2.998-.204 4.497-.306 1.612-.11 3.224-.254 4.84-.324 2.138-.094 4.279-.175 6.418-.18 2.3-.005 4.6.077 6.9.136.91.024 1.82.07 2.728.135.976.07 1.95.164 2.924.26 1.516.15 3.038.264 4.545.481a64.5 64.5 0 014.488.83c1.705.373 3.404.784 5.088 1.244 1.703.465 3.384 1.012 5.077 1.516.267.079.546.12.82.178-1.512-.939-3.066-1.764-4.627-2.576-.178-.091-.354-.143-.394-.364.946-.075 1.852-.15 2.759-.218 1.906-.142 3.813-.281 5.721-.419 1.884-.136 3.768-.276 5.654-.401 1.612-.107 3.227-.191 4.84-.294 1.977-.126 3.953-.262 5.93-.393l.477-.03c1.908-.12 3.816-.244 5.725-.36.433-.026.865-.02 1.298-.044 2.092-.113 4.183-.253 6.276-.339 1.866-.076 3.734-.127 5.602-.128 3.347-.003 6.695.033 10.043.066 1.982.018 3.965.028 5.945.104 2.184.084 4.368.207 6.546.374 1.405.108 2.805.296 4.199.504 1.258.187 2.506.437 3.754.682 1.603.317 3.205.64 4.799.994.796.175 1.581.407 2.363.642 1.516.456 3.041.885 4.532 1.414 1.168.415 2.287.967 3.43 1.453 1.835.78 3.531 1.808 5.148 2.958.567.402 1.002.901 1.214 1.5a3.033 3.033 0 011.121-.052c.412.066.814.197 1.17.339-.207-1.07-.84-1.994-1.862-2.764a25.502 25.502 0 00-2.711-1.783 66.626 66.626 0 00-4.145-2.176c-1.12-.537-2.282-.988-3.442-1.432-1.332-.51-2.667-1.022-4.031-1.435-1.69-.513-3.407-.94-5.12-1.377a45.822 45.822 0 00-3.056-.687 59.073 59.073 0 00-3.37-.501c-1.15-.144-2.306-.244-3.46-.358-.272-.027-.546-.03-.82-.046-1.749-.109-3.498-.298-5.249-.312-6.334-.053-12.666-.17-18.997.114-3.117.14-6.235.263-9.352.414-2.478.12-4.955.266-7.433.41-2.205.128-4.408.272-6.613.404-1.773.105-3.547.184-5.32.307-2.725.19-5.447.412-8.172.61-1.18.085-2.364.133-3.544.216-1.795.126-3.587.273-5.38.394-.267.018-.547-.035-.81-.098-1.101-.264-2.2-.542-3.297-.821-1.699-.43-3.431-.672-5.163-.921-.518-.074-1.033-.177-1.552-.228-1.042-.101-2.09-.15-3.13-.265-2.137-.236-4.28-.232-6.416-.102-2.02.123-4.034.367-6.046.589-1.628.18-3.255.367-4.872.62-1.907.299-3.805.663-5.704 1.016-1.498.278-2.99.58-4.487.873.008.046.014.094.021.14.561-.061 1.12-.141 1.682-.183z" fill="#fff"/><path d="M3.463 22.384c.44-.06 1.071-.023 1.572.024a77.75 77.75 0 01.49-2.704 37.01 37.01 0 01.693-2.838c.257-.892.548-1.777.89-2.64.604-1.527 1.883-2.28 3.37-2.705 1.023-.293 2.074-.494 3.119-.698 1.158-.227 2.325-.411 3.488-.612 1.61-.278 3.222-.552 4.832-.833 1.521-.267 3.046-.517 4.56-.818 1.536-.306 3.06-.67 4.59-1.003 1.596-.349 3.198-.672 4.789-1.043 1.346-.313 2.677-.692 4.02-1.02 1.74-.423 3.485-.827 5.23-1.231 1.392-.324 2.785-.644 4.183-.948.753-.165 1.512-.31 2.273-.439 1.03-.173 2.066-.32 3.097-.482 1.257-.196 2.51-.422 3.77-.59.856-.113 1.722-.157 2.584-.218 1.634-.115 3.268-.27 4.905-.319 3.764-.11 7.507.222 11.248.578.43.04.855.124 1.284.18 1.352.178 2.707.325 4.055.536 1.21.19 2.412.442 3.615.679 1.714.337 3.428.671 5.137 1.033.821.174 1.627.412 2.441.615 1.298.325 2.602.62 3.89.973 1.178.323 2.338.712 3.51 1.058.166.05.352.029.641.048-.156-.093-.206-.136-.263-.157-1.492-.521-2.979-1.059-4.479-1.556-1.695-.562-3.4-1.095-5.105-1.627-2.035-.635-4.087-1.205-6.176-1.635-1.555-.32-3.111-.641-4.667-.96-.333-.07-.665-.157-1.002-.196-1.491-.174-2.981-.349-4.475-.493-1.336-.13-2.674-.288-4.015-.315-2.573-.05-5.148-.019-7.722-.014-.455.001-.913.01-1.364.066-2.12.26-4.258.312-6.382.614-1.41.2-2.835.368-4.245.588-1.612.253-3.2.657-4.799 1-1.907.41-3.816.817-5.721 1.239-1.817.401-3.63.818-5.444 1.234-1.769.404-3.533.828-5.304 1.221-1.617.359-3.24.69-4.86 1.026-1.756.363-3.51.732-5.271 1.068-1.16.22-2.334.37-3.495.583-1.763.325-3.52.692-5.284 1.015-1.34.245-2.673.526-3.945 1.017-.909.35-1.76.812-2.409 1.581-.828.98-1.181 2.184-1.583 3.356-.403 1.176-.728 2.382-1.062 3.581a29.56 29.56 0 00-.561 2.313c-.098.51-.183 1.023-.266 1.536.212-.137.929-.574 1.623-.668zm3.347 2.57c.29.142.536.334.735.577.2.242.342.518.428.827.085.309.094.634.028.976l-1.383 7.213a1.434 1.434 0 01-.499.848 1.396 1.396 0 01-.926.335.926.926 0 01-.434-.1 1.094 1.094 0 01-.335-.264.92.92 0 01-.2-.377.985.985 0 01-.014-.442l1.467-7.683H3.896l-1.469 7.683a1.434 1.434 0 01-.499.848 1.4 1.4 0 01-.926.335.928.928 0 01-.435-.1 1.118 1.118 0 01-.335-.264.936.936 0 01-.2-.377.995.995 0 01-.014-.442l1.384-7.213c.065-.37.196-.715.39-1.033a3.39 3.39 0 01.707-.827 3.122 3.122 0 012.024-.734h1.34c.343 0 .658.071.947.214zm5.425 4.989c.352 0 .639-.076.863-.229a1.71 1.71 0 00.527-.562c.129-.224.216-.464.264-.72.047-.257.07-.49.07-.699 0-.323-.077-.584-.234-.784-.157-.2-.393-.299-.706-.299h-.257a.502.502 0 00-.184.029l-.628 3.264h.285zm-2.18-2.452c.075-.39.206-.755.39-1.098a3.5 3.5 0 01.693-.897 3.07 3.07 0 01.933-.6c.347-.142.72-.208 1.12-.198.18.009.379.028.598.056.218.029.44.076.663.142.223.067.439.16.649.278.208.12.398.27.57.45.246.266.425.584.535.955.109.37.163.699.163.983 0 .419-.046.806-.135 1.162a4.301 4.301 0 01-.855 1.726 3.79 3.79 0 01-.549.547c-.4.314-.856.545-1.369.693a5.324 5.324 0 01-1.468.22h-.428l-.513 2.665a1.42 1.42 0 01-.491.828 1.371 1.371 0 01-.906.327.965.965 0 01-.421-.092.987.987 0 01-.52-.627.962.962 0 01-.014-.436l1.354-7.084zm10.462 2.024c.01-.152.019-.337.029-.556a42.3 42.3 0 01.035-.698c.014-.247.03-.497.043-.749.015-.251.026-.477.036-.677h-.029c-.057.2-.123.426-.2.677-.075.252-.149.502-.22.749a23.2 23.2 0 01-.214.698c-.071.219-.13.4-.179.542l-.783 2.266h1.383l.1-2.252zm-2.437 5.118a1.654 1.654 0 01-.613.798 1.632 1.632 0 01-.955.299.71.71 0 01-.378-.1.894.894 0 01-.271-.25.773.773 0 01-.135-.342.72.72 0 01.056-.391l3.436-8.582c.16-.4.421-.72.777-.962a2.047 2.047 0 011.176-.363c.4 0 .734.138 1.005.413.271.276.407.613.407 1.012v8.396c0 .323-.113.599-.336.827a1.12 1.12 0 01-.834.342 1.103 1.103 0 01-1.04-.712 1.037 1.037 0 01-.072-.457l.029-1.056h-1.853l-.399 1.128zm115.754-9.893a.914.914 0 01.884.685c.038.132.042.27.013.412a49.881 49.881 0 01-.677 3.194 81.237 81.237 0 01-.72 2.693h.058c.332-.721.627-1.32.883-1.796.257-.475.485-.888.685-1.24l1.625-2.965a1.8 1.8 0 01.691-.72c.3-.176.624-.264.977-.264.294 0 .534.112.72.335a.895.895 0 01.192.778l-1.682 8.794a1.356 1.356 0 01-.463.777 1.277 1.277 0 01-.848.307.83.83 0 01-.392-.093.914.914 0 01-.471-.584.912.912 0 01-.007-.407c.104-.541.216-1.087.335-1.639.118-.55.235-1.083.349-1.596.115-.514.226-.993.336-1.44.109-.447.201-.831.277-1.154h-.057c-.162.408-.363.86-.605 1.353-.243.495-.502 1-.778 1.519-.276.518-.56 1.038-.856 1.56l-.84 1.497a1.883 1.883 0 01-.713.72 1.927 1.927 0 01-.984.264.872.872 0 01-.398-.093.945.945 0 01-.499-.606.872.872 0 01-.015-.413l1.668-8.781a1.29 1.29 0 01.456-.791c.248-.204.532-.306.856-.306zM40.903 35.73a.896.896 0 01-.87-.642.91.91 0 01-.029-.399l.222-1.632a74.542 74.542 0 01.42-2.751c.085-.499.194-1.1.327-1.803h-.07c-.172.504-.323.945-.457 1.325-.134.381-.26.728-.377 1.041-.12.314-.236.606-.35.877l-.356.848c-.125.294-.257.608-.4.94-.141.334-.3.719-.47 1.155a1.32 1.32 0 01-1.21.813.857.857 0 01-.63-.257.909.909 0 01-.27-.627c-.009-.428-.02-.808-.035-1.14a58.276 58.276 0 01-.035-.934l-.03-.834a61.742 61.742 0 01-.014-3.207h-.028a80.359 80.359 0 01-.357 1.817c-.105.499-.21.97-.313 1.411-.104.443-.214.896-.328 1.362l-.4 1.639a1.226 1.226 0 01-.455.72 1.285 1.285 0 01-.813.278.731.731 0 01-.356-.085.81.81 0 01-.413-.535.848.848 0 010-.378l2.251-8.752c.096-.361.29-.658.585-.89a1.56 1.56 0 01.998-.35c.361 0 .668.123.92.37.251.247.382.547.391.899.02 1.102.045 2.18.078 3.235.034 1.055.041 2.076.023 3.065h.028a27.07 27.07 0 011.047-3.136c.433-1.084.858-2.171 1.276-3.265.133-.35.356-.634.67-.848.314-.213.661-.32 1.041-.32a1.09 1.09 0 011.04.77c.047.151.063.313.044.484l-1.112 8.695c-.048.305-.18.554-.4.749a1.14 1.14 0 01-.783.292z" fill="#fff"/><path d="M62.377 33.42c-.186.23-.393.343-.62.343h-.014c-.171 0-.305-.042-.4-.128a.88.88 0 01-.22-.313 1.338 1.338 0 01-.1-.4 3.82 3.82 0 01-.022-.385c0-.323.02-.691.057-1.105a15.03 15.03 0 01.47-2.537 6.99 6.99 0 01.4-1.105c.152-.323.323-.582.513-.777.19-.194.394-.292.613-.292.142 0 .259.038.349.114a.83.83 0 01.214.278c.052.11.085.228.1.356.013.13.02.245.02.35 0 .228-.015.532-.049.912-.033.38-.086.791-.157 1.233-.07.442-.162.89-.27 1.34a8.75 8.75 0 01-.386 1.226 3.449 3.449 0 01-.498.89zm-2.488 2.04c.38.265.884.399 1.51.399h.015c.514 0 .98-.089 1.398-.264a3.5 3.5 0 001.125-.763 5.41 5.41 0 00.998-1.312 9.165 9.165 0 00.714-1.667c.19-.599.331-1.221.427-1.868a12.86 12.86 0 00.142-1.895c0-.323-.03-.685-.092-1.084a3.356 3.356 0 00-.393-1.133 2.554 2.554 0 00-.861-.898c-.376-.242-.876-.364-1.505-.364-.542 0-1.02.095-1.44.286-.417.19-.792.447-1.125.769-.39.371-.728.813-1.012 1.326a8.896 8.896 0 00-.706 1.646 11.994 11.994 0 00-.421 1.804 11.785 11.785 0 00-.142 1.781c0 .305.033.666.1 1.084.066.418.2.814.399 1.19.2.376.49.696.87.962zm-4.982.185a.9.9 0 00.392.085c.304 0 .566-.097.784-.292a1.22 1.22 0 00.4-.749l1.112-8.695a1.176 1.176 0 00-.044-.485 1.077 1.077 0 00-1.04-.77c-.38 0-.727.108-1.041.321a1.759 1.759 0 00-.67.848 241.524 241.524 0 01-1.276 3.265 27.197 27.197 0 00-1.047 3.136h-.029c.02-.988.012-2.01-.022-3.065a241.9 241.9 0 01-.078-3.235 1.262 1.262 0 00-.392-.9 1.265 1.265 0 00-.92-.37c-.37 0-.703.117-.997.35-.294.233-.49.53-.585.891l-2.252 8.752a.809.809 0 00.413.913.735.735 0 00.356.085c.305 0 .576-.092.813-.278a1.23 1.23 0 00.457-.72c.151-.627.285-1.173.4-1.639.113-.465.222-.92.327-1.362.104-.441.208-.912.313-1.41.105-.5.224-1.106.356-1.818h.029a78.721 78.721 0 00-.006 2.345c.003.309.01.596.02.862l.017.469.012.365c.009.29.02.601.036.933.015.333.026.714.035 1.14.01.249.1.457.27.628a.857.857 0 00.629.257 1.32 1.32 0 001.211-.813c.171-.436.328-.821.47-1.154a161.89 161.89 0 00.756-1.79c.114-.27.23-.562.349-.875.119-.314.244-.66.378-1.042.133-.38.285-.821.456-1.325h.07a122.68 122.68 0 00-.327 1.803 75.996 75.996 0 00-.487 3.253l-.154 1.13a.912.912 0 00.506.956zM68.1 27.02a.917.917 0 01-.74-.342.922.922 0 01-.201-.798 1.38 1.38 0 01.492-.82c.262-.213.558-.32.89-.32h3.864c.152 0 .293.03.421.093a.888.888 0 01.321.256c.085.109.146.233.185.37a.915.915 0 01.014.421c-.067.333-.23.606-.492.82-.26.214-.558.32-.89.32h-.713l-1.454 7.527a1.42 1.42 0 01-.507.848 1.42 1.42 0 01-.933.335.943.943 0 01-.427-.1 1.007 1.007 0 01-.529-.641.996.996 0 01-.014-.442l1.454-7.526h-.74zm8.76 6.4c-.185.23-.392.343-.62.343h-.013c-.172 0-.305-.042-.4-.128a.887.887 0 01-.221-.313 1.34 1.34 0 01-.1-.4 3.65 3.65 0 01-.021-.385c0-.323.019-.691.056-1.105a15.262 15.262 0 01.47-2.537c.115-.413.249-.782.4-1.105.152-.323.323-.582.514-.777.189-.194.394-.292.613-.292.142 0 .258.038.349.114a.83.83 0 01.213.278c.053.11.086.228.1.356.014.13.022.245.022.35 0 .228-.016.532-.05.912s-.086.791-.157 1.233a17.41 17.41 0 01-.272 1.34c-.108.451-.237.86-.384 1.226a3.431 3.431 0 01-.499.89zm-2.487 2.04c.38.265.883.399 1.51.399h.014c.514 0 .98-.089 1.399-.264.416-.176.793-.43 1.125-.763a5.41 5.41 0 00.998-1.312 9.13 9.13 0 00.713-1.667c.19-.599.332-1.221.428-1.868.095-.645.142-1.277.142-1.895 0-.323-.031-.685-.093-1.084a3.358 3.358 0 00-.392-1.133 2.546 2.546 0 00-.862-.898c-.375-.242-.876-.364-1.505-.364-.541 0-1.02.095-1.439.286-.418.19-.793.447-1.126.769-.39.371-.728.813-1.012 1.326a8.937 8.937 0 00-.706 1.646 12.068 12.068 0 00-.562 3.585c0 .305.032.666.1 1.084.066.418.2.814.398 1.19.2.376.49.696.87.962zm10.662-5.517c.352 0 .639-.076.863-.229.223-.151.398-.34.526-.562.13-.224.217-.464.265-.72.047-.257.07-.49.07-.699 0-.323-.078-.584-.234-.784-.157-.2-.392-.299-.706-.299h-.256a.506.506 0 00-.186.029l-.627 3.264h.285zm-2.181-2.451c.076-.39.206-.756.392-1.099a3.47 3.47 0 01.691-.897c.276-.257.588-.457.934-.6.347-.142.72-.208 1.12-.198.18.009.379.028.598.056.219.029.44.076.662.142.223.067.44.16.65.278.208.12.398.27.57.45.246.266.426.585.534.955.11.37.164.699.164.983 0 .419-.045.806-.135 1.162a4.316 4.316 0 01-.855 1.726 3.766 3.766 0 01-.55.547 3.955 3.955 0 01-1.368.693 5.32 5.32 0 01-1.468.22h-.428l-.512 2.665a1.418 1.418 0 01-.493.828 1.37 1.37 0 01-.905.327.962.962 0 01-.941-.72.958.958 0 01-.014-.435l1.354-7.083zM94.4 35.416c.2-.247.308-.531.328-.855a.796.796 0 00-.279-.656.96.96 0 00-.69-.242h-.072c-.476 0-.816-.188-1.02-.563-.205-.375-.306-.871-.306-1.49 0-.874.11-1.636.328-2.288.218-.65.484-1.19.799-1.617.19-.247.413-.45.669-.606.257-.157.5-.244.727-.264.304-.028.592-.112.863-.25.27-.137.449-.353.535-.648a1.14 1.14 0 00.056-.435.985.985 0 00-.114-.406.913.913 0 00-.264-.306.72.72 0 00-.392-.136 1.16 1.16 0 01-.135-.007 1.266 1.266 0 00-.135-.007c-.599 0-1.195.112-1.79.334a4.475 4.475 0 00-1.618 1.077c-.294.304-.57.654-.826 1.048a6.686 6.686 0 00-.663 1.347 9.846 9.846 0 00-.442 1.667 11.28 11.28 0 00-.164 1.997c0 .17.014.382.042.634.03.251.082.516.158.79.076.276.19.552.342.828.152.275.351.52.599.734.246.213.55.39.913.527.36.137.788.207 1.282.207h.25c.08 0 .158-.005.234-.015.324-.018.585-.152.785-.399z" fill="#EE403D"/><path d="M101.714 24.74c.371 0 .694.123.969.37.276.248.437.556.485.927.029.304.064.639.107 1.005l.129 1.097c.042.366.083.718.12 1.055.039.337.057.634.057.891h.086c.057-.257.143-.556.257-.898.114-.342.237-.699.37-1.069l.399-1.105c.133-.366.252-.7.357-1.005.133-.38.364-.686.691-.92a1.848 1.848 0 011.091-.349c.152 0 .289.039.413.115a.879.879 0 01.292.284.883.883 0 01.129.385.817.817 0 01-.079.428l-2.437 5.16a58.667 58.667 0 01-.97 1.96 8.92 8.92 0 01-1.04 1.59c-.333.39-.706.686-1.12.89a3.126 3.126 0 01-1.403.307.765.765 0 01-.414-.107.99.99 0 01-.442-.634 1.143 1.143 0 01-.014-.4.783.783 0 01.363-.584c.214-.142.44-.26.678-.356.238-.105.448-.276.634-.513.185-.238.325-.48.42-.728.048-.141.079-.263.093-.363a.843.843 0 00-.007-.292l-1.255-5.858a.955.955 0 01.008-.479c.043-.156.111-.293.206-.412a1.056 1.056 0 01.827-.393zm8.682 0a.91.91 0 01.741.349c.19.233.257.501.2.806l-.684 3.506h.214l1.795-3.478c.18-.361.444-.649.791-.863.346-.213.725-.32 1.134-.32a.67.67 0 01.377.107.733.733 0 01.235 1.019l-2.451 3.892c.208.218.373.579.491 1.083.119.503.202 1.202.251 2.095l.049.92c.014.27.031.515.049.734.029.303-.049.57-.235.798a.899.899 0 01-.733.342 1.375 1.375 0 01-.877-.321 1.23 1.23 0 01-.293-.356 1.037 1.037 0 01-.128-.449 9.313 9.313 0 01-.035-.692c-.006-.252-.012-.53-.022-.833-.019-.665-.083-1.148-.192-1.447-.11-.3-.312-.45-.606-.45h-.071l-.7 3.393a1.474 1.474 0 01-.505.827c-.262.22-.563.328-.906.328a.952.952 0 01-.747-.35.97.97 0 01-.207-.805l1.667-8.68c.066-.333.23-.609.493-.827.261-.219.562-.329.905-.329zm8.396 5.203c.351 0 .639-.076.863-.229.223-.152.398-.34.526-.562a2.26 2.26 0 00.265-.72c.047-.257.071-.49.071-.699 0-.323-.078-.584-.236-.784-.156-.2-.392-.299-.705-.299h-.257a.499.499 0 00-.185.029l-.628 3.264h.286zm-2.181-2.452c.075-.39.206-.755.392-1.098a3.48 3.48 0 01.691-.897 3.08 3.08 0 01.933-.6 2.748 2.748 0 011.12-.198c.181.009.38.028.599.056.218.029.439.076.662.142.223.067.44.16.649.278.209.12.399.27.57.45.247.266.426.584.535.955.109.37.164.699.164.983 0 .419-.046.806-.135 1.162a4.303 4.303 0 01-.856 1.726 3.824 3.824 0 01-.548.547c-.4.314-.856.545-1.37.693a5.319 5.319 0 01-1.467.22h-.428l-.513 2.665a1.42 1.42 0 01-.492.828 1.37 1.37 0 01-.905.327.96.96 0 01-.941-.72.963.963 0 01-.015-.435l1.355-7.084zm10.462 2.024c.01-.152.019-.337.028-.556.01-.218.022-.451.036-.698l.043-.749c.015-.251.025-.477.035-.677h-.028c-.057.2-.123.426-.2.677-.076.252-.149.502-.221.749-.07.247-.142.48-.213.698-.072.219-.131.4-.179.542l-.784 2.266h1.383l.1-2.252zm-2.437 5.118a1.66 1.66 0 01-.614.798 1.629 1.629 0 01-.954.299.713.713 0 01-.379-.1.894.894 0 01-.27-.25.75.75 0 01-.079-.733l3.435-8.582c.162-.4.421-.72.778-.962a2.047 2.047 0 011.175-.363c.4 0 .735.138 1.006.413.271.276.406.613.406 1.012v8.396c0 .323-.112.599-.335.827a1.12 1.12 0 01-.834.342c-.162 0-.311-.03-.449-.093a1.126 1.126 0 01-.356-.249 1.133 1.133 0 01-.235-.37 1.042 1.042 0 01-.072-.457l.028-1.056h-1.852l-.399 1.128zm17.238-9.893c.152 0 .294.033.428.1.133.066.247.154.342.263a.945.945 0 01.2.378c.036.142.042.29.014.442l-.614 3.178h1.868l.599-3.178c.066-.343.234-.625.505-.849a1.43 1.43 0 01.935-.335.95.95 0 01.427.1.982.982 0 01.527.642.98.98 0 01.015.442l-1.64 8.624a1.416 1.416 0 01-.506.848c-.27.223-.582.335-.934.335a.933.933 0 01-.434-.1 1.118 1.118 0 01-.335-.264.934.934 0 01-.2-.377.98.98 0 01-.014-.442l.599-3.25h-1.825l-.627 3.25a1.427 1.427 0 01-.5.848 1.391 1.391 0 01-.926.335.93.93 0 01-.434-.1 1.106 1.106 0 01-.335-.264.934.934 0 01-.2-.377.98.98 0 01-.014-.442l1.653-8.624c.066-.343.233-.625.499-.849a1.4 1.4 0 01.927-.335zm9.992 4.775c.011-.152.02-.337.03-.556.009-.218.021-.451.035-.698.014-.247.029-.497.042-.749.015-.251.027-.477.036-.677h-.028c-.057.2-.124.426-.2.677-.076.252-.149.502-.221.749-.071.247-.143.48-.214.698-.071.219-.13.4-.178.542l-.783 2.266h1.382l.099-2.252zm-2.436 5.118a1.66 1.66 0 01-.614.798 1.63 1.63 0 01-.954.299.707.707 0 01-.378-.1.886.886 0 01-.271-.25.763.763 0 01-.136-.342.724.724 0 01.057-.391l3.435-8.582c.161-.4.422-.72.777-.962a2.05 2.05 0 011.176-.363c.4 0 .735.138 1.006.413.271.276.406.613.406 1.012v8.396c0 .323-.112.599-.335.827a1.122 1.122 0 01-.835.342 1.104 1.104 0 01-1.039-.712 1.027 1.027 0 01-.072-.457l.029-1.056h-1.853l-.399 1.128z" fill="#fff"/></g><defs><clipPath id="clip0"><path fill="#fff" d="M0 0h154v36H0z"/></clipPath></defs></svg>