<svg width="154" height="36" fill="none" xmlns="http://www.w3.org/2000/svg"><g clip-path="url(#clip0)" fill-rule="evenodd" clip-rule="evenodd"><path d="M28.272 22.102a.61.61 0 01.414.145c.11.097.215.2.312.312.096.112.2.216.312.313a.634.634 0 00.43.145.745.745 0 00.464-.145c.125-.097.244-.201.356-.313.11-.111.23-.215.356-.312a.737.737 0 01.465-.145c.096 0 .193.017.29.05.097.034.177.08.24.138a.417.417 0 01.123.218.455.455 0 01-.043.29c-.194.398-.47.715-.828.952-.359.238-.853.356-1.482.356-.62 0-1.093-.119-1.417-.356a1.683 1.683 0 01-.646-.951.477.477 0 01.145-.494.724.724 0 01.509-.203zm-1.12 2.6a.936.936 0 01.915 1.119 51.42 51.42 0 01-.318 1.641c-.117.552-.24 1.09-.371 1.613a106.676 106.676 0 01-.734 2.746h.059c.338-.736.639-1.346.9-1.83.262-.485.494-.906.698-1.265l1.656-3.022c.165-.31.399-.554.704-.733.306-.18.637-.269.996-.269.3 0 .544.113.733.341a.91.91 0 01.196.792L30.872 34.8c-.068.32-.225.584-.472.792a1.299 1.299 0 01-.864.312.845.845 0 01-.4-.094.939.939 0 01-.305-.247.903.903 0 01-.182-.763c.106-.552.22-1.109.342-1.67.12-.562.239-1.105.356-1.628.116-.523.23-1.012.341-1.467.111-.455.206-.847.283-1.177h-.058c-.165.417-.37.877-.617 1.38-.247.504-.512 1.02-.792 1.548a75.29 75.29 0 01-.872 1.59l-.858 1.526c-.173.31-.416.554-.725.733-.31.18-.645.27-1.003.27a.947.947 0 01-.726-.349 1.012 1.012 0 01-.19-.364.889.889 0 01-.014-.42l1.7-8.95c.058-.33.213-.598.465-.807a1.33 1.33 0 01.872-.312z" fill="#322F31"/><path d="M88.844 7.172c-.453-.11-.907-.217-1.36-.334-.897-.232-1.791-.482-2.692-.705-.97-.24-1.938-.482-2.917-.68-1.067-.214-2.15-.35-3.215-.574-1.787-.374-3.602-.497-5.408-.698-.182-.02-.362-.05-.544-.053-2.801-.065-5.603-.092-8.394.217a224.41 224.41 0 00-6.09.744c-1.033.142-2.05.385-3.074.59-1.023.204-2.051.39-3.064.634-.725.174-1.434.42-2.141.657a1.52 1.52 0 00-.508.323c-.324.291-.35.725-.008.993.332.258.72.461 1.11.628 1.453.618 2.917 1.212 4.377 1.889-.136 0-.279.024-.409-.004-1.218-.267-2.433-.549-3.652-.812-.954-.206-1.914-.379-2.865-.59-.863-.193-1.72-.415-2.577-.635-.352-.09-.674-.235-.928-.522-.342-.386-.324-.927.071-1.25.561-.457 1.26-.608 1.92-.827a36.194 36.194 0 012.412-.71 54.358 54.358 0 013.113-.723c1.85-.36 3.697-.765 5.565-.991 2.936-.357 5.89-.567 8.854-.52 2.05.032 4.1.03 6.148.088.839.025 1.678.15 2.51.268a74.87 74.87 0 013.499.555c.868.163 1.726.387 2.58.616 1.75.469 3.5.941 5.24 1.45.84.247 1.656.58 2.484.873l-.037.103zm40.204 8.361c.201-.398.46-.352.704-.298 1.662.368 3.322.744 4.981 1.118 1.725.389 3.405.933 5.05 1.572 1.789.694 3.573 1.409 5.315 2.213 1.265.585 2.463 1.317 3.677 2.01.247.142.581.303.467.774-.285 0-.592.066-.858-.012-.974-.288-1.931-.638-2.902-.939-1.212-.375-2.433-.726-3.65-1.085a97.406 97.406 0 00-1.566-.453c-.96-.267-1.934-.49-2.881-.801a18.252 18.252 0 01-2.327-.945c-1.788-.877-3.556-1.795-5.329-2.706-.236-.122-.448-.294-.681-.448zM10.303 16.98c-.094 1.245-.417 2.525-1.208 3.657-.026.037-.03.095-.062.12-.222.18-.409.475-.745.38-.307-.086-.426-.336-.508-.652-.247-.944-.07-1.863.152-2.763.139-.562.444-1.086.698-1.616.095-.2.25-.375.39-.549.174-.215.372-.45.678-.363.337.095.479.412.54.72.062.31.043.634.065 1.067z" fill="#EE403D"/><path d="M12.15 13.373c1.499-.11 2.998-.204 4.497-.306 1.612-.11 3.224-.254 4.84-.325 2.138-.093 4.279-.174 6.418-.18 2.3-.004 4.6.078 6.9.137.91.024 1.82.07 2.728.135.975.069 1.95.164 2.924.26 1.516.15 3.038.264 4.545.481a64.5 64.5 0 014.488.83c1.705.373 3.404.784 5.088 1.244 1.703.465 3.384 1.012 5.077 1.515.267.08.546.12.82.18-1.512-.94-3.066-1.765-4.627-2.577-.178-.091-.354-.143-.394-.364.946-.075 1.852-.15 2.759-.218 1.906-.142 3.813-.282 5.721-.419 1.884-.136 3.768-.276 5.654-.401 1.612-.107 3.227-.191 4.84-.294 1.977-.126 3.953-.262 5.93-.393l.477-.03c1.908-.12 3.816-.244 5.725-.36.432-.026.865-.02 1.298-.044 2.092-.113 4.183-.254 6.276-.339 1.865-.076 3.734-.127 5.602-.128 3.347-.003 6.695.032 10.042.065 1.982.019 3.966.029 5.946.105 2.184.084 4.368.207 6.546.374 1.405.108 2.805.296 4.199.503 1.258.188 2.506.438 3.754.683 1.603.317 3.204.64 4.799.994.796.175 1.581.407 2.362.642 1.517.456 3.042.885 4.533 1.414 1.168.415 2.287.967 3.43 1.453 1.835.78 3.531 1.808 5.147 2.957.568.403 1.003.902 1.215 1.5a3.032 3.032 0 011.121-.05c.412.065.814.195 1.17.337-.207-1.069-.84-1.993-1.862-2.763a25.502 25.502 0 00-2.711-1.783 66.626 66.626 0 00-4.145-2.176c-1.12-.537-2.282-.988-3.442-1.432-1.332-.51-2.667-1.022-4.031-1.435-1.69-.514-3.407-.94-5.12-1.377a45.822 45.822 0 00-3.056-.687 59.073 59.073 0 00-3.37-.501c-1.15-.144-2.306-.244-3.46-.358-.272-.027-.546-.03-.82-.047-1.749-.108-3.498-.297-5.249-.311-6.334-.053-12.666-.17-18.997.114-3.117.14-6.235.263-9.352.414-2.478.12-4.955.266-7.433.41-2.205.128-4.408.272-6.613.404-1.773.105-3.547.184-5.32.307-2.725.19-5.447.412-8.172.61-1.18.085-2.364.133-3.544.216-1.795.125-3.587.273-5.38.394-.267.018-.547-.035-.81-.098-1.101-.264-2.2-.542-3.297-.821-1.699-.43-3.431-.672-5.163-.921-.518-.074-1.033-.177-1.552-.228-1.042-.101-2.09-.15-3.13-.265-2.137-.236-4.28-.232-6.416-.102-2.02.123-4.034.367-6.046.589-1.628.18-3.256.367-4.872.62-1.907.299-3.805.663-5.704 1.016-1.498.277-2.99.58-4.487.873.008.046.014.094.021.14.561-.061 1.12-.141 1.682-.183z" fill="#322F31"/><path d="M3.463 22.384c.44-.06 1.071-.023 1.572.024a77.75 77.75 0 01.49-2.704 37.01 37.01 0 01.693-2.838c.257-.892.548-1.777.89-2.64.604-1.527 1.883-2.28 3.37-2.705 1.023-.293 2.074-.494 3.119-.698 1.158-.227 2.325-.411 3.488-.612 1.61-.278 3.222-.552 4.832-.833 1.521-.267 3.046-.517 4.56-.818 1.536-.306 3.06-.67 4.59-1.003 1.596-.349 3.198-.672 4.789-1.043 1.346-.313 2.677-.692 4.02-1.02 1.74-.423 3.485-.827 5.23-1.231 1.392-.324 2.785-.644 4.183-.948.753-.165 1.512-.31 2.273-.439 1.03-.173 2.066-.32 3.097-.482 1.257-.196 2.51-.422 3.77-.59.856-.113 1.722-.157 2.584-.218 1.634-.115 3.268-.27 4.905-.319 3.764-.11 7.507.222 11.248.578.43.04.855.124 1.284.18 1.352.178 2.707.325 4.055.536 1.21.19 2.412.442 3.615.679 1.714.337 3.428.671 5.137 1.033.821.174 1.627.412 2.441.615 1.298.325 2.602.62 3.89.973 1.178.323 2.338.712 3.51 1.058.166.05.352.029.641.048-.156-.093-.206-.136-.263-.157-1.492-.521-2.979-1.059-4.479-1.556-1.695-.562-3.4-1.095-5.105-1.627-2.035-.635-4.087-1.205-6.176-1.635-1.555-.32-3.111-.641-4.667-.96-.333-.07-.665-.157-1.002-.196-1.491-.174-2.981-.349-4.475-.493-1.336-.13-2.674-.288-4.015-.315-2.573-.05-5.148-.019-7.722-.014-.455.001-.913.01-1.364.066-2.12.26-4.258.312-6.382.614-1.41.2-2.835.368-4.245.588-1.612.253-3.2.657-4.799 1-1.907.41-3.816.817-5.721 1.239-1.817.401-3.63.818-5.444 1.234-1.769.404-3.533.828-5.304 1.221-1.617.359-3.24.69-4.86 1.026-1.756.363-3.51.732-5.271 1.068-1.16.22-2.334.37-3.495.583-1.763.325-3.52.692-5.284 1.015-1.34.245-2.673.526-3.945 1.017-.909.35-1.76.812-2.409 1.581-.828.98-1.181 2.184-1.583 3.356-.403 1.176-.728 2.382-1.062 3.581a29.56 29.56 0 00-.561 2.313c-.098.51-.183 1.023-.266 1.536.212-.137.929-.574 1.623-.668zm3.347 2.57c.29.142.536.335.735.577.2.242.342.518.428.827.085.309.094.634.028.976l-1.383 7.213a1.434 1.434 0 01-.499.848 1.396 1.396 0 01-.926.335.926.926 0 01-.434-.1 1.091 1.091 0 01-.335-.264.92.92 0 01-.2-.377.985.985 0 01-.014-.442l1.467-7.683H3.896l-1.469 7.683a1.433 1.433 0 01-.499.848 1.4 1.4 0 01-.926.335.928.928 0 01-.435-.1 1.115 1.115 0 01-.335-.264.936.936 0 01-.2-.377.995.995 0 01-.014-.442l1.384-7.213c.065-.37.196-.715.39-1.033a3.39 3.39 0 01.707-.827 3.12 3.12 0 012.024-.734h1.34c.343 0 .658.071.947.214zm5.425 4.989c.352 0 .639-.076.863-.229a1.71 1.71 0 00.527-.562c.129-.224.216-.464.264-.72.047-.257.07-.49.07-.699 0-.323-.077-.584-.234-.784-.157-.2-.393-.299-.706-.299h-.257a.502.502 0 00-.184.029l-.628 3.264h.285zm-2.18-2.452c.075-.39.206-.755.39-1.098.186-.342.417-.641.693-.897.275-.257.586-.457.933-.6.347-.142.72-.209 1.12-.198.18.009.379.028.598.056.218.029.44.076.663.142.223.067.439.16.649.278.208.12.398.27.57.45.246.266.425.584.535.955.109.37.163.698.163.983 0 .419-.046.806-.135 1.162a4.302 4.302 0 01-.855 1.726 3.796 3.796 0 01-.549.547c-.4.314-.856.545-1.369.692a5.324 5.324 0 01-1.468.221h-.428l-.513 2.665a1.42 1.42 0 01-.491.828 1.371 1.371 0 01-.906.327.965.965 0 01-.421-.092.986.986 0 01-.52-.627.962.962 0 01-.014-.436l1.354-7.084zm10.462 2.024c.01-.152.019-.337.029-.556.01-.218.021-.451.035-.698.014-.247.03-.497.043-.749.015-.251.026-.477.036-.677h-.029c-.057.2-.123.426-.2.677-.075.252-.149.502-.22.75a32.977 32.977 0 01-.393 1.239l-.783 2.266h1.383l.1-2.252zm-2.437 5.118a1.654 1.654 0 01-.613.798 1.632 1.632 0 01-.955.299.71.71 0 01-.378-.1.893.893 0 01-.271-.25.774.774 0 01-.135-.342.72.72 0 01.056-.391l3.436-8.582c.16-.4.421-.72.777-.962a2.046 2.046 0 011.176-.363c.4 0 .734.138 1.005.413.271.276.407.613.407 1.012v8.396c0 .323-.113.599-.336.827a1.12 1.12 0 01-.834.342 1.104 1.104 0 01-1.04-.712 1.037 1.037 0 01-.072-.457l.029-1.055h-1.853l-.399 1.127zm115.754-9.893a.93.93 0 01.706.335c.08.1.139.216.178.35.038.132.042.27.013.412a49.828 49.828 0 01-.677 3.194 81.017 81.017 0 01-.72 2.693h.058c.332-.721.627-1.32.883-1.796.257-.475.485-.888.685-1.24l1.625-2.964a1.8 1.8 0 01.691-.721c.3-.176.624-.264.977-.264.294 0 .534.112.72.335a.895.895 0 01.192.778l-1.682 8.795a1.356 1.356 0 01-.463.776 1.277 1.277 0 01-.848.307.83.83 0 01-.392-.093.915.915 0 01-.3-.242.898.898 0 01-.178-.748c.104-.542.216-1.088.335-1.64.118-.55.235-1.083.349-1.596.115-.514.226-.993.336-1.44.109-.446.201-.831.277-1.154h-.057c-.162.408-.363.86-.605 1.353-.243.495-.502 1-.778 1.519-.276.518-.56 1.038-.856 1.56l-.84 1.497a1.884 1.884 0 01-.713.72 1.928 1.928 0 01-.984.264.872.872 0 01-.398-.093.946.946 0 01-.499-.606.872.872 0 01-.015-.413l1.668-8.781a1.29 1.29 0 01.456-.791c.248-.204.532-.306.856-.306zM40.903 35.73a.896.896 0 01-.87-.642.91.91 0 01-.029-.399l.222-1.632a74.542 74.542 0 01.42-2.751c.085-.499.194-1.1.327-1.803h-.07c-.172.504-.323.945-.457 1.325-.134.381-.26.728-.377 1.041-.12.314-.236.606-.35.877l-.356.848c-.125.294-.257.608-.4.94-.141.334-.3.719-.47 1.155a1.32 1.32 0 01-1.21.813.857.857 0 01-.63-.257.909.909 0 01-.27-.627c-.009-.428-.02-.808-.035-1.14a58.276 58.276 0 01-.035-.934l-.03-.834a61.742 61.742 0 01-.014-3.207h-.028a80.359 80.359 0 01-.357 1.817c-.105.499-.21.97-.313 1.411-.104.443-.214.896-.328 1.362l-.4 1.639a1.226 1.226 0 01-.455.72 1.285 1.285 0 01-.813.278.731.731 0 01-.356-.085.81.81 0 01-.413-.535.848.848 0 010-.378l2.251-8.752c.096-.361.29-.658.585-.89a1.56 1.56 0 01.998-.35c.361 0 .668.123.92.37.251.247.382.547.391.899.02 1.102.045 2.18.078 3.235.034 1.055.041 2.076.023 3.065h.028a27.07 27.07 0 011.047-3.136c.433-1.084.858-2.171 1.276-3.265.133-.35.356-.634.67-.848.314-.213.661-.32 1.041-.32a1.09 1.09 0 011.04.77c.047.151.063.313.044.484l-1.112 8.695c-.048.305-.18.554-.4.749a1.14 1.14 0 01-.783.292z" fill="#322F31"/><path d="M55.3 35.73a.9.9 0 01-.899-1.04c.087-.628.159-1.172.222-1.633a76.128 76.128 0 01.42-2.751c.085-.499.194-1.1.327-1.803h-.07c-.172.504-.324.945-.457 1.325-.134.381-.26.728-.378 1.041a26.51 26.51 0 01-.349.877l-.356.848c-.124.294-.257.608-.4.94-.142.334-.299.719-.47 1.155a1.32 1.32 0 01-1.211.813.857.857 0 01-.628-.257.91.91 0 01-.271-.627 53.42 53.42 0 00-.035-1.14 58.276 58.276 0 01-.036-.934l-.028-.834a60.672 60.672 0 01-.028-1.889c0-.375.004-.814.013-1.318h-.029c-.132.712-.25 1.319-.356 1.817-.105.499-.209.97-.313 1.411-.105.443-.214.896-.328 1.362l-.4 1.639a1.227 1.227 0 01-.456.72 1.284 1.284 0 01-.813.278.735.735 0 01-.356-.085.81.81 0 01-.413-.913l2.252-8.752c.096-.361.29-.658.585-.89a1.56 1.56 0 01.998-.35c.361 0 .668.123.92.37.25.247.382.547.39.899.02 1.102.046 2.18.08 3.235.033 1.055.04 2.076.021 3.065h.029a27.202 27.202 0 011.047-3.136 245.58 245.58 0 001.276-3.265c.132-.35.357-.634.67-.848.314-.213.661-.32 1.04-.32a1.094 1.094 0 01.82.37 1.161 1.161 0 01.265.884l-1.112 8.695a1.22 1.22 0 01-.4.749c-.218.195-.48.292-.784.292zm6.457-1.967c.228 0 .434-.114.62-.342.185-.228.351-.525.499-.891a8.76 8.76 0 00.384-1.226c.11-.451.2-.898.271-1.34.071-.442.124-.853.157-1.233.034-.38.05-.685.05-.912 0-.105-.008-.221-.021-.35a1.104 1.104 0 00-.1-.356.829.829 0 00-.214-.278.523.523 0 00-.349-.114c-.219 0-.424.098-.613.292-.19.195-.361.454-.513.777a6.977 6.977 0 00-.4 1.105 15.43 15.43 0 00-.292 1.269c-.08.432-.14.855-.178 1.268-.037.414-.057.782-.057 1.105 0 .114.008.242.022.385.014.143.047.276.1.4a.88.88 0 00.22.313c.095.085.229.128.4.128h.014zm-.357 2.096c-.626 0-1.13-.134-1.51-.4a2.74 2.74 0 01-.87-.962 3.788 3.788 0 01-.399-1.19 6.908 6.908 0 01-.1-1.084c0-.57.047-1.164.142-1.781.095-.618.236-1.22.421-1.804.185-.584.42-1.133.706-1.646a5.472 5.472 0 011.012-1.326c.333-.322.708-.58 1.126-.77.419-.19.897-.285 1.439-.285.629 0 1.13.122 1.505.363.374.244.663.543.862.9.199.355.33.733.392 1.132.061.4.092.76.092 1.083 0 .619-.046 1.25-.141 1.896a11.986 11.986 0 01-.428 1.868 9.158 9.158 0 01-.714 1.667 5.4 5.4 0 01-.998 1.312 3.5 3.5 0 01-1.125.763 3.577 3.577 0 01-1.398.264H61.4zm6.7-8.839a.917.917 0 01-.74-.342.922.922 0 01-.2-.798 1.38 1.38 0 01.491-.82c.262-.213.559-.32.89-.32h3.864c.152 0 .293.03.421.093a.89.89 0 01.321.256c.085.109.147.233.186.37a.914.914 0 01.013.421c-.066.333-.23.605-.492.82-.26.213-.558.32-.89.32h-.713l-1.454 7.527a1.42 1.42 0 01-.506.848c-.27.223-.583.334-.934.334a1.006 1.006 0 01-.955-.741.996.996 0 01-.014-.441l1.453-7.527h-.74zm8.14 6.743c.228 0 .435-.114.62-.342.186-.228.352-.525.499-.891a8.74 8.74 0 00.384-1.226 17.585 17.585 0 00.429-2.573c.034-.38.05-.685.05-.912 0-.105-.008-.221-.022-.35a1.104 1.104 0 00-.1-.356.827.827 0 00-.214-.278.523.523 0 00-.348-.114c-.22 0-.424.098-.613.292-.19.195-.362.454-.514.777a6.938 6.938 0 00-.4 1.105 15.429 15.429 0 00-.47 2.537c-.037.414-.056.782-.056 1.105 0 .114.007.242.022.385.013.143.046.276.099.4a.887.887 0 00.22.313c.096.085.23.128.4.128h.014zm-.356 2.096c-.628 0-1.132-.134-1.51-.4a2.741 2.741 0 01-.87-.962 3.785 3.785 0 01-.4-1.19 6.838 6.838 0 01-.1-1.084 12.135 12.135 0 01.563-3.585 8.93 8.93 0 01.706-1.646 5.472 5.472 0 011.012-1.326c.333-.322.708-.58 1.126-.77.419-.19.898-.285 1.44-.285.628 0 1.129.122 1.504.363.375.244.664.543.862.9.2.355.33.733.392 1.132.062.4.093.76.093 1.083 0 .619-.047 1.25-.142 1.896a11.986 11.986 0 01-.428 1.868 9.123 9.123 0 01-.713 1.667 5.45 5.45 0 01-.998 1.312 3.504 3.504 0 01-1.125.763 3.581 3.581 0 01-1.399.264h-.013zm9.151-5.916c.352 0 .639-.076.863-.229a1.72 1.72 0 00.527-.562c.128-.224.216-.464.264-.72.047-.257.07-.49.07-.699 0-.323-.078-.584-.234-.784-.157-.2-.392-.299-.706-.299h-.256a.503.503 0 00-.186.029l-.627 3.264h.285zm-2.181-2.452c.076-.39.206-.755.392-1.098.185-.342.415-.641.691-.897.276-.257.588-.457.934-.6.347-.142.72-.209 1.12-.198.18.009.379.028.598.056.219.029.44.076.662.142.224.067.44.16.65.278.208.12.398.27.57.45.246.266.426.584.534.955.11.37.164.698.164.983 0 .419-.045.806-.135 1.162a4.32 4.32 0 01-.855 1.726 3.772 3.772 0 01-.55.547 3.936 3.936 0 01-1.368.692 5.323 5.323 0 01-1.468.221h-.428l-.512 2.665a1.418 1.418 0 01-.493.828 1.37 1.37 0 01-.905.327.962.962 0 01-.941-.72.958.958 0 01-.014-.435l1.354-7.084zm11.876 7.07c-.02.324-.129.608-.329.855s-.46.38-.784.4a2.005 2.005 0 01-.235.014h-.25c-.494 0-.921-.07-1.282-.207a3.012 3.012 0 01-.912-.527 2.65 2.65 0 01-.6-.734 3.774 3.774 0 01-.342-.827 5.297 5.297 0 01-.157-.791 5.887 5.887 0 01-.042-.634c0-.723.054-1.388.164-1.997a9.84 9.84 0 01.442-1.667c.185-.503.405-.953.663-1.347.256-.394.532-.744.826-1.048a4.475 4.475 0 011.618-1.077 5.074 5.074 0 011.79-.334c.047 0 .092.002.135.007.043.005.087.007.135.007.152.01.283.055.392.136a.9.9 0 01.264.306.98.98 0 01.113.406c.01.147-.009.293-.056.435a1.017 1.017 0 01-.535.649c-.27.137-.558.22-.863.25-.227.018-.47.106-.726.263-.257.156-.48.359-.67.605-.314.428-.58.968-.799 1.618-.218.651-.328 1.414-.328 2.288 0 .619.102 1.114.307 1.49.204.375.544.563 1.02.563h.07a.96.96 0 01.692.242c.194.172.287.39.278.656z" fill="#EE403D"/><path d="M101.714 24.74c.371 0 .694.123.969.37.276.248.437.556.485.927.029.304.064.639.107 1.005l.129 1.097c.042.366.083.718.12 1.055.039.337.057.634.057.891h.086c.057-.257.143-.556.257-.898.114-.342.237-.699.37-1.069l.399-1.105c.133-.366.252-.7.357-1.005.133-.38.364-.686.691-.92a1.848 1.848 0 011.091-.349c.152 0 .289.039.413.115a.878.878 0 01.292.284.883.883 0 01.129.385.817.817 0 01-.079.428l-2.437 5.16a58.563 58.563 0 01-.97 1.96 8.925 8.925 0 01-1.04 1.59c-.333.39-.706.686-1.12.89a3.126 3.126 0 01-1.403.307.765.765 0 01-.414-.107.99.99 0 01-.442-.634 1.143 1.143 0 01-.014-.4.783.783 0 01.363-.584c.214-.142.44-.26.678-.356.238-.105.448-.276.634-.513.185-.237.325-.48.42-.728.048-.141.079-.263.093-.363a.844.844 0 00-.007-.292l-1.255-5.858a.955.955 0 01.008-.479 1.13 1.13 0 01.206-.412 1.055 1.055 0 01.827-.393zm8.682 0a.91.91 0 01.741.349c.19.233.257.501.2.806l-.684 3.506h.214l1.795-3.478c.18-.361.444-.649.791-.862a2.117 2.117 0 011.134-.322.67.67 0 01.377.107.733.733 0 01.235 1.019l-2.451 3.893c.208.218.373.579.491 1.083.119.503.202 1.202.251 2.095l.049.92c.014.27.031.515.049.734.029.303-.049.57-.235.798a.899.899 0 01-.733.342 1.377 1.377 0 01-.877-.32c-.12-.1-.216-.22-.293-.357a1.038 1.038 0 01-.128-.449 9.319 9.319 0 01-.035-.692c-.006-.252-.012-.53-.022-.833-.019-.665-.083-1.148-.192-1.447-.11-.3-.312-.45-.606-.45h-.071l-.7 3.393a1.474 1.474 0 01-.505.827c-.262.22-.563.328-.906.328a.952.952 0 01-.747-.35.97.97 0 01-.207-.805l1.667-8.68a1.4 1.4 0 01.493-.827c.261-.219.562-.329.905-.329zm8.396 5.203c.351 0 .639-.076.863-.229.223-.152.398-.34.526-.562a2.26 2.26 0 00.265-.72c.047-.257.071-.49.071-.699 0-.323-.078-.584-.236-.784-.156-.2-.392-.299-.705-.299h-.257a.499.499 0 00-.185.029l-.628 3.264h.286zm-2.181-2.452c.075-.39.206-.755.392-1.098a3.48 3.48 0 01.691-.897 3.08 3.08 0 01.933-.6 2.746 2.746 0 011.12-.198c.181.009.38.028.599.056.218.029.439.076.662.142.223.067.44.16.649.278.209.12.399.27.57.45.247.266.426.584.535.955.109.37.164.698.164.983 0 .419-.046.806-.135 1.162a4.304 4.304 0 01-.856 1.726 3.829 3.829 0 01-.548.547c-.4.314-.856.545-1.37.692a5.319 5.319 0 01-1.467.221h-.428l-.513 2.665a1.42 1.42 0 01-.492.828 1.37 1.37 0 01-.905.327.96.96 0 01-.941-.72.963.963 0 01-.015-.435l1.355-7.084zm10.462 2.024c.01-.152.019-.337.028-.556.01-.218.022-.451.036-.698l.043-.749c.015-.251.025-.477.035-.677h-.028c-.057.2-.123.426-.2.677-.076.252-.149.502-.221.75-.07.246-.142.479-.213.697-.072.219-.131.4-.179.542l-.784 2.266h1.383l.1-2.252zm-2.437 5.118a1.659 1.659 0 01-.614.798 1.629 1.629 0 01-.954.299.713.713 0 01-.379-.1.892.892 0 01-.27-.25.751.751 0 01-.079-.733l3.435-8.582c.162-.4.421-.72.778-.962a2.046 2.046 0 011.175-.363c.4 0 .735.138 1.006.413.271.276.406.613.406 1.012v8.396c0 .323-.112.599-.335.827a1.12 1.12 0 01-.834.342c-.162 0-.311-.03-.449-.093a1.127 1.127 0 01-.591-.62 1.042 1.042 0 01-.072-.456l.028-1.055h-1.852l-.399 1.127zm17.238-9.893c.152 0 .294.033.428.1.133.066.247.154.342.263a.946.946 0 01.2.378c.036.142.042.29.014.442l-.614 3.178h1.868l.599-3.178c.066-.343.234-.625.505-.849a1.43 1.43 0 01.935-.335.94.94 0 01.427.1.983.983 0 01.527.642.98.98 0 01.015.442l-1.64 8.624a1.416 1.416 0 01-.506.848c-.27.223-.582.335-.933.335a.934.934 0 01-.435-.1 1.118 1.118 0 01-.335-.264.933.933 0 01-.2-.377.98.98 0 01-.014-.442l.599-3.25h-1.825l-.627 3.25a1.427 1.427 0 01-.5.848 1.392 1.392 0 01-.926.335.93.93 0 01-.434-.1 1.106 1.106 0 01-.335-.264.933.933 0 01-.2-.377.98.98 0 01-.014-.442l1.653-8.624c.066-.343.233-.625.499-.849a1.4 1.4 0 01.927-.335zm9.992 4.775c.011-.152.02-.337.03-.556.009-.218.021-.451.035-.698.014-.247.029-.497.042-.749.015-.251.027-.477.036-.677h-.028c-.057.2-.124.426-.2.677-.076.252-.149.502-.221.75-.071.246-.143.479-.214.697-.071.219-.13.4-.178.542l-.783 2.266h1.382l.099-2.252zm-2.436 5.118a1.659 1.659 0 01-.614.798 1.63 1.63 0 01-.954.299.707.707 0 01-.378-.1.884.884 0 01-.271-.25.764.764 0 01-.136-.342.724.724 0 01.057-.391l3.435-8.582c.161-.4.422-.72.777-.962a2.049 2.049 0 011.176-.363c.4 0 .735.138 1.006.413.271.276.406.613.406 1.012v8.396c0 .323-.112.599-.335.827a1.122 1.122 0 01-.835.342 1.105 1.105 0 01-1.039-.712 1.027 1.027 0 01-.072-.457l.029-1.055h-1.853l-.399 1.127z" fill="#322F31"/></g><defs><clipPath id="clip0"><path fill="#fff" d="M0 0h154v36H0z"/></clipPath></defs></svg>