<svg width="194" height="80" fill="none" xmlns="http://www.w3.org/2000/svg"><path fill-rule="evenodd" clip-rule="evenodd" d="M60.672 7.64c-.625.894-1.291 1.847-2.1 2.657C72 15.44 81.713 28.582 81.427 43.44c0 19.714-16 35.714-35.714 35.714S10 63.154 10 43.44c0-3.143.286-6 1.143-8.857-1.429.285-2.572.285-3.715.285-.612 0-1.225-.082-1.793-.158-.492-.066-.952-.127-1.35-.127-2.285 0-4-2.286-3.714-4.572 0-2.286 2.286-4 4.572-3.714 2.857 0 6-.286 9.714-.857 5.428-.858 11.428-3.143 17.428-6 6.572-3.143 12.286-7.429 16.572-11.429 2.286-2 4-4 5.143-6 1.428-2 4-2.571 6-1.429 2 1.43 2.571 4 1.428 6-.25.334-.5.691-.756 1.059zM18.857 43.726c0 14.858 12.286 27.143 27.143 27.143 14.857 0 27.143-12.285 27.428-27.143 0-13.143-9.142-24-21.428-26.571-4.286 3.714-9.715 7.143-15.429 10-5.143 2.571-10.571 4.571-15.428 6a25.98 25.98 0 00-2.286 10.571z" fill="#F16226"/><path d="M46 54.583c5.996 0 10.857-4.861 10.857-10.858 0-5.996-4.861-10.857-10.857-10.857-5.996 0-10.857 4.861-10.857 10.857 0 5.997 4.86 10.858 10.857 10.858zm102.285 0c5.997 0 10.858-4.861 10.858-10.858 0-5.996-4.861-10.857-10.858-10.857-5.996 0-10.857 4.861-10.857 10.857 0 5.997 4.861 10.858 10.857 10.858z" fill="#F16226"/><path fill-rule="evenodd" clip-rule="evenodd" d="M179.143 25.44c3.714.857 6.857 1.142 9.714.857 2.286 0 4.571 1.428 4.286 4 .285 2.286-1.429 4.286-3.714 4.571-1.143.286-2 .286-3.143.286-.572 0-1.215-.072-1.858-.143-.642-.071-1.285-.143-1.857-.143.857 2.857 1.143 5.715 1.143 8.857 0 19.715-16 35.715-35.714 35.715s-35.714-16-35.714-35.715c0-15.428 9.714-28.285 23.143-33.428-.81-.81-1.476-1.763-2.101-2.656a39.383 39.383 0 00-.757-1.059c-1.142-2-.571-4.857 1.429-6 2-1.142 4.857-.571 6 1.43 1.143 1.999 3.143 3.999 5.143 5.999 4.286 4 10 8.286 16.571 11.429 6 2.857 12 4.857 17.429 6zm-30.857 45.428c14.857 0 27.143-12.285 27.143-27.143 0-3.714-.572-7.428-2-10.571-5.143-1.429-10.286-3.429-15.429-6-5.714-2.857-11.143-6.286-15.429-10-12.285 2.857-21.428 13.714-21.428 26.571 0 14.858 12.286 27.143 27.143 27.143z" fill="#F16226"/></svg>