<svg width="16" height="12" fill="none" xmlns="http://www.w3.org/2000/svg"><path d="M15.959 3.276a.47.47 0 00.04-.215.62.62 0 00-.176-.405.49.49 0 00-.375-.138c-.35.023-.606-.046-.725-.19-.133-.16-.125-.453-.09-.69l.38-.846a.54.54 0 00-.093-.621.523.523 0 00-.446-.168H5.075c-.787 0-1.616.685-1.968 1.356L.191 7.28v.002A1.627 1.627 0 000 8.05v2.384C0 11.298.655 12 1.46 12h10.185c.034 0 .061-.004.091-.006.018.002.036.006.054.006.12 0 .235-.056.314-.155a.37.37 0 00.072-.119l3.783-8.45zM3.84 1.786c.244-.465.833-.889 1.235-.889h8.965l-2.512 5.589H1.525l2.315-4.7zm5.583 9.32H1.46c-.345 0-.626-.301-.626-.67V8.05c0-.37.281-.671.626-.671h7.963a2.822 2.822 0 00-.69 1.863c0 .72.263 1.375.69 1.863zm.145-1.863c0-1.01.766-1.83 1.708-1.83.486 0 .848-.004.917-.346l1.88-4.182c.01.011.016.024.026.036.211.256.507.414.883.47l-3.44 7.686a8.237 8.237 0 00-.266-.004c-.942 0-1.708-.821-1.708-1.83z" fill="#fff"/></svg>