<svg width="63" height="67" fill="none" xmlns="http://www.w3.org/2000/svg"><g clip-path="url(#clip0)"><path d="M57.065 19.835c0-5.084-3.858-9.265-8.806-9.779-1.388-3.744-4.982-6.419-9.211-6.419a9.768 9.768 0 00-5.055 1.41A9.825 9.825 0 0025.407 0c-4.896 0-8.945 3.583-9.696 8.267a9.994 9.994 0 00-1.216-.082c-5.43 0-9.833 4.401-9.833 9.832 0 .266.02.527.04.788C1.95 20.547.117 23.61.117 27.11a9.808 9.808 0 003.665 7.651c-.01.177-.027.353-.027.532 0 5.43 4.401 9.833 9.832 9.833a9.786 9.786 0 004.51-1.1c1.874 1.344 4.555 3.027 5.854 2.692 0 0 .483 7.483.379 9.383-.199 3.616-1.284 7.64-2.047 10.898h11.822s-1.742-7.261-1.819-9.686c-.075-2.425.758-6.89.758-6.89l4.101-4.241a9.768 9.768 0 005.542 1.692c5.084 0 9.265-3.867 9.779-8.815 3.744-1.389 6.419-4.993 6.419-9.222a9.785 9.785 0 00-2.472-6.503 9.799 9.799 0 00.653-3.5zM20.368 42.403a9.878 9.878 0 001.954-2.608l1.93 4.044s-1.05.464-3.884-1.436zm7.218 2.497c-.999.181-2.7-2.895-3.907-5.395a9.775 9.775 0 004.457 1.076 9.8 9.8 0 001.217-.084c-.31 2.001-.858 4.237-1.767 4.403zm4.245 1.969c-2.311.641-.928-4.145-.265-6.916a9.657 9.657 0 001.383-.636 9.779 9.779 0 002.443 5.282c-1.126 1-2.423 1.954-3.561 2.27z" fill="#fff"/></g><defs><clipPath id="clip0"><path fill="#fff" d="M0 0h63v67H0z"/></clipPath></defs></svg>