<svg width="71" height="71" fill="none" xmlns="http://www.w3.org/2000/svg"><g clip-path="url(#clip0)" fill="#fff"><path d="M36.783 56.14a8.98 8.98 0 01-5.636-2.1l-10.412-9.171a4.585 4.585 0 00-5.923-.287L.005 55.472v7.069a3.44 3.44 0 003.535 3.63h52.444c2.102 0 4.203-1.529 4.203-3.63V44.009l-18.819 10.89a8.694 8.694 0 01-4.585 1.242zm-.764-18.532a4.203 4.203 0 100-8.406 4.203 4.203 0 000 8.406z"/><path d="M70.122 12.294a3.535 3.535 0 00-2.58-1.433l-52.06-6.018a4.394 4.394 0 00-2.866.764 4.394 4.394 0 00-1.433 2.484l-.86 7.451h45.662a8.215 8.215 0 018.025 7.929v33.72c0-.19.86-.382 1.241-.764a3.248 3.248 0 001.242-2.579l4.49-38.784a3.727 3.727 0 00-.86-2.77z"/><path d="M55.984 19.363H3.54c-2.102 0-3.535 2.006-3.535 4.107v27.225l12.61-9.17a8.406 8.406 0 0110.603.477l10.508 9.171a4.872 4.872 0 005.636.478l20.825-12.132V23.47a4.394 4.394 0 00-4.203-4.107zM36.019 41.429a8.024 8.024 0 110-16.048 8.024 8.024 0 010 16.048z"/></g><defs><clipPath id="clip0"><path fill="#fff" d="M0 0h71v71H0z"/></clipPath></defs></svg>