<svg width="65" height="65" fill="none" xmlns="http://www.w3.org/2000/svg"><path d="M34.506 22.415c-.65-.13-1.32-.198-2.006-.198-5.67 0-10.283 4.613-10.283 10.283 0 5.67 4.613 10.283 10.283 10.283 5.67 0 10.283-4.613 10.283-10.283 0-.686-.069-1.357-.198-2.006L36.54 36.54a5.676 5.676 0 01-4.04 1.673 5.676 5.676 0 01-4.04-1.673 5.676 5.676 0 01-1.673-4.04c0-1.526.594-2.96 1.673-4.04l6.046-6.045z" fill="#fff"/><path d="M62.092 19.067l-4.098 4.097c-.41.41-.872.75-1.37 1.014a25.417 25.417 0 011.394 8.322c0 14.07-11.447 25.518-25.518 25.518-14.07 0-25.518-11.447-25.518-25.518C6.982 18.43 18.43 6.982 32.5 6.982c2.913 0 5.714.493 8.325 1.396.264-.5.602-.964 1.011-1.373l4.097-4.096A32.309 32.309 0 0032.5 0C14.58 0 0 14.58 0 32.5S14.58 65 32.5 65 65 50.42 65 32.5c0-4.788-1.041-9.337-2.908-13.433z" fill="#fff"/><path d="M40.588 16.332l-.347-4.114a21.587 21.587 0 00-7.741-1.427c-11.97 0-21.709 9.739-21.709 21.709 0 11.97 9.739 21.709 21.709 21.709 11.97 0 21.709-9.739 21.709-21.709 0-2.726-.505-5.335-1.427-7.741l-4.114-.347-3.02 3.019c.61 1.574.944 3.283.944 5.069 0 7.77-6.322 14.092-14.092 14.092-7.77 0-14.092-6.322-14.092-14.092 0-7.77 6.322-14.092 14.092-14.092 1.786 0 3.495.335 5.07.944l3.018-3.02z" fill="#fff"/><path d="M43.978 11.205l.554 6.57-13.378 13.378a1.904 1.904 0 102.692 2.693l13.38-13.378 6.569.553a1.907 1.907 0 001.506-.55l8.08-8.08a1.904 1.904 0 00-1.187-3.244l-5.849-.493-.493-5.848a1.904 1.904 0 00-3.244-1.187l-8.079 8.08a1.904 1.904 0 00-.551 1.506z" fill="#fff"/></svg>