<svg width="61" height="61" fill="none" xmlns="http://www.w3.org/2000/svg"><path d="M41.73 39.055l1.794-3.106 4.897 2.827a19.589 19.589 0 001.738-6.483h-5.655v-3.586h5.655a19.588 19.588 0 00-1.738-6.483l-4.897 2.827-1.793-3.106 4.892-2.824a19.908 19.908 0 00-4.744-4.744l-2.824 4.892-3.106-1.793 2.827-4.897a19.584 19.584 0 00-6.483-1.738v5.655h-3.586v-5.655c-2.296.207-4.48.81-6.483 1.738l2.827 4.897-3.106 1.793-2.824-4.892a19.908 19.908 0 00-4.744 4.744l4.892 2.824-1.793 3.106-4.897-2.827a19.586 19.586 0 00-1.738 6.483h5.655v3.586h-5.655c.207 2.296.81 4.48 1.738 6.483l4.897-2.827 1.793 3.105-4.892 2.825c3.578 5.056 9.472 8.363 16.123 8.363 6.651 0 12.545-3.307 16.123-8.363l-4.892-2.824zm-11.212-3.431a5.268 5.268 0 01-5.198-6.075c-1.318-.714-3.427-1.844-4.89-2.626l1.689-3.163s4.396 2.358 4.932 2.65a5.238 5.238 0 013.467-1.31 5.268 5.268 0 015.262 5.262 5.268 5.268 0 01-5.262 5.262z" fill="#fff"/><path d="M30.518 32.038a1.676 1.676 0 100-3.351 1.676 1.676 0 000 3.35z" fill="#fff"/><path d="M52.067 8.933C46.307 3.173 38.647 0 30.5 0S14.694 3.172 8.933 8.933C3.173 14.693 0 22.353 0 30.5s3.172 15.806 8.933 21.567C14.693 57.827 22.353 61 30.5 61s15.806-3.173 21.567-8.933C57.827 46.307 61 38.647 61 30.5s-3.172-15.806-8.933-21.567zM30.5 53.828c-12.863 0-23.328-10.465-23.328-23.328S17.637 7.172 30.5 7.172 53.828 17.637 53.828 30.5 43.363 53.828 30.5 53.828z" fill="#fff"/></svg>