<svg width="68" height="68" fill="none" xmlns="http://www.w3.org/2000/svg"><path d="M64.326 64.016V0H53.173L38.33 15.55v48.466h-3.985V19.09L19.524 34.618v29.398H9.364V59.8c3.099-.872 5.378-3.721 5.378-7.095 0-4.065-3.306-7.372-7.37-7.372C3.306 45.333 0 48.64 0 52.704c0 3.374 2.28 6.224 5.379 7.096v4.216H0V68h68v-3.984h-3.674zm-35.393-7.35H24.95V51h3.984v5.667zm0-12.75H24.95V38.25h3.984v5.667zm20.621 12.75H45.57V51h3.984v5.667zm0-12.75H45.57V38.25h3.984v5.667zm0-12.75H45.57V25.5h3.984v5.667zm7.531 25.5h-3.984V51h3.984v5.667zm0-12.75h-3.984V38.25h3.984v5.667zm0-12.75h-3.984V25.5h3.984v5.667zm0-12.75h-3.984V12.75h3.984v5.667z" fill="#fff"/></svg>