<svg width="73" height="73" fill="none" xmlns="http://www.w3.org/2000/svg"><g clip-path="url(#clip0)" fill="#2689FE"><path d="M63.676 17.736L46.567.626A2.147 2.147 0 0045.055 0H15.113a6.423 6.423 0 00-6.416 6.416v60.168A6.423 6.423 0 0015.113 73h42.774a6.423 6.423 0 006.416-6.416V19.248c0-.583-.245-1.13-.627-1.512zM47.193 7.302l9.808 9.807h-7.669a2.14 2.14 0 01-2.139-2.138V7.3zm10.694 61.42H15.113a2.14 2.14 0 01-2.138-2.138V6.416a2.14 2.14 0 012.138-2.139h27.803v10.694a6.423 6.423 0 006.416 6.416h10.693v45.197a2.14 2.14 0 01-2.138 2.139z"/><path d="M34.127 43.616c0-1.35.3-2.461.9-3.336.624-.899 1.523-1.873 2.698-2.923.9-.8 1.561-1.486 1.986-2.06.45-.6.675-1.275.675-2.025 0-1.049-.425-1.898-1.275-2.548-.85-.65-1.986-.974-3.41-.974-2.698 0-4.734.962-6.108 2.885l-3.636-2.36c1.075-1.475 2.461-2.599 4.16-3.373 1.699-.8 3.698-1.2 5.996-1.2 2.798 0 5.022.612 6.671 1.837 1.674 1.199 2.51 2.86 2.51 4.984 0 1.024-.174 1.924-.524 2.698-.325.775-.724 1.437-1.199 1.986-.475.525-1.1 1.137-1.874 1.837-.95.85-1.661 1.599-2.136 2.248-.45.65-.675 1.424-.675 2.324h-4.759zm2.398 8.956c-.874 0-1.599-.274-2.173-.824-.55-.575-.825-1.274-.825-2.099 0-.824.275-1.511.825-2.06.575-.55 1.3-.825 2.174-.825.849 0 1.548.275 2.098.824.575.55.862 1.237.862 2.061 0 .825-.287 1.524-.862 2.099-.55.55-1.249.825-2.099.825z"/></g><defs><clipPath id="clip0"><path fill="#fff" d="M0 0h73v73H0z"/></clipPath></defs></svg>