<svg width="73" height="73" fill="none" xmlns="http://www.w3.org/2000/svg"><g clip-path="url(#clip0)" fill="#2689FE"><path d="M52.939 4.613a2.385 2.385 0 00-2.652.164l-6.411 4.914-5.357-8.57A2.38 2.38 0 0036.537.002c-.806-.036-1.566.386-2.015 1.056L28.754 9.68l-5.987-4.861a2.383 2.383 0 00-3.857 2.188l2.301 15.949a2.38 2.38 0 002.356 2.04h25.866c1.183 0 2.187-.87 2.358-2.041l2.3-15.948a2.38 2.38 0 00-1.152-2.394zM47.37 20.236H25.628l-1.137-7.883 3.288 2.67a2.38 2.38 0 003.478-.524l5.175-7.734 4.794 7.67a2.378 2.378 0 003.467.628l3.85-2.951-1.172 8.124z"/><path d="M49.02 21.198l-3.936 2.677c1.117 1.641 1.73 3.674 1.73 5.724 0 5.687-4.627 10.314-10.314 10.314S26.185 35.286 26.185 29.6c0-2.004.583-3.975 1.688-5.7l-4.01-2.566a15.319 15.319 0 00-2.438 8.266c0 8.312 6.762 15.075 15.075 15.075 8.313 0 15.076-6.762 15.076-15.075 0-3.039-.884-5.944-2.555-8.4zM36.5 44.912c-13.926 0-24.835 11.292-24.835 25.708a2.38 2.38 0 104.76 0c0-11.942 8.631-20.947 20.075-20.947 11.444 0 20.074 9.004 20.074 20.947a2.38 2.38 0 104.76 0c0-14.416-10.907-25.708-24.834-25.708z"/></g><defs><clipPath id="clip0"><path fill="#fff" d="M0 0h73v73H0z"/></clipPath></defs></svg>