<svg width="73" height="73" fill="none" xmlns="http://www.w3.org/2000/svg"><path d="M65.368 12.84h-1.34c-1.559-6.036-8.865-8.439-13.71-4.464C45.992 3.307 39.58.072 32.42.013c-15.662-.54-28.5 15.902-22.5 32.073H8.701A6.422 6.422 0 002.286 38.5 6.422 6.422 0 008.7 44.916h10.023c1.757 3.498 1.444 6.264 1.571 6.86l.36 1.693h5.153v4.562H21.53v8.601A6.375 6.375 0 0027.9 73h8.648a6.375 6.375 0 006.368-6.368v-8.6h-4.277v-4.563h5.154c.34-1.759.412-1.659.407-2.269a14.062 14.062 0 014.425-10.194c4.72-4.497 7.442-10.658 7.374-17.469.637.01 1.854.005 9.37-.005a5.352 5.352 0 005.346-5.346 5.352 5.352 0 00-5.346-5.346zM34.144 5.797c3.82 5.545 5.53 22.36 1.509 32.898-1.386 3.633-1.82 7.773-1.944 10.498H30.74c-.171-3.945-.848-7.616-1.948-10.5-3.846-10.079-2.463-26.624 1.324-32.597.458-.722 1.295-1.811 2.148-1.808.743.02 1.495.95 1.88 1.509zM6.563 38.5c0-1.18.96-2.139 2.138-2.139h3.324a23.968 23.968 0 003.422 4.277H8.7A2.14 2.14 0 016.562 38.5zm12.207-.593C8.248 27.878 12.064 10.44 25.593 5.464c-3.926 8.143-4.722 24.464-.796 34.754.91 2.385 1.494 5.578 1.66 8.975H24.4c-.339-2.802-1.546-7.393-5.63-11.285zm19.87 28.725a2.094 2.094 0 01-2.092 2.091H27.9a2.093 2.093 0 01-2.09-2.09v-4.325h12.83v4.324zm-8.554-8.6v-4.563h4.277v4.562h-4.277zM45.674 37.91c-4.08 3.887-5.303 8.38-5.637 11.283h-2.044c.12-2.343.5-5.947 1.655-8.973 3.97-10.401 3.09-26.718-.792-34.769 13.68 4.964 17.251 22.518 6.818 32.459zm19.702-18.655c-6.137-.066-8.563.054-9.81-.008a23.612 23.612 0 00-2.765-7.364c2.721-2.58 7.221-.658 7.221 3.096v2.138h5.346a1.07 1.07 0 01.008 2.138z" fill="#2689FE"/><path d="M62.16 42.778a6.422 6.422 0 00-6.414 6.415h4.276c0-1.18.96-2.139 2.139-2.139 1.179 0 2.138.96 2.138 2.139a2.14 2.14 0 01-2.138 2.138H49.33v4.277h12.83a6.422 6.422 0 006.415-6.415 6.422 6.422 0 00-6.415-6.415zM4.424 55.608h10.692v4.277H4.424v-4.277z" fill="#2689FE"/></svg>