<svg width="1142" height="352" fill="none" xmlns="http://www.w3.org/2000/svg"><path d="M1 350l66.205-56.271c11.467-9.747 28.382-9.488 39.546.604l38.053 34.398c11.553 10.443 29.175 10.31 40.569-.306l121.718-113.414c11.783-10.979 30.133-10.696 41.571.642l41.503 41.14c11.278 11.179 29.312 11.634 41.139 1.038L554.929 147.07c12.112-10.851 30.664-10.077 41.83 1.746l25.679 27.19c10.427 11.04 27.46 12.548 39.664 3.511L801.593 76.222c12.158-9.003 29.118-7.545 39.56 3.402l27.186 28.497c10.56 11.07 27.758 12.42 39.916 3.134L1043.54 7.933c11.94-9.123 28.79-7.999 39.42 2.628L1140.9 68.5" stroke="#C4DCFF" stroke-width="3"/></svg>