<svg width="1192" height="446" fill="none" xmlns="http://www.w3.org/2000/svg"><path d="M116.162 342.282L60.035 391.43C39.199 409.675 52.103 444 79.798 444H1160.5c16.57 0 30-13.431 30-30V129.438c0-7.963-3.17-15.6-8.8-21.227l-49.74-49.674c-10.63-10.615-27.47-11.733-39.41-2.615L957.255 159.255c-12.158 9.286-29.356 7.936-39.916-3.134l-27.186-28.497c-10.442-10.947-27.402-12.405-39.56-3.402L711.102 227.517c-12.204 9.037-29.237 7.529-39.664-3.511l-25.679-27.19c-11.166-11.823-29.718-12.597-41.83-1.746L480.304 305.831c-11.827 10.596-29.861 10.141-41.139-1.038l-41.503-41.14c-11.438-11.338-29.788-11.621-41.571-.642L234.373 376.425c-11.394 10.616-29.016 10.749-40.569.306l-37.761-34.134c-11.289-10.205-28.432-10.341-39.881-.315z" fill="#C4DCFF" stroke="#C4DCFF" stroke-width="3"/><path d="M50 358l66.205-56.271c11.467-9.747 28.382-9.488 39.546.604l38.053 34.398c11.553 10.443 29.175 10.31 40.569-.306l121.718-113.414c11.783-10.979 30.133-10.696 41.571.642l41.503 41.14c11.278 11.179 29.312 11.634 41.139 1.038L603.929 155.07c12.112-10.851 30.664-10.077 41.83 1.746l25.679 27.19c10.427 11.04 27.46 12.548 39.664 3.511L850.593 84.222c12.158-9.003 29.118-7.545 39.56 3.402l27.186 28.497c10.56 11.07 27.758 12.42 39.916 3.134L1092.54 15.933c11.94-9.123 28.79-7.999 39.42 2.628L1189.9 76.5" stroke="#C4DCFF" stroke-width="3"/><circle cx="133" cy="296" r="10" fill="#C4DCFF"/><circle cx="374" cy="215" r="10" fill="#C4DCFF"/><circle cx="623" cy="147" r="10" fill="#C4DCFF"/><circle cx="867" cy="79" r="10" fill="#C4DCFF"/><circle cx="1110" cy="10" r="10" fill="#C4DCFF"/><circle cx="133" cy="296" r="5" fill="#2689FE"/><circle cx="374" cy="215" r="5" fill="#2689FE"/><circle cx="623" cy="147" r="5" fill="#2689FE"/><circle cx="867" cy="79" r="5" fill="#2689FE"/><circle cx="1110" cy="10" r="5" fill="#2689FE"/></svg>