<svg width="1144" height="398" fill="none" xmlns="http://www.w3.org/2000/svg"><path d="M68.162 294.282L12.035 343.43C-8.801 361.675 4.103 396 31.798 396H1112.5c16.57 0 30-13.431 30-30V81.438c0-7.963-3.17-15.6-8.8-21.227l-49.74-49.674c-10.63-10.615-27.47-11.733-39.41-2.615L909.255 111.255c-12.158 9.286-29.356 7.936-39.916-3.134l-27.186-28.497c-10.442-10.947-27.402-12.405-39.56-3.402L663.102 179.517c-12.204 9.037-29.237 7.529-39.664-3.511l-25.679-27.19c-11.166-11.823-29.718-12.597-41.83-1.746L432.304 257.831c-11.827 10.596-29.861 10.141-41.139-1.038l-41.503-41.14c-11.438-11.338-29.788-11.621-41.571-.642L186.373 328.425c-11.394 10.616-29.016 10.749-40.569.306l-37.761-34.134c-11.29-10.205-28.432-10.341-39.88-.315z" fill="#C4DCFF" stroke="#C4DCFF" stroke-width="3"/></svg>