<svg width="91" height="91" fill="none" xmlns="http://www.w3.org/2000/svg"><path d="M74.826 72.16H16.174c-4.275 0-8.317-1.658-11.383-4.668C1.701 64.458 0 60.435 0 56.164c0-4.271 1.702-8.294 4.791-11.328a16.179 16.179 0 018.719-4.45 11.245 11.245 0 01-.002-.218c0-11.76 9.568-21.328 21.328-21.328a21.11 21.11 0 0112.12 3.797 21.362 21.362 0 016.148 6.584 15.868 15.868 0 018.392-2.383c7.978 0 14.61 5.87 15.804 13.518a16.173 16.173 0 018.909 4.48C89.299 47.87 91 51.893 91 56.164c0 4.271-1.702 8.294-4.791 11.328-3.066 3.01-7.108 4.668-11.383 4.668zM16.174 45.5c-5.978 0-10.842 4.784-10.842 10.664s4.864 10.664 10.842 10.664h58.652c5.978 0 10.842-4.784 10.842-10.664S80.804 45.5 74.826 45.5H72.16v-2.666c0-5.88-4.784-10.664-10.664-10.664a10.597 10.597 0 00-7.464 3.063l-2.87 2.818-1.477-3.74c-2.433-6.16-8.262-10.14-14.85-10.14-8.82 0-15.995 7.177-15.995 15.997 0 .63.099 1.306.203 2.022l.478 3.31h-3.347z" fill="#2689FE"/></svg>