<svg width="66" height="66" fill="none" xmlns="http://www.w3.org/2000/svg"><g clip-path="url(#clip0)" fill="#2689FE"><path d="M33 34.934c-5.33 0-9.667 4.337-9.667 9.667 0 5.331 4.337 9.668 9.667 9.668 5.331 0 9.668-4.337 9.668-9.668 0-5.33-4.337-9.667-9.668-9.667zm0 15.468a5.807 5.807 0 01-5.8-5.8c0-3.2 2.602-5.801 5.8-5.801a5.807 5.807 0 015.801 5.8 5.807 5.807 0 01-5.8 5.801z"/><path d="M66 17.396v-3.86c0-3.198-2.603-5.8-5.801-5.8H31.523c-.737 0-1.4-.41-1.73-1.07l-1.73-3.458A5.769 5.769 0 0022.877 0H5.8A5.808 5.808 0 000 5.8v46.632a5.68 5.68 0 001.658 4.03c1.074 1.081 2.505 1.65 4.031 1.65h10.767l4.24 4.266a1.933 1.933 0 002.734 0l2.072-2.072c.553.265 1.12.5 1.698.705v3.057c0 1.068.866 1.934 1.933 1.934h7.735a1.934 1.934 0 001.933-1.934V61.01c.578-.204 1.145-.44 1.698-.705l2.072 2.072c.755.755 1.98.755 2.735 0l4.239-4.24H60.2c3.198 0 5.8-2.602 5.8-5.8V17.395zM44.956 53.824l1.717 1.717-2.735 2.734-1.717-1.717a1.934 1.934 0 00-2.352-.297 13.45 13.45 0 01-3.485 1.449c-.854.22-1.45.99-1.45 1.872v2.551h-3.867v-2.551c0-.882-.597-1.652-1.45-1.872a13.447 13.447 0 01-3.486-1.449 1.934 1.934 0 00-2.352.297l-1.717 1.717-2.734-2.735 1.717-1.717a1.934 1.934 0 00.297-2.352 13.443 13.443 0 01-1.449-3.485 1.934 1.934 0 00-1.872-1.45h-2.423v-3.867h2.423c.882 0 1.652-.597 1.872-1.45a13.447 13.447 0 011.449-3.486c.45-.76.327-1.728-.297-2.352l-1.717-1.717 2.734-2.734 1.717 1.717a1.934 1.934 0 002.352.296 13.45 13.45 0 013.486-1.448c.853-.22 1.45-.99 1.45-1.872V27.2h3.867v2.423c0 .882.596 1.652 1.45 1.872 1.222.316 2.395.803 3.485 1.449.76.45 1.728.327 2.352-.297l1.717-1.717 2.735 2.734-1.717 1.717a1.934 1.934 0 00-.297 2.352 13.436 13.436 0 011.448 3.486c.22.853.99 1.45 1.872 1.45h2.423v3.867H47.98c-.881 0-1.651.596-1.872 1.45a13.447 13.447 0 01-1.448 3.486c-.45.76-.328 1.727.297 2.352zm17.176-1.487A1.935 1.935 0 0160.2 54.27h-.055l-9.282.026a1.604 1.604 0 00-.088-.097l-2.071-2.098c.265-.553.5-1.12.705-1.698h2.928a1.934 1.934 0 001.934-1.933v-7.735a1.934 1.934 0 00-1.934-1.933h-2.928a17.313 17.313 0 00-.705-1.699l2.071-2.071a1.934 1.934 0 000-2.735l-5.469-5.469a1.934 1.934 0 00-2.734 0L40.499 28.9a17.71 17.71 0 00-1.698-.706v-2.927a1.934 1.934 0 00-1.934-1.934h-7.734a1.934 1.934 0 00-1.934 1.934v2.927c-.578.205-1.144.44-1.698.706l-2.072-2.072a1.934 1.934 0 00-2.734 0l-5.47 5.47a1.934 1.934 0 000 2.734l2.072 2.072c-.265.553-.5 1.12-.705 1.698h-2.928a1.934 1.934 0 00-1.934 1.933v7.735c0 1.068.866 1.933 1.934 1.933h2.928c.205.578.44 1.145.706 1.698l-2.072 2.072c-.031.031-.06.064-.088.097h-9.45c-.487 0-.945-.19-1.287-.534a1.838 1.838 0 01-.534-1.305V19.337h58.265v33zm0-36.867H3.867V5.802c0-1.066.868-1.934 1.934-1.934h17.075c.737 0 1.4.41 1.73 1.07l1.729 3.458a5.77 5.77 0 005.188 3.207h28.676c1.066 0 1.934.867 1.934 1.933v1.934z"/></g><defs><clipPath id="clip0"><path fill="#fff" d="M0 0h66v66H0z"/></clipPath></defs></svg>