<svg width="63" height="63" fill="none" xmlns="http://www.w3.org/2000/svg"><path d="M21.656 17.227h5.537v14.15c0 1.02.827 1.846 1.846 1.846h24.61a1.846 1.846 0 001.845-1.846V9.229c0-1.02-.826-1.846-1.846-1.846H29.04c-.432 0-.85.151-1.181.428l-7.383 6.152a1.846 1.846 0 001.181 3.264zm8.051-6.153h22.096v18.457H30.885v-14.15c0-1.02-.827-1.846-1.846-1.846h-2.285l2.953-2.46z" fill="#2689FE"/><path d="M36.422 18.457h9.844a1.846 1.846 0 000-3.691h-9.844a1.846 1.846 0 000 3.691zm0 7.383h9.844a1.846 1.846 0 000-3.692h-9.844a1.846 1.846 0 000 3.692z" fill="#2689FE"/><path d="M57.463 0H5.537A5.543 5.543 0 000 5.537v39.621a5.543 5.543 0 005.537 5.537h16.624a15.756 15.756 0 01-3.328 7.958l-.525.656h-4.035a1.846 1.846 0 000 3.691h34.454a1.846 1.846 0 000-3.691h-4.035l-.525-.656a15.757 15.757 0 01-3.328-7.958h16.624A5.543 5.543 0 0063 45.158V5.538A5.543 5.543 0 0057.463 0zM5.537 3.691h51.926c1.018 0 1.846.828 1.846 1.846v32.608H25.963v-.616a9.227 9.227 0 00-4.228-7.75 6.74 6.74 0 001.767-4.554 6.775 6.775 0 00-6.768-6.768 6.775 6.775 0 00-6.767 6.768 6.74 6.74 0 001.766 4.554 9.227 9.227 0 00-4.227 7.75v.615H3.69V5.538c0-1.018.828-1.846 1.846-1.846zm8.121 21.534a3.08 3.08 0 013.076-3.077 3.08 3.08 0 013.076 3.077 3.08 3.08 0 01-3.076 3.076 3.08 3.08 0 01-3.076-3.076zm3.076 6.767a5.543 5.543 0 015.537 5.537v.615H11.197v-.615a5.543 5.543 0 015.537-5.537zM40.102 59.31H22.898a19.494 19.494 0 002.976-8.614h11.252a19.494 19.494 0 002.976 8.614zm17.36-12.305H5.538a1.848 1.848 0 01-1.846-1.846v-3.322H59.31v3.322a1.848 1.848 0 01-1.846 1.846z" fill="#2689FE"/></svg>