<svg width="65" height="65" fill="none" xmlns="http://www.w3.org/2000/svg"><path d="M63.096 53.574h-.762V51.67c0-5.121-2.904-9.577-7.15-11.808a9.501 9.501 0 003.341-7.235c0-5.25-4.27-9.522-9.521-9.522-5.25 0-9.522 4.272-9.522 9.522a9.502 9.502 0 003.342 7.235c-4.247 2.231-7.15 6.687-7.15 11.808v1.904H24.986l-1.27-3.808H32.5a1.904 1.904 0 001.904-1.905V28.818a1.904 1.904 0 00-1.904-1.904H2.031a1.904 1.904 0 00-1.904 1.904v19.043c0 1.052.853 1.905 1.904 1.905h8.784l-1.27 3.808h-7.64A1.904 1.904 0 000 55.478v7.618C0 64.147.853 65 1.904 65h61.192A1.904 1.904 0 0065 63.096v-7.617a1.904 1.904 0 00-1.904-1.905zM43.29 32.627a5.72 5.72 0 015.713-5.713 5.72 5.72 0 015.713 5.713 5.72 5.72 0 01-5.713 5.713 5.72 5.72 0 01-5.713-5.713zM39.482 51.67c0-5.25 4.272-9.522 9.522-9.522s9.521 4.272 9.521 9.522v1.904H39.482V51.67zM3.936 30.723h26.66v15.234H3.936V30.723zM14.83 49.766h4.872l1.27 3.808H13.56l1.27-3.808zM61.19 61.19H3.81v-3.808h57.38v3.808z" fill="#2689FE"/><path d="M14.727 19.043h15.927l7.137 4.758a1.903 1.903 0 002.961-1.584v-3.174h1.904A4.448 4.448 0 0047.1 14.6V4.443A4.448 4.448 0 0042.656 0h-27.93a4.448 4.448 0 00-4.443 4.443V14.6a4.448 4.448 0 004.444 4.443zm-.635-14.6c0-.35.285-.634.635-.634h27.93c.35 0 .634.284.634.634V14.6c0 .35-.285.634-.635.634h-3.808a1.904 1.904 0 00-1.905 1.905v1.52l-4.656-3.105a1.904 1.904 0 00-1.056-.32H14.726a.636.636 0 01-.635-.634V4.443z" fill="#2689FE"/><path d="M19.805 11.426h17.773a1.904 1.904 0 000-3.809H19.805a1.904 1.904 0 000 3.809z" fill="#2689FE"/></svg>