<svg width="65" height="65" fill="none" xmlns="http://www.w3.org/2000/svg"><path d="M58.83 54.21a7.573 7.573 0 001.346-4.317c0-4.2-3.417-7.618-7.617-7.618s-7.618 3.417-7.618 7.618c0 1.57.479 3.032 1.297 4.246a12.629 12.629 0 00-3.75 3.31 12.63 12.63 0 00-3.692-3.274 7.57 7.57 0 001.321-4.282c0-4.2-3.417-7.618-7.617-7.618s-7.617 3.417-7.617 7.618a7.57 7.57 0 001.321 4.282 12.624 12.624 0 00-3.691 3.274 12.614 12.614 0 00-3.572-3.204 7.57 7.57 0 001.372-4.352c0-4.2-3.417-7.618-7.618-7.618-4.2 0-7.617 3.417-7.617 7.618 0 1.556.47 3.004 1.275 4.211C2.563 56.261 0 60.337 0 65h5.078c0-4.107 3.341-7.448 7.448-7.448s7.448 3.341 7.448 7.448h5.078c0-4.107 3.341-7.448 7.448-7.448s7.448 3.341 7.448 7.448h5.078c0-4.107 3.341-7.448 7.448-7.448s7.448 3.341 7.448 7.448H65c0-4.589-2.48-8.608-6.17-10.79zm-46.135-6.857c1.4 0 2.54 1.14 2.54 2.54 0 1.4-1.14 2.539-2.54 2.539-1.4 0-2.539-1.14-2.539-2.54 0-1.4 1.14-2.539 2.54-2.539zm19.805 0c1.4 0 2.54 1.14 2.54 2.54 0 1.4-1.14 2.539-2.54 2.539-1.4 0-2.54-1.14-2.54-2.54 0-1.4 1.14-2.539 2.54-2.539zm20.059 0c1.4 0 2.539 1.14 2.539 2.54 0 1.4-1.14 2.539-2.54 2.539-1.4 0-2.538-1.14-2.538-2.54 0-1.4 1.139-2.539 2.539-2.539zM12.822 15.234c4.2 0 7.617-3.416 7.617-7.617 0-4.2-3.416-7.617-7.617-7.617-4.2 0-7.617 3.417-7.617 7.617s3.417 7.617 7.617 7.617zm0-10.156c1.4 0 2.54 1.14 2.54 2.54 0 1.4-1.14 2.538-2.54 2.538a2.542 2.542 0 01-2.539-2.539c0-1.4 1.14-2.539 2.54-2.539zm-7.744 32.12H0V25.263c0-4.2 3.417-7.617 7.617-7.617h31.611v5.078H20.312v14.472h-5.078V22.725H7.617a2.542 2.542 0 00-2.539 2.539v11.933zM65 32.118v5.078H25.39V32.12h30.723V7.617c0-1.4-1.139-2.539-2.539-2.539H25.518V0h28.056c4.2 0 7.617 3.417 7.617 7.617V32.12H65z" fill="#2689FE"/></svg>