<svg width="149" height="80" fill="none" xmlns="http://www.w3.org/2000/svg"><path d="M63.182 57.638a1.38 1.38 0 01.516-1.884l57.879-32.852a1.378 1.378 0 011.874.51l4.607 7.984a1.38 1.38 0 01-.5 1.881L70.019 66.812a1.378 1.378 0 01-1.89-.507l-4.947-8.667z" fill="url(#paint0_linear)"/><path d="M148.31 14a.69.69 0 01.597 1.034l-18.71 32.422a.688.688 0 01-1.193 0l-18.709-32.422a.69.69 0 01.596-1.034h37.419z" fill="url(#paint1_linear)"/><path d="M14.148 70.917c-3.744 0-6.66-1.02-8.748-3.06-2.064-2.04-3.096-4.932-3.096-8.676V45.213h7.128v13.752c0 4.032 1.596 6.048 4.788 6.048 3.168 0 4.752-2.016 4.752-6.048V45.213h7.02v13.968c0 3.744-1.044 6.636-3.132 8.676-2.064 2.04-4.968 3.06-8.712 3.06zm28.193-25.704c2.28 0 4.26.384 5.94 1.152 1.68.744 2.976 1.824 3.888 3.24.912 1.392 1.368 3.036 1.368 4.932 0 1.896-.456 3.54-1.368 4.932-.912 1.392-2.208 2.472-3.888 3.24-1.68.744-3.66 1.116-5.94 1.116h-4.392v6.588H30.82v-25.2h11.52zm-.432 12.996c1.464 0 2.568-.312 3.312-.936.744-.648 1.116-1.56 1.116-2.736 0-1.176-.372-2.088-1.116-2.736-.744-.648-1.848-.972-3.312-.972h-3.96v7.38h3.96zm34.139 12.384c-2.472 0-4.704-.552-6.696-1.656a12.404 12.404 0 01-4.68-4.572c-1.128-1.944-1.692-4.128-1.692-6.552 0-2.424.564-4.608 1.692-6.552a12.404 12.404 0 014.68-4.572c1.992-1.104 4.224-1.656 6.696-1.656 1.824 0 3.504.3 5.04.9 1.536.576 2.844 1.44 3.924 2.592l-1.152 1.188c-2.016-1.992-4.596-2.988-7.74-2.988-2.112 0-4.032.48-5.76 1.44a10.5 10.5 0 00-4.068 3.996c-.984 1.68-1.476 3.564-1.476 5.652s.492 3.984 1.476 5.688c.984 1.68 2.34 3 4.068 3.96 1.728.96 3.648 1.44 5.76 1.44 3.12 0 5.7-1.008 7.74-3.024l1.152 1.188c-1.08 1.152-2.4 2.028-3.96 2.628-1.536.6-3.204.9-5.004.9zm32.61-.18l-6.012-8.424c-.888.12-1.704.18-2.448.18h-7.2v8.244H91.16v-25.2h9.037c3.168 0 5.652.756 7.452 2.268 1.8 1.488 2.7 3.564 2.7 6.228 0 1.992-.516 3.672-1.548 5.04-1.008 1.344-2.46 2.292-4.356 2.844l6.3 8.82h-2.088zm-8.46-9.864c2.688 0 4.74-.588 6.156-1.764 1.416-1.2 2.124-2.892 2.124-5.076 0-2.184-.708-3.864-2.124-5.04-1.416-1.2-3.468-1.8-6.156-1.8h-7.2v13.68h7.2zm40.706 9.864l-.036-21.564-10.548 18.216h-.9l-10.548-18.144v21.492h-1.8v-25.2h1.548l11.268 19.476 11.268-19.476h1.512l.036 25.2h-1.8z" fill="#000"/><defs><linearGradient id="paint0_linear" x1="151.346" y1="13.96" x2="68.281" y2="61.845" gradientUnits="userSpaceOnUse"><stop stop-color="#59AFFC"/><stop offset="1" stop-color="#C4DCFF"/><stop offset="1" stop-color="#6FB9FD" stop-opacity=".38"/></linearGradient><linearGradient id="paint1_linear" x1="151.346" y1="13.96" x2="68.281" y2="61.845" gradientUnits="userSpaceOnUse"><stop stop-color="#59AFFC"/><stop offset="1" stop-color="#C4DCFF"/><stop offset="1" stop-color="#6FB9FD" stop-opacity=".38"/></linearGradient></defs></svg>