<svg width="138" height="72" fill="none" xmlns="http://www.w3.org/2000/svg"><path d="M26.95 60.6V69h-.875v-7.632h-5.316V69h-.876v-8.4h7.068zm5.883 2.04c.592 0 1.128.136 1.608.408.48.264.856.64 1.128 1.128.272.488.408 1.044.408 1.668 0 .632-.136 1.192-.408 1.68a2.916 2.916 0 01-1.128 1.14c-.472.264-1.008.396-1.608.396-.512 0-.976-.104-1.392-.312a2.687 2.687 0 01-1.008-.936v3.516h-.852v-8.64h.816v1.248a2.637 2.637 0 011.008-.96 3.01 3.01 0 011.428-.336zm-.06 5.664c.44 0 .84-.1 1.2-.3.36-.208.64-.5.84-.876.208-.376.312-.804.312-1.284s-.104-.904-.312-1.272c-.2-.376-.48-.668-.84-.876a2.355 2.355 0 00-1.2-.312c-.448 0-.852.104-1.212.312a2.27 2.27 0 00-.84.876c-.2.368-.3.792-.3 1.272s.1.908.3 1.284c.208.376.488.668.84.876.36.2.764.3 1.212.3zm7.639.756a3.319 3.319 0 01-1.644-.408 3.063 3.063 0 01-1.152-1.152 3.267 3.267 0 01-.42-1.656c0-.616.14-1.168.42-1.656.28-.488.664-.868 1.152-1.14a3.319 3.319 0 011.644-.408c.608 0 1.156.136 1.644.408.488.272.868.652 1.14 1.14.28.488.42 1.04.42 1.656 0 .616-.14 1.168-.42 1.656a2.976 2.976 0 01-1.14 1.152 3.319 3.319 0 01-1.644.408zm0-.756c.448 0 .848-.1 1.2-.3.36-.208.64-.5.84-.876.2-.376.3-.804.3-1.284s-.1-.908-.3-1.284c-.2-.376-.48-.664-.84-.864a2.314 2.314 0 00-1.2-.312c-.448 0-.852.104-1.212.312-.352.2-.632.488-.84.864-.2.376-.3.804-.3 1.284s.1.908.3 1.284c.208.376.488.668.84.876.36.2.764.3 1.212.3zm11.145-.048v2.268h-.803V69h-5.652v1.524h-.804v-2.268h.36c.423-.024.712-.336.864-.936.151-.6.256-1.44.312-2.52l.083-2.112h4.657v5.568h.983zm-4.944-3.408c-.04.896-.115 1.636-.227 2.22-.113.576-.313.972-.6 1.188h3.935v-4.812h-3.035l-.072 1.404zm8.777-2.208c.824 0 1.456.208 1.896.624.44.408.66 1.016.66 1.824V69h-.816v-.984a1.947 1.947 0 01-.852.768c-.368.184-.808.276-1.32.276-.704 0-1.264-.168-1.68-.504-.416-.336-.624-.78-.624-1.332 0-.536.192-.968.576-1.296.392-.328 1.012-.492 1.86-.492h2.004v-.384c0-.544-.152-.956-.456-1.236-.304-.288-.748-.432-1.332-.432-.4 0-.784.068-1.152.204a2.822 2.822 0 00-.948.54l-.384-.636c.32-.272.704-.48 1.152-.624.448-.152.92-.228 1.416-.228zm-.3 5.748c.48 0 .892-.108 1.236-.324.344-.224.6-.544.768-.96v-1.032h-1.98c-1.08 0-1.62.376-1.62 1.128 0 .368.14.66.42.876.28.208.672.312 1.176.312zm10.656-2.196h-1.368V69h-.852v-2.808h-1.368L60.226 69h-1.02l2.268-3.252-2.088-3.06h.924l1.848 2.772h1.368v-2.772h.852v2.772h1.368l1.86-2.772h.924l-2.088 3.072L68.71 69h-1.02l-1.944-2.808zm4.382-3.504h.852v5.016l4.212-5.016h.756V69h-.852v-5.016L70.896 69h-.768v-6.312zm15.422 3.048c.856.2 1.284.716 1.284 1.548 0 .552-.204.976-.612 1.272-.408.296-1.016.444-1.824.444H81.53v-6.312h2.784c.72 0 1.284.14 1.692.42.408.28.612.68.612 1.2 0 .344-.096.64-.288.888-.184.24-.444.42-.78.54zm-3.192-.24h1.896c.488 0 .86-.092 1.116-.276.264-.184.396-.452.396-.804 0-.352-.132-.616-.396-.792-.256-.176-.628-.264-1.116-.264h-1.896v2.136zm2.004 2.832c.544 0 .952-.088 1.224-.264.272-.176.408-.452.408-.828 0-.376-.124-.652-.372-.828-.248-.184-.64-.276-1.176-.276h-2.088v2.196h2.004zm12.074-4.884h-3.612V69h-.852v-6.312h4.464v.756zm3.542 5.616a3.319 3.319 0 01-1.644-.408 3.063 3.063 0 01-1.152-1.152 3.267 3.267 0 01-.42-1.656c0-.616.14-1.168.42-1.656.28-.488.664-.868 1.152-1.14a3.319 3.319 0 011.644-.408c.608 0 1.156.136 1.644.408.488.272.868.652 1.14 1.14.28.488.42 1.04.42 1.656 0 .616-.14 1.168-.42 1.656a2.976 2.976 0 01-1.14 1.152 3.319 3.319 0 01-1.644.408zm0-.756c.448 0 .848-.1 1.2-.3.36-.208.64-.5.84-.876.2-.376.3-.804.3-1.284s-.1-.908-.3-1.284c-.2-.376-.48-.664-.84-.864a2.314 2.314 0 00-1.2-.312c-.448 0-.852.104-1.212.312-.352.2-.632.488-.84.864-.2.376-.3.804-.3 1.284s.1.908.3 1.284c.208.376.488.668.84.876.36.2.764.3 1.212.3zm8.277-5.664c.592 0 1.128.136 1.608.408.48.264.856.64 1.128 1.128.272.488.408 1.044.408 1.668 0 .632-.136 1.192-.408 1.68a2.916 2.916 0 01-1.128 1.14c-.472.264-1.008.396-1.608.396-.512 0-.976-.104-1.392-.312a2.687 2.687 0 01-1.008-.936v3.516h-.852v-8.64h.816v1.248a2.637 2.637 0 011.008-.96 3.01 3.01 0 011.428-.336zm-.06 5.664c.44 0 .84-.1 1.2-.3.36-.208.64-.5.84-.876.208-.376.312-.804.312-1.284s-.104-.904-.312-1.272c-.2-.376-.48-.668-.84-.876a2.355 2.355 0 00-1.2-.312c-.448 0-.852.104-1.212.312a2.27 2.27 0 00-.84.876c-.2.368-.3.792-.3 1.272s.1.908.3 1.284c.208.376.488.668.84.876.36.2.764.3 1.212.3zm10.223-5.616l-3.156 7.068c-.256.592-.552 1.012-.888 1.26-.336.248-.74.372-1.212.372-.304 0-.588-.048-.852-.144a1.846 1.846 0 01-.684-.432l.396-.636c.32.32.704.48 1.152.48.288 0 .532-.08.732-.24.208-.16.4-.432.576-.816l.276-.612-2.82-6.3h.888l2.376 5.364 2.376-5.364h.84z" fill="#000"/><path d="M8.752 30.842H1.098V28.13h18.464v2.712H11.91v19.11H8.752v-19.11zm23.797 19.297c-1.68 0-3.19-.364-4.529-1.091s-2.391-1.725-3.157-2.993c-.744-1.288-1.116-2.743-1.116-4.364s.372-3.066 1.116-4.334a7.873 7.873 0 013.157-2.992c1.34-.728 2.85-1.092 4.529-1.092 1.68 0 3.178.364 4.496 1.092a7.658 7.658 0 013.125 2.992c.766 1.268 1.148 2.713 1.148 4.334 0 1.62-.382 3.076-1.148 4.364-.744 1.268-1.785 2.266-3.125 2.993-1.318.727-2.817 1.091-4.496 1.091zm0-2.619c1.084 0 2.051-.239 2.902-.717a5.332 5.332 0 002.04-2.057c.49-.894.734-1.912.734-3.055 0-1.143-.244-2.151-.733-3.024a5.066 5.066 0 00-2.041-2.058c-.85-.478-1.818-.717-2.902-.717-1.085 0-2.063.24-2.934.717-.85.478-1.53 1.164-2.041 2.058-.49.873-.734 1.88-.734 3.024 0 1.143.245 2.161.734 3.055a5.638 5.638 0 002.04 2.057c.872.478 1.85.717 2.935.717zm26.429-14.247c1.637 0 3.104.354 4.4 1.06a7.605 7.605 0 013.03 2.962c.744 1.268 1.116 2.733 1.116 4.396 0 1.662-.372 3.138-1.116 4.426a7.605 7.605 0 01-3.03 2.962c-1.296.707-2.763 1.06-4.4 1.06-1.212 0-2.328-.229-3.349-.686a6.942 6.942 0 01-2.55-1.995V56h-3.062V33.43h2.934v2.618a6.346 6.346 0 012.583-2.057c1.041-.478 2.19-.718 3.444-.718zm-.255 14.247c1.084 0 2.051-.239 2.902-.717a5.332 5.332 0 002.04-2.057c.511-.894.766-1.912.766-3.055 0-1.143-.255-2.151-.765-3.024a5.066 5.066 0 00-2.041-2.058c-.85-.478-1.818-.717-2.902-.717-1.063 0-2.03.25-2.902.748a5.4 5.4 0 00-2.041 2.027c-.49.873-.734 1.88-.734 3.024 0 1.143.245 2.161.734 3.055a5.332 5.332 0 002.04 2.057c.873.478 1.84.717 2.903.717zm22.343 2.619c-1.382 0-2.71-.177-3.986-.53-1.276-.374-2.275-.842-2.998-1.403l1.276-2.37c.744.52 1.647.936 2.71 1.248 1.064.312 2.137.467 3.221.467 2.68 0 4.019-.748 4.019-2.244 0-.499-.181-.894-.543-1.185-.361-.29-.818-.498-1.37-.623-.532-.146-1.298-.302-2.297-.468-1.36-.208-2.477-.447-3.348-.717a5.162 5.162 0 01-2.2-1.371c-.617-.645-.926-1.549-.926-2.713 0-1.496.638-2.691 1.914-3.585 1.275-.914 2.987-1.372 5.134-1.372 1.127 0 2.254.136 3.38.406 1.127.27 2.052.634 2.775 1.09l-1.308 2.37c-1.382-.873-3.008-1.31-4.879-1.31-1.297 0-2.285.209-2.966.624-.68.416-1.02.967-1.02 1.653 0 .54.191.966.574 1.278.383.312.85.54 1.403.686.574.145 1.371.311 2.392.498 1.36.229 2.455.478 3.285.749.85.249 1.573.685 2.168 1.309.595.623.893 1.496.893 2.619 0 1.496-.66 2.691-1.977 3.585-1.297.873-3.072 1.309-5.326 1.309zm30.238-16.709l-7.398 16.522h-3.125l-7.399-16.523h3.19l5.803 13.25 5.932-13.25h2.997zm7.322 0h3.062v16.522h-3.062V33.429zm1.531-3.18c-.595 0-1.095-.187-1.499-.561a1.844 1.844 0 01-.574-1.372c0-.54.191-.998.574-1.372.404-.395.904-.592 1.499-.592.595 0 1.084.187 1.467.56.404.354.606.801.606 1.341 0 .562-.202 1.04-.606 1.434-.383.375-.872.562-1.467.562zm11.84-3.43h3.062v23.132h-3.062V26.82z" fill="#2689FE"/><path fill-rule="evenodd" clip-rule="evenodd" d="M130.667 6.968l-60.87 14.569a6.17 6.17 0 01-4.575-.685l-7.271-4.316a3.32 3.32 0 00-3.529.098l-6.38 4.29a6.162 6.162 0 01-6.84 0l-6.223-4.184a3.318 3.318 0 00-3.683 0l-6.093 4.098a6.159 6.159 0 01-7.059-.155l-5.14-3.802a3.317 3.317 0 00-3.763-.107l-7.694 5.022L0 19.599l7.694-5.022a6.16 6.16 0 016.99.2l5.14 3.801a3.316 3.316 0 003.8.084l6.094-4.098a6.162 6.162 0 016.84 0l6.222 4.185a3.318 3.318 0 003.683 0l6.38-4.291a6.165 6.165 0 016.554-.181l7.272 4.315a3.32 3.32 0 002.463.369l60.87-14.569.665 2.576z" fill="#2689FE"/><path d="M135.372 3.615c.891.069 1.228.975.457 1.43l-10.112 6.201a.914.914 0 01-1.355-.58l-1.586-6.829a.915.915 0 01.961-1.119l11.635.897z" fill="#2689FE"/></svg>