<svg width="23" height="23" fill="none" xmlns="http://www.w3.org/2000/svg"><g clip-path="url(#clip0)" fill="#2689FE"><path d="M17.486 15.215c-.751-.742-1.69-.742-2.436 0-.57.565-1.14 1.13-1.699 1.704-.153.158-.282.191-.47.086-.368-.201-.76-.364-1.114-.584-1.651-1.038-3.035-2.374-4.26-3.877C6.9 11.798 6.36 10.998 5.98 10.1c-.076-.182-.062-.302.087-.45.57-.55 1.124-1.115 1.684-1.68.78-.785.78-1.704-.005-2.494-.445-.45-.89-.89-1.335-1.34-.46-.46-.914-.923-1.378-1.378-.752-.732-1.69-.732-2.436.005-.575.564-1.125 1.144-1.709 1.699-.54.511-.814 1.138-.871 1.87C-.074 7.524.218 8.65.63 9.745c.842 2.268 2.125 4.283 3.68 6.13 2.101 2.499 4.61 4.476 7.543 5.902 1.32.641 2.69 1.134 4.178 1.215 1.024.058 1.915-.2 2.628-1 .488-.546 1.038-1.043 1.555-1.565.766-.775.77-1.713.01-2.48-.91-.913-1.824-1.823-2.738-2.732zm-.914-3.815l1.766-.301a7.894 7.894 0 00-2.206-4.26 7.85 7.85 0 00-4.5-2.245l-.248 1.776a6.092 6.092 0 013.484 1.737 6.09 6.09 0 011.704 3.293zm2.762-7.676A13.022 13.022 0 0011.867 0l-.249 1.776c2.46.344 4.69 1.46 6.452 3.216a11.282 11.282 0 013.164 6.102L23 10.793a13.119 13.119 0 00-3.666-7.07z"/></g><defs><clipPath id="clip0"><path fill="#fff" d="M0 0h23v23H0z"/></clipPath></defs></svg>