<svg width="32" height="52" fill="none" xmlns="http://www.w3.org/2000/svg"><path d="M3 7c-.233 0-.4.033-.5.1-.1.1-.15.267-.15.5v1.15c0 .233.033.433.1.6.067.167.217.417.45.75l19.45 29.8c.067.133.1.233.1.3 0 .133-.117.2-.35.2H3.7c-.367 0-.55.183-.55.55v2.65c0 .333.167.5.5.5h25c.3 0 .45-.167.45-.5v-1.3c0-.3-.133-.633-.4-1L8.95 11.2c-.1-.133-.133-.25-.1-.35.067-.067.167-.1.3-.1H28.5c.367 0 .55-.15.55-.45V7.55c0-.367-.2-.55-.6-.55H3z" fill="#fff"/><path d="M3 44c-.233 0-.4-.033-.5-.1-.1-.1-.15-.267-.15-.5v-1.15c0-.233.033-.433.1-.6.067-.167.217-.417.45-.75l19.45-29.8c.067-.133.1-.233.1-.3 0-.133-.117-.2-.35-.2H3.7c-.367 0-.55-.183-.55-.55V7.4c0-.333.167-.5.5-.5h25c.3 0 .45.167.45.5v1.3c0 .3-.133.633-.4 1L8.95 39.8c-.1.133-.133.25-.1.35.067.067.167.1.3.1H28.5c.367 0 .55.15.55.45v2.75c0 .367-.2.55-.6.55H3z" fill="#fff"/></svg>