<svg width="246" height="224" fill="none" xmlns="http://www.w3.org/2000/svg"><path d="M245.008 66.763L208.777 4.008a7.4 7.4 0 00-6.408-3.7h-72.463a7.4 7.4 0 00-6.408 3.7L89.617 62.692H49.604a7.398 7.398 0 00-6.407 3.7l-42.205 73.1a7.398 7.398 0 000 7.4l42.204 73.1a7.4 7.4 0 006.408 3.7h84.408a7.398 7.398 0 006.408-3.7l42.204-73.1a7.395 7.395 0 00.524-6.275h19.22a7.4 7.4 0 006.408-3.7l36.231-62.755a7.39 7.39 0 00.001-7.4zM129.74 208.892H53.876l-37.932-65.7 37.932-65.7h75.864l37.932 65.7-37.932 65.7zm16.291-138.43c0-11.086 9.02-20.106 20.107-20.106s20.107 9.02 20.107 20.107-9.02 20.107-20.107 20.107-20.107-9.02-20.107-20.107zm52.066 55.355H174.73l-11.899-20.609c1.089.103 2.191.161 3.306.161 19.248 0 34.906-15.659 34.906-34.906s-15.658-34.906-34.906-34.906c-16.575 0-30.48 11.618-34.023 27.135h-25.409l27.474-47.584h63.918l31.96 55.355-31.96 55.354z" fill="#F3F2F2"/></svg>