<svg width="243" height="296" fill="none" xmlns="http://www.w3.org/2000/svg"><path d="M36.957 2.945a8.039 8.039 0 00-4.354 5.024 6.363 6.363 0 002.01 6.029l19.09 19.09-20.43 20.096-19.09-19.091a6.027 6.027 0 00-6.029-1.675 6.029 6.029 0 00-5.024 4.354 55.595 55.595 0 0013.062 57.606 56.597 56.597 0 0030.477 15.406l-12.056 30.478 16.076 13.732a120.57 120.57 0 00.67 29.138l-15.072 14.736 18.085 41.866 21.436-1.675a100.12 100.12 0 0021.1 20.096l-.67 21.434L138.771 296l13.732-16.076c9.704.949 19.487.724 29.138-.67l14.737 15.406 41.865-18.421-1.675-21.099a110.543 110.543 0 0020.096-21.435l21.099.67 16.411-42.535-15.741-13.732c.95-9.704.725-19.487-.67-29.138l15.072-14.736-18.086-41.53-21.435 1.34a100.122 100.122 0 00-21.1-20.096l.67-21.1-42.535-16.41-13.731 15.74a105.852 105.852 0 00-29.138 1.005l-14.737-15.407-22.439 9.713A53.592 53.592 0 0094.563 16.34 56.27 56.27 0 0036.958 2.945zm157.412 49.233l24.784 9.713v19.09l3.014 2.01a96.458 96.458 0 0123.11 22.105l2.344 3.015 18.756-1.675 10.382 24.784-13.731 13.062.67 3.684a103.144 103.144 0 011.004 32.152v3.349l14.067 12.392-9.713 24.784h-19.425l-2.01 3.014a90.767 90.767 0 01-22.105 23.11l-3.014 2.344 1.674 19.091-24.784 10.382-13.061-13.731-3.349.67a117.235 117.235 0 01-32.487.67h-3.349l-12.393 13.731-24.784-9.378v-19.091l-3.014-2.344a84.06 84.06 0 01-23.11-21.77l-2.344-3.014-19.09 1.34-10.718-24.449 13.732-13.397-.67-3.349a114.884 114.884 0 01-.67-32.152v-3.684l-14.067-12.393 10.048-26.123a42.188 42.188 0 009.043-1.34l23.444 23.444a78.033 78.033 0 00-7.703 33.827c-.183 43.652 35.056 79.189 78.709 79.372 43.652.183 79.189-35.055 79.372-78.708.183-43.521-34.85-79.002-78.37-79.37a76.7 76.7 0 00-31.482 6.363l-24.114-23.78 1.674-8.038 18.756-8.038 13.397 13.732 3.348-.67a105.495 105.495 0 0132.488-1.005l3.349.67 12.392-14.4zm-37.511 65.645l-13.731-13.732a66.659 66.659 0 0121.435-3.349c36.439-.181 66.125 29.213 66.305 65.652.181 36.439-29.212 66.125-65.651 66.305-36.439.181-66.125-29.213-66.306-65.652a65.987 65.987 0 014.696-24.775l14.402 14.736a47.556 47.556 0 0013.396 42.87c19.039 18.769 49.621 18.769 68.659 0a48.229 48.229 0 0014.067-34.162c.288-26.634-21.071-48.459-47.705-48.747a48.28 48.28 0 00-9.567.854zM95.233 69.259a6.698 6.698 0 001.34 7.033l53.587 53.588a7.372 7.372 0 006.364 2.009 34.495 34.495 0 0133.826 8.708c13.781 13.688 13.856 35.955.168 49.736-13.688 13.78-35.955 13.855-49.736.168a34.5 34.5 0 01-10.048-24.784l1.004-9.378a6.365 6.365 0 00-1.674-6.364L76.477 96.388a7.368 7.368 0 00-7.033-1.675A43.206 43.206 0 0125.569 85a41.529 41.529 0 01-12.057-32.822l15.071 15.407a7.034 7.034 0 009.378 0l30.143-29.473a8.377 8.377 0 002.01-4.69 8.374 8.374 0 00-2.01-5.023L52.697 13.662A40.526 40.526 0 0185.185 25.72a41.53 41.53 0 0110.048 43.54z" fill="#F3F2F2"/><path d="M150.495 150.645a20.093 20.093 0 00-6.029 14.736 21.1 21.1 0 006.029 15.072c8.155 8.323 21.514 8.46 29.838.304l.304-.304a20.769 20.769 0 006.029-14.737 22.106 22.106 0 00-6.029-15.071c-8.155-8.324-21.514-8.46-29.838-.305-.103.101-.204.202-.304.305zm20.128 9.076c.103.097.204.198.301.301a7.703 7.703 0 010 11.053 7.369 7.369 0 01-10.717 0 7.034 7.034 0 01-2.344-5.694 6.698 6.698 0 012.344-5.359 7.369 7.369 0 0110.416-.301z" fill="#F3F2F2"/></svg>