<svg width="128" height="121" fill="none" xmlns="http://www.w3.org/2000/svg"><g clip-path="url(#clip0)"><path d="M91.2 68.456a29.92 29.92 0 015.35 4.632 29.816 29.816 0 014.05 5.678 25.411 25.411 0 012.5 6.524c.533 2.291.833 4.632.9 7.022 0 3.952-.75 7.67-2.25 11.157-1.5 3.486-3.567 6.524-6.2 9.114-2.633 2.59-5.683 4.632-9.15 6.126-3.467 1.494-7.2 2.258-11.2 2.291-3.033 0-5.967-.448-8.8-1.345a27.639 27.639 0 01-7.8-3.884 30.268 30.268 0 01-6.3-6.077 27.399 27.399 0 01-4.25-7.819H8v-76.5h12.8V19h6.4v6.375H72V19h6.4v6.375h12.8v43.081zM14.4 31.75V44.5h70.4V31.75h-6.4v6.375H72V31.75H27.2v6.375h-6.4V31.75h-6.4zM46.55 95.5a32.98 32.98 0 01-.15-3.188c0-2.855.4-5.627 1.2-8.317.8-2.69 2.017-5.23 3.65-7.62H46.4V70h6.4v4.283a27.594 27.594 0 014.55-4.482 29.878 29.878 0 015.4-3.337 27.751 27.751 0 016.05-2.092c2.1-.465 4.233-.714 6.4-.747 3.333 0 6.533.548 9.6 1.644V50.875H14.4V95.5h32.15zm28.65 19.125c3.1 0 6-.581 8.7-1.743 2.7-1.162 5.067-2.756 7.1-4.781a22.55 22.55 0 004.8-7.073c1.167-2.69 1.767-5.594 1.8-8.716 0-3.087-.583-5.976-1.75-8.665a22.546 22.546 0 00-4.8-7.073c-2.033-2.025-4.4-3.619-7.1-4.781-2.7-1.162-5.617-1.76-8.75-1.793-3.1 0-6 .581-8.7 1.743-2.7 1.162-5.067 2.756-7.1 4.781a22.546 22.546 0 00-4.8 7.073c-1.167 2.69-1.767 5.594-1.8 8.716 0 3.087.583 5.976 1.75 8.666a22.557 22.557 0 004.8 7.072c2.033 2.025 4.4 3.619 7.1 4.781 2.7 1.162 5.617 1.76 8.75 1.793zm3.2-25.5H88V95.5H72V76.375h6.4v12.75zM20.8 70h6.4v6.375h-6.4V70zm12.8 0H40v6.375h-6.4V70zm0-12.75H40v6.375h-6.4V57.25zm0 25.5H40v6.375h-6.4V82.75zm19.2-19.125h-6.4V57.25h6.4v6.375zm12.8 0h-6.4V57.25h6.4v6.375zM20.8 57.25h6.4v6.375h-6.4V57.25z" fill="#FFCB5A"/></g><defs><clipPath id="clip0"><path fill="#fff" d="M0 0h128v120.964H0z"/></clipPath></defs></svg>