<svg width="114" height="94" fill="none" xmlns="http://www.w3.org/2000/svg"><path d="M56.89 14.665c1.227 0 2.222-.926 2.222-2.067V2.068C59.112.925 58.117 0 56.89 0c-1.228 0-2.223.926-2.223 2.067v10.53c0 1.142.996 2.068 2.223 2.068zm-16.709 3.396c.423.624 1.145.965 1.883.965.404 0 .814-.103 1.182-.318 1.038-.609 1.35-1.885.695-2.851l-5.92-8.74c-.655-.966-2.027-1.255-3.066-.647-1.038.609-1.349 1.886-.695 2.852l5.922 8.739zm30.359.647a2.34 2.34 0 001.182.318c.738 0 1.46-.342 1.883-.966l5.914-8.74c.654-.966.342-2.242-.696-2.85-1.04-.608-2.41-.318-3.065.648l-5.915 8.74c-.654.966-.342 2.242.697 2.85z" fill="#FFCB5A"/><path d="M113.065 48.669l-3.862-6.346c-.604-.994-1.961-1.343-3.028-.78-1.068.562-1.444 1.823-.839 2.817l3.859 6.342a.95.95 0 01.096.781.984.984 0 01-.496.593l-5.951 3.066c-.529.271-1.219.1-1.507-.373l-1.512-2.488-.02-.032-15.63-25.716a.944.944 0 01-.097-.773.978.978 0 01.495-.588l5.958-3.067c.535-.276 1.209-.109 1.501.374l3.484 5.724c.604.994 1.96 1.343 3.028.781 1.068-.562 1.444-1.823.84-2.817l-3.482-5.722c-1.485-2.45-4.86-3.328-7.522-1.959l-5.957 3.067c-1.29.663-2.221 1.759-2.623 3.086a4.783 4.783 0 00.377 3.703l-3.282.885c-1.398.376-2.246.58-2.717.58h-.006c-.324 0-.677-.116-1.686-.471a64.901 64.901 0 00-1.729-.59l-5.815-1.891c-3.215-1.045-4.666-.989-6.767-.81l-9.915.825c-4.52.373-7.402 1.321-8.993 2.966l-5.65-1.523a4.783 4.783 0 00.363-3.674c-.402-1.326-1.332-2.422-2.62-3.084l-5.955-3.069c-2.665-1.37-6.04-.492-7.526 1.957L.722 48.666a4.801 4.801 0 00-.511 3.94c.402 1.328 1.333 2.424 2.62 3.086l5.954 3.068a5.875 5.875 0 002.69.646c1.938 0 3.823-.938 4.836-2.602l.63-1.035c1.716.703 3.158 1.724 4.14 2.934a6.67 6.67 0 00-1.733 3.73c-.224 1.852.338 3.668 1.583 5.117 1.234 1.435 3 2.341 4.973 2.555-.209 1.835.355 3.634 1.59 5.066 1.278 1.485 3.082 2.352 4.97 2.556-.208 1.834.355 3.63 1.586 5.064 1.234 1.439 3 2.346 4.975 2.56-.21 1.837.355 3.637 1.59 5.07 1.473 1.712 3.647 2.603 5.841 2.603a7.813 7.813 0 004.666-1.52l4.653-3.464a7.28 7.28 0 001.007-.904l2.658 1.975a7.8 7.8 0 004.657 1.516c2.195 0 4.373-.893 5.847-2.607a6.683 6.683 0 001.492-3 8.046 8.046 0 003.28.335c1.99-.205 3.771-1.116 5.008-2.56 1.238-1.434 1.802-3.233 1.594-5.068 1.886-.205 3.692-1.071 4.973-2.556 1.275-1.484 1.787-3.31 1.587-5.067 1.972-.214 3.736-1.12 4.968-2.552 1.245-1.444 1.81-3.258 1.59-5.108a6.673 6.673 0 00-1.734-3.742c.98-1.21 2.418-2.232 4.136-2.935l.63 1.038c1.013 1.663 2.897 2.601 4.836 2.601a5.89 5.89 0 002.692-.646l5.951-3.067c1.286-.662 2.217-1.756 2.62-3.082a4.81 4.81 0 00-.502-3.942zM12.443 54.768c-.288.474-.979.646-1.505.375l-5.955-3.068a.982.982 0 01-.494-.59.951.951 0 01.1-.78l17.16-28.229c.196-.324.566-.505.95-.505.188 0 .378.042.553.133l5.953 3.067.002.001c.326.168.45.44.495.589a.947.947 0 01-.1.776l-17.159 28.23zM28.66 65.406a3.166 3.166 0 01-2.227.594c-.809-.083-1.53-.45-2.03-1.032a2.658 2.658 0 01-.638-2.073 2.737 2.737 0 011.115-1.882l8.32-6.187c1.305-.97 3.217-.77 4.26.443.502.583.728 1.318.638 2.068a2.732 2.732 0 01-1.111 1.877l-.04.032-8.285 6.159-.002.001zm2.303 7.18a2.648 2.648 0 01-.638-2.063c.09-.75.484-1.42 1.111-1.888h.001l.001-.002 11.985-8.907c1.305-.97 3.217-.771 4.26.443.502.582.728 1.316.639 2.066a2.75 2.75 0 01-1.115 1.888l-11.98 8.903c-1.308.97-3.22.775-4.264-.44zm8.591 8.66c-.809-.083-1.529-.45-2.03-1.035a2.655 2.655 0 01-.639-2.067 2.75 2.75 0 011.113-1.887H38l8.293-6.164.03-.02c1.303-.97 3.214-.772 4.258.439.502.583.729 1.32.638 2.071a2.74 2.74 0 01-1.115 1.883l-8.32 6.186a3.18 3.18 0 01-2.23.594zm14.56 1.678a2.746 2.746 0 01-1.113 1.887l-4.654 3.464c-1.307.97-3.218.775-4.262-.44a2.649 2.649 0 01-.64-2.065c.09-.75.485-1.42 1.11-1.885.002 0 .002-.001.003-.002l4.652-3.46.008-.004c1.306-.97 3.217-.771 4.26.442.5.582.727 1.314.636 2.063zm35.263-17.957c-.5.583-1.222.95-2.031 1.033a3.161 3.161 0 01-2.227-.594l-.002-.001-5.946-4.42c-.96-.713-2.358-.567-3.123.325-.766.892-.61 2.192.349 2.905l5.944 4.418c1.304.972 1.519 2.746.481 3.953-1.047 1.214-2.959 1.412-4.263.44l-6.45-4.789c-.96-.712-2.358-.566-3.124.327-.765.892-.608 2.193.351 2.905l6.447 4.786a2.753 2.753 0 011.114 1.89 2.65 2.65 0 01-.643 2.068c-.5.583-1.22.95-2.03 1.033a3.18 3.18 0 01-2.227-.592l-3.21-2.388-.016-.012-2.711-2.017-.507-.377c-.96-.713-2.357-.568-3.124.323-.095.112-.177.23-.244.352a1.94 1.94 0 00-.015 1.846c.14.267.342.51.607.708l3.227 2.4c1.295.973 1.507 2.742.47 3.948-1.044 1.214-2.955 1.412-4.26.444l-3.662-2.721c.153-1.77-.41-3.495-1.603-4.882a7.377 7.377 0 00-2.669-1.951 6.637 6.637 0 001.355-3.282c.224-1.851-.338-3.668-1.585-5.118a7.386 7.386 0 00-2.666-1.947 6.641 6.641 0 001.355-3.288c.22-1.848-.342-3.66-1.585-5.106-2.138-2.487-5.754-3.243-8.764-2.055a6.7 6.7 0 00-1.46-2.845c-2.573-2.991-7.284-3.48-10.505-1.09l-5.95 4.424c-1.346-1.597-3.175-2.922-5.338-3.867l12.24-20.14 6.518 1.758c.03.324.086.665.18 1.026 1.578 6.034 7.55 8.846 15.587 7.34 6.77-1.268 9.559.62 15.11 4.38.576.39 1.175.796 1.801 1.214 3.993 2.664 8.26 5.797 11.12 7.92l7.214 5.362a2.74 2.74 0 011.111 1.887 2.65 2.65 0 01-.64 2.067zm-.069-8.948l-4.84-3.599c-2.901-2.152-7.228-5.328-11.305-8.049-.618-.412-1.207-.81-1.774-1.195-5.757-3.9-9.918-6.718-18.604-5.092-2.659.498-8.993 1.08-10.39-4.263-.198-.754.002-1.013.088-1.124.297-.385 1.492-1.323 6.17-1.709l9.925-.826c1.618-.137 2.43-.206 4.898.596l5.815 1.891c.646.21 1.163.392 1.62.553 2.8.987 3.542.986 7.22-.004l4.287-1.156 12.224 20.113c-2.163.944-3.99 2.267-5.334 3.864z" fill="#FFCB5A"/><path d="M102.352 37.333c1.227 0 2.222-.928 2.222-2.07s-.995-2.067-2.222-2.067c-1.227 0-2.223.925-2.223 2.067v.006c0 1.142.996 2.064 2.223 2.064z" fill="#FFCB5A"/></svg>