<svg width="18" height="20" fill="none" xmlns="http://www.w3.org/2000/svg"><g clip-path="url(#clip0)"><path d="M9.004 5.508c-2.555 0-4.616 2.004-4.616 4.488 0 2.484 2.06 4.488 4.616 4.488 2.556 0 4.617-2.004 4.617-4.488 0-2.484-2.062-4.488-4.617-4.488zm0 7.406c-1.651 0-3.001-1.309-3.001-2.918 0-1.61 1.346-2.918 3.001-2.918 1.655 0 3.001 1.309 3.001 2.918 0 1.61-1.35 2.918-3 2.918zm5.882-7.59c0 .582-.482 1.047-1.076 1.047a1.06 1.06 0 01-1.077-1.047c0-.578.482-1.047 1.076-1.047.595 0 1.077.47 1.077 1.047zm3.058 1.063c-.069-1.403-.398-2.645-1.455-3.668-1.052-1.024-2.33-1.344-3.772-1.414-1.487-.082-5.943-.082-7.43 0-1.438.066-2.715.386-3.772 1.41C.458 3.738.133 4.98.06 6.383c-.084 1.445-.084 5.777 0 7.222.069 1.403.398 2.645 1.455 3.668 1.057 1.024 2.33 1.344 3.773 1.415 1.486.082 5.942.082 7.429 0 1.442-.067 2.72-.387 3.772-1.415 1.053-1.023 1.383-2.265 1.455-3.668.084-1.445.084-5.773 0-7.218zm-1.92 8.77a2.998 2.998 0 01-1.712 1.663c-1.186.457-3.998.352-5.308.352-1.31 0-4.126.101-5.307-.352a2.998 2.998 0 01-1.712-1.664c-.47-1.152-.362-3.886-.362-5.16 0-1.273-.104-4.012.362-5.16a2.998 2.998 0 011.712-1.664c1.185-.457 3.997-.352 5.307-.352 1.31 0 4.126-.101 5.308.352a2.998 2.998 0 011.711 1.664c.47 1.152.362 3.887.362 5.16 0 1.274.108 4.012-.362 5.16z" fill="#fff"/></g><defs><clipPath id="clip0"><path fill="#fff" d="M0 0h18v20H0z"/></clipPath></defs></svg>