<svg width="29" height="38" fill="none" xmlns="http://www.w3.org/2000/svg"><path d="M28.85 37.3c.067.2.1.317.1.35 0 .233-.133.35-.4.35h-4.1c-.433 0-.733-.15-.9-.45L12.5 19.1c-.067-.167-.167-.25-.3-.25-.1 0-.25.1-.45.3L6 25.7c-.233.233-.35.533-.35.9v10.65c0 .267-.067.467-.2.6-.133.1-.35.15-.65.15H1.6c-.5 0-.75-.217-.75-.65V1.5c0-.4.183-.6.55-.6h3.7c.367 0 .55.2.55.6v18.35c0 .233.05.35.15.35.033 0 .133-.083.3-.25l16.4-18.6c.133-.167.267-.283.4-.35s.333-.1.6-.1h3.45c.267 0 .433.083.5.25.1.133.067.283-.1.45l-11.65 13a.805.805 0 00-.1.35c0 .067.033.167.1.3L28.85 37.3z" fill="#fff"/></svg>
