<svg width="18" height="18" fill="none" xmlns="http://www.w3.org/2000/svg"><path d="M16.336 3.805a.17.17 0 00-.002-.018c-.022-.032-.05-.06-.073-.09a9.196 9.196 0 00-1.298-1.426l-.115-.105a9.014 9.014 0 00-1.706-1.152l-.076-.037a8.946 8.946 0 00-.836-.372c-.064-.023-.123-.045-.184-.064a9.082 9.082 0 00-.771-.24c-.077-.02-.155-.042-.233-.06a8.992 8.992 0 00-.777-.143c-.08-.011-.159-.027-.239-.036a8.454 8.454 0 00-2.04 0c-.08.01-.159.025-.238.036a8.818 8.818 0 00-.778.143c-.078.018-.155.04-.233.06-.262.068-.52.148-.771.24l-.184.064c-.285.11-.564.234-.836.372l-.075.037a9.015 9.015 0 00-1.713 1.152c-.039.034-.076.07-.115.105a8.364 8.364 0 00-.764.764 8.8 8.8 0 00-.533.661c-.024.032-.051.06-.074.091a.146.146 0 00-.008.018 8.944 8.944 0 000 10.39.15.15 0 00.008.017c.023.033.05.06.074.092a8.978 8.978 0 001.297 1.425c.04.034.076.07.115.105a9.017 9.017 0 001.707 1.152c.024.013.05.023.075.036.272.139.551.263.836.373.064.023.123.045.184.064.253.091.51.171.772.24.077.02.154.042.232.06.258.06.515.105.778.142.08.012.158.027.238.037a8.457 8.457 0 002.04 0c.08-.01.159-.025.239-.037a8.81 8.81 0 00.777-.142c.079-.018.156-.04.233-.06a8.98 8.98 0 00.772-.24c.064-.022.123-.044.184-.064.284-.11.563-.234.835-.373.026-.012.051-.023.076-.036a9.019 9.019 0 001.706-1.152c.04-.035.076-.07.115-.105a8.186 8.186 0 00.764-.764c.189-.212.366-.432.534-.661.023-.032.05-.06.073-.092a.168.168 0 00.008-.017 8.944 8.944 0 000-10.39zm-.733 1.216a7.652 7.652 0 011.084 3.336h-3.852a12.005 12.005 0 00-.36-2.27 11.557 11.557 0 003.127-1.066zm-4.963-3.56c.035.008.07.02.106.028.23.054.459.116.682.193l.1.037c.222.078.44.163.653.258.038.017.075.036.112.054.204.097.404.202.6.315l.128.078c.185.113.365.234.54.364.045.032.09.064.134.1.172.128.336.266.493.413.041.038.083.074.124.113.165.156.321.321.473.492l.06.065c-.871.415-1.794.711-2.743.88a16.351 16.351 0 00-1.731-3.434c.089.016.18.025.268.044zM6.455 8.357c.05-.696.169-1.385.353-2.058a18.427 18.427 0 004.393-.003c.184.674.302 1.364.352 2.06H6.455zm5.098 1.286a10.73 10.73 0 01-.354 2.058 18.408 18.408 0 00-2.195-.129c-.735 0-1.468.042-2.198.129a10.713 10.713 0 01-.351-2.058h5.098zm-2.55-7.94a15.531 15.531 0 011.793 3.344 17.02 17.02 0 01-3.583-.001 15.653 15.653 0 011.79-3.343zm-5.78 2.203a7.34 7.34 0 01.473-.493c.04-.038.083-.075.124-.112a7.97 7.97 0 01.493-.414c.044-.034.089-.064.134-.1.175-.129.355-.25.54-.363l.129-.078a7.68 7.68 0 01.599-.316l.111-.054a7.13 7.13 0 01.653-.257c.033-.012.064-.026.101-.038.223-.074.45-.136.682-.193.036-.008.07-.02.107-.027.088-.02.18-.028.269-.045a16.352 16.352 0 00-1.732 3.436c-.95-.17-1.872-.466-2.743-.88l.06-.066zM2.405 5.02c.985.504 2.038.863 3.126 1.067a11.998 11.998 0 00-.36 2.269H1.32A7.652 7.652 0 012.405 5.02zm0 7.957A7.651 7.651 0 011.32 9.643h3.852c.047.766.167 1.526.36 2.27a11.554 11.554 0 00-3.127 1.065zm4.963 3.56c-.036-.007-.071-.019-.107-.027a6.902 6.902 0 01-.682-.193l-.1-.038a8.635 8.635 0 01-.653-.257c-.038-.017-.074-.037-.112-.054a8.328 8.328 0 01-.599-.316l-.129-.077a7.498 7.498 0 01-.54-.364c-.045-.032-.09-.064-.134-.1a5.859 5.859 0 01-.493-.414c-.04-.037-.083-.073-.124-.112a7.972 7.972 0 01-.473-.493l-.06-.064a10.78 10.78 0 012.743-.88 16.387 16.387 0 001.731 3.434c-.089-.016-.18-.025-.268-.044zm1.636-.24a15.532 15.532 0 01-1.793-3.345 16.751 16.751 0 013.583 0v.001a15.653 15.653 0 01-1.79 3.343zm5.78-2.204a7.756 7.756 0 01-.473.493c-.04.038-.083.075-.124.112a7.689 7.689 0 01-1.167.877l-.129.078a7.853 7.853 0 01-.599.316l-.111.054a7.257 7.257 0 01-.653.257c-.033.012-.064.026-.1.037-.224.075-.45.137-.682.193-.037.009-.071.02-.108.028-.088.02-.18.028-.269.044a16.352 16.352 0 001.731-3.435c.95.17 1.872.466 2.743.881l-.059.065zm.818-1.116a11.553 11.553 0 00-3.126-1.066c.192-.743.313-1.503.36-2.269h3.851a7.653 7.653 0 01-1.085 3.335z" fill="#fff"/></svg>