<svg width="19" height="15" fill="none" xmlns="http://www.w3.org/2000/svg"><path d="M18.731 1.736a7.36 7.36 0 01-2.124.571A3.58 3.58 0 0018.229.274a7.243 7.243 0 01-2.341.891C15.157.388 14.258 0 13.192 0c-1.02 0-1.89.36-2.61 1.08-.72.719-1.079 1.589-1.079 2.609 0 .274.03.556.091.845a10.28 10.28 0 01-4.243-1.136A10.459 10.459 0 011.988.674a3.614 3.614 0 00-.503 1.861 3.6 3.6 0 00.446 1.76c.297.54.696.978 1.199 1.313a3.66 3.66 0 01-1.668-.469v.046c0 .891.28 1.673.84 2.347A3.63 3.63 0 004.42 8.806c-.32.083-.644.125-.971.125-.214 0-.446-.019-.697-.057a3.61 3.61 0 001.302 1.822 3.6 3.6 0 002.147.737c-1.34 1.05-2.866 1.576-4.58 1.576-.327 0-.624-.015-.89-.046 1.713 1.104 3.601 1.656 5.664 1.656 1.31 0 2.54-.207 3.69-.622 1.15-.415 2.131-.971 2.946-1.668a11.157 11.157 0 002.107-2.404c.59-.906 1.03-1.852 1.32-2.838a10.486 10.486 0 00.422-3.444 7.725 7.725 0 001.85-1.907z" fill="#fff"/></svg>