<svg width="742" height="290" fill="none" xmlns="http://www.w3.org/2000/svg"><path fill-rule="evenodd" clip-rule="evenodd" d="M179.688 175.148h28.906v50.782h-28.906v60.351h-65.821V225.93H3.907L0 185.695 113.867 2.492v-.586h65.821v173.242zm-116.993 0h51.172v-87.5l-4.101 6.641-47.07 80.859zm650.274 0h28.906v50.782h-28.906v60.351h-65.821V225.93h-109.96l-3.907-40.235L647.148 2.492v-.586h65.821v173.242zm-116.992 0h51.171v-87.5l-4.101 6.641-47.07 80.859zM523 145c0 80.081-64.919 145-145 145s-145-64.919-145-145S297.919 0 378 0s145 64.919 145 145zm-103.441-43.734l12.816 12.817 12.816-12.817 12.817 12.817-12.817 12.816 12.817 12.816-12.817 12.817-12.816-12.817-12.816 12.817-12.817-12.817 12.817-12.816-12.817-12.816 12.817-12.817zm-95.934 12.817l-12.816-12.817-12.817 12.817 12.817 12.816-12.817 12.816 12.817 12.817 12.816-12.817 12.816 12.817 12.817-12.817-12.817-12.816 12.817-12.816-12.817-12.817-12.816 12.817zM414.25 217.5c0 20.02-16.23 36.25-36.25 36.25s-36.25-16.23-36.25-36.25 16.23-36.25 36.25-36.25 36.25 16.23 36.25 36.25z" fill="#fff"/><mask id="a" maskUnits="userSpaceOnUse" x="233" y="0" width="290" height="290"><path fill-rule="evenodd" clip-rule="evenodd" d="M523 145c0 80.081-64.919 145-145 145s-145-64.919-145-145S297.919 0 378 0s145 64.919 145 145zm-103.441-43.734l12.816 12.817 12.816-12.817 12.817 12.817-12.817 12.816 12.817 12.816-12.817 12.817-12.816-12.817-12.816 12.817-12.817-12.817 12.817-12.816-12.817-12.816 12.817-12.817zm-95.934 12.817l-12.816-12.817-12.817 12.817 12.817 12.816-12.817 12.816 12.817 12.817 12.816-12.817 12.816 12.817 12.817-12.817-12.817-12.816 12.817-12.816-12.817-12.817-12.816 12.817zM414.25 217.5c0 20.02-16.23 36.25-36.25 36.25s-36.25-16.23-36.25-36.25 16.23-36.25 36.25-36.25 36.25 16.23 36.25 36.25z" fill="#fff"/></mask><g mask="url(#a)"><path fill-rule="evenodd" clip-rule="evenodd" d="M210 216.642c0-1.745 74.514-51.963 76.25-51.783 75.336 7.825 120.796-46.269 173.027-63.302 40.354-13.16 84.445 8.472 102.411 18.99 5.329 3.121 8.312 8.903 8.312 15.079V271c0 10.493-8.507 19-19 19H212.366a2.366 2.366 0 01-2.366-2.366v-70.992z" fill="#29B43F"/></g></svg>