<svg width="418" height="419" fill="none" xmlns="http://www.w3.org/2000/svg"><path d="M209 407c-25.87 0-51.488-5.109-75.389-15.034a196.97 196.97 0 01-63.91-42.813 197.542 197.542 0 01-42.705-64.073A197.944 197.944 0 0112 209.499c0-25.935 5.096-51.618 14.995-75.579A197.551 197.551 0 0169.7 69.846a196.961 196.961 0 0163.911-42.812A196.575 196.575 0 01209 12c25.87 0 51.488 5.109 75.389 15.034A196.973 196.973 0 01348.3 69.846a197.513 197.513 0 0142.703 64.074A197.917 197.917 0 01406 209.499c0 25.937-5.096 51.619-14.997 75.581a197.503 197.503 0 01-42.703 64.073 196.982 196.982 0 01-63.911 42.813S234.87 407 209 407z" stroke="#C5E6CA" stroke-width="24" stroke-linecap="round"/><path d="M209 407a196.681 196.681 0 01-120.294-41.096c-34.468-26.645-59.165-63.984-70.232-106.186a197.974 197.974 0 019.058-127.085c16.941-40.196 46.682-73.635 84.579-95.096a196.581 196.581 0 01124.9-23.53c43.083 6.205 82.904 26.538 113.244 57.827 30.338 31.288 49.487 71.768 54.457 115.118a197.91 197.91 0 01-26.991 124.503" stroke="#29B43F" stroke-width="24" stroke-linecap="round"/></svg>