<svg width="278" height="278" fill="none" xmlns="http://www.w3.org/2000/svg"><path d="M139 240.75v37c38.314 0 73.001-15.531 98.11-40.64l-26.163-26.164c-18.413 18.417-43.85 29.804-71.947 29.804z" fill="#FBC412"/><path d="M240.75 139c0 28.097-11.387 53.534-29.804 71.947l26.164 26.163c25.109-25.109 40.64-59.796 40.64-98.11h-37z" fill="#29B49B"/><path d="M210.947 67.053L237.11 40.89C212.001 15.78 177.314.25 139 .25v37c28.097 0 53.534 11.387 71.947 29.803z" fill="#29B43F"/><path d="M210.946 67.053c18.417 18.413 29.804 43.85 29.804 71.947h37c0-38.314-15.531-73.001-40.64-98.11l-26.164 26.163z" fill="#E01483"/><path d="M139 240.75v37c-38.313 0-73.001-15.531-98.11-40.64l26.163-26.164c18.413 18.417 43.85 29.804 71.947 29.804z" fill="#2D9B1B"/><path d="M37.25 139c0 28.097 11.387 53.534 29.803 71.947L40.89 237.11C15.78 212.001.25 177.314.25 139h37z" fill="#EC3737"/><path d="M67.053 67.053L40.89 40.89C65.999 15.78 100.687.25 139 .25v37c-28.097 0-53.534 11.387-71.947 29.803z" fill="#E48C24"/><path d="M67.053 67.053C48.638 85.466 37.25 110.904 37.25 139h-37c0-38.314 15.53-73.001 40.64-98.11l26.163 26.163z" fill="#2C29B4"/><path d="M63.708 129.32h5.6c2.147 0 3.79.439 4.928 1.316 1.139.877 1.708 2.38 1.708 4.508 0 1.381-.28 2.464-.84 3.248-.56.765-1.372 1.232-2.436 1.4 2.613.504 3.92 2.371 3.92 5.6 0 2.184-.532 3.836-1.596 4.956-1.064 1.101-2.641 1.652-4.732 1.652h-6.552v-22.68zm5.544 9.268c1.195 0 2.007-.261 2.436-.784.448-.541.672-1.409.672-2.604 0-1.157-.29-1.941-.868-2.352-.56-.429-1.503-.644-2.828-.644h-.84v6.384h1.428zm.168 10.5c1.213 0 2.053-.289 2.52-.868.467-.579.7-1.531.7-2.856 0-1.363-.261-2.352-.784-2.968-.504-.635-1.363-.952-2.576-.952h-1.456v7.644h1.596zm15.698 3.22c-2.352 0-4.023-.653-5.012-1.96-.97-1.325-1.456-3.192-1.456-5.6v-8.092c0-2.483.485-4.368 1.456-5.656.97-1.288 2.641-1.932 5.012-1.932 2.221 0 3.799.56 4.732 1.68.933 1.12 1.4 2.735 1.4 4.844v1.904h-3.976v-1.96c0-.803-.037-1.428-.112-1.876-.075-.467-.27-.84-.588-1.12-.299-.299-.775-.448-1.428-.448-.672 0-1.176.159-1.512.476-.336.299-.56.709-.672 1.232-.093.504-.14 1.167-.14 1.988v9.828c0 1.288.168 2.221.504 2.8.336.56.943.84 1.82.84.635 0 1.101-.149 1.4-.448.317-.299.513-.691.588-1.176.093-.504.14-1.167.14-1.988V143.6h3.976v1.82c0 2.184-.457 3.883-1.372 5.096-.915 1.195-2.501 1.792-4.76 1.792zm8.737-22.988h9.52v2.912h-5.404v6.524h4.256v2.884h-4.256v7.532h5.46V152h-9.576v-22.68zm18.281 0h4.116v9.464h4.62v-9.464h4.144V152h-4.144v-10.248h-4.62V152h-4.116v-22.68zm22.258 22.988c-2.352 0-4.032-.625-5.04-1.876-1.008-1.269-1.512-3.117-1.512-5.544v-8.512c0-2.408.504-4.228 1.512-5.46 1.008-1.232 2.688-1.848 5.04-1.848 2.334 0 4.004.616 5.012 1.848 1.008 1.232 1.512 3.052 1.512 5.46v8.512c0 2.408-.513 4.247-1.54 5.516-1.008 1.269-2.669 1.904-4.984 1.904zm0-3.052c.915 0 1.531-.289 1.848-.868.318-.579.476-1.419.476-2.52v-10.444c0-1.101-.158-1.932-.476-2.492-.298-.56-.914-.84-1.848-.84-.933 0-1.558.289-1.876.868-.317.56-.476 1.381-.476 2.464v10.444c0 1.101.159 1.941.476 2.52.318.579.943.868 1.876.868zm9.31-19.936h5.6c2.146 0 3.789.439 4.928 1.316 1.138.877 1.708 2.38 1.708 4.508 0 1.381-.28 2.464-.84 3.248-.56.765-1.372 1.232-2.436 1.4 2.613.504 3.92 2.371 3.92 5.6 0 2.184-.532 3.836-1.596 4.956-1.064 1.101-2.642 1.652-4.732 1.652h-6.552v-22.68zm5.544 9.268c1.194 0 2.006-.261 2.436-.784.448-.541.672-1.409.672-2.604 0-1.157-.29-1.941-.868-2.352-.56-.429-1.503-.644-2.828-.644h-.84v6.384h1.428zm.168 10.5c1.213 0 2.053-.289 2.52-.868.466-.579.7-1.531.7-2.856 0-1.363-.262-2.352-.784-2.968-.504-.635-1.363-.952-2.576-.952h-1.456v7.644h1.596zm15.782 3.22c-2.352 0-4.032-.625-5.04-1.876-1.008-1.269-1.512-3.117-1.512-5.544v-8.512c0-2.408.504-4.228 1.512-5.46 1.008-1.232 2.688-1.848 5.04-1.848 2.333 0 4.004.616 5.012 1.848 1.008 1.232 1.512 3.052 1.512 5.46v8.512c0 2.408-.514 4.247-1.54 5.516-1.008 1.269-2.67 1.904-4.984 1.904zm0-3.052c.914 0 1.53-.289 1.848-.868.317-.579.476-1.419.476-2.52v-10.444c0-1.101-.159-1.932-.476-2.492-.299-.56-.915-.84-1.848-.84-.934 0-1.559.289-1.876.868-.318.56-.476 1.381-.476 2.464v10.444c0 1.101.158 1.941.476 2.52.317.579.942.868 1.876.868zm15.413 3.052c-2.352 0-4.023-.653-5.012-1.96-.971-1.325-1.456-3.192-1.456-5.6v-8.092c0-2.483.485-4.368 1.456-5.656.971-1.288 2.641-1.932 5.012-1.932 2.221 0 3.799.56 4.732 1.68.933 1.12 1.4 2.735 1.4 4.844v1.904h-3.976v-1.96c0-.803-.037-1.428-.112-1.876-.075-.467-.271-.84-.588-1.12-.299-.299-.775-.448-1.428-.448-.672 0-1.176.159-1.512.476-.336.299-.56.709-.672 1.232-.093.504-.14 1.167-.14 1.988v9.828c0 1.288.168 2.221.504 2.8.336.56.943.84 1.82.84.635 0 1.101-.149 1.4-.448.317-.299.513-.691.588-1.176.093-.504.14-1.167.14-1.988V143.6h3.976v1.82c0 2.184-.457 3.883-1.372 5.096-.915 1.195-2.501 1.792-4.76 1.792zm11.005-19.936h-3.612v-3.052h11.284v3.052h-3.528V152h-4.144v-19.628zm9.512-3.052h3.388v14.308l6.216-14.308h2.772V152h-3.444v-14.56L203.844 152h-2.716v-22.68z" fill="#fff"/></svg>