<svg width="315" height="122" fill="none" xmlns="http://www.w3.org/2000/svg"><path d="M47.672 10.969h19.687v66.586h9.211v18.21h-9.21V117H48.093V95.766H2.954V77.555l44.718-66.586zm.422 66.586V42.89L24.469 77.555h23.625zm233.578-66.586h19.687v66.586h9.211v18.21h-9.211V117h-19.265V95.766h-45.141V77.555l44.719-66.586zm.422 66.586V42.89l-23.625 34.664h23.625z" fill="#565050"/><g clip-path="url(#clip0)"><path d="M221.548 48.158c-.154-.612-.307-1.07-.613-1.529-.154-2.293-.307-4.586-1.073-6.574-1.226-3.21-3.985-6.115-5.671-9.02-.613-1.223-1.839-1.987-3.065-2.752-1.227-2.599-1.993-5.35-3.832-7.491-1.38-1.529-3.679-1.835-5.978-2.293-.613-.612-1.072-1.223-1.839-1.835-2.452-2.293-4.291-5.81-7.357-7.491-1.226-.612-2.758-.612-4.444-.459-2.146-1.223-4.292-2.446-6.744-3.363-3.219-1.07-6.437-2.6-9.809-3.058C167.751 1.835 164.226 0 160.854 0c-1.839 0-3.525 1.376-5.211 2.599-1.226 0-2.452.153-3.678.306-3.372.611-7.357-.153-10.576 1.07-2.145.764-3.372 3.21-4.904 5.198-1.839 0-3.832 0-5.211.917-2.759 1.682-3.525 6.116-5.824 8.409-1.993 1.223-4.905 1.681-7.051 2.752-1.379.458-2.605.917-3.371 1.987-1.993 2.6-1.686 7.186-3.219 10.09-.307.765-.766 1.376-1.073 2.14-2.146 1.377-4.598 2.6-5.364 4.74-.92 2.446 0 5.657.153 8.561-.307 1.07-.613 2.294-.766 3.517-.46 3.363-3.066 6.88-3.066 10.243.154 3.363.307 7.338.92 10.549a63.618 63.618 0 001.839 6.727c0 .611.153 1.223.46 1.834 1.226 3.21 2.452 6.88 4.138 9.785 1.686 2.904 3.832 6.268 5.978 8.714 2.145 2.599 5.211 5.045 7.816 7.185 1.533 1.376 4.292.918 6.897.765 1.073 2.446 1.839 5.351 3.678 6.421 2.913 1.529 6.591 3.057 9.81 4.128 1.379.458 2.758.305 4.291 0 1.073 1.223 2.299 2.293 3.525 2.599 3.219.611 7.204.764 10.729.764 3.372 0 6.743-3.669 10.115-4.128 3.372-.611 6.744-1.223 9.809-2.446 1.073-.459 2.146-1.223 2.912-2.14 2.759-1.223 5.365-2.599 7.97-4.128 2.912-1.835 7.357-1.682 9.809-3.975 1.686-1.376 1.84-4.128 2.453-6.574.306-.306.613-.611.766-.917 2.146-2.6 6.437-3.822 8.123-6.727.307-.459.46-.917.46-1.529.153-.306.46-.459.613-.764 1.533-2.905 4.138-5.81 5.211-9.173 1.073-3.21 1.073-7.186 1.533-10.396.459-3.364 1.992-7.033 1.992-10.396.46-3.67-1.379-7.186-1.992-10.55z" fill="#4D4D4D"/><path d="M162.233 112.063c28.357 0 51.345-22.93 51.345-51.216 0-28.285-22.988-51.215-51.345-51.215-28.356 0-51.344 22.93-51.344 51.215 0 28.286 22.988 51.216 51.344 51.216z" fill="#fff"/><path d="M206.987 43.266c-2.758-4.587-5.517-9.02-9.196-12.842-3.525-3.67-7.05-7.339-11.341-9.938-4.138-2.599-9.503-4.128-14.407-4.892-2.606-.459-5.365-.459-8.123-.306-2.606 0-5.211-.153-7.97-.153-2.606 0-4.905.459-7.357.917-2.606.46-5.211.612-7.817 1.224-4.751 1.223-9.042 5.198-12.414 8.408-3.372 3.21-7.357 7.338-9.043 11.772-.919 2.446-.919 5.198-1.073 7.797-.153 2.446-.919 4.892-1.226 7.338-.306 2.6-.306 5.351-.306 7.95 0 2.6-.613 5.198-1.073 7.797-.307 2.294-.307 4.587.766 6.727 1.073 2.14 2.606 3.822 4.138 5.657 3.066 3.669 4.751 8.103 7.97 11.619 3.372 3.822 7.817 5.504 11.955 8.255 1.992 1.376 3.832 3.058 5.824 4.434 2.146 1.529 4.445 2.293 7.05 2.599 4.905.612 10.422.612 15.327-.612 2.605-.611 5.058-1.528 7.663-1.987 2.606-.306 5.058-.306 7.664-.917 4.597-1.07 8.736-5.045 11.954-8.256 1.686-1.682 2.759-3.516 3.679-5.81.766-2.14 1.226-4.28 2.299-6.268 1.073-1.987 2.758-3.822 3.985-5.656 1.532-2.14 2.452-4.128 2.912-6.574.766-3.364 1.532-7.033 1.379-10.55v-4.28c-.153-4.892-.766-9.326-3.219-13.453zm2.913 17.581c0 1.376-.154 2.752-.307 4.128-.46 4.28-1.379 8.867-3.985 12.383-1.226 1.682-2.759 3.364-3.985 5.198-1.226 1.835-1.992 3.975-2.759 6.116-.766 2.293-1.686 4.28-3.525 6.115-1.839 1.834-3.678 3.363-5.824 4.892-1.992 1.529-3.985 2.905-6.437 3.364-2.452.458-4.905.305-7.357.764-2.605.306-5.058 1.376-7.51 1.987-2.759.765-5.211.918-8.123.918-5.058.153-10.116.305-14.407-2.752-1.993-1.529-3.985-3.211-6.131-4.434-2.145-1.223-4.444-2.293-6.437-3.516-3.832-2.446-6.59-6.115-8.889-9.937-1.227-2.14-2.453-4.128-4.139-6.116-1.532-1.834-3.065-3.669-3.984-5.81-.767-2.293-.46-4.739 0-7.032.459-2.599.919-5.045.919-7.644s.153-5.198.613-7.644c.46-2.446 1.073-4.74 1.226-7.338.154-2.294.307-4.893 1.38-7.033 1.073-2.14 2.758-4.128 4.291-6.115 3.219-3.822 6.897-7.186 10.882-9.938 2.146-1.375 4.292-2.599 6.897-3.057 2.606-.459 5.211-.612 7.817-1.223 5.057-1.223 10.268-.459 15.48-.459 5.211-.153 9.962.917 15.02 2.446 4.751 1.529 8.889 4.587 12.567 7.95 1.993 1.835 3.832 3.67 5.671 5.504 1.686 1.834 3.066 3.822 4.445 5.962 2.606 3.822 5.211 7.186 5.977 11.925.767 3.516.614 6.88.614 10.396z" fill="#4D4D4D"/><path d="M197.332 44.794c-2.759-8.255-9.196-13.912-16.246-18.498-6.591-4.434-15.94-6.727-23.603-4.587-3.985 1.07-7.817 2.752-11.955 3.67-4.138 1.07-7.204 2.751-10.269 5.656-2.912 2.905-5.671 6.268-7.357 9.937-1.686 3.67-2.912 7.797-4.138 11.772-1.226 4.128-1.686 8.103-1.073 12.384.613 4.28 1.839 8.714 4.292 12.383 2.145 3.21 4.751 5.963 6.59 9.326 1.993 3.67 3.985 6.88 8.277 8.408 1.839.612 3.831 1.07 5.824 1.376 1.992.459 3.985 1.07 5.977 1.682 2.912.764 5.824 1.223 8.89 1.07 3.984 0 7.51-1.223 11.341-2.293 4.292-1.376 9.043-1.07 12.721-3.822 3.525-2.446 7.204-5.962 9.503-9.784 1.073-1.835 1.686-4.128 2.146-6.116.613-2.14 1.226-4.28 1.839-6.574.919-4.128.919-8.714.613-12.995-.613-4.586-1.993-8.867-3.372-12.995zm1.839 18.805c0 2.14-.153 4.28-.613 6.42-.306 1.835-1.073 3.67-1.379 5.505-.46 2.14-.92 4.127-1.686 6.115-.767 1.682-1.839 3.21-2.912 4.586-2.453 3.058-5.518 6.574-9.196 7.95-1.839.765-3.832 1.07-5.824 1.53-1.993.458-3.985 1.07-5.825 1.68-3.065.918-5.977 1.682-9.195 1.835-3.372 0-6.744-.611-9.81-1.528-2.145-.612-4.138-1.223-6.283-1.835-2.146-.612-4.445-1.07-6.438-2.293-3.525-2.14-4.751-6.268-6.59-9.479-2.299-3.822-5.518-6.88-7.05-11.16-1.38-3.975-2.606-8.256-2.453-12.537 0-4.28 1.38-8.408 2.759-12.536 1.226-3.822 2.299-7.644 4.751-11.008 2.299-3.057 4.752-6.268 7.97-8.408 3.219-2.293 7.357-2.752 11.189-3.822 3.985-1.223 7.816-3.058 11.955-3.058 4.138 0 8.429.918 12.414 2.293 3.832 1.376 6.897 3.823 10.116 6.269 3.218 2.446 6.284 5.35 8.583 8.867 2.299 3.516 3.525 7.797 4.598 11.772.613 4.28.919 8.408.919 12.842z" fill="#4D4D4D"/><path d="M191.048 49.534c-1.226-3.058-2.606-6.116-4.445-8.715-1.839-2.446-4.138-4.586-6.591-6.42-2.452-1.988-5.364-3.517-8.429-4.129-3.372-.458-6.897-.458-10.116-.152-3.525.305-6.743 1.376-9.962 2.752-3.065 1.223-5.977 2.599-8.583 4.586-2.452 1.835-4.291 4.28-5.824 7.185-1.533 3.058-3.065 6.269-3.832 9.632-.766 3.21-.613 6.574-.919 9.937-.307 3.21-.767 6.574.766 9.632 1.379 2.752 3.832 5.045 6.131 7.032 2.452 2.14 4.751 4.587 7.356 6.575 4.598 3.21 10.423 4.433 15.94 4.28 6.437.153 12.415-1.223 17.932-4.892 2.912-1.987 5.671-4.28 7.357-7.338 1.839-3.21 3.065-6.88 4.445-10.396 1.226-3.21 1.839-6.421 1.686-9.785-.613-3.21-1.686-6.574-2.912-9.784zm.766 14.524c-.613 3.363-1.992 6.42-3.219 9.631-1.072 2.905-1.992 5.963-3.985 8.409-1.992 2.446-4.751 4.586-7.356 6.115-4.598 2.752-9.656 3.516-14.867 3.516-5.824 0-11.955-1.376-16.4-5.35-2.758-2.447-5.364-5.199-7.969-7.798-2.299-2.293-4.445-4.892-4.905-8.255-.307-3.21.46-6.574.46-9.785 0-3.21.46-6.42 1.379-9.478 1.993-5.963 4.751-11.467 10.269-14.677 5.671-3.364 12.108-5.504 18.852-5.504 3.218 0 6.437 0 9.502 1.07 2.912 1.07 5.518 3.058 7.817 5.198 2.452 2.294 4.598 4.74 6.131 7.644 1.532 2.905 2.758 5.81 3.678 8.867.766 3.517 1.226 6.88.613 10.397z" fill="#4D4D4D"/><path d="M175.721 42.807c-3.831-2.905-8.889-5.045-13.794-4.892-5.057.153-9.962 2.904-13.793 5.962-3.985 3.058-6.744 7.338-7.817 12.23-.92 4.587-.92 10.09.92 14.372 1.839 4.28 5.517 8.255 9.655 10.396 3.525 1.834 7.664 1.834 11.495 1.834 4.292 0 9.196.459 12.875-2.14 1.992-1.529 3.525-3.517 4.751-5.657 1.226-2.14 2.605-4.128 3.678-6.268 2.453-4.587 2.912-9.326.767-14.065-2.146-4.434-4.905-8.867-8.737-11.772zm5.365 27.519c-2.146 3.669-3.832 8.408-7.664 10.549-3.371 1.834-7.356 1.528-11.035 1.528-4.444 0-8.736-.305-12.414-2.904-3.985-2.905-7.204-7.492-8.277-12.384-1.073-4.74-.919-10.243.767-14.83 1.532-3.974 4.444-7.338 8.123-9.631 4.138-2.599 8.889-4.586 13.794-3.975 4.444.612 9.196 3.21 12.414 6.421 1.686 1.682 2.912 3.516 4.139 5.504 1.226 2.14 2.605 4.434 3.218 6.88 1.073 4.892-.919 8.867-3.065 12.842z" fill="#4D4D4D"/><path d="M170.663 48.158c-5.364-3.21-12.721-2.6-17.625 1.376-4.905 3.975-7.817 10.854-4.752 16.817 2.606 5.045 8.277 8.867 13.948 8.867 6.284 0 12.567-4.587 14.713-10.549 1.993-6.115-.919-13.148-6.284-16.511zm4.138 18.04c-2.299 4.74-7.05 8.714-12.414 8.867-6.131 0-11.648-5.35-13.641-11.007-1.839-5.504.92-11.925 5.671-14.983 5.058-3.363 12.415-2.752 17.013 1.376 4.291 3.822 5.977 10.396 3.371 15.747z" fill="#4D4D4D"/><path d="M162.233 54.273c-3.525.306-6.897 3.21-6.897 6.88s3.526 6.115 6.897 5.962c3.526 0 6.744-2.14 7.204-5.656.46-4.128-3.219-7.492-7.204-7.186zm0 12.69c-6.897-.306-7.969-12.231-.306-12.078 3.525 0 6.437 3.057 5.977 6.574-.306 3.057-2.605 5.35-5.671 5.504zm3.526-59.166c-.613.306-.613 2.752-.767 3.516-.459 3.822-.766 7.797-1.073 11.62-.613 6.879-.919 13.912-1.226 20.791 1.073-5.503 2.146-11.16 3.066-16.664.613-3.516.919-7.185 1.532-10.702.46-2.752.92-5.503.92-8.255-.46-.153-1.993-.612-2.452-.306zm-21.764 3.669c-1.073 0-2.146.153-3.219.153.307 5.198 1.993 10.396 3.985 15.135-.613-5.045-.613-10.243-.766-15.288zm6.743-2.14a24.525 24.525 0 000 4.74c.154 3.668.767 7.185 1.227 10.854.919 6.88 1.686 13.453.613 20.333 2.452-12.23-.46-24.614-.767-36.997-1.226 0-1.073 0-1.073 1.07zM131.12 31.494c2.453 4.127 5.058 8.102 7.51 12.077-1.839-3.669-3.525-7.185-5.364-10.701-2.146-4.128-4.904-8.256-6.437-12.537-.307.153-1.226.306-1.379.612-.154.458.919 2.14 1.072 2.599 1.38 2.752 3.066 5.35 4.598 7.95zm-19.005 13.453c1.226.153 2.759-.153 4.138-.153 3.066.153 5.978.765 9.043 1.376 6.131 1.223 12.108 2.447 18.239.765-5.671 1.223-10.882.153-16.4-1.376-5.211-1.376-10.269-2.446-15.633-1.835 0 .306 0 .765.153 1.07.153.306-.153 0 .46.153zm2.146 28.743c2.453-1.988 5.518-3.364 8.43-4.587 5.824-2.447 11.648-4.434 16.553-8.409-4.751 2.752-9.809 4.128-15.02 5.657-5.365 1.681-10.116 3.822-13.794 7.95.306.305 1.073 1.223 1.532 1.376.46 0 1.84-1.682 2.299-1.988zm.153-12.384c3.679-1.988 7.357-4.128 10.882-6.421-2.759.764-5.364 1.681-8.123 2.446-2.146.764-4.291 1.376-6.437 2.14-1.226.459-3.219.918-3.985 1.988.307.611.766 2.293 1.226 2.599.613.305 2.299-.765 2.912-1.07 1.226-.46 2.452-1.07 3.525-1.682zm-.919 26.754c.306.153 1.992-.917 2.299-1.07 2.299-1.07 4.598-2.293 6.897-3.516l10.575-5.504c-6.743 2.752-13.794 5.35-20.384 8.714 0 .306.306 1.223.613 1.376z" fill="#4D4D4D"/><path d="M159.168 101.514c-.767 4.433-2.299 8.714-3.219 13.148.307.152 1.226.611 1.38.611.306-.153.613-1.223.613-1.376.919-1.987 1.532-3.975 2.145-5.962 2.453-9.02 2.759-18.499 3.066-27.672l.46-20.639c-.767 8.561-1.38 17.276-2.146 25.837-.613 5.351-1.226 10.702-2.299 16.053zm-23.603 5.351c.306.153 1.686 1.223 1.992 1.07.154 0 .767-1.07.767-1.376.46-.765.766-1.529 1.226-2.14 1.992-3.517 3.678-7.033 5.517-10.55a222.8 222.8 0 008.277-18.651 623.418 623.418 0 00-7.663 13.912c-3.372 5.963-7.051 11.619-10.116 17.735zM191.814 29.2l3.678-4.586c.767-.917 2.453-1.988 2.912-3.058-.153-.306-.613-.917-.766-1.07-.46-.306-.92.153-1.379.459-1.533 1.07-2.759 2.599-3.832 3.975-2.912 3.516-5.211 7.49-7.97 11.16a111.522 111.522 0 01-16.553 17.429c5.824-4.281 11.189-9.02 16.093-14.371 2.606-3.058 5.211-6.574 7.817-9.938zm18.852 52.745c-2.453-1.988-5.518-3.058-8.583-3.975-6.131-1.835-12.415-3.058-17.626-7.186 3.219 3.67 7.357 5.963 11.802 7.797 2.605 1.07 5.364 2.14 7.969 3.364 1.993.917 3.679 2.293 5.671 3.058.46-.612.92-1.07 1.38-1.682.153-.153.306-.306.306-.459.153-.153-.766-.764-.919-.917zm-38.164 25.073c-.766-5.046-1.992-9.938-3.065-14.83-.153 3.516-.153 6.88-.153 10.396 0 2.14 0 4.281.153 6.421 0 1.529-.153 3.516.46 4.892.613 0 1.073-.153 1.686-.153.306 0 1.532 0 1.686-.153.459-.458-.154-2.446-.154-2.904-.306-1.223-.459-2.446-.613-3.669zm17.319-9.173c-1.839-4.281-4.138-8.409-6.743-12.231 1.686 3.363 3.065 6.88 4.444 10.549.767 2.14 1.533 4.433 2.146 6.574.46 1.682.766 3.822 1.686 5.198.307-.153 1.379-.153 1.533-.306.306-.459-.307-1.987-.46-2.446-.766-2.446-1.686-4.892-2.606-7.338zm-2.912-41.125c8.89-5.504 19.925-6.575 29.274-11.008-.153-.612-.306-1.07-.613-1.223-.307-.153-1.226.306-1.533.458-.766.306-1.379.46-2.145.765-2.912.917-5.825 2.14-8.737 3.21-5.67 2.14-11.495 4.281-16.246 7.797zm13.028-17.124c1.686-1.07 3.372-2.14 4.904-3.363.614-.459 3.219-1.987 2.299-2.905-.459-.458-1.072-1.529-1.839-1.834-.919-.306-3.065 2.599-3.831 3.363-2.759 2.905-5.671 5.657-8.583 8.409 2.452-.918 4.904-2.14 7.05-3.67zm13.641 28.284c-.92-.612-1.993-.918-2.912-1.376-3.832-1.529-7.97-2.293-11.955-3.364 4.751 3.364 9.809 7.797 15.633 8.715.153-.459 1.226-1.988 1.073-2.446 0-.612-1.379-1.376-1.839-1.53z" fill="#4D4D4D"/></g><defs><clipPath id="clip0"><path fill="#fff" transform="translate(102)" d="M0 0h122v122H0z"/></clipPath></defs></svg>