<svg width="61" height="61" fill="none" xmlns="http://www.w3.org/2000/svg"><g clip-path="url(#clip0)"><path d="M48.5 13.546L51.333 9 53 13.546l-.833 3.636L50.083 19l-.833-1.364-.75-4.09zm4.301 7.876l5.373-2.818-.815 5.224-2.627 3.136-2.833.766-.06-1.727.962-4.581zm-7.208 9.898l.663-5.454 3.474 3.294.987 3.57-.886 2.505-1.318-.844-2.92-3.072zm-1.255-9.554L40.89 17.49l4.783-.197 3.248 1.78 1.18 2.381-1.524.357-4.238-.046zm9.529 9.157l6.066-.135-3.052 4.317-3.748 1.641-2.878-.573.715-1.573 2.898-3.677zm-1.948 9.899l5.429 2.163-4.684 2.313-4.07-.089-2.283-1.536 1.355-.993 4.253-1.858zm-12.272.853L42.288 36l2.14 3.695-.532 4.52-1.608 1.881-.94-1.06-1.701-3.361zm4.701 10.705l-4.81-3.132 4.096-.55 4.224 1.44 1.413 1.53-1.256.376-3.667.336z" fill="#00A6C9" stroke="#00A6C9"/><path d="M51.957 37.932a9.09 9.09 0 005.403-1.781 9.096 9.096 0 003.629-5.996 1.011 1.011 0 00-.847-1.152 9.135 9.135 0 00-7.294 2.069 22.6 22.6 0 00.097-2.614c4.588-1.344 7.416-6.053 6.356-10.784a1.011 1.011 0 00-1.207-.766 9.143 9.143 0 00-6.26 5 22.338 22.338 0 00-.695-1.842 9.086 9.086 0 003.232-5.563 9.095 9.095 0 00-1.57-6.83 1.01 1.01 0 00-1.41-.237 9.142 9.142 0 00-3.824 6.887c-.375-.438-.77-.865-1.185-1.28a1.011 1.011 0 00-1.43 1.43 20.564 20.564 0 011.519 1.698 9.119 9.119 0 00-6.435-.126 1.011 1.011 0 00-.616 1.29 9.096 9.096 0 004.69 5.209c1.25.596 2.59.897 3.935.897a9.13 9.13 0 002.07-.241c.497 1.711.767 3.475.808 5.244a9.092 9.092 0 00-5.382-4.254 1.011 1.011 0 00-1.255.686 9.096 9.096 0 00.757 6.967 9.087 9.087 0 004.645 4.11 20.293 20.293 0 01-4.15 6.808 9.14 9.14 0 00.242-1.618 9.096 9.096 0 00-2.298-6.62 1.011 1.011 0 00-1.428-.084c-3.537 3.145-4.056 8.439-1.343 12.197A20.318 20.318 0 0130.5 49.361c-3.644 0-7.14-.948-10.212-2.725a9.086 9.086 0 001.713-5.89 9.096 9.096 0 00-3.056-6.307 1.011 1.011 0 00-1.428.084 9.151 9.151 0 00-2.05 8.246 20.29 20.29 0 01-4.156-6.816 9.086 9.086 0 004.645-4.11 9.096 9.096 0 00.757-6.967 1.011 1.011 0 00-1.254-.687 9.123 9.123 0 00-5.383 4.264c.04-1.772.31-3.54.807-5.254.685.16 1.379.241 2.071.241 1.346 0 2.685-.3 3.936-.896a9.095 9.095 0 004.689-5.209 1.011 1.011 0 00-.616-1.29 9.116 9.116 0 00-6.436.127 20.86 20.86 0 011.52-1.7 1.011 1.011 0 00-1.43-1.43c-.415.415-.81.842-1.185 1.28a9.141 9.141 0 00-3.824-6.887 1.011 1.011 0 00-1.41.238 9.097 9.097 0 00-1.57 6.83 9.087 9.087 0 003.232 5.563c-.26.606-.49 1.22-.694 1.842a9.143 9.143 0 00-6.26-5 1.011 1.011 0 00-1.208.765c-1.059 4.732 1.768 9.44 6.357 10.785-.018.872.014 1.744.096 2.613a9.137 9.137 0 00-7.293-2.068 1.01 1.01 0 00-.847 1.152c.691 4.525 4.602 7.775 9.046 7.775.28 0 .564-.014.848-.041.325.75.695 1.483 1.105 2.2a9.149 9.149 0 00-8.084 1.778 1.011 1.011 0 00-.142 1.423 9.142 9.142 0 007.092 3.351 9.116 9.116 0 005.058-1.527c.557.536 1.136 1.04 1.736 1.511a9.147 9.147 0 00-6.702 4.56 1.011 1.011 0 00.383 1.379 9.104 9.104 0 006.956.849 9.088 9.088 0 005.035-3.551 22.447 22.447 0 008.158 1.521 22.44 22.44 0 008.157-1.521 9.087 9.087 0 005.035 3.55 9.106 9.106 0 006.956-.85c.487-.273.658-.89.384-1.376a9.147 9.147 0 00-6.703-4.561c.6-.47 1.18-.975 1.736-1.51a9.115 9.115 0 005.058 1.526 9.142 9.142 0 007.092-3.351 1.01 1.01 0 00-.142-1.423 9.148 9.148 0 00-8.084-1.778 22.3 22.3 0 001.105-2.2c.288.027.576.043.863.043zm2.112-15.91a7.08 7.08 0 013.416-2.82 7.152 7.152 0 01-4.51 7.113 7.08 7.08 0 011.094-4.293zm.465 10.285a7.081 7.081 0 014.209-1.388 7.082 7.082 0 01-2.58 3.603 7.081 7.081 0 01-4.209 1.387 7.079 7.079 0 012.58-3.602zM8.025 26.314a7.15 7.15 0 01-4.51-7.113 7.15 7.15 0 014.51 7.113zm-3.187 8.207a7.082 7.082 0 01-2.58-3.602 7.152 7.152 0 016.787 4.989 7.081 7.081 0 01-4.207-1.387zm9.998-16.285a7.08 7.08 0 014.393-.573 7.152 7.152 0 01-7.603 3.627 7.08 7.08 0 013.21-3.054zm-6.212-4.07a7.08 7.08 0 01.655-4.382 7.08 7.08 0 012.056 3.926 7.08 7.08 0 01-.656 4.382 7.083 7.083 0 01-2.055-3.926zm2.33 19.74a7.08 7.08 0 01.817-4.355A7.081 7.081 0 0115 26.518a7.151 7.151 0 01-4.045 7.388zm-5.846 8.896a7.15 7.15 0 018.38.835 7.15 7.15 0 01-8.38-.835zm13.257-6.063a7.08 7.08 0 011.618 4.124 7.08 7.08 0 01-1.125 4.285 7.151 7.151 0 01-.493-8.41zm-1.6 14.725a7.083 7.083 0 01-4.425-.196 7.151 7.151 0 018.035-2.285l.074.037a7.082 7.082 0 01-3.683 2.444zm24.252-10.601a7.081 7.081 0 011.62-4.125 7.082 7.082 0 011.125 4.286 7.082 7.082 0 01-1.619 4.125 7.082 7.082 0 01-1.126-4.286zm7.643 10.405a7.151 7.151 0 01-8.107-2.248l.072-.037a7.151 7.151 0 018.035 2.285zm7.232-8.466a7.152 7.152 0 01-8.38.835 7.152 7.152 0 018.38-.835zm-5.847-8.896a7.082 7.082 0 01-3.228-3.035A7.082 7.082 0 0146 26.518a7.151 7.151 0 014.045 7.389zM44.98 20.719a7.083 7.083 0 01-3.21-3.054 7.152 7.152 0 017.603 3.627 7.082 7.082 0 01-4.393-.573zm5.342-2.627a7.151 7.151 0 011.4-8.306 7.082 7.082 0 01.654 4.381 7.082 7.082 0 01-2.054 3.925z" fill="#A5CD00"/></g><defs><clipPath id="clip0"><path fill="#fff" d="M0 0h61v61H0z"/></clipPath></defs></svg>