<svg width="50" height="50" fill="none" xmlns="http://www.w3.org/2000/svg"><circle cx="25" cy="31" r="11" fill="#00A6C9"/><path d="M26.136 29.545h-2.272c-.682 0-1.137-.454-1.137-1.136 0-.682.455-1.136 1.137-1.136h3.409c.681 0 1.136-.455 1.136-1.137 0-.681-.454-1.136-1.136-1.136h-1.137v-1.136c0-.682-.454-1.137-1.136-1.137-.682 0-1.136.455-1.136 1.137V25c-1.932 0-3.41 1.477-3.41 3.409 0 1.932 1.478 3.41 3.41 3.41h2.273c.681 0 1.136.454 1.136 1.135 0 .682-.455 1.137-1.136 1.137h-3.41c-.681 0-1.136.454-1.136 1.136 0 .682.455 1.136 1.136 1.136h1.137V37.5c0 .682.454 1.136 1.136 1.136.682 0 1.136-.454 1.136-1.136v-1.136c1.932 0 3.41-1.478 3.41-3.41 0-1.931-1.478-3.409-3.41-3.409z" fill="#A5CD00"/><path d="M41.477 20.114l-7.727-8.41a1.217 1.217 0 00-1.59-.113 1.217 1.217 0 00-.115 1.59l7.728 8.41c2.84 3.182 4.431 7.273 4.431 11.477v11.25c0 1.932-1.477 3.41-3.409 3.41H9.091c-1.932 0-3.41-1.478-3.41-3.41V33.182c0-4.318 1.592-8.41 4.433-11.477l7.386-8.069h6.364v4.66C17.5 18.864 12.5 24.204 12.5 30.681c0 6.932 5.568 12.5 12.5 12.5s12.5-5.568 12.5-12.5c0-6.477-5-11.818-11.364-12.386v-4.66h2.273c.682 0 1.136-.454 1.136-1.136 0-.682-.454-1.136-1.136-1.136H17.045c-.34 0-.568.113-.795.34l-7.727 8.41c-3.296 3.636-5.114 8.295-5.114 13.068v11.136C3.41 47.5 5.91 50 9.091 50h31.818c3.182 0 5.682-2.5 5.682-5.682V33.182c0-4.773-1.818-9.432-5.114-13.068zm-6.25 10.568A10.185 10.185 0 0125 40.909a10.185 10.185 0 01-10.227-10.227A10.185 10.185 0 0125 20.455a10.185 10.185 0 0110.227 10.227zM36.136.455C35.91.114 35.568 0 35.227 0H14.773c-.341 0-.682.227-.91.455-.226.227-.34.681-.113 1.022l2.273 6.819c.114.454.568.795 1.023.795.113 0 .227 0 .34-.114.569-.227.91-.795.682-1.477l-1.704-5.227h17.272L32.16 6.818H21.591c-.682 0-1.136.455-1.136 1.136 0 .682.454 1.137 1.136 1.137h11.364a1.09 1.09 0 001.022-.796l2.273-6.818c.227-.34.114-.682-.114-1.022z" fill="#A5CD00"/></svg>