<svg width="59" height="59" fill="none" xmlns="http://www.w3.org/2000/svg"><path d="M15.5 53V33l14-10L44 33v20H15.5z" fill="#00A6C9" stroke="#00A6C9"/><path d="M29.5 34.189a2.748 2.748 0 100-5.496 2.748 2.748 0 000 5.496zm0-3.882a1.135 1.135 0 110 2.27 1.135 1.135 0 010-2.27z" fill="#A5CD00"/><path d="M53.303 39.812l-8.654-3.398v-2.932l.591.366a2.278 2.278 0 002.397-3.872l-6.11-3.785c.197-.494.364-1 .498-1.515h2.971a.806.806 0 00.807-.806v-4.763a.807.807 0 00-.807-.807h-2.97c-.305-1.2-.782-2.35-1.417-3.412l2.102-2.101a.808.808 0 000-1.141l-3.369-3.368a.806.806 0 00-1.14 0L36.1 10.379a12.76 12.76 0 00-3.413-1.415V5.992a.807.807 0 00-.807-.806h-4.762a.806.806 0 00-.806.806v2.97c-1.2.305-2.35.781-3.414 1.416l-2.101-2.101a.806.806 0 00-1.141 0l-3.368 3.368a.804.804 0 000 1.14l2.103 2.103a12.768 12.768 0 00-1.417 3.411h-2.97a.806.806 0 00-.807.807v4.764a.807.807 0 00.807.807h2.97c.136.514.302 1.02.5 1.514l-6.111 3.783a2.278 2.278 0 002.398 3.873l.59-.365v2.932l-8.654 3.398a.807.807 0 00-.511.75v12.446a.807.807 0 00.806.806h47.016a.807.807 0 00.806-.806V40.562a.807.807 0 00-.511-.75zm-34.893-16.1a.806.806 0 00-.791-.649H14.81v-3.15h2.809a.806.806 0 00.79-.65 11.2 11.2 0 011.678-4.044.807.807 0 00-.1-1.018l-1.988-1.986 2.227-2.227 1.988 1.986a.806.806 0 001.017.103 11.189 11.189 0 014.044-1.677.807.807 0 00.65-.79V6.798h3.15v2.808a.807.807 0 00.649.791 11.19 11.19 0 014.045 1.679.807.807 0 001.018-.1l1.987-1.988 2.227 2.226-1.987 1.986a.807.807 0 00-.101 1.018c.82 1.225 1.39 2.6 1.677 4.045a.806.806 0 00.791.649h2.809v3.15h-2.81a.806.806 0 00-.79.648c-.112.55-.264 1.09-.456 1.617l-2.977-1.843a7.913 7.913 0 10-15.316 0l-2.977 1.843a11.229 11.229 0 01-.456-1.616zm4.887-1.126a6.3 6.3 0 1112.407 0l-5.006-3.098a2.265 2.265 0 00-2.396 0l-5.005 3.098zm-10.386 9.89a.665.665 0 01-.7-1.132l16.94-10.484a.67.67 0 01.699 0l16.938 10.484a.665.665 0 01.215.914.677.677 0 01-.914.215L29.924 22.47a.806.806 0 00-.848 0L12.91 32.476zM6.8 41.112l7.552-2.963v14.052H6.8V41.112zm9.166-8.63L29.5 24.105l13.535 8.38v19.781H35.87v-10.32a.807.807 0 00-.807-.806H23.937a.807.807 0 00-.807.806v10.32h-7.165V32.483zm18.292 19.783h-9.513v-9.513h9.512v9.513zm17.945-.064H44.65V38.15l7.552 2.963v11.09z" fill="#A5CD00"/></svg>