<svg width="105" height="94" fill="none" xmlns="http://www.w3.org/2000/svg"><mask id="a" maskUnits="userSpaceOnUse" x="0" y="0" width="105" height="95" fill="#000"><path fill="#fff" d="M0 0h105v95H0z"/><path d="M7.504 91.915c.832-.85 1.665-1.684 2.483-2.547.34-.354.678-.58 1.228-.552 1.171.042 2.357.014 3.556.014.72 1.061 1.454 2.137 2.145 3.156h18.882c.607-.92 1.228-1.854 1.891-2.86h.395c1.44 0 2.88.015 4.319 0l10.386-.084c1.242-.014 2.47.014 3.712 0 .903-.014 1.806-.07 2.71-.07 2.709-.015 5.418 0 8.114 0 .028 0 .056.028.099.042.649.934 1.298 1.882 1.947 2.83H88.07c.72-1.005 1.51-2.094 2.286-3.17h4.106c1.101 1.019 2.173 2.024 3.246 3.029 1.326-1.246 2.653-2.505 3.965-3.722v-1.925l.085-6.935.085-5.492.084-5.024.085-5.28.085-5.576.085-4.826.084-5.449.085-5.661.085-5.322.084-5.151.085-5.407.085-5.491.084-5.067c.028-1.854.057-3.723.099-5.577.014-.41.071-.82.127-1.33-2.145-1.981-4.318-3.991-6.59-6.086h-4.827c-.55.75-1.086 1.472-1.58 2.222-.141.212-.254.297-.494.297-1.369 0-2.738.015-4.107 0-1.707-.014-3.4-.07-5.108-.085-2.413-.014-4.827 0-7.254-.014-.988 0-1.976-.056-2.963-.07-.283 0-.438-.085-.579-.34-.339-.58-.776-1.118-1.115-1.698-.155-.27-.353-.34-.62-.34h-4.799c-3.64 0-7.282.014-10.908 0a484.98 484.98 0 00-9.06-.142c-2.033-.014-4.079 0-6.111 0-.522.793-1.044 1.585-1.566 2.364h-13.28c-1.1 0-2.216.028-3.316.042-1.059 0-2.131.014-3.19 0a.61.61 0 01-.536-.283c-.48-.778-1.002-1.528-1.552-2.335H8.28C6.234 4.024 4.117 6.119 2 8.2c.014.14.042.268.042.395l.085 6.808.085 6.553c.028 1.415.07 2.845.098 4.26l.085 5.449.085 4.897.084 4.84.085 4.53.085 4.146.084 5.62.085 4.528.085 4.826.085 4.53.084 3.807.085 5.406.085 4.741.084 4.105c.014.382.099.693.424.99 1.086.991 2.102 2.053 3.16 3.072.114.113.255.198.396.297"/></mask><path d="M6.076 90.515a2 2 0 002.856 2.8l-2.856-2.8zm3.911-1.147l-1.444-1.383-.007.007 1.451 1.376zm1.228-.552l-.103 1.997.03.001.073-1.998zm3.556.014l1.656-1.123a2 2 0 00-1.656-.877v2zm2.145 3.156l-1.655 1.123a2 2 0 001.655.877v-2zm18.882 0v2a2 2 0 001.67-.899l-1.67-1.101zm1.891-2.86v-2a2 2 0 00-1.669.9l1.67 1.1zm4.714 0l-.017-1.999h-.003l.02 2zm10.386-.084l.017 2h.006l-.023-2zm3.712 0l.023 2h.008l-.031-2zm2.71-.07v2h.01l-.01-2zm8.213.042l1.642-1.142a2 2 0 00-1.008-.755l-.635 1.897zm1.947 2.83l-1.65 1.13a2 2 0 001.65.87v-2zm18.699 0v2a2 2 0 001.625-.835l-1.625-1.165zm2.286-3.17v-2a2 2 0 00-1.622.83l1.622 1.17zm4.106 0l1.359-1.468a2 2 0 00-1.359-.532v2zm3.246 3.029l-1.367 1.46a2 2 0 002.736-.002l-1.369-1.458zm3.965-3.722l1.36 1.466c.409-.379.64-.91.64-1.466h-2zm0-1.925l-2-.025v.025h2zm.085-6.935l-2-.031v.006l2 .025zm.085-5.492l-2-.034v.003l2 .031zm.084-5.024l2 .034v-.002l-2-.032zm.085-5.28l2 .033v-.002l-2-.03zm.085-5.576l-2-.035v.005l2 .03zm.085-4.826l1.999.035v-.004l-1.999-.03zm.084-5.449l2 .031-2-.03zm.085-5.661l-2-.032v.002l2 .03zm.085-5.322l-2-.033v.001l2 .032zm.084-5.151l2 .032v-.001l-2-.031zm.085-5.407l2 .031-2-.031zm.085-5.491l-2-.034v.003l2 .03zm.084-5.067l2 .033v-.003l-2-.03zm.099-5.577l-1.999-.068v.023l1.999.045zm.127-1.33l1.988.22a1.999 1.999 0 00-.631-1.69L103 8.469zm-6.59-6.086l1.355-1.47a2 2 0 00-1.355-.53v2zm-4.827 0v-2a2 2 0 00-1.612.817l1.612 1.183zm-1.58 2.222l1.665 1.107.005-.007-1.67-1.1zm-4.6.297l.02-2h-.004l-.017 2zm-5.11-.085l.017-2h-.005l-.011 2zm-7.253-.014l.012-2h-.012v2zm-2.963-.07l.028-2h-.028v2zm-.579-.34l1.75-.97a2.607 2.607 0 00-.023-.038l-1.727 1.008zm-1.115-1.698l-1.732 1 .005.008 1.727-1.008zm-16.327-.34l-.048 2h.04l.008-2zm-9.06-.142l-.014 2h.004l.01-2zm-6.111 0v-2a2 2 0 00-1.67.9l1.67 1.1zm-1.566 2.364v2a2 2 0 001.66-.886l-1.66-1.114zm-16.596.042v2h.026l-.026-2zm-3.19 0l.027-2h-.027v2zm-.536-.283l-1.702 1.05.037.057 1.665-1.107zM13.445 2L15.097.873A2 2 0 0013.445 0v2zM8.28 2V0a2 2 0 00-1.407.578L8.28 2zM2 8.2L.598 6.772A2 2 0 00.01 8.398L2 8.199zm.042.395h-2v.025l2-.025zm.085 6.808l-2 .025 2-.025zm.085 6.553l-2 .026v.014l2-.04zm.098 4.26l2-.031v-.009l-2 .04zm.085 5.449l-2 .031v.004l2-.035zm.17 9.737l-2 .035v.003l2-.038zm.084 4.53l-2 .037v.003l2-.04zm.085 4.146l2-.03v-.01l-2 .04zm.084 5.62l-2 .03v.006l2-.037zm.085 4.528l2-.035v-.002l-2 .037zm.085 4.826l-2 .035v.003l2-.038zm.085 4.53l-2 .037v.007l2-.045zm.084 3.807l2-.032v-.013l-2 .045zm.085 5.406l-2 .031v.005l2-.036zm.085 4.741l-2 .036v.005l2-.04zm.084 4.105l-2 .04.002.034 1.998-.074zm.424.99l-1.351 1.476.003.002 1.348-1.477zm3.16 3.072l1.417-1.412-.03-.029-1.386 1.44zm-.753 1.934a2 2 0 102.298-3.274l-2.298 3.274zm2.69-.322c.817-.833 1.673-1.692 2.507-2.572l-2.903-2.751c-.803.847-1.612 1.658-2.46 2.523l2.856 2.8zm2.5-2.564c.097-.101.08-.062-.02-.012a.744.744 0 01-.183.063.501.501 0 01-.117.01l.206-3.994a3.35 3.35 0 00-1.686.34 3.938 3.938 0 00-1.09.826l2.89 2.767zm-.29.063c1.22.044 2.495.016 3.63.016v-4c-1.265 0-2.36.028-3.484-.013l-.145 3.997zm1.974-.862c.715 1.054 1.463 2.151 2.146 3.157l3.31-2.246c-.701-1.033-1.42-2.087-2.145-3.156l-3.311 2.245zm3.8 4.034h18.882v-4H16.916v4zm20.552-.899c.618-.937 1.211-1.829 1.89-2.858l-3.338-2.204c-.647.98-1.296 1.957-1.891 2.86l3.339 2.202zm.221-1.96h.395v-4h-.395v4zm.395 0c1.412 0 2.888.014 4.338 0l-.039-4c-1.428.014-2.831 0-4.299 0v4zm4.335 0l5.193-.043 5.194-.042-.033-4-5.193.043-5.194.042.033 4zm10.393-.085c.601-.007 1.201-.004 1.822 0 .614.004 1.249.007 1.89 0l-.046-4c-.601.007-1.201.004-1.822 0-.614-.004-1.249-.007-1.89 0l.046 4zm3.72 0c1.094-.017 1.73-.07 2.678-.07v-4c-.859 0-2.028.06-2.74.07l.062 4zm2.689-.07c2.703-.015 5.394 0 8.104 0v-4c-2.68 0-5.41-.015-8.125 0l.02 4zm8.104 0a1.944 1.944 0 01-.87-.206l-.06-.032.085.046c.066.034.173.085.31.13l1.268-3.793c.115.038.202.08.25.105l.034.018c-.014-.008-.12-.069-.261-.124a2.056 2.056 0 00-.756-.145v4zm-1.544-.817c.645.927 1.29 1.87 1.94 2.82l3.3-2.26a445.359 445.359 0 00-1.955-2.843l-3.285 2.283zm3.59 3.69H88.07v-4h-18.7v4zm20.324-.836c.718-1.001 1.502-2.084 2.282-3.165l-3.243-2.34c-.772 1.07-1.568 2.167-2.29 3.176l3.251 2.329zm.66-2.335h4.108v-4h-4.107v4zm2.748-.532a733.178 733.178 0 013.238 3.02l2.734-2.919a732.834 732.834 0 00-3.254-3.037l-2.718 2.936zm5.974 3.019c1.338-1.257 2.649-2.502 3.956-3.714l-2.72-2.933c-1.317 1.222-2.66 2.496-3.974 3.73l2.738 2.917zm4.596-5.18v-1.925h-4v1.924h4zm0-1.9l.043-3.469.042-3.467-4-.049-.042 3.468-.042 3.467 3.999.05zm.085-6.93l.042-2.745.043-2.746-4-.062-.042 2.746-.043 2.746 4 .061zm.085-5.488l.042-2.512.042-2.512-4-.068-.042 2.512-.042 2.512 4 .068zm.084-5.026l.043-2.64.042-2.64-4-.063-.042 2.64-.042 2.639 3.999.064zm.085-5.28a49173.069 49173.069 0 00.085-5.577l-4-.061-.042 2.788-.043 2.788 4 .061zm.085-5.573l.042-2.413.042-2.413-3.999-.07-.043 2.413-.042 2.413 4 .07zm.084-4.83l.043-2.724.042-2.725-4-.062-.042 2.725-.042 2.724 3.999.062zm.085-5.45l.042-2.83.043-2.831-4-.06-.042 2.83-.043 2.831 4 .06zm.085-5.66l.042-2.66.042-2.66-3.999-.065-.043 2.661-.042 2.661 4 .064zm.084-5.32l.043-2.576.042-2.576-4-.065-.042 2.576-.042 2.575 3.999.066zm.085-5.153l.042-2.703.043-2.704-4-.062-.042 2.703-.043 2.703 4 .063zm.085-5.407l.042-2.746.042-2.745-3.999-.062-.043 2.745-.042 2.746 4 .062zm.084-5.489l.043-2.534.042-2.533-4-.067-.042 2.534-.042 2.533 3.999.067zm.085-5.07c.028-1.855.056-3.716.098-5.561l-3.998-.091c-.043 1.863-.071 3.739-.1 5.591l4 .061zm.098-5.538c.01-.31.051-.596.116-1.179l-3.976-.44c-.048.436-.12.971-.138 1.482l3.998.137zM104.357 7c-2.144-1.98-4.319-3.992-6.592-6.087l-2.711 2.94c2.271 2.094 4.443 4.103 6.589 6.085L104.357 7zM96.41.382h-4.827v4h4.827v-4zm-6.44.817c-.537.733-1.11 1.503-1.638 2.305l3.341 2.2c.46-.698.96-1.371 1.523-2.139L89.97 1.2zm-1.633 2.298c-.023.034.103-.176.39-.357a1.51 1.51 0 01.782-.239v4a2.5 2.5 0 001.35-.376c.438-.276.691-.636.81-.814l-3.332-2.214zm1.172-.596c-1.398 0-2.73.015-4.086 0l-.041 4c1.38.015 2.787 0 4.127 0v-4zm-4.09 0c-.84-.006-1.677-.024-2.53-.042-.848-.017-1.71-.035-2.579-.042l-.033 4c.84.006 1.677.024 2.53.042.848.017 1.71.035 2.579.042l.033-4zm-5.114-.084c-1.213-.008-2.425-.008-3.633-.008-1.21 0-2.413 0-3.62-.007l-.024 4c1.22.007 2.437.007 3.644.007 1.21 0 2.41 0 3.61.007l.023-4zm-7.265-.015c-1.028 0-1.773-.054-2.935-.07l-.057 4c.814.011 2.045.07 2.992.07v-4zm-2.963-.07c.047 0 .33.004.659.194.333.193.48.441.511.497L67.75 5.36c.171.31.468.729.984 1.027a2.65 2.65 0 001.344.344v-4zm1.148.652c-.215-.37-.455-.714-.641-.982a10.93 10.93 0 01-.474-.717l-3.454 2.017c.215.37.456.713.642.981.202.291.35.506.473.717l3.454-2.016zm-1.11-1.69A2.64 2.64 0 0069.012.635a2.76 2.76 0 00-1.25-.281v4c-.026 0-.259 0-.543-.143a1.366 1.366 0 01-.568-.518l3.464-2zM67.762.354h-4.798v4h4.799v-4zm-4.798 0c-3.652 0-7.279.014-10.9 0l-.016 4c3.631.014 7.286 0 10.916 0v-4zm-10.861 0a481.7 481.7 0 00-9.098-.142l-.019 4c3.016.014 6.022.07 9.022.141l.094-3.999zM43.01.212c-2.04-.014-4.113 0-6.125 0v4c2.052 0 4.073-.014 6.097 0l.028-4zm-7.795.9c-.523.794-1.04 1.58-1.557 2.35L36.98 5.69c.527-.787 1.054-1.586 1.575-2.377l-3.34-2.201zm.104 1.464h-9.131v4h9.132v-4zm-9.13 0h-4.151v4h4.149v-4zm-4.15 0c-1.116 0-2.277.029-3.342.042l.052 4c1.136-.014 2.204-.042 3.29-.042v-4zm-3.316.042c-1.096 0-2.12.014-3.163 0l-.053 4c1.074.015 2.195 0 3.216 0v-4zm-3.19 0c.139 0 .348.025.58.137.244.117.43.292.55.473l-3.331 2.214a2.61 2.61 0 002.201 1.176v-4zm1.167.668c-.511-.829-1.069-1.63-1.603-2.413l-3.304 2.254c.566.83 1.053 1.53 1.502 2.258l3.405-2.1zM13.445 0H8.28v4h5.165V0zM6.873.578C4.826 2.603 2.713 4.695.598 6.773l2.804 2.852c2.12-2.083 4.239-4.18 6.284-6.203L6.873.578zM.01 8.398c.007.07.015.131.021.176l.008.058a6.4 6.4 0 01.005.038.939.939 0 01-.002-.074h4A3.412 3.412 0 004 8.073l-.006-.042a1.735 1.735 0 01-.003-.024V8L.01 8.398zm.032.222l.043 3.404.042 3.404 4-.05a86274.465 86274.465 0 01-.085-6.808l-4 .05zm.085 6.809l.043 3.276.042 3.277 4-.052-.043-3.276-.042-3.277-4 .052zm.085 6.567c.014.713.032 1.43.05 2.14.017.712.035 1.418.049 2.12l4-.08c-.015-.713-.033-1.43-.05-2.14-.018-.712-.036-1.418-.05-2.12l-3.999.08zm.099 4.251l.042 2.725.042 2.724 4-.062-.042-2.724-.043-2.725-4 .062zM.395 31.7l.043 2.448.042 2.449 4-.07-.043-2.448-.042-2.449-4 .07zm.085 4.897l.085 4.84 4-.07c-.03-1.613-.057-3.212-.085-4.84l-4 .07zm.085 4.843l.042 2.264.043 2.265 3.999-.075-.043-2.264-.042-2.265-4 .075zm.085 4.532l.042 2.074.042 2.073 4-.081-.043-2.074-.042-2.073-4 .081zm.084 4.136l.042 2.81.043 2.81 4-.061-.043-2.81-.042-2.809-4 .06zm.085 5.626L.86 58l.043 2.264 3.999-.074a24733.62 24733.62 0 00-.085-4.53l-4 .075zm.084 4.527l.085 4.826 4-.07-.085-4.826-4 .07zm.085 4.829l.043 2.264.042 2.265 4-.075c-.015-.757-.03-1.51-.043-2.265l-.043-2.264-3.999.075zm.085 4.536l.042 1.903.043 1.904 3.999-.089a16728.381 16728.381 0 00-.085-3.807l-3.999.089zm.084 3.794a42050.81 42050.81 0 01.085 5.406l4-.062-.043-2.703-.042-2.704-4 .063zm.085 5.41l.043 2.371.042 2.371 4-.071-.043-2.371-.042-2.37-4 .07zm.085 4.748l.042 2.052.043 2.052L5.41 87.6l-.043-2.053-.042-2.052-3.999.082zm.086 4.137c.026.727.23 1.622 1.07 2.392l2.702-2.95a.64.64 0 01.088.102.878.878 0 01.097.182c.048.125.042.197.04.126l-3.997.148zm1.074 2.394c1.073.979 1.972 1.928 3.122 3.035l2.774-2.882c-.967-.931-2.1-2.106-3.2-3.108L2.486 90.11zm3.092 3.006c.17.17.336.294.443.37a7.064 7.064 0 00.22.152l2.298-3.274-.13-.09a3.403 3.403 0 01-.067-.045c-.011-.008-.008-.006.003.003.012.01.036.03.066.06l-2.833 2.824z" fill="#fff" fill-opacity=".2" mask="url(#a)"/></svg>