<svg width="15" height="15" fill="none" xmlns="http://www.w3.org/2000/svg"><g clip-path="url(#clip0)" fill="#00A6C9"><path d="M13.5 1.5h-.75V.75c0-.45-.3-.75-.75-.75s-.75.3-.75.75v.75h-7.5V.75C3.75.3 3.45 0 3 0s-.75.3-.75.75v.75H.75c-.375 0-.75.3-.75.75v10.5c0 .45.375.75.75.75h4.575a6.013 6.013 0 01-.825-3c0-3.3 2.7-6 6-6 1.425 0 2.7.525 3.75 1.35v-3.6c0-.375-.375-.75-.75-.75z"/><path d="M10.5 6A4.513 4.513 0 006 10.5c0 2.475 2.025 4.5 4.5 4.5s4.5-2.025 4.5-4.5S12.975 6 10.5 6zm1.5 5.25h-1.5c-.45 0-.75-.3-.75-.75V8.25c0-.45.3-.75.75-.75s.75.3.75.75v1.5H12c.45 0 .75.3.75.75s-.3.75-.75.75z"/></g><defs><clipPath id="clip0"><path fill="#fff" d="M0 0h15v15H0z"/></clipPath></defs></svg>