<svg width="75" height="75" fill="none" xmlns="http://www.w3.org/2000/svg"><path d="M4.964 46.636h23.597v23.602H4.964V46.636zm21.493-21.97h22.926L29.063 45H6.094l20.344-20.344.019.01zM50.532 48.75L30.188 69.094V46.163l20.344-20.344V48.75zm1.125-25.64a.868.868 0 00-.31-.061H26.12a.811.811 0 00-.572.239l-21.97 21.96a.81.81 0 00-.24.577v25.228a.806.806 0 00.812.811h25.228a.812.812 0 00.576-.239l21.97-21.97a.853.853 0 00.24-.577V23.855a.825.825 0 00-.506-.755v.01z" fill="#A5CD00"/><path d="M9.722 54.844c-.436-2.344-1.35-3.038-1.96-3.502-.468-.365-.712-.572 1.594-5.053H7.814c-2.175 4.27-2.222 5.114-.886 6.14.497.38 1.111.85 1.449 2.668.66 3.506-2.147 6.797-3.896 8.465v1.843c1.566-1.28 6.179-5.57 5.241-10.561z" fill="#A5CD00"/><path d="M4.29 65.827v-2.344l.06-.056c1.706-1.632 4.481-4.875 3.84-8.288-.33-1.753-.91-2.198-1.374-2.555-1.463-1.12-1.332-2.132.83-6.38l.05-.102h1.97l-.141.28c-2.24 4.355-2.006 4.538-1.645 4.815.628.469 1.58 1.205 2.03 3.619.96 5.095-3.82 9.506-5.307 10.739l-.314.272zm.379-2.166v1.35C6.375 63.53 10.397 59.48 9.534 54.9c-.426-2.269-1.303-2.944-1.875-3.39-.571-.444-.726-.862 1.407-5.01H7.93c-2.147 4.219-2.081 4.88-.886 5.798.52.394 1.168.886 1.52 2.785.665 3.548-2.124 6.876-3.877 8.578h-.02zm6.703-17.353c-.623 1.72-1.481 4.898-.272 6.904.666 1.102 1.81 1.697 3.403 1.777h.413a6.675 6.675 0 005.498-2.714 9.403 9.403 0 001.814-5.981h-1.364a8.067 8.067 0 01-1.542 5.156 5.297 5.297 0 01-4.753 2.16c-1.125-.055-1.875-.421-2.292-1.11-.938-1.58-.08-4.599.558-6.202l-1.463.01z" fill="#A5CD00"/><path d="M14.916 55.19h-.422c-1.664-.084-2.86-.712-3.553-1.875-1.256-2.076-.38-5.32.248-7.068l.047-.127h1.875l-.103.263c-.806 2.034-1.406 4.687-.572 6.032.385.633 1.083.966 2.138 1.022a5.114 5.114 0 004.593-2.09 7.907 7.907 0 001.5-5.02v-.207h1.74v.178a9.586 9.586 0 01-1.875 6.094 6.845 6.845 0 01-5.616 2.798zm-3.413-8.69c-.6 1.71-1.378 4.72-.239 6.614.628 1.04 1.72 1.608 3.249 1.687h.403a6.493 6.493 0 005.348-2.639 9.249 9.249 0 001.768-5.662h-.938a8.278 8.278 0 01-1.617 5.062 5.47 5.47 0 01-4.917 2.24c-1.191-.06-1.993-.468-2.447-1.204-1.027-1.71-.033-4.847.445-6.093l-1.055-.005zm10.612 23.812a1.782 1.782 0 01-.084-1.406l.038-.201a3.155 3.155 0 00-1.144-2.691c-2.011-1.608-5.925-.858-6.492-.736-2.204.202-2.958 3.342-3.211 5.063h1.406c.262-1.604.89-3.629 1.969-3.704h.107c.793-.182 4.046-.632 5.391.47a1.79 1.79 0 01.619 1.48 3.478 3.478 0 00-.047 1.754h1.49l-.042-.029z" fill="#A5CD00"/><path d="M22.144 70.528h-1.64l-.038-.14a3.676 3.676 0 01.047-1.829 1.608 1.608 0 00-.553-1.308c-1.275-1.054-4.496-.609-5.227-.445h-.122c-.937.066-1.533 1.875-1.809 3.544l-.028.16h-1.772l.033-.216c.276-1.875 1.078-5.011 3.38-5.227.435-.094 4.523-.91 6.632.797a3.344 3.344 0 011.214 2.84l-.042.23a1.63 1.63 0 00.052 1.238l.267.314-.394.042zm-1.34-.38h1.021a2.226 2.226 0 01.029-1.289l.028-.173a2.966 2.966 0 00-1.074-2.508c-1.973-1.594-5.897-.81-6.337-.717-1.978.187-2.738 2.92-3.024 4.687h1.003c.216-1.2.807-3.609 2.12-3.698h.093c.801-.183 4.13-.638 5.54.53a1.96 1.96 0 01.69 1.626v.052c-.14.484-.17.993-.09 1.49zm4.326.192h1.612c.47-.9.994-2.713.09-5.296-.67-1.875.562-3.67 1.678-4.805v-1.875c-1.374 1.111-4.12 3.844-2.972 7.116.754 2.151.3 3.59-.038 4.26a3.281 3.281 0 01-.37.6z" fill="#A5CD00"/><path d="M26.86 70.528h-2.133l.253-.31a2.76 2.76 0 00.347-.543c.328-.642.764-2.03.028-4.116-1.196-3.417 1.725-6.262 3.037-7.326l.31-.253v2.344l-.057.056c-1.092 1.11-2.264 2.812-1.636 4.603.938 2.676.343 4.56-.098 5.447l-.052.098zm-1.36-.38h1.12c.408-.871.886-2.601.033-5.043-.689-1.95.511-3.75 1.669-4.94V58.79c-1.34 1.167-3.638 3.698-2.606 6.642.782 2.217.304 3.717-.047 4.41a3.16 3.16 0 01-.169.305zM15.216 59.105c4.012 0 6.06-3.09 8.437-6.666a42.658 42.658 0 014.688-6.131h-1.875A49.153 49.153 0 0022.5 51.68c-2.344 3.51-4.017 6.051-7.294 6.051-5.371 0-7.03 9.408-7.42 12.61H9.16c.52-3.957 2.245-11.236 6.056-11.236z" fill="#A5CD00"/><path d="M9.338 70.528H7.58l.028-.21c1.458-11.532 5.808-12.779 7.608-12.779 3.174 0 4.833-2.503 7.134-5.967a49.525 49.525 0 013.97-5.39l.057-.066h2.386l-.31.323a43.479 43.479 0 00-4.645 6.094c-2.4 3.623-4.476 6.75-8.592 6.75-3.281 0-5.198 5.962-5.855 11.072l-.023.173zm-1.327-.38h.994c.3-2.23 1.795-11.25 6.211-11.25 3.91 0 5.934-3.051 8.274-6.562a44.76 44.76 0 014.387-5.836H26.55a49.098 49.098 0 00-3.88 5.283c-2.345 3.562-4.074 6.14-7.454 6.14-5.123 0-6.778 9.08-7.205 12.225z" fill="#A5CD00"/><path d="M25.748 54.023a9.675 9.675 0 01-7.378 7.852 7.572 7.572 0 01-3.619 0 .685.685 0 10-.44 1.294 6.93 6.93 0 002.137.286 10.695 10.695 0 002.213-.244 11.049 11.049 0 008.437-8.948c.277-1.543.755-2.56 1.407-3.043v-1.532c-1.107.37-2.255 1.5-2.757 4.335z" fill="#A5CD00"/><path d="M16.448 63.652a7.347 7.347 0 01-2.198-.296.876.876 0 01-.544-1.115.877.877 0 011.107-.54 7.498 7.498 0 003.515 0 9.488 9.488 0 007.233-7.696c.445-2.48 1.406-3.994 2.887-4.49l.254-.09v1.908l-.075.056c-.624.469-1.074 1.449-1.341 2.925a11.25 11.25 0 01-8.583 9.09c-.74.16-1.496.244-2.255.248zm-1.917-1.613a.469.469 0 00-.468.708.467.467 0 00.28.248 6.94 6.94 0 002.077.272c.73-.002 1.458-.083 2.17-.239a10.856 10.856 0 008.321-8.794c.272-1.518.745-2.564 1.406-3.103V49.96c-1.19.54-1.992 1.918-2.386 4.097a9.843 9.843 0 01-7.528 8.002 7.858 7.858 0 01-3.703 0 .531.531 0 00-.169-.019z" fill="#A5CD00"/><path d="M50.095 53.752l-5.99-3.75A31.664 31.664 0 0131.95 10.283l2.61-5.873h5.71v2.451a2.456 2.456 0 004.912 0v-2.45h9.844v2.451a2.456 2.456 0 004.913 0V4.411h5.686l2.61 5.873a31.664 31.664 0 01-12.154 39.722l-5.986 3.745z" fill="#00A6C9"/><path d="M40.584 32.855v-2.311c.982.619 2.12.944 3.281.937 1.505 0 2.649-.717 2.649-2.001 0-1.181-1.027-1.983-2.668-1.983a8.626 8.626 0 00-2.868.511l.782-6.53h6.394v2.119h-4.56l-.258 2.034a5.27 5.27 0 011.148-.117 4.688 4.688 0 013.23 1.092 3.615 3.615 0 011.28 2.874 3.675 3.675 0 01-1.454 3.094 5.625 5.625 0 01-3.553 1.11 6.853 6.853 0 01-3.403-.83zm11.626-.042c-1.59-1.177-2.377-3.127-2.377-5.33a7.637 7.637 0 01.581-3.042 4.97 4.97 0 014.58-3.183 4.462 4.462 0 013.75 1.828 6.96 6.96 0 011.406 4.397 6.956 6.956 0 01-1.406 4.392 4.767 4.767 0 01-6.53.938h-.005zm2.784-1.407a2.208 2.208 0 001.95-1.13 5.007 5.007 0 00.736-2.784 4.903 4.903 0 00-.736-2.77 2.194 2.194 0 00-1.95-1.144 2.236 2.236 0 00-1.964 1.144 4.903 4.903 0 00-.736 2.77c-.033.98.223 1.948.736 2.784a2.25 2.25 0 001.964 1.13zm-16.928 2.872l-2.141 2.141 1.273 1.273 2.14-2.141-1.272-1.273zm23.161-.002l-1.273 1.273 2.141 2.142 1.273-1.273-2.141-2.142zm.873-16.397l-2.142 2.141 1.273 1.273 2.141-2.141-1.273-1.273zm-24.903-.003l-1.273 1.272 2.141 2.142 1.273-1.273-2.141-2.141z" fill="#A5CD00"/></svg>