<svg width="69" height="69" fill="none" xmlns="http://www.w3.org/2000/svg"><path d="M67.922 32.885H1.078a1.077 1.077 0 110-2.156h66.844a1.077 1.077 0 110 2.156zm0 5.391H1.078a1.077 1.077 0 110-2.157h66.844a1.077 1.077 0 110 2.157z" fill="#A5CD00"/><path fill="#00A6C9" d="M6.44 54.28h55.2v2.76H6.44z"/><path d="M61.465 32.885a1.077 1.077 0 01-1.078-1.078c0-7.134-5.804-12.938-12.938-12.938-2.62 0-5.142.78-7.298 2.253a1.077 1.077 0 11-1.217-1.78 15.013 15.013 0 018.514-2.629c8.323 0 15.094 6.77 15.094 15.094a1.076 1.076 0 01-1.077 1.078zm-47.558-7.452a.559.559 0 01-.56-.558 5.038 5.038 0 00-5.032-5.032h-.003c-.986 0-1.941.285-2.762.826a.559.559 0 11-.615-.933 6.118 6.118 0 013.377-1.011h.003a6.157 6.157 0 016.15 6.15c0 .309-.25.558-.558.558z" fill="#A5CD00"/><circle cx="8.28" cy="24.84" fill="#00A6C9" r="6.44"/><path d="M47.448 46.9a1.077 1.077 0 110-2.156c5.212 0 9.892-3.102 11.922-7.901a1.077 1.077 0 111.986.84A15.075 15.075 0 0147.448 46.9z" fill="#A5CD00"/><path d="M47.447 43.667a1.077 1.077 0 110-2.156 9.745 9.745 0 008.409-4.854 1.071 1.071 0 011.472-.392c.516.297.692.957.393 1.473a11.902 11.902 0 01-10.274 5.93zm-.026 3.233a15.07 15.07 0 01-13.906-9.217 1.078 1.078 0 111.986-.841 12.92 12.92 0 0011.922 7.901 1.079 1.079 0 01-.001 2.157z" fill="#A5CD00"/><path d="M47.422 43.667a11.902 11.902 0 01-10.273-5.93 1.078 1.078 0 111.865-1.08 9.743 9.743 0 008.408 4.854 1.077 1.077 0 110 2.156zm3.263-10.782a1.077 1.077 0 01-1.078-1.078 2.159 2.159 0 00-4.316 0 1.077 1.077 0 11-2.156 0 4.319 4.319 0 014.313-4.314 4.319 4.319 0 014.315 4.314c0 .596-.483 1.078-1.078 1.078zm-43.138 0C3.387 32.885 0 29.499 0 25.338c0-4.16 3.386-7.547 7.547-7.547 4.16 0 7.547 3.387 7.547 7.547s-3.387 7.547-7.547 7.547zm0-12.937a5.397 5.397 0 00-5.39 5.39 5.397 5.397 0 005.39 5.39 5.397 5.397 0 005.39-5.39 5.397 5.397 0 00-5.39-5.39z" fill="#A5CD00"/><path d="M7.547 28.573a3.238 3.238 0 01-3.234-3.235 3.238 3.238 0 013.234-3.234 3.238 3.238 0 013.234 3.234 3.238 3.238 0 01-3.234 3.235zm0-4.313a1.079 1.079 0 100 2.157 1.079 1.079 0 000-2.157zm28.027 8.625a1.077 1.077 0 110-2.156 5.395 5.395 0 005.39-5.39 5.395 5.395 0 00-5.39-5.39 1.077 1.077 0 110-2.155c4.16 0 7.546 3.385 7.546 7.545s-3.386 7.546-7.546 7.546z" fill="#A5CD00"/><path d="M35.574 19.948H7.547a1.077 1.077 0 110-2.157h28.027a1.077 1.077 0 110 2.157zm3.234-3.235c-.276 0-.552-.105-.762-.316l-3.1-3.1a1.077 1.077 0 111.525-1.524l3.1 3.1a1.077 1.077 0 01-.763 1.84zm-5.391 0c-.276 0-.552-.105-.762-.316L28.3 12.041a1.077 1.077 0 111.524-1.525l4.357 4.357a1.077 1.077 0 01-.763 1.84zm9.736-2.156a1.082 1.082 0 01-1.084-1.078c0-.596.477-1.078 1.072-1.078h.012a1.078 1.078 0 110 2.156zm-5.391-5.391a1.082 1.082 0 01-1.083-1.078c0-.596.476-1.078 1.071-1.078h.012a1.078 1.078 0 110 2.156zm-5.389 0a1.082 1.082 0 01-1.083-1.078c0-.596.476-1.078 1.071-1.078h.012a1.078 1.078 0 110 2.156zM2.153 61.99a1.077 1.077 0 01-1.078-1.078V37.263a1.077 1.077 0 112.156 0v23.65c0 .595-.482 1.077-1.078 1.077zm4.315 0a1.077 1.077 0 01-1.078-1.078V37.263a1.077 1.077 0 112.156 0v23.65c0 .595-.482 1.077-1.078 1.077zm56.062 0a1.077 1.077 0 01-1.078-1.078V37.263a1.077 1.077 0 112.156 0v23.65c0 .595-.481 1.077-1.078 1.077zm4.315 0a1.077 1.077 0 01-1.078-1.078V37.263a1.077 1.077 0 112.156 0v23.65c0 .595-.482 1.077-1.078 1.077z" fill="#A5CD00"/><path d="M1.078 38.276A1.077 1.077 0 010 37.197v-5.39a1.077 1.077 0 112.156 0v5.39c0 .597-.482 1.079-1.078 1.079zm66.844 0a1.077 1.077 0 01-1.078-1.079v-5.39a1.077 1.077 0 112.156 0v5.39c0 .597-.482 1.079-1.078 1.079zM62.53 54.482H6.468a1.077 1.077 0 110-2.156H62.53a1.077 1.077 0 110 2.156zm0 4.196H6.468a1.077 1.077 0 110-2.157H62.53a1.077 1.077 0 110 2.157z" fill="#A5CD00"/></svg>