<svg width="75" height="75" fill="none" xmlns="http://www.w3.org/2000/svg"><path d="M44.531 49.983a3.947 3.947 0 00-.248-.858 5.077 5.077 0 01-.286-1.092c-.033-.731.038-1.467 0-2.203a4.223 4.223 0 00-.173-1.078c-.179-.61.06-1.674-.16-2.274a5 5 0 00-.314-.595c-.122.14-.206.192-.22.258a1.064 1.064 0 01-1.261.736 6.93 6.93 0 00-1.688-.507c-1.71-.243-2.643-1.34-3.28-2.812-.306-.694-.671-1.364-1.032-2.086 1.308-1.313 3.023-2.04 4.58-2.813-.155-.173-.47-.393-.432-.51.253-.807.567-1.59.877-2.377.136-.338.98-2.105 1.092-2.25h-.173l-.296-1.57h-.08c0 .623-.323 2.053-.426 3-.37.468-.436.468-.74-.141-.047-.09-.146-.169-.16-.258-.084-.595-.839-1.125-.164-1.767l-.39-.469c-.093.117-.177.24-.266.356h-.211l-.295-1.743h-.197a4.618 4.618 0 000 1.439c.22.665.656 1.256.937 1.908a4.62 4.62 0 01.563 1.814c-.061 1.687-.764 3.032-2.504 3.632l-.323-.253c-.825-.618-.816-.61-.173-1.406.138-.2.21-.44.206-.684 0-.418-.122-.84-.103-1.252.045-.361.123-.717.234-1.064.272-.839.595-1.81.633-2.039l-.277-.037a6.276 6.276 0 00-.623 1.94 1.065 1.065 0 01-.417-.276 18.905 18.905 0 01-1.153-1.627c-.075-.117 0-.314-.043-.469-.042-.154-.07-.281-.159-.333-.089-.051-.23.038-.352.038-.21.028-.424.012-.628-.047a2.287 2.287 0 01-.51-.469l-.136.14c.501.47.974 1.004 1.509 1.45a4.102 4.102 0 011.458 3.81 5.522 5.522 0 01-.47 1.34L36 34.43c-.037-.408-.07-.82-.103-1.177l-.567.783c.144.119.265.264.356.426.061.17.084.47 0 .563-.084.094-.525.202-.619.113a9.602 9.602 0 01-1.317-1.515c-.201-.314-.347-.384-.82-.201.515.595.984 1.116 1.406 1.66.136.203.253.418.352.641-.22.12-.455.212-.699.272-.825.09-1.65.136-2.508.202.361 1.045.727 1.219 1.632.905.342-.118.693-.197 1.04-.296.042.117.08.24.122.361-.375.164-.745.347-1.13.469-.384.122-.665.169-.998.267a.797.797 0 00-.577.938c.052.496.404.618.807.689 1.026.168 1.326.614 1.11 1.654-.05.235 1 4.8-.374 5.372-.296.122-.577.29-.868.431-1.406.708-1.79 1.407-.782 2.696.393.469.712 1.04 1.096 1.542.368.497.77.967 1.205 1.406.117.117.431.033.656.038a4.987 4.987 0 00-.295-.642c-.173-.254-.394-.47-.59-.708-.197-.24-.47-.328-.6-.549-.366-.61-.68-1.25-.938-1.912a.732.732 0 01.352-.619 16.12 16.12 0 012.409-.342c.867-.047 1.223.3 1.186 1.167-.061 1.449-.192 2.888-.31 4.331 0 .99-.36 1.947-1.012 2.69a.74.74 0 00-.183.38.469.469 0 00.085.37.412.412 0 00.384 0 1.34 1.34 0 00.403-.365 4.689 4.689 0 00.895-2.343c.141-.985.3-1.974.53-2.944.155-.666.511-1.285.647-1.95.206-.999.16-1.008 1.158-1.003a2.66 2.66 0 01.548 0c.18.025.345.111.469.243.469.736.787 1.505.51 2.42a8.681 8.681 0 01-2.038 3.787 1.67 1.67 0 00-.211.417 1.467 1.467 0 001.701-.863c.277-.937.629-1.875.91-2.812.281-.938 1.153-1.772.515-2.892-.056-.094.132-.44.277-.502a.68.68 0 01.581.136c.58.485 1.106 1.03 1.57 1.627.38.545.631 1.168.736 1.823.068.853.054 1.71-.042 2.56-.062.291-.16.575-.29.843a2.172 2.172 0 00-.127.614c0 .047.277.183.347.14a.999.999 0 00.445-.468c.107-.372.16-.757.16-1.144a82.166 82.166 0 00-.07-4.176zm-9.23-13.538c-.126-.037-.304-.108-.327-.201-.024-.094.075-.258.168-.347.246-.244.514-.464.802-.656a.605.605 0 01.544-.033c.227.187.43.4.604.637-.2.189-.42.355-.656.497a2.073 2.073 0 01-.59.14 2.964 2.964 0 01-.544-.037z" fill="#00A6C9"/><path d="M65.48 45.731l-.085-.633c-.108-.843-.22-1.715-.393-2.587a20.626 20.626 0 01-.277-5.672c0-.206.061-.469.108-.694a6.093 6.093 0 00.154-1.622 21.091 21.091 0 00-.557-3.525 25.874 25.874 0 00-1.186-3.68 34.937 34.937 0 00-1.838-3.712l-.056-.103c-.253-.469-.502-.895-.694-1.336a2.02 2.02 0 00.581-1.242c.127-1.435-1.28-1.927-2.034-2.19-.225-.079-.469-.159-.642-.243a1.46 1.46 0 00-.188-.103l-.632-.281a31.593 31.593 0 00-2.208-.938 1.637 1.637 0 00-.563-.103 2.15 2.15 0 00-.975.267l-.796-.272c-.23-.078-.47-.12-.713-.122a2.536 2.536 0 00-1.875.938l-.075.084a1.635 1.635 0 00-.431 1.214l.586 2.447c.07.094.121.178.173.249.052.07.15.225.24.342a7.197 7.197 0 00-1.407-.216c-.31 0-.595-.028-.853-.028-.652 0-2.344 0-2.813 1.261a51.405 51.405 0 00-7.687-.567h-.375a50.95 50.95 0 00-7.64.562c-.47-1.251-2.143-1.256-2.79-1.256-.258 0-.544 0-.853.028a7.197 7.197 0 00-1.406.216c.089-.117.168-.23.243-.342l.17-.249.585-2.447a1.637 1.637 0 00-.431-1.214l-.066-.07a2.536 2.536 0 00-1.875-.938 2.259 2.259 0 00-.717.122l-.797.272a2.15 2.15 0 00-.975-.267 1.632 1.632 0 00-.562.103c-.764.286-1.5.619-2.208.938l-.633.28a1.46 1.46 0 00-.187.104c-.188.084-.418.164-.643.244-.754.262-2.16.755-2.034 2.189.043.47.25.91.586 1.242-.197.44-.445.881-.699 1.336l-.056.103a34.78 34.78 0 00-1.823 3.713 25.893 25.893 0 00-1.186 3.68 21.09 21.09 0 00-.558 3.524c-.021.545.03 1.09.155 1.622.047.249.089.469.108.694.17 1.894.076 3.803-.277 5.672-.173.872-.286 1.744-.394 2.587l-.084.633a2.37 2.37 0 00.127 1.144c.13.356.276.708.412 1.05.136.342.29.726.422 1.083.469 1.326.656 2.226.183 3.16-.938 1.822-.141 4.11 2.006 5.826a4.49 4.49 0 002.456.886l.117.032c.154.043.311.076.47.099l.37.056c.49.087.987.136 1.485.145a4.42 4.42 0 001.725-.328l2.222 1.406-.262-1.542.975.366-.146-1.14.572-.07L24 56.663v-.07a1.706 1.706 0 00-.548-1.547c-.47-.398-.938-.726-1.336-1.012a5.226 5.226 0 00.98-4.088c-.137-.731-.282-1.462-.422-2.194l-.141-.717.187-.98c.113-.628.207-1.26.296-1.875l.215.207.206.145c-.023 10.781 3.957 12.717 8.532 14.94 1.8.871 6.243 3.28 6.243 3.28s4.411-2.432 6.188-3.28c4.58-2.223 8.555-4.168 8.531-14.898l.22-.206.216-.206c.09.633.183 1.265.296 1.875l.187.98-.14.717c-.141.73-.287 1.462-.422 2.193a5.225 5.225 0 00.98 4.088c-.418.286-.854.614-1.337 1.012a1.705 1.705 0 00-.548 1.547v.07l-.056 1.257.572.07-.146 1.14.975-.366-.262 1.542 2.221-1.407a4.42 4.42 0 001.726.329c.498-.01.995-.059 1.486-.146l.37-.056c.158-.023.315-.056.468-.098l.122-.033a4.49 4.49 0 002.457-.886c2.147-1.716 2.934-4.003 2.01-5.827-.468-.937-.304-1.832.179-3.16.131-.355.272-.707.422-1.082.15-.375.28-.694.412-1.05.14-.362.188-.753.14-1.139zm-42.657-3.82c.132-.858-.051-1.27-.68-1.27-.276.01-.55.057-.815.14.713.047.736.469.684.867-.182 1.406-.351 2.785-.595 4.163l-.234 1.223c.206 1.055.417 2.105.61 3.155.257 1.406-.277 2.517-1.13 3.544a.713.713 0 00.201 1.092c.62.383 1.21.81 1.767 1.28.108.084.033.393.043.6h-.188l-.563-.47c.038.305.061.47.099.788l-1.078-.408c.033.202.07.422.145.849l-.937-.6c.107.225.197.408.304.623a2.934 2.934 0 01-1.434.343 12.63 12.63 0 01-1.678-.174c-.202-.028-.394-.112-.596-.136a3.234 3.234 0 01-1.79-.595c-1.34-1.074-2.344-2.714-1.646-4.13.699-1.416.394-2.85-.112-4.251-.262-.722-.572-1.407-.839-2.143a.998.998 0 01-.052-.468c.141-1.05.258-2.1.47-3.136.375-1.993.476-4.027.3-6.047-.057-.708-.31-1.406-.263-2.114a19.47 19.47 0 01.52-3.282 24.977 24.977 0 011.12-3.487 33.626 33.626 0 011.758-3.572c.521-.851.92-1.77 1.186-2.733-.469-.117-.844-.393-.872-.75-.047-.525 1.06-.68 1.922-1.082.037-.017.074-.03.113-.043v-.037c.937-.408 1.828-.84 2.765-1.19a.218.218 0 01.08 0c.236.058.463.148.675.266v.188l1.547-.535a.888.888 0 01.281-.046c.408 0 .68.337.938.618a.576.576 0 01-.061.544 9.029 9.029 0 01-.938.853c-.225.188-.469.361-.694.544 0 .052.038.108.061.16l1.35-.197a5.2 5.2 0 01-.468.642c-.255.264-.538.5-.844.703-1.35.815-1.655 2.165-1.758 3.562a16.76 16.76 0 00-.038 1.19c.938-1.541 2.593-3.388 5.283-3.548h.774c3.44 0 0 1.82 0 1.82l-3.141 1.429-.164 3.534s-1.444 1.22-2.728 2.157v1.584a2.606 2.606 0 001.2 2.222l1.294.83a14.313 14.313 0 011.8 2.273c.44.887.793 1.815 1.054 2.77.075.342.11.691.103 1.04l-.215.062-.469-.802c-.056.431-.098.783-.14 1.13l-.16.028-.403-.825c-.07.31-.127.567-.174.792-.585-.365-.68-.53-1.251-.886.033.314.08.553.084.793A16 16 0 0122.8 41.91h.023zm.661-9.375v2.48l-.056-.038a1.223 1.223 0 01-.572-1.05v-.9l.628-.492zm20.072 25.139a30.227 30.227 0 00-5.353 3.112 30.059 30.059 0 00-5.39-3.098c-4.14-2.006-7.032-3.427-7.388-11.25l.202-1.19.665.412.192-.89.863-.146.033-.277 1.003-.286-.099-1.134v-.253a3.749 3.749 0 00-.159-1.097l-.169-.53a12.843 12.843 0 00-.994-2.484 11.572 11.572 0 00-1.528-2.002v-5.625l.104-.089.028-.6.126-2.704 2.4-1.12h.061a6.967 6.967 0 001.524-1.05 47.99 47.99 0 018.292-.723h.468c2.792-.006 5.58.23 8.33.704.455.416.964.767 1.514 1.045h.061l2.4 1.12.127 2.705.028.6.06.051v5.733a11.313 11.313 0 00-1.476 1.955c-.417.791-.75 1.624-.994 2.484-.056.178-.107.352-.168.53a3.751 3.751 0 00-.155 1.101v.254l-.094 1.134.985.277.032.276.863.145.192.891.666-.412.154 1.232c-.398 7.791-3.29 9.207-7.43 11.213l.024-.014zm9.375-25.177l.661.516v.9a1.224 1.224 0 01-.572 1.05l-.103.066.014-2.532zm11.133 13.908c-.267.717-.576 1.406-.839 2.142-.506 1.407-.863 2.775-.113 4.252.75 1.476-.304 3.056-1.645 4.13a3.234 3.234 0 01-1.79.595c-.202 0-.394.108-.596.136-.551.1-1.109.162-1.669.187a2.936 2.936 0 01-1.434-.342l.31-.623-.938.6c.075-.427.112-.647.145-.849l-1.078.408c.038-.305.061-.469.099-.788l-.563.47h-.187c0-.207-.061-.516.042-.6a15.115 15.115 0 011.767-1.28.712.712 0 00.202-1.093c-.854-1.026-1.407-2.16-1.13-3.543.197-1.05.408-2.1.61-3.155l-.235-1.223c-.244-1.379-.413-2.776-.595-4.163-.052-.417-.052-.84.675-.886a3.062 3.062 0 00-.816-.14c-.628 0-.811.412-.675 1.27-.439.512-.909.997-1.406 1.453 0-.24.051-.469.084-.792-.572.356-.666.52-1.252.886-.046-.225-.103-.47-.168-.793-.164.305-.29.549-.422.797l-.155-.028a76.25 76.25 0 01-.14-1.13c-.178.305-.32.554-.47.802l-.191-.056c-.007-.35.028-.7.103-1.04.26-.956.614-1.884 1.054-2.771a14.318 14.318 0 011.8-2.274l1.294-.83a2.605 2.605 0 001.2-2.221V32.33a60.125 60.125 0 01-2.71-2.143l-.2-3.534-3.155-1.472s-3.45-1.819 0-1.819h.773c2.69.16 4.355 2.007 5.283 3.549 0-.399 0-.797-.038-1.19-.103-1.407-.408-2.748-1.758-3.563a5.022 5.022 0 01-.843-.704 5.19 5.19 0 01-.469-.642l1.35.197c0-.051.042-.108.061-.16-.23-.182-.469-.355-.694-.543a9.062 9.062 0 01-.937-.853.576.576 0 01-.061-.544c.267-.281.539-.619.937-.619a.9.9 0 01.277.047l1.547.535v-.188a2.77 2.77 0 01.675-.267.218.218 0 01.08 0c.937.352 1.846.783 2.765 1.19v.038c.037.01.073.023.108.038.862.403 1.969.557 1.922 1.082-.028.357-.385.633-.872.75.274.959.681 1.874 1.21 2.72a33.597 33.597 0 011.757 3.571c.46 1.133.835 2.299 1.12 3.488.267 1.076.44 2.174.52 3.28a14.4 14.4 0 01-.262 2.115 22.179 22.179 0 00.3 6.047c.206 1.036.324 2.086.469 3.136a.999.999 0 01-.033.534z" fill="#A5CD00"/><path d="M54.905 19.219a.402.402 0 00-.305.145.388.388 0 00.305.633h1.19a4.432 4.432 0 00-.975-.708.403.403 0 00-.215-.07zM56.93 21l.028.023V21h-.028zm-37.482.023l.028-.023-.028.023zm2.054-1.017a.39.39 0 10-.216-.712c-.355.191-.683.43-.975.708h1.19v.004z" fill="#A5CD00"/><path d="M56.278 61.964a15.754 15.754 0 00-10.922-.938l-.033.07-.21.057h-.029v.038l-1.228 2.418c-.328.042-.825.141-1.486.24-.384.056-.768.107-1.157.145l-.272.028c-.404.037-.807.065-1.21.084h-.145c-.469 0-.91.024-1.364 0-.455-.023-.938 0-1.406-.047h-.052a34.547 34.547 0 01-1.219-.093c-1.368-.136-2.41-.315-2.953-.375l-.806-2.41v-.042h-.042l-.211-.084v-.042c-.14-.061-3.53-1.744-8.742-.193-.47.136-.938.3-1.407.492h-.047c-.44.175-.89.372-1.35.591l-.3.811 1.257.342.094-.347.98.47.36-1.018.567.333-.375 1.106.544.29.333-.618.68.314.243-.53-.839-.83.225-.496.886.614.53-.938.675.596-.417.689.58.492.563-.661.736.558.432-.572-.422-.469.698-.778.469.66-.59.517.398.646.74-.468.53.759.586-.413-.36-.857.12.215.756-.468c.051 0 .093.046.14.065l.061.174h.028c.07.248.136.501.211.745l.37 1.266.179.623.773.103.614.103h.042l.3.6-.876.938.567.801 1.04-.708.741.938.811-.652-.703-1.251.281-.324.338.033.398.699.497-.614.361.028.244.389-.835 1.13.652.735.938-.834.839.834.73-.736-.712-.998.3-.469h.202l.497.74.431-.791h.178l.427.581-.586 1.055.736.642.83-.938.937.727.637-.82-1.064-1.154.146-.337.29-.052.713-.145c.22-.047.468-.098.59-.112l.661-.103.216-.47c.192-.421.389-.843.577-1.27l.38-.89.135.051.066-.164.295.244-.595 1.406.586.413.53-.755.74.469.398-.647-.984-.853.31-.53.735.736.6-.853.54.642-.47.59.441.568.727-.567.572.651.572-.501-.366-.69.684-.679.516.9.797-.66.258.566-.89.661.247.525.68-.31.338.615.543-.286-.375-1.083.47-.323.332.975.91-.469.056.253 1.27-.29-.183-.774zm-6.323-.408l-.042.038.042-.038zm-4.453.53c-.033.019-.033.005 0 0z" fill="#00A6C9"/><path d="M21.192 60.66l-4.786 2.026 3.117 2.719-2.02 3.773 1.955-.872c.042 0 3.633-1.593 7.34-1.293a1.59 1.59 0 001.679-1.233c-2.925-.642-5.92-.47-7.772.07l.66-.783-2.23-1.945 1.406-.59v.037l.065-.061.867-.366m33.492-1.482l4.796 2.026-3.122 2.719 2.02 3.773-1.94-.872c-.038 0-3.633-1.593-7.341-1.293a1.58 1.58 0 01-1.673-1.233c2.92-.642 5.915-.47 7.772.07l-.666-.783 2.231-1.945-1.406-.59v.037l-.066-.061-.872-.366m-25.429 5.616c-.323 1.008.108 2.151.937 2.437a22.03 22.03 0 007.294 1.163 29.665 29.665 0 008.19-1.205c.759-.216 1.227-1.219 1.04-2.203l-.024-.117c-10.612 3.51-17.372-.038-17.437-.075z" fill="#A5CD00"/><path d="M39.572 5.222a1.378 1.378 0 11-2.756 0 1.378 1.378 0 012.756 0zm-6.047 1.664a1.15 1.15 0 11-2.298 0 1.15 1.15 0 012.298 0zm11.536 0a1.148 1.148 0 11-2.297 0 1.148 1.148 0 012.297 0zM28.72 10.158a.774.774 0 110-.01v.01zm20.47 0a.777.777 0 110-.01v.01z" fill="#00A6C9"/><path d="M47.508 11.016a.47.47 0 00-.586-.047c-1.149.82-2.757 1.912-3.483 1.912-.145 0-.192-.042-.225-.084-.295-.366-.216-1.645.239-3.802a.469.469 0 00-.797-.351c-1.57 2.344-2.283 2.812-2.61 2.812-.47 0-.938-1.326-1.407-3.942a.469.469 0 00-.422-.375h-.028a.469.469 0 00-.422.375c-.469 2.616-.938 3.942-1.406 3.942-.324 0-1.04-.468-2.606-2.812a.469.469 0 00-.554-.164.47.47 0 00-.272.515c.47 2.157.54 3.436.24 3.802-.033.042-.08.084-.22.084-.727 0-2.344-1.092-3.484-1.912a.47.47 0 00-.637.633 10.528 10.528 0 012.11 7.204.882.882 0 000 .164c0 .938 1.326 1.318 2.479 1.538 1.559.268 3.139.396 4.72.384h.103a26.656 26.656 0 004.72-.384c1.154-.22 2.476-.595 2.476-1.538a.882.882 0 000-.164 10.551 10.551 0 012.128-7.204.469.469 0 00-.056-.586zm-9.263 8.573h-.103c-2.813 0-4.688-.337-5.517-.619.825-.285 2.69-.614 5.517-.618h.103c2.813 0 4.688.332 5.517.618-.825.282-2.695.61-5.517.62zm6.713-5.939c-1.875 1.65-1.538 3.548-1.538 3.548v.54h-.042a10.96 10.96 0 00-3.192-.694 33.74 33.74 0 00-1.969-.056h-.061c-.75 0-1.406 0-1.969.056a10.96 10.96 0 00-3.197.694h-.037v-.54c0-.023.356-1.875-1.538-3.548a.173.173 0 01.038-.29.469.469 0 01.422-.024c.83.403 1.992.938 2.517.938.103 0 .136 0 .16-.043.215-.178.159-.81-.174-1.875-.033-.107.051-.215.197-.253a.427.427 0 01.403.08c1.13 1.148 1.645 1.406 1.875 1.406.333 0 .67-.656 1.008-1.945a.323.323 0 01.304-.183.323.323 0 01.305.183c.375 1.284.713 1.95 1.045 1.95.235 0 .755-.244 1.875-1.406a.426.426 0 01.404-.08c.145.037.225.145.192.253-.328 1.06-.39 1.692-.174 1.875 0 .023.061.042.164.042.525 0 1.688-.539 2.513-.937a.469.469 0 01.426.023.177.177 0 01.087.215.18.18 0 01-.044.071z" fill="#A5CD00"/></svg>