<svg width="75" height="75" fill="none" xmlns="http://www.w3.org/2000/svg"><g clip-path="url(#clip0)"><path d="M46.148 47.958H28.711v21.787h17.437V47.958zM31.983 21.811h-6.54v6.534h6.54v-6.534zm8.719 0h-6.54v6.534h6.54v-6.534zm8.718 0h-6.539v6.534h6.54v-6.534zm-17.437 8.714h-6.54v6.534h6.54v-6.534zm8.719 0h-6.54v6.534h6.54v-6.534zm8.718 0h-6.539v6.534h6.54v-6.534z" fill="#00A6C9"/><path d="M67.838 69.745a5.46 5.46 0 00-5.34-4.36h-3.28V57.76h1.091a7.636 7.636 0 007.66-7.603V49.07h-3.281a7.599 7.599 0 00-5.452 2.301v-3.389a7.64 7.64 0 00-5.447-7.308V17.452h-3.281v-4.355h-3.281v-4.36h-3.282V4.384H41.79v4.355h-8.72V4.383h-2.18v4.355h-3.28v4.359h-3.235v4.355h-3.281V40.65a7.645 7.645 0 00-5.452 7.308v3.389a7.58 7.58 0 00-5.447-2.302h-3.28v1.111a7.64 7.64 0 007.616 7.603h1.088v7.627h-3.281a5.461 5.461 0 00-5.307 4.36H3.647v2.174h67.57v-2.175h-3.38zm-3.15-18.52h.98a5.461 5.461 0 01-5.34 4.355h-.98a5.456 5.456 0 015.34-4.355zM14.53 55.58a5.455 5.455 0 01-5.339-4.355h.98a5.46 5.46 0 015.339 4.355h-.98zm51.024 14.165h-14.86a3.282 3.282 0 013.07-2.18h8.72a3.282 3.282 0 013.07 2.18zm-8.522-4.36h-3.281v-3.59a7.588 7.588 0 002.18.324h1.087l.014 3.267zm-.108-5.446h-.98a5.457 5.457 0 01-5.339-4.36h.98a5.46 5.46 0 015.34 4.36zm.108-10.894v6.657a7.598 7.598 0 00-3.281-1.979v-5.001a7.432 7.432 0 002.18.323h1.1zm-.108-2.18h-.98a5.456 5.456 0 01-5.32-4.354h.98a5.461 5.461 0 015.334 4.364l-.014-.01zM29.803 10.918h15.258v2.18H29.803v-2.18zm-3.281 4.36h21.797v2.175H26.53l-.009-2.175zm-3.281 4.354h28.336v20.681h-3.282V41.4a7.617 7.617 0 003.282 6.248v5.738h-3.282v1.087a7.617 7.617 0 003.282 6.249v5.105a5.47 5.47 0 00-3.16 3.9H26.386a5.47 5.47 0 00-3.16-3.9V60.74a7.611 7.611 0 003.282-6.249v-1.087h-3.281v-5.738a7.613 7.613 0 003.28-6.248v-1.106h-3.28l.014-20.682zm0 35.949h.98a5.46 5.46 0 01-5.34 4.36h-.956a5.456 5.456 0 015.34-4.36h-.024zm0-13.07h.98a5.461 5.461 0 01-5.316 4.365h-.98a5.456 5.456 0 015.34-4.355l-.024-.01zm-4.36 6.535a7.45 7.45 0 002.18-.323v5.001a7.64 7.64 0 00-3.281 1.979v-6.657h1.101zM17.813 62.12h1.092a7.614 7.614 0 002.18-.324v3.59h-3.272V62.12zm-5.447 5.447h8.728a3.282 3.282 0 013.07 2.18H9.295a3.282 3.282 0 013.07-2.18z" fill="#A5CD00"/><path d="M46.148 39.239H28.711v6.563h17.437v-6.563zm-2.18 4.355H30.892v-2.175H43.97v2.175zM32.04 56.03V54.9l1.65-1.462c.763-.69 1.016-1.055 1.016-1.5 0-.446-.347-.685-.862-.685a2.48 2.48 0 00-1.594.642V50.33a2.981 2.981 0 011.758-.516 2.498 2.498 0 011.589.53 1.692 1.692 0 01.675 1.406c.007.403-.092.8-.286 1.153-.271.431-.61.816-1.003 1.14l-.736.66h2.217v1.331l-4.425-.004zm5.577.122a.89.89 0 01-.656-.268.938.938 0 01-.258-.656.873.873 0 01.258-.642.896.896 0 01.656-.272.937.937 0 01.938.914.894.894 0 01-.272.656.85.85 0 01-.666.268zm1.322-.122V54.9l1.645-1.462c.769-.69 1.022-1.055 1.022-1.5 0-.446-.351-.685-.862-.685a2.47 2.47 0 00-1.594.642V50.33a2.971 2.971 0 011.758-.516 2.484 2.484 0 011.584.53 1.684 1.684 0 01.68 1.406c.007.403-.092.8-.286 1.153-.273.43-.611.815-1.003 1.14l-.74.66h2.221v1.331l-4.425-.004zm-5.859 8.03v-1.407h1.514v-4.397h4.139a3.558 3.558 0 012.447.807 2.868 2.868 0 010 4.19 3.534 3.534 0 01-2.447.811h-2.17v.91h3.492v1.406h-3.493v1.481h-1.968V66.38H33.08v-1.406h1.514v-.91l-1.514-.005zm3.478-1.407h1.912c1.003 0 1.622-.469 1.622-1.331 0-.863-.619-1.322-1.622-1.322h-1.908l-.004 2.653z" fill="#A5CD00"/></g><defs><clipPath id="clip0"><path fill="#fff" d="M0 0h75v75H0z"/></clipPath></defs></svg>