<svg width="75" height="75" fill="none" xmlns="http://www.w3.org/2000/svg"><g clip-path="url(#clip0)"><path d="M45.098 49.294L38.64 38.513h5.386L37.561 27.73h4.308l-3.39-3.046a31.046 31.046 0 01-9.534-16.313l-3.23 7.538-2.15-2.152a14.324 14.324 0 01-3.55 9.436l-3.988 4.56h4.307L13.87 38.537h5.386l-6.46 10.781 32.302-.023z" fill="#00A6C9"/><path d="M66.638 22.373a8.62 8.62 0 00-6.502-8.343 9.684 9.684 0 00-19.299 0 8.597 8.597 0 00-5.873 5.156A29.84 29.84 0 0130 8.137l-.727-3.257-3.918 9.145-2.855-2.869v2.602a13.28 13.28 0 01-3.281 8.742l-5.569 6.333h4.781l-6.464 10.781h5.377l-6.46 10.781h12.657v6.277a6.418 6.418 0 00-9.572 6.764 4.262 4.262 0 00-2.719 6.319H8.484v2.156h58.154v-2.156h-2.752a4.26 4.26 0 00.6-2.152 4.307 4.307 0 00-3.352-4.19 6.428 6.428 0 00-9.572-6.764V38.244a7.533 7.533 0 0011.372-8.803 8.601 8.601 0 003.704-7.069zm-45.811 1.533a15.356 15.356 0 003.623-7.734l1.631 1.64 2.64-6.168a31.903 31.903 0 009.042 13.875l1.303 1.176H18.398l2.429-2.789zm.117 4.931h16.008l5.156 8.616H15.773l5.17-8.616zm24.994 10.768l-.033-.057a7.617 7.617 0 003.515-1.317V58.67c-.047.075-.089.154-.136.234a5.316 5.316 0 00-3.093-.994 5.392 5.392 0 00-5.41 5.372 4.284 4.284 0 00-3.234 1.486 4.272 4.272 0 00-3.216-1.486v-12.91h12.656l-6.459-10.78 5.41.014zm-26.058 0h18.15l5.156 8.61h-28.49l5.184-8.61zm12.314 10.78v8.63a5.297 5.297 0 00-6.328-.112 2.326 2.326 0 00-.136-.234v-8.297l6.464.014zm-17.246 19.37a2.146 2.146 0 01-.192-4.29 6.501 6.501 0 001.702 1.922l1.289-1.725a4.308 4.308 0 012.587-7.753 4.322 4.322 0 013.975 2.69 5.366 5.366 0 00-.745 2.682h2.152a3.234 3.234 0 116.393.638 4.284 4.284 0 00-2.086 3.67h2.157a2.157 2.157 0 112.151 2.152l-19.383.014zm39.844-11.846a4.313 4.313 0 013.857 6.237 4.265 4.265 0 01-1.274 1.516l1.294 1.725a6.445 6.445 0 001.701-1.921 2.147 2.147 0 01-.192 4.289H40.781a2.156 2.156 0 112.152-2.152h2.151a4.29 4.29 0 00-2.08-3.67 3.224 3.224 0 116.402-.652h2.157a5.325 5.325 0 00-.75-2.695 4.323 4.323 0 013.98-2.69v.013zm6.46-25.846a5.372 5.372 0 01-9.69 3.21v-4.917l8.297-8.301-1.518-1.52-6.779 6.774v-7.092h-2.156V35.27a5.418 5.418 0 01-4.795 2.142l-5.156-8.578h5.222l-5.475-4.927a29.614 29.614 0 01-2.593-2.672 6.427 6.427 0 015.42-5.25l.937-.215v-.938a7.533 7.533 0 0115-1.073 8.545 8.545 0 00-6.005 2.517l1.477 1.538a6.459 6.459 0 114.565 11.03v2.155a8.55 8.55 0 002.99-.53c.17.521.258 1.066.259 1.613v-.019zm9.693 37.692h-2.151v2.151h2.151v-2.151zm-64.612 0H4.18v2.151h2.152v-2.151z" fill="#A5CD00"/><path d="M33.436 42.356l1.795-1.195 2.152 3.23-1.79 1.195-2.157-3.23zM19.439 44.39l2.151-3.234 1.796 1.196-2.156 3.234-1.791-1.195zm12.905-12.806l1.795-1.195 2.152 3.234L34.5 34.82l-2.156-3.235zm-11.831 2.035l2.156-3.23 1.79 1.195-2.151 3.23-1.795-1.195z" fill="#A5CD00"/></g><defs><clipPath id="clip0"><path fill="#fff" d="M0 0h75v75H0z"/></clipPath></defs></svg>