<svg width="20" height="20" fill="none" xmlns="http://www.w3.org/2000/svg"><path d="M9.913 1.2a8.717 8.717 0 00-3.467.716L4.528 0h-.004A8.762 8.762 0 000 4.55l1.921 1.92-.001.001a8.624 8.624 0 00-.74 3.461A8.734 8.734 0 109.913 1.2z" fill="#E9EDD4"/><path d="M9.023 13.56a8.766 8.766 0 014.524-4.55h.001l-7.1-7.09-.004-.001a8.757 8.757 0 00-4.524 4.55l7.103 7.09zm5.032-2.129a5.098 5.098 0 00-2.628 2.643l3.316.686-.688-3.329z" fill="#A5CD00"/><path d="M14.056 11.432l-.508-2.422h-.002a8.768 8.768 0 00-4.524 4.55l2.405.514a5.12 5.12 0 012.629-2.642z" fill="#fff"/></svg>