<svg width="15" height="15" fill="none" xmlns="http://www.w3.org/2000/svg"><g clip-path="url(#clip0)" fill="#00A6C9"><path d="M13.681 1.787H1.319c-.203 0-.393.05-.565.132l6.718 6.717L8.976 7.19l5.27-5.27a1.303 1.303 0 00-.565-.133zm1.187.753L9.908 7.5l4.96 4.96c.082-.173.132-.363.132-.566V3.105c0-.202-.05-.392-.132-.564zm-14.736 0A1.303 1.303 0 000 3.106v8.79c0 .202.05.392.132.564l4.96-4.96-4.96-4.958z"/><path d="M9.287 8.121L7.781 9.568a.438.438 0 01-.62 0L5.712 8.121l-4.96 4.96c.172.082.362.132.565.132h12.364a1.3 1.3 0 00.564-.132L9.287 8.12z"/></g><defs><clipPath id="clip0"><path fill="#fff" d="M0 0h15v15H0z"/></clipPath></defs></svg>