<svg width="13" height="13" fill="none" xmlns="http://www.w3.org/2000/svg"><path d="M8.455 6.5A1.957 1.957 0 016.5 8.455 1.957 1.957 0 014.545 6.5c0-1.078.877-1.955 1.955-1.955s1.955.877 1.955 1.955zM6.5 0A6.507 6.507 0 000 6.5C0 10.084 2.916 13 6.5 13c1.313 0 2.58-.39 3.661-1.13l.019-.013-.876-1.018-.015.009a5.142 5.142 0 01-2.789.82A5.173 5.173 0 011.332 6.5 5.173 5.173 0 016.5 1.332a5.173 5.173 0 015.046 6.279c-.164.67-.633.876-.986.849-.354-.029-.77-.282-.772-.9V6.5A3.291 3.291 0 006.5 3.212 3.291 3.291 0 003.212 6.5 3.291 3.291 0 006.5 9.788a3.26 3.26 0 002.33-.97 2.113 2.113 0 001.798.977c.473 0 .941-.158 1.32-.445.389-.296.68-.724.84-1.238.026-.083.074-.273.074-.274.094-.412.138-.83.138-1.338C13 2.916 10.084 0 6.5 0z" fill="#A5CD00"/></svg>