<svg width="8" height="14" fill="none" xmlns="http://www.w3.org/2000/svg"><path d="M4.188 0C2.362 0 .881 1.53.881 3.416S2.36 6.83 4.188 6.83s3.307-1.529 3.307-3.415C7.495 1.529 6.015 0 4.188 0zm0 4.828c-.755 0-1.367-.632-1.367-1.412 0-.78.612-1.412 1.367-1.412s1.367.632 1.367 1.412c0 .78-.612 1.412-1.367 1.412zm1.168 4.721c1.324-.279 2.117-.926 2.16-.96a.95.95 0 00.138-1.306.88.88 0 00-1.264-.144c-.008.007-.854.677-2.246.678-1.393 0-2.257-.671-2.265-.678a.88.88 0 00-1.264.144.95.95 0 00.139 1.305c.042.035.868.7 2.23.972l-1.897 2.047a.95.95 0 00.023 1.314.881.881 0 001.271-.024l1.763-1.94 1.94 1.952a.88.88 0 001.272 0 .95.95 0 00-.001-1.314L5.356 9.549zM4.145 7.817c-.006 0 .005 0 0 0-.006 0 .005 0 0 0z" fill="#A5CD00"/></svg>