<svg width="14" height="14" fill="none" xmlns="http://www.w3.org/2000/svg"><g clip-path="url(#clip0)" fill="#565050" stroke="#A5CD00"><path d="M.5 6.165A5.672 5.672 0 016.165.5a5.672 5.672 0 015.666 5.665 5.672 5.672 0 01-5.666 5.666A5.672 5.672 0 01.5 6.165zm.138 0a5.533 5.533 0 005.527 5.527 5.533 5.533 0 005.527-5.527A5.533 5.533 0 006.165.638 5.533 5.533 0 00.638 6.165z"/><path d="M13.48 13.382h0a.069.069 0 010 .098h0a.068.068 0 01-.049.02.067.067 0 01-.049-.02l-3.263-3.263h0a.069.069 0 010-.098h0a.069.069 0 01.098 0l3.263 3.263z"/></g><defs><clipPath id="clip0"><path fill="#fff" d="M0 0h14v14H0z"/></clipPath></defs></svg>