<svg width="14" height="11" fill="none" xmlns="http://www.w3.org/2000/svg"><g clip-path="url(#clip0)"><path fill-rule="evenodd" clip-rule="evenodd" d="M14 1.303a5.92 5.92 0 01-1.65.436A2.796 2.796 0 0013.61.202c-.556.32-1.17.55-1.824.675A2.918 2.918 0 009.69 0C8.104 0 6.817 1.244 6.817 2.777c0 .218.025.43.075.632A8.246 8.246 0 01.972.507c-.247.41-.389.887-.389 1.396a2.75 2.75 0 001.279 2.31A2.942 2.942 0 01.56 3.866V3.9c0 1.345.99 2.469 2.304 2.723a3.004 3.004 0 01-1.297.046C1.933 7.772 2.994 8.576 4.25 8.6A5.889 5.889 0 01.68 9.788a6.4 6.4 0 01-.685-.04A8.333 8.333 0 004.4 10.999c5.283 0 8.173-4.232 8.173-7.902 0-.12-.002-.24-.009-.36A5.707 5.707 0 0013.998 1.3l.002.004z" fill="#C4C4C4"/></g><defs><clipPath id="clip0"><path fill="#fff" d="M0 0h14v11H0z"/></clipPath></defs></svg>