<svg width="14" height="14" fill="none" xmlns="http://www.w3.org/2000/svg"><g clip-path="url(#clip0)" fill="#565050" stroke="#A5CD00"><path d="M1.019 12.941l-.04.537h12.043l-.04-.537c-.11-1.466-.674-2.63-1.728-3.413C10.22 8.76 8.776 8.408 7 8.408c-1.776 0-3.218.351-4.254 1.12-1.054.783-1.618 1.947-1.727 3.413zm-.042.548c0-1.695.539-2.943 1.51-3.777C3.47 8.867 4.968 8.386 7 8.386s3.53.481 4.513 1.326c.972.834 1.51 2.083 1.51 3.777v.004l-.003.004a.012.012 0 01-.003.002l-.005.001H.984l-.004-.003a.012.012 0 01-.002-.004v-.004zM4.11 3.457C4.11 1.753 5.354.5 7 .5s2.89 1.253 2.89 2.957c0 1.792-1.335 3.18-2.89 3.18-1.555 0-2.89-1.388-2.89-3.18zm.023 0c0 1.686 1.233 3.157 2.867 3.157s2.868-1.471 2.868-3.157C9.868 1.807 8.639.522 7 .522c-1.661 0-2.867 1.262-2.867 2.935z"/></g><defs><clipPath id="clip0"><path fill="#fff" d="M0 0h14v14H0z"/></clipPath></defs></svg>