<svg width="19" height="10" fill="none" xmlns="http://www.w3.org/2000/svg"><path fill-rule="evenodd" clip-rule="evenodd" d="M17.935.677c.122-.39 0-.677-.58-.677h-1.92c-.488 0-.713.248-.835.521 0 0-.976 2.283-2.36 3.767-.447.429-.65.565-.894.565-.122 0-.299-.136-.299-.526V.677C11.047.21 10.906 0 10.5 0H7.483c-.305 0-.489.217-.489.423 0 .444.692.547.763 1.796v2.713c0 .594-.112.702-.356.702-.65 0-2.234-2.293-3.172-4.918C4.045.206 3.86 0 3.369 0H1.45C.902 0 .792.248.792.521c0 .488.65 2.908 3.03 6.108C5.408 8.815 7.642 10 9.676 10c1.22 0 1.371-.263 1.371-.716V7.632c0-.527.116-.632.502-.632.285 0 .773.137 1.912 1.19C14.762 9.44 14.977 10 15.71 10h1.92c.548 0 .822-.263.664-.782-.173-.518-.794-1.269-1.619-2.16-.447-.507-1.118-1.053-1.322-1.326-.284-.352-.203-.508 0-.82 0 0 2.339-3.162 2.583-4.235z" fill="#A5CD00"/></svg>