<svg width="14" height="14" fill="none" xmlns="http://www.w3.org/2000/svg"><g clip-path="url(#clip0)"><path d="M7 0a5.612 5.612 0 00-5.605 5.605 5.613 5.613 0 005.058 5.58V14h1.094V8.58l2.315-2.314-.774-.774-1.541 1.542V4.73H6.453v2.304L4.912 5.492l-.774.774L6.453 8.58v1.504a4.518 4.518 0 01-3.965-4.479A4.517 4.517 0 017 1.094a4.517 4.517 0 014.512 4.511A4.519 4.519 0 018.64 9.808v1.158a5.615 5.615 0 003.964-5.36A5.612 5.612 0 007 0z" fill="#A5CD00"/></g><defs><clipPath id="clip0"><path fill="#fff" d="M0 0h14v14H0z"/></clipPath></defs></svg>