<svg width="11" height="15" fill="none" xmlns="http://www.w3.org/2000/svg"><path d="M10.495 13.496V5.831a.532.532 0 00-.532-.533c-.01 0-.02.003-.029.003H7.85a.622.622 0 00-.113-.133L5.661 1.573l-.005.004A1.201 1.201 0 004.61.96c-.666 0-1.206.548-1.206 1.223h-.012v3.118H.518v.004a.532.532 0 00-.516.528H0v5.912h.001c0 .067.026.135.078.187H.078l2.05 2.051.005-.005a.26.26 0 00.203.057h7.582c.015.002.03.005.046.005a.531.531 0 00.53-.505h.001v-.016l.001-.011v-.012zM.63 11.744l.008.01-.01-.01H.63z" fill="#01A0E2"/></svg>