<svg width="43" height="43" viewBox="0 0 43 43" fill="none" xmlns="http://www.w3.org/2000/svg">
<circle cx="21.5" cy="21.5" r="20.5" stroke="#F1CD50" stroke-width="2"/>
<path d="M22.2746 31.6348C22.1672 31.6391 22.0984 31.6477 22.0297 31.6477C20.5602 31.6477 19.0949 31.6434 17.6254 31.652C17.4191 31.652 17.3633 31.5961 17.3633 31.3899C17.3676 27.9695 17.3676 24.5449 17.3676 21.1246C17.3676 21.0344 17.3676 20.9442 17.3676 20.8281C16.5684 20.8281 15.7906 20.8281 15 20.8281C15 19.6078 15 18.409 15 17.1758C15.0816 17.1758 15.159 17.1758 15.232 17.1758C15.8766 17.1758 16.5211 17.1715 17.1656 17.1801C17.3289 17.1801 17.3719 17.1328 17.3719 16.9738C17.3633 16.0156 17.3633 15.0531 17.3719 14.0949C17.3762 13.4246 17.4836 12.7715 17.793 12.1656C18.2355 11.3106 18.9359 10.7563 19.8211 10.4125C20.543 10.1289 21.3035 10.0258 22.0684 10.0129C23.3145 9.99571 24.5605 10.0043 25.8066 10C25.9227 10 26.0172 9.99571 26.0172 10.159C26.0129 11.3406 26.0129 12.5223 26.0129 13.7039C26.0129 13.7168 26.0086 13.7297 25.9914 13.7856C25.9184 13.7856 25.8367 13.7856 25.7551 13.7856C24.9816 13.7856 24.2082 13.7813 23.4348 13.7856C22.9879 13.7856 22.627 13.966 22.3992 14.357C22.3305 14.4731 22.2875 14.6234 22.2875 14.7609C22.2746 15.4914 22.2875 16.2219 22.2789 16.9524C22.2789 17.1242 22.3305 17.1715 22.498 17.1715C23.5723 17.1629 24.6465 17.1672 25.7207 17.1672C25.8066 17.1672 25.8883 17.1672 26.0344 17.1672C25.884 18.3961 25.7379 19.5992 25.5875 20.8152C24.4703 20.8152 23.3832 20.8152 22.2746 20.8152C22.2746 24.4289 22.2746 28.0211 22.2746 31.6348Z" fill="#F1CD50"/>
</svg>
