<svg width="43" height="43" viewBox="0 0 43 43" fill="none" xmlns="http://www.w3.org/2000/svg">
<path d="M20.4486 10.0035C18.6831 10.0248 14.8874 10.315 12.7644 12.2627C11.1852 13.8274 10.6339 16.1408 10.5692 19.0015C10.5156 21.8519 10.451 27.2048 15.6107 28.6623V30.8822C15.6107 30.8822 15.5784 31.7705 16.1655 31.9527C16.8887 32.1816 17.3006 31.4982 17.9881 30.764L19.2702 29.314C22.8006 29.6076 25.5045 28.9311 25.8159 28.8307C26.5323 28.6018 30.5672 28.0862 31.2266 22.7326C31.9031 17.2037 30.8972 13.7202 29.0816 12.1444H29.0706C28.5226 11.6398 26.3206 10.0352 21.4008 10.0173C21.4008 10.0173 21.0357 9.99254 20.4486 10.0028V10.0035ZM20.5091 11.558C21.0103 11.5545 21.3149 11.5758 21.3149 11.5758C25.4791 11.5868 27.4666 12.8402 27.9355 13.2623C29.4645 14.5727 30.2524 17.7132 29.6756 22.329C29.1276 26.8047 25.8551 27.0879 25.2494 27.2811C24.9916 27.3636 22.6101 27.9507 19.6099 27.7575C19.6099 27.7575 17.3755 30.4539 16.677 31.1483C16.5663 31.27 16.4371 31.3057 16.3546 31.2878C16.2363 31.259 16.2006 31.1125 16.2074 30.9118L16.2287 27.2275C11.8528 26.0175 12.1106 21.4518 12.1574 19.0668C12.211 16.6819 12.6586 14.7308 13.9909 13.4094C15.7846 11.7876 19.0076 11.569 20.5077 11.558H20.5091ZM20.8391 13.9422C20.6886 13.9388 20.5634 14.0639 20.5634 14.2145C20.5634 14.3685 20.6886 14.4902 20.8391 14.4902C22.2176 14.4654 23.5465 14.9879 24.5344 15.9477C25.5334 16.9177 26.0201 18.2212 26.0387 19.9255C26.0387 20.0761 26.1604 20.2012 26.3144 20.2012V20.1902C26.4649 20.1902 26.5901 20.0685 26.5901 19.918C26.6581 18.2962 26.0566 16.7204 24.9284 15.553C23.8401 14.4895 22.4609 13.9415 20.8391 13.9415V13.9422ZM17.2153 14.5727C17.0221 14.5438 16.8214 14.5837 16.6529 14.6833H16.6385C16.2659 14.902 15.9187 15.1777 15.5894 15.5462C15.3384 15.8363 15.2023 16.1298 15.1666 16.4124C15.1452 16.5808 15.1597 16.7493 15.2099 16.9102L15.2277 16.9212C15.5103 17.7517 15.8795 18.5505 16.3305 19.3027C16.9107 20.3587 17.6264 21.3363 18.4576 22.2101L18.4824 22.2458L18.5216 22.2747L18.5463 22.3036L18.5752 22.3283C19.4524 23.163 20.4301 23.8787 21.4902 24.4658C22.7002 25.1244 23.4344 25.4358 23.8751 25.5651V25.572C24.0044 25.6112 24.1219 25.629 24.2402 25.629C24.6162 25.6002 24.971 25.4503 25.2501 25.1959C25.6083 24.8735 25.8909 24.5194 26.1026 24.1433V24.1365C26.3137 23.7391 26.2422 23.363 25.9376 23.1087C25.3292 22.5752 24.6664 22.1022 23.9679 21.6945C23.4991 21.4401 23.0226 21.5941 22.8294 21.8519L22.4176 22.371C22.2066 22.6288 21.8229 22.593 21.8229 22.593L21.8119 22.5999C18.9512 21.8691 18.1881 18.9727 18.1881 18.9727C18.1881 18.9727 18.1524 18.5787 18.4171 18.378L18.9327 17.9627C19.1795 17.762 19.3514 17.2862 19.0867 16.8167C18.6817 16.1147 18.2094 15.4561 17.6759 14.847C17.5611 14.704 17.3968 14.607 17.2139 14.5713L17.2153 14.5727ZM21.3149 15.3894C20.9498 15.3894 20.9498 15.9408 21.3183 15.9408C22.2347 15.9552 23.1086 16.3347 23.7459 16.9933C24.3261 17.6341 24.6266 18.4866 24.5695 19.3494C24.5729 19.5 24.6946 19.6217 24.8452 19.6217L24.8562 19.6361C25.0067 19.6361 25.1319 19.511 25.1319 19.3604C25.1566 18.268 24.817 17.3515 24.1508 16.6173C23.4812 15.883 22.5469 15.4712 21.3541 15.3894C21.3396 15.3894 21.3293 15.3894 21.3149 15.3894V15.3894ZM21.7666 16.8717C21.3905 16.8607 21.3761 17.423 21.7487 17.434C22.6548 17.4808 23.0948 17.9387 23.1526 18.8805C23.156 19.0311 23.2777 19.1493 23.4248 19.1493H23.4358C23.5898 19.1425 23.7115 19.0098 23.7005 18.8558C23.6359 17.6279 22.9662 16.9363 21.7776 16.8723C21.7741 16.8723 21.7707 16.8723 21.7666 16.8723V16.8717Z" fill="#F1CD50"/>
<circle cx="21.5" cy="21.5" r="20.5" stroke="#F1CD50" stroke-width="2"/>
</svg>
