<svg width="43" height="43" viewBox="0 0 43 43" fill="none" xmlns="http://www.w3.org/2000/svg">
<circle cx="21.5" cy="21.5" r="20.5" stroke="#F1CD50" stroke-width="2"/>
<path d="M32.7021 27.7731C31.8429 28.3114 28.3477 28.4715 27.5018 27.8568C27.0377 27.5198 26.6134 27.0979 26.2102 26.6967C25.9286 26.4159 25.6084 26.2795 25.3663 25.9749C25.1691 25.7253 25.0334 25.4312 24.825 25.1857C24.4738 24.7726 23.9325 24.4214 23.5041 24.926C22.8598 25.6845 23.6058 27.1758 22.7462 27.7429C22.4579 27.9333 22.1672 27.9884 21.8072 27.9612L21.0095 27.9975C20.5407 28.0067 19.7984 28.0108 19.2657 27.9146C18.6707 27.8075 18.18 27.4824 17.6428 27.2438C16.6222 26.7912 15.6494 26.1745 14.9096 25.32C12.8961 22.9934 10.1914 19.7934 9.1408 16.868C8.92422 16.2669 8.35404 15.0772 8.89498 14.5614C9.63074 14.027 13.2432 13.8757 13.8063 14.7029C14.0354 15.0385 14.1796 15.5311 14.3414 15.9116C14.5427 16.3862 14.6522 16.834 14.967 17.2542C15.2458 17.6272 15.4519 18.0019 15.6678 18.4109C15.9102 18.8696 16.1387 19.3095 16.4335 19.7322C16.6334 20.0195 17.1621 20.5903 17.496 20.6332C18.3113 20.7375 18.2603 18.756 18.1998 18.2719C18.142 17.8057 18.1267 17.3114 18.142 16.8384C18.1552 16.4352 18.1916 15.867 17.9526 15.5376C17.5633 15.0004 16.6963 15.4026 16.6283 14.6808C16.7718 14.4758 16.7412 14.2939 17.6979 13.979C18.451 13.7312 18.9376 13.739 19.4343 13.7788C20.4475 13.86 21.5216 13.5856 22.4991 13.9141C23.4327 14.2286 23.2885 15.5556 23.2573 16.3512C23.2154 17.4375 23.26 18.4973 23.2573 19.5992C23.2559 20.1014 23.2362 20.5893 23.8475 20.5488C24.4214 20.5104 24.4796 20.028 24.7533 19.6295C25.1344 19.0743 25.4836 18.5116 25.8715 17.958C26.3941 17.2104 26.5515 16.3702 27.0435 15.6042C27.2196 15.3298 27.3709 14.7311 27.6419 14.5145C27.8473 14.351 28.2369 14.421 28.4851 14.421H29.0753C29.5275 14.4265 29.9886 14.4329 30.4527 14.4492C31.1215 14.4724 31.8705 14.3272 32.5338 14.4207C35.3953 14.8246 28.9373 20.9456 29.2732 22.0377C29.5058 22.7918 30.9787 23.6367 31.5104 24.2548C32.2193 25.0769 34.3923 26.7154 32.7021 27.7731Z" fill="#F1CD50"/>
</svg>
