<svg xmlns="http://www.w3.org/2000/svg" fill="#2496d7" height="18" width="18" viewBox="0 0 210 210"><path d="M75 0H15C6.716 0 0 6.716 0 15v60c0 8.284 6.716 15 15 15h60c8.284 0 15-6.716 15-15V15c0-8.284-6.716-15-15-15zM60 60H30V30h30v30zm15 60H15c-8.284 0-15 6.716-15 15v60c0 8.284 6.716 15 15 15h60c8.284 0 15-6.716 15-15v-60c0-8.284-6.716-15-15-15zm-15 60H30v-30h30v30zM195 0h-60c-8.284 0-15 6.716-15 15v60c0 8.284 6.716 15 15 15h60c8.284 0 15-6.716 15-15V15c0-8.284-6.716-15-15-15zm-15 60h-30V30h30v30zm15 60h-60c-8.284 0-15 6.716-15 15v60c0 8.284 6.716 15 15 15h60c8.284 0 15-6.716 15-15v-60c0-8.284-6.716-15-15-15zm-15 60h-30v-30h30v30z"/></svg>