<svg xmlns="http://www.w3.org/2000/svg" width="12" height="12"><defs><clipPath id="a"><path fill="#fff" d="M6 0l1.977 3.77L12 4.584 9.2 7.726 9.708 12 6 10.171l-3.708 1.828.508-4.273L0 4.583l4.023-.812L6 0"/></clipPath></defs><path fill="#eadb11" d="M6 0l1.977 3.77L12 4.584 9.2 7.726 9.708 12 6 10.171l-3.708 1.828.508-4.273L0 4.583l4.023-.812L6 0"/><path fill="none" stroke="#dacd20" stroke-miterlimit="20" stroke-width="2" d="M6 0v0l1.977 3.77v0L12 4.584v0L9.2 7.726v0L9.708 12v0L6 10.171v0l-3.708 1.828v0L2.8 7.726v0L0 4.583v0l4.023-.812v0L6 0v0" clip-path="url(&quot;#a&quot;)"/></svg>