<svg width="24" height="24" viewBox="0 0 24 24" fill="none" xmlns="http://www.w3.org/2000/svg">
<path d="M4.40479 9.39743H7.74538V19.4476H4.40479V9.39743Z" fill="#1A2131"/>
<path d="M6.05327 8.02576H6.07531C7.24071 8.02576 7.96538 7.25372 7.96538 6.28877C7.94335 5.30256 7.24071 4.55237 6.09715 4.55237C4.95379 4.55237 4.2063 5.30256 4.2063 6.28877C4.2063 7.25372 4.93272 8.02576 6.05327 8.02576Z" fill="#1A2131"/>
<path d="M12.9352 19.4476V13.8346C12.9352 13.5334 12.9582 13.235 13.0462 13.0202C13.288 12.4191 13.8368 11.7984 14.7603 11.7984C15.9696 11.7984 16.4525 12.7202 16.4525 14.0706V19.4474H19.7938V13.6842C19.7938 10.5974 18.1456 9.16141 15.9468 9.16141C14.1717 9.16141 13.3792 10.1383 12.9352 10.8215V10.8543H12.9134C12.9192 10.8435 12.9286 10.8325 12.9352 10.8215V9.39743H9.59326C9.63811 10.3401 9.59326 19.4474 9.59326 19.4474H12.9352V19.4476Z" fill="#1A2131"/>
</svg>
