<svg width="60" height="60" viewBox="0 0 60 60" fill="none" xmlns="http://www.w3.org/2000/svg">
<path d="M36.719 22H11.719C11.167 22 10.719 22.448 10.719 23C10.719 23.552 11.167 24 11.719 24H36.719C37.271 24 37.719 23.552 37.719 23C37.719 22.448 37.271 22 36.719 22Z" fill="#1A2131"/>
<path d="M11.719 16H21.719C22.271 16 22.719 15.552 22.719 15C22.719 14.448 22.271 14 21.719 14H11.719C11.167 14 10.719 14.448 10.719 15C10.719 15.552 11.167 16 11.719 16Z" fill="#1A2131"/>
<path d="M36.719 30H11.719C11.167 30 10.719 30.448 10.719 31C10.719 31.552 11.167 32 11.719 32H36.719C37.271 32 37.719 31.552 37.719 31C37.719 30.448 37.271 30 36.719 30Z" fill="#1A2131"/>
<path d="M28.719 38H11.719C11.167 38 10.719 38.448 10.719 39C10.719 39.552 11.167 40 11.719 40H28.719C29.271 40 29.719 39.552 29.719 39C29.719 38.448 29.271 38 28.719 38Z" fill="#1A2131"/>
<path d="M25.719 48C26.271 48 26.719 47.552 26.719 47C26.719 46.448 26.271 46 25.719 46H11.719C11.167 46 10.719 46.448 10.719 47C10.719 47.552 11.167 48 11.719 48H25.719Z" fill="#1A2131"/>
<path d="M2.71899 2H31.719V16H45.719V34H47.719V14.586L33.133 0H0.718994V60H29.719V58H2.71899V2ZM33.719 3.414L44.305 14H33.719V3.414Z" fill="#1A2131"/>
<path d="M58.4069 37.1619L55.5579 34.3119C54.4299 33.1839 52.4639 33.1839 51.3359 34.3119L35.9449 49.7019L33.8239 57.4809L33.3049 57.9999C32.9169 58.3879 32.9159 59.0139 33.2989 59.4049L33.2939 59.4249L33.3139 59.4199C33.5079 59.6099 33.7599 59.7069 34.0119 59.7069C34.2679 59.7069 34.524 59.6089 34.719 59.4139L35.2379 58.8949L43.0169 56.7739L58.4069 41.3829C58.9709 40.8189 59.2819 40.0699 59.2819 39.2719C59.2819 38.4739 58.9709 37.7249 58.4069 37.1619ZM38.254 50.2219L48.497 39.9789L52.74 44.2219L42.497 54.4649L38.254 50.2219ZM37.351 52.1469L40.5709 55.3669L36.1439 56.5739L37.351 52.1469ZM56.9929 39.9689L54.1539 42.8079L49.9109 38.5649L52.7499 35.7259C53.1219 35.3539 53.771 35.3529 54.143 35.7259L56.9929 38.5759C57.1789 38.7619 57.2819 39.0089 57.2819 39.2719C57.281 39.5349 57.1789 39.7829 56.9929 39.9689Z" fill="#1A2131"/>
</svg>
