<svg width="60" height="60" viewBox="0 0 60 60" fill="none" xmlns="http://www.w3.org/2000/svg">
<g clip-path="url(#clip0)">
<path d="M54.6318 48.0963L52.2098 47.2554C53.5657 46.1815 54.4377 44.5225 54.4377 42.6626V40.8874C54.4377 37.6574 51.8097 35.0294 48.5797 35.0294C45.3497 35.0294 42.7217 37.6574 42.7217 40.8874V42.6626C42.7217 44.5225 43.5942 46.1815 44.9501 47.2554L42.5276 48.0963C40.974 48.636 39.668 49.6257 38.7328 50.8877H32.1895V48.3055C32.1895 44.9066 30.032 41.8739 26.8213 40.7592L24.3988 39.9183C25.7547 38.8444 26.6272 37.1855 26.6272 35.3256V33.5504C26.6272 30.3199 23.9992 27.6924 20.7692 27.6924C17.5392 27.6924 14.9112 30.3204 14.9112 33.5504V35.3256C14.9112 37.1855 15.7837 38.8444 17.1391 39.9183L14.7171 40.7592C11.5063 41.8739 9.34891 44.9066 9.34891 48.3055V50.8877H0.887604C0.397339 50.8877 0 51.2851 0 51.7753V59.1124C0 59.6026 0.397339 60 0.887604 60H37.8108C37.8506 60 37.89 59.9963 37.9289 59.9913C37.9678 59.9963 38.0072 60 38.0475 60H59.1124C59.6027 60 60 59.6026 60 59.1124V55.6425C60 52.2441 57.843 49.2114 54.6318 48.0963ZM44.4969 40.8874C44.4969 38.6361 46.3284 36.8046 48.5797 36.8046C50.831 36.8046 52.6625 38.6361 52.6625 40.8874V42.6626C52.6625 44.9139 50.831 46.7454 48.5797 46.7454C46.3284 46.7454 44.4969 44.9139 44.4969 42.6626V40.8874ZM16.6864 33.5504C16.6864 31.2991 18.5179 29.4676 20.7692 29.4676C23.0205 29.4676 24.852 31.2991 24.852 33.5504V35.3256C24.852 37.5769 23.0205 39.4084 20.7692 39.4084C18.5179 39.4084 16.6864 37.5769 16.6864 35.3256V33.5504ZM22.6314 41.1836L23.4938 41.483L20.7692 46.2103L18.0446 41.483L18.907 41.1836H22.6314ZM11.1241 48.3055C11.1241 45.6619 12.8023 43.303 15.2994 42.436L16.3376 42.0758L20.0002 48.4314C20.1585 48.7065 20.452 48.8759 20.7692 48.8759C21.0864 48.8759 21.3799 48.7065 21.5382 48.4314L25.2008 42.0758L26.239 42.436C28.7361 43.303 30.4138 45.6619 30.4138 48.3055V50.8877H11.1241V48.3055ZM1.77521 52.6629H37.738C37.3636 53.5917 37.1599 54.5997 37.1599 55.6425V58.2248H1.77521V52.6629ZM58.2248 58.2248H38.9351V55.6425C38.9351 52.9989 40.6128 50.6405 43.1099 49.7731L46.7175 48.5206H50.4419L54.0495 49.7731C56.5471 50.6405 58.2248 52.9989 58.2248 55.6425V58.2248Z" fill="#1A2131"/>
<path d="M54.3787 6.39038H45.3625C44.8723 6.39038 44.4749 6.78818 44.4749 7.27798C44.4749 7.76825 44.8723 8.16559 45.3625 8.16559H54.3787C56.4995 8.16559 58.2248 9.8909 58.2248 12.0122V24.3196C58.2248 26.4404 56.4995 28.1657 54.3787 28.1657H42.1893C41.6991 28.1657 41.3017 28.5631 41.3017 29.0533V32.8281L36.8999 28.4258C36.7332 28.2591 36.5076 28.1657 36.2723 28.1657H29.0533C26.9325 28.1657 25.2068 26.4404 25.2068 24.3196V12.0117C25.2068 9.8909 26.9321 8.16559 29.0533 8.16559H41.2129C41.7032 8.16559 42.1005 7.76825 42.1005 7.27798C42.1005 6.78772 41.7032 6.39038 41.2129 6.39038H36.568V5.62134C36.568 2.52182 34.0462 0 30.9467 0H5.62134C2.52182 0 0 2.52182 0 5.62134V7.58377C0 8.07404 0.397339 8.47137 0.887604 8.47137C1.37787 8.47137 1.77521 8.07404 1.77521 7.58377V5.62134C1.77521 3.50052 3.50052 1.77521 5.62134 1.77521H30.9467C33.0675 1.77521 34.7928 3.50052 34.7928 5.62134V6.39038H29.0533C25.9538 6.39038 23.432 8.9122 23.432 12.0117V21.7749H14.1422C13.6519 21.7749 13.2545 22.1722 13.2545 22.6625V26.4372L8.85269 22.0349C8.68607 21.8683 8.46039 21.7749 8.2251 21.7749H5.62134C3.50052 21.7749 1.77521 20.0496 1.77521 17.9288V11.711C1.77521 11.2207 1.37787 10.8234 0.887604 10.8234C0.397339 10.8234 0 11.2207 0 11.711V17.9288C0 21.0287 2.52182 23.5501 5.62134 23.5501H7.85706L13.5146 29.2076C13.6844 29.3774 13.9114 29.4676 14.1422 29.4672C14.2566 29.4672 14.3719 29.4452 14.4818 29.3999C14.8132 29.2625 15.0298 28.9389 15.0298 28.58V23.5501H23.432V24.3196C23.432 27.4191 25.9538 29.9405 29.0533 29.9405H35.9047L41.5617 35.598C41.7316 35.7678 41.9586 35.858 42.1893 35.858C42.3038 35.858 42.4191 35.836 42.529 35.7903C42.8604 35.6529 43.0769 35.3293 43.0769 34.9704V29.9405H54.3787C57.4782 29.9405 60 27.4191 60 24.3196V12.0117C60 8.9122 57.4782 6.39038 54.3787 6.39038Z" fill="#1A2131"/>
</g>
<defs>
<clipPath id="clip0">
<rect width="60" height="60" fill="white"/>
</clipPath>
</defs>
</svg>
