<svg width="59" height="59" viewBox="0 0 59 59" fill="none" xmlns="http://www.w3.org/2000/svg">
<g clip-path="url(#clip0)">
<path d="M40.0759 29.153H32.9339C32.5699 27.754 31.4749 26.659 30.0759 26.295V16.153C30.0759 15.6 29.6279 15.153 29.0759 15.153C28.5239 15.153 28.0759 15.6 28.0759 16.153V26.295C26.3559 26.742 25.0759 28.294 25.0759 30.153C25.0759 32.359 26.8699 34.153 29.0759 34.153C30.9339 34.153 32.4869 32.873 32.9339 31.153H40.0759C40.6279 31.153 41.0759 30.706 41.0759 30.153C41.0759 29.6 40.6289 29.153 40.0759 29.153ZM29.0759 32.153C27.9729 32.153 27.0759 31.256 27.0759 30.153C27.0759 29.05 27.9729 28.153 29.0759 28.153C30.1789 28.153 31.0759 29.05 31.0759 30.153C31.0759 31.256 30.1789 32.153 29.0759 32.153Z" fill="#1A2131"/>
<path d="M50.188 9.76399L54.284 13.86C54.472 14.048 54.726 14.153 54.991 14.153C55.256 14.153 55.511 14.048 55.698 13.86C58.865 10.694 58.865 5.54099 55.698 2.37499C52.531 -0.791012 47.379 -0.791012 44.213 2.37499C44.025 2.56299 43.92 2.81599 43.92 3.08199C43.92 3.34799 44.025 3.60199 44.213 3.78899L48.774 8.34999L47.075 10.049C42.295 5.76499 35.986 3.15299 29.077 3.15299C22.168 3.15299 15.859 5.76499 11.079 10.049L9.37896 8.34999L13.94 3.78899C14.128 3.60099 14.233 3.34799 14.233 3.08199C14.233 2.81599 14.128 2.56199 13.94 2.37499C10.774 -0.791012 5.62196 -0.791012 2.45496 2.37499C-0.712038 5.54099 -0.712038 10.694 2.45496 13.86C2.64296 14.048 2.89696 14.153 3.16196 14.153C3.42696 14.153 3.68196 14.048 3.86896 13.86L7.96496 9.76399L9.64096 11.44C4.96196 16.297 2.07596 22.893 2.07596 30.153C2.07596 40.051 7.43296 48.717 15.397 53.418L12.369 56.446C11.978 56.837 11.978 57.469 12.369 57.86C12.564 58.055 12.82 58.153 13.076 58.153C13.332 58.153 13.588 58.055 13.783 57.86L17.233 54.41C20.811 56.164 24.83 57.153 29.076 57.153C33.322 57.153 37.341 56.164 40.919 54.41L44.369 57.86C44.564 58.055 44.82 58.153 45.076 58.153C45.332 58.153 45.588 58.055 45.783 57.86C46.174 57.469 46.174 56.837 45.783 56.446L42.755 53.418C50.719 48.717 56.076 40.051 56.076 30.153C56.076 22.893 53.19 16.297 48.511 11.44L50.188 9.76399ZM54.283 3.78899C56.429 5.93499 56.645 9.29099 54.932 11.682L46.391 3.13999C48.781 1.42699 52.136 1.64199 54.283 3.78899ZM3.21996 11.681C1.50696 9.29099 1.72296 5.93499 3.86896 3.78899C6.01496 1.64299 9.37096 1.42799 11.761 3.13999L3.21996 11.681ZM29.076 55.153C15.291 55.153 4.07596 43.938 4.07596 30.153C4.07596 16.368 15.291 5.15299 29.076 5.15299C42.861 5.15299 54.076 16.368 54.076 30.153C54.076 43.938 42.862 55.153 29.076 55.153Z" fill="#1A2131"/>
<path d="M29.0759 10.032C29.6279 10.032 30.0759 9.58498 30.0759 9.03198V8.03198C30.0759 7.47898 29.6279 7.03198 29.0759 7.03198C28.5239 7.03198 28.0759 7.47898 28.0759 8.03198V9.03198C28.0759 9.58398 28.5239 10.032 29.0759 10.032Z" fill="#1A2131"/>
<path d="M29.0759 50.032C28.5239 50.032 28.0759 50.479 28.0759 51.032V52.032C28.0759 52.585 28.5239 53.032 29.0759 53.032C29.6279 53.032 30.0759 52.585 30.0759 52.032V51.032C30.0759 50.479 29.6289 50.032 29.0759 50.032Z" fill="#1A2131"/>
<path d="M50.0759 31.032H51.0759C51.6279 31.032 52.0759 30.585 52.0759 30.032C52.0759 29.479 51.6279 29.032 51.0759 29.032H50.0759C49.5239 29.032 49.0759 29.479 49.0759 30.032C49.0759 30.585 49.5239 31.032 50.0759 31.032Z" fill="#1A2131"/>
<path d="M8.07593 29.032H7.07593C6.52393 29.032 6.07593 29.479 6.07593 30.032C6.07593 30.585 6.52393 31.032 7.07593 31.032H8.07593C8.62793 31.032 9.07593 30.585 9.07593 30.032C9.07593 29.479 8.62893 29.032 8.07593 29.032Z" fill="#1A2131"/>
<path d="M43.9259 13.768L43.2189 14.475C42.8279 14.866 42.8279 15.498 43.2189 15.889C43.4139 16.084 43.6699 16.182 43.9259 16.182C44.1819 16.182 44.4379 16.084 44.6329 15.889L45.3399 15.182C45.7309 14.791 45.7309 14.159 45.3399 13.768C44.9489 13.377 44.3159 13.377 43.9259 13.768Z" fill="#1A2131"/>
<path d="M13.5199 44.174L12.8129 44.881C12.4219 45.272 12.4219 45.904 12.8129 46.295C13.0079 46.49 13.2639 46.588 13.5199 46.588C13.7759 46.588 14.0319 46.49 14.2269 46.295L14.9339 45.588C15.3249 45.197 15.3249 44.565 14.9339 44.174C14.5429 43.783 13.9109 43.784 13.5199 44.174Z" fill="#1A2131"/>
<path d="M44.6329 44.174C44.2419 43.783 43.6099 43.783 43.2189 44.174C42.8279 44.565 42.8279 45.197 43.2189 45.588L43.9259 46.295C44.1209 46.49 44.3769 46.588 44.6329 46.588C44.8889 46.588 45.1449 46.49 45.3399 46.295C45.7309 45.904 45.7309 45.272 45.3399 44.881L44.6329 44.174Z" fill="#1A2131"/>
<path d="M14.2269 13.768C13.8359 13.377 13.2039 13.377 12.8129 13.768C12.4219 14.159 12.4219 14.791 12.8129 15.182L13.5199 15.889C13.7149 16.084 13.9709 16.182 14.2269 16.182C14.4829 16.182 14.7389 16.084 14.9339 15.889C15.3249 15.498 15.3249 14.866 14.9339 14.475L14.2269 13.768Z" fill="#1A2131"/>
</g>
<defs>
<clipPath id="clip0">
<rect width="58.153" height="58.153" fill="white"/>
</clipPath>
</defs>
</svg>
