<svg width="60" height="60" viewBox="0 0 60 60" fill="none" xmlns="http://www.w3.org/2000/svg">
<g clip-path="url(#clip0)">
<path d="M29.9653 0.00341797C28.8898 0.00341797 27.8151 0.0612346 26.7457 0.176492C25.7656 0.276608 24.7975 0.440797 23.8424 0.640026C23.6575 0.678696 23.4726 0.719493 23.2877 0.762167C17.6604 2.04339 12.522 4.92058 8.4887 9.04871C8.11364 9.43316 7.74647 9.82899 7.38743 10.2361C-3.50762 22.744 -2.20012 41.7158 10.3079 52.6109C22.2827 63.0415 40.3078 62.3475 51.4452 51.0271C51.821 50.6426 52.188 50.2468 52.5464 49.8397C57.3546 44.3641 60.0043 37.3249 60 30.0379C60 13.4502 46.553 0.00329283 29.9653 0.00341797ZM9.82323 10.5504C9.98141 10.3863 10.1456 10.2291 10.3068 10.0699C10.493 9.88668 10.6782 9.70247 10.8684 9.52526C11.0356 9.36908 11.2078 9.21891 11.379 9.06673C11.5722 8.89554 11.7645 8.72434 11.9627 8.55915C12.1369 8.41198 12.3161 8.27082 12.4943 8.12865C12.6945 7.96847 12.8948 7.80828 13.101 7.65411C13.2832 7.51695 13.4684 7.3838 13.6546 7.25365C13.8619 7.10547 14.0701 6.9533 14.2814 6.81514C14.4706 6.68699 14.6618 6.56285 14.854 6.43971C15.0683 6.30255 15.2835 6.16739 15.5008 6.03925C15.6964 5.92249 15.8932 5.8076 16.0914 5.69485C16.3131 5.5687 16.5356 5.44556 16.7592 5.32542C16.9595 5.21868 17.1597 5.11418 17.3599 5.01206C17.5882 4.89693 17.8184 4.7858 18.0497 4.67668C18.2499 4.58157 18.4582 4.48646 18.6644 4.39635C18.8997 4.29624 19.138 4.19612 19.3762 4.09601C19.5835 4.01091 19.7897 3.92781 19.999 3.84772C20.2412 3.75562 20.4865 3.66952 20.7318 3.58342C20.941 3.51033 21.1503 3.43725 21.3625 3.36817C21.6118 3.28808 21.8631 3.21399 22.1154 3.14091C22.3266 3.07984 22.5359 3.01676 22.7481 2.9597C22.8292 2.93867 22.9103 2.92165 22.9914 2.90063C20.028 5.77807 17.8288 9.34918 16.593 13.2906C14.2168 12.6639 11.9164 11.7786 9.73313 10.6506C9.76617 10.6155 9.7942 10.5805 9.82323 10.5504ZM8.38357 12.1623C10.7885 13.4653 13.3387 14.4802 15.9813 15.1858C14.6858 19.6905 14.0058 24.3497 13.96 29.0367H1.95617C2.1743 22.856 4.43453 16.9219 8.38357 12.1623ZM8.38357 47.9135C4.43478 43.1538 2.17455 37.2197 1.95617 31.039H13.96C14.0058 35.7261 14.6857 40.3853 15.9813 44.89C13.3388 45.5958 10.7886 46.6106 8.38357 47.9135ZM22.7421 57.1201C22.5399 57.069 22.3306 57.003 22.1224 56.9419C21.8691 56.8678 21.6148 56.7937 21.3645 56.7126C21.1533 56.6445 20.945 56.5715 20.7368 56.4984C20.4905 56.4133 20.2442 56.3262 20.001 56.2331C19.7927 56.154 19.5875 56.0709 19.3812 55.9868C19.142 55.8867 18.9027 55.7866 18.6654 55.6864C18.4612 55.5963 18.2579 55.5036 18.0557 55.4081C17.8224 55.298 17.5902 55.1859 17.3549 55.0697C17.1547 54.9696 16.9544 54.8695 16.7542 54.7604C16.528 54.6392 16.3037 54.5151 16.0794 54.3869C15.8792 54.2758 15.689 54.1617 15.4958 54.0455C15.2755 53.9134 15.0593 53.7772 14.843 53.6381C14.6528 53.5169 14.4626 53.3938 14.2754 53.2677C14.0621 53.1235 13.8509 52.9733 13.6416 52.8231C13.4584 52.692 13.2752 52.5608 13.095 52.4227C12.8878 52.2665 12.6845 52.1053 12.4823 51.9431C12.3051 51.802 12.1289 51.6618 11.9557 51.5166C11.7555 51.3504 11.5622 51.1772 11.368 51.005C11.1978 50.8539 11.0266 50.7047 10.8604 50.5505C10.6692 50.3723 10.484 50.1871 10.2978 50.0039C10.1366 49.8447 9.9724 49.6875 9.81422 49.5243C9.78519 49.4933 9.75716 49.4613 9.72812 49.4312C11.9113 48.3027 14.2117 47.417 16.588 46.7902C17.8241 50.7315 20.0231 54.3025 22.9864 57.1802C22.9053 57.1591 22.8232 57.1421 22.7421 57.1201ZM28.9643 57.9911C24.6803 57.3824 20.925 52.9112 18.5623 46.3086C21.9782 45.5438 25.4641 45.1334 28.9643 45.0842V57.9911ZM28.9643 43.0819C25.2513 43.1307 21.5539 43.5717 17.9336 44.3974C16.6765 40.0541 16.0134 35.5604 15.9623 31.039H28.9643V43.0819ZM28.9643 29.0367H15.9623C16.0132 24.5154 16.6764 20.0217 17.9336 15.6784C21.5539 16.5039 25.2514 16.9449 28.9643 16.9939V29.0367ZM28.9643 14.9916C25.464 14.9428 21.9782 14.5324 18.5623 13.7671C20.925 7.16454 24.6803 2.69339 28.9643 2.08469V14.9916ZM51.5473 12.1623C55.4961 16.922 57.7563 22.8561 57.9747 29.0367H45.9709C45.9251 24.3497 45.2452 19.6905 43.9495 15.1858C46.5921 14.4798 49.1423 13.4651 51.5473 12.1623ZM37.1807 2.95469C37.391 3.00675 37.6002 3.07283 37.8085 3.1339C38.0618 3.20798 38.316 3.28207 38.5663 3.36316C38.7776 3.43124 38.9858 3.50433 39.1941 3.57741C39.4403 3.66251 39.6866 3.74961 39.9299 3.84272C40.1381 3.92181 40.3434 4.0049 40.5496 4.089C40.7889 4.18912 41.0282 4.28923 41.2654 4.38935C41.4697 4.47945 41.6729 4.57218 41.8751 4.66767C42.1084 4.77779 42.3407 4.88992 42.576 5.00606C42.7762 5.10617 42.9764 5.20629 43.1766 5.31541C43.4029 5.43655 43.6272 5.5607 43.8514 5.68884C44.0517 5.79997 44.2419 5.9141 44.4351 6.03024C44.6553 6.16239 44.8716 6.29855 45.0878 6.43771C45.2781 6.55885 45.4683 6.68199 45.6555 6.80813C45.8687 6.9523 46.079 7.10147 46.2882 7.25164C46.4724 7.38279 46.6557 7.51495 46.8369 7.6521C47.0431 7.80728 47.2453 7.96847 47.4486 8.13066C47.6248 8.27082 47.802 8.41098 47.9752 8.55715C48.1754 8.72334 48.3686 8.89654 48.5628 9.06874C48.733 9.21991 48.9042 9.36908 49.0704 9.52326C49.2617 9.70147 49.4469 9.88668 49.6331 10.0699C49.7943 10.2291 49.9585 10.3863 50.1166 10.5494C50.1457 10.5805 50.1737 10.6125 50.2027 10.6425C48.0196 11.7711 45.7192 12.6567 43.3428 13.2836C42.1044 9.3418 39.9025 5.77106 36.9365 2.89462C37.0176 2.91565 37.0996 2.93267 37.1807 2.95469ZM30.9666 2.08469C35.2505 2.69339 39.0058 7.16454 41.3686 13.7671C37.9526 14.532 34.4667 14.9424 30.9666 14.9916V2.08469ZM30.9666 16.9939C34.6796 16.9451 38.377 16.5041 41.9973 15.6784C43.2544 20.0217 43.9175 24.5154 43.9686 29.0367H30.9666V16.9939ZM30.9666 31.039H43.9686C43.9176 35.5604 43.2545 40.0541 41.9973 44.3974C38.377 43.5719 34.6796 43.1309 30.9666 43.0819V31.039ZM30.9666 57.9911V45.0842C34.4669 45.133 37.9526 45.5434 41.3686 46.3086C39.0058 52.9112 35.2505 57.3824 30.9666 57.9911ZM50.1076 49.5253C49.9494 49.6885 49.7863 49.8457 49.6251 50.0049C49.4389 50.1881 49.2526 50.3733 49.0614 50.5515C48.8952 50.7067 48.724 50.8519 48.5538 51.007C48.3596 51.1792 48.1664 51.3514 47.9682 51.5176C47.793 51.6638 47.6148 51.805 47.4366 51.9471C47.2363 52.1073 47.0361 52.2675 46.8299 52.4217C46.6476 52.5588 46.4624 52.692 46.2762 52.8221C46.069 52.9703 45.8607 53.1225 45.6495 53.2606C45.4603 53.3888 45.2691 53.5129 45.0768 53.6351C44.8626 53.7732 44.6467 53.9068 44.4291 54.0355C44.2289 54.1527 44.0376 54.2668 43.8404 54.3799C43.6188 54.5061 43.3959 54.6292 43.1716 54.7494C42.9714 54.8561 42.7712 54.9606 42.5709 55.0627C42.3427 55.1779 42.1124 55.289 41.8812 55.3981C41.6809 55.4932 41.4727 55.5883 41.2664 55.6784C41.0312 55.7785 40.7929 55.8787 40.5546 55.9788C40.3474 56.0629 40.1412 56.147 39.9329 56.2261C39.6886 56.3192 39.4433 56.4063 39.1971 56.4914C38.9888 56.5645 38.7806 56.6375 38.5693 56.7056C38.3191 56.7867 38.0688 56.8608 37.8135 56.9339C37.6042 56.9959 37.394 57.058 37.1827 57.1151C37.1016 57.1361 37.0206 57.1531 36.9395 57.1742C39.9029 54.2967 42.102 50.7256 43.3378 46.7842C45.7141 47.4109 48.0145 48.2962 50.1977 49.4242C50.1647 49.4603 50.1367 49.4953 50.1076 49.5253ZM51.5473 47.9135C49.1424 46.6105 46.5922 45.5956 43.9495 44.89C45.245 40.3853 45.9251 35.7261 45.9709 31.039H57.9747C57.7567 37.2197 55.4963 43.1539 51.5473 47.9135Z" fill="#1A2131"/>
</g>
<defs>
<clipPath id="clip0">
<rect width="60" height="60" fill="white"/>
</clipPath>
</defs>
</svg>
