<svg width="62" height="62" viewBox="0 0 62 62" fill="none" xmlns="http://www.w3.org/2000/svg">
<path d="M31.8029 8.28624C22.6823 7.84811 14.9334 14.8865 14.4953 24.007C14.2443 29.2295 16.4785 34.2628 20.52 37.58C21.2489 38.1502 21.6822 39.018 21.7 39.9432V42.3664C21.7055 43.6754 22.5325 44.8399 23.7667 45.2762V46.4997C23.7694 47.2648 24.0567 48.0015 24.5727 48.5664C23.498 49.7345 23.498 51.5315 24.5727 52.6997C23.427 53.9496 23.5116 55.8916 24.7614 57.0372C25.0928 57.341 25.4871 57.5683 25.916 57.703C26.3876 60.508 29.0439 62.3995 31.8489 61.9278C34.0135 61.5638 35.7096 59.8677 36.0736 57.703C37.6926 57.1994 38.5969 55.4788 38.0933 53.8597C37.9592 53.4288 37.7318 53.0327 37.4273 52.6997C38.5019 51.5315 38.5019 49.7345 37.4273 48.5664C37.9433 48.0015 38.2306 47.2648 38.2333 46.4997V45.2762C39.4674 44.8399 40.2945 43.6754 40.2999 42.3664V40.0631C40.2861 39.1348 40.6883 38.2488 41.3963 37.6482C45.3154 34.4971 47.5766 29.7252 47.5332 24.6965C47.3835 15.9564 40.5289 8.80549 31.8029 8.28624ZM31 59.933C29.6866 59.9314 28.5162 59.104 28.0767 57.8663H33.9233C33.4837 59.104 32.3133 59.9314 31 59.933ZM35.1333 55.7996H26.8667C26.296 55.7996 25.8333 55.337 25.8333 54.7663C25.8333 54.1957 26.296 53.733 26.8667 53.733H35.1333C35.7039 53.733 36.1666 54.1957 36.1666 54.7663C36.1666 55.337 35.7041 55.7996 35.1333 55.7996ZM35.1333 51.6663H26.8667C26.296 51.6663 25.8333 51.2037 25.8333 50.633C25.8333 50.0624 26.296 49.5997 26.8667 49.5997H35.1333C35.7039 49.5997 36.1666 50.0624 36.1666 50.633C36.1666 51.2037 35.7041 51.6663 35.1333 51.6663ZM36.1666 46.4997C36.1666 47.0704 35.7039 47.533 35.1333 47.533H26.8667C26.296 47.533 25.8333 47.0704 25.8333 46.4997V45.4664H36.1666V46.4997ZM40.0984 36.0404C38.8985 37.0287 38.2123 38.5086 38.2333 40.0631V42.3664C38.2333 42.937 37.7706 43.3997 37.1999 43.3997H32.0333V23.7665C32.0333 23.1959 31.5706 22.7332 31 22.7332C30.4293 22.7332 29.9667 23.1959 29.9667 23.7665V43.3997H24.8C24.2294 43.3997 23.7667 42.937 23.7667 42.3664V39.9432C23.7498 38.3982 23.0382 36.9427 21.8292 35.9804C15.6543 30.9103 14.7587 21.7945 19.8288 15.6196C22.5729 12.2775 26.6684 10.3383 30.9927 10.3333C31.2294 10.3333 31.467 10.3384 31.7047 10.3508C39.3405 10.8051 45.338 17.0638 45.4666 24.712C45.5036 29.1104 43.526 33.2838 40.0984 36.0404Z" fill="#1A2131"/>
<path d="M31 0C30.4293 0 29.9667 0.462672 29.9667 1.03333V5.16663C29.9667 5.73729 30.4293 6.19996 31 6.19996C31.5707 6.19996 32.0333 5.73729 32.0333 5.16663V1.03333C32.0333 0.462672 31.5708 0 31 0Z" fill="#1A2131"/>
<path d="M22.085 7.29163C22.0828 7.28763 22.0805 7.28375 22.0782 7.27975L20.0115 3.70134C19.7294 3.20521 19.0986 3.03174 18.6025 3.31384C18.1063 3.59594 17.9329 4.22678 18.215 4.72291C18.2172 4.72691 18.2195 4.73079 18.2218 4.73479L20.2885 8.3132C20.5706 8.80933 21.2014 8.9828 21.6975 8.7007C22.1937 8.4186 22.3671 7.78763 22.085 7.29163Z" fill="#1A2131"/>
<path d="M14.526 14.0952C14.5221 14.0929 14.5181 14.0907 14.5143 14.0884L10.9338 12.0217C10.4376 11.7396 9.8068 11.9131 9.5247 12.4092C9.24532 12.9007 9.41272 13.5255 9.90045 13.8114L13.4809 15.8781C13.9733 16.1667 14.6063 16.0016 14.8949 15.5092C15.1836 15.0168 15.0184 14.3838 14.526 14.0952Z" fill="#1A2131"/>
<path d="M11.3667 23.7665H7.2334C6.66275 23.7665 6.20007 24.2292 6.20007 24.7998C6.20007 25.3705 6.66275 25.8331 7.2334 25.8331H11.3667C11.9374 25.8331 12.4 25.3705 12.4 24.7998C12.4 24.2292 11.9375 23.7665 11.3667 23.7665Z" fill="#1A2131"/>
<path d="M14.902 34.1022C14.62 33.6061 13.9892 33.4325 13.4931 33.7145C13.4891 33.7168 13.4851 33.7191 13.481 33.7214L9.90057 35.7881C9.40444 36.0701 9.23085 36.7009 9.51281 37.197C9.79478 37.6932 10.4256 37.8668 10.9218 37.5848C10.9258 37.5825 10.9298 37.5801 10.9338 37.5778L14.5142 35.5112C15.0104 35.2292 15.184 34.5984 14.902 34.1022Z" fill="#1A2131"/>
<path d="M52.0994 35.7882L48.5189 33.7216C48.0266 33.4329 47.3935 33.598 47.1048 34.0902C46.8161 34.5825 46.9812 35.2157 47.4734 35.5043C47.4774 35.5067 47.4814 35.509 47.4854 35.5113L51.0659 37.578C51.562 37.8599 52.1929 37.6863 52.4749 37.1902C52.7544 36.6989 52.587 36.0742 52.0994 35.7882Z" fill="#1A2131"/>
<path d="M54.7665 23.7665H50.6332C50.0625 23.7665 49.5999 24.2292 49.5999 24.7998C49.5999 25.3705 50.0625 25.8331 50.6332 25.8331H54.7665C55.3371 25.8331 55.7998 25.3705 55.7998 24.7998C55.7998 24.2292 55.3373 23.7665 54.7665 23.7665Z" fill="#1A2131"/>
<path d="M52.4695 12.3974C52.1835 11.9097 51.5587 11.7423 51.0673 12.0217L47.4868 14.0883C46.9926 14.3736 46.8232 15.0056 47.1086 15.4998C47.2932 15.8195 47.6343 16.0165 48.0034 16.0165C48.1849 16.0169 48.3632 15.9691 48.5201 15.878L52.1006 13.8114C52.593 13.5228 52.7582 12.8896 52.4695 12.3974Z" fill="#1A2131"/>
<path d="M43.4094 3.32059C42.9171 3.0319 42.2839 3.19698 41.9953 3.68923C41.9929 3.69323 41.9906 3.69724 41.9883 3.70124L39.9216 7.27965C39.6359 7.77358 39.8046 8.40572 40.2987 8.69156C40.2991 8.69182 40.2994 8.69208 40.2998 8.69221C40.7941 8.97728 41.4262 8.80768 41.7112 8.31324C41.7112 8.31311 41.7114 8.31298 41.7114 8.31298L43.778 4.73457C44.0667 4.24244 43.9016 3.60927 43.4094 3.32059Z" fill="#1A2131"/>
<path d="M31 16.5332C30.4293 16.5332 29.9667 16.9959 29.9667 17.5665V19.6332C29.9667 20.2038 30.4293 20.6665 31 20.6665C31.5707 20.6665 32.0333 20.2038 32.0333 19.6332V17.5665C32.0333 16.9959 31.5708 16.5332 31 16.5332Z" fill="#1A2131"/>
</svg>
