<svg width="60" height="60" viewBox="0 0 60 60" fill="none" xmlns="http://www.w3.org/2000/svg">
<path d="M38.914 0H6.5V60H53.5V14.586L38.914 0ZM39.5 3.414L50.086 14H39.5V3.414ZM8.5 58V2H37.5V16H51.5V58H8.5Z" fill="black"/>
<path d="M43.1111 21H28.8889C28.3982 21 28 21.447 28 22C28 22.553 28.3982 23 28.8889 23H43.1111C43.6018 23 44 22.553 44 22C44 21.447 43.6018 21 43.1111 21Z" fill="black"/>
<path d="M22.875 18.219L18.574 21.66L17.207 20.293C16.816 19.902 16.184 19.902 15.793 20.293C15.402 20.684 15.402 21.316 15.793 21.707L17.793 23.707C17.987 23.901 18.243 24 18.5 24C18.72 24 18.941 23.928 19.124 23.781L24.124 19.781C24.556 19.435 24.625 18.806 24.28 18.375C23.936 17.943 23.306 17.874 22.875 18.219Z" fill="black"/>
<path d="M43.1111 32H28.8889C28.3982 32 28 32.447 28 33C28 33.553 28.3982 34 28.8889 34H43.1111C43.6018 34 44 33.553 44 33C44 32.447 43.6018 32 43.1111 32Z" fill="black"/>
<path d="M22.875 29.219L18.574 32.66L17.207 31.293C16.816 30.902 16.184 30.902 15.793 31.293C15.402 31.684 15.402 32.316 15.793 32.707L17.793 34.707C17.987 34.901 18.243 35 18.5 35C18.72 35 18.941 34.928 19.124 34.781L24.124 30.781C24.556 30.435 24.625 29.806 24.28 29.375C23.936 28.943 23.306 28.874 22.875 29.219Z" fill="black"/>
<path d="M43.1111 43H28.8889C28.3982 43 28 43.447 28 44C28 44.553 28.3982 45 28.8889 45H43.1111C43.6018 45 44 44.553 44 44C44 43.447 43.6018 43 43.1111 43Z" fill="black"/>
<path d="M22.875 40.219L18.574 43.66L17.207 42.293C16.816 41.902 16.184 41.902 15.793 42.293C15.402 42.684 15.402 43.316 15.793 43.707L17.793 45.707C17.987 45.901 18.243 46 18.5 46C18.72 46 18.941 45.928 19.124 45.781L24.124 41.781C24.556 41.435 24.625 40.806 24.28 40.375C23.936 39.943 23.306 39.874 22.875 40.219Z" fill="black"/>
</svg>
