<svg width="61" height="61" viewBox="0 0 61 61" fill="none" xmlns="http://www.w3.org/2000/svg">
<path d="M57.221 29.292C58.3 28.374 59 27.024 59 25.5C59 25.196 58.964 24.898 58.91 24.606C58.899 24.545 58.89 24.485 58.877 24.425C58.819 24.165 58.739 23.913 58.642 23.668C58.609 23.584 58.571 23.503 58.534 23.421C58.438 23.215 58.332 23.014 58.209 22.823C58.145 22.723 58.074 22.629 58.003 22.534C57.904 22.401 57.799 22.274 57.687 22.151C57.604 22.06 57.524 21.969 57.435 21.884C57.295 21.751 57.146 21.627 56.991 21.51C57.848 20.859 58.897 20.5 60 20.5V18.5C58.346 18.5 57 17.154 57 15.5C57 15.316 57.022 15.138 57.054 14.964C57.067 14.895 57.086 14.828 57.103 14.761C57.128 14.663 57.158 14.566 57.193 14.472C57.224 14.389 57.256 14.306 57.295 14.226C57.324 14.164 57.36 14.105 57.393 14.046C57.743 13.429 58.304 12.935 59.007 12.686C59.011 12.685 59.013 12.681 59.017 12.679C59.326 12.571 59.654 12.5 60 12.5V10.5C59.654 10.5 59.317 10.536 58.991 10.603C58.468 10.069 57.87 9.631 57.22 9.293C58.299 8.375 59 7.025 59 5.5C59 2.743 56.757 0.5 54 0.5C51.243 0.5 49 2.743 49 5.5C49 7.025 49.701 8.375 50.78 9.293C50.13 9.631 49.532 10.069 49.009 10.603C48.683 10.536 48.346 10.5 48 10.5C47.654 10.5 47.317 10.536 46.991 10.603C46.468 10.069 45.87 9.631 45.22 9.293C46.299 8.375 47 7.025 47 5.5C47 2.743 44.757 0.5 42 0.5C39.243 0.5 37 2.743 37 5.5C37 7.025 37.701 8.375 38.78 9.293C38.13 9.631 37.532 10.069 37.009 10.603C36.683 10.536 36.346 10.5 36 10.5C35.654 10.5 35.317 10.536 34.991 10.603C34.468 10.069 33.87 9.631 33.22 9.293C34.299 8.375 35 7.025 35 5.5C35 2.743 32.757 0.5 30 0.5C27.243 0.5 25 2.743 25 5.5C25 7.025 25.701 8.375 26.78 9.293C26.13 9.631 25.532 10.069 25.009 10.603C24.683 10.536 24.346 10.5 24 10.5C23.654 10.5 23.317 10.536 22.991 10.603C22.468 10.069 21.87 9.631 21.22 9.293C22.299 8.375 23 7.025 23 5.5C23 2.743 20.757 0.5 18 0.5C15.243 0.5 13 2.743 13 5.5C13 7.025 13.701 8.375 14.78 9.293C14.13 9.631 13.532 10.069 13.009 10.603C12.683 10.536 12.346 10.5 12 10.5C11.654 10.5 11.317 10.536 10.991 10.603C10.468 10.069 9.87 9.631 9.22 9.293C10.299 8.375 11 7.025 11 5.5C11 2.743 8.757 0.5 6 0.5C3.243 0.5 1 2.743 1 5.5C1 7.025 1.701 8.375 2.78 9.293C2.13 9.631 1.532 10.069 1.009 10.603C0.683 10.536 0.346 10.5 0 10.5V12.5C0.346 12.5 0.674 12.571 0.983 12.679C0.987 12.68 0.989 12.684 0.993 12.686C1.696 12.934 2.257 13.429 2.607 14.046C2.64 14.105 2.675 14.164 2.705 14.226C2.743 14.306 2.776 14.389 2.807 14.473C2.842 14.567 2.872 14.663 2.897 14.761C2.915 14.829 2.933 14.896 2.946 14.965C2.978 15.138 3 15.316 3 15.5C3 17.154 1.654 18.5 0 18.5V20.5C1.103 20.5 2.152 20.859 3.011 21.51C2.855 21.626 2.707 21.751 2.567 21.884C2.478 21.969 2.398 22.06 2.315 22.151C2.203 22.273 2.098 22.401 1.999 22.534C1.928 22.629 1.857 22.722 1.793 22.823C1.67 23.014 1.564 23.215 1.468 23.421C1.43 23.503 1.393 23.584 1.36 23.668C1.262 23.913 1.183 24.165 1.125 24.425C1.112 24.485 1.103 24.546 1.092 24.606C1.036 24.898 1 25.196 1 25.5C1 27.914 2.721 29.934 5 30.399V38.5H1V40.5H6H9V53.5C9 54.052 9.447 54.5 10 54.5H15H20C20.553 54.5 21 54.052 21 53.5V40.5H24H36H48H60H61V39.5V38.5V35.5C61 32.802 59.463 30.46 57.221 29.292ZM57 25.5C57 27.154 55.654 28.5 54 28.5C52.346 28.5 51 27.154 51 25.5C51 25.316 51.022 25.138 51.054 24.964C51.067 24.895 51.086 24.828 51.103 24.761C51.128 24.663 51.158 24.566 51.193 24.472C51.224 24.389 51.256 24.306 51.295 24.226C51.324 24.164 51.36 24.105 51.393 24.046C51.743 23.429 52.304 22.935 53.007 22.686C53.011 22.685 53.013 22.681 53.017 22.679C53.326 22.571 53.654 22.5 54 22.5C54.346 22.5 54.674 22.571 54.983 22.679C54.987 22.68 54.989 22.684 54.993 22.686C55.696 22.934 56.257 23.429 56.607 24.046C56.64 24.105 56.675 24.164 56.705 24.226C56.743 24.306 56.776 24.389 56.807 24.473C56.842 24.567 56.872 24.663 56.897 24.761C56.915 24.829 56.933 24.896 56.946 24.965C56.978 25.138 57 25.316 57 25.5ZM54 2.5C55.654 2.5 57 3.846 57 5.5C57 7.154 55.654 8.5 54 8.5C52.346 8.5 51 7.154 51 5.5C51 3.846 52.346 2.5 54 2.5ZM57.01 11.51C56.854 11.626 56.706 11.751 56.566 11.884C56.477 11.969 56.397 12.06 56.314 12.151C56.202 12.273 56.097 12.401 55.998 12.534C55.927 12.629 55.856 12.722 55.792 12.823C55.669 13.014 55.563 13.215 55.467 13.421C55.429 13.503 55.392 13.584 55.359 13.668C55.261 13.913 55.182 14.165 55.124 14.425C55.111 14.485 55.102 14.546 55.091 14.606C55.036 14.898 55 15.196 55 15.5C55 17.025 55.701 18.375 56.78 19.293C56.13 19.631 55.532 20.069 55.009 20.603C54.683 20.536 54.346 20.5 54 20.5C53.654 20.5 53.317 20.536 52.991 20.603C52.468 20.069 51.87 19.631 51.22 19.293C52.299 18.375 53 17.025 53 15.5C53 15.196 52.964 14.898 52.91 14.606C52.899 14.545 52.89 14.485 52.877 14.425C52.819 14.165 52.739 13.913 52.642 13.668C52.609 13.584 52.571 13.503 52.534 13.421C52.438 13.215 52.332 13.014 52.209 12.823C52.145 12.723 52.074 12.629 52.003 12.534C51.904 12.401 51.799 12.274 51.687 12.151C51.604 12.06 51.524 11.969 51.435 11.884C51.293 11.751 51.145 11.626 50.989 11.51C52.706 10.208 55.294 10.208 57.01 11.51ZM45.103 14.761C45.128 14.663 45.158 14.566 45.193 14.472C45.224 14.389 45.256 14.306 45.295 14.226C45.324 14.164 45.36 14.105 45.393 14.046C45.743 13.429 46.304 12.935 47.007 12.686C47.011 12.685 47.013 12.681 47.017 12.679C47.326 12.571 47.654 12.5 48 12.5C48.346 12.5 48.674 12.571 48.983 12.679C48.987 12.68 48.989 12.684 48.993 12.686C49.696 12.934 50.257 13.429 50.607 14.046C50.64 14.105 50.675 14.164 50.705 14.226C50.743 14.306 50.776 14.389 50.807 14.473C50.842 14.567 50.872 14.663 50.897 14.761C50.915 14.829 50.933 14.896 50.946 14.965C50.978 15.138 51 15.316 51 15.5C51 17.154 49.654 18.5 48 18.5C46.346 18.5 45 17.154 45 15.5C45 15.316 45.022 15.138 45.054 14.964C45.067 14.895 45.086 14.828 45.103 14.761ZM42 2.5C43.654 2.5 45 3.846 45 5.5C45 7.154 43.654 8.5 42 8.5C40.346 8.5 39 7.154 39 5.5C39 3.846 40.346 2.5 42 2.5ZM45.01 11.51C44.854 11.626 44.706 11.751 44.566 11.884C44.477 11.969 44.397 12.06 44.314 12.151C44.202 12.273 44.097 12.401 43.998 12.534C43.927 12.629 43.856 12.722 43.792 12.823C43.669 13.014 43.563 13.215 43.467 13.421C43.429 13.503 43.392 13.584 43.359 13.668C43.261 13.913 43.182 14.165 43.124 14.425C43.111 14.485 43.102 14.546 43.091 14.606C43.036 14.898 43 15.196 43 15.5C43 17.025 43.701 18.375 44.78 19.293C44.13 19.631 43.532 20.069 43.009 20.603C42.683 20.536 42.346 20.5 42 20.5C41.654 20.5 41.317 20.536 40.991 20.603C40.468 20.069 39.87 19.631 39.22 19.293C40.299 18.375 41 17.025 41 15.5C41 15.196 40.964 14.898 40.91 14.606C40.899 14.545 40.89 14.485 40.877 14.425C40.819 14.165 40.739 13.913 40.642 13.668C40.609 13.584 40.571 13.503 40.534 13.421C40.438 13.215 40.332 13.014 40.209 12.823C40.145 12.723 40.074 12.629 40.003 12.534C39.904 12.401 39.799 12.274 39.687 12.151C39.604 12.06 39.524 11.969 39.435 11.884C39.293 11.751 39.145 11.626 38.989 11.51C40.706 10.208 43.294 10.208 45.01 11.51ZM44.946 24.965C44.978 25.138 45 25.316 45 25.5C45 27.154 43.654 28.5 42 28.5C40.346 28.5 39 27.154 39 25.5C39 25.316 39.022 25.138 39.054 24.964C39.067 24.895 39.086 24.828 39.103 24.761C39.128 24.663 39.158 24.566 39.193 24.472C39.224 24.389 39.256 24.306 39.295 24.226C39.324 24.164 39.36 24.105 39.393 24.046C39.743 23.429 40.304 22.935 41.007 22.686C41.011 22.685 41.013 22.681 41.017 22.679C41.326 22.571 41.654 22.5 42 22.5C42.346 22.5 42.674 22.571 42.983 22.679C42.987 22.68 42.989 22.684 42.993 22.686C43.696 22.934 44.257 23.429 44.607 24.046C44.64 24.105 44.675 24.164 44.705 24.226C44.743 24.306 44.776 24.389 44.807 24.473C44.842 24.567 44.872 24.663 44.897 24.761C44.915 24.829 44.933 24.896 44.946 24.965ZM33.103 14.761C33.128 14.663 33.158 14.566 33.193 14.472C33.224 14.389 33.256 14.306 33.295 14.226C33.324 14.164 33.36 14.105 33.393 14.046C33.743 13.429 34.304 12.935 35.007 12.686C35.011 12.685 35.013 12.681 35.017 12.679C35.326 12.571 35.654 12.5 36 12.5C36.346 12.5 36.674 12.571 36.983 12.679C36.987 12.68 36.989 12.684 36.993 12.686C37.696 12.934 38.257 13.429 38.607 14.046C38.64 14.105 38.675 14.164 38.705 14.226C38.743 14.306 38.776 14.389 38.807 14.473C38.842 14.567 38.872 14.663 38.897 14.761C38.915 14.829 38.933 14.896 38.946 14.965C38.978 15.138 39 15.316 39 15.5C39 17.154 37.654 18.5 36 18.5C34.346 18.5 33 17.154 33 15.5C33 15.316 33.022 15.138 33.054 14.964C33.067 14.895 33.086 14.828 33.103 14.761ZM30 2.5C31.654 2.5 33 3.846 33 5.5C33 7.154 31.654 8.5 30 8.5C28.346 8.5 27 7.154 27 5.5C27 3.846 28.346 2.5 30 2.5ZM33.01 11.51C32.854 11.626 32.706 11.751 32.566 11.884C32.477 11.969 32.397 12.06 32.314 12.151C32.202 12.273 32.097 12.401 31.998 12.534C31.927 12.629 31.856 12.722 31.792 12.823C31.669 13.014 31.563 13.215 31.467 13.421C31.429 13.503 31.392 13.584 31.359 13.668C31.261 13.913 31.182 14.165 31.124 14.425C31.111 14.485 31.102 14.546 31.091 14.606C31.036 14.898 31 15.196 31 15.5C31 17.026 31.702 18.377 32.783 19.295C32.659 19.36 32.541 19.434 32.421 19.506L31.707 18.792C31.316 18.401 30.684 18.401 30.293 18.792L28.73 20.355C28.272 19.932 27.765 19.576 27.22 19.292C28.299 18.375 29 17.025 29 15.5C29 15.196 28.964 14.898 28.91 14.606C28.899 14.545 28.89 14.485 28.877 14.425C28.819 14.165 28.739 13.913 28.642 13.668C28.609 13.584 28.571 13.503 28.534 13.421C28.438 13.215 28.332 13.014 28.209 12.823C28.145 12.723 28.074 12.629 28.003 12.534C27.904 12.401 27.799 12.274 27.687 12.151C27.604 12.06 27.524 11.969 27.435 11.884C27.293 11.751 27.145 11.626 26.989 11.51C28.706 10.208 31.294 10.208 33.01 11.51ZM33 25.5C33 27.154 31.654 28.5 30 28.5C29.818 28.5 29.64 28.483 29.463 28.451L32.946 24.968C32.948 24.98 32.952 24.992 32.955 25.004C32.982 25.167 33 25.333 33 25.5ZM27.315 21.771L24.586 24.5H22.892C22.648 23.308 21.979 22.25 20.992 21.518C21.859 20.858 22.911 20.5 24 20.5C25.239 20.5 26.406 20.959 27.315 21.771ZM21.103 14.761C21.128 14.663 21.158 14.566 21.193 14.472C21.224 14.389 21.256 14.306 21.295 14.226C21.324 14.164 21.36 14.105 21.393 14.046C21.743 13.429 22.304 12.935 23.007 12.686C23.011 12.685 23.013 12.681 23.017 12.679C23.326 12.571 23.654 12.5 24 12.5C24.346 12.5 24.674 12.571 24.983 12.679C24.987 12.68 24.989 12.684 24.993 12.686C25.696 12.934 26.257 13.429 26.607 14.046C26.64 14.105 26.675 14.164 26.705 14.226C26.743 14.306 26.776 14.389 26.807 14.473C26.842 14.567 26.872 14.663 26.897 14.761C26.915 14.829 26.933 14.896 26.946 14.965C26.978 15.138 27 15.316 27 15.5C27 17.154 25.654 18.5 24 18.5C22.346 18.5 21 17.154 21 15.5C21 15.316 21.022 15.138 21.054 14.964C21.067 14.895 21.086 14.828 21.103 14.761ZM18 2.5C19.654 2.5 21 3.846 21 5.5C21 7.154 19.654 8.5 18 8.5C16.346 8.5 15 7.154 15 5.5C15 3.846 16.346 2.5 18 2.5ZM21.01 11.51C20.854 11.626 20.706 11.751 20.566 11.884C20.477 11.969 20.397 12.06 20.314 12.151C20.202 12.273 20.097 12.401 19.998 12.534C19.927 12.629 19.856 12.722 19.792 12.823C19.669 13.014 19.563 13.215 19.467 13.421C19.429 13.503 19.392 13.584 19.359 13.668C19.261 13.913 19.182 14.165 19.124 14.425C19.111 14.485 19.102 14.546 19.091 14.606C19.036 14.898 19 15.196 19 15.5C19 15.704 19.036 15.898 19.06 16.095C18.457 15.539 17.742 15.105 16.95 14.832C16.94 14.756 16.923 14.681 16.909 14.606C16.898 14.545 16.889 14.485 16.876 14.425C16.818 14.165 16.738 13.913 16.641 13.668C16.608 13.584 16.57 13.503 16.533 13.421C16.437 13.215 16.331 13.014 16.208 12.823C16.144 12.723 16.073 12.629 16.002 12.534C15.903 12.401 15.798 12.274 15.686 12.151C15.603 12.06 15.523 11.969 15.434 11.884C15.293 11.751 15.145 11.626 14.989 11.51C16.706 10.208 19.294 10.208 21.01 11.51ZM20.818 24.5H19.46C19.739 24.189 19.986 23.851 20.196 23.487C20.472 23.781 20.682 24.124 20.818 24.5ZM15.014 16.5C17.213 16.508 19 18.299 19 20.5C19 20.656 18.971 20.803 18.954 20.954C18.953 20.963 18.947 20.971 18.946 20.98C18.919 21.213 18.874 21.431 18.808 21.647C18.806 21.653 18.808 21.659 18.806 21.665C18.304 23.3 16.798 24.5 15 24.5C12.794 24.5 11 22.706 11 20.5C11 20.107 11.075 19.735 11.181 19.376C11.183 19.369 11.189 19.365 11.191 19.358C11.334 18.879 11.561 18.446 11.848 18.067C11.87 18.038 11.894 18.011 11.917 17.983C12.039 17.832 12.17 17.69 12.311 17.559C12.374 17.501 12.443 17.449 12.51 17.395C12.626 17.301 12.743 17.209 12.868 17.128C12.976 17.06 13.091 17.003 13.205 16.945C13.307 16.893 13.407 16.836 13.513 16.793C13.664 16.732 13.822 16.69 13.981 16.647C14.066 16.624 14.147 16.593 14.234 16.576C14.434 16.537 14.642 16.521 14.851 16.514C14.906 16.512 14.959 16.5 15.014 16.5ZM9.103 14.761C9.128 14.663 9.158 14.566 9.193 14.472C9.224 14.389 9.256 14.306 9.295 14.226C9.324 14.164 9.36 14.105 9.393 14.046C9.743 13.429 10.304 12.935 11.007 12.686C11.011 12.685 11.013 12.681 11.017 12.679C11.326 12.571 11.654 12.5 12 12.5C12.328 12.5 12.644 12.553 12.939 12.65C12.959 12.659 12.972 12.678 12.993 12.685C13.863 12.992 14.521 13.674 14.82 14.504C14.78 14.505 14.742 14.513 14.702 14.515C14.528 14.524 14.356 14.538 14.186 14.562C14.106 14.573 14.026 14.585 13.947 14.599C13.781 14.628 13.619 14.666 13.458 14.709C13.39 14.727 13.321 14.741 13.254 14.762C13.042 14.827 12.835 14.902 12.634 14.989C12.562 15.02 12.494 15.057 12.424 15.091C12.286 15.157 12.151 15.226 12.019 15.302C11.944 15.345 11.871 15.39 11.799 15.436C11.657 15.526 11.52 15.622 11.386 15.723C11.342 15.757 11.296 15.788 11.253 15.822C10.668 16.291 10.175 16.867 9.799 17.52C9.666 17.374 9.543 17.22 9.441 17.051C9.405 16.993 9.379 16.93 9.348 16.87C9.268 16.716 9.2 16.556 9.148 16.389C9.128 16.327 9.108 16.265 9.093 16.201C9.038 15.972 9 15.739 9 15.5C9 15.316 9.022 15.138 9.054 14.964C9.067 14.895 9.086 14.828 9.103 14.761ZM6 2.5C7.654 2.5 9 3.846 9 5.5C9 7.154 7.654 8.5 6 8.5C4.346 8.5 3 7.154 3 5.5C3 3.846 4.346 2.5 6 2.5ZM2.991 11.51C4.708 10.208 7.296 10.208 9.012 11.51C8.856 11.626 8.708 11.751 8.568 11.884C8.479 11.969 8.399 12.06 8.316 12.151C8.204 12.273 8.099 12.401 8 12.534C7.929 12.629 7.858 12.722 7.794 12.823C7.671 13.014 7.565 13.215 7.469 13.421C7.431 13.503 7.394 13.584 7.361 13.668C7.263 13.913 7.184 14.165 7.126 14.425C7.113 14.485 7.104 14.546 7.093 14.606C7.036 14.898 7 15.196 7 15.5C7 15.728 7.017 15.953 7.047 16.176C7.063 16.291 7.092 16.401 7.115 16.514C7.137 16.619 7.153 16.725 7.182 16.827C7.216 16.949 7.262 17.066 7.304 17.184C7.337 17.275 7.366 17.368 7.404 17.457C7.448 17.559 7.5 17.655 7.551 17.754C7.604 17.859 7.656 17.965 7.717 18.066C7.758 18.135 7.805 18.199 7.85 18.266C7.937 18.396 8.027 18.524 8.125 18.646C8.15 18.677 8.178 18.706 8.204 18.737C8.462 19.04 8.754 19.315 9.082 19.551C9.033 19.861 9 20.176 9 20.5C9 20.881 9.04 21.253 9.108 21.615C8.252 20.928 7.18 20.5 6 20.5C5.654 20.5 5.317 20.536 4.991 20.603C4.468 20.068 3.87 19.631 3.22 19.293C4.299 18.375 5 17.025 5 15.5C5 15.196 4.964 14.898 4.91 14.606C4.899 14.545 4.89 14.485 4.877 14.425C4.819 14.165 4.739 13.913 4.642 13.668C4.609 13.584 4.571 13.503 4.534 13.421C4.438 13.215 4.332 13.014 4.209 12.823C4.145 12.723 4.074 12.629 4.003 12.534C3.904 12.401 3.799 12.274 3.687 12.151C3.604 12.06 3.524 11.969 3.435 11.884C3.295 11.751 3.146 11.627 2.991 11.51ZM5.92 26.627C5.873 26.693 5.831 26.761 5.787 26.83C5.666 27.021 5.558 27.219 5.463 27.426C5.434 27.489 5.401 27.55 5.374 27.614C5.276 27.854 5.192 28.1 5.132 28.357C5.069 28.338 5.005 28.322 4.944 28.299C4.885 28.277 4.826 28.256 4.769 28.23C4.648 28.175 4.533 28.111 4.422 28.041C4.382 28.016 4.34 27.996 4.301 27.97C4.156 27.87 4.021 27.759 3.896 27.636C3.864 27.605 3.838 27.569 3.808 27.536C3.718 27.439 3.632 27.338 3.555 27.23C3.518 27.179 3.486 27.124 3.453 27.07C3.392 26.971 3.335 26.868 3.285 26.762C3.257 26.703 3.231 26.643 3.207 26.582C3.162 26.467 3.127 26.348 3.097 26.227C3.083 26.17 3.065 26.115 3.054 26.057C3.022 25.875 3 25.69 3 25.5C3 25.316 3.022 25.138 3.054 24.964C3.067 24.895 3.086 24.828 3.103 24.761C3.128 24.663 3.158 24.566 3.193 24.472C3.224 24.389 3.256 24.306 3.295 24.226C3.324 24.164 3.36 24.105 3.393 24.046C3.743 23.429 4.304 22.935 5.007 22.686C5.011 22.685 5.013 22.681 5.017 22.679C5.326 22.571 5.654 22.5 6 22.5C7.352 22.5 8.497 23.398 8.871 24.628C8.609 24.689 8.357 24.775 8.112 24.876C8.05 24.902 7.991 24.934 7.93 24.962C7.721 25.058 7.52 25.167 7.327 25.289C7.259 25.332 7.192 25.374 7.127 25.42C6.658 25.751 6.251 26.158 5.92 26.627ZM20 28.5C19.447 28.5 19 28.948 19 29.5V52.5H16V39.5H14V52.5H11V29.5H9V38.5H7V29.5C7 27.846 8.346 26.5 10 26.5H25C25.266 26.5 25.52 26.395 25.707 26.207L31 20.914L31.583 21.497L32.586 22.5L32.573 22.513L32.569 22.517L27.012 28.074L26.586 28.5H20ZM23 35.5V38.5H21V30.5H25.111C23.81 31.772 23 33.542 23 35.5ZM35 38.5H25V35.5C25 32.743 27.243 30.5 30 30.5C32.757 30.5 35 32.743 35 35.5V38.5ZM33.221 29.292C34.3 28.374 35 27.024 35 25.5C35 25.272 34.979 25.047 34.949 24.825C34.94 24.759 34.928 24.694 34.916 24.629C34.886 24.463 34.848 24.299 34.801 24.137C34.783 24.075 34.769 24.013 34.749 23.952C34.686 23.76 34.613 23.572 34.527 23.388L34.708 23.207C35.099 22.816 35.099 22.184 34.708 21.793L33.885 20.97C35.516 20.203 37.575 20.421 39.012 21.51C38.856 21.626 38.708 21.751 38.568 21.884C38.479 21.969 38.399 22.06 38.316 22.151C38.204 22.273 38.099 22.401 38 22.534C37.929 22.629 37.858 22.722 37.794 22.823C37.671 23.014 37.565 23.215 37.469 23.421C37.431 23.503 37.394 23.584 37.361 23.668C37.263 23.913 37.184 24.165 37.126 24.425C37.113 24.485 37.104 24.546 37.093 24.606C37.036 24.898 37 25.196 37 25.5C37 27.024 37.7 28.374 38.779 29.292C37.627 29.892 36.666 30.803 36 31.913C35.334 30.803 34.373 29.892 33.221 29.292ZM47 38.5H37V35.5C37 32.743 39.243 30.5 42 30.5C44.757 30.5 47 32.743 47 35.5V38.5ZM45.221 29.292C46.3 28.374 47 27.024 47 25.5C47 25.196 46.964 24.898 46.91 24.606C46.899 24.545 46.89 24.485 46.877 24.425C46.819 24.165 46.739 23.913 46.642 23.668C46.609 23.584 46.571 23.503 46.534 23.421C46.438 23.215 46.332 23.014 46.209 22.823C46.145 22.723 46.074 22.629 46.003 22.534C45.904 22.401 45.799 22.274 45.687 22.151C45.604 22.06 45.524 21.969 45.435 21.884C45.295 21.751 45.146 21.627 44.991 21.51C46.708 20.208 49.296 20.208 51.012 21.51C50.856 21.626 50.708 21.751 50.568 21.884C50.479 21.969 50.399 22.06 50.316 22.151C50.204 22.273 50.099 22.401 50 22.534C49.929 22.629 49.858 22.722 49.794 22.823C49.671 23.014 49.565 23.215 49.469 23.421C49.431 23.503 49.394 23.584 49.361 23.668C49.263 23.913 49.184 24.165 49.126 24.425C49.113 24.485 49.104 24.546 49.093 24.606C49.036 24.898 49 25.196 49 25.5C49 27.024 49.7 28.374 50.779 29.292C49.627 29.892 48.666 30.803 48 31.913C47.334 30.803 46.373 29.892 45.221 29.292ZM59 38.5H49V35.5C49 32.743 51.243 30.5 54 30.5C56.757 30.5 59 32.743 59 35.5V38.5Z" fill="#1A2131"/>
<path d="M60 48.5H57V45.5C57 45.235 56.895 44.98 56.707 44.793L54.707 42.793L53.293 44.207L55 45.914V48.5H43C42.447 48.5 42 48.948 42 49.5V59.5C42 60.052 42.447 60.5 43 60.5H60C60.553 60.5 61 60.052 61 59.5V49.5C61 48.948 60.553 48.5 60 48.5ZM59 58.5H44V50.5H59V58.5Z" fill="#1A2131"/>
<path d="M3 58.5H1V60.5H3V58.5Z" fill="#1A2131"/>
<path d="M7 58.5H5V60.5H7V58.5Z" fill="#1A2131"/>
<path d="M11 58.5H9V60.5H11V58.5Z" fill="#1A2131"/>
<path d="M16 28.5H14V34.5H16V28.5Z" fill="#1A2131"/>
</svg>
