<svg width="132" height="19" fill="none" xmlns="http://www.w3.org/2000/svg"><path d="M.68 1.2h4.752v13.032h8.016V18H.68V1.2zm22.863 17.136c-1.776 0-3.376-.376-4.8-1.128-1.408-.752-2.52-1.792-3.336-3.12-.8-1.328-1.2-2.824-1.2-4.488 0-1.664.4-3.16 1.2-4.488.816-1.328 1.928-2.368 3.336-3.12 1.424-.752 3.024-1.128 4.8-1.128 1.776 0 3.368.376 4.776 1.128 1.424.752 2.536 1.792 3.336 3.12.816 1.328 1.224 2.824 1.224 4.488 0 1.664-.408 3.16-1.224 4.488-.8 1.328-1.912 2.368-3.336 3.12-1.408.752-3 1.128-4.776 1.128zm0-3.936c.848 0 1.616-.2 2.304-.6.688-.4 1.232-.96 1.632-1.68.4-.736.6-1.576.6-2.52s-.2-1.776-.6-2.496A4.295 4.295 0 0025.847 5.4c-.688-.4-1.456-.6-2.304-.6-.848 0-1.616.2-2.304.6-.688.4-1.232.968-1.632 1.704-.4.72-.6 1.552-.6 2.496s.2 1.784.6 2.52c.4.72.944 1.28 1.632 1.68.688.4 1.456.6 2.304.6zm15.166-9.432h-5.16V1.2h15.048v3.768h-5.136V18H38.71V4.968zm19.896 13.368c-1.776 0-3.376-.376-4.8-1.128-1.408-.752-2.52-1.792-3.336-3.12-.8-1.328-1.2-2.824-1.2-4.488 0-1.664.4-3.16 1.2-4.488.816-1.328 1.928-2.368 3.336-3.12C55.23 1.24 56.83.864 58.605.864c1.776 0 3.368.376 4.776 1.128 1.424.752 2.536 1.792 3.336 3.12.816 1.328 1.224 2.824 1.224 4.488 0 1.664-.408 3.16-1.224 4.488-.8 1.328-1.912 2.368-3.336 3.12-1.408.752-3 1.128-4.776 1.128zm0-3.936c.848 0 1.616-.2 2.304-.6.688-.4 1.232-.96 1.632-1.68.4-.736.6-1.576.6-2.52s-.2-1.776-.6-2.496A4.295 4.295 0 0060.91 5.4c-.688-.4-1.456-.6-2.304-.6-.848 0-1.616.2-2.304.6-.688.4-1.232.968-1.632 1.704-.4.72-.6 1.552-.6 2.496s.2 1.784.6 2.52c.4.72.944 1.28 1.632 1.68.688.4 1.456.6 2.304.6zm17.729 3.936c-1.36 0-2.68-.168-3.96-.504-1.28-.336-2.32-.784-3.12-1.344l1.56-3.504c.752.496 1.624.896 2.616 1.2a9.958 9.958 0 002.928.456c1.824 0 2.736-.456 2.736-1.368 0-.48-.264-.832-.792-1.056-.512-.24-1.344-.488-2.496-.744-1.264-.272-2.32-.56-3.168-.864a5.438 5.438 0 01-2.184-1.512c-.608-.688-.912-1.616-.912-2.784 0-1.024.28-1.944.84-2.76.56-.832 1.392-1.488 2.496-1.968 1.12-.48 2.488-.72 4.104-.72 1.104 0 2.192.128 3.264.384 1.072.24 2.016.6 2.832 1.08l-1.464 3.528c-1.6-.864-3.152-1.296-4.656-1.296-.944 0-1.632.144-2.064.432-.432.272-.648.632-.648 1.08 0 .448.256.784.768 1.008.512.224 1.336.456 2.472.696 1.28.272 2.336.568 3.168.888a5.23 5.23 0 012.184 1.488c.624.672.936 1.592.936 2.76 0 1.008-.28 1.92-.84 2.736-.56.816-1.4 1.472-2.52 1.968-1.12.48-2.48.72-4.08.72zM89.311 4.968h-5.16V1.2h15.048v3.768h-5.136V18H89.31V4.968zm22.07 9.768h-7.104L102.957 18h-4.848l7.416-16.8h4.68l7.44 16.8h-4.944l-1.32-3.264zm-1.392-3.504l-2.16-5.376-2.16 5.376h4.32zm11.736-6.264h-5.16V1.2h15.048v3.768h-5.136V18h-4.752V4.968z" fill="#121212"/></svg>