<svg width="24" height="24" fill="none" xmlns="http://www.w3.org/2000/svg"><path fill-rule="evenodd" clip-rule="evenodd" d="M10.09 4.58h6.683C18 4.58 19 5.595 19 6.84v12.903C19 20.987 18 22 16.773 22H7.227C6 22 5 20.987 5 19.742V6.839a2.26 2.26 0 011.273-2.037v-.867h-.318a.32.32 0 01-.319-.322v-1.29A.32.32 0 015.955 2h4.454a.32.32 0 01.318.323v1.29a.32.32 0 01-.318.322h-.318v.646zm8.274 7.286V6.838c0-.889-.714-1.612-1.591-1.612h-4.96l1.273 1.29h3.05c.527 0 .955.434.955.968v3.092l1.273 1.29zm-1.909-1.935l-2.732-2.77h2.414a.32.32 0 01.318.323V9.93zm-6.364-7.285H6.273v.645h3.818v-.645zM6.91 3.935h2.545v.645H7.228c-.108 0-.214.01-.318.026v-.671zm.317 17.42h9.546c.877 0 1.59-.724 1.59-1.613v-6.964l-7.45-7.552H7.228c-.877 0-1.59.723-1.59 1.612v12.904c0 .889.713 1.613 1.59 1.613z" fill="#322F31"/><path d="M10.09 4.58h-.1v.1h.1v-.1zm-3.817.222l.043.09.057-.028v-.062h-.1zm0-.867h.1v-.1h-.1v.1zm3.818 0v-.1h-.1v.1h.1zm8.273 7.931l-.071.07.17.174v-.244h-.1zm-6.55-6.64v-.1h-.24l.168.17.072-.07zm1.272 1.29l-.07.07.029.03h.041v-.1zm4.005 4.06h-.1v.04l.029.03.071-.07zM13.723 7.16v-.1h-.239l.168.17.071-.07zm2.732 2.77l-.071.07.171.174V9.93h-.1zM6.273 2.646v-.1h-.1v.1h.1zm3.818 0h.1v-.1h-.1v.1zm-3.818.645h-.1v.1h.1v-.1zm3.818 0v.1h.1v-.1h-.1zm-.636.644h.1v-.1h-.1v.1zm-2.545 0v-.1h-.1v.1h.1zm2.545.645v.1h.1v-.1h-.1zm-2.545.026h-.1v.115l.114-.016-.014-.1zm11.454 8.172h.1v-.04l-.029-.03-.071.07zm-7.45-7.552l.071-.07-.03-.03h-.041v.1zm5.859-.745H10.09v.2h6.682v-.2zM19.1 6.839c0-1.3-1.043-2.358-2.327-2.358v.2c1.171 0 2.127.967 2.127 2.158h.2zm0 12.903V6.839h-.2v12.903h.2zM16.773 22.1c1.284 0 2.327-1.06 2.327-2.358h-.2c0 1.19-.956 2.158-2.127 2.158v.2zm-9.546 0h9.546v-.2H7.227v.2zM4.9 19.742c0 1.299 1.043 2.358 2.327 2.358v-.2c-1.171 0-2.127-.967-2.127-2.158h-.2zm0-12.903v12.903h.2V6.839h-.2zm1.33-2.127A2.361 2.361 0 004.9 6.839h.2c0-.86.499-1.6 1.216-1.947l-.087-.18zm-.057-.777v.867h.2v-.867h-.2zm-.218.1h.318v-.2h-.318v.2zm-.419-.422a.42.42 0 00.419.422v-.2a.22.22 0 01-.219-.222h-.2zm0-1.29v1.29h.2v-1.29h-.2zm.419-.423a.42.42 0 00-.419.423h.2a.22.22 0 01.219-.223v-.2zm4.454 0H5.955v.2h4.454v-.2zm.418.423a.42.42 0 00-.418-.423v.2a.22.22 0 01.218.223h.2zm0 1.29v-1.29h-.2v1.29h.2zm-.418.422a.42.42 0 00.418-.422h-.2a.22.22 0 01-.218.222v.2zm-.318 0h.318v-.2h-.318v.2zm.1.546v-.646h-.2v.646h.2zm8.073 2.257v5.028h.2V6.838h-.2zm-1.491-1.512c.82 0 1.49.677 1.49 1.512h.2c0-.943-.757-1.712-1.69-1.712v.2zm-4.96 0h4.96v-.2h-4.96v.2zm1.345 1.12l-1.273-1.29-.143.14 1.273 1.29.143-.14zm2.979-.03h-3.05v.2h3.05v-.2zm1.054 1.068c0-.588-.472-1.068-1.054-1.068v.2c.47 0 .854.388.854.868h.2zm0 3.092V7.484h-.2v3.092h.2zm1.244 1.22l-1.273-1.29-.142.14 1.273 1.29.142-.14zm-4.783-4.565l2.732 2.77.142-.14-2.732-2.77-.142.14zm2.485-.17h-2.414v.2h2.414v-.2zm.418.423a.42.42 0 00-.418-.423v.2a.22.22 0 01.218.223h.2zm0 2.447V7.484h-.2V9.93h.2zM6.273 2.746h3.818v-.2H6.273v.2zm.1.545v-.645h-.2v.645h.2zm3.718-.1H6.273v.2h3.818v-.2zm-.1-.545v.645h.2v-.645h-.2zm-.536 1.189H6.91v.2h2.545v-.2zm.1.745v-.645h-.2v.645h.2zm-2.327.1h2.227v-.2H7.228v.2zm-.304.025c.102-.015.202-.025.304-.025v-.2c-.115 0-.226.011-.333.027l.029.198zm-.114-.77v.67h.2v-.67h-.2zm9.963 17.32H7.227v.2h9.546v-.2zm1.49-1.513c0 .835-.67 1.513-1.49 1.513v.2c.934 0 1.69-.77 1.69-1.713h-.2zm0-6.964v6.964h.2v-6.964h-.2zm-7.42-7.482l7.45 7.553.142-.14-7.45-7.554-.142.14zm-3.616.03h3.687v-.2H7.227v.2zm-1.49 1.512c0-.835.67-1.512 1.49-1.512v-.2c-.933 0-1.69.77-1.69 1.712h.2zm0 12.904V6.838h-.2v12.904h.2zm1.49 1.513c-.82 0-1.49-.678-1.49-1.513h-.2c0 .943.757 1.713 1.69 1.713v-.2z" fill="#322F31"/><path fill-rule="evenodd" clip-rule="evenodd" d="M10.41 5.871c.085 0 .165.034.225.095l7 7.096c.06.06.093.143.093.228v6.13c0 .711-.57 1.29-1.273 1.29H7.546a1.283 1.283 0 01-1.273-1.29V7.16c0-.711.571-1.29 1.273-1.29h2.864zm6.045 14.193c.351 0 .636-.29.636-.645v-5.996l-6.813-6.907H7.546a.641.641 0 00-.636.645v12.258a.64.64 0 00.636.645h8.909z" fill="#EF3F3E"/><path fill-rule="evenodd" clip-rule="evenodd" d="M11.413 18.759c-1.116-.134-1.958-1.133-1.958-2.324 0-.634.158-1.263.458-1.82l1.49-2.769c.111-.207.447-.207.559 0l1.49 2.77c.3.556.458 1.185.458 1.82v.08c0 .645-.273 1.26-.748 1.689a2.217 2.217 0 01-1.749.554zm.27-6.085l-1.212 2.25c-.248.462-.38.985-.38 1.51 0 .85.614 1.59 1.396 1.683.462.055.908-.085 1.251-.395.34-.306.535-.746.535-1.206v-.081c0-.526-.131-1.049-.38-1.51l-1.21-2.251z" fill="#EF3F3E"/><path d="M12.954 16.517h-.636a.641.641 0 01-.636.645v.645c.702 0 1.272-.579 1.272-1.29z" fill="#EF3F3E"/></svg>