<svg width="32" height="32" fill="none" xmlns="http://www.w3.org/2000/svg"><path fill-rule="evenodd" clip-rule="evenodd" d="M2 16C2 8.268 8.268 2 16 2s14 6.268 14 14-6.268 14-14 14S2 23.732 2 16zM16 2.966C8.801 2.966 2.966 8.8 2.966 16 2.966 23.199 8.8 29.035 16 29.035c7.199 0 13.035-5.836 13.035-13.035S23.199 2.966 16 2.966z" fill="#EF3F3E" stroke="#EF3F3E" stroke-width=".2" stroke-linecap="round" stroke-linejoin="round"/><path fill-rule="evenodd" clip-rule="evenodd" d="M6.143 16c0-5.444 4.413-9.858 9.857-9.858 5.444 0 9.858 4.414 9.858 9.858 0 5.444-4.414 9.858-9.858 9.858-5.444 0-9.857-4.414-9.857-9.858zM16 7.108a8.892 8.892 0 100 17.784 8.892 8.892 0 000-17.784z" fill="#EF3F3E" stroke="#EF3F3E" stroke-width=".2" stroke-linecap="round" stroke-linejoin="round"/><path fill-rule="evenodd" clip-rule="evenodd" d="M8.541 16a7.46 7.46 0 1114.919 0 7.46 7.46 0 01-14.92 0zm7.46-6.494a6.494 6.494 0 100 12.988 6.494 6.494 0 000-12.988z" fill="#EF3F3E" stroke="#EF3F3E" stroke-width=".2" stroke-linecap="round" stroke-linejoin="round"/><path fill-rule="evenodd" clip-rule="evenodd" d="M13.773 16a2.227 2.227 0 114.454 0 2.227 2.227 0 01-4.454 0zM16 14.739a1.261 1.261 0 100 2.522 1.261 1.261 0 000-2.522zm-1.354-3.535a1.355 1.355 0 112.71 0 1.355 1.355 0 01-2.71 0zm1.354-.39a.39.39 0 100 .779.39.39 0 000-.779z" fill="#EF3F3E" stroke="#EF3F3E" stroke-width=".2" stroke-linecap="round" stroke-linejoin="round"/><path fill-rule="evenodd" clip-rule="evenodd" d="M16 17.261c.267 0 .483.217.483.483v2.093a.483.483 0 01-.965 0v-2.093c0-.266.216-.483.482-.483z" fill="#EF3F3E" stroke="#EF3F3E" stroke-width=".2" stroke-linecap="round" stroke-linejoin="round"/><path d="M16 4.227a.436.436 0 100-.872.436.436 0 000 .872z" fill="#EF3F3E" stroke="#EF3F3E" stroke-width=".2"/><path fill-rule="evenodd" clip-rule="evenodd" d="M14.291 2.445a.483.483 0 01.569.38l.293 1.469.001.001a.474.474 0 00.097.11c.095.082.308.211.747.211h.004a1.057 1.057 0 00.125-.008c.087-.008.202-.025.318-.056.242-.066.355-.158.395-.237l.253-1.478a.483.483 0 01.952.163l-.262 1.527a.483.483 0 01-.017.07c-.19.57-.734.795-1.067.886a2.91 2.91 0 01-.678.099H16v-.483.483c-.65 0-1.092-.198-1.377-.443a1.435 1.435 0 01-.36-.467.842.842 0 01-.019-.045l-.006-.017-.003-.006V4.6l-.001-.001.457-.154-.458.153a.484.484 0 01-.015-.058l-.305-1.526a.483.483 0 01.378-.569z" fill="#EF3F3E"/><path d="M16 5.582v-.483.483zm0 0c-.65 0-1.092-.198-1.377-.443a1.435 1.435 0 01-.36-.467.842.842 0 01-.019-.045l-.006-.017-.003-.006V4.6l-.001-.001.457-.154-.458.153a.484.484 0 01-.015-.058l-.305-1.526a.483.483 0 01.947-.19l.293 1.47.001.001a.474.474 0 00.097.11c.095.082.308.211.747.211h.004a1.057 1.057 0 00.125-.008c.087-.008.202-.025.318-.056.242-.066.355-.158.395-.237l.253-1.478a.483.483 0 01.952.163l-.262 1.527a.483.483 0 01-.017.07c-.19.57-.734.795-1.067.886a2.91 2.91 0 01-.678.099H16z" stroke="#EF3F3E" stroke-width=".2" stroke-linecap="round" stroke-linejoin="round"/><path d="M5.803 10.114a.436.436 0 10-.755-.436.436.436 0 00.755.436z" fill="#EF3F3E" stroke="#EF3F3E" stroke-width=".2"/><path fill-rule="evenodd" clip-rule="evenodd" d="M5.075 7.802a.483.483 0 01.679-.068l1.199.981c.02.017.04.036.058.056.395.452.32 1.031.231 1.367a2.88 2.88 0 01-.254.635l-.007.012-.002.004v.002h-.001 0l-.4-.231.4.232c-.326.56-.718.841-1.07.967a1.45 1.45 0 01-.582.082 1.061 1.061 0 01-.048-.006l-.017-.003h-.008l-.003-.001h0c-.001 0-.002 0 .09-.475l-.092.474a.502.502 0 01-.065-.017l-1.46-.502a.483.483 0 01.313-.913l1.402.481a.44.44 0 00.146-.03c.121-.042.34-.164.559-.541l.002-.003a1.03 1.03 0 00.055-.111c.036-.08.08-.186.11-.302.062-.238.042-.385-.008-.463l-1.16-.949a.483.483 0 01-.067-.68z" fill="#EF3F3E" stroke="#EF3F3E" stroke-width=".2" stroke-linecap="round" stroke-linejoin="round"/><path d="M5.644 22.482a.436.436 0 10-.436-.755.436.436 0 00.436.755z" fill="#EF3F3E" stroke="#EF3F3E" stroke-width=".2"/><path fill-rule="evenodd" clip-rule="evenodd" d="M6.977 21.207l-.407.238.407-.237c.326.56.375 1.042.306 1.413a1.452 1.452 0 01-.223.545.919.919 0 01-.03.039l-.01.014-.005.005-.003.003v.001H7.01l-.364-.317.364.318a.484.484 0 01-.047.046L5.787 24.3a.483.483 0 11-.634-.728l1.132-.985v-.002a.487.487 0 00.048-.141c.024-.126.029-.374-.19-.75l-.002-.003-.012-.02a1.921 1.921 0 00-.265-.33c-.177-.174-.314-.23-.406-.226l-1.41.526a.483.483 0 11-.338-.904l1.46-.545a.48.48 0 01.077-.022c.586-.114 1.05.242 1.295.485a2.915 2.915 0 01.424.534l.007.012.003.004v.002h.001zm-.834.487s0 0 0 0h0z" fill="#EF3F3E" stroke="#EF3F3E" stroke-width=".2" stroke-linecap="round" stroke-linejoin="round"/><path d="M16 28.645a.436.436 0 100-.872.436.436 0 000 .872z" fill="#EF3F3E" stroke="#EF3F3E" stroke-width=".2"/><path fill-rule="evenodd" clip-rule="evenodd" d="M17.766 27.402l-.458.153.458-.153a.491.491 0 01.015.058l.306 1.527a.483.483 0 01-.947.189l-.294-1.47-.001-.001a.474.474 0 00-.096-.11c-.096-.082-.308-.21-.748-.211h-.028a1.896 1.896 0 00-.418.064c-.242.067-.356.158-.396.237l-.253 1.478a.483.483 0 01-.952-.163l.262-1.526a.483.483 0 01.018-.072c.19-.57.733-.794 1.066-.885a2.92 2.92 0 01.632-.097l.046-.002h.021v.483-.483c.65 0 1.092.198 1.378.444a1.436 1.436 0 01.36.466.926.926 0 01.018.045l.007.017.002.006.001.004v.002z" fill="#EF3F3E"/><path d="M17.766 27.402l-.458.153.458-.153zm0 0a.491.491 0 01.015.058l.306 1.527a.483.483 0 01-.947.189l-.294-1.47-.001-.001a.474.474 0 00-.096-.11c-.096-.082-.308-.21-.748-.211h-.028a1.896 1.896 0 00-.418.064c-.242.067-.356.158-.396.237l-.253 1.478a.483.483 0 01-.952-.163l.262-1.526a.483.483 0 01.018-.072c.19-.57.733-.794 1.066-.885a2.92 2.92 0 01.632-.097l.046-.002h.021m1.767.984l-.001-.002-.001-.003-.002-.007-.007-.017a.926.926 0 00-.086-.172 1.436 1.436 0 00-.292-.34c-.286-.245-.728-.443-1.377-.443m0 0v.483-.483z" stroke="#EF3F3E" stroke-width=".2" stroke-linecap="round" stroke-linejoin="round"/><path d="M25.687 24.13a.436.436 0 10-.669-.56.436.436 0 00.669.56z" fill="#EF3F3E" stroke="#EF3F3E" stroke-width=".2"/><path fill-rule="evenodd" clip-rule="evenodd" d="M25.886 21.963l-.184.447.184-.447a.478.478 0 01.053.026l1.352.764a.483.483 0 11-.474.84l-1.301-.734a.448.448 0 00-.141.003c-.123.02-.361.1-.655.447l-.002.002a1.908 1.908 0 00-.235.379c-.105.225-.111.371-.078.454l.967 1.136a.483.483 0 11-.735.626l-1.003-1.177a.48.48 0 01-.048-.067c-.303-.512-.124-1.068.022-1.38a2.925 2.925 0 01.36-.578l.008-.01.003-.004.001-.002h.001l.37.31-.37-.31v-.001c.426-.503.863-.716 1.237-.778a1.408 1.408 0 01.592.028l.047.015.017.007.007.002.003.002h.002zM24.72 23.31z" fill="#EF3F3E"/><path d="M25.886 21.963l-.184.447.184-.447zm0 0a.478.478 0 01.053.026l1.352.764a.483.483 0 11-.474.84l-1.301-.734a.448.448 0 00-.141.003c-.123.02-.361.1-.655.447m1.166-1.346h-.002l-.003-.002-.007-.002-.017-.007a1.125 1.125 0 00-.188-.047 1.408 1.408 0 00-.451.004c-.374.062-.81.275-1.236.778h-.001m.74.622l-.003.002a1.908 1.908 0 00-.235.379c-.105.225-.111.371-.078.454l.967 1.136a.483.483 0 11-.735.626l-1.003-1.177a.48.48 0 01-.048-.067c-.303-.512-.124-1.068.022-1.38a2.925 2.925 0 01.36-.578l.008-.01.003-.004.001-.002h.001m.74.62s0 0 0 0zm-.74-.62l.37.31-.37-.31z" stroke="#EF3F3E" stroke-width=".2" stroke-linecap="round" stroke-linejoin="round"/><path d="M27.614 12.227a.436.436 0 10-.298-.82.436.436 0 00.298.82z" fill="#EF3F3E" stroke="#EF3F3E" stroke-width=".2"/><path fill-rule="evenodd" clip-rule="evenodd" d="M28.164 9.776a.483.483 0 01-.163.663l-1.28.777-.002.002a.494.494 0 00-.073.132c-.046.12-.095.366.054.778l.002.004a1.844 1.844 0 00.211.392c.144.203.27.28.361.289l1.479-.274a.483.483 0 11.176.949l-1.526.283a.483.483 0 01-.073.008c-.604.019-1.003-.412-1.204-.696a2.88 2.88 0 01-.326-.604l-.005-.014-.001-.004v-.002h-.001 0l.454-.165-.454.164c-.222-.612-.183-1.097-.05-1.45a1.456 1.456 0 01.317-.499l.036-.033.013-.012.006-.004.002-.002.001-.001h0c.001 0 .002-.001.303.376l-.302-.377a.49.49 0 01.052-.036l1.33-.807a.483.483 0 01.663.163zM16 11.593c.267 0 .483.216.483.483v2.18a.483.483 0 11-.965 0v-2.18c0-.267.216-.483.482-.483zm-1.354 9.204a1.355 1.355 0 112.71 0 1.355 1.355 0 01-2.71 0zm1.354-.39a.39.39 0 100 .779.39.39 0 000-.779z" fill="#EF3F3E" stroke="#EF3F3E" stroke-width=".2" stroke-linecap="round" stroke-linejoin="round"/><path fill-rule="evenodd" clip-rule="evenodd" d="M16 21.186c.267 0 .483.216.483.483v1.09a.483.483 0 11-.965 0v-1.09c0-.267.216-.483.482-.483zm0-12.34c.267 0 .483.216.483.483v1.002a.483.483 0 01-.965 0V9.33c0-.267.216-.483.482-.483zm-4.38 4.734a1.355 1.355 0 111.916-1.916 1.355 1.355 0 01-1.916 1.917zm.683-1.233a.39.39 0 10.55.55.39.39 0 00-.55-.55zm4.555 4.554a.483.483 0 01.683 0l1.482 1.483a.483.483 0 01-.682.683l-1.483-1.483a.483.483 0 010-.683z" fill="#EF3F3E" stroke="#EF3F3E" stroke-width=".2" stroke-linecap="round" stroke-linejoin="round"/><path fill-rule="evenodd" clip-rule="evenodd" d="M12.845 12.89a.483.483 0 01.683 0l1.548 1.548a.483.483 0 01-.683.682l-1.548-1.547a.483.483 0 010-.683zm5.555 7.474a1.355 1.355 0 111.915-1.916 1.355 1.355 0 01-1.916 1.916zm.682-1.234a.39.39 0 10.55.551.39.39 0 00-.55-.55z" fill="#EF3F3E" stroke="#EF3F3E" stroke-width=".2" stroke-linecap="round" stroke-linejoin="round"/><path fill-rule="evenodd" clip-rule="evenodd" d="M19.658 19.66a.483.483 0 01.683.02l.365.388.388.387a.483.483 0 11-.683.683l-.392-.393-.01-.01-.37-.392a.483.483 0 01.02-.682zm-8.752-8.71a.483.483 0 01.683 0l.72.719a.483.483 0 11-.683.683l-.72-.72a.483.483 0 010-.683zm-1.101 5.094a1.355 1.355 0 112.71 0 1.355 1.355 0 01-2.71 0zm1.354-.39a.39.39 0 100 .779.39.39 0 000-.779zm6.059.39c0-.267.216-.483.483-.483h2.093a.483.483 0 110 .965H17.7a.483.483 0 01-.483-.482z" fill="#EF3F3E" stroke="#EF3F3E" stroke-width=".2" stroke-linecap="round" stroke-linejoin="round"/><path fill-rule="evenodd" clip-rule="evenodd" d="M11.55 16.044c0-.267.216-.483.483-.483h2.18a.483.483 0 110 .965h-2.18a.483.483 0 01-.483-.482zm7.848 0a1.355 1.355 0 112.71 0 1.355 1.355 0 01-2.71 0zm1.355-.39a.39.39 0 100 .779.39.39 0 000-.779z" fill="#EF3F3E" stroke="#EF3F3E" stroke-width=".2" stroke-linecap="round" stroke-linejoin="round"/><path fill-rule="evenodd" clip-rule="evenodd" d="M21.143 16.044c0-.267.216-.483.482-.483h1.09a.483.483 0 110 .965h-1.09a.483.483 0 01-.482-.482zm-12.34 0c0-.267.216-.483.482-.483h1.003a.483.483 0 110 .965H9.285a.483.483 0 01-.482-.482zm9.661-2.467a1.355 1.355 0 111.916-1.916 1.355 1.355 0 01-1.916 1.916zm.683-1.234a.39.39 0 10.55.55.39.39 0 00-.55-.55zm-4.004 4.558a.483.483 0 010 .683l-1.483 1.483a.483.483 0 01-.683-.683L14.46 16.9a.483.483 0 01.683 0z" fill="#EF3F3E" stroke="#EF3F3E" stroke-width=".2" stroke-linecap="round" stroke-linejoin="round"/><path fill-rule="evenodd" clip-rule="evenodd" d="M19.153 12.89a.483.483 0 010 .682l-1.548 1.548a.483.483 0 01-.682-.682l1.548-1.548a.483.483 0 01.682 0zm-7.473 7.466a1.355 1.355 0 111.917-1.916 1.355 1.355 0 01-1.916 1.916zm.683-1.234a.39.39 0 10.551.551.39.39 0 00-.55-.55z" fill="#EF3F3E" stroke="#EF3F3E" stroke-width=".2" stroke-linecap="round" stroke-linejoin="round"/><path fill-rule="evenodd" clip-rule="evenodd" d="M12.342 19.66a.483.483 0 01.02.683l-.371.392-.01.01-.392.393a.483.483 0 01-.683-.683l.388-.387.365-.388a.483.483 0 01.683-.02z" fill="#EF3F3E" stroke="#EF3F3E" stroke-width=".2" stroke-linecap="round" stroke-linejoin="round"/><path fill-rule="evenodd" clip-rule="evenodd" d="M21.094 10.95a.483.483 0 010 .682l-.72.72a.483.483 0 01-.682-.683l.37-.37.35-.35a.483.483 0 01.682 0z" fill="#EF3F3E"/><path d="M20.063 11.298l-.37.37a.483.483 0 10.682.684l.72-.72a.483.483 0 00-.683-.683l-.35.35zm0 0l.341.342" stroke="#EF3F3E" stroke-width=".2" stroke-linecap="round" stroke-linejoin="round"/></svg>