<svg width="32" height="32" fill="none" xmlns="http://www.w3.org/2000/svg"><path fill-rule="evenodd" clip-rule="evenodd" d="M16.767 2.002c.616-.038 1.17.399 1.316 1.04 1.07 4.713 2.888 7.365 4.558 9.718l.185.26C24.429 15.274 26 17.485 26 20.813 26 25.646 22.736 30 18.532 30M16.767 2.002c-.244.015-.48.104-.678.257l-.005.003c-3.906 3.093-6.432 6.15-7.98 9.234C6.554 14.584 6 17.676 6 20.813c0 2.181.812 4.407 2.196 6.147C9.583 28.704 11.622 30 14.028 30c.53.006 1.008-.337 1.203-.864.195-.527.066-4.05-.325-4.432-.638-.639-1.285-1.953-1.285-3.504 0-.888.291-1.944 1.046-3.104.095.28.208.545.34.794.498.947 1.16 1.644 1.704 2.216l.012.013.236.25c.605.646.945 1.11 1.048 1.521.095.378.101.943-.566 2.11-.24.422-.25 3.872-.024 4.303.227.43.653.697 1.115.697M17.24 3.262a.414.414 0 00-.423-.333h-.002a.393.393 0 00-.216.08C12.769 6.044 10.34 9 8.869 11.936c-1.47 2.93-2 5.865-2 8.878 0 1.942.726 3.959 1.988 5.546 1.26 1.583 3.073 2.713 5.174 2.713h.006a.41.41 0 00.387-.277c.063-.17.02-3.285-.105-3.407l-.005-.004c-.817-.817-1.562-2.38-1.562-4.184 0-1.34.531-2.857 1.774-4.426l.59-.744.168.958c.096.545.26 1.031.479 1.447.434.825 1.017 1.441 1.57 2.023l.24.254c.592.633 1.102 1.256 1.273 1.938.18.716.071 1.548-.664 2.834-.077.135-.08 3.226-.008 3.364.073.138.21.224.358.224 3.597 0 6.6-3.79 6.6-8.259 0-2.995-1.396-4.978-3.026-7.272l-.157-.22c-1.692-2.385-3.598-5.16-4.709-10.06z" fill="#EF3F3E"/><path d="M16.96 21.369a39.637 39.637 0 00-.237-.25l-.012-.013c-.544-.572-1.206-1.27-1.705-2.216a5.455 5.455 0 01-.339-.794c-.755 1.16-1.046 2.216-1.046 3.104 0 1.55.647 2.865 1.285 3.504.39.382.52 3.905.325 4.432-.194.527-.673.87-1.203.864-2.406-.001-4.445-1.296-5.832-3.04C6.812 25.22 6 22.994 6 20.813c0-3.138.555-6.228 2.104-9.317 1.548-3.085 4.074-6.14 7.98-9.234l.005-.003c.198-.153.434-.242.678-.257.616-.038 1.17.399 1.316 1.04h0c1.07 4.713 2.888 7.365 4.558 9.718l.185.26C24.429 15.274 26 17.485 26 20.813 26 25.646 22.736 30 18.532 30a1.27 1.27 0 01-1.115-.697c-.226-.431-.217-3.881.024-4.303.667-1.167.661-1.732.566-2.11m-1.047-1.52l.307-.328m-.307.328c.605.646.945 1.11 1.048 1.521m0 0l.42-.12m-2.664-4.335a4.939 4.939 0 01-.48-1.447l-.168-.958-.59.744c-1.242 1.569-1.773 3.086-1.773 4.426 0 1.804.745 3.367 1.562 4.184l.005.004c.126.122.168 3.237.105 3.407a.41.41 0 01-.387.277h-.006c-2.101 0-3.915-1.13-5.174-2.713-1.262-1.587-1.989-3.604-1.989-5.546 0-3.013.53-5.947 2.001-8.878C10.342 9 12.77 6.043 16.6 3.01a.393.393 0 01.216-.08l.002-.001a.414.414 0 01.423.333c1.111 4.9 3.017 7.674 4.71 10.059l.156.22c1.63 2.294 3.026 4.277 3.026 7.272 0 4.468-3.003 8.259-6.6 8.259a.406.406 0 01-.358-.224c-.072-.138-.07-3.229.008-3.364m-2.42-7.05l-.378.229m.379-.228c.434.825 1.017 1.441 1.57 2.023h0l.24.254c.592.633 1.102 1.256 1.273 1.938.18.716.071 1.548-.664 2.834m0 0l-.37-.242" stroke="#EF3F3E" stroke-width=".5"/></svg>