<svg width="32" height="32" fill="none" xmlns="http://www.w3.org/2000/svg"><path clip-rule="evenodd" d="M22.516 8.323c0-3.5-2.822-6.323-6.322-6.323A6.312 6.312 0 009.87 8.323a6.32 6.32 0 004.855 6.141l1.468 2.213 1.467-2.213a6.32 6.32 0 004.855-6.141zM8.29 20.29l2.484 1.13.678 1.128-1.355.452-2.484-.452s-.723 0-.452-1.354c.226-1.13.542-1.107 1.13-.904z" stroke="#EF3F3E" stroke-linejoin="round"/><path d="M11.226 22.323h3.838" stroke="#EF3F3E" stroke-linejoin="round"/><path fill-rule="evenodd" clip-rule="evenodd" d="M6.484 17.13s0-.453-.452-.453c-.451 0-2.032 0-2.032.904 0 .903 2.484.903 2.484.903v-1.355z" fill="#EF3F3E" stroke="#EF3F3E" stroke-linejoin="round"/><path d="M5.58 27.516v1.807s0 .677.678.677H8.29s.677 0 .677-.677v-1.355" stroke="#EF3F3E" stroke-linejoin="round"/><path clip-rule="evenodd" d="M24.097 20.29l-2.484 1.13-.677 1.128L22.29 23l2.484-.452s.723 0 .452-1.354c-.226-1.13-.542-1.107-1.13-.904z" stroke="#EF3F3E" stroke-linejoin="round"/><path d="M21.16 22.323h-6.236M25 18.484H7.387" stroke="#EF3F3E" stroke-linejoin="round"/><path fill-rule="evenodd" clip-rule="evenodd" d="M25.903 17.13s0-.453.452-.453c.451 0 2.032 0 2.032.904 0 .903-2.484.903-2.484.903v-1.355z" fill="#EF3F3E" stroke="#EF3F3E" stroke-linejoin="round"/><path d="M26.806 27.516v1.807s0 .677-.677.677h-2.033s-.677 0-.677-.677v-1.355" stroke="#EF3F3E" stroke-linejoin="round"/><path d="M12.174 13.2c-.858.113-1.739.339-2.055.745-.79 1.062-2.732 4.539-2.732 4.539s-1.355 0-1.355 1.129c0 0-.903.226-.903.903v5.645s-.023 1.807 1.58 1.807h18.968c1.604 0 1.581-1.807 1.581-1.807v-5.645c0-.677-.903-.903-.903-.903 0-1.13-1.355-1.13-1.355-1.13s-1.897-3.454-2.687-4.493c-.316-.429-1.197-.654-2.078-.767" stroke="#EF3F3E" stroke-linejoin="round"/><path clip-rule="evenodd" d="M23.645 26.387s.904 0 .904-.903-.904-.903-.904-.903H8.742s-.903 0-.903.903.903.903.903.903h14.903zM12.13 10.355V6.29h8.129v4.065h-8.13z" stroke="#EF3F3E" stroke-linejoin="round"/><path d="M13.212 10.503V14m1.418-3.497v4.03m2.833-4.03v4.122m1.417-4.122V14m-2.834-3.497V14" stroke="#EF3F3E"/></svg>