<svg width="32" height="32" fill="none" xmlns="http://www.w3.org/2000/svg"><path fill-rule="evenodd" clip-rule="evenodd" d="M22.48 2a7.52 7.52 0 00-6.744 4.193L4.852 17.128a.49.49 0 00-.014.015 5.204 5.204 0 003.083 9.792l17.056 2.87c.379.126.784.195 1.205.195h.004A3.816 3.816 0 0030 26.184V9.512A7.52 7.52 0 0022.48 2zm-5.755 4.79a6.37 6.37 0 1111.51 5.458 6.37 6.37 0 01-11.51-5.457zm5.756-2.938a5.667 5.667 0 100 11.335 5.667 5.667 0 000-11.335zm-4.517 5.667a4.517 4.517 0 119.034 0 4.517 4.517 0 01-9.034 0zm4.517-3.895a.655.655 0 100 1.31.655.655 0 000-1.31zm-2.315.926a.655.655 0 100 1.31.655.655 0 000-1.31zm4.63 0a.655.655 0 100 1.31.655.655 0 000-1.31zM22.48 7.555a1.964 1.964 0 100 3.928 1.964 1.964 0 000-3.928zm-15.276 9.02c-.061 0-.122.001-.182.003l8.002-8.04a7.52 7.52 0 0013.824 4.98v9.935a3.816 3.816 0 00-5.836 4.854L10.065 26.13a5.204 5.204 0 00-2.86-9.554zM21.668 9.52a.813.813 0 111.626 0 .813.813 0 01-1.626 0zm-2.427-.655a.655.655 0 100 1.31.655.655 0 000-1.31zm6.48 0a.655.655 0 100 1.31.655.655 0 000-1.31zm-5.555 2.315a.655.655 0 100 1.31.655.655 0 000-1.31zm4.63 0a.655.655 0 100 1.31.655.655 0 000-1.31zm-2.315.926a.655.655 0 100 1.31.655.655 0 000-1.31zM3.15 21.78a4.054 4.054 0 118.107 0 4.054 4.054 0 01-8.107 0zm4.054-2.19a2.427 2.427 0 100 4.855 2.427 2.427 0 000-4.854zm-1.277 2.428a1.276 1.276 0 112.553 0 1.276 1.276 0 01-2.553 0zm17.591 4.166a2.665 2.665 0 015.33-.011v.016a2.665 2.665 0 01-2.619 2.66l-.965-.163a2.666 2.666 0 01-1.746-2.502zm2.666-.655a.655.655 0 100 1.31.655.655 0 000-1.31z" fill="#EF3F3E"/></svg>