<svg width="32" height="34" fill="none" xmlns="http://www.w3.org/2000/svg"><path fill-rule="evenodd" clip-rule="evenodd" d="M13.592 1h.537c9.222 0 16.726 7.503 16.726 16.726v.537h-3.611c-.283 6.99-6.056 12.592-13.115 12.592C6.889 30.855 1 24.965 1 17.726 1 10.667 6.601 4.894 13.592 4.612V1zm10.96 16.19c-.27-5.329-4.558-9.616-9.887-9.887v.908c4.83.268 8.71 4.15 8.98 8.979h.907zM14.13 29.782c-6.648 0-12.056-5.408-12.056-12.056 0-6.468 5.12-11.76 11.52-12.042v3.584h.536c4.664 0 8.458 3.794 8.458 8.458v.536h3.584c-.282 6.4-5.574 11.52-12.042 11.52zm.536-23.552c5.92.273 10.687 5.04 10.96 10.96h4.148c-.277-8.206-6.902-14.83-15.108-15.108V6.23zm-6.958 5.477A.994.994 0 017 12a1.001 1.001 0 010-2c.267 0 .518.104.707.293A.99.99 0 018 11a.993.993 0 01-.293.707zm6.421-.853a6.88 6.88 0 00-6.871 6.872 6.88 6.88 0 006.871 6.872A6.88 6.88 0 0021 17.726a6.88 6.88 0 00-6.872-6.871zm0 12.79a5.925 5.925 0 01-5.917-5.918 5.925 5.925 0 015.918-5.918 5.925 5.925 0 015.918 5.918 5.925 5.925 0 01-5.918 5.919zm6.377.462a.87.87 0 00-.256.62.87.87 0 00.256.618.87.87 0 00.62.257.87.87 0 00.618-.257.87.87 0 00.257-.619.87.87 0 00-.257-.619.896.896 0 00-1.238 0zM6.518 25.339a.87.87 0 010-1.227.888.888 0 011.228 0 .862.862 0 01.254.613c0 .232-.09.45-.254.614a.861.861 0 01-.614.254.863.863 0 01-.614-.254zm21.022 1.086l.432-.586.431.586c.347.47 2.072 2.87 2.072 4.072A2.506 2.506 0 0127.972 33a2.506 2.506 0 01-2.503-2.503c0-1.201 1.725-3.603 2.071-4.072z" fill="#EF3F3E"/><path d="M13.592 1V.85h-.15V1h.15zm17.263 17.262v.15h.15v-.15h-.15zm-3.611 0v-.15h-.145l-.005.144.15.006zM13.592 4.612l.006.15.144-.006v-.144h-.15zm1.073 2.691l.008-.15-.158-.008v.158h.15zm9.887 9.887v.15h.158l-.008-.158-.15.008zm-9.887-8.98h-.15v.142l.142.008.008-.15zm8.98 8.98l-.15.008.008.142h.142v-.15zM13.593 5.684h.15v-.157l-.157.007.007.15zm0 3.584h-.15v.15h.15v-.15zm8.994 8.994h-.15v.15h.15v-.15zm3.584 0l.15.007.007-.157h-.157v.15zm-.546-1.072l-.15.007.007.143h.143v-.15zM14.665 6.23h-.15v.144l.143.006.007-.15zm15.108 10.96v.15h.156l-.006-.155-.15.005zM14.665 2.082l.005-.15-.155-.006v.156h.15zm-6.958 9.625l.106.106-.106-.106zm-1.415 0l-.106.106.106-.106zm0-1.414l-.106-.106.106.106zm1.415 0l.106-.106-.106.106zm14.036 13.813L21.85 24l-.106.106zm-15.225.005l-.106-.106.106.107zm0 1.228l-.106.106.106-.106zm1.228-1.227l-.107.105.107-.105zm0 1.227l-.106-.106.106.106zm-.614.254v.15-.15zm20.84.246l.121-.089-.12-.164-.122.164.121.09zm-.432.586l.121.089-.12-.09zm.863 0l-.12.089.12-.09zM14.13.85h-.537v.3h.537v-.3zm16.876 16.876C31.005 8.421 23.435.85 14.129.85v.3c9.14 0 16.576 7.436 16.576 16.576h.3zm0 .537v-.537h-.3v.537h.3zm-3.761.15h3.61v-.3h-3.61v.3zM14.129 31.005c7.14 0 12.979-5.665 13.264-12.736l-.3-.013c-.279 6.912-5.986 12.449-12.964 12.449v.3zM.85 17.726c0 7.322 5.957 13.279 13.279 13.279v-.3c-7.157 0-12.979-5.822-12.979-12.979h-.3zM13.586 4.462C6.516 4.747.85 10.586.85 17.726h.3c0-6.978 5.537-12.685 12.448-12.965l-.012-.3zM13.442 1v3.612h.3V1h-.3zm1.216 6.453c5.252.267 9.478 4.492 9.745 9.745l.3-.016c-.275-5.405-4.624-9.754-10.03-10.029l-.015.3zm.157.758v-.908h-.3v.908h.3zm8.98 8.97c-.274-4.905-4.216-8.847-9.121-9.12l-.017.3c4.753.264 8.573 4.084 8.838 8.837l.3-.017zm.757-.141h-.907v.3h.907v-.3zm-22.63.686c0 6.73 5.476 12.206 12.207 12.206v-.3c-6.565 0-11.906-5.34-11.906-11.906h-.3zM13.587 5.534c-6.48.285-11.663 5.644-11.663 12.192h.3c0-6.387 5.056-11.614 11.376-11.892l-.013-.3zm.157 3.734V5.684h-.3v3.584h.3zm.386-.15h-.536v.3h.536v-.3zm8.608 8.608c0-4.747-3.861-8.608-8.608-8.608v.3c4.58 0 8.308 3.727 8.308 8.308h.3zm0 .536v-.536h-.3v.536h.3zm3.434-.15h-3.584v.3h3.584v-.3zM14.13 29.932c6.548 0 11.906-5.183 12.192-11.663l-.3-.013c-.278 6.32-5.505 11.376-11.892 11.376v.3zm11.646-12.749c-.277-5.998-5.105-10.826-11.103-11.102l-.014.3c5.843.269 10.548 4.973 10.817 10.816l.3-.014zm3.998-.143h-4.148v.3h4.148v-.3zM14.66 2.23c8.127.276 14.689 6.837 14.964 14.964l.3-.01C29.642 8.9 22.953 2.212 14.67 1.932l-.01.3zm.155 4V2.08h-.3v4.15h.3zM7 12.15c.307 0 .596-.12.813-.337l-.212-.212A.844.844 0 017 11.85v.3zm-.814-.337c.218.217.507.337.814.337v-.3a.845.845 0 01-.602-.25l-.212.213zm0-1.626a1.151 1.151 0 000 1.626L6.4 11.6a.852.852 0 010-1.202l-.213-.212zM7 9.85c-.307 0-.596.12-.814.337l.212.212A.844.844 0 017 10.15v-.3zm.813.336A1.144 1.144 0 007 9.85v.3c.227 0 .44.088.601.249l.212-.213zM8.15 11c0-.307-.12-.596-.337-.813l-.212.212c.161.16.25.374.25.6h.3zm-.337.813c.217-.217.337-.506.337-.813h-.3c0 .227-.088.44-.249.601l.212.212zm-.406 5.913a6.73 6.73 0 016.721-6.721v-.3a7.03 7.03 0 00-7.021 7.021h.3zm6.721 6.722a6.73 6.73 0 01-6.721-6.722h-.3a7.03 7.03 0 007.021 7.022v-.3zm6.722-6.722a6.73 6.73 0 01-6.722 6.722v.3a7.03 7.03 0 007.022-7.022h-.3zm-6.722-6.721a6.73 6.73 0 016.722 6.721h.3a7.03 7.03 0 00-7.022-7.021v.3zm-6.067 6.721a6.075 6.075 0 006.068 6.069v-.3a5.775 5.775 0 01-5.768-5.769h-.3zm6.068-6.068a6.075 6.075 0 00-6.068 6.068h.3a5.775 5.775 0 015.768-5.768v-.3zm6.068 6.068a6.075 6.075 0 00-6.068-6.068v.3a5.775 5.775 0 015.768 5.768h.3zm-6.068 6.069a6.075 6.075 0 006.068-6.069h-.3a5.775 5.775 0 01-5.768 5.768v.3zm6.27.93a.72.72 0 01.212-.513L20.4 24a1.02 1.02 0 00-.3.725h.3zm.212.513a.72.72 0 01-.212-.513h-.3c0 .274.106.532.3.725l.212-.212zm.513.213a.72.72 0 01-.513-.213l-.212.212c.194.194.452.3.725.3v-.3zm.513-.213a.72.72 0 01-.513.213v.3c.274 0 .532-.107.725-.3l-.212-.213zm.213-.513a.72.72 0 01-.213.513l.212.212c.194-.193.301-.451.301-.725h-.3zm-.213-.513a.72.72 0 01.213.513h.3a1.02 1.02 0 00-.3-.725l-.213.212zm-1.026 0a.746.746 0 011.026 0L21.85 24c-.39-.39-1.06-.39-1.45 0l.212.212zm-14.199-.206a1.02 1.02 0 000 1.439l.213-.212a.72.72 0 010-1.015l-.213-.212zm1.44 0a1.038 1.038 0 00-1.44 0l.212.212a.738.738 0 011.015 0l.213-.212zm.298.72a1.01 1.01 0 00-.298-.72l-.212.212c.135.135.21.315.21.507h.3zm-.298.719c.192-.192.298-.448.298-.72h-.3a.712.712 0 01-.21.508l.212.212zm-.72.298c.272 0 .528-.106.72-.298l-.213-.212a.711.711 0 01-.507.21v.3zm-.72-.298c.193.192.449.298.72.298v-.3a.713.713 0 01-.508-.21l-.212.212zm21.44.305l-.433.586.242.178.432-.586-.242-.178zm.672.586l-.431-.586-.242.178.432.586.241-.178zm2.1 4.161c0-.33-.117-.728-.286-1.135-.17-.41-.4-.843-.64-1.251-.478-.816-1-1.539-1.174-1.775l-.241.178c.171.233.686.946 1.156 1.748.236.402.459.823.622 1.216.165.396.264.75.264 1.02h.3zm-2.652 2.653a2.656 2.656 0 002.653-2.653h-.3a2.356 2.356 0 01-2.353 2.353v.3zm-2.653-2.653a2.656 2.656 0 002.653 2.653v-.3a2.356 2.356 0 01-2.353-2.353h-.3zm2.1-4.161c-.174.236-.695.959-1.174 1.774-.239.408-.469.842-.64 1.252-.169.407-.286.805-.286 1.135h.3c0-.27.099-.623.263-1.02.164-.392.387-.813.622-1.215.47-.803.985-1.515 1.157-1.748l-.242-.178z" fill="#EF3F3E"/></svg>