<svg width="32" height="32" fill="none" xmlns="http://www.w3.org/2000/svg"><path d="M7.554 21.674l2.361-1.363-.86 3.498c-.073.294.104.6.395.685a.524.524 0 00.657-.38l1.122-4.562 3.993-2.305.093 4.676-3.222 3.307a.562.562 0 00.016.782c.216.22.557.225.767.012l2.47-2.535.056 2.813a.847.847 0 00.82.832.77.77 0 00.397-.102.79.79 0 00.39-.705l-.056-2.813 2.573 2.614a.54.54 0 00.655.098.516.516 0 00.111-.087.562.562 0 00-.015-.782l-3.356-3.408-.09-4.508 3.86 2.332 1.273 4.61a.561.561 0 00.67.404.52.52 0 00.132-.053.542.542 0 00.241-.616l-.977-3.536 2.409 1.455a.79.79 0 00.805.015.772.772 0 00.287-.293.848.848 0 00-.31-1.126l-2.409-1.455 3.43-.871a.535.535 0 00.374-.67.561.561 0 00-.67-.405l-4.474 1.137-4.004-2.42 3.729-2.152 4.515 1.31a.524.524 0 00.656-.38.576.576 0 00-.395-.684l-3.461-1.005 2.626-1.516c.38-.22.502-.718.274-1.114-.229-.396-.722-.54-1.103-.32l-2.626 1.516.862-3.5a.576.576 0 00-.396-.685.521.521 0 00-.657.38l-1.123 4.563-3.597 2.077-.086-4.363 3.22-3.306a.562.562 0 00-.015-.782.535.535 0 00-.767-.012l-2.47 2.535-.062-3.127a.847.847 0 00-.82-.833.778.778 0 00-.787.808l.063 3.127-2.574-2.613a.535.535 0 00-.767-.012.562.562 0 00.016.782l3.356 3.408.09 4.509-3.86-2.332-1.273-4.61a.562.562 0 00-.67-.406.534.534 0 00-.373.67l.976 3.536-2.678-1.617a.778.778 0 00-1.092.277.848.848 0 00.31 1.126l2.678 1.618-3.43.872a.534.534 0 00-.373.67.562.562 0 00.67.405l4.474-1.137 3.734 2.256-3.861 2.23-4.513-1.31a.521.521 0 00-.658.379c-.072.293.105.6.396.684l3.461 1.005-2.361 1.364c-.38.22-.503.718-.274 1.114.228.396.721.54 1.102.32z" fill="#EF3F3E"/><circle cx="16" cy="16" r="15.3" stroke="#EF3F3E" stroke-width="1.4"/></svg>