<svg width="34" height="34" fill="none" xmlns="http://www.w3.org/2000/svg"><path fill-rule="evenodd" clip-rule="evenodd" d="M32.698 11.384l-.57.565.76.755a.32.32 0 010 .456l-.624.62a.326.326 0 01-.46 0l-.376-.374-.269.266a.321.321 0 01-.05.388l-3.833 3.801 4.642 5.966c.08.104.764 1.027.414 1.728-.207.414-.696.623-1.454.623h-7.224c-.3.845-.653 1.541-1.051 2.074a.326.326 0 01-.261.13H11.658a.326.326 0 01-.261-.13c-.398-.532-.751-1.23-1.05-2.074H3.121c-.758 0-1.247-.21-1.454-.623-.35-.7.334-1.623.413-1.727l4.643-5.967-3.832-3.8a.322.322 0 01-.051-.389l-.269-.266-.375.373a.325.325 0 01-.46 0l-.625-.62a.321.321 0 010-.456l.76-.753-.57-.565a1.02 1.02 0 010-1.449l1.11-1.101L2.3 8.72a.793.793 0 01-.236-.566.79.79 0 01.236-.566l1.343-1.332a.813.813 0 011.142 0l.114.113 1.11-1.101a1.04 1.04 0 011.462 0l.57.565.759-.753a.327.327 0 01.46 0l.624.619a.322.322 0 010 .456l-.375.373.268.266a.326.326 0 01.391.05l1.378 1.366c.226-.685.8-1.078 1.626-1.078h7.657c.825 0 1.4.393 1.626 1.078l1.378-1.366a.327.327 0 01.39-.05l.27-.266-.376-.373a.321.321 0 010-.456l.625-.62a.327.327 0 01.46 0l.758.753.57-.565a1.04 1.04 0 011.461 0l1.11 1.101.115-.113a.813.813 0 011.142 0l1.344 1.333a.797.797 0 010 1.131l-.115.114 1.111 1.1c.195.194.302.451.302.725 0 .275-.107.532-.302.725zm-2.8-4.672a.16.16 0 00-.222 0l-.115.113 1.566 1.552.115-.113c.06-.06.06-.16 0-.22l-1.344-1.332zm-2.909-.988a.385.385 0 01.542 0l4.706 4.667a.376.376 0 01.111.269.376.376 0 01-.11.268l-.57.565-5.248-5.204.57-.565zM2.76 8.044c-.06.06-.06.16 0 .22l.114.114L4.44 6.825l-.114-.113a.16.16 0 00-.222 0L2.759 8.044zm-.996 2.884a.378.378 0 010-.537L6.47 5.724a.386.386 0 01.541 0l.57.564-5.248 5.204-.57-.564zm7.284-3.944l.26.257-6.016 5.965-.26-.258 6.016-5.964zm2.542 2.182L9.938 7.528l-6.356 6.303 3.805 3.773 1.773 1.722a43.386 43.386 0 01-.066-1.518v-.004l.002-.034.001-.005v-.008l.002-.016.007-.026.003-.008.001-.005.002-.006a.119.119 0 01.004-.013c-1.146-3.267 1.203-6.886 2.473-8.517zM2.252 25.268c-.136-.272.175-.825.346-1.049l4.593-5.903 2.039 1.98c.138 1.64.403 3.562.906 5.236H3.122c-.476 0-.785-.094-.87-.264zM17 27.736h5.174c.354-.51.669-1.175.939-1.985.081-.243.159-.5.232-.769l-3.905 1.67a4.163 4.163 0 01-2.44.786c-2.296 0-4.164-1.852-4.164-4.129 0-1.137.467-2.169 1.221-2.916v-5.347c0-.07.023-.133.06-.186A2.882 2.882 0 0117 12.181c.874 0 1.686.385 2.238 1.055l5.114 3.974c.877-3.062-1.52-6.494-2.629-7.87a.078.078 0 01-.004-.006l-.006-.009a.172.172 0 01-.012-.019l-.002-.002a.311.311 0 01-.018-.035l-.008-.02a.363.363 0 01-.012-.04l-.003-.015v-.005a.225.225 0 01-.005-.055v-.007a.257.257 0 01.005-.04l.002-.013.002-.008a.36.36 0 01.012-.04l.008-.02a.34.34 0 01.058-.086l.003-.004.005-.005.156-.155c-.079-.98-.823-.98-1.074-.98h-7.658c-.252 0-.996 0-1.075.98l.157.155.004.006a.346.346 0 01.08.144.21.21 0 01.007.03l.002.03v.001l.001.031a.301.301 0 01-.018.09.343.343 0 01-.044.087l-.002.002-.002.003a.05.05 0 01-.004.007c-1.16 1.437-3.724 5.12-2.492 8.279a.088.088 0 01.003.01l.003.01v.003a.21.21 0 01.013.06v.006a.292.292 0 010 .054v.014l-.002.007c0 .006 0 .012-.002.018l-.007.023-.002.006-.01.031a.196.196 0 01-.01.018l-.005.01-.005.009-.01.017-.002.003a.027.027 0 01-.002.003c.045 1.56.247 5.164 1.14 7.83.27.808.585 1.474.938 1.983H17zm9.171-8.292a2.053 2.053 0 00-.982.644l-5.422-4.213a2.842 2.842 0 00.074-1.349l6.33 4.918zm-5.074 4.592a4.075 4.075 0 01-.557 1.445l5.325-2.277a2.043 2.043 0 01-.886-.827l-.656.28h-.001l-3.225 1.379zm-6.39-7.245c.288.373.67.677 1.116.875v1.686c-.4.117-.776.292-1.117.516V16.79zm9.9 5.043l.146-.063a1.979 1.979 0 01.102-1.123l-.11-.086c-.04.436-.086.86-.139 1.272zm-.695.297l-2.748 1.175c-.003-2.274-1.87-4.122-4.163-4.122-.178 0-.353.012-.526.034v-1.352c.172.031.348.048.526.048a2.879 2.879 0 002.5-1.427l4.633 3.6a36.494 36.494 0 01-.222 2.044zm-4.672-7.083a2.233 2.233 0 00-2.24-2.22 2.232 2.232 0 00-2.238 2.22A2.226 2.226 0 0017 17.268a2.23 2.23 0 002.24-2.22zM17 19.828c1.938 0 3.514 1.563 3.514 3.484 0 1.92-1.576 3.483-3.514 3.483-1.937 0-3.513-1.563-3.513-3.483 0-1.921 1.576-3.484 3.513-3.484zm10.661 2.608a1.369 1.369 0 00.34-1.679 1.39 1.39 0 00-1.035-.74l-.006-.002a1.398 1.398 0 00-1.417.694 1.371 1.371 0 00-.096 1.14 1.397 1.397 0 001.466.907l.748-.32zm4.087 2.832c-.085.17-.394.264-.87.264h-7.014c.083-.278.162-.569.235-.87l2.992-1.28a2.022 2.022 0 00.936-.41l.004-.002.006-.004a2.008 2.008 0 00.662-2.222l2.702 3.473c.172.226.483.779.347 1.051zm-4.581-5.87c.254.051.495.15.708.287l-1.063-1.366-.454.45.809.63zm-1.326-1.03l-.943-.732c1.108-3.254-1.223-6.847-2.488-8.47l1.652-1.638 6.356 6.303-4.577 4.538zM24.692 7.242l6.016 5.965.259-.258-6.015-5.964-.26.257z" fill="#EF3F3E"/><path d="M32.128 11.949l-.07-.071-.072.07.072.072.07-.071zm.57-.565l.07.071-.07-.071zm.19 1.32l-.07.071.07-.07zm0 .456l.07.07-.07-.07zm-.624.62l-.07-.072.07.071zm-.46 0l.07-.072-.07.071zm-.376-.374l.07-.07-.07-.07-.07.07.07.07zm-.269.266l-.07-.07-.055.054.039.066.086-.05zm-.05.389l.07.07-.07-.07zm-3.833 3.8l-.07-.07-.064.062.055.07.079-.062zm4.642 5.966l.08-.06-.001-.001-.08.061zm.414 1.728l-.09-.044.09.044zm-8.678.623v-.1h-.07l-.024.067.094.033zm-1.051 2.074l.08.06-.08-.06zm-11.206 0l-.08.06.08-.06zm-1.05-2.074l.093-.033-.023-.067h-.07v.1zm-8.679-.623l.09-.044-.09.044zm.413-1.727l-.079-.061.08.061zm4.643-5.967l.079.062.054-.07-.063-.063-.07.071zm-3.832-3.8l.07-.071-.07.07zm-.051-.389l.086.05.04-.066-.056-.055-.07.071zm-.269-.266l.07-.07-.07-.07-.07.07.07.07zm-.375.373l-.07-.071.07.07zm-.46 0l.07-.071-.07.07zm-.625-.62l.07-.07-.07.07zm0-.456l.07.071-.07-.07zm.76-.753l.07.07.071-.07-.071-.071-.07.07zm-.57-.565l-.07.071.07-.07zm0-1.449l-.07-.071.07.071zm1.11-1.101l.071.07.072-.07-.072-.071-.07.07zM2.3 8.72l.07-.07-.07.07zm0-1.132l.07.071-.07-.07zm1.343-1.332l-.07-.071.07.07zm1.142 0l.07-.071-.07.07zm.114.113l-.07.071.07.07.07-.07-.07-.07zm1.11-1.101l-.07-.071.07.07zm1.462 0l-.07.07.07-.07zm.57.565l-.07.07.07.07.07-.07-.07-.07zM8.8 5.08l-.07-.071.07.07zm.46 0l-.07.07.07-.07zm.624.619l.071-.07v-.001l-.07.071zm0 .456l-.07-.071.07.071zm-.375.373l-.07-.071-.072.07.071.072.07-.071zm.268.266l-.07.07.054.054.066-.037-.05-.087zm.391.05l.07-.07-.07.07zm1.378 1.366l-.07.071.114.114.05-.153-.094-.032zm10.91 0l-.095.032.05.153.115-.114-.07-.07zm1.378-1.366l-.07-.07.07.07zm.39-.05l-.049.087.067.037.053-.053-.07-.071zm.27-.266l.07.07.072-.07-.072-.071-.07.07zm-.376-.373l.07-.07-.07.07zm0-.456l-.07-.071.07.071zm.625-.62l-.07-.07.07.07zm.46 0l-.071.072.07-.071zm.758.753l-.07.071.07.07.07-.07-.07-.07zm.57-.565l-.07-.07.07.07zm1.461 0l.07-.07-.07.07zm1.11 1.101l-.07.071.07.07.071-.07-.07-.07zm.115-.113l-.07-.071.07.071zm1.142 0l-.07.071.07-.071zm1.344 1.333l.07-.071-.07.07zm0 1.131l.07.071-.07-.07zm-.115.114l-.07-.071-.072.07.072.072.07-.071zm1.111 1.1l.07-.07-.07.07zm-3.022-3.222l.07.07-.07-.07zm.222 0l-.071.07.07-.07zm-.337.113l-.07-.071-.072.07.072.072.07-.071zm1.566 1.552l-.07.071.07.07.07-.07-.07-.07zm.115-.113l-.07-.071.07.07zm0-.22l.07-.071-.07.071zm-3.711-2.32l-.07.071.07-.07zm-.542 0l-.07-.07.07.07zm5.248 4.667l.07-.07-.07.07zm0 .537l-.07-.07.07.07zm-.57.565l-.07.071.07.07.071-.07-.07-.071zM26.42 6.289l-.07-.07-.072.07.071.071.07-.07zM2.759 8.264l.07-.07-.07.07zm0-.22l-.07-.07.07.07zm.114.334l-.07.07.07.07.07-.07-.07-.07zM4.44 6.825l.07.071.072-.07-.071-.072-.07.071zm-.114-.113l-.07.07.07-.07zm-.222 0l.07.07-.07-.07zm-2.34 3.679l.07.07-.07-.07zm0 .537l-.07.07.07-.07zM6.47 5.724l.07.07-.07-.07zm.541 0l.07-.071-.07.07zm.57.564l.07.071.072-.07-.072-.072-.07.071zm-5.248 5.204l-.07.071.07.07.07-.07-.07-.07zm6.974-4.25l.07.07.072-.07-.072-.072-.07.071zm-.26-.258l.07-.071-.07-.07-.07.07.07.07zm-5.756 6.222l-.07.07.07.07.07-.07-.07-.07zm-.26-.258l-.07-.07-.071.07.071.072.07-.072zm6.907-5.42l.07-.07-.07-.07-.07.07.07.07zm1.651 1.638l.079.062.054-.07-.063-.063-.07.071zm-8.007 4.665l-.07-.071-.072.07.072.072.07-.071zm3.805 3.773l-.07.071.07-.071zm1.773 1.722l-.07.071.185.18-.015-.257-.1.006zm-.066-1.518h-.1v.003l.1-.003zm0-.004h.1V17.8l-.1.003zm.002-.034l-.099-.012.1.012zm0 0l.1.013-.1-.013zm.001-.005l.1.012v-.005l-.1-.007zm0-.008l.1.007v-.001l-.1-.006zm.002-.016l.099.019v-.003l-.099-.016zm.007-.026l.095.03-.095-.03zm.003-.008l.095.03v-.001l-.095-.029zm.001-.005l.096.028.001-.003-.097-.025zm.002-.006l.096.026-.096-.026zm.004-.013l.093.035.013-.034-.012-.035-.094.034zm-6.518 6.536l-.08-.061.08.061zm-.346 1.05l-.09.044.09-.045zm4.939-6.953l.07-.072-.08-.077-.07.088.08.061zm2.039 1.98l.1-.008-.004-.037-.026-.026-.07.072zm.906 5.236v.1h.135l-.04-.129-.095.029zm12.038 2.204v.1h.053l.03-.043-.083-.057zm.939-1.985l-.095-.032.095.032zm.232-.769l.096.026.054-.199-.19.081.04.092zm-3.905 1.67l-.04-.092-.01.004-.009.006.059.082zm-5.383-6.26l.07.072.03-.03v-.041h-.1zm.06-5.532l.082.058.017-.023.001-.028-.1-.007zm5.12-1.624l-.076.063.007.009.008.007.062-.08zm5.115 3.974l-.061.079.116.09.041-.142-.096-.027zm-2.629-7.87l-.082.058.004.005.078-.063zm-.004-.006l.086-.051-.086.05zm-.006-.009l.08-.061h-.001l-.079.061zm-.012-.019l.085-.051-.085.051zm-.002-.002l.086-.052-.086.052zm-.018-.035l-.094.036.003.006.09-.042zm-.008-.02l-.095.032.001.003.094-.036zm-.012-.04l.098-.022-.002-.005-.096.027zm-.003-.015l.1-.015-.1.015zm0-.005l.098-.016v-.002l-.099.018zm-.005-.042h.1v-.005l-.1.005zm0-.013l.1.002v-.002h-.1zm0 0l-.1-.001v.001h.1zm0-.007l-.1-.005v.004l.1.001zm.005-.04l-.1-.017.1.016zm.002-.013l.098.023v-.001l-.098-.022zm0 0l-.097-.023.097.023zm.002-.008l-.097-.025v.002l.097.023zm.012-.04l.093.036.001-.003-.094-.032zm.008-.02l-.09-.042-.001.002.09.04zm.02-.036l-.085-.054v.001l.084.053zm.012-.018l-.08-.059h-.002l.082.059zm.026-.032l-.07-.071-.004.004.074.067zm.003-.004l-.078-.062-.002.003.08.06zm0 0l.079.063.002-.004-.08-.059zm.005-.005l.065.076.005-.005-.07-.07zm.156-.155l.07.07.034-.032-.004-.046-.1.008zm-9.807 0l-.1-.008-.003.046.033.033.07-.07zm.157.155l.074-.067-.004-.004-.07.072zm.004.006l.08-.06-.08.06zm.005.006l-.074.067.074-.067zm.021.026l.08-.06-.08.06zm.018.026l-.086.05v.001l.086-.051zm.015.028l-.09.042.09-.042zm.012.029l.095-.033-.002-.003-.093.036zm.009.029l-.098.022.002.007.096-.029zm.007.03l.099-.014-.1.014zm.002.03l-.1.008.1-.008zm0 .001l.1-.003v-.004l-.1.007zm.001.031l-.1-.004.1.004zm-.009.061l.098.022-.098-.022zm-.009.03l.095.034v-.001l-.095-.033zm-.012.03l-.09-.042-.001.001.091.04zm-.014.027l-.086-.05-.001.001.087.049zm-.018.029l-.08-.061-.004.005.084.056zm-.002.002l-.084-.055-.002.004.086.051zm-.002.003l.086.052-.086-.052zm0 0l-.086-.051-.001.002.087.05zm0 0l.086.05-.086-.05zm-.004.007l-.078-.063.078.063zM9.786 17.62l.094-.035v-.002l-.094.037zm.003.01l.098-.022-.098.023zm.003.01l.095-.03v-.002l-.095.032zm0 .003l-.095.03v.001l.096-.031zm0 0l.096-.03v-.002l-.095.032zm.01.036l.099-.019v-.001l-.098.02zm.003.024l-.1.006.1-.006zm0 .006l-.1.007.001.004.1-.01zm0 .054l-.098-.012.099.012zm0 .01l.099.013v-.002l-.1-.012zm0 .004l-.1-.013v.002l.1.011zm-.002.007l-.099-.011.1.01zm-.002.018l-.098-.022v.004l.098.018zm-.007.023l.093.037.002-.005-.095-.032zm0 0l-.093-.038-.002.006.095.032zm-.002.006l-.095-.031-.001.004.096.027zm-.01.031l.091.04.001-.002-.092-.038zm-.01.018l-.086-.05v.002l.087.048zm-.005.01l.087.049.001-.001-.088-.048zm-.005.009l-.087-.05v.001l.087.049zm-.01.017l-.082-.057-.005.007.087.05zm-.002.003l.086.05-.086-.05zm-.002.003l-.078-.063-.023.03.001.036.1-.003zm1.14 7.83l.095-.032-.095.032zm.938 1.983l-.082.057.03.043h.052v-.1zm13.363-7.648l-.061.079.076.059.062-.074-.077-.064zm.982-.644l.029.096.186-.056-.154-.119-.061.079zm-6.404-3.57l-.096-.028-.02.066.055.042.06-.08zm.074-1.348l.062-.079-.208-.16.048.257.098-.018zm.699 10.955l-.085-.053-.169.27.293-.125-.04-.092zm.557-1.445l-.039-.092-.05.021-.01.053.1.018zm4.768-.832l.039.092.202-.087-.198-.095-.043.09zm-.886-.827l.086-.05-.044-.077-.082.035.04.092zm-.656.28l-.04-.092-.017.008-.014.013.07.071zm-.001 0v-.1h-.02l-.02.009.04.091zm-8.499-4.991h.1V17.6l-.06-.027-.04.092zm-1.117-.875l.08-.061-.18-.233v.294h.1zm1.117 2.56l.028.097.072-.021v-.075h-.1zm-1.117.517h-.1v.186l.155-.102-.054-.084zm10.047 1.903l.04.092.074-.032-.015-.08-.099.02zm-.146.063l-.1-.013-.022.174.16-.07-.038-.091zm.248-1.186l.093.036.028-.07-.06-.046-.06.08zm-.11-.086l.061-.08-.144-.111-.017.182.1.009zm-3.581 2.744h-.1v.151l.14-.059-.04-.092zm2.748-1.175l.04.092.052-.022.007-.056-.099-.014zm-7.437-2.913h-.1v.113l.113-.014-.013-.1zm0-1.352l.018-.098-.118-.022v.12h.1zm3.026-1.379l.061-.079-.09-.07-.057.099.086.05zm4.633 3.6l.1.008.005-.054-.043-.033-.062.08zm-5.378-6.416l-.078.062.078-.062zM17 12.828v.1-.1zm-.742 4.316l.033-.095-.033.095zm2.824-1.276l.093.037-.093-.037zm8.579 6.568l.04.092.013-.005.011-.01-.064-.077zm.34-1.679l-.088.046.089-.046zm-1.023-.738l.016-.1h-.004l-.012.1zm-.012-.002l.02-.098-.02.098zm-.006-.002l.018-.098h-.004l-.014.098zm-1.417.694l.087.05-.087-.05zm-.096 1.14l-.095.033.095-.034zm1.466.907l.011.1.015-.002.013-.006-.04-.092zm4.835 2.512l.09.045-.09-.045zm-7.884.264l-.096-.029-.038.129h.134v-.1zm.235-.87l-.04-.093-.045.02-.012.049.097.023zm2.992-1.28l-.015-.099-.013.002-.011.005.04.092zm.929-.404l.062.078-.062-.078zm.008-.006l.057.082h.001l-.058-.082zm0 0l-.058-.081h-.001l.058.081zm.003-.002l.058.081.004-.002-.062-.08zm.006-.004l.061.078-.061-.078zm.662-2.222l.079-.061-.174.093.095-.032zm2.702 3.473l.08-.06-.001-.001-.079.061zm-3.526-4.532l-.055.084.134-.145-.08.061zm-.708-.286l-.061.079.018.014.024.005.019-.098zm-.355-1.08l.079-.061-.07-.089-.08.08.071.07zm-.454.45l-.07-.07-.082.08.09.07.062-.08zm-1.46-1.133l-.094-.032-.023.068.056.043.061-.079zm.943.733l-.06.079.069.054.062-.062-.07-.071zm-3.43-9.203l-.071-.07-.063.062.054.07.08-.062zm1.651-1.638l.07-.07-.07-.07-.07.07.07.07zm6.356 6.303l.07.07.072-.07-.072-.071-.07.07zm.29-.625l-.07.07.07.07.07-.07-.07-.07zM24.692 7.24l-.07-.07-.072.07.072.071.07-.07zm6.275 5.707l.07.072.072-.072-.072-.07-.07.07zm-6.015-5.964l.07-.071-.07-.07-.07.07.07.07zm-22.985 6.11l-.07.07.07.07.07-.07-.07-.07zm-.165-.164l-.07-.071-.072.07.071.072.07-.071zm7.227-7.166l.07-.071-.07-.07-.07.07.07.07zM2.344 12.72l-.07-.071.07.07zm-.001 0l-.07-.07.07.07zm0 .001l.07.071-.07-.071zm29.856-.701l.57-.565-.141-.142-.57.565.14.142zm.76.613l-.76-.755-.141.142.76.755.141-.142zm0 .598a.42.42 0 000-.598l-.14.142a.22.22 0 010 .314l.14.142zm-.625.62l.625-.62-.14-.142-.626.62.141.141zm-.3.122c.112 0 .22-.043.3-.123l-.14-.141a.225.225 0 01-.16.065v.2zm-.3-.123c.08.08.188.123.3.123v-.2a.226.226 0 01-.16-.065l-.14.142zm-.377-.373l.377.373.14-.142-.376-.373-.14.142zm-.127.266l.268-.266-.14-.142-.27.266.142.142zm.074.09a.421.421 0 00-.058-.21l-.173.1a.22.22 0 01.03.11h.2zm-.125.299a.421.421 0 00.125-.3h-.2a.22.22 0 01-.066.158l.141.142zm-3.833 3.8l3.833-3.8-.14-.142-3.834 3.8.141.142zm4.65 5.834l-4.64-5.966-.158.123 4.642 5.966.158-.123zm.425 1.834c.195-.39.098-.831-.043-1.17a3.136 3.136 0 00-.38-.663l-.16.121c.038.05.223.298.356.618.133.323.203.694.048 1.005l.179.089zm-1.543.678c.77 0 1.31-.212 1.543-.678l-.179-.09c-.18.362-.618.568-1.364.568v.2zm-7.224 0h7.224v-.2h-7.224v.2zm-.971 2.034c.405-.543.763-1.25 1.065-2.1l-.188-.067c-.298.838-.647 1.525-1.037 2.047l.16.12zm-.341.17c.134 0 .26-.063.34-.17l-.16-.12a.227.227 0 01-.18.09v.2zm-5.342 0h5.342v-.2H17v.2zm-5.342 0H17v-.2h-5.342v.2zm-.341-.17c.08.107.207.17.34.17v-.2a.227.227 0 01-.18-.09l-.16.12zm-1.065-2.1c.302.85.659 1.557 1.065 2.1l.16-.12c-.39-.522-.74-1.21-1.037-2.047l-.188.067zm-7.13.066h7.224v-.2H3.122v.2zM1.579 25.6c.232.466.773.678 1.543.678v-.2c-.746 0-1.184-.206-1.364-.567l-.18.089zm.423-1.832a3.138 3.138 0 00-.38.661c-.141.34-.238.78-.043 1.171l.179-.09c-.155-.31-.085-.681.048-1.004.133-.32.317-.568.355-.617L2 23.768zM6.645 17.8l-4.643 5.967.158.123 4.643-5.967-.158-.123zm-3.824-3.668l3.833 3.8.14-.142-3.832-3.8-.14.142zm-.125-.3c0 .112.045.22.125.3l.14-.142a.221.221 0 01-.064-.157h-.2zm.059-.21a.419.419 0 00-.058.21h.2c0-.037.01-.075.03-.11l-.172-.1zm-.253-.145l.269.266.14-.142-.268-.266-.141.142zm-.235.373l.376-.373-.141-.142-.376.373.14.142zm-.3.123c.107 0 .217-.04.3-.123l-.14-.142a.226.226 0 01-.16.065v.2zm-.301-.123a.425.425 0 00.3.123v-.2a.225.225 0 01-.16-.065l-.14.142zm-.625-.62l.625.62.14-.142-.624-.62-.14.143zm-.124-.299c0 .112.044.22.124.3l.141-.143a.221.221 0 01-.065-.157h-.2zm.124-.299a.42.42 0 00-.124.3h.2a.22.22 0 01.065-.158l-.14-.142zm.76-.753l-.76.753.141.142.76-.753-.141-.142zm-.57-.423l.57.565.14-.142-.568-.565-.141.142zm0-1.591a1.12 1.12 0 000 1.591l.142-.142a.92.92 0 010-1.307l-.141-.142zm1.111-1.101l-1.11 1.101.14.142 1.111-1.101-.14-.142zm-.114.028l.114.114.141-.142-.114-.114-.14.142zm-.265-.637a.89.89 0 00.265.637l.141-.142a.693.693 0 01-.206-.495h-.2zm.265-.637a.89.89 0 00-.265.637h.2a.69.69 0 01.206-.495l-.14-.142zm1.344-1.332L2.228 7.518l.141.142 1.344-1.332-.141-.142zm1.282 0a.913.913 0 00-1.282 0l.14.142a.713.713 0 011.001 0l.141-.142zm.115.113l-.115-.113-.14.142.114.113.14-.142zm.97-1.101L4.827 6.299l.14.142L6.08 5.34l-.14-.142zm1.601 0a1.14 1.14 0 00-1.602 0l.141.142a.94.94 0 011.32 0l.141-.142zm.57.565l-.57-.565-.14.142.57.565.14-.142zm.619-.753l-.76.753.141.142.76-.753-.141-.142zm.6 0a.427.427 0 00-.6 0l.14.142a.227.227 0 01.32 0l.14-.142zm.625.619l-.625-.62-.14.143.624.619.14-.142zm.125.3a.423.423 0 00-.125-.3l-.141.142a.222.222 0 01.066.157h.2zm-.125.298a.42.42 0 00.125-.299h-.2a.22.22 0 01-.066.157l.14.142zm-.376.373l.376-.373-.141-.142-.376.373.141.142zm.269.124l-.269-.266-.14.142.268.266.14-.142zm.39.05a.426.426 0 00-.51-.066l.099.174a.226.226 0 01.27.034l.142-.142zm1.378 1.366l-1.377-1.366-.141.142 1.378 1.366.14-.142zm1.556-1.107c-.429 0-.8.102-1.094.299a1.593 1.593 0 00-.627.848l.19.063c.106-.324.293-.574.548-.745.256-.17.586-.265.983-.265v-.2zm3.83 0h-3.83v.2H17v-.2zm0 0v.2-.2zm3.828 0h-3.828v.2h3.828v-.2zM22.55 8.18a1.594 1.594 0 00-.628-.848c-.294-.197-.664-.299-1.093-.299v.2c.397 0 .727.094.982.265.255.17.442.421.549.745l.19-.063zm1.212-1.406L22.385 8.14l.14.142 1.378-1.366-.14-.142zm.511-.066a.427.427 0 00-.51.066l.14.142a.227.227 0 01.271-.034l.1-.174zm.15-.25l-.27.266.141.142.269-.266-.14-.142zm-.376-.23l.375.372.14-.142-.375-.373-.14.142zm-.125-.3c0 .113.045.22.125.3l.14-.143a.221.221 0 01-.066-.157h-.2zm.124-.299a.422.422 0 00-.124.3h.2c0-.06.023-.116.066-.158l-.142-.142zm.625-.62l-.624.62.14.142.625-.62-.14-.141zm.6 0a.427.427 0 00-.6 0l.141.143a.227.227 0 01.319 0l.14-.142zm.76.753l-.76-.752-.14.142.759.752.14-.142zm.428-.565l-.57.565.142.142.57-.565-.142-.142zm1.602 0a1.14 1.14 0 00-1.602 0l.141.142a.94.94 0 011.32 0l.141-.142zm1.111 1.101l-1.11-1.1-.141.141 1.11 1.101.141-.142zm-.026-.113l-.115.113.141.142.114-.113-.14-.142zm1.282 0a.913.913 0 00-1.282 0l.14.142a.713.713 0 011.001 0l.141-.142zm1.344 1.333l-1.344-1.333-.14.142L31.63 7.66l.141-.142zm0 1.273a.896.896 0 000-1.273l-.14.142a.696.696 0 010 .99l.14.141zm-.114.114l.114-.114-.14-.142-.115.114.14.142zm1.11.959l-1.11-1.101-.141.142 1.11 1.1.142-.141zm.332.795c0-.3-.118-.583-.331-.795l-.141.142a.913.913 0 01.272.653h.2zm-.331.796c.213-.212.331-.495.331-.796h-.2c0 .248-.097.48-.272.654l.14.142zm-3.022-4.672a.06.06 0 01.08 0l.141-.142a.26.26 0 00-.363 0l.142.142zm-.115.113l.114-.113-.14-.142-.115.113.14.142zm1.566 1.41l-1.566-1.552-.141.142 1.566 1.552.14-.142zm-.027-.113l-.114.113.14.142.115-.113-.14-.142zm0-.078c.021.02.02.058 0 .078l.14.142c.1-.098.1-.263.001-.362l-.14.142zm-1.344-1.332l1.344 1.332.141-.142-1.344-1.332-.14.142zm-2.226-1.13a.485.485 0 00-.682 0l.14.142c.111-.11.29-.11.401 0l.141-.142zm4.707 4.667L27.6 5.653l-.14.142 4.706 4.667.14-.142zm.14.34c0-.129-.05-.25-.14-.34l-.141.142a.276.276 0 01.081.198h.2zm-.14.34a.475.475 0 00.14-.34h-.2a.275.275 0 01-.081.197l.14.142zm-.57.564l.57-.565-.141-.142-.57.565.141.142zM26.35 6.36l5.248 5.204.141-.142-5.248-5.204-.14.142zm.57-.707l-.57.565.141.142.57-.565-.141-.142zM2.83 8.193a.057.057 0 010-.078l-.14-.142c-.1.1-.1.263 0 .362l.14-.142zm.115.114l-.115-.114-.14.142.114.114.14-.142zM4.37 6.754L2.803 8.307l.14.142L4.51 6.896l-.141-.142zm-.115.029l.115.113.14-.142-.114-.113-.14.142zm-.08 0a.06.06 0 01.08 0l.141-.142a.26.26 0 00-.363 0l.141.142zM2.828 8.115l1.344-1.332-.14-.142-1.345 1.332.141.142zM1.693 10.32a.478.478 0 000 .679l.14-.142a.278.278 0 010-.395l-.14-.142zm4.706-4.667L1.693 10.32l.14.142L6.54 5.795l-.14-.142zm.683 0a.486.486 0 00-.683 0l.141.142c.11-.11.29-.11.401 0l.14-.143zm.57.564l-.57-.564-.141.142.57.564.14-.142zm-5.249 5.346L7.651 6.36l-.14-.142-5.249 5.204.141.142zM1.693 11l.57.564.14-.142-.57-.564-.14.142zm7.684-3.83l-.26-.257-.14.142.26.257.14-.142zm-6.015 6.107l6.015-5.965-.14-.142-6.016 5.965.14.142zm-.4-.257l.259.257.14-.142-.259-.258-.14.143zm6.015-6.107l-6.016 5.964.141.143 6.016-5.965-.141-.142zm.89.687l1.652 1.637.14-.142-1.651-1.638-.14.143zm-6.214 6.302L10.008 7.6l-.14-.143-6.356 6.303.14.142zm3.805 3.631L3.653 13.76l-.141.142 3.805 3.773.14-.142zm1.772 1.72l-1.773-1.72-.14.143 1.773 1.721.14-.143zm-.236-1.442c.011.429.031.946.066 1.52l.2-.011a43.304 43.304 0 01-.066-1.515l-.2.006zm0-.007v.004h.2v-.004h-.2zm.003-.045c-.001.01-.003.028-.003.048l.2-.006.002-.019-.199-.023zm0 0l.199.024-.199-.025zm0-.006v.006l.199.023v-.005l-.198-.024zm0-.003v.008l.2.014v-.008l-.2-.014zm.004-.028l-.003.029.2.012v-.005.002L9 17.722zm.01-.037c-.002.007-.008.023-.01.04l.197.032v-.002a.29.29 0 01.003-.01l-.19-.06zm.002-.008l-.002.008.19.06.003-.008-.19-.06zm.002-.004l-.002.005.191.058.002-.006-.191-.057zm0-.002l-.001.005.193.05.001-.004-.193-.051zm.007-.024a.142.142 0 00-.007.025l.194.05v-.005.002l-.187-.072zm2.488-8.542c-.638.819-1.549 2.14-2.157 3.67-.607 1.527-.916 3.276-.332 4.94l.19-.066c-.563-1.601-.27-3.296.328-4.801.598-1.505 1.497-2.809 2.129-3.62l-.158-.123zM2.518 24.158c-.09.118-.215.32-.3.53a1.341 1.341 0 00-.093.32.524.524 0 00.037.305l.18-.09a.33.33 0 01-.018-.188c.01-.083.039-.176.078-.271.079-.192.195-.378.275-.484l-.159-.122zm4.594-5.903l-4.593 5.903.158.123 4.593-5.903-.158-.123zm2.188 1.97l-2.04-1.98-.139.143 2.04 1.98.139-.143zm.932 5.278c-.5-1.664-.764-3.579-.903-5.215l-.199.017c.139 1.642.404 3.573.91 5.256l.192-.058zm-7.11.129h7.014v-.2H3.122v.2zm-.96-.319c.061.122.192.199.35.247.16.048.367.072.61.072v-.2a1.97 1.97 0 01-.553-.064c-.137-.042-.203-.096-.228-.145l-.179.09zm20.012 2.323H17v.2h5.174v-.2zm.844-1.917c-.268.805-.58 1.46-.926 1.96l.165.114c.36-.52.679-1.194.95-2.01l-.19-.064zm.23-.763c-.073.266-.15.522-.23.763l.19.064a13.8 13.8 0 00.233-.775l-.193-.052zm-3.769 1.788l3.905-1.67-.079-.184-3.905 1.67.079.184zm-2.48.794c.933 0 1.797-.3 2.5-.805l-.118-.163a4.063 4.063 0 01-2.381.768v.2zm-4.262-4.229c0 2.333 1.913 4.229 4.263 4.229v-.2c-2.241 0-4.063-1.808-4.063-4.029h-.2zm1.25-2.987a4.197 4.197 0 00-1.25 2.987h.2c0-1.11.455-2.116 1.19-2.845l-.14-.142zm-.03-5.276v5.347h.2v-5.347h-.2zm.08-.244a.419.419 0 00-.08.244h.2c0-.047.015-.09.042-.128l-.163-.116zM17 12.082a2.982 2.982 0 00-2.982 2.771l.2.014A2.782 2.782 0 0117 12.28v-.2zm2.315 1.09A2.982 2.982 0 0017 12.082v.2c.844 0 1.628.37 2.16 1.017l.155-.127zm5.098 3.959L19.3 13.157l-.123.158 5.115 3.974.122-.158zm-2.768-7.728c.552.684 1.423 1.878 2.046 3.28.624 1.403.994 3 .565 4.5l.192.054c.448-1.563.058-3.213-.574-4.635-.633-1.424-1.516-2.633-2.073-3.325l-.156.126zm-.012-.018l.008.013.164-.115-.172.102zm.001.001a.036.036 0 01-.002-.003v.002l.173-.102-.013-.02-.158.123zm-.019-.028c.004.006.01.017.02.029l.157-.124-.001-.001-.005-.007-.17.103zm-.001-.002l.001.002.171-.104-.001-.002-.171.104zm-.024-.045c.007.016.015.03.024.045l.17-.105a.194.194 0 01-.012-.024l-.182.084zm-.01-.027l.007.02.187-.07-.008-.021-.187.07zm-.016-.053c.004.019.01.036.014.05l.19-.065a.271.271 0 01-.01-.029l-.194.044zm-.005-.022l.006.027.192-.054v-.003l-.198.03zm0-.004v.005l.198-.032v-.005l-.198.032zm-.006-.058a.37.37 0 00.006.06l.197-.036a.129.129 0 01-.003-.024h-.2zm0-.015v.021l.2-.011v-.007l-.2-.004zm0 .002h.2-.2zm0-.008v.007l.2.002V9.13l-.2-.003zm.006-.056a.475.475 0 00-.006.052l.2.01c0-.012.002-.02.003-.03l-.197-.032zm.004-.02l-.004.02.197.033v-.001c0-.002 0-.003.002-.005l-.195-.046zm0 .002l.195.044-.195-.044zm.002-.009l-.002.008.195.045.002-.008-.196-.045zm.015-.051a.368.368 0 00-.015.049l.194.05a.291.291 0 01.008-.03l-.187-.07zm.01-.026l-.011.029.19.064c0-.002 0-.004.004-.011l-.182-.082zm.027-.049a.42.42 0 00-.026.047l.181.086a.242.242 0 01.014-.026l-.17-.107zm.015-.023a.695.695 0 00-.015.022l.168.11a.47.47 0 01.01-.016l-.163-.116zm.034-.04a.505.505 0 00-.033.039l.162.118a.312.312 0 01.02-.024l-.15-.134zm-.003.003v-.001l.007-.007.14.142a.112.112 0 00.014-.015l-.161-.12zm.002-.003l.157.125-.157-.125zm.017-.018l-.02.02.162.12c0-.002 0 0-.002.001a.076.076 0 01-.009.01l-.13-.151zm.152-.151l-.157.155.141.142.157-.155-.141-.142zm-1.004-.809c.126 0 .352.002.554.11.194.106.384.318.42.778l.2-.016c-.042-.52-.264-.797-.525-.937-.252-.136-.524-.135-.65-.135v.2zm-3.83 0h3.83v-.2H17v.2zm0 0v-.2.2zm-3.828 0H17v-.2h-3.828v.2zm-.975.888c.037-.46.226-.672.42-.777.203-.11.428-.11.555-.11v-.2c-.126 0-.398-.002-.65.134-.26.14-.483.418-.525.937l.2.016zm.127.076l-.157-.155-.14.142.156.156.141-.143zm.014.016l-.01-.012-.148.135.158-.123zm0 0l-.159.122a.21.21 0 00.01.012l.148-.134zm.026.033a.458.458 0 00-.027-.034l-.148.136a.26.26 0 01.016.018l.16-.12zm.024.035c-.008-.014-.017-.026-.023-.035l-.16.12.01.016.173-.101zm.02.037a.382.382 0 00-.02-.038l-.172.103a.189.189 0 01.01.019l.182-.084zm.014.035a.54.54 0 00-.014-.035l-.182.084a.423.423 0 01.01.023l.186-.072zm.013.043a.364.364 0 00-.011-.04l-.19.066a.172.172 0 01.006.018l.195-.044zm.009.038a.31.31 0 00-.01-.045l-.192.058.004.016.198-.029zm.003.037l-.003-.037-.198.029a.36.36 0 01.002.023l.2-.015zm0 0l-.2.015.2-.014zm0 .043c.002-.015 0-.029 0-.038l-.2.007.001.023.2.008zm-.003.041a.383.383 0 00.004-.041l-.2-.008c0 .006 0 .012-.002.02l.198.029zm-.007.038a.542.542 0 00.007-.038l-.198-.029a.301.301 0 01-.004.023l.195.044zm-.012.04a.38.38 0 00.012-.04l-.195-.044a.174.174 0 01-.006.019l.189.066zm-.016.04a.448.448 0 00.015-.038l-.188-.068a.276.276 0 01-.008.022l.181.084zm-.019.036a.371.371 0 00.02-.038l-.183-.08a.156.156 0 01-.009.016l.172.102zm-.025.038a.343.343 0 00.027-.04l-.175-.098a.15.15 0 01-.01.017l.158.121zm.002-.002l.002-.003-.167-.111-.001.003.166.111zm0-.002l.003-.003-.172-.102-.002.003.172.102zm0 0l-.17-.102.17.103zm.002-.001l-.174-.1.174.1zm-.014.02a.072.072 0 00.013-.02l-.173-.1c0 .001 0 0 0 0l.005-.006.155.126zm-2.476 8.18c-.602-1.545-.28-3.226.348-4.71.627-1.484 1.551-2.755 2.128-3.47l-.155-.126c-.583.722-1.52 2.01-2.157 3.517-.637 1.506-.98 3.246-.35 4.86l.186-.072zm.008.024l-.007-.023-.188.07v-.001l.195-.046zm0 0l-.195.046.005.018.19-.064zm0 .004v-.002l-.19.06v.003l.19-.06zm0-.001l-.19.063.19-.063zm.014.048l-.013-.047-.19.06a.25.25 0 01.007.026l.196-.04zm.004.037a.203.203 0 00-.004-.036l-.197.037v.003l.001.01.2-.014zm0 .006v-.006l-.2.014v.006l.2-.014zm.003.038c0-.016-.002-.032-.003-.041l-.199.021a.205.205 0 01.002.02h.2zm-.003.035c0-.006.003-.02.003-.035h-.2v.002l-.001.009.198.024zm0 .01v-.01l-.198-.024-.002.01.2.023zm-.002.005v-.004l-.197-.027-.001.005.198.026zm0 .005v-.007l-.198-.022-.001.007.199.022zm-.005.03l.005-.03-.199-.022v.007s-.001 0 0 0l.194.045zm-.009.032c.002-.006.007-.02.01-.036l-.197-.037v.001a.27.27 0 01-.002.008l.189.064zm-.002.005l-.186-.075.186.075zm0 .001l.002-.007-.19-.063-.002.007.19.063zm-.013.037c.007-.016.011-.031.014-.041l-.192-.055a.21.21 0 01-.007.02l.185.076zm-.014.029a.154.154 0 00.013-.026l-.182-.081-.005.009.174.098zm-.005.009l.005-.01-.175-.096-.005.01.175.096zm-.006.01l.005-.01-.174-.098-.005.01.174.098zm-.015.026l.016-.027-.175-.097a.246.246 0 01-.005.009l.164.115zm.003-.005l.001-.002-.173-.101-.001.003.173.1zm-.011.016a.118.118 0 00.01-.015l-.172-.102.006-.009.156.126zm1.156 7.735c-.887-2.65-1.089-6.242-1.134-7.8l-.2.005c.045 1.56.247 5.177 1.145 7.858l.19-.063zm.926 1.958c-.346-.5-.658-1.156-.925-1.958l-.19.063c.272.814.59 1.49.95 2.009l.165-.114zM17 27.636h-5.174v.2H17v-.2zm8.266-7.484c.244-.291.57-.503.934-.612l-.058-.192c-.4.12-.76.354-1.03.675l.154.13zm-5.56-4.198l5.422 4.213.122-.158-5.422-4.213-.122.158zm.083-.906c0 .272-.04.54-.118.798l.192.058c.084-.277.126-.564.126-.856h-.2zm-.046-.504c.03.165.046.333.046.504h.2c0-.184-.017-.364-.05-.54l-.196.036zm6.49 4.821l-6.33-4.918-.123.158 6.33 4.918.122-.158zm-5.608 6.169a4.18 4.18 0 00.57-1.48L21 24.018c-.091.51-.279.986-.544 1.41l.17.106zm5.2-2.422l-5.324 2.277.078.184 5.325-2.277-.079-.184zm-.933-.686c.216.38.542.68.929.868l.087-.18a1.943 1.943 0 01-.843-.787l-.173.1zm-.53.323l.656-.28-.079-.184-.656.28.08.184zm-.04.008c.001 0 .04.002.071-.029l-.14-.142a.099.099 0 01.045-.026c.014-.003.026-.003.024-.003v.2zm-3.185 1.371l3.224-1.379-.079-.183-3.224 1.378.079.184zm-5.273-6.554c-.432-.19-.8-.484-1.078-.845l-.159.123c.299.386.693.7 1.156.905l.08-.183zm.06 1.778v-1.686h-.2v1.686h.2zm-1.162.6c.332-.22.698-.39 1.09-.504l-.057-.192c-.41.12-.795.299-1.143.528l.11.168zm-.155-3.161v3.077h.2V16.79h-.2zm10.107 4.888l-.147.063.079.184.147-.063-.079-.184zm-.099-.296c0 .138.014.274.04.408l.197-.04a1.878 1.878 0 01-.037-.368h-.2zm.147-.772a2.118 2.118 0 00-.147.772h.2c0-.24.046-.477.133-.699l-.186-.073zm-.078.03l.11.086.123-.159-.11-.085-.123.158zm.022 1.206c.052-.413.099-.84.139-1.276l-.2-.018c-.04.434-.085.858-.138 1.268l.199.026zm-3.503 1.551l2.749-1.175-.079-.183-2.748 1.174.078.184zm-4.202-4.114c2.24 0 4.06 1.804 4.063 4.022h.2c-.003-2.33-1.915-4.222-4.263-4.222v.2zm-.513.033a4.07 4.07 0 01.513-.033v-.2c-.183 0-.362.012-.538.035l.025.198zm-.113-1.45v1.35h.2v-1.35h-.2zm.626-.053a2.85 2.85 0 01-.508-.046l-.035.197c.177.032.36.049.543.049v-.2zm2.414-1.377A2.779 2.779 0 0117 17.814v.2a2.979 2.979 0 002.586-1.476l-.172-.101zm4.78 3.571l-4.633-3.6-.122.158 4.633 3.6.123-.158zm-.184 2.137c.09-.648.165-1.337.223-2.05l-.2-.016c-.057.71-.131 1.394-.22 2.039l.197.027zm-5.333-8.412c.302.378.462.832.462 1.315h.2a2.28 2.28 0 00-.506-1.44l-.156.125zM17 12.928c.658 0 1.27.294 1.678.805l.156-.124a2.333 2.333 0 00-1.834-.88v.2zm-2.138 2.12c0-1.168.958-2.12 2.138-2.12v-.2a2.332 2.332 0 00-2.338 2.32h.2zm1.429 2.001a2.126 2.126 0 01-1.43-2h-.2c0 .983.63 1.863 1.564 2.19l.066-.19zm.71.12c-.246 0-.484-.04-.71-.12l-.066.19c.247.086.508.13.775.13v-.2zm1.989-1.338A2.13 2.13 0 0117 17.169v.2a2.33 2.33 0 002.175-1.464l-.185-.074zm.15-.783c0 .27-.051.533-.15.783l.185.074c.109-.273.165-.562.165-.857h-.2zm1.473 8.264c0-1.977-1.621-3.584-3.613-3.584v.2c1.883 0 3.413 1.519 3.413 3.384h.2zM17 26.895c1.992 0 3.613-1.607 3.613-3.583h-.2c0 1.864-1.53 3.383-3.413 3.383v.2zm-3.613-3.583c0 1.976 1.622 3.583 3.613 3.583v-.2c-1.882 0-3.413-1.519-3.413-3.383h-.2zM17 19.728c-1.99 0-3.613 1.607-3.613 3.584h.2c0-1.865 1.53-3.384 3.413-3.384v-.2zm11.054 1.655c0 .38-.166.732-.457.977l.128.153c.336-.282.529-.691.529-1.13h-.2zm-.141-.58c.093.18.14.375.14.58h.2c0-.237-.054-.463-.162-.672l-.178.092zm-.95-.685c.408.063.762.319.95.685l.178-.091a1.49 1.49 0 00-1.097-.792l-.03.198zm-.016-.003l.02.003.023-.198-.004-.001-.04.196zm-.006-.001l.007.001.037-.196-.006-.002-.038.197zm-.181-.013c.062 0 .124.005.186.014l.028-.198a1.527 1.527 0 00-.214-.016v.2zm-1.13.657a1.298 1.298 0 011.13-.657v-.2c-.54 0-1.04.29-1.304.759l.174.098zm-.164.625c0-.219.057-.435.164-.625l-.174-.098c-.124.22-.19.47-.19.723h.2zm.075.432a1.274 1.274 0 01-.075-.432h-.2c0 .171.03.34.087.5l.188-.068zm1.219.85a1.297 1.297 0 01-1.22-.85l-.187.067c.212.589.778.983 1.407.983v-.2zm.142-.008a1.273 1.273 0 01-.142.008v.2c.057 0 .112-.004.164-.01l-.022-.198zm.72-.313l-.748.32.078.184.748-.32-.078-.184zm3.256 3.288c.244 0 .45-.024.61-.073.158-.047.288-.125.35-.246l-.18-.09c-.024.049-.09.103-.228.145-.134.04-.32.064-.552.064v.2zm-7.014 0h7.014v-.2h-7.014v.2zm.138-.994c-.073.3-.151.59-.234.865l.192.058c.084-.28.163-.573.236-.876l-.194-.047zm3.05-1.348l-2.992 1.28.079.183 2.992-1.279-.08-.184zm.906-.39c-.255.2-.56.332-.882.383l.031.198c.356-.057.692-.203.975-.425l-.124-.157zm.012-.01l-.012.01.124.156.003-.002-.115-.163zm-.001.002l.117.161-.117-.162zm.004-.004l-.003.003.116.163.003-.003-.116-.163zm.002-.001l-.005.004.123.158.005-.005-.123-.157zm.729-1.504c0 .59-.266 1.137-.73 1.504l.125.157c.511-.405.805-1.01.805-1.66h-.2zm-.1-.607c.065.195.1.4.1.607h.2c0-.229-.038-.456-.11-.67l-.19.063zm2.876 3.38l-2.702-3.473-.158.123 2.702 3.473.158-.123zm.358 1.157a.525.525 0 00.037-.306 1.34 1.34 0 00-.092-.32 2.536 2.536 0 00-.302-.53l-.16.12c.082.107.198.294.277.486.039.096.067.189.079.271a.33.33 0 01-.018.19l.179.089zM27.929 19.6a2.128 2.128 0 00-.742-.3l-.04.196c.243.048.47.14.673.272l.11-.168zm-1.196-1.22l1.063 1.366.158-.123-1.063-1.366-.158.123zm-.305.46l.454-.45-.14-.143-.455.45.141.143zm.8.479l-.809-.63-.123.159.81.629.122-.158zm-2.39-1.605l.942.733.123-.158-.943-.733-.123.158zM22.33 9.228c.63.808 1.523 2.103 2.12 3.599.598 1.496.896 3.181.353 4.777l.19.065c.564-1.66.25-3.397-.357-4.917s-1.513-2.832-2.148-3.647l-.158.123zm1.66-1.77l-1.65 1.636.14.142L24.133 7.6l-.14-.143zm6.497 6.302l-6.355-6.303-.141.143 6.355 6.302.141-.142zm-4.576 4.68l4.576-4.538-.14-.142-4.577 4.538.14.142zm4.866-5.305L24.763 7.17l-.141.142 6.015 5.965.141-.142zm.119-.258l-.26.258.141.142.26-.257-.142-.143zM24.88 7.055l6.015 5.965.141-.143-6.015-5.964-.14.142zm-.118.257l.26-.257-.142-.142-.26.257.142.142zm-22.726 5.71l-.165-.163-.14.142.164.163.141-.142zm-.165-.021L9.1 5.835l-.14-.142-7.228 7.166.141.142zm7.086-7.166l.165.163.141-.142-.165-.163-.14.142zm-.21.394l-6.475 6.42.141.142 6.474-6.42-.14-.142zm-6.475 6.42l.14.142h.001l-.14-.142zm0 0l-.001.001.14.142h.001l-.14-.143zm-.001.001l-.376.372.141.142.376-.372-.141-.142z" fill="#EF3F3E"/><path fill-rule="evenodd" clip-rule="evenodd" d="M18.185 14.674c.008.024.014.049.02.073v.001l.001.001A1.239 1.239 0 0117 16.28a1.24 1.24 0 01-1.242-1.232A1.239 1.239 0 0117.4 13.88h.001c.242.081.446.231.594.427l.006.008.01.014a.234.234 0 01.018.026l.008.01c.005.01.011.018.017.027l.004.007a.417.417 0 00.007.012l.01.015.018.032.003.007.004.008.027.054.006.013.025.058.002.006a.897.897 0 01.024.067v.002zm-1.777.374a.59.59 0 00.592.588.591.591 0 00.575-.731.597.597 0 00-.383-.413h-.002a.587.587 0 00-.184-.031H17a.59.59 0 00-.592.587z" fill="#EF3F3E"/><path d="M18.206 14.747h.1v-.013l-.004-.012-.096.025zm-.021-.073l.095-.03-.003-.008-.003-.007-.09.045zm.021.075h-.1v.013l.003.012.097-.025zm-.806-.868l-.032.094.016.006h.016v-.1zm.001 0l.032-.095-.015-.005H17.4v.1zm.594.427l.08-.06-.08.06zm.006.008l-.08.06.08-.06zm.01.014l-.082.057.004.005.078-.062zm.011.015l-.084.055.084-.055zm.008.011l.082-.055-.001-.003-.082.058zm.006.01l.083-.055-.082.056zm.018.027l.086-.051-.002-.003-.084.054zm.004.007l-.087.05.087-.05zm.007.012l.086-.05v-.002l-.086.052zm.01.015l.085-.051-.086.051zm.018.032l.087-.048-.087.048zm.007.015l.089-.047-.001-.001-.088.048zm.027.054l.092-.04-.001-.003-.09.043zm.006.013l-.092.04.092-.04zm.025.058l.093-.035v-.002l-.093.037zm.002.006l-.093.035v.001l.093-.036zm.024.067h.1v-.016l-.005-.015-.095.031zm0 .002l.087-.05-.087.05zm-.591.374h.1-.1zm-.018-.143l.097-.024-.097.024zm-.25-.349l.054-.083-.055.083zm-.133-.064l.032-.095-.016-.005h-.016v.1zm0 0l-.039.092.038-.092zm-.002 0l-.032.094.016.005h.016v-.1zm-.184-.031v-.1.1zm1.296.26a1.322 1.322 0 00-.022-.078l-.19.062.019.067.193-.05zm0 .003l.002.005.002.018h-.2l.001.02.001.004v.001l.195-.048zm.004.025a.099.099 0 00-.002-.019v-.005h-.001v-.001l-.194.049-.001-.006a.094.094 0 01-.002-.018h.2zm.037.298c0-.108-.013-.216-.04-.322l-.194.049c.023.09.034.182.034.273h.2zm0 0h-.2.2zM17 16.382a1.34 1.34 0 001.343-1.333h-.2A1.14 1.14 0 0117 16.18v.2zm-1.342-1.333A1.34 1.34 0 0017 16.38v-.2a1.14 1.14 0 01-1.142-1.133h-.2zM17 13.716c-.74 0-1.342.596-1.342 1.332h.2c0-.624.512-1.132 1.142-1.132v-.2zm.432.07a1.35 1.35 0 00-.432-.07v.2c.127 0 .25.02.368.06l.064-.19zm-.031-.005H17.4v.2h.001v-.2zm.674.467a1.34 1.34 0 00-.642-.462l-.064.19c.222.074.41.212.546.393l.16-.121zm.005.007a.44.44 0 01-.005-.006l-.16.119.006.008.16-.12zm.013.017l-.013-.017-.159.121a.287.287 0 01.008.011l.164-.115zm.013.019l-.016-.023-.157.124a.1.1 0 01.005.008l.168-.11zm.005.007a.307.307 0 01-.005-.007l-.168.109.01.015.163-.117zm.008.013l-.007-.01-.165.111.007.011.165-.112zm.019.028a1.244 1.244 0 00-.019-.028l-.165.112.016.024.168-.108zm.006.01l-.004-.007-.172.102.003.006.173-.1zm.007.011l-.007-.01-.173.1.01.015.17-.105zm.009.016l-.009-.014-.172.101.01.016.17-.103zm.02.035a.977.977 0 00-.02-.035l-.172.103.017.028.175-.096zm.006.011c0-.002-.003-.006-.006-.01l-.175.095s0 .002.002.003l.18-.088zm.002.004l-.002-.004-.18.088a.208.208 0 00.006.011l.176-.095zm.03.059l-.03-.058-.176.093.025.05.18-.085zm.007.016l-.006-.013-.183.08.005.013.184-.08zm.026.06a1.742 1.742 0 00-.027-.061l-.182.082.023.054.186-.074zm.002.009l-.002-.006-.187.07.003.006.186-.07zm.026.071a1.577 1.577 0 00-.026-.072l-.186.072.022.063.19-.063zm-.008-.018l.006.014c.004.01.007.022.007.035h-.2a.102.102 0 00.014.051v.001l.173-.1zm.003.006l-.003-.005-.173.1-.003-.005.179-.09zM17 15.536a.49.49 0 01-.492-.488h-.2c0 .38.311.688.692.688v-.2zm.493-.488a.49.49 0 01-.492.488v.2a.691.691 0 00.692-.687h-.2zm-.015-.12c.01.041.015.081.015.12h.2a.705.705 0 00-.02-.167l-.195.048zm-.209-.288a.497.497 0 01.21.29l.193-.05a.696.696 0 00-.293-.407l-.11.167zm-.11-.054a.494.494 0 01.11.054l.11-.168a.692.692 0 00-.155-.075l-.064.19zm-.006-.002h.002l.007.003a.1.1 0 00.03.005v-.2a.1.1 0 01.03.004l.007.003-.076.185zm.037.007a.098.098 0 01-.026-.003l-.01-.004.075-.185c-.001 0-.017-.008-.039-.008v.2zm-.184-.03a.48.48 0 01.152.025l.064-.19a.69.69 0 00-.215-.035l-.002.2zm-.006 0h.006v-.2H17v.2zm-.492.487a.49.49 0 01.492-.487v-.2a.69.69 0 00-.692.687h.2z" fill="#EF3F3E"/><path fill-rule="evenodd" clip-rule="evenodd" d="M18.782 23.311c0 .975-.8 1.768-1.782 1.768a1.777 1.777 0 01-1.782-1.768c0-.974.8-1.767 1.782-1.767.983 0 1.782.793 1.782 1.767zm-.65 0c0-.619-.508-1.122-1.131-1.122-.625 0-1.133.503-1.132 1.122 0 .62.507 1.123 1.132 1.123a1.13 1.13 0 001.132-1.123z" fill="#EF3F3E"/><path d="M15.869 23.311h.1-.1zM17 25.18a1.877 1.877 0 001.883-1.868h-.2c0 .919-.755 1.668-1.683 1.668v.2zm-1.882-1.868c0 1.03.845 1.868 1.882 1.868v-.2a1.677 1.677 0 01-1.682-1.668h-.2zM17 21.444a1.877 1.877 0 00-1.882 1.867h.2c0-.918.754-1.667 1.682-1.667v-.2zm1.883 1.867c0-1.03-.846-1.867-1.883-1.867v.2c.928 0 1.683.749 1.683 1.667h.2zM17 22.29c.57 0 1.032.46 1.032 1.022h.2c0-.675-.554-1.222-1.232-1.222v.2zm-1.032 1.022c0-.563.462-1.022 1.032-1.022v-.2c-.68 0-1.233.547-1.232 1.223h.2zM17 24.334c-.57 0-1.032-.46-1.032-1.023h-.2c0 .675.553 1.223 1.232 1.223v-.2zm1.032-1.023A1.03 1.03 0 0117 24.334v.2a1.23 1.23 0 001.232-1.223h-.2z" fill="#EF3F3E"/><path fill-rule="evenodd" clip-rule="evenodd" d="M12.117 28.532h9.767c.445 0 .807.359.807.8V32.2c0 .441-.362.8-.807.8h-9.767a.805.805 0 01-.807-.8v-2.867c0-.442.363-.8.807-.8zm9.766 3.823a.158.158 0 00.157-.155v-2.868a.158.158 0 00-.157-.155h-9.767a.158.158 0 00-.156.155V32.2c0 .084.071.155.156.155h9.767z" fill="#EF3F3E"/><path d="M21.884 28.432h-9.767v.2h9.767v-.2zm.907.9c0-.497-.408-.9-.907-.9v.2c.39 0 .707.315.707.7h.2zm0 2.868v-2.867h-.2V32.2h.2zm-.907.9c.5 0 .907-.403.907-.9h-.2c0 .385-.317.7-.707.7v.2zm-9.767 0h9.767v-.2h-9.767v.2zm-.907-.9c0 .497.408.9.907.9v-.2a.705.705 0 01-.707-.7h-.2zm0-2.867V32.2h.2v-2.867h-.2zm.907-.9a.904.904 0 00-.907.9h.2c0-.386.317-.7.707-.7v-.2zM21.94 32.2a.058.058 0 01-.057.055v.2c.14 0 .257-.115.257-.255h-.2zm0-2.868V32.2h.2v-2.868h-.2zm-.057-.055c.03 0 .057.027.057.055h.2a.258.258 0 00-.257-.255v.2zm-9.767 0h9.767v-.2h-9.767v.2zm-.056.055c0-.028.026-.055.056-.055v-.2a.258.258 0 00-.256.255h.2zm0 2.868v-2.868h-.2V32.2h.2zm.056.055a.058.058 0 01-.056-.055h-.2c0 .14.117.255.256.255v-.2zm9.767 0h-9.767v.2h9.767v-.2z" fill="#EF3F3E"/><path fill-rule="evenodd" clip-rule="evenodd" d="M10.052 3.795h.84v1.496c0 .938.947 1.308 1.447 1.373a.32.32 0 00.042.003h9.238c.014 0 .028 0 .042-.003.5-.064 1.448-.434 1.448-1.373V3.795h.84a.323.323 0 00.324-.322v-.637l-.001-.032c-.038-.376-.415-1.087-1.569-1.087H20.73C20.595 1.363 20.25 1 19.618 1h-5.236c-.632 0-.976.363-1.113.717h-1.973c-1.153 0-1.53.711-1.568 1.087a.309.309 0 00-.001.032v.637c0 .178.145.322.325.322zm12.407 0v.152H11.542v-.152H22.46zm-10.917.796v.152H22.46v-.152H11.542zm10.053 1.431h-9.19c-.117-.019-.777-.15-.856-.634h10.902c-.078.485-.736.614-.856.634zm-10.298-3.66c-.792 0-.907.424-.92.495v.293h13.247v-.292c-.016-.08-.135-.497-.92-.497h-2.23a.324.324 0 01-.324-.301c-.009-.095-.074-.415-.532-.415h-5.236c-.481 0-.527.345-.532.414a.324.324 0 01-.324.302h-2.23z" fill="#EF3F3E"/><path d="M10.891 3.795h.1v-.1h-.1v.1zm1.448 2.87l.014-.1-.014.1zm9.322 0l-.013-.1.013.1zm1.448-2.87v-.1h-.1v.1h.1zm1.163-.991l-.1.01.1-.01zM20.73 1.717l-.094.036.025.064h.069v-.1zm-7.462 0v.1h.069l.025-.064-.094-.036zM9.73 2.804l.099.01-.1-.01zm12.73 1.143v.1h.1v-.1h-.1zm0-.152h.1v-.1h-.1v.1zm-10.917.152h-.1v.1h.1v-.1zm0-.152v-.1h-.1v.1h.1zm0 .948h-.1v.1h.1v-.1zm0-.152v-.1h-.1v.1h.1zm10.917.152v.1h.1v-.1h-.1zm0-.152h.1v-.1h-.1v.1zm-.864 1.431v.1h.008l.008-.001-.016-.099zm-9.19 0l-.016.099.008.001h.008v-.1zm-.856-.634v-.1h-.117l.018.116.099-.016zm10.902 0l.098.016.019-.116h-.117v.1zm-12.074-2.53l-.098-.02-.002.01v.01h.1zm0 .292h-.1v.1h.1v-.1zm13.246 0v.1h.1v-.1h-.1zm0-.292h.1v-.01l-.001-.008-.099.018zM20.15 2.06l.1-.007V2.05l-.1.01zm-6.3 0l-.1-.007.1.006zm-2.959 1.635h-.84v.2h.84v-.2zm.1 1.596V3.795h-.2v1.496h.2zm1.361 1.274a1.985 1.985 0 01-.866-.34c-.28-.205-.495-.504-.495-.934h-.2c0 .509.26.863.578 1.095.316.23.694.343.957.378l.026-.199zm.03.002c-.011 0-.02 0-.03-.002l-.026.198c.02.003.038.004.055.004v-.2zm4.618 0h-4.619v.2h4.62v-.2zm4.619 0H17v.2h4.619v-.2zm.029-.002a.218.218 0 01-.03.002v.2a.36.36 0 00.056-.004l-.026-.198zm1.36-1.274c0 .43-.214.73-.494.934-.283.206-.628.31-.866.34l.026.199c.263-.034.642-.148.957-.378.32-.232.578-.586.578-1.095h-.2zm0-1.496v1.496h.2V3.795h-.2zm.94-.1h-.84v.2h.84v-.2zm.225-.222c0 .122-.1.222-.225.222v.2a.424.424 0 00.425-.422h-.2zm0-.637v.637h.2v-.637h-.2zm0-.022v.022h.2c0-.013 0-.028-.002-.043l-.199.021zm-1.47-.997c.555 0 .913.17 1.135.376.225.207.317.456.334.62l.2-.02a1.228 1.228 0 00-.398-.747c-.264-.244-.672-.429-1.27-.429v.2zm-1.973 0h1.973v-.2H20.73v.2zM19.618 1.1c.585 0 .895.332 1.02.653l.186-.072c-.15-.387-.527-.781-1.206-.781v.2zM17 1.1h2.618V.9H17v.2zm-2.618 0H17V.9h-2.618v.2zm-1.02.653c.124-.321.435-.653 1.02-.653V.9c-.68 0-1.057.394-1.206.78l.187.073zm-2.066.064h1.973v-.2h-1.973v.2zm-1.468.997a1.02 1.02 0 01.334-.621c.222-.206.58-.376 1.134-.376v-.2c-.598 0-1.006.185-1.27.429a1.227 1.227 0 00-.397.748l.199.02zm-.001.022v-.022l-.198-.02a.407.407 0 00-.002.042h.2zm0 .637v-.637h-.2v.637h.2zm.225.222a.224.224 0 01-.225-.222h-.2c0 .234.19.422.425.422v-.2zm12.507.252v-.152h-.2v.152h.2zm-11.017.1H22.46v-.2H11.542v.2zm-.1-.252v.152h.2v-.152h-.2zm11.017-.1H11.542v.2H22.46v-.2zM11.642 4.743v-.152h-.2v.152h.2zm10.817-.1H11.542v.2H22.46v-.2zm-.1-.052v.152h.2v-.152h-.2zm-10.817.1H22.46v-.2H11.542v.2zM17 6.122h4.595v-.2H17v.2zm-4.595 0H17v-.2h-4.595v.2zm-.955-.718c.047.289.267.464.468.565.202.102.408.142.471.152l.033-.197a1.539 1.539 0 01-.414-.134c-.178-.09-.329-.222-.36-.418l-.198.032zm11-.116h-10.9v.2h10.902v-.2zm-.839.833c.064-.01.27-.05.473-.152.2-.101.419-.276.465-.565l-.197-.032c-.032.196-.181.329-.358.418a1.542 1.542 0 01-.416.134l.033.197zM10.475 2.876a.412.412 0 01.136-.219c.107-.095.308-.196.686-.196v-.2c-.415 0-.667.112-.819.247a.61.61 0 00-.2.33l.197.038zm.002.274v-.293h-.2v.293h.2zm.74-.1h-.84v.2h.84v-.2zm11.567 0H11.217v.2h11.567v-.2zm.84 0h-.84v.2h.84v-.2zm-.1-.192v.292h.2v-.292h-.2zm-.82-.397c.374 0 .575.1.682.194a.415.415 0 01.14.222l.196-.037a.613.613 0 00-.204-.335c-.152-.134-.404-.244-.814-.244v.2zm-2.23 0h2.23v-.2h-2.23v.2zm-.424-.395a.424.424 0 00.425.395v-.2a.224.224 0 01-.225-.208l-.2.013zm-.432-.321c.203 0 .303.069.357.135.057.07.072.151.075.189l.2-.019a.564.564 0 00-.12-.296c-.096-.118-.256-.21-.512-.21v.2zm-2.618 0h2.618v-.2H17v.2zm-2.618 0H17v-.2h-2.618v.2zm-.432.32a.347.347 0 01.067-.179c.051-.067.152-.141.365-.141v-.2c-.268 0-.43.098-.524.22a.546.546 0 00-.108.288l.2.013zm-.424.396c.223 0 .41-.172.424-.395l-.2-.013a.224.224 0 01-.224.208v.2zm-2.23 0h2.23v-.2h-2.23v.2z" fill="#EF3F3E"/></svg>