<svg width="32" height="32" fill="none" xmlns="http://www.w3.org/2000/svg"><path fill-rule="evenodd" clip-rule="evenodd" d="M15.498 1.5a.999.999 0 00-.998.999v2.014c-.5.042-.951.193-1.305.458A1.689 1.689 0 0012.5 6.35v7.15H9.803A2.303 2.303 0 007.5 15.803v.394A2.303 2.303 0 009.803 18.5H11.5v3h1v7.367c0 1 .968 1.633 1.916 1.633H15.5a.5.5 0 000-1h-1.084c-.616 0-.916-.382-.916-.633V26.5h2v1.3c0 .21.108.359.196.441a.835.835 0 00.264.165c.163.065.354.094.539.094h1.002c.185 0 .376-.03.538-.094a.835.835 0 00.265-.165.607.607 0 00.196-.44V26.5h1v-5h1v-3h1.697a2.303 2.303 0 002.303-2.303v-.394a2.303 2.303 0 00-2.303-2.303H19.5V6.35c0-.57-.26-1.053-.695-1.379-.355-.266-.81-.417-1.311-.459V2.499a.999.999 0 00-.998-.999h-.997zm0 1h.002v1.994h.994V2.5h-.996zm.996-.001zm-2.699 3.272a.69.69 0 00-.295.579v7.15h5V6.35a.69.69 0 00-.295-.579c-.207-.155-.543-.271-1.005-.271h-2.4c-.462 0-.798.116-1.005.271zm2.844 16.932H18.5V21.5h-5v1.846h1.278a.5.5 0 110 1H13.5V25.5h5v-1.797h-1.861a.5.5 0 110-1zM18.5 17.5v-3h-5v3h5zm-6 0v-3H9.803A1.303 1.303 0 008.5 15.803v.394A1.303 1.303 0 009.803 17.5H12.5zm7 0h2.697a1.303 1.303 0 001.303-1.303v-.394a1.303 1.303 0 00-1.303-1.303H19.5v3zm-1 1h-6v2h7v-2h-1z" fill="#EF3F3E"/><path d="M14.5 4.513l.013.149.137-.012v-.137h-.15zm-1.305.458l.09.12-.09-.12zM12.5 13.5v.15h.15v-.15h-.15zm-4.238.591l.1.112-.1-.112zm0 3.818l-.1.111.1-.111zm3.238.591h.15v-.15h-.15v.15zm0 3h-.15v.15h.15v-.15zm1 0h.15v-.15h-.15v.15zm0 2.329l.15.002v-.002h-.15zm0 .017l-.15-.003v.006l.15-.003zm0 .017h.15v-.002l-.15.002zm1 2.637v-.15h-.15v.15h.15zm2 0h.15v-.15h-.15v.15zm.196 1.741l.103-.109-.103.11zm.264.165l.056-.14-.055.14zm2.08 0l-.056-.14.055.14zm.264-.165l-.103-.109.103.11zM18.5 26.5v-.15h-.15v.15h.15zm1 0v.15h.15v-.15h-.15zm0-5v-.15h-.15v.15h.15zm1 0v.15h.15v-.15h-.15zm0-3v-.15h-.15v.15h.15zm3.238-.591l.1.111-.1-.111zm0-3.818l-.1.112.1-.112zM19.5 13.5h-.15v.15h.15v-.15zm-.695-8.529l.09-.12-.09.12zm-1.311-.459h-.15v.138l.138.012.012-.15zM15.499 2.5l-.004.15h.004V2.5zm.001 1.994h-.15v.15h.15v-.15zm.994 0v.15h.15v-.15h-.15zm0-1.994h.15v-.15h-.15v.15zm-.994 0l.127-.08-.069-.11-.12.052.062.138zm0 0l.044.143.008-.003.008-.003-.06-.137zm-.002 0l.033.147.012-.004-.044-.143zm0 0l-.032-.146.029.296.003-.15zm.996 0l-.084.123.234.16V2.5h-.15zm0-.001h.15-.15zm0 0l-.094.117.002.002.092-.119zm0 0l.106-.105-.106.106zm0 0l.127-.08-.127.08zm0 0l.139-.058-.023-.053-.053-.025-.063.137zm0 0l.148.025.005-.03-.007-.03-.146.035zm0 0l.146-.036-.296.036h.15zM13.795 5.77l-.09-.12.09.12zM13.5 13.5h-.15v.15h.15v-.15zm5 0v.15h.15v-.15h-.15zm0 9.203v.15h.15v-.15h-.15zm0-1.203h.15v-.15h-.15v.15zm-5 0v-.15h-.15v.15h.15zm0 1.846h-.15v.15h.15v-.15zm0 1v-.15h-.15v.15h.15zm0 1.154h-.15v.15h.15v-.15zm5 0v.15h.15v-.15h-.15zm0-1.797h.15v-.15h-.15v.15zm0-9.203h.15v-.15h-.15v.15zm0 3v.15h.15v-.15h-.15zm-5-3v-.15h-.15v.15h.15zm0 3h-.15v.15h.15v-.15zm-1-3h.15v-.15h-.15v.15zm0 3v.15h.15v-.15h-.15zm-3.569-2.665l-.1-.112.1.111zm0 2.33l-.1.112.1-.111zM19.5 17.5h-.15v.15h.15v-.15zm3.569-.334l.1.111-.1-.111zm0-2.332l.1-.111-.1.111zM19.5 14.5v-.15h-.15v.15h.15zm-7 4v-.15h-.15v.15h.15zm0 2h-.15v.15h.15v-.15zm7 0v.15h.15v-.15h-.15zm0-2h.15v-.15h-.15v.15zM14.65 2.499a.85.85 0 01.848-.849v-.3c-.634 0-1.148.515-1.148 1.149h.3zm0 2.014V2.499h-.3v2.014h.3zm-1.365.578c.326-.244.75-.388 1.228-.429l-.026-.299c-.52.044-1.001.203-1.382.488l.18.24zM12.65 6.35c0-.52.236-.96.635-1.259l-.18-.24c-.47.353-.755.88-.755 1.499h.3zm0 7.15V6.35h-.3v7.15h.3zm-2.847.15H12.5v-.3H9.803v.3zm-1.44.553a2.153 2.153 0 011.44-.553v-.3c-.606 0-1.19.224-1.641.63l.2.223zm-.713 1.6c0-.61.259-1.192.713-1.6l-.201-.223a2.453 2.453 0 00-.812 1.823h.3zm0 .394v-.394h-.3v.394h.3zm.713 1.6a2.153 2.153 0 01-.713-1.6h-.3c0 .695.295 1.358.812 1.823l.2-.223zm1.44.553a2.153 2.153 0 01-1.44-.553l-.201.223a2.45 2.45 0 001.641.63v-.3zm1.697 0H9.803v.3H11.5v-.3zm.15 2.65v-2.5h-.3V21h.3zm0 .5V21h-.3v.5h.3zm.35-.15h-.5v.3h.5v-.3zm.5 0H12v.3h.5v-.3zm.15 2.479V21.5h-.3v2.329h.3zm0 .02v-.018l-.3-.005v.017l.3.006zm0 .012v-.018l-.3.006v.017l.3-.005zm0 2.139v-2.137h-.3V26h.3zm0 .5V26h-.3v.5h.3zm0 2.367V26.5h-.3v2.367h.3zm1.766 1.483c-.901 0-1.766-.597-1.766-1.483h-.3c0 1.115 1.07 1.783 2.066 1.783v-.3zm.792 0h-.792v.3h.792v-.3zm.292 0h-.292v.3h.292v-.3zm.35-.35a.35.35 0 01-.35.35v.3a.65.65 0 00.65-.65h-.3zm-.35-.35a.35.35 0 01.35.35h.3a.65.65 0 00-.65-.65v.3zm-.292 0h.292v-.3h-.292v.3zm-.792 0h.792v-.3h-.792v.3zm-1.066-.783c0 .358.394.783 1.066.783v-.3c-.56 0-.766-.339-.766-.483h-.3zm0-2.367v2.367h.3V26.5h-.3zm2.15-.15h-2v.3h2v-.3zm.15.65v-.5h-.3v.5h.3zm0 .8V27h-.3v.8h.3zm.149.332a.457.457 0 01-.149-.332h-.3c0 .265.137.45.243.55l.206-.218zm.217.134a.686.686 0 01-.217-.134l-.206.218c.104.1.221.159.312.195l.111-.279zm.483.084a1.33 1.33 0 01-.483-.084l-.111.279c.184.074.395.105.594.105v-.3zm1.002 0h-1.002v.3h1.002v-.3zm.483-.084a1.33 1.33 0 01-.483.084v.3c.2 0 .41-.031.594-.105l-.111-.279zm.217-.134a.686.686 0 01-.217.134l.111.279a.985.985 0 00.312-.195l-.206-.218zm.149-.332c0 .155-.08.267-.149.332l.206.218a.757.757 0 00.243-.55h-.3zm0-.8v.8h.3V27h-.3zm0-.5v.5h.3v-.5h-.3zm.65-.15h-.5v.3h.5v-.3zm.5 0H19v.3h.5v-.3zm-.15-.35v.5h.3V26h-.3zm0-2.797V26h.3v-2.797h-.3zm0-1.703v1.703h.3V21.5h-.3zm.65-.15h-.5v.3h.5v-.3zm.5 0H20v.3h.5v-.3zm-.15-.35v.5h.3V21h-.3zm0-2.5V21h.3v-2.5h-.3zm1.847-.15H20.5v.3h1.697v-.3zm1.44-.553a2.153 2.153 0 01-1.44.553v.3c.606 0 1.19-.224 1.641-.63l-.2-.223zm.713-1.6c0 .61-.259 1.192-.713 1.6l.201.223a2.453 2.453 0 00.812-1.823h-.3zm0-.394v.394h.3v-.394h-.3zm-.713-1.6c.454.408.713.99.713 1.6h.3c0-.695-.295-1.358-.812-1.823l-.2.223zm-1.44-.553a2.15 2.15 0 011.44.553l.201-.223a2.453 2.453 0 00-1.641-.63v.3zm-2.697 0h2.697v-.3H19.5v.3zm-.15-7.3v7.15h.3V6.35h-.3zm-.635-1.259c.399.3.635.739.635 1.259h.3c0-.62-.284-1.146-.755-1.499l-.18.24zm-1.233-.43c.48.04.905.185 1.233.43l.18-.24c-.382-.286-.865-.445-1.389-.488l-.024.299zM17.344 2.5v2.013h.3V2.499h-.3zm-.849-.849c.47 0 .849.38.849.849h.3c0-.634-.514-1.149-1.148-1.149v.3zm-.997 0h.998v-.3h-.997v.3zm.002.7h-.002v.3h.002v-.3zm-.15.15v1.994h.3V2.5h-.3zm.15 2.144h.994v-.3H15.5v.3zm1.144-.15V2.5h-.3v1.994h.3zm-.15-2.144H15.5v.3h.994v-.3zm-1.122.229l.255-.158-.255.158zm.188.058l-.121-.275.121.275zm-.017.006h.001l-.089-.287h-.001l.089.287zm-.012.003l-.065-.292.065.292zm-.03-.296l-.006.3.007-.3zm1.143.15V2.5h-.3.3zm-.056-.118c-.002 0-.006-.004-.011-.008l-.006-.003-.008-.005a.157.157 0 00-.04-.014.15.15 0 00-.155.229c.007.01.015.019.017.02a.114.114 0 00.016.016.021.021 0 00.009.006l.168-.248a.137.137 0 01.018.015l.008.007a.15.15 0 01.024.17.15.15 0 01-.162.08.087.087 0 01-.03-.01.155.155 0 01-.01-.004l-.009-.005a.097.097 0 01-.006-.004c-.005-.003-.01-.006-.01-.008l.187-.234zm.012.011a.162.162 0 00-.014-.012l-.184.237a.14.14 0 01-.014-.012l.212-.213zm-.232.188l.002.002.004.006.003.004.007.009.012.011c.001.001.02.018.05.029a.26.26 0 00.103-.003.26.26 0 00.09-.097.27.27 0 00.005-.056.271.271 0 00-.004-.023.13.13 0 00-.01-.026l-.003-.007-.003-.006a.135.135 0 00-.005-.008l-.006-.008a.18.18 0 00-.013-.014l-.212.212a.141.141 0 01-.026-.036l-.004-.007s-.005-.011-.009-.026a.268.268 0 01-.004-.023c0-.011.002-.04.006-.057a.26.26 0 01.089-.097.264.264 0 01.103-.002c.03.01.049.028.05.029l.012.011.007.009a.131.131 0 01.007.01l.002.002-.253.162zm-.012-.023a.148.148 0 00.013.024l.251-.164.005.008a.155.155 0 01.008.015l-.277.117zm.075.078l.126-.273-.126.273zm-.085-.162l.296.05-.296-.05zm.002.06v.001l.292-.072-.292.072zm.296-.036l-.3.001h.3zM13.65 6.35c0-.19.076-.34.235-.459l-.18-.24a.84.84 0 00-.355.699h.3zm0 7.15V6.35h-.3v7.15h.3zm4.85-.15h-5v.3h5v-.3zm-.15-7v7.15h.3V6.35h-.3zm-.235-.459a.54.54 0 01.235.459h.3a.84.84 0 00-.355-.699l-.18.24zM17.2 5.65c.439 0 .74.11.915.241l.18-.24c-.24-.18-.61-.301-1.095-.301v.3zm-2.4 0h2.4v-.3h-2.4v.3zm-.915.241c.175-.13.476-.241.915-.241v-.3c-.486 0-.856.122-1.095.301l.18.24zM18.5 22.553h-1.861v.3H18.5v-.3zm-.15-1.053v1.203h.3V21.5h-.3zm-4.85.15h5v-.3h-5v.3zm.15 1.696V21.5h-.3v1.846h.3zm1.128-.15H13.5v.3h1.278v-.3zm.65.65a.65.65 0 00-.65-.65v.3a.35.35 0 01.35.35h.3zm-.65.65a.65.65 0 00.65-.65h-.3a.35.35 0 01-.35.35v.3zm-1.278 0h1.278v-.3H13.5v.3zm.15 1.004v-1.154h-.3V25.5h.3zm4.85-.15h-5v.3h5v-.3zm-.15-1.647V25.5h.3v-1.797h-.3zm-1.711.15H18.5v-.3h-1.861v.3zm-.65-.65c0 .36.29.65.65.65v-.3a.35.35 0 01-.35-.35h-.3zm.65-.65a.65.65 0 00-.65.65h.3a.35.35 0 01.35-.35v-.3zM18.35 14.5v3h.3v-3h-.3zm-4.85.15h5v-.3h-5v.3zm.15 2.85v-3h-.3v3h.3zm4.85-.15h-5v.3h5v-.3zm-6.15-2.85v3h.3v-3h-.3zm-2.547.15H12.5v-.3H9.803v.3zm-.771.296c.211-.19.486-.296.771-.296v-.3c-.359 0-.705.133-.972.373l.2.223zm-.382.857c0-.327.139-.638.382-.857l-.201-.223a1.453 1.453 0 00-.481 1.08h.3zm0 .394v-.394h-.3v.394h.3zm.382.857a1.153 1.153 0 01-.382-.857h-.3c0 .412.175.805.481 1.08l.2-.223zm.771.296c-.285 0-.56-.105-.771-.296l-.201.223c.267.24.613.373.972.373v-.3zm1.697 0H9.803v.3H11.5v-.3zm.5 0h-.5v.3h.5v-.3zm.5 0H12v.3h.5v-.3zm7.5 0h-.5v.3h.5v-.3zm.5 0H20v.3h.5v-.3zm1.697 0H20.5v.3h1.697v-.3zm.771-.296c-.211.19-.486.296-.771.296v.3c.359 0 .705-.133.972-.373l-.2-.223zm.382-.857c0 .327-.139.638-.382.857l.201.223c.306-.276.481-.668.481-1.08h-.3zm0-.394v.394h.3v-.394h-.3zm-.382-.857c.243.219.382.53.382.857h.3c0-.412-.175-.805-.481-1.08l-.2.223zm-.771-.296c.285 0 .56.105.771.296l.201-.223a1.453 1.453 0 00-.972-.373v.3zm-2.697 0h2.697v-.3H19.5v.3zm.15 2.85v-3h-.3v3h.3zm-6.15 1.15h5v-.3h-5v.3zm-.5 0h.5v-.3H13v.3zm-.5 0h.5v-.3h-.5v.3zm.15 1.85v-2h-.3v2h.3zm.35-.15h-.5v.3h.5v-.3zm6 0h-6v.3h6v-.3zm.5 0H19v.3h.5v-.3zm-.15-1.85v2h.3v-2h-.3zm-.35.15h.5v-.3H19v.3zm-.5 0h.5v-.3h-.5v.3zM15.372 2.579l.255-.158-.255.158z" fill="#EF3F3E"/></svg>