<svg width="32" height="32" fill="none" xmlns="http://www.w3.org/2000/svg"><path fill-rule="evenodd" clip-rule="evenodd" d="M26.112 3.678c.302.062.57.235.753.484.352.125.686.294.996.504a1.134 1.134 0 011.165 1.165c.21.31.38.646.506.999a1.105 1.105 0 01.257 1.612c-.01.374-.067.745-.17 1.105.091.292.073.607-.052.886-.15.264-.393.463-.682.558-.115.15-.24.295-.372.43l-.477.476a1.341 1.341 0 01-.263.397.971.971 0 01-.247.18.945.945 0 01-.099.032l-13.11 13.11c-.046.285-.175.55-.37.761a1.58 1.58 0 01-.876.396 7.56 7.56 0 01-1.019.68 1.553 1.553 0 01-.691.652 1.592 1.592 0 01-.975.022 7.738 7.738 0 01-1.18.231 1.577 1.577 0 01-.902.343 1.591 1.591 0 01-.906-.35 7.777 7.777 0 01-1.178-.235 1.585 1.585 0 01-.972-.028 1.558 1.558 0 01-.685-.642 7.638 7.638 0 01-1.039-.697 1.366 1.366 0 01-1.263-1.259 7.692 7.692 0 01-.695-1.041 1.559 1.559 0 01-.647-.69 1.56 1.56 0 01-.033-.946 7.725 7.725 0 01-.242-1.222 1.566 1.566 0 01-.337-.888 1.56 1.56 0 01.333-.888c.046-.412.125-.82.237-1.22a1.557 1.557 0 01.029-.946c.138-.29.363-.53.645-.686.2-.365.432-.713.69-1.04.038-.32.175-.62.392-.86.239-.217.54-.354.861-.392.327-.26.675-.49 1.04-.692.156-.28.395-.505.685-.643.235-.088.49-.11.737-.064l16.786-8.555a1.15 1.15 0 01.515-.593c.284-.127.605-.144.903-.049.351-.1.714-.156 1.08-.167a1.25 1.25 0 01.872-.23zm2.47 3.8a1.704 1.704 0 01-.495-.548 1.678 1.678 0 01-.147-.72 3.28 3.28 0 00-.218-.241 3.347 3.347 0 00-.266-.22 1.637 1.637 0 01-.698-.145c-.214-.122-.4-.29-.543-.492a3.33 3.33 0 00-.644-.1 1.66 1.66 0 01-.662.295c-.237.026-.478 0-.704-.076-.21.08-.41.18-.599.302-.074.23-.197.443-.36.62a1.914 1.914 0 01-.75.41 2.356 2.356 0 00-.288.116c.02.106.047.211.081.314.237.53.14 1.15-.248 1.582a2.355 2.355 0 00-.169.272c.077.075.158.144.244.207.237.159.435.369.58.614.11.255.162.532.15.81 0 .113.01.226.029.338.111.019.225.028.338.028.278-.011.554.04.81.15.245.146.455.344.614.581.063.086.131.167.206.244.095-.05.186-.107.274-.17a1.467 1.467 0 011.581-.247c.061.02.14.041.214.058l.189-.189.029-.078c.077-.277.217-.532.407-.748.186-.168.406-.294.646-.367.114-.179.21-.368.286-.565a1.386 1.386 0 01.214-1.401 3.26 3.26 0 00-.1-.635zm-6.29 7.822l.39.39-.776.777-.39-.39-.777.777.39.39-.777.777-.39-.39-.777.777.39.39-.777.777-.39-.39-.777.777.39.39-2.351 2.351a.896.896 0 01-.01-.046l-.004-.018a1.525 1.525 0 01-.072-.452c.06-.144.14-.277.24-.396.26-.293.417-.662.45-1.053a1.818 1.818 0 00-.455-1.053c-.1-.12-.182-.253-.242-.397 0-.154.024-.306.07-.452a1.81 1.81 0 00.013-1.152 1.818 1.818 0 00-.819-.797 1.524 1.524 0 01-.38-.28 1.525 1.525 0 01-.107-.439 1.839 1.839 0 00-.432-1.08 1.84 1.84 0 00-1.08-.434 1.508 1.508 0 01-.437-.108 1.5 1.5 0 01-.28-.38c-.17-.35-.45-.636-.795-.816a1.816 1.816 0 00-1.153.012c-.146.046-.298.07-.451.07a1.535 1.535 0 01-.397-.242 4.467 4.467 0 00-.341-.227l2.268-1.155.27.495.965-.528-.255-.463.979-.498.24.437.964-.527-.224-.414.978-.498.21.382.964-.528-.195-.35.978-.498.18.325.963-.527-.163-.297 3.004-1.53c.022.176.061.35.117.52.038.11.065.224.078.34-.048.11-.109.213-.18.308a1.474 1.474 0 00-.359 1.063c.096.378.337.703.671.904.1.07.191.15.272.241.022.112.033.227.03.341-.032.396.093.79.347 1.095.307.254.7.378 1.096.345.114-.003.228.007.34.028.091.081.173.173.242.273.174.36.512.612.906.674.395.063.793-.073 1.067-.362.057-.039.139-.094.206-.133l-2.487 2.487-.39-.39-.777.777zm-9.686 10.432a.548.548 0 01.101-.067l.587-.587c.027-.293.119-.576.268-.83.192-.25.437-.457.718-.602.138-.072.264-.165.373-.276a1.4 1.4 0 00-.07-.472 2.135 2.135 0 01-.085-.929c.08-.305.227-.589.43-.83.101-.12.183-.257.24-.404a1.403 1.403 0 00-.242-.405 2.158 2.158 0 01-.433-.833 2.13 2.13 0 01.08-.929 1.37 1.37 0 00.068-.47 1.445 1.445 0 00-.373-.278 2.181 2.181 0 01-.721-.605 2.116 2.116 0 01-.28-.881 1.346 1.346 0 00-.122-.47 1.347 1.347 0 00-.467-.126 2.11 2.11 0 01-.88-.279 2.172 2.172 0 01-.606-.72 1.494 1.494 0 00-.277-.374c-.16-.005-.32.018-.471.067a2.15 2.15 0 01-.929.082 2.164 2.164 0 01-.832-.433 1.395 1.395 0 00-.405-.242 1.392 1.392 0 00-.405.24c-.241.203-.525.35-.83.43-.31.04-.624.012-.922-.082l-.313.157c-.172.07-.336.149-.496.232a1.932 1.932 0 01-.551.629 1.92 1.92 0 01-.788.261l-.002.001c-.122.106-.245.211-.363.33a6.25 6.25 0 00-.314.345l-.018.022a1.906 1.906 0 01-.261.786 1.935 1.935 0 01-.63.553c-.145.29-.268.591-.368.9.08.269.1.55.06.827a1.922 1.922 0 01-.369.745 6.82 6.82 0 00.002.98c.176.22.303.474.372.747.041.277.022.56-.056.828.101.309.226.61.372.9.248.137.464.327.632.555.144.24.234.51.264.788l.013.016c.104.12.208.24.32.353.114.113.235.219.354.323l.012.01c.279.03.548.12.789.264.225.166.411.379.546.624.294.15.599.276.911.38.268-.079.55-.098.826-.057.267.066.516.19.732.36a6.59 6.59 0 001.012.003 1.9 1.9 0 01.73-.357c.274-.04.553-.02.818.057.318-.103.626-.231.924-.382.093-.16.205-.31.332-.444.063-.063.131-.12.205-.17.24-.143.51-.232.788-.26zM9.85 22.281a2.202 2.202 0 01-3.114-.007 2.202 2.202 0 01-.007-3.114 2.202 2.202 0 013.114.006c.862.862.865 2.256.007 3.115zM24.226 9.465a1.652 1.652 0 01-.005-2.336 1.652 1.652 0 012.336.005c.646.647.649 1.692.005 2.336a1.652 1.652 0 01-2.336-.005zM6.521 15.498a5.492 5.492 0 015.653 1.338c2.155 2.154 2.162 5.64.017 7.786-2.146 2.145-5.631 2.137-7.786-.017-2.155-2.155-2.162-5.64-.017-7.786l.78.78a4.402 4.402 0 00-.32 5.85 4.412 4.412 0 005.775 1.016 4.392 4.392 0 001.648-5.617 4.421 4.421 0 00-5.397-2.306l-.353-1.044z" fill="#EF3F3E"/><path d="M26.865 4.162l-.121.088.027.038.043.015.05-.141zm-.753-.484l.03-.147-.006-.002h-.007l-.017.149zm1.749.988l-.084.124.04.027h.048l-.004-.15zm1.165 1.165l-.15-.004-.001.049.027.04.124-.085zm.506.999l-.142.05.017.047.041.027.084-.124zm.482.75l-.149.024.149-.023zm-.226.861l-.117-.093-.031.04-.001.05.15.003zm-.168 1.106l-.145-.042-.012.043.013.043.144-.044zm-.053.886l.13.075.004-.007.003-.006-.137-.062zm-.682.558l-.047-.143-.044.015-.029.037.12.09zm-.372.43l.106.106v-.001l-.106-.105zm-.477.476l-.106-.106-.02.02-.012.027.138.06zm-.263.397l.107.106.002-.002-.109-.104zm-.247.18l.053.14.008-.002.007-.004-.068-.133zm-.099.032l-.037-.145-.04.01-.029.029.106.106zm-13.11 13.11l-.105-.107-.035.035-.007.047.148.025zm-.37.761l.1.112.01-.01-.11-.102zm-.876.396l-.017-.15-.043.005-.033.027.093.118zm-1.019.68l-.072-.132-.038.021-.02.038.13.072zm-.691.652l.049.141.008-.002.007-.004-.065-.135zm-.975.022l.043-.144-.041-.012-.042.011.04.145zm-1.18.231l-.018-.149-.043.005-.033.027.093.117zm-.902.343l-.008.15h.016l-.008-.15zm-.906-.35l.095-.117-.034-.027-.043-.005-.018.149zm-1.178-.235l.041-.144-.041-.012-.042.012.042.144zm-.972-.028l-.065.136.007.003.008.003.05-.142zm-.685-.642l.131-.073-.02-.037-.038-.02-.073.13zm-1.039-.697l.094-.117-.037-.029-.046-.003-.01.15zM2.261 25.49l.15-.01-.004-.047-.029-.036-.117.093zm-.695-1.041l.131-.073-.02-.038-.038-.02-.073.13zm-.647-.69l-.142.051.003.008.003.007.136-.065zm-.033-.946l.144.04.012-.04-.012-.041-.144.04zM.644 21.59l.15-.017-.006-.042-.026-.034-.118.093zm-.337-.888l-.15-.008v.016l.15-.008zm.333-.888l.118.093.027-.033.004-.043-.149-.017zm.237-1.22l.144.04.012-.04-.012-.041-.144.041zm.029-.946l-.136-.064-.003.007-.003.007.142.05zm.645-.686l.073.13.037-.02.021-.038-.131-.072zm.69-1.04l.117.094.026-.034.005-.042-.148-.018zm.392-.86l-.101-.11-.006.004-.004.005.11.101zm.861-.392l.018.15.042-.006.034-.026-.094-.118zm1.04-.692l.072.13.038-.02.02-.037-.13-.073zm.685-.643l-.053-.14-.011.005.064.135zm.737-.064l-.028.148.05.01.046-.024-.068-.134zm16.786-8.555l.068.133.051-.026.02-.053-.14-.054zm.515-.593l-.061-.138-.012.007.073.13zm.903-.049l-.046.143.043.014.044-.013-.041-.144zm1.08-.167l.005.15.046-.001.037-.027-.088-.122zm2.847 3.022l-.137.062.003.006.004.007.13-.075zm.495.547l.146-.038-.014-.053-.045-.031-.087.122zM27.94 6.21l.15.003.001-.055-.035-.043-.116.095zm-.218-.241l.106-.106-.005-.005-.1.11zm-.266-.22l.09-.12-.041-.03h-.051l.002.15zm-.698-.145l-.074.13.012.007.062-.137zm-.543-.492l.123-.087-.032-.044-.053-.014-.038.145zm-.644-.1l.008-.15-.054-.003-.044.032.09.12zm-.662.295l.017.15.013-.003-.03-.147zm-.704-.076l.048-.143-.051-.017-.05.02.053.14zm-.599.302l-.081-.126-.046.029-.016.051.143.046zm-.36.62l.1.113.005-.005.005-.006-.11-.101zm-.75.41l-.04-.145-.007.002.047.142zm-.288.116l-.065-.135-.103.05.02.112.148-.027zm.081.314l-.142.047.002.007.003.007.137-.061zm-.248 1.582l-.111-.1-.006.005-.005.007.122.088zm-.169.272l-.132-.07-.053.1.08.078.105-.108zm.244.207l-.089.12.005.004.084-.124zm.58.614l.138-.06-.004-.008-.004-.009-.13.077zm.15.81l-.15-.006v.006h.15zm.029.338l-.148.025.017.106.106.017.024-.148zm.338.028v.15h.006l-.006-.15zm.81.15l.077-.129-.009-.005-.009-.003-.06.137zm.614.581l-.125.084.004.004.12-.088zm.206.244l-.108.104.078.08.1-.051-.07-.133zm.274-.17l.087.122.007-.005.006-.005-.1-.112zm1.581-.247l-.061.137.008.003.008.003.045-.143zm.214.058l-.034.146.081.02.06-.06-.107-.106zm.189-.189l.106.107.023-.024.011-.03-.14-.053zm.029-.078l.141.053.003-.012-.144-.04zm.407-.748l-.1-.11-.007.005-.005.006.112.1zm.646-.367l.044.143.053-.016.03-.047-.127-.08zm.286-.565l.14.054.022-.055-.023-.055-.139.056zm.214-1.401l.116.095.037-.045-.003-.06-.15.01zm-6 7.578l.106.106.106-.106-.106-.106-.106.106zm-.39-.39l-.106-.106-.107.106.107.106.106-.106zm-.387 1.167l-.106.106.106.106.106-.106-.106-.106zm-.39-.39l.106-.106-.106-.106-.106.106.106.106zm-.777.777l-.106-.106-.106.106.106.106.106-.106zm.39.39l.106.106.106-.106-.106-.106-.106.106zm-.777.777l-.106.106.106.106.106-.106-.106-.106zm-.39-.39l.106-.106-.106-.106-.106.106.106.106zm-.777.777l-.106-.106-.106.106.106.106.106-.106zm.39.39l.106.106.106-.106-.106-.106-.106.106zm-.777.777l-.106.106.106.106.106-.106-.106-.106zm-.39-.39l.106-.106-.106-.106-.106.106.106.106zm-.777.777l-.106-.106-.106.106.106.106.106-.106zm.39.39l.106.106.106-.106-.106-.106-.106.106zm-2.351 2.351l-.145.038.066.253.185-.185-.106-.106zm-.01-.046l.146-.03-.146.03zm-.004-.018l.147-.03-.002-.008-.002-.007-.143.045zm-.072-.452l-.139-.058-.011.028v.03h.15zm.24-.396l-.113-.1-.002.004.115.096zm.45-1.053l.15.013v-.025l-.15.012zm-.455-1.053l-.115.096.003.004.112-.1zm-.242-.397h-.15v.03l.012.027.138-.057zm.07-.452l-.142-.05-.001.005.143.045zm.013-1.152l.143-.046-.004-.012-.006-.012-.133.07zm-.819-.797l-.07.133.005.001.065-.134zm-.38-.28l-.138.057.01.027.022.022.106-.106zm-.107-.439l-.15.009v.005l.15-.014zm-.432-1.08l.115-.097-.008-.01-.01-.008-.097.115zm-1.08-.434l-.013.15h.005l.009-.15zm-.437-.108l-.106.107.021.02.027.012.058-.139zm-.28-.38l-.135.066.002.004.133-.07zm-.795-.816l.07-.133-.012-.006-.012-.004-.046.143zm-1.153.012l.045.143h.005l-.05-.143zm-.451.07l-.058.139.028.011h.03v-.15zm-.397-.242l.096-.115-.008-.005-.088.12zm-.341-.227l-.068-.133-.241.122.232.14.077-.129zm2.268-1.155l.132-.072-.07-.128-.13.066.068.133zm.27.495l-.131.072.071.132.132-.072-.072-.132zm.965-.528l.072.132.131-.072-.072-.132-.131.072zm-.255-.463l-.068-.134-.137.07.074.136.131-.072zm.979-.498l.131-.072-.07-.128-.13.066.069.134zm.24.437l-.132.072.072.132.132-.072-.072-.132zm.964-.527l.072.132.132-.072-.072-.131-.132.071zm-.224-.414l-.068-.133-.137.07.073.135.132-.072zm.978-.498l.132-.072-.07-.127-.13.066.068.133zm.21.382l-.131.072.072.131.131-.072-.072-.131zm.964-.528l.072.132.133-.072-.074-.133-.13.073zm-.195-.35l-.068-.134-.139.07.076.137.131-.073zm.978-.498l.132-.072-.07-.128-.13.066.068.134zm.18.325l-.132.072.072.131.131-.071-.072-.132zm.963-.527l.072.132.132-.072-.072-.132-.132.072zm-.163-.297l-.068-.134-.138.07.075.136.13-.072zm3.004-1.53l.149-.02-.027-.211-.19.097.068.133zm.117.52l-.143.046.001.003.142-.05zm.078.34l.137.061.017-.037-.005-.041-.149.017zm-.18.308l.112.098.007-.008-.12-.09zM20.77 9.02l-.15.01.002.014.003.013.145-.037zm.671.904l.086-.123-.008-.005-.078.128zm.272.241l.147-.03-.008-.04-.027-.03-.112.1zm.03.341l.15.012v-.01l-.15-.002zm.347 1.095l-.115.096.009.011.01.009.096-.116zm1.096.345l-.003-.15h-.01l.013.15zm.34.028l.099-.112-.03-.027-.04-.008-.03.147zm.242.273l.135-.065-.005-.01-.007-.01-.123.085zm1.973.312l-.084-.124-.014.01-.012.011.11.103zm.206-.133l.106.106-.181-.236.075.13zm-2.487 2.487l-.106.107.106.106.106-.106-.106-.107zm-.39-.39l.106-.106-.106-.106-.107.106.107.106zM12.707 25.665l.07.133.02-.01.016-.017-.106-.106zm-.1.067l.014.15.047-.005.035-.03-.097-.115zm.687-.654l.106.106.039-.039.005-.054-.15-.013zm.268-.83l-.119-.09-.005.007-.005.007.13.077zm.718-.602l.07.133-.07-.133zm.373-.276l.107.105.041-.043.002-.059-.15-.003zm-.07-.472l-.142.046v.001l.142-.047zm-.085-.929l-.145-.038-.002.01-.002.01.15.018zm.43-.83l-.115-.098v.001l.114.096zm.24-.404l.14.053.02-.054-.02-.054-.14.055zm-.242-.405l-.115.096v.001l.115-.097zm-.433-.833l-.149.02.001.01.003.009.145-.039zm.08-.929l-.142-.047v.002l.143.045zm.068-.47l.15-.005-.002-.058-.04-.042-.108.105zm-.373-.278l-.07.133.07-.133zm-.721-.605l-.13.075.005.008.006.008.119-.091zm-.28-.881l-.15.011.001.002.15-.013zm-.122-.47l.136-.063-.023-.049-.049-.023-.064.135zm-.467-.126l-.013.15.013-.15zm-.88-.279l-.09.12.007.005.008.005.075-.13zm-.606-.72l.133-.07-.133.07zm-.277-.374l.105-.107-.042-.041-.059-.002-.004.15zm-.471.067l.045.143h.001l-.046-.143zm-.929.082l-.039.145.01.002.01.001.02-.149zm-.832-.433l-.097.114.097-.114zm-.405-.242l.054-.14-.054-.02-.054.02.054.14zm-.405.24l.097.115-.097-.115zm-.83.43l.02.148.009-.001.009-.003-.038-.145zm-.922-.082l.046-.143-.058-.019-.055.027.067.135zm-.313.157l.057.139.01-.005-.067-.134zm-.496.232l-.069-.134-.04.021-.023.04.132.073zm-.551.629l.077.129.011-.008-.088-.121zm-.788.261l-.016-.15-.047.006-.035.03.098.114zm-.002.001l-.097-.114.097.114zm-.677.675l.114.098-.114-.098zm-.018.022l-.114-.098-.03.036-.006.047.15.015zm-.261.786l.121.09.008-.013-.129-.077zm-.63.553l-.072-.132-.042.023-.02.042.134.067zm-.368.9l-.143-.046-.014.044.013.045.144-.043zm.06.827l.145.036.002-.007.001-.007-.148-.022zm-.369.745l-.117-.094-.03.037-.003.047.15.01zm.002.98l-.15.011.004.047.03.036.116-.094zm.372.747l.148-.022v-.008l-.003-.007-.145.037zm-.056.828l-.144-.042-.013.044.014.045.143-.047zm.372.9l-.134.068.02.041.041.023.073-.132zm.632.555l.129-.077-.004-.006-.004-.006-.12.089zm.264.788l-.15.016.006.046.03.036.114-.098zm.013.016l.114-.098-.114.098zm.674.676l.099-.113-.099.113zm.012.01l-.1.113.037.031.047.005.016-.15zm.789.264l.089-.12-.006-.005-.006-.004-.077.129zm.546.624l-.131.072.022.04.041.022.068-.134zm.911.38l-.047.143.044.014.045-.013-.042-.144zm.826-.057l.036-.146-.007-.001-.007-.002-.022.149zm.732.36l-.094.118.036.029.046.003.012-.15zm1.012.003l.01.15.047-.004.036-.028-.093-.118zm.73-.357l-.022-.149-.007.001-.007.002.036.146zm.818.057l-.042.144.045.013.044-.014-.047-.143zm.924-.382l.068.134.04-.02.021-.039-.13-.075zm.332-.444l-.106-.106-.002.002.108.104zm.205-.17l-.078-.128-.006.004.084.125zm.356-9.157l-.106.105.106-.105zm-5.653-1.338l-.048-.142-.142.048.048.142.142-.048zm-2.133 1.32l.106-.105-.106-.106-.106.106.106.106zm.78.781l.107.106.106-.106-.106-.106-.106.106zm-.32 5.85l-.118.093.117-.093zm5.775 1.016l-.079-.128.08.128zm-3.75-7.923l-.141.048.047.142.142-.047-.047-.143zM26.987 4.073a1.397 1.397 0 00-.843-.542l-.061.293c.265.056.501.207.662.426l.242-.177zm.959.469a4.555 4.555 0 00-1.03-.521l-.1.282c.34.121.663.285.962.487l.168-.248zm.855.35a1.284 1.284 0 00-.943-.376l.008.3a.984.984 0 01.723.288l.212-.212zm.376.944a1.284 1.284 0 00-.376-.944l-.212.212a.984.984 0 01.288.723l.3.009zm.497.943a4.523 4.523 0 00-.523-1.032l-.248.169c.203.299.367.623.488.964l.283-.1zm.489.778a1.264 1.264 0 00-.547-.852l-.167.25a.96.96 0 01.417.65l.297-.048zm-.256.978a1.26 1.26 0 00.256-.978l-.297.047a.955.955 0 01-.194.744l.235.187zm-.142 1.053c.106-.372.165-.756.175-1.143l-.3-.007c-.01.361-.064.72-.164 1.067l.289.083zm-.06.907c.14-.313.16-.666.059-.993l-.287.09c.08.257.064.535-.046.78l.274.123zm-.772.638c.324-.106.597-.33.765-.625l-.26-.149a1.075 1.075 0 01-.599.489l.094.285zm-.313.393c.138-.14.267-.288.386-.445l-.24-.181c-.11.146-.23.285-.36.415l.214.21zm-.477.477l.477-.476-.212-.212-.477.476.212.212zm-.26.395c.122-.129.221-.278.292-.441l-.276-.12c-.056.132-.135.25-.233.354l.217.207zm-.288.21c.105-.054.202-.124.286-.208l-.213-.212a.822.822 0 01-.21.153l.137.267zm-.129.043a1.08 1.08 0 00.114-.036l-.106-.28a.803.803 0 01-.083.026l.075.29zm-13.041 13.07l13.11-13.109-.213-.212-13.11 13.11.213.212zm-.367.758c.215-.233.358-.525.409-.84l-.296-.047a1.319 1.319 0 01-.334.683l.22.204zm-.969.443c.357-.041.693-.193.959-.434l-.201-.222c-.22.199-.497.324-.792.358l.034.298zm-.963.662a7.71 7.71 0 001.039-.694l-.186-.235a7.414 7.414 0 01-.998.666l.145.262zm-.7.656a1.7 1.7 0 00.759-.715l-.263-.145a1.41 1.41 0 01-.625.59l.129.27zm-1.081.03c.35.104.722.096 1.066-.024l-.099-.283a1.437 1.437 0 01-.882.02l-.085.287zm-1.121.237a7.89 7.89 0 001.204-.236l-.08-.289a7.59 7.59 0 01-1.16.227l.036.298zm-.91.343c.36-.019.704-.15.986-.374l-.187-.235a1.427 1.427 0 01-.816.31l.016.3zm-1.009-.382c.283.228.63.361.992.382l.017-.3a1.441 1.441 0 01-.82-.316l-.189.234zM6.18 28.26c.393.11.795.19 1.2.239l.036-.298a7.63 7.63 0 01-1.155-.23l-.081.288zm-.982-.031c.343.121.715.132 1.064.03l-.084-.288a1.435 1.435 0 01-.88-.025l-.1.283zm-.766-.71c.172.306.434.552.751.704l.13-.27a1.408 1.408 0 01-.619-.581l-.262.147zm-1.001-.653c.333.265.687.503 1.06.71l.145-.262a7.496 7.496 0 01-1.018-.683l-.187.235zm-1.32-1.365a1.516 1.516 0 001.403 1.397l.021-.3c-.6-.042-1.08-.52-1.125-1.12l-.299.023zm-.676-.98c.207.372.444.727.708 1.062l.235-.187a7.54 7.54 0 01-.68-1.021l-.263.145zm-.652-.697c.153.319.401.583.71.755l.146-.262a1.41 1.41 0 01-.585-.623l-.27.13zm-.042-1.053a1.71 1.71 0 00.036 1.038l.283-.1a1.41 1.41 0 01-.03-.857l-.289-.081zm-.246-1.163c.049.42.131.837.246 1.244l.29-.081a7.58 7.58 0 01-.238-1.198l-.298.034zm-.338-.898c.02.355.149.695.37.974l.235-.187c-.183-.23-.29-.51-.306-.803l-.3.016zm.366-.989a1.71 1.71 0 00-.366.973l.3.016c.014-.293.12-.573.301-.803l-.235-.186zm.21-1.167a7.857 7.857 0 00-.242 1.244l.298.033a7.6 7.6 0 01.232-1.197l-.289-.08zm.031-.956a1.708 1.708 0 00-.032 1.037l.289-.082c-.08-.281-.07-.58.026-.855l-.283-.1zm.714-.768a1.693 1.693 0 00-.708.754l.271.128c.125-.262.328-.479.583-.62l-.146-.262zm.645-1a7.733 7.733 0 00-.703 1.06l.262.144c.197-.358.423-.698.676-1.018l-.235-.186zm.399-.868a1.707 1.707 0 00-.43.943l.297.035c.035-.29.16-.561.355-.777l-.222-.201zm.955-.44a1.706 1.706 0 00-.945.43l.201.221c.217-.196.489-.32.78-.354l-.036-.298zm.984-.676a7.658 7.658 0 00-1.06.707l.187.235c.32-.255.66-.482 1.018-.68l-.145-.262zm.694-.646a1.69 1.69 0 00-.752.704l.262.147c.14-.253.357-.456.619-.58l-.129-.271zm.829-.076a1.52 1.52 0 00-.818.071l.106.28a1.22 1.22 0 01.656-.056l.056-.295zm16.69-8.542L5.888 13.14l.136.267L22.81 4.85l-.136-.267zm.51-.59a1.302 1.302 0 00-.582.67l.28.108a.998.998 0 01.448-.516l-.146-.262zm1.021-.06a1.421 1.421 0 00-1.01.054l.123.274c.25-.112.534-.127.796-.043l.091-.286zm1.03-.174a4.581 4.581 0 00-1.116.172l.082.288c.34-.096.69-.15 1.043-.16l-.008-.3zm.894-.23a1.4 1.4 0 00-.977.258l.176.243a1.1 1.1 0 01.768-.203l.033-.299zm1.828 3.476c.134.235.318.438.539.595l.173-.245a1.555 1.555 0 01-.452-.499l-.26.149zm-.167-.798c-.005.27.05.538.16.785l.274-.123a1.53 1.53 0 01-.134-.656l-.3-.006zm-.174-.132c.074.074.145.153.208.23l.232-.19a3.444 3.444 0 00-.228-.252l-.212.212zm-.25-.205c.089.065.174.135.255.21l.202-.222a3.49 3.49 0 00-.278-.229l-.178.24zm-.67-.13c.24.109.5.163.762.16l-.004-.3a1.488 1.488 0 01-.634-.133l-.124.274zm-.603-.54c.156.218.357.401.59.534l.15-.26a1.546 1.546 0 01-.495-.449l-.245.174zm-.53-.039c.207.012.413.044.615.096l.075-.29a3.482 3.482 0 00-.674-.105l-.017.3zm-.624.293a1.81 1.81 0 00.721-.322l-.179-.24a1.51 1.51 0 01-.602.268l.06.294zm-.782-.081c.247.083.51.112.768.083l-.033-.298c-.215.024-.433 0-.64-.07l-.095.285zm-.47.286c.18-.116.371-.212.571-.288l-.107-.28a3.341 3.341 0 00-.626.316l.162.252zm-.33.596c.178-.194.312-.425.392-.677l-.286-.09c-.067.21-.179.402-.328.564l.221.203zm-.82.452c.3-.084.576-.235.808-.44l-.199-.225a1.754 1.754 0 01-.69.376l.08.289zm-.264.107c.088-.043.178-.079.27-.11l-.094-.284a2.513 2.513 0 00-.306.124l.13.27zm.158.131a2.19 2.19 0 01-.075-.294l-.295.055c.02.113.05.225.086.334l.284-.095zm-.278 1.73a1.618 1.618 0 00.273-1.744l-.274.123a1.318 1.318 0 01-.222 1.42l.223.2zm-.148.243c.047-.09.1-.174.158-.256l-.244-.175c-.066.093-.126.19-.18.29l.266.14zm.2.015a2.163 2.163 0 01-.228-.193l-.21.215c.082.08.169.153.26.22l.178-.242zm.62.658a2.068 2.068 0 00-.625-.662l-.168.25c.218.146.401.34.535.565l.259-.153zm.171.893c.013-.3-.043-.6-.162-.875l-.275.118c.1.235.148.49.138.745l.3.012zm.027.308a1.924 1.924 0 01-.026-.314h-.3c0 .121.01.243.03.363l.296-.05zm.19-.098a1.84 1.84 0 01-.314-.026l-.049.296c.12.02.242.03.363.03v-.3zm.87.163a2.008 2.008 0 00-.876-.163l.012.3c.255-.01.51.037.745.138l.118-.275zm.678.634a2.08 2.08 0 00-.661-.626l-.154.258c.226.135.42.318.566.536l.25-.168zm.19.223a2.082 2.082 0 01-.193-.227l-.242.176a2.4 2.4 0 00.22.26l.214-.209zm.078-.187a2.11 2.11 0 01-.256.159l.14.266c.1-.054.198-.114.291-.181l-.175-.244zm1.73-.262a1.617 1.617 0 00-1.743.273l.201.223a1.317 1.317 0 011.42-.222l.122-.274zm.188.05a3.063 3.063 0 01-.204-.056l-.09.286c.065.02.148.043.225.061l.069-.292zm.048-.15l-.189.19.212.211.189-.188-.212-.213zm-.006-.024l-.029.078.281.105.03-.078-.282-.105zm.436-.795a2.054 2.054 0 00-.44.807l.29.08c.07-.255.199-.49.374-.688l-.224-.2zm.714-.412c-.26.08-.5.217-.703.4l.202.222c.17-.153.37-.268.59-.335l-.089-.287zm.19-.476a3.12 3.12 0 01-.272.54l.253.16c.119-.187.219-.384.3-.59l-.28-.11zm.238-1.442a1.536 1.536 0 00-.237 1.553l.278-.112a1.238 1.238 0 01.19-1.25l-.23-.19zm-.13-.5c.052.197.084.4.096.604l.3-.017a3.404 3.404 0 00-.105-.664l-.29.076zm-5.648 8.068l-.39-.39-.212.212.39.39.212-.212zm-.777.99l.777-.778-.212-.212-.777.777.212.212zm-.602-.39l.39.39.212-.213-.39-.39-.212.212zm-.565.776l.777-.777-.212-.212-.777.777.212.212zm.39.178l-.39-.39-.212.212.39.39.212-.212zm-.777.99l.777-.778-.212-.212-.777.777.212.212zm-.602-.391l.39.39.212-.212-.39-.39-.212.212zm-.565.777l.777-.777-.212-.212-.777.777.212.212zm.39.178l-.39-.39-.212.212.39.39.212-.212zm-.777.989l.777-.777-.212-.212-.777.777.212.212zm-.602-.39l.39.39.212-.212-.39-.39-.212.212zm-.565.777l.777-.777-.212-.212-.777.777.212.212zm.39.178l-.39-.39-.212.212.39.39.212-.212zm-2.351 2.563l2.351-2.351-.212-.212-2.351 2.351.212.212zm-.263-.121a.994.994 0 00.012.053l.29-.076a.789.789 0 01-.009-.038l-.293.06zm-.004-.018l.004.018.293-.062-.003-.018-.294.062zm-.075-.482c.001.168.028.336.079.497l.286-.091a1.376 1.376 0 01-.065-.408l-.3.002zm.275-.493c-.11.13-.199.277-.264.434l.278.115c.053-.13.126-.25.216-.357l-.23-.192zm.415-.969c-.03.358-.174.697-.412.965l.224.2c.281-.317.452-.717.487-1.14l-.299-.025zm-.417-.941c.24.269.386.608.417.966l.3-.025a1.968 1.968 0 00-.493-1.14l-.224.199zm-.268-.44c.066.158.155.305.265.436l.23-.193a1.391 1.391 0 01-.218-.358l-.277.115zm.065-.554a1.7 1.7 0 00-.077.496l.3.001c0-.138.022-.276.063-.407l-.286-.09zm.013-1.061c.111.344.107.715-.012 1.057l.284.098c.14-.403.145-.84.014-1.247l-.286.091zm-.741-.709c.322.157.586.414.75.732l.267-.139a1.968 1.968 0 00-.886-.862l-.131.27zm-.421-.308c.122.123.263.226.417.307l.138-.267a1.376 1.376 0 01-.342-.252l-.213.212zm-.15-.53c.015.165.054.327.118.48l.277-.113a1.376 1.376 0 01-.097-.395l-.299.027zm-.397-.999c.236.28.375.629.396.993l.3-.017a1.99 1.99 0 00-.467-1.17l-.23.194zm-.974-.38c.364.022.712.161.992.398l.193-.229a1.99 1.99 0 00-1.167-.468l-.018.299zm-.487-.119c.154.063.317.103.482.119l.027-.3a1.36 1.36 0 01-.394-.096l-.115.277zm-.355-.449c.08.154.183.295.307.417l.21-.214a1.354 1.354 0 01-.251-.341l-.266.138zm-.731-.753c.317.165.573.428.729.75l.27-.132a1.968 1.968 0 00-.86-.884l-.14.266zm-1.034.021a1.666 1.666 0 011.057-.011l.092-.286a1.966 1.966 0 00-1.248.014l.098.283zm-.5.078c.168 0 .335-.026.495-.077l-.09-.286a1.369 1.369 0 01-.407.063l.001.3zm-.495-.277c.131.11.278.2.436.266l.116-.277a1.387 1.387 0 01-.359-.218l-.193.23zm-.321-.213c.118.07.23.146.329.22l.177-.242a4.58 4.58 0 00-.352-.236l-.154.258zm2.277-1.418L8.92 12.829l.136.268 2.268-1.156-.136-.267zm.47.557l-.27-.495-.264.143.27.496.264-.144zm.76-.587l-.964.527.144.264.964-.528-.143-.263zm-.313-.26l.254.464.263-.145-.254-.463-.263.144zm1.042-.704l-.979.498.137.267.978-.497-.136-.268zm.44.5l-.24-.438-.264.144.24.437.263-.144zm.76-.587l-.964.527.144.263.964-.527-.143-.263zm-.284-.211l.225.414.263-.143-.224-.414-.264.143zm1.042-.703l-.978.498.136.267.978-.498-.136-.267zm.41.442l-.21-.381-.263.145.21.381.262-.145zm.76-.586l-.964.527.144.263.964-.527-.144-.263zm-.254-.146l.195.35.262-.146-.195-.35-.262.146zm1.041-.705l-.978.498.136.267.978-.497-.136-.268zm.379.387l-.18-.325L17 8.89l.179.325.263-.144zm.76-.587l-.964.527.144.264.964-.527-.144-.264zm-.223-.093l.164.297.263-.144-.164-.297-.262.144zm3.068-1.736l-3.004 1.53.136.268 3.004-1.531-.136-.267zm.327.607a2.69 2.69 0 01-.11-.493l-.298.038c.024.186.065.37.123.548l.285-.093zm.085.37a1.73 1.73 0 00-.086-.374l-.283.1c.035.1.059.203.071.309l.298-.035zm-.21.415c.079-.104.145-.217.198-.337l-.274-.121a1.41 1.41 0 01-.164.277l.24.181zm-.328.963a1.324 1.324 0 01.321-.955l-.226-.197c-.28.323-.422.744-.394 1.172l.299-.02zm.599.786a1.331 1.331 0 01-.603-.813l-.291.074c.105.416.371.774.739.996l.155-.257zm.306.269a1.715 1.715 0 00-.298-.264l-.171.246c.09.063.172.136.245.218l.224-.2zm.069.444a1.75 1.75 0 00-.034-.373l-.294.058c.02.102.03.206.028.31l.3.005zm.311.997a1.369 1.369 0 01-.312-.988l-.299-.024a1.67 1.67 0 00.38 1.203l.231-.191zm.969.29a1.37 1.37 0 01-.988-.31l-.192.231c.337.279.77.415 1.205.378l-.025-.299zm.38.031a1.77 1.77 0 00-.37-.031l.005.3c.104-.003.207.006.308.026l.057-.295zm.337.335a1.659 1.659 0 00-.266-.3l-.198.225c.082.073.155.155.218.245l.246-.17zm.807.611a1.068 1.068 0 01-.795-.591l-.27.13c.195.404.575.687 1.018.758l.047-.297zm.933-.317a1.055 1.055 0 01-.933.317l-.047.296c.443.07.891-.082 1.198-.407l-.218-.206zm.24-.16a4.5 4.5 0 00-.214.139l.168.248c.058-.04.135-.091.197-.127l-.15-.26zm-2.305 2.724l2.487-2.488-.212-.212-2.487 2.487.212.213zm-.602-.39l.39.39.212-.213-.39-.39-.212.212zm-.565.776l.777-.777-.212-.212-.777.777.212.212zm-9.76 10.125a.703.703 0 00-.13.087l.194.229a.394.394 0 01.073-.05l-.137-.266zm.55-.56l-.588.587.212.213.587-.587-.212-.212zm.244-.799a2.15 2.15 0 00-.288.892l.299.027c.025-.27.11-.532.248-.766l-.259-.153zm.778-.66c-.3.156-.563.377-.768.646l.239.182c.178-.234.406-.426.667-.561l-.138-.267zm.335-.247c-.098.1-.21.183-.335.247l.138.267a1.66 1.66 0 00.411-.304l-.214-.21zm-.105-.32c.044.136.065.278.062.421l.3.007a1.553 1.553 0 00-.077-.521l-.285.093zm-.092-.995c-.043.334-.012.674.092.994l.285-.091a1.987 1.987 0 01-.08-.864l-.297-.039zm.463-.908a2.286 2.286 0 00-.46.89l.291.075c.075-.284.21-.548.4-.772l-.23-.193zm.215-.361a1.24 1.24 0 01-.214.36l.228.195c.114-.133.204-.285.266-.448l-.28-.107zm-.215-.254c.091.108.165.23.215.362l.28-.109a1.556 1.556 0 00-.267-.447l-.228.194zm-.464-.891a2.3 2.3 0 00.463.89l.23-.193a2.009 2.009 0 01-.403-.774l-.29.077zm.083-1.013a2.28 2.28 0 00-.087.994l.297-.04a1.98 1.98 0 01.076-.863l-.286-.091zm.06-.42c.005.142-.015.284-.06.418l.285.094c.056-.168.08-.345.075-.522l-.3.01zm-.292-.15c.124.065.237.149.335.249l.215-.209a1.594 1.594 0 00-.413-.306l-.137.266zm-.771-.647c.206.27.47.49.77.647l.14-.266a2.029 2.029 0 01-.672-.564l-.238.183zm-.31-.96c.029.333.131.655.3.944l.259-.15a1.966 1.966 0 01-.26-.82l-.299.027zm-.11-.418c.062.131.1.273.11.417l.3-.022a1.5 1.5 0 00-.137-.522l-.272.127zm-.342-.04c.143.012.284.05.414.112l.129-.271a1.496 1.496 0 00-.518-.14l-.025.299zm-.943-.3c.288.169.61.271.942.3l.026-.299a1.96 1.96 0 01-.817-.26l-.151.26zm-.664-.78c.157.301.379.564.648.77l.182-.238a2.022 2.022 0 01-.564-.67l-.266.138zm-.25-.336c.1.098.185.212.25.336l.266-.139a1.642 1.642 0 00-.305-.411l-.21.214zm-.319.103c.136-.044.278-.065.42-.06l.01-.3a1.537 1.537 0 00-.523.075l.093.285zm-.995.087c.334.045.674.015.994-.087l-.09-.286a1.984 1.984 0 01-.864.076l-.04.297zm-.908-.466c.259.217.563.375.89.463l.077-.29a2.014 2.014 0 01-.775-.403l-.192.23zm-.363-.217c.132.051.254.124.362.216l.194-.228a1.546 1.546 0 00-.448-.268l-.108.28zm-.254.214c.108-.09.23-.163.361-.214l-.107-.28a1.543 1.543 0 00-.448.266l.194.228zm-.889.46c.327-.085.63-.242.889-.46l-.193-.229a1.976 1.976 0 01-.772.4l.076.29zm-1.005-.084c.319.101.656.131.987.088l-.04-.297a2 2 0 01-.856-.076l-.09.285zm-.2.149l.313-.158-.135-.268-.313.158.134.268zm-.496.231c.159-.081.318-.158.485-.226l-.114-.278a6.515 6.515 0 00-.508.237l.137.267zm-.53.617c.245-.18.447-.412.593-.678l-.263-.145a1.78 1.78 0 01-.508.58l.178.243zm-.862.29c.3-.031.59-.128.85-.283l-.154-.257c-.222.132-.47.215-.727.24l.03.3zm.081-.035l.001-.001-.195-.228-.001.001.195.228zm-.355.322c.114-.114.232-.216.355-.322l-.195-.228c-.123.106-.25.214-.372.338l.212.212zm-.306.337a6.09 6.09 0 01.306-.337l-.212-.213a6.09 6.09 0 00-.321.355l.227.195zm-.019.022l.019-.022-.227-.195-.019.02.227.197zm-.245.765a2.04 2.04 0 00.28-.848l-.298-.03a1.755 1.755 0 01-.24.724l.258.154zm-.687.607c.267-.146.499-.35.679-.595l-.242-.177c-.154.21-.353.384-.581.509l.144.263zm-.297.816c.097-.302.218-.597.359-.88l-.268-.134a6.676 6.676 0 00-.377.921l.286.093zm.065.802a2.079 2.079 0 00-.064-.891l-.288.085c.074.247.092.508.055.762l.297.044zm-.4.817c.19-.235.325-.51.397-.803l-.291-.072a1.771 1.771 0 01-.34.687l.234.189zm.035.875a6.537 6.537 0 01-.002-.958l-.3-.021c-.023.333-.023.668.003 1.001l.299-.022zm.367.721a2.105 2.105 0 00-.4-.804l-.234.188c.163.202.28.438.344.69l.29-.074zm-.057.907c.084-.29.105-.594.06-.892l-.296.044c.038.256.02.516-.052.764l.288.084zm.362.79a6.374 6.374 0 01-.364-.879l-.285.094c.104.316.231.624.38.92l.269-.134zm.619.534a2.121 2.121 0 00-.68-.597l-.146.263c.23.126.429.301.584.512l.242-.178zm.292.861c-.032-.3-.129-.59-.284-.85l-.257.155c.133.222.216.47.243.727l.298-.032zm-.022-.066l-.014-.016-.227.196.014.016.227-.196zm.313.345a6.366 6.366 0 01-.313-.345l-.227.196c.103.12.21.244.327.36l.213-.211zm.346.316a6.975 6.975 0 01-.346-.316l-.213.212c.118.117.243.226.362.33l.197-.226zm.011.01l-.011-.01-.197.226.01.01.198-.226zm.768.248a2.073 2.073 0 00-.85-.284l-.032.298c.257.027.505.11.728.244l.154-.258zm.6.68a2.093 2.093 0 00-.588-.672l-.178.241c.207.154.38.35.504.576l.263-.145zm.827.31a6.482 6.482 0 01-.89-.37l-.136.267c.3.152.612.282.932.389l.094-.285zm.801-.063a2.074 2.074 0 00-.89.062l.084.288a1.8 1.8 0 01.762-.053l.044-.297zm.803.392a2.071 2.071 0 00-.789-.389l-.072.291c.246.062.476.175.674.333l.187-.235zm.908-.03a6.43 6.43 0 01-.99-.002l-.023.3c.344.026.69.027 1.035.002l-.022-.3zm.705-.353c-.287.07-.556.202-.787.385l.186.236a1.75 1.75 0 01.673-.33l-.072-.291zm.897.06a2.074 2.074 0 00-.883-.063l.044.297c.252-.037.51-.019.754.053l.085-.288zm.813-.373a6.38 6.38 0 01-.902.374l.093.285c.325-.106.64-.237.945-.392l-.136-.267zm.292-.414a2.556 2.556 0 00-.354.472l.26.151c.087-.15.192-.29.311-.416l-.217-.207zm.229-.19a1.509 1.509 0 00-.227.188l.213.211c.055-.056.116-.106.181-.15l-.167-.249zm.857-.286c-.3.03-.591.127-.85.282l.154.257c.221-.132.47-.215.726-.24l-.03-.3zM6.63 22.38c.92.92 2.409.924 3.326.007l-.212-.212c-.8.799-2.098.797-2.902-.007l-.212.212zm-.007-3.326a2.352 2.352 0 00.007 3.326l.212-.212a2.052 2.052 0 01-.007-2.902l-.212-.212zm3.327.006a2.352 2.352 0 00-3.327-.006l.212.212c.8-.8 2.099-.797 2.902.006l.213-.212zm.006 3.327a2.352 2.352 0 00-.006-3.327l-.213.212c.804.804.806 2.103.007 2.903l.212.212zm14.16-15.364c-.703.703-.7 1.843.004 2.548l.212-.212a1.502 1.502 0 01-.005-2.124l-.212-.212zm2.547.005a1.802 1.802 0 00-2.548-.005l.212.212a1.502 1.502 0 012.124.005l.212-.212zm.005 2.548c.703-.703.7-1.843-.005-2.548l-.212.212c.588.588.59 1.54.005 2.124l.212.212zm-2.548-.005a1.802 1.802 0 002.548.005l-.212-.212a1.502 1.502 0 01-2.124-.005l-.212.212zM12.28 16.73a5.642 5.642 0 00-5.807-1.374l.096.284a5.342 5.342 0 015.499 1.301l.213-.211zm.017 7.997c2.204-2.204 2.196-5.785-.017-7.997l-.212.212c2.097 2.096 2.103 5.487.017 7.573l.212.212zm-7.998-.016c2.213 2.213 5.793 2.22 7.998.017l-.212-.213c-2.087 2.087-5.477 2.08-7.574-.016l-.212.212zm-.017-7.998c-2.204 2.204-2.196 5.785.017 7.998l.212-.212c-2.096-2.097-2.103-5.488-.017-7.574l-.212-.212zm.993.78l-.78-.78-.213.212.78.78.213-.212zm-.31 5.863a4.252 4.252 0 01.31-5.65l-.213-.213a4.552 4.552 0 00-.332 6.05l.235-.187zm5.579.981a4.262 4.262 0 01-5.58-.981l-.234.186a4.562 4.562 0 005.972 1.05l-.158-.255zm1.591-5.424a4.242 4.242 0 01-1.591 5.424l.158.255a4.542 4.542 0 001.704-5.808l-.27.129zm-5.214-2.228a4.271 4.271 0 015.214 2.228l.271-.129a4.571 4.571 0 00-5.58-2.384l.095.285zm-.542-1.139l.353 1.044.284-.096-.353-1.044-.284.096z" fill="#EF3F3E"/></svg>