<svg xmlns="http://www.w3.org/2000/svg" width="512" height="512"><path d="M376 8H136a32.03 32.03 0 00-32 32v432a32.03 32.03 0 0032 32h240a32.03 32.03 0 0032-32V40a32.03 32.03 0 00-32-32zm-66.25 16l-4 16h-99.69l-4.5-16zM392 472a16.021 16.021 0 01-16 16H136a16.021 16.021 0 01-16-16V40a16.021 16.021 0 0116-16h48.94l7.36 26.17A8 8 0 00200 56h112a8 8 0 007.76-6.06L326.25 24H376a16.021 16.021 0 0116 16z"/><path d="M200 456h-56a8 8 0 000 16h56a8 8 0 000-16zm32 0h-8a8 8 0 000 16h8a8 8 0 000-16zm133.66-309.66a8.015 8.015 0 00-11.32 0l-44.94 44.95A15.992 15.992 0 00296 184v-16a16.021 16.021 0 00-16-16h-48a16.021 16.021 0 00-16 16v16a16.021 16.021 0 00-16 16v100.69l-53.66 53.65a8 8 0 0011.32 11.32L200 323.31V344a16.021 16.021 0 0016 16h80a16.021 16.021 0 0016-16V211.31l53.66-53.65a8.015 8.015 0 000-11.32zM232 168h48v16h-48zm-16 32h80v4.69l-80 80zm80 144h-80v-36.69l80-80 .01 116.69z"/></svg>