<svg xmlns="http://www.w3.org/2000/svg" viewBox="0 0 33.994 33.994"><path d="M9.753 3.894h14.485v17.693l1.729 1.729V2.308A2.31 2.31 0 0023.66 0H10.33a2.308 2.308 0 00-2.306 2.308v3.067l1.729 1.727V3.894zm12.387-2.45a.59.59 0 01.59.59c0 .303-.23.545-.525.578-.021-.004-.041-.014-.064-.014-.021 0-.041.01-.063.014a.585.585 0 01.062-1.168zm-8.235.225h6.183v.672h-6.183v-.672zM24.238 27.98H9.753V12.405l-1.729-1.728v21.011a2.306 2.306 0 002.305 2.306H23.66a2.307 2.307 0 002.306-2.306v-3.069l-1.729-1.728.001 1.089zm-4.429 3.553h-5.628v-1.154h5.628v1.154zm6.157-7.062l-1.728-1.73L9.753 8.257 8.024 6.528 5.703 4.207 4.207 5.702l3.817 3.82 1.729 1.728 14.485 14.486 1.728 1.728 2.324 2.322 1.497-1.496z"/></svg>