<svg height="512" viewBox="0 0 24 24" width="512" xmlns="http://www.w3.org/2000/svg"><path d="M16.52.75c-.67 0-.8.08-.8.7l-.41.43c0 .62-.54 1.12-1.2 1.12H9.68c-.66 0-1.2-.5-1.2-1.12l-.12-.39c0-.62-.43-.74-1.09-.74z" fill="#607d8b"/><path d="M19.25 3.33v17.34c0 1.42-1.12 2.58-2.49 2.58H7.24c-1.37 0-2.49-1.16-2.49-2.58V3.33C4.75 1.91 5.87.75 7.24.75h.03c.66 0 1.09.12 1.09.74l.12.39c0 .62.54 1.12 1.2 1.12h4.43c.66 0 1.2-.5 1.2-1.12l.41-.43c0-.62.13-.7.8-.7h.24c1.37 0 2.49 1.16 2.49 2.58z" fill="#eceff1"/><path d="M7.24 23.25H5.96c-.67 0-1.21-.5-1.21-1.13v-1.45c0 1.42 1.12 2.58 2.49 2.58zm12.01-2.58v1.45c0 .63-.54 1.13-1.21 1.13h-1.28c1.37 0 2.49-1.16 2.49-2.58z" fill="#eceff1"/><path d="M14 3.5h-4c-.965 0-1.75-.785-1.75-1.75A.25.25 0 008 1.5H7A.75.75 0 017 0h1c.965 0 1.75.785 1.75 1.75 0 .138.112.25.25.25h4a.25.25 0 00.25-.25C14.25.785 15.035 0 16 0h1a.75.75 0 010 1.5h-1a.25.25 0 00-.25.25c0 .965-.785 1.75-1.75 1.75zm5.25 16.75H4.75a.75.75 0 010-1.5h14.5a.75.75 0 010 1.5z"/><path d="M17.25 24H6.75A2.752 2.752 0 014 21.25v-8.761a.75.75 0 011.5 0v8.761c0 .689.561 1.25 1.25 1.25h10.5c.689 0 1.25-.561 1.25-1.25V10.532a.75.75 0 011.5 0V21.25A2.752 2.752 0 0117.25 24z"/><path d="M4.75 10.5A.749.749 0 014 9.75v-7A2.752 2.752 0 016.75 0h10.5A2.752 2.752 0 0120 2.75v5a.75.75 0 01-.506.709l-5.8 2a.755.755 0 01-.589-.043l-3.558-1.84-4.511 1.867a.748.748 0 01-.286.057zM9.583 7c.118 0 .236.028.345.084l3.582 1.853 4.99-1.722V2.75c0-.689-.561-1.25-1.25-1.25H6.75c-.689 0-1.25.561-1.25 1.25v5.878l3.796-1.571A.753.753 0 019.583 7zM2.1 6.05a.75.75 0 10-1.2.9l.75 1a.748.748 0 001.05.15.75.75 0 00.15-1.05zm-.45 5l-.75 1a.75.75 0 101.199.9l.75-1a.75.75 0 10-1.199-.9zm.975-1.55a.75.75 0 00-.75-.75H.75a.75.75 0 000 1.5h1.125a.75.75 0 00.75-.75zm19.124-1.25a.75.75 0 00.601-.3l.75-1a.75.75 0 10-1.199-.901l-.75 1a.75.75 0 00.598 1.201zm.601 2.8a.75.75 0 10-1.199.901l.75 1a.748.748 0 001.05.15.75.75 0 00.149-1.05zm.9-2.3h-1.125a.75.75 0 000 1.5h1.125a.75.75 0 000-1.5z"/></svg>