<svg width="413" height="190" fill="none" xmlns="http://www.w3.org/2000/svg"><rect width="413" height="190" rx="5" fill="#FFCDCD"/><mask id="a" maskUnits="userSpaceOnUse" x="0" y="0" width="413" height="190"><rect width="413" height="190" rx="5" fill="#FDF6E6"/></mask><g mask="url(#a)"><circle cx="352" cy="137.954" r="94" fill="#fff" fill-opacity=".4"/></g><path d="M34.35 107.287a.47.47 0 01-.348-.132.529.529 0 01-.132-.372v-7.524a.47.47 0 01.504-.492h5.856a.47.47 0 01.492.492v7.536a.486.486 0 01-.132.36.47.47 0 01-.348.132.486.486 0 01-.36-.132.486.486 0 01-.132-.36v-7.2h-4.908v7.2a.486.486 0 01-.132.36.486.486 0 01-.36.132zm10.742.024c-.552 0-1.04-.124-1.464-.372-.416-.248-.74-.6-.972-1.056-.224-.464-.336-1-.336-1.608 0-.608.112-1.14.336-1.596.232-.464.556-.82.972-1.068.424-.248.912-.372 1.464-.372.552 0 1.04.124 1.464.372.424.248.748.604.972 1.068.232.456.348.988.348 1.596 0 .608-.116 1.144-.348 1.608a2.438 2.438 0 01-.972 1.056c-.424.248-.912.372-1.464.372zm0-.804c.576 0 1.016-.188 1.32-.564.312-.384.468-.94.468-1.668 0-.712-.156-1.26-.468-1.644-.312-.392-.752-.588-1.32-.588-.568 0-1.008.196-1.32.588-.312.384-.468.932-.468 1.644 0 .72.152 1.272.456 1.656.312.384.756.576 1.332.576zm6.956-2.448c.288.08.52.212.696.396.176.184.384.48.624.888l.756 1.236c.048.08.072.164.072.252a.423.423 0 01-.144.324.482.482 0 01-.756-.12l-.912-1.536c-.208-.344-.404-.576-.588-.696-.184-.12-.448-.18-.792-.18h-.672v2.184a.486.486 0 01-.132.36.515.515 0 01-.36.12.497.497 0 01-.348-.12.486.486 0 01-.132-.36v-5.064a.47.47 0 01.132-.348.47.47 0 01.348-.132c.152 0 .272.044.36.132a.47.47 0 01.132.348v2.124h.816l1.992-2.4c.112-.136.236-.204.372-.204.112 0 .208.04.288.12.088.08.132.18.132.3a.53.53 0 01-.132.324l-1.752 2.052zm7.582-2.496c.088-.192.228-.288.42-.288.12 0 .228.04.324.12.096.08.144.18.144.3a.38.38 0 01-.048.192l-3.372 7.272a.448.448 0 01-.18.204.404.404 0 01-.228.072.493.493 0 01-.324-.12.353.353 0 01-.132-.288c0-.064.016-.128.048-.192l.84-1.812-2.376-5.136a.357.357 0 01-.048-.18c0-.12.052-.224.156-.312a.572.572 0 01.36-.132c.08 0 .156.024.228.072.08.048.14.116.18.204l2.004 4.5 2.004-4.476zm2.42 5.724a.515.515 0 01-.36-.12.47.47 0 01-.132-.348v-4.932c0-.16.044-.284.132-.372a.486.486 0 01.36-.132h4.02c.152 0 .272.044.36.132a.464.464 0 01.144.36v4.944a.47.47 0 01-.132.348.497.497 0 01-.348.12.515.515 0 01-.36-.12.47.47 0 01-.132-.348v-4.668H62.53v4.668a.47.47 0 01-.132.348.497.497 0 01-.348.12zm8.693-6.048c1.464 0 2.196.768 2.196 2.304v3.264a.47.47 0 01-.132.348.431.431 0 01-.336.132.47.47 0 01-.348-.132.47.47 0 01-.132-.348v-.576a1.751 1.751 0 01-.696.804 2.086 2.086 0 01-1.08.276c-.376 0-.724-.076-1.044-.228a1.864 1.864 0 01-.744-.636 1.572 1.572 0 01-.276-.9c0-.44.112-.78.336-1.02.224-.248.592-.424 1.104-.528.512-.112 1.224-.168 2.136-.168h.264v-.396c0-.48-.1-.832-.3-1.056-.192-.224-.508-.336-.948-.336-.544 0-1.096.148-1.656.444-.216.136-.368.204-.456.204a.308.308 0 01-.24-.108.4.4 0 01-.096-.276c0-.112.032-.208.096-.288.072-.088.184-.176.336-.264.28-.16.596-.284.948-.372.36-.096.716-.144 1.068-.144zm-.396 5.304c.48 0 .872-.16 1.176-.48.312-.328.468-.748.468-1.26v-.348h-.216c-.704 0-1.24.032-1.608.096-.368.056-.632.156-.792.3-.152.136-.228.34-.228.612 0 .312.112.572.336.78.232.2.52.3.864.3zm8.427-4.968a.783.783 0 01.252-.24.642.642 0 01.312-.072c.152 0 .272.048.36.144a.488.488 0 01.144.36v5.052a.455.455 0 01-.132.336.455.455 0 01-.336.132.482.482 0 01-.336-.132.482.482 0 01-.132-.336v-4.188l-3.156 4.368a.632.632 0 01-.54.288.529.529 0 01-.372-.132.488.488 0 01-.144-.36v-5.052a.474.474 0 01.48-.48c.136 0 .248.048.336.144.088.088.132.2.132.336v4.128l3.132-4.296zm-1.488-1.356c-.448 0-.836-.104-1.164-.312a1.866 1.866 0 01-.732-.9.592.592 0 01-.036-.18.34.34 0 01.096-.252.367.367 0 01.252-.096c.16 0 .28.08.36.24.264.544.672.816 1.224.816.264 0 .496-.068.696-.204.208-.144.38-.348.516-.612.088-.16.208-.24.36-.24.096 0 .176.032.24.096a.321.321 0 01.108.252.514.514 0 01-.036.18 1.85 1.85 0 01-.732.9 2.106 2.106 0 01-1.152.312zm6.134 7.068a.497.497 0 01-.348-.12.47.47 0 01-.132-.348v-4.668h-1.716a.39.39 0 01-.288-.108.374.374 0 01-.108-.276c0-.112.036-.204.108-.276a.39.39 0 01.288-.108h4.392a.39.39 0 01.288.108.374.374 0 01.108.276.374.374 0 01-.108.276.39.39 0 01-.288.108h-1.704v4.668a.45.45 0 01-.144.348.497.497 0 01-.348.12zm8.08-1.416c.088 0 .164.036.228.108a.4.4 0 01.096.276c0 .2-.14.384-.42.552a3.805 3.805 0 01-.912.384c-.32.08-.632.12-.936.12-.904 0-1.62-.268-2.148-.804-.52-.536-.78-1.276-.78-2.22 0-.6.116-1.128.348-1.584.232-.464.556-.824.972-1.08a2.731 2.731 0 011.44-.384c.76 0 1.364.248 1.812.744.448.496.672 1.168.672 2.016 0 .16-.032.276-.096.348-.064.072-.168.108-.312.108H87.6c.072 1.376.724 2.064 1.956 2.064.312 0 .58-.04.804-.12.224-.088.464-.204.72-.348.208-.12.348-.18.42-.18zm-2.1-3.876c-.512 0-.924.16-1.236.48-.304.32-.484.772-.54 1.356h3.396c-.016-.592-.164-1.044-.444-1.356-.28-.32-.672-.48-1.176-.48zm8.786 5.292a.497.497 0 01-.348-.12.47.47 0 01-.132-.348v-4.668H95.99a.39.39 0 01-.288-.108.374.374 0 01-.108-.276c0-.112.036-.204.108-.276a.39.39 0 01.288-.108h4.392a.39.39 0 01.288.108.374.374 0 01.108.276.374.374 0 01-.108.276.39.39 0 01-.288.108h-1.704v4.668a.45.45 0 01-.144.348.497.497 0 01-.348.12zm5.98.024c-.552 0-1.04-.124-1.464-.372-.416-.248-.74-.6-.972-1.056-.224-.464-.336-1-.336-1.608 0-.608.112-1.14.336-1.596.232-.464.556-.82.972-1.068.424-.248.912-.372 1.464-.372.552 0 1.04.124 1.464.372.424.248.748.604.972 1.068.232.456.348.988.348 1.596 0 .608-.116 1.144-.348 1.608a2.438 2.438 0 01-.972 1.056c-.424.248-.912.372-1.464.372zm0-.804c.576 0 1.016-.188 1.32-.564.312-.384.468-.94.468-1.668 0-.712-.156-1.26-.468-1.644-.312-.392-.752-.588-1.32-.588-.568 0-1.008.196-1.32.588-.312.384-.468.932-.468 1.644 0 .72.152 1.272.456 1.656.312.384.756.576 1.332.576zm4.712.72a.529.529 0 01-.372-.132.47.47 0 01-.132-.348v-4.86c0-.152.044-.272.132-.36a.464.464 0 01.36-.144h2.076c.64 0 1.136.124 1.488.372.352.248.528.62.528 1.116 0 .288-.084.556-.252.804-.168.248-.424.432-.768.552.36.064.644.216.852.456.216.24.324.544.324.912 0 .272-.076.532-.228.78-.144.248-.376.452-.696.612-.32.16-.72.24-1.2.24h-2.112zm1.992-3.324c.336 0 .608-.084.816-.252a.88.88 0 00.312-.708c0-.56-.388-.84-1.164-.84h-1.488v1.8h1.524zm.024 2.604c.824 0 1.236-.316 1.236-.948 0-.32-.12-.56-.36-.72-.24-.16-.568-.24-.984-.24h-1.44v1.908h1.548zm6.033-5.268c1.464 0 2.196.768 2.196 2.304v3.264a.47.47 0 01-.132.348.431.431 0 01-.336.132.47.47 0 01-.348-.132.47.47 0 01-.132-.348v-.576a1.751 1.751 0 01-.696.804 2.086 2.086 0 01-1.08.276c-.376 0-.724-.076-1.044-.228a1.864 1.864 0 01-.744-.636 1.572 1.572 0 01-.276-.9c0-.44.112-.78.336-1.02.224-.248.592-.424 1.104-.528.512-.112 1.224-.168 2.136-.168h.264v-.396c0-.48-.1-.832-.3-1.056-.192-.224-.508-.336-.948-.336-.544 0-1.096.148-1.656.444-.216.136-.368.204-.456.204a.308.308 0 01-.24-.108.4.4 0 01-.096-.276c0-.112.032-.208.096-.288.072-.088.184-.176.336-.264.28-.16.596-.284.948-.372.36-.096.716-.144 1.068-.144zm-.396 5.304c.48 0 .872-.16 1.176-.48.312-.328.468-.748.468-1.26v-.348h-.216c-.704 0-1.24.032-1.608.096-.368.056-.632.156-.792.3-.152.136-.228.34-.228.612 0 .312.112.572.336.78.232.2.52.3.864.3zm7.311-5.304c.512 0 .964.128 1.356.384.392.256.696.616.912 1.08.216.456.324.988.324 1.596 0 .608-.108 1.14-.324 1.596-.216.448-.52.796-.912 1.044-.384.248-.836.372-1.356.372-.456 0-.856-.1-1.2-.3a1.939 1.939 0 01-.768-.852v2.82a.431.431 0 01-.132.336c-.08.088-.196.132-.348.132a.486.486 0 01-.36-.132.455.455 0 01-.132-.336v-7.236a.47.47 0 01.132-.348.486.486 0 01.36-.132c.152 0 .268.044.348.132a.47.47 0 01.132.348v.648c.176-.368.432-.652.768-.852.344-.2.744-.3 1.2-.3zm-.192 5.268c.568 0 1.008-.192 1.32-.576.312-.384.468-.928.468-1.632 0-.704-.156-1.252-.468-1.644-.312-.4-.752-.6-1.32-.6-.568 0-1.008.192-1.32.576-.304.384-.456.932-.456 1.644 0 .712.152 1.264.456 1.656.312.384.752.576 1.32.576zm4.716.72a.529.529 0 01-.372-.132.47.47 0 01-.132-.348v-5.004a.47.47 0 01.132-.348.486.486 0 01.36-.132.47.47 0 01.348.132.47.47 0 01.132.348v1.728h.888c1.488 0 2.232.608 2.232 1.824 0 .432-.108.796-.324 1.092-.216.288-.5.5-.852.636a2.943 2.943 0 01-1.092.204h-1.32zm5.004.06a.497.497 0 01-.348-.12.47.47 0 01-.132-.348v-5.076a.47.47 0 01.132-.348.47.47 0 01.348-.132c.152 0 .272.044.36.132a.47.47 0 01.132.348v5.076a.47.47 0 01-.132.348.515.515 0 01-.36.12zm-3.84-.792c.384 0 .72-.092 1.008-.276.296-.184.444-.488.444-.912 0-.432-.132-.724-.396-.876-.256-.152-.608-.228-1.056-.228h-.708v2.292h.708zm11.8.816c-.648 0-1.184-.164-1.608-.492a2.841 2.841 0 01-.912-1.26 5 5 0 01-.276-1.68c0-.944.08-1.712.24-2.304.168-.592.404-1.052.708-1.38a3.58 3.58 0 011.176-.816c.256-.12.644-.256 1.164-.408.56-.168 1.012-.328 1.356-.48a.555.555 0 01.228-.048c.12 0 .216.04.288.12a.36.36 0 01.108.264c0 .08-.024.16-.072.24a.543.543 0 01-.216.18 3.566 3.566 0 01-.636.288c-.224.08-.512.172-.864.276-.552.176-.88.284-.984.324-.52.184-.92.488-1.2.912-.28.416-.428 1.004-.444 1.764.176-.416.452-.76.828-1.032.384-.28.852-.42 1.404-.42.736 0 1.336.248 1.8.744.472.496.708 1.232.708 2.208 0 .544-.112 1.044-.336 1.5a2.59 2.59 0 01-.96 1.092c-.424.272-.924.408-1.5.408zm0-.804c.624 0 1.08-.22 1.368-.66.288-.448.432-.956.432-1.524 0-.672-.148-1.196-.444-1.572-.296-.384-.712-.576-1.248-.576-.416 0-.768.108-1.056.324-.28.208-.488.48-.624.816a2.638 2.638 0 00-.204 1.02c0 .608.14 1.124.42 1.548.28.416.732.624 1.356.624zm8.764-.636c.088 0 .164.036.228.108a.4.4 0 01.096.276c0 .2-.14.384-.42.552a3.805 3.805 0 01-.912.384c-.32.08-.632.12-.936.12-.904 0-1.62-.268-2.148-.804-.52-.536-.78-1.276-.78-2.22 0-.6.116-1.128.348-1.584.232-.464.556-.824.972-1.08a2.731 2.731 0 011.44-.384c.76 0 1.364.248 1.812.744.448.496.672 1.168.672 2.016 0 .16-.032.276-.096.348-.064.072-.168.108-.312.108h-3.864c.072 1.376.724 2.064 1.956 2.064.312 0 .58-.04.804-.12.224-.088.464-.204.72-.348.208-.12.348-.18.42-.18zm-2.1-3.876c-.512 0-.924.16-1.236.48-.304.32-.484.772-.54 1.356h3.396c-.016-.592-.164-1.044-.444-1.356-.28-.32-.672-.48-1.176-.48zm5.668 5.316c-.84 0-1.54-.188-2.1-.564-.152-.096-.228-.22-.228-.372 0-.096.036-.18.108-.252a.38.38 0 01.276-.12c.088 0 .168.024.24.072.256.152.508.264.756.336.256.072.552.108.888.108a2.16 2.16 0 001.08-.264c.32-.176.48-.436.48-.78 0-.584-.4-.876-1.2-.876h-.912a.374.374 0 01-.276-.108.374.374 0 01-.108-.276c0-.104.036-.188.108-.252a.374.374 0 01.276-.108h.828c.352 0 .636-.088.852-.264a.841.841 0 00.324-.684.734.734 0 00-.324-.636c-.216-.152-.536-.228-.96-.228-.352 0-.66.04-.924.12-.256.08-.5.192-.732.336a.492.492 0 01-.216.06.416.416 0 01-.288-.108.4.4 0 01-.108-.276c0-.152.08-.268.24-.348.632-.392 1.352-.588 2.16-.588.736 0 1.28.144 1.632.432.352.28.528.66.528 1.14 0 .288-.092.56-.276.816-.184.248-.44.428-.768.54.4.072.692.228.876.468.184.24.276.536.276.888 0 .552-.24.988-.72 1.308-.48.32-1.076.48-1.788.48zm7.493-.024a.515.515 0 01-.36-.12.47.47 0 01-.132-.348v-4.932c0-.16.044-.284.132-.372a.486.486 0 01.36-.132h4.02c.152 0 .272.044.36.132a.464.464 0 01.144.36v4.944a.47.47 0 01-.132.348.497.497 0 01-.348.12.515.515 0 01-.36-.12.47.47 0 01-.132-.348v-4.668h-3.072v4.668a.47.47 0 01-.132.348.497.497 0 01-.348.12zm10.83-1.416c.088 0 .164.036.228.108a.4.4 0 01.096.276c0 .2-.14.384-.42.552a3.805 3.805 0 01-.912.384c-.32.08-.632.12-.936.12-.904 0-1.62-.268-2.148-.804-.52-.536-.78-1.276-.78-2.22 0-.6.116-1.128.348-1.584.232-.464.556-.824.972-1.08a2.731 2.731 0 011.44-.384c.76 0 1.364.248 1.812.744.448.496.672 1.168.672 2.016 0 .16-.032.276-.096.348-.064.072-.168.108-.312.108h-3.864c.072 1.376.724 2.064 1.956 2.064.312 0 .58-.04.804-.12.224-.088.464-.204.72-.348.208-.12.348-.18.42-.18zm-2.1-3.876c-.512 0-.924.16-1.236.48-.304.32-.484.772-.54 1.356h3.396c-.016-.592-.164-1.044-.444-1.356-.28-.32-.672-.48-1.176-.48zm6.844-.756c.512 0 .964.128 1.356.384.392.256.696.616.912 1.08.216.456.324.988.324 1.596 0 .608-.108 1.14-.324 1.596-.216.448-.52.796-.912 1.044-.384.248-.836.372-1.356.372-.456 0-.856-.1-1.2-.3a1.939 1.939 0 01-.768-.852v2.82a.431.431 0 01-.132.336c-.08.088-.196.132-.348.132a.486.486 0 01-.36-.132.455.455 0 01-.132-.336v-7.236a.47.47 0 01.132-.348.486.486 0 01.36-.132c.152 0 .268.044.348.132a.47.47 0 01.132.348v.648c.176-.368.432-.652.768-.852.344-.2.744-.3 1.2-.3zm-.192 5.268c.568 0 1.008-.192 1.32-.576.312-.384.468-.928.468-1.632 0-.704-.156-1.252-.468-1.644-.312-.4-.752-.6-1.32-.6-.568 0-1.008.192-1.32.576-.304.384-.456.932-.456 1.644 0 .712.152 1.264.456 1.656.312.384.752.576 1.32.576zm8.76-.636c.088 0 .164.036.228.108a.4.4 0 01.096.276c0 .2-.14.384-.42.552a3.805 3.805 0 01-.912.384c-.32.08-.632.12-.936.12-.904 0-1.62-.268-2.148-.804-.52-.536-.78-1.276-.78-2.22 0-.6.116-1.128.348-1.584.232-.464.556-.824.972-1.08a2.731 2.731 0 011.44-.384c.76 0 1.364.248 1.812.744.448.496.672 1.168.672 2.016 0 .16-.032.276-.096.348-.064.072-.168.108-.312.108h-3.864c.072 1.376.724 2.064 1.956 2.064.312 0 .58-.04.804-.12.224-.088.464-.204.72-.348.208-.12.348-.18.42-.18zm-2.1-3.876c-.512 0-.924.16-1.236.48-.304.32-.484.772-.54 1.356h3.396c-.016-.592-.164-1.044-.444-1.356-.28-.32-.672-.48-1.176-.48zm4.372 5.292a.515.515 0 01-.36-.12.47.47 0 01-.132-.348v-4.932c0-.16.044-.284.132-.372a.486.486 0 01.36-.132h4.02c.152 0 .272.044.36.132a.464.464 0 01.144.36v4.944a.47.47 0 01-.132.348.497.497 0 01-.348.12.515.515 0 01-.36-.12.47.47 0 01-.132-.348v-4.668h-3.072v4.668a.47.47 0 01-.132.348.497.497 0 01-.348.12zm7.914-4.44c0 1.256-.132 2.224-.396 2.904-.256.68-.68 1.184-1.272 1.512a.517.517 0 01-.204.036.432.432 0 01-.3-.108.374.374 0 01-.108-.276c0-.08.02-.156.06-.228.04-.072.1-.128.18-.168.288-.168.512-.392.672-.672.168-.28.284-.652.348-1.116.072-.472.108-1.096.108-1.872v-.972c0-.16.044-.284.132-.372a.486.486 0 01.36-.132h3.18c.152 0 .272.044.36.132a.464.464 0 01.144.36v4.944a.436.436 0 01-.144.336.47.47 0 01-.348.132.47.47 0 01-.348-.132.455.455 0 01-.132-.336v-4.668h-2.292v.696zm7.424-1.608c1.464 0 2.196.768 2.196 2.304v3.264a.47.47 0 01-.132.348.431.431 0 01-.336.132.47.47 0 01-.348-.132.47.47 0 01-.132-.348v-.576a1.751 1.751 0 01-.696.804 2.086 2.086 0 01-1.08.276c-.376 0-.724-.076-1.044-.228a1.864 1.864 0 01-.744-.636 1.572 1.572 0 01-.276-.9c0-.44.112-.78.336-1.02.224-.248.592-.424 1.104-.528.512-.112 1.224-.168 2.136-.168h.264v-.396c0-.48-.1-.832-.3-1.056-.192-.224-.508-.336-.948-.336-.544 0-1.096.148-1.656.444-.216.136-.368.204-.456.204a.308.308 0 01-.24-.108.4.4 0 01-.096-.276c0-.112.032-.208.096-.288.072-.088.184-.176.336-.264.28-.16.596-.284.948-.372.36-.096.716-.144 1.068-.144zm-.396 5.304c.48 0 .872-.16 1.176-.48.312-.328.468-.748.468-1.26v-.348h-.216c-.704 0-1.24.032-1.608.096-.368.056-.632.156-.792.3-.152.136-.228.34-.228.612 0 .312.112.572.336.78.232.2.52.3.864.3zm6.159.744a.497.497 0 01-.348-.12.47.47 0 01-.132-.348v-4.668h-1.716a.39.39 0 01-.288-.108.374.374 0 01-.108-.276c0-.112.036-.204.108-.276a.39.39 0 01.288-.108h4.392a.39.39 0 01.288.108.374.374 0 01.108.276.374.374 0 01-.108.276.39.39 0 01-.288.108h-1.704v4.668a.45.45 0 01-.144.348.497.497 0 01-.348.12zm4.071-.06a.529.529 0 01-.372-.132.47.47 0 01-.132-.348v-5.004a.47.47 0 01.132-.348.486.486 0 01.36-.132.47.47 0 01.348.132.47.47 0 01.132.348v1.728h.888c1.488 0 2.232.608 2.232 1.824 0 .432-.108.796-.324 1.092-.216.288-.5.5-.852.636a2.943 2.943 0 01-1.092.204h-1.32zm5.004.06a.497.497 0 01-.348-.12.47.47 0 01-.132-.348v-5.076a.47.47 0 01.132-.348.47.47 0 01.348-.132c.152 0 .272.044.36.132a.47.47 0 01.132.348v5.076a.47.47 0 01-.132.348.515.515 0 01-.36.12zm-3.84-.792c.384 0 .72-.092 1.008-.276.296-.184.444-.488.444-.912 0-.432-.132-.724-.396-.876-.256-.152-.608-.228-1.056-.228h-.708v2.292h.708zm-176.123 11.08a.783.783 0 01.252-.24.642.642 0 01.312-.072c.152 0 .272.048.36.144a.488.488 0 01.144.36v5.052a.455.455 0 01-.132.336.455.455 0 01-.336.132.482.482 0 01-.336-.132.482.482 0 01-.132-.336v-4.188l-3.156 4.368a.632.632 0 01-.54.288.529.529 0 01-.372-.132.488.488 0 01-.144-.36v-5.052a.474.474 0 01.48-.48c.136 0 .248.048.336.144.088.088.132.2.132.336v4.128l3.132-4.296zm8.892-.336c.512 0 .964.128 1.356.384.392.256.696.616.912 1.08.216.456.324.988.324 1.596 0 .608-.108 1.14-.324 1.596-.216.448-.52.796-.912 1.044-.384.248-.836.372-1.356.372-.456 0-.856-.1-1.2-.3a1.939 1.939 0 01-.768-.852v2.82a.431.431 0 01-.132.336c-.08.088-.196.132-.348.132a.486.486 0 01-.36-.132.455.455 0 01-.132-.336v-7.236a.47.47 0 01.132-.348.486.486 0 01.36-.132c.152 0 .268.044.348.132a.47.47 0 01.132.348v.648c.176-.368.432-.652.768-.852.344-.2.744-.3 1.2-.3zm-.192 5.268c.568 0 1.008-.192 1.32-.576.312-.384.468-.928.468-1.632 0-.704-.156-1.252-.468-1.644-.312-.4-.752-.6-1.32-.6-.568 0-1.008.192-1.32.576-.304.384-.456.932-.456 1.644 0 .712.152 1.264.456 1.656.312.384.752.576 1.32.576zm6.624-5.268c1.464 0 2.196.768 2.196 2.304v3.264a.47.47 0 01-.132.348.431.431 0 01-.336.132.47.47 0 01-.348-.132.47.47 0 01-.132-.348v-.576a1.751 1.751 0 01-.696.804 2.086 2.086 0 01-1.08.276c-.376 0-.724-.076-1.044-.228a1.864 1.864 0 01-.744-.636 1.572 1.572 0 01-.276-.9c0-.44.112-.78.336-1.02.224-.248.592-.424 1.104-.528.512-.112 1.224-.168 2.136-.168h.264v-.396c0-.48-.1-.832-.3-1.056-.192-.224-.508-.336-.948-.336-.544 0-1.096.148-1.656.444-.216.136-.368.204-.456.204a.308.308 0 01-.24-.108.4.4 0 01-.096-.276c0-.112.032-.208.096-.288.072-.088.184-.176.336-.264.28-.16.596-.284.948-.372.36-.096.716-.144 1.068-.144zm-.396 5.304c.48 0 .872-.16 1.176-.48.312-.328.468-.748.468-1.26v-.348h-.216c-.704 0-1.24.032-1.608.096-.368.056-.632.156-.792.3-.152.136-.228.34-.228.612 0 .312.112.572.336.78.232.2.52.3.864.3zm6.784.768a2.822 2.822 0 01-1.452-.372c-.416-.248-.74-.6-.972-1.056-.224-.456-.336-.984-.336-1.584 0-.6.116-1.132.348-1.596.24-.464.572-.824.996-1.08.424-.256.912-.384 1.464-.384.304 0 .604.044.9.132.304.08.568.2.792.36a.945.945 0 01.3.288.497.497 0 01.096.3.4.4 0 01-.096.276.273.273 0 01-.228.108.405.405 0 01-.18-.048 1.57 1.57 0 01-.168-.096 3.72 3.72 0 00-.684-.384 1.717 1.717 0 00-.684-.12c-.584 0-1.04.2-1.368.6-.32.392-.48.94-.48 1.644s.16 1.248.48 1.632c.328.384.784.576 1.368.576.272 0 .504-.04.696-.12.2-.08.4-.188.6-.324.088-.056.172-.104.252-.144.08-.04.148-.06.204-.06.088 0 .16.036.216.108a.4.4 0 01.096.276c0 .104-.028.2-.084.288-.056.08-.16.172-.312.276a2.962 2.962 0 01-.816.372 3.476 3.476 0 01-.948.132zm5.118-.024a.497.497 0 01-.348-.12.47.47 0 01-.132-.348v-4.668h-1.716a.39.39 0 01-.288-.108.374.374 0 01-.108-.276c0-.112.036-.204.108-.276a.39.39 0 01.288-.108h4.392a.39.39 0 01.288.108.374.374 0 01.108.276.374.374 0 01-.108.276.39.39 0 01-.288.108h-1.704v4.668a.45.45 0 01-.144.348.497.497 0 01-.348.12zm7.599 0a.515.515 0 01-.36-.12.486.486 0 01-.132-.36v-1.776h-.744c-.32 0-.596.072-.828.216a2.125 2.125 0 00-.612.636l-.78 1.2c-.112.16-.252.24-.42.24a.467.467 0 01-.324-.132.41.41 0 01-.144-.312c0-.08.032-.172.096-.276l.504-.804c.168-.264.352-.484.552-.66.208-.176.42-.292.636-.348-.544-.08-.936-.268-1.176-.564a1.607 1.607 0 01-.36-1.044c0-.576.18-1.02.54-1.332.368-.312.856-.468 1.464-.468h2.064c.152 0 .272.044.36.132a.47.47 0 01.132.348v4.944a.486.486 0 01-.132.36.454.454 0 01-.336.12zm-.492-5.172h-1.332c-.424 0-.752.092-.984.276-.232.184-.348.46-.348.828 0 .392.124.672.372.84.256.16.584.24.984.24h1.308v-2.184zm3.221 5.172a.515.515 0 01-.36-.12.47.47 0 01-.132-.348v-4.932c0-.152.044-.272.132-.36a.464.464 0 01.36-.144h3.012a.39.39 0 01.288.108.374.374 0 01.108.276.374.374 0 01-.108.276.39.39 0 01-.288.108H75.42v4.668a.47.47 0 01-.132.348.497.497 0 01-.348.12zm8.487-5.712a.783.783 0 01.252-.24.642.642 0 01.312-.072c.152 0 .272.048.36.144a.488.488 0 01.144.36v5.052a.455.455 0 01-.132.336.455.455 0 01-.336.132.482.482 0 01-.336-.132.482.482 0 01-.132-.336v-4.188l-3.156 4.368a.632.632 0 01-.54.288.529.529 0 01-.372-.132.488.488 0 01-.144-.36v-5.052a.474.474 0 01.48-.48c.136 0 .248.048.336.144.088.088.132.2.132.336v4.128l3.132-4.296zm3.338 5.652a.529.529 0 01-.372-.132.47.47 0 01-.132-.348v-4.86c0-.152.044-.272.132-.36a.464.464 0 01.36-.144h2.076c.64 0 1.136.124 1.488.372.352.248.528.62.528 1.116 0 .288-.084.556-.252.804-.168.248-.424.432-.768.552.36.064.644.216.852.456.216.24.324.544.324.912 0 .272-.076.532-.228.78-.144.248-.376.452-.696.612-.32.16-.72.24-1.2.24h-2.112zm1.992-3.324c.336 0 .608-.084.816-.252a.88.88 0 00.312-.708c0-.56-.388-.84-1.164-.84h-1.488v1.8h1.524zm.024 2.604c.824 0 1.236-.316 1.236-.948 0-.32-.12-.56-.36-.72-.24-.16-.568-.24-.984-.24h-1.44v1.908h1.548zm6.032-5.268c1.464 0 2.196.768 2.196 2.304v3.264a.47.47 0 01-.132.348.431.431 0 01-.336.132.47.47 0 01-.348-.132.47.47 0 01-.132-.348v-.576a1.751 1.751 0 01-.696.804 2.086 2.086 0 01-1.08.276c-.376 0-.724-.076-1.044-.228a1.864 1.864 0 01-.744-.636 1.572 1.572 0 01-.276-.9c0-.44.112-.78.336-1.02.224-.248.592-.424 1.104-.528.512-.112 1.224-.168 2.136-.168h.264v-.396c0-.48-.1-.832-.3-1.056-.192-.224-.508-.336-.948-.336-.544 0-1.096.148-1.656.444-.216.136-.368.204-.456.204a.308.308 0 01-.24-.108.4.4 0 01-.096-.276c0-.112.032-.208.096-.288.072-.088.184-.176.336-.264.28-.16.596-.284.948-.372.36-.096.716-.144 1.068-.144zm-.396 5.304c.48 0 .872-.16 1.176-.48.312-.328.468-.748.468-1.26v-.348h-.216c-.704 0-1.24.032-1.608.096-.368.056-.632.156-.792.3-.152.136-.228.34-.228.612 0 .312.112.572.336.78.232.2.52.3.864.3zm8.428-4.968a.783.783 0 01.252-.24.642.642 0 01.312-.072c.152 0 .272.048.36.144a.488.488 0 01.144.36v5.052a.455.455 0 01-.132.336.455.455 0 01-.336.132.482.482 0 01-.336-.132.482.482 0 01-.132-.336v-4.188l-3.156 4.368a.632.632 0 01-.54.288.529.529 0 01-.372-.132.488.488 0 01-.144-.36v-5.052a.474.474 0 01.48-.48c.136 0 .248.048.336.144.088.088.132.2.132.336v4.128l3.132-4.296zm-1.488-1.356c-.448 0-.836-.104-1.164-.312a1.865 1.865 0 01-.732-.9.592.592 0 01-.036-.18.34.34 0 01.096-.252.367.367 0 01.252-.096c.16 0 .28.08.36.24.264.544.672.816 1.224.816.264 0 .496-.068.696-.204.208-.144.38-.348.516-.612.088-.16.208-.24.36-.24.096 0 .176.032.24.096a.321.321 0 01.108.252.514.514 0 01-.036.18 1.85 1.85 0 01-.732.9 2.105 2.105 0 01-1.152.312zm6.134 7.068a.497.497 0 01-.348-.12.47.47 0 01-.132-.348v-4.668h-1.716a.39.39 0 01-.288-.108.374.374 0 01-.108-.276c0-.112.036-.204.108-.276a.39.39 0 01.288-.108h4.392a.39.39 0 01.288.108.374.374 0 01.108.276.374.374 0 01-.108.276.39.39 0 01-.288.108h-1.704v4.668a.45.45 0 01-.144.348.497.497 0 01-.348.12zm8.079-1.416c.088 0 .164.036.228.108a.4.4 0 01.096.276c0 .2-.14.384-.42.552a3.805 3.805 0 01-.912.384c-.32.08-.632.12-.936.12-.904 0-1.62-.268-2.148-.804-.52-.536-.78-1.276-.78-2.22 0-.6.116-1.128.348-1.584.232-.464.556-.824.972-1.08a2.731 2.731 0 011.44-.384c.76 0 1.364.248 1.812.744.448.496.672 1.168.672 2.016 0 .16-.032.276-.096.348-.064.072-.168.108-.312.108h-3.864c.072 1.376.724 2.064 1.956 2.064.312 0 .58-.04.804-.12.224-.088.464-.204.72-.348.208-.12.348-.18.42-.18zm-2.1-3.876c-.512 0-.924.16-1.236.48-.304.32-.484.772-.54 1.356h3.396c-.016-.592-.164-1.044-.444-1.356-.28-.32-.672-.48-1.176-.48zm7.466 5.292a.515.515 0 01-.36-.12.47.47 0 01-.132-.348v-4.932c0-.16.044-.284.132-.372a.486.486 0 01.36-.132h4.02c.152 0 .272.044.36.132a.464.464 0 01.144.36v4.944a.47.47 0 01-.132.348.497.497 0 01-.348.12.515.515 0 01-.36-.12.47.47 0 01-.132-.348v-4.668h-3.072v4.668a.47.47 0 01-.132.348.497.497 0 01-.348.12zm7.914-4.44c0 1.256-.132 2.224-.396 2.904-.256.68-.68 1.184-1.272 1.512a.517.517 0 01-.204.036.432.432 0 01-.3-.108.374.374 0 01-.108-.276c0-.08.02-.156.06-.228.04-.072.1-.128.18-.168.288-.168.512-.392.672-.672.168-.28.284-.652.348-1.116.072-.472.108-1.096.108-1.872v-.972c0-.16.044-.284.132-.372a.486.486 0 01.36-.132h3.18c.152 0 .272.044.36.132a.464.464 0 01.144.36v4.944a.436.436 0 01-.144.336.47.47 0 01-.348.132.47.47 0 01-.348-.132.455.455 0 01-.132-.336v-4.668h-2.292v.696zm7.424-1.608c1.464 0 2.196.768 2.196 2.304v3.264a.47.47 0 01-.132.348.431.431 0 01-.336.132.47.47 0 01-.348-.132.47.47 0 01-.132-.348v-.576a1.751 1.751 0 01-.696.804 2.086 2.086 0 01-1.08.276c-.376 0-.724-.076-1.044-.228a1.864 1.864 0 01-.744-.636 1.572 1.572 0 01-.276-.9c0-.44.112-.78.336-1.02.224-.248.592-.424 1.104-.528.512-.112 1.224-.168 2.136-.168h.264v-.396c0-.48-.1-.832-.3-1.056-.192-.224-.508-.336-.948-.336-.544 0-1.096.148-1.656.444-.216.136-.368.204-.456.204a.308.308 0 01-.24-.108.4.4 0 01-.096-.276c0-.112.032-.208.096-.288.072-.088.184-.176.336-.264.28-.16.596-.284.948-.372.36-.096.716-.144 1.068-.144zm-.396 5.304c.48 0 .872-.16 1.176-.48.312-.328.468-.748.468-1.26v-.348h-.216c-.704 0-1.24.032-1.608.096-.368.056-.632.156-.792.3-.152.136-.228.34-.228.612 0 .312.112.572.336.78.232.2.52.3.864.3zm6.16.744a.497.497 0 01-.348-.12.47.47 0 01-.132-.348v-4.668h-1.716a.39.39 0 01-.288-.108.374.374 0 01-.108-.276c0-.112.036-.204.108-.276a.39.39 0 01.288-.108h4.392a.39.39 0 01.288.108.374.374 0 01.108.276.374.374 0 01-.108.276.39.39 0 01-.288.108h-1.704v4.668a.45.45 0 01-.144.348.497.497 0 01-.348.12zm8.079-1.416c.088 0 .164.036.228.108a.4.4 0 01.096.276c0 .2-.14.384-.42.552a3.805 3.805 0 01-.912.384c-.32.08-.632.12-.936.12-.904 0-1.62-.268-2.148-.804-.52-.536-.78-1.276-.78-2.22 0-.6.116-1.128.348-1.584.232-.464.556-.824.972-1.08a2.731 2.731 0 011.44-.384c.76 0 1.364.248 1.812.744.448.496.672 1.168.672 2.016 0 .16-.032.276-.096.348-.064.072-.168.108-.312.108h-3.864c.072 1.376.724 2.064 1.956 2.064.312 0 .58-.04.804-.12.224-.088.464-.204.72-.348.208-.12.348-.18.42-.18zm-2.1-3.876c-.512 0-.924.16-1.236.48-.304.32-.484.772-.54 1.356h3.396c-.016-.592-.164-1.044-.444-1.356-.28-.32-.672-.48-1.176-.48zm7.156 5.292a.497.497 0 01-.348-.132.47.47 0 01-.132-.348v-2.232h-.48c-.344 0-.62.08-.828.24-.2.16-.376.408-.528.744l-.648 1.428c-.088.2-.232.3-.432.3a.525.525 0 01-.348-.132.423.423 0 01-.144-.324c0-.04.016-.108.048-.204l.564-1.224c.192-.4.384-.704.576-.912.192-.208.44-.348.744-.42l-1.488-2.088a.545.545 0 01-.096-.276c0-.12.044-.22.132-.3a.467.467 0 01.324-.132c.16 0 .288.076.384.228l1.632 2.388h.588v-2.136a.47.47 0 01.48-.492.47.47 0 01.348.132.486.486 0 01.132.36v2.136h.6l1.608-2.376c.104-.16.236-.24.396-.24.12 0 .224.044.312.132.096.08.144.18.144.3a.463.463 0 01-.096.276l-1.476 2.088c.304.072.552.212.744.42.192.2.38.504.564.912l.576 1.224a.45.45 0 01-.108.54.525.525 0 01-.348.132.482.482 0 01-.252-.072.549.549 0 01-.168-.228l-.648-1.44c-.16-.336-.344-.584-.552-.744-.2-.16-.472-.24-.816-.24h-.48v2.232a.47.47 0 01-.132.348.47.47 0 01-.348.132zm9.113-5.712a.783.783 0 01.252-.24.642.642 0 01.312-.072c.152 0 .272.048.36.144a.488.488 0 01.144.36v5.052a.455.455 0 01-.132.336.455.455 0 01-.336.132.482.482 0 01-.336-.132.482.482 0 01-.132-.336v-4.188l-3.156 4.368a.632.632 0 01-.54.288.529.529 0 01-.372-.132.488.488 0 01-.144-.36v-5.052a.474.474 0 01.48-.48c.136 0 .248.048.336.144.088.088.132.2.132.336v4.128l3.132-4.296zM34.194 139.287a.515.515 0 01-.36-.12.47.47 0 01-.132-.348v-5.076a.47.47 0 01.132-.348.486.486 0 01.36-.132.47.47 0 01.348.132.47.47 0 01.132.348v2.088h3.144v-2.088a.47.47 0 01.132-.348.513.513 0 01.36-.132.47.47 0 01.348.132.47.47 0 01.132.348l.012 5.052a.486.486 0 01-.132.36.486.486 0 01-.36.132.513.513 0 01-.36-.132.486.486 0 01-.132-.36v-2.184h-3.144v2.208a.47.47 0 01-.132.348.497.497 0 01-.348.12zm8.776-6.048c1.464 0 2.196.768 2.196 2.304v3.264a.47.47 0 01-.132.348.431.431 0 01-.336.132.47.47 0 01-.348-.132.47.47 0 01-.132-.348v-.576a1.751 1.751 0 01-.696.804 2.086 2.086 0 01-1.08.276c-.376 0-.724-.076-1.044-.228a1.864 1.864 0 01-.744-.636 1.572 1.572 0 01-.276-.9c0-.44.112-.78.336-1.02.224-.248.592-.424 1.104-.528.512-.112 1.224-.168 2.136-.168h.264v-.396c0-.48-.1-.832-.3-1.056-.192-.224-.508-.336-.948-.336-.544 0-1.096.148-1.656.444-.216.136-.368.204-.456.204a.308.308 0 01-.24-.108.4.4 0 01-.096-.276c0-.112.032-.208.096-.288.072-.088.184-.176.336-.264.28-.16.596-.284.948-.372.36-.096.716-.144 1.068-.144zm-.396 5.304c.48 0 .872-.16 1.176-.48.312-.328.468-.748.468-1.26v-.348h-.216c-.704 0-1.24.032-1.608.096-.368.056-.632.156-.792.3-.152.136-.228.34-.228.612 0 .312.112.572.336.78.232.2.52.3.864.3zm12.469-.144c.144 0 .256.036.336.108.08.072.12.172.12.3 0 .136-.04.24-.12.312-.072.072-.184.108-.336.108H51.07c-.152 0-.268-.036-.348-.108-.072-.072-.108-.176-.108-.312 0-.128.04-.228.12-.3a.485.485 0 01.336-.108h1.488v-6.432l-1.308.852a.36.36 0 01-.192.06c-.112 0-.212-.052-.3-.156a.54.54 0 01-.12-.336c0-.168.064-.288.192-.36l1.824-1.188a.764.764 0 01.42-.132c.136 0 .248.044.336.132a.503.503 0 01.132.372v7.188h1.5zm7.387 0c.144 0 .256.036.336.108.08.072.12.172.12.3 0 .28-.152.42-.456.42h-4.704a.48.48 0 01-.336-.12.427.427 0 01-.132-.312c0-.152.056-.284.168-.396l2.892-3.18c.4-.448.688-.848.864-1.2.184-.36.276-.72.276-1.08 0-.464-.136-.82-.408-1.068-.264-.248-.64-.372-1.128-.372-.384 0-.752.072-1.104.216a3.906 3.906 0 00-1.056.636c-.12.096-.232.144-.336.144a.285.285 0 01-.228-.12.516.516 0 01-.096-.312.5.5 0 01.192-.408 3.582 3.582 0 011.2-.72 4.124 4.124 0 011.452-.264c.76 0 1.364.2 1.812.6.456.4.684.94.684 1.62a3.1 3.1 0 01-.336 1.404c-.216.448-.576.948-1.08 1.5l-2.4 2.604h3.804zm10.553-5.136c.152 0 .272.044.36.132a.464.464 0 01.144.36v5.076a.455.455 0 01-.132.336.438.438 0 01-.324.12.48.48 0 01-.336-.12.48.48 0 01-.12-.336l.012-3.9-1.656 3.096c-.04.08-.1.144-.18.192a.504.504 0 01-.516 0 .489.489 0 01-.168-.192l-1.668-3.096.012 3.9a.455.455 0 01-.132.336.438.438 0 01-.324.12.48.48 0 01-.336-.12.48.48 0 01-.12-.336v-5.064c0-.152.044-.272.132-.36a.464.464 0 01.36-.144c.24 0 .416.108.528.324l1.98 3.72 1.956-3.696c.12-.232.296-.348.528-.348zm6.798 4.608c.088 0 .164.036.228.108a.4.4 0 01.096.276c0 .2-.14.384-.42.552a3.805 3.805 0 01-.912.384c-.32.08-.632.12-.936.12-.904 0-1.62-.268-2.148-.804-.52-.536-.78-1.276-.78-2.22 0-.6.116-1.128.348-1.584.232-.464.556-.824.972-1.08a2.731 2.731 0 011.44-.384c.76 0 1.364.248 1.812.744.448.496.672 1.168.672 2.016 0 .16-.032.276-.096.348-.064.072-.168.108-.312.108h-3.864c.072 1.376.724 2.064 1.956 2.064.312 0 .58-.04.804-.12.224-.088.464-.204.72-.348.208-.12.348-.18.42-.18zm-2.1-3.876c-.512 0-.924.16-1.236.48-.304.32-.484.772-.54 1.356h3.396c-.016-.592-.164-1.044-.444-1.356-.28-.32-.672-.48-1.176-.48zm6.317 5.316a2.822 2.822 0 01-1.453-.372c-.416-.248-.74-.6-.972-1.056-.223-.456-.335-.984-.335-1.584 0-.6.115-1.132.347-1.596.24-.464.573-.824.997-1.08.424-.256.912-.384 1.464-.384.303 0 .603.044.9.132.303.08.567.2.791.36a.945.945 0 01.3.288.497.497 0 01.096.3.4.4 0 01-.096.276.273.273 0 01-.228.108.405.405 0 01-.18-.048 1.57 1.57 0 01-.168-.096 3.72 3.72 0 00-.684-.384 1.717 1.717 0 00-.683-.12c-.584 0-1.04.2-1.368.6-.32.392-.48.94-.48 1.644s.16 1.248.48 1.632c.328.384.784.576 1.368.576.272 0 .504-.04.696-.12.2-.08.4-.188.6-.324.088-.056.171-.104.251-.144.08-.04.148-.06.204-.06.088 0 .16.036.216.108a.4.4 0 01.096.276c0 .104-.028.2-.084.288-.055.08-.16.172-.311.276a2.962 2.962 0 01-.817.372 3.476 3.476 0 01-.947.132zm7.338-.024a.515.515 0 01-.36-.12.486.486 0 01-.132-.36v-1.776H90.1c-.32 0-.596.072-.828.216a2.125 2.125 0 00-.612.636l-.78 1.2c-.112.16-.252.24-.42.24a.467.467 0 01-.324-.132.41.41 0 01-.144-.312c0-.08.032-.172.096-.276l.504-.804c.168-.264.352-.484.552-.66.208-.176.42-.292.636-.348-.544-.08-.936-.268-1.176-.564a1.607 1.607 0 01-.36-1.044c0-.576.18-1.02.54-1.332.368-.312.856-.468 1.464-.468h2.064c.152 0 .272.044.36.132a.47.47 0 01.132.348v4.944a.486.486 0 01-.132.36.454.454 0 01-.336.12zm-.492-5.172h-1.332c-.424 0-.752.092-.984.276-.232.184-.348.46-.348.828 0 .392.124.672.372.84.256.16.584.24.984.24h1.308v-2.184zm8.057 6.696a.431.431 0 01-.336-.132.454.454 0 01-.12-.336v-1.116h-4.368c-.16 0-.284-.04-.372-.12a.486.486 0 01-.132-.36v-5.004a.47.47 0 01.132-.348.486.486 0 01.36-.132.47.47 0 01.348.132.47.47 0 01.132.348v4.716h2.916v-4.716a.47.47 0 01.132-.348.486.486 0 01.36-.132.47.47 0 01.348.132.47.47 0 01.132.348v4.716h.408c.16 0 .284.044.372.132a.486.486 0 01.132.36v1.392c0 .144-.04.256-.12.336a.416.416 0 01-.324.132z" fill="#434343"/><path d="M32.88 64.227v-25.56h10.728c1.152 0 2.208.24 3.168.72a7.96 7.96 0 012.52 1.908 8.553 8.553 0 011.656 2.664c.384.984.576 1.992.576 3.024 0 1.44-.324 2.796-.972 4.068a8.22 8.22 0 01-2.7 3.096c-1.152.792-2.496 1.188-4.032 1.188h-6.912v8.892H32.88zm4.032-12.456h6.66c1.128 0 2.052-.456 2.772-1.368.72-.912 1.08-2.052 1.08-3.42 0-.936-.192-1.752-.576-2.448-.384-.72-.888-1.284-1.512-1.692a3.447 3.447 0 00-1.98-.612h-6.444v9.54zm16.315 6.948c0-1.2.336-2.244 1.008-3.132.672-.912 1.608-1.608 2.808-2.088 1.224-.504 2.628-.756 4.212-.756.84 0 1.692.072 2.556.216.888.12 1.668.3 2.34.54v-1.188c0-1.32-.396-2.352-1.188-3.096-.792-.744-1.932-1.116-3.42-1.116-1.032 0-2.028.18-2.988.54-.96.36-1.956.888-2.988 1.584l-1.332-2.664c1.248-.816 2.496-1.428 3.744-1.836a12.34 12.34 0 013.996-.648c2.52 0 4.5.672 5.94 2.016 1.464 1.32 2.196 3.204 2.196 5.652v7.02c0 .456.072.78.216.972.168.192.444.3.828.324v3.168a8.69 8.69 0 01-1.692.18c-.864 0-1.512-.204-1.944-.612-.408-.432-.648-.912-.72-1.44l-.108-1.08c-.816 1.056-1.86 1.872-3.132 2.448-1.272.576-2.556.864-3.852.864-1.248 0-2.364-.252-3.348-.756-.984-.528-1.752-1.236-2.304-2.124-.552-.888-.828-1.884-.828-2.988zm11.988 1.152c.624-.624.936-1.212.936-1.764v-2.16a12.276 12.276 0 00-4.32-.792c-1.44 0-2.616.3-3.528.9-.888.576-1.332 1.356-1.332 2.34 0 .816.324 1.572.972 2.268.672.672 1.632 1.008 2.88 1.008a6.21 6.21 0 002.448-.504c.792-.336 1.44-.768 1.944-1.296zm18.232 4.716c-1.944 0-3.648-.444-5.112-1.332a9.647 9.647 0 01-3.42-3.6c-.816-1.488-1.224-3.108-1.224-4.86 0-1.752.396-3.36 1.188-4.824a9.463 9.463 0 013.384-3.564c1.464-.888 3.192-1.332 5.184-1.332 1.944 0 3.612.432 5.004 1.296 1.416.84 2.472 1.968 3.168 3.384l-3.852 1.224a4.51 4.51 0 00-1.836-1.836 4.912 4.912 0 00-2.556-.684 5.238 5.238 0 00-2.88.828c-.84.528-1.512 1.272-2.016 2.232-.48.96-.72 2.052-.72 3.276 0 1.224.252 2.316.756 3.276.528.96 1.212 1.728 2.052 2.304a5.177 5.177 0 002.844.828c.96 0 1.872-.252 2.736-.756.864-.504 1.44-1.116 1.728-1.836l3.888 1.152c-.624 1.416-1.668 2.58-3.132 3.492-1.464.888-3.192 1.332-5.184 1.332zm19.934 0c-1.944 0-3.648-.444-5.112-1.332a9.647 9.647 0 01-3.42-3.6c-.816-1.488-1.224-3.108-1.224-4.86 0-1.752.396-3.36 1.188-4.824a9.463 9.463 0 013.384-3.564c1.464-.888 3.192-1.332 5.184-1.332 1.944 0 3.612.432 5.004 1.296 1.416.84 2.472 1.968 3.168 3.384l-3.852 1.224a4.51 4.51 0 00-1.836-1.836 4.912 4.912 0 00-2.556-.684 5.238 5.238 0 00-2.88.828c-.84.528-1.512 1.272-2.016 2.232-.48.96-.72 2.052-.72 3.276 0 1.224.252 2.316.756 3.276.528.96 1.212 1.728 2.052 2.304a5.177 5.177 0 002.844.828c.96 0 1.872-.252 2.736-.756.864-.504 1.44-1.116 1.728-1.836l3.888 1.152c-.624 1.416-1.668 2.58-3.132 3.492-1.464.888-3.192 1.332-5.184 1.332zm22.269 0c-1.512 0-2.844-.36-3.996-1.08a8.06 8.06 0 01-2.736-2.808v11.196h-3.96V45.4h3.492v3.384a8.17 8.17 0 012.808-2.7c1.152-.672 2.436-1.008 3.852-1.008 1.728 0 3.252.456 4.572 1.368 1.344.888 2.4 2.076 3.168 3.564.768 1.464 1.152 3.06 1.152 4.788 0 1.824-.36 3.48-1.08 4.968-.72 1.464-1.704 2.64-2.952 3.528-1.248.864-2.688 1.296-4.32 1.296zm-1.296-3.384c1.128 0 2.1-.3 2.916-.9a6.256 6.256 0 001.944-2.376c.48-.984.72-2.028.72-3.132 0-1.152-.264-2.208-.792-3.168a6.044 6.044 0 00-2.088-2.304c-.864-.576-1.86-.864-2.988-.864-.672 0-1.38.168-2.124.504-.72.336-1.356.78-1.908 1.332-.552.552-.924 1.176-1.116 1.872V57.1a7.29 7.29 0 002.196 2.916c1.008.792 2.088 1.188 3.24 1.188zm21.67 3.384c-1.968 0-3.684-.444-5.148-1.332a9.533 9.533 0 01-3.348-3.564c-.792-1.488-1.188-3.108-1.188-4.86 0-1.752.396-3.36 1.188-4.824a9.463 9.463 0 013.384-3.564c1.464-.912 3.168-1.368 5.112-1.368s3.636.456 5.076 1.368a9.11 9.11 0 013.384 3.564c.816 1.464 1.224 3.072 1.224 4.824 0 1.752-.396 3.372-1.188 4.86-.792 1.464-1.92 2.652-3.384 3.564-1.44.888-3.144 1.332-5.112 1.332zm-5.616-9.72c0 1.2.252 2.28.756 3.24.504.96 1.176 1.716 2.016 2.268.84.552 1.788.828 2.844.828a5.003 5.003 0 002.808-.828 6.15 6.15 0 002.052-2.304c.504-.96.756-2.04.756-3.24 0-1.2-.252-2.28-.756-3.24-.504-.96-1.188-1.716-2.052-2.268a4.854 4.854 0 00-2.808-.864c-1.032 0-1.98.288-2.844.864-.84.552-1.512 1.32-2.016 2.304-.504.96-.756 2.04-.756 3.24zm29.396 9.36v-7.164c-1.392.648-3 .972-4.824.972-2.016 0-3.576-.528-4.68-1.584-1.08-1.08-1.62-2.676-1.62-4.788V45.4h3.96v5.76c0 1.32.276 2.292.828 2.916.552.6 1.44.9 2.664.9a9.1 9.1 0 001.98-.216c.672-.144 1.236-.336 1.692-.576V45.4h3.996v18.828h-3.996zm8.787 0V45.4h3.924v7.452h1.872l5.544-7.452h4.392l-6.876 9.108 7.668 9.72h-4.572l-6.192-7.812h-1.836v7.812h-3.924zm18.108-5.508c0-1.2.336-2.244 1.008-3.132.672-.912 1.608-1.608 2.808-2.088 1.224-.504 2.628-.756 4.212-.756.84 0 1.692.072 2.556.216.888.12 1.668.3 2.34.54v-1.188c0-1.32-.396-2.352-1.188-3.096-.792-.744-1.932-1.116-3.42-1.116-1.032 0-2.028.18-2.988.54-.96.36-1.956.888-2.988 1.584l-1.332-2.664c1.248-.816 2.496-1.428 3.744-1.836a12.34 12.34 0 013.996-.648c2.52 0 4.5.672 5.94 2.016 1.464 1.32 2.196 3.204 2.196 5.652v7.02c0 .456.072.78.216.972.168.192.444.3.828.324v3.168a8.69 8.69 0 01-1.692.18c-.864 0-1.512-.204-1.944-.612-.408-.432-.648-.912-.72-1.44l-.108-1.08c-.816 1.056-1.86 1.872-3.132 2.448-1.272.576-2.556.864-3.852.864-1.248 0-2.364-.252-3.348-.756-.984-.528-1.752-1.236-2.304-2.124-.552-.888-.828-1.884-.828-2.988zm11.988 1.152c.624-.624.936-1.212.936-1.764v-2.16a12.276 12.276 0 00-4.32-.792c-1.44 0-2.616.3-3.528.9-.888.576-1.332 1.356-1.332 2.34 0 .816.324 1.572.972 2.268.672.672 1.632 1.008 2.88 1.008a6.21 6.21 0 002.448-.504c.792-.336 1.44-.768 1.944-1.296z" fill="#202020"/><path d="M267.795 120.671c0 2.816-.544 5.328-1.632 7.536-1.088 2.176-2.576 3.888-4.464 5.136-1.888 1.248-4.032 1.872-6.432 1.872-2.4 0-4.544-.624-6.432-1.872-1.888-1.248-3.376-2.96-4.464-5.136-1.088-2.208-1.632-4.72-1.632-7.536s.544-5.312 1.632-7.488c1.088-2.208 2.576-3.936 4.464-5.184 1.888-1.28 4.032-1.92 6.432-1.92 2.4 0 4.544.64 6.432 1.92 1.888 1.248 3.376 2.976 4.464 5.184 1.088 2.176 1.632 4.672 1.632 7.488zm-7.728 0c0-2.24-.464-4.048-1.392-5.424-.896-1.408-2.032-2.112-3.408-2.112-1.44 0-2.608.704-3.504 2.112-.896 1.376-1.344 3.184-1.344 5.424s.448 4.048 1.344 5.424c.896 1.376 2.064 2.064 3.504 2.064 1.376 0 2.512-.688 3.408-2.064.928-1.376 1.392-3.184 1.392-5.424zm12.541 4.32v-6.912h14.784v6.912h-14.784zm44.64-4.32c0 2.816-.544 5.328-1.632 7.536-1.088 2.176-2.576 3.888-4.464 5.136-1.888 1.248-4.032 1.872-6.432 1.872-2.4 0-4.544-.624-6.432-1.872-1.888-1.248-3.376-2.96-4.464-5.136-1.088-2.208-1.632-4.72-1.632-7.536s.544-5.312 1.632-7.488c1.088-2.208 2.576-3.936 4.464-5.184 1.888-1.28 4.032-1.92 6.432-1.92 2.4 0 4.544.64 6.432 1.92 1.888 1.248 3.376 2.976 4.464 5.184 1.088 2.176 1.632 4.672 1.632 7.488zm-7.728 0c0-2.24-.464-4.048-1.392-5.424-.896-1.408-2.032-2.112-3.408-2.112-1.44 0-2.608.704-3.504 2.112-.896 1.376-1.344 3.184-1.344 5.424s.448 4.048 1.344 5.424c.896 1.376 2.064 2.064 3.504 2.064 1.376 0 2.512-.688 3.408-2.064.928-1.376 1.392-3.184 1.392-5.424zm12.541 4.32v-6.912h14.784v6.912h-14.784zm41.089 2.832v6.912h-20.736v-6.912h6.816v-12.24c-.384.512-1.04 1.024-1.968 1.536-.896.512-1.888.96-2.976 1.344-1.056.352-2 .528-2.832.528v-7.104c.544 0 1.216-.176 2.016-.528.8-.352 1.6-.768 2.4-1.248a18.015 18.015 0 002.16-1.536c.64-.512 1.04-.928 1.2-1.248h7.824v20.496h6.096zm2.811 6.912c0-2.016.224-3.76.672-5.232a10.12 10.12 0 012.256-3.936c1.088-1.152 2.576-2.24 4.464-3.264 2.016-1.088 3.584-1.936 4.704-2.544 1.152-.64 1.952-1.184 2.4-1.632.48-.48.72-1.024.72-1.632 0-.896-.32-1.616-.96-2.16-.64-.544-1.552-.816-2.736-.816-1.312 0-2.48.336-3.504 1.008-1.024.64-2 1.488-2.928 2.544l-4.848-5.664c.704-.736 1.68-1.456 2.928-2.16 1.28-.704 2.736-1.28 4.368-1.728 1.664-.448 3.44-.672 5.328-.672 3.424 0 6.064.768 7.92 2.304 1.856 1.504 2.784 3.52 2.784 6.048 0 1.44-.288 2.672-.864 3.696a8.25 8.25 0 01-2.16 2.544 25.757 25.757 0 01-2.688 1.92c-1.536.8-2.88 1.536-4.032 2.208a15.193 15.193 0 00-3.024 2.256h13.296v6.912h-24.096z" fill="#385823"/></svg>