<svg width="11" height="15" fill="none" xmlns="http://www.w3.org/2000/svg"><path d="M10.495 1.504v7.665a.532.532 0 01-.532.533c-.01 0-.02-.003-.029-.003H7.85a.622.622 0 01-.113.134l-2.075 3.594-.005-.003a1.202 1.202 0 01-1.046.616 1.215 1.215 0 01-1.206-1.223h-.012V9.699H.518v-.004a.532.532 0 01-.516-.527H0V3.256h.001c0-.068.026-.136.078-.188H.078l2.05-2.051.005.005a.26.26 0 01.203-.057h7.582c.015-.002.03-.005.046-.005a.531.531 0 01.53.505h.001v.017l.001.01v.012zM.63 3.256l.008-.01-.01.01H.63z" fill="#E95131"/></svg>