<svg width="151" height="73" fill="none" xmlns="http://www.w3.org/2000/svg"><path d="M-.083 63.237h8.198v1.947H2.98v1.458h4.761v1.86h-4.76V70.3H8.26v2.066H-.083v-9.13zm16.577 5.387l2.68.745a4.4 4.4 0 01-.85 1.737 3.66 3.66 0 01-1.441 1.052c-.7.256-1.444.376-2.19.354a6.88 6.88 0 01-2.637-.432 4.072 4.072 0 01-1.763-1.52c-.497-.727-.744-1.656-.743-2.787 0-1.507.435-2.666 1.305-3.477.87-.81 2.101-1.216 3.695-1.214 1.25 0 2.23.234 2.94.703a4.096 4.096 0 011.59 2.14l-2.7.553a2.063 2.063 0 00-.298-.61 1.705 1.705 0 00-.628-.496c-.26-.12-.543-.18-.829-.176a1.841 1.841 0 00-1.592.77c-.281.383-.42.98-.42 1.796 0 1.012.167 1.703.5 2.078a2.108 2.108 0 002.73.11c.335-.373.56-.832.651-1.326zm3.78-.811c0-1.489.45-2.648 1.35-3.477.899-.83 2.152-1.244 3.758-1.242 1.65 0 2.918.407 3.808 1.22.89.815 1.335 1.957 1.335 3.427a5.247 5.247 0 01-.583 2.62 3.983 3.983 0 01-1.686 1.593 5.961 5.961 0 01-2.752.57 6.788 6.788 0 01-2.773-.493 4.05 4.05 0 01-1.777-1.556 4.84 4.84 0 01-.68-2.662zm3.057.014c0 .921.187 1.582.557 1.985a2.236 2.236 0 003.045 0c.36-.394.54-1.097.54-2.109 0-.86-.186-1.486-.564-1.875a2.004 2.004 0 00-1.527-.595 1.924 1.924 0 00-1.485.605c-.377.389-.566 1.047-.566 1.975v.014zm13.466-4.59h7.56v1.959h-4.49v1.593h3.835v1.84h-3.834v3.728h-3.07v-9.12zm15.645 0h3.045v5.432c.003.521-.09 1.04-.274 1.528a3.28 3.28 0 01-.857 1.255 3.462 3.462 0 01-1.225.755 6.63 6.63 0 01-2.14.305 14.364 14.364 0 01-1.577-.094 4.332 4.332 0 01-1.426-.37 3.499 3.499 0 01-1.05-.785 2.824 2.824 0 01-.65-1.053 5.028 5.028 0 01-.284-1.541v-5.432h3.044V68.8a1.515 1.515 0 00.45 1.172 2.06 2.06 0 002.483 0 1.515 1.515 0 00.45-1.172l.011-5.563zm5.096 0h2.855l3.726 5.045v-5.045h2.876v9.12h-2.88l-3.7-5.012v5.007h-2.877v-9.115zm11.535 0h4.543a5.877 5.877 0 012.17.335c.526.207.995.538 1.367.965.363.425.63.924.782 1.462.162.575.24 1.169.234 1.765 0 .975-.121 1.732-.36 2.268-.23.52-.572.981-1.003 1.35a3.348 3.348 0 01-1.377.724 7.659 7.659 0 01-1.822.25h-4.543l.009-9.12zm3.059 2.064v4.984h.747c.463.029.928-.038 1.365-.197a1.36 1.36 0 00.632-.684c.155-.325.235-.853.235-1.584 0-.965-.171-1.627-.513-1.985-.342-.357-.909-.535-1.7-.534h-.766zm11.567-2.064h9.293v2.252h-3.117v6.868h-3.057v-6.868h-3.12v-2.252zm15.823 7.623H96.05l-.483 1.497h-3.122l3.72-9.12H99.5l3.72 9.12h-3.202l-.496-1.497zm-.635-1.971l-1.092-3.28-1.08 3.28h2.172zm5.309-5.652h5.724c.956 0 1.688.218 2.197.654a2.045 2.045 0 01.766 1.617 1.933 1.933 0 01-.546 1.387 2.487 2.487 0 01-1.066.609c.596.097 1.146.38 1.57.81.341.404.52.92.501 1.449.006.45-.118.893-.356 1.275-.242.38-.579.688-.979.895a3.45 3.45 0 01-1.171.297c-.689.085-1.145.127-1.37.127h-5.27v-9.12zm3.082 3.576h1.331c.468 0 .81-.075.995-.235a.794.794 0 00.281-.656.742.742 0 00-.281-.62c-.185-.15-.511-.235-.974-.235h-1.352v1.746zm0 3.578h1.56c.527 0 .897-.084 1.115-.258a.838.838 0 00.323-.703.782.782 0 00-.321-.65c-.214-.163-.588-.245-1.124-.245h-1.553v1.856zm7.785-7.154h3.066v9.12h-3.066v-9.12zm10.233 5.816v-1.898h4.726v3.887a9.937 9.937 0 01-2.401 1.172 8.751 8.751 0 01-2.473.31c-1.176 0-2.133-.185-2.871-.554a3.946 3.946 0 01-1.722-1.64 5.07 5.07 0 01-.611-2.512 4.925 4.925 0 01.668-2.599 4.211 4.211 0 011.957-1.675c.67-.296 1.573-.442 2.708-.441 1.091 0 1.911.09 2.452.272.515.165.98.458 1.351.85a3.7 3.7 0 01.806 1.458l-2.949.485a1.485 1.485 0 00-.618-.79 2.053 2.053 0 00-1.11-.274 2.084 2.084 0 00-1.604.645c-.399.428-.598 1.107-.598 2.036 0 .989.202 1.692.605 2.109a2.207 2.207 0 001.684.635c.331.001.661-.045.979-.138.37-.118.728-.275 1.065-.469v-.858l-2.044-.011zm12.623 1.807h-3.473l-.469 1.497h-3.133l3.719-9.12h3.335l3.719 9.12h-3.204l-.494-1.497zm-.635-1.971l-1.091-3.28-1.08 3.28h2.171zm3.656-5.652h9.296v2.252h-3.12v6.868h-3.056v-6.868h-3.12v-2.252zM5.484 12.416h36.138v9.324H19v6.941h20.985v8.905H19v8.607h23.278v9.889H5.484V12.416zm42.393 0h33.341v9.374H61.421v7.625h16.91v8.815H61.42v17.842H47.877V12.416zm96.752 9.354l.079-8.988S136.277.707 115.883.76C95.57.815 87.055 12.156 87.055 12.156v9.608c31.673-21.397 57.574.007 57.574.007z" fill="#29B43F"/><path d="M104.468 43.496v12.586h23.678V43.679c11.426-3.475 16.562-11.342 16.562-11.342V21.771c-8.993 8.905-17.719 12.516-25.546 13.2-2.488.187-2.488.187-4.684.073-16.08-.898-27.341-13.273-27.341-13.273l-.08 9.886s5.335 8.13 17.411 11.839z" fill="#29B43F"/><path d="M115.883 34.812c6.149 0 11.134-4.988 11.134-11.14 0-6.153-4.985-11.14-11.134-11.14s-11.134 4.987-11.134 11.14c0 6.152 4.985 11.14 11.134 11.14z" fill="#29B43F"/></svg>