<svg width="176" height="176" fill="none" xmlns="http://www.w3.org/2000/svg"><rect width="176" height="176" rx="10" fill="#FAFAFA"/><path d="M133.312 121.881l-20.124-13.962c7.565-1.397 12.573-2.863 12.573-2.863l-16.928-14.093c5.669-1.352 9.376-2.711 9.376-2.711l-14.254-14.88c4.062-1.397 6.701-2.767 6.701-2.767l-22.658-29.48-22.654 29.48s2.639 1.37 6.7 2.767l-14.252 14.88s3.706 1.359 9.374 2.709l-16.927 14.095s5.008 1.466 12.572 2.863l-20.123 13.962s15.707 3.838 34.739 5.014v7.98h21.146v-7.98c19.03-1.176 34.739-5.014 34.739-5.014z" fill="#E4243D"/></svg>