<?xml version="1.0" encoding="iso-8859-1"?>
<!-- Generator: Adobe Illustrator 19.0.0, SVG Export Plug-In . SVG Version: 6.00 Build 0)  -->
<svg version="1.1" id="Capa_1" xmlns="http://www.w3.org/2000/svg" xmlns:xlink="http://www.w3.org/1999/xlink" x="0px" y="0px"
	 viewBox="0 0 480 480" style="enable-background:new 0 0 480 480;" xml:space="preserve">
<g>
	<g>
		<path d="M416,0H64c-4.418,0-8,3.582-8,8v464c0,4.418,3.582,8,8,8h352c4.418,0,8-3.582,8-8V8C424,3.582,420.418,0,416,0z M408,464
			H72V16h336V464z"/>
	</g>
</g>
<g>
	<g>
		<path d="M377.996,280.004C365.848,264.816,347.448,255.982,328,256c-35.315-0.033-63.971,28.569-64.004,63.884
			c-0.018,19.448,8.816,37.848,24.004,49.996V440c0,4.418,3.582,8,8,8c1.731,0,3.415-0.561,4.8-1.6L328,426l27.2,20.4
			c3.535,2.651,8.549,1.935,11.2-1.6c1.039-1.385,1.6-3.069,1.6-4.8v-70.12C395.579,347.822,400.054,307.583,377.996,280.004z
			 M352,424l-19.2-14.4c-2.844-2.133-6.756-2.133-9.6,0L304,424v-44.712c15.383,6.282,32.617,6.282,48,0V424z M328,368
			c-26.51,0-48-21.49-48-48c0-26.51,21.49-48,48-48c26.51,0,48,21.49,48,48C375.974,346.499,354.499,367.974,328,368z"/>
	</g>
</g>
<g>
	<g>
		<rect x="184" y="48" width="112" height="16"/>
	</g>
</g>
<g>
	<g>
		<rect x="208" y="80" width="64" height="16"/>
	</g>
</g>
<g>
	<g>
		<rect x="104" y="120" width="264" height="16"/>
	</g>
</g>
<g>
	<g>
		<rect x="104" y="152" width="264" height="16"/>
	</g>
</g>
<g>
	<g>
		<rect x="104" y="184" width="264" height="16"/>
	</g>
</g>
<g>
	<g>
		<rect x="104" y="216" width="264" height="16"/>
	</g>
</g>
<g>
	<g>
		<rect x="104" y="248" width="136" height="16"/>
	</g>
</g>
<g>
	<g>
		<rect x="112" y="344" width="48" height="16"/>
	</g>
</g>
<g>
	<g>
		<rect x="112" y="376" width="48" height="16"/>
	</g>
</g>
<g>
	<g>
		<rect x="112" y="408" width="48" height="16"/>
	</g>
</g>
<g>
</g>
<g>
</g>
<g>
</g>
<g>
</g>
<g>
</g>
<g>
</g>
<g>
</g>
<g>
</g>
<g>
</g>
<g>
</g>
<g>
</g>
<g>
</g>
<g>
</g>
<g>
</g>
<g>
</g>
</svg>
