<svg height="512pt" viewBox="0 0 512 512.00017" width="512pt" xmlns="http://www.w3.org/2000/svg"><path d="m497.230469 482.460938h-19.691407v-216.613282c0-13.574218-11.042968-24.617187-24.617187-24.617187h-78.769531c-13.570313 0-24.613282 11.042969-24.613282 24.617187v216.613282h-29.539062v-295.382813c0-13.574219-11.042969-24.617187-24.617188-24.617187h-78.765624c-13.574219 0-24.617188 11.042968-24.617188 24.617187v295.382813h-29.539062v-374.152344c0-13.574219-11.042969-24.617188-24.613282-24.617188h-78.769531c-13.574219 0-24.617187 11.042969-24.617187 24.617188v374.152344h-19.691407c-8.15625 0-14.769531 6.613281-14.769531 14.769531s6.613281 14.769531 14.769531 14.769531h482.460938c8.15625 0 14.769531-6.613281 14.769531-14.769531s-6.613281-14.769531-14.769531-14.769531zm-364.308594 0h-68.921875v-369.230469h68.921875zm157.539063 0h-68.921876v-290.460938h68.921876zm157.539062 0h-68.921875v-211.691407h68.921875zm0 0"/><path d="m401.59375 137.847656h-46.714844c-7.953125 0-14.796875 6.109375-15.167968 14.054688-.402344 8.480468 6.355468 15.484375 14.75 15.484375h83.691406c8.15625 0 14.769531-6.613281 14.769531-14.769531v-78.351563c0-7.953125-6.109375-14.796875-14.054687-15.171875-8.480469-.398438-15.484376 6.359375-15.484376 14.753906v43.976563l-117.738281-113.679688c-6.039062-5.832031-15.765625-5.488281-21.371093.894531-5.246094 5.972657-4.566407 15.121094 1.152343 20.644532zm0 0"/></svg>