<svg id="Layer_1" enable-background="new 0 0 507.771 507.771" height="512" viewBox="0 0 507.771 507.771" width="512" xmlns="http://www.w3.org/2000/svg"><path d="m253.869 98.372c-115.282-59.027-253.869 24.986-253.869 155.513 0 130.551 138.612 214.528 253.869 155.513 115.29 59.036 253.902-24.986 253.902-155.513 0-130.573-138.646-214.532-253.902-155.513zm-221.869 155.513c0-98.128 97.461-167.174 189.961-134.479-84.525 70.027-84.459 198.987 0 268.959-92.521 32.7-189.961-36.369-189.961-134.48zm301.181 142.59c-78.624 0-142.59-63.966-142.59-142.59s63.966-142.59 142.59-142.59c78.625 0 142.591 63.966 142.591 142.59s-63.966 142.59-142.591 142.59z"/></svg>