<svg height="512pt" viewBox="0 -2 512 512" width="512pt" xmlns="http://www.w3.org/2000/svg">
<path d="m341.566406 311.425781c13.804688.011719 26.257813-8.300781 31.542969-21.054687s2.363281-27.4375-7.40625-37.195313c-13.503906-12.898437-34.765625-12.898437-48.269531 0-9.769532 9.757813-12.691406 24.441407-7.40625 37.195313 5.28125 12.753906 17.734375 21.066406 31.539062 21.054687zm-12.066406-46.183593c5.757812-5.753907 14.78125-6.640626 21.550781-2.117188s9.398438 13.199219 6.28125 20.722656c-3.117187 7.519532-11.113281 11.792969-19.097656 10.203125-7.988281-1.589843-13.738281-8.597656-13.734375-16.742187-.011719-4.527344 1.789062-8.871094 5-12.066406zm0 0"/><path d="m17.066406 507.476562h477.867188c9.421875-.007812 17.058594-7.644531 17.066406-17.066406v-76.800781c-.007812-9.421875-7.644531-17.054687-17.066406-17.066406h-39.476563l.0625-.292969c.339844-1.253906.523438-2.542969.546875-3.84375 1.4375-.527344 2.925782-.910156 4.4375-1.140625 5.339844-.003906 10.390625-2.414063 13.75-6.5625 3.359375-4.152344 4.664063-9.597656 3.550782-14.816406.058593-1.28125-.027344-2.566407-.257813-3.828125 1.285156-.800782 2.640625-1.46875 4.054687-2.003906 4.996094-1.515626 9.261719-4.800782 12.007813-9.238282 2.011719-4.917968 2.164063-10.398437.429687-15.417968-.320312-1.265626-.566406-2.546876-.746093-3.839844 1.027343-.875 2.101562-1.6875 3.222656-2.4375 4.628906-2.554688 8.164063-6.710938 9.953125-11.683594.878906-5.195312-.140625-10.53125-2.878906-15.035156-.59375-1.195313-1.121094-2.421875-1.578125-3.675782.828125-1.0625 1.714843-2.078124 2.65625-3.042968 3.980469-3.433594 6.578125-8.195313 7.308593-13.398438-.160156-5.25-2.226562-10.265625-5.808593-14.109375-.71875-1.066406-1.550781-2.050781-2.476563-2.945312.570313-1.386719 1.273438-2.714844 2.101563-3.964844 3.171875-4.183594 4.71875-9.375 4.351562-14.609375-1.253906-5.121094-4.332031-9.609375-8.652343-12.628906-1.035157-.863282-2.015626-1.78125-2.949219-2.75.328125-1.28125.714843-2.546875 1.167969-3.789063 2.265624-4.804687 2.695312-10.269531 1.203124-15.371093-2.296874-4.703126-6.210937-8.421876-11.027343-10.472657-1.203125-.640625-2.367188-1.347656-3.488281-2.125.042968-1.320312.160156-2.636719.347656-3.945312 1.191406-5.179688.46875-10.613281-2.042969-15.296875-3.238281-4.113282-7.859375-6.917969-13.003906-7.894532-1.296875-.363281-2.574219-.800781-3.820313-1.316406-.246094-1.320312-.414062-2.65625-.503906-3.996094.097656-5.273437-1.726562-10.40625-5.128906-14.4375-4.035156-3.402343-9.164063-5.222656-14.441406-5.128906-1.339844-.089844-2.671876-.253906-3.992188-.5-.511719-1.246094-.949219-2.519531-1.3125-3.816406-.527344-1.753906-1.140625-3.476562-1.847656-5.164062l18.261718-18.261719c3.6875-3.671875 5.5-8.828125 4.925782-14-.53125-5.058594-3.335938-9.597657-7.621094-12.332031-45.035156-28.550782-99.136719-39.171876-151.625-29.765626l-7.839844-8.679687c10.828125-2.464844 19.402344-10.730469 22.253906-21.46875 2.851563-10.734375-.480468-22.167969-8.65625-29.683594-5.742187-5.328125-13.375-8.140625-21.195312-7.8046872-10.441406.5507812-20.8125 2.0429682-30.984375 4.4609372-87.839844 19.417969-162.816406 90.835938-195.671875 186.386719-6.816406 19.726562-11.441406 40.144531-13.792969 60.878906h-31.640625c-9.421875.011719-17.0585935 7.648438-17.066406 17.070313v221.585937c.0078125 9.421875 7.644531 17.058594 17.066406 17.066406zm477.867188-68.265624h-76.800782c-4.710937 0-8.53125 3.820312-8.53125 8.53125 0 4.714843 3.820313 8.535156 8.53125 8.535156h76.800782v34.132812h-477.867188v-76.519531h76.800782c.925781-.019531 1.847656-.113281 2.761718-.28125h146.289063c1.21875 2.785156 3.195312 5.171875 5.703125 6.886719 4.664062 2.476562 10.066406 3.179687 15.210937 1.988281 1.304688-.207031 2.625-.320313 3.945313-.339844.773437 1.117188 1.476562 2.285157 2.113281 3.488281 2.054687 4.8125 5.773437 8.730469 10.476563 11.027344 5.097656 1.496094 10.566406 1.066406 15.371093-1.203125 1.242188-.457031 2.507813-.847656 3.792969-1.167969.957031.925782 1.867188 1.898438 2.722656 2.921876 3.023438 4.332031 7.523438 7.417968 12.65625 8.679687 5.234375.355469 10.421875-1.1875 14.605469-4.355469 1.136719-.574218 2.191406-1.292968 3.140625-2.140625 1.335938.714844 2.601562 1.558594 3.773438 2.519531 3.671874 3.367188 8.359374 5.417969 13.324218 5.828126.257813 0 .523438-.007813.789063-.019532 5.195312-.726562 9.953125-3.316406 13.382812-7.292968 1.089844-1.023438 2.730469-2.550782 2.597657-2.730469 1.457031.421875 2.871093.988281 4.214843 1.6875 4.5 2.714843 9.824219 3.714843 15.003907 2.816406 4.945312-1.777344 9.070312-5.296875 11.605468-9.898437.757813-1.132813 1.582032-2.226563 2.464844-3.265626 1.292969.183594 2.574219.433594 3.839844.75 5.007812 1.730469 10.476562 1.585938 15.382812-.410156 4.457032-2.742187 7.753906-7.019531 9.277344-12.023437.578125-1.152344 1.027344-2.371094 1.332031-3.625.25-.0625.507813-.105469.769531-.117188h64.519532zm-386.617188-179.371094c1.613282-16.894532 5.199219-33.542969 10.6875-49.605469 26.941406-78.390625 74.570313-115.941406 112.957032-133.949219l11.03125 12.203125c-19.277344 9.886719-36.910157 22.699219-52.273438 37.976563-70.320312 70.9375-82.359375 181.03125-29.03125 265.496094 1.179688 1.804687 2.703125 3.359374 4.480469 4.582031h-55.234375v-127.71875c-.011719-3.183594-.917969-6.296875-2.617188-8.984375zm97.960938 116.554687c1.6875.707031 3.410156 1.324219 5.164062 1.847657 1.296875.367187 2.570313.804687 3.816406 1.3125.246094 1.320312.410157 2.652343.5 3.992187.070313 4.632813 1.476563 9.148437 4.054688 12.996094h-34.09375c.816406-.5625 1.585938-1.191407 2.296875-1.886719zm226.628906-212.105469c3.921875 2.753907 8.597656 4.226563 13.386719 4.214844 1.109375.097656 2.644531.234375 3.65625.425782.191406 1.007812.328125 2.539062.425781 3.65625-.011719 4.746093 1.429688 9.382812 4.136719 13.28125 3.277343 3.480468 7.546875 5.871093 12.226562 6.839843 1.039063.316407 2.46875.75 3.410157 1.132813-.027344 1.03125-.214844 2.554687-.347657 3.664062-.988281 4.625-.546875 9.445313 1.261719 13.816406 2.492188 4.058594 6.152344 7.273438 10.5 9.21875.964844.535157 2.285156 1.273438 3.125 1.851563-.238281 1.007813-.746094 2.46875-1.109375 3.523437-1.925781 4.355469-2.507813 9.1875-1.664063 13.878907 1.625 4.441406 4.535157 8.304687 8.363282 11.089843.824218.722657 1.960937 1.707032 2.660156 2.453126-.4375.914062-1.207031 2.195312-1.769531 3.128906-2.796875 3.816406-4.367188 8.394531-4.5 13.128906.585937 4.773438 2.628906 9.25 5.847656 12.820312.652344.867188 1.542969 2.058594 2.078125 2.921876-.621094.800781-1.644531 1.890624-2.382812 2.679687-3.566407 3.195313-6.078126 7.398437-7.203126 12.050781-.359374 4.75.738282 9.492188 3.148438 13.601563.511719 1.085937 1.226562 2.617187 1.589844 3.230469-.765625.667968-2.070313 1.582031-3.007813 2.234374-4.140625 2.394532-7.464843 5.976563-9.539062 10.289063-1.316407 4.511719-1.246094 9.320313.210937 13.792969.253906 1.101562.601563 2.628906.730469 3.660156-.878906.476562-2.234375 1.054688-3.226563 1.476562-9.75 2.367188-15.960937 11.929688-14.167968 21.800782.019531 1.175781.046875 2.835937.128906 3.527344-.972656.304687-2.546875.617187-3.679688.835937-10.050781.285156-18.128906 8.367187-18.414062 18.417969-.230469 1.164062-.550781 2.792968-.625 3.5-1.011719.085937-2.609375.0625-3.742188.050781-9.871093-1.796875-19.429687 4.414063-21.800781 14.164063-.421875.992187-1 2.351562-1.472656 3.230468-1.035156-.128906-2.5625-.480468-3.664063-.734375-4.507812-1.464843-9.355468-1.523437-13.898437-.171875-4.273437 2.085938-7.828125 5.402344-10.207031 9.519532-.617188.878906-1.449219 2.082031-2.105469 2.855468-.964844-.34375-2.316406-.980468-3.304687-1.4375-8.269532-5.714844-19.570313-3.933594-25.6875 4.042969-.789063.738281-1.875 1.75-2.671876 2.371094-.863281-.535157-2.054687-1.425781-2.921874-2.074219-3.542969-3.207031-7.984376-5.246094-12.726563-5.847656-4.761719.117187-9.378906 1.683594-13.226563 4.496094-.933593.5625-2.210937 1.328124-3.128906 1.769531-.746094-.707031-1.746094-1.851563-2.472656-2.691407-2.832031-3.882812-6.773438-6.8125-11.308594-8.398437-4.617187-.773437-9.359375-.171875-13.636718 1.726563-1.058594.367187-2.519532.871093-3.527344 1.109374-.578125-.839843-1.316406-2.160156-1.847656-3.125-1.953126-4.359374-5.179688-8.023437-9.253907-10.515624-4.363281-1.800782-9.171875-2.234376-13.785156-1.246094-1.203125.148437-2.894531.355468-3.601563.496094-.398437-.933594-.859374-2.460938-1.191406-3.558594-.960937-4.640625-3.3125-8.878906-6.742187-12.144532-3.917969-2.753906-8.59375-4.226562-13.382813-4.21875-1.117187-.09375-2.652344-.230468-3.660156-.425781-.191406-1.011719-.328125-2.546875-.425781-3.65625.019531-4.75-1.425781-9.386719-4.132813-13.289062-2.375-2.726563-5.46875-4.726563-8.933594-5.765625l23.117188-23.117188c4.371094-4.378906 6.035156-10.773437 4.351562-16.726562l-6.492187-22.859375c-2.570313-8.914063-.09375-18.519531 6.464844-25.082031l92.320312-92.300782c6.570313-6.574218 16.199219-9.046875 25.125-6.457031l22.820313 6.484375c5.949218 1.675781 12.339844.011719 16.71875-4.351562l23.117187-23.113282c1.019531 3.425782 2.984375 6.492188 5.667969 8.847656zm-90.792969-83.007812c37.09375-.085938 73.4375 10.433594 104.75 30.324219l-.019531.085937-54.789062 54.792969-22.777344-6.464844c-14.886719-4.304687-30.9375-.171875-41.890625 10.789063l-92.320313 92.320312c-10.949218 10.945313-15.089844 26.976563-10.804687 41.851563l6.480469 22.816406-30.761719 30.925781-.113281.117188-23.800782 23.929687c-38.632812-60.464843-41.132812-137.210937-6.515625-200.058593 34.617188-62.851563 100.8125-101.757813 172.566407-101.425782zm-82.929687-.332031-10.492188-11.605469c8.96875-3.25 18.183594-5.789062 27.554688-7.59375l9.15625 10.128906c-8.925782 2.457032-17.679688 5.484375-26.214844 9.070313zm-180.542969 115.46875c30.933594-89.960938 101.140625-157.121094 183.210937-175.261719 9.179688-2.191406 18.539063-3.558594 27.964844-4.074219 3.304688-.15625 6.53125 1.03125 8.953125 3.285157 3.855469 3.53125 5.1875 9.046874 3.371094 13.949218s-6.421875 8.214844-11.648437 8.382813c-20.210938 1.777343-39.992188 6.859375-58.554688 15.042969-.625.179687-1.226562.433593-1.792969.753906-42.628906 18.558594-97.257812 58.824218-127.277343 146.183594-5.203126 15.277343-8.804688 31.054687-10.746094 47.074218h-26.242188c2.285156-18.84375 6.5625-37.394531 12.761719-55.335937zm-18.90625 72.40625v17.066406c0 4.710937 3.820313 8.53125 8.53125 8.53125 4.714844 0 8.535156-3.820313 8.535156-8.53125v-17.066406h17.066407l.011718 127.71875h-17.078125v-76.519531c0-4.714844-3.820312-8.535157-8.535156-8.535157-4.710937 0-8.53125 3.820313-8.53125 8.535157v76.519531h-42.667969v-127.71875zm0 0"/><path d="m264.535156 439.210938h-119.46875c-4.710937 0-8.53125 3.820312-8.53125 8.53125 0 4.714843 3.820313 8.535156 8.53125 8.535156h119.46875c4.710938 0 8.53125-3.820313 8.53125-8.535156 0-4.710938-3.820312-8.53125-8.53125-8.53125zm0 0"/><path d="m438.476562 310.707031c-1.132812 2.828125-.671874 6.050781 1.214844 8.449219 1.886719 2.394531 4.90625 3.605469 7.925782 3.167969 3.015624-.433594 5.574218-2.445313 6.707031-5.277344 18.421875-46.066406-8.007813-91-9.140625-92.894531-2.449219-3.972656-7.640625-5.242188-11.648438-2.84375-4.003906 2.398437-5.339844 7.574218-2.992187 11.609375.230469.390625 23.167969 39.703125 7.933593 77.789062zm0 0"/><path d="m374.960938 365.683594c-38.078126 15.242187-77.386719-7.699219-77.785157-7.933594-2.617187-1.566406-5.871093-1.617188-8.535156-.136719-2.664063 1.484375-4.332031 4.273438-4.382813 7.324219-.046874 3.046875 1.535157 5.890625 4.152344 7.457031 17.84375 9.945313 37.875 15.324219 58.300782 15.648438 11.84375.0625 23.585937-2.148438 34.59375-6.507813 4.375-1.75 6.503906-6.71875 4.753906-11.09375-1.75-4.378906-6.71875-6.507812-11.097656-4.753906zm0 0"/></svg>