<?xml version="1.0"?>
<svg xmlns="http://www.w3.org/2000/svg" id="Layer_2" data-name="Layer 2" viewBox="0 0 128 128" width="512" height="512"><title>FIREWOOD</title>
<path d="M24.5,74c0-8.642-4.364-14.375-7.25-14.375S10,65.356,10,74s4.364,14.375,7.25,14.375S24.5,82.64,24.5,74Zm-11,0c0-6.448,2.667-9.988,3.75-10.769C18.333,64.01,21,67.55,21,74s-2.667,9.988-3.75,10.769C16.167,83.986,13.5,80.446,13.5,74Z"/><path d="M127.661,69.19c0-.026,0-.053-.01-.079-1.606-11.107-8.574-19.488-16.9-19.488H95.468V35.375c0-3.773-5.373-5.748-10.68-5.748-5.006,0-10.066,1.758-10.625,5.124L63.977,49.623H17.25C7.738,49.623,0,60.558,0,74S7.738,98.373,17.25,98.373h93.5C120.262,98.373,128,87.438,128,74A34.174,34.174,0,0,0,127.661,69.19ZM84.788,33.127c4.711,0,7.18,1.67,7.18,2.248s-2.469,2.248-7.18,2.248-7.181-1.67-7.181-2.248S80.076,33.127,84.788,33.127ZM3.5,74c0-11.511,6.168-20.875,13.75-20.875S31,62.487,31,74,24.832,94.873,17.25,94.873,3.5,85.509,3.5,74ZM110.75,94.873h-84.6a21.149,21.149,0,0,0,4.5-5.55H61a1.75,1.75,0,0,0,0-3.5H32.327a32.894,32.894,0,0,0,0-23.65h20.09a1.75,1.75,0,0,0,0-3.5H30.651a21.149,21.149,0,0,0-4.5-5.55H64.9a1.751,1.751,0,0,0,1.444-.761L75.768,38.6c2.405,2,6,2.52,9.02,2.52a17.317,17.317,0,0,0,7.18-1.388V51.373a1.75,1.75,0,0,0,1.75,1.75H110.75c6.142,0,11.354,6.147,13.113,14.6h-19.78a1.75,1.75,0,0,0,0,3.5h20.281c.08.91.136,1.832.136,2.775C124.5,85.509,118.332,94.873,110.75,94.873Z"/><path d="M65.81,62.173h44.523a1.75,1.75,0,0,0,0-3.5H65.81a1.75,1.75,0,0,0,0,3.5Z"/><path d="M74.8,69.473a1.75,1.75,0,0,0-1.75-1.75H51.193a1.75,1.75,0,0,0,0,3.5H73.049A1.75,1.75,0,0,0,74.8,69.473Z"/><path d="M108.625,76.773H64a1.75,1.75,0,0,0,0,3.5h44.625a1.75,1.75,0,0,0,0-3.5Z"/><path d="M52.833,76.773h-8.5a1.75,1.75,0,0,0,0,3.5h8.5a1.75,1.75,0,0,0,0-3.5Z"/><path d="M106.5,85.823H90.375a1.75,1.75,0,0,0,0,3.5H106.5a1.75,1.75,0,0,0,0-3.5Z"/></svg>
