<svg width="24" height="23" fill="none" xmlns="http://www.w3.org/2000/svg"><path d="M8.199 11.918c0 2.044-1.732 3.717-3.85 3.717C2.232 15.635.5 13.962.5 11.918m7.699 0H.5m7.699 0v-.232L4.348 5.18M.5 11.918v-.232L4.35 5.18m19.15 6.737c0 2.044-1.732 3.717-3.85 3.717-2.116 0-3.849-1.673-3.849-3.717m7.699 0h-7.699m7.699 0v-.232L19.65 5.18m-3.849 6.737v-.22l3.85-6.517M12 2.811v16.68M4.35 5.181h15.3M12.963 1.93c0 .513-.43.93-.962.93s-.962-.417-.962-.93c0-.513.43-.929.962-.929.531 0 .962.416.962.93zM16.378 22H7.621c-.962 0-1.588-1.022-1.155-1.858.24-.419.674-.697 1.155-.697h8.758c.48 0 .914.278 1.154.697A1.276 1.276 0 0116.378 22z" stroke="#E7B160" stroke-miterlimit="10"/></svg>