<svg width="391" height="168" fill="none" xmlns="http://www.w3.org/2000/svg"><mask id="a" maskUnits="userSpaceOnUse" x="0" y="0" width="391" height="168"><path fill="#C4C4C4" d="M0 .185h391V167.83H0z"/></mask><g mask="url(#a)"><path d="M1 81h455M1 54h455M1 27h455M1 136h455M1 108h455M1 105.434c16.848 0 28.663-57.808 61.564-57.808 32.901 0 14.57 91.912 65.749 91.912 51.18 0 23.736-72.072 55.524-72.072 31.789 0 9.696 56.096 36.133 56.096C246.408 123.562 208.102 14 247.467 14s-3.232 140 37.193 140c40.424 0 24.265-107.37 74.385-107.37 50.12 0 18.119 80.756 96.955 80.756M-8 107.531c16.846 0 28.66-63.554 61.557-63.554 32.897 0 14.568 101.046 65.741 101.046 51.174 0 23.733-79.255 55.518-79.255s9.694 61.695 36.129 61.695C237.379 127.463 199.131 7 238.491 7c39.361 0-3.231 154 37.189 154 40.419 0 24.262-118.09 74.376-118.09 50.114 0 18.118 88.824 96.944 88.824" stroke="#C4C4C4" stroke-miterlimit="10"/></g></svg>