<svg width="391" height="166" fill="none" xmlns="http://www.w3.org/2000/svg"><mask id="a" maskUnits="userSpaceOnUse" x="0" y="0" width="391" height="166"><path fill="#C4C4C4" d="M0 0h391v165.575H0z"/></mask><g mask="url(#a)"><path d="M241.645 18.5c0 10.217-8.173 18.5-18.255 18.5-10.082 0-18.255-8.283-18.255-18.5S213.308 0 223.39 0c10.082 0 18.255 8.283 18.255 18.5zm0 0c0 10.217 8.401 18.5 18.763 18.5 10.362 0 18.762-8.283 18.762-18.5m-37.525 0c0-10.217 8.401-18.5 18.763-18.5 10.362 0 18.762 8.283 18.762 18.5m0 0c0 10.217 8.4 18.5 18.763 18.5 10.362 0 18.762-8.283 18.762-18.5m-37.525 0c0-10.217 8.4-18.5 18.763-18.5 10.362 0 18.762 8.283 18.762 18.5m0 0c0 10.217 8.4 18.5 18.762 18.5 10.363 0 18.763-8.283 18.763-18.5m-37.525 0c0-10.217 8.4-18.5 18.762-18.5 10.363 0 18.763 8.283 18.763 18.5m0 0c0 10.217 8.173 18.5 18.255 18.5 10.082 0 18.255-8.283 18.255-18.5S382.557 0 372.475 0c-10.082 0-18.255 8.283-18.255 18.5zm-93.305 32c0 10.217-8.4 18.5-18.763 18.5-10.362 0-18.762-8.283-18.762-18.5s8.4-18.5 18.762-18.5c10.363 0 18.763 8.283 18.763 18.5zm0 0c0 10.217 8.4 18.5 18.762 18.5s18.763-8.283 18.763-18.5m-37.525 0c0-10.217 8.4-18.5 18.762-18.5s18.763 8.283 18.763 18.5m0 0c0 10.217 8.4 18.5 18.762 18.5s18.763-8.283 18.763-18.5m-37.525 0c0-10.217 8.4-18.5 18.762-18.5s18.763 8.283 18.763 18.5m0 0c0 10.217 8.173 18.5 18.255 18.5 10.082 0 18.255-8.283 18.255-18.5m-36.51 0c0-10.217 8.173-18.5 18.255-18.5 10.082 0 18.255 8.283 18.255 18.5m0 0c0 10.217 8.4 18.5 18.763 18.5C401.6 69 410 60.717 410 50.5S401.6 32 391.238 32c-10.363 0-18.763 8.283-18.763 18.5zm-353.95 32c0 10.217-8.4 18.5-18.763 18.5C-10.6 101-19 92.717-19 82.5S-10.6 64-.238 64c10.363 0 18.763 8.283 18.763 18.5zm0 0c0 10.217 8.4 18.5 18.762 18.5S56.05 92.717 56.05 82.5 47.65 64 37.287 64c-10.362 0-18.762 8.283-18.762 18.5zm223.12 0c0 10.217-8.173 18.5-18.255 18.5-10.082 0-18.255-8.283-18.255-18.5S213.308 64 223.39 64c10.082 0 18.255 8.283 18.255 18.5zm0 0c0 10.217 8.401 18.5 18.763 18.5 10.362 0 18.762-8.283 18.762-18.5m-37.525 0c0-10.217 8.401-18.5 18.763-18.5 10.362 0 18.762 8.283 18.762 18.5m0 0c0 10.217 8.4 18.5 18.763 18.5 10.362 0 18.762-8.283 18.762-18.5m-37.525 0c0-10.217 8.4-18.5 18.763-18.5 10.362 0 18.762 8.283 18.762 18.5m0 0c0 10.217 8.4 18.5 18.762 18.5 10.363 0 18.763-8.283 18.763-18.5m-37.525 0c0-10.217 8.4-18.5 18.762-18.5 10.363 0 18.763 8.283 18.763 18.5m0 0c0 10.217 8.173 18.5 18.255 18.5 10.082 0 18.255-8.283 18.255-18.5S382.557 64 372.475 64c-10.082 0-18.255 8.283-18.255 18.5zm-316.426 32c0 10.217-8.4 18.5-18.762 18.5S.27 124.717.27 114.5 8.67 96 19.032 96s18.762 8.283 18.762 18.5zm0 0c0 10.217 8.174 18.5 18.256 18.5s18.255-8.283 18.255-18.5m-36.51 0c0-10.217 8.172-18.5 18.255-18.5 10.082 0 18.255 8.283 18.255 18.5m0 0c0 10.217 8.4 18.5 18.762 18.5 10.363 0 18.763-8.283 18.763-18.5m-37.525 0c0-10.217 8.4-18.5 18.762-18.5 10.363 0 18.763 8.283 18.763 18.5m0 0c0 10.217 8.4 18.5 18.762 18.5s18.763-8.283 18.763-18.5m-37.525 0c0-10.217 8.4-18.5 18.762-18.5s18.763 8.283 18.763 18.5m0 0c0 10.217 8.4 18.5 18.762 18.5s18.762-8.283 18.762-18.5m-37.524 0c0-10.217 8.4-18.5 18.762-18.5s18.762 8.283 18.762 18.5m0 0c0 10.217 8.174 18.5 18.256 18.5s18.255-8.283 18.255-18.5m-36.511 0c0-10.217 8.174-18.5 18.256-18.5s18.255 8.283 18.255 18.5m0 0c0 10.217 8.4 18.5 18.762 18.5 10.363 0 18.763-8.283 18.763-18.5m-37.525 0c0-10.217 8.4-18.5 18.762-18.5 10.363 0 18.763 8.283 18.763 18.5m0 0c0 10.217 8.4 18.5 18.762 18.5s18.763-8.283 18.763-18.5m-37.525 0c0-10.217 8.4-18.5 18.762-18.5s18.763 8.283 18.763 18.5m0 0c0 10.217 8.4 18.5 18.762 18.5s18.763-8.283 18.763-18.5m-37.525 0c0-10.217 8.4-18.5 18.762-18.5s18.763 8.283 18.763 18.5m0 0c0 10.217 8.173 18.5 18.255 18.5 10.082 0 18.255-8.283 18.255-18.5m-36.51 0c0-10.217 8.173-18.5 18.255-18.5 10.082 0 18.255 8.283 18.255 18.5m0 0c0 10.217 8.4 18.5 18.763 18.5C401.6 133 410 124.717 410 114.5S401.6 96 391.238 96c-10.363 0-18.763 8.283-18.763 18.5zm-353.95 32c0 10.217-8.4 18.5-18.763 18.5C-10.6 165-19 156.717-19 146.5S-10.6 128-.238 128c10.363 0 18.763 8.283 18.763 18.5zm0 0c0 10.217 8.4 18.5 18.762 18.5s18.763-8.283 18.763-18.5m-37.525 0c0-10.217 8.4-18.5 18.762-18.5s18.763 8.283 18.763 18.5m0 0c0 10.217 8.173 18.5 18.255 18.5 10.082 0 18.255-8.283 18.255-18.5m-36.51 0c0-10.217 8.173-18.5 18.255-18.5 10.082 0 18.255 8.283 18.255 18.5m0 0c0 10.217 8.4 18.5 18.763 18.5 10.362 0 18.762-8.283 18.762-18.5m-37.525 0c0-10.217 8.4-18.5 18.763-18.5 10.362 0 18.762 8.283 18.762 18.5m0 0c0 10.217 8.4 18.5 18.762 18.5 10.363 0 18.763-8.283 18.763-18.5m-37.525 0c0-10.217 8.4-18.5 18.762-18.5 10.363 0 18.763 8.283 18.763 18.5m0 0c0 10.217 8.4 18.5 18.762 18.5 10.363 0 18.763-8.283 18.763-18.5m-37.525 0c0-10.217 8.4-18.5 18.762-18.5 10.363 0 18.763 8.283 18.763 18.5m0 0c0 10.217 8.173 18.5 18.255 18.5 10.082 0 18.255-8.283 18.255-18.5m-36.51 0c0-10.217 8.173-18.5 18.255-18.5 10.082 0 18.255 8.283 18.255 18.5m0 0c0 10.217 8.401 18.5 18.763 18.5 10.362 0 18.762-8.283 18.762-18.5m-37.525 0c0-10.217 8.401-18.5 18.763-18.5 10.362 0 18.762 8.283 18.762 18.5m0 0c0 10.217 8.4 18.5 18.763 18.5 10.362 0 18.762-8.283 18.762-18.5m-37.525 0c0-10.217 8.4-18.5 18.763-18.5 10.362 0 18.762 8.283 18.762 18.5m0 0c0 10.217 8.4 18.5 18.762 18.5 10.363 0 18.763-8.283 18.763-18.5m-37.525 0c0-10.217 8.4-18.5 18.762-18.5 10.363 0 18.763 8.283 18.763 18.5m0 0c0 10.217 8.173 18.5 18.255 18.5 10.082 0 18.255-8.283 18.255-18.5s-8.173-18.5-18.255-18.5c-10.082 0-18.255 8.283-18.255 18.5zM18.525 18.5c0 10.217-8.4 18.5-18.763 18.5C-10.6 37-19 28.717-19 18.5S-10.6 0-.238 0c10.363 0 18.763 8.283 18.763 18.5zm149.085 64c0 10.217-8.4 18.5-18.762 18.5-10.363 0-18.763-8.283-18.763-18.5s8.4-18.5 18.763-18.5c10.362 0 18.762 8.283 18.762 18.5z" stroke="#C4C4C4" stroke-miterlimit="10"/></g></svg>