<svg width="391" height="166" fill="none" xmlns="http://www.w3.org/2000/svg"><mask id="a" maskUnits="userSpaceOnUse" x="0" y="0" width="391" height="166"><path fill="#C4C4C4" d="M0 .575h391v165H0z"/></mask><g mask="url(#a)" fill="#fff" stroke="#C4C4C4" stroke-miterlimit="10"><path d="M392.81.475h-22.336l-11.208 19.287 11.208 19.286h22.336l11.209-19.286L392.81.475zM89.793 58.336H67.376L56.168 77.622 67.376 96.91h22.416l11.129-19.287-11.129-19.286zm33.624 19.286h-22.336L89.873 96.91l11.208 19.286h22.336l11.208-19.286-11.208-19.287zm33.704-57.7h-22.416l-11.128 19.286 11.128 19.287h22.416l11.128-19.287-11.128-19.286z"/><path d="M157.121 58.495h-22.416L123.577 77.78l11.128 19.287h22.416l11.128-19.287-11.128-19.286zm0 38.573h-22.416l-11.128 19.286 11.128 19.287h22.416l11.128-19.287-11.128-19.286zm33.624-19.287h-22.336l-11.208 19.287 11.208 19.287h22.336l11.208-19.287-11.208-19.287zm0-77.145h-22.336l-11.208 19.286 11.208 19.287h22.336l11.208-19.287L190.745.636z"/><path d="M190.745 39.208h-22.336l-11.208 19.287 11.208 19.286h22.336l11.208-19.286-11.208-19.287zm33.704-19.286h-22.336l-11.208 19.286 11.208 19.287h22.336l11.208-19.287-11.208-19.286z"/><path d="M224.449 58.495h-22.336L190.905 77.78l11.208 19.287h22.336l11.208-19.287-11.208-19.286zm0 38.573h-22.336l-11.208 19.286 11.208 19.287h22.336l11.208-19.287-11.208-19.286zm33.705-19.287h-22.417l-11.128 19.287 11.128 19.287h22.417l11.128-19.287-11.128-19.287zm0-77.145h-22.417l-11.128 19.286 11.128 19.287h22.417l11.128-19.287L258.154.636z"/><path d="M258.154 39.208h-22.417l-11.128 19.287 11.128 19.286h22.417l11.128-19.286-11.128-19.287zm33.624-19.286h-22.336l-11.208 19.286 11.208 19.287h22.336l11.208-19.287-11.208-19.286z"/><path d="M291.778 58.495h-22.336L258.234 77.78l11.208 19.287h22.336l11.208-19.287-11.208-19.286zm0 38.573h-22.336l-11.208 19.286 11.208 19.287h22.336l11.208-19.287-11.208-19.286zm33.704-19.287h-22.416l-11.128 19.287 11.128 19.287h22.416l11.208-19.287-11.208-19.287zm0-77.145h-22.416l-11.128 19.286 11.128 19.287h22.416l11.208-19.287L325.482.636z"/><path d="M325.482 39.208h-22.416l-11.128 19.287 11.128 19.286h22.416l11.208-19.286-11.208-19.287zm33.624-19.286H336.77l-11.208 19.286 11.208 19.287h22.336l11.208-19.287-11.208-19.286zm0 77.146H336.77l-11.208 19.286 11.208 19.287h22.336l11.208-19.287-11.208-19.286zm33.704-19.287h-22.336l-11.208 19.287 11.208 19.287h22.336l11.209-19.287-11.209-19.287z"/><path d="M392.81 116.195h-22.336l-11.208 19.287 11.208 19.286h22.336l11.209-19.286-11.209-19.287zM89.793 135.482H67.376l-11.208 19.287 11.208 19.286h22.416l11.129-19.286-11.129-19.287zM22.544 58.336H.128L-11 77.622.128 96.91h22.416l11.208-19.287-11.208-19.286z"/><path d="M22.544 96.909H.128L-11 116.196.128 135.482h22.416l11.208-19.286-11.208-19.287zm33.624-19.287H33.832L22.624 96.91l11.208 19.286h22.336L67.376 96.91 56.168 77.623zm-33.624 57.86H.128L-11 154.769.128 174.055h22.416l11.208-19.286-11.208-19.287z"/><path d="M56.168 116.355H33.832l-11.208 19.286 11.208 19.287h22.336l11.208-19.287-11.208-19.286zm100.953 19.286h-22.416l-11.128 19.287 11.128 19.286h22.416l11.128-19.286-11.128-19.287zm33.624-19.286h-22.336l-11.208 19.286 11.208 19.287h22.336l11.208-19.287-11.208-19.286zm33.704 19.286h-22.336l-11.208 19.287 11.208 19.286h22.336l11.208-19.286-11.208-19.287zm33.705-19.286h-22.417l-11.128 19.286 11.128 19.287h22.417l11.128-19.287-11.128-19.286zm33.624 19.286h-22.336l-11.208 19.287 11.208 19.286h22.336l11.208-19.286-11.208-19.287zm33.704-19.286h-22.416l-11.128 19.286 11.128 19.287h22.416l11.208-19.287-11.208-19.286zm33.624 19.286H336.77l-11.208 19.287 11.208 19.286h22.336l11.208-19.286-11.208-19.287zm33.704 19.287h-22.336l-11.208 19.286 11.208 19.207h22.336l11.209-19.207-11.209-19.286zm-269.393.159h-22.336l-11.208 19.207 11.208 19.287h22.336l11.208-19.287-11.208-19.207zm-67.249 0H33.832l-11.208 19.207 11.208 19.287h22.336l11.208-19.287-11.208-19.207zm134.577 0h-22.336l-11.208 19.207 11.208 19.287h22.336l11.208-19.287-11.208-19.207zm67.409 0h-22.417l-11.128 19.207 11.128 19.287h22.417l11.128-19.287-11.128-19.207zm67.328 0h-22.416l-11.128 19.207 11.128 19.287h22.416l11.208-19.287-11.208-19.207z"/></g></svg>