<svg width="391" height="167" fill="none" xmlns="http://www.w3.org/2000/svg"><mask id="a" maskUnits="userSpaceOnUse" x="0" y="0" width="391" height="167"><path fill="#C4C4C4" d="M0 .185h391v166H0z"/></mask><g mask="url(#a)"><path d="M-34.589-1.158H-83L-58.794-43-34.59-1.158zm0 0L-10.383-43l24.26 41.842m-48.466 0h48.466m0 0L38.082-43 62.288-1.158m-48.411 0h48.411m0 0L86.494-43M207.576-1.158h-48.411L183.37-43l24.206 41.842zm0 0L231.835-43l24.206 41.842m-48.465 0h48.465m0 0L280.247-43l24.206 41.842m-48.412 0h48.412m-48.412 0l-24.206 41.843m24.206-41.843l24.206 41.843m24.206-41.843L328.658-43l24.26 41.842m-48.465 0h48.465m-48.465 0l-24.206 41.843m24.206-41.843l24.205 41.843m24.26-41.843L377.123-43l24.206 41.842m-48.411 0h48.411m-48.411 0l-24.26 41.843m24.26-41.843l24.205 41.843m24.206-41.843L425.535-43l24.259 41.842m-48.465 0h48.465m-48.465 0l-24.206 41.843m24.206-41.843l24.206 41.843m24.259-41.843l-24.259 41.843m24.259-41.843L474 40.685h-48.465m-193.7 0h48.412m-48.412 0l-24.259 41.788m24.259-41.788l24.206 41.788m24.206-41.788h48.411m-48.411 0l-24.206 41.788m24.206-41.788l24.206 41.788m24.205-41.788h48.465m-48.465 0l-24.205 41.788m24.205-41.788l24.26 41.788m24.205-41.788h48.412m-48.412 0l-24.205 41.788m24.205-41.788l24.206 41.788m24.206-41.788l-24.206 41.788m24.206-41.788l24.259 41.788m-484.383 0H-83l24.206-41.788 24.205 41.788zm0 0l-24.205 41.842m24.205-41.842l24.206 41.842m217.959-41.842h48.465m-48.465 0l-24.206 41.842m24.206-41.842l24.259 41.842m24.206-41.842h48.412m-48.412 0l-24.206 41.842m24.206-41.842l24.206 41.842m24.206-41.842h48.465m-48.465 0l-24.206 41.842m24.206-41.842l24.205 41.842m24.26-41.842h48.411m-48.411 0l-24.26 41.842m24.26-41.842l24.205 41.842m24.206-41.842h48.465m-48.465 0l-24.206 41.842m24.206-41.842l24.206 41.842m24.259-41.842l-24.259 41.842m24.259-41.842L474 124.315h-48.465m-484.33 0h48.412m-48.411 0L-83 166.158h48.411m-24.205-41.843l24.205 41.843m24.206-41.843l24.26-41.842 24.205 41.842m-48.465 0h48.465m0 0l-24.205 41.843m24.205-41.843l24.206 41.843m24.206-41.843l24.205-41.842 24.26 41.842m-48.465 0h48.465m-48.465 0l-24.206 41.843m24.206-41.843l24.205 41.843m24.26-41.843l24.206-41.842 24.205 41.842m-48.411 0h48.411m-48.411 0l-24.26 41.843m24.26-41.843l24.206 41.843m24.205-41.843h48.465m-48.465 0l-24.205 41.843m24.205-41.843l24.206 41.843m24.259-41.843h48.412m-48.412 0l-24.259 41.843m24.259-41.843l24.206 41.843m24.206-41.843h48.411m-48.411 0l-24.206 41.843m24.206-41.843l24.206 41.843m24.205-41.843h48.465m-48.465 0l-24.205 41.843m24.205-41.843l24.26 41.843m24.205-41.843h48.412m-48.412 0l-24.205 41.843m24.205-41.843l24.206 41.843m24.206-41.843l-24.206 41.843m24.206-41.843l24.259 41.843m-484.383 0L-58.794 208h48.411m-24.206-41.842L-10.383 208m24.26-41.842h48.411m-48.411 0L-10.383 208m24.26-41.842L38.082 208m24.206-41.842h48.411m-48.411 0L38.082 208m24.206-41.842L86.494 208m24.205-41.842h48.466m-48.466 0L86.494 208m24.205-41.842L134.959 208m24.206-41.842h48.411m-48.411 0L134.959 208m24.206-41.842L183.37 208m24.206-41.842h48.465m-48.465 0L183.37 208m24.206-41.842L231.835 208m24.206-41.842h48.412m-48.412 0L231.835 208m24.206-41.842L280.247 208m24.206-41.842h48.465m-48.465 0L280.247 208m24.206-41.842L328.658 208m24.26-41.842h48.411m-48.411 0L328.658 208m24.26-41.842L377.123 208m24.206-41.842h48.465m-48.465 0L377.123 208m24.206-41.842L425.535 208m24.259-41.842L425.535 208m24.259-41.842L474 208h-48.465m-435.918 0h48.465m0 0h48.412m0 0h48.465m0 0h48.411m0 0h48.465m0 0h48.412m0 0h48.411m0 0h48.465m0 0h48.412" stroke="#C4C4C4" stroke-miterlimit="10"/></g></svg>