<svg width="391" height="165" fill="none" xmlns="http://www.w3.org/2000/svg"><mask id="a" maskUnits="userSpaceOnUse" x="0" y="0" width="391" height="165"><path fill="#C4C4C4" d="M0 .725h391V164.3H0z"/></mask><g mask="url(#a)" stroke="#C4C4C4" stroke-miterlimit="10"><path d="M275.254 58.279a3.243 3.243 0 003.251-3.235 3.243 3.243 0 00-3.251-3.236 3.243 3.243 0 00-3.251 3.236 3.243 3.243 0 003.251 3.235zm8.298 11.395a3.243 3.243 0 003.251-3.235 3.243 3.243 0 00-3.251-3.235 3.243 3.243 0 00-3.251 3.235 3.243 3.243 0 003.251 3.235zm19.408-24.046a2.275 2.275 0 002.281-2.27 2.275 2.275 0 00-2.281-2.27 2.275 2.275 0 00-2.28 2.27 2.275 2.275 0 002.28 2.27zm-50.657 42.154a2.275 2.275 0 002.281-2.27 2.275 2.275 0 00-2.281-2.269 2.275 2.275 0 00-2.28 2.27 2.275 2.275 0 002.28 2.269zm-3.154-23.709a2.275 2.275 0 002.281-2.27 2.275 2.275 0 00-2.281-2.269 2.275 2.275 0 00-2.28 2.27 2.275 2.275 0 002.28 2.27zm15.382 5.601a2.275 2.275 0 002.28-2.27 2.275 2.275 0 00-2.28-2.269 2.275 2.275 0 00-2.281 2.27 2.275 2.275 0 002.281 2.27zm-4.416-15.596a2.275 2.275 0 002.281-2.27 2.275 2.275 0 00-2.281-2.27 2.275 2.275 0 00-2.28 2.27 2.275 2.275 0 002.28 2.27zm5.969-4.588a2.275 2.275 0 002.28-2.269 2.275 2.275 0 00-2.28-2.27 2.275 2.275 0 00-2.281 2.27 2.275 2.275 0 002.281 2.27zM181.51 24.237a2.275 2.275 0 002.28-2.27 2.275 2.275 0 00-2.28-2.27 2.275 2.275 0 00-2.281 2.27 2.275 2.275 0 002.281 2.27zm-5.483 4.925a2.275 2.275 0 002.28-2.27 2.275 2.275 0 00-2.28-2.269 2.275 2.275 0 00-2.281 2.27 2.275 2.275 0 002.281 2.269zm-19.652-41.623a2.275 2.275 0 002.281-2.27A2.275 2.275 0 00156.375-17a2.275 2.275 0 00-2.28 2.27 2.275 2.275 0 002.28 2.269zM112.608 3.667a2.275 2.275 0 002.281-2.27 2.275 2.275 0 00-2.281-2.27 2.275 2.275 0 00-2.28 2.27 2.275 2.275 0 002.28 2.27zM-20.39-12.461c1.26 0 2.28-1.016 2.28-2.27A2.275 2.275 0 00-20.39-17a2.275 2.275 0 00-2.28 2.27 2.275 2.275 0 002.28 2.269zm356.928 66.539a2.275 2.275 0 002.28-2.27 2.275 2.275 0 00-2.28-2.27 2.275 2.275 0 00-2.281 2.27 2.275 2.275 0 002.281 2.27zM233.962 24.961a2.275 2.275 0 002.281-2.27 2.275 2.275 0 00-2.281-2.269 2.275 2.275 0 00-2.28 2.27 2.275 2.275 0 002.28 2.27zm-77.587-7.533a2.275 2.275 0 002.281-2.27 2.275 2.275 0 00-2.281-2.268 2.275 2.275 0 00-2.28 2.269 2.275 2.275 0 002.28 2.27zm165.703 56.447a3.243 3.243 0 003.251-3.235 3.243 3.243 0 00-3.251-3.235 3.243 3.243 0 00-3.251 3.235 3.243 3.243 0 003.251 3.235zm8.297 11.396a3.243 3.243 0 003.251-3.235 3.243 3.243 0 00-3.251-3.235 3.243 3.243 0 00-3.251 3.235 3.243 3.243 0 003.251 3.235zm19.409-24.047a2.275 2.275 0 002.281-2.27 2.275 2.275 0 00-2.281-2.269 2.275 2.275 0 00-2.28 2.27 2.275 2.275 0 002.28 2.27zm35.179 35.974a2.275 2.275 0 002.28-2.27 2.275 2.275 0 00-2.28-2.27 2.275 2.275 0 00-2.281 2.27 2.275 2.275 0 002.281 2.27zm-85.836 6.181a2.276 2.276 0 002.281-2.27 2.275 2.275 0 00-2.281-2.27 2.275 2.275 0 00-2.28 2.27 2.276 2.276 0 002.28 2.27zm-3.154-23.709a2.275 2.275 0 002.281-2.27 2.275 2.275 0 00-2.281-2.27 2.275 2.275 0 00-2.28 2.27 2.275 2.275 0 002.28 2.27zm15.382 5.601a2.275 2.275 0 002.28-2.27 2.275 2.275 0 00-2.28-2.269 2.275 2.275 0 00-2.281 2.27 2.275 2.275 0 002.281 2.27zm-4.416-15.597a2.275 2.275 0 002.281-2.27 2.275 2.275 0 00-2.281-2.269 2.275 2.275 0 00-2.28 2.27 2.275 2.275 0 002.28 2.27zm5.968-4.587a2.275 2.275 0 002.281-2.27 2.275 2.275 0 00-2.281-2.269 2.275 2.275 0 00-2.28 2.27 2.275 2.275 0 002.28 2.27zm-32.121-24.529a2.275 2.275 0 002.28-2.27 2.275 2.275 0 00-2.28-2.27 2.275 2.275 0 00-2.281 2.27 2.275 2.275 0 002.281 2.27zm37.313-11.396a3.243 3.243 0 003.251-3.235 3.243 3.243 0 00-3.251-3.235 3.243 3.243 0 00-3.251 3.235 3.243 3.243 0 003.251 3.235zm8.298 11.396a3.243 3.243 0 003.251-3.236 3.243 3.243 0 00-3.251-3.235 3.243 3.243 0 00-3.251 3.235 3.243 3.243 0 003.251 3.236zm19.457-24.048a2.275 2.275 0 002.28-2.269 2.275 2.275 0 00-2.28-2.269 2.275 2.275 0 00-2.281 2.27 2.275 2.275 0 002.281 2.269zm21.447-2.462a2.275 2.275 0 002.28-2.27 2.275 2.275 0 00-2.28-2.269 2.275 2.275 0 00-2.281 2.27 2.275 2.275 0 002.281 2.27zm-72.104 44.617a2.275 2.275 0 002.28-2.27 2.275 2.275 0 00-2.28-2.269 2.275 2.275 0 00-2.281 2.27 2.275 2.275 0 002.281 2.27zm-3.154-23.709a2.275 2.275 0 002.28-2.27 2.275 2.275 0 00-2.28-2.268 2.275 2.275 0 00-2.281 2.269 2.275 2.275 0 002.281 2.27zm15.333 5.602a2.275 2.275 0 002.28-2.27 2.275 2.275 0 00-2.28-2.27 2.275 2.275 0 00-2.281 2.27 2.275 2.275 0 002.281 2.27zm-4.367-15.597a2.275 2.275 0 002.28-2.27 2.275 2.275 0 00-2.28-2.269 2.275 2.275 0 00-2.281 2.27 2.275 2.275 0 002.281 2.27zm5.968-4.587a2.275 2.275 0 002.281-2.27 2.275 2.275 0 00-2.281-2.27 2.275 2.275 0 00-2.28 2.27 2.275 2.275 0 002.28 2.27zm-32.121-24.53a2.275 2.275 0 002.28-2.27 2.275 2.275 0 00-2.28-2.269 2.275 2.275 0 00-2.281 2.27 2.275 2.275 0 002.281 2.27zm-17.76 34.284a3.243 3.243 0 003.251-3.236 3.243 3.243 0 00-3.251-3.235 3.243 3.243 0 00-3.251 3.235 3.243 3.243 0 003.251 3.236zm8.298 11.395a3.243 3.243 0 003.251-3.235 3.243 3.243 0 00-3.251-3.235 3.243 3.243 0 00-3.251 3.235 3.243 3.243 0 003.251 3.235zm19.409-24.095a2.275 2.275 0 002.28-2.27 2.275 2.275 0 00-2.28-2.268 2.275 2.275 0 00-2.281 2.269 2.275 2.275 0 002.281 2.27zm-50.609 42.155a2.275 2.275 0 002.281-2.27 2.275 2.275 0 00-2.281-2.27 2.275 2.275 0 00-2.28 2.27 2.275 2.275 0 002.28 2.27zm-45.028-2.849a2.275 2.275 0 002.28-2.27 2.275 2.275 0 00-2.28-2.27 2.275 2.275 0 00-2.281 2.27 2.275 2.275 0 002.281 2.27zm49.395-7.244a2.275 2.275 0 002.281-2.269 2.275 2.275 0 00-2.281-2.27 2.275 2.275 0 00-2.28 2.27 2.275 2.275 0 002.28 2.27zm51.53-1.545a2.275 2.275 0 002.281-2.269 2.275 2.275 0 00-2.281-2.27 2.275 2.275 0 00-2.28 2.27 2.275 2.275 0 002.28 2.27zM108.047 43.31a2.275 2.275 0 002.281-2.27 2.275 2.275 0 00-2.281-2.269 2.275 2.275 0 00-2.28 2.27 2.275 2.275 0 002.28 2.269zm124.993-7.388a2.275 2.275 0 002.281-2.27 2.275 2.275 0 00-2.281-2.269 2.275 2.275 0 00-2.28 2.27 2.275 2.275 0 002.28 2.27zm15.333 5.601a2.275 2.275 0 002.281-2.27 2.275 2.275 0 00-2.281-2.269 2.275 2.275 0 00-2.28 2.27 2.275 2.275 0 002.28 2.27zm-4.367-15.596a2.275 2.275 0 002.281-2.27 2.275 2.275 0 00-2.281-2.27 2.275 2.275 0 00-2.28 2.27 2.275 2.275 0 002.28 2.27zm5.968-4.587a2.275 2.275 0 002.281-2.27 2.275 2.275 0 00-2.281-2.27 2.275 2.275 0 00-2.28 2.27 2.275 2.275 0 002.28 2.27zm-32.17-24.53a2.275 2.275 0 002.281-2.27 2.275 2.275 0 00-2.281-2.269 2.275 2.275 0 00-2.28 2.27 2.275 2.275 0 002.28 2.269zm-14.896 27.427a2.276 2.276 0 002.281-2.27 2.276 2.276 0 00-2.281-2.27 2.275 2.275 0 00-2.281 2.27 2.275 2.275 0 002.281 2.27zM303.64 62.721a3.243 3.243 0 003.251-3.235 3.243 3.243 0 00-3.251-3.235 3.243 3.243 0 00-3.251 3.235 3.243 3.243 0 003.251 3.235zm11.499-8.257a3.243 3.243 0 003.251-3.235 3.243 3.243 0 00-3.251-3.235 3.243 3.243 0 00-3.251 3.235 3.243 3.243 0 003.251 3.235zm-21.446-28.585a2.275 2.275 0 002.28-2.27 2.275 2.275 0 00-2.28-2.27 2.275 2.275 0 00-2.281 2.27 2.275 2.275 0 002.281 2.27z"/><path d="M334.257 84.547a2.275 2.275 0 002.281-2.27 2.275 2.275 0 00-2.281-2.27 2.275 2.275 0 00-2.28 2.27 2.275 2.275 0 002.28 2.27zm-23.776 3.138a2.275 2.275 0 002.281-2.27 2.275 2.275 0 00-2.281-2.269 2.275 2.275 0 00-2.28 2.27 2.275 2.275 0 002.28 2.27zm5.58-15.258a2.275 2.275 0 002.281-2.27 2.275 2.275 0 00-2.281-2.27 2.275 2.275 0 00-2.28 2.27 2.275 2.275 0 002.28 2.27zm-15.672 4.346a2.275 2.275 0 002.28-2.27 2.275 2.275 0 00-2.28-2.27 2.275 2.275 0 00-2.281 2.27 2.275 2.275 0 002.281 2.27zm-4.561-5.94a2.275 2.275 0 002.28-2.27 2.275 2.275 0 00-2.28-2.269 2.275 2.275 0 00-2.281 2.27 2.275 2.275 0 002.281 2.27zm-24.698 32.014a2.275 2.275 0 002.28-2.269 2.275 2.275 0 00-2.28-2.27 2.275 2.275 0 00-2.281 2.27 2.275 2.275 0 002.281 2.269zm-20.476 13.762a2.275 2.275 0 002.28-2.269 2.275 2.275 0 00-2.28-2.27 2.275 2.275 0 00-2.281 2.27 2.275 2.275 0 002.281 2.269zm156.532-68.664a2.275 2.275 0 002.28-2.269 2.275 2.275 0 00-2.28-2.27 2.275 2.275 0 00-2.281 2.27 2.275 2.275 0 002.281 2.27zm-191.662 53.502a2.275 2.275 0 002.28-2.27 2.275 2.275 0 00-2.28-2.269 2.275 2.275 0 00-2.281 2.27 2.275 2.275 0 002.281 2.269zm103.788-85.322a3.243 3.243 0 003.251-3.236 3.243 3.243 0 00-3.251-3.235 3.243 3.243 0 00-3.251 3.235 3.243 3.243 0 003.251 3.236zm11.5-8.257a3.243 3.243 0 003.251-3.236 3.243 3.243 0 00-3.251-3.235 3.243 3.243 0 00-3.251 3.235 3.243 3.243 0 003.251 3.236zM307.57-12.461a2.275 2.275 0 002.281-2.27A2.275 2.275 0 00307.57-17a2.275 2.275 0 00-2.281 2.27 2.275 2.275 0 002.281 2.269zm42.36 50.411a2.275 2.275 0 002.28-2.27 2.275 2.275 0 00-2.28-2.269 2.275 2.275 0 00-2.281 2.27 2.275 2.275 0 002.281 2.27zm22.077 20.957a2.275 2.275 0 002.281-2.27 2.275 2.275 0 00-2.281-2.27 2.275 2.275 0 00-2.28 2.27 2.275 2.275 0 002.28 2.27zm-45.853-17.818a2.275 2.275 0 002.28-2.27 2.275 2.275 0 00-2.28-2.27 2.275 2.275 0 00-2.281 2.27 2.275 2.275 0 002.281 2.27zm5.58-15.259a2.275 2.275 0 002.28-2.27 2.275 2.275 0 00-2.28-2.269 2.275 2.275 0 00-2.281 2.27 2.275 2.275 0 002.281 2.27zm42.554-27.668a2.275 2.275 0 002.28-2.27 2.275 2.275 0 00-2.28-2.269 2.275 2.275 0 00-2.281 2.27 2.275 2.275 0 002.281 2.269zm-58.227 32.014a2.275 2.275 0 002.281-2.27 2.275 2.275 0 00-2.281-2.269 2.275 2.275 0 00-2.28 2.27 2.275 2.275 0 002.28 2.269zm-4.561-5.939a2.275 2.275 0 002.281-2.27 2.275 2.275 0 00-2.281-2.27 2.275 2.275 0 00-2.28 2.27 2.275 2.275 0 002.28 2.27zM286.803 56.25a2.275 2.275 0 002.28-2.269 2.275 2.275 0 00-2.28-2.27 2.275 2.275 0 00-2.281 2.27 2.275 2.275 0 002.281 2.27zm-12.422-36.214a3.243 3.243 0 003.251-3.235 3.243 3.243 0 00-3.251-3.236 3.243 3.243 0 00-3.251 3.236 3.243 3.243 0 003.251 3.235zm11.5-8.257a3.243 3.243 0 003.251-3.235 3.243 3.243 0 00-3.251-3.236 3.243 3.243 0 00-3.251 3.236 3.243 3.243 0 003.251 3.235zM262.639-8.502a2.275 2.275 0 002.28-2.269 2.275 2.275 0 00-2.28-2.27 2.275 2.275 0 00-2.281 2.27 2.275 2.275 0 002.281 2.27zm42.359 50.363a2.275 2.275 0 002.281-2.27 2.275 2.275 0 00-2.281-2.269 2.275 2.275 0 00-2.28 2.27 2.275 2.275 0 002.28 2.27zm-21.495 5.457a2.275 2.275 0 002.281-2.27 2.275 2.275 0 00-2.281-2.27 2.275 2.275 0 00-2.28 2.27 2.275 2.275 0 002.28 2.27zm3.3-17.577a2.275 2.275 0 002.28-2.269 2.275 2.275 0 00-2.28-2.27 2.275 2.275 0 00-2.281 2.27 2.275 2.275 0 002.281 2.27zm-15.673 4.346a2.275 2.275 0 002.28-2.27 2.275 2.275 0 00-2.28-2.269 2.275 2.275 0 00-2.281 2.27 2.275 2.275 0 002.281 2.27zm-4.561-5.939a2.275 2.275 0 002.28-2.27 2.275 2.275 0 00-2.28-2.269 2.275 2.275 0 00-2.281 2.27 2.275 2.275 0 002.281 2.269zm-24.698 32.014a2.275 2.275 0 002.281-2.27 2.275 2.275 0 00-2.281-2.269 2.275 2.275 0 00-2.28 2.27 2.275 2.275 0 002.28 2.269zm33.48 18.638a3.243 3.243 0 003.251-3.235 3.243 3.243 0 00-3.251-3.235 3.243 3.243 0 00-3.251 3.235 3.243 3.243 0 003.251 3.236zm11.452-8.256a3.243 3.243 0 003.251-3.236 3.243 3.243 0 00-3.251-3.235 3.243 3.243 0 00-3.251 3.236 3.243 3.243 0 003.251 3.235zm-23.194-20.329a2.275 2.275 0 002.281-2.27 2.275 2.275 0 00-2.281-2.269 2.276 2.276 0 00-2.281 2.27 2.276 2.276 0 002.281 2.269zm.728 7.629a2.275 2.275 0 002.28-2.27 2.275 2.275 0 00-2.28-2.269 2.275 2.275 0 00-2.281 2.27 2.275 2.275 0 002.281 2.27zm41.632 42.782a2.275 2.275 0 002.28-2.27 2.275 2.275 0 00-2.28-2.269 2.275 2.275 0 00-2.281 2.27 2.275 2.275 0 002.281 2.269zm-3.009 29.31a2.275 2.275 0 002.281-2.269 2.275 2.275 0 00-2.281-2.27 2.275 2.275 0 00-2.28 2.27 2.275 2.275 0 002.28 2.269zm54.297-6.47a2.275 2.275 0 002.28-2.27 2.275 2.275 0 00-2.28-2.269 2.275 2.275 0 00-2.281 2.269 2.275 2.275 0 002.281 2.27zm25.377-17.432a2.275 2.275 0 002.28-2.269 2.275 2.275 0 00-2.28-2.27 2.275 2.275 0 00-2.281 2.27 2.275 2.275 0 002.281 2.269zm-100.49-2.269a2.275 2.275 0 002.281-2.27 2.275 2.275 0 00-2.281-2.27 2.275 2.275 0 00-2.28 2.27 2.275 2.275 0 002.28 2.27zm-8.685 9.029a2.276 2.276 0 002.281-2.269 2.276 2.276 0 00-2.281-2.269 2.275 2.275 0 00-2.281 2.269 2.275 2.275 0 002.281 2.269zm-99.713 1.546a2.276 2.276 0 002.281-2.27 2.275 2.275 0 00-2.281-2.269 2.275 2.275 0 00-2.28 2.269 2.276 2.276 0 002.28 2.27zm114.027-25.882a2.276 2.276 0 002.281-2.27 2.276 2.276 0 00-2.281-2.269 2.275 2.275 0 00-2.281 2.27 2.275 2.275 0 002.281 2.269zM272.1 92.852a2.275 2.275 0 002.281-2.27 2.275 2.275 0 00-2.281-2.269 2.275 2.275 0 00-2.28 2.27 2.275 2.275 0 002.28 2.269zm-4.609-5.939a2.275 2.275 0 002.28-2.27 2.275 2.275 0 00-2.28-2.27 2.275 2.275 0 00-2.281 2.27 2.275 2.275 0 002.281 2.27zm-24.649 31.965a2.275 2.275 0 002.28-2.269 2.275 2.275 0 00-2.28-2.269 2.275 2.275 0 00-2.281 2.269 2.275 2.275 0 002.281 2.269zm-69.096-58.716a2.275 2.275 0 002.281-2.27 2.275 2.275 0 00-2.281-2.269 2.275 2.275 0 00-2.28 2.27 2.275 2.275 0 002.28 2.269zM20.174 15.835c1.26 0 2.28-1.016 2.28-2.27a2.275 2.275 0 00-2.28-2.27 2.275 2.275 0 00-2.28 2.27 2.275 2.275 0 002.28 2.27zm111.455 81.363a2.275 2.275 0 002.281-2.27 2.275 2.275 0 00-2.281-2.27 2.275 2.275 0 00-2.28 2.27 2.275 2.275 0 002.28 2.27zm-3.882-6.229a2.275 2.275 0 002.281-2.27 2.275 2.275 0 00-2.281-2.27 2.275 2.275 0 00-2.28 2.27 2.275 2.275 0 002.28 2.27zm44.495-12.12a2.275 2.275 0 002.281-2.27 2.275 2.275 0 00-2.281-2.27 2.275 2.275 0 00-2.28 2.27 2.275 2.275 0 002.28 2.27zm-8.443-45.679a2.275 2.275 0 002.281-2.27 2.275 2.275 0 00-2.281-2.27 2.275 2.275 0 00-2.28 2.27 2.275 2.275 0 002.28 2.27zm-21.155 40.56a2.275 2.275 0 002.28-2.269 2.275 2.275 0 00-2.28-2.27 2.275 2.275 0 00-2.281 2.27 2.275 2.275 0 002.281 2.27zM97.81 101.109a2.275 2.275 0 002.28-2.27 2.275 2.275 0 00-2.28-2.269 2.275 2.275 0 00-2.281 2.27 2.275 2.275 0 002.28 2.269zm27.511-79.239a2.275 2.275 0 002.281-2.269 2.275 2.275 0 00-2.281-2.27 2.275 2.275 0 00-2.28 2.27 2.275 2.275 0 002.28 2.27zm27.27 115.599a2.275 2.275 0 002.28-2.27 2.275 2.275 0 00-2.28-2.269 2.275 2.275 0 00-2.281 2.269 2.275 2.275 0 002.281 2.27zm-24.601-19.267a2.275 2.275 0 002.28-2.269 2.276 2.276 0 00-2.28-2.27 2.276 2.276 0 00-2.281 2.27 2.275 2.275 0 002.281 2.269zm-78.654-.917c1.26 0 2.28-1.016 2.28-2.269a2.275 2.275 0 00-2.28-2.27 2.275 2.275 0 00-2.28 2.27 2.275 2.275 0 002.28 2.269zM27.977 89.182c1.26 0 2.28-1.016 2.28-2.27a2.275 2.275 0 00-2.28-2.269 2.275 2.275 0 00-2.28 2.27 2.275 2.275 0 002.28 2.27zM-22.72 72.427a2.275 2.275 0 002.281-2.27 2.275 2.275 0 00-2.28-2.27A2.275 2.275 0 00-25 70.158a2.275 2.275 0 002.28 2.27zM97.421 83.388c1.26 0 2.28-1.016 2.28-2.27a2.275 2.275 0 00-2.28-2.27 2.275 2.275 0 00-2.28 2.27 2.275 2.275 0 002.28 2.27zm-15.944 62.881c1.26 0 2.28-1.016 2.28-2.269a2.275 2.275 0 00-2.28-2.269 2.275 2.275 0 00-2.28 2.269 2.275 2.275 0 002.28 2.269zM41.524 151.5c1.26 0 2.28-1.016 2.28-2.269a2.275 2.275 0 00-2.28-2.27 2.275 2.275 0 00-2.28 2.27 2.275 2.275 0 002.28 2.269zm167.233 1.539a2.275 2.275 0 002.281-2.27 2.275 2.275 0 00-2.281-2.269 2.275 2.275 0 00-2.28 2.269 2.275 2.275 0 002.28 2.27zm-176.219-7.77c1.26 0 2.28-1.016 2.28-2.269a2.275 2.275 0 00-2.28-2.269 2.275 2.275 0 00-2.28 2.269 2.275 2.275 0 002.28 2.269zM17.893 86.913a2.275 2.275 0 002.281-2.27 2.275 2.275 0 00-2.28-2.27 2.275 2.275 0 00-2.281 2.27 2.275 2.275 0 002.28 2.27zm358.675 68.395a2.275 2.275 0 002.281-2.269 2.276 2.276 0 00-2.281-2.27 2.276 2.276 0 00-2.28 2.27 2.275 2.275 0 002.28 2.269z"/></g></svg>