<svg width="391" height="166" fill="none" xmlns="http://www.w3.org/2000/svg"><mask id="a" maskUnits="userSpaceOnUse" x="0" y="0" width="391" height="166"><path fill="#C4C4C4" d="M0 .575h391v165H0z"/></mask><g mask="url(#a)" stroke="#C4C4C4" stroke-miterlimit="10"><path d="M297.562 56.648c3.046 19.345-.203 31.562-12.387 44.459-11.846 12.014-32.627 24.775-57.604 24.028-23.353-.814-34.996-7.806-41.765-19.955-6.363-12.083-7.852-29.255-2.911-48.6 5.348-19.005 14.351-30.884 24.707-41.744 10.56-10.25 22.473-19.48 37.365-18.938 14.012.68 22.202 5.906 31.07 16.02 8.461 10.18 17.667 25.25 21.525 44.73z"/><path d="M255.798 100.768c-15.705 3.258-27.821-1.697-37.569-8.757-9.544-7.466-16.787-16.9-18.276-32.444-.406-15.34 5.618-23.282 12.049-29.934 6.769-6.38 13.809-11.539 23.421-15 9.95-3.123 15.095.95 22.067 7.602 6.566 6.99 14.959 16.493 22.608 31.698 13.606 29.865 4.603 37.807-24.3 46.835z"/><path d="M313.199 52.032c4.941 24.096 1.557 39.708-12.794 55.523-14.079 14.797-39.125 29.73-70.059 29.323-29.648-1.901-52.934-10.249-70.262-25.318-16.517-14.797-27.009-36.314-12.591-59.12 15.501-24.979 25.655-41.677 38.11-54.302 12.184-12.217 26.602-20.227 44.337-19.616 18.141.95 29.919 7.195 45.149 19.21 14.147 12.013 31.679 29.661 38.11 54.3z"/><path d="M350.632 60.585c6.498 28.644-2.167 45.884-25.384 63.057-22.609 15.951-59.838 31.902-97.339 30.68-36.756-1.29-63.155-9.978-83.665-25.521-19.63-15.544-33.439-38.011-24.639-68.216 9.206-29.255 30.867-49.618 48.872-68.827 18.277-18.19 40.953-35.431 62.884-34.956 22.067.475 38.042 13.846 60.854 30.34 21.052 16.29 50.564 43.849 58.417 73.443z"/><path d="M527.303 132.534c-.203 32.648-9.206 56.609-28.092 79.076-18.75 22.127-47.451 42.762-83.8 59.392-36.147 16.494-80.01 28.983-125.498 33.327-45.284 4.616-92.261 1.154-130.506-7.263-40.479-9.095-72.767-21.585-102.145-37.4-28.971-15.883-55.032-35.16-74.865-58.916-19.766-23.757-33.371-51.994-35.876-83.692-2.775-31.495 5.55-66.383 24.572-98.217C-9.683-14.622 12.18-40.823 34.789-65.801c22.676-24.64 46.097-47.989 70.939-67.741 24.775-19.684 50.971-35.771 78.115-43.644 26.873-8.01 54.626-7.874 77.37 1.221 25.045 9.503 45.352 24.096 69.788 42.423 23.963 18.462 51.986 40.658 80.822 67.809 28.633 27.015 57.943 59.052 79.604 94.348 21.796 34.888 35.808 73.035 35.876 103.919z"/><path d="M366.268 56.648c6.904 33.599-1.151 54.301-25.181 74.935-23.488 19.277-62.884 38.419-106.477 37.265-42.847-1.697-73.376-12.558-97.135-31.291-22.744-18.87-38.651-45.613-29.445-80.91 9.544-34.209 34.251-60.273 54.423-85.116 20.578-23.486 46.097-47.378 71.819-46.767 25.587.814 42.645 18.938 68.435 40.658 23.691 21.313 55.506 56.88 63.561 91.226z"/><path d="M392.735 55.494c8.799 39.368-3.249 61.021-30.19 84.167-26.941 21.788-68.773 45.138-120.15 56.134-28.092 6.584-51.58 3.122-71.819-3.666-20.172-7.059-37.162-17.512-51.58-30.748C91.649 136.335 70.191 95.27 82.24 55.494c5.415-20.227 17.396-36.721 29.987-52.74 12.861-15.815 26.196-31.155 40.072-45.206 13.877-13.982 28.227-26.607 43.525-34.684 15.095-8.01 31.07-11.404 43.525-5.702 36.485 14.797 64.779 26.268 92.058 47.581 26.467 20.77 51.919 51.45 61.328 90.751z"/><path d="M46.567 56.648c-8.055 23.214-6.633 49.075-.474 72.085 6.296 23.145 17.397 43.373 32.492 60.002 15.23 16.562 34.454 29.595 59.702 37.332 25.317 7.467 56.589 9.639 97.068-2.036 59.974-16.969 111.757-44.459 143.368-69.505 31.137-26.54 50.226-51.383 37.839-98.964-5.619-23.417-20.781-46.7-37.365-66.315-16.855-19.753-35.131-35.84-51.986-49.21-34.928-25.047-61.463-44.528-97.271-45.139-35.47-.882-73.715 24.911-104.175 53.42A497.29 497.29 0 0080.548-3.967c-14.08 17.445-27.415 36.45-33.98 60.614z"/><path d="M22.808 30.923c-11.913 25.725-15.23 56.54-11.71 84.37 3.52 28.169 13.944 53.419 29.445 74.393 15.636 20.974 36.417 37.739 63.696 48.803 27.482 10.792 61.463 15.883 109.388 7.195 70.736-12.965 138.494-39.844 180.394-67.877 42.035-29.797 66.878-56.541 58.823-109.416-3.52-25.997-18.344-54.098-36.621-78.33-18.411-24.503-40.14-45.206-60.65-62.31-20.646-17.173-40.005-30.816-57.808-42.084-18.073-11.064-34.589-19.82-55.099-22.874-18.886-3.598-41.156.271-62.072 9.163-21.12 8.892-41.02 22.739-59.838 38.554-18.818 15.883-36.688 33.802-53.814 53.011-16.855 19.413-33.1 40.251-44.134 67.402z"/><path d="M-26.359 80.137c-1.895 70.523 40.3 113.078 76.852 143.962 37.839 30.273 89.622 46.835 175.859 48.396 41.901 1.086 82.921-7.263 116.563-19.684 33.98-12.557 60.65-29.255 80.077-47.514 37.636-38.418 50.971-78.601 33.642-147.292-8.055-33.802-25.79-65.908-45.149-92.515-19.63-26.88-40.885-48.26-61.124-65.501-20.375-17.241-39.734-30.273-59.635-40.251-20.037-9.774-40.614-16.494-66.811-16.29-25.18-1.358-51.512 8.824-75.339 23.01-24.03 14.39-45.623 32.784-66.2 53.012-20.51 20.363-39.938 42.558-57.131 68.147-16.72 25.658-50.927 56.681-51.604 92.52z"/><path d="M-35.859 80.147c-1.963 73.51 37.932 120.884 75.974 153.058 39.396 31.562 93.345 48.803 183.237 50.432 43.66 1.086 86.373-7.602 121.504-20.499 35.402-13.1 63.155-30.476 83.462-49.55 39.26-39.979 53.069-81.859 35.064-153.468-8.394-35.16-26.873-68.624-47.045-96.385-20.442-27.965-42.577-50.296-63.696-68.284-21.255-17.919-41.427-31.494-62.14-41.947-20.849-10.182-42.306-17.241-69.586-16.969-26.263-1.426-53.678 9.231-78.52 24.028-25.045 15.001-47.519 34.142-68.976 55.183-21.323 21.246-41.63 44.324-59.568 71-17.396 26.81-48.965 56.069-49.71 93.4z"/></g></svg>