<svg width="47" height="52" fill="none" xmlns="http://www.w3.org/2000/svg"><path d="M17.116 13.929c-.815-.398-1.902 0-2.174.928a1.51 1.51 0 00.951 2.123c.815.398 1.902 0 2.174-.929a1.51 1.51 0 00-.951-2.122zm7.199 0c-.815-.398-1.902 0-2.173.928a1.51 1.51 0 00.95 2.123c.816.398 1.902 0 2.174-.929.272-.796-.136-1.857-.951-2.122zm5.841 3.051c.815.398 1.902 0 2.174-.929a1.51 1.51 0 00-.951-2.122c-.815-.398-1.902 0-2.174.928-.271.796.136 1.725.951 2.123zm8.558-3.051c-.815-.398-1.902 0-2.173.928a1.51 1.51 0 00.95 2.123c.815.398 1.902 0 2.174-.929.271-.796-.136-1.857-.951-2.122zM9.916 19.898c-.815-.398-1.902 0-2.173.928a1.51 1.51 0 00.95 2.123c.816.398 1.902 0 2.174-.929a1.51 1.51 0 00-.95-2.122zm7.2 0c-.815-.398-1.902 0-2.174.928a1.51 1.51 0 00.951 2.123c.815.398 1.902 0 2.174-.929a1.51 1.51 0 00-.951-2.122zm7.199 0c-.815-.398-1.902 0-2.173.928a1.51 1.51 0 00.95 2.123c.816.398 1.902 0 2.174-.929.272-.796-.136-1.857-.951-2.122zm5.841 2.918c.815.398 1.902 0 2.174-.928a1.51 1.51 0 00-.951-2.123c-.815-.398-1.902 0-2.174.929-.271.796.136 1.857.951 2.122zm8.558-2.918c-.815-.398-1.902 0-2.173.928a1.51 1.51 0 00.95 2.123c.815.398 1.902 0 2.174-.929.271-.796-.136-1.857-.951-2.122zM9.916 25.867c-.815-.398-1.902 0-2.173.929a1.51 1.51 0 00.95 2.122c.816.266 1.767-.132 2.174-.928a1.51 1.51 0 00-.95-2.123zm7.2 0c-.815-.398-1.902 0-2.174.929a1.51 1.51 0 00.951 2.122c.815.398 1.902 0 2.174-.928a1.51 1.51 0 00-.951-2.123zm7.199 0c-.815-.398-1.902 0-2.173.929a1.51 1.51 0 00.95 2.122c.816.398 1.902 0 2.174-.928.272-.796-.136-1.857-.951-2.123zm14.399 0c-.815-.398-1.902 0-2.173.929a1.51 1.51 0 00.95 2.122c.815.398 1.902 0 2.174-.928.271-.796-.136-1.857-.951-2.123zM9.916 31.704c-.815-.398-1.902 0-2.173.929a1.51 1.51 0 00.95 2.122c.816.398 1.902 0 2.174-.928.408-.796 0-1.725-.95-2.123zm7.2 0c-.815-.398-1.902 0-2.174.929a1.51 1.51 0 00.951 2.122c.815.398 1.902 0 2.174-.928.407-.796 0-1.725-.951-2.123zm7.199 0c-.815-.398-1.902 0-2.173.929a1.51 1.51 0 00.95 2.122c.816.398 1.902 0 2.174-.928.272-.796-.136-1.725-.951-2.123zm7.2 0c-.816-.398-1.902 0-2.174.929a1.51 1.51 0 00.95 2.122c.816.398 1.903 0 2.174-.928.272-.796-.136-1.725-.95-2.123zm7.199 0c-.815-.398-1.902 0-2.173.929a1.51 1.51 0 00.95 2.122c.815.398 1.902 0 2.174-.928.271-.796-.136-1.725-.951-2.123zM9.916 37.673c-.815-.398-1.902 0-2.173.929a1.51 1.51 0 00.95 2.123c.816.397 1.767 0 2.174-.796.408-.929 0-1.858-.95-2.256zm7.2 0c-.815-.398-1.902 0-2.174.929a1.51 1.51 0 00.951 2.123c.815.397 1.902 0 2.174-.93.407-.795 0-1.724-.951-2.122zm7.199 0c-.815-.398-1.902 0-2.173.929a1.51 1.51 0 00.95 2.123c.816.397 1.902 0 2.174-.93.272-.795-.136-1.724-.951-2.122z" fill="#E7B160"/><path d="M39.121 2.388h-.679V0h-1.358v2.388h-8.015V0h-1.358v2.388h-8.15V0h-1.359v2.388h-8.15V0H8.694v2.388h-.815C3.532 2.388 0 5.837 0 10.082v34.224C0 48.551 3.532 52 7.879 52H39.12c4.348 0 7.88-3.449 7.88-7.694V10.082c0-4.245-3.532-7.694-7.879-7.694zm-1.086 4.245c.543 0 .95.398.95.928s-.407 1.061-.95 1.061c-.544 0-.951-.398-.951-.928s.407-1.061.95-1.061zm-9.645 0c.543 0 .951.398.951.928s-.408.929-.95.929c-.544 0-.952-.398-.952-.929 0-.53.408-.928.951-.928zm-9.509 0c.544 0 .951.398.951.928s-.407.929-.95.929c-.544 0-.951-.398-.951-.929 0-.53.407-.928.95-.928zm-9.508 0c.543 0 .95.398.95.928s-.407 1.061-.95 1.061c-.544 0-1.087-.398-1.087-.928s.543-1.061 1.087-1.061zm29.748 44.04H7.88a6.55 6.55 0 01-6.52-5.704c1.494 1.99 3.803 3.317 6.52 3.317h31.24c2.717 0 5.026-1.327 6.52-3.317a6.55 6.55 0 01-6.52 5.704zm6.52-11.408v1.327c0 3.581-2.988 6.367-6.52 6.367H7.88c-3.668 0-6.52-2.918-6.52-6.367v-30.51c0-3.582 2.988-6.368 6.52-6.368h.815v1.857c-.951.133-1.766 1.062-1.766 2.123 0 1.326 1.086 2.255 2.309 2.255s2.31-1.061 2.31-2.255c0-1.061-.68-1.857-1.63-2.255V3.714h8.15v1.857c-.951.266-1.63 1.194-1.63 2.256 0 1.326 1.086 2.255 2.309 2.255 1.222 0 2.309-1.062 2.309-2.255 0-1.062-.68-1.858-1.63-2.256V3.714h8.15v1.857c-.95.266-1.63 1.194-1.63 2.256 0 1.326 1.087 2.255 2.31 2.255 1.222 0 2.309-1.062 2.309-2.255 0-1.062-.68-1.858-1.63-2.256V3.714h8.014v1.857c-.815.398-1.494 1.194-1.494 2.123 0 1.326 1.087 2.255 2.309 2.255 1.223 0 2.31-1.061 2.31-2.255 0-1.061-.816-2.123-1.903-2.255V3.714h.68c3.667 0 6.52 2.919 6.52 6.368v29.183h.272z" fill="#E7B160"/><path d="M32.465 24.806l-1.63 1.592-1.63-1.592-.95.929 1.63 1.591-1.63 1.592.95.929 1.63-1.592 1.63 1.592.951-.929-1.63-1.591 1.63-1.592-.95-.929z" fill="#E7B160"/></svg>