<svg width="55" height="54" fill="none" xmlns="http://www.w3.org/2000/svg"><path d="M49.807 34.218V19.401l1.322 1.423a.704.704 0 001.032-.958L34.837 1.225a.704.704 0 00-1.032.959l3.151 3.39-4.262 4.587V6.493a.704.704 0 00-.704-.704h-3.874a.704.704 0 00-.704.704v9.351l-3.737 4.022a.704.704 0 101.031.958l1.062-1.142v5.593H12.621c-.359 0-.66.27-.7.627l-.737 6.631H2.995a.705.705 0 00-.697.608l-1.291 9.293a.704.704 0 00.697.801h.704v9.391c0 .39.316.705.705.705h50.182a.704.704 0 00.705-.705V38.833a4.643 4.643 0 00-4.193-4.615zm0 6.67h2.044a3.227 3.227 0 01-2.044 1.142v-1.142zm2.72-1.409h-2.72v-.94h2.77a3.235 3.235 0 01-.05.94zm-.423-2.348h-2.297v-1.495a3.233 3.233 0 012.297 1.495zM28.82 7.198h2.465v4.478L28.82 14.33V7.198zm9.098-.589l10.48 11.277v24.178c-2.23.034-4.886.374-7.37 1.454v-4.626a.704.704 0 00-.704-.704h-7.512a.704.704 0 00-.705.704v13.03h-1.995V38.305h.939a.704.704 0 00.704-.704v-4.93a.704.704 0 00-.704-.705h-3.874v-13.8L37.917 6.61zM13.252 26.684h12.516v5.987c0 .389.316.704.705.704h3.873v3.522h-18.23l1.136-10.213zm5.004 11.621h1.526v6.691h-1.526v-6.69zm2.934 0h1.526v6.691H21.19v-6.69zm-13.91 4.93v8.687H6.165v-8.687H7.28zm1.409 0h1.115v8.687H8.689v-8.687zm2.524 0h1.056v8.687h-1.056v-8.687zm-7.604-9.293h7.419l-.398 3.581a.704.704 0 00.7.782h.939v3.522H2.513l1.096-7.885zm.208 9.293h.94v8.687h-.94v-8.687zm9.86 8.687V38.305h3.17V45.7c0 .39.315.705.704.705h5.87a.704.704 0 00.704-.705v-7.395h4.578v13.617H13.678zm19.839-12.326h6.104v4.63a12.418 12.418 0 00-3.544 3.03c-1.49 1.869-2.09 3.732-2.315 4.666h-.245V39.596zm1.7 12.326c.246-.866.794-2.324 1.961-3.787 2.47-3.095 6.372-4.665 11.6-4.665h.586a4.62 4.62 0 003.228-1.313v9.765H35.217z" fill="#E7B160"/><path d="M29.76 31.145h5.634a.704.704 0 00.704-.705v-8.92a.704.704 0 00-.704-.704H29.76a.704.704 0 00-.705.704v8.921c0 .39.316.705.704.705zm.704-4.461h1.409v3.052h-1.41v-3.052zm2.817 3.052v-3.052h1.409v3.052h-1.41zm1.409-4.46h-1.41v-3.053h1.409v3.052zm-2.817-3.053v3.052h-1.41v-3.052h1.41zm7.63-.704v8.921c0 .39.315.705.704.705h5.635a.704.704 0 00.704-.705v-8.92a.704.704 0 00-.704-.704h-5.635a.704.704 0 00-.704.704zm1.408 5.165h1.41v3.052h-1.41v-3.052zm2.818 3.052v-3.052h1.408v3.052H43.73zm1.408-4.46H43.73v-3.053h1.408v3.052zm-2.817-3.053v3.052h-1.409v-3.052h1.41zm-4.402-7.16c1.488 0 2.7-1.212 2.7-2.7 0-1.489-1.212-2.7-2.7-2.7a2.703 2.703 0 00-2.7 2.7c0 1.488 1.211 2.7 2.7 2.7zm0-3.992a1.293 1.293 0 010 2.582 1.292 1.292 0 01-1.292-1.29c0-.712.58-1.292 1.292-1.292z" fill="#E7B160"/><path fill-rule="evenodd" clip-rule="evenodd" d="M52.125 20.86a.704.704 0 01-.996-.036l-1.322-1.423v14.817A4.643 4.643 0 0154 38.833v13.793a.704.704 0 01-.705.705H3.113a.704.704 0 01-.705-.705v-9.39h-.704a.704.704 0 01-.697-.802l1.29-9.293a.704.704 0 01.698-.608h8.19l.736-6.631a.704.704 0 01.7-.627h13.147v-5.593l-1.062 1.142a.703.703 0 01-.995.037.704.704 0 01-.036-.995l3.737-4.022v-9.35c0-.39.315-.705.704-.705h3.874c.389 0 .704.315.704.704v3.668l4.262-4.586-3.151-3.391a.704.704 0 011.032-.96L52.16 19.867a.704.704 0 01-.036.995zm.183-1.13L34.983 1.089a.904.904 0 00-1.325 1.23l3.025 3.256-3.789 4.077V6.493a.904.904 0 00-.904-.904h-3.874c-.5 0-.904.405-.904.904v9.273l-3.684 3.963a.904.904 0 101.325 1.232l.715-.77v4.884H12.621a.904.904 0 00-.899.805l-.717 6.453h-8.01a.904.904 0 00-.895.78L.808 42.407a.905.905 0 00.896 1.028h.504v9.191c0 .5.405.905.905.905h50.182c.5 0 .905-.405.905-.905V38.833a4.844 4.844 0 00-4.193-4.793V19.91l.976 1.05a.904.904 0 001.325-1.23zM10.63 37.523l.398-3.581h-7.42l-1.095 7.885h9.756v-3.522h-.94a.704.704 0 01-.7-.782zm.026.681a.904.904 0 01-.225-.703l.373-3.36H3.783l-1.04 7.486h9.326v-3.122h-.74a.904.904 0 01-.673-.301zm40.727 2.884h-1.376v.704c.52-.113.992-.36 1.376-.704zm-1.576-.2v1.142a3.222 3.222 0 002.044-1.142h-2.044zm2.72-1.409a3.233 3.233 0 00.05-.94h-2.77v.94h2.72zm-2.52-.2h2.351a3.031 3.031 0 00.032-.54h-2.383v.54zm2.097-2.148a3.233 3.233 0 00-2.297-1.495v1.495h2.297zm-.387-.2h-1.71v-1.056a3.04 3.04 0 011.71 1.056zM31.086 7.398H29.02v6.422l2.066-2.222v-4.2zm.2 4.278L28.82 14.33V7.198h2.465v4.478zm6.632-5.067L27.177 18.166v13.8h3.874c.389 0 .704.316.704.705v4.93a.704.704 0 01-.704.704h-.94v13.617h1.996v-13.03c0-.389.316-.704.705-.704h7.512c.39 0 .705.315.705.704v4.626l.2-.085c2.425-1.013 4.998-1.336 7.17-1.369V17.886L37.917 6.609zm0 .294l10.28 11.061v23.904c-2.121.049-4.609.378-6.97 1.348v-4.324c0-.5-.404-.904-.904-.904h-7.512c-.5 0-.905.405-.905.904v12.83h-1.595V38.505h.739c.5 0 .904-.405.904-.904v-4.93c0-.5-.405-.905-.904-.905h-3.674V18.245l10.54-11.342zM13.43 26.883h12.137v5.788c0 .499.405.904.905.904h3.674v3.121H12.34l1.09-9.812zm16.915 10.014v-3.522h-3.873a.704.704 0 01-.705-.704v-5.987H13.251l-1.134 10.213h18.23zm-10.764 1.608h-1.126v6.291h1.126v-6.29zm2.934 0H21.39v6.291h1.126v-6.29zM7.08 51.722v-8.287h-.715v8.287h.715zm2.524-8.287h-.715v8.287h.715v-8.287zm2.465 0h-.657v8.287h.657v-8.287zm-7.513 0h-.539v8.287h.54v-8.287zm9.322-4.93v13.217h14.625V38.505h-4.178V45.7c0 .5-.405.905-.904.905h-5.87a.904.904 0 01-.904-.904v-7.196h-2.77zm25.542 1.291h-5.704v11.526a12.565 12.565 0 015.704-7.21v-4.316zm.2 4.43a12.418 12.418 0 00-3.544 3.03c-1.49 1.869-2.09 3.732-2.315 4.666h-.245V39.596h6.104v4.63zm-4.403 7.696H52.59v-9.765a4.616 4.616 0 01-3.228 1.313h-.587c-5.227 0-9.13 1.57-11.599 4.665a10.97 10.97 0 00-1.96 3.787zm.268-.2h16.906v-9.12a4.812 4.812 0 01-3.028 1.068h-.587c-5.187 0-9.023 1.556-11.443 4.59a10.78 10.78 0 00-1.848 3.462zm-.09-20.377h-5.636a.904.904 0 01-.904-.905v-8.92c0-.5.405-.904.904-.904h5.635c.5 0 .904.405.904.904v8.921c0 .5-.404.905-.904.905zm-3.723-4.461h-1.008v2.652h1.008v-2.652zm1.81 0v2.652h1.008v-2.652h-1.01zm0-1.809h1.008v-2.652h-1.01v2.652zm-1.81 0v-2.652h-1.008v2.652h1.008zm7.63 5.365v-8.92c0-.5.406-.904.905-.904h5.635c.5 0 .904.405.904.904v8.921c0 .5-.405.905-.904.905h-5.635a.904.904 0 01-.904-.905zm2.818-3.556h-1.008v2.652h1.008v-2.652zm1.809 0v2.652h1.008v-2.652H43.93zm0-1.809h1.008v-2.652H43.93v2.652zm-1.809 0v-2.652h-1.008v2.652h1.008zm-1.302-12.712c0 1.599-1.301 2.9-2.9 2.9-1.6 0-2.9-1.301-2.9-2.9 0-1.6 1.3-2.9 2.9-2.9 1.599 0 2.9 1.3 2.9 2.9zm-1.81 0a1.091 1.091 0 00-2.181-.001c0 .602.49 1.092 1.09 1.092.602 0 1.092-.49 1.092-1.091zM18.257 38.305v6.691h1.526v-6.69h-1.526zm2.934 0v6.691h1.526v-6.69H21.19zm-13.91 4.93H6.165v8.687H7.28v-8.687zm1.409 0v8.687h1.115v-8.687H8.689zm2.524 0v8.687h1.056v-8.687h-1.056zm-7.396 0v8.687h.94v-8.687h-.94zm9.86 8.687h15.026V38.305h-4.578V45.7a.704.704 0 01-.704.705h-5.87a.704.704 0 01-.704-.705v-7.395h-3.17v13.617zm21.717-20.777H29.76a.704.704 0 01-.705-.705v-8.92c0-.389.316-.704.704-.704h5.635c.389 0 .704.315.704.704v8.921a.704.704 0 01-.704.705zm-4.93-4.461v3.052h1.409v-3.052h-1.41zm2.817 3.052h1.409v-3.052H33.28v3.052zm1.409-4.46v-3.053H33.28v3.052h1.409zm-2.817-3.053h-1.41v3.052h1.41v-3.052zm7.63-.704v8.921c0 .39.315.705.704.705h5.635a.704.704 0 00.704-.705v-8.92a.704.704 0 00-.704-.704h-5.635a.704.704 0 00-.704.704zm2.817 5.165v3.052h-1.409v-3.052h1.41zm1.409 0h1.408v3.052H43.73v-3.052zm0-1.409v-3.052h1.408v3.052H43.73zm-1.409 0h-1.409v-3.052h1.41v3.052zm-1.702-12.912c0 1.488-1.212 2.7-2.7 2.7a2.703 2.703 0 01-2.7-2.7c0-1.489 1.211-2.7 2.7-2.7 1.488 0 2.7 1.211 2.7 2.7zm-1.41 0c0-.712-.578-1.292-1.29-1.292a1.293 1.293 0 000 2.582 1.29 1.29 0 001.29-1.29z" fill="#E7B160"/></svg>