<svg width="48" height="67" fill="none" xmlns="http://www.w3.org/2000/svg"><path d="M46.093 13.837c1.112 0 1.907-.874 1.907-1.748v-1.02c0-1.019-.954-1.747-1.907-1.747h-1.59c.318-.292.477-.729.477-1.02 0-1.02-.953-1.748-1.907-1.748-.636 0-1.113.292-1.59.729-.476-.874-1.43-1.457-2.543-1.457-.953 0-1.907.437-2.384 1.165-1.907-2.33-5.88-4.078-10.808-4.515.16-.146.16-.437.16-.728C25.907.728 24.953 0 24 0c-1.113 0-1.907.874-1.907 1.748 0 .291 0 .437.159.728-4.927.291-9.06 2.04-10.808 4.515-.636-.728-1.43-1.31-2.543-1.31-1.113 0-2.067.582-2.543 1.456-.16-.291-.477-.437-.795-.583C4.45 6.263 3.338 6.7 3.02 7.72c-.16.582 0 1.165.318 1.602h-1.43C.953 9.322 0 10.196 0 11.07v.873c0 1.166.954 1.894 1.907 1.894h2.225v16.896a2.567 2.567 0 00-1.907 2.476c0 1.165.795 2.039 1.907 2.476V52.58H1.907C.795 52.58 0 53.454 0 54.328v.874c0 1.02.954 1.748 1.907 1.748h1.43c-.317.291-.476.728-.476 1.02 0 1.02.954 1.747 1.907 1.747.636 0 1.113-.29 1.43-.728.478.874 1.431 1.602 2.544 1.602.953 0 1.907-.437 2.384-1.165 1.907 2.476 6.199 4.224 11.285 4.515-.318.292-.636.729-.636 1.311 0 1.02.954 1.748 1.907 1.748 1.113 0 1.907-.874 1.907-1.748 0-.437-.159-.874-.635-1.31 5.086-.292 9.218-2.04 11.126-4.516.476.728 1.43 1.311 2.384 1.311 1.112 0 2.066-.583 2.543-1.457.318.437.953.583 1.43.583 1.113 0 1.907-.874 1.907-1.748 0-.437-.159-.728-.477-1.02h1.59c1.112 0 1.907-.873 1.907-1.747v-.874c0-1.02-.953-1.748-1.907-1.748H43.55V35.685a2.567 2.567 0 001.907-2.476c0-1.166-.795-2.04-1.907-2.476V13.837h2.543zm-7.153-6.7c.636 0 1.113.437 1.113 1.02 0 .582-.477 1.02-1.113 1.02-.635 0-1.112-.438-1.112-1.02 0-.437.477-1.02 1.112-1.02zM24 3.787c6.199 0 11.444 2.476 12.08 5.535H11.92c.795-3.059 6.04-5.535 12.08-5.535zM8.9 7.137c.636 0 1.113.437 1.113 1.02 0 .582-.477 1.02-1.112 1.02-.636 0-1.113-.292-1.113-.875 0-.582.477-1.165 1.113-1.165zm-7.31 4.952v-1.02c0-.145.158-.29.317-.29h44.186c.159 0 .318.145.318.29v.874c0 .146-.16.292-.318.292H1.907c-.159.145-.318 0-.318-.146zm30.357 25.78c.159.583.159.874 0 1.02-.795 1.602-5.563 2.767-9.854 3.787-3.815.874-7.788 1.748-10.172 3.204 1.112-4.515 3.655-8.302 7.152-10.632.794-.437 1.59-.874 2.384-1.02.477.874 1.43 1.457 2.543 1.457 1.113 0 2.066-.583 2.543-1.457.795.292 1.748.583 2.384 1.02 1.113.728 2.066 1.602 3.02 2.622zm2.066 2.768c.318.728.16 1.165.16 1.456-.955 1.894-6.2 3.06-10.968 4.079-4.609 1.02-9.377 2.184-11.761 4.078 0-.437 0-1.02.159-1.456.318-2.331 6.04-3.642 10.967-4.661 4.927-1.166 9.695-2.185 10.807-4.37.16.146.318.437.636.874zm2.702 10.341v1.457H11.603c.953-2.33 6.834-3.642 12.08-4.807 5.085-1.165 10.012-2.33 11.602-4.515.795 2.33 1.43 5.098 1.43 7.865zM22.887 33.063c0-.583.477-1.02 1.113-1.02s1.113.437 1.113 1.02-.477 1.02-1.113 1.02-1.113-.437-1.113-1.02zM24 30.587c-1.113 0-2.066.583-2.543 1.457-.795-.292-1.748-.583-2.384-1.02-4.768-3.059-7.788-9.176-7.788-15.73v-1.457h25.43v1.457c0 6.7-3.02 12.671-7.788 15.73-.794.437-1.59.874-2.384 1.02-.477-.874-1.43-1.457-2.543-1.457zM3.815 33.063c0-.583.476-1.02 1.112-1.02.636 0 1.113.437 1.113 1.02s-.477 1.02-1.113 1.02-1.112-.437-1.112-1.02zm1.907 2.476a2.567 2.567 0 001.907-2.476c0-1.165-.795-2.04-1.907-2.476v-16.75h3.973v1.457c0 7.136 3.18 13.545 8.424 16.895.636.437 1.272.728 1.907 1.02-.635.291-1.271.582-1.907 1.02-4.61 2.912-7.629 8.301-8.265 14.419v.437c0 .728-.159 1.31-.159 2.039v1.456H5.722V35.54zM8.9 59.135c-.636 0-1.113-.437-1.113-1.02 0-.582.477-1.02 1.113-1.02.635 0 1.112.438 1.112 1.02 0 .583-.477 1.02-1.112 1.02zm15.1 3.35c-6.199 0-11.603-2.476-12.08-5.68h24.318c-.794 3.204-6.04 5.68-12.238 5.68zm14.94-3.35c-.635 0-1.112-.437-1.112-1.02 0-.582.477-1.02 1.112-1.02.636 0 1.113.438 1.113 1.02 0 .583-.477 1.02-1.113 1.02zm7.47-4.952v.873c0 .146-.158.292-.317.292H1.907c-.159.145-.318 0-.318-.291v-.874c0-.146.16-.292.318-.292h44.186c.159-.145.318.146.318.292zm-2.513-20.974c0 .582-.292 1.082-.928 1.082-.635 0-1.112-.437-1.112-1.02 0-.582.318-1.019.953-1.019.636 0 1.087.374 1.087.957zm-1.778-2.476a2.567 2.567 0 00-1.907 2.476c0 1.165.795 2.039 1.907 2.476V52.58h-3.814v-1.456c0-4.078-1.113-7.865-2.861-10.924 0-.146 0-.146-.16-.291-.635-1.02-1.27-1.894-2.066-2.768v-.145c-.953-1.02-2.066-2.04-3.337-2.768-.636-.437-1.272-.728-1.907-1.02.635-.29 1.271-.582 1.907-1.019 5.245-3.35 8.424-9.759 8.424-16.895v-1.457h3.814v16.896z" fill="#E7B160"/></svg>