<svg width="169" height="91" fill="none" xmlns="http://www.w3.org/2000/svg"><path d="M23.663 53.798a2.295 2.295 0 01-2.295-2.29 2.295 2.295 0 014.59 0 2.295 2.295 0 01-2.295 2.29zm0-3.542c-.691 0-1.254.56-1.254 1.251a1.254 1.254 0 002.508 0c0-.69-.562-1.251-1.254-1.251z" fill="#444"/><path d="M24.616 49.89l-2.501 2.497.737.736 2.502-2.496-.738-.737zm53.783 3.908a2.295 2.295 0 01-2.296-2.29 2.296 2.296 0 014.591 0 2.295 2.295 0 01-2.295 2.29zm0-3.542c-.692 0-1.254.56-1.254 1.251a1.254 1.254 0 002.508 0c0-.69-.563-1.251-1.254-1.251z" fill="#444"/><path d="M79.351 49.89l-2.501 2.497.737.736 2.502-2.496-.738-.737zm67.309 3.908a2.297 2.297 0 01-2.297-2.29 2.296 2.296 0 012.297-2.292 2.295 2.295 0 012.296 2.291 2.296 2.296 0 01-2.296 2.291zm0-3.542c-.691 0-1.254.56-1.254 1.251a1.254 1.254 0 002.508 0 1.256 1.256 0 00-1.254-1.251z" fill="#444"/><path d="M147.612 49.89l-2.502 2.497.738.736 2.501-2.496-.737-.737zM44.063 60.784c-.856 0-1.633-.113-2.309-.333l-.012-.004a8.174 8.174 0 01-1.023-.383 8.845 8.845 0 01-2.773-1.961 9.527 9.527 0 01-1.882-2.928c-.467-1.125-.703-2.359-.703-3.668 0-1.309.236-2.543.703-3.665a9.502 9.502 0 011.882-2.928 8.845 8.845 0 012.773-1.962 8.077 8.077 0 013.344-.72h.048c.86 0 1.638.117 2.313.347l.094.032c.302.095.598.21.89.341a8.845 8.845 0 012.773 1.962 9.526 9.526 0 011.882 2.928c.466 1.124.703 2.358.703 3.665 0 1.31-.236 2.543-.703 3.666A9.527 9.527 0 0150.18 58.1a8.834 8.834 0 01-2.77 1.961c-.336.151-.677.28-1.025.383l-.012.004c-.678.222-1.455.335-2.31.335zm0-1.041a6.98 6.98 0 002.012-.292 8.2 8.2 0 001.476-.634 5.18 5.18 0 001.09-.782l.045-13.052a5.555 5.555 0 00-1.08-.76 8.591 8.591 0 00-1.416-.626 7.045 7.045 0 00-2.105-.328c-.735.003-1.393.1-1.953.292-.59.2-1.097.423-1.51.659-.416.226-.78.482-1.09.765l-.045 13.052c.31.294.671.556 1.079.776a8.18 8.18 0 001.484.638 7 7 0 002.014.292zm-5.576-13.879a8.555 8.555 0 00-1.459 2.374c-.413.996-.624 2.097-.624 3.267 0 1.172.21 2.271.624 3.27.364.874.84 1.655 1.42 2.328l.039-11.239zm11.238.103l-.04 11.128a8.594 8.594 0 001.412-2.319c.413-.996.624-2.097.624-3.267 0-1.172-.211-2.271-.624-3.267a8.555 8.555 0 00-1.372-2.275zm8.635 14.345l-3.51-.004v-1.041h.901V43.742h-1.423v-1.044h6.497v1.042l-1.423.002v15.527l.9.002v1.041H58.36zm-1.566-16.568V59.27h1.566V43.744h-1.566zm6.356 16.568v-1.041h.9V43.745h-1.423v-1.04l6.497-.003v1.042l-1.423.002V59.27h3.156l1.66-4.733h1.824v5.774H63.15zm1.946-16.568V59.27h1.566V43.744h-1.567zm8.164 11.834l-1.296 3.693h1.335V55.58h-.04v-.002zm22.186 4.732H84.254v-1.04h.902V43.746h-1.423v-1.042l6.496-.002v1.042l-1.422.002v15.523h3.156l1.659-4.733h1.824v5.774zm-2.379-1.041h1.336v-3.691h-.042l-1.294 3.69zm-6.868 0h1.566V43.744H86.2v15.525zm11.097 1.041v-1.04h.903V43.746h-1.423v-1.044h6.496v1.042l-1.422.002v15.523h.902v1.041h-5.456zm1.944-1.041h1.566V43.744H99.24v15.525zm19.208 1.515h-1.284l-9.625-15.281v13.766h2.135v1.041l-5.074.006v-1.041l1.898-.006V43.746H104.6v-1.042l5.787-.002 7.002 11.03-.012-9.986-2.107.002v-1.042l2.119-.004h2.953v1.042l-.523.002-1.391-.002.02 17.04zm-10.785-17.04l9.74 15.465-.004-3.513-7.586-11.952h-2.15zm14.531 16.566v-1.04h.902V43.746h-1.423v-1.042l.521-.002h10.718v5.774h-1.825l-1.659-4.73h-2.681v7.287h-1.043v-7.29h-1.566V59.27h1.566v-8.234h1.043v8.234h2.919l1.66-4.733h1.824v5.774h-10.956zm8.575-1.041h1.336v-3.691h-.042l-1.294 3.69zm1.058-11.832h.039v-3.693h-1.337l1.298 3.693z" fill="#444"/><path d="M129.543 50.986h-3.319v1.04h3.319v-1.04zM28.966 38.053c4.668-.117 9.336-.169 14.004-.254l14.005-.145c9.337-.085 18.671-.077 28.008-.121 9.337.042 18.671.036 28.008.119l14.004.145c4.669.087 9.337.137 14.005.256-4.668.117-9.336.168-14.005.256l-14.004.144c-9.337.084-18.671.08-28.008.12-9.337-.044-18.671-.036-28.008-.122l-14.005-.144c-4.668-.086-9.336-.137-14.004-.254zm0 26.907c4.668-.117 9.336-.169 14.004-.254l14.005-.145c9.337-.085 18.671-.077 28.008-.12 9.337.04 18.671.035 28.008.118l14.004.145c4.669.087 9.337.137 14.005.256-4.668.117-9.336.168-14.005.256l-14.004.144c-9.337.084-18.671.08-28.008.12-9.337-.044-18.671-.036-28.008-.121l-14.005-.145c-4.668-.086-9.336-.137-14.004-.254z" fill="#444"/><path d="M169 53.509v-4.7l-5.05-.965a18.928 18.928 0 00-.906-3.144l3.79-3.271-2.353-4.069-4.859 1.684a19.37 19.37 0 00-2.359-2.265l1.643-4.729-4.076-2.348-3.358 3.878a18.81 18.81 0 00-3.184-.78l-.944-4.913h-4.706l-.968 5.04c-1.077.21-2.132.514-3.15.905l-3.279-3.781-4.076 2.349.936 2.691h-11.65l-4.37-7.555-4.573 2.638a34.762 34.762 0 00-5.881-5.873l2.638-4.564-8.45-4.874-2.644 4.564a33.245 33.245 0 00-2.947-1.008C93.046 8.634 85.454.732 85.104.373L84.74 0l-.374.365c-.348.34-7.852 7.811-9.104 17.787a33.423 33.423 0 00-3.923 1.277l-2.645-4.564-8.45 4.871 2.637 4.565A34.8 34.8 0 0057 30.174l-4.574-2.638-4.37 7.555H36.174l1.057-3.039-4.076-2.348-3.359 3.878a18.842 18.842 0 00-3.183-.78l-.944-4.913h-4.707l-.967 5.04c-1.077.21-2.133.514-3.15.905l-3.277-3.783L9.492 32.4l1.687 4.85a19.27 19.27 0 00-2.27 2.354l-4.738-1.64-2.353 4.068 3.886 3.352a18.699 18.699 0 00-.781 3.178L0 49.504V54.2l5.05.966a18.77 18.77 0 00.906 3.142l-3.79 3.27 2.353 4.07 4.86-1.685a19.283 19.283 0 002.358 2.265l-1.643 4.731 4.076 2.349 3.358-3.878c1.026.349 2.095.61 3.184.78l.944 4.913h4.706l.968-5.04a18.884 18.884 0 003.15-.905l3.277 3.782 4.076-2.348-.936-2.692h11.159l4.37 7.554L57 72.837a34.873 34.873 0 005.88 5.873l-2.637 4.56 8.45 4.882 2.646-4.567a34.572 34.572 0 008.033 2.14V91h9.766v-5.274a34.416 34.416 0 008.034-2.14l2.643 4.566 8.451-4.882-2.638-4.558a34.765 34.765 0 005.881-5.874l4.573 2.639 4.37-7.554h12.373l-1.057 3.039 4.076 2.349 3.359-3.878c1.025.349 2.094.61 3.183.78l.944 4.913h4.708l.968-5.04a18.883 18.883 0 003.15-.905l3.277 3.782 4.076-2.348-1.687-4.85a19.296 19.296 0 002.27-2.354l4.738 1.64 2.353-4.068-3.886-3.352c.35-1.024.612-2.091.781-3.178l4.923-.944zM94.325 19.546c.97.3 1.932.627 2.868 1.018l.424.176 2.579-4.455 2.896 1.67-4.263 8.355 5.117-7.86 2.894 1.667-2.572 4.453.364.278a33.768 33.768 0 016.328 6.32l.278.363 4.461-2.573 1.692 2.924-3.117 2.325 3.576-1.53 1.397 2.414h-13.341a27.33 27.33 0 00-12.853-9.289 9.553 9.553 0 001.342-4.877c-.002-.465-.038-.92-.07-1.379zM84.313 31.755L80.97 35.09H63.95a26.272 26.272 0 0112.885-8.622 9.659 9.659 0 007.894 4.1c3.155 0 5.954-1.524 7.718-3.866a26.284 26.284 0 0112.111 8.388H87.654l-3.34-3.336zm1.868 3.336h-3.736l1.868-1.864 1.868 1.864zM84.723 1.496c1.687 1.878 8.629 10.165 8.629 19.429 0 4.744-3.868 8.604-8.621 8.604-4.754 0-8.622-3.86-8.622-8.604 0-9.605 6.914-17.608 8.614-19.43zM50.66 32.673l3.394 1.43-2.938-2.22 1.692-2.925 4.461 2.573.279-.363a33.755 33.755 0 016.327-6.32l.364-.278-2.572-4.453 2.894-1.67 5.117 7.861-4.263-8.355 2.896-1.67 2.58 4.453.423-.176c1.246-.52 2.53-.944 3.832-1.307a21.82 21.82 0 00-.08 1.67c0 1.678.433 3.255 1.19 4.631a27.318 27.318 0 00-13.65 9.535H49.26l1.4-2.416zM33.984 71.63l-3.2-3.693-.346.14a17.866 17.866 0 01-3.639 1.048l-.353.062-.94 4.897h-2.983l-.922-4.8-.372-.05a17.909 17.909 0 01-3.68-.9l-.339-.123-3.263 3.767-2.583-1.49 1.605-4.618-.294-.228a18.042 18.042 0 01-2.73-2.618l-.23-.274-4.723 1.636L3.5 61.808l3.7-3.194-.141-.345a17.859 17.859 0 01-1.05-3.632l-.06-.353-4.908-.938v-2.977l4.81-.92.05-.372a17.89 17.89 0 01.902-3.673l.123-.337-3.774-3.257 1.492-2.58 4.627 1.604.229-.294c.777-1 1.66-1.916 2.623-2.725l.274-.23-1.64-4.71 2.584-1.49 3.2 3.694.346-.14a17.909 17.909 0 013.638-1.048l.354-.061.94-4.898h2.983l.922 4.8.372.05c1.266.173 2.504.474 3.68.9l.338.124 3.263-3.767 2.584 1.487-.892 2.567H25.044l-.001.008-.972.024-1.38.083c-.459.05-.914.13-1.369.193l-1.345.307a16.203 16.203 0 00-4.947 2.327c-2.997 2.079-5.234 5.169-6.25 8.609a15.89 15.89 0 016.539-8.175 15.591 15.591 0 014.849-2.003l1.291-.23c.436-.038.869-.093 1.304-.12l1.31-.015.671.016-.433 1.46c-.216-.012-.43-.044-.65-.044-7.72 0-14 6.268-14 13.974s6.28 13.974 14 13.974c.22 0 .432-.031.65-.043l.433 1.46-.671.016-1.31-.016c-.435-.028-.868-.082-1.304-.12l-1.291-.23a15.594 15.594 0 01-4.85-2.003 15.909 15.909 0 01-6.538-8.174c1.016 3.44 3.253 6.53 6.25 8.609a16.203 16.203 0 004.947 2.326l1.345.308c.455.063.91.143 1.37.192l1.379.084.972.023.002.01H35.79l.773 2.222-2.58 1.486zM24.01 38.593l-.646 2.178c-5.707.341-10.125 4.985-10.125 10.735 0 5.75 4.418 10.396 10.125 10.735l.646 2.178c-.117.004-.23.02-.348.02-7.144 0-12.957-5.802-12.957-12.933 0-7.13 5.813-12.933 12.957-12.933.118 0 .23.018.348.02zm93.837 31.75l-3.301-1.38 2.846 2.165-1.694 2.927-4.461-2.572-.278.363a33.774 33.774 0 01-6.328 6.32l-.364.277 2.574 4.447-2.902 1.676-4.11-6.133 3.268 6.621-2.902 1.676-2.58-4.455-.423.177a33.473 33.473 0 01-8.645 2.303l-.455.057v5.148h-3.347l-.494-9.357-.495 9.357H80.41v-5.15l-.455-.057a33.45 33.45 0 01-8.645-2.303l-.423-.177-2.58 4.453-2.9-1.676 3.292-6.663-4.136 6.175-2.902-1.676 2.574-4.447-.364-.278a33.877 33.877 0 01-6.327-6.32l-.279-.362-4.461 2.572-1.693-2.925 2.847-2.166-3.302 1.378-1.4-2.418H62.58c4.978 6.532 12.832 10.765 21.67 10.765 8.837 0 16.691-4.233 21.67-10.765h13.321l-1.393 2.42zm-33.535.916l3.343-3.337h16.922c-4.803 5.917-12.117 9.724-20.324 9.724-8.208 0-15.522-3.807-20.325-9.724h17.04l3.344 3.337zm-1.868-3.337h3.736l-1.868 1.865-1.868-1.865zM25.828 66.88l-1.676-5.653-.38-.01c-5.321-.137-9.489-4.402-9.489-9.712 0-5.308 4.17-9.574 9.49-9.711l.38-.01 1.675-5.653h117.259l.88 2.519 1.091 3.13h.372c5.372 0 9.744 4.362 9.744 9.725 0 5.362-4.37 9.726-9.744 9.726h-.372l-1.091 3.13-.88 2.519H25.827zm119.224-28.29c.096-.002.187-.016.285-.016 7.144 0 12.957 5.802 12.957 12.933s-5.813 12.933-12.957 12.933c-.098 0-.187-.014-.285-.016l.754-2.158c5.775-.196 10.413-4.947 10.413-10.759s-4.638-10.562-10.413-10.759l-.754-2.158zm20.794 22.617l-1.492 2.578-4.627-1.602-.229.293c-.777 1-1.661 1.916-2.623 2.726l-.274.23 1.639 4.709-2.583 1.487-3.2-3.693-.345.14a17.881 17.881 0 01-3.639 1.048l-.354.062-.94 4.897h-2.983l-.922-4.8-.372-.05a17.901 17.901 0 01-3.68-.9l-.338-.123-3.264 3.767-2.583-1.49.892-2.567h9.905l.004-.008.99-.023 1.379-.084c.459-.05.914-.129 1.369-.192l1.346-.308a16.189 16.189 0 004.946-2.326c2.997-2.08 5.235-5.17 6.251-8.61a15.893 15.893 0 01-6.539 8.175 15.59 15.59 0 01-4.849 2.004l-1.292.23c-.435.037-.868.093-1.303.119l-1.31.016-.636-.016.509-1.462c.212.012.419.044.636.044 7.72 0 14.001-6.269 14.001-13.975 0-7.706-6.281-13.974-14.001-13.974-.219 0-.424.032-.636.044l-.509-1.462.636-.016 1.31.016c.435.028.868.081 1.303.119l1.292.23a15.59 15.59 0 014.849 2.003 15.913 15.913 0 016.539 8.175c-1.016-3.44-3.254-6.53-6.251-8.61a16.189 16.189 0 00-4.946-2.326l-1.346-.307c-.455-.064-.91-.143-1.369-.193l-1.379-.083-.99-.024-.004-.008h-10.628l-.773-2.221 2.583-1.49 3.2 3.693.346-.14a17.893 17.893 0 013.639-1.048l.353-.061.94-4.898h2.983l.923 4.8.371.05a17.92 17.92 0 013.681.9l.338.124 3.263-3.767 2.583 1.488-1.605 4.617.294.228a18.075 18.075 0 012.73 2.619l.231.273 4.72-1.636 1.49 2.579-3.7 3.193.141.345a17.82 17.82 0 011.049 3.632l.062.353 4.907.938v2.978l-4.81.92-.049.371a17.786 17.786 0 01-.903 3.674l-.123.337 3.776 3.269z" fill="#444"/><path d="M81.442 24.735a5.388 5.388 0 003.889.797 5.31 5.31 0 003.326-2.027c.78-1.051 1.179-2.358 1.08-3.616-.11 1.254-.593 2.45-1.423 3.33a4.96 4.96 0 01-3.089 1.61c-1.16.13-2.363-.136-3.303-.812a4.986 4.986 0 01-1.967-2.753c-.171-.56-.215-1.117-.197-1.728.01-.609.066-1.216.147-1.82.157-1.215.473-2.409.855-3.583.395-1.17.874-2.319 1.429-3.438a28.084 28.084 0 011.858-3.263 22.318 22.318 0 00-3.949 6.459 18.036 18.036 0 00-1.04 3.695c-.113.635-.164 1.28-.188 1.926-.03.641.016 1.353.209 2a5.814 5.814 0 002.363 3.223z" fill="#444"/></svg>