<svg width="30" height="30" fill="none" xmlns="http://www.w3.org/2000/svg"><path fill-rule="evenodd" clip-rule="evenodd" d="M15 30c8.284 0 15-6.716 15-15 0-8.284-6.716-15-15-15C6.716 0 0 6.716 0 15c0 8.284 6.716 15 15 15zm-2.547-16.3v1.214c0 .126.002.253.004.382.007.39.014.79-.039 1.17v.068c-.035.337-.455.506-.7.303-.013-.012-.027-.02-.038-.027-.018-.011-.032-.02-.032-.04a86.36 86.36 0 00-.243-.311c-.45-.573-.906-1.153-1.261-1.781-.49-.911-.91-1.856-1.295-2.834-.21-.54-.525-.844-1.155-.81-.7 0-1.4 0-2.1.034-.454.033-.664.303-.594.742.027.13.075.261.112.36l.028.079c.665 2.598 2.064 4.858 3.849 6.883 1.54 1.788 3.499 2.902 6.053 2.767.875-.034 1.085-.236 1.12-1.114 0-.167-.004-.338-.008-.51-.007-.35-.015-.703.008-1.042.035-.472.245-.607.7-.439l.12.058c.248.117.51.241.72.415.524.405 1.014.843 1.47 1.316.72.76 1.003 1.108 1.368 1.264.38.163.848.12 1.99.12.078 0 .16.003.242.007.407.02.856.041 1.088-.379.28-.54-.07-1.012-.385-1.383a54.826 54.826 0 00-2.344-2.599c-.665-.674-.665-.742-.14-1.518.735-1.08 1.434-2.16 2.134-3.273.175-.27.315-.607.42-.945.175-.54-.035-.81-.595-.843C22.25 11 21.586 11 20.886 11c-.56 0-.875.304-1.085.742-.525.979-1.05 1.957-1.644 2.868-.35.54-.84 1.013-1.33 1.451-.315.304-.525.203-.63-.236-.035-.169-.035-.303-.035-.472V11.81c0-.607-.14-.776-.77-.776a44.796 44.796 0 00-3.009 0c-.245 0-.56.168-.665.37-.07.17.035.507.175.676.42.472.56 1.012.56 1.62z" fill="#444"/></svg>