<svg width="30" height="30" fill="none" xmlns="http://www.w3.org/2000/svg"><path fill-rule="evenodd" clip-rule="evenodd" d="M30 15c0 8.284-6.716 15-15 15-8.284 0-15-6.716-15-15C0 6.716 6.716 0 15 0c8.284 0 15 6.716 15 15zm-11.919 8h-6.134C9.21 23 7 20.79 7 18.081v-6.134A4.941 4.941 0 0111.947 7h6.134a4.941 4.941 0 014.947 4.947v6.134C23 20.79 20.789 23 18.08 23zm-6.052-7.986a2.972 2.972 0 012.985-2.985c1.63 0 2.984 1.354 2.984 2.985a2.99 2.99 0 01-2.984 2.984 2.972 2.972 0 01-2.985-2.984z" fill="#444"/><path d="M19.684 10.648a.608.608 0 11-1.216 0 .608.608 0 011.216 0z" fill="#444"/></svg>