<svg width="24" height="32" fill="none" xmlns="http://www.w3.org/2000/svg"><path d="M12 6.226s-7.828 5.391-7.828 13.623c0 4.26 3.501 7.72 7.828 7.72s7.828-3.453 7.828-7.72m-9.161-4.808v8.319m2.666-8.319v8.319M12 31c6.074 0 11-4.858 11-10.848C23 8.582 12 1 12 1S1 8.583 1 20.152C1 26.142 5.926 31 12 31zm4.422-11.8c0 2.409-1.98 4.361-4.422 4.361-2.442 0-4.422-1.952-4.422-4.36 0-2.41 1.98-4.362 4.422-4.362 2.442 0 4.422 1.953 4.422 4.361z" stroke="#E7B160" stroke-width="1.5" stroke-miterlimit="10"/></svg>