<svg width="18" height="22" fill="none" xmlns="http://www.w3.org/2000/svg"><path fill-rule="evenodd" clip-rule="evenodd" d="M.5 8.4C.5 3.724 4.224 0 8.9 0s8.4 3.724 8.4 8.4c0 4.273-2.061 7.442-4.092 9.524a18.315 18.315 0 01-2.793 2.337 15.547 15.547 0 01-1.188.732l-.073.038-.02.01-.005.004h-.002s-.001.001-.227-.445l-.226.446-.003-.001-.005-.003-.02-.01a10.127 10.127 0 01-.336-.187 15.473 15.473 0 01-.925-.585 18.322 18.322 0 01-2.793-2.336C2.562 15.842.5 12.674.5 8.4zm8.4 12.2l-.226.446.226.114.226-.114L8.9 20.6zm0-.57l.088-.05c.207-.12.506-.303.865-.547a17.37 17.37 0 002.64-2.207c1.918-1.968 3.807-4.9 3.807-8.826 0-4.124-3.276-7.4-7.4-7.4a7.353 7.353 0 00-7.4 7.4c0 3.927 1.889 6.858 3.808 8.826a17.322 17.322 0 002.639 2.207 14.633 14.633 0 00.953.598zM7.2 3.6h3.4v1.458c.457.203.898.5 1.254.864l1.356-.452 1.129 3.244-1.395.465c-.098.525-.244.997-.39 1.44l.842 1.204-2.819 1.973-.823-1.176a11.6 11.6 0 00-.183.025l-.018.002A4.05 4.05 0 019 12.7h-.038c-.247 0-.495 0-.746-.037l-.793 1.133-2.82-1.973.799-1.14a3.717 3.717 0 01-.485-1.517L3.58 8.72l.98-3.22 1.367.341c.36-.371.807-.676 1.273-.883V3.6zm1 1v1.06l-.342.114a3.054 3.054 0 00-1.368.938l-.2.25L5.24 6.7l-.42 1.38 1.08.36v.36c0 .59.165 1.095.516 1.623l.19.284-.61.87 1.181.827.627-.896.354.118c.21.07.424.074.842.074.107 0 .244-.018.43-.045l.017-.002A4.05 4.05 0 0110 11.6h.26l.563.804 1.18-.827-.557-.796.08-.24c.2-.603.386-1.162.479-1.812l.044-.306 1.012-.337-.471-1.356-1.063.355-.217-.273a3.055 3.055 0 00-1.368-.938L9.6 5.76V4.6H8.2z" fill="#E7B160"/></svg>