<svg width="18" height="16" fill="none" xmlns="http://www.w3.org/2000/svg"><path d="M15.15 1.033C13.418.367 11.233 0 9 0 6.767 0 4.583.367 2.85 1.033 1.011 1.74 0 2.663 0 3.634v3.023c0 .338.284.611.634.611h3.464c-.086.27-.237.474-.453.607a1.343 1.343 0 01-.6.187c-1.057.003-1.989.795-2.123 1.806L.37 14.039c-.067.508.088 1.01.425 1.38.337.37.835.581 1.366.581h13.68a1.85 1.85 0 001.366-.58 1.71 1.71 0 00.425-1.38l-.553-4.172c-.135-1.013-1.07-1.806-2.129-1.806-.003 0-.285-.01-.56-.167a1.052 1.052 0 01-.49-.627h3.467c.35 0 .634-.273.634-.61V3.633c0-.97-1.012-1.894-2.85-2.6zm-1.407 7.913a2.625 2.625 0 001.206.338c.412 0 .819.345.871.738l.553 4.172a.507.507 0 01-.119.418.55.55 0 01-.414.166H2.16a.55.55 0 01-.414-.166.507.507 0 01-.12-.418l.554-4.172c.052-.393.46-.738.87-.738.064 0 .633-.01 1.207-.338.453-.258.98-.753 1.142-1.678h.464c.35 0 .634-.273.634-.61v-2.56c.209.003.487.027.807.054.475.041 1.067.092 1.696.092.63 0 1.22-.05 1.696-.092.32-.027.598-.051.808-.054v2.558c0 .338.283.611.633.611h.464c.163.926.688 1.42 1.142 1.678zm-.972-4.8c0-.964-.358-1.268-1.234-1.268-.27 0-.587.027-.954.058-.473.041-1.01.087-1.583.087s-1.11-.046-1.583-.087a11.872 11.872 0 00-.954-.058c-.876 0-1.234.304-1.234 1.267v1.902H1.268V3.634c0-.272.546-.888 2.051-1.466C4.884 1.567 6.955 1.222 9 1.222s4.116.345 5.68.946c1.506.578 2.052 1.194 2.052 1.466v2.413h-3.96V4.145z" fill="#E7B160"/><path d="M9 7.054c-2.08 0-3.771 1.63-3.771 3.634S6.92 14.322 9 14.322s3.771-1.63 3.771-3.634c0-2.003-1.692-3.634-3.771-3.634zm0 6.047c-1.38 0-2.504-1.082-2.504-2.413 0-1.33 1.123-2.412 2.504-2.412 1.38 0 2.504 1.082 2.504 2.412 0 1.33-1.124 2.413-2.504 2.413z" fill="#E7B160"/></svg>