<svg width="18" height="17" fill="none" xmlns="http://www.w3.org/2000/svg"><path d="M9.557 1.34l1.972 3.94a.663.663 0 00.472.335l4.459.629c.514.084.728.712.343 1.048l-3.216 3.1a.611.611 0 00-.171.546l.771 4.316c.086.503-.471.88-.9.67L9.3 13.872c-.171-.084-.386-.084-.6 0l-3.987 2.054c-.472.251-1.029-.168-.9-.67l.771-4.317a.61.61 0 00-.171-.545l-3.216-3.06c-.385-.377-.171-.963.343-1.047L6 5.657a.663.663 0 00.472-.335l1.972-3.94C8.657.88 9.3.88 9.557 1.342z" stroke="#444" stroke-miterlimit="10"/></svg>