<svg width="169" height="92" fill="none" xmlns="http://www.w3.org/2000/svg"><path d="M23.616 53.804a2.28 2.28 0 01-2.297-2.297 2.28 2.28 0 012.297-2.298 2.28 2.28 0 012.298 2.298c0 1.282-1.069 2.297-2.298 2.297zm0-3.526c-.694 0-1.229.588-1.229 1.229 0 .641.588 1.229 1.23 1.229.64 0 1.228-.588 1.228-1.23 0-.64-.534-1.228-1.229-1.228z" fill="#1B1B1B"/><path d="M24.538 49.88l-2.493 2.494.755.755 2.494-2.493-.756-.756zm53.844 3.924a2.28 2.28 0 01-2.297-2.297 2.28 2.28 0 012.297-2.298 2.28 2.28 0 012.298 2.298c0 1.282-1.069 2.297-2.298 2.297zm0-3.526c-.694 0-1.229.588-1.229 1.229 0 .641.588 1.229 1.23 1.229.64 0 1.228-.588 1.228-1.23 0-.64-.534-1.228-1.229-1.228z" fill="#1B1B1B"/><path d="M79.304 49.88l-2.494 2.494.756.756 2.493-2.494-.755-.755zm67.362 3.924a2.281 2.281 0 01-2.298-2.297 2.281 2.281 0 012.298-2.298 2.28 2.28 0 012.297 2.298 2.28 2.28 0 01-2.297 2.297zm0-3.526c-.695 0-1.229.588-1.229 1.229 0 .641.588 1.229 1.229 1.229.695 0 1.229-.588 1.229-1.23 0-.64-.534-1.228-1.229-1.228z" fill="#1B1B1B"/><path d="M147.592 49.892l-2.493 2.494.755.756 2.494-2.494-.756-.756zM44.026 60.804c-.855 0-1.656-.107-2.297-.32-.32-.108-.695-.215-1.015-.375a8.521 8.521 0 01-2.779-1.977c-.801-.801-1.442-1.816-1.87-2.938-.48-1.123-.694-2.351-.694-3.687 0-1.336.213-2.565.694-3.687a11.031 11.031 0 011.87-2.939c.802-.801 1.71-1.496 2.779-1.977 1.068-.48 2.19-.748 3.366-.748h.053c.855 0 1.657.107 2.298.375.053 0 .053 0 .107.053.32.107.587.214.908.32a8.521 8.521 0 012.778 1.977c.802.802 1.443 1.817 1.87 2.94.481 1.121.695 2.35.695 3.686 0 1.336-.214 2.564-.695 3.687a11.034 11.034 0 01-1.87 2.938c-.801.802-1.71 1.496-2.778 1.977-.32.16-.695.267-1.015.374a9 9 0 01-2.405.32zm0-1.016c.695 0 1.336-.106 2.03-.267a13.934 13.934 0 001.497-.64c.427-.215.801-.482 1.068-.802l.054-13.09a7.631 7.631 0 00-1.069-.749 9.505 9.505 0 00-1.442-.64 7.054 7.054 0 00-2.084-.322 7.37 7.37 0 00-1.977.268c-.588.213-1.122.427-1.496.64a4.219 4.219 0 00-1.069.749l-.053 13.09c.32.32.694.535 1.068.802.428.214.909.427 1.497.64.587.215 1.282.322 1.976.322zm-5.61-13.945a8.99 8.99 0 00-1.442 2.404 8.248 8.248 0 00-.642 3.26c0 1.175.214 2.297.642 3.259a9.584 9.584 0 001.442 2.351V45.843zm11.274.107l-.053 11.167c.587-.695 1.068-1.443 1.389-2.351a8.25 8.25 0 00.64-3.26c0-1.175-.213-2.297-.64-3.258a8.11 8.11 0 00-1.336-2.298zm5.13 14.373v-1.069h.908V43.706h-1.443v-1.069h6.519v1.069H59.36v15.548h.908v1.069h-5.45zm1.923-16.617v15.548h1.55V43.706h-1.55zm14.8 16.617H63.1v-1.069h.908V43.706h-1.442v-1.069h6.518v1.069h-1.442v15.548h3.152L72.45 54.5h1.817v5.77l-2.725.054zm-6.519-16.617v15.548h1.55V43.706h-1.55zM73.2 55.567l-1.282 3.687h1.336l-.054-3.686zm22.226 4.756h-11.22v-1.069h.908V43.706h-1.443v-1.069h6.519v1.069h-1.443v15.548H91.9l1.656-4.755h1.817v5.824h.053zm-2.404-1.015h1.335V55.62h-.053l-1.282 3.687zm-6.84 0h1.55V43.706h-1.55v15.602zm16.564 1.015h-5.503v-1.069h.908V43.706H96.71v-1.069h6.518v1.069h-1.442v15.548h.908v1.069h.053zm-3.526-1.015h1.549V43.706H99.22v15.602zm19.235 1.496h-1.282l-9.618-15.335v13.785h2.137v1.069h-5.076v-1.069h1.924V43.706h-1.924v-1.069h5.771l6.999 11.06v-9.991h-2.084v-1.069h5.13v1.069h-1.924l-.053 17.098zm-10.793-17.098l9.724 15.495v-3.527l-7.587-11.968h-2.137zm14.533 16.617v-1.069h.908V43.706h-1.442v-1.069h11.273v5.824h-1.816l-1.657-4.755h-2.671v7.32h-1.069v-7.32h-1.549v15.548h1.549v-8.228h1.069v8.228h2.939l1.656-4.755h1.817v5.824h-11.007zm8.549-1.015h1.336V55.62h-.054l-1.282 3.687zm1.068-11.862l.054-3.687h-1.336l1.282 3.687z" fill="#1B1B1B"/><path d="M129.515 50.972h-3.313v1.07h3.313v-1.07z" fill="#1B1B1B"/><path d="M28.906 38.042c4.648-.107 9.35-.16 13.999-.267l13.999-.16c9.35-.107 18.7-.053 27.997-.107 9.35.053 18.701.053 27.998.107l13.998.16c4.649.107 9.351.16 13.999.267-4.648.107-9.35.16-13.999.267l-13.998.16c-9.351.108-18.701.054-27.998.108-9.35-.054-18.7-.054-27.997-.107l-14-.16c-4.648-.107-9.35-.16-13.998-.268zm0 26.929c4.648-.107 9.35-.16 13.999-.267l13.998-.16c9.35-.107 18.701-.054 27.998-.107 9.35.053 18.7.053 27.997.107l13.999.16c4.648.107 9.35.16 13.999.267-4.649.107-9.351.16-13.999.267l-13.999.16c-9.35.108-18.7.054-27.997.108-9.35-.054-18.7-.054-27.998-.107l-13.998-.16c-4.649-.054-9.35-.108-13.999-.268z" fill="#CC9F4B"/><path d="M169 53.537v-4.702l-5.076-.962a21.318 21.318 0 00-.908-3.152l3.793-3.26-2.351-4.06-4.862 1.71c-.694-.801-1.496-1.603-2.351-2.244l1.657-4.755-4.061-2.351-3.366 3.9c-1.015-.374-2.084-.588-3.206-.801l-.962-4.916h-4.648l-.962 5.076a21.291 21.291 0 00-3.152.908l-3.26-3.793-4.06 2.35.962 2.726h-11.648l-4.382-7.587-4.595 2.617a33.951 33.951 0 00-5.877-5.877l2.618-4.595-8.442-4.862-2.618 4.595c-.962-.374-1.977-.694-2.938-1.015C93.129 8.656 85.541.748 85.168.374L84.794 0l-.374.374c-.374.32-7.854 7.854-9.083 17.846-1.336.374-2.672.748-3.9 1.282l-2.672-4.595-8.442 4.862 2.618 4.595a33.992 33.992 0 00-5.878 5.877l-4.595-2.617-4.38 7.587h-11.97l1.07-3.046-4.061-2.35-3.366 3.9c-1.015-.375-2.084-.588-3.206-.802l-.962-4.915h-4.702l-.961 5.075a21.295 21.295 0 00-3.153.909l-3.26-3.794-4.06 2.351 1.71 4.862c-.801.695-1.603 1.496-2.244 2.351l-4.755-1.656-2.351 4.06 3.9 3.367c-.374 1.015-.588 2.083-.801 3.205L0 49.69v4.702l5.076.962c.214 1.068.534 2.137.908 3.152l-3.793 3.26 2.35 4.06 4.863-1.71c.694.802 1.496 1.603 2.35 2.244l-1.656 4.756 4.061 2.35 3.366-3.9c1.015.374 2.084.588 3.206.802l.962 4.915h4.702l.961-5.076a21.283 21.283 0 003.153-.908l3.259 3.794 4.06-2.351-.961-2.725h11.167l4.381 7.587 4.595-2.618a33.995 33.995 0 005.877 5.877l-2.618 4.595 8.442 4.916 2.672-4.595c2.565 1.015 5.29 1.763 8.014 2.137v5.29h9.778v-5.29c2.779-.374 5.45-1.122 8.015-2.137l2.618 4.595 8.442-4.916-2.618-4.595a34.022 34.022 0 005.877-5.877l4.595 2.618 4.381-7.587h12.396l-1.068 3.045 4.06 2.351 3.366-3.9c1.016.374 2.084.587 3.206.801l.962 4.916h4.702l.962-5.076a21.304 21.304 0 003.152-.908l3.259 3.793 4.061-2.35-1.71-4.863c.802-.694 1.603-1.496 2.244-2.35l4.755 1.656 2.351-4.061-3.9-3.366c.374-1.015.588-2.084.801-3.206l4.916-.962zM94.305 19.45c.961.32 1.923.64 2.885 1.015l.427.16 2.565-4.488 2.885 1.656-4.274 8.389 5.129-7.854 2.885 1.656-2.564 4.488.374.267c2.404 1.817 4.488 3.954 6.304 6.358l.267.374 4.489-2.564 1.709 2.939-3.099 2.35 3.58-1.55 1.389 2.405h-13.357c-3.259-4.274-7.694-7.533-12.877-9.297a9.54 9.54 0 001.336-4.915c0-.481-.053-.909-.053-1.39zM84.26 31.684l-3.367 3.366H63.85c3.313-4.06 7.748-7.106 12.877-8.655 1.763 2.457 4.648 4.114 7.908 4.114 3.152 0 5.93-1.55 7.747-3.9 4.809 1.602 8.976 4.54 12.129 8.388H87.626l-3.366-3.313zm1.87 3.366h-3.74l1.87-1.87 1.87 1.87zM84.687 1.39c1.71 1.87 8.656 10.204 8.656 19.501a8.597 8.597 0 01-8.603 8.603 8.597 8.597 0 01-8.602-8.603c-.053-9.67 6.84-17.685 8.549-19.502zM50.599 32.645l3.419 1.443-2.939-2.244 1.71-2.94 4.488 2.565.267-.374c1.817-2.404 3.954-4.488 6.305-6.358l.374-.267-2.564-4.488 2.885-1.656 5.13 7.854-4.275-8.389 2.885-1.656 2.565 4.488.427-.16c1.229-.534 2.511-.962 3.847-1.336-.053.534-.053 1.122-.053 1.656 0 1.657.427 3.26 1.175 4.649a27.401 27.401 0 00-13.678 9.564H49.209l1.39-2.351zm-16.67 39.057l-3.207-3.686-.32.16a17.67 17.67 0 01-3.633 1.069l-.374.053-.962 4.916H22.44l-.909-4.81-.374-.052a16.92 16.92 0 01-3.686-.909l-.32-.107-3.26 3.794-2.565-1.496 1.603-4.649-.32-.213c-1.016-.802-1.924-1.657-2.725-2.618l-.214-.268-4.702 1.657-1.496-2.565 3.687-3.206-.16-.32a17.666 17.666 0 01-1.07-3.634l-.053-.373-4.915-.962v-2.992l4.808-.909.054-.374c.16-1.282.48-2.51.908-3.686l.107-.321-3.793-3.26 1.496-2.564 4.648 1.603.214-.32a18.06 18.06 0 012.618-2.726l.267-.213-1.603-4.916 2.565-1.496 3.205 3.687.321-.16a17.678 17.678 0 013.633-1.07l.374-.053.962-4.915h2.992l.909 4.809.374.053c1.282.16 2.51.481 3.686.908l.32.107 3.26-3.793 2.565 1.496-.909 2.564h-10.9l-1.389.107c-.48.054-.908.107-1.389.214l-1.335.32a15.723 15.723 0 00-4.97 2.351c-2.992 2.084-5.236 5.183-6.25 8.656a15.717 15.717 0 016.518-8.175c1.496-.961 3.152-1.602 4.862-2.03l1.282-.214c.428-.053.855-.107 1.282-.107h2.03l-.427 1.443c-.213 0-.427-.053-.64-.053-7.748 0-14 6.304-14 13.998 0 7.694 6.305 14 14 14 .213 0 .427-.054.64-.054l.428 1.442h-2.03c-.428-.053-.855-.107-1.283-.107l-1.282-.213a14.932 14.932 0 01-4.862-2.03c-2.992-1.87-5.343-4.81-6.519-8.175 1.015 3.472 3.26 6.571 6.252 8.655 1.495 1.069 3.152 1.817 4.969 2.351l1.335.32c.481.054.909.161 1.39.215l1.389.106h11.7l.749 2.244-2.565 1.496zm-9.992-33.126l-.641 2.19a10.734 10.734 0 00-10.152 10.74 10.7 10.7 0 0010.152 10.74l.64 2.19h-.373c-7.16 0-12.984-5.824-12.984-12.984S16.403 38.47 23.563 38.47c.16.053.267.107.374.107zm93.877 31.79l-3.313-1.389 2.832 2.191-1.71 2.939-4.488-2.565-.267.374c-1.817 2.404-3.954 4.488-6.305 6.358l-.374.267 2.565 4.435-2.886 1.657-4.114-6.145 3.26 6.625-2.886 1.657-2.564-4.488-.428.16c-2.778 1.175-5.663 1.923-8.655 2.297l-.481.054v5.183h-3.366l-.481-9.404-.481 9.404h-3.366v-5.183l-.481-.054c-2.992-.374-5.877-1.175-8.656-2.297l-.427-.16-2.565 4.488-2.885-1.657 3.313-6.678-4.115 6.198-2.885-1.657 2.565-4.434-.374-.268c-2.405-1.816-4.488-3.954-6.305-6.358l-.267-.374-4.488 2.565-1.71-2.939 2.832-2.19-3.313 1.389-1.39-2.405h13.358c4.97 6.572 12.824 10.793 21.693 10.793 8.87 0 16.724-4.22 21.693-10.793h13.304l-1.389 2.405zm-33.554.962l3.366-3.366h16.937c-4.809 5.931-12.129 9.725-20.357 9.725s-15.548-3.794-20.357-9.725h17.045l3.366 3.366zm-1.87-3.366h3.74l-1.87 1.87-1.87-1.87zm38.309-1.068H25.753l-1.656-5.664h-.374c-5.343-.16-9.51-4.435-9.51-9.724 0-5.343 4.167-9.618 9.51-9.724h.374l.908-3.153.321-1.015.427-1.496h117.333l.535 1.55.374 1.015 1.068 3.152h.374c5.397 0 9.725 4.381 9.725 9.724 0 5.397-4.382 9.724-9.725 9.724h-.374l-1.068 3.153-.374 1.015-.535 1.55h-22.387v-.107zm24.364-28.318h.267c7.16 0 12.984 5.824 12.984 12.983 0 7.16-5.824 12.984-12.984 12.984h-.267l.748-2.137c5.771-.214 10.419-4.97 10.419-10.793 0-5.824-4.648-10.58-10.419-10.793l-.748-2.244zm20.785 22.654l-1.496 2.565-4.649-1.603-.214.32c-.801 1.016-1.656 1.924-2.618 2.725l-.267.214 1.657 4.702-2.565 1.496-3.206-3.687-.321.16a17.731 17.731 0 01-3.633 1.07l-.374.053-.962 4.915h-2.992l-.908-4.808-.374-.054a16.934 16.934 0 01-3.687-.908l-.32-.107-3.259 3.793-2.565-1.496.908-2.564h10.9l1.389-.107c.481-.053.908-.107 1.389-.214l1.336-.32a15.727 15.727 0 004.969-2.351c2.992-2.084 5.236-5.183 6.251-8.656-1.175 3.42-3.526 6.305-6.518 8.175-1.496.962-3.152 1.603-4.862 2.03l-1.283.214c-.427.053-.854.107-1.282.107h-1.977l.535-1.443c.213 0 .427.053.641.053 7.747 0 13.998-6.304 13.998-13.998 0-7.694-6.411-13.999-14.159-13.999-.213 0-.427.053-.641.053l-.534-1.442h1.977c.427.053.855.107 1.282.107l1.282.214a14.933 14.933 0 014.863 2.03c2.992 1.87 5.343 4.809 6.518 8.175-1.015-3.473-3.259-6.572-6.251-8.656-1.496-1.069-3.153-1.817-4.969-2.351l-1.336-.32c-.481-.054-.908-.16-1.389-.214l-1.389-.107h-11.648l-.748-2.244 2.564-1.496 3.206 3.686.321-.16a17.652 17.652 0 013.633-1.069l.374-.053.962-4.916h2.992l.908 4.81.374.053c1.283.16 2.512.48 3.687.908l.321.107 3.259-3.794 2.564 1.496-1.602 4.649.32.214c1.015.8 1.924 1.656 2.725 2.618l.214.267 4.702-1.657 1.496 2.565-3.687 3.206.16.32a17.68 17.68 0 011.069 3.634l.053.374 4.916.961v2.992l-4.809.909-.053.374a16.87 16.87 0 01-.909 3.687l-.106.32 3.847 3.473z" fill="#CC9F4B"/><path d="M81.428 24.685c1.122.748 2.564 1.068 3.9.801 1.336-.213 2.565-.962 3.313-2.03a5.306 5.306 0 001.068-3.633c-.107 1.282-.588 2.457-1.442 3.312-.802.909-1.924 1.496-3.1 1.603-1.175.107-2.35-.16-3.312-.801-.962-.641-1.656-1.657-1.977-2.779-.16-.534-.214-1.122-.214-1.71 0-.587.054-1.228.16-1.816.161-1.229.481-2.404.856-3.58a19.293 19.293 0 011.442-3.42c.534-1.121 1.176-2.19 1.87-3.259a23.625 23.625 0 00-3.954 6.465c-.48 1.176-.801 2.458-1.015 3.687-.107.641-.16 1.283-.213 1.924-.054.64 0 1.335.213 2.03a5.745 5.745 0 002.405 3.206z" fill="#CC9F4B"/></svg>