<svg width="10" height="21" fill="none" xmlns="http://www.w3.org/2000/svg"><path d="M1.42 20.997a1.367 1.367 0 01-.908-.344 1.485 1.485 0 01-.348-.454 1.56 1.56 0 01-.1-1.142c.055-.188.145-.363.264-.514l6.347-8.022-6.12-8.038a1.527 1.527 0 01-.259-.518A1.578 1.578 0 01.411.822C.501.65.621.497.767.373c.147-.136.319-.239.505-.302A1.345 1.345 0 012.4.194c.17.101.318.239.436.404l6.842 8.98c.208.267.322.603.322.95s-.114.683-.322.95l-7.083 8.98a1.426 1.426 0 01-.527.418 1.35 1.35 0 01-.649.121z" fill="#fff"/></svg>