<svg width="21" height="21" fill="none" xmlns="http://www.w3.org/2000/svg"><path d="M17.323 15.61c0-.026-.005-.05-.008-.074V9.88a.532.532 0 00-.533-.532c-.01 0-.018.002-.028.003h-1.008v.003a.531.531 0 00-.517.528h-.002v5.776h.01a.53.53 0 00.509.48v.004h1.044a.533.533 0 00.533-.532zm-3.15.886V8.831a.534.534 0 00-.532-.533c-.01 0-.02.003-.029.003h-2.086a.625.625 0 00-.112-.133L9.339 4.573l-.005.004a1.201 1.201 0 00-1.046-.617c-.666 0-1.206.548-1.206 1.223H7.07v3.118H4.196v.004a.532.532 0 00-.517.528h-.001v5.912h.001c0 .067.026.135.077.187l2.05 2.051.005-.005a.26.26 0 00.203.057h7.582c.015.002.03.005.045.005a.531.531 0 00.53-.505h.002v-.016l.001-.011v-.012zm-9.867-1.751l.01.01-.01-.01z" fill="#FAAA27"/></svg>