<svg width="20" height="20" fill="none" xmlns="http://www.w3.org/2000/svg"><path d="M19.816 8.18h-9.612v3.87h5.491c-.237 1.25-.955 2.308-2.038 3.017-.915.6-2.083.954-3.456.954-2.658 0-4.906-1.76-5.71-4.123a5.95 5.95 0 01-.32-1.9c0-.659.118-1.3.32-1.899.806-2.36 3.055-4.12 5.713-4.12 1.497 0 2.841.506 3.9 1.496l2.927-2.87C15.26.99 12.955 0 10.204 0c-3.989 0-7.44 2.241-9.118 5.509a9.825 9.825 0 000 8.982C2.764 17.76 6.216 20 10.203 20c2.757 0 5.066-.896 6.753-2.424 1.93-1.74 3.044-4.304 3.044-7.35 0-.71-.064-1.39-.184-2.046z" fill="#fff"/></svg>