<svg width="178" height="46" fill="none" xmlns="http://www.w3.org/2000/svg"><path d="M20.761.564H0v41.521h20.761V.565z" fill="#012835"/><path d="M41.52.564H20.76v20.761h20.76V.565z" fill="#E95131"/><path d="M44.4 24.41H23.639v20.76H44.4V24.41z" fill="#FAAA27"/><path d="M76.292.37v17.234H71.91V8.322l-4.186 6.919h-.443L63.12 8.347v9.257h-4.407V.37h4.407l4.383 7.362L71.91.369h4.382zM93.63 15.388c-1.74 1.724-3.873 2.585-6.401 2.585-2.528 0-4.67-.861-6.426-2.585-1.74-1.74-2.61-3.873-2.61-6.401 0-2.528.87-4.654 2.61-6.377C82.559.87 84.7 0 87.229 0s4.661.87 6.401 2.61c1.757 1.723 2.635 3.849 2.635 6.377 0 2.527-.878 4.661-2.635 6.401zm-9.725-3.028c.886.87 1.994 1.305 3.324 1.305 1.33 0 2.437-.435 3.324-1.305.886-.886 1.33-2.01 1.33-3.373 0-1.363-.444-2.479-1.33-3.349-.887-.886-1.995-1.33-3.324-1.33-1.33 0-2.438.444-3.324 1.33-.886.87-1.33 1.986-1.33 3.349 0 1.362.444 2.486 1.33 3.373zM110.555.37v17.234h-4.383V12.04h-.936l-3.471 5.564h-4.9l3.94-6.18a5.874 5.874 0 01-2.438-2.068 5.417 5.417 0 01-.886-3.028c0-1.724.59-3.144 1.773-4.26C100.434.936 101.904.37 103.66.37h6.894zm-6.845 7.927h2.462V4.432h-2.462c-.525 0-.968.189-1.33.566-.344.361-.517.82-.517 1.379 0 .574.173 1.042.517 1.403.362.361.805.534 1.33.517zM72.993 42.225h-4.924l-4.95-7.706v7.706h-4.406V24.99h4.407v7.24l4.703-7.24h4.924l-5.466 8.372 5.712 8.863zm11.962-8.913c1.445.854 2.167 2.142 2.167 3.866 0 1.526-.525 2.75-1.576 3.669-1.05.919-2.454 1.378-4.21 1.378h-7.263V24.99h6.795c1.724 0 3.103.444 4.137 1.33 1.034.87 1.55 2.06 1.55 3.57 0 1.444-.533 2.585-1.6 3.422zm-4.21-4.382H78.48v2.708h2.265c.394 0 .722-.115.985-.345.28-.246.419-.582.419-1.009 0-.41-.132-.739-.394-.985-.263-.246-.6-.37-1.01-.37zm.468 9.356c.443 0 .804-.131 1.083-.394.28-.28.419-.632.419-1.059 0-.443-.14-.796-.419-1.058-.279-.263-.64-.394-1.083-.394H78.48v2.905h2.733zm18.012 3.939l-.739-2.486H92.75l-.738 2.486h-4.777l5.688-17.235h5.367l5.688 17.235h-4.752zm-5.343-6.278h3.472l-1.748-5.86-1.724 5.86zm17.873-10.957c1.739 0 3.2.567 4.382 1.7 1.182 1.132 1.773 2.576 1.773 4.333 0 1.756-.591 3.2-1.773 4.333s-2.643 1.699-4.382 1.699h-2.29v5.17h-4.407V24.99h6.697zm0 7.88c.492 0 .902-.173 1.231-.518.344-.344.517-.788.517-1.33 0-.541-.173-.976-.517-1.304a1.631 1.631 0 00-1.231-.517h-2.29v3.668h2.29zm19.399-7.88v4.26h-4.26v12.975h-4.407V29.25h-4.259v-4.26h12.926zm10.93 17.235V33.56l-6.082 8.666h-3.422V24.99h4.407v8.667l6.082-8.666h3.397v17.234h-4.382zm13.635-17.235c1.74 0 3.201.567 4.383 1.7 1.181 1.132 1.772 2.576 1.772 4.333 0 1.756-.591 3.2-1.772 4.333-1.182 1.133-2.643 1.699-4.383 1.699h-2.29v5.17h-4.407V24.99h6.697zm0 7.88a1.63 1.63 0 001.231-.518c.345-.344.517-.788.517-1.33 0-.541-.172-.976-.517-1.304a1.63 1.63 0 00-1.231-.517h-2.29v3.668h2.29zm16.604 9.355l-.739-2.486h-5.737l-.738 2.486h-4.777l5.688-17.235h5.367l5.688 17.235h-4.752zm-5.343-6.278h3.472l-1.749-5.86-1.723 5.86z" fill="#012835"/></svg>