<svg width="22" height="16" fill="none" xmlns="http://www.w3.org/2000/svg"><path d="M14.405 8.04a3.43 3.43 0 01-.994 2.417 3.381 3.381 0 01-4.8 0 3.43 3.43 0 01-.994-2.416c0-.907.358-1.776.994-2.417a3.381 3.381 0 014.8 0c.636.641.994 1.51.994 2.417z" fill="#FAAA27"/><path fill-rule="evenodd" clip-rule="evenodd" d="M.152 8.04S4.224.524 11.01.524s10.86 7.518 10.86 7.518-4.073 7.518-10.86 7.518C4.224 15.559.151 8.04.151 8.04zm10.859 4.785c1.26 0 2.468-.504 3.36-1.401a4.801 4.801 0 001.39-3.383c0-1.269-.5-2.486-1.39-3.383a4.734 4.734 0 00-3.36-1.401c-1.26 0-2.468.504-3.36 1.4A4.801 4.801 0 006.26 8.042c0 1.269.5 2.486 1.392 3.383a4.734 4.734 0 003.359 1.4z" fill="#FAAA27"/></svg>