<svg width="33" height="20" fill="none" xmlns="http://www.w3.org/2000/svg"><path d="M32.066 1.425c.227-.775 0-1.343-1.076-1.343h-3.563c-.907 0-1.322.491-1.55 1.031 0 0-1.811 4.532-4.378 7.47-.83.855-1.208 1.125-1.66 1.125-.226 0-.554-.27-.554-1.045V1.425c0-.93-.261-1.343-1.017-1.343h-5.6c-.565 0-.906.43-.906.84 0 .88 1.283 1.083 1.415 3.563v5.38c0 1.178-.207 1.393-.662 1.393-1.207 0-4.145-4.548-5.889-9.755C6.287.492 5.944.083 5.034.083H1.472C.453.083.25.575.25 1.115c0 .97 1.207 5.77 5.624 12.118 2.945 4.335 7.09 6.685 10.867 6.685 2.263 0 2.543-.521 2.543-1.421V15.22c0-1.043.216-1.253.932-1.253.527 0 1.434.273 3.548 2.361 2.415 2.477 2.814 3.589 4.171 3.589h3.562c1.017 0 1.526-.522 1.233-1.552-.32-1.025-1.473-2.517-3.004-4.282-.832-1.006-2.075-2.09-2.454-2.631-.528-.699-.375-1.007 0-1.627.002.002 4.342-6.268 4.794-8.4z" fill="#fff"/></svg>