<svg width="48" height="38" fill="none" xmlns="http://www.w3.org/2000/svg"><path fill-rule="evenodd" clip-rule="evenodd" d="M10.238 3.737L.858.96 1.142 0l9.652 2.859.272.08.07.275 6.1 23.765H41.63v1H16.46l-.097-.375-6.125-23.867zM46.312 7.65h-31.12v-1h32.496l-.213.655-4.956 15.247-.112.345H19.322v-1H41.68L46.312 7.65zM37.5 36.48a2.5 2.5 0 110-5 2.5 2.5 0 010 5zm0 1a3.5 3.5 0 110-7 3.5 3.5 0 010 7zM19 33.98a2.5 2.5 0 105 0 2.5 2.5 0 00-5 0zm-1 0a3.5 3.5 0 107 0 3.5 3.5 0 00-7 0z" fill="red"/></svg>