<svg width="17" height="17" fill="none" xmlns="http://www.w3.org/2000/svg"><path fill-rule="evenodd" clip-rule="evenodd" d="M8.5 16c1.99 0 3.8-.776 5.143-2.041-.108-.672-.586-1.325-1.406-1.85-.933-.598-2.253-.984-3.737-.984s-2.804.386-3.737.984c-.82.525-1.297 1.178-1.406 1.85A7.474 7.474 0 008.5 16zm4.277-4.733c.743.476 1.337 1.1 1.65 1.83a7.5 7.5 0 10-11.853 0c.312-.73.906-1.354 1.65-1.83.636-.408 1.4-.721 2.245-.916a3.5 3.5 0 114.061 0c.845.195 1.61.508 2.247.916zM8.5 17a8.5 8.5 0 100-17 8.5 8.5 0 000 17zM11 7.5a2.5 2.5 0 11-5 0 2.5 2.5 0 015 0z" fill="#000"/></svg>