<svg width="29" height="24" fill="none" xmlns="http://www.w3.org/2000/svg"><mask id="a" fill="#fff"><rect width="24" height="17" rx="1"/></mask><rect width="24" height="17" rx="1" fill="#fff" stroke="#4565D0" stroke-width="3" mask="url(#a)"/><path d="M9 17h6l1.638 3.276a.5.5 0 01-.447.724H7.809a.5.5 0 01-.447-.724L9 17zm-8-4h22v3H1z" fill="#4565D0"/><circle cx="12" cy="15" r="1" fill="#fff"/><mask id="b" fill="#fff"><rect x="19" y="4" width="10" height="18" rx="1"/></mask><rect x="19" y="4" width="10" height="18" rx="1" fill="#fff" stroke="#4565D0" stroke-width="3" mask="url(#b)"/><circle cx="24" cy="15" r="1" fill="#4565D0"/><circle cx="24" cy="18" r="1" fill="#4565D0"/><path fill="#4565D0" d="M22 7h4v1h-4zm0 2h4v2h-4z"/></svg>