<svg width="26" height="16" fill="none" xmlns="http://www.w3.org/2000/svg"><path d="M25.996 13.162l-.003-.028v-.004a3.013 3.013 0 00-.031-.677.406.406 0 00-.091-.196l-.939-6.787a.4.4 0 00-.049-.144 4.376 4.376 0 00-1.53-3.045c-.002-.259-.058-.97-.575-1.537C22.328.25 21.662 0 20.8 0h-.167c-.861 0-1.526.25-1.977.744-.442.484-.547 1.074-.57 1.397-.06.045-.117.091-.173.14H8.045a3.82 3.82 0 00-.172-.14c-.022-.323-.127-.912-.57-1.397C6.853.25 6.187 0 5.326 0H5.16c-.861 0-1.527.25-1.977.744-.518.567-.574 1.278-.576 1.536a4.38 4.38 0 00-1.54 3.312L.128 12.36a.405.405 0 00-.09.196 3.02 3.02 0 00-.032.672v.009l-.003.028a.404.404 0 00.03.219C.248 14.912 1.463 16 2.905 16a2.9 2.9 0 002.412-1.316.41.41 0 00.069-.099l.021-.043L7.34 12.07a2.868 2.868 0 001.852.679c1.286 0 2.38-.855 2.765-2.037h1.593l.01-.002c.386 1.184 1.48 2.039 2.766 2.039a2.88 2.88 0 002.17-.992l2.098 2.685.022.043c.018.037.042.07.069.099a2.9 2.9 0 002.411 1.316c1.445 0 2.66-1.09 2.87-2.519a.407.407 0 00.031-.218z" fill="#fff"/><path fill-rule="evenodd" clip-rule="evenodd" d="M4.277 8.661a.204.204 0 01-.058-.143V6.684H2.423a.2.2 0 01-.198-.203V4.603a.2.2 0 01.198-.203H4.22V2.567a.2.2 0 01.198-.203h1.84a.2.2 0 01.199.203V4.4H8.25a.2.2 0 01.199.202V6.48a.2.2 0 01-.199.203H6.456v1.834a.2.2 0 01-.199.202l-1.84.001a.196.196 0 01-.14-.06zM2.621 4.805v1.472h1.796a.2.2 0 01.199.203v1.834h1.442V6.48a.2.2 0 01.199-.202h1.795V4.805H6.257a.2.2 0 01-.199-.203V2.77H4.616v1.833a.2.2 0 01-.199.203H2.621zm18.012-.028c.57 0 1.033-.473 1.033-1.055 0-.581-.464-1.055-1.033-1.055-.57 0-1.033.474-1.033 1.055 0 .582.463 1.055 1.033 1.055zm-.426-.574h.851a.626.626 0 01-.851 0zm.519-.406l-.093-.172-.094.172h.187zm.543-.074a.63.63 0 01-.029.19l-.001-.004a.06.06 0 00-.003-.006l-.43-.795-.005-.007a.052.052 0 01-.004-.005.648.648 0 01.472.627zm-.804-.622a.066.066 0 00.003-.005.648.648 0 00-.443.818l.001-.003V3.91l.003-.006.43-.794a.033.033 0 01.006-.008zm1.388 2.44c0 .322.256.583.57.583.314 0 .57-.261.57-.582a.576.576 0 00-.57-.582.577.577 0 00-.57.582zm.57-.175c.095 0 .173.079.173.176a.175.175 0 01-.173.176.175.175 0 01-.173-.176c0-.097.078-.176.173-.176zM19.6 7.378c0-.582.463-1.055 1.033-1.055.57 0 1.033.473 1.033 1.055 0 .581-.464 1.054-1.033 1.054-.57 0-1.033-.473-1.033-1.054zm.397 0c0 .358.285.65.636.65a.644.644 0 00.636-.65.643.643 0 00-.636-.65.644.644 0 00-.636.65zm1.394-1.828c0 .582.463 1.055 1.032 1.055.57 0 1.033-.473 1.033-1.055 0-.581-.463-1.055-1.033-1.055-.57 0-1.032.474-1.032 1.055zm1.669 0a.644.644 0 01-.637.65.643.643 0 01-.635-.65c0-.358.285-.65.635-.65.352 0 .637.292.637.65zm-5.25 0c0-.581.463-1.055 1.033-1.055.57 0 1.033.474 1.033 1.055 0 .582-.463 1.055-1.033 1.055-.57 0-1.033-.473-1.033-1.055zm.397 0c0 .358.285.65.636.65.35 0 .636-.292.636-.65a.644.644 0 00-.636-.65.644.644 0 00-.636.65zM9.19 7.967c-.974 0-1.768.81-1.768 1.805 0 .996.793 1.806 1.768 1.806s1.769-.81 1.769-1.806c0-.995-.794-1.805-1.769-1.805zm0 3.205c-.755 0-1.37-.628-1.37-1.4 0-.77.614-1.399 1.37-1.399.757 0 1.372.628 1.372 1.4 0 .771-.615 1.4-1.371 1.4zm3.674-4.46c.448 0 .813.374.813.83a.823.823 0 01-.813.831.823.823 0 01-.813-.83c0-.458.365-.83.813-.83zm-.416.831a.42.42 0 00.416.425.42.42 0 00.415-.425.42.42 0 00-.415-.424.42.42 0 00-.416.424zm3.877.424c-.974 0-1.767.81-1.767 1.805 0 .996.793 1.806 1.767 1.806.975 0 1.768-.81 1.768-1.806 0-.995-.793-1.805-1.768-1.805zm.001 3.205c-.756 0-1.37-.628-1.37-1.4 0-.77.614-1.399 1.37-1.399.756 0 1.37.628 1.37 1.4 0 .771-.614 1.4-1.37 1.4zM5.105 6.011a.331.331 0 01.464-.001l.255.26c.037.038.058.09.058.144v.556a.2.2 0 01-.198.202H4.99a.2.2 0 01-.199-.202v-.556c0-.054.021-.106.058-.144l.255-.26zm.084.487v.27h.296v-.27l-.148-.151-.148.15zm-.083-1.486a.324.324 0 00.464-.001l.255-.26a.206.206 0 00.058-.144v-.556a.2.2 0 00-.199-.202h-.693a.2.2 0 00-.199.202v.556c0 .054.021.106.059.144l.255.26zm.083-.758h.296v.27l-.148.15-.148-.15v-.27zm-.341 1.493l-.255.26a.197.197 0 01-.14.06h-.545a.2.2 0 01-.199-.203v-.708a.2.2 0 01.199-.203h.545c.052 0 .103.022.14.06l.255.26a.341.341 0 010 .474zm-.742-.388v.302h.264l.148-.15-.148-.152h-.264zm1.72.389l.255.26c.037.038.088.06.14.06h.545a.2.2 0 00.199-.203v-.708a.2.2 0 00-.199-.203h-.544a.195.195 0 00-.14.06l-.256.26a.341.341 0 000 .474zm.478-.39h.263v.303h-.263l-.148-.15.148-.152zm-.967-2.372l-.43.44h.86l-.43-.44zm.43 4.628l-.43.439-.43-.44h.86zm1.62-2.533v.877l.43-.438-.43-.44zm-4.101 0v.878l-.43-.44.43-.438zm11.102 1.29h-.24a.2.2 0 01-.199-.203v-.64a.2.2 0 01.199-.202h.203c.02 0 .04.003.06.01l.98.32a.202.202 0 01.137.191.202.202 0 01-.136.194l-.941.32a.205.205 0 01-.063.01zm.302-.519l-.343-.112v.226h.01l.333-.114zm-3.01-.526h-1.15a.2.2 0 00-.2.202v.64a.2.2 0 00.2.202h1.15a.2.2 0 00.198-.202v-.64a.2.2 0 00-.199-.202zm-.2.64h-.752V5.73h.753v.235zm7.057-.931h.612a.2.2 0 01.199.202v.626a.2.2 0 01-.199.202h-.612a.2.2 0 01-.198-.202v-.626a.2.2 0 01.198-.202zm.199.625h.215v-.22h-.215v.22zm1.896 1.43l.252-.256.28.287-.25.256.25.257-.28.287-.252-.257-.251.257-.28-.287.251-.257-.252-.256.28-.287.252.257z" fill="#4565D0"/><mask id="a" fill="#fff"><path fill-rule="evenodd" clip-rule="evenodd" d="M25.996 13.162l-.003-.028v-.004a3.013 3.013 0 00-.031-.677.406.406 0 00-.091-.196l-.939-6.787a.4.4 0 00-.049-.144 4.376 4.376 0 00-1.53-3.045c-.002-.259-.058-.97-.575-1.537C22.328.25 21.662 0 20.8 0h-.167c-.861 0-1.526.25-1.977.744-.442.484-.547 1.074-.57 1.397-.06.045-.117.091-.173.14H8.045a3.82 3.82 0 00-.172-.14c-.022-.323-.127-.912-.57-1.397C6.853.25 6.187 0 5.326 0H5.16c-.861 0-1.527.25-1.977.744-.518.567-.574 1.278-.576 1.536a4.38 4.38 0 00-1.54 3.312L.128 12.36a.405.405 0 00-.09.196 3.02 3.02 0 00-.032.672v.008l-.003.028a.404.404 0 00.03.219C.248 14.912 1.463 16 2.905 16a2.9 2.9 0 002.412-1.316.41.41 0 00.069-.099l.021-.043L7.34 12.07a2.868 2.868 0 001.852.679c1.286 0 2.38-.855 2.765-2.037h1.593l.005-.001h.006c.385 1.183 1.48 2.038 2.765 2.038a2.88 2.88 0 002.17-.992l2.098 2.685.022.043c.018.037.042.07.069.099a2.9 2.9 0 002.411 1.316c1.445 0 2.66-1.09 2.87-2.519a.407.407 0 00.031-.218zm-1.895-7.534c0 1.952-1.556 3.54-3.468 3.54a3.41 3.41 0 01-1.556-.378 2.966 2.966 0 00-1.63-1.765 3.57 3.57 0 01-.282-1.397 3.58 3.58 0 011.159-2.64c.117-.108.24-.206.376-.3l.007-.004a3.397 3.397 0 011.926-.596c1.912-.001 3.468 1.587 3.468 3.54zm-14.513 0c0 .404-.054.798-.16 1.179 1.26.104 2.295 1.029 2.591 2.249h1.477c.316-1.296 1.464-2.26 2.83-2.26.068 0 .136.003.203.008a4.422 4.422 0 01.642-3.712H8.788c.515.734.8 1.62.8 2.537zM20.633.813h.167c.629 0 1.096.161 1.39.48.115.123.194.262.248.396a4.175 4.175 0 00-3.4-.096 1.27 1.27 0 01.205-.3c.295-.319.762-.48 1.39-.48zm-15.475 0c-.628 0-1.095.161-1.39.48a1.309 1.309 0 00-.248.396 4.179 4.179 0 013.4-.096 1.282 1.282 0 00-.204-.3c-.294-.319-.762-.48-1.39-.48h-.168zm.167 1.275a3.402 3.402 0 012.327.915 3.58 3.58 0 011.141 2.626c0 .427-.073.841-.217 1.234a2.953 2.953 0 00-2.201 2.14c-.339.11-.69.167-1.05.167-1.911 0-3.467-1.589-3.467-3.54 0-1.953 1.556-3.542 3.467-3.542zM.808 13.249c.108 1.096 1.012 1.94 2.096 1.94.74 0 1.436-.403 1.813-1.054l.006-.008a.412.412 0 01.037-.058l2.035-2.604a2.999 2.999 0 01-.517-1.595c-.31.073-.63.11-.952.11-1.618 0-3.028-.925-3.75-2.285L.808 13.25zm8.383-1.312c-1.169 0-2.12-.972-2.12-2.165 0-1.194.951-2.166 2.12-2.166 1.17 0 2.12.972 2.12 2.166 0 .128-.012.253-.034.375a.417.417 0 00-.029.142c-.228.944-1.062 1.648-2.057 1.648zm2.914-2.165c0 .042-.001.085-.003.127h1.312a3.01 3.01 0 01.013-.439h-1.338c.01.102.016.206.016.312zm4.22 2.165c-1.168 0-2.12-.972-2.12-2.165 0-1.194.952-2.166 2.12-2.166 1.17 0 2.122.972 2.122 2.166 0 1.193-.952 2.165-2.121 2.165zm4.958 2.096a2.108 2.108 0 001.813 1.055c1.085 0 1.99-.846 2.096-1.94l-.767-5.54c-.707 1.407-2.14 2.371-3.792 2.371-.476 0-.947-.083-1.393-.24v.033c0 .46-.103.895-.286 1.285.02.016.039.036.056.058l2.23 2.852c.012.014.02.03.03.047l.003.005.01.014z"/></mask><path fill-rule="evenodd" clip-rule="evenodd" d="M25.996 13.162l-.003-.028v-.004a3.013 3.013 0 00-.031-.677.406.406 0 00-.091-.196l-.939-6.787a.4.4 0 00-.049-.144 4.376 4.376 0 00-1.53-3.045c-.002-.259-.058-.97-.575-1.537C22.328.25 21.662 0 20.8 0h-.167c-.861 0-1.526.25-1.977.744-.442.484-.547 1.074-.57 1.397-.06.045-.117.091-.173.14H8.045a3.82 3.82 0 00-.172-.14c-.022-.323-.127-.912-.57-1.397C6.853.25 6.187 0 5.326 0H5.16c-.861 0-1.527.25-1.977.744-.518.567-.574 1.278-.576 1.536a4.38 4.38 0 00-1.54 3.312L.128 12.36a.405.405 0 00-.09.196 3.02 3.02 0 00-.032.672v.008l-.003.028a.404.404 0 00.03.219C.248 14.912 1.463 16 2.905 16a2.9 2.9 0 002.412-1.316.41.41 0 00.069-.099l.021-.043L7.34 12.07a2.868 2.868 0 001.852.679c1.286 0 2.38-.855 2.765-2.037h1.593l.005-.001h.006c.385 1.183 1.48 2.038 2.765 2.038a2.88 2.88 0 002.17-.992l2.098 2.685.022.043c.018.037.042.07.069.099a2.9 2.9 0 002.411 1.316c1.445 0 2.66-1.09 2.87-2.519a.407.407 0 00.031-.218zm-1.895-7.534c0 1.952-1.556 3.54-3.468 3.54a3.41 3.41 0 01-1.556-.378 2.966 2.966 0 00-1.63-1.765 3.57 3.57 0 01-.282-1.397 3.58 3.58 0 011.159-2.64c.117-.108.24-.206.376-.3l.007-.004a3.397 3.397 0 011.926-.596c1.912-.001 3.468 1.587 3.468 3.54zm-14.513 0c0 .404-.054.798-.16 1.179 1.26.104 2.295 1.029 2.591 2.249h1.477c.316-1.296 1.464-2.26 2.83-2.26.068 0 .136.003.203.008a4.422 4.422 0 01.642-3.712H8.788c.515.734.8 1.62.8 2.537zM20.633.813h.167c.629 0 1.096.161 1.39.48.115.123.194.262.248.396a4.175 4.175 0 00-3.4-.096 1.27 1.27 0 01.205-.3c.295-.319.762-.48 1.39-.48zm-15.475 0c-.628 0-1.095.161-1.39.48a1.309 1.309 0 00-.248.396 4.179 4.179 0 013.4-.096 1.282 1.282 0 00-.204-.3c-.294-.319-.762-.48-1.39-.48h-.168zm.167 1.275a3.402 3.402 0 012.327.915 3.58 3.58 0 011.141 2.626c0 .427-.073.841-.217 1.234a2.953 2.953 0 00-2.201 2.14c-.339.11-.69.167-1.05.167-1.911 0-3.467-1.589-3.467-3.54 0-1.953 1.556-3.542 3.467-3.542zM.808 13.249c.108 1.096 1.012 1.94 2.096 1.94.74 0 1.436-.403 1.813-1.054l.006-.008a.412.412 0 01.037-.058l2.035-2.604a2.999 2.999 0 01-.517-1.595c-.31.073-.63.11-.952.11-1.618 0-3.028-.925-3.75-2.285L.808 13.25zm8.383-1.312c-1.169 0-2.12-.972-2.12-2.165 0-1.194.951-2.166 2.12-2.166 1.17 0 2.12.972 2.12 2.166 0 .128-.012.253-.034.375a.417.417 0 00-.029.142c-.228.944-1.062 1.648-2.057 1.648zm2.914-2.165c0 .042-.001.085-.003.127h1.312a3.01 3.01 0 01.013-.439h-1.338c.01.102.016.206.016.312zm4.22 2.165c-1.168 0-2.12-.972-2.12-2.165 0-1.194.952-2.166 2.12-2.166 1.17 0 2.122.972 2.122 2.166 0 1.193-.952 2.165-2.121 2.165zm4.958 2.096a2.108 2.108 0 001.813 1.055c1.085 0 1.99-.846 2.096-1.94l-.767-5.54c-.707 1.407-2.14 2.371-3.792 2.371-.476 0-.947-.083-1.393-.24v.033c0 .46-.103.895-.286 1.285.02.016.039.036.056.058l2.23 2.852c.012.014.02.03.03.047l.003.005.01.014z" fill="#4565D0"/><path d="M25.992 13.134l-.194-.047-.009.037.005.037.198-.027zm.004.028l-.198.027.198-.027zm-.003-.032l-.2-.015v.015h.2zm-.031-.677l.197-.032-.197.032zm-.091-.196l-.198.027.008.057.037.044.153-.128zm-.939-6.787l-.198.026v.001l.198-.027zm-.049-.144l-.2.013.003.046.023.04.174-.1zm-1.53-3.045l-.2.001.001.092.07.06.13-.153zM22.779.744l.147-.135-.147.135zm-4.122 0l-.148-.135.148.135zm-.57 1.397l.121.16.072-.056.007-.09-.2-.014zm-.173.14v.2h.074l.056-.049-.13-.152zm-9.867 0l-.13.151.056.048h.074v-.2zm-.173-.14l-.2.014.007.09.072.056.121-.16zM7.303.744l.148-.135-.148.135zm-4.121 0l.147.135-.147-.135zM2.606 2.28l.129.153.07-.06v-.09l-.2-.003zm-1.54 3.312l.197.028.002-.013v-.013l-.2-.002zM.128 12.36l.154.128.036-.044.008-.057-.198-.027zm-.09.196l.197.031-.198-.031zm-.032.672l-.2.015.001.005.2-.02zm0 .001l.2-.014v-.005l-.2.02zm0 0l-.2.015.001.005.2-.02zm0 .008l.199.027.002-.014v-.013h-.2zm-.003.028l.198.028v-.001l-.198-.027zm.03.219l.198-.03-.003-.026-.011-.024-.183.08zm5.282 1.201l-.146-.137-.012.012-.01.015.168.11zm.069-.099l-.179-.09.179.09zm.021-.043l-.157-.123-.013.016-.008.018.178.09zM7.34 12.07l.13-.153-.16-.133-.127.163.157.123zm4.617-1.358v-.2h-.145l-.045.138.19.062zm1.598-.001l-.03-.198-.006.001.036.197zm.004 0l-.01-.2h-.01l-.01.002.03.197zm.002 0l.19-.063-.047-.145-.153.008.01.2zm4.935 1.046l.158-.123-.148-.19-.16.181.15.132zm2.098 2.685l.18-.088-.01-.019-.012-.016-.158.123zm.022.043l-.18.088v.002l.18-.09zm.069.099l.167-.11-.01-.015-.012-.013-.145.138zm5.282-1.203l-.184-.08-.01.025-.004.026.198.029zm-6.89-4.59l-.188.065.026.076.071.037.092-.178zm-1.63-1.765l-.183.077.031.075.074.031.079-.184zm.86-4.022l-.122-.16-.007.006-.007.007.136.147zm.018-.016l.134.148h.001l-.135-.148zm.376-.299l.113.165.004-.002-.117-.163zm.007-.004l-.111-.167-.006.004.117.163zm0 0l.111.166.006-.004-.117-.162zm.013-.01l-.112-.166-.01.007.122.159zm1.913-.587v.2-.2zM9.429 6.807l-.193-.054-.064.233.24.02.017-.2zm2.59 2.249l-.194.047.037.153h.157v-.2zm1.477 0v.2h.158l.037-.153-.195-.047zm3.033-2.252l-.014.2.282.019-.075-.272-.193.053zm.642-3.712l.164.115.22-.315h-.384v.2zm-8.383 0v-.2h-.385l.22.315.165-.115zm13.403-1.8l.147-.136-.147.136zm.247.396l-.086.18.466.224-.194-.48-.186.076zm-3.4-.096l-.179-.089-.235.476.49-.202-.075-.185zm.205-.3l.147.135-.147-.135zm-15.475 0l-.147-.136.147.136zm-.248.396l-.185-.076-.197.48.469-.224-.087-.18zm3.4-.096l-.076.185.493.203-.238-.477-.179.089zm-.204-.3l.147-.136-.147.136zm.522 1.381l.123-.158-.01-.007-.113.165zm.02.015l-.117.162.004.003.113-.165zm.376.299l-.135.147.001.001.134-.148zm.018.015l.136-.147-.006-.005-.13.152zm.924 3.86l.043.195.108-.023.037-.103-.188-.069zm-2.201 2.14l.062.19.103-.033.028-.106-.193-.05zM1.858 5.63h-.2.2zm-1.05 7.62l-.198-.027-.003.024.002.023.2-.02zm3.91.886l.172.1.003-.004-.176-.096zm.005-.008l.158.122-.158-.122zm.004-.007l.171.105.004-.006-.175-.098zm.033-.051l-.158-.123.158.123zm2.035-2.604l.158.123.09-.115-.082-.12-.166.112zM6.278 9.87l.2-.006-.008-.244-.238.056.046.194zM1.576 7.695l.177-.093-.29-.547-.085.613.198.027zm9.701 2.452l.186.075.008-.02.004-.021-.197-.034zm-.029.142l.195.047.004-.02.001-.02-.2-.007zm.854-.39l-.2-.009-.01.21h.21v-.2zm1.312 0v.2h.207l-.008-.207-.2.007zm.013-.439l.199.021.023-.22h-.222v.2zm-1.338 0v-.2h-.222l.023.221.2-.02zm9.194 4.573l-.175.097.002.004.173-.1zm3.909-.885l.199.02.002-.024-.003-.024-.198.028zm-.767-5.54l.198-.027-.088-.637-.288.575.178.09zM19.24 9.74l.066-.189-.266-.094v.283h.2zm0 .017l.2-.006-.2.006zm-.286 1.3l-.18-.084-.068.141.122.099.126-.155zm.056.059l.158-.123-.002-.002-.156.125zm2.23 2.852l-.158.123.003.004.155-.127zm.03.047l.174-.099-.174.099zm.003.005l-.174.1.003.005.171-.105zm4.521-.858l.004.028.397-.054-.004-.028-.397.054zm-.001-.031v-.008l.001-.012.004-.023.389.095a.21.21 0 00.005-.04v-.012h-.4zm.007-.197c0 .06-.002.122-.007.182l.4.03c.005-.071.007-.142.007-.212h-.4zm-.036-.448c.024.145.036.296.036.448h.4c0-.173-.014-.345-.04-.512l-.396.064zm-.046-.1c.024.03.04.063.046.1l.395-.064a.606.606 0 00-.135-.293l-.306.257zm-.984-6.888l.939 6.787.396-.055-.939-6.787-.396.055zm-.025-.073a.2.2 0 01.025.072l.396-.053a.6.6 0 00-.073-.215l-.348.196zm-1.485-2.99a4.178 4.178 0 011.46 2.905l.399-.027a4.576 4.576 0 00-1.6-3.184l-.259.305zM22.63.878c.468.512.522 1.162.524 1.403l.4-.003c-.003-.276-.061-1.048-.629-1.67l-.295.27zM20.8.2c.823 0 1.427.238 1.83.679l.295-.27C22.427.063 21.701-.2 20.8-.2v.4zm-.167 0h.167v-.4h-.167v.4zm-1.83.679C19.207.438 19.812.2 20.634.2v-.4c-.9 0-1.626.263-2.125.809l.296.27zm-.517 1.276c.02-.302.119-.84.518-1.276l-.296-.27c-.486.532-.598 1.174-.621 1.518l.399.028zm-.243.277c.053-.045.108-.09.164-.132l-.242-.319a4.116 4.116 0 00-.181.147l.259.304zm-4.098.048h3.968v-.4h-3.968v.4zm-5.9 0h5.9v-.4h-5.9v.4zm-.293-.18c.056.043.11.087.164.132l.26-.304a4.01 4.01 0 00-.182-.146l-.242.319zM7.155.88c.4.437.498.974.519 1.276l.399-.028c-.024-.344-.136-.986-.622-1.518l-.296.27zM5.326.2c.822 0 1.427.238 1.83.679l.295-.27C6.952.063 6.226-.2 5.326-.2v.4zM5.16.2h.167v-.4H5.16v.4zM3.33.879C3.732.438 4.337.2 5.16.2v-.4c-.9 0-1.626.263-2.125.809l.295.27zm-.523 1.403c.002-.241.056-.891.523-1.403l-.295-.27c-.568.621-.626 1.394-.628 1.67l.4.003zm-1.54 3.312a4.18 4.18 0 011.469-3.161l-.259-.305a4.58 4.58 0 00-1.61 3.463l.4.003zm-.939 6.792l.936-6.766-.396-.055-.936 6.766.396.055zm-.091.2a.204.204 0 01.047-.099l-.307-.257a.605.605 0 00-.135.293l.395.063zm-.036.449c0-.152.012-.303.036-.449l-.395-.063a3.22 3.22 0 00-.04.512h.4zm.007.177a2.464 2.464 0 01-.007-.177h-.4c0 .07.003.14.008.207l.399-.03zm0-.003v-.002l-.399.04v.001l.398-.04zm0 .005l-.4.029.4-.03zm0 .022v-.028l-.399.04v-.012h.4zm-.005.055l.004-.028-.396-.054-.004.028.396.054zm.016.112a.205.205 0 01-.016-.111l-.396-.056a.604.604 0 00.045.326l.367-.16zM2.904 15.8c-1.34 0-2.473-1.01-2.672-2.347l-.395.059C.063 15.037 1.358 16.2 2.904 16.2v-.4zm2.244-1.226A2.7 2.7 0 012.904 15.8v.4a3.099 3.099 0 002.579-1.406l-.335-.22zm.058-.078a.209.209 0 01-.036.05l.29.275a.609.609 0 00.104-.147l-.358-.178zm.022-.043l-.022.043.358.179.021-.043-.357-.18zm1.954-2.507L5.249 14.42l.315.246 1.933-2.472-.315-.247zm2.009.602a2.668 2.668 0 01-1.723-.632l-.257.307a3.068 3.068 0 001.98.725v-.4zm2.575-1.9c-.36 1.105-1.381 1.9-2.575 1.9v.4c1.377 0 2.544-.916 2.955-2.175l-.38-.124zm1.783-.137h-1.593v.4h1.593v-.4zm-.03.002h.006a.177.177 0 01.024-.002v.4a.229.229 0 00.029-.002l.012-.002-.072-.394zm.01-.001h-.005l.06.396h.004l-.06-.396zm.021-.002h-.002l.02.4h.001l-.019-.4zm2.775 2.038c-1.194 0-2.215-.794-2.575-1.9l-.38.123c.41 1.261 1.578 2.177 2.955 2.177v-.4zm2.02-.924a2.683 2.683 0 01-2.02.924v.4c.922 0 1.75-.41 2.32-1.06l-.3-.264zm2.406 2.694l-2.098-2.685-.315.247 2.098 2.684.315-.246zm.043.077l-.021-.042-.359.177.021.042.359-.177zm.035.05a.222.222 0 01-.036-.051l-.357.18a.616.616 0 00.103.146l.29-.275zm2.266 1.254a2.7 2.7 0 01-2.244-1.226l-.334.22a3.1 3.1 0 002.578 1.406v-.4zm2.673-2.348c-.197 1.335-1.331 2.348-2.673 2.348v.4c1.548 0 2.844-1.166 3.069-2.69l-.396-.058zm.03-.161a.207.207 0 01-.016.11l.367.16a.607.607 0 00.046-.325l-.397.055zm-5.165-3.822c2.027 0 3.668-1.682 3.668-3.74h-.4c0 1.845-1.47 3.34-3.268 3.34v.4zm-1.648-.4a3.61 3.61 0 001.648.4v-.4a3.21 3.21 0 01-1.465-.356l-.183.356zm-1.617-1.76a2.766 2.766 0 011.52 1.647l.378-.13a3.166 3.166 0 00-1.74-1.884l-.158.367zm-.403-1.58c0 .513.1 1.008.298 1.474l.368-.155a3.369 3.369 0 01-.266-1.319h-.4zm1.205-2.772a3.78 3.78 0 00-1.205 2.772h.4a3.38 3.38 0 011.077-2.479l-.272-.293zm.02-.017a.199.199 0 01-.006.005l.244.317a.44.44 0 00.03-.026l-.268-.296zm.397-.315a3.53 3.53 0 00-.398.316l.27.294c.11-.1.225-.192.354-.28l-.226-.33zm.003-.003l-.007.005.234.325.007-.005-.234-.325zm.006-.004l.222.333-.222-.333zm.003-.002l-.009.006.234.325.018-.013-.243-.318zm2.034-.628c-.724 0-1.425.215-2.025.621l.224.331a3.197 3.197 0 011.801-.552v-.4zm3.668 3.741c0-2.059-1.641-3.741-3.668-3.74v.4c1.798-.001 3.268 1.494 3.268 3.34h.4zM9.62 6.86c.11-.398.167-.81.167-1.231h-.4c0 .385-.052.761-.152 1.124l.386.107zm2.592 2.149c-.315-1.3-1.419-2.29-2.768-2.402l-.033.399c1.17.097 2.136.957 2.413 2.097l.388-.094zm1.284-.153h-1.478v.4h1.477v-.4zm2.828-2.26c-1.462 0-2.687 1.032-3.023 2.412l.389.095c.294-1.211 1.366-2.107 2.634-2.107v-.4zm.217.008a3.185 3.185 0 00-.217-.008v.4a3.1 3.1 0 01.19.007l.027-.399zm-.371-.975c0 .42.056.83.165 1.228l.386-.106a4.206 4.206 0 01-.151-1.122h-.4zm.836-2.652a4.622 4.622 0 00-.836 2.652h.4c0-.876.272-1.722.764-2.422l-.328-.23zm-3.062.315h3.226v-.4h-3.226v.4zm-5.157 0h5.157v-.4H8.788v.4zm1 2.337c0-.958-.298-1.885-.837-2.652l-.327.23c.491.7.764 1.547.764 2.422h.4zM20.8.612h-.167v.4h.167v-.4zm1.538.544C21.99.78 21.459.612 20.8.612v.4c.598 0 1.002.154 1.244.415l.294-.271zm.286.456a1.5 1.5 0 00-.286-.456l-.294.271c.095.103.162.22.21.336l.37-.15zm-1.99-.135c.613 0 1.195.14 1.718.391l.173-.36a4.362 4.362 0 00-1.892-.431v.4zm-1.52.3c.48-.198.993-.3 1.52-.3v-.4a4.38 4.38 0 00-1.672.33l.153.37zm-.018-.621c-.103.11-.179.23-.237.347l.359.178c.044-.09.1-.175.172-.254l-.294-.271zm1.537-.544c-.658 0-1.19.17-1.537.544l.294.271c.242-.261.646-.415 1.243-.415v-.4zm-16.718.815c.242-.261.646-.415 1.243-.415v-.4c-.658 0-1.19.17-1.537.544l.294.271zm-.21.336a1.11 1.11 0 01.21-.336l-.294-.271a1.509 1.509 0 00-.286.456l.37.151zm1.62-.686a4.36 4.36 0 00-1.891.43l.173.361a3.96 3.96 0 011.718-.391v-.4zm1.672.33a4.379 4.379 0 00-1.672-.33v.4c.526 0 1.04.102 1.52.3l.152-.37zm-.428.02c.072.079.128.165.172.254l.358-.178a1.482 1.482 0 00-.236-.347l-.294.271zm-1.243-.415c.597 0 1.001.154 1.243.415l.294-.271C6.516.78 5.984.612 5.326.612v.4zm-.168 0h.168v-.4h-.168v.4zM7.35 2.508a3.6 3.6 0 00-2.025-.621v.4c.645 0 1.267.19 1.801.552l.224-.331zm.026.019a.671.671 0 01-.015-.012l-.246.316.026.019.235-.323zm.394.313a3.508 3.508 0 00-.398-.317l-.227.33c.13.089.245.18.354.281l.271-.294zm.012.01a.587.587 0 01-.013-.011l-.269.296a.909.909 0 00.022.02l.26-.305zm1.211 2.778a3.78 3.78 0 00-1.205-2.772l-.272.293a3.38 3.38 0 011.077 2.48h.4zm-.229 1.303a3.78 3.78 0 00.23-1.303h-.4c0 .404-.07.795-.205 1.165l.375.138zM6.568 9.053A2.753 2.753 0 018.62 7.057l-.086-.39A3.153 3.153 0 006.181 8.95l.387.102zm-1.243.316c.38 0 .753-.06 1.112-.177l-.124-.38c-.319.104-.65.157-.988.157v.4zm-3.667-3.74c0 2.058 1.641 3.74 3.667 3.74v-.4c-1.797 0-3.267-1.495-3.267-3.34h-.4zm3.667-3.742c-2.026 0-3.666 1.682-3.667 3.742h.4c0-1.847 1.47-3.342 3.267-3.342v-.4zm-2.42 13.102c-.978 0-1.8-.762-1.898-1.76l-.398.04c.117 1.194 1.104 2.12 2.295 2.12v-.4zm1.64-.954a1.91 1.91 0 01-1.64.954v.4c.812 0 1.572-.442 1.985-1.153l-.346-.201zm.02-.03a.157.157 0 00-.024.035l.352.19-.012.02-.316-.245zm-.008.011a.147.147 0 01.006-.01l.002-.002.316.245.017-.024-.341-.209zm.045-.07a.562.562 0 00-.049.077l.349.196a.252.252 0 01.016-.027l-.316-.246zm2.036-2.604l-2.036 2.604.316.246 2.035-2.604-.315-.246zm-.56-1.465c.02.63.221 1.214.552 1.7l.33-.224a2.799 2.799 0 01-.482-1.489l-.4.013zm-.752.303c.338 0 .672-.039.998-.115l-.092-.39c-.295.07-.599.105-.906.105v.4zM1.4 7.79c.754 1.42 2.23 2.39 3.926 2.39v-.4c-1.54 0-2.884-.88-3.573-2.178l-.353.187zm-.394 5.487l.769-5.554-.397-.055-.768 5.554.396.055zm5.865-3.505c0 1.3 1.037 2.365 2.32 2.365v-.4c-1.055 0-1.92-.878-1.92-1.965h-.4zm2.32-2.366c-1.283 0-2.32 1.065-2.32 2.366h.4c0-1.088.865-1.966 1.92-1.966v-.4zm2.32 2.366c0-1.3-1.036-2.366-2.32-2.366v.4c1.055 0 1.92.878 1.92 1.966h.4zm-.036.409a2.46 2.46 0 00.037-.41h-.4c0 .115-.012.228-.032.342l.395.068zm-.027.115a.219.219 0 01.015-.074l-.37-.15a.618.618 0 00-.045.209l.4.015zm-2.257 1.841c1.092 0 2.003-.772 2.252-1.801l-.39-.094c-.207.86-.965 1.495-1.862 1.495v.4zm3.11-2.229c.003-.044.004-.09.004-.136h-.4c0 .038 0 .078-.003.118l.4.018zm1.113-.209h-1.312v.4h1.312v-.4zm-.204.073c0 .047.002.093.004.135l.4-.015a3.218 3.218 0 01-.004-.12h-.4zm.018-.332a3.23 3.23 0 00-.018.332h.4c0-.098.006-.196.016-.29l-.398-.042zm-1.139.22h1.338v-.4h-1.338v.4zm.216.112c0-.112-.005-.223-.017-.332l-.398.041c.01.095.015.192.015.29h.4zm1.7 0c0 1.3 1.037 2.365 2.32 2.365v-.4c-1.054 0-1.92-.878-1.92-1.965h-.4zm2.32-2.366c-1.283 0-2.32 1.065-2.32 2.366h.4c0-1.088.866-1.966 1.92-1.966v-.4zm2.322 2.366c0-1.3-1.038-2.366-2.321-2.366v.4c1.055 0 1.92.878 1.92 1.966h.4zm-2.321 2.365c1.283 0 2.32-1.065 2.32-2.365h-.4c0 1.087-.865 1.965-1.92 1.965v.4zm6.77 2.75a1.909 1.909 0 01-1.64-.954l-.346.2a2.308 2.308 0 001.986 1.155v-.4zm1.897-1.758c-.096.995-.92 1.758-1.897 1.758v.4c1.192 0 2.18-.928 2.295-2.12l-.398-.038zm-.766-5.493l.767 5.54.396-.056-.767-5.539-.396.055zm-3.594 2.543c1.732 0 3.232-1.011 3.971-2.48l-.357-.18c-.676 1.343-2.043 2.26-3.614 2.26v.4zm-1.46-.251a4.41 4.41 0 001.46.251v-.4c-.453 0-.901-.079-1.327-.229l-.133.378zm.267-.178v-.011h-.4v.023l.4-.012zm0 .022V9.75l-.4.011v.01h.4zm-.305 1.37c.195-.416.305-.88.305-1.37h-.4c0 .43-.096.836-.267 1.2l.362.17zm.031-.152a.575.575 0 00-.086-.088l-.252.31a.187.187 0 01.026.028l.312-.25zm2.231 2.854l-2.23-2.852-.315.246 2.23 2.852.315-.246zm.047.071c-.008-.013-.025-.045-.05-.075l-.309.254.001.002a.377.377 0 01.01.016l.348-.197zm.003.005l-.003-.005-.348.197.003.006.348-.198zm.011.017c-.01-.018-.02-.031-.022-.034-.002-.002 0 0 0 0l.008.012-.341.209.012.018.004.005v.002h.002l-.004-.004a.17.17 0 01-.01-.015l.351-.193z" fill="#4565D0" mask="url(#a)"/></svg>