<svg width="24" height="24" fill="none" xmlns="http://www.w3.org/2000/svg"><circle cx="12" cy="12" r="11.25" fill="#fff" stroke="#4565D0" stroke-width="1.5"/><path fill-rule="evenodd" clip-rule="evenodd" d="M9.34 5.053l8.729 2.812a.878.878 0 01.096.028c.28.098.475.323.6.584.126.26.195.577.222.92.054.689-.06 1.548-.338 2.424-.278.877-.68 1.637-1.116 2.155-.218.258-.456.47-.705.6-.25.13-.535.188-.816.09v.003L11.92 13.25v3.544l-.275.053L5.672 18v3H5v-6.308h.673v2.597l5.575-1.076v-3.196l-4.067-1.41h-.002c-.28-.1-.475-.327-.6-.589a2.652 2.652 0 01-.222-.926c-.054-.692.058-1.554.337-2.427.28-.878.689-1.586 1.138-2.05.432-.447.982-.741 1.508-.562zm8.616 3.509l-.048-.016a.44.44 0 00-.26.063c-.145.076-.317.219-.5.435-.363.431-.726 1.102-.983 1.913-.257.81-.35 1.575-.306 2.148.023.288.078.51.152.663.073.152.151.212.214.234.061.022.157.023.302-.053.146-.076.318-.219.5-.435.364-.432.726-1.103.983-1.912.257-.81.351-1.574.307-2.148a1.909 1.909 0 00-.153-.663c-.07-.148-.146-.209-.207-.232l-.001.003zm-8.818-2.84l7.834 2.523a3.083 3.083 0 00-.329.337c-.437.518-.838 1.278-1.117 2.155a8.85 8.85 0 00-.132.465L7.196 8.37c.039-.16.084-.32.136-.484.255-.799.616-1.404.974-1.774.374-.386.667-.447.826-.392l.003.001.003.001zM7.064 9.06c-.048.358-.06.689-.037.974.023.29.08.515.154.671.074.154.152.216.214.238l7.872 2.729a3.226 3.226 0 01-.078-.51c-.03-.38-.009-.813.063-1.272L7.064 9.06zm10.491.734a.591.591 0 00-.465.05 1.131 1.131 0 00-.329.276 2.627 2.627 0 00-.464.889c-.111.352-.16.707-.136 1.002.011.147.042.297.105.428a.618.618 0 00.349.328c.174.06.34.02.467-.047.126-.065.237-.166.33-.277a2.62 2.62 0 00.463-.89h0c.11-.353.159-.707.136-1.002a1.204 1.204 0 00-.104-.428.613.613 0 00-.352-.33z" fill="#4565D0" stroke="#4565D0" stroke-width=".3"/></svg>