<svg width="30" height="24" fill="none" xmlns="http://www.w3.org/2000/svg"><circle cx="15" cy="12" r="11.25" fill="#fff" stroke="#4565D0" stroke-width="1.5"/><path fill-rule="evenodd" clip-rule="evenodd" d="M22.834 9.52c-4.202-4.201-11.038-4.201-15.24 0a.568.568 0 00.802.802c3.759-3.76 9.875-3.76 13.636 0a.57.57 0 00.803 0 .566.566 0 00-.001-.802zM10 12.727a.568.568 0 010-.802c2.874-2.873 7.552-2.875 10.428 0a.568.568 0 01-.803.802 6.245 6.245 0 00-8.824 0 .568.568 0 01-.801 0zm7.218 2.406a2.838 2.838 0 00-4.01 0 .566.566 0 11-.801-.802 3.977 3.977 0 015.614 0 .568.568 0 01-.803.802zm-1.88 4.687a1.787 1.787 0 100-3.573 1.787 1.787 0 000 3.573z" fill="#4565D0"/></svg>