<svg width="32" height="20" fill="none" xmlns="http://www.w3.org/2000/svg"><path d="M29.46 7.178c-.351 0-.828.023-1.323.06-.044-1.23-.173-3.123-.564-4.294-.6-1.798-5.027-1.945-9.908-1.944-.901 0-1.405.412-1.683.83-.28-.418-.783-.83-1.685-.83-2.837 0-5.078 0-6.718.213-1.272.165-2.783.512-3.19 1.73C4 4.117 3.87 6.01 3.826 7.239a19.03 19.03 0 00-1.323-.06C1.4 7.178 1.001 8.076 1 8.68c0 .015 0 .03.002.045l1.123 9.53a.94.94 0 00.939.913h1.382c.12.292.386.562.867.562.509 0 .78-.308.886-.62a.941.941 0 00.616-.884v-.181h18.332v.181a.94.94 0 00.617.884c.106.313.378.62.887.62.48 0 .746-.27.866-.562h1.381a.94.94 0 00.94-.913l1.123-9.53.002-.045c0-.604-.4-1.502-1.503-1.502z" fill="#fff"/><path fill-rule="evenodd" clip-rule="evenodd" d="M28.137 7.238c.495-.037.972-.06 1.323-.06 1.103 0 1.502.898 1.502 1.502v.023l-.001.022-1.124 9.53a.94.94 0 01-.939.913h-1.38c-.121.292-.387.562-.867.562a.886.886 0 01-.887-.62.94.94 0 01-.617-.884v-.181H6.815v.181a.941.941 0 01-.616.884.886.886 0 01-.886.62c-.48 0-.747-.27-.867-.562H3.064a.94.94 0 01-.94-.913l-1.122-9.53A.41.41 0 011 8.68c.001-.604.4-1.502 1.503-1.502.352 0 .829.023 1.323.06.043-1.23.173-3.122.563-4.294.407-1.22 1.918-1.566 3.19-1.731C9.219.999 11.459.999 14.297 1c.902 0 1.405.412 1.685.83.278-.418.782-.83 1.683-.83 4.88-.001 9.309.146 9.908 1.944.391 1.171.52 3.063.564 4.294zM6.054 17.655V8.313C5.52 8.147 3.62 7.94 2.503 7.94c-.31 0-.512.107-.634.333a1.036 1.036 0 00-.108.394l1.12 9.516c.003.015.003.03.003.044 0 .1.081.182.18.182h2.81c.1 0 .18-.082.18-.182v-.572zm.833-7.94c.396.099.811.14 1.224.141l-.033.009c-.333.089-.375.107-.44.172-.258.202-.406.551-.449 1.07h-.374V9.633c.045.054.072.08.072.08zm1.198.938c-.063.076-.136.284-.145.7a.374.374 0 01.002.266c.007.164.02.354.046.57.087.724.256 1.408.278 1.493l.002.009a.358.358 0 01.013.096c0 .065.019.108.034.13h6.849a.228.228 0 00.034-.13.37.37 0 01.013-.096l.001-.004c.015-.06.19-.758.278-1.497.036-.299.049-.545.049-.746 0-.478-.078-.712-.146-.79-.295-.089-1.67-.471-3.654-.471-1.971 0-3.354.38-3.654.47zm17.062 6.63H6.815v-5.415h.379c.008.133.022.272.04.418.09.752.258 1.437.292 1.572.03.464.35.819.758.819h6.912c.401 0 .717-.345.755-.799.038.454.354.799.754.799h6.915c.406 0 .726-.355.757-.82l.004-.013c.039-.162.201-.828.286-1.558.018-.146.032-.287.041-.418h.439v5.415zm-8.638-6.63c-.068.08-.146.313-.146.79 0 .202.014.45.05.746.08.681.236 1.327.27 1.471l.005.017a.38.38 0 01.015.11c0 .065.02.108.035.129h6.85a.226.226 0 00.034-.13.36.36 0 01.012-.096c.003-.006.187-.731.278-1.5a6.51 6.51 0 00.05-.747c0-.477-.08-.71-.147-.79-.292-.088-1.668-.47-3.652-.47-1.972 0-3.355.38-3.654.47zm8.638-2.535v2.989h-.436c-.043-.55-.204-.91-.489-1.104.026.018.05.04.068.064a.548.548 0 00-.25-.14l-.215-.062a11.55 11.55 0 00-.808-.181c-.63-.12-1.633-.262-2.853-.262-1.22 0-2.227.142-2.856.262-.36.068-.638.136-.808.181-.333.09-.374.107-.441.173a.879.879 0 00-.106.1.875.875 0 00-.145-.128.41.41 0 01.06.057.557.557 0 00-.25-.14l-.216-.062c-.17-.045-.449-.113-.808-.181a15.471 15.471 0 00-3.888-.229c.457-.133.744-.247.744-.247 0-2.535-1.014-3.043-1.014-3.043-1.014-.506-3.09-.37-4.563.508 0 .298.023.573.06.827a11.673 11.673 0 00-.997-.156 18.131 18.131 0 00-.351-.038c.036-1.053.152-3 .525-4.122.475-1.425 3.937-1.424 9.176-1.424h.01c1.256 0 1.304 1.172 1.305 1.306V8.68a.38.38 0 00.762 0V3.067c0-.135.048-1.306 1.302-1.306 1.65 0 3.906 0 5.785.207 2.706.301 3.294.891 3.403 1.217.372 1.121.489 3.068.524 4.122-.12.011-.238.025-.351.038-.472.057-.852.12-1.13.185-.26.063-.749.18-.749.588zm3.933 10.108l.001-.044s1.113-9.456 1.119-9.516a1.01 1.01 0 00-.108-.394c-.12-.227-.322-.334-.632-.334-1.118 0-3.02.208-3.552.375v9.913c0 .1.082.181.181.181h2.81c.099 0 .18-.082.18-.181z" fill="#4565D0"/><path d="M28.137 7.238l-.15.005.006.156.156-.012-.012-.15zm2.825 1.465l.149.016V8.71l-.15-.008zm0 0l-.15-.016v.008l.15.008zm-.001.022l.149.018v-.018h-.15zm-1.124 9.53l-.15-.018v.014l.15.004zm-2.32.913v-.15h-.1l-.038.093.138.057zm-1.753-.058l.143-.048-.023-.069-.068-.024-.052.14zm-.617-1.065h.15v-.15h-.15v.15zm-18.332 0v-.15h-.15v.15h.15zm-.616 1.064l-.052-.14-.067.024-.023.068.142.049zm-1.753.059l.14-.057-.039-.093h-.1v.15zm-2.321-.913l.15-.004-.001-.014-.15.018zm-1.123-9.53l-.149.017.15-.017zM1 8.68H.85 1zm2.826-1.442l-.011.15.156.01.005-.155-.15-.005zm.563-4.294l-.142-.048.142.048zm3.19-1.731l-.02-.149.02.149zM14.297 1v.15V1zm1.685.83l-.125.084.125.187.125-.188-.125-.083zM17.665 1v.15V1zm9.908 1.944l-.143.047.143-.047zM6.054 17.647l.15.002.003-.152h-.153v.15zm0 .008l-.15-.003.15.003zm0-.008h-.15v.15h.15v-.15zm0-9.334h.15v-.11l-.105-.033-.045.143zm-4.185-.04l-.132-.071.132.07zm-.108.393l-.15-.009v.014l.001.013.15-.018zm1.12 9.516l-.149.018.001.006.148-.024zm3.173-.5h.15v-.002l-.15.003zm0-.01l.15-.002-.15.003zm0-.008l-.15-.003v.006l.15-.003zM8.11 9.856l.038.145-.037-.295v.15zm-1.224-.142l-.106.106.029.03.04.01.037-.146zm1.19.15L8.04 9.72l.039.146zm-.44.173l.093.118.007-.005.006-.006-.106-.107zm-.448 1.07v.15h.138l.012-.138-.15-.012zm-.374 0h-.15v.15h.15v-.15zm0-1.473l.115-.097-.265-.315v.412h.15zm1.125 1.719l-.15-.003v.03l.01.027.14-.054zm.145-.7l-.043-.143-.044.013-.029.035.116.095zm-.143.966l-.14-.053-.011.029.001.03.15-.006zm.046.57l.15-.017-.15.018zm.278 1.493l.145-.036-.145.036zm.002.009l-.146.035.001.005.145-.04zm.047.225l-.123.087.045.063h.078v-.15zm6.849 0v.15h.078l.044-.063-.122-.087zm.047-.225l.145.039v-.003l-.145-.036zm.001-.004l-.146-.037.146.037zm.278-1.497l.15.017-.15-.017zm-.097-1.537l.114-.097-.03-.034-.041-.013-.043.144zm-8.578 6.63h-.15v.15h.15v-.15zm18.332 0v.15h.15v-.15h-.15zM6.815 11.869v-.15h-.15v.15h.15zm.379 0l.15-.01-.01-.14h-.14v.15zm.04.418l.148-.018-.149.018zm.292 1.572l.15-.01-.001-.014-.004-.013-.145.037zm8.425.02l.15-.012h-.3l.15.012zm8.426-.02l-.145-.036-.003.013-.001.012.15.01zm.004-.014l-.146-.035.146.035zm.286-1.558l-.149-.018.15.018zm.041-.418v-.15h-.14l-.01.14.15.01zm.439 0h.15v-.15h-.15v.15zm-8.638-1.215l-.043-.144-.043.013-.028.034.114.097zm-.096 1.536l.149-.017-.15.017zm.27 1.471l.147-.035-.146.035zm.005.017l.146-.035-.146.035zm.003.013h-.15v.02l.005.018.145-.038zm.047.226l-.122.088.045.062h.076v-.15zm6.85 0v.15h.077l.045-.063-.123-.087zm.046-.226l-.131-.072-.01.016-.004.019.145.037zm.278-1.5l.15.017-.15-.018zm-.097-1.537l.114-.098-.028-.033-.043-.013-.043.144zm1.332.454v.15h.15v-.15h-.15zm-.436 0l-.15.012.011.138h.139v-.15zm-.489-1.104l.085-.124-.17.247.085-.123zm.068.064l-.11.102.228-.193-.118.091zm-.25-.14l.044-.144h-.002l-.041.144zm-.215-.062l.04-.144h-.002l-.038.144zm-.808-.181l-.028.147.028-.147zm-5.709 0l.028.147-.028-.147zm-.808.181l-.038-.145.038.145zm-.441.173l.094.117.006-.005.005-.005-.105-.107zm-.106.1l-.11.1.11.123.111-.123-.111-.1zm-.145-.128l.086-.123-.176.243.09-.12zm.06.057l-.11.102.222-.201-.112.1zm-.25-.14l.044-.144h-.003l-.041.144zm-.216-.062l.04-.144h-.002l-.038.144zm-.808-.181l-.028.147.028-.147zm-3.888-.229l-.042-.144.052.294-.01-.15zm.744-.247l.055.14.095-.038v-.102h-.15zm-1.014-3.043l.067-.134-.067.134zm-4.563.508l-.077-.13-.073.044v.086h.15zm.06.827l-.032.147.21.045-.03-.213-.149.021zm-.997-.156l.018-.149-.018.149zm-.351-.038l-.15-.005-.005.14.14.014.015-.149zm.525-4.122l-.142-.047.142.047zm9.176-1.424v-.15.15zm.01 0v.15-.15zm1.305 1.306h.15v-.001l-.15.001zm.762 0h-.15.15zm1.302-1.305v.15-.15zm5.785.207l.017-.149-.017.15zm3.403 1.217l.142-.047-.142.047zm.524 4.122l.014.149.14-.014-.004-.14-.15.005zm-.351.038l-.017-.15h-.002l.018.15zm-1.13.185l-.035-.146.035.146zm0 0l-.036-.145.035.146zm3.185 10.652l-.149-.018v.004l.15.014zM30.2 8.666l.15.014v-.022l-.15.008zm-.108-.394l-.133.07.133-.07zm-4.184.041l-.045-.143-.105.033v.11h.15zm3.552-1.285c-.356 0-.838.023-1.334.06l.023.3c.492-.038.965-.06 1.311-.06v-.3zm1.652 1.652c0-.33-.108-.74-.37-1.07-.265-.336-.684-.582-1.282-.582v.3c.505 0 .838.203 1.047.468.214.27.305.611.305.884h.3zm0 .031V8.68h-.3v.015l.3.016zm-.001.008l-.299-.032.299.032zm0 .006v-.014l-.3-.016a.526.526 0 000 .03h.3zm-1.125 9.548l1.124-9.53-.298-.035-1.124 9.53.298.035zm-1.088 1.045a1.09 1.09 0 001.09-1.059l-.3-.008a.79.79 0 01-.79.767v.3zm-1.38 0h1.38v-.3h-1.38v.3zm-.867.562c.55 0 .866-.316 1.005-.655l-.277-.114c-.102.246-.319.469-.728.469v.3zm-1.029-.723c.122.362.444.723 1.03.723v-.3c-.433 0-.657-.254-.745-.518l-.285.095zm-.625-.931c0 .472.299.872.716 1.024l.103-.281a.79.79 0 01-.519-.743h-.3zm0-.181v.181h.3v-.181h-.3zm-18.182.15h18.332v-.3H6.815v.3zm.15.031v-.181h-.3v.181h.3zm-.714 1.024c.415-.152.714-.553.714-1.024h-.3a.792.792 0 01-.518.743l.104.281zm-.938.63c.586 0 .905-.362 1.028-.722l-.284-.097c-.09.265-.313.519-.744.519v.3zm-1.006-.656c.139.34.455.656 1.006.656v-.3c-.41 0-.628-.223-.728-.469l-.278.113zm-1.243.094h1.382v-.3H3.064v.3zm-1.09-1.059a1.09 1.09 0 001.09 1.059v-.3a.79.79 0 01-.79-.767l-.3.008zM.855 8.743l1.122 9.53.298-.036-1.123-9.53-.298.036zM.85 8.68c0 .02 0 .04.003.062l.298-.034a.26.26 0 01-.001-.028h-.3zm1.653-1.652c-.597 0-1.016.246-1.282.581-.262.33-.37.74-.371 1.07l.3.001c0-.273.092-.614.306-.884.21-.265.542-.468 1.047-.468v-.3zm1.334.06c-.496-.037-.977-.06-1.334-.06v.3c.346 0 .82.022 1.312.06l.022-.3zm.41-4.192c-.398 1.196-.528 3.11-.57 4.336l.299.01c.043-1.23.173-3.102.556-4.251l-.285-.095zM7.56 1.064c-.638.083-1.352.213-1.96.482-.61.27-1.13.686-1.352 1.35l.285.095c.185-.555.623-.92 1.188-1.17.568-.251 1.245-.377 1.878-.46l-.039-.297zM14.297.85c-2.833 0-5.086 0-6.738.214l.039.298c1.628-.212 3.858-.213 6.699-.212v-.3zm1.81.897c-.304-.455-.852-.897-1.81-.897v.3c.846 0 1.305.382 1.56.764l.25-.167zM17.665.85c-.957 0-1.505.442-1.808.897l.25.166c.254-.381.713-.763 1.558-.763v-.3zm10.05 2.046c-.168-.505-.6-.876-1.194-1.15-.595-.276-1.373-.466-2.275-.597-1.804-.263-4.142-.3-6.581-.299v.3c2.442 0 4.758.036 6.538.296.89.13 1.636.314 2.192.571.558.258.904.58 1.035.974l.285-.095zm.572 4.336c-.044-1.227-.173-3.14-.572-4.336l-.285.095c.384 1.148.513 3.02.558 4.252l.3-.01zM5.904 17.644v.009l.3.005v-.009l-.3-.005zm.15.153v-.3.3zm-.15-9.484v9.334h.3V8.313h-.3zM2.503 8.09c.552 0 1.3.051 1.979.124.683.073 1.277.165 1.527.243l.09-.286c-.283-.088-.906-.183-1.585-.256a20.6 20.6 0 00-2.011-.125v.3zm-.501.254a.438.438 0 01.183-.19.673.673 0 01.318-.064v-.3a.969.969 0 00-.457.099.737.737 0 00-.309.314l.265.141zm-.09.331a.874.874 0 01.09-.331l-.265-.14a1.172 1.172 0 00-.125.454l.3.017zm.97 9.508l.148-.017v-.007l-.003-.02-.01-.08a23155.196 23155.196 0 00-1.107-9.41l-.298.036v.003l.001.006.003.023a199.089 199.089 0 01.047.394l.127 1.086.385 3.268.383 3.257.126 1.072.036.3.01.08.001.02.001.005v.001l.15-.017zm.152.044c0-.013 0-.04-.005-.067l-.296.047v.02h.3zm.03.032a.029.029 0 01-.02-.01.031.031 0 01-.01-.022h-.3c0 .182.148.332.33.332v-.3zm2.81 0h-2.81v.3h2.81v-.3zm.03-.032a.031.031 0 01-.03.032v.3a.33.33 0 00.33-.332h-.3zm0-.543v.543h.3v-.543h-.3zm0-.008v.01l.3-.005v-.01l-.3.005zm0-.008v.008l.3-.005v-.009l-.3.006zm0-.015v.01l.3.005v-.009l-.3-.006zm2.208-7.946a4.961 4.961 0 01-1.189-.137l-.073.29c.41.104.839.146 1.26.147l.002-.3zm.003.304l.034-.009-.075-.29-.034.008.075.291zm-.372.134c.02-.02.03-.029.07-.044.05-.02.135-.045.303-.09l-.077-.29a3.51 3.51 0 00-.337.1.455.455 0 00-.17.111l.21.213zm-.404.975c.04-.5.18-.799.39-.963l-.184-.237c-.305.24-.461.639-.505 1.175l.299.025zm-.524.138h.374v-.3h-.374v.3zm-.15-1.623v1.473h.3V9.633h-.3zm.222.08l.106-.106-.003-.003a.841.841 0 01-.06-.068l-.23.193a1.979 1.979 0 00.078.088l.002.001v.001l.107-.106zm1.203 1.642c.004-.2.024-.345.048-.445a.448.448 0 01.063-.162l-.232-.191a.709.709 0 00-.123.283c-.03.126-.051.293-.056.509l.3.006zm.025.131a.524.524 0 00-.035-.189l-.28.11c.01.022.015.05.015.08h.3zm-.032.185a.523.523 0 00.032-.185h-.3a.224.224 0 01-.013.08l.28.105zm.054.5a6.946 6.946 0 01-.045-.56l-.3.013c.007.167.02.362.048.583l.297-.037zm.274 1.474c-.02-.084-.188-.76-.274-1.474l-.298.035c.088.734.26 1.425.281 1.511l.291-.072zm.002.009l-.002-.009-.291.072.002.008.291-.071zm.018.132a.508.508 0 00-.019-.137l-.289.081a.19.19 0 01.008.056h.3zm.006.042c.003.005.001.003-.001-.005a.128.128 0 01-.005-.037h-.3c0 .093.027.168.061.216l.245-.174zm6.727-.063h-6.85v.3h6.85v-.3zm-.116.021a.13.13 0 01-.005.037c-.003.009-.004.01-.001.005l.244.174a.376.376 0 00.062-.216h-.3zm.018-.135a.521.521 0 00-.018.135h.3a.22.22 0 01.008-.057l-.29-.078zm0-.002v.005l.29.072.002-.004-.292-.073zm.275-1.478c-.087.73-.26 1.42-.274 1.478l.29.073c.016-.06.193-.767.282-1.516l-.298-.035zm.048-.728c0 .195-.013.435-.048.728l.298.035c.036-.303.05-.555.05-.763h-.3zm-.11-.693c.01.011.04.061.066.18.025.115.044.282.044.513h.3c0-.247-.02-.436-.051-.577a.724.724 0 00-.131-.311l-.228.195zm-3.54-.418c1.965 0 3.326.379 3.61.464l.087-.288c-.304-.09-1.694-.476-3.697-.476v.3zm-3.61.464c.29-.087 1.657-.464 3.61-.464v-.3c-1.99 0-3.388.383-3.697.477l.086.287zm-1.314 6.636h18.332v-.3H6.815v.3zm-.15-5.565v5.415h.3v-5.415h-.3zm.529-.15h-.38v.3h.38v-.3zm.188.55a7.5 7.5 0 01-.039-.41l-.299.02c.009.136.022.277.04.426l.298-.036zm.29 1.553c-.034-.133-.2-.81-.29-1.553l-.298.036c.092.762.262 1.453.296 1.59l.291-.073zm.612.706c-.31 0-.582-.272-.608-.68l-.3.02c.035.522.4.96.908.96v-.3zm6.912 0H8.284v.3h6.912v-.3zm.606-.661c-.033.396-.302.66-.606.66v.3c.499 0 .862-.425.905-.935l-.3-.025zm.903.66c-.303 0-.572-.264-.604-.66l-.3.024c.043.51.406.937.904.937v-.3zm6.915 0h-6.915v.3h6.915v-.3zm.608-.679c-.028.408-.3.68-.608.68v.3c.506 0 .871-.438.907-.96l-.3-.02zm.007-.038l-.003.013.291.07.003-.012-.291-.071zm.283-1.54c-.084.72-.244 1.38-.283 1.54l.291.07c.04-.162.204-.836.29-1.575l-.298-.035zm.04-.412a8.114 8.114 0 01-.04.411l.298.036a7.85 7.85 0 00.042-.426l-.3-.02zm.589-.14h-.439v.3h.439v-.3zm.15 5.566v-5.415h-.3v5.415h.3zm-8.784-5.84c0-.23.019-.397.044-.511a.48.48 0 01.067-.183l-.23-.193a.732.732 0 00-.13.311c-.03.141-.051.33-.051.576h.3zm.048.728a6.161 6.161 0 01-.048-.728h-.3c0 .21.014.463.05.764l.298-.036zm.269 1.454a13.13 13.13 0 01-.268-1.453l-.298.035c.082.69.239 1.343.274 1.489l.292-.07zm.004.017l-.004-.017-.292.07.004.017.292-.07zm.007.048l-.001-.02-.001-.006-.001-.005-.002-.006-.002-.01-.292.07a.103.103 0 010-.009l-.001-.014h.3zm.012.097a.536.536 0 00-.017-.134l-.29.075a.233.233 0 01.007.059h.3zm.006.04c.003.004 0 .003-.002-.005a.115.115 0 01-.004-.035h-.3c0 .095.029.17.063.217l.243-.176zm6.728-.061h-6.85v.3h6.85v-.3zm-.115.02a.116.116 0 01-.005.036c-.002.008-.004.01-.002.007l.245.174a.376.376 0 00.062-.216h-.3zm.017-.133a.531.531 0 00-.017.134h.3a.23.23 0 01.007-.06l-.29-.074zm.274-1.481a12.218 12.218 0 01-.273 1.474l.001-.002a.135.135 0 01.012-.027l.262.146a.135.135 0 00.008-.016l.002-.006a.069.069 0 00.002-.006l.002-.006a.81.81 0 00.003-.01l.006-.027a12.508 12.508 0 00.099-.436c.058-.28.128-.659.174-1.05l-.298-.034zm.048-.729c0 .195-.013.435-.048.729l.298.035c.036-.303.05-.555.05-.764h-.3zm-.11-.693a.48.48 0 01.066.181c.025.115.044.281.044.512h.3c0-.246-.02-.435-.05-.576a.727.727 0 00-.132-.312l-.228.195zm-3.538-.418c1.966 0 3.326.38 3.61.464l.085-.287c-.302-.09-1.692-.476-3.695-.476v.3zm-3.61.464c.288-.087 1.657-.463 3.61-.463v-.3c-1.99 0-3.39.383-3.697.476l.087.287zm8.744.31V8.119h-.3v2.989h.3zm-.586.15h.436v-.3h-.436v.3zm-.573-1.13c.23.158.382.462.423.993l.3-.024c-.045-.569-.215-.984-.554-1.216l-.17.248zm.27-.15a.468.468 0 00-.1-.096l-.172.246c.013.01.026.021.035.033l.237-.183zm-.41.094c.052.016.13.043.181.099l.22-.203c-.112-.123-.262-.167-.315-.183l-.087.287zm-.215-.06l.217.061.082-.289-.216-.061-.082.288zm-.794-.179c.356.068.63.135.797.18l.077-.29a11.716 11.716 0 00-.818-.185l-.056.295zm-2.825-.26c1.209 0 2.202.142 2.825.26l.056-.295a15.605 15.605 0 00-2.881-.264v.3zm-2.828.26c.622-.119 1.62-.26 2.828-.26v-.3a15.61 15.61 0 00-2.884.265l.056.295zm-.797.18c.167-.045.441-.112.797-.18l-.056-.295c-.363.07-.645.138-.818.184l.077.29zm-.375.134a.168.168 0 01.07-.045c.051-.02.136-.045.305-.09l-.077-.29a3.472 3.472 0 00-.337.1.461.461 0 00-.171.11l.21.215zm-.1.093a.736.736 0 01.089-.083l-.188-.234a1.035 1.035 0 00-.124.116l.223.2zm-.342-.105c.043.03.083.065.12.106l.222-.203a1.023 1.023 0 00-.17-.149l-.172.246zm.258-.165a.55.55 0 00-.082-.078l-.18.24c.01.008.022.019.038.037l.224-.2zm-.406.102a.413.413 0 01.184.1l.22-.205c-.114-.122-.265-.166-.316-.182l-.088.287zm-.213-.06l.216.061.082-.289-.216-.061-.082.288zm-.795-.179c.355.068.63.135.797.18l.077-.29a11.763 11.763 0 00-.818-.185l-.056.295zm-2.827-.26c1.21 0 2.205.142 2.827.26l.056-.295a15.62 15.62 0 00-2.883-.264v.3zm-1.023.034c.32-.02.661-.033 1.024-.033v-.3c-.37 0-.719.013-1.043.034l.019.299zm.734-.397l-.056-.14-.003.002-.009.003a5.213 5.213 0 01-.183.067c-.126.045-.31.106-.535.171l.085.288a10.86 10.86 0 00.752-.25l.003-.001h.001l-.056-.14zm-1.014-3.043l-.068.134a.2.2 0 01.027.017c.022.015.056.04.098.079.084.076.2.207.32.415.238.416.487 1.15.486 2.398h.3c.001-1.288-.257-2.075-.526-2.547a2.006 2.006 0 00-.377-.488 1.178 1.178 0 00-.186-.138l-.004-.003h-.002c-.001-.001-.001-.001-.068.133zm-4.487.636c.715-.425 1.58-.673 2.392-.752.816-.079 1.556.015 2.028.25l.134-.268c-.542-.27-1.347-.362-2.19-.28-.849.082-1.758.34-2.517.793l.153.257zm.132.678a5.636 5.636 0 01-.058-.806h-.3c0 .306.023.588.061.849l.297-.043zm-1.163.014c.398.048.727.1.983.154l.063-.293c-.268-.057-.607-.11-1.01-.159l-.036.298zm-.348-.038c.12.012.235.025.349.038l.034-.298a18.294 18.294 0 00-.354-.038l-.029.298zm.398-4.318C4.587 4.282 4.47 6.252 4.435 7.3l.3.01c.036-1.057.152-2.982.517-4.08l-.284-.094zm9.318-1.527c-2.615 0-4.8 0-6.391.179-.795.09-1.453.225-1.946.433-.493.21-.843.501-.981.915l.284.095c.1-.3.361-.542.814-.733.453-.192 1.078-.324 1.863-.412 1.569-.177 3.734-.177 6.357-.177v-.3zm.01 0h-.01v.3h.01v-.3zm1.455 1.455c0-.076-.013-.432-.2-.774a1.254 1.254 0 00-.443-.473 1.515 1.515 0 00-.812-.208v.3c.29 0 .5.068.655.163a.955.955 0 01.336.362c.152.277.164.574.164.633l.3-.003zm0 5.615V3.066h-.3V8.68h.3zm.231.23a.23.23 0 01-.23-.23h-.3c0 .291.236.53.53.53v-.3zm.23-.23c0 .126-.104.23-.23.23v.3c.29 0 .53-.238.53-.53h-.3zm0-5.613V8.68h.3V3.067h-.3zm1.453-1.456c-.338 0-.604.08-.811.208a1.26 1.26 0 00-.442.473 1.758 1.758 0 00-.2.774l.3.001c0-.057.012-.354.164-.632a.953.953 0 01.336-.361c.154-.096.364-.163.653-.163v-.3zm5.802.208c-1.889-.209-4.154-.209-5.802-.208v.3c1.652 0 3.9 0 5.768.206l.034-.298zm3.528 1.319c-.072-.219-.289-.473-.808-.707-.519-.235-1.36-.46-2.72-.612l-.034.298c1.346.15 2.152.37 2.63.587.48.217.612.42.647.528l.285-.094zm.532 4.164c-.035-1.05-.152-3.02-.532-4.164l-.285.094c.364 1.097.482 3.023.517 4.08l.3-.01zm-.485.192c.114-.013.23-.026.35-.038l-.03-.299c-.121.012-.24.026-.353.039l.034.298zm-1.111.182c.27-.064.644-.126 1.113-.182l-.037-.298c-.474.057-.86.12-1.146.188l.07.292zm0 0l-.07-.291.07.291zm-.634.442c0-.13.072-.22.201-.293.133-.076.3-.117.433-.149l-.07-.291c-.128.03-.336.08-.512.18-.18.102-.352.275-.352.553h.3zm3.635 10.05c-.002.023-.002.044-.002.058h.3v-.03l-.298-.028zm1.119-9.517a3.201 3.201 0 00-.014.114l-.036.31-.127 1.085-.385 3.269-.383 3.257-.126 1.072-.035.3-.01.08-.002.02v.006l.148.018.15.017v-.007l.002-.02.01-.079.035-.3.126-1.072.383-3.257c.279-2.37.56-4.752.562-4.784l-.299-.029zm-.091-.309a.86.86 0 01.09.331l.3-.015a1.157 1.157 0 00-.126-.456l-.265.14zm-.5-.254c.139 0 .24.024.317.065.075.04.135.1.182.19l.265-.141a.732.732 0 00-.307-.314.967.967 0 00-.457-.1v.3zm-3.507.368c.25-.078.844-.17 1.527-.244a20.329 20.329 0 011.98-.124v-.3c-.566 0-1.327.053-2.011.126-.68.073-1.303.167-1.586.256l.09.286zm.105 9.77V8.313h-.3v9.913h.3zm.031.031a.032.032 0 01-.031-.031h-.3c0 .182.149.331.331.331v-.3zm2.81 0h-2.81v.3h2.81v-.3zm.03-.031a.032.032 0 01-.03.031v.3a.332.332 0 00.33-.331h-.3z" fill="#4565D0"/></svg>