<svg width="43" height="24" fill="none" xmlns="http://www.w3.org/2000/svg"><mask id="a" maskUnits="userSpaceOnUse" x=".146" y="-.017" width="42" height="24" fill="#000"><path fill="#fff" d="M.146-.017h42v24h-42z"/><path d="M1.604 9.295l.25 4.835c.024.444.242.48.663.598l26.788 7.57c1.611.456 2.563.368 3.474-1.08.406-.645 5.922-9.672 7.561-12.354.394-.645.776-1.103.81-1.893l.105-2.451c-2.522 3.43-5.303 6.838-7.924 10.213-.693 1.001-1.988 1.088-3.248.926-1.121-.144-2.328-.47-3.441-.716L2.507 9.593c-.31-.068-.62-.15-.903-.298zm27.67 7.903c-.075.084-.206-.027-.131-.111l.328-.374c.074-.085.205.026.13.11l-.328.375zm-1.253-.29c-.075.085-.205-.026-.13-.11l.327-.375c.075-.084.205.027.13.111l-.327.375zm-1.253-.289c-.074.085-.205-.026-.13-.11l.327-.375c.075-.085.206.027.131.111l-.328.374zm-1.253-.29c-.074.085-.205-.026-.13-.11l.328-.375c.074-.084.205.027.13.112l-.328.374zm-1.252-.288c-.075.084-.205-.027-.131-.112l.328-.374c.074-.084.205.027.13.111l-.327.375zm-1.253-.29c-.075.085-.205-.027-.13-.111l.327-.374c.075-.085.205.027.131.11l-.328.375zm-1.253-.29c-.074.085-.205-.026-.13-.11l.328-.375c.074-.084.205.027.13.111l-.328.375zm-1.253-.289c-.074.085-.205-.026-.13-.11l.328-.375c.074-.084.205.027.13.111l-.328.374zm-1.252-.289c-.075.084-.205-.027-.131-.111l.328-.374c.074-.085.205.026.13.11l-.327.375zm-1.253-.29c-.074.085-.205-.026-.13-.11l.327-.375c.075-.084.205.027.131.111l-.328.375zm-1.253-.289c-.074.085-.205-.027-.13-.11l.328-.375c.074-.085.205.027.13.11l-.328.375zm-1.253-.29c-.074.085-.205-.026-.13-.11l.328-.375c.074-.084.205.027.13.111l-.328.375zm-1.252-.288c-.075.084-.205-.027-.131-.112l.328-.374c.074-.084.205.027.13.111l-.327.374zm-1.253-.29c-.074.084-.205-.027-.13-.111l.327-.374c.075-.085.205.026.131.11l-.328.375zm-1.253-.29c-.074.085-.205-.026-.13-.11l.328-.375c.074-.084.205.027.13.111l-.328.375zm-1.252-.289c-.075.085-.206-.026-.131-.11l.328-.375c.074-.085.205.027.13.111l-.328.374zm-1.253-.29c-.075.085-.205-.026-.131-.11l.328-.375c.074-.084.205.027.13.112l-.327.374zm-1.253-.288c-.074.084-.205-.027-.13-.112l.327-.374c.075-.084.205.027.131.111l-.328.375zm-1.253-.29c-.074.084-.205-.027-.13-.11l.328-.375c.074-.085.205.027.13.11l-.328.375zm-1.252-.29c-.075.085-.205-.026-.131-.11l.328-.375c.074-.084.205.027.13.111l-.327.375zm-1.253-.289c-.074.085-.205-.026-.13-.11l.327-.375c.075-.084.205.027.13.111l-.327.374zm-1.253-.289c-.074.084-.205-.027-.13-.111l.328-.374c.074-.085.204.026.13.11l-.328.375zm28.467 6.156c0-.169.26-.169.26 0v3.66c0 .168-.26.168-.26 0v-3.66zm6.32-14.483l3.322 1.233c.048-.073.1-.156.136-.235.352-.752-1.346-.8-1.872-.85l-1.586-.148zM41.026 4.1l-3.6-1.337-2.748-.257 5.808 2.312c.183-.235.372-.472.54-.718zm-.595.788l-6.055-2.41-2.498-.234 7.964 3.403.59-.759zm-.643.829L31.6 2.218l-2.311-.216 9.866 4.53.633-.815zm-.686.884l-10.07-4.623-2.148-.201 11.537 5.7.68-.876zm-.734.946L26.647 1.755l-2.007-.188 12.996 6.922.732-.942zm-.785 1.01L24.42 1.547c-.61-.058-1.18-.105-1.795-.127l14.17 8.151.788-1.014zm-.84 1.082L22.445 1.415a4.473 4.473 0 00-1.3.134l14.75 9.183.848-1.093zm-.9 1.16l-14.81-9.22c-.342.096-.671.214-1.005.332l14.9 10.066.914-1.178zm-.968 1.245L19.928 1.946l-1.013.36L33.89 13.315l.986-1.27zm-1.038 1.338L18.818 2.34l-1.047.371L32.76 14.746c.35-.332.787-.99 1.078-1.364zm-1.143 1.422L17.676 2.744l-1.08.384 13.782 12.136c.887.088 1.752.02 2.316-.46zm-2.464.444L16.503 3.16l-1.115.395 11.298 10.962c1.137.252 2.4.595 3.544.73zm-3.703-.766L15.298 3.588l-1.15.408 9.073 9.754 3.306.732zm-3.453-.765l-9.014-9.69-1.184.42 7.17 8.599 3.028.671zm-3.166-.702l-7.119-8.537-1.22.432 5.55 7.487 2.789.618zm-2.916-.646L11.484 4.94l-1.255.445 4.184 6.412 2.579.572zm-2.7-.598l-4.147-6.356-1.291.458 3.044 5.367 2.395.53zm-2.507-.556L8.772 5.902l-1.328.47 2.11 4.348 2.231.495zm-2.339-.518L7.362 6.402l-1.343.476 1.369 3.362 2.058.457zm-2.16-.48c-.449-1.103-.898-2.207-1.349-3.31l-1.42.503.781 2.367 1.988.44zM5.2 9.756L4.436 7.44l-1.437.51.36 1.398 1.841.408zm-1.937-.429l-.346-1.348c-.349.123-1.806.55-1.062.945.39.207 1.05.323 1.408.403zm-2.116-.51c-.012-.76 1.008-1.02 1.632-1.24l17.056-6.048c1.8-.68 2.627-.591 4.338-.431L39.38 2.52c.9.084 2.433.05 2.347 1.195l-.144 3.275c-.04.887-.428 1.365-.872 2.092a5738.807 5738.807 0 01-7.564 12.358c-1.01 1.604-2.144 1.781-3.938 1.274l-26.81-7.576c-.583-.165-.94-.294-.975-.963l-.277-5.359z"/></mask><path d="M1.604 9.295l.25 4.835c.024.444.242.48.663.598l26.788 7.57c1.611.456 2.563.368 3.474-1.08.406-.645 5.922-9.672 7.561-12.354.394-.645.776-1.103.81-1.893l.105-2.451c-2.522 3.43-5.303 6.838-7.924 10.213-.693 1.001-1.988 1.088-3.248.926-1.121-.144-2.328-.47-3.441-.716L2.507 9.593c-.31-.068-.62-.15-.903-.298zm27.67 7.903c-.075.084-.206-.027-.131-.111l.328-.374c.074-.085.205.026.13.11l-.328.375zm-1.253-.29c-.075.085-.205-.026-.13-.11l.327-.375c.075-.084.205.027.13.111l-.327.375zm-1.253-.289c-.074.085-.205-.026-.13-.11l.327-.375c.075-.085.206.027.131.111l-.328.374zm-1.253-.29c-.074.085-.205-.026-.13-.11l.328-.375c.074-.084.205.027.13.112l-.328.374zm-1.252-.288c-.075.084-.205-.027-.131-.112l.328-.374c.074-.084.205.027.13.111l-.327.375zm-1.253-.29c-.075.085-.205-.027-.13-.111l.327-.374c.075-.085.205.027.131.11l-.328.375zm-1.253-.29c-.074.085-.205-.026-.13-.11l.328-.375c.074-.084.205.027.13.111l-.328.375zm-1.253-.289c-.074.085-.205-.026-.13-.11l.328-.375c.074-.084.205.027.13.111l-.328.374zm-1.252-.289c-.075.084-.205-.027-.131-.111l.328-.374c.074-.085.205.026.13.11l-.327.375zm-1.253-.29c-.074.085-.205-.026-.13-.11l.327-.375c.075-.084.205.027.131.111l-.328.375zm-1.253-.289c-.074.085-.205-.027-.13-.11l.328-.375c.074-.085.205.027.13.11l-.328.375zm-1.253-.29c-.074.085-.205-.026-.13-.11l.328-.375c.074-.084.205.027.13.111l-.328.375zm-1.252-.288c-.075.084-.205-.027-.131-.112l.328-.374c.074-.084.205.027.13.111l-.327.374zm-1.253-.29c-.074.084-.205-.027-.13-.111l.327-.374c.075-.085.205.026.131.11l-.328.375zm-1.253-.29c-.074.085-.205-.026-.13-.11l.328-.375c.074-.084.205.027.13.111l-.328.375zm-1.252-.289c-.075.085-.206-.026-.131-.11l.328-.375c.074-.085.205.027.13.111l-.328.374zm-1.253-.29c-.075.085-.205-.026-.131-.11l.328-.375c.074-.084.205.027.13.112l-.327.374zm-1.253-.288c-.074.084-.205-.027-.13-.112l.327-.374c.075-.084.205.027.131.111l-.328.375zm-1.253-.29c-.074.084-.205-.027-.13-.11l.328-.375c.074-.085.205.027.13.11l-.328.375zm-1.252-.29c-.075.085-.205-.026-.131-.11l.328-.375c.074-.084.205.027.13.111l-.327.375zm-1.253-.289c-.074.085-.205-.026-.13-.11l.327-.375c.075-.084.205.027.13.111l-.327.374zm-1.253-.289c-.074.084-.205-.027-.13-.111l.328-.374c.074-.085.204.026.13.11l-.328.375zm28.467 6.156c0-.169.26-.169.26 0v3.66c0 .168-.26.168-.26 0v-3.66zm6.32-14.483l3.322 1.233c.048-.073.1-.156.136-.235.352-.752-1.346-.8-1.872-.85l-1.586-.148zM41.026 4.1l-3.6-1.337-2.748-.257 5.808 2.312c.183-.235.372-.472.54-.718zm-.595.788l-6.055-2.41-2.498-.234 7.964 3.403.59-.759zm-.643.829L31.6 2.218l-2.311-.216 9.866 4.53.633-.815zm-.686.884l-10.07-4.623-2.148-.201 11.537 5.7.68-.876zm-.734.946L26.647 1.755l-2.007-.188 12.996 6.922.732-.942zm-.785 1.01L24.42 1.547c-.61-.058-1.18-.105-1.795-.127l14.17 8.151.788-1.014zm-.84 1.082L22.445 1.415a4.473 4.473 0 00-1.3.134l14.75 9.183.848-1.093zm-.9 1.16l-14.81-9.22c-.342.096-.671.214-1.005.332l14.9 10.066.914-1.178zm-.968 1.245L19.928 1.946l-1.013.36L33.89 13.315l.986-1.27zm-1.038 1.338L18.818 2.34l-1.047.371L32.76 14.746c.35-.332.787-.99 1.078-1.364zm-1.143 1.422L17.676 2.744l-1.08.384 13.782 12.136c.887.088 1.752.02 2.316-.46zm-2.464.444L16.503 3.16l-1.115.395 11.298 10.962c1.137.252 2.4.595 3.544.73zm-3.703-.766L15.298 3.588l-1.15.408 9.073 9.754 3.306.732zm-3.453-.765l-9.014-9.69-1.184.42 7.17 8.599 3.028.671zm-3.166-.702l-7.119-8.537-1.22.432 5.55 7.487 2.789.618zm-2.916-.646L11.484 4.94l-1.255.445 4.184 6.412 2.579.572zm-2.7-.598l-4.147-6.356-1.291.458 3.044 5.367 2.395.53zm-2.507-.556L8.772 5.902l-1.328.47 2.11 4.348 2.231.495zm-2.339-.518L7.362 6.402l-1.343.476 1.369 3.362 2.058.457zm-2.16-.48c-.449-1.103-.898-2.207-1.349-3.31l-1.42.503.781 2.367 1.988.44zM5.2 9.756L4.436 7.44l-1.437.51.36 1.398 1.841.408zm-1.937-.429l-.346-1.348c-.349.123-1.806.55-1.062.945.39.207 1.05.323 1.408.403zm-2.116-.51c-.012-.76 1.008-1.02 1.632-1.24l17.056-6.048c1.8-.68 2.627-.591 4.338-.431L39.38 2.52c.9.084 2.433.05 2.347 1.195l-.144 3.275c-.04.887-.428 1.365-.872 2.092a5738.807 5738.807 0 01-7.564 12.358c-1.01 1.604-2.144 1.781-3.938 1.274l-26.81-7.576c-.583-.165-.94-.294-.975-.963l-.277-5.359z" fill="#7EB325"/><path d="M1.604 9.295l.25 4.835c.024.444.242.48.663.598l26.788 7.57c1.611.456 2.563.368 3.474-1.08.406-.645 5.922-9.672 7.561-12.354.394-.645.776-1.103.81-1.893l.105-2.451c-2.522 3.43-5.303 6.838-7.924 10.213-.693 1.001-1.988 1.088-3.248.926-1.121-.144-2.328-.47-3.441-.716L2.507 9.593c-.31-.068-.62-.15-.903-.298zm27.67 7.903c-.075.084-.206-.027-.131-.111l.328-.374c.074-.085.205.026.13.11l-.328.375zm-1.253-.29c-.075.085-.205-.026-.13-.11l.327-.375c.075-.084.205.027.13.111l-.327.375zm-1.253-.289c-.074.085-.205-.026-.13-.11l.327-.375c.075-.085.206.027.131.111l-.328.374zm-1.253-.29c-.074.085-.205-.026-.13-.11l.328-.375c.074-.084.205.027.13.112l-.328.374zm-1.252-.288c-.075.084-.205-.027-.131-.112l.328-.374c.074-.084.205.027.13.111l-.327.375zm-1.253-.29c-.075.085-.205-.027-.13-.111l.327-.374c.075-.085.205.027.131.11l-.328.375zm-1.253-.29c-.074.085-.205-.026-.13-.11l.328-.375c.074-.084.205.027.13.111l-.328.375zm-1.253-.289c-.074.085-.205-.026-.13-.11l.328-.375c.074-.084.205.027.13.111l-.328.374zm-1.252-.289c-.075.084-.205-.027-.131-.111l.328-.374c.074-.085.205.026.13.11l-.327.375zm-1.253-.29c-.074.085-.205-.026-.13-.11l.327-.375c.075-.084.205.027.131.111l-.328.375zm-1.253-.289c-.074.085-.205-.027-.13-.11l.328-.375c.074-.085.205.027.13.11l-.328.375zm-1.253-.29c-.074.085-.205-.026-.13-.11l.328-.375c.074-.084.205.027.13.111l-.328.375zm-1.252-.288c-.075.084-.205-.027-.131-.112l.328-.374c.074-.084.205.027.13.111l-.327.374zm-1.253-.29c-.074.084-.205-.027-.13-.111l.327-.374c.075-.085.205.026.131.11l-.328.375zm-1.253-.29c-.074.085-.205-.026-.13-.11l.328-.375c.074-.084.205.027.13.111l-.328.375zm-1.252-.289c-.075.085-.206-.026-.131-.11l.328-.375c.074-.085.205.027.13.111l-.328.374zm-1.253-.29c-.075.085-.205-.026-.131-.11l.328-.375c.074-.084.205.027.13.112l-.327.374zm-1.253-.288c-.074.084-.205-.027-.13-.112l.327-.374c.075-.084.205.027.131.111l-.328.375zm-1.253-.29c-.074.084-.205-.027-.13-.11l.328-.375c.074-.085.205.027.13.11l-.328.375zm-1.252-.29c-.075.085-.205-.026-.131-.11l.328-.375c.074-.084.205.027.13.111l-.327.375zm-1.253-.289c-.074.085-.205-.026-.13-.11l.327-.375c.075-.084.205.027.13.111l-.327.374zm-1.253-.289c-.074.084-.205-.027-.13-.111l.328-.374c.074-.085.204.026.13.11l-.328.375zm28.467 6.156c0-.169.26-.169.26 0v3.66c0 .168-.26.168-.26 0v-3.66zm6.32-14.483l3.322 1.233c.048-.073.1-.156.136-.235.352-.752-1.346-.8-1.872-.85l-1.586-.148zM41.026 4.1l-3.6-1.337-2.748-.257 5.808 2.312c.183-.235.372-.472.54-.718zm-.595.788l-6.055-2.41-2.498-.234 7.964 3.403.59-.759zm-.643.829L31.6 2.218l-2.311-.216 9.866 4.53.633-.815zm-.686.884l-10.07-4.623-2.148-.201 11.537 5.7.68-.876zm-.734.946L26.647 1.755l-2.007-.188 12.996 6.922.732-.942zm-.785 1.01L24.42 1.547c-.61-.058-1.18-.105-1.795-.127l14.17 8.151.788-1.014zm-.84 1.082L22.445 1.415a4.473 4.473 0 00-1.3.134l14.75 9.183.848-1.093zm-.9 1.16l-14.81-9.22c-.342.096-.671.214-1.005.332l14.9 10.066.914-1.178zm-.968 1.245L19.928 1.946l-1.013.36L33.89 13.315l.986-1.27zm-1.038 1.338L18.818 2.34l-1.047.371L32.76 14.746c.35-.332.787-.99 1.078-1.364zm-1.143 1.422L17.676 2.744l-1.08.384 13.782 12.136c.887.088 1.752.02 2.316-.46zm-2.464.444L16.503 3.16l-1.115.395 11.298 10.962c1.137.252 2.4.595 3.544.73zm-3.703-.766L15.298 3.588l-1.15.408 9.073 9.754 3.306.732zm-3.453-.765l-9.014-9.69-1.184.42 7.17 8.599 3.028.671zm-3.166-.702l-7.119-8.537-1.22.432 5.55 7.487 2.789.618zm-2.916-.646L11.484 4.94l-1.255.445 4.184 6.412 2.579.572zm-2.7-.598l-4.147-6.356-1.291.458 3.044 5.367 2.395.53zm-2.507-.556L8.772 5.902l-1.328.47 2.11 4.348 2.231.495zm-2.339-.518L7.362 6.402l-1.343.476 1.369 3.362 2.058.457zm-2.16-.48c-.449-1.103-.898-2.207-1.349-3.31l-1.42.503.781 2.367 1.988.44zM5.2 9.756L4.436 7.44l-1.437.51.36 1.398 1.841.408zm-1.937-.429l-.346-1.348c-.349.123-1.806.55-1.062.945.39.207 1.05.323 1.408.403zm-2.116-.51c-.012-.76 1.008-1.02 1.632-1.24l17.056-6.048c1.8-.68 2.627-.591 4.338-.431L39.38 2.52c.9.084 2.433.05 2.347 1.195l-.144 3.275c-.04.887-.428 1.365-.872 2.092a5738.807 5738.807 0 01-7.564 12.358c-1.01 1.604-2.144 1.781-3.938 1.274l-26.81-7.576c-.583-.165-.94-.294-.975-.963l-.277-5.359z" stroke="#7EB325" stroke-width=".6" mask="url(#a)"/></svg>