<svg width="40" height="36" fill="none" xmlns="http://www.w3.org/2000/svg"><mask id="a" maskUnits="userSpaceOnUse" x="-.163" y="-.317" width="40" height="36" fill="#000"><path fill="#fff" d="M-.163-.317h40v36h-40z"/><path d="M.856 22.985c.007.012.012.022.023.03.004.003.004.008.009.01l.541.309a.105.105 0 00.051.013.107.107 0 00.051-.014l.536-.308c.004-.003.005-.008.008-.01a.091.091 0 00.023-.03c.007-.012.013-.021.014-.034 0-.005.006-.008.006-.012v-2.907l19.808 11.275v3.64c0 .004.005.007.006.012.002.013.008.023.014.034.007.012.012.022.023.03.005.003.005.008.01.01l.534.302a.102.102 0 00.1 0l.543-.302c.005-.002.005-.008.008-.01a.08.08 0 00.023-.03.086.086 0 00.015-.034c0-.005.005-.008.005-.013v-3.639l14.396-8.195v2.907c0 .005.005.008.006.013.002.013.008.023.014.034a.1.1 0 00.024.03c.004.002.004.008.008.01l.536.302a.101.101 0 00.1 0l.542-.302c.005-.002.005-.008.008-.01a.082.082 0 00.024-.03.088.088 0 00.014-.034c0-.005.006-.009.006-.013v-8.003c0-.005-.005-.008-.005-.013a.127.127 0 00-.007-.024c-.002-.004.001-.009-.001-.013-.003-.004-.009-.005-.012-.008a.086.086 0 00-.018-.018c-.004-.004-.004-.009-.008-.011l-.542-.308c-.005-.003-.01 0-.014-.002a.073.073 0 00-.036-.005c-.014 0-.026 0-.038.005-.005.002-.01 0-.013.002l-.485.278-10.174-5.796v-.002c0-.006.005-.009.005-.014 0-.01-.007-.015-.01-.024-.002-.008.002-.016-.002-.024-.003-.005-.009-.006-.011-.01a.088.088 0 00-.03-.023.087.087 0 00-.035-.014c-.005 0-.008-.006-.013-.006h-.114L22.77 9.39c-.001-.01-.001-.018-.004-.027-.002-.004 0-.008-.001-.01l-.002-.002c-.005-.008-.015-.012-.022-.02-.007-.006-.008-.016-.017-.02L17.86 6.536c-.005-.003-.01 0-.016-.002a.097.097 0 00-.024-.008c-.004 0-.007-.004-.011-.004l-.007.002v-5.44c0-.005-.004-.008-.005-.013a.086.086 0 00-.006-.024c-.002-.005 0-.01-.002-.014-.003-.005-.008-.005-.011-.009a.081.081 0 00-.018-.017c-.004-.003-.004-.008-.009-.01L17.21.688c-.005-.002-.01 0-.014-.002-.013-.005-.024-.004-.038-.004-.013 0-.025 0-.037.004-.005.002-.01 0-.014.002l-.542.308c-.004.003-.004.008-.008.011a.08.08 0 00-.018.017c-.003.004-.008.004-.01.009-.003.004 0 .009-.002.014a.082.082 0 00-.007.024c0 .005-.005.008-.005.013v1.174L2.118 10.454v-.442c0-.005-.005-.007-.006-.012a.089.089 0 00-.006-.025c-.003-.005 0-.01-.003-.014-.002-.004-.007-.004-.01-.008a.079.079 0 00-.018-.017c-.003-.003-.004-.009-.008-.01l-.535-.309c-.005-.002-.01 0-.014-.002-.012-.005-.024-.005-.037-.005-.014 0-.025 0-.038.005-.004.001-.01-.001-.014.001l-.541.309c-.005.002-.005.008-.01.01a.079.079 0 00-.017.018c-.002.003-.008.004-.01.008-.003.005 0 .009-.002.014a.084.084 0 00-.007.024c0 .005-.005.008-.005.013v12.926c0 .005.004.008.005.012a.072.072 0 00.014.035zm1.058-.105l-.332.191V19.73l.332.187v2.964zm20.012 8.195L2.066 19.77l-.484-.273v-3.464l20.345 11.584v3.458zm.536 4l-.331-.188v-7.771l.331.187v7.771zm.103-7.946l-.332-.187.331-.191.336.19-.335.188zm.439.43v7.329l-.338.188v-7.773l.338-.188v.444zm15.136-1.412l-.332-.187v-2.964l.332-.191v3.342zm0-3.575l-.485.279-14.447 8.224v-3.458l14.932-8.503v3.458zm.541 3.388l-.337.188v-7.772l.337-.188v7.772zm-.439-8.136l.336.19-.336.188-.332-.188.332-.19zm-.434.365l.331.187v.389l-.331-.192v-.384zm.23.75l-14.83 8.446V27l14.498-8.253.333.191zm-11.123-6.953h-8.593l4.3-2.449 4.293 2.45zm.136.201l-4.754 2.707-4.541-2.582.214-.125h9.08zM17.89 12h-.001l-.388.226-2.512 1.428v-1.428l5.751-3.28 1.67.48L17.89 12zm.019-5.202l3.98 2.268-1.12-.322-2.86-1.626v-.32zm-.102.495l2.715 1.544-5.635 3.216-2.716-1.55 5.636-3.21zM4.113 15.075l2.831 1.61v1.433L2.44 15.55l1.673-.476zm-1.156.12l6.907-3.933v.32l-5.777 3.291-1.13.321zm1.373-.229l5.636-3.21 2.716 1.544-5.636 3.21-2.716-1.544zm5.738-3.384v-.32l3.985 2.266-1.127-.32-2.858-1.626zm-2.92 5.102l5.751-3.275 1.673.476-7.424 4.233v-1.434zm3.128-5.597l1.679-.476 2.831 1.615v1.428l-4.51-2.567zm7.43-3.968l-5.778 3.29-1.136.322 6.914-3.93v.318zm-.109-.554l-.337.192V1.451l.337-.192v5.306zm-.44-5.672l.338.192-.337.192-.338-.192.338-.192zm-.44.366l.338.192v.995l-.337-.188v-1zm-14.6 9.427l14.5-8.253.335.187-14.834 8.45v-.384zm0 .616l14.938-8.509v4.08L2.118 15.378v-4.075zm.01 4.302l.003.002h.001l4.864 2.773a.106.106 0 00.05.013.106.106 0 00.051-.013l7.784-4.439h.001l.005-.004.01-.01a.1.1 0 00.042-.01l2.614-1.486 4.692 2.668h.001a.103.103 0 00.101 0l5.018-2.857 10.24 5.832v.5l-14.498 8.254-.491-.28c-.005-.002-.009 0-.014-.001-.012-.005-.024-.005-.038-.005-.013 0-.025 0-.037.005-.005.002-.01 0-.013.002l-.536.308c-.004.002-.005.008-.008.01a.075.075 0 00-.018.019c-.003.003-.009.004-.011.008-.003.005 0 .01-.002.014a.073.073 0 00-.006.024c-.001.005-.006.008-.006.012v.442L1.683 15.86l.384-.221.06-.034zm-.213-4.976v4.866l-.332.19v-5.306l.332-.19v.44zM1.48 9.82l.333.192-.333.192-.337-.192.337-.192zm-.44.367l.338.191v12.694l-.338-.192V10.187z"/></mask><path d="M.856 22.985c.007.012.012.022.023.03.004.003.004.008.009.01l.541.309a.105.105 0 00.051.013.107.107 0 00.051-.014l.536-.308c.004-.003.005-.008.008-.01a.091.091 0 00.023-.03c.007-.012.013-.021.014-.034 0-.005.006-.008.006-.012v-2.907l19.808 11.275v3.64c0 .004.005.007.006.012.002.013.008.023.014.034.007.012.012.022.023.03.005.003.005.008.01.01l.534.302a.102.102 0 00.1 0l.543-.302c.005-.002.005-.008.008-.01a.08.08 0 00.023-.03.086.086 0 00.015-.034c0-.005.005-.008.005-.013v-3.639l14.396-8.195v2.907c0 .005.005.008.006.013.002.013.008.023.014.034a.1.1 0 00.024.03c.004.002.004.008.008.01l.536.302a.101.101 0 00.1 0l.542-.302c.005-.002.005-.008.008-.01a.082.082 0 00.024-.03.088.088 0 00.014-.034c0-.005.006-.009.006-.013v-8.003c0-.005-.005-.008-.005-.013a.127.127 0 00-.007-.024c-.002-.004.001-.009-.001-.013-.003-.004-.009-.005-.012-.008a.086.086 0 00-.018-.018c-.004-.004-.004-.009-.008-.011l-.542-.308c-.005-.003-.01 0-.014-.002a.073.073 0 00-.036-.005c-.014 0-.026 0-.038.005-.005.002-.01 0-.013.002l-.485.278-10.174-5.796v-.002c0-.006.005-.009.005-.014 0-.01-.007-.015-.01-.024-.002-.008.002-.016-.002-.024-.003-.005-.009-.006-.011-.01a.088.088 0 00-.03-.023.087.087 0 00-.035-.014c-.005 0-.008-.006-.013-.006h-.114L22.77 9.39c-.001-.01-.001-.018-.004-.027-.002-.004 0-.008-.001-.01l-.002-.002c-.005-.008-.015-.012-.022-.02-.007-.006-.008-.016-.017-.02L17.86 6.536c-.005-.003-.01 0-.016-.002a.097.097 0 00-.024-.008c-.004 0-.007-.004-.011-.004l-.007.002v-5.44c0-.005-.004-.008-.005-.013a.086.086 0 00-.006-.024c-.002-.005 0-.01-.002-.014-.003-.005-.008-.005-.011-.009a.081.081 0 00-.018-.017c-.004-.003-.004-.008-.009-.01L17.21.688c-.005-.002-.01 0-.014-.002-.013-.005-.024-.004-.038-.004-.013 0-.025 0-.037.004-.005.002-.01 0-.014.002l-.542.308c-.004.003-.004.008-.008.011a.08.08 0 00-.018.017c-.003.004-.008.004-.01.009-.003.004 0 .009-.002.014a.082.082 0 00-.007.024c0 .005-.005.008-.005.013v1.174L2.118 10.454v-.442c0-.005-.005-.007-.006-.012a.089.089 0 00-.006-.025c-.003-.005 0-.01-.003-.014-.002-.004-.007-.004-.01-.008a.079.079 0 00-.018-.017c-.003-.003-.004-.009-.008-.01l-.535-.309c-.005-.002-.01 0-.014-.002-.012-.005-.024-.005-.037-.005-.014 0-.025 0-.038.005-.004.001-.01-.001-.014.001l-.541.309c-.005.002-.005.008-.01.01a.079.079 0 00-.017.018c-.002.003-.008.004-.01.008-.003.005 0 .009-.002.014a.084.084 0 00-.007.024c0 .005-.005.008-.005.013v12.926c0 .005.004.008.005.012a.072.072 0 00.014.035zm1.058-.105l-.332.191V19.73l.332.187v2.964zm20.012 8.195L2.066 19.77l-.484-.273v-3.464l20.345 11.584v3.458zm.536 4l-.331-.188v-7.771l.331.187v7.771zm.103-7.946l-.332-.187.331-.191.336.19-.335.188zm.439.43v7.329l-.338.188v-7.773l.338-.188v.444zm15.136-1.412l-.332-.187v-2.964l.332-.191v3.342zm0-3.575l-.485.279-14.447 8.224v-3.458l14.932-8.503v3.458zm.541 3.388l-.337.188v-7.772l.337-.188v7.772zm-.439-8.136l.336.19-.336.188-.332-.188.332-.19zm-.434.365l.331.187v.389l-.331-.192v-.384zm.23.75l-14.83 8.446V27l14.498-8.253.333.191zm-11.123-6.953h-8.593l4.3-2.449 4.293 2.45zm.136.201l-4.754 2.707-4.541-2.582.214-.125h9.08zM17.89 12h-.001l-.388.226-2.512 1.428v-1.428l5.751-3.28 1.67.48L17.89 12zm.019-5.202l3.98 2.268-1.12-.322-2.86-1.626v-.32zm-.102.495l2.715 1.544-5.635 3.216-2.716-1.55 5.636-3.21zM4.113 15.075l2.831 1.61v1.433L2.44 15.55l1.673-.476zm-1.156.12l6.907-3.933v.32l-5.777 3.291-1.13.321zm1.373-.229l5.636-3.21 2.716 1.544-5.636 3.21-2.716-1.544zm5.738-3.384v-.32l3.985 2.266-1.127-.32-2.858-1.626zm-2.92 5.102l5.751-3.275 1.673.476-7.424 4.233v-1.434zm3.128-5.597l1.679-.476 2.831 1.615v1.428l-4.51-2.567zm7.43-3.968l-5.778 3.29-1.136.322 6.914-3.93v.318zm-.109-.554l-.337.192V1.451l.337-.192v5.306zm-.44-5.672l.338.192-.337.192-.338-.192.338-.192zm-.44.366l.338.192v.995l-.337-.188v-1zm-14.6 9.427l14.5-8.253.335.187-14.834 8.45v-.384zm0 .616l14.938-8.509v4.08L2.118 15.378v-4.075zm.01 4.302l.003.002h.001l4.864 2.773a.106.106 0 00.05.013.106.106 0 00.051-.013l7.784-4.439h.001l.005-.004.01-.01a.1.1 0 00.042-.01l2.614-1.486 4.692 2.668h.001a.103.103 0 00.101 0l5.018-2.857 10.24 5.832v.5l-14.498 8.254-.491-.28c-.005-.002-.009 0-.014-.001-.012-.005-.024-.005-.038-.005-.013 0-.025 0-.037.005-.005.002-.01 0-.013.002l-.536.308c-.004.002-.005.008-.008.01a.075.075 0 00-.018.019c-.003.003-.009.004-.011.008-.003.005 0 .01-.002.014a.073.073 0 00-.006.024c-.001.005-.006.008-.006.012v.442L1.683 15.86l.384-.221.06-.034zm-.213-4.976v4.866l-.332.19v-5.306l.332-.19v.44zM1.48 9.82l.333.192-.333.192-.337-.192.337-.192zm-.44.367l.338.191v12.694l-.338-.192V10.187z" fill="#7EB325"/><path d="M.856 22.985c.007.012.012.022.023.03.004.003.004.008.009.01l.541.309h0a.105.105 0 00.051.013.107.107 0 00.051-.014s0 0 0 0l.536-.308c.004-.003.005-.008.008-.01a.091.091 0 00.023-.03c.007-.012.013-.021.014-.034 0-.005.006-.008.006-.012v-2.907l19.808 11.275v3.64c0 .004.005.007.006.012.002.013.008.023.014.034.007.012.012.022.023.03.005.003.005.008.01.01l.534.302a.102.102 0 00.1 0l.543-.302c.005-.002.005-.008.008-.01a.08.08 0 00.023-.03.086.086 0 00.015-.034c0-.005.005-.008.005-.013v-3.639l14.396-8.195v2.907c0 .005.005.008.006.013.002.013.008.023.014.034a.1.1 0 00.024.03c.004.002.004.008.008.01l.536.302a.101.101 0 00.1 0l.542-.302c.005-.002.005-.008.008-.01a.082.082 0 00.024-.03.088.088 0 00.014-.034c0-.005.006-.009.006-.013v-8.003c0-.005-.005-.008-.005-.013a.127.127 0 00-.007-.024c-.002-.004.001-.009-.001-.013-.003-.004-.009-.005-.012-.008a.086.086 0 00-.018-.018c-.004-.004-.004-.009-.008-.011l-.542-.308c-.005-.003-.01 0-.014-.002a.073.073 0 00-.036-.005c-.014 0-.026 0-.038.005-.005.002-.01 0-.013.002l-.485.278-10.174-5.796v-.002c0-.006.005-.009.005-.014 0-.01-.007-.015-.01-.024-.002-.008.002-.016-.002-.024-.003-.005-.009-.006-.011-.01a.088.088 0 00-.03-.023.087.087 0 00-.035-.014c-.005 0-.008-.006-.013-.006h-.114L22.77 9.39c-.001-.01-.001-.018-.004-.027-.002-.004 0-.008-.001-.01l-.002-.002c-.005-.008-.015-.012-.022-.02-.007-.006-.008-.016-.017-.02L17.86 6.536c-.005-.003-.01 0-.016-.002a.097.097 0 00-.024-.008c-.004 0-.007-.004-.011-.004l-.007.002v-5.44c0-.005-.004-.008-.005-.013a.086.086 0 00-.006-.024c-.002-.005 0-.01-.002-.014-.003-.005-.008-.005-.011-.009a.081.081 0 00-.018-.017c-.004-.003-.004-.008-.009-.01L17.21.688c-.005-.002-.01 0-.014-.002-.013-.005-.024-.004-.038-.004-.013 0-.025 0-.037.004-.005.002-.01 0-.014.002l-.542.308c-.004.003-.004.008-.008.011a.08.08 0 00-.018.017c-.003.004-.008.004-.01.009-.003.004 0 .009-.002.014a.082.082 0 00-.007.024c0 .005-.005.008-.005.013v1.174L2.118 10.454v-.442c0-.005-.005-.007-.006-.012a.089.089 0 00-.006-.025c-.003-.005 0-.01-.003-.014-.002-.004-.007-.004-.01-.008a.079.079 0 00-.018-.017c-.003-.003-.004-.009-.008-.01l-.535-.309c-.005-.002-.01 0-.014-.002-.012-.005-.024-.005-.037-.005-.014 0-.025 0-.038.005-.004.001-.01-.001-.014.001l-.541.309c-.005.002-.005.008-.01.01a.079.079 0 00-.017.018c-.002.003-.008.004-.01.008-.003.005 0 .009-.002.014a.084.084 0 00-.007.024c0 .005-.005.008-.005.013v12.926c0 .005.004.008.005.012a.072.072 0 00.014.035zm1.058-.105l-.332.191V19.73l.332.187v2.964zm20.012 8.195L2.066 19.77v0l-.484-.273v-3.464l20.345 11.584v3.458h0zm.536 4l-.331-.188v-7.771l.331.187v7.771zm.103-7.946l-.332-.187.331-.191.336.19-.335.188zm.439.43v7.329l-.338.188v-7.773l.338-.188v.444zm15.136-1.412l-.332-.187v-2.964l.332-.191v3.342zm0-3.575l-.485.279-14.447 8.224v-3.458l14.932-8.503v3.458zm.541 3.388l-.337.188v-7.772l.337-.188v7.772zm-.439-8.136l.336.19-.336.188-.332-.188.332-.19zm-.434.365l.331.187v.389l-.331-.192v-.384zm.23.75l-14.83 8.446V27l14.498-8.253.333.191zm-11.123-6.953h-8.593l4.3-2.449 4.293 2.45zm.136.201l-4.754 2.707-4.541-2.582.214-.125h9.08zM17.89 12h-.001l-.388.226-2.512 1.428v-1.428l5.751-3.28 1.67.48L17.89 12zm.019-5.202l3.98 2.268-1.12-.322-2.86-1.626v-.32zm-.102.495l2.715 1.544-5.635 3.216-2.716-1.55 5.636-3.21zM4.113 15.075l2.831 1.61v1.433L2.44 15.55l1.673-.476zm-1.156.12l6.907-3.933v.32l-5.777 3.291-1.13.321zm1.373-.229l5.636-3.21 2.716 1.544-5.636 3.21-2.716-1.544zm5.738-3.384v-.32l3.985 2.266-1.127-.32-2.858-1.626zm-2.92 5.102l5.751-3.275 1.673.476-7.424 4.233v-1.434zm3.128-5.597l1.679-.476 2.831 1.615v1.428l-4.51-2.567zm7.43-3.968l-5.778 3.29-1.136.322 6.914-3.93v.318zm-.109-.554l-.337.192V1.451l.337-.192v5.306zm-.44-5.672l.338.192-.337.192-.338-.192.338-.192zm-.44.366l.338.192v.995l-.337-.188v-1zm-14.6 9.427l14.5-8.253.335.187-14.834 8.45v-.384zm0 .616l14.938-8.509v4.08L2.118 15.378v-4.075zm.01 4.302l.003.002s0 0 0 0h.001l4.864 2.773s0 0 0 0a.106.106 0 00.05.013.106.106 0 00.051-.013s0 0 0 0l7.784-4.439s0 0 0 0h.001s0 0 0 0l.005-.004.01-.01a.1.1 0 00.042-.01h0l2.614-1.486 4.692 2.668h.001a.103.103 0 00.101 0l5.018-2.857 10.24 5.832v.5l-14.498 8.254-.491-.28c-.005-.002-.009 0-.014-.001-.012-.005-.024-.005-.038-.005-.013 0-.025 0-.037.005-.005.002-.01 0-.013.002l-.536.308c-.004.002-.005.008-.008.01a.075.075 0 00-.018.019c-.003.003-.009.004-.011.008-.003.005 0 .01-.002.014a.073.073 0 00-.006.024c-.001.005-.006.008-.006.012v.442L1.683 15.86l.384-.221.06-.034zm-.213-4.976v4.866l-.332.19v-5.306l.332-.19v.44zM1.48 9.82l.333.192-.333.192-.337-.192.337-.192zm-.44.367l.338.191v12.694l-.338-.192V10.187z" stroke="#7EB325" stroke-width=".4" mask="url(#a)"/></svg>