<svg width="42" height="19" fill="none" xmlns="http://www.w3.org/2000/svg"><mask id="a" maskUnits="userSpaceOnUse" x=".146" y="-.017" width="42" height="19" fill="#000"><path fill="#fff" d="M.146-.017h42v19h-42z"/><path d="M6.78 9.498h14.355l-.008-.395-13.84.079-.508.316zm25.429 8.376a.302.302 0 01-.144-.566h-21.26a.302.302 0 01-.186.54l-4.587-.02a.302.302 0 01-.216-.51c-.125-.01-.3-.008-.491-.005-.746.013-1.69.03-1.873-.692l-.005-.018-.002-.024c-.057-.552-.097-1.123-.14-1.709-.128-1.773-.264-3.682-.799-4.99-.05-.124-.205-.237-.377-.363-.434-.318-.95-.696-.982-1.725-.024-.813.443-1.466 1.102-1.789a2.179 2.179 0 011.427-.161l3.143.286V2.416a.3.3 0 01.024-.12l.006-.015c.193-.456 2.282-1 4.957-1.203 2.593-.197 5.787-.125 8.333.578.451.124.881.268 1.282.432a11.33 11.33 0 011.282-.432c2.546-.703 5.74-.775 8.333-.578 2.675.203 4.764.747 4.957 1.203l.006.015a.308.308 0 01.024.12v3.703l3.179-.289a2.162 2.162 0 011.427.161c.66.323 1.126.977 1.1 1.79-.03 1.03-.547 1.407-.98 1.723-.173.126-.328.24-.378.363-.534 1.308-.671 3.216-.8 4.99a58.52 58.52 0 01-.139 1.71l-.002.024-.005.018c-.182.722-1.127.705-1.873.691a13.215 13.215 0 00-.318-.002.285.285 0 01-.077.01h-.26a.302.302 0 01-.1.586l-4.588-.02zM5.823 17.31l.003-.002h-.002v.002zM33.575 4.584l.162.217.273-.008a.113.113 0 01.112.141l-.068.265.176.208a.113.113 0 01-.046.178l-.243.109-.053.269a.114.114 0 01-.168.075l-.237-.123-.243.126a.113.113 0 01-.163-.08l-.052-.268-.25-.111a.114.114 0 01-.04-.176l.176-.209-.068-.264a.112.112 0 01.115-.142l.27.009.164-.22a.113.113 0 01.181.002l.002.002zm.017.4l-.108-.145-.107.143a.112.112 0 01-.096.048l-.181-.006.044.171a.11.11 0 01-.022.107l-.117.138.158.071a.114.114 0 01.073.085l.035.178.16-.084a.113.113 0 01.105 0l.16.084.035-.178a.115.115 0 01.065-.081l.165-.075-.116-.138a.114.114 0 01-.024-.101l.047-.176-.182.005a.114.114 0 01-.094-.045zm-.113.18c.048 0 .092.019.125.051v.001a.177.177 0 11-.125-.052zm-4.706-.584l.163.217.272-.008a.113.113 0 01.113.141l-.069.265.177.208a.113.113 0 01-.046.178l-.244.109-.052.268a.114.114 0 01-.169.076l-.236-.123-.243.126a.113.113 0 01-.163-.08l-.053-.268-.25-.111a.114.114 0 01-.04-.176l.176-.209-.068-.264a.112.112 0 01.116-.142l.27.009.163-.22a.113.113 0 01.182.001l.001.003zm.018.4l-.109-.145-.107.143a.112.112 0 01-.095.048l-.181-.006.044.171a.11.11 0 01-.022.107l-.117.138.158.07a.114.114 0 01.073.085l.034.178.16-.083a.113.113 0 01.105 0l.16.084.035-.178a.115.115 0 01.065-.082l.166-.074-.117-.138a.115.115 0 01-.023-.101l.046-.176-.181.005a.117.117 0 01-.094-.045zm-.114.179c.048 0 .092.019.125.051v.001a.178.178 0 010 .25.174.174 0 01-.125.052.176.176 0 01-.177-.177c0-.05.02-.094.052-.126l.01-.009a.177.177 0 01.115-.042zm-4.706-.584l.162.217.273-.008a.113.113 0 01.113.141l-.069.265.177.208a.113.113 0 01-.046.178l-.244.109-.052.269a.114.114 0 01-.169.075l-.237-.123-.243.126a.113.113 0 01-.162-.08l-.053-.268-.25-.111a.114.114 0 01-.04-.176l.176-.209-.068-.264a.112.112 0 01.116-.142l.27.009.163-.22a.113.113 0 01.182.002l.001.002zm.017.4l-.108-.145-.107.143a.112.112 0 01-.095.048l-.182-.006.045.171a.11.11 0 01-.023.107l-.116.138.158.071a.114.114 0 01.072.085l.035.178.16-.084a.113.113 0 01.105 0l.16.084.035-.178a.115.115 0 01.065-.081l.166-.075-.117-.138a.115.115 0 01-.023-.101l.046-.176-.182.005a.113.113 0 01-.094-.045zm-.113.18c.048 0 .092.019.125.051v.001a.178.178 0 010 .25.175.175 0 01-.125.052.176.176 0 01-.177-.177c0-.05.02-.094.052-.126l.01-.009a.177.177 0 01.115-.042zm-4.706-.584l.162.217.273-.008a.113.113 0 01.112.141l-.068.265.177.208a.113.113 0 01-.047.178l-.243.109-.053.268a.113.113 0 01-.168.076l-.237-.123-.243.126a.113.113 0 01-.163-.08l-.052-.268-.25-.111a.114.114 0 01-.04-.176l.176-.209-.068-.264a.112.112 0 01.116-.142l.27.009.163-.22a.113.113 0 01.182.001l.001.003zm.017.4l-.108-.145-.107.143a.112.112 0 01-.095.048l-.182-.006.044.171a.11.11 0 01-.022.107l-.116.138.158.07a.114.114 0 01.072.085l.035.178.16-.083a.113.113 0 01.105 0l.16.084.035-.178a.115.115 0 01.065-.082l.165-.074-.116-.138a.114.114 0 01-.024-.101l.047-.176-.182.005a.117.117 0 01-.094-.045zm-.114.179c.049 0 .093.019.125.051l.001.001a.177.177 0 11-.125-.052zm-4.705-.584l.162.217.273-.008a.113.113 0 01.112.141l-.068.265.177.208a.113.113 0 01-.047.178l-.243.109-.053.269a.114.114 0 01-.168.075l-.237-.123-.243.126a.113.113 0 01-.163-.08l-.052-.268-.25-.111a.114.114 0 01-.04-.176l.176-.209-.068-.264a.112.112 0 01.116-.142l.27.009.163-.22a.113.113 0 01.182.002v.002zm.017.4l-.108-.145-.107.143a.112.112 0 01-.096.048l-.181-.006.044.171a.11.11 0 01-.022.107l-.117.138.159.071a.114.114 0 01.072.085l.034.178.161-.084a.113.113 0 01.104 0l.161.084.035-.178a.115.115 0 01.065-.081l.165-.075-.116-.138a.115.115 0 01-.024-.101l.046-.176-.181.005a.114.114 0 01-.094-.045zm-.113.18c.048 0 .092.019.125.051v.001a.178.178 0 010 .25.174.174 0 01-.124.052.173.173 0 01-.125-.052.175.175 0 01-.052-.125.174.174 0 01.062-.135.177.177 0 01.115-.042h-.001zm-4.706-.584l.163.217.272-.008a.113.113 0 01.113.141l-.069.265.177.208a.113.113 0 01-.046.178l-.244.109-.052.268a.114.114 0 01-.169.076l-.236-.123-.243.126a.113.113 0 01-.163-.08l-.053-.268-.25-.111a.114.114 0 01-.04-.176l.176-.209-.068-.264a.112.112 0 01.116-.142l.27.009.163-.22a.113.113 0 01.182.001l.001.003zm.018.4l-.109-.146-.107.143a.112.112 0 01-.095.048L9.091 5l.044.171a.11.11 0 01-.022.107l-.117.139.158.07a.114.114 0 01.072.085l.035.178.16-.083a.113.113 0 01.105 0l.16.083.035-.178a.115.115 0 01.065-.081l.166-.074-.117-.139a.115.115 0 01-.023-.101l.046-.176-.182.006a.113.113 0 01-.093-.046zm-.114.179c.048 0 .092.019.125.051v.001a.178.178 0 010 .25.174.174 0 01-.125.052.173.173 0 01-.124-.052.176.176 0 01-.052-.125.174.174 0 01.062-.135.177.177 0 01.114-.042zM3.882 7.014a.188.188 0 01-.151.346.789.789 0 00-.559-.025.807.807 0 00-.28.153.681.681 0 00-.188.249.788.788 0 00-.013.56.188.188 0 11-.36.113 1.155 1.155 0 01.028-.825c.067-.152.167-.28.289-.385a1.18 1.18 0 01.412-.225c.264-.083.56-.076.823.04l-.001-.001zm35.306.303a.187.187 0 01-.248-.097.188.188 0 01.097-.249 1.198 1.198 0 011.235.185c.122.104.222.233.289.385.101.231.125.511.027.825a.188.188 0 11-.36-.112.788.788 0 00-.012-.561.69.69 0 00-.188-.249.825.825 0 00-.84-.129v.002zm-32.37-.584l-1.925-.175c.524.556.939 1.437 1.084 2.73l.84-.524V6.733zM5.422 9.828H5.42c-.1-1.868-.737-2.858-1.463-3.243a1.67 1.67 0 00-.38-.147L3.1 6.395v-.002a1.551 1.551 0 00-.586.155c-.457.224-.782.672-.764 1.228.022.734.408 1.016.734 1.254.245.18.464.34.58.623.571 1.401.712 3.356.843 5.174.042.582.083 1.15.134 1.662.085.244.75.232 1.275.222l.147-.002v-2.984c0-.05.013-.1.034-.14a.299.299 0 01-.074-.2V9.828zm34.355-3.444l-.476.043c-.128.031-.255.08-.38.146-.725.385-1.358 1.369-1.462 3.224v3.588c0 .063-.02.122-.052.171a.3.3 0 01.05.17v2.973l.104.002c.527.009 1.19.021 1.276-.223.05-.51.092-1.079.133-1.661.132-1.818.273-3.772.844-5.175.115-.284.335-.444.58-.622.325-.238.711-.52.734-1.254.017-.556-.308-1.006-.765-1.229a1.56 1.56 0 00-.586-.154v.001zm-2.879 2.9c.144-1.296.558-2.18 1.085-2.737l-1.96.178V8.74l.876.546h-.001zM35.42 8.58V2.49c-.23-.272-2.054-.626-4.43-.806-2.541-.193-5.66-.124-8.13.557a10.9 10.9 0 00-1.137.38v5.883l13.698.077h-.001zm-14.301-.077V2.619c-.36-.144-.741-.27-1.138-.38-2.47-.682-5.59-.75-8.131-.557-2.376.18-4.2.535-4.429.806v6.09L21.119 8.5zm15.737 1.603H21.742v1.278c0 .493.098.975.32 1.302a.851.851 0 00.735.397h14.059v-2.977zM21.746 9.5h14.356l-.508-.317-13.84-.078-.007.395zm.198 3.923a1.58 1.58 0 01-.379-.4 1.83 1.83 0 01-.124-.211c-.038.074-.08.145-.124.212a1.583 1.583 0 01-.38.4h1.008zm-.805-3.317H6.025v2.977h14.06a.851.851 0 00.734-.397c.222-.328.32-.81.32-1.302v-1.278zm15.716 3.922H6.065v2.678h30.789v-2.678z"/></mask><path d="M6.78 9.498h14.355l-.008-.395-13.84.079-.508.316zm25.429 8.376a.302.302 0 01-.144-.566h-21.26a.302.302 0 01-.186.54l-4.587-.02a.302.302 0 01-.216-.51c-.125-.01-.3-.008-.491-.005-.746.013-1.69.03-1.873-.692l-.005-.018-.002-.024c-.057-.552-.097-1.123-.14-1.709-.128-1.773-.264-3.682-.799-4.99-.05-.124-.205-.237-.377-.363-.434-.318-.95-.696-.982-1.725-.024-.813.443-1.466 1.102-1.789a2.179 2.179 0 011.427-.161l3.143.286V2.416a.3.3 0 01.024-.12l.006-.015c.193-.456 2.282-1 4.957-1.203 2.593-.197 5.787-.125 8.333.578.451.124.881.268 1.282.432a11.33 11.33 0 011.282-.432c2.546-.703 5.74-.775 8.333-.578 2.675.203 4.764.747 4.957 1.203l.006.015a.308.308 0 01.024.12v3.703l3.179-.289a2.162 2.162 0 011.427.161c.66.323 1.126.977 1.1 1.79-.03 1.03-.547 1.407-.98 1.723-.173.126-.328.24-.378.363-.534 1.308-.671 3.216-.8 4.99a58.52 58.52 0 01-.139 1.71l-.002.024-.005.018c-.182.722-1.127.705-1.873.691a13.215 13.215 0 00-.318-.002.285.285 0 01-.077.01h-.26a.302.302 0 01-.1.586l-4.588-.02zM5.823 17.31l.003-.002h-.002v.002zM33.575 4.584l.162.217.273-.008a.113.113 0 01.112.141l-.068.265.176.208a.113.113 0 01-.046.178l-.243.109-.053.269a.114.114 0 01-.168.075l-.237-.123-.243.126a.113.113 0 01-.163-.08l-.052-.268-.25-.111a.114.114 0 01-.04-.176l.176-.209-.068-.264a.112.112 0 01.115-.142l.27.009.164-.22a.113.113 0 01.181.002l.002.002zm.017.4l-.108-.145-.107.143a.112.112 0 01-.096.048l-.181-.006.044.171a.11.11 0 01-.022.107l-.117.138.158.071a.114.114 0 01.073.085l.035.178.16-.084a.113.113 0 01.105 0l.16.084.035-.178a.115.115 0 01.065-.081l.165-.075-.116-.138a.114.114 0 01-.024-.101l.047-.176-.182.005a.114.114 0 01-.094-.045zm-.113.18c.048 0 .092.019.125.051v.001a.177.177 0 11-.125-.052zm-4.706-.584l.163.217.272-.008a.113.113 0 01.113.141l-.069.265.177.208a.113.113 0 01-.046.178l-.244.109-.052.268a.114.114 0 01-.169.076l-.236-.123-.243.126a.113.113 0 01-.163-.08l-.053-.268-.25-.111a.114.114 0 01-.04-.176l.176-.209-.068-.264a.112.112 0 01.116-.142l.27.009.163-.22a.113.113 0 01.182.001l.001.003zm.018.4l-.109-.145-.107.143a.112.112 0 01-.095.048l-.181-.006.044.171a.11.11 0 01-.022.107l-.117.138.158.07a.114.114 0 01.073.085l.034.178.16-.083a.113.113 0 01.105 0l.16.084.035-.178a.115.115 0 01.065-.082l.166-.074-.117-.138a.115.115 0 01-.023-.101l.046-.176-.181.005a.117.117 0 01-.094-.045zm-.114.179c.048 0 .092.019.125.051v.001a.178.178 0 010 .25.174.174 0 01-.125.052.176.176 0 01-.177-.177c0-.05.02-.094.052-.126l.01-.009a.177.177 0 01.115-.042zm-4.706-.584l.162.217.273-.008a.113.113 0 01.113.141l-.069.265.177.208a.113.113 0 01-.046.178l-.244.109-.052.269a.114.114 0 01-.169.075l-.237-.123-.243.126a.113.113 0 01-.162-.08l-.053-.268-.25-.111a.114.114 0 01-.04-.176l.176-.209-.068-.264a.112.112 0 01.116-.142l.27.009.163-.22a.113.113 0 01.182.002l.001.002zm.017.4l-.108-.145-.107.143a.112.112 0 01-.095.048l-.182-.006.045.171a.11.11 0 01-.023.107l-.116.138.158.071a.114.114 0 01.072.085l.035.178.16-.084a.113.113 0 01.105 0l.16.084.035-.178a.115.115 0 01.065-.081l.166-.075-.117-.138a.115.115 0 01-.023-.101l.046-.176-.182.005a.113.113 0 01-.094-.045zm-.113.18c.048 0 .092.019.125.051v.001a.178.178 0 010 .25.175.175 0 01-.125.052.176.176 0 01-.177-.177c0-.05.02-.094.052-.126l.01-.009a.177.177 0 01.115-.042zm-4.706-.584l.162.217.273-.008a.113.113 0 01.112.141l-.068.265.177.208a.113.113 0 01-.047.178l-.243.109-.053.268a.113.113 0 01-.168.076l-.237-.123-.243.126a.113.113 0 01-.163-.08l-.052-.268-.25-.111a.114.114 0 01-.04-.176l.176-.209-.068-.264a.112.112 0 01.116-.142l.27.009.163-.22a.113.113 0 01.182.001l.001.003zm.017.4l-.108-.145-.107.143a.112.112 0 01-.095.048l-.182-.006.044.171a.11.11 0 01-.022.107l-.116.138.158.07a.114.114 0 01.072.085l.035.178.16-.083a.113.113 0 01.105 0l.16.084.035-.178a.115.115 0 01.065-.082l.165-.074-.116-.138a.114.114 0 01-.024-.101l.047-.176-.182.005a.117.117 0 01-.094-.045zm-.114.179c.049 0 .093.019.125.051l.001.001a.177.177 0 11-.125-.052zm-4.705-.584l.162.217.273-.008a.113.113 0 01.112.141l-.068.265.177.208a.113.113 0 01-.047.178l-.243.109-.053.269a.114.114 0 01-.168.075l-.237-.123-.243.126a.113.113 0 01-.163-.08l-.052-.268-.25-.111a.114.114 0 01-.04-.176l.176-.209-.068-.264a.112.112 0 01.116-.142l.27.009.163-.22a.113.113 0 01.182.002v.002zm.017.4l-.108-.145-.107.143a.112.112 0 01-.096.048l-.181-.006.044.171a.11.11 0 01-.022.107l-.117.138.159.071a.114.114 0 01.072.085l.034.178.161-.084a.113.113 0 01.104 0l.161.084.035-.178a.115.115 0 01.065-.081l.165-.075-.116-.138a.115.115 0 01-.024-.101l.046-.176-.181.005a.114.114 0 01-.094-.045zm-.113.18c.048 0 .092.019.125.051v.001a.178.178 0 010 .25.174.174 0 01-.124.052.173.173 0 01-.125-.052.175.175 0 01-.052-.125.174.174 0 01.062-.135.177.177 0 01.115-.042h-.001zm-4.706-.584l.163.217.272-.008a.113.113 0 01.113.141l-.069.265.177.208a.113.113 0 01-.046.178l-.244.109-.052.268a.114.114 0 01-.169.076l-.236-.123-.243.126a.113.113 0 01-.163-.08l-.053-.268-.25-.111a.114.114 0 01-.04-.176l.176-.209-.068-.264a.112.112 0 01.116-.142l.27.009.163-.22a.113.113 0 01.182.001l.001.003zm.018.4l-.109-.146-.107.143a.112.112 0 01-.095.048L9.091 5l.044.171a.11.11 0 01-.022.107l-.117.139.158.07a.114.114 0 01.072.085l.035.178.16-.083a.113.113 0 01.105 0l.16.083.035-.178a.115.115 0 01.065-.081l.166-.074-.117-.139a.115.115 0 01-.023-.101l.046-.176-.182.006a.113.113 0 01-.093-.046zm-.114.179c.048 0 .092.019.125.051v.001a.178.178 0 010 .25.174.174 0 01-.125.052.173.173 0 01-.124-.052.176.176 0 01-.052-.125.174.174 0 01.062-.135.177.177 0 01.114-.042zM3.882 7.014a.188.188 0 01-.151.346.789.789 0 00-.559-.025.807.807 0 00-.28.153.681.681 0 00-.188.249.788.788 0 00-.013.56.188.188 0 11-.36.113 1.155 1.155 0 01.028-.825c.067-.152.167-.28.289-.385a1.18 1.18 0 01.412-.225c.264-.083.56-.076.823.04l-.001-.001zm35.306.303a.187.187 0 01-.248-.097.188.188 0 01.097-.249 1.198 1.198 0 011.235.185c.122.104.222.233.289.385.101.231.125.511.027.825a.188.188 0 11-.36-.112.788.788 0 00-.012-.561.69.69 0 00-.188-.249.825.825 0 00-.84-.129v.002zm-32.37-.584l-1.925-.175c.524.556.939 1.437 1.084 2.73l.84-.524V6.733zM5.422 9.828H5.42c-.1-1.868-.737-2.858-1.463-3.243a1.67 1.67 0 00-.38-.147L3.1 6.395v-.002a1.551 1.551 0 00-.586.155c-.457.224-.782.672-.764 1.228.022.734.408 1.016.734 1.254.245.18.464.34.58.623.571 1.401.712 3.356.843 5.174.042.582.083 1.15.134 1.662.085.244.75.232 1.275.222l.147-.002v-2.984c0-.05.013-.1.034-.14a.299.299 0 01-.074-.2V9.828zm34.355-3.444l-.476.043c-.128.031-.255.08-.38.146-.725.385-1.358 1.369-1.462 3.224v3.588c0 .063-.02.122-.052.171a.3.3 0 01.05.17v2.973l.104.002c.527.009 1.19.021 1.276-.223.05-.51.092-1.079.133-1.661.132-1.818.273-3.772.844-5.175.115-.284.335-.444.58-.622.325-.238.711-.52.734-1.254.017-.556-.308-1.006-.765-1.229a1.56 1.56 0 00-.586-.154v.001zm-2.879 2.9c.144-1.296.558-2.18 1.085-2.737l-1.96.178V8.74l.876.546h-.001zM35.42 8.58V2.49c-.23-.272-2.054-.626-4.43-.806-2.541-.193-5.66-.124-8.13.557a10.9 10.9 0 00-1.137.38v5.883l13.698.077h-.001zm-14.301-.077V2.619c-.36-.144-.741-.27-1.138-.38-2.47-.682-5.59-.75-8.131-.557-2.376.18-4.2.535-4.429.806v6.09L21.119 8.5zm15.737 1.603H21.742v1.278c0 .493.098.975.32 1.302a.851.851 0 00.735.397h14.059v-2.977zM21.746 9.5h14.356l-.508-.317-13.84-.078-.007.395zm.198 3.923a1.58 1.58 0 01-.379-.4 1.83 1.83 0 01-.124-.211c-.038.074-.08.145-.124.212a1.583 1.583 0 01-.38.4h1.008zm-.805-3.317H6.025v2.977h14.06a.851.851 0 00.734-.397c.222-.328.32-.81.32-1.302v-1.278zm15.716 3.922H6.065v2.678h30.789v-2.678z" fill="#7EB325"/><path d="M6.78 9.498h14.355l-.008-.395-13.84.079-.508.316zm25.429 8.376a.302.302 0 01-.144-.566h-21.26a.302.302 0 01-.186.54l-4.587-.02a.302.302 0 01-.216-.51c-.125-.01-.3-.008-.491-.005-.746.013-1.69.03-1.873-.692l-.005-.018-.002-.024c-.057-.552-.097-1.123-.14-1.709-.128-1.773-.264-3.682-.799-4.99-.05-.124-.205-.237-.377-.363-.434-.318-.95-.696-.982-1.725-.024-.813.443-1.466 1.102-1.789a2.179 2.179 0 011.427-.161l3.143.286V2.416a.3.3 0 01.024-.12l.006-.015c.193-.456 2.282-1 4.957-1.203 2.593-.197 5.787-.125 8.333.578.451.124.881.268 1.282.432a11.33 11.33 0 011.282-.432c2.546-.703 5.74-.775 8.333-.578 2.675.203 4.764.747 4.957 1.203l.006.015a.308.308 0 01.024.12v3.703l3.179-.289a2.162 2.162 0 011.427.161c.66.323 1.126.977 1.1 1.79-.03 1.03-.547 1.407-.98 1.723-.173.126-.328.24-.378.363-.534 1.308-.671 3.216-.8 4.99a58.52 58.52 0 01-.139 1.71l-.002.024-.005.018c-.182.722-1.127.705-1.873.691a13.215 13.215 0 00-.318-.002.285.285 0 01-.077.01h-.26a.302.302 0 01-.1.586l-4.588-.02zM5.823 17.31l.003-.002h-.002v.002h0zM33.575 4.584l.162.217.273-.008a.113.113 0 01.112.141l-.068.265.176.208a.113.113 0 01-.046.178l-.243.109-.053.269a.114.114 0 01-.168.075l-.237-.123-.243.126a.113.113 0 01-.163-.08l-.052-.268-.25-.111a.114.114 0 01-.04-.176l.176-.209-.068-.264a.112.112 0 01.115-.142l.27.009.164-.22a.113.113 0 01.181.002l.002.002zm.017.4l-.108-.145-.107.143a.112.112 0 01-.096.048l-.181-.006.044.171a.11.11 0 01-.022.107l-.117.138.158.071a.114.114 0 01.073.085l.035.178.16-.084a.113.113 0 01.105 0l.16.084.035-.178a.115.115 0 01.065-.081l.165-.075-.116-.138a.114.114 0 01-.024-.101l.047-.176-.182.005a.114.114 0 01-.094-.045zm-.113.18c.048 0 .092.019.125.051v.001a.177.177 0 11-.125-.052h0zm-4.706-.584l.163.217.272-.008a.113.113 0 01.113.141l-.069.265.177.208a.113.113 0 01-.046.178l-.244.109-.052.268a.114.114 0 01-.169.076l-.236-.123-.243.126a.113.113 0 01-.163-.08l-.053-.268-.25-.111a.114.114 0 01-.04-.176l.176-.209-.068-.264a.112.112 0 01.116-.142l.27.009.163-.22a.113.113 0 01.182.001l.001.003zm.018.4l-.109-.145-.107.143a.112.112 0 01-.095.048l-.181-.006.044.171a.11.11 0 01-.022.107l-.117.138.158.07a.114.114 0 01.073.085l.034.178.16-.083a.113.113 0 01.105 0l.16.084.035-.178a.115.115 0 01.065-.082l.166-.074-.117-.138a.115.115 0 01-.023-.101l.046-.176-.181.005a.117.117 0 01-.094-.045zm-.114.179c.048 0 .092.019.125.051v.001a.178.178 0 010 .25.174.174 0 01-.125.052.176.176 0 01-.177-.177c0-.05.02-.094.052-.126l.01-.009a.177.177 0 01.115-.042h0zm-4.706-.584l.162.217.273-.008a.113.113 0 01.113.141l-.069.265.177.208a.113.113 0 01-.046.178l-.244.109-.052.269a.114.114 0 01-.169.075l-.237-.123-.243.126a.113.113 0 01-.162-.08l-.053-.268-.25-.111a.114.114 0 01-.04-.176l.176-.209-.068-.264a.112.112 0 01.116-.142l.27.009.163-.22a.113.113 0 01.182.002l.001.002zm.017.4l-.108-.145-.107.143a.112.112 0 01-.095.048l-.182-.006.045.171a.11.11 0 01-.023.107l-.116.138.158.071a.114.114 0 01.072.085l.035.178.16-.084a.113.113 0 01.105 0l.16.084.035-.178a.115.115 0 01.065-.081l.166-.075-.117-.138a.115.115 0 01-.023-.101l.046-.176-.182.005a.113.113 0 01-.094-.045zm-.113.18c.048 0 .092.019.125.051v.001a.178.178 0 010 .25.175.175 0 01-.125.052.176.176 0 01-.177-.177c0-.05.02-.094.052-.126l.01-.009a.177.177 0 01.115-.042h0zm-4.706-.584l.162.217.273-.008a.113.113 0 01.112.141l-.068.265.177.208a.113.113 0 01-.047.178l-.243.109-.053.268a.113.113 0 01-.168.076l-.237-.123-.243.126a.113.113 0 01-.163-.08l-.052-.268-.25-.111a.114.114 0 01-.04-.176l.176-.209-.068-.264a.112.112 0 01.116-.142l.27.009.163-.22a.113.113 0 01.182.001l.001.003zm.017.4l-.108-.145-.107.143a.112.112 0 01-.095.048l-.182-.006.044.171a.11.11 0 01-.022.107l-.116.138.158.07a.114.114 0 01.072.085l.035.178.16-.083a.113.113 0 01.105 0l.16.084.035-.178a.115.115 0 01.065-.082l.165-.074-.116-.138a.114.114 0 01-.024-.101l.047-.176-.182.005a.117.117 0 01-.094-.045zm-.114.179c.049 0 .093.019.125.051l.001.001a.177.177 0 11-.125-.052h0zm-4.705-.584l.162.217.273-.008a.113.113 0 01.112.141l-.068.265.177.208a.113.113 0 01-.047.178l-.243.109-.053.269a.114.114 0 01-.168.075l-.237-.123-.243.126a.113.113 0 01-.163-.08l-.052-.268-.25-.111a.114.114 0 01-.04-.176l.176-.209-.068-.264a.112.112 0 01.116-.142l.27.009.163-.22a.113.113 0 01.182.002v.002zm.017.4l-.108-.145-.107.143a.112.112 0 01-.096.048l-.181-.006.044.171a.11.11 0 01-.022.107l-.117.138.159.071a.114.114 0 01.072.085l.034.178.161-.084a.113.113 0 01.104 0l.161.084.035-.178a.115.115 0 01.065-.081l.165-.075-.116-.138a.115.115 0 01-.024-.101l.046-.176-.181.005a.114.114 0 01-.094-.045zm-.113.18c.048 0 .092.019.125.051v.001a.178.178 0 010 .25.174.174 0 01-.124.052.173.173 0 01-.125-.052.175.175 0 01-.052-.125.174.174 0 01.062-.135.177.177 0 01.115-.042h-.001zm-4.706-.584l.163.217.272-.008a.113.113 0 01.113.141l-.069.265.177.208a.113.113 0 01-.046.178l-.244.109-.052.268a.114.114 0 01-.169.076l-.236-.123-.243.126a.113.113 0 01-.163-.08l-.053-.268-.25-.111a.114.114 0 01-.04-.176l.176-.209-.068-.264a.112.112 0 01.116-.142l.27.009.163-.22a.113.113 0 01.182.001l.001.003zm.018.4l-.109-.146-.107.143a.112.112 0 01-.095.048L9.091 5l.044.171a.11.11 0 01-.022.107l-.117.139.158.07a.114.114 0 01.072.085l.035.178.16-.083a.113.113 0 01.105 0l.16.083.035-.178a.115.115 0 01.065-.081l.166-.074-.117-.139a.115.115 0 01-.023-.101l.046-.176-.182.006a.113.113 0 01-.093-.046zm-.114.179c.048 0 .092.019.125.051v.001a.178.178 0 010 .25.174.174 0 01-.125.052.173.173 0 01-.124-.052.176.176 0 01-.052-.125.174.174 0 01.062-.135.177.177 0 01.114-.042h0zM3.882 7.014a.188.188 0 01-.151.346.789.789 0 00-.559-.025.807.807 0 00-.28.153.681.681 0 00-.188.249.788.788 0 00-.013.56.188.188 0 11-.36.113 1.155 1.155 0 01.028-.825c.067-.152.167-.28.289-.385a1.18 1.18 0 01.412-.225c.264-.083.56-.076.823.04l-.001-.001zm35.306.303a.187.187 0 01-.248-.097.188.188 0 01.097-.249 1.198 1.198 0 011.235.185c.122.104.222.233.289.385.101.231.125.511.027.825a.188.188 0 11-.36-.112.788.788 0 00-.012-.561.69.69 0 00-.188-.249.825.825 0 00-.84-.129v.002zm-32.37-.584l-1.925-.175c.524.556.939 1.437 1.084 2.73l.84-.524V6.733zM5.422 9.828H5.42c-.1-1.868-.737-2.858-1.463-3.243a1.67 1.67 0 00-.38-.147L3.1 6.395v-.002a1.551 1.551 0 00-.586.155c-.457.224-.782.672-.764 1.228.022.734.408 1.016.734 1.254.245.18.464.34.58.623.571 1.401.712 3.356.843 5.174.042.582.083 1.15.134 1.662.085.244.75.232 1.275.222l.147-.002v-2.984c0-.05.013-.1.034-.14a.299.299 0 01-.074-.2V9.828h0zm34.355-3.444l-.476.043c-.128.031-.255.08-.38.146-.725.385-1.358 1.369-1.462 3.224v3.588c0 .063-.02.122-.052.171a.3.3 0 01.05.17v2.973l.104.002c.527.009 1.19.021 1.276-.223.05-.51.092-1.079.133-1.661.132-1.818.273-3.772.844-5.175.115-.284.335-.444.58-.622.325-.238.711-.52.734-1.254.017-.556-.308-1.006-.765-1.229a1.56 1.56 0 00-.586-.154v.001zm-2.879 2.9c.144-1.296.558-2.18 1.085-2.737l-1.96.178V8.74l.876.546h-.001v0zM35.42 8.58V2.49c-.23-.272-2.054-.626-4.43-.806-2.541-.193-5.66-.124-8.13.557a10.9 10.9 0 00-1.137.38v5.883l13.698.077h-.001zm-14.301-.077V2.619c-.36-.144-.741-.27-1.138-.38-2.47-.682-5.59-.75-8.131-.557-2.376.18-4.2.535-4.429.806v6.09L21.119 8.5h0zm15.737 1.603H21.742v1.278c0 .493.098.975.32 1.302a.851.851 0 00.735.397h14.059v-2.977zM21.746 9.5h14.356l-.508-.317-13.84-.078-.007.395zm.198 3.923a1.58 1.58 0 01-.379-.4 1.83 1.83 0 01-.124-.211c-.038.074-.08.145-.124.212a1.583 1.583 0 01-.38.4h1.008zm-.805-3.317H6.025v2.977h14.06a.851.851 0 00.734-.397c.222-.328.32-.81.32-1.302v-1.278zm15.716 3.922H6.065v2.678h30.789v-2.678h0z" stroke="#7EB325" stroke-width=".4" mask="url(#a)"/></svg>