<svg width="39" height="27" fill="none" xmlns="http://www.w3.org/2000/svg"><path d="M.899 24.171h0c.326-.559.603-1.33.83-2.265.243-1.002.425-2.178.548-3.47.23-2.436-.004-5.08-.254-7.877h0l-.001-.02c-.18-2.025-.368-4.129-.388-6.29h0a.424.424 0 01.418-.43h.002a.37.37 0 01.047.002c3.772.344 9.052.419 14.08-.177M.898 24.171l15.3-20.378M.898 24.171v.002m0-.002v.002M16.18 3.643l.018.15m-.018-.15s0 0 0 0l.018.15m-.018-.15c3.824-.453 7.48-1.29 10.196-2.683h0a.42.42 0 01.568.19h0c.039.08.051.166.04.248V1.4a98.114 98.114 0 00-.343 2.805m-10.443-.412c3.83-.454 7.508-1.295 10.246-2.699a.27.27 0 01.365.123.286.286 0 01.027.163 98.15 98.15 0 00-.347 2.84l.152-.015m0 0l-.016.152c2.105-.206 4.181-.518 6.102-.961 1.826-.422 3.508-.962 4.935-1.643a.27.27 0 01.383.21v-.07h.139M26.641 4.205c2.09-.206 4.149-.516 6.052-.955 1.82-.42 3.49-.957 4.904-1.633h0a.42.42 0 01.562.207h0a.45.45 0 01.025.07m0 0a.432.432 0 01.01.17l-.091-.013-.057-.008-.045 23.592a.428.428 0 00.335-.498h0c-.661-3.586-.991-7.296-1.015-11.092-.024-3.91.276-7.916.873-11.98l.026-.172h-.036zM.898 24.172a.433.433 0 00-.053.269m.053-.27l26.23 1.907m0 0h0a.427.427 0 01-.344.494h-.002a.449.449 0 01-.07.007c-3.51 0-6.854-.505-10.221-1.013l-.016-.003h0c-4.81-.725-9.672-1.46-15.16-.753h0a.423.423 0 01-.47-.37m26.282 1.638a66.94 66.94 0 01-.307-1.965c2.473-.336 4.82.218 7.136.766l.195.047c.28.092.591.166.942.219l-7.966.933zM.845 24.442s0 0 0 0l.149-.02-.15.02s0 0 0 0zm34.443-.13h.001a.402.402 0 01.095.024c.68.152 1.353.288 2.02.384-.602-3.456-.903-7.024-.926-10.67-.023-3.714.242-7.506.772-11.343-1.312.558-2.792 1.01-4.37 1.375h0c-1.99.46-4.146.78-6.328.989a87.996 87.996 0 00-.437 9.142 74.6 74.6 0 00.591 9.055c1.997-.272 3.886-.004 5.708.384-.388-.586-.582-1.28-.777-1.975l-.006-.018h0a32.793 32.793 0 00-.11-.393l3.767 3.046zm0 0l-.035-.006c-.268-.06-.535-.123-.804-.187-.693-.234-1.105-.609-1.389-1.066-.288-.466-.445-1.021-.615-1.627h0m2.843 2.886l-2.843-2.886m0 0l-.022-.077a29.526 29.526 0 00-.093-.325.422.422 0 00-.526-.289.429.429 0 00-.284.531l.925.16zm3.05-17.21l-.108-.105a.317.317 0 01.454-.002.325.325 0 01.001.455 5.533 5.533 0 01-2.089 1.338c-.721.269-1.45.404-2.122.519l3.863-2.206zm0 0l-.108-.105a4.913 4.913 0 01-1.854 1.184c-.665.247-1.354.376-2.01.488h0m3.971-1.568l-3.97 1.568m0 0a.324.324 0 00.106.638l-.107-.638zm-6.377-.08h0c-.63 2.524-1.207 5.243-1.304 8.131-.096 2.885.287 5.947 1.578 9.164l-.274-17.295zm0 0a.32.32 0 10-.621-.158m.62.158l-.62-.158M3.582 22.477h0a.32.32 0 01-.412.193h0a.324.324 0 01-.19-.414h0c.24-.666.448-1.486.582-2.411h0c.12-.827.181-1.735.157-2.69l-.137 5.322zm0 0c.255-.707.473-1.57.613-2.538l-.613 2.538zM24.526 5.545c-.635 2.546-1.223 5.31-1.321 8.269-.099 2.963.295 6.114 1.624 9.426a.318.318 0 00.417.178m-.72-17.873l.895 17.453a.323.323 0 01-.175.42m0 0s0 0 0 0l-.057-.139.058.139s0 0 0 0zM2.173 10.546l-.002-.017c-.18-2.027-.367-4.126-.387-6.282a.274.274 0 01.302-.277l.087 6.576zm33.052 13.908a1.996 1.996 0 00.045.006c.024.004.047.01.068.02.703.157 1.4.298 2.093.395l-2.206-.421zm2.335.287c-.606-3.461-.909-7.037-.931-10.693-.024-3.734.245-7.549.782-11.41l.15 22.103zM3.44 22.426a.17.17 0 01-.218.103l.219-.103zm-.578-11.944c-.167-1.874-.338-3.804-.378-5.771 3.783.314 8.907.361 13.793-.217h0c3.575-.425 7.038-1.185 9.768-2.428-.53 4.113-.796 8.175-.773 12.151.023 3.935.329 7.782.939 11.504-3.27-.045-6.415-.52-9.603-1l-.01-.002-.008-.001c-4.612-.697-9.313-1.406-14.603-.845.215-.51.402-1.105.562-1.764.253-1.043.44-2.262.566-3.593.239-2.517-.001-5.213-.252-8.029v-.005zm1.169 6.342a.321.321 0 00-.312.33l.312-.33z" fill="#7EB325" stroke="#7EB325" stroke-width=".3"/></svg>