<svg width="29" height="27" fill="none" xmlns="http://www.w3.org/2000/svg"><path d="M2.313 25.9l.353-.313c.028-.025 2.766-2.505 2.873-6.926.064-2.602-1.246-4.548-2.513-6.429l-.001-.002M2.313 25.9l.712-13.67M2.313 25.9H2.2v.1l.067.075L2.35 26m-.038-.1l.038.1m.674-13.77l-.083.056s0 0 0 0l.083-.056zm3.047-3.357a.174.174 0 01-.016-.003H6.05l-.003-.001-.002-.001h0-.002v-.001h-.001l.039-.093v.04m-.009.06v.005l.06.026.023-.053.017-.04-.091.002m-.009.06h.009v-.061m-.009.06v-.06h.009m5.986 2.29l-.013.099c.087.011.173.016.26.016.48 0 .952-.154 1.347-.338a5.52 5.52 0 00.839-.49m-2.433.713l-11.1-2.81c-.385-2.447.994-4.63 1.754-5.618h-.855V.9h25.268v1.775h-.855c.76.989 2.138 3.17 1.755 5.618-.216 1.382-1.078 2.66-1.972 3.987l-.005.006c-1.269 1.885-2.56 3.806-2.497 6.372.107 4.388 2.818 6.834 2.84 6.854h0l-.066.074M12.067 11.102c.082.01.164.015.247.015.919 0 1.83-.593 2.186-.852m-2.433.837c-.502-.062-.918-.315-1.237-.75-.903-1.234-3.4-1.454-4.316-1.493v.1a10.59 10.59 0 00-.103-.004V8.92l.001-.005M14.5 10.39c.206.146.543.363.946.539.443.193.974.338 1.499.273m-2.445-.813a5.2 5.2 0 01-.06-.042l.06-.08m0 .123a5.3 5.3 0 00.059-.043l-.06-.08m2.446.935c.532-.066.972-.334 1.305-.79h0c.447-.61 1.315-.97 2.196-1.18a11.337 11.337 0 012.04-.27m-5.541 2.24s0 0 0 0l-.012-.1m.012.1l-.012-.1m5.553-2.14v.097l.138-.056.121-.05m-.259.009l.104-.004-.002-.043V8.91h.098v-.04l.039-.016m-.239.108v-.1c-.915.04-3.414.257-4.316 1.49-.319.436-.735.689-1.237.75m5.812-2.149h.085l.005-.001h.002l.008-.001.083-.014v-.059m-.182.075h-.018l-.002-.1m.02.1l.017-.007-.037-.092m.203.024l.026-.01h-.003l-.003.002h-.003a.097.097 0 01-.008.002l-.009-.044v.05zm0 0l-.062.026-.02-.052-.018-.04m0 0h.097l-.007-.038m-.09.037l.09-.037m-.09.037v.041h-.034l-.07.002m.194-.08l.038.093h-.001l.004-.001.015-.006a.792.792 0 01.233-.04c.116 0 .191.034.245.094h0c.087.097.212.36.13 1.047h0c-.085.712-.481 1.462-.957 2.357l-.001.003c-.785 1.478-1.77 3.332-1.949 6.136-.148 2.299.745 4.165 1.691 5.467.946 1.303 1.949 2.049 2.035 2.111h0l.064.047.026.019h2.574l-.198-.175-.467-.413-.067.074M22.918 8.773h.002a.836.836 0 01.287-.054c.138 0 .243.042.32.127.116.13.237.43.154 1.126-.087.734-.495 1.502-.968 2.392v.001c-.784 1.476-1.76 3.314-1.938 6.098-.292 4.535 3.522 7.372 3.685 7.49l.063.047h2.128l.085.075.066-.075v-.1h-.113l-.355-.314m0 0c-.027-.024-2.766-2.494-2.874-6.925-.063-2.602 1.247-4.548 2.513-6.429l.002-.002L6.438 8.856l-.025.058h-.002m10.52 2.188c-1 .124-2.045-.554-2.432-.837m-8.088-1.35v-.001l-.098-.042v.042h.098zM2.352 26h2.124l.063-.046M2.351 26l2.188-.046m0 0l.06.08h0l-.06-.08zm.204-15.915h0c-.085-.716 0-1.243.297-1.574a.98.98 0 01.752-.319m-1.05 1.893l1.093-1.792v-.1m-1.092 1.892c.1.84.534 1.658 1.023 2.58l.007.012h0c.762 1.435 1.703 3.208 1.873 5.869.126 1.956-.6 3.598-1.421 4.8a10.193 10.193 0 01-1.945 2.127h-.667c.862-1.011 2.421-3.304 2.505-6.752.067-2.784-1.362-4.906-2.606-6.754l-.006-.009-.083.056.083-.056c-.872-1.295-1.677-2.494-1.87-3.721-.207-1.326.187-2.598.689-3.6a9.58 9.58 0 011.272-1.915h2.238m-1.092 7.363l1.092-7.363m-.043 5.47v.1-.1s0 0 0 0zm0 0h.043m0 0v-5.47m0 5.47l.1.008-.1-5.478m.431 6.176l-.039.092.018.008h.02l.001-.1zM2.8 2.575h.128a9.316 9.316 0 00-.08.1l-.048-.1zm2.519 7.397l.1-.012h0l-.1.012zm9.4-.265h-.001l-.154-.126-.063-.052-.064.052-.153.126h0l-.002.001s-.073.06-.2.149a5.016 5.016 0 01-.51.315c-.421.224-.95.421-1.432.36h0c-.34-.042-.614-.207-.84-.517-.555-.759-1.553-1.182-2.506-1.421a9.366 9.366 0 00-.51-.112h12.433c-.171.032-.345.07-.52.114-.95.24-1.941.663-2.495 1.42-.226.309-.499.475-.839.517-.48.06-1.01-.138-1.43-.362a5.085 5.085 0 01-.661-.422l-.054-.042h0zm8.508 2.924h0l.93-2.604.1.012s0 0 0 0c.085-.717 0-1.244-.297-1.574h0a.982.982 0 00-.795-.319v-5.47h2.239c.223.256.794.957 1.272 1.912.502 1.002.896 2.274.688 3.602-.193 1.228-.997 2.427-1.87 3.722l.083.056-.083-.056-.006.01c-1.244 1.847-2.673 3.97-2.605 6.753.083 3.447 1.643 5.74 2.506 6.751h-.67a10.15 10.15 0 01-1.944-2.123c-.821-1.202-1.547-2.844-1.421-4.804.17-2.66 1.111-4.432 1.873-5.868zM2.546 1.574h23.909v.428H2.545v-.428zm19.94 6.234H6.514V2.675h15.972v5.133z" fill="#7EB325" stroke="#7EB325" stroke-width=".2"/></svg>