<svg width="24" height="32" fill="none" xmlns="http://www.w3.org/2000/svg"><mask id="a" maskUnits="userSpaceOnUse" x="0" y="0" width="24" height="32" fill="#000"><path fill="#fff" d="M0 0h24v32H0z"/><path d="M18.863 27.773h-.962v.33h.962v-.33zm-1.924 0h-.962v.33h.962v-.33zm-1.924 0h-.963v.33h.963v-.33zm-1.925 0h-.962v.33h.962v-.33zm-1.924 0h-.962v.33h.962v-.33zm-1.924 0H8.28v.33h.962v-.33zm-1.924 0h-.962v.33h.962v-.33zm-1.924 0H4.43v.33h.963v-.33zM3.662 24.71h-.32v.988h.32v-.988zm0 1.647h-.32v.988h.32v-.988zm16.997-1.877h-.32v.988h.32v-.988zm0 1.646h-.32v.988h.32v-.988zM3.662 22.734h-.32v.988h.32v-.988zm16.997-.23h-.32v.988h.32v-.988zM3.662 20.759h-.32v.987h.32v-.987zm16.997-.231h-.32v.988h.32v-.988zM3.662 18.783h-.32v.988h.32v-.988zm16.997-.231h-.32v.988h.32v-.988zM3.662 16.807h-.32v.988h.32v-.988zm16.997-.231h-.32v.988h.32v-.988zM3.662 14.831h-.32v.988h.32v-.988zm16.997-.231h-.32v.988h.32V14.6zM3.662 12.855h-.32v.988h.32v-.988zm16.997-.23h-.32v.988h.32v-.988zM3.662 10.88h-.32v.987h.32v-.988zm16.997-.231h-.32v.988h.32v-.988zM3.662 8.903h-.32v.988h.32v-.988zm16.997-.23h-.32v.988h.32v-.988zM3.662 6.928h-.32v.987h.32v-.987zm16.997-.231h-.32v.988h.32v-.988zM3.662 4.952h-.32v.988h.32v-.988zm16.997-.231h-.32v.988h.32v-.988zM18.125 3.8h-.962v.328h.962V3.8zm1.604 0h-.962v.328h.962V3.8zm-3.528 0h-.962v.328h.962V3.8zm-1.924 0h-.962v.328h.962V3.8zm-1.924 0h-.962v.328h.962V3.8zm-1.924 0h-.963v.328h.963V3.8zm-1.925 0h-.962v.328h.962V3.8zm-1.924 0h-.962v.328h.962V3.8zm-1.603 0h-.962v.328h.962V3.8z"/><path d="M22.968 3.865c0-.823-.289-1.482-.738-1.943A2.855 2.855 0 0020.146 1H3.79c-.994 0-1.7.428-2.149 1.02-.032.034-.032.034-.032.067A3.147 3.147 0 001 3.897v24.205C1 29.452 1.32 31 3.822 31h16.356c.93 0 1.603-.33 2.052-.823h.032v-.033A3.12 3.12 0 0023 28.102V3.865h-.032zm-.32 24.204c0 .593-.161 1.219-.546 1.713l-1.924-1.976a.152.152 0 00-.225 0 .162.162 0 000 .23l1.925 1.976c-.385.362-.962.626-1.732.626H3.79c-1.058 0-1.668-.297-2.02-.758l2.116-1.943a.162.162 0 000-.23.152.152 0 00-.224 0l-2.085 1.91c-.224-.461-.288-.988-.288-1.548V3.865c0-.395.128-.988.48-1.482l1.86 1.91c.033.033.065.033.129.033s.096 0 .128-.033a.162.162 0 000-.23L1.994 2.12c.385-.461.962-.79 1.828-.79h16.356c.641 0 1.25.263 1.732.724l-1.893 1.91a.162.162 0 000 .23c.033.033.065.033.129.033s.096 0 .128-.033l1.892-1.943c.32.428.545.955.545 1.614v24.171h-.064v.033z"/></mask><path d="M18.863 27.773h-.962v.33h.962v-.33zm-1.924 0h-.962v.33h.962v-.33zm-1.924 0h-.963v.33h.963v-.33zm-1.925 0h-.962v.33h.962v-.33zm-1.924 0h-.962v.33h.962v-.33zm-1.924 0H8.28v.33h.962v-.33zm-1.924 0h-.962v.33h.962v-.33zm-1.924 0H4.43v.33h.963v-.33zM3.662 24.71h-.32v.988h.32v-.988zm0 1.647h-.32v.988h.32v-.988zm16.997-1.877h-.32v.988h.32v-.988zm0 1.646h-.32v.988h.32v-.988zM3.662 22.734h-.32v.988h.32v-.988zm16.997-.23h-.32v.988h.32v-.988zM3.662 20.759h-.32v.987h.32v-.987zm16.997-.231h-.32v.988h.32v-.988zM3.662 18.783h-.32v.988h.32v-.988zm16.997-.231h-.32v.988h.32v-.988zM3.662 16.807h-.32v.988h.32v-.988zm16.997-.231h-.32v.988h.32v-.988zM3.662 14.831h-.32v.988h.32v-.988zm16.997-.231h-.32v.988h.32V14.6zM3.662 12.855h-.32v.988h.32v-.988zm16.997-.23h-.32v.988h.32v-.988zM3.662 10.88h-.32v.987h.32v-.988zm16.997-.231h-.32v.988h.32v-.988zM3.662 8.903h-.32v.988h.32v-.988zm16.997-.23h-.32v.988h.32v-.988zM3.662 6.928h-.32v.987h.32v-.987zm16.997-.231h-.32v.988h.32v-.988zM3.662 4.952h-.32v.988h.32v-.988zm16.997-.231h-.32v.988h.32v-.988zM18.125 3.8h-.962v.328h.962V3.8zm1.604 0h-.962v.328h.962V3.8zm-3.528 0h-.962v.328h.962V3.8zm-1.924 0h-.962v.328h.962V3.8zm-1.924 0h-.962v.328h.962V3.8zm-1.924 0h-.963v.328h.963V3.8zm-1.925 0h-.962v.328h.962V3.8zm-1.924 0h-.962v.328h.962V3.8zm-1.603 0h-.962v.328h.962V3.8z" fill="#7EB325"/><path d="M22.968 3.865c0-.823-.289-1.482-.738-1.943A2.855 2.855 0 0020.146 1H3.79c-.994 0-1.7.428-2.149 1.02-.032.034-.032.034-.032.067A3.147 3.147 0 001 3.897v24.205C1 29.452 1.32 31 3.822 31h16.356c.93 0 1.603-.33 2.052-.823h.032v-.033A3.12 3.12 0 0023 28.102V3.865h-.032zm-.32 24.204c0 .593-.161 1.219-.546 1.713l-1.924-1.976a.152.152 0 00-.225 0 .162.162 0 000 .23l1.925 1.976c-.385.362-.962.626-1.732.626H3.79c-1.058 0-1.668-.297-2.02-.758l2.116-1.943a.162.162 0 000-.23.152.152 0 00-.224 0l-2.085 1.91c-.224-.461-.288-.988-.288-1.548V3.865c0-.395.128-.988.48-1.482l1.86 1.91c.033.033.065.033.129.033s.096 0 .128-.033a.162.162 0 000-.23L1.994 2.12c.385-.461.962-.79 1.828-.79h16.356c.641 0 1.25.263 1.732.724l-1.893 1.91a.162.162 0 000 .23c.033.033.065.033.129.033s.096 0 .128-.033l1.892-1.943c.32.428.545.955.545 1.614v24.171h-.064v.033z" fill="#7EB325"/><path d="M18.863 27.773h-.962v.33h.962v-.33zm-1.924 0h-.962v.33h.962v-.33zm-1.924 0h-.963v.33h.963v-.33zm-1.925 0h-.962v.33h.962v-.33zm-1.924 0h-.962v.33h.962v-.33zm-1.924 0H8.28v.33h.962v-.33zm-1.924 0h-.962v.33h.962v-.33zm-1.924 0H4.43v.33h.963v-.33zM3.662 24.71h-.32v.988h.32v-.988zm0 1.647h-.32v.988h.32v-.988zm16.997-1.877h-.32v.988h.32v-.988zm0 1.646h-.32v.988h.32v-.988zM3.662 22.734h-.32v.988h.32v-.988zm16.997-.23h-.32v.988h.32v-.988zM3.662 20.759h-.32v.987h.32v-.987zm16.997-.231h-.32v.988h.32v-.988zM3.662 18.783h-.32v.988h.32v-.988zm16.997-.231h-.32v.988h.32v-.988zM3.662 16.807h-.32v.988h.32v-.988zm16.997-.231h-.32v.988h.32v-.988zM3.662 14.831h-.32v.988h.32v-.988zm16.997-.231h-.32v.988h.32V14.6zM3.662 12.855h-.32v.988h.32v-.988zm16.997-.23h-.32v.988h.32v-.988zM3.662 10.88h-.32v.987h.32v-.988zm16.997-.231h-.32v.988h.32v-.988zM3.662 8.903h-.32v.988h.32v-.988zm16.997-.23h-.32v.988h.32v-.988zM3.662 6.928h-.32v.987h.32v-.987zm16.997-.231h-.32v.988h.32v-.988zM3.662 4.952h-.32v.988h.32v-.988zm16.997-.231h-.32v.988h.32v-.988zM18.125 3.8h-.962v.328h.962V3.8zm1.604 0h-.962v.328h.962V3.8zm-3.528 0h-.962v.328h.962V3.8zm-1.924 0h-.962v.328h.962V3.8zm-1.924 0h-.962v.328h.962V3.8zm-1.924 0h-.963v.328h.963V3.8zm-1.925 0h-.962v.328h.962V3.8zm-1.924 0h-.962v.328h.962V3.8zm-1.603 0h-.962v.328h.962V3.8z" stroke="#7EB325" stroke-width=".6" mask="url(#a)"/><path d="M22.968 3.865c0-.823-.289-1.482-.738-1.943A2.855 2.855 0 0020.146 1H3.79c-.994 0-1.7.428-2.149 1.02-.032.034-.032.034-.032.067A3.147 3.147 0 001 3.897v24.205C1 29.452 1.32 31 3.822 31h16.356c.93 0 1.603-.33 2.052-.823h.032v-.033A3.12 3.12 0 0023 28.102V3.865h-.032zm-.32 24.204c0 .593-.161 1.219-.546 1.713l-1.924-1.976a.152.152 0 00-.225 0 .162.162 0 000 .23l1.925 1.976c-.385.362-.962.626-1.732.626H3.79c-1.058 0-1.668-.297-2.02-.758l2.116-1.943a.162.162 0 000-.23.152.152 0 00-.224 0l-2.085 1.91c-.224-.461-.288-.988-.288-1.548V3.865c0-.395.128-.988.48-1.482l1.86 1.91c.033.033.065.033.129.033s.096 0 .128-.033a.162.162 0 000-.23L1.994 2.12c.385-.461.962-.79 1.828-.79h16.356c.641 0 1.25.263 1.732.724l-1.893 1.91a.162.162 0 000 .23c.033.033.065.033.129.033s.096 0 .128-.033l1.892-1.943c.32.428.545.955.545 1.614v24.171h-.064v.033z" stroke="#7EB325" stroke-width=".6" mask="url(#a)"/></svg>