<svg width="37" height="28" fill="none" xmlns="http://www.w3.org/2000/svg"><path d="M36.959 21.376a5.993 5.993 0 00-1.59-3.453c-.006-.006-.007-.014-.013-.02l-15.34-16.17A5.375 5.375 0 0016.053 0c-1.736-.001-3.346.824-4.417 2.263-1.746 2.345-1.561 5.695.425 7.808a.558.558 0 00.021.025l.77.811-12.334.002a.438.438 0 00-.389.135.479.479 0 00-.095.502.45.45 0 00.233.248c.142.172.463.665.75 1.105 1.319 2.024 2.394 3.58 3.235 3.686.017.003.05.005.067.005.368 0 .57-.34.73-.612.02-.032.043-.074.068-.113.248.246.513 1.094.68 1.63.356 1.142.693 2.22 1.524 2.325.017.002.05.004.067.004.368 0 .569-.34.73-.612.019-.032.043-.074.068-.113.247.245.512 1.093.68 1.63.356 1.141.693 2.22 1.523 2.324.018.003.05.005.067.005.368 0 .57-.34.73-.613l.072-.119c.44.319 1.317 1.725 1.861 2.6 1.149 1.844 1.89 2.978 2.609 3.07a.413.413 0 00.052.003h15.61c1.735-.001 3.344-.826 4.414-2.264a6.108 6.108 0 001.156-4.36zM12.72 9.47a.402.402 0 00-.021-.025c-1.694-1.782-1.857-4.624-.377-6.612.904-1.214 2.263-1.911 3.73-1.911 1.068 0 2.078.368 2.92 1.065a4.814 4.814 0 01.445.418l13.196 13.91a5.351 5.351 0 00-1.222-.145c-1.736 0-3.346.826-4.417 2.264-1.08 1.45-1.412 3.272-1.057 4.945L12.722 9.468zm3.098 17.61c-.388-.118-1.377-1.705-1.97-2.659-.55-.882-1.005-1.599-1.41-2.12.131.012.264.026.397.042l.857.1c.298.032.578.046.854.08.56.068 1.125.179 1.697.26a8.077 8.077 0 001.725.08 7.99 7.99 0 01-1.683-.307c-.55-.154-1.095-.339-1.662-.485-.287-.076-.575-.13-.843-.195l-.833-.214c-.543-.137-1.114-.263-1.697-.308l-.012-.002a.442.442 0 00-.042-.003h-.003l-.016-.002a.422.422 0 00-.187.034c-.256.09-.417.355-.549.579l-.067.113c-.248-.246-.513-1.094-.68-1.63-.157-.501-.31-.99-.501-1.39.19.016.38.034.574.056l.857.101c.297.03.577.045.854.08.56.067 1.125.177 1.697.258a8.071 8.071 0 001.725.081 8.008 8.008 0 01-1.682-.307c-.551-.154-1.096-.339-1.663-.485-.287-.076-.575-.13-.843-.195l-.833-.213c-.542-.137-1.113-.263-1.695-.308-.005 0-.009-.002-.014-.003a.459.459 0 00-.042-.003h-.003l-.017-.001a.417.417 0 00-.184.033c-.257.089-.418.355-.551.58-.019.031-.043.073-.068.112-.248-.245-.513-1.094-.68-1.63-.157-.5-.309-.99-.5-1.389.189.015.38.033.573.055l.858.101c.297.031.577.045.853.08.56.067 1.125.178 1.698.258a8.084 8.084 0 001.724.082 8.01 8.01 0 01-1.682-.307c-.55-.155-1.096-.34-1.662-.486-.287-.076-.576-.13-.843-.195l-.833-.213c-.542-.137-1.113-.263-1.695-.307-.005-.001-.009-.003-.014-.003a.51.51 0 00-.042-.003h-.004l-.016-.002a.404.404 0 00-.185.033c-.257.09-.418.355-.55.58-.022.037-.051.086-.08.13-.604-.35-1.956-2.425-2.49-3.243l-.359-.548 12.348-.001.403.425-3.73.27 4.256.306h.02l.55.579-3.73.27 4.257.306h.02l.548.579-3.73.27 4.257.306h.02l.549.579-3.73.27 4.257.306h.02l.548.579-3.73.27 4.257.306h.02l.549.578-3.73.272 4.257.304h.02l.549.58-3.73.27 4.257.306h.02l.548.579-3.729.27 4.256.306h.02l.549.579-3.73.27 4.257.306h.02l.548.579-3.729.27 4.256.306h.02l.549.579-3.73.27 4.257.306h.019l.55.579-3.73.27 4.257.305h.018l.55.58-3.729.27 4.256.306a.3.3 0 00.04 0c.009 0 .015-.006.023-.007.02.018.038.037.059.054.149.124.303.235.461.341H15.819zm19.296-1.912c-.904 1.214-2.264 1.911-3.73 1.911a4.54 4.54 0 01-2.92-1.065c-2.055-1.7-2.415-4.845-.803-7.01.904-1.215 2.264-1.912 3.73-1.912 1.068 0 2.078.368 2.92 1.065.996.824 1.628 2.006 1.779 3.33a5.154 5.154 0 01-.976 3.681z" fill="#7EB325"/><path d="M32.36 20.779a1.51 1.51 0 00-.971-.354c-.487 0-.939.232-1.239.635-.26.349-.375.784-.325 1.223.05.44.261.833.592 1.107.28.232.615.354.97.354.488 0 .94-.231 1.24-.635a1.71 1.71 0 00.325-1.223 1.67 1.67 0 00-.591-1.107zm-.42 1.761a.69.69 0 01-.984.125.742.742 0 01-.263-.492.762.762 0 01.145-.544.683.683 0 01.551-.283.67.67 0 01.432.158.763.763 0 01.119 1.037zm2.278-3.439a3.464 3.464 0 00-1.317-.867 2.855 2.855 0 00-1.513-.136 5.07 5.07 0 011.383.468c.423.222.807.514 1.138.861.332.347.604.753.817 1.2.21.45.352.936.445 1.457a3.389 3.389 0 00-.13-1.594 3.713 3.713 0 00-.823-1.389zm-5.35 5.641a4.565 4.565 0 01-.817-1.2 5.889 5.889 0 01-.444-1.457 3.391 3.391 0 00.13 1.594c.166.52.456.994.822 1.389a3.47 3.47 0 001.316.867c.49.18 1.018.233 1.513.137a5.065 5.065 0 01-1.382-.469 4.384 4.384 0 01-1.138-.861z" fill="#7EB325"/><path d="M33.342 20.025a2.355 2.355 0 00-.915-.584 1.764 1.764 0 00-1.039-.037c.333.097.634.212.909.37.273.156.518.352.736.578.215.227.397.486.548.775.147.291.258.607.35.957.128-.505.03-1.064-.22-1.538-.1-.19-.223-.367-.37-.52zm-3.598 3.793a3.474 3.474 0 01-.548-.775 4.817 4.817 0 01-.35-.958c-.128.506-.03 1.065.22 1.54.101.189.223.366.37.519a2.352 2.352 0 00.914.584c.34.113.705.133 1.038.038a4.153 4.153 0 01-.908-.37 3.323 3.323 0 01-.736-.578z" fill="#7EB325"/></svg>