<svg width="41" height="41" fill="none" xmlns="http://www.w3.org/2000/svg"><path d="M40.14 21.18l.02-.245-.227.094-16.729 6.952-.092.038v5.571l.216-.107.916-.452.083-.04.001-.093.042-3.648 14.57-6.02-.26 2.683-.026.268.242-.119.82-.404.076-.038.007-.085.342-4.356zm-23.525-8.515l.226.17.014-.283.017-.325.01-.189-.187.034-.36.066-.336.061.273.206.343.26zm-13.35-.853l-.37.05.302.22.899.653.048.035.06-.008 12.505-1.744.13-.018V9.964l-.17.024-13.404 1.824zm-.996 2.028l-.23-.192-.016.3c-.041.75-.045 1.319-.039 1.701a12.735 12.735 0 00.02.543l.002.029v.007l.001.002h0l.15-.012-.15.013.015.172.168-.039.67-.155.117-.027-.002-.121-.018-1.575-.001-.069-.053-.044-.634-.532z" fill="#7EB325" stroke="#F9FBFB" stroke-width=".3"/><path d="M16.74 12.079l-.113.023-.007.115-.018.304-.01.186.184-.03.689-.11.118-.018.008-.12.02-.335.013-.195-.192.039-.692.14zM1.178 15.55v.072l.056.046.732.587.243.194v-.31l.01-2.095 19.393 15.193-.009 3.039v.071l.055.045 1.308 1.073.245.2v-5.622l-.06-.045L1.456 11.695l-.237-.178-.003.297-.038 3.735zm15.649-5.508l-.217-.11v.243l-.004.754v.102l.094.038.1.04.042.017.044-.009.717-.145 1.03.536.01.276-.045.01-.413.085.374.195.383.199.047.024.052-.01.854-.174.952.525-.006.212-.176.042-.392.093.358.186.386.201.05.026.055-.013.817-.199.989.535-.026.203-.195.045-.39.09.354.189.483.256.05.026.055-.013.883-.21 1.127.603.02.308-.17.038-.404.091.37.189.54.276.049.025.053-.012.948-.218 1.063.567.002.29-.216.062-.358.102.329.174.486.258.052.028.057-.016.937-.253 1.122.584-.007.32-.22.079-.322.114.301.16.553.293.052.027.056-.014 1.047-.271 1.387.724-.02.41-.199.067-.332.11.31.165.671.356.054.029.06-.018 1.05-.314 1.362.666-.046.548-.266.11-.313.129.306.145.814.385.057.027.059-.022 1.523-.562.324-.12-.308-.155-21.275-10.75z" fill="#7EB325" stroke="#F9FBFB" stroke-width=".3"/><path d="M16.15 11.054l-.019.2.197-.038.389-.075.122-.024v-.369l-.18.035-.382.075-.11.022-.01.111-.006.063zm6.784 2.726l.42-.083-.38-.196-.934-.483-.046-.024-.051.01-13.367 2.602-.324.063.26.203.77.6.055.041.067-.013 13.53-2.72z" fill="#7EB325" stroke="#F9FBFB" stroke-width=".3"/><path d="M40.048 21.19l.31-.127-.301-.147L16.754 9.57l-.04-.02-.045.006-15.322 1.983-.368.047.298.222L23.08 28.016l.067.05.079-.031 16.82-6.846zM16.662 10.194L37.955 20.95l-14.73 5.497L3.412 12.011l13.25-1.816z" fill="#7EB325" stroke="#F9FBFB" stroke-width=".3"/><path d="M16.812 10.83l-.18-.067-.021.19-.003.03-.02.178.178-.011.072-.005.02-.134.048.005.003-.03-.047-.005.018-.126-.068-.026zm22.273 12.383l.026-.257-.236.105-.75.333-.08.035-.008.087-.198 1.997-.01.098.086.048.677.376.199.111.023-.227.27-2.706zm-17.564 2.072l.063.045.073-.025 14.337-4.928.349-.12-.333-.158-1.318-.623-.053-.025-.056.017-14.41 4.55-.284.09.242.175 1.39 1.002zM5.73 13.907l.049.036.06-.01 12.877-1.954.125-.02.002-.126.006-.289.003-.177-.175.026-13.258 1.973-.346.052.276.215.004.003h0l.004.003.372.268z" fill="#7EB325" stroke="#F9FBFB" stroke-width=".3"/><path d="M18.69 11.607l.46-.068-.413-.213-1.05-.542-.043-.022-.047.007-13.138 1.894-.365.052.298.217.862.629.05.036.06-.009 13.326-1.98zm-9.171 4.688l-.334.068.276.2.333.242.054.04.065-.014 13.054-2.72.105-.023.014-.106.033-.272.026-.208-.205.042-13.421 2.75zm-1.767-.931l.051.038.063-.011 13.042-2.35.123-.023v-.125l.002-.225v-.178l-.176.03-13.421 2.3-.352.06.289.21.379.274z" fill="#7EB325" stroke="#F9FBFB" stroke-width=".3"/><path d="M20.857 12.729l.432-.074-.387-.206-.936-.5-.045-.023-.05.008L6.596 14.16l-.352.06.289.21.789.572.051.037.062-.01 13.422-2.3zm4.435 2.267l.396-.087-.357-.192-1.1-.59-.048-.026-.054.011-13.647 2.886-.33.07.272.198 1.002.729.054.04.066-.015 13.746-3.024z" fill="#7EB325" stroke="#F9FBFB" stroke-width=".3"/><path d="M11.788 18.27l.007.005.007.004.076.043.05.027.055-.012 13.39-2.947.125-.028-.008-.128-.017-.294-.01-.176-.173.038-13.674 3.038-.328.073.273.195.227.162zm1.63 1.176h0l.01.007.009.005.051.03.059-.012 14.235-3.198.399-.09-.362-.189-1.068-.56-.049-.025-.054.012-14.008 3.152-.325.073.27.195.833.6z" fill="#7EB325" stroke="#F9FBFB" stroke-width=".3"/><path d="M13.604 19.272l-.325.073.27.195.458.33.055.04.067-.015 13.683-3.238.112-.027.003-.116.006-.274.005-.192-.187.042-14.147 3.182zm2.437 1.763l-.306.081.257.185.438.316.058.041.07-.018 13.664-3.729.11-.03v-.652l-.188.05-14.102 3.756z" fill="#7EB325" stroke="#F9FBFB" stroke-width=".3"/><path d="M15.883 21.222l.058.042.068-.018 14.162-3.75.372-.098-.34-.18-1.08-.568-.05-.026-.055.013-14.262 3.468-.317.077.264.19 1.18.85zm2.647 1.908l.06.043.07-.02 14.319-4.24.356-.105-.33-.171-1.328-.692-.053-.027-.057.016-14.294 3.99-.3.084.253.183 1.304.94z" fill="#7EB325" stroke="#F9FBFB" stroke-width=".3"/><path d="M18.712 22.962l-.292.088.247.178.498.36.06.043.071-.022 13.752-4.173.099-.03.007-.103.031-.46.015-.216-.207.062-14.281 4.273zm2.988 2.16l-.273.095.234.169.51.367.064.046.073-.026 13.649-4.78.093-.033.007-.098.038-.523.017-.228-.216.075L21.7 25.122z" fill="#7EB325" stroke="#F9FBFB" stroke-width=".3"/></svg>