<svg width="29" height="29" fill="none" xmlns="http://www.w3.org/2000/svg"><path d="M10.724 20.023h0a.75.75 0 01-.711-.987l4.005-12.015s0 0 0 0a.75.75 0 011.422.474s0 0 0 0L11.435 19.51a.75.75 0 01-.711.513zm9.257-6.757a2.452 2.452 0 01-2.449 2.448 2.452 2.452 0 01-2.449-2.448 2.452 2.452 0 012.45-2.45 2.452 2.452 0 012.448 2.45zm-1.5 0a.95.95 0 00-1.898 0 .95.95 0 001.899 0zm-13.01 0a2.452 2.452 0 012.449-2.45 2.452 2.452 0 012.449 2.45 2.452 2.452 0 01-2.45 2.448 2.452 2.452 0 01-2.448-2.448zm1.5 0a.95.95 0 001.899 0 .95.95 0 00-1.9 0z" fill="#7EB325" stroke="#F9FBFB" stroke-width=".2"/><path d="M25.762 6.612l.006-.041.116-.81a.75.75 0 00-.212-.635h0L23.87 3.323l-.071-.07.07-.071 1.803-1.802.07.07-.07-.07a.75.75 0 10-1.06-1.06m1.15 6.292L24.613.32m1.15 6.292l.025.033m-.024-.033l.024.033M24.612.32L22.81 2.122l-.071.07-.07-.07L20.865.32h0a.75.75 0 00-.636-.213m4.382.213L20.23.107m0 0s0 0 0 0m0 0h0m0 0L11.819 1.31a.75.75 0 00-.424.212L.982 11.934a3.019 3.019 0 000 4.264l-.071.071M20.23.107L.91 16.27m24.876-9.624l2.963 3.95a.75.75 0 01.15.45v14.84a3.019 3.019 0 01-3.015 3.015h-12.46a3.019 3.019 0 01-3.015-3.015v-.402l-.049-.03a3.008 3.008 0 01-.567-.444L.982 16.198l-.071.071m24.876-9.624L.911 16.269m11.4-13.516l-.033.005-.023.023L2.042 12.994a1.518 1.518 0 000 2.144l8.811 8.812.07-.071-.07.07c.286.287.667.445 1.072.445s.786-.158 1.072-.444L23.21 13.737l.023-.024.005-.033 1.102-7.71.007-.05-.036-.035-1.502-1.502-.07-.07-.071.07-1.201 1.202-.071.07.07.071.601.601a.75.75 0 010 1.06h0a.747.747 0 01-1.06 0l-2.403-2.403a.75.75 0 111.06-1.06l.601.6.07.072.072-.071 1.201-1.202.07-.07-.07-.071-1.502-1.502-.035-.035-.05.007-7.71 1.101zM12.01 25.89l-.104.003.007.105a1.518 1.518 0 001.512 1.404h12.46c.837 0 1.517-.68 1.517-1.516v-14.59l-.02-.027-1.773-2.364-.145-.193-.035.239-.746 5.223a.75.75 0 01-.212.424L14.057 25.01l.07.07-.07-.07a3.003 3.003 0 01-2.048.88z" fill="#7EB325" stroke="#F9FBFB" stroke-width=".2"/></svg>