<svg width="50" height="50" fill="none" xmlns="http://www.w3.org/2000/svg"><path d="M36.719.781H13.28a3.128 3.128 0 00-3.125 3.125v42.188a3.128 3.128 0 003.125 3.125h23.44a3.128 3.128 0 003.125-3.125V3.906A3.128 3.128 0 0036.719.781zm-6.47 1.563l-.39 1.562h-9.736l-.44-1.562H30.25zm8.032 43.75a1.564 1.564 0 01-1.562 1.562H13.28a1.564 1.564 0 01-1.562-1.562V3.906a1.564 1.564 0 011.562-1.562h4.78l.718 2.555a.781.781 0 00.752.57h10.94a.781.781 0 00.758-.592l.633-2.533h4.859a1.564 1.564 0 011.562 1.562v42.188z" fill="#000"/><path d="M19.531 44.531h-5.468a.781.781 0 000 1.563h5.468a.781.781 0 000-1.563zm3.125 0h-.781a.781.781 0 000 1.563h.781a.781.781 0 000-1.563zm13.053-30.24a.783.783 0 00-1.106 0l-4.388 4.39a1.56 1.56 0 00-1.309-.712v-1.563a1.565 1.565 0 00-1.562-1.562h-4.688a1.564 1.564 0 00-1.562 1.562v1.563a1.564 1.564 0 00-1.563 1.562v9.833l-5.24 5.24a.782.782 0 001.105 1.105l4.135-4.136v2.02a1.564 1.564 0 001.563 1.563h7.812a1.565 1.565 0 001.563-1.562V20.636l5.24-5.24a.783.783 0 000-1.105zm-13.053 2.115h4.688v1.563h-4.688v-1.563zm-1.562 3.125h7.812v.458l-7.812 7.813v-8.27zm7.812 14.063h-7.812V30.01l7.812-7.813.001 11.396z" fill="#000"/></svg>