<svg width="50" height="50" fill="none" xmlns="http://www.w3.org/2000/svg"><path d="M35.518 0h-21.04a3.638 3.638 0 00-3.636 3.642V46.36A3.638 3.638 0 0014.479 50h21.038a3.64 3.64 0 003.64-3.64V3.642A3.637 3.637 0 0035.518 0zM19.806 2.213h10.388c.263 0 .474.391.474.878 0 .485-.211.879-.474.879H19.806c-.263 0-.472-.394-.472-.879 0-.487.21-.878.472-.878zM25 46.405a2.326 2.326 0 01-2.324-2.324 2.324 2.324 0 014.647 0A2.327 2.327 0 0125 46.405zm11.43-7.962H13.57V6.145h22.86v32.298z" fill="#000"/></svg>