<svg width="50" height="50" fill="none" xmlns="http://www.w3.org/2000/svg"><path d="M34.417 1.563c-1.396 0-1.667.166-1.667 1.458l-.854.896c0 1.291-1.125 2.333-2.5 2.333h-9.23c-1.374 0-2.5-1.042-2.5-2.333l-.25-.813c0-1.292-.895-1.542-2.27-1.542h19.27z" fill="#607D8B"/><path d="M40.104 6.938v36.124c0 2.959-2.333 5.376-5.187 5.376H15.083c-2.854 0-5.187-2.417-5.187-5.376V6.938c0-2.959 2.333-5.375 5.187-5.375h.063c1.375 0 2.27.25 2.27 1.541l.25.813c0 1.291 1.126 2.333 2.5 2.333h9.23c1.375 0 2.5-1.042 2.5-2.333l.854-.896c0-1.292.27-1.458 1.667-1.458h.5c2.854 0 5.187 2.416 5.187 5.375z" fill="#ECEFF1"/><path d="M15.083 48.438h-2.666c-1.396 0-2.521-1.042-2.521-2.355v-3.02c0 2.958 2.333 5.374 5.187 5.374zm25.021-5.375v3.02c0 1.313-1.125 2.355-2.52 2.355h-2.667c2.854 0 5.187-2.417 5.187-5.376z" fill="#ECEFF1"/><path d="M29.167 7.292h-8.334a3.65 3.65 0 01-3.645-3.646.521.521 0 00-.521-.521h-2.084a1.563 1.563 0 010-3.125h2.084a3.65 3.65 0 013.645 3.646c0 .287.234.52.521.52h8.334a.52.52 0 00.52-.52A3.65 3.65 0 0133.334 0h2.084a1.563 1.563 0 010 3.125h-2.084a.521.521 0 00-.52.52 3.65 3.65 0 01-3.646 3.647zm10.937 34.896H9.896a1.563 1.563 0 010-3.126h30.208a1.563 1.563 0 010 3.126z" fill="#000"/><path d="M35.938 50H14.061a5.734 5.734 0 01-5.729-5.73V26.02a1.563 1.563 0 013.125 0v18.25a2.608 2.608 0 002.604 2.604h21.876a2.608 2.608 0 002.604-2.604V21.94a1.563 1.563 0 013.125 0v22.33a5.734 5.734 0 01-5.73 5.729z" fill="#000"/><path d="M9.896 21.875a1.562 1.562 0 01-1.563-1.563V5.73c0-3.16 2.57-5.729 5.73-5.729h21.874a5.735 5.735 0 015.73 5.73v10.416c0 .666-.423 1.258-1.055 1.477L28.53 21.79a1.573 1.573 0 01-1.227-.09l-7.412-3.833-9.398 3.89a1.583 1.583 0 01-.596.118zm10.069-7.292c.245 0 .491.059.718.175l7.463 3.86 10.396-3.587V5.73a2.608 2.608 0 00-2.605-2.604H14.064a2.608 2.608 0 00-2.605 2.604v12.246l7.909-3.273a1.57 1.57 0 01.598-.119zm-15.59-1.979a1.562 1.562 0 10-2.5 1.875l1.562 2.084a1.558 1.558 0 002.188.312c.69-.517.831-1.496.312-2.188l-1.562-2.083zM3.438 23.02l-1.563 2.084a1.562 1.562 0 102.498 1.875l1.562-2.083a1.562 1.562 0 10-2.497-1.875zm2.031-3.228c0-.863-.7-1.563-1.563-1.563H1.562a1.563 1.563 0 000 3.125h2.344c.863 0 1.563-.7 1.563-1.562zm39.841-2.604a1.56 1.56 0 001.252-.625l1.563-2.084a1.56 1.56 0 00-.31-2.187 1.557 1.557 0 00-2.188.31l-1.562 2.083a1.562 1.562 0 001.245 2.502zm1.253 5.832a1.561 1.561 0 10-2.498 1.878l1.562 2.083a1.558 1.558 0 002.188.313c.69-.517.829-1.496.31-2.188l-1.563-2.085zm1.875-4.79h-2.344a1.563 1.563 0 000 3.124h2.343a1.563 1.563 0 000-3.125z" fill="#000"/></svg>