<svg width="30" height="30" fill="none" xmlns="http://www.w3.org/2000/svg"><path d="M15 0C6.717 0 0 6.717 0 15c0 8.283 6.717 15 15 15 8.283 0 15-6.717 15-15 0-8.283-6.717-15-15-15zm.318 23.733h-.004a8.973 8.973 0 01-4.29-1.092l-4.76 1.248 1.274-4.65A8.955 8.955 0 016.34 14.75c.002-4.948 4.03-8.974 8.978-8.974a8.92 8.92 0 016.35 2.632 8.92 8.92 0 012.628 6.35c-.002 4.948-4.03 8.974-8.978 8.974z" fill="#fff"/><path d="M15.32 7.293c-4.115 0-7.462 3.346-7.464 7.459 0 1.41.394 2.782 1.14 3.97l.178.282-.754 2.753 2.824-.741.273.162a7.45 7.45 0 003.798 1.04h.003c4.112 0 7.46-3.347 7.462-7.46a7.413 7.413 0 00-2.184-5.277 7.413 7.413 0 00-5.275-2.188zm4.39 10.666c-.187.524-1.083 1.002-1.514 1.067a3.079 3.079 0 01-1.413-.09 12.932 12.932 0 01-1.279-.472c-2.25-.971-3.72-3.236-3.832-3.386-.112-.15-.916-1.216-.916-2.32 0-1.103.58-1.646.785-1.87a.824.824 0 01.598-.281c.15 0 .3.001.43.008.138.007.323-.053.505.385.187.449.636 1.552.692 1.665.056.112.093.243.018.393-.074.15-.323.472-.56.767-.1.123-.23.233-.099.457.131.225.581.96 1.248 1.554.857.764 1.58 1 1.804 1.113.224.112.355.093.486-.056.13-.15.56-.655.71-.88.15-.224.3-.187.505-.112.206.075 1.308.617 1.533.73.224.112.374.168.43.262.056.093.056.542-.131 1.066z" fill="#fff"/></svg>