<svg width="248" height="69" fill="none" xmlns="http://www.w3.org/2000/svg"><g filter="url(#filter0_d)"><path d="M33.262 44.564L20.058 30.822 33.262 17.08v-5.328l-18.26 19.07 18.26 18.93" fill="url(#paint0_linear)"/><path d="M55.453 44.564L42.25 30.822 55.453 17.08v-5.328l-18.26 19.07 18.26 18.93" fill="url(#paint1_linear)"/><path d="M77.648 44.564L64.445 30.822 77.648 17.08v-5.328l-18.26 19.07 18.26 18.93" fill="url(#paint2_linear)"/><path d="M99.84 44.564L86.636 30.822 99.84 17.08v-5.328l-18.26 19.07 18.26 18.93" fill="url(#paint3_linear)"/><path d="M122.035 44.564l-13.203-13.742 13.203-13.742v-5.328l-18.26 19.07 18.26 18.93" fill="url(#paint4_linear)"/><path d="M144.227 44.564l-13.204-13.742 13.204-13.742v-5.328l-18.261 19.07 18.261 18.93" fill="url(#paint5_linear)"/><path d="M166.422 44.564l-13.204-13.742 13.204-13.742v-5.328l-18.26 19.07 18.26 18.93" fill="url(#paint6_linear)"/><path d="M188.613 44.564L175.41 30.822l13.203-13.742v-5.328l-18.26 19.07 18.26 18.93" fill="url(#paint7_linear)"/><path d="M210.809 44.564l-13.204-13.742 13.204-13.742v-5.328l-18.261 19.07 18.261 18.93" fill="url(#paint8_linear)"/><path d="M233 44.564l-13.204-13.742L233 17.08v-5.328l-18.26 19.07L233 49.752" fill="url(#paint9_linear)"/></g><defs><linearGradient id="paint0_linear" x1="33.262" y1="53.446" x2=".553" y2="37.926" gradientUnits="userSpaceOnUse"><stop stop-color="#29679F"/><stop offset=".349" stop-color="#3C82C1"/><stop offset=".688" stop-color="#4F9BE0"/><stop offset="1" stop-color="#64B5FF"/></linearGradient><linearGradient id="paint1_linear" x1="55.453" y1="53.446" x2="22.745" y2="37.926" gradientUnits="userSpaceOnUse"><stop stop-color="#29679F"/><stop offset=".349" stop-color="#3C82C1"/><stop offset=".688" stop-color="#4F9BE0"/><stop offset="1" stop-color="#64B5FF"/></linearGradient><linearGradient id="paint2_linear" x1="77.648" y1="53.446" x2="44.94" y2="37.926" gradientUnits="userSpaceOnUse"><stop stop-color="#29679F"/><stop offset=".349" stop-color="#3C82C1"/><stop offset=".688" stop-color="#4F9BE0"/><stop offset="1" stop-color="#64B5FF"/></linearGradient><linearGradient id="paint3_linear" x1="99.84" y1="53.446" x2="67.131" y2="37.926" gradientUnits="userSpaceOnUse"><stop stop-color="#29679F"/><stop offset=".349" stop-color="#3C82C1"/><stop offset=".688" stop-color="#4F9BE0"/><stop offset="1" stop-color="#64B5FF"/></linearGradient><linearGradient id="paint4_linear" x1="122.035" y1="53.446" x2="89.327" y2="37.926" gradientUnits="userSpaceOnUse"><stop stop-color="#29679F"/><stop offset=".349" stop-color="#3C82C1"/><stop offset=".688" stop-color="#4F9BE0"/><stop offset="1" stop-color="#64B5FF"/></linearGradient><linearGradient id="paint5_linear" x1="144.227" y1="53.446" x2="111.518" y2="37.926" gradientUnits="userSpaceOnUse"><stop stop-color="#29679F"/><stop offset=".349" stop-color="#3C82C1"/><stop offset=".688" stop-color="#4F9BE0"/><stop offset="1" stop-color="#64B5FF"/></linearGradient><linearGradient id="paint6_linear" x1="166.422" y1="53.446" x2="133.713" y2="37.926" gradientUnits="userSpaceOnUse"><stop stop-color="#29679F"/><stop offset=".349" stop-color="#3C82C1"/><stop offset=".688" stop-color="#4F9BE0"/><stop offset="1" stop-color="#64B5FF"/></linearGradient><linearGradient id="paint7_linear" x1="188.613" y1="53.446" x2="155.905" y2="37.926" gradientUnits="userSpaceOnUse"><stop stop-color="#29679F"/><stop offset=".349" stop-color="#3C82C1"/><stop offset=".688" stop-color="#4F9BE0"/><stop offset="1" stop-color="#64B5FF"/></linearGradient><linearGradient id="paint8_linear" x1="210.809" y1="53.446" x2="178.1" y2="37.926" gradientUnits="userSpaceOnUse"><stop stop-color="#29679F"/><stop offset=".349" stop-color="#3C82C1"/><stop offset=".688" stop-color="#4F9BE0"/><stop offset="1" stop-color="#64B5FF"/></linearGradient><linearGradient id="paint9_linear" x1="233" y1="53.446" x2="200.291" y2="37.926" gradientUnits="userSpaceOnUse"><stop stop-color="#29679F"/><stop offset=".349" stop-color="#3C82C1"/><stop offset=".688" stop-color="#4F9BE0"/><stop offset="1" stop-color="#64B5FF"/></linearGradient><filter id="filter0_d" x=".002" y=".752" width="247.999" height="68" filterUnits="userSpaceOnUse" color-interpolation-filters="sRGB"><feFlood flood-opacity="0" result="BackgroundImageFix"/><feColorMatrix in="SourceAlpha" values="0 0 0 0 0 0 0 0 0 0 0 0 0 0 0 0 0 0 127 0"/><feOffset dy="4"/><feGaussianBlur stdDeviation="7.5"/><feColorMatrix values="0 0 0 0 0 0 0 0 0 0 0 0 0 0 0 0 0 0 0.08 0"/><feBlend in2="BackgroundImageFix" result="effect1_dropShadow"/><feBlend in="SourceGraphic" in2="effect1_dropShadow" result="shape"/></filter></defs></svg>