<svg width="30" height="30" fill="none" xmlns="http://www.w3.org/2000/svg"><path d="M20.562 12.798l-18.28-.015C1.06 12.78.039 13.793.038 15.008c-.001 1.215 1.018 2.228 2.242 2.23l18.32.015c1.224.001 2.245-1.01 2.246-2.225-.04-1.256-1.018-2.229-2.283-2.23z" fill="url(#paint0_linear)"/><path d="M12.658.035L2.293.026C1.07.026.049 1.036.048 2.251.047 3.466 1.066 4.48 2.29 4.481l10.364.009c1.224 0 2.245-1.01 2.246-2.226 0-1.215-1.018-2.228-2.242-2.229z" fill="url(#paint1_linear)"/><path d="M27.69 25.52l-25.419-.022c-1.224 0-2.245 1.01-2.246 2.226 0 1.215 1.018 2.228 2.243 2.229l25.46.022c1.224.001 2.245-1.01 2.246-2.225-.04-1.215-1.018-2.229-2.283-2.23z" fill="url(#paint2_linear)"/><defs><linearGradient id="paint0_linear" x1="-2.67" y1="15.001" x2="27.392" y2="34.049" gradientUnits="userSpaceOnUse"><stop stop-color="#2E8BF2"/><stop offset=".349" stop-color="#44A8F4"/><stop offset=".688" stop-color="#57C0F9"/><stop offset="1" stop-color="#70DDFA"/></linearGradient><linearGradient id="paint1_linear" x1="-2.67" y1="15.001" x2="27.392" y2="34.049" gradientUnits="userSpaceOnUse"><stop stop-color="#2E8BF2"/><stop offset=".349" stop-color="#44A8F4"/><stop offset=".688" stop-color="#57C0F9"/><stop offset="1" stop-color="#70DDFA"/></linearGradient><linearGradient id="paint2_linear" x1="-2.67" y1="15.001" x2="27.392" y2="34.049" gradientUnits="userSpaceOnUse"><stop stop-color="#2E8BF2"/><stop offset=".349" stop-color="#44A8F4"/><stop offset=".688" stop-color="#57C0F9"/><stop offset="1" stop-color="#70DDFA"/></linearGradient></defs></svg>