<svg width="1054" height="528" fill="none" xmlns="http://www.w3.org/2000/svg"><path d="M277.864 527.133c0-137.811 111.739-249.136 249.136-249.136 137.811 0 249.136 111.739 249.136 249.136" stroke="#318FF3" stroke-opacity=".07" stroke-miterlimit="10"/><path d="M254.688 527.133c0-150.226 122.085-272.311 272.312-272.311 150.227 0 272.311 122.085 272.311 272.311" stroke="#318FF3" stroke-opacity=".07" stroke-miterlimit="10"/><path d="M231.927 527.133c0-163.056 132.017-295.487 295.487-295.487 163.055 0 295.487 132.017 295.487 295.487" stroke="#318FF3" stroke-opacity=".07" stroke-miterlimit="10"/><path d="M208.752 527.133c0-175.885 142.364-318.248 318.249-318.248 175.885 0 318.662 142.363 318.662 318.248" stroke="#318FF3" stroke-opacity=".07" stroke-miterlimit="10"/><path d="M185.576 527.133c0-188.714 152.71-341.424 341.424-341.424 188.714 0 341.424 152.71 341.424 341.424" stroke="#318FF3" stroke-opacity=".07" stroke-miterlimit="10"/><path d="M162.4 527.133c0-201.544 163.056-364.599 364.6-364.599 201.13 0 364.599 163.055 364.599 364.599" stroke="#318FF3" stroke-opacity=".07" stroke-miterlimit="10"/><path d="M139.639 527.133c0-213.959 173.402-387.775 387.775-387.775 214.372 0 387.361 173.816 387.361 387.775" stroke="#318FF3" stroke-opacity=".07" stroke-miterlimit="10"/><path d="M116.464 527.133c0-226.788 183.748-410.536 410.536-410.536 226.789 0 410.951 183.748 410.951 410.536" stroke="#318FF3" stroke-opacity=".07" stroke-miterlimit="10"/><path d="M93.288 527.133C93.288 287.515 287.383 93.421 527 93.421c239.618 0 433.712 194.094 433.712 433.712" stroke="#318FF3" stroke-opacity=".07" stroke-miterlimit="10"/><path d="M70.113 527.133c0-252.447 204.441-456.887 456.888-456.887 252.447 0 456.887 204.44 456.887 456.887" stroke="#318FF3" stroke-opacity=".07" stroke-miterlimit="10"/><path d="M46.523 527.133C46.523 261.857 261.724 46.656 527 46.656c265.276 0 480.48 215.201 480.48 480.477M527 24.309c277.692 0 502.82 225.133 502.82 502.824m-1005.645 0c0-277.691 225.133-502.824 502.824-502.824M527 1.133c290.521 0 526 235.479 526 526m-1052 0c0-290.521 235.479-526 526-526" stroke="#318FF3" stroke-opacity=".07" stroke-miterlimit="10"/></svg>