<svg width="377" height="238" fill="none" xmlns="http://www.w3.org/2000/svg"><path d="M5.05 1.307c2.1 2.8-1 5.9-3.8 3.8-2.1-2.8 1-5.9 3.8-3.8zm33.8 0c2.1 2.8-1 5.9-3.8 3.8-2.1-2.8 1-5.9 3.8-3.8zm33.7 0c2.1 2.8-1 5.9-3.8 3.8-2.1-2.8 1.1-5.9 3.8-3.8zm33.8 0c2.1 2.8-1 5.9-3.8 3.8-2.1-2.8 1-5.9 3.8-3.8zm-101.3 33.5c2.1 2.8-1 5.9-3.8 3.8-2.1-2.8 1-5.9 3.8-3.8zm33.8 0c2.1 2.8-1 5.9-3.8 3.8-2.1-2.8 1-5.9 3.8-3.8zm33.7 0c2.1 2.8-1 5.9-3.8 3.8-2.1-2.8 1.1-5.9 3.8-3.8zm33.8 0c2.1 2.8-1 5.9-3.8 3.8-2.1-2.8 1-5.9 3.8-3.8zm-101.3 33.5c2.1 2.8-1 5.9-3.8 3.8-2.1-2.8 1-6 3.8-3.8zm33.8 0c2.1 2.8-1 5.9-3.8 3.8-2.1-2.8 1-6 3.8-3.8zm-33.8 33.4c2.1 2.8-1 5.9-3.8 3.8-2.1-2.7 1-5.9 3.8-3.8zm33.8 0c2.1 2.8-1 5.9-3.8 3.8-2.1-2.7 1-5.9 3.8-3.8zm-33.8 30.6c2.1 2.8-1 5.9-3.8 3.8-2.1-2.8 1-5.9 3.8-3.8zm33.8 0c2.1 2.8-1 5.9-3.8 3.8-2.1-2.8 1-5.9 3.8-3.8zm-33.8 33.5c2.1 2.8-1 5.9-3.8 3.8-2.1-2.8 1-5.9 3.8-3.8zm33.8 0c2.1 2.8-1 5.9-3.8 3.8-2.1-2.8 1-5.9 3.8-3.8zm-33.8 33.5c2.1 2.8-1 5.9-3.8 3.8-2.1-2.8 1-6 3.8-3.8zm33.8 0c2.1 2.8-1 5.9-3.8 3.8-2.1-2.8 1-6 3.8-3.8zm-33.8 33.4c2.1 2.8-1 5.9-3.8 3.8-2.1-2.7 1-5.9 3.8-3.8zm33.8 0c2.1 2.8-1 5.9-3.8 3.8-2.1-2.7 1-5.9 3.8-3.8zm101.2-231.4c2.1 2.8-1 5.9-3.8 3.8-2.1-2.8 1-5.9 3.8-3.8zm33.8 0c2.1 2.8-1 5.9-3.8 3.8-2.1-2.8 1-5.9 3.8-3.8zm33.7 0c2.1 2.8-1 5.9-3.8 3.8-2.1-2.8 1.1-5.9 3.8-3.8zm33.8 0c2.1 2.8-1 5.9-3.8 3.8-2.1-2.8 1-5.9 3.8-3.8zm-101.3 33.5c2.1 2.8-1 5.9-3.8 3.8-2.1-2.8 1-5.9 3.8-3.8zm33.8 0c2.1 2.8-1 5.9-3.8 3.8-2.1-2.8 1-5.9 3.8-3.8zm33.7 0c2.1 2.8-1 5.9-3.8 3.8-2.1-2.8 1.1-5.9 3.8-3.8zm33.8 0c2.1 2.8-1 5.9-3.8 3.8-2.1-2.8 1-5.9 3.8-3.8zm32.7-33.5c2.1 2.8-1 5.9-3.8 3.8-2.1-2.8 1-5.9 3.8-3.8zm33.8 0c2.1 2.8-1 5.9-3.8 3.8-2.1-2.8 1-5.9 3.8-3.8zm33.7 0c2.1 2.8-1 5.9-3.8 3.8-2.1-2.8 1.1-5.9 3.8-3.8zm33.8 0c2.1 2.8-1 5.9-3.8 3.8-2.1-2.8 1-5.9 3.8-3.8zm-101.3 33.5c2.1 2.8-1 5.9-3.8 3.8-2.1-2.8 1-5.9 3.8-3.8zm33.8 0c2.1 2.8-1 5.9-3.8 3.8-2.1-2.8 1-5.9 3.8-3.8zm33.7 0c2.1 2.8-1 5.9-3.8 3.8-2.1-2.8 1.1-5.9 3.8-3.8zm33.8 0c2.1 2.8-1 5.9-3.8 3.8-2.1-2.8 1-5.9 3.8-3.8z" fill="#C4C4C4"/></svg>