<svg width="21" height="16" fill="none" xmlns="http://www.w3.org/2000/svg"><path d="M18.313.36H1.828A1.76 1.76 0 00.07 2.118v11.719a1.76 1.76 0 001.758 1.758h16.485a1.76 1.76 0 001.757-1.758V2.118A1.76 1.76 0 0018.312.36zm-.243 1.172l-7.962 7.963-8.031-7.963H18.07zM1.242 13.594V2.355l5.644 5.596-5.644 5.643zm.829.829l5.647-5.647 1.979 1.962a.586.586 0 00.827-.002l1.93-1.93 5.616 5.617h-16zm16.827-.829l-5.616-5.616 5.616-5.617v11.233z" fill="url(#paint0_linear)"/><defs><linearGradient id="paint0_linear" x1="-1.874" y1=".36" x2="14.187" y2="21.713" gradientUnits="userSpaceOnUse"><stop stop-color="#29679F"/><stop offset=".349" stop-color="#3C82C1"/><stop offset=".688" stop-color="#4F9BE0"/><stop offset="1" stop-color="#64B5FF"/></linearGradient></defs></svg>