<svg width="54" height="55" fill="none" xmlns="http://www.w3.org/2000/svg"><path d="M24.605 12.636c-1.479-.59-7.818-2.512-14.783 4.461a.674.674 0 00.292 1.126l9.762 2.785 1.309 1.31-3.08 3.084a.674.674 0 000 .954l10.318 10.33a.674.674 0 00.955 0l3.08-3.083 1.26 1.262 2.782 9.773a.675.675 0 001.127.292c6.865-6.873 5.1-13.136 4.482-14.732C56.037 18.328 53.873 1.673 53.846 1.48a.675.675 0 00-.573-.573c-.19-.027-16.811-2.191-28.668 11.728zm-.9 1.108a39.755 39.755 0 00-3.807 5.867l-8.278-2.362c5.54-4.992 10.403-4.057 12.086-3.505zm5.195 21.51l-9.365-9.375 2.604-2.606 9.364 9.375-2.603 2.606zm8.574 7.876l-2.34-8.222a39.735 39.735 0 005.855-3.802c.535 1.75 1.353 6.599-3.515 12.023zM52.563 2.191c.128 1.5.329 6.062-1.243 11.486-1.74 6.002-6.071 14.316-16.827 20.054L21.057 20.28C31.122 1.369 49.267 1.923 52.564 2.192z" fill="url(#paint0_linear)"/><path d="M42.73 17.41c1.435 0 2.783-.56 3.798-1.575-.001 0 0 0 0 0a5.386 5.386 0 000-7.6A5.333 5.333 0 0042.73 6.66a5.334 5.334 0 00-3.797 1.574 5.386 5.386 0 000 7.601 5.332 5.332 0 003.797 1.575zm-2.842-8.221a3.992 3.992 0 012.842-1.18 3.99 3.99 0 012.842 1.18 4.034 4.034 0 01.001 5.692 3.992 3.992 0 01-2.843 1.179 3.99 3.99 0 01-2.842-1.179 4.034 4.034 0 010-5.692z" fill="url(#paint1_linear)"/><path d="M17.779 45.643L9.822 53.6a.675.675 0 10.954.955l7.957-7.958a.675.675 0 10-.954-.954z" fill="url(#paint2_linear)"/><path d="M.675 54.752a.673.673 0 00.477-.198l18.424-18.423a.675.675 0 10-.955-.955L.198 53.6a.675.675 0 00.477 1.152z" fill="url(#paint3_linear)"/><path d="M.198 44.93a.673.673 0 00.955 0l7.956-7.957a.675.675 0 10-.954-.954L.198 43.975a.675.675 0 000 .955z" fill="url(#paint4_linear)"/><path d="M21.429 50.224a.675.675 0 00.584.407l4.19.222 2.198 3.577a.676.676 0 001.205-.111l1.5-3.916 4.077-.98a.675.675 0 00.267-1.181L32.186 45.6l.323-4.183a.675.675 0 00-1.04-.618l-3.516 2.283-3.878-1.605a.675.675 0 00-.91.799l1.09 4.053-2.72 3.19a.675.675 0 00-.106.705zm4.083-3.29a.676.676 0 00.139-.613l-.827-3.073 2.94 1.217a.677.677 0 00.627-.057l2.668-1.733-.246 3.174a.675.675 0 00.249.577l2.475 2.004-3.091.743a.673.673 0 00-.473.415l-1.138 2.97-1.666-2.714a.676.676 0 00-.54-.32l-3.18-.169 2.063-2.42z" fill="url(#paint5_linear)"/><path d="M.056 10.286a.675.675 0 00.584.408l4.19.221 2.198 3.578a.674.674 0 001.205-.112l1.5-3.916 4.076-.98a.675.675 0 00.267-1.18l-3.263-2.643.323-4.183A.675.675 0 0010.095.86L6.579 3.144 2.702 1.54a.675.675 0 00-.91.8L2.88 6.39.162 9.581a.674.674 0 00-.106.705zm4.083-3.29a.676.676 0 00.138-.613L3.45 3.31l2.941 1.217a.68.68 0 00.626-.057l2.668-1.733-.245 3.175a.675.675 0 00.249.576l2.474 2.005-3.091.743a.673.673 0 00-.473.415l-1.137 2.97-1.668-2.715a.674.674 0 00-.539-.32l-3.179-.168 2.063-2.421z" fill="url(#paint6_linear)"/><path d="M49.033 41.646a4.97 4.97 0 00-4.967 4.96 4.97 4.97 0 004.967 4.961A4.97 4.97 0 0054 46.607a4.97 4.97 0 00-4.967-4.96zm0 8.571a3.618 3.618 0 01-3.617-3.61 3.617 3.617 0 017.234 0 3.618 3.618 0 01-3.617 3.61z" fill="url(#paint7_linear)"/><path d="M12.74 26.717a4.97 4.97 0 00-4.968-4.96 4.97 4.97 0 00-4.967 4.96 4.969 4.969 0 004.967 4.96 4.97 4.97 0 004.967-4.96zm-4.968 3.61a3.618 3.618 0 01-3.617-3.61 3.618 3.618 0 017.234 0c0 1.99-1.623 3.61-3.617 3.61z" fill="url(#paint8_linear)"/><defs><linearGradient id="paint0_linear" x1="-13" y1=".752" x2="53.914" y2="62.845" gradientUnits="userSpaceOnUse"><stop stop-color="#2E8BF2"/><stop offset=".349" stop-color="#44A8F4"/><stop offset=".69" stop-color="#57C0F9"/><stop offset="1" stop-color="#70DDFA"/></linearGradient><linearGradient id="paint1_linear" x1="-13" y1=".752" x2="53.914" y2="62.845" gradientUnits="userSpaceOnUse"><stop stop-color="#2E8BF2"/><stop offset=".349" stop-color="#44A8F4"/><stop offset=".69" stop-color="#57C0F9"/><stop offset="1" stop-color="#70DDFA"/></linearGradient><linearGradient id="paint2_linear" x1="-13" y1=".752" x2="53.914" y2="62.845" gradientUnits="userSpaceOnUse"><stop stop-color="#2E8BF2"/><stop offset=".349" stop-color="#44A8F4"/><stop offset=".69" stop-color="#57C0F9"/><stop offset="1" stop-color="#70DDFA"/></linearGradient><linearGradient id="paint3_linear" x1="-13" y1=".752" x2="53.914" y2="62.845" gradientUnits="userSpaceOnUse"><stop stop-color="#2E8BF2"/><stop offset=".349" stop-color="#44A8F4"/><stop offset=".69" stop-color="#57C0F9"/><stop offset="1" stop-color="#70DDFA"/></linearGradient><linearGradient id="paint4_linear" x1="-13" y1=".752" x2="53.914" y2="62.845" gradientUnits="userSpaceOnUse"><stop stop-color="#2E8BF2"/><stop offset=".349" stop-color="#44A8F4"/><stop offset=".69" stop-color="#57C0F9"/><stop offset="1" stop-color="#70DDFA"/></linearGradient><linearGradient id="paint5_linear" x1="-13" y1=".752" x2="53.914" y2="62.845" gradientUnits="userSpaceOnUse"><stop stop-color="#2E8BF2"/><stop offset=".349" stop-color="#44A8F4"/><stop offset=".69" stop-color="#57C0F9"/><stop offset="1" stop-color="#70DDFA"/></linearGradient><linearGradient id="paint6_linear" x1="-13" y1=".752" x2="53.914" y2="62.845" gradientUnits="userSpaceOnUse"><stop stop-color="#2E8BF2"/><stop offset=".349" stop-color="#44A8F4"/><stop offset=".69" stop-color="#57C0F9"/><stop offset="1" stop-color="#70DDFA"/></linearGradient><linearGradient id="paint7_linear" x1="-13" y1=".752" x2="53.914" y2="62.845" gradientUnits="userSpaceOnUse"><stop stop-color="#2E8BF2"/><stop offset=".349" stop-color="#44A8F4"/><stop offset=".69" stop-color="#57C0F9"/><stop offset="1" stop-color="#70DDFA"/></linearGradient><linearGradient id="paint8_linear" x1="-13" y1=".752" x2="53.914" y2="62.845" gradientUnits="userSpaceOnUse"><stop stop-color="#2E8BF2"/><stop offset=".349" stop-color="#44A8F4"/><stop offset=".69" stop-color="#57C0F9"/><stop offset="1" stop-color="#70DDFA"/></linearGradient></defs></svg>