<svg width="21" height="21" fill="none" xmlns="http://www.w3.org/2000/svg"><g clip-path="url(#clip0)"><path d="M6.821 13.845c0-.332-.23-.53-.637-.53-.166 0-.279.016-.337.032v1.066c.07.015.155.02.273.02.433 0 .701-.219.701-.588z" fill="url(#paint0_linear)"/><path d="M9.338 13.326c-.182 0-.3.016-.37.032v2.36c.07.016.183.016.285.016.738.006 1.22-.401 1.22-1.263.005-.749-.434-1.145-1.135-1.145z" fill="url(#paint1_linear)"/><path d="M14.015.978H5.982a2.132 2.132 0 00-2.128 2.128v7.872h-.208a.858.858 0 00-.858.857v5.202c0 .474.384.858.858.858h.208v.954a2.13 2.13 0 002.128 2.129h10.96a2.13 2.13 0 002.129-2.129V6.016L14.015.978zM5.038 12.774a6.721 6.721 0 011.103-.074c.503 0 .862.096 1.102.289.23.181.386.481.386.834 0 .354-.118.654-.332.857-.278.262-.69.38-1.172.38a2.03 2.03 0 01-.279-.016v1.29h-.808v-3.56zm11.905 6.9H5.983a.826.826 0 01-.825-.825v-.954h10.217a.858.858 0 00.858-.858v-5.202a.858.858 0 00-.858-.857H5.158V3.106c0-.453.37-.823.824-.823l7.545-.008v2.789c0 .814.662 1.476 1.477 1.476l2.732-.008.03 12.317a.825.825 0 01-.823.825zM8.15 16.318v-3.544c.3-.047.69-.074 1.103-.074.685 0 1.129.123 1.477.385.375.278.61.722.61 1.36 0 .69-.251 1.166-.6 1.46-.38.316-.958.466-1.664.466-.423 0-.723-.027-.926-.053zm5.842-2.098v.663h-1.296v1.451h-.819v-3.607h2.206v.668h-1.387v.825h1.296z" fill="url(#paint2_linear)"/></g><defs><linearGradient id="paint0_linear" x1="5.752" y1="13.315" x2="6.97" y2="14.389" gradientUnits="userSpaceOnUse"><stop stop-color="#29679F"/><stop offset=".349" stop-color="#3C82C1"/><stop offset=".688" stop-color="#4F9BE0"/><stop offset="1" stop-color="#64B5FF"/></linearGradient><linearGradient id="paint1_linear" x1="8.822" y1="13.326" x2="11.21" y2="14.836" gradientUnits="userSpaceOnUse"><stop stop-color="#29679F"/><stop offset=".349" stop-color="#3C82C1"/><stop offset=".688" stop-color="#4F9BE0"/><stop offset="1" stop-color="#64B5FF"/></linearGradient><linearGradient id="paint2_linear" x1="1.205" y1=".978" x2="22.748" y2="18.739" gradientUnits="userSpaceOnUse"><stop stop-color="#29679F"/><stop offset=".349" stop-color="#3C82C1"/><stop offset=".688" stop-color="#4F9BE0"/><stop offset="1" stop-color="#64B5FF"/></linearGradient><clipPath id="clip0"><path fill="#fff" transform="translate(.93 .978)" d="M0 0h20v20H0z"/></clipPath></defs></svg>