<svg width="160" height="69" fill="none" xmlns="http://www.w3.org/2000/svg"><g filter="url(#filter0_d)"><path d="M126.526 44.142l13.204-13.741-13.204-13.742v-5.328l18.261 19.07-18.261 18.93" fill="url(#paint0_linear)"/><path d="M104.333 44.142l13.204-13.741-13.204-13.742v-5.328l18.26 19.07-18.26 18.93" fill="url(#paint1_linear)"/><path d="M82.14 44.142l13.203-13.741L82.14 16.659v-5.328L100.4 30.4 82.14 49.33" fill="url(#paint2_linear)"/><path d="M59.946 44.142L73.15 30.401 59.946 16.659v-5.328l18.26 19.07-18.26 18.93" fill="url(#paint3_linear)"/><path d="M37.753 44.142l13.203-13.741-13.203-13.742v-5.328l18.26 19.07-18.26 18.93" fill="url(#paint4_linear)"/><path d="M15.56 44.142l13.203-13.741L15.56 16.659v-5.328L33.82 30.4 15.56 49.33" fill="url(#paint5_linear)"/></g><defs><linearGradient id="paint0_linear" x1="126.526" y1="53.025" x2="159.235" y2="37.504" gradientUnits="userSpaceOnUse"><stop stop-color="#29679F"/><stop offset=".349" stop-color="#3C82C1"/><stop offset=".688" stop-color="#4F9BE0"/><stop offset="1" stop-color="#64B5FF"/></linearGradient><linearGradient id="paint1_linear" x1="104.333" y1="53.025" x2="137.042" y2="37.504" gradientUnits="userSpaceOnUse"><stop stop-color="#29679F"/><stop offset=".349" stop-color="#3C82C1"/><stop offset=".688" stop-color="#4F9BE0"/><stop offset="1" stop-color="#64B5FF"/></linearGradient><linearGradient id="paint2_linear" x1="82.14" y1="53.025" x2="114.848" y2="37.504" gradientUnits="userSpaceOnUse"><stop stop-color="#29679F"/><stop offset=".349" stop-color="#3C82C1"/><stop offset=".688" stop-color="#4F9BE0"/><stop offset="1" stop-color="#64B5FF"/></linearGradient><linearGradient id="paint3_linear" x1="59.946" y1="53.025" x2="92.655" y2="37.504" gradientUnits="userSpaceOnUse"><stop stop-color="#29679F"/><stop offset=".349" stop-color="#3C82C1"/><stop offset=".688" stop-color="#4F9BE0"/><stop offset="1" stop-color="#64B5FF"/></linearGradient><linearGradient id="paint4_linear" x1="37.753" y1="53.025" x2="70.462" y2="37.504" gradientUnits="userSpaceOnUse"><stop stop-color="#29679F"/><stop offset=".349" stop-color="#3C82C1"/><stop offset=".688" stop-color="#4F9BE0"/><stop offset="1" stop-color="#64B5FF"/></linearGradient><linearGradient id="paint5_linear" x1="15.56" y1="53.025" x2="48.268" y2="37.504" gradientUnits="userSpaceOnUse"><stop stop-color="#29679F"/><stop offset=".349" stop-color="#3C82C1"/><stop offset=".688" stop-color="#4F9BE0"/><stop offset="1" stop-color="#64B5FF"/></linearGradient><filter id="filter0_d" x=".56" y=".331" width="159.227" height="68" filterUnits="userSpaceOnUse" color-interpolation-filters="sRGB"><feFlood flood-opacity="0" result="BackgroundImageFix"/><feColorMatrix in="SourceAlpha" values="0 0 0 0 0 0 0 0 0 0 0 0 0 0 0 0 0 0 127 0"/><feOffset dy="4"/><feGaussianBlur stdDeviation="7.5"/><feColorMatrix values="0 0 0 0 0 0 0 0 0 0 0 0 0 0 0 0 0 0 0.08 0"/><feBlend in2="BackgroundImageFix" result="effect1_dropShadow"/><feBlend in="SourceGraphic" in2="effect1_dropShadow" result="shape"/></filter></defs></svg>