<svg width="25" height="25" fill="none" xmlns="http://www.w3.org/2000/svg"><g clip-path="url(#clip0)"><path d="M15.965.81a.58.58 0 00-.418-.185H6.185c-1.728 0-3.154 1.42-3.154 3.148v17.704c0 1.728 1.426 3.148 3.154 3.148h12.707c1.728 0 3.154-1.42 3.154-3.148V7.419c0-.15-.07-.296-.168-.406L15.965.81zm.168 1.861l3.96 4.157h-2.575a1.38 1.38 0 01-1.385-1.38V2.671zm2.76 20.794H6.184a2.008 2.008 0 01-1.994-1.988V3.773c0-1.084.904-1.989 1.994-1.989h8.788v3.664a2.536 2.536 0 002.545 2.54h3.368v13.489c0 1.09-.904 1.988-1.994 1.988z" fill="url(#paint0_linear)"/><path d="M17.31 19.465H7.766a.582.582 0 00-.58.58c0 .319.261.58.58.58h9.548c.319 0 .58-.261.58-.58a.583.583 0 00-.586-.58z" fill="url(#paint1_linear)"/><path d="M9.57 13.228l2.388-2.568v6.33a.581.581 0 001.16 0v-6.33l2.388 2.568a.577.577 0 00.817.029.578.578 0 00.03-.818l-3.397-3.646a.584.584 0 00-.423-.185.584.584 0 00-.424.185l-3.397 3.646a.578.578 0 00.03.818.59.59 0 00.828-.03z" fill="url(#paint2_linear)"/></g><defs><linearGradient id="paint0_linear" x1="1.183" y1=".625" x2="26.891" y2="21.251" gradientUnits="userSpaceOnUse"><stop stop-color="#29679F"/><stop offset=".349" stop-color="#3C82C1"/><stop offset=".688" stop-color="#4F9BE0"/><stop offset="1" stop-color="#64B5FF"/></linearGradient><linearGradient id="paint1_linear" x1="6.147" y1="19.465" x2="6.416" y2="21.981" gradientUnits="userSpaceOnUse"><stop stop-color="#29679F"/><stop offset=".349" stop-color="#3C82C1"/><stop offset=".688" stop-color="#4F9BE0"/><stop offset="1" stop-color="#64B5FF"/></linearGradient><linearGradient id="paint2_linear" x1="7.784" y1="8.608" x2="17.562" y2="17.393" gradientUnits="userSpaceOnUse"><stop stop-color="#29679F"/><stop offset=".349" stop-color="#3C82C1"/><stop offset=".688" stop-color="#4F9BE0"/><stop offset="1" stop-color="#64B5FF"/></linearGradient><clipPath id="clip0"><path fill="#fff" transform="translate(.5 .672)" d="M0 0h24v24H0z"/></clipPath></defs></svg>