<svg width="48" height="48" fill="none" xmlns="http://www.w3.org/2000/svg"><g filter="url(#filter0_d)"><circle cx="24" cy="24" r="16" fill="#3B7B3C"/></g><path d="M24 17a6.984 6.984 0 00-5.195 2.313.308.308 0 00-.06.067A6.97 6.97 0 0017 24c0 2.06.894 3.913 2.313 5.195a.3.3 0 00.066.059A6.973 6.973 0 0023.999 31a6.97 6.97 0 004.622-1.747.275.275 0 00.065-.057A6.983 6.983 0 0031 24c0-3.86-3.14-7-7-7zm6.397 6.702h-2.045a.298.298 0 000 .596h2.045a6.386 6.386 0 01-1.934 4.29l-1.448-1.448a.298.298 0 10-.421.422l1.423 1.423a6.373 6.373 0 01-3.72 1.413v-2.046a.298.298 0 00-.595 0v2.045a6.372 6.372 0 01-3.719-1.412l1.423-1.423a.298.298 0 10-.421-.421l-1.257 1.256-.003.004-.188.188a6.386 6.386 0 01-1.934-4.291h2.044a.298.298 0 000-.596h-2.044a6.372 6.372 0 011.412-3.718l1.423 1.422a.298.298 0 10.421-.421l-1.448-1.448a6.387 6.387 0 014.291-1.934v2.044a.298.298 0 10.596 0v-2.044a6.387 6.387 0 014.29 1.934l-1.448 1.448a.298.298 0 00.421.421l1.424-1.422a6.373 6.373 0 011.412 3.718z" fill="#fff"/><path d="M26.51 21.823l-2.432 2.388-1.484-1.436a.298.298 0 00-.414.428l1.692 1.638a.297.297 0 00.416-.001l2.639-2.592a.298.298 0 10-.418-.425z" fill="#fff"/><defs><filter id="filter0_d" x="0" y="0" width="48" height="48" filterUnits="userSpaceOnUse" color-interpolation-filters="sRGB"><feFlood flood-opacity="0" result="BackgroundImageFix"/><feColorMatrix in="SourceAlpha" values="0 0 0 0 0 0 0 0 0 0 0 0 0 0 0 0 0 0 127 0"/><feOffset/><feGaussianBlur stdDeviation="4"/><feColorMatrix values="0 0 0 0 0 0 0 0 0 0 0 0 0 0 0 0 0 0 0.08 0"/><feBlend in2="BackgroundImageFix" result="effect1_dropShadow"/><feBlend in="SourceGraphic" in2="effect1_dropShadow" result="shape"/></filter></defs></svg>