<svg width="48" height="48" fill="none" xmlns="http://www.w3.org/2000/svg"><g filter="url(#filter0_d)"><circle cx="24" cy="24" r="16" fill="#3B7B3C"/></g><path d="M28.73 19.538l-.07.07-1.45 1.447s0 0 0 0m1.52-1.517l-1.59 1.446.07.071m1.52-1.517l-.07-.07a6.486 6.486 0 00-4.358-1.965l-.104-.005v2.149a.198.198 0 01-.396 0v-2.149l-.105.005a6.486 6.486 0 00-4.358 1.964l-.068.07.07.07 1.447 1.448h0a.198.198 0 11-.28.28h0l-1.422-1.422-.079-.079-.07.087a6.473 6.473 0 00-1.434 3.776l-.005.105h2.148a.198.198 0 110 .396h-2.148l.005.104a6.486 6.486 0 001.964 4.358l.07.07.07-.07.188-.189.002-.001.002-.002 1.256-1.257h0a.198.198 0 11.28.28l-1.422 1.423-.08.078.087.07a6.472 6.472 0 003.777 1.435l.105.005v-2.15a.198.198 0 11.396 0v2.15l.104-.005a6.473 6.473 0 003.777-1.435l.087-.07-.079-.078-1.423-1.423-.066.066.066-.066a.198.198 0 11.28-.28h0l1.448 1.448.07.07.07-.069a6.486 6.486 0 001.965-4.358l.005-.104h-2.15a.198.198 0 110-.396h2.15l-.005-.105a6.473 6.473 0 00-1.434-3.776l-.07-.087-.079.079-1.424 1.422m1.24-1.797l-1.24 1.797m-.28-.28a.198.198 0 000 .28l-.07.07.07-.07a.198.198 0 00.28 0m-.28-.28l.28.28m-3.272 3.433h0l2.638-2.591-2.638 2.591zm0 0a.197.197 0 01-.276.001h0m.276 0h-.276m0 0l-1.693-1.638h0m1.693 1.638l-1.693-1.638m0 0a.198.198 0 01-.004-.28m.004.28l-.004-.28m1.833 1.5l-.07-.068-1.483-1.436 1.553 1.504zm0 0l.07-.069m-.07.069l.07-.069m0 0l2.43-2.388h.001m-2.431 2.388l2.431-2.388m0 0a.198.198 0 01.28.003m-.28-.003l.28.003m-4.614.954a.198.198 0 01.28-.004l-.28.004zm4.614-.954l.071-.07m-.071.07l.071-.07m0 0l-.071.07a.198.198 0 01-.003.28l.074-.35z" stroke="#fff" stroke-width=".2"/><path d="M27.07 21.477h0a.398.398 0 010-.563h0l1.378-1.377a6.286 6.286 0 00-4.05-1.829v1.94a.398.398 0 11-.796 0v-1.94a6.286 6.286 0 00-4.05 1.829l1.378 1.377h0l-.071.07a.298.298 0 11-.421.422l6.631.07zm0 0a.398.398 0 00.562 0h0l1.344-1.343a6.27 6.27 0 011.316 3.468h-1.94a.398.398 0 000 .796h1.94a6.285 6.285 0 01-1.828 4.05l-1.378-1.378s0 0 0 0a.398.398 0 00-.563.562l1.344 1.344a6.27 6.27 0 01-3.47 1.316v-1.94a.398.398 0 00-.795 0v1.94a6.27 6.27 0 01-3.469-1.316l1.344-1.343a.398.398 0 10-.563-.563s0 0 0 0l-1.256 1.256h0l-.001.001-.005.004-.116.117a6.284 6.284 0 01-1.828-4.05h1.939a.398.398 0 000-.796h-1.939a6.269 6.269 0 011.316-3.468l1.343 1.343h6.702zM24 16.9h0a7.083 7.083 0 00-5.264 2.34.352.352 0 00-.07.08A7.07 7.07 0 0016.9 24v0a7.084 7.084 0 002.36 5.286.399.399 0 00.057.047A7.073 7.073 0 0024 31.1a7.07 7.07 0 004.682-1.767.387.387 0 00.076-.068A7.083 7.083 0 0031.1 24c0-3.915-3.185-7.1-7.1-7.1z" fill="#fff" stroke="#fff" stroke-width=".2"/><path d="M22.102 22.712h0a.398.398 0 01.562-.009l1.413 1.369 2.362-2.32h0l.07.071-4.407.889zm0 0h0a.398.398 0 00.008.563s0 0 0 0l1.693 1.638-1.701-2.201zm1.977 2.313a.4.4 0 00.28-.114l-.556.002h0a.397.397 0 00.276.112zm.28-.114l2.638-2.591h0l-.07-.072-2.569 2.663z" fill="#fff" stroke="#fff" stroke-width=".2"/><defs><filter id="filter0_d" x="0" y="0" width="48" height="48" filterUnits="userSpaceOnUse" color-interpolation-filters="sRGB"><feFlood flood-opacity="0" result="BackgroundImageFix"/><feColorMatrix in="SourceAlpha" values="0 0 0 0 0 0 0 0 0 0 0 0 0 0 0 0 0 0 127 0"/><feOffset/><feGaussianBlur stdDeviation="4"/><feColorMatrix values="0 0 0 0 0 0 0 0 0 0 0 0 0 0 0 0 0 0 0.08 0"/><feBlend in2="BackgroundImageFix" result="effect1_dropShadow"/><feBlend in="SourceGraphic" in2="effect1_dropShadow" result="shape"/></filter></defs></svg>