<svg width="23" height="23" fill="none" xmlns="http://www.w3.org/2000/svg"><path d="M7.594 17.495a2.253 2.253 0 100 4.505 2.253 2.253 0 000-4.505zm0 3.504a1.251 1.251 0 110-2.503 1.251 1.251 0 010 2.503zm9.511-3.504a2.253 2.253 0 100 4.505 2.253 2.253 0 000-4.505zm0 3.504a1.251 1.251 0 110-2.503 1.251 1.251 0 010 2.503zm5.082-16.645a.626.626 0 00-.4-.2L5.491 3.929l-.45-1.377A2.303 2.303 0 002.888 1H1.212a.5.5 0 100 1.001h1.677a1.302 1.302 0 011.201.876l3.179 9.587-.25.575a2.4 2.4 0 00.225 2.178 2.328 2.328 0 001.877 1.051h9.737a.5.5 0 000-1.001H9.12a1.277 1.277 0 01-1.051-.6 1.377 1.377 0 01-.125-1.202l.2-.45 10.537-1.102A2.753 2.753 0 0021.06 9.81l1.202-5.03a.425.425 0 00-.075-.426zm-2.103 5.231a1.702 1.702 0 01-1.527 1.327L8.145 11.988 5.817 4.93l15.343.225-1.076 4.43z" fill="#979797" stroke="#979797" stroke-width=".2"/></svg>