<svg width="21" height="21" fill="none" xmlns="http://www.w3.org/2000/svg"><g clip-path="url(#clip0)" fill="#313131"><path d="M20.66 9.511a12.998 12.998 0 00-4.415-3.614 12.737 12.737 0 00-5.907-1.348c-1.96.024-3.838.476-5.583 1.348A12.998 12.998 0 00.341 9.51a1.606 1.606 0 000 1.978 12.998 12.998 0 004.414 3.614 12.737 12.737 0 005.907 1.347 12.737 12.737 0 005.583-1.347 12.998 12.998 0 004.415-3.614 1.605 1.605 0 000-1.978zM5.137 14.34a12.139 12.139 0 01-4.123-3.376.752.752 0 010-.926 12.05 12.05 0 015.51-3.964A5.939 5.939 0 004.548 10.5c0 1.756.765 3.336 1.978 4.427a12.043 12.043 0 01-1.388-.588zM10.5 15.6a5.104 5.104 0 01-5.098-5.1A5.104 5.104 0 0110.5 5.402a5.104 5.104 0 015.098 5.099 5.104 5.104 0 01-5.098 5.098zm9.486-4.636a12.139 12.139 0 01-4.123 3.376c-.453.226-.915.42-1.386.586a5.939 5.939 0 001.976-4.425 5.939 5.939 0 00-1.978-4.427 12.043 12.043 0 015.511 3.963.752.752 0 010 .927z"/><path d="M10.5 8.318A2.184 2.184 0 008.318 10.5c0 1.203.98 2.182 2.182 2.182a2.184 2.184 0 002.182-2.182A2.184 2.184 0 0010.5 8.318zm0 3.51A1.33 1.33 0 019.173 10.5c0-.732.595-1.328 1.327-1.328s1.328.596 1.328 1.328a1.33 1.33 0 01-1.328 1.328z"/></g><defs><clipPath id="clip0"><path fill="#fff" d="M0 0h21v21H0z"/></clipPath></defs></svg>