<svg width="145" height="46" fill="none" xmlns="http://www.w3.org/2000/svg"><path d="M45.377 34.325l2.55 7.52 2.562-7.52h4.103a1.987 1.987 0 00-.464.704A4.05 4.05 0 0054 36.23v7.148c-.015.404.028.807.127 1.198.054.121.116.24.184.353.076.126.17.24.28.337h-4.055c.195-.188.345-.418.438-.673.118-.404.167-.825.144-1.245v-5.886l-2.658 7.804h-2.238l-2.803-8.254v6.336c-.022.42.025.84.14 1.245.093.255.243.485.438.673h-2.886a1.83 1.83 0 00.438-.69c.112-.389.16-.794.14-1.198V36.23a3.605 3.605 0 00-.14-1.201 1.615 1.615 0 00-.18-.359 3.002 3.002 0 00-.271-.345h4.279zm16.94 0l2.982 9.053a7.2 7.2 0 00.263.713c.076.168.165.33.268.485a3.008 3.008 0 00.687.69h-4.055c.143-.195.22-.43.223-.673a4.3 4.3 0 00-.271-1.245l-.438-1.31h-2.979l-.372 1.31c-.138.4-.208.821-.206 1.245.02.244.108.477.254.673h-2.877c.256-.192.478-.425.657-.69.206-.38.368-.781.482-1.198l1.988-7.148c.134-.386.203-.792.206-1.201a1.221 1.221 0 00-.08-.359 1.973 1.973 0 00-.174-.345h3.442zm-.876 6l-1.077-3.186-.876 3.185h1.953zm13.477-6v2.303a1.67 1.67 0 00-.675-.437 3.783 3.783 0 00-1.248-.144h-.964v7.34c-.014.404.03.807.132 1.197.054.122.116.24.184.354.076.125.17.239.28.337h-4.055c.199-.19.357-.42.463-.673.102-.407.145-.826.128-1.245v-7.319h-.96a3.727 3.727 0 00-1.252.144 1.756 1.756 0 00-.675.437v-2.294h8.642zm7.532 6.24l1.35 2.813c.198.422.441.82.726 1.189.111.12.23.237.355.354.137.123.284.236.438.336h-3.465l-2.031-4.186h-.241v2.32c-.014.396.029.792.126 1.176.055.121.117.24.184.354.076.126.17.24.281.336h-4.056c.197-.187.346-.417.438-.673.12-.404.168-.825.145-1.245v-7.074c.02-.414-.028-.83-.145-1.228a1.99 1.99 0 00-.438-.69h3.46c.6-.002 1.198.055 1.787.17a4.686 4.686 0 011.524.56c.434.252.798.61 1.056 1.04a3.05 3.05 0 01.394 1.608 2.924 2.924 0 01-.521 1.804 3.324 3.324 0 01-1.367 1.035zm-2.868-1.215c.268.002.535-.043.788-.131.236-.07.457-.183.652-.332.18-.147.328-.326.438-.529a1.38 1.38 0 000-1.28 1.86 1.86 0 00-.438-.533 1.996 1.996 0 00-.639-.363 2.463 2.463 0 00-.788-.127v3.312l-.013-.017zm12.968-5.025l2.982 9.053c.071.244.159.482.263.713.076.168.165.33.267.485a2.946 2.946 0 00.688.69h-4.056c.144-.195.222-.43.224-.673a4.281 4.281 0 00-.272-1.245l-.438-1.31H89.23l-.373 1.31c-.14.4-.21.821-.205 1.245.02.244.108.477.254.673h-2.882c.254-.194.476-.427.657-.69.202-.38.36-.782.473-1.198l1.984-7.148c.137-.386.208-.792.21-1.201a1.205 1.205 0 00-.079-.359 1.947 1.947 0 00-.175-.345h3.456zm-.876 6l-1.078-3.186-.876 3.185h1.954zm9.057-4.383a.88.88 0 00-.696.288.922.922 0 00-.263.638.9.9 0 00.25.664c.189.185.395.354.613.503.27.181.554.34.85.476.302.14.595.284.876.437.287.152.56.33.814.533.264.208.487.463.657.752.165.26.285.547.355.847.074.308.106.624.096.94a4.06 4.06 0 01-.144.943 2.96 2.96 0 01-.386.844c-.351.52-.847.925-1.427 1.166a4.968 4.968 0 01-2.019.398 5.729 5.729 0 01-1.288-.136 4.749 4.749 0 01-1.117-.388l-.674-2.412c.16.178.345.334.547.463.24.157.496.289.762.393.285.112.578.202.876.271.305.07.617.105.928.105a1.189 1.189 0 00.85-.337 1.197 1.197 0 00.123-1.56 2.719 2.719 0 00-.583-.55 6.703 6.703 0 00-.836-.437 9.832 9.832 0 01-.84-.437 5.895 5.895 0 01-.785-.494 3.145 3.145 0 01-1.112-1.538 2.852 2.852 0 01-.162-.983 3 3 0 01.289-1.35c.184-.38.455-.71.793-.965a3.65 3.65 0 011.169-.586c.466-.136.95-.203 1.437-.2.235 0 .47.013.704.038.245.031.482.066.705.105a9.67 9.67 0 011.122.271v2.368a8.457 8.457 0 00-.377-.345 2.702 2.702 0 00-.512-.345 3.23 3.23 0 00-1.595-.38z" fill="#7DB324"/><path d="M108.934 35.942a.878.878 0 00-.697.288.951.951 0 000 1.311c.192.184.399.352.618.503.269.181.554.34.849.476.298.14.592.284.876.437.289.153.563.332.819.533.503.408.857.97 1.008 1.599.075.307.108.623.096.94a3.858 3.858 0 01-.144.943c-.082.3-.212.585-.386.843-.35.52-.845.925-1.423 1.167a4.987 4.987 0 01-2.019.398 5.77 5.77 0 01-1.292-.136 4.714 4.714 0 01-1.113-.389l-.674-2.416c.157.176.337.33.534.459.241.155.496.287.762.393.285.11.578.201.876.271.306.07.619.105.933.105.316.004.622-.117.85-.337a1.208 1.208 0 00.118-1.56 2.556 2.556 0 00-.618-.55 6.572 6.572 0 00-.832-.437 11.238 11.238 0 01-.84-.437 5.937 5.937 0 01-.789-.494 3.218 3.218 0 01-1.112-1.538 2.837 2.837 0 01-.162-.983 3 3 0 01.289-1.35c.184-.38.456-.71.792-.965a3.66 3.66 0 011.174-.586 5.016 5.016 0 011.432-.2c.236 0 .471.013.705.038.246.031.482.066.706.105a10.01 10.01 0 011.121.271v2.368a7.934 7.934 0 00-.377-.345 2.552 2.552 0 00-.512-.345 3.358 3.358 0 00-.679-.27 3.26 3.26 0 00-.889-.11zm14.812-1.617a1.929 1.929 0 00-.465.704 4.024 4.024 0 00-.131 1.201v7.148a4.2 4.2 0 00.131 1.198c.055.121.116.24.184.353.075.127.17.24.281.337h-4.056c.196-.187.346-.418.438-.673.119-.404.168-.825.145-1.245v-2.163h-3.447v2.185c-.014.403.03.806.127 1.197.057.118.118.236.189.354a1.4 1.4 0 00.279.336h-4.055c.197-.187.346-.417.438-.673.119-.404.168-.825.145-1.245v-7.074a3.692 3.692 0 00-.145-1.227 2.05 2.05 0 00-.438-.69h4.055a2.004 2.004 0 00-.468.703 4.19 4.19 0 00-.127 1.201v3.246h3.447v-3.233a3.692 3.692 0 00-.145-1.227 2.002 2.002 0 00-.438-.69l4.056-.023zm6.328-.095a6.219 6.219 0 012.133.362c.65.227 1.246.586 1.751 1.053.517.49.918 1.086 1.179 1.747a6.922 6.922 0 010 4.807 5.128 5.128 0 01-1.17 1.747 4.9 4.9 0 01-1.751 1.062 6.255 6.255 0 01-2.125.358 6.215 6.215 0 01-2.133-.358 4.912 4.912 0 01-1.73-1.062 5.14 5.14 0 01-1.169-1.747 6.934 6.934 0 010-4.806 4.812 4.812 0 012.899-2.797 6.217 6.217 0 012.116-.367zm0 9.402a1.945 1.945 0 001.034-.302 2.96 2.96 0 00.876-.825c.257-.37.451-.781.573-1.215a5.372 5.372 0 000-2.98 3.969 3.969 0 00-.573-1.219 3.026 3.026 0 00-.876-.813 1.95 1.95 0 00-2.094 0c-.333.214-.622.49-.85.813a4.091 4.091 0 00-.578 1.219 5.504 5.504 0 000 2.98c.126.433.321.844.578 1.215.225.329.514.61.85.825.312.198.673.303 1.042.302h.018zm10.165-9.307a9.17 9.17 0 011.787.17 4.717 4.717 0 011.524.56c.434.253.797.61 1.056 1.04a3.492 3.492 0 010 3.211c-.258.43-.621.788-1.056 1.04-.472.272-.987.46-1.524.555a9.92 9.92 0 01-1.787.157v2.32c-.013.403.03.806.128 1.198.054.121.115.24.183.353.077.126.171.239.281.337h-4.056c.196-.188.345-.418.438-.673.119-.404.168-.825.145-1.245v-7.083a3.693 3.693 0 00-.145-1.228 2.008 2.008 0 00-.438-.69l3.464-.022zm0 5.025c.267.002.532-.043.785-.131.233-.078.451-.196.643-.35.18-.145.329-.325.438-.528.108-.196.163-.415.162-.638a1.334 1.334 0 00-.162-.643 1.792 1.792 0 00-.438-.533 2.013 2.013 0 00-.643-.362 2.44 2.44 0 00-.785-.127v3.312z" fill="#3B7B3C"/><path fill-rule="evenodd" clip-rule="evenodd" d="M15.95 24.94a10.545 10.545 0 00-.403-.983 7.646 7.646 0 00-4.353-4.094 14.414 14.414 0 01-2.566-1.228 5.661 5.661 0 00-1.069-.498 8.243 8.243 0 00-2.672-.34 2.581 2.581 0 00-1.086.23 1.61 1.61 0 00-.254.15c-.092.2-.219.476-.298.694a10.21 10.21 0 00-.437 1.586c.281.188.574.36.875.516a40.81 40.81 0 005.383 2.341 15.779 15.779 0 014.56 2.4 5.187 5.187 0 011.383 1.778c.28.624.495 1.275.64 1.944.026.048.052.092.074.14.215.388.487.743.806 1.053 0-1.311.473-2.368.07-3.622-.215-.695-.399-1.39-.653-2.067z" fill="#7EB325"/><path fill-rule="evenodd" clip-rule="evenodd" d="M19.49 21.453c-1.314-1.529-2.05-3.368-4.003-4.268-1.165-.538-2.23-1.434-3.408-1.87-1.344-.494-2.995-.285-4.34.1-.994.288-1.958.437-2.812 1.11a5.21 5.21 0 00-.411.345c.184 0 .359-.03.53-.026.788.03 1.576.065 2.36.118 1.353.078 3.105.865 4.384 1.39a10.071 10.071 0 013.215 2.402 7.958 7.958 0 011.2 1.861c.306.617.6 1.228.876 1.853.21.461.378.94.499 1.433a8.929 8.929 0 01-.105 4.068c-.075.306-.162.612-.25.93l1.23.14c.045 0 .75-1.468.816-1.63a6.477 6.477 0 00.438-1.769c.148-1.284 0-2.582.043-3.875a11.66 11.66 0 01.162-1.573 1.987 1.987 0 00-.425-.739zm-5.099 7.044a4.559 4.559 0 00-1.515-2.115c-1.62-1.088-3.683-1.556-5.514-2.185a67.597 67.597 0 01-4.296-1.533 1.237 1.237 0 00-.592-.166c-.02.54.07 1.08.263 1.586a7.176 7.176 0 001.204 2.473c.375.504.888.889 1.476 1.11.997.36 2.023.637 3.066.825.876.157 1.774.175 2.575.498.167-.268.348-.528.543-.777a.85.85 0 011.183-.14c.438.31.854.625 1.266.957.232.179.438.375.683.572a7.29 7.29 0 00-.342-1.105z" fill="#7EB325"/><path fill-rule="evenodd" clip-rule="evenodd" d="M24.794 30.716c.166-.345.354-.712.564-1.066a.78.78 0 01.119-.2l.057-.075a3.169 3.169 0 011.892-1.503.83.83 0 01.232-.035 2.42 2.42 0 011.033.157c.876.32 1.266 1.25 1.844 1.905.407-.409.744-.88.999-1.398a.993.993 0 00.079-.297v-.32a6.559 6.559 0 00-.487-.646c-.328-.41-.687-.813-.98-1.25a10.606 10.606 0 01-1.315-3.604c-.494-2.469-.696-5.217-2.115-7.38l-.57.546c.24.412.424.852.548 1.311.202.458.38.926.535 1.403.313.64.536 1.321.66 2.023a8.558 8.558 0 010 2.486c-.266 1.748-1.068 3.233-2.08 4.684a10.863 10.863 0 00-1.563 3.443h.5a.624.624 0 01.048-.184zm17.491-20.693a10.56 10.56 0 01-.719-.874c-.582-.808-1.16-1.664-1.782-2.52a6.084 6.084 0 00-1.218-1.386 20.8 20.8 0 001.113-4.103c-.263.223-.539.437-.797.69a4.07 4.07 0 00-.473.547 4.9 4.9 0 00-.285.511l-.048-.026c.083-.288.17-.572.25-.874.127-.48.254-.974.372-1.477.02-.15.031-.302.03-.454L38.663 0c-.167.201-.342.389-.49.607-.15.219-.255.525-.439.734-.354.472-.731.905-1.086 1.346a4.366 4.366 0 00-.963 1.748c-.092.389-.136.79-.197 1.193-.2-.531-.28-1.1-.237-1.665l-.017-.03c-.154.192-.316.375-.438.572a2.078 2.078 0 00-.197 2.237c.108.241.196.491.262.747.203.445.36.909.469 1.385a22.67 22.67 0 01.477 3.544c.019.74.137 1.475.35 2.184a9.68 9.68 0 01.439-2.005c.188-.49.35-1.005.525-1.525.095-.284.095-.59 0-.874-.1-.323-.206-.642-.315-.966a2.994 2.994 0 01.223-2.556c.206-.362.438-.716.635-1.048 0 .074.03.205.048.332a2.18 2.18 0 001.152 1.774c.092.048.184.1.28.14A2.853 2.853 0 0140.6 9.21a3.236 3.236 0 001.313 1.345c.272.149.561.258.841.385a2.033 2.033 0 00-.468-.918zM23.768 18.25c0-.34-.03-.685-.065-1.03-.027-.258-.08-.516-.123-.787-.67.22-1.36.377-2.058.472.16.568.207 1.162.14 1.748 0 .137-.01.274-.03.41l-.027.149a15.34 15.34 0 01-.25 1.31c-.044.202-.088.403-.136.604a13.355 13.355 0 00-.473 2.687v.734c0 1.695 0 3.369-.416 5.029a9.963 9.963 0 01-.516 1.555c.38 0 .753-.048 1.125-.056a.245.245 0 00.245-.184 34.358 34.358 0 002.466-8.957 26.49 26.49 0 00.118-3.683z" fill="#377A39"/><path fill-rule="evenodd" clip-rule="evenodd" d="M24.525 27.653c.723-1.17 1.564-2.21 2.041-3.495.07-.214.136-.437.201-.647a7.194 7.194 0 00-.372-4.723c-.25-.594-.508-1.18-.7-1.796a2.518 2.518 0 00-.53-1.123l-.74.258c.087.507.192.988.253 1.473.175 1.38.565 2.813.412 4.207-.328 2.971-1.892 6.253-3.017 9.005a2.508 2.508 0 00-.075.201c.438 0 .823-.03 1.222-.052a11.229 11.229 0 011.305-3.308z" fill="#377A39"/><path fill-rule="evenodd" clip-rule="evenodd" d="M2.514 19.92a5.08 5.08 0 01.39-1.748 4.56 4.56 0 00-1.178.76c.271.315.534.647.788.988zm-.324 1.088a5.73 5.73 0 00.123-.289c-.32-.459-.662-.895-1.016-1.332l-.066.078a7.45 7.45 0 00-.565.809c.53.194 1.041.44 1.524.734zm-.75 1.572c.07-.283.184-.555.338-.803.035-.062.07-.123.1-.184a8 8 0 00-1.506-.734A4.736 4.736 0 000 22.32c.442.232.945.324 1.44.262zm1.394 6.28a7.72 7.72 0 01-.154-1.748 3.973 3.973 0 00-.372-1.722c-.232-.507-.469-1.01-.674-1.52a3.132 3.132 0 01-.18-.62A3.342 3.342 0 010 23.04c.044.716.127 1.428.201 2.14.088.826.237 1.648.268 2.478.01 1.022.077 2.043.201 3.058.053.328.11.656.167.988h.039l.24-.468c.025.03.039.067.04.105a4.047 4.047 0 01-.28 1.617c-.149.485-.307.96-.438 1.446l.048.03c.158-.2.333-.393.473-.607.14-.214.259-.437.394-.686-.053.62-.2 1.229-.438 1.805a.824.824 0 00.15-.11 4.308 4.308 0 001.002-1.459c.327-.791.567-1.616.714-2.46a4.87 4.87 0 00.053-2.058z" fill="#7EB325"/><path fill-rule="evenodd" clip-rule="evenodd" d="M29.833 22.122c.035.14.07.284.101.437.337.878.732 1.734 1.183 2.56.262.494.543.988.832 1.512 0 .026.04.052.061.074.166-.423.286-.862.36-1.31a11.08 11.08 0 00-.645-1.967 26.094 26.094 0 01-1.314-3.902 23.063 23.063 0 00-1.572-4.395 12.172 12.172 0 00-1.708-2.377 2.452 2.452 0 00-.328.97c.105.336.376.315.591.546a6.884 6.884 0 011.191 2.373c.605 1.774.832 3.648 1.248 5.479zM27.776 12.02a5.245 5.245 0 011.638 2.106c.1.161.192.327.276.498a25.26 25.26 0 011.603 4.37 33.257 33.257 0 001.327 3.993c.184.454.175.437.622.59-.307-.848-.377-1.748-.618-2.622-.284-1.005-.438-2.088-.788-3.058-.153-.437-.328-.844-.469-1.272a15.893 15.893 0 00-3.096-5.413c-.118-.136-.175-.153-.28 0-.112.174-.21.357-.294.546-.061.105-.026.183.079.262zm7.234 1.424a7.243 7.243 0 00-.091-.681 17.691 17.691 0 01-.329-2.622c.027-.805-.044-1.61-.21-2.399a7.328 7.328 0 00-.175-.524 1.736 1.736 0 00-.088-.183 15.028 15.028 0 01-.626-1.403 1.24 1.24 0 00-.053-.118l-.136.11a8.13 8.13 0 01-.994.82c-.147.122-.269.27-.359.438a.167.167 0 00-.026.048.556.556 0 010 .122 1.067 1.067 0 000 .205c.232.38.438.787.696 1.145.304.487.577.992.82 1.512a9.72 9.72 0 01.993 3.246c.18 1.215.07 2.574.526 3.727.074.193.228.538.32.726.052-.092.232-.398.293-.485a.489.489 0 000-.59c-.5-.944-.46-2.036-.56-3.094zm-.508 3.889c-.775-1.573-.573-3.316-1.064-4.972-.3-.97-.742-1.888-1.314-2.727a8.247 8.247 0 01-1.029-1.813c-.44.223-.775.606-.937 1.07a.292.292 0 00.026.219c.03.052.066.105.1.157.728.634 1.148 1.621 1.577 2.469a19.264 19.264 0 011.468 3.557 30.922 30.922 0 001.313 3.805c.027.081.062.159.106.232.127-.406.328-.752.153-1.184-.132-.293-.267-.55-.399-.813z" fill="#377A39"/><path fill-rule="evenodd" clip-rule="evenodd" d="M33.522 19.01a24.58 24.58 0 01-1.086-3.233 18.263 18.263 0 00-1.445-3.539c-.399-.773-.762-1.704-1.433-2.28a.41.41 0 01-.144-.223 1.912 1.912 0 00-.736.808.175.175 0 00.026.153c.15.188.307.376.465.56a11.445 11.445 0 011.992 3.25c.54 1.38 1.144 2.687 1.59 4.099.333 1.048.846 2.25.876 3.333.291-.404.459-.883.482-1.38a5.402 5.402 0 00-.587-1.547z" fill="#377A39"/><path fill-rule="evenodd" clip-rule="evenodd" d="M10.835 29.663c-.223.7-.438 1.368-.657 2.04a.18.18 0 01-.123.092 7.818 7.818 0 01-2.724.083c-.403-.07-.81-.117-1.217-.183a.183.183 0 01-.127-.092c-.39-.952-.771-1.892-1.17-2.862v-.043c.45.364.973.629 1.533.777a6.253 6.253 0 001.59.162h2.724l.171.026zm7.025-11.906c.5.437 2.597 2.316 2.462 2.822.078-.288.148-.58.2-.873.132-.7.439-2.185-.104-2.845a.31.31 0 00-.136-.035c-1.708-.07-3.368-.41-5.058-.568.876.568 1.752.795 2.575 1.45l.061.049z" fill="#7EB325"/><path fill-rule="evenodd" clip-rule="evenodd" d="M28.827 29.318c-.504-.503-1.104-.821-1.861-.415-.461.2-.872.498-1.205.874-.56.808.294.498.771.437.291-.028.585-.028.876 0 .504.026.806.319 1.226.537.42.219.832.332 1.235.52.088.04-.122-.817-.18-.909a5.423 5.423 0 00-.862-1.044zm-3.014 1.765c-.267.245-.162.656-.074 1.106a.28.28 0 00.1.144l.145.096c1.08.233 2.172.4 3.271.502.15-.35.294-.703.439-1.066a8.846 8.846 0 01-1.003-.354c-.727-.297-1.621-.777-2.44-.616a.837.837 0 00-.438.188zm4.678 14.598a4.328 4.328 0 00-1.09-1.643.873.873 0 01-.342-.699 1.95 1.95 0 00-.215-.874 6.341 6.341 0 01-.499.219c-.17.065-.372.218-.56.314a2.063 2.063 0 01-1.152.044.595.595 0 00.385.437c.278.099.514.288.67.537.064.11.093.236.084.363 0 .175-.053.35-.075.529a.265.265 0 00.153.275c.118.075.231.158.338.249.17.149.337.301.516.437a.372.372 0 00.22.087c.464 0 .928 0 1.392-.035.215.035.272-.043.175-.24z" fill="#377A39"/><path fill-rule="evenodd" clip-rule="evenodd" d="M11.11 45.681a4.329 4.329 0 00-1.09-1.643.875.875 0 01-.341-.699 2.238 2.238 0 00-.075-.48c-.587.276-1.19.52-1.804.73.212.106.392.267.521.467.063.11.092.236.083.362 0 .175-.052.35-.074.529a.266.266 0 00.153.275c.117.074.229.158.333.25.175.148.341.3.521.436a.372.372 0 00.219.088c.464 0 .929 0 1.393-.035.197-.005.258-.083.162-.28zm-6.533 0a4.33 4.33 0 00-1.073-1.643.875.875 0 01-.276-.358 5.808 5.808 0 01-1.927-.083c.195.106.362.256.49.437.064.11.093.236.084.363 0 .174-.053.349-.075.528a.258.258 0 00.153.275c.118.075.229.158.333.25.175.148.342.301.517.436a.395.395 0 00.223.088c.465 0 .929 0 1.393-.035.193.017.25-.061.158-.258zM5.965 32.25a3.447 3.447 0 01-.407 1.24l-.092.285a5.146 5.146 0 001.585.48 5.629 5.629 0 002.146-.262.504.504 0 00.416-.437c.088-.393.215-.782.338-1.206-1.345.359-2.668.507-3.986-.1zm3.048 2.399c-.372.052-.749.122-1.12.144a8.553 8.553 0 01-2.532-.32c-.25-.056-.254-.056-.381.14-.145.304-.23.631-.25.966-.007.206.01.41.053.612l.035.074c.074.144.149.197.298.17.875-.126 1.751-.244 2.592-.393.252-.031.49-.13.692-.284.33-.33.6-.716.797-1.14l-.184.03zm-4.927.983a3.996 3.996 0 01-2.19-.77l-.297-.157a1.466 1.466 0 00-.088.193 3.79 3.79 0 00-.131 1.31 4.83 4.83 0 011.524.245c.464.217.94.41 1.423.577v-.026a3.754 3.754 0 01-.24-1.372z" fill="#7EB325"/><path fill-rule="evenodd" clip-rule="evenodd" d="M26.242 37.62c-.32.188-.258.13-.192.498.024.137.058.273.1.406.031.1.075.201.119.306.727-.682 1.752-.717 2.759-.738 0-.219.03-.437.035-.63a.984.984 0 000-.257c-.953.036-1.898.176-2.82.415zm2.086-4.2c-.364 0-.723 0-1.095-.047-.145 0-1.376-.145-1.384-.284 0 .275.026.533.035.79a.23.23 0 010 .053c1.029.245 2.19.524 3.197.232 0-.232.03-.437.044-.686-.263-.031-.53-.044-.797-.057z" fill="#377A39"/><path fill-rule="evenodd" clip-rule="evenodd" d="M4.261 34.697c.108-.254.23-.5.368-.739-.25-.122-.468-.24-.687-.367-.307-.175-.605-.371-.933-.572-.145.227-.28.467-.438.69-.158.223-.29.385-.438.573a3.193 3.193 0 002.023.8c.028-.13.063-.26.105-.385zm5.059 6.715l-.64.284a4.33 4.33 0 01-.788.271c-.151.06-.31.096-.473.11h-.197c-.026.17-.188.677-.21.764a.31.31 0 01.065.066c.184.28 1.73-.437 1.95-.499.182-.068.37-.122.56-.161l-.267-.835zM8.028 37.31l.32-.984c-1.078.227-2.19.284-3.136.874l.644.813a3.759 3.759 0 012.172-.703zm-3.101-3.898c.138-.268.249-.549.329-.839a1.351 1.351 0 00-.035-.183l-.022-.057c-.263-.577-.815-.874-1.314-1.223a.199.199 0 000 .039c-.175.476-.355.952-.526 1.411.473.262.968.546 1.472.808a.833.833 0 00.096.044z" fill="#7EB325"/><path fill-rule="evenodd" clip-rule="evenodd" d="M27.968 34.84a10.36 10.36 0 01-2.045-.065c0 .175-.026.328-.03.485a.918.918 0 000 .31.988.988 0 00.253.123h.123c.304.043.612.065.92.065a8.58 8.58 0 001.103-.196c.272-.057.543-.127.815-.201 0-.21 0-.437-.03-.634a4.321 4.321 0 01-1.109.114z" fill="#377A39"/><path fill-rule="evenodd" clip-rule="evenodd" d="M3.433 42.483a4.87 4.87 0 01-1.975-.538h-.035a2.18 2.18 0 01-.184.533.929.929 0 00-.17.538 5.821 5.821 0 002.491.135.135.135 0 000-.043 5.65 5.65 0 01-.127-.625z" fill="#7EB325"/><path fill-rule="evenodd" clip-rule="evenodd" d="M27.636 36.265a3.81 3.81 0 01-1.69-.061l.039.817c.477-.087.954-.17 1.436-.214a16.055 16.055 0 011.656-.157v-.678a12.37 12.37 0 01-1.441.293z" fill="#377A39"/><path fill-rule="evenodd" clip-rule="evenodd" d="M3.11 37.14a4.693 4.693 0 00-1.555-.346 1.575 1.575 0 00-.201 0v.21l.052.655a7.4 7.4 0 012.286.572c.067-.13.151-.253.25-.362.044-.114.092-.227.131-.337-.333-.104-.64-.249-.963-.393zm-1.665 1.1c0 .223.027.437.035.673l.057.026h.035a7.31 7.31 0 001.831.437 5.13 5.13 0 01.1-.58c-.691-.176-1.353-.442-2.058-.556zm.045 1.267v.704a3.51 3.51 0 001.86.437v-.757a7.894 7.894 0 01-1.86-.384z" fill="#7EB325"/><path fill-rule="evenodd" clip-rule="evenodd" d="M28.166 38.677a5.204 5.204 0 00-1.314.437l-.066.04c-.1.072-.19.155-.271.248a.232.232 0 00-.044.127c.002.168.017.336.044.503a9.91 9.91 0 012.023-.494c.131-.297.258-.599.39-.905-.272.014-.521.022-.762.044zm-1.336 3.037h-.053l-.21.73.586-.036a4.124 4.124 0 001.568-.498c0-.14-.022-.288-.03-.437-.614.066-1.24.114-1.862.24z" fill="#377A39"/><path fill-rule="evenodd" clip-rule="evenodd" d="M8.76 40.023a9.724 9.724 0 00-.93.664 2.39 2.39 0 01-.674.34c.031.138.053.276.066.416.63.074 1.182-.245 1.752-.52l.1-.066a5.296 5.296 0 00-.315-.834zm-7.415 1.214a4.46 4.46 0 002.019.682c0-.236-.03-.472-.035-.703a4.482 4.482 0 01-1.919-.402 6.58 6.58 0 01-.065.423z" fill="#7EB325"/><path fill-rule="evenodd" clip-rule="evenodd" d="M28.608 40.093c-.656.093-1.302.25-1.927.467.052.201.1.393.153.586.6-.114 1.213-.158 1.822-.228v-.668a.25.25 0 00-.048-.157z" fill="#377A39"/><path fill-rule="evenodd" clip-rule="evenodd" d="M8.015 37.851a4.18 4.18 0 00-1.883.743c.079.18.149.35.223.52.062.1.118.205.171.306a6.573 6.573 0 011.266-.726c.14-.052.28-.096.438-.135a1.352 1.352 0 01-.215-.708zm-4.17-7.703a.96.96 0 00.075.206 6.8 6.8 0 00.643.463c.066 0 .097-.035.106-.118a2.014 2.014 0 00-.583-1.792 3.084 3.084 0 01-.946-1.402h-.044c-.003.107.007.214.03.319.075.231.19.437.26.69.161.529.315 1.07.46 1.634zm4.564 8.927a4.16 4.16 0 00-.473.157c-.405.199-.793.43-1.16.69.087.187.164.378.232.573.437-.061.954-.678 1.313-.874.09-.052.184-.096.28-.131a4.309 4.309 0 01-.192-.415zm3.157-14.673a32.37 32.37 0 011.792 1.08l-1.792-1.08z" fill="#7EB325"/><path fill-rule="evenodd" clip-rule="evenodd" d="M46.27 15.166a.815.815 0 010-.437.873.873 0 00-.166-.874 6.435 6.435 0 01-.508-.673c-.149-.231-.263-.498-.438-.72a4.377 4.377 0 00-1.362-1.154.737.737 0 00-.105-.035.35.35 0 00.061.157c.075.118.158.223.22.345.135.267.06.437-.21.529a2.893 2.893 0 01-.605.092c-.404.003-.8.116-1.143.327a4.729 4.729 0 01-.412.228c-.287.16-.597.275-.92.34-.328.066-.652.175-.972.267a1.689 1.689 0 00-.18.087.21.21 0 01.062-.091 6.404 6.404 0 011.91-1.22c.201-.077.398-.166.59-.266.14-.074.263-.175.399-.262-.118-.096-.21-.184-.311-.253a7.476 7.476 0 00-.583-.39 3.863 3.863 0 00-.39-.165 1.523 1.523 0 01-.779-.748 8.044 8.044 0 01-.214-.437c-.35-.747-.714-.244-1.275-.288a2.114 2.114 0 01-.788-.319c.157-.092 1.506-.524 1.58-.196-.091-.437-.2-.525-.538-.437a5.398 5.398 0 00-.876.332.68.68 0 01-.801-.092l-.224-.18a.942.942 0 00.311.805c.184.144.373.27.56.402.176.122.383.193.597.205.133.025.262.066.385.122-.219.284-.39.332-.661.206a1.402 1.402 0 00-.21-.083c-.198-.053-.325.035-.36.258-.02.144-.029.29-.026.437a2.1 2.1 0 01-.188.956c-.145.302-.303.595-.438.896a8.041 8.041 0 00-.416 1.106 7.105 7.105 0 00-.154 1.992.136.136 0 00.092.135l.438.267.276.148c-.219-.952-.438-2.053-.144-3.058a2.65 2.65 0 01.828-1.276c.394-.305.852-.52 1.34-.63.306-.09.635-.135.95-.205.367-.002.726.112 1.025.324-.439.24-.9.44-1.375.594-.364.17-.719.332-1.087.494a1.668 1.668 0 00-1.029 1.485c-.02.291-.02.583 0 .874.071.601.184 1.197.337 1.783a.437.437 0 00.162.092l.25.083a4.841 4.841 0 01.044-1.43c.166-.873.876-1.227 1.66-1.397a17.54 17.54 0 001.23-.32c.362-.174.737-.32 1.122-.436.146-.014.294-.006.438.026-.288.374-.6.727-.938 1.057-.157.102-.32.198-.486.289-.503.232-1.025.424-1.559.572a3.65 3.65 0 00-.604.315.336.336 0 00-.158.196v.184c.083.402.175.8.267 1.188a.141.141 0 00.084.066c.245.057.49.11.74.157.122.022.254.035.385.053-.035-.223-.066-.437-.1-.638a.37.37 0 01.183-.411c.066-.042.135-.08.206-.114l.815-.358c.461-.17.902-.391 1.314-.66a.39.39 0 010 .07 2.58 2.58 0 01-.228.586l-.04.026a.162.162 0 00-.06.083 3.28 3.28 0 00-.268.144 1.346 1.346 0 00-.675.708c-.056.2-.097.405-.122.612a.124.124 0 00.044.096c.144.135.297.262.438.393a.762.762 0 00.876.192c.318-.138.648-.25.985-.332a.284.284 0 00.057-.07c.083-.179-.079-.406-.184-.528a3.067 3.067 0 00-1.03-.695c.102-.041.206-.075.312-.1a1.13 1.13 0 01.184 0c.123.075.238.16.346.257.25.219.39.573.661.76a.693.693 0 00.801-.117.287.287 0 01.066-.044l.096-.096a2.277 2.277 0 00.614-2.163zm-1.594.314c0 .062-.026.158-.056.162a.312.312 0 01-.228 0 .295.295 0 01-.119-.192 1.452 1.452 0 01-.035-.34.49.49 0 00-.162-.346.166.166 0 010-.205.49.49 0 01.438-.324h.714a.613.613 0 01.438.28v.048l-.368.026a.526.526 0 00-.525.516c-.075.122-.079.249-.1.375h.003zm.15.38l.98-.07a.763.763 0 01-.98.07z" fill="#377938"/><path d="M46.187 22.109h-1.682v3.727h-2.264v-3.727h-1.678V20.36h5.624v1.748zm6.211 1.507h-3.824c.075.2.217.37.403.476.215.117.457.175.701.166a1.75 1.75 0 00.609-.091c.195-.074.377-.179.538-.31l1.187 1.197a3.09 3.09 0 01-2.404.873 3.97 3.97 0 01-1.752-.367 2.817 2.817 0 01-1.165-1.018 2.835 2.835 0 010-2.936 2.77 2.77 0 011.117-1.01 3.674 3.674 0 013.118-.03c.452.214.834.552 1.1.975.28.461.421.994.407 1.533-.005.044-.018.219-.035.542zm-3.565-1.639a.935.935 0 00-.302.547h1.751a.926.926 0 00-.302-.538.878.878 0 00-.582-.196.9.9 0 00-.565.188zm7.761 3.859l-.754-1.176-.845 1.176h-2.466l2.08-2.722-2.023-2.77h2.567l.788 1.162.823-1.163h2.387l-2.023 2.67 2.071 2.823h-2.605zm3.109-5.493h2.264v1.94h1.537v-1.94h2.265v5.493h-2.265V24.03h-1.55v1.787H59.69l.013-5.475zm8.335 5.227a2.816 2.816 0 01-1.139-1.015 2.805 2.805 0 010-2.94 2.768 2.768 0 011.139-1.01 3.945 3.945 0 013.302 0c.467.223.862.573 1.138 1.01a2.855 2.855 0 010 2.94 2.784 2.784 0 01-1.138 1.014 3.896 3.896 0 01-3.302 0zm2.29-1.687c.181-.226.272-.511.254-.8a1.131 1.131 0 00-.254-.79.88.88 0 00-1.288 0 1.152 1.152 0 00-.25.79c-.017.288.072.572.25.8a.88.88 0 001.288 0zm9.079-3.54v5.493H77.13v-3.727h-1.034l-.031.712a7.977 7.977 0 01-.223 1.748 2.02 2.02 0 01-.596 1.048 1.68 1.68 0 01-1.143.367 4.411 4.411 0 01-1.055-.148l.087-1.84h.232a.532.532 0 00.544-.297 2.99 2.99 0 00.161-.987l.08-2.39 5.255.021zm2.26 5.227a2.834 2.834 0 01-1.144-1.015 2.832 2.832 0 010-2.94 2.8 2.8 0 011.144-1.01 3.947 3.947 0 013.297 0 2.75 2.75 0 011.14 1.01 2.86 2.86 0 010 2.94 2.788 2.788 0 01-1.14 1.014 3.889 3.889 0 01-3.297 0zm2.286-1.687c.181-.226.272-.511.254-.8a1.131 1.131 0 00-.254-.79.827.827 0 00-.644-.285.838.838 0 00-.644.284 1.152 1.152 0 00-.25.791c-.017.288.072.572.25.8a.815.815 0 00.644.284.808.808 0 00.644-.284zm8.072-1.774H89.48v3.727h-2.264v-5.493h4.817l-.008 1.766zm.657-1.766h2.26v2.478l1.904-2.478h2.094v5.493h-2.265v-2.49l-1.891 2.49h-2.102v-5.493zm7.323 0h2.264v2.478l1.901-2.478h2.093v5.493h-2.264v-2.49l-1.892 2.49h-2.102v-5.493zm-54.19 10.15c.129.16.197.36.193.564a1.058 1.058 0 01-.315.769 1.972 1.972 0 01-.876.48 4.091 4.091 0 01-1.192.162 5.86 5.86 0 01-2.019-.332l.438-1.175a4.418 4.418 0 001.529.245c.149.004.298-.02.438-.07a.231.231 0 00.162-.223.191.191 0 00-.075-.175.44.44 0 00-.254-.052h-.95v-.975h.823a.6.6 0 00.29-.057.205.205 0 00.087-.183.2.2 0 00-.123-.188 1.069 1.069 0 00-.438-.061c-.472.014-.94.104-1.383.266l-.403-1.127a5.349 5.349 0 011.922-.398 3.51 3.51 0 011.599.324.998.998 0 01.622.926c0 .19-.058.374-.167.529-.11.165-.261.3-.438.393.207.068.39.192.53.358zm6.14.477v2.237h-1.65v-.874h-2.392v.874h-1.651V30.97h.127a.532.532 0 00.53-.359c.116-.332.176-.683.175-1.035l.052-1.525h4.231v2.919h.578zm-3.341-.477a1.052 1.052 0 01-.202.477h1.17v-1.53h-.877v.267a5.401 5.401 0 01-.091.786zm4.816 1.665a2.214 2.214 0 01-.875-.8 2.098 2.098 0 01-.324-1.153 2.124 2.124 0 01.324-1.158c.214-.339.517-.612.876-.79a3.098 3.098 0 012.593 0 2.124 2.124 0 011.196 1.949 2.1 2.1 0 01-.32 1.152 2.189 2.189 0 01-.877.8 3.073 3.073 0 01-2.592 0zm1.8-1.31a1.09 1.09 0 000-1.25.663.663 0 00-.507-.219.648.648 0 00-.504.219 1.09 1.09 0 000 1.25.631.631 0 00.504.227.642.642 0 00.49-.245l.018.017zm6.478-2.605c.322.187.584.46.758.787a2.62 2.62 0 010 2.363 1.967 1.967 0 01-.758.778 2.07 2.07 0 01-1.046.276 1.517 1.517 0 01-1.1-.372v1.822h-1.787v-5.846h1.7v.35a1.513 1.513 0 011.187-.437c.367 0 .728.097 1.046.28zm-.968 2.591a.893.893 0 00.197-.62.922.922 0 00-.197-.63.643.643 0 00-.507-.222.643.643 0 00-.504.223.918.918 0 00-.202.629.892.892 0 00.202.62.633.633 0 00.504.223.648.648 0 00.507-.223zm3.522 1.324a2.212 2.212 0 01-.876-.8 2.099 2.099 0 01-.324-1.153 2.124 2.124 0 01.324-1.158c.214-.339.517-.612.876-.79a3.096 3.096 0 012.593 0c.358.178.662.451.876.79.215.347.327.75.32 1.158.007.407-.104.808-.32 1.154a2.194 2.194 0 01-.876.8 3.074 3.074 0 01-2.593 0zm1.8-1.31a1.089 1.089 0 000-1.25.661.661 0 00-.508-.219.648.648 0 00-.504.219 1.088 1.088 0 000 1.25.626.626 0 00.504.227.64.64 0 00.508-.245v.017zm6.951.257a1.083 1.083 0 01-.47.926c-.409.25-.886.368-1.366.337h-2.553V28.05h2.427a2.63 2.63 0 011.352.297.925.925 0 01.482.83c.002.19-.05.376-.148.537-.11.165-.26.298-.438.385a1.004 1.004 0 01.713 1.005zm-2.825-1.35h.704c.26 0 .386-.105.386-.306a.27.27 0 00-.092-.223.465.465 0 00-.294-.07h-.704v.599zm1.2 1.184c0-.205-.127-.31-.386-.31h-.832v.633h.832c.276 0 .386-.109.386-.323zm3.143 1.219a2.246 2.246 0 01-.897-.8 2.098 2.098 0 01-.324-1.153 2.124 2.124 0 01.324-1.158c.22-.34.532-.614.897-.79a3.098 3.098 0 012.593 0 2.111 2.111 0 011.214 1.948 2.154 2.154 0 01-1.196 1.953 3.074 3.074 0 01-2.593 0h-.018zm1.8-1.31a1.093 1.093 0 000-1.25.665.665 0 00-.508-.219.647.647 0 00-.503.219 1.093 1.093 0 000 1.25.637.637 0 00.503.227.642.642 0 00.509-.245v.017zm6.343-1.408h-2.002v2.928h-1.778V28.05h3.78v1.39zm1.292 2.718a2.214 2.214 0 01-.897-.8 2.094 2.094 0 01-.325-1.153 2.12 2.12 0 01.325-1.158c.22-.342.53-.616.897-.79a3.096 3.096 0 012.593 0 2.123 2.123 0 011.196 1.949c.008.406-.104.807-.32 1.152a2.186 2.186 0 01-.876.8 3.07 3.07 0 01-2.593 0zm1.8-1.31a1.088 1.088 0 000-1.25.658.658 0 00-.508-.219.648.648 0 00-.503.219 1.088 1.088 0 000 1.25.626.626 0 00.504.227.639.639 0 00.507-.245v.017zm5.886 1.314a2.188 2.188 0 01-.911-.8 2.21 2.21 0 010-2.315c.224-.344.54-.617.91-.79.412-.194.86-.292 1.315-.285.474-.014.943.104 1.353.341.362.21.637.541.775.935l-1.37.682a.805.805 0 00-.75-.568.694.694 0 00-.525.218 1.042 1.042 0 000 1.254.679.679 0 00.526.223.807.807 0 00.749-.568l1.383.677a1.75 1.75 0 01-.775.94c-.41.237-.879.355-1.353.34a2.978 2.978 0 01-1.327-.284zm3.933-4.112h1.778v1.517h1.217v-1.516h1.779v4.317H98.58V30.96h-1.217v1.407h-1.778V28.05zm9.197.429a1.953 1.953 0 01.6 1.569v2.32h-1.66V31.8a1.224 1.224 0 01-1.226.646 1.98 1.98 0 01-.876-.179 1.273 1.273 0 01-.539-.473 1.27 1.27 0 01-.193-.689 1.088 1.088 0 01.121-.542 1.09 1.09 0 01.37-.415 2.671 2.671 0 011.489-.332h.719c-.058-.336-.329-.507-.815-.507-.201 0-.4.032-.592.092a1.73 1.73 0 00-.516.249l-.57-1.175c.273-.163.568-.284.876-.359.342-.086.694-.13 1.047-.13a2.633 2.633 0 011.765.493zm-1.423 2.792a.621.621 0 00.223-.31v-.297h-.438c-.363 0-.547.118-.547.362 0 .048.01.094.029.137.02.043.049.081.085.112.09.069.202.103.315.097a.602.602 0 00.333-.1z" fill="#3C7B3E"/></svg>