<svg width="48" height="48" fill="none" xmlns="http://www.w3.org/2000/svg"><g filter="url(#filter0_d)"><circle cx="24" cy="24" r="16" fill="#F9FBFB"/></g><path d="M24.5 31l-.104.108.104.1.104-.1L24.5 31zm0 0l.104.108h.001l.003-.004.012-.012.047-.045.176-.177a28.613 28.613 0 002.527-2.96c1.377-1.862 2.78-4.299 2.78-6.52 0-3.062-2.532-5.54-5.65-5.54-3.118 0-5.65 2.478-5.65 5.54 0 2.221 1.403 4.658 2.78 6.52a28.613 28.613 0 002.703 3.137l.047.045.012.012.003.003v.001h.001L24.5 31zm0-8.326c-.762 0-1.378-.608-1.378-1.348 0-.74.616-1.347 1.378-1.347.762 0 1.378.607 1.378 1.347s-.616 1.348-1.378 1.348zm-2.113 4.692l-.12.089.12-.09c-1.713-2.318-2.6-4.382-2.6-5.974 0-2.542 2.112-4.616 4.713-4.616s4.712 2.074 4.712 4.616c0 1.614-.874 3.425-1.927 5.015-.992 1.5-2.127 2.78-2.786 3.477a27.893 27.893 0 01-2.112-2.517zm2.113-8.312c-1.276 0-2.315 1.014-2.315 2.272 0 1.258 1.039 2.273 2.315 2.273s2.315-1.015 2.315-2.273c0-1.258-1.039-2.272-2.315-2.272z" fill="#3B7B3C" stroke="#3B7B3C" stroke-width=".3"/><defs><filter id="filter0_d" x="0" y="0" width="48" height="48" filterUnits="userSpaceOnUse" color-interpolation-filters="sRGB"><feFlood flood-opacity="0" result="BackgroundImageFix"/><feColorMatrix in="SourceAlpha" values="0 0 0 0 0 0 0 0 0 0 0 0 0 0 0 0 0 0 127 0"/><feOffset/><feGaussianBlur stdDeviation="4"/><feColorMatrix values="0 0 0 0 0 0 0 0 0 0 0 0 0 0 0 0 0 0 0.08 0"/><feBlend in2="BackgroundImageFix" result="effect1_dropShadow"/><feBlend in="SourceGraphic" in2="effect1_dropShadow" result="shape"/></filter></defs></svg>