<svg width="26" height="21" fill="none" xmlns="http://www.w3.org/2000/svg"><path d="M13.185 20.036l-.183.104a45.96 45.96 0 01-1.632-.989 47.104 47.104 0 01-4.397-3.141c-1.6-1.298-3.173-2.79-4.34-4.36C1.46 10.07.75 8.483.75 6.977.75 3.547 3.57.75 7.072.75v0h.006a6.278 6.278 0 015.295 2.809l.623.947.628-.944A6.347 6.347 0 0118.925.75c3.495.017 6.307 2.805 6.325 6.23 0 1.532-.712 3.133-1.884 4.714-1.166 1.575-2.738 3.062-4.337 4.353a46.072 46.072 0 01-4.396 3.117c-.6.377-1.1.672-1.448.872z" stroke="#979797" stroke-width="1.5"/></svg>