<svg width="48" height="47" fill="none" xmlns="http://www.w3.org/2000/svg"><path d="M46.553 28.833C47.232 27.875 48 26.79 48 25.5s-.768-2.375-1.447-3.333c-.444-.63-.866-1.223-1.011-1.77-.158-.584-.09-1.334-.02-2.128.109-1.203.22-2.448-.4-3.522-.632-1.09-1.827-1.641-2.882-2.127-.714-.33-1.388-.64-1.804-1.055-.416-.417-.728-1.091-1.057-1.806-.486-1.054-1.037-2.25-2.125-2.88-.87-.503-2.132-.527-3.524-.402-.784.07-1.61.12-2.128-.018-.546-.146-1.139-.567-1.769-1.012C28.876 4.769 27.79 4 26.5 4s-2.376.769-3.333 1.447c-.63.445-1.223.866-1.77 1.012-.517.138-1.341.088-2.127.018-1.389-.127-2.657-.101-3.522.401-1.09.63-1.641 1.826-2.127 2.88-.33.715-.64 1.39-1.057 1.806-.417.415-1.09.727-1.806 1.057-1.053.485-2.248 1.036-2.88 2.126-.621 1.073-.51 2.319-.4 3.522.07.794.138 1.544-.02 2.128-.145.547-.567 1.14-1.011 1.77C5.768 23.125 5 24.21 5 25.5s.768 2.375 1.447 3.333c.444.63.866 1.223 1.011 1.77.158.584.09 1.334.02 2.128-.109 1.203-.22 2.448.4 3.522.632 1.09 1.827 1.641 2.882 2.127.714.33 1.388.64 1.804 1.055.416.417.728 1.091 1.057 1.806.486 1.054 1.037 2.25 2.126 2.88.867.502 2.132.523 3.522.403.785-.07 1.611-.121 2.129.017.546.146 1.14.567 1.769 1.012C24.124 46.231 25.21 47 26.5 47s2.376-.769 3.333-1.447c.63-.445 1.223-.866 1.77-1.012.517-.138 1.341-.088 2.127-.018 1.387.124 2.658.1 3.522-.401 1.09-.63 1.641-1.826 2.127-2.88.33-.715.64-1.39 1.057-1.806.417-.415 1.09-.727 1.806-1.057 1.053-.485 2.248-1.036 2.88-2.126.621-1.073.51-2.319.4-3.522-.07-.794-.138-1.544.02-2.128.145-.547.567-1.14 1.011-1.77zm-20.686 3.635l-2.534 2.534a.893.893 0 01-1.267 0l-5.069-5.068a.895.895 0 010-1.267l2.536-2.534a.896.896 0 111.266 1.267l-1.901 1.9 1.268 1.268 1.267-1.267a.895.895 0 111.267 1.267l-1.267 1.267L22.7 33.1l1.9-1.9a.895.895 0 111.267 1.267zm3.8-3.8a2.68 2.68 0 01-1.9.785 2.678 2.678 0 01-1.9-.786l-2.534-2.534a2.67 2.67 0 01-.787-1.9c0-.718.28-1.393.787-1.9a2.691 2.691 0 013.8 0 .895.895 0 11-1.266 1.267.919.919 0 00-1.267 0 .888.888 0 00-.263.633.89.89 0 00.263.634l2.533 2.533a.919.919 0 001.267 0 .888.888 0 00.263-.633.89.89 0 00-.263-.634.895.895 0 111.267-1.266 2.67 2.67 0 01.787 1.9 2.67 2.67 0 01-.787 1.9zm5.067-5.068a2.664 2.664 0 01-1.9.786 2.672 2.672 0 01-1.9-.785L28.4 21.066a2.668 2.668 0 01-.787-1.9c0-.718.28-1.393.787-1.9 1.015-1.016 2.786-1.016 3.8 0l2.534 2.533c.507.507.787 1.183.787 1.9a2.67 2.67 0 01-.787 1.9z" fill="#FFAF01"/><path d="M38 25.5C38 31.299 32.851 36 26.5 36S15 31.299 15 25.5 20.149 15 26.5 15 38 19.701 38 25.5z" fill="#FFAF01"/><path d="M16.4 21.48l1.548 2.688 1.548-2.688h2.52l-2.844 4.32L21.92 30H19.4l-1.452-2.568L16.496 30h-2.532l2.748-4.2-2.844-4.32H16.4zm8.607 4.872l3.624-4.872h1.704V30h-2.34v-4.728L24.407 30h-1.74v-8.52h2.34v4.872zm13.47-2.832H36.03V30h-2.34v-6.48h-2.46v-2.04h7.248v2.04z" fill="#fff"/></svg>