<svg width="14" height="14" fill="none" xmlns="http://www.w3.org/2000/svg"><g clip-path="url(#clip0)" fill="#E9E9C9"><path d="M13.986 4.116c-.033-.744-.153-1.255-.325-1.698a3.416 3.416 0 00-.81-1.242 3.446 3.446 0 00-1.239-.807c-.446-.172-.954-.292-1.698-.325C9.164.008 8.927 0 7.026 0 5.125 0 4.887.008 4.14.041c-.743.033-1.255.153-1.698.325-.47.178-.891.452-1.242.81a3.45 3.45 0 00-.806 1.239C.22 2.861.1 3.369.068 4.113c-.035.75-.044.988-.044 2.888 0 1.901.009 2.139.041 2.886.033.744.154 1.255.326 1.698.178.47.454.892.81 1.242.35.355.773.632 1.238.806.446.173.955.293 1.699.326.746.033.984.041 2.885.041 1.9 0 2.139-.008 2.885-.041.744-.033 1.256-.153 1.699-.325a3.58 3.58 0 002.048-2.049c.173-.446.293-.954.326-1.698.033-.747.04-.985.04-2.886 0-1.9-.002-2.138-.035-2.885zm-1.26 5.716c-.03.684-.146 1.053-.241 1.3a2.322 2.322 0 01-1.33 1.328c-.246.096-.617.21-1.299.24-.738.034-.96.042-2.827.042-1.868 0-2.093-.008-2.828-.041-.684-.03-1.053-.145-1.3-.24a2.155 2.155 0 01-.803-.523c-.233-.227-.41-.5-.523-.804-.096-.246-.21-.618-.24-1.3-.033-.738-.042-.96-.042-2.827 0-1.868.009-2.092.042-2.828.03-.684.144-1.053.24-1.3.112-.303.29-.579.525-.803.227-.233.5-.41.804-.523.246-.095.618-.21 1.3-.24.738-.033.96-.041 2.827-.041 1.871 0 2.092.008 2.828.04.684.03 1.053.146 1.3.241.303.113.579.29.803.523.233.227.41.5.523.804.095.246.21.618.24 1.299.033.738.041.96.041 2.828 0 1.868-.008 2.087-.04 2.825z"/><path d="M7.026 3.405a3.597 3.597 0 000 7.193 3.597 3.597 0 000-7.193zm0 5.93a2.333 2.333 0 110-4.667 2.333 2.333 0 010 4.666zm4.578-6.072a.84.84 0 11-1.68 0 .84.84 0 011.68 0z"/></g><defs><clipPath id="clip0"><path fill="#fff" d="M0 0h14v14H0z"/></clipPath></defs></svg>