<svg width="20" height="23" fill="none" xmlns="http://www.w3.org/2000/svg"><path d="M17.714 1.89c.376 0 .682.306.682.681v18a.683.683 0 01-.682.682H2.286a.683.683 0 01-.682-.682v-18c0-.375.306-.682.682-.682h15.428zm0-.754H2.286C1.493 1.136.85 1.779.85 2.57v18c0 .793.643 1.436 1.436 1.436h15.428c.793 0 1.436-.643 1.436-1.436v-18c0-.792-.643-1.435-1.436-1.435z" fill="#979797" stroke="#979797" stroke-width=".3"/><path d="M3.97 4.554v.001c0 .053.012.1.029.14a.791.791 0 001.473.236h10.526a.377.377 0 100-.753H5.472a.79.79 0 00-1.473.235.364.364 0 00-.03.141zm1.502 2.31h10.526c.208 0 .377.169.377.377M5.472 6.864l10.753.377M5.472 6.864a.79.79 0 00-1.473.235.364.364 0 000 .283m1.473-.518l-1.473.518m12.376-.14h-.15m.15 0s0 0 0 0h-.15m.15 0a.377.377 0 01-.377.376H5.472m10.753-.377a.227.227 0 01-.227.227H5.376m.096.15a.796.796 0 00.044-.097l-.14-.053m.096.15a.79.79 0 01-1.473-.236m1.473.236h-.096v-.15m0 0l-1.377-.086m1.473 2.169h10.526c.208 0 .377.169.377.377M5.472 9.551l10.753.377M5.472 9.551a.79.79 0 00-1.473.235.364.364 0 000 .283m1.473-.518l-1.473.518m12.376-.14h-.15m.15 0s0 0 0 0h-.15m.15 0a.377.377 0 01-.377.376H5.472m10.753-.377a.227.227 0 01-.227.227H5.376m.096.15a.795.795 0 00.044-.097l-.14-.053m.096.15a.79.79 0 01-1.473-.236m1.473.236h-.096v-.15m0 0l-1.377-.086m1.473 2.169h10.526c.208 0 .377.169.377.377m-10.903-.377l10.753.377m-10.753-.377a.79.79 0 00-1.473.235.364.364 0 000 .283m1.473-.518l-1.473.518m12.376-.14l-.15-.001m.15 0s0 0 0 0h-.15m.15 0a.377.377 0 01-.377.377H5.472m10.753-.377a.227.227 0 01-.227.227H5.376m.096.15a.802.802 0 00.044-.097l-.14-.053m.096.15a.79.79 0 01-1.473-.236m1.473.236h-.096v-.15m0 0l-1.377-.086m1.473 2.169h10.526c.208 0 .377.168.377.377m-10.903-.377l10.753.377m-10.753-.377a.79.79 0 00-1.473.235.364.364 0 000 .283m1.473-.518l-1.473.518m12.376-.141h-.15m.15 0s0 0 0 0h-.15m.15 0a.377.377 0 01-.377.376H5.472m10.753-.376a.227.227 0 01-.227.226H5.376m.096.15a.795.795 0 00.044-.097l-.14-.053m.096.15a.79.79 0 01-1.473-.235m1.473.235h-.096v-.15m0 0l-1.377-.085" fill="#979797" stroke="#979797" stroke-width=".3"/></svg>