<svg width="201" height="64" fill="none" xmlns="http://www.w3.org/2000/svg"><path d="M62.902 47.757l3.533 10.462 3.552-10.462h5.689c-.282.276-.502.61-.644.979a5.65 5.65 0 00-.176 1.671v9.946c-.021.56.038 1.121.176 1.665.075.17.16.334.255.492.106.175.237.332.389.469h-5.622c.27-.262.478-.582.607-.937a5.15 5.15 0 00.2-1.732v-8.188l-3.685 10.857h-3.102l-3.886-11.484v8.815a5.36 5.36 0 00.195 1.732c.128.355.336.675.607.937h-4.001c.272-.27.48-.599.607-.96a5.101 5.101 0 00.194-1.666v-9.946a5.035 5.035 0 00-.194-1.671 2.25 2.25 0 00-.249-.499 4.183 4.183 0 00-.376-.48h5.931zm23.483 0l4.133 12.596c.105.336.226.667.365.99.105.235.229.46.37.675.125.175.263.34.413.492.165.173.347.33.54.469h-5.621c.198-.272.306-.6.31-.937a6.002 6.002 0 00-.377-1.732l-.607-1.824h-4.128l-.516 1.824a5.237 5.237 0 00-.286 1.732c.028.34.15.664.352.937h-3.988a4.01 4.01 0 00.91-.96c.286-.529.51-1.087.668-1.666l2.756-9.946a5.225 5.225 0 00.286-1.671 1.703 1.703 0 00-.11-.499 2.756 2.756 0 00-.242-.48h4.772zm-1.215 8.346l-1.493-4.431-1.214 4.431h2.707zm18.682-8.346v3.203a2.32 2.32 0 00-.935-.608 5.234 5.234 0 00-1.731-.2h-1.335v10.213c-.02.56.041 1.122.182 1.665.075.17.161.334.255.493.106.174.237.332.388.468h-5.621c.276-.264.495-.583.643-.936.14-.567.2-1.15.176-1.733V50.14h-1.33a5.147 5.147 0 00-1.736.2 2.433 2.433 0 00-.935.608v-3.191h11.979zm10.442 8.681l1.87 3.914a8.84 8.84 0 001.007 1.654c.154.166.318.33.492.492.19.172.393.329.607.469h-4.802l-2.817-5.824h-.334v3.228a5.85 5.85 0 00.176 1.635c.075.169.161.333.255.492.104.176.235.334.389.469h-5.622c.272-.261.48-.582.607-.937a5.15 5.15 0 00.201-1.732v-9.842a5.19 5.19 0 00-.201-1.708 2.782 2.782 0 00-.607-.96h4.796c.832-.004 1.661.076 2.477.236a6.485 6.485 0 012.113.778 4.138 4.138 0 011.463 1.447c.384.681.573 1.456.546 2.237a4.075 4.075 0 01-.722 2.511 4.614 4.614 0 01-1.894 1.44zm-3.977-1.69c.372.002.742-.06 1.093-.183.327-.098.633-.255.904-.462.248-.204.454-.453.607-.735a1.918 1.918 0 000-1.781 2.583 2.583 0 00-.607-.742 2.766 2.766 0 00-.886-.505 3.398 3.398 0 00-1.093-.176v4.608l-.018-.024zm17.977-6.991l4.134 12.596c.098.338.22.67.364.99a4.8 4.8 0 00.37.675c.125.173.261.338.407.492.169.172.352.328.546.469h-5.621c.199-.272.307-.6.309-.937a5.952 5.952 0 00-.376-1.732l-.607-1.824h-4.129l-.516 1.824a5.08 5.08 0 00-.284 1.732c.028.34.149.664.352.937h-3.995c.351-.271.659-.595.911-.96.279-.53.499-1.089.655-1.666l2.75-9.946a5.09 5.09 0 00.291-1.671 1.644 1.644 0 00-.109-.499 2.704 2.704 0 00-.242-.48h4.79zm-1.214 8.346l-1.494-4.431-1.215 4.431h2.709zm12.554-6.097a1.215 1.215 0 00-.965.401 1.28 1.28 0 00-.364.888 1.241 1.241 0 00.346.924c.262.257.547.491.85.699.374.253.768.474 1.178.663.418.194.825.395 1.214.607.398.213.776.46 1.129.742.365.29.674.644.911 1.046.228.363.394.761.492 1.179.102.428.147.867.133 1.307a5.664 5.664 0 01-.2 1.313 4.125 4.125 0 01-.535 1.173 4.44 4.44 0 01-1.978 1.623 6.87 6.87 0 01-2.8.554 7.918 7.918 0 01-1.784-.189 6.557 6.557 0 01-1.548-.54l-.935-3.357c.223.248.478.465.759.645.332.218.686.402 1.056.547a8.61 8.61 0 001.214.377 5.8 5.8 0 001.287.146 1.636 1.636 0 001.664-1.522 1.67 1.67 0 00-.316-1.117 3.777 3.777 0 00-.808-.765 9.178 9.178 0 00-1.159-.608 14.369 14.369 0 01-1.166-.608c-.379-.2-.743-.43-1.087-.687a4.373 4.373 0 01-1.541-2.14 3.98 3.98 0 01-.225-1.368 4.187 4.187 0 01.4-1.878 3.717 3.717 0 011.1-1.344 5.07 5.07 0 011.62-.814 6.975 6.975 0 011.992-.28c.327.001.652.02.977.055.34.042.668.091.977.146a13.102 13.102 0 011.555.377v3.294a11.303 11.303 0 00-.523-.48 3.704 3.704 0 00-.709-.48 4.469 4.469 0 00-2.211-.529z" fill="#7DB324"/><path d="M151.005 50.006a1.215 1.215 0 00-.965.401 1.327 1.327 0 000 1.824c.265.256.552.49.856.7.373.252.768.473 1.177.662.413.194.82.395 1.215.608.399.213.779.461 1.135.741a4.099 4.099 0 011.396 2.225c.105.427.151.867.134 1.307a5.354 5.354 0 01-.2 1.313 3.964 3.964 0 01-.535 1.174 4.453 4.453 0 01-1.973 1.623 6.886 6.886 0 01-2.798.553 7.973 7.973 0 01-1.791-.189 6.526 6.526 0 01-1.543-.54l-.934-3.362c.217.244.467.459.741.638a6.1 6.1 0 001.055.547c.396.154.802.28 1.215.377a5.92 5.92 0 001.293.146c.439.006.862-.163 1.178-.468a1.68 1.68 0 00.164-2.17 3.533 3.533 0 00-.857-.766 9.116 9.116 0 00-1.153-.608c-.405-.19-.793-.393-1.165-.608-.382-.2-.748-.43-1.093-.687a4.482 4.482 0 01-1.542-2.14 3.98 3.98 0 01-.225-1.368 4.202 4.202 0 01.401-1.878 3.714 3.714 0 011.099-1.344 5.053 5.053 0 011.627-.814 6.922 6.922 0 011.985-.28c.326.001.653.02.977.055.34.042.668.091.978.146a13.333 13.333 0 011.554.377v3.294a11.235 11.235 0 00-.522-.48 3.558 3.558 0 00-.71-.48 4.625 4.625 0 00-.941-.377 4.504 4.504 0 00-1.233-.152zm20.533-2.249a2.685 2.685 0 00-.644.979 5.61 5.61 0 00-.182 1.671v9.946c-.02.56.041 1.122.182 1.665.075.17.161.334.255.492.104.176.235.334.389.469h-5.623c.273-.261.48-.581.608-.937a5.176 5.176 0 00.201-1.732V57.3h-4.778v3.04a6.105 6.105 0 00.175 1.666c.08.164.164.328.262.492.104.176.234.334.388.469h-5.622a2.44 2.44 0 00.608-.937 5.175 5.175 0 00.2-1.732v-9.842a5.19 5.19 0 00-.2-1.708 2.871 2.871 0 00-.608-.96h5.622a2.8 2.8 0 00-.65.978 5.812 5.812 0 00-.175 1.672v4.516h4.778v-4.498a5.19 5.19 0 00-.201-1.708 2.77 2.77 0 00-.608-.96l5.623-.031zm8.771-.134a8.579 8.579 0 012.957.505 6.948 6.948 0 012.428 1.465 6.77 6.77 0 011.634 2.431 9.66 9.66 0 010 6.687 7.156 7.156 0 01-1.621 2.432 6.803 6.803 0 01-2.429 1.477 8.63 8.63 0 01-2.944.499 8.58 8.58 0 01-2.957-.499 6.806 6.806 0 01-2.398-1.477 7.156 7.156 0 01-1.621-2.432 9.672 9.672 0 010-6.686 6.692 6.692 0 014.019-3.891 8.582 8.582 0 012.932-.51zm0 13.082a2.69 2.69 0 001.434-.42 4.106 4.106 0 001.214-1.148 5.635 5.635 0 00.795-1.69 7.51 7.51 0 000-4.146 5.552 5.552 0 00-.795-1.696 4.21 4.21 0 00-1.214-1.13 2.694 2.694 0 00-2.902 0 4.24 4.24 0 00-1.178 1.13 5.68 5.68 0 00-.802 1.696 7.681 7.681 0 000 4.146c.174.603.445 1.174.802 1.69a4.12 4.12 0 001.178 1.149c.431.275.933.421 1.444.42h.024zM194.4 47.757c.832-.002 1.662.077 2.477.237a6.529 6.529 0 012.113.778c.601.353 1.104.85 1.463 1.447a4.865 4.865 0 010 4.468 4.115 4.115 0 01-1.463 1.447 6.514 6.514 0 01-2.113.772 13.71 13.71 0 01-2.477.219v3.228c-.018.56.042 1.12.177 1.665.075.17.16.334.254.493.107.174.237.332.389.468h-5.621c.27-.262.478-.582.607-.936a5.175 5.175 0 00.2-1.733v-9.854a5.19 5.19 0 00-.2-1.708 2.834 2.834 0 00-.607-.96l4.801-.031zm0 6.99c.37.003.738-.059 1.088-.182.323-.107.626-.272.891-.486a2.37 2.37 0 00.607-.736c.15-.271.227-.577.225-.887a1.848 1.848 0 00-.225-.894 2.455 2.455 0 00-.607-.741 2.788 2.788 0 00-.891-.505 3.377 3.377 0 00-1.088-.176v4.608z" fill="#3B7B3C"/><path fill-rule="evenodd" clip-rule="evenodd" d="M22.11 34.7a14.647 14.647 0 00-.558-1.369 10.637 10.637 0 00-6.035-5.696 19.958 19.958 0 01-3.557-1.708 7.827 7.827 0 00-1.482-.693c-1.2-.36-2.45-.52-3.703-.474a3.566 3.566 0 00-1.505.322 2.235 2.235 0 00-.353.207c-.127.28-.303.662-.412.966a14.244 14.244 0 00-.608 2.207c.391.262.797.502 1.215.717a56.45 56.45 0 007.461 3.259 21.847 21.847 0 016.32 3.337 7.213 7.213 0 011.918 2.474c.39.869.686 1.775.887 2.706.036.066.073.127.103.194.299.54.675 1.034 1.117 1.465 0-1.824.656-3.295.097-5.04-.297-.966-.552-1.933-.904-2.875z" fill="#7EB325"/><path fill-rule="evenodd" clip-rule="evenodd" d="M27.017 29.848c-1.822-2.128-2.842-4.687-5.55-5.94-1.614-.747-3.09-1.993-4.723-2.601-1.863-.687-4.152-.395-6.016.14-1.378.401-2.714.608-3.898 1.544-.198.15-.388.31-.57.48.255 0 .498-.043.734-.036 1.093.042 2.186.09 3.273.164 1.876.11 4.304 1.203 6.077 1.933 1.694.803 3.21 1.94 4.456 3.343a11.044 11.044 0 011.663 2.59 62.07 62.07 0 011.215 2.577c.292.642.524 1.31.692 1.994a12.47 12.47 0 01-.146 5.66c-.103.425-.225.851-.346 1.295l1.706.194c.06 0 1.038-2.042 1.13-2.267a9.04 9.04 0 00.606-2.462c.207-1.787 0-3.593.06-5.392.026-.734.101-1.465.226-2.189a2.769 2.769 0 00-.59-1.027zm-7.067 9.8a6.34 6.34 0 00-2.1-2.943c-2.247-1.513-5.107-2.164-7.644-3.04a93.424 93.424 0 01-5.956-2.133 1.712 1.712 0 00-.82-.231 5.642 5.642 0 00.365 2.207 10 10 0 001.67 3.44 4.53 4.53 0 002.045 1.544c1.382.503 2.803.887 4.25 1.15 1.214.218 2.459.243 3.57.692.23-.374.482-.735.752-1.082a1.177 1.177 0 011.64-.194 35.4 35.4 0 011.754 1.331c.322.25.607.523.947.796a10.188 10.188 0 00-.473-1.538z" fill="#7EB325"/><path fill-rule="evenodd" clip-rule="evenodd" d="M34.368 42.736c.231-.48.492-.991.783-1.484.04-.1.096-.195.164-.28l.08-.103a4.396 4.396 0 012.622-2.09c.104-.032.213-.049.322-.05.488-.032.977.043 1.433.22 1.214.443 1.754 1.738 2.555 2.65a7.352 7.352 0 001.385-1.945c.057-.132.094-.271.109-.414v-.444a9.118 9.118 0 00-.674-.9c-.455-.57-.953-1.13-1.36-1.738a14.793 14.793 0 01-1.821-5.015c-.686-3.435-.966-7.258-2.933-10.268l-.789.76a7.65 7.65 0 01.76 1.824c.279.637.526 1.289.74 1.951.434.891.743 1.839.916 2.815a12.003 12.003 0 010 3.459c-.37 2.432-1.48 4.498-2.883 6.517a15.143 15.143 0 00-2.168 4.79h.692a.868.868 0 01.067-.255zm24.248-28.791a14.974 14.974 0 01-.996-1.216c-.807-1.124-1.609-2.316-2.47-3.507a8.454 8.454 0 00-1.689-1.927 29.082 29.082 0 001.542-5.708c-.364.31-.746.608-1.105.96-.24.233-.46.488-.655.76a6.68 6.68 0 00-.395.711l-.067-.036c.116-.401.237-.797.346-1.216.176-.669.353-1.356.517-2.055.029-.21.043-.42.042-.632L53.595 0c-.23.28-.474.541-.68.845-.206.304-.352.73-.607 1.021-.492.657-1.014 1.259-1.506 1.873a6.082 6.082 0 00-1.335 2.431c-.128.541-.189 1.1-.274 1.66a5.429 5.429 0 01-.327-2.316l-.025-.043c-.212.268-.437.523-.607.796a2.896 2.896 0 00-.273 3.113c.15.336.272.683.364 1.04.28.618.498 1.264.65 1.927.35 1.623.57 3.271.662 4.93a11.57 11.57 0 00.485 3.04c.103-.95.307-1.885.607-2.791.261-.681.486-1.398.729-2.122a1.924 1.924 0 000-1.216c-.14-.45-.285-.893-.437-1.343a4.181 4.181 0 01.31-3.556c.285-.505.606-.997.88-1.46 0 .104.042.287.067.463a3.042 3.042 0 001.596 2.468c.128.067.255.14.389.194a3.96 3.96 0 012.015 1.86 4.495 4.495 0 001.822 1.873c.376.207.777.359 1.165.535a2.833 2.833 0 00-.65-1.277zM32.947 25.392c0-.474-.042-.954-.091-1.435-.036-.358-.11-.717-.17-1.094-.93.305-1.884.525-2.854.657a6.33 6.33 0 01.195 2.431c0 .192-.014.383-.043.572l-.036.207a21.382 21.382 0 01-.346 1.823c-.06.28-.122.56-.188.84a18.634 18.634 0 00-.656 3.738v1.021c0 2.359 0 4.687-.577 6.997-.179.74-.419 1.464-.716 2.164.528 0 1.044-.067 1.56-.079a.34.34 0 00.34-.255 47.933 47.933 0 003.418-12.462 37 37 0 00.164-5.125z" fill="#377A39"/><path fill-rule="evenodd" clip-rule="evenodd" d="M33.997 38.474c1.002-1.629 2.167-3.076 2.83-4.863.096-.298.188-.608.279-.9a10.04 10.04 0 00-.517-6.571c-.346-.827-.704-1.642-.97-2.499a3.51 3.51 0 00-.736-1.562l-1.026.359c.122.705.268 1.374.353 2.048.242 1.921.783 3.915.57 5.854-.455 4.134-2.622 8.7-4.183 12.53-.036.085-.066.17-.103.28.607 0 1.142-.044 1.694-.074.355-1.62.966-3.174 1.81-4.602z" fill="#377A39"/><path fill-rule="evenodd" clip-rule="evenodd" d="M3.485 27.714a7.09 7.09 0 01.54-2.431 6.328 6.328 0 00-1.632 1.057c.376.438.74.9 1.092 1.374zm-.449 1.514c.06-.134.115-.261.17-.401a31.675 31.675 0 00-1.409-1.854l-.091.11c-.286.356-.547.732-.783 1.124.736.27 1.443.613 2.113 1.021zm-1.039 2.189c.097-.395.255-.773.468-1.119.048-.085.097-.17.14-.255a11.077 11.077 0 00-2.089-1.021A6.609 6.609 0 000 31.052c.613.324 1.31.451 1.997.365zm1.931 8.735c-.163-.8-.234-1.616-.213-2.432a5.544 5.544 0 00-.516-2.395c-.321-.705-.65-1.404-.934-2.115a4.37 4.37 0 01-.25-.864A4.617 4.617 0 010 32.056c.06.997.176 1.987.28 2.978.12 1.15.327 2.292.37 3.447a38.53 38.53 0 00.279 4.256c.073.455.152.911.23 1.373h.055l.334-.65a.244.244 0 01.055.146 5.648 5.648 0 01-.389 2.25c-.206.674-.425 1.336-.607 2.011l.067.043c.218-.28.461-.547.656-.845.194-.298.358-.608.546-.955a8.52 8.52 0 01-.607 2.511c.074-.043.143-.094.206-.152a5.995 5.995 0 001.39-2.03c.454-1.102.786-2.25.99-3.423a6.8 6.8 0 00.073-2.863z" fill="#7EB325"/><path fill-rule="evenodd" clip-rule="evenodd" d="M41.355 30.778c.049.195.098.395.14.608a29.436 29.436 0 001.64 3.562c.364.687.752 1.374 1.153 2.104 0 .036.054.073.085.103.23-.589.397-1.2.498-1.824a15.453 15.453 0 00-.893-2.735 36.394 36.394 0 01-1.821-5.429 32.166 32.166 0 00-2.18-6.115 16.933 16.933 0 00-2.367-3.307 3.42 3.42 0 00-.456 1.35c.146.467.522.437.82.76a9.592 9.592 0 011.651 3.3c.838 2.468 1.154 5.076 1.73 7.623zm-2.852-14.055a7.295 7.295 0 012.27 2.93c.14.225.267.456.383.694a35.222 35.222 0 012.222 6.079 46.472 46.472 0 001.117 3.647c.23.644.467 1.277.722 1.909.255.632.243.608.862.82-.425-1.179-.522-2.431-.856-3.647-.394-1.398-.607-2.906-1.092-4.255-.213-.608-.456-1.173-.65-1.77a22.134 22.134 0 00-4.292-7.531c-.164-.189-.243-.213-.389 0-.154.242-.29.497-.407.76-.085.146-.036.255.11.364zm10.029 1.982a9.884 9.884 0 00-.127-.948 24.698 24.698 0 01-.456-3.647c.037-1.12-.06-2.241-.291-3.338a10.218 10.218 0 00-.243-.73 2.458 2.458 0 00-.121-.255c-.322-.608-.608-1.3-.869-1.951a1.751 1.751 0 00-.072-.164l-.189.152a11.25 11.25 0 01-1.378 1.143 2.018 2.018 0 00-.498.608.234.234 0 00-.036.066.769.769 0 010 .17c-.01.096-.01.191 0 .286.322.53.607 1.095.965 1.593.42.678.8 1.38 1.136 2.104a13.56 13.56 0 011.378 4.516c.248 1.69.097 3.58.728 5.186.103.267.316.747.443 1.009.073-.128.322-.553.407-.675a.682.682 0 000-.82c-.692-1.314-.637-2.834-.777-4.305zm-.704 5.411c-1.075-2.189-.796-4.614-1.476-6.918a14.207 14.207 0 00-1.82-3.794 11.486 11.486 0 01-1.427-2.522c-.61.31-1.075.843-1.3 1.489a.408.408 0 00.037.304c.042.073.09.146.14.219 1.007.881 1.59 2.255 2.185 3.434a26.851 26.851 0 012.034 4.949 43.13 43.13 0 001.821 5.294c.036.113.085.221.146.323.176-.566.455-1.046.212-1.648-.182-.407-.37-.766-.552-1.13z" fill="#377A39"/><path fill-rule="evenodd" clip-rule="evenodd" d="M46.468 26.45a34.304 34.304 0 01-1.506-4.499 25.468 25.468 0 00-2.003-4.924c-.553-1.076-1.057-2.37-1.985-3.173a.572.572 0 01-.2-.31 2.656 2.656 0 00-1.02 1.125.242.242 0 00.036.212c.206.262.425.523.643.778a15.934 15.934 0 012.763 4.523c.746 1.921 1.584 3.739 2.203 5.702.462 1.46 1.172 3.131 1.215 4.639.403-.562.635-1.23.667-1.921a7.534 7.534 0 00-.813-2.152z" fill="#377A39"/><path fill-rule="evenodd" clip-rule="evenodd" d="M15.02 41.27c-.31.973-.608 1.903-.911 2.84a.25.25 0 01-.17.127c-1.242.26-2.52.3-3.777.115-.558-.097-1.123-.164-1.687-.255a.254.254 0 01-.176-.127c-.54-1.326-1.069-2.633-1.621-3.982v-.061a5.686 5.686 0 002.125 1.082 8.677 8.677 0 002.203.225h3.777l.236.036zm9.738-16.565c.692.608 3.6 3.222 3.412 3.927a13.8 13.8 0 00.28-1.216c.182-.972.607-3.04-.146-3.957a.43.43 0 00-.188-.049c-2.368-.097-4.67-.571-7.012-.79 1.214.79 2.428 1.107 3.57 2.018l.084.067z" fill="#7EB325"/><path fill-rule="evenodd" clip-rule="evenodd" d="M39.96 40.79c-.698-.699-1.53-1.143-2.58-.577a4.747 4.747 0 00-1.67 1.216c-.777 1.124.407.693 1.069.607.404-.038.81-.038 1.214 0 .698.037 1.117.444 1.7.748s1.153.462 1.712.724c.121.054-.17-1.137-.249-1.265a7.535 7.535 0 00-1.196-1.453zm-4.178 2.456c-.37.34-.224.912-.103 1.538a.39.39 0 00.14.2l.2.134a38.12 38.12 0 004.535.7c.207-.487.407-.98.607-1.484-.473-.136-.937-.3-1.39-.492-1.008-.413-2.246-1.082-3.382-.857a1.159 1.159 0 00-.607.261zm6.485 20.31a6.024 6.024 0 00-1.512-2.286 1.216 1.216 0 01-.474-.972 2.72 2.72 0 00-.297-1.216c-.225.11-.456.213-.692.304-.237.091-.516.304-.777.438a2.849 2.849 0 01-1.597.06.828.828 0 00.534.608c.385.138.712.402.93.748a.888.888 0 01.114.505c0 .243-.072.486-.103.735a.371.371 0 00.213.383c.163.105.32.22.467.347.237.206.468.42.717.608a.514.514 0 00.303.121c.644 0 1.287 0 1.93-.048.298.048.377-.061.243-.335z" fill="#377A39"/><path fill-rule="evenodd" clip-rule="evenodd" d="M15.402 63.556a6.024 6.024 0 00-1.511-2.285 1.216 1.216 0 01-.474-.973 3.124 3.124 0 00-.103-.669c-.815.384-1.65.723-2.502 1.015.295.15.544.374.723.65a.888.888 0 01.115.505c0 .243-.073.487-.103.736a.37.37 0 00.213.383c.162.103.317.219.461.346.243.207.473.42.722.608a.516.516 0 00.304.122c.643 0 1.287 0 1.93-.049.274-.006.359-.115.225-.389zm-9.058 0a6.026 6.026 0 00-1.488-2.285c-.168-.13-.3-.302-.382-.499a8.021 8.021 0 01-2.671-.115 2 2 0 01.68.607.889.889 0 01.115.505c0 .243-.073.486-.103.736a.36.36 0 00.212.383c.163.103.317.218.462.346.243.207.473.42.716.608a.546.546 0 00.31.122c.643 0 1.287 0 1.93-.05.267.025.346-.084.219-.358zM8.27 44.87a4.808 4.808 0 01-.565 1.726l-.128.395a7.15 7.15 0 002.198.669 7.772 7.772 0 002.975-.365.698.698 0 00.576-.608c.122-.547.298-1.088.468-1.678-1.864.499-3.697.705-5.525-.14zm4.224 3.337c-.516.073-1.038.17-1.554.2a11.814 11.814 0 01-3.509-.443c-.346-.08-.352-.08-.528.194a3.65 3.65 0 00-.346 1.344c-.01.285.014.57.073.85l.048.104c.104.2.207.274.413.237 1.214-.176 2.429-.34 3.594-.547.35-.044.68-.18.96-.395.457-.46.831-.997 1.104-1.587l-.255.043zm-6.829 1.367a5.526 5.526 0 01-3.035-1.07l-.413-.218a2.046 2.046 0 00-.122.267 5.284 5.284 0 00-.182 1.824 6.674 6.674 0 012.113.34c.643.302 1.302.57 1.973.803v-.037a5.24 5.24 0 01-.334-1.909z" fill="#7EB325"/><path fill-rule="evenodd" clip-rule="evenodd" d="M36.378 52.34c-.443.262-.358.183-.267.693.034.192.08.38.14.566.042.14.103.28.164.425 1.007-.948 2.428-.997 3.824-1.027 0-.304.043-.608.049-.875.016-.12.016-.24 0-.36-1.32.052-2.631.246-3.91.578zm2.889-5.841c-.504 0-1.002 0-1.518-.067-.2 0-1.906-.2-1.918-.395 0 .383.036.741.049 1.1a.318.318 0 010 .073c1.426.34 3.035.73 4.431.322 0-.322.043-.608.061-.954-.364-.043-.734-.061-1.105-.08z" fill="#377A39"/><path fill-rule="evenodd" clip-rule="evenodd" d="M5.907 48.274c.149-.353.319-.696.51-1.028-.346-.17-.65-.334-.954-.51-.425-.244-.837-.517-1.293-.797-.2.316-.388.65-.607.96-.218.31-.4.536-.607.797a4.404 4.404 0 002.805 1.113c.038-.181.087-.36.146-.535zm7.013 9.343l-.887.395a6.01 6.01 0 01-1.093.377 2.27 2.27 0 01-.656.152h-.273c-.036.237-.26.942-.291 1.064a.437.437 0 01.09.091c.256.389 2.399-.608 2.702-.693.253-.095.513-.17.777-.225-.115-.365-.236-.742-.37-1.161zm-1.792-5.708l.444-1.368c-1.494.316-3.036.395-4.347 1.216l.892 1.13a5.198 5.198 0 013.011-.978zM6.83 46.486c.191-.372.344-.763.455-1.167a1.885 1.885 0 00-.049-.255l-.03-.08c-.364-.802-1.13-1.215-1.821-1.701a.28.28 0 000 .054c-.243.663-.492 1.326-.729 1.964.656.365 1.342.76 2.04 1.124a1.4 1.4 0 00.134.061z" fill="#7EB325"/><path fill-rule="evenodd" clip-rule="evenodd" d="M38.77 48.474a14.29 14.29 0 01-2.835-.091c0 .243-.037.456-.043.675a1.282 1.282 0 000 .431c.11.073.228.13.352.17h.17c.423.061.849.092 1.275.092a11.859 11.859 0 001.53-.274c.377-.079.753-.176 1.13-.28 0-.291 0-.607-.043-.88a5.973 5.973 0 01-1.536.157z" fill="#377A39"/><path fill-rule="evenodd" clip-rule="evenodd" d="M4.76 59.106a6.731 6.731 0 01-2.738-.747h-.049a3.043 3.043 0 01-.255.741c-.154.22-.237.48-.237.748a8.04 8.04 0 003.455.188.19.19 0 000-.06 7.885 7.885 0 01-.176-.87z" fill="#7EB325"/><path fill-rule="evenodd" clip-rule="evenodd" d="M38.308 50.456a5.263 5.263 0 01-2.343-.085l.054 1.136a22.152 22.152 0 011.992-.297c.76-.113 1.526-.186 2.295-.22v-.941c-.657.175-1.324.311-1.998.407z" fill="#377A39"/><path fill-rule="evenodd" clip-rule="evenodd" d="M4.31 51.672a6.483 6.483 0 00-2.155-.48 2.169 2.169 0 00-.279 0v.291l.073.912c1.092.094 2.162.363 3.169.796a2.35 2.35 0 01.346-.504c.06-.158.127-.316.182-.468-.461-.146-.886-.347-1.336-.547zm-2.306 1.532c0 .31.036.608.048.936l.08.036h.048a10.1 10.1 0 002.538.608 6.69 6.69 0 01.14-.808c-.96-.243-1.877-.614-2.854-.772zm.059 1.763v.978c.788.439 1.68.649 2.58.608v-1.051a10.916 10.916 0 01-2.58-.535z" fill="#7EB325"/><path fill-rule="evenodd" clip-rule="evenodd" d="M39.043 53.812a7.188 7.188 0 00-1.822.607l-.09.055c-.139.1-.265.217-.377.347a.322.322 0 00-.06.176c.002.234.023.468.06.699a13.69 13.69 0 012.805-.687c.182-.413.358-.833.54-1.258-.376.018-.722.03-1.056.06zm-1.852 4.224h-.072l-.292 1.016.814-.049a5.703 5.703 0 002.173-.693c0-.195-.03-.401-.042-.608-.85.091-1.718.158-2.58.334z" fill="#377A39"/><path fill-rule="evenodd" clip-rule="evenodd" d="M12.142 55.684c-.447.282-.877.59-1.287.924-.285.207-.6.367-.935.474.043.19.073.383.091.578.874.103 1.64-.34 2.428-.724l.14-.091a7.39 7.39 0 00-.437-1.161zm-10.279 1.69a6.176 6.176 0 002.799.948c0-.328-.042-.656-.049-.979a6.192 6.192 0 01-2.659-.559c-.024.2-.054.395-.09.59z" fill="#7EB325"/><path fill-rule="evenodd" clip-rule="evenodd" d="M39.657 55.781c-.91.13-1.804.348-2.672.65.073.28.14.548.213.815.832-.158 1.681-.219 2.525-.316V56a.347.347 0 00-.066-.219z" fill="#377A39"/><path fill-rule="evenodd" clip-rule="evenodd" d="M11.11 52.663a5.799 5.799 0 00-2.61 1.033c.11.25.206.486.31.723.085.14.164.286.236.426a9.103 9.103 0 011.755-1.01c.194-.072.389-.133.607-.188a1.886 1.886 0 01-.297-.984zM5.33 41.945c.023.1.058.195.103.286.285.232.583.448.893.645.09 0 .133-.05.145-.165a2.812 2.812 0 00-.807-2.492 4.291 4.291 0 01-1.311-1.951h-.061c-.005.149.01.298.042.443.104.322.261.608.359.96.224.736.437 1.49.637 2.274zm6.326 12.42a5.8 5.8 0 00-.656.219c-.56.276-1.099.597-1.608.96.12.26.228.526.321.797.607-.086 1.324-.943 1.822-1.216.124-.072.254-.133.388-.183a6.072 6.072 0 01-.267-.577zm4.377-20.414c.838.48 1.676.967 2.483 1.502l-2.483-1.502z" fill="#7EB325"/><path fill-rule="evenodd" clip-rule="evenodd" d="M64.14 21.1a1.138 1.138 0 010-.608 1.218 1.218 0 00-.23-1.215 8.957 8.957 0 01-.704-.937c-.207-.322-.365-.692-.608-1.003a6.074 6.074 0 00-1.888-1.604 1.03 1.03 0 00-.145-.05c.01.08.039.155.085.22.103.164.218.31.303.48.188.37.085.608-.291.736a3.93 3.93 0 01-.838.127 3.063 3.063 0 00-1.585.456c-.184.115-.375.22-.57.316a4.425 4.425 0 01-1.275.474c-.456.092-.905.244-1.348.371a2.365 2.365 0 00-.249.122.293.293 0 01.085-.128 8.874 8.874 0 012.647-1.696c.28-.108.553-.232.82-.37.194-.104.364-.244.552-.365-.164-.134-.291-.256-.43-.353a10.421 10.421 0 00-.808-.541 5.336 5.336 0 00-.54-.231 2.114 2.114 0 01-1.081-1.04c-.104-.2-.207-.4-.298-.607-.486-1.04-.99-.34-1.767-.402a2.924 2.924 0 01-1.092-.443c.218-.128 2.088-.73 2.191-.274-.127-.608-.279-.73-.746-.608a7.456 7.456 0 00-1.215.462.94.94 0 01-1.11-.127l-.31-.25a1.316 1.316 0 00.43 1.119c.256.2.517.377.778.559.243.17.53.27.826.286.184.035.363.092.534.17-.304.395-.54.462-.917.286a1.929 1.929 0 00-.291-.116c-.273-.073-.45.049-.498.359a3.96 3.96 0 00-.037.608c.019.458-.07.914-.26 1.331-.2.42-.42.827-.608 1.246a11.22 11.22 0 00-.576 1.538c-.2.91-.273 1.843-.213 2.772a.188.188 0 00.128.189l.607.37.382.207c-.303-1.325-.607-2.857-.2-4.255a3.69 3.69 0 011.147-1.775 4.717 4.717 0 011.858-.876c.425-.127.88-.188 1.317-.285a2.427 2.427 0 011.421.45c-.608.335-1.246.612-1.906.826-.504.237-.996.462-1.506.687a2.314 2.314 0 00-1.427 2.067 8.715 8.715 0 000 1.216c.099.837.255 1.665.468 2.48a.607.607 0 00.224.128l.347.115a6.754 6.754 0 01.06-1.987c.231-1.216 1.215-1.709 2.301-1.946.57-.127 1.141-.273 1.706-.444a10.645 10.645 0 011.554-.607c.203-.02.408-.008.608.036a14.08 14.08 0 01-1.3 1.471 9.65 9.65 0 01-.674.401c-.697.324-1.42.59-2.161.797a5.017 5.017 0 00-.838.437.468.468 0 00-.218.274v.255c.115.56.242 1.113.37 1.654a.195.195 0 00.115.091c.34.079.68.152 1.026.219.17.03.352.049.535.073-.049-.31-.091-.608-.14-.888a.517.517 0 01.255-.571 2.6 2.6 0 01.285-.158l1.13-.499a9.046 9.046 0 001.82-.918.545.545 0 010 .098 3.532 3.532 0 01-.315.814l-.054.037a.225.225 0 00-.085.115c-.128.061-.25.128-.37.2-.425.2-.758.552-.936.986a5.72 5.72 0 00-.17.85.17.17 0 00.061.134c.2.189.413.365.607.547a1.056 1.056 0 001.214.268 8.41 8.41 0 011.366-.462.394.394 0 00.08-.097c.115-.25-.11-.566-.256-.736a4.251 4.251 0 00-1.426-.966c.14-.058.284-.105.43-.14a1.84 1.84 0 01.256 0c.17.104.33.224.48.358.345.304.54.797.916 1.058a.959.959 0 001.11-.164.392.392 0 01.092-.06l.134-.134a3.168 3.168 0 00.85-3.01zm-2.21.438c0 .085-.036.219-.078.225a.43.43 0 01-.316 0 .407.407 0 01-.164-.268 2.021 2.021 0 01-.048-.474.684.684 0 00-.225-.48.23.23 0 010-.286.681.681 0 01.607-.45h.99a.85.85 0 01.607.39v.067l-.51.036a.728.728 0 00-.729.717c-.103.17-.11.347-.14.523h.007zm.207.529l1.36-.097a1.056 1.056 0 01-1.36.097z" fill="#377938"/><path d="M64.026 30.76h-2.332v5.185h-3.138V30.76H56.23v-2.432h7.795v2.432zm8.608 2.097h-5.3c.103.28.3.514.558.663.298.163.633.242.972.23.286.008.572-.035.844-.127.27-.103.522-.248.746-.431l1.646 1.665a4.283 4.283 0 01-3.333 1.216 5.488 5.488 0 01-2.429-.51 3.91 3.91 0 01-1.615-1.417 3.956 3.956 0 010-4.085 3.844 3.844 0 011.549-1.404 5.076 5.076 0 014.322-.043 3.643 3.643 0 011.524 1.356c.389.642.585 1.383.565 2.133-.007.061-.025.304-.05.754zm-4.942-2.28c-.222.198-.37.467-.419.76h2.429a1.288 1.288 0 00-.42-.747 1.213 1.213 0 00-.807-.274 1.245 1.245 0 00-.783.262zm10.758 5.368l-1.044-1.635-1.172 1.635h-3.418l2.884-3.787-2.805-3.854h3.558l1.093 1.617 1.141-1.617h3.309l-2.805 3.714 2.871 3.927H78.45zm4.31-7.641h3.14v2.7h2.13v-2.7h3.14v7.641h-3.14v-2.51h-2.15v2.486h-3.139l.02-7.617zm11.554 7.27a3.91 3.91 0 01-1.578-1.41 3.914 3.914 0 010-4.091 3.842 3.842 0 011.578-1.404 5.454 5.454 0 014.577 0c.648.31 1.196.796 1.579 1.404a3.983 3.983 0 010 4.091 3.867 3.867 0 01-1.579 1.41 5.382 5.382 0 01-4.577 0zm3.175-2.346c.251-.314.378-.71.352-1.113.026-.398-.1-.791-.352-1.1a1.219 1.219 0 00-1.38-.29 1.219 1.219 0 00-.405.29c-.248.311-.37.703-.346 1.1-.024.401.1.797.346 1.113a1.22 1.22 0 00.893.391 1.215 1.215 0 00.892-.391zm12.585-4.924v7.641h-3.157V30.76h-1.433l-.043.99c-.013.82-.117 1.636-.309 2.432a2.82 2.82 0 01-.825 1.46 2.325 2.325 0 01-1.585.51 6.096 6.096 0 01-1.463-.207l.121-2.56h.322a.736.736 0 00.753-.413 4.19 4.19 0 00.224-1.373l.11-3.326 7.285.03zm3.133 7.271a3.932 3.932 0 01-1.585-1.41 3.954 3.954 0 010-4.092 3.875 3.875 0 011.585-1.404 5.453 5.453 0 014.571 0c.647.31 1.195.796 1.579 1.404a3.991 3.991 0 010 4.091 3.87 3.87 0 01-1.579 1.41 5.37 5.37 0 01-4.571 0zm3.169-2.347a1.62 1.62 0 00.352-1.113 1.58 1.58 0 00-.352-1.1 1.152 1.152 0 00-.893-.395 1.154 1.154 0 00-.892.395 1.603 1.603 0 00-.346 1.1c-.024.401.099.797.346 1.113a1.13 1.13 0 00.892.395 1.121 1.121 0 00.893-.395zm11.188-2.468h-3.527v5.185h-3.139v-7.641h6.679l-.013 2.456zm.912-2.456h3.132v3.447l2.641-3.447h2.902v7.641h-3.139V32.48l-2.622 3.465h-2.914v-7.641zm10.151 0h3.138v3.447l2.635-3.447h2.902v7.641h-3.139V32.48l-2.622 3.465h-2.914v-7.641zM63.51 42.425c.177.223.272.5.266.785a1.48 1.48 0 01-.437 1.07c-.34.323-.759.554-1.214.668a5.655 5.655 0 01-1.651.225 8.095 8.095 0 01-2.8-.462l.608-1.635c.68.239 1.398.354 2.119.34.206.007.412-.026.607-.097a.321.321 0 00.224-.31.266.266 0 00-.103-.243.606.606 0 00-.352-.073H59.46v-1.356h1.14a.83.83 0 00.4-.079.286.286 0 00.122-.255.279.279 0 00-.17-.261c-.194-.071-.4-.1-.607-.085a6.06 6.06 0 00-1.918.37l-.559-1.568a7.392 7.392 0 012.665-.553 4.85 4.85 0 012.216.45 1.384 1.384 0 01.862 1.288c.001.264-.08.52-.23.736a1.67 1.67 0 01-.607.547c.286.095.54.267.734.498zm8.511.663v3.113h-2.288v-1.216h-3.315V46.2h-2.29v-3.113h.177a.734.734 0 00.735-.498 4.36 4.36 0 00.242-1.441l.073-2.122h5.865v4.061h.801zm-4.632-.663a1.466 1.466 0 01-.28.663h1.622v-2.127h-1.215v.37a7.548 7.548 0 01-.127 1.094zm6.677 2.317a3.073 3.073 0 01-1.214-1.113 2.927 2.927 0 01-.45-1.605 2.963 2.963 0 01.45-1.61 3.037 3.037 0 011.214-1.1 4.281 4.281 0 013.594 0 2.961 2.961 0 011.658 2.71 2.927 2.927 0 01-.444 1.605c-.294.476-.715.86-1.214 1.113a4.245 4.245 0 01-3.594 0zm2.495-1.824a1.52 1.52 0 000-1.739.919.919 0 00-.704-.303.898.898 0 00-.698.303 1.52 1.52 0 000 1.739.876.876 0 00.698.316.886.886 0 00.68-.34l.024.024zm8.979-3.623c.446.26.81.639 1.051 1.094a3.656 3.656 0 010 3.289 2.732 2.732 0 01-1.05 1.082 2.864 2.864 0 01-1.451.383 2.097 2.097 0 01-1.524-.517v2.535h-2.477v-8.134h2.355v.487a2.096 2.096 0 011.646-.608c.509 0 1.009.135 1.45.389zM84.2 42.9c.196-.243.294-.552.273-.863a1.286 1.286 0 00-.273-.876.892.892 0 00-.704-.31.889.889 0 00-.698.31 1.28 1.28 0 00-.28.876c-.019.312.081.62.28.863a.88.88 0 00.698.31.895.895 0 00.704-.31zm4.881 1.842a3.07 3.07 0 01-1.214-1.113 2.927 2.927 0 01-.45-1.605 2.964 2.964 0 01.45-1.61 3.035 3.035 0 011.214-1.1 4.279 4.279 0 013.594 0c.498.248.918.628 1.215 1.1.298.483.452 1.042.443 1.61a2.932 2.932 0 01-.443 1.605c-.296.476-.716.86-1.215 1.113a4.248 4.248 0 01-3.594 0zm2.495-1.824a1.518 1.518 0 000-1.739.917.917 0 00-.704-.303.897.897 0 00-.698.303 1.518 1.518 0 000 1.739.869.869 0 00.698.316.883.883 0 00.704-.34v.024zm9.634.358a1.504 1.504 0 01-.649 1.29 3.229 3.229 0 01-1.895.467h-3.539v-6.006h3.364c.65-.032 1.298.11 1.875.414a1.292 1.292 0 01.668 1.155c.002.263-.069.522-.206.747a1.55 1.55 0 01-.607.535 1.393 1.393 0 01.989 1.398zm-3.915-1.878h.977c.358 0 .534-.146.534-.425a.377.377 0 00-.127-.31.642.642 0 00-.407-.098h-.978v.833zm1.663 1.647c0-.285-.176-.431-.535-.431H97.27v.881h1.153c.383 0 .535-.152.535-.45zm4.359 1.697a3.118 3.118 0 01-1.245-1.113 2.927 2.927 0 01-.449-1.605 2.966 2.966 0 01.449-1.61 3.093 3.093 0 011.245-1.1 4.279 4.279 0 013.594 0 2.932 2.932 0 011.682 2.71 2.941 2.941 0 01-.443 1.605 2.992 2.992 0 01-1.214 1.113 4.25 4.25 0 01-3.595 0h-.024zm2.495-1.824a1.518 1.518 0 000-1.739.909.909 0 00-.704-.303.898.898 0 00-.698.303 1.518 1.518 0 000 1.739.874.874 0 00.698.316.887.887 0 00.704-.34v.024zm8.79-1.958h-2.774v4.073h-2.465v-6.006h5.239v1.934zm1.793 3.782a3.075 3.075 0 01-1.245-1.113 2.918 2.918 0 01-.449-1.605 2.949 2.949 0 01.449-1.61 3.033 3.033 0 011.245-1.1 4.278 4.278 0 013.593 0c.498.248.918.628 1.214 1.1.3.483.454 1.042.444 1.61a2.917 2.917 0 01-.444 1.605c-.294.476-.714.86-1.214 1.113a4.243 4.243 0 01-3.593 0zm2.495-1.824a1.518 1.518 0 000-1.739.913.913 0 00-.704-.303.895.895 0 00-.699.303 1.518 1.518 0 000 1.739.878.878 0 00.699.316.883.883 0 00.704-.34v.024zm8.158 1.83a3.031 3.031 0 01-1.262-1.113 3.084 3.084 0 010-3.222 3.04 3.04 0 011.262-1.1 4.115 4.115 0 011.821-.395 3.526 3.526 0 011.877.474c.502.291.883.753 1.074 1.301l-1.9.948a1.123 1.123 0 00-1.038-.79.957.957 0 00-.729.304 1.458 1.458 0 000 1.745.946.946 0 00.729.31 1.115 1.115 0 001.038-.79l1.919.942a2.435 2.435 0 01-1.075 1.307 3.525 3.525 0 01-1.876.474 4.116 4.116 0 01-1.84-.395zm5.453-5.721h2.464v2.11h1.688v-2.11h2.465v6.006h-2.465v-1.957h-1.688v1.957h-2.464v-6.006zm12.749.596a2.72 2.72 0 01.832 2.182v3.228h-2.301v-.79a1.703 1.703 0 01-1.7.9 2.73 2.73 0 01-1.214-.25 1.756 1.756 0 01-1.014-1.617 1.52 1.52 0 01.68-1.33 3.693 3.693 0 012.064-.463h.996c-.08-.468-.455-.705-1.13-.705a2.71 2.71 0 00-.819.128 2.396 2.396 0 00-.717.346l-.789-1.635a4.407 4.407 0 011.214-.498 5.98 5.98 0 011.452-.183 3.639 3.639 0 012.446.687zm-1.973 3.885a.858.858 0 00.309-.432v-.413h-.607c-.503 0-.759.164-.759.504a.463.463 0 00.159.347.656.656 0 00.436.133.833.833 0 00.462-.14z" fill="#3C7B3E"/></svg>