<svg width="27" height="34" fill="none" xmlns="http://www.w3.org/2000/svg"><path d="M0 29c0 2.722 2.624 5 5.423 5h16.095C24.376 34 27 31.722 27 29V7.944h-5.307v-.166C21.693 3.5 18.02 0 13.53 0S5.365 3.5 5.365 7.778v.166H0V29zM13.53 2.833c2.857 0 5.19 2.223 5.19 4.945v.166H8.34v-.166c0-2.722 2.332-4.945 5.19-4.945zM8.105 16.944a3.803 3.803 0 012.624-1.055c.991 0 1.924.389 2.624 1.055l.234.223.174-.167a3.803 3.803 0 012.625-1.056c.991 0 1.924.39 2.624 1.056.7.667 1.108 1.556 1.108 2.5s-.408 1.833-1.108 2.5l-5.015 4.778a.542.542 0 01-.409.166.542.542 0 01-.408-.166L8.164 22c-.7-.667-1.108-1.556-1.108-2.5-.058-1 .35-1.889 1.05-2.556z" fill="#currentColor"/></svg>