<svg width="50" height="28" fill="none" xmlns="http://www.w3.org/2000/svg"><mask id="a" maskUnits="userSpaceOnUse" x="0" y="0" width="50" height="28" fill="#000"><path fill="#fff" d="M0 0h50v28H0z"/><path d="M1.541 10.83l.296 5.719c.029.526.286.567.784.708l31.683 8.953c1.905.538 3.031.435 4.11-1.278.479-.763 7.002-11.439 8.941-14.612.466-.762.918-1.304.96-2.238l.122-2.899c-2.982 4.057-6.271 8.088-9.371 12.08-.82 1.183-2.352 1.286-3.842 1.094-1.326-.17-2.753-.554-4.07-.846L2.61 11.184c-.368-.082-.733-.178-1.068-.354zm32.726 9.348c-.088.1-.243-.032-.155-.132l.388-.442c.088-.1.242.031.155.131l-.389.443zm-1.482-.343c-.088.1-.243-.031-.155-.13l.388-.444c.088-.1.243.032.155.132l-.388.442zm-1.482-.342c-.088.1-.242-.031-.154-.131l.388-.443c.088-.1.242.032.154.131l-.388.443zm-1.481-.342c-.088.1-.243-.032-.155-.131l.388-.443c.088-.1.243.031.155.131l-.388.443zm-1.482-.342c-.088.1-.242-.032-.155-.132l.388-.442c.088-.1.243.031.155.131l-.388.443zm-1.482-.343c-.088.1-.242-.031-.154-.131l.388-.443c.088-.1.242.032.154.132l-.388.442zm-1.481-.342c-.088.1-.243-.031-.155-.131l.388-.443c.088-.1.243.032.155.131l-.388.443zm-1.482-.342c-.088.1-.242-.032-.155-.131l.389-.443c.087-.1.242.031.154.131l-.388.443zm-1.482-.342c-.087.1-.242-.032-.154-.132l.388-.442c.088-.1.242.031.155.131l-.389.443zm-1.481-.343c-.088.1-.243-.031-.155-.131l.388-.443c.088-.1.243.032.155.132l-.388.442zm-1.482-.342c-.088.1-.242-.031-.154-.131l.388-.443c.087-.1.242.032.154.131l-.388.443zm-1.482-.342c-.087.1-.242-.032-.154-.131l.388-.443c.088-.1.242.031.155.131l-.389.443zm-1.481-.342c-.088.1-.243-.032-.155-.132l.388-.443c.088-.1.243.032.155.132l-.388.443zm-1.482-.343c-.088.1-.242-.031-.154-.131l.388-.443c.087-.1.242.032.154.132l-.388.442zm-1.481-.342c-.088.1-.243-.031-.155-.131l.388-.443c.088-.1.242.032.155.131l-.388.443zm-1.482-.342c-.088.1-.242-.032-.155-.132l.388-.442c.088-.1.243.031.155.131l-.388.443zm-1.482-.342c-.088.1-.242-.032-.154-.132l.388-.443c.088-.1.242.032.154.132l-.388.443zm-1.481-.343c-.088.1-.243-.031-.155-.131l.388-.443c.088-.1.243.032.155.132l-.388.442zm-1.482-.342c-.088.1-.242-.032-.155-.131l.388-.443c.088-.1.243.032.155.131l-.388.443zm-1.482-.342c-.088.1-.242-.032-.154-.132l.388-.442c.088-.1.242.031.154.131l-.388.443zm-1.481-.342c-.088.1-.243-.032-.155-.132l.388-.443c.088-.1.243.032.155.132l-.388.443zm-1.482-.343c-.088.1-.242-.031-.155-.131l.389-.443c.087-.1.242.032.154.132l-.388.442zm33.67 7.28c0-.198.307-.198.307 0v4.33c0 .2-.308.2-.308 0v-4.33zm7.473-17.128l3.93 1.458a2.42 2.42 0 00.16-.278c.416-.89-1.592-.947-2.214-1.005l-1.876-.175zm3.872 1.544l-4.259-1.58-3.25-.305 6.87 2.735c.216-.278.44-.559.639-.85zm-.704.933l-7.161-2.851-2.956-.277 9.42 4.026.697-.898zm-.76.98L37.017 2.46l-2.733-.256 11.669 5.358.748-.964zm-.813 1.046L33.981 2.176l-2.54-.237L45.085 8.68l.804-1.036zm-.868 1.118L31.16 1.913l-2.373-.223 15.37 8.187.865-1.114zm-.928 1.195L28.526 1.666a35.682 35.682 0 00-2.123-.15l16.76 9.642.931-1.2zm-.993 1.28L26.19 1.51c-.549-.012-1.005.02-1.538.158l17.445 10.86 1.003-1.291zm-1.066 1.372L24.52 1.705c-.404.114-.793.252-1.188.392l17.622 11.905 1.081-1.392zm-1.143 1.472L23.213 2.14l-1.198.425 17.71 13.021 1.167-1.503zm-1.229 1.583L21.901 2.605l-1.238.439 17.726 14.234c.414-.393.931-1.171 1.274-1.613zm-1.35 1.681L20.55 3.084l-1.278.453 16.3 14.353c1.05.104 2.072.025 2.74-.544zm-2.915.525L19.163 3.575l-1.319.468 13.362 12.965c1.346.298 2.838.704 4.192.863zm-4.38-.905L17.738 4.08l-1.36.482 10.73 11.536 3.91.867zm-4.084-.905L16.274 4.6l-1.402.497 8.48 10.17 3.582.794zm-3.745-.83L14.77 5.133l-1.443.511 6.565 8.856 3.297.73zm-3.448-.765L13.227 5.68l-1.485.526 4.949 7.584 3.05.676zm-3.192-.707L11.643 6.24l-1.527.542 3.6 6.348 2.833.628zm-2.966-.658l-3.565-6.284-1.57.557 2.495 5.142 2.64.585zm-2.767-.613l-2.464-5.08-1.59.564c.541 1.325 1.081 2.65 1.62 3.977l2.434.54zm-2.555-.566C7.731 10.616 7.2 9.31 6.666 8.006l-1.68.595.925 2.8 2.35.52zm-2.466-.547l-.905-2.74-1.699.603.425 1.654 2.179.483zm-2.291-.508l-.41-1.595c-.413.147-2.136.652-1.255 1.119.46.244 1.24.382 1.665.476zM1 10.264C.986 9.365 2.193 9.06 2.931 8.797l20.173-7.152c2.129-.806 3.107-.7 5.13-.51L46.22 2.816c1.065.1 2.879.06 2.777 1.414l-.171 3.873c-.048 1.05-.506 1.615-1.031 2.474-1.937 3.17-8.452 13.832-8.946 14.617-1.194 1.897-2.536 2.106-4.658 1.506l-31.71-8.96c-.688-.195-1.111-.347-1.152-1.139L1 10.264z"/></mask><path d="M1.541 10.83l.296 5.719c.029.526.286.567.784.708l31.683 8.953c1.905.538 3.031.435 4.11-1.278.479-.763 7.002-11.439 8.941-14.612.466-.762.918-1.304.96-2.238l.122-2.899c-2.982 4.057-6.271 8.088-9.371 12.08-.82 1.183-2.352 1.286-3.842 1.094-1.326-.17-2.753-.554-4.07-.846L2.61 11.184c-.368-.082-.733-.178-1.068-.354zm32.726 9.348c-.088.1-.243-.032-.155-.132l.388-.442c.088-.1.242.031.155.131l-.389.443zm-1.482-.343c-.088.1-.243-.031-.155-.13l.388-.444c.088-.1.243.032.155.132l-.388.442zm-1.482-.342c-.088.1-.242-.031-.154-.131l.388-.443c.088-.1.242.032.154.131l-.388.443zm-1.481-.342c-.088.1-.243-.032-.155-.131l.388-.443c.088-.1.243.031.155.131l-.388.443zm-1.482-.342c-.088.1-.242-.032-.155-.132l.388-.442c.088-.1.243.031.155.131l-.388.443zm-1.482-.343c-.088.1-.242-.031-.154-.131l.388-.443c.088-.1.242.032.154.132l-.388.442zm-1.481-.342c-.088.1-.243-.031-.155-.131l.388-.443c.088-.1.243.032.155.131l-.388.443zm-1.482-.342c-.088.1-.242-.032-.155-.131l.389-.443c.087-.1.242.031.154.131l-.388.443zm-1.482-.342c-.087.1-.242-.032-.154-.132l.388-.442c.088-.1.242.031.155.131l-.389.443zm-1.481-.343c-.088.1-.243-.031-.155-.131l.388-.443c.088-.1.243.032.155.132l-.388.442zm-1.482-.342c-.088.1-.242-.031-.154-.131l.388-.443c.087-.1.242.032.154.131l-.388.443zm-1.482-.342c-.087.1-.242-.032-.154-.131l.388-.443c.088-.1.242.031.155.131l-.389.443zm-1.481-.342c-.088.1-.243-.032-.155-.132l.388-.443c.088-.1.243.032.155.132l-.388.443zm-1.482-.343c-.088.1-.242-.031-.154-.131l.388-.443c.087-.1.242.032.154.132l-.388.442zm-1.481-.342c-.088.1-.243-.031-.155-.131l.388-.443c.088-.1.242.032.155.131l-.388.443zm-1.482-.342c-.088.1-.242-.032-.155-.132l.388-.442c.088-.1.243.031.155.131l-.388.443zm-1.482-.342c-.088.1-.242-.032-.154-.132l.388-.443c.088-.1.242.032.154.132l-.388.443zm-1.481-.343c-.088.1-.243-.031-.155-.131l.388-.443c.088-.1.243.032.155.132l-.388.442zm-1.482-.342c-.088.1-.242-.032-.155-.131l.388-.443c.088-.1.243.032.155.131l-.388.443zm-1.482-.342c-.088.1-.242-.032-.154-.132l.388-.442c.088-.1.242.031.154.131l-.388.443zm-1.481-.342c-.088.1-.243-.032-.155-.132l.388-.443c.088-.1.243.032.155.132l-.388.443zm-1.482-.343c-.088.1-.242-.031-.155-.131l.389-.443c.087-.1.242.032.154.132l-.388.442zm33.67 7.28c0-.198.307-.198.307 0v4.33c0 .2-.308.2-.308 0v-4.33zm7.473-17.128l3.93 1.458a2.42 2.42 0 00.16-.278c.416-.89-1.592-.947-2.214-1.005l-1.876-.175zm3.872 1.544l-4.259-1.58-3.25-.305 6.87 2.735c.216-.278.44-.559.639-.85zm-.704.933l-7.161-2.851-2.956-.277 9.42 4.026.697-.898zm-.76.98L37.017 2.46l-2.733-.256 11.669 5.358.748-.964zm-.813 1.046L33.981 2.176l-2.54-.237L45.085 8.68l.804-1.036zm-.868 1.118L31.16 1.913l-2.373-.223 15.37 8.187.865-1.114zm-.928 1.195L28.526 1.666a35.682 35.682 0 00-2.123-.15l16.76 9.642.931-1.2zm-.993 1.28L26.19 1.51c-.549-.012-1.005.02-1.538.158l17.445 10.86 1.003-1.291zm-1.066 1.372L24.52 1.705c-.404.114-.793.252-1.188.392l17.622 11.905 1.081-1.392zm-1.143 1.472L23.213 2.14l-1.198.425 17.71 13.021 1.167-1.503zm-1.229 1.583L21.901 2.605l-1.238.439 17.726 14.234c.414-.393.931-1.171 1.274-1.613zm-1.35 1.681L20.55 3.084l-1.278.453 16.3 14.353c1.05.104 2.072.025 2.74-.544zm-2.915.525L19.163 3.575l-1.319.468 13.362 12.965c1.346.298 2.838.704 4.192.863zm-4.38-.905L17.738 4.08l-1.36.482 10.73 11.536 3.91.867zm-4.084-.905L16.274 4.6l-1.402.497 8.48 10.17 3.582.794zm-3.745-.83L14.77 5.133l-1.443.511 6.565 8.856 3.297.73zm-3.448-.765L13.227 5.68l-1.485.526 4.949 7.584 3.05.676zm-3.192-.707L11.643 6.24l-1.527.542 3.6 6.348 2.833.628zm-2.966-.658l-3.565-6.284-1.57.557 2.495 5.142 2.64.585zm-2.767-.613l-2.464-5.08-1.59.564c.541 1.325 1.081 2.65 1.62 3.977l2.434.54zm-2.555-.566C7.731 10.616 7.2 9.31 6.666 8.006l-1.68.595.925 2.8 2.35.52zm-2.466-.547l-.905-2.74-1.699.603.425 1.654 2.179.483zm-2.291-.508l-.41-1.595c-.413.147-2.136.652-1.255 1.119.46.244 1.24.382 1.665.476zM1 10.264C.986 9.365 2.193 9.06 2.931 8.797l20.173-7.152c2.129-.806 3.107-.7 5.13-.51L46.22 2.816c1.065.1 2.879.06 2.777 1.414l-.171 3.873c-.048 1.05-.506 1.615-1.031 2.474-1.937 3.17-8.452 13.832-8.946 14.617-1.194 1.897-2.536 2.106-4.658 1.506l-31.71-8.96c-.688-.195-1.111-.347-1.152-1.139L1 10.264z" fill="#currentColor"/><path d="M1.541 10.83l.296 5.719c.029.526.286.567.784.708l31.683 8.953c1.905.538 3.031.435 4.11-1.278.479-.763 7.002-11.439 8.941-14.612.466-.762.918-1.304.96-2.238l.122-2.899c-2.982 4.057-6.271 8.088-9.371 12.08-.82 1.183-2.352 1.286-3.842 1.094-1.326-.17-2.753-.554-4.07-.846L2.61 11.184c-.368-.082-.733-.178-1.068-.354zm32.726 9.348c-.088.1-.243-.032-.155-.132l.388-.442c.088-.1.242.031.155.131l-.389.443zm-1.482-.343c-.088.1-.243-.031-.155-.13l.388-.444c.088-.1.243.032.155.132l-.388.442zm-1.482-.342c-.088.1-.242-.031-.154-.131l.388-.443c.088-.1.242.032.154.131l-.388.443zm-1.481-.342c-.088.1-.243-.032-.155-.131l.388-.443c.088-.1.243.031.155.131l-.388.443zm-1.482-.342c-.088.1-.242-.032-.155-.132l.388-.442c.088-.1.243.031.155.131l-.388.443zm-1.482-.343c-.088.1-.242-.031-.154-.131l.388-.443c.088-.1.242.032.154.132l-.388.442zm-1.481-.342c-.088.1-.243-.031-.155-.131l.388-.443c.088-.1.243.032.155.131l-.388.443zm-1.482-.342c-.088.1-.242-.032-.155-.131l.389-.443c.087-.1.242.031.154.131l-.388.443zm-1.482-.342c-.087.1-.242-.032-.154-.132l.388-.442c.088-.1.242.031.155.131l-.389.443zm-1.481-.343c-.088.1-.243-.031-.155-.131l.388-.443c.088-.1.243.032.155.132l-.388.442zm-1.482-.342c-.088.1-.242-.031-.154-.131l.388-.443c.087-.1.242.032.154.131l-.388.443zm-1.482-.342c-.087.1-.242-.032-.154-.131l.388-.443c.088-.1.242.031.155.131l-.389.443zm-1.481-.342c-.088.1-.243-.032-.155-.132l.388-.443c.088-.1.243.032.155.132l-.388.443zm-1.482-.343c-.088.1-.242-.031-.154-.131l.388-.443c.087-.1.242.032.154.132l-.388.442zm-1.481-.342c-.088.1-.243-.031-.155-.131l.388-.443c.088-.1.242.032.155.131l-.388.443zm-1.482-.342c-.088.1-.242-.032-.155-.132l.388-.442c.088-.1.243.031.155.131l-.388.443zm-1.482-.342c-.088.1-.242-.032-.154-.132l.388-.443c.088-.1.242.032.154.132l-.388.443zm-1.481-.343c-.088.1-.243-.031-.155-.131l.388-.443c.088-.1.243.032.155.132l-.388.442zm-1.482-.342c-.088.1-.242-.032-.155-.131l.388-.443c.088-.1.243.032.155.131l-.388.443zm-1.482-.342c-.088.1-.242-.032-.154-.132l.388-.442c.088-.1.242.031.154.131l-.388.443zm-1.481-.342c-.088.1-.243-.032-.155-.132l.388-.443c.088-.1.243.032.155.132l-.388.443zm-1.482-.343c-.088.1-.242-.031-.155-.131l.389-.443c.087-.1.242.032.154.132l-.388.442zm33.67 7.28c0-.198.307-.198.307 0v4.33c0 .2-.308.2-.308 0v-4.33zm7.473-17.128l3.93 1.458a2.42 2.42 0 00.16-.278c.416-.89-1.592-.947-2.214-1.005l-1.876-.175zm3.872 1.544l-4.259-1.58-3.25-.305 6.87 2.735c.216-.278.44-.559.639-.85zm-.704.933l-7.161-2.851-2.956-.277 9.42 4.026.697-.898zm-.76.98L37.017 2.46l-2.733-.256 11.669 5.358.748-.964zm-.813 1.046L33.981 2.176l-2.54-.237L45.085 8.68l.804-1.036zm-.868 1.118L31.16 1.913l-2.373-.223 15.37 8.187.865-1.114zm-.928 1.195L28.526 1.666a35.682 35.682 0 00-2.123-.15l16.76 9.642.931-1.2zm-.993 1.28L26.19 1.51c-.549-.012-1.005.02-1.538.158l17.445 10.86 1.003-1.291zm-1.066 1.372L24.52 1.705c-.404.114-.793.252-1.188.392l17.622 11.905 1.081-1.392zm-1.143 1.472L23.213 2.14l-1.198.425 17.71 13.021 1.167-1.503zm-1.229 1.583L21.901 2.605l-1.238.439 17.726 14.234c.414-.393.931-1.171 1.274-1.613zm-1.35 1.681L20.55 3.084l-1.278.453 16.3 14.353c1.05.104 2.072.025 2.74-.544zm-2.915.525L19.163 3.575l-1.319.468 13.362 12.965c1.346.298 2.838.704 4.192.863zm-4.38-.905L17.738 4.08l-1.36.482 10.73 11.536 3.91.867zm-4.084-.905L16.274 4.6l-1.402.497 8.48 10.17 3.582.794zm-3.745-.83L14.77 5.133l-1.443.511 6.565 8.856 3.297.73zm-3.448-.765L13.227 5.68l-1.485.526 4.949 7.584 3.05.676zm-3.192-.707L11.643 6.24l-1.527.542 3.6 6.348 2.833.628zm-2.966-.658l-3.565-6.284-1.57.557 2.495 5.142 2.64.585zm-2.767-.613l-2.464-5.08-1.59.564c.541 1.325 1.081 2.65 1.62 3.977l2.434.54zm-2.555-.566C7.731 10.616 7.2 9.31 6.666 8.006l-1.68.595.925 2.8 2.35.52zm-2.466-.547l-.905-2.74-1.699.603.425 1.654 2.179.483zm-2.291-.508l-.41-1.595c-.413.147-2.136.652-1.255 1.119.46.244 1.24.382 1.665.476zM1 10.264C.986 9.365 2.193 9.06 2.931 8.797l20.173-7.152c2.129-.806 3.107-.7 5.13-.51L46.22 2.816c1.065.1 2.879.06 2.777 1.414l-.171 3.873c-.048 1.05-.506 1.615-1.031 2.474-1.937 3.17-8.452 13.832-8.946 14.617-1.194 1.897-2.536 2.106-4.658 1.506l-31.71-8.96c-.688-.195-1.111-.347-1.152-1.139L1 10.264z" stroke="#currentColor" stroke-width=".6" mask="url(#a)"/></svg>