<svg width="50" height="22" fill="none" xmlns="http://www.w3.org/2000/svg"><mask id="a" maskUnits="userSpaceOnUse" x="0" y="0" width="50" height="22" fill="#000"><path fill="#fff" d="M0 0h50v22H0z"/><path d="M7.662 11.07H24.64l-.009-.466-16.367.093-.602.374zm30.076 9.907a.357.357 0 01-.17-.67H12.423a.357.357 0 01-.22.639l-5.424-.022a.357.357 0 01-.255-.605 6.69 6.69 0 00-.581-.005c-.882.015-2 .035-2.215-.819l-.006-.021-.002-.029a64.586 64.586 0 01-.165-2.02c-.152-2.098-.314-4.356-.946-5.903-.06-.146-.242-.28-.446-.429-.514-.376-1.123-.822-1.16-2.04-.03-.961.522-1.734 1.302-2.115a2.577 2.577 0 011.687-.19l3.717.337v-4.39c0-.051.011-.099.03-.143.001-.006.004-.011.006-.017.229-.54 2.7-1.183 5.863-1.423 3.067-.232 6.844-.147 9.856.683.533.147 1.042.317 1.516.511.474-.194.983-.364 1.516-.51 3.012-.832 6.789-.916 9.857-.684 3.163.24 5.633.883 5.862 1.423l.007.017a.38.38 0 01.029.143v4.38l3.759-.342a2.556 2.556 0 011.687.19c.78.382 1.332 1.155 1.303 2.116-.038 1.219-.647 1.665-1.16 2.04-.205.147-.388.282-.447.428-.631 1.548-.794 3.804-.946 5.903a69.76 69.76 0 01-.164 2.02l-.003.03-.006.02c-.215.855-1.333.835-2.215.819a15.61 15.61 0 00-.376-.003.335.335 0 01-.09.011h-.309a.357.357 0 01-.12.693l-5.425-.023zm-31.207-.665l.004-.003h-.003v.003zM39.354 5.259l.192.257.322-.01a.134.134 0 01.133.167l-.08.313.208.246a.133.133 0 01-.054.21l-.289.13-.062.317a.134.134 0 01-.199.09l-.28-.146-.287.149a.134.134 0 01-.193-.094l-.062-.317-.295-.132a.134.134 0 01-.048-.208l.209-.247-.081-.313a.133.133 0 01.137-.167l.319.01.194-.26a.133.133 0 01.214.002l.002.003zm.02.474l-.128-.172-.127.168a.133.133 0 01-.112.057l-.215-.007.052.203a.131.131 0 01-.026.126l-.138.164.187.083a.135.135 0 01.086.1l.04.21.191-.098a.134.134 0 01.123 0l.19.1.041-.211a.136.136 0 01.077-.097l.196-.087-.138-.164a.136.136 0 01-.028-.12l.055-.208-.215.007a.135.135 0 01-.11-.054zm-.134.211a.21.21 0 01.149.358.206.206 0 01-.148.061.205.205 0 01-.148-.061.207.207 0 01-.06-.148c0-.058.022-.11.06-.148.004-.004.009-.009.013-.011a.21.21 0 01.135-.05zm-5.565-.69l.192.257.322-.01a.134.134 0 01.133.167l-.08.313.208.246a.133.133 0 01-.054.211l-.288.129-.063.317a.134.134 0 01-.199.09l-.28-.146-.287.149a.134.134 0 01-.193-.093l-.062-.318-.295-.132a.135.135 0 01-.048-.208l.209-.247-.081-.313a.133.133 0 01.137-.167l.32.01.193-.26a.134.134 0 01.214.002l.002.003zm.02.474l-.128-.172-.126.169a.133.133 0 01-.113.056l-.215-.006.053.202a.131.131 0 01-.026.126l-.14.164.188.083a.135.135 0 01.085.1l.041.21.19-.098a.134.134 0 01.123 0l.19.1.041-.21a.136.136 0 01.077-.098l.196-.087-.138-.164a.136.136 0 01-.028-.12l.055-.208-.215.007a.138.138 0 01-.11-.054zm-.134.21c.057 0 .11.023.147.062h.001a.21.21 0 010 .296.206.206 0 01-.148.062.208.208 0 01-.209-.21c0-.058.023-.11.062-.148.003-.003.008-.008.012-.01a.21.21 0 01.136-.05l-.001-.002zm-5.566-.69l.192.257.323-.01a.134.134 0 01.133.167l-.081.313.209.247a.133.133 0 01-.055.21l-.288.129-.062.318a.134.134 0 01-.2.089l-.28-.146-.287.15a.134.134 0 01-.192-.094l-.062-.318-.296-.132a.134.134 0 01-.048-.208l.21-.246-.082-.313a.133.133 0 01.137-.167l.32.01.193-.26a.133.133 0 01.215.001l.001.004zm.02.474l-.127-.172-.127.169a.133.133 0 01-.113.056l-.214-.006.052.202a.131.131 0 01-.026.126l-.138.164.187.084a.135.135 0 01.085.1l.041.21.19-.098a.134.134 0 01.124 0l.19.099.04-.21a.137.137 0 01.078-.097l.195-.088-.138-.164a.135.135 0 01-.027-.12l.054-.207-.214.006a.134.134 0 01-.111-.054zm-.134.211a.21.21 0 01.149.358.206.206 0 01-.148.062.205.205 0 01-.148-.062.207.207 0 01-.061-.148c0-.058.023-.11.061-.148.003-.003.008-.008.012-.01a.209.209 0 01.136-.05l-.001-.002zm-5.565-.69l.192.257.322-.01a.134.134 0 01.133.167l-.08.313.208.247a.133.133 0 01-.055.21l-.288.129-.062.318a.134.134 0 01-.199.089l-.28-.146-.287.15a.134.134 0 01-.193-.094l-.062-.318-.295-.132a.134.134 0 01-.049-.208l.21-.246-.081-.313a.133.133 0 01.137-.167l.319.01.193-.26a.133.133 0 01.215.001l.002.004zm.02.474l-.128-.172-.127.169a.133.133 0 01-.112.056l-.215-.006.052.202a.131.131 0 01-.026.126l-.138.164.187.084a.135.135 0 01.086.1l.04.21.19-.098a.134.134 0 01.124 0l.19.099.041-.21a.136.136 0 01.077-.097l.196-.088-.138-.164a.136.136 0 01-.028-.12l.055-.207-.215.006a.138.138 0 01-.11-.054zm-.135.21c.058 0 .11.024.148.062h.001a.21.21 0 010 .297.206.206 0 01-.148.061.205.205 0 01-.148-.061.207.207 0 01-.06-.149.206.206 0 01.073-.159.21.21 0 01.135-.05zm-5.565-.689l.192.256.322-.01a.134.134 0 01.133.168l-.08.313.209.246a.133.133 0 01-.055.21l-.288.13-.062.317a.134.134 0 01-.2.09l-.28-.147-.287.15a.134.134 0 01-.192-.094l-.062-.318-.296-.131a.134.134 0 01-.048-.209l.209-.246-.081-.313a.133.133 0 01.137-.167l.32.01.193-.26a.133.133 0 01.214.002l.002.003zm.02.473l-.128-.172-.126.17a.133.133 0 01-.113.056l-.215-.007.053.202a.131.131 0 01-.026.127l-.138.163.187.084a.135.135 0 01.085.1l.041.21.19-.098a.134.134 0 01.123 0l.19.1.041-.211a.137.137 0 01.077-.097l.196-.088-.138-.163a.135.135 0 01-.027-.12l.054-.208-.215.007a.135.135 0 01-.11-.055zm-.133.212c.057 0 .109.023.147.061l.001.001a.21.21 0 010 .296.206.206 0 01-.148.061.208.208 0 01-.209-.21c0-.058.023-.11.062-.148.003-.003.008-.008.012-.01a.21.21 0 01.135-.05v-.001zm-5.566-.69l.192.256.323-.01a.134.134 0 01.133.168l-.081.313.209.246a.133.133 0 01-.055.21l-.288.13-.062.317a.134.134 0 01-.2.09l-.28-.146-.287.149a.134.134 0 01-.192-.094l-.062-.318-.296-.131a.134.134 0 01-.048-.208l.209-.247-.08-.313a.133.133 0 01.136-.167l.32.01.193-.26a.133.133 0 01.215.002l.001.003zm.02.473l-.127-.172-.127.168a.133.133 0 01-.113.057l-.214-.007.052.203a.131.131 0 01-.026.126l-.138.164.187.083a.135.135 0 01.085.1l.041.21.19-.098a.134.134 0 01.124 0l.19.1.04-.211a.137.137 0 01.077-.097l.196-.087-.138-.164a.135.135 0 01-.027-.12l.054-.208-.214.007a.134.134 0 01-.111-.054zm-.134.211a.21.21 0 01.148.061v.001a.21.21 0 010 .296.206.206 0 01-.147.061.205.205 0 01-.148-.061.207.207 0 01-.061-.148c0-.058.023-.11.061-.149.003-.003.008-.008.012-.01a.209.209 0 01.136-.05l-.001-.001zM4.235 8.133a.223.223 0 01-.179.409.933.933 0 00-.66-.03.954.954 0 00-.332.182.806.806 0 00-.222.294.932.932 0 00-.016.663.223.223 0 11-.425.134c-.116-.371-.088-.702.033-.977.079-.18.197-.332.342-.455.143-.12.31-.211.487-.266a1.39 1.39 0 01.973.047v-.001zm41.758.358a.223.223 0 01-.179-.409 1.416 1.416 0 011.46.219c.145.123.263.275.342.455.12.274.149.605.033.976a.223.223 0 11-.425-.133c.08-.259.064-.483-.016-.664a.815.815 0 00-.222-.294.975.975 0 00-.332-.181.945.945 0 00-.66.029l-.002.002zM7.708 7.8L5.43 7.593c.62.657 1.11 1.7 1.282 3.229l.994-.62V7.8zm-1.65 3.66h-.005c-.117-2.21-.87-3.38-1.73-3.836a1.975 1.975 0 00-.45-.174L3.31 7.4v-.002c-.245.015-.48.078-.693.182-.542.265-.925.796-.905 1.454.027.867.483 1.201.869 1.482.29.212.549.402.685.737.676 1.657.843 3.97.998 6.12.05.688.098 1.36.158 1.965.1.288.887.274 1.509.263l.173-.003v-3.53c0-.059.015-.116.04-.165a.353.353 0 01-.088-.236V11.46h.001zM46.69 7.387l-.564.051a1.99 1.99 0 00-.45.174c-.856.455-1.606 1.618-1.728 3.813v4.243a.362.362 0 01-.062.203c.038.057.06.125.06.2v3.517c.04 0 .081 0 .123.002.622.01 1.408.025 1.508-.263.06-.605.11-1.277.158-1.966.156-2.15.322-4.461.998-6.12.136-.336.396-.525.686-.736.384-.281.841-.615.868-1.483.02-.657-.364-1.19-.904-1.453a1.846 1.846 0 00-.693-.182v.001zm-3.406 3.432c.17-1.534.66-2.58 1.283-3.238l-2.317.21v2.382l1.035.646zm-1.748-.835V2.782c-.272-.322-2.43-.741-5.238-.954-3.007-.228-6.696-.147-9.617.659-.47.13-.919.278-1.345.449v6.958l16.201.09h-.001zm-16.914-.092V2.935c-.426-.17-.877-.32-1.346-.45-2.921-.806-6.61-.886-9.617-.659-2.81.213-4.966.633-5.238.954v7.202l16.202-.09h-.001zm18.612 1.896H25.36V13.3c0 .583.116 1.153.378 1.54.193.285.477.47.869.47h16.628v-3.522zm-17.87-.716h16.979l-.602-.375-16.368-.092-.009.467zm.234 4.64a1.874 1.874 0 01-.448-.473 2.15 2.15 0 01-.147-.25 2.422 2.422 0 01-.147.25 1.872 1.872 0 01-.448.473H25.6h-.002zm-.953-3.924H6.77v3.522h16.628c.392 0 .676-.185.87-.47.262-.388.377-.958.377-1.54v-1.512zm18.588 4.64H6.817v3.166h36.415v-3.166z"/></mask><path d="M7.662 11.07H24.64l-.009-.466-16.367.093-.602.374zm30.076 9.907a.357.357 0 01-.17-.67H12.423a.357.357 0 01-.22.639l-5.424-.022a.357.357 0 01-.255-.605 6.69 6.69 0 00-.581-.005c-.882.015-2 .035-2.215-.819l-.006-.021-.002-.029a64.586 64.586 0 01-.165-2.02c-.152-2.098-.314-4.356-.946-5.903-.06-.146-.242-.28-.446-.429-.514-.376-1.123-.822-1.16-2.04-.03-.961.522-1.734 1.302-2.115a2.577 2.577 0 011.687-.19l3.717.337v-4.39c0-.051.011-.099.03-.143.001-.006.004-.011.006-.017.229-.54 2.7-1.183 5.863-1.423 3.067-.232 6.844-.147 9.856.683.533.147 1.042.317 1.516.511.474-.194.983-.364 1.516-.51 3.012-.832 6.789-.916 9.857-.684 3.163.24 5.633.883 5.862 1.423l.007.017a.38.38 0 01.029.143v4.38l3.759-.342a2.556 2.556 0 011.687.19c.78.382 1.332 1.155 1.303 2.116-.038 1.219-.647 1.665-1.16 2.04-.205.147-.388.282-.447.428-.631 1.548-.794 3.804-.946 5.903a69.76 69.76 0 01-.164 2.02l-.003.03-.006.02c-.215.855-1.333.835-2.215.819a15.61 15.61 0 00-.376-.003.335.335 0 01-.09.011h-.309a.357.357 0 01-.12.693l-5.425-.023zm-31.207-.665l.004-.003h-.003v.003zM39.354 5.259l.192.257.322-.01a.134.134 0 01.133.167l-.08.313.208.246a.133.133 0 01-.054.21l-.289.13-.062.317a.134.134 0 01-.199.09l-.28-.146-.287.149a.134.134 0 01-.193-.094l-.062-.317-.295-.132a.134.134 0 01-.048-.208l.209-.247-.081-.313a.133.133 0 01.137-.167l.319.01.194-.26a.133.133 0 01.214.002l.002.003zm.02.474l-.128-.172-.127.168a.133.133 0 01-.112.057l-.215-.007.052.203a.131.131 0 01-.026.126l-.138.164.187.083a.135.135 0 01.086.1l.04.21.191-.098a.134.134 0 01.123 0l.19.1.041-.211a.136.136 0 01.077-.097l.196-.087-.138-.164a.136.136 0 01-.028-.12l.055-.208-.215.007a.135.135 0 01-.11-.054zm-.134.211a.21.21 0 01.149.358.206.206 0 01-.148.061.205.205 0 01-.148-.061.207.207 0 01-.06-.148c0-.058.022-.11.06-.148.004-.004.009-.009.013-.011a.21.21 0 01.135-.05zm-5.565-.69l.192.257.322-.01a.134.134 0 01.133.167l-.08.313.208.246a.133.133 0 01-.054.211l-.288.129-.063.317a.134.134 0 01-.199.09l-.28-.146-.287.149a.134.134 0 01-.193-.093l-.062-.318-.295-.132a.135.135 0 01-.048-.208l.209-.247-.081-.313a.133.133 0 01.137-.167l.32.01.193-.26a.134.134 0 01.214.002l.002.003zm.02.474l-.128-.172-.126.169a.133.133 0 01-.113.056l-.215-.006.053.202a.131.131 0 01-.026.126l-.14.164.188.083a.135.135 0 01.085.1l.041.21.19-.098a.134.134 0 01.123 0l.19.1.041-.21a.136.136 0 01.077-.098l.196-.087-.138-.164a.136.136 0 01-.028-.12l.055-.208-.215.007a.138.138 0 01-.11-.054zm-.134.21c.057 0 .11.023.147.062h.001a.21.21 0 010 .296.206.206 0 01-.148.062.208.208 0 01-.209-.21c0-.058.023-.11.062-.148.003-.003.008-.008.012-.01a.21.21 0 01.136-.05l-.001-.002zm-5.566-.69l.192.257.323-.01a.134.134 0 01.133.167l-.081.313.209.247a.133.133 0 01-.055.21l-.288.129-.062.318a.134.134 0 01-.2.089l-.28-.146-.287.15a.134.134 0 01-.192-.094l-.062-.318-.296-.132a.134.134 0 01-.048-.208l.21-.246-.082-.313a.133.133 0 01.137-.167l.32.01.193-.26a.133.133 0 01.215.001l.001.004zm.02.474l-.127-.172-.127.169a.133.133 0 01-.113.056l-.214-.006.052.202a.131.131 0 01-.026.126l-.138.164.187.084a.135.135 0 01.085.1l.041.21.19-.098a.134.134 0 01.124 0l.19.099.04-.21a.137.137 0 01.078-.097l.195-.088-.138-.164a.135.135 0 01-.027-.12l.054-.207-.214.006a.134.134 0 01-.111-.054zm-.134.211a.21.21 0 01.149.358.206.206 0 01-.148.062.205.205 0 01-.148-.062.207.207 0 01-.061-.148c0-.058.023-.11.061-.148.003-.003.008-.008.012-.01a.209.209 0 01.136-.05l-.001-.002zm-5.565-.69l.192.257.322-.01a.134.134 0 01.133.167l-.08.313.208.247a.133.133 0 01-.055.21l-.288.129-.062.318a.134.134 0 01-.199.089l-.28-.146-.287.15a.134.134 0 01-.193-.094l-.062-.318-.295-.132a.134.134 0 01-.049-.208l.21-.246-.081-.313a.133.133 0 01.137-.167l.319.01.193-.26a.133.133 0 01.215.001l.002.004zm.02.474l-.128-.172-.127.169a.133.133 0 01-.112.056l-.215-.006.052.202a.131.131 0 01-.026.126l-.138.164.187.084a.135.135 0 01.086.1l.04.21.19-.098a.134.134 0 01.124 0l.19.099.041-.21a.136.136 0 01.077-.097l.196-.088-.138-.164a.136.136 0 01-.028-.12l.055-.207-.215.006a.138.138 0 01-.11-.054zm-.135.21c.058 0 .11.024.148.062h.001a.21.21 0 010 .297.206.206 0 01-.148.061.205.205 0 01-.148-.061.207.207 0 01-.06-.149.206.206 0 01.073-.159.21.21 0 01.135-.05zm-5.565-.689l.192.256.322-.01a.134.134 0 01.133.168l-.08.313.209.246a.133.133 0 01-.055.21l-.288.13-.062.317a.134.134 0 01-.2.09l-.28-.147-.287.15a.134.134 0 01-.192-.094l-.062-.318-.296-.131a.134.134 0 01-.048-.209l.209-.246-.081-.313a.133.133 0 01.137-.167l.32.01.193-.26a.133.133 0 01.214.002l.002.003zm.02.473l-.128-.172-.126.17a.133.133 0 01-.113.056l-.215-.007.053.202a.131.131 0 01-.026.127l-.138.163.187.084a.135.135 0 01.085.1l.041.21.19-.098a.134.134 0 01.123 0l.19.1.041-.211a.137.137 0 01.077-.097l.196-.088-.138-.163a.135.135 0 01-.027-.12l.054-.208-.215.007a.135.135 0 01-.11-.055zm-.133.212c.057 0 .109.023.147.061l.001.001a.21.21 0 010 .296.206.206 0 01-.148.061.208.208 0 01-.209-.21c0-.058.023-.11.062-.148.003-.003.008-.008.012-.01a.21.21 0 01.135-.05v-.001zm-5.566-.69l.192.256.323-.01a.134.134 0 01.133.168l-.081.313.209.246a.133.133 0 01-.055.21l-.288.13-.062.317a.134.134 0 01-.2.09l-.28-.146-.287.149a.134.134 0 01-.192-.094l-.062-.318-.296-.131a.134.134 0 01-.048-.208l.209-.247-.08-.313a.133.133 0 01.136-.167l.32.01.193-.26a.133.133 0 01.215.002l.001.003zm.02.473l-.127-.172-.127.168a.133.133 0 01-.113.057l-.214-.007.052.203a.131.131 0 01-.026.126l-.138.164.187.083a.135.135 0 01.085.1l.041.21.19-.098a.134.134 0 01.124 0l.19.1.04-.211a.137.137 0 01.077-.097l.196-.087-.138-.164a.135.135 0 01-.027-.12l.054-.208-.214.007a.134.134 0 01-.111-.054zm-.134.211a.21.21 0 01.148.061v.001a.21.21 0 010 .296.206.206 0 01-.147.061.205.205 0 01-.148-.061.207.207 0 01-.061-.148c0-.058.023-.11.061-.149.003-.003.008-.008.012-.01a.209.209 0 01.136-.05l-.001-.001zM4.235 8.133a.223.223 0 01-.179.409.933.933 0 00-.66-.03.954.954 0 00-.332.182.806.806 0 00-.222.294.932.932 0 00-.016.663.223.223 0 11-.425.134c-.116-.371-.088-.702.033-.977.079-.18.197-.332.342-.455.143-.12.31-.211.487-.266a1.39 1.39 0 01.973.047v-.001zm41.758.358a.223.223 0 01-.179-.409 1.416 1.416 0 011.46.219c.145.123.263.275.342.455.12.274.149.605.033.976a.223.223 0 11-.425-.133c.08-.259.064-.483-.016-.664a.815.815 0 00-.222-.294.975.975 0 00-.332-.181.945.945 0 00-.66.029l-.002.002zM7.708 7.8L5.43 7.593c.62.657 1.11 1.7 1.282 3.229l.994-.62V7.8zm-1.65 3.66h-.005c-.117-2.21-.87-3.38-1.73-3.836a1.975 1.975 0 00-.45-.174L3.31 7.4v-.002c-.245.015-.48.078-.693.182-.542.265-.925.796-.905 1.454.027.867.483 1.201.869 1.482.29.212.549.402.685.737.676 1.657.843 3.97.998 6.12.05.688.098 1.36.158 1.965.1.288.887.274 1.509.263l.173-.003v-3.53c0-.059.015-.116.04-.165a.353.353 0 01-.088-.236V11.46h.001zM46.69 7.387l-.564.051a1.99 1.99 0 00-.45.174c-.856.455-1.606 1.618-1.728 3.813v4.243a.362.362 0 01-.062.203c.038.057.06.125.06.2v3.517c.04 0 .081 0 .123.002.622.01 1.408.025 1.508-.263.06-.605.11-1.277.158-1.966.156-2.15.322-4.461.998-6.12.136-.336.396-.525.686-.736.384-.281.841-.615.868-1.483.02-.657-.364-1.19-.904-1.453a1.846 1.846 0 00-.693-.182v.001zm-3.406 3.432c.17-1.534.66-2.58 1.283-3.238l-2.317.21v2.382l1.035.646zm-1.748-.835V2.782c-.272-.322-2.43-.741-5.238-.954-3.007-.228-6.696-.147-9.617.659-.47.13-.919.278-1.345.449v6.958l16.201.09h-.001zm-16.914-.092V2.935c-.426-.17-.877-.32-1.346-.45-2.921-.806-6.61-.886-9.617-.659-2.81.213-4.966.633-5.238.954v7.202l16.202-.09h-.001zm18.612 1.896H25.36V13.3c0 .583.116 1.153.378 1.54.193.285.477.47.869.47h16.628v-3.522zm-17.87-.716h16.979l-.602-.375-16.368-.092-.009.467zm.234 4.64a1.874 1.874 0 01-.448-.473 2.15 2.15 0 01-.147-.25 2.422 2.422 0 01-.147.25 1.872 1.872 0 01-.448.473H25.6h-.002zm-.953-3.924H6.77v3.522h16.628c.392 0 .676-.185.87-.47.262-.388.377-.958.377-1.54v-1.512zm18.588 4.64H6.817v3.166h36.415v-3.166z" fill="#currentColor"/><path d="M7.662 11.07H24.64l-.009-.466-16.367.093-.602.374zm30.076 9.907a.357.357 0 01-.17-.67H12.423a.357.357 0 01-.22.639l-5.424-.022a.357.357 0 01-.255-.605 6.69 6.69 0 00-.581-.005c-.882.015-2 .035-2.215-.819l-.006-.021-.002-.029a64.586 64.586 0 01-.165-2.02c-.152-2.098-.314-4.356-.946-5.903-.06-.146-.242-.28-.446-.429-.514-.376-1.123-.822-1.16-2.04-.03-.961.522-1.734 1.302-2.115a2.577 2.577 0 011.687-.19l3.717.337v-4.39c0-.051.011-.099.03-.143.001-.006.004-.011.006-.017.229-.54 2.7-1.183 5.863-1.423 3.067-.232 6.844-.147 9.856.683.533.147 1.042.317 1.516.511.474-.194.983-.364 1.516-.51 3.012-.832 6.789-.916 9.857-.684 3.163.24 5.633.883 5.862 1.423l.007.017a.38.38 0 01.029.143v4.38l3.759-.342a2.556 2.556 0 011.687.19c.78.382 1.332 1.155 1.303 2.116-.038 1.219-.647 1.665-1.16 2.04-.205.147-.388.282-.447.428-.631 1.548-.794 3.804-.946 5.903a69.76 69.76 0 01-.164 2.02l-.003.03-.006.02c-.215.855-1.333.835-2.215.819a15.61 15.61 0 00-.376-.003.335.335 0 01-.09.011h-.309a.357.357 0 01-.12.693l-5.425-.023zm-31.207-.665l.004-.003h-.003v.003h0zM39.354 5.259l.192.257.322-.01a.134.134 0 01.133.167l-.08.313.208.246a.133.133 0 01-.054.21l-.289.13-.062.317a.134.134 0 01-.199.09l-.28-.146-.287.149a.134.134 0 01-.193-.094l-.062-.317-.295-.132a.134.134 0 01-.048-.208l.209-.247-.081-.313a.133.133 0 01.137-.167l.319.01.194-.26a.133.133 0 01.214.002l.002.003zm.02.474l-.128-.172-.127.168a.133.133 0 01-.112.057l-.215-.007.052.203a.131.131 0 01-.026.126l-.138.164.187.083a.135.135 0 01.086.1l.04.21.191-.098a.134.134 0 01.123 0l.19.1.041-.211a.136.136 0 01.077-.097l.196-.087-.138-.164a.136.136 0 01-.028-.12l.055-.208-.215.007a.135.135 0 01-.11-.054zm-.134.211c.057 0 .11.023.148.062h0a.21.21 0 010 .296.206.206 0 01-.147.061.205.205 0 01-.148-.061.207.207 0 01-.06-.148c0-.058.022-.11.06-.148.004-.004.009-.009.013-.011a.21.21 0 01.135-.05h0zm-5.565-.69l.192.257.322-.01a.134.134 0 01.133.167l-.08.313.208.246a.133.133 0 01-.054.211l-.288.129-.063.317a.134.134 0 01-.199.09l-.28-.146-.287.149a.134.134 0 01-.193-.093l-.062-.318-.295-.132a.135.135 0 01-.048-.208l.209-.247-.081-.313a.133.133 0 01.137-.167l.32.01.193-.26a.134.134 0 01.214.002l.002.003zm.02.474l-.128-.172-.126.169a.133.133 0 01-.113.056l-.215-.006.053.202a.131.131 0 01-.026.126l-.14.164.188.083a.135.135 0 01.085.1l.041.21.19-.098a.134.134 0 01.123 0l.19.1.041-.21a.136.136 0 01.077-.098l.196-.087-.138-.164a.136.136 0 01-.028-.12l.055-.208-.215.007a.138.138 0 01-.11-.054zm-.134.21c.057 0 .11.023.147.062h.001a.21.21 0 010 .296.206.206 0 01-.148.062.208.208 0 01-.209-.21c0-.058.023-.11.062-.148.003-.003.008-.008.012-.01a.21.21 0 01.136-.05l-.001-.002zm-5.566-.69l.192.257.323-.01a.134.134 0 01.133.167l-.081.313.209.247a.133.133 0 01-.055.21l-.288.129-.062.318a.134.134 0 01-.2.089l-.28-.146-.287.15a.134.134 0 01-.192-.094l-.062-.318-.296-.132a.134.134 0 01-.048-.208l.21-.246-.082-.313a.133.133 0 01.137-.167l.32.01.193-.26a.133.133 0 01.215.001l.001.004zm.02.474l-.127-.172-.127.169a.133.133 0 01-.113.056l-.214-.006.052.202a.131.131 0 01-.026.126l-.138.164.187.084a.135.135 0 01.085.1l.041.21.19-.098a.134.134 0 01.124 0l.19.099.04-.21a.137.137 0 01.078-.097l.195-.088-.138-.164a.135.135 0 01-.027-.12l.054-.207-.214.006a.134.134 0 01-.111-.054zm-.134.211c.057 0 .11.023.148.062h0a.21.21 0 010 .296.206.206 0 01-.147.062.205.205 0 01-.148-.062.207.207 0 01-.061-.148c0-.058.023-.11.061-.148.003-.003.008-.008.012-.01a.209.209 0 01.136-.05l-.001-.002zm-5.565-.69l.192.257.322-.01a.134.134 0 01.133.167l-.08.313.208.247a.133.133 0 01-.055.21l-.288.129-.062.318a.134.134 0 01-.199.089l-.28-.146-.287.15a.134.134 0 01-.193-.094l-.062-.318-.295-.132a.134.134 0 01-.049-.208l.21-.246-.081-.313a.133.133 0 01.137-.167l.319.01.193-.26a.133.133 0 01.215.001l.002.004zm.02.474l-.128-.172-.127.169a.133.133 0 01-.112.056l-.215-.006.052.202a.131.131 0 01-.026.126l-.138.164.187.084a.135.135 0 01.086.1l.04.21.19-.098a.134.134 0 01.124 0l.19.099.041-.21a.136.136 0 01.077-.097l.196-.088-.138-.164a.136.136 0 01-.028-.12l.055-.207-.215.006a.138.138 0 01-.11-.054zm-.135.21c.058 0 .11.024.148.062h.001a.21.21 0 010 .297.206.206 0 01-.148.061.205.205 0 01-.148-.061.207.207 0 01-.06-.149.206.206 0 01.073-.159.21.21 0 01.135-.05h0zm-5.565-.689l.192.256.322-.01a.134.134 0 01.133.168l-.08.313.209.246a.133.133 0 01-.055.21l-.288.13-.062.317a.134.134 0 01-.2.09l-.28-.147-.287.15a.134.134 0 01-.192-.094l-.062-.318-.296-.131a.134.134 0 01-.048-.209l.209-.246-.081-.313a.133.133 0 01.137-.167l.32.01.193-.26a.133.133 0 01.214.002l.002.003zm.02.473l-.128-.172-.126.17a.133.133 0 01-.113.056l-.215-.007.053.202a.131.131 0 01-.026.127l-.138.163.187.084a.135.135 0 01.085.1l.041.21.19-.098a.134.134 0 01.123 0l.19.1.041-.211a.137.137 0 01.077-.097l.196-.088-.138-.163a.135.135 0 01-.027-.12l.054-.208-.215.007a.135.135 0 01-.11-.055zm-.133.212c.057 0 .109.023.147.061l.001.001a.21.21 0 010 .296.206.206 0 01-.148.061.208.208 0 01-.209-.21c0-.058.023-.11.062-.148.003-.003.008-.008.012-.01a.21.21 0 01.135-.05v-.001zm-5.566-.69l.192.256.323-.01a.134.134 0 01.133.168l-.081.313.209.246a.133.133 0 01-.055.21l-.288.13-.062.317a.134.134 0 01-.2.09l-.28-.146-.287.149a.134.134 0 01-.192-.094l-.062-.318-.296-.131a.134.134 0 01-.048-.208l.209-.247-.08-.313a.133.133 0 01.136-.167l.32.01.193-.26a.133.133 0 01.215.002l.001.003zm.02.473l-.127-.172-.127.168a.133.133 0 01-.113.057l-.214-.007.052.203a.131.131 0 01-.026.126l-.138.164.187.083a.135.135 0 01.085.1l.041.21.19-.098a.134.134 0 01.124 0l.19.1.04-.211a.137.137 0 01.077-.097l.196-.087-.138-.164a.135.135 0 01-.027-.12l.054-.208-.214.007a.134.134 0 01-.111-.054zm-.134.211a.21.21 0 01.148.061v.001a.21.21 0 010 .296.206.206 0 01-.147.061.205.205 0 01-.148-.061.207.207 0 01-.061-.148c0-.058.023-.11.061-.149.003-.003.008-.008.012-.01a.209.209 0 01.136-.05l-.001-.001zM4.235 8.133a.223.223 0 01-.179.409.933.933 0 00-.66-.03.954.954 0 00-.332.182.806.806 0 00-.222.294.932.932 0 00-.016.663.223.223 0 11-.425.134c-.116-.371-.088-.702.033-.977.079-.18.197-.332.342-.455.143-.12.31-.211.487-.266a1.39 1.39 0 01.973.047v-.001zm41.758.358a.223.223 0 01-.179-.409 1.416 1.416 0 011.46.219c.145.123.263.275.342.455.12.274.149.605.033.976a.223.223 0 11-.425-.133c.08-.259.064-.483-.016-.664a.815.815 0 00-.222-.294.975.975 0 00-.332-.181.945.945 0 00-.66.029l-.002.002zM7.708 7.8L5.43 7.593c.62.657 1.11 1.7 1.282 3.229l.994-.62V7.8zm-1.65 3.66h-.005c-.117-2.21-.87-3.38-1.73-3.836a1.975 1.975 0 00-.45-.174L3.31 7.4v-.002c-.245.015-.48.078-.693.182-.542.265-.925.796-.905 1.454.027.867.483 1.201.869 1.482.29.212.549.402.685.737.676 1.657.843 3.97.998 6.12.05.688.098 1.36.158 1.965.1.288.887.274 1.509.263l.173-.003v-3.53c0-.059.015-.116.04-.165a.353.353 0 01-.088-.236V11.46h.001zM46.69 7.387l-.564.051a1.99 1.99 0 00-.45.174c-.856.455-1.606 1.618-1.728 3.813v4.243a.362.362 0 01-.062.203c.038.057.06.125.06.2v3.517c.04 0 .081 0 .123.002.622.01 1.408.025 1.508-.263.06-.605.11-1.277.158-1.966.156-2.15.322-4.461.998-6.12.136-.336.396-.525.686-.736.384-.281.841-.615.868-1.483.02-.657-.364-1.19-.904-1.453a1.846 1.846 0 00-.693-.182v.001zm-3.406 3.432c.17-1.534.66-2.58 1.283-3.238l-2.317.21v2.382l1.035.646h0v0zm-1.748-.835V2.782c-.272-.322-2.43-.741-5.238-.954-3.007-.228-6.696-.147-9.617.659-.47.13-.919.278-1.345.449v6.958l16.201.09h-.001zm-16.914-.092V2.935c-.426-.17-.877-.32-1.346-.45-2.921-.806-6.61-.886-9.617-.659-2.81.213-4.966.633-5.238.954v7.202l16.202-.09h-.001zm18.612 1.896H25.36V13.3c0 .583.116 1.153.378 1.54.193.285.477.47.869.47h16.628v-3.522zm-17.87-.716h16.979l-.602-.375-16.368-.092-.009.467zm.234 4.64a1.874 1.874 0 01-.448-.473 2.15 2.15 0 01-.147-.25 2.422 2.422 0 01-.147.25 1.872 1.872 0 01-.448.473H25.6h-.002zm-.953-3.924H6.77v3.522h16.628c.392 0 .676-.185.87-.47.262-.388.377-.958.377-1.54v-1.512zm18.588 4.64H6.817v3.166h36.415v-3.166h0z" stroke="#currentColor" stroke-width=".4" mask="url(#a)"/></svg>