<svg width="47" height="43" fill="none" xmlns="http://www.w3.org/2000/svg"><mask id="a" maskUnits="userSpaceOnUse" x="0" y="0" width="47" height="43" fill="#000"><path fill="#fff" d="M0 0h47v43H0z"/><path d="M1.023 27.378c.008.013.014.025.027.035.005.003.005.01.01.012l.64.365h.001c.019.01.039.016.06.016a.128.128 0 00.06-.016l.634-.365c.005-.003.005-.01.01-.012a.108.108 0 00.027-.036c.007-.013.015-.025.017-.04 0-.006.006-.01.006-.014v-3.439l23.428 13.337v4.304c0 .005.006.01.007.014.002.016.009.027.017.041.008.014.014.026.027.035.005.003.005.01.01.012l.633.357a.12.12 0 00.119 0l.64-.357c.007-.003.007-.01.011-.013a.093.093 0 00.028-.034.102.102 0 00.017-.04c0-.006.006-.01.006-.015V37.22l17.027-9.693v3.438c0 .006.005.01.006.015.002.016.01.027.017.04a.097.097 0 00.028.035c.005.004.005.01.01.013l.633.357a.12.12 0 00.119 0l.64-.357c.006-.003.006-.01.01-.013.014-.01.02-.02.028-.034a.103.103 0 00.018-.041c0-.006.006-.01.006-.015V21.5c0-.006-.005-.01-.006-.015a.15.15 0 00-.008-.028c-.002-.005.001-.01-.001-.015-.004-.006-.01-.006-.014-.01a.1.1 0 00-.021-.022c-.005-.003-.005-.01-.01-.012l-.641-.365c-.005-.003-.011 0-.017-.002a.089.089 0 00-.043-.006c-.015 0-.03 0-.044.006-.006.002-.011 0-.016.002l-.573.33-12.033-6.855v-.004c0-.006.006-.01.006-.016 0-.01-.009-.018-.011-.027-.003-.01.002-.02-.003-.03-.004-.006-.01-.006-.014-.011a.108.108 0 00-.034-.028.106.106 0 00-.042-.016c-.006-.001-.01-.007-.016-.007h-.134l-5.386-3.072c0-.012 0-.021-.004-.032-.002-.004 0-.009-.001-.013h-.002c-.006-.01-.018-.015-.027-.024-.008-.008-.01-.02-.02-.025l-5.753-3.28c-.005-.003-.012 0-.018-.002a.098.098 0 00-.028-.008c-.006 0-.009-.006-.014-.006-.003 0-.005.003-.008.003V1.475c0-.005-.005-.01-.006-.014a.107.107 0 00-.008-.03c-.002-.005.001-.01-.002-.016-.002-.005-.01-.005-.013-.01a.098.098 0 00-.02-.02c-.006-.004-.006-.01-.011-.013l-.64-.364c-.006-.003-.012 0-.017-.002C20.332 1 20.319 1 20.302 1c-.016 0-.03 0-.044.006-.005.002-.01 0-.016.002l-.64.364c-.006.003-.006.01-.011.013a.094.094 0 00-.02.02c-.005.005-.01.005-.014.01-.003.006 0 .01-.002.017a.096.096 0 00-.007.029c0 .005-.007.009-.007.014v1.39L2.515 12.556v-.523c0-.005-.005-.009-.006-.014a.105.105 0 00-.009-.03c-.002-.005 0-.01-.002-.016-.003-.005-.01-.005-.013-.01a.095.095 0 00-.02-.02c-.005-.003-.005-.01-.01-.012l-.633-.365c-.005-.003-.011 0-.017-.002-.014-.006-.028-.006-.043-.006-.016 0-.03-.001-.045.005-.005.002-.011 0-.016.002l-.641.365c-.005.003-.005.01-.01.013a.093.093 0 00-.021.02c-.003.004-.01.005-.013.01-.003.005 0 .01-.002.016a.1.1 0 00-.008.03c0 .004-.006.008-.006.014v15.288c0 .006.005.01.006.014a.082.082 0 00.017.042zm1.25-.124l-.391.226v-3.953l.392.22v3.507zm23.67 9.692L2.455 23.576l-.573-.324v-4.096l24.061 13.7v4.09zm.633 4.73l-.391-.221v-9.192l.392.221v9.192zm.122-9.397l-.393-.222.393-.225.397.225-.397.222zm.52.509v8.667l-.4.223v-9.193l.4-.223v.526zm17.9-1.67l-.391-.222V27.39l.392-.225v3.952zm0-4.229l-.573.33-17.086 9.727v-4.09l17.66-10.057v4.09zm.642 4.007l-.4.223v-9.192l.4-.223v9.192zm-.52-9.623l.397.226-.397.221-.392-.221.392-.226zm-.514.432l.392.221v.46l-.392-.226v-.455zm.274.887l-17.541 9.99v-.455l17.147-9.76.394.225zM31.843 14.37H21.68l5.085-2.896 5.078 2.896zm.16.238l-5.622 3.201-5.37-3.053.253-.148h10.74zm-10.833-.222l-.46.268-2.97 1.689v-1.689l6.801-3.88 1.975.567-5.346 3.045zm.023-6.152l4.706 2.682-1.325-.381-3.381-1.922v-.38zm-.121.585l3.212 1.826-6.665 3.804-3.213-1.834 6.666-3.796zM4.874 18.022l3.349 1.904v1.695l-5.327-3.036 1.978-.563zm-1.367.141l8.17-4.651v.38l-6.834 3.892-1.336.38zm1.624-.27l6.666-3.796 3.212 1.826-6.665 3.796-3.213-1.826zm6.787-4.002v-.379l4.713 2.68-1.333-.379-3.38-1.922zm-3.454 6.034l6.803-3.874 1.978.563-8.78 5.007v-1.696zm3.7-6.62l1.985-.563 3.349 1.911v1.689l-5.334-3.036zm8.787-4.693l-6.833 3.892-1.344.38 8.177-4.649v.377zm-.128-.655l-.4.227V1.91l.4-.227v6.275zm-.52-6.708l.399.227-.4.227-.398-.227.399-.227zm-.52.432l.4.227v1.178l-.4-.223V1.681zM2.515 12.831L19.662 3.07l.398.22-17.545 9.996v-.454zm0 .73L20.182 3.495v4.826L2.515 18.38v-4.82zm.011 5.086l.003.003.001.001 5.753 3.279a.126.126 0 00.12 0l9.207-5.25c.003-.001.004-.004.006-.005l.012-.011a.117.117 0 00.05-.013l3.091-1.758 5.55 3.156h.001a.122.122 0 00.12 0l5.934-3.38 12.11 6.9v.59l-17.146 9.762-.581-.33c-.005-.003-.01 0-.016-.002-.015-.006-.028-.006-.045-.006-.016 0-.03 0-.044.007-.006.001-.01-.001-.016.001l-.633.365c-.005.003-.006.01-.01.013a.09.09 0 00-.021.02c-.004.005-.01.006-.013.01-.003.006 0 .012-.002.017a.084.084 0 00-.008.029c0 .005-.007.008-.007.014v.523L2.001 18.949l.454-.261.071-.04zm-.252-5.884v5.754l-.392.226v-6.276l.392-.226v.522zm-.513-.956l.394.227-.394.227-.4-.227.4-.227zm-.52.433l.399.227V27.48l-.4-.226V12.24z"/></mask><path d="M1.023 27.378c.008.013.014.025.027.035.005.003.005.01.01.012l.64.365h.001c.019.01.039.016.06.016a.128.128 0 00.06-.016l.634-.365c.005-.003.005-.01.01-.012a.108.108 0 00.027-.036c.007-.013.015-.025.017-.04 0-.006.006-.01.006-.014v-3.439l23.428 13.337v4.304c0 .005.006.01.007.014.002.016.009.027.017.041.008.014.014.026.027.035.005.003.005.01.01.012l.633.357a.12.12 0 00.119 0l.64-.357c.007-.003.007-.01.011-.013a.093.093 0 00.028-.034.102.102 0 00.017-.04c0-.006.006-.01.006-.015V37.22l17.027-9.693v3.438c0 .006.005.01.006.015.002.016.01.027.017.04a.097.097 0 00.028.035c.005.004.005.01.01.013l.633.357a.12.12 0 00.119 0l.64-.357c.006-.003.006-.01.01-.013.014-.01.02-.02.028-.034a.103.103 0 00.018-.041c0-.006.006-.01.006-.015V21.5c0-.006-.005-.01-.006-.015a.15.15 0 00-.008-.028c-.002-.005.001-.01-.001-.015-.004-.006-.01-.006-.014-.01a.1.1 0 00-.021-.022c-.005-.003-.005-.01-.01-.012l-.641-.365c-.005-.003-.011 0-.017-.002a.089.089 0 00-.043-.006c-.015 0-.03 0-.044.006-.006.002-.011 0-.016.002l-.573.33-12.033-6.855v-.004c0-.006.006-.01.006-.016 0-.01-.009-.018-.011-.027-.003-.01.002-.02-.003-.03-.004-.006-.01-.006-.014-.011a.108.108 0 00-.034-.028.106.106 0 00-.042-.016c-.006-.001-.01-.007-.016-.007h-.134l-5.386-3.072c0-.012 0-.021-.004-.032-.002-.004 0-.009-.001-.013h-.002c-.006-.01-.018-.015-.027-.024-.008-.008-.01-.02-.02-.025l-5.753-3.28c-.005-.003-.012 0-.018-.002a.098.098 0 00-.028-.008c-.006 0-.009-.006-.014-.006-.003 0-.005.003-.008.003V1.475c0-.005-.005-.01-.006-.014a.107.107 0 00-.008-.03c-.002-.005.001-.01-.002-.016-.002-.005-.01-.005-.013-.01a.098.098 0 00-.02-.02c-.006-.004-.006-.01-.011-.013l-.64-.364c-.006-.003-.012 0-.017-.002C20.332 1 20.319 1 20.302 1c-.016 0-.03 0-.044.006-.005.002-.01 0-.016.002l-.64.364c-.006.003-.006.01-.011.013a.094.094 0 00-.02.02c-.005.005-.01.005-.014.01-.003.006 0 .01-.002.017a.096.096 0 00-.007.029c0 .005-.007.009-.007.014v1.39L2.515 12.556v-.523c0-.005-.005-.009-.006-.014a.105.105 0 00-.009-.03c-.002-.005 0-.01-.002-.016-.003-.005-.01-.005-.013-.01a.095.095 0 00-.02-.02c-.005-.003-.005-.01-.01-.012l-.633-.365c-.005-.003-.011 0-.017-.002-.014-.006-.028-.006-.043-.006-.016 0-.03-.001-.045.005-.005.002-.011 0-.016.002l-.641.365c-.005.003-.005.01-.01.013a.093.093 0 00-.021.02c-.003.004-.01.005-.013.01-.003.005 0 .01-.002.016a.1.1 0 00-.008.03c0 .004-.006.008-.006.014v15.288c0 .006.005.01.006.014a.082.082 0 00.017.042zm1.25-.124l-.391.226v-3.953l.392.22v3.507zm23.67 9.692L2.455 23.576l-.573-.324v-4.096l24.061 13.7v4.09zm.633 4.73l-.391-.221v-9.192l.392.221v9.192zm.122-9.397l-.393-.222.393-.225.397.225-.397.222zm.52.509v8.667l-.4.223v-9.193l.4-.223v.526zm17.9-1.67l-.391-.222V27.39l.392-.225v3.952zm0-4.229l-.573.33-17.086 9.727v-4.09l17.66-10.057v4.09zm.642 4.007l-.4.223v-9.192l.4-.223v9.192zm-.52-9.623l.397.226-.397.221-.392-.221.392-.226zm-.514.432l.392.221v.46l-.392-.226v-.455zm.274.887l-17.541 9.99v-.455l17.147-9.76.394.225zM31.843 14.37H21.68l5.085-2.896 5.078 2.896zm.16.238l-5.622 3.201-5.37-3.053.253-.148h10.74zm-10.833-.222l-.46.268-2.97 1.689v-1.689l6.801-3.88 1.975.567-5.346 3.045zm.023-6.152l4.706 2.682-1.325-.381-3.381-1.922v-.38zm-.121.585l3.212 1.826-6.665 3.804-3.213-1.834 6.666-3.796zM4.874 18.022l3.349 1.904v1.695l-5.327-3.036 1.978-.563zm-1.367.141l8.17-4.651v.38l-6.834 3.892-1.336.38zm1.624-.27l6.666-3.796 3.212 1.826-6.665 3.796-3.213-1.826zm6.787-4.002v-.379l4.713 2.68-1.333-.379-3.38-1.922zm-3.454 6.034l6.803-3.874 1.978.563-8.78 5.007v-1.696zm3.7-6.62l1.985-.563 3.349 1.911v1.689l-5.334-3.036zm8.787-4.693l-6.833 3.892-1.344.38 8.177-4.649v.377zm-.128-.655l-.4.227V1.91l.4-.227v6.275zm-.52-6.708l.399.227-.4.227-.398-.227.399-.227zm-.52.432l.4.227v1.178l-.4-.223V1.681zM2.515 12.831L19.662 3.07l.398.22-17.545 9.996v-.454zm0 .73L20.182 3.495v4.826L2.515 18.38v-4.82zm.011 5.086l.003.003.001.001 5.753 3.279a.126.126 0 00.12 0l9.207-5.25c.003-.001.004-.004.006-.005l.012-.011a.117.117 0 00.05-.013l3.091-1.758 5.55 3.156h.001a.122.122 0 00.12 0l5.934-3.38 12.11 6.9v.59l-17.146 9.762-.581-.33c-.005-.003-.01 0-.016-.002-.015-.006-.028-.006-.045-.006-.016 0-.03 0-.044.007-.006.001-.01-.001-.016.001l-.633.365c-.005.003-.006.01-.01.013a.09.09 0 00-.021.02c-.004.005-.01.006-.013.01-.003.006 0 .012-.002.017a.084.084 0 00-.008.029c0 .005-.007.008-.007.014v.523L2.001 18.949l.454-.261.071-.04zm-.252-5.884v5.754l-.392.226v-6.276l.392-.226v.522zm-.513-.956l.394.227-.394.227-.4-.227.4-.227zm-.52.433l.399.227V27.48l-.4-.226V12.24z" fill="#currentColor"/><path d="M1.023 27.378c.008.013.014.025.027.035.005.003.005.01.01.012l.64.365h.001c.019.01.039.016.06.016a.128.128 0 00.06-.016s0 0 0 0l.634-.365c.005-.003.005-.01.01-.012a.108.108 0 00.027-.036c.007-.013.015-.025.017-.04 0-.006.006-.01.006-.014v-3.439l23.428 13.337v4.304c0 .005.006.01.007.014.002.016.009.027.017.041.008.014.014.026.027.035.005.003.005.01.01.012l.633.357a.12.12 0 00.119 0l.64-.357c.007-.003.007-.01.011-.013a.093.093 0 00.028-.034.102.102 0 00.017-.04c0-.006.006-.01.006-.015V37.22l17.027-9.693v3.438c0 .006.005.01.006.015.002.016.01.027.017.04a.097.097 0 00.028.035c.005.004.005.01.01.013l.633.357a.12.12 0 00.119 0l.64-.357c.006-.003.006-.01.01-.013.014-.01.02-.02.028-.034a.103.103 0 00.018-.041c0-.006.006-.01.006-.015V21.5c0-.006-.005-.01-.006-.015a.15.15 0 00-.008-.028c-.002-.005.001-.01-.001-.015-.004-.006-.01-.006-.014-.01a.1.1 0 00-.021-.022c-.005-.003-.005-.01-.01-.012l-.641-.365c-.005-.003-.011 0-.017-.002a.089.089 0 00-.043-.006c-.015 0-.03 0-.044.006-.006.002-.011 0-.016.002l-.573.33-12.033-6.855v-.004c0-.006.006-.01.006-.016 0-.01-.009-.018-.011-.027-.003-.01.002-.02-.003-.03-.004-.006-.01-.006-.014-.011a.108.108 0 00-.034-.028.106.106 0 00-.042-.016c-.006-.001-.01-.007-.016-.007h-.134l-5.386-3.072c0-.012 0-.021-.004-.032-.002-.004 0-.009-.001-.013h-.002c-.006-.01-.018-.015-.027-.024-.008-.008-.01-.02-.02-.025l-5.753-3.28c-.005-.003-.012 0-.018-.002a.098.098 0 00-.028-.008c-.006 0-.009-.006-.014-.006-.003 0-.005.003-.008.003V1.475c0-.005-.005-.01-.006-.014a.107.107 0 00-.008-.03c-.002-.005.001-.01-.002-.016-.002-.005-.01-.005-.013-.01a.098.098 0 00-.02-.02c-.006-.004-.006-.01-.011-.013l-.64-.364c-.006-.003-.012 0-.017-.002C20.332 1 20.319 1 20.302 1c-.016 0-.03 0-.044.006-.005.002-.01 0-.016.002l-.64.364c-.006.003-.006.01-.011.013a.094.094 0 00-.02.02c-.005.005-.01.005-.014.01-.003.006 0 .01-.002.017a.096.096 0 00-.007.029c0 .005-.007.009-.007.014v1.39L2.515 12.556v-.523c0-.005-.005-.009-.006-.014a.105.105 0 00-.009-.03c-.002-.005 0-.01-.002-.016-.003-.005-.01-.005-.013-.01a.095.095 0 00-.02-.02c-.005-.003-.005-.01-.01-.012l-.633-.365c-.005-.003-.011 0-.017-.002-.014-.006-.028-.006-.043-.006-.016 0-.03-.001-.045.005-.005.002-.011 0-.016.002l-.641.365c-.005.003-.005.01-.01.013a.093.093 0 00-.021.02c-.003.004-.01.005-.013.01-.003.005 0 .01-.002.016a.1.1 0 00-.008.03c0 .004-.006.008-.006.014v15.288c0 .006.005.01.006.014a.082.082 0 00.017.042zm1.25-.124l-.391.226v-3.953l.392.22v3.507zm23.67 9.692L2.455 23.576v0l-.573-.324v-4.096l24.061 13.7v4.09h0zm.633 4.73l-.391-.221v-9.192l.392.221v9.192zm.122-9.397l-.393-.222.393-.225.397.225-.397.222zm.52.509v8.667l-.4.223v-9.193l.4-.223v.526zm17.9-1.67l-.391-.222V27.39l.392-.225v3.952zm0-4.229l-.573.33-17.086 9.727v-4.09l17.66-10.057v4.09zm.642 4.007l-.4.223v-9.192l.4-.223v9.192zm-.52-9.623l.397.226-.397.221-.392-.221.392-.226zm-.514.432l.392.221v.46l-.392-.226v-.455zm.274.887l-17.541 9.99v-.455l17.147-9.76.394.225zM31.843 14.37H21.68l5.085-2.896 5.078 2.896zm.16.238l-5.622 3.201-5.37-3.053.253-.148h10.74zm-10.833-.222s0 0 0 0l-.46.268-2.97 1.689v-1.689l6.801-3.88 1.975.567-5.346 3.045zm.023-6.152l4.706 2.682-1.325-.381-3.381-1.922v-.38zm-.121.585l3.212 1.826-6.665 3.804-3.213-1.834 6.666-3.796zM4.874 18.022l3.349 1.904v1.695l-5.327-3.036 1.978-.563zm-1.367.141l8.17-4.651v.38l-6.834 3.892-1.336.38zm1.624-.27l6.666-3.796 3.212 1.826-6.665 3.796-3.213-1.826zm6.787-4.002v-.379l4.713 2.68-1.333-.379-3.38-1.922zm-3.454 6.034l6.803-3.874 1.978.563-8.78 5.007v-1.696zm3.7-6.62l1.985-.563 3.349 1.911v1.689l-5.334-3.036zm8.787-4.693l-6.833 3.892-1.344.38 8.177-4.649v.377zm-.128-.655l-.4.227V1.91l.4-.227v6.275zm-.52-6.708l.399.227-.4.227-.398-.227.399-.227zm-.52.432l.4.227v1.178l-.4-.223V1.681zM2.515 12.831L19.662 3.07l.398.22-17.545 9.996v-.454zm0 .73L20.182 3.495v4.826L2.515 18.38v-4.82zm.011 5.086l.003.003s0 0 0 0l.001.001s0 0 0 0l5.753 3.279s0 0 0 0a.126.126 0 00.12 0s0 0 0 0l9.207-5.25s0 0 0 0h0s0 0 0 0c.003-.001.004-.004.006-.005l.012-.011a.117.117 0 00.05-.013h0l3.091-1.758 5.55 3.156h.001a.122.122 0 00.12 0l5.934-3.38 12.11 6.9v.59l-17.146 9.762-.581-.33c-.005-.003-.01 0-.016-.002-.015-.006-.028-.006-.045-.006-.016 0-.03 0-.044.007-.006.001-.01-.001-.016.001l-.633.365c-.005.003-.006.01-.01.013a.09.09 0 00-.021.02c-.004.005-.01.006-.013.01-.003.006 0 .012-.002.017a.084.084 0 00-.008.029c0 .005-.007.008-.007.014v.523L2.001 18.949l.454-.261.071-.04zm-.252-5.884v5.754l-.392.226v-6.276l.392-.226v.522zm-.513-.956l.394.227-.394.227-.4-.227.4-.227zm-.52.433l.399.227V27.48l-.4-.226V12.24z" stroke="#currentColor" stroke-width=".4" mask="url(#a)"/></svg>