<svg width="48" height="48" fill="none" xmlns="http://www.w3.org/2000/svg"><path d="M47.19 24.874l.019-.244-.227.094-19.786 8.222-.092.039v6.525l.216-.107 1.084-.535.083-.04v-.093l.05-4.332 17.291-7.144-.311 3.218-.026.268.242-.119.97-.478.076-.038.007-.085.404-5.152zm-27.782-10.09l.226.171.015-.283.019-.385.01-.189-.187.034-.425.078-.336.062.272.205.406.307zm-15.801-.959l-.37.05.302.22 1.062.772.05.035.06-.008 14.79-2.063.128-.018v-1.169l-.17.023-15.852 2.158zm-1.199 2.393l-.23-.193-.016.3a29.16 29.16 0 00-.046 2.01 15.05 15.05 0 00.024.642l.002.033.001.008v.003h0l.15-.012-.15.013.015.172.169-.039.79-.184.118-.027-.001-.12-.022-1.864-.001-.068-.053-.045-.75-.629z" fill="#currentColor" stroke="#F9FBFB" stroke-width=".3"/><path d="M19.546 14.14l-.113.023-.007.115-.021.36-.011.186.184-.03.815-.13.119-.019.007-.12.025-.395.013-.195-.192.039-.82.166zM1.163 18.218l-.001.073.057.046.865.694.243.194v-.31l.012-2.533L25.33 34.394 25.32 38v.07l.055.046 1.547 1.269.245.2v-6.578l-.06-.045L1.447 13.68l-.236-.178-.003.297-.045 4.418zm18.468-6.49l-.216-.109-.002.243-.003.892v.102l.094.038.118.047.042.017.044-.009.857-.173 1.243.646.011.365-.076.016-.412.085.374.195.453.236.047.024.052-.01 1.02-.207 1.15.633-.008.289-.23.054-.392.092.358.187.457.238.05.026.055-.013.977-.238 1.195.647-.036.277-.248.057-.391.091.354.188.572.303.05.027.054-.014 1.055-.25 1.356.724.025.404-.222.05-.405.091.37.189.639.326.048.025.054-.012 1.13-.26 1.282.683.002.38-.276.08-.357.102.329.174.575.305.052.027.057-.015 1.119-.303 1.35.704-.008.415-.28.1-.32.113.3.16.655.347.051.027.057-.015 1.248-.323 1.666.87-.026.522-.253.084-.332.111.31.164.794.421.054.03.06-.018 1.252-.376 1.637.802-.057.683-.33.136-.313.129.306.145.962.456.057.027.06-.022 1.801-.665.324-.12-.308-.155-25.163-12.714z" fill="#currentColor" stroke="#F9FBFB" stroke-width=".3"/><path d="M18.87 12.904l-.019.2.197-.038.46-.089.121-.023v-.382l-.179.036-.452.089-.11.021-.01.112-.008.074zm7.99 3.196l.42-.085-.38-.196-1.104-.57-.046-.024-.051.01-15.81 3.077-.323.063.26.203.91.709.055.042.068-.014L26.86 16.1z" fill="#currentColor" stroke="#F9FBFB" stroke-width=".3"/><path d="M47.096 24.863l.312-.127-.302-.147L19.544 11.17l-.04-.02-.044.006-18.122 2.345-.368.048.298.222 25.788 19.17.068.05.078-.032 19.894-8.096zM19.453 11.856L44.7 24.61l-17.494 6.529-23.5-17.124 15.747-2.159z" fill="#currentColor" stroke="#F9FBFB" stroke-width=".3"/><path d="M19.615 12.661l-.18-.066-.02.19-.005.036-.019.177.178-.011.084-.005.02-.133.036.004.003-.035-.034-.003.018-.124-.08-.03zM45.94 27.28l.026-.258-.236.105-.886.394-.08.035-.008.087-.234 2.362-.01.098.086.048.8.445.2.11.022-.226.32-3.2zm-20.728 2.43l.063.045.073-.025 16.956-5.828.349-.12-.333-.158-1.558-.737-.053-.026-.056.018-17.043 5.382-.285.09.243.175 1.644 1.184zM6.533 16.253l.05.036.06-.01 15.23-2.311.125-.02.002-.126.006-.341.004-.178-.176.026-15.68 2.334-.346.051.277.216.004.003h0l.004.003.44.317z" fill="#currentColor" stroke="#F9FBFB" stroke-width=".3"/><path d="M21.842 13.528l.46-.068-.413-.213-1.242-.64-.042-.023-.048.007-15.538 2.24-.365.053.298.217 1.02.743.049.036.06-.009 15.76-2.343zm-10.837 5.599l-.334.068.276.2.394.286.054.039.065-.014L26.9 16.49l.105-.022.013-.106.04-.322.026-.207-.205.042-15.874 3.252zm-2.08-1.15l.052.037.063-.011 15.425-2.78.123-.022v-.125l.002-.266v-.179l-.176.03L8.54 17.384l-.351.06.289.209.447.324z" fill="#currentColor" stroke="#F9FBFB" stroke-width=".3"/><path d="M24.404 14.855l.432-.074-.386-.206-1.107-.59-.045-.024-.05.008-15.7 2.633-.353.059.29.21.932.678.051.037.063-.01 15.873-2.721zm5.246 2.682l.396-.087-.357-.192-1.301-.698-.049-.026-.053.011-16.141 3.413-.33.07.273.198 1.184.862.054.04.066-.015 16.258-3.576z" fill="#currentColor" stroke="#F9FBFB" stroke-width=".3"/><path d="M13.699 21.414l.006.005.008.004.089.05.05.028.055-.013 15.837-3.486.125-.027-.008-.128-.02-.348-.011-.176-.172.038-16.173 3.592-.328.073.273.196.269.192zm1.929 1.391h0l.01.007.01.005.051.031.059-.013 16.837-3.781.398-.09-.361-.19-1.264-.662-.048-.026-.054.013-16.568 3.728-.326.073.27.195.986.71z" fill="#currentColor" stroke="#F9FBFB" stroke-width=".3"/><path d="M15.837 22.647l-.325.073.27.195.542.392.055.04.067-.016L32.63 19.5l.113-.027.002-.116.008-.324.005-.192-.188.042-16.732 3.763zm2.884 2.085l-.306.082.257.185.518.373.058.041.07-.018 16.16-4.41.111-.03v-.715l-.188.05-16.68 4.442z" fill="#currentColor" stroke="#F9FBFB" stroke-width=".3"/><path d="M18.543 24.905l.058.042.068-.018 16.75-4.434.371-.099-.34-.18-1.276-.672-.05-.026-.055.013-16.87 4.102-.316.077.265.19 1.395 1.005zm3.13 2.257l.06.043.07-.021L38.74 22.17l.356-.105-.33-.171-1.571-.818-.053-.027-.056.016-16.907 4.72-.3.083.253.182 1.542 1.111z" fill="#currentColor" stroke="#F9FBFB" stroke-width=".3"/><path d="M21.88 27.012l-.29.087.246.178.589.425.06.044.071-.022 16.264-4.936.1-.03.006-.103.038-.543.015-.216-.208.062-16.89 5.054zm3.536 2.554l-.273.095.234.168.603.435.064.045.073-.025L42.26 24.63l.093-.033.007-.098.045-.619.016-.227-.215.075-16.79 5.838z" fill="#currentColor" stroke="#F9FBFB" stroke-width=".3"/></svg>