<svg width="43" height="15" fill="none" xmlns="http://www.w3.org/2000/svg"><path d="M39.535 8.1h.187a2.28 2.28 0 001.685-.765A2.73 2.73 0 0042.1 5.5v-2a2.73 2.73 0 00-.693-1.835A2.28 2.28 0 0039.722.9H3.278a2.28 2.28 0 00-1.685.765A2.729 2.729 0 00.9 3.5v2c0 .687.248 1.347.693 1.835a2.28 2.28 0 001.685.765h.164v4h4.556v2h3.844v-2h19.293v2h3.845v-2h4.555v-4zm-28.781 4.8H9.13v-.8h1.623v.8zm23.115 0h-1.623v-.8h1.623v.8zm4.555-2H4.576V8.1h33.848v2.8zm2.565-5.4c0 .374-.136.731-.374.993-.239.262-.56.407-.893.407H3.278c-.333 0-.654-.145-.893-.407a1.477 1.477 0 01-.374-.993v-2c0-.374.136-.731.374-.993.239-.262.56-.407.893-.407h36.444c.333 0 .654.145.893.407.238.262.374.619.374.993v2z" fill="#currentColor" stroke="#currentColor" stroke-width=".2"/></svg>