<svg width="86" height="36" fill="none" xmlns="http://www.w3.org/2000/svg"><path d="M4.336 0S0 .975 0 5.897V36s.481-6.064 4.336-6.064H86l-8.328-15.502L86 0H4.336z" fill="#E60023"/><path d="M19.623 11.19V19h-2.145v-3.058H14.86V19h-2.145v-7.81h2.145v2.882h2.618V11.19h2.145zm4.904 7.876a3.757 3.757 0 01-1.617-.341 4.045 4.045 0 01-1.243-.891 4.131 4.131 0 01-.803-1.276 3.936 3.936 0 01-.286-1.474c0-.513.099-1.008.297-1.485.198-.477.473-.895.825-1.254.36-.367.78-.656 1.265-.869a3.885 3.885 0 011.606-.33c.594 0 1.133.114 1.617.341a3.956 3.956 0 012.035 2.178c.19.477.286.964.286 1.463 0 .513-.1 1.008-.297 1.485-.198.47-.473.887-.825 1.254a4.08 4.08 0 01-1.265.869 3.81 3.81 0 01-1.595.33zm-1.771-3.96c0 .264.037.52.11.77a2 2 0 00.33.649c.147.19.33.345.55.462.227.117.495.176.803.176.308 0 .576-.059.803-.176.227-.125.41-.282.55-.473.147-.198.253-.422.319-.671a2.674 2.674 0 000-1.518 1.772 1.772 0 00-.341-.649 1.542 1.542 0 00-.561-.451 1.637 1.637 0 00-.781-.176 1.73 1.73 0 00-.803.176 1.63 1.63 0 00-.55.473c-.147.19-.257.41-.33.66a2.83 2.83 0 00-.1.748zm13.35 1.892c0 .352-.073.656-.22.913a1.8 1.8 0 01-.605.616 2.945 2.945 0 01-.902.363 5.07 5.07 0 01-1.078.11h-3.839v-7.81h4.532c.271 0 .517.059.737.176.22.117.407.271.561.462.154.183.271.396.352.638.088.235.132.477.132.726 0 .367-.095.719-.286 1.056-.183.33-.462.58-.836.748.447.132.8.363 1.056.693.264.323.396.759.396 1.309zm-2.178-.44a.72.72 0 00-.154-.473.48.48 0 00-.396-.198h-1.77v1.309H33.3a.618.618 0 00.44-.165c.125-.11.187-.268.187-.473zm-2.32-3.542v1.199h1.462c.147 0 .279-.04.396-.121.125-.08.187-.242.187-.484 0-.213-.051-.363-.154-.451a.516.516 0 00-.363-.143h-1.529zm7.637 2.64l3.322-4.466h1.562V19h-2.145v-4.334L38.694 19H37.1v-7.81h2.145v4.466zm13.217-4.466V19h-2.145v-3.058h-2.618V19h-2.145v-7.81h2.145v2.882h2.618V11.19h2.145zm3.562 2.981h.165l2.156-2.981h2.42l-2.827 3.773L61.018 19H58.63l-2.255-2.882h-.352V19H53.89v-7.81h2.134v2.981zm7.44-2.981h1.959L68.129 19H65.95l-.473-1.529h-2.08L62.936 19h-2.188l2.717-7.81zm1.672 4.851l-.692-2.42-.727 2.42h1.42z" fill="#fff"/></svg>