<svg width="10" height="14" fill="none" xmlns="http://www.w3.org/2000/svg"><path d="M4.311 9.861c-1.085-.113-2.064-.38-2.902-1.036-.104-.081-.21-.16-.306-.25C.736 8.221.7 7.818.99 7.402c.248-.356.665-.45 1.098-.247.084.04.164.09.24.142C3.89 8.37 6.035 8.4 7.602 7.346a1.43 1.43 0 01.513-.266.806.806 0 01.924.369c.23.373.226.738-.056 1.028a4.26 4.26 0 01-1.534.992c-.548.212-1.147.319-1.741.39.09.097.132.145.188.202.806.81 1.615 1.616 2.419 2.429.274.276.33.62.18.942-.165.352-.534.583-.895.558-.23-.015-.408-.13-.567-.29-.608-.612-1.228-1.213-1.824-1.836-.174-.182-.257-.147-.41.01-.612.63-1.234 1.25-1.86 1.867-.28.277-.615.327-.94.169-.347-.168-.568-.521-.55-.877.011-.24.13-.424.294-.588.798-.797 1.594-1.596 2.39-2.393.052-.054.101-.11.178-.192z" fill="#3B7B3C"/><path d="M4.973 7.086C3.036 7.08 1.449 5.474 1.46 3.536A3.549 3.549 0 015.015 0c1.96.005 3.532 1.608 3.522 3.589-.01 1.935-1.609 3.504-3.564 3.497zm1.76-3.546A1.726 1.726 0 005 1.81a1.728 1.728 0 00-1.735 1.75c.007.96.78 1.721 1.744 1.718A1.722 1.722 0 006.732 3.54z" fill="#3B7B3C"/></svg>