<svg width="68" height="67" fill="none" xmlns="http://www.w3.org/2000/svg"><g filter="url(#filter0_d)"><ellipse cx="34" cy="33.5" rx="26" ry="25.5" fill="#3B7B3C"/></g><path d="M35.361 25.15l-7.206 7.004A.469.469 0 0028 32.5c0 .13.052.245.155.346l7.206 7.004a.495.495 0 00.711 0l.773-.752a.47.47 0 00.155-.345.469.469 0 00-.155-.346L30.768 32.5l6.078-5.907a.468.468 0 00.154-.346.47.47 0 00-.154-.346l-.774-.751a.495.495 0 00-.711 0z" fill="#fff"/><defs><filter id="filter0_d" x="0" y="0" width="68" height="67" filterUnits="userSpaceOnUse" color-interpolation-filters="sRGB"><feFlood flood-opacity="0" result="BackgroundImageFix"/><feColorMatrix in="SourceAlpha" values="0 0 0 0 0 0 0 0 0 0 0 0 0 0 0 0 0 0 127 0"/><feOffset/><feGaussianBlur stdDeviation="4"/><feColorMatrix values="0 0 0 0 0 0 0 0 0 0 0 0 0 0 0 0 0 0 0.15 0"/><feBlend in2="BackgroundImageFix" result="effect1_dropShadow"/><feBlend in="SourceGraphic" in2="effect1_dropShadow" result="shape"/></filter></defs></svg>