<svg width="20" height="20" fill="none" xmlns="http://www.w3.org/2000/svg"><path d="M7.952 13.477l2.762-8.286a.586.586 0 00-1.112-.371L6.84 13.106a.586.586 0 001.112.371zm4.138-2.571a1.76 1.76 0 001.76-1.756 1.76 1.76 0 00-1.76-1.76 1.76 1.76 0 00-1.758 1.758 1.76 1.76 0 001.758 1.758zm0-2.343a.587.587 0 110 1.173.587.587 0 010-1.173zM5.462 7.39a1.76 1.76 0 00-1.758 1.76 1.76 1.76 0 001.758 1.758 1.76 1.76 0 001.758-1.76A1.76 1.76 0 005.462 7.39zm0 2.345a.587.587 0 11.001-1.174.587.587 0 01-.001 1.174z" fill="#7EB325"/><path d="M19.883 7.266L17.84 4.54l.08-.558a.586.586 0 00-.166-.497L16.51 2.243 17.753 1a.586.586 0 10-.828-.828l-1.243 1.243L14.439.172a.587.587 0 00-.497-.166l-5.8.828A.586.586 0 007.81 1L.628 8.182a2.15 2.15 0 000 3.038l6.077 6.077c.124.124.26.23.404.317v.238A2.15 2.15 0 009.258 20h8.594A2.15 2.15 0 0020 17.852V7.617a.586.586 0 00-.117-.351zM1.457 10.392a.98.98 0 010-1.382L8.5 1.967l5.318-.76 1.035 1.036-.828.829-.415-.414a.586.586 0 00-.828.828l1.657 1.657a.584.584 0 00.829 0 .586.586 0 000-.828l-.415-.415.829-.828 1.036 1.036-.76 5.317-7.043 7.043a.97.97 0 01-.69.286.97.97 0 01-.691-.286l-6.077-6.076zm17.371 7.46a.978.978 0 01-.976.976H9.258a.978.978 0 01-.974-.904 2.14 2.14 0 001.46-.627l7.18-7.182a.586.586 0 00.167-.331l.514-3.602 1.223 1.63v10.04z" fill="#7EB325"/></svg>