<svg width="16" height="16" fill="none" xmlns="http://www.w3.org/2000/svg"><path d="M10.594 11.561l.07-.07 1.423 1.423.079.079-.087.07a6.472 6.472 0 01-3.777 1.434l-.104.005v-2.15a.198.198 0 10-.396 0v2.15l-.105-.005a6.472 6.472 0 01-3.777-1.435l-.086-.07.078-.078 1.423-1.423a.198.198 0 00-.28-.28h0L3.8 12.468h0l-.004.003h0l-.188.188-.07.07-.07-.069a6.486 6.486 0 01-1.964-4.358l-.005-.104h2.149a.198.198 0 100-.396h-2.15l.005-.105a6.472 6.472 0 011.434-3.776l.07-.087.079.079 1.422 1.422h0a.198.198 0 10.28-.28h0L3.34 3.608l-.07-.07.07-.07a6.487 6.487 0 014.357-1.965l.105-.005v2.149a.198.198 0 10.396 0V1.498l.104.005a6.486 6.486 0 014.358 1.964l.07.07-.07.07-1.45 1.448-.616 6.506zm0 0l.07-.07a.198.198 0 11.28-.28h0l1.448 1.448.07.07.07-.069a6.486 6.486 0 001.965-4.358l.005-.104h-2.15a.198.198 0 010-.396h2.15l-.005-.105a6.473 6.473 0 00-1.434-3.776l-.07-.087-.079.079-1.424 1.422m-.896 6.226l.896-6.226m0 0s0 0 0 0h0zM8.218 8.768h0l2.638-2.591-2.638 2.591zm0 0a.197.197 0 01-.276.001h0m.276 0h-.276m0 0L6.249 7.131h0m1.693 1.638L6.249 7.131m0 0a.198.198 0 01.276-.284l1.483 1.436.07.068M6.25 7.13l1.83 1.22m0 0l.069-.069m-.07.069l.07-.069m0 0l2.43-2.388h.001M8.148 8.282l2.431-2.388m0 0a.198.198 0 01.28.003m-.28-.003l.28.003m0 0l.071-.07m-.071.07l.071-.07m0 0l-.071.07a.198.198 0 01-.003.28l.074-.35z" stroke="#fff" stroke-width=".2"/><path d="M11.07 5.477h0a.398.398 0 010-.563h0l1.378-1.377a6.286 6.286 0 00-4.05-1.829v1.94a.398.398 0 11-.796 0v-1.94a6.285 6.285 0 00-4.05 1.829L4.93 4.914h0l-.071.07a.298.298 0 11-.421.422l6.631.07zm0 0a.398.398 0 00.562 0h0m-.563 0h.563m0 0l1.344-1.343m-1.344 1.343l1.344-1.343M8 .9h0c3.915 0 7.1 3.185 7.1 7.1a7.083 7.083 0 01-2.362 5.287L8 .9zm0 0h0a7.083 7.083 0 00-5.264 2.34M8 .9L2.736 3.24m0 0a.405.405 0 00-.07.08A7.07 7.07 0 00.9 8v0a7.084 7.084 0 002.36 5.286l.071-.071-.07.07a.402.402 0 00.056.048A7.073 7.073 0 008 15.1a7.07 7.07 0 004.682-1.767L2.736 3.24zm10.24.894a6.27 6.27 0 011.316 3.468h-1.94a.398.398 0 000 .796h1.94a6.285 6.285 0 01-1.828 4.05l-1.378-1.378s0 0 0 0a.398.398 0 00-.563.562l1.344 1.344a6.27 6.27 0 01-3.47 1.316v-1.94a.398.398 0 00-.795 0v1.94a6.27 6.27 0 01-3.469-1.316l1.344-1.343a.398.398 0 10-.563-.563s0 0 0 0l-1.256 1.256h0l9.318-8.192zm-9.952 0l1.343 1.343-.71 6.85h0l-.005.004-.116.117a6.284 6.284 0 01-1.828-4.05h1.939a.398.398 0 000-.796H1.708a6.27 6.27 0 011.316-3.468z" fill="#fff" stroke="#fff" stroke-width=".2"/><path d="M6.101 6.712h0a.398.398 0 01.563-.009l1.413 1.369 2.361-2.32s0 0 0 0h0l.07.071-4.407.889zm0 0h0a.398.398 0 00.009.563s0 0 0 0l1.692 1.638M6.101 6.712l1.701 2.201m0 0s0 0 0 0h0z" fill="#fff" stroke="#fff" stroke-width=".2"/></svg>