<svg width="14" height="10" fill="none" xmlns="http://www.w3.org/2000/svg"><path d="M11.617 5.6c-.226-.286-.162-.413 0-.669.003-.003 1.871-2.585 2.064-3.46h.001c.096-.32 0-.554-.463-.554h-1.53c-.39 0-.57.201-.666.426 0 0-.78 1.866-1.882 3.075-.355.35-.52.461-.714.461-.096 0-.245-.112-.245-.43V1.47c0-.382-.109-.553-.431-.553H5.344c-.245 0-.39.178-.39.344 0 .363.551.447.609 1.468v2.214c0 .486-.088.575-.284.575-.52 0-1.783-1.873-2.531-4.017-.152-.416-.3-.584-.692-.584H.525C.088.917 0 1.12 0 1.344c0 .398.52 2.376 2.42 4.989 1.266 1.784 3.048 2.75 4.67 2.75.975 0 1.094-.214 1.094-.584 0-1.704-.088-1.865.4-1.865.226 0 .616.112 1.526.972 1.04 1.02 1.21 1.477 1.793 1.477h1.53c.437 0 .658-.214.53-.638-.29-.89-2.257-2.723-2.346-2.845z" fill="#3B7B3C"/></svg>