<svg width="181" height="59" viewBox="0 0 181 59" fill="none" xmlns="http://www.w3.org/2000/svg">
<path d="M10.092 14.94H16.308V22.32C15.412 22.976 14.456 23.452 13.44 23.748C12.432 24.044 11.376 24.192 10.272 24.192C8.832 24.192 7.52 23.968 6.336 23.52C5.16 23.064 4.152 22.44 3.312 21.648C2.472 20.848 1.824 19.904 1.368 18.816C0.912 17.72 0.684 16.532 0.684 15.252C0.684 13.948 0.9 12.752 1.332 11.664C1.764 10.568 2.38 9.624 3.18 8.832C3.988 8.04 4.96 7.424 6.096 6.984C7.24 6.544 8.516 6.324 9.924 6.324C10.652 6.324 11.336 6.384 11.976 6.504C12.616 6.624 13.204 6.788 13.74 6.996C14.284 7.204 14.78 7.452 15.228 7.74C15.676 8.028 16.076 8.34 16.428 8.676L15.252 10.464C15.068 10.744 14.828 10.916 14.532 10.98C14.244 11.044 13.932 10.972 13.596 10.764C13.276 10.572 12.972 10.408 12.684 10.272C12.404 10.128 12.116 10.012 11.82 9.924C11.524 9.836 11.212 9.772 10.884 9.732C10.556 9.692 10.188 9.672 9.78 9.672C9.02 9.672 8.336 9.808 7.728 10.08C7.12 10.344 6.6 10.72 6.168 11.208C5.744 11.696 5.416 12.284 5.184 12.972C4.952 13.652 4.836 14.412 4.836 15.252C4.836 16.18 4.964 17.004 5.22 17.724C5.476 18.444 5.836 19.052 6.3 19.548C6.772 20.044 7.332 20.424 7.98 20.688C8.636 20.944 9.36 21.072 10.152 21.072C10.64 21.072 11.08 21.024 11.472 20.928C11.872 20.832 12.26 20.704 12.636 20.544V17.892H10.908C10.652 17.892 10.452 17.824 10.308 17.688C10.164 17.552 10.092 17.38 10.092 17.172V14.94ZM36.1958 15.252C36.1958 16.516 35.9758 17.692 35.5358 18.78C35.1038 19.868 34.4918 20.816 33.6998 21.624C32.9078 22.424 31.9518 23.052 30.8318 23.508C29.7198 23.964 28.4838 24.192 27.1238 24.192C25.7638 24.192 24.5238 23.964 23.4037 23.508C22.2838 23.052 21.3238 22.424 20.5238 21.624C19.7318 20.816 19.1158 19.868 18.6758 18.78C18.2438 17.692 18.0278 16.516 18.0278 15.252C18.0278 13.988 18.2438 12.812 18.6758 11.724C19.1158 10.636 19.7318 9.692 20.5238 8.892C21.3238 8.092 22.2838 7.464 23.4037 7.008C24.5238 6.552 25.7638 6.324 27.1238 6.324C28.4838 6.324 29.7198 6.556 30.8318 7.02C31.9518 7.476 32.9078 8.104 33.6998 8.904C34.4918 9.704 35.1038 10.648 35.5358 11.736C35.9758 12.824 36.1958 13.996 36.1958 15.252ZM32.0438 15.252C32.0438 14.388 31.9318 13.612 31.7078 12.924C31.4838 12.228 31.1598 11.64 30.7358 11.16C30.3198 10.68 29.8078 10.312 29.1998 10.056C28.5918 9.8 27.8998 9.672 27.1238 9.672C26.3398 9.672 25.6398 9.8 25.0238 10.056C24.4158 10.312 23.8998 10.68 23.4758 11.16C23.0598 11.64 22.7398 12.228 22.5158 12.924C22.2918 13.612 22.1798 14.388 22.1798 15.252C22.1798 16.124 22.2918 16.908 22.5158 17.604C22.7398 18.292 23.0598 18.876 23.4758 19.356C23.8998 19.836 24.4158 20.204 25.0238 20.46C25.6398 20.708 26.3398 20.832 27.1238 20.832C27.8998 20.832 28.5918 20.708 29.1998 20.46C29.8078 20.204 30.3198 19.836 30.7358 19.356C31.1598 18.876 31.4838 18.292 31.7078 17.604C31.9318 16.908 32.0438 16.124 32.0438 15.252ZM48.2426 10.068C48.1226 10.26 47.9946 10.404 47.8586 10.5C47.7306 10.596 47.5626 10.644 47.3546 10.644C47.1706 10.644 46.9706 10.588 46.7546 10.476C46.5466 10.356 46.3066 10.224 46.0346 10.08C45.7706 9.936 45.4666 9.808 45.1226 9.696C44.7786 9.576 44.3866 9.516 43.9466 9.516C43.1866 9.516 42.6186 9.68 42.2426 10.008C41.8746 10.328 41.6906 10.764 41.6906 11.316C41.6906 11.668 41.8026 11.96 42.0266 12.192C42.2506 12.424 42.5426 12.624 42.9026 12.792C43.2706 12.96 43.6866 13.116 44.1506 13.26C44.6226 13.396 45.1026 13.552 45.5906 13.728C46.0786 13.896 46.5546 14.096 47.0186 14.328C47.4906 14.56 47.9066 14.856 48.2666 15.216C48.6346 15.576 48.9306 16.016 49.1546 16.536C49.3786 17.048 49.4906 17.668 49.4906 18.396C49.4906 19.204 49.3506 19.96 49.0706 20.664C48.7906 21.368 48.3826 21.984 47.8466 22.512C47.3186 23.032 46.6626 23.444 45.8786 23.748C45.1026 24.044 44.2186 24.192 43.2266 24.192C42.6826 24.192 42.1266 24.136 41.5586 24.024C40.9986 23.912 40.4546 23.756 39.9266 23.556C39.3986 23.348 38.9026 23.104 38.4386 22.824C37.9746 22.544 37.5706 22.232 37.2266 21.888L38.4266 19.992C38.5226 19.856 38.6466 19.744 38.7986 19.656C38.9586 19.56 39.1306 19.512 39.3146 19.512C39.5546 19.512 39.7946 19.588 40.0346 19.74C40.2826 19.892 40.5586 20.06 40.8626 20.244C41.1746 20.428 41.5306 20.596 41.9306 20.748C42.3306 20.9 42.8026 20.976 43.3466 20.976C44.0826 20.976 44.6546 20.816 45.0626 20.496C45.4706 20.168 45.6746 19.652 45.6746 18.948C45.6746 18.54 45.5626 18.208 45.3386 17.952C45.1146 17.696 44.8186 17.484 44.4506 17.316C44.0906 17.148 43.6786 17 43.2146 16.872C42.7506 16.744 42.2746 16.604 41.7866 16.452C41.2986 16.292 40.8226 16.1 40.3586 15.876C39.8946 15.644 39.4786 15.344 39.1106 14.976C38.7506 14.6 38.4586 14.136 38.2346 13.584C38.0106 13.024 37.8986 12.336 37.8986 11.52C37.8986 10.864 38.0306 10.224 38.2946 9.6C38.5586 8.976 38.9466 8.42 39.4586 7.932C39.9706 7.444 40.5986 7.056 41.3426 6.768C42.0866 6.472 42.9386 6.324 43.8986 6.324C44.4346 6.324 44.9546 6.368 45.4586 6.456C45.9706 6.536 46.4546 6.66 46.9106 6.828C47.3666 6.988 47.7906 7.184 48.1826 7.416C48.5826 7.64 48.9386 7.896 49.2506 8.184L48.2426 10.068ZM64.4357 9.732H59.5157V24H55.4597V9.732H50.5397V6.516H64.4357V9.732ZM83.2583 15.252C83.2583 16.516 83.0383 17.692 82.5983 18.78C82.1663 19.868 81.5543 20.816 80.7623 21.624C79.9703 22.424 79.0143 23.052 77.8943 23.508C76.7823 23.964 75.5463 24.192 74.1863 24.192C72.8263 24.192 71.5863 23.964 70.4662 23.508C69.3463 23.052 68.3863 22.424 67.5863 21.624C66.7943 20.816 66.1783 19.868 65.7383 18.78C65.3063 17.692 65.0903 16.516 65.0903 15.252C65.0903 13.988 65.3063 12.812 65.7383 11.724C66.1783 10.636 66.7943 9.692 67.5863 8.892C68.3863 8.092 69.3463 7.464 70.4662 7.008C71.5863 6.552 72.8263 6.324 74.1863 6.324C75.5463 6.324 76.7823 6.556 77.8943 7.02C79.0143 7.476 79.9703 8.104 80.7623 8.904C81.5543 9.704 82.1663 10.648 82.5983 11.736C83.0383 12.824 83.2583 13.996 83.2583 15.252ZM79.1063 15.252C79.1063 14.388 78.9943 13.612 78.7703 12.924C78.5463 12.228 78.2223 11.64 77.7983 11.16C77.3823 10.68 76.8703 10.312 76.2623 10.056C75.6543 9.8 74.9623 9.672 74.1863 9.672C73.4023 9.672 72.7023 9.8 72.0863 10.056C71.4783 10.312 70.9623 10.68 70.5383 11.16C70.1223 11.64 69.8023 12.228 69.5783 12.924C69.3543 13.612 69.2423 14.388 69.2423 15.252C69.2423 16.124 69.3543 16.908 69.5783 17.604C69.8023 18.292 70.1223 18.876 70.5383 19.356C70.9623 19.836 71.4783 20.204 72.0863 20.46C72.7023 20.708 73.4023 20.832 74.1863 20.832C74.9623 20.832 75.6543 20.708 76.2623 20.46C76.8703 20.204 77.3823 19.836 77.7983 19.356C78.2223 18.876 78.5463 18.292 78.7703 17.604C78.9943 16.908 79.1063 16.124 79.1063 15.252ZM95.3051 10.068C95.1851 10.26 95.0571 10.404 94.9211 10.5C94.7931 10.596 94.6251 10.644 94.4171 10.644C94.2331 10.644 94.0331 10.588 93.8171 10.476C93.6091 10.356 93.3691 10.224 93.0971 10.08C92.8331 9.936 92.5291 9.808 92.1851 9.696C91.8411 9.576 91.4491 9.516 91.0091 9.516C90.2491 9.516 89.6811 9.68 89.3051 10.008C88.9371 10.328 88.7531 10.764 88.7531 11.316C88.7531 11.668 88.8651 11.96 89.0891 12.192C89.3131 12.424 89.6051 12.624 89.9651 12.792C90.3331 12.96 90.7491 13.116 91.2131 13.26C91.6851 13.396 92.1651 13.552 92.6531 13.728C93.1411 13.896 93.6171 14.096 94.0811 14.328C94.5531 14.56 94.9691 14.856 95.3291 15.216C95.6971 15.576 95.9931 16.016 96.2171 16.536C96.4411 17.048 96.5531 17.668 96.5531 18.396C96.5531 19.204 96.4131 19.96 96.1331 20.664C95.8531 21.368 95.4451 21.984 94.9091 22.512C94.3811 23.032 93.7251 23.444 92.9411 23.748C92.1651 24.044 91.2811 24.192 90.2891 24.192C89.7451 24.192 89.1891 24.136 88.6211 24.024C88.0611 23.912 87.5171 23.756 86.9891 23.556C86.4611 23.348 85.9651 23.104 85.5011 22.824C85.0371 22.544 84.6331 22.232 84.2891 21.888L85.4891 19.992C85.5851 19.856 85.7091 19.744 85.8611 19.656C86.0211 19.56 86.1931 19.512 86.3771 19.512C86.6171 19.512 86.8571 19.588 87.0971 19.74C87.3451 19.892 87.6211 20.06 87.9251 20.244C88.2371 20.428 88.5931 20.596 88.9931 20.748C89.3931 20.9 89.8651 20.976 90.4091 20.976C91.1451 20.976 91.7171 20.816 92.1251 20.496C92.5331 20.168 92.7371 19.652 92.7371 18.948C92.7371 18.54 92.6251 18.208 92.4011 17.952C92.1771 17.696 91.8811 17.484 91.5131 17.316C91.1531 17.148 90.7411 17 90.2771 16.872C89.8131 16.744 89.3371 16.604 88.8491 16.452C88.3611 16.292 87.8851 16.1 87.4211 15.876C86.9571 15.644 86.5411 15.344 86.1731 14.976C85.8131 14.6 85.5211 14.136 85.2971 13.584C85.0731 13.024 84.9611 12.336 84.9611 11.52C84.9611 10.864 85.0931 10.224 85.3571 9.6C85.6211 8.976 86.0091 8.42 86.5211 7.932C87.0331 7.444 87.6611 7.056 88.4051 6.768C89.1491 6.472 90.0011 6.324 90.9611 6.324C91.4971 6.324 92.0171 6.368 92.5211 6.456C93.0331 6.536 93.5171 6.66 93.9731 6.828C94.4291 6.988 94.8531 7.184 95.2451 7.416C95.6451 7.64 96.0011 7.896 96.3131 8.184L95.3051 10.068ZM111.498 9.732H106.578V24H102.522V9.732H97.6022V6.516H111.498V9.732ZM111.123 22.116C111.123 21.828 111.175 21.56 111.279 21.312C111.391 21.064 111.539 20.848 111.723 20.664C111.915 20.48 112.139 20.336 112.395 20.232C112.651 20.12 112.931 20.064 113.235 20.064C113.531 20.064 113.807 20.12 114.063 20.232C114.319 20.336 114.543 20.48 114.735 20.664C114.927 20.848 115.075 21.064 115.179 21.312C115.291 21.56 115.347 21.828 115.347 22.116C115.347 22.404 115.291 22.676 115.179 22.932C115.075 23.18 114.927 23.396 114.735 23.58C114.543 23.764 114.319 23.908 114.063 24.012C113.807 24.116 113.531 24.168 113.235 24.168C112.931 24.168 112.651 24.116 112.395 24.012C112.139 23.908 111.915 23.764 111.723 23.58C111.539 23.396 111.391 23.18 111.279 22.932C111.175 22.676 111.123 22.404 111.123 22.116ZM123.489 14.736C124.041 14.736 124.509 14.668 124.893 14.532C125.285 14.388 125.605 14.192 125.853 13.944C126.101 13.696 126.281 13.408 126.393 13.08C126.505 12.744 126.561 12.384 126.561 12C126.561 11.232 126.309 10.632 125.805 10.2C125.309 9.768 124.537 9.552 123.489 9.552H121.857V14.736H123.489ZM132.105 24H128.433C127.753 24 127.265 23.744 126.969 23.232L124.065 18.156C123.929 17.94 123.777 17.784 123.609 17.688C123.441 17.584 123.201 17.532 122.889 17.532H121.857V24H117.801V6.516H123.489C124.753 6.516 125.829 6.648 126.717 6.912C127.613 7.168 128.341 7.528 128.901 7.992C129.469 8.456 129.881 9.004 130.137 9.636C130.393 10.268 130.521 10.956 130.521 11.7C130.521 12.268 130.445 12.804 130.293 13.308C130.141 13.812 129.917 14.28 129.621 14.712C129.325 15.136 128.957 15.516 128.517 15.852C128.085 16.188 127.585 16.464 127.017 16.68C127.281 16.816 127.529 16.988 127.761 17.196C127.993 17.396 128.201 17.636 128.385 17.916L132.105 24ZM140.683 20.796C141.227 20.796 141.711 20.708 142.135 20.532C142.567 20.348 142.931 20.088 143.227 19.752C143.523 19.416 143.747 19.008 143.899 18.528C144.059 18.04 144.139 17.488 144.139 16.872V6.516H148.195V16.872C148.195 17.944 148.019 18.928 147.667 19.824C147.323 20.72 146.827 21.492 146.179 22.14C145.531 22.788 144.743 23.292 143.815 23.652C142.887 24.012 141.843 24.192 140.683 24.192C139.515 24.192 138.467 24.012 137.539 23.652C136.611 23.292 135.823 22.788 135.175 22.14C134.527 21.492 134.031 20.72 133.687 19.824C133.343 18.928 133.171 17.944 133.171 16.872V6.516H137.227V16.86C137.227 17.476 137.303 18.028 137.455 18.516C137.615 18.996 137.843 19.408 138.139 19.752C138.435 20.088 138.795 20.348 139.219 20.532C139.651 20.708 140.139 20.796 140.683 20.796Z" fill="#151515"/>
<path d="M3.942 40.986C4.266 40.986 4.542 40.95 4.77 40.878C4.998 40.806 5.184 40.706 5.328 40.578C5.472 40.446 5.576 40.29 5.64 40.11C5.708 39.93 5.742 39.732 5.742 39.516C5.742 39.288 5.708 39.084 5.64 38.904C5.576 38.724 5.472 38.572 5.328 38.448C5.188 38.324 5.004 38.23 4.776 38.166C4.548 38.098 4.272 38.064 3.948 38.064H2.34V40.986H3.942ZM3.948 37.05C4.48 37.05 4.938 37.11 5.322 37.23C5.706 37.346 6.022 37.508 6.27 37.716C6.522 37.924 6.706 38.172 6.822 38.46C6.942 38.744 7.002 39.054 7.002 39.39C7.002 39.786 6.934 40.146 6.798 40.47C6.662 40.79 6.462 41.064 6.198 41.292C5.938 41.52 5.618 41.696 5.238 41.82C4.858 41.94 4.426 42 3.942 42H1.062V33.384H6.702V34.386H2.34V37.05H3.948ZM12.3014 38.274C12.3014 38.042 12.2674 37.828 12.1994 37.632C12.1354 37.436 12.0394 37.266 11.9114 37.122C11.7834 36.978 11.6274 36.866 11.4434 36.786C11.2594 36.706 11.0474 36.666 10.8074 36.666C10.3154 36.666 9.92741 36.808 9.64341 37.092C9.36341 37.376 9.18541 37.77 9.10941 38.274H12.3014ZM13.2674 41.13C13.1234 41.298 12.9574 41.444 12.7694 41.568C12.5814 41.688 12.3814 41.786 12.1694 41.862C11.9574 41.938 11.7374 41.994 11.5094 42.03C11.2854 42.066 11.0634 42.084 10.8434 42.084C10.4234 42.084 10.0334 42.014 9.67341 41.874C9.31741 41.73 9.00741 41.522 8.74341 41.25C8.48341 40.974 8.27941 40.634 8.13141 40.23C7.98741 39.822 7.91541 39.354 7.91541 38.826C7.91541 38.402 7.98141 38.008 8.11341 37.644C8.24541 37.276 8.43341 36.956 8.67741 36.684C8.92541 36.412 9.22741 36.198 9.58341 36.042C9.93941 35.886 10.3394 35.808 10.7834 35.808C11.1554 35.808 11.4974 35.87 11.8094 35.994C12.1254 36.114 12.3974 36.29 12.6254 36.522C12.8534 36.754 13.0314 37.04 13.1594 37.38C13.2914 37.72 13.3574 38.108 13.3574 38.544C13.3574 38.724 13.3374 38.846 13.2974 38.91C13.2574 38.97 13.1834 39 13.0754 39H9.07941C9.09141 39.364 9.14341 39.682 9.23541 39.954C9.32741 40.222 9.45341 40.446 9.61341 40.626C9.77741 40.806 9.97141 40.94 10.1954 41.028C10.4194 41.116 10.6694 41.16 10.9454 41.16C11.2054 41.16 11.4294 41.13 11.6174 41.07C11.8094 41.01 11.9734 40.946 12.1094 40.878C12.2494 40.806 12.3654 40.74 12.4574 40.68C12.5534 40.62 12.6374 40.59 12.7094 40.59C12.8054 40.59 12.8794 40.626 12.9314 40.698L13.2674 41.13ZM18.887 37.044C18.851 37.088 18.815 37.124 18.779 37.152C18.747 37.176 18.699 37.188 18.635 37.188C18.571 37.188 18.503 37.164 18.431 37.116C18.363 37.064 18.275 37.01 18.167 36.954C18.063 36.894 17.935 36.84 17.783 36.792C17.635 36.74 17.451 36.714 17.231 36.714C16.943 36.714 16.689 36.766 16.469 36.87C16.249 36.974 16.065 37.122 15.917 37.314C15.773 37.506 15.663 37.74 15.587 38.016C15.511 38.292 15.473 38.602 15.473 38.946C15.473 39.302 15.513 39.62 15.593 39.9C15.673 40.176 15.787 40.41 15.935 40.602C16.083 40.79 16.263 40.934 16.475 41.034C16.687 41.13 16.923 41.178 17.183 41.178C17.435 41.178 17.643 41.148 17.807 41.088C17.971 41.024 18.107 40.956 18.215 40.884C18.323 40.812 18.413 40.746 18.485 40.686C18.557 40.622 18.631 40.59 18.707 40.59C18.803 40.59 18.877 40.626 18.929 40.698L19.265 41.13C19.125 41.302 18.967 41.448 18.791 41.568C18.619 41.688 18.435 41.786 18.239 41.862C18.043 41.938 17.837 41.994 17.621 42.03C17.409 42.066 17.193 42.084 16.973 42.084C16.593 42.084 16.237 42.014 15.905 41.874C15.577 41.734 15.291 41.53 15.047 41.262C14.807 40.994 14.617 40.666 14.477 40.278C14.337 39.886 14.267 39.442 14.267 38.946C14.267 38.494 14.329 38.076 14.453 37.692C14.581 37.308 14.767 36.978 15.011 36.702C15.259 36.422 15.563 36.204 15.923 36.048C16.283 35.888 16.695 35.808 17.159 35.808C17.595 35.808 17.979 35.878 18.311 36.018C18.643 36.158 18.939 36.356 19.199 36.612L18.887 37.044ZM25.4932 42H24.3172V36.792H21.5272V42H20.3572V35.904H25.4932V42ZM32.5486 42H31.3786V36.822H29.5606C29.5126 37.59 29.4406 38.254 29.3446 38.814C29.2486 39.37 29.1326 39.844 28.9966 40.236C28.8606 40.624 28.7086 40.94 28.5406 41.184C28.3766 41.424 28.2006 41.612 28.0126 41.748C27.8286 41.88 27.6386 41.968 27.4426 42.012C27.2466 42.06 27.0506 42.084 26.8546 42.084C26.4906 42.084 26.3086 42.024 26.3086 41.904V41.166H26.6326C26.7686 41.166 26.9046 41.144 27.0406 41.1C27.1806 41.052 27.3166 40.962 27.4486 40.83C27.5846 40.694 27.7126 40.506 27.8326 40.266C27.9526 40.026 28.0626 39.712 28.1626 39.324C28.2626 38.932 28.3486 38.456 28.4206 37.896C28.4926 37.336 28.5486 36.672 28.5886 35.904H32.5486V42ZM37.473 39.294C36.997 39.31 36.593 39.348 36.261 39.408C35.929 39.464 35.659 39.54 35.451 39.636C35.243 39.732 35.093 39.846 35.001 39.978C34.909 40.106 34.863 40.25 34.863 40.41C34.863 40.562 34.887 40.694 34.935 40.806C34.987 40.914 35.055 41.004 35.139 41.076C35.227 41.144 35.329 41.194 35.445 41.226C35.561 41.258 35.687 41.274 35.823 41.274C36.003 41.274 36.167 41.256 36.315 41.22C36.467 41.184 36.609 41.134 36.741 41.07C36.873 41.002 36.999 40.92 37.119 40.824C37.239 40.728 37.357 40.618 37.473 40.494V39.294ZM34.041 36.756C34.381 36.432 34.749 36.19 35.145 36.03C35.545 35.87 35.983 35.79 36.459 35.79C36.807 35.79 37.115 35.848 37.383 35.964C37.651 36.076 37.877 36.234 38.061 36.438C38.245 36.642 38.383 36.886 38.475 37.17C38.571 37.454 38.619 37.768 38.619 38.112V42H38.097C37.981 42 37.893 41.982 37.833 41.946C37.773 41.906 37.725 41.834 37.689 41.73L37.563 41.196C37.407 41.34 37.253 41.468 37.101 41.58C36.949 41.688 36.789 41.782 36.621 41.862C36.457 41.938 36.281 41.996 36.093 42.036C35.905 42.076 35.697 42.096 35.469 42.096C35.229 42.096 35.003 42.064 34.791 42C34.583 41.932 34.401 41.83 34.245 41.694C34.089 41.558 33.965 41.388 33.873 41.184C33.785 40.98 33.741 40.742 33.741 40.47C33.741 40.23 33.805 40 33.933 39.78C34.065 39.556 34.277 39.356 34.569 39.18C34.865 39.004 35.249 38.86 35.721 38.748C36.197 38.636 36.781 38.572 37.473 38.556V38.112C37.473 37.652 37.375 37.308 37.179 37.08C36.983 36.852 36.695 36.738 36.315 36.738C36.059 36.738 35.843 36.77 35.667 36.834C35.495 36.898 35.345 36.97 35.217 37.05C35.093 37.126 34.983 37.196 34.887 37.26C34.795 37.324 34.699 37.356 34.599 37.356C34.519 37.356 34.449 37.334 34.389 37.29C34.333 37.246 34.287 37.194 34.251 37.134L34.041 36.756ZM45.1507 36.792H42.8527V42H41.6767V36.792H39.3787V35.904H45.1507V36.792ZM51.2627 35.904V42H50.0867V39.192H47.2967V42H46.1267V35.904H47.2967V38.304H50.0867V35.904H51.2627ZM56.1761 39.294C55.7001 39.31 55.2961 39.348 54.9641 39.408C54.6321 39.464 54.3621 39.54 54.1541 39.636C53.9461 39.732 53.7961 39.846 53.7041 39.978C53.6121 40.106 53.5661 40.25 53.5661 40.41C53.5661 40.562 53.5901 40.694 53.6381 40.806C53.6901 40.914 53.7581 41.004 53.8421 41.076C53.9301 41.144 54.0321 41.194 54.1481 41.226C54.2641 41.258 54.3901 41.274 54.5261 41.274C54.7061 41.274 54.8701 41.256 55.0181 41.22C55.1701 41.184 55.3121 41.134 55.4441 41.07C55.5761 41.002 55.7021 40.92 55.8221 40.824C55.9421 40.728 56.0601 40.618 56.1761 40.494V39.294ZM52.7441 36.756C53.0841 36.432 53.4521 36.19 53.8481 36.03C54.2481 35.87 54.6861 35.79 55.1621 35.79C55.5101 35.79 55.8181 35.848 56.0861 35.964C56.3541 36.076 56.5801 36.234 56.7641 36.438C56.9481 36.642 57.0861 36.886 57.1781 37.17C57.2741 37.454 57.3221 37.768 57.3221 38.112V42H56.8001C56.6841 42 56.5961 41.982 56.5361 41.946C56.4761 41.906 56.4281 41.834 56.3921 41.73L56.2661 41.196C56.1101 41.34 55.9561 41.468 55.8041 41.58C55.6521 41.688 55.4921 41.782 55.3241 41.862C55.1601 41.938 54.9841 41.996 54.7961 42.036C54.6081 42.076 54.4001 42.096 54.1721 42.096C53.9321 42.096 53.7061 42.064 53.4941 42C53.2861 41.932 53.1041 41.83 52.9481 41.694C52.7921 41.558 52.6681 41.388 52.5761 41.184C52.4881 40.98 52.4441 40.742 52.4441 40.47C52.4441 40.23 52.5081 40 52.6361 39.78C52.7681 39.556 52.9801 39.356 53.2721 39.18C53.5681 39.004 53.9521 38.86 54.4241 38.748C54.9001 38.636 55.4841 38.572 56.1761 38.556V38.112C56.1761 37.652 56.0781 37.308 55.8821 37.08C55.6861 36.852 55.3981 36.738 55.0181 36.738C54.7621 36.738 54.5461 36.77 54.3701 36.834C54.1981 36.898 54.0481 36.97 53.9201 37.05C53.7961 37.126 53.6861 37.196 53.5901 37.26C53.4981 37.324 53.4021 37.356 53.3021 37.356C53.2221 37.356 53.1521 37.334 53.0921 37.29C53.0361 37.246 52.9901 37.194 52.9541 37.134L52.7441 36.756ZM62.0864 38.718V36.684H61.1204C60.9004 36.684 60.7164 36.716 60.5684 36.78C60.4204 36.84 60.3004 36.92 60.2084 37.02C60.1204 37.12 60.0564 37.23 60.0164 37.35C59.9804 37.47 59.9624 37.59 59.9624 37.71C59.9624 38.026 60.0764 38.274 60.3044 38.454C60.5324 38.63 60.8424 38.718 61.2344 38.718H62.0864ZM63.2024 35.904V42H62.0864V39.462H61.6724C61.5564 39.462 61.4604 39.472 61.3844 39.492C61.3084 39.508 61.2424 39.534 61.1864 39.57C61.1344 39.606 61.0884 39.65 61.0484 39.702C61.0084 39.754 60.9684 39.812 60.9284 39.876L59.6864 41.592C59.6464 41.66 59.6044 41.72 59.5604 41.772C59.5164 41.82 59.4664 41.862 59.4104 41.898C59.3544 41.93 59.2884 41.956 59.2124 41.976C59.1364 41.992 59.0464 42 58.9424 42H58.1324L59.8424 39.738C59.9904 39.486 60.1924 39.316 60.4484 39.228C60.1444 39.188 59.8864 39.116 59.6744 39.012C59.4664 38.904 59.2964 38.78 59.1644 38.64C59.0324 38.496 58.9364 38.34 58.8764 38.172C58.8164 38 58.7864 37.826 58.7864 37.65C58.7864 37.434 58.8284 37.222 58.9124 37.014C58.9964 36.806 59.1304 36.62 59.3144 36.456C59.4984 36.292 59.7364 36.16 60.0284 36.06C60.3204 35.956 60.6724 35.904 61.0844 35.904H63.2024ZM72.0407 41.148V36.822H70.2167C70.1767 37.414 70.1227 37.942 70.0547 38.406C69.9867 38.87 69.9067 39.278 69.8147 39.63C69.7267 39.978 69.6287 40.278 69.5207 40.53C69.4127 40.778 69.2987 40.984 69.1787 41.148H72.0407ZM74.2907 41.112V43.722C74.2907 43.834 74.2587 43.922 74.1947 43.986C74.1347 44.05 74.0547 44.082 73.9547 44.082H73.2287V42H68.2487V43.746C68.2487 43.834 68.2227 43.912 68.1707 43.98C68.1187 44.048 68.0367 44.082 67.9247 44.082H67.1807V41.148H67.3787C67.5187 41.148 67.6567 41.126 67.7927 41.082C67.9287 41.038 68.0587 40.95 68.1827 40.818C68.3107 40.686 68.4307 40.5 68.5427 40.26C68.6547 40.02 68.7567 39.706 68.8487 39.318C68.9407 38.93 69.0207 38.458 69.0887 37.902C69.1567 37.342 69.2107 36.676 69.2507 35.904H73.1747V41.112H74.2907ZM77.8341 35.808C78.2821 35.808 78.6861 35.882 79.0461 36.03C79.4101 36.174 79.7181 36.384 79.9701 36.66C80.2261 36.932 80.4221 37.262 80.5581 37.65C80.6941 38.034 80.7621 38.466 80.7621 38.946C80.7621 39.426 80.6941 39.86 80.5581 40.248C80.4221 40.636 80.2261 40.966 79.9701 41.238C79.7181 41.51 79.4101 41.72 79.0461 41.868C78.6861 42.012 78.2821 42.084 77.8341 42.084C77.3821 42.084 76.9741 42.012 76.6101 41.868C76.2501 41.72 75.9421 41.51 75.6861 41.238C75.4301 40.966 75.2321 40.636 75.0921 40.248C74.9561 39.86 74.8881 39.426 74.8881 38.946C74.8881 38.466 74.9561 38.034 75.0921 37.65C75.2321 37.262 75.4301 36.932 75.6861 36.66C75.9421 36.384 76.2501 36.174 76.6101 36.03C76.9741 35.882 77.3821 35.808 77.8341 35.808ZM77.8341 41.172C78.4101 41.172 78.8401 40.978 79.1241 40.59C79.4081 40.202 79.5501 39.656 79.5501 38.952C79.5501 38.248 79.4081 37.702 79.1241 37.314C78.8401 36.922 78.4101 36.726 77.8341 36.726C77.2501 36.726 76.8141 36.922 76.5261 37.314C76.2421 37.702 76.1001 38.248 76.1001 38.952C76.1001 39.656 76.2421 40.202 76.5261 40.59C76.8141 40.978 77.2501 41.172 77.8341 41.172ZM85.7521 36.222C85.8121 36.13 85.8921 36.054 85.9921 35.994C86.0921 35.934 86.1981 35.904 86.3101 35.904H87.2281L85.6861 38.208C85.5901 38.36 85.4901 38.484 85.3861 38.58C85.2821 38.676 85.1541 38.75 85.0021 38.802C85.1941 38.858 85.3561 38.942 85.4881 39.054C85.6201 39.162 85.7381 39.304 85.8421 39.48L87.3961 42H86.5861C86.3741 42 86.2101 41.966 86.0941 41.898C85.9821 41.826 85.8861 41.724 85.8061 41.592L84.6901 39.75C84.5981 39.598 84.4821 39.484 84.3421 39.408C84.2061 39.332 84.0481 39.294 83.8681 39.294H83.2381V42.006H82.0681V35.904H83.2381V38.508H83.7901C83.9581 38.508 84.1001 38.474 84.2161 38.406C84.3361 38.338 84.4381 38.238 84.5221 38.106L85.7521 36.222ZM93.6891 35.904L90.3051 43.77C90.2691 43.858 90.2211 43.926 90.1611 43.974C90.1011 44.022 90.0131 44.046 89.8971 44.046H89.0271L90.1431 41.616L87.6411 35.904H88.6611C88.7611 35.904 88.8391 35.928 88.8951 35.976C88.9511 36.024 88.9911 36.078 89.0151 36.138L90.5631 39.798C90.5951 39.89 90.6251 39.984 90.6531 40.08C90.6851 40.172 90.7111 40.264 90.7311 40.356C90.7591 40.26 90.7891 40.166 90.8211 40.074C90.8531 39.978 90.8871 39.884 90.9231 39.792L92.4171 36.138C92.4451 36.07 92.4891 36.014 92.5491 35.97C92.6091 35.926 92.6771 35.904 92.7531 35.904H93.6891ZM101.442 35.886V42H100.386V38.124C100.386 38.004 100.392 37.868 100.404 37.716C100.42 37.564 100.442 37.424 100.47 37.296L98.4297 40.908C98.3937 40.976 98.3477 41.03 98.2917 41.07C98.2357 41.106 98.1697 41.124 98.0937 41.124H97.9617C97.8897 41.124 97.8237 41.106 97.7637 41.07C97.7077 41.03 97.6617 40.976 97.6257 40.908L95.5557 37.284C95.5797 37.412 95.5997 37.554 95.6157 37.71C95.6317 37.862 95.6397 38 95.6397 38.124V42H94.5837V35.886H95.5317C95.6117 35.886 95.6917 35.904 95.7717 35.94C95.8517 35.976 95.9197 36.046 95.9757 36.15L97.7577 39.162C97.8097 39.258 97.8577 39.36 97.9017 39.468C97.9457 39.576 97.9877 39.684 98.0277 39.792C98.0677 39.684 98.1077 39.576 98.1477 39.468C98.1917 39.36 98.2397 39.258 98.2917 39.162L100.05 36.15C100.106 36.042 100.174 35.972 100.254 35.94C100.334 35.904 100.414 35.886 100.494 35.886H101.442ZM107.118 38.274C107.118 38.042 107.084 37.828 107.016 37.632C106.952 37.436 106.856 37.266 106.728 37.122C106.6 36.978 106.444 36.866 106.26 36.786C106.076 36.706 105.864 36.666 105.624 36.666C105.132 36.666 104.744 36.808 104.46 37.092C104.18 37.376 104.002 37.77 103.926 38.274H107.118ZM108.084 41.13C107.94 41.298 107.774 41.444 107.586 41.568C107.398 41.688 107.198 41.786 106.986 41.862C106.774 41.938 106.554 41.994 106.326 42.03C106.102 42.066 105.88 42.084 105.66 42.084C105.24 42.084 104.85 42.014 104.49 41.874C104.134 41.73 103.824 41.522 103.56 41.25C103.3 40.974 103.096 40.634 102.948 40.23C102.804 39.822 102.732 39.354 102.732 38.826C102.732 38.402 102.798 38.008 102.93 37.644C103.062 37.276 103.25 36.956 103.494 36.684C103.742 36.412 104.044 36.198 104.4 36.042C104.756 35.886 105.156 35.808 105.6 35.808C105.972 35.808 106.314 35.87 106.626 35.994C106.942 36.114 107.214 36.29 107.442 36.522C107.67 36.754 107.848 37.04 107.976 37.38C108.108 37.72 108.174 38.108 108.174 38.544C108.174 38.724 108.154 38.846 108.114 38.91C108.074 38.97 108 39 107.892 39H103.896C103.908 39.364 103.96 39.682 104.052 39.954C104.144 40.222 104.27 40.446 104.43 40.626C104.594 40.806 104.788 40.94 105.012 41.028C105.236 41.116 105.486 41.16 105.762 41.16C106.022 41.16 106.246 41.13 106.434 41.07C106.626 41.01 106.79 40.946 106.926 40.878C107.066 40.806 107.182 40.74 107.274 40.68C107.37 40.62 107.454 40.59 107.526 40.59C107.622 40.59 107.696 40.626 107.748 40.698L108.084 41.13ZM114.567 35.904V42H113.391V39.192H110.601V42H109.431V35.904H110.601V38.304H113.391V35.904H114.567ZM121.311 36.792H119.013V42H117.837V36.792H115.539V35.904H121.311V36.792ZM125.516 39.294C125.04 39.31 124.636 39.348 124.304 39.408C123.972 39.464 123.702 39.54 123.494 39.636C123.286 39.732 123.136 39.846 123.044 39.978C122.952 40.106 122.906 40.25 122.906 40.41C122.906 40.562 122.93 40.694 122.978 40.806C123.03 40.914 123.098 41.004 123.182 41.076C123.27 41.144 123.372 41.194 123.488 41.226C123.604 41.258 123.73 41.274 123.866 41.274C124.046 41.274 124.21 41.256 124.358 41.22C124.51 41.184 124.652 41.134 124.784 41.07C124.916 41.002 125.042 40.92 125.162 40.824C125.282 40.728 125.4 40.618 125.516 40.494V39.294ZM122.084 36.756C122.424 36.432 122.792 36.19 123.188 36.03C123.588 35.87 124.026 35.79 124.502 35.79C124.85 35.79 125.158 35.848 125.426 35.964C125.694 36.076 125.92 36.234 126.104 36.438C126.288 36.642 126.426 36.886 126.518 37.17C126.614 37.454 126.662 37.768 126.662 38.112V42H126.14C126.024 42 125.936 41.982 125.876 41.946C125.816 41.906 125.768 41.834 125.732 41.73L125.606 41.196C125.45 41.34 125.296 41.468 125.144 41.58C124.992 41.688 124.832 41.782 124.664 41.862C124.5 41.938 124.324 41.996 124.136 42.036C123.948 42.076 123.74 42.096 123.512 42.096C123.272 42.096 123.046 42.064 122.834 42C122.626 41.932 122.444 41.83 122.288 41.694C122.132 41.558 122.008 41.388 121.916 41.184C121.828 40.98 121.784 40.742 121.784 40.47C121.784 40.23 121.848 40 121.976 39.78C122.108 39.556 122.32 39.356 122.612 39.18C122.908 39.004 123.292 38.86 123.764 38.748C124.24 38.636 124.824 38.572 125.516 38.556V38.112C125.516 37.652 125.418 37.308 125.222 37.08C125.026 36.852 124.738 36.738 124.358 36.738C124.102 36.738 123.886 36.77 123.71 36.834C123.538 36.898 123.388 36.97 123.26 37.05C123.136 37.126 123.026 37.196 122.93 37.26C122.838 37.324 122.742 37.356 122.642 37.356C122.562 37.356 122.492 37.334 122.432 37.29C122.376 37.246 122.33 37.194 122.294 37.134L122.084 36.756ZM134.48 41.112V43.722C134.48 43.834 134.448 43.922 134.384 43.986C134.32 44.05 134.238 44.082 134.138 44.082H133.418V42H128.228V35.904H129.398V41.112H132.188V35.904H133.364V41.112H134.48ZM140.821 35.904V42H139.645V38.016C139.645 37.936 139.649 37.848 139.657 37.752C139.665 37.652 139.677 37.552 139.693 37.452C139.653 37.536 139.613 37.616 139.573 37.692C139.537 37.764 139.499 37.828 139.459 37.884L136.657 41.706C136.613 41.778 136.555 41.846 136.483 41.91C136.411 41.974 136.329 42.006 136.237 42.006H135.529V35.904H136.699V39.894C136.699 39.974 136.695 40.064 136.687 40.164C136.679 40.26 136.667 40.356 136.651 40.452C136.731 40.276 136.809 40.134 136.885 40.026L139.687 36.198C139.731 36.13 139.789 36.064 139.861 36C139.937 35.936 140.021 35.904 140.113 35.904H140.821ZM145.653 38.718V36.684H144.687C144.467 36.684 144.283 36.716 144.135 36.78C143.987 36.84 143.867 36.92 143.775 37.02C143.687 37.12 143.623 37.23 143.583 37.35C143.547 37.47 143.529 37.59 143.529 37.71C143.529 38.026 143.643 38.274 143.871 38.454C144.099 38.63 144.409 38.718 144.801 38.718H145.653ZM146.769 35.904V42H145.653V39.462H145.239C145.123 39.462 145.027 39.472 144.951 39.492C144.875 39.508 144.809 39.534 144.753 39.57C144.701 39.606 144.655 39.65 144.615 39.702C144.575 39.754 144.535 39.812 144.495 39.876L143.253 41.592C143.213 41.66 143.171 41.72 143.127 41.772C143.083 41.82 143.033 41.862 142.977 41.898C142.921 41.93 142.855 41.956 142.779 41.976C142.703 41.992 142.613 42 142.509 42H141.699L143.409 39.738C143.557 39.486 143.759 39.316 144.015 39.228C143.711 39.188 143.453 39.116 143.241 39.012C143.033 38.904 142.863 38.78 142.731 38.64C142.599 38.496 142.503 38.34 142.443 38.172C142.383 38 142.353 37.826 142.353 37.65C142.353 37.434 142.395 37.222 142.479 37.014C142.563 36.806 142.697 36.62 142.881 36.456C143.065 36.292 143.303 36.16 143.595 36.06C143.887 35.956 144.239 35.904 144.651 35.904H146.769ZM4.986 55.148V50.822H3.162C3.122 51.414 3.068 51.942 3 52.406C2.932 52.87 2.852 53.278 2.76 53.63C2.672 53.978 2.574 54.278 2.466 54.53C2.358 54.778 2.244 54.984 2.124 55.148H4.986ZM7.236 55.112V57.722C7.236 57.834 7.204 57.922 7.14 57.986C7.08 58.05 7 58.082 6.9 58.082H6.174V56H1.194V57.746C1.194 57.834 1.168 57.912 1.116 57.98C1.064 58.048 0.982 58.082 0.87 58.082H0.126V55.148H0.324C0.464 55.148 0.602 55.126 0.738 55.082C0.874 55.038 1.004 54.95 1.128 54.818C1.256 54.686 1.376 54.5 1.488 54.26C1.6 54.02 1.702 53.706 1.794 53.318C1.886 52.93 1.966 52.458 2.034 51.902C2.102 51.342 2.156 50.676 2.196 49.904H6.12V55.112H7.236ZM13.7048 56H12.5348V50.822H10.7168C10.6688 51.59 10.5968 52.254 10.5008 52.814C10.4048 53.37 10.2888 53.844 10.1528 54.236C10.0168 54.624 9.86484 54.94 9.69684 55.184C9.53284 55.424 9.35684 55.612 9.16884 55.748C8.98484 55.88 8.79484 55.968 8.59884 56.012C8.40284 56.06 8.20684 56.084 8.01084 56.084C7.64684 56.084 7.46484 56.024 7.46484 55.904V55.166H7.78884C7.92484 55.166 8.06084 55.144 8.19684 55.1C8.33684 55.052 8.47284 54.962 8.60484 54.83C8.74084 54.694 8.86884 54.506 8.98884 54.266C9.10884 54.026 9.21884 53.712 9.31884 53.324C9.41884 52.932 9.50484 52.456 9.57684 51.896C9.64884 51.336 9.70484 50.672 9.74484 49.904H13.7048V56ZM18.5513 52.718V50.684H17.5853C17.3653 50.684 17.1813 50.716 17.0333 50.78C16.8853 50.84 16.7653 50.92 16.6733 51.02C16.5853 51.12 16.5213 51.23 16.4813 51.35C16.4453 51.47 16.4273 51.59 16.4273 51.71C16.4273 52.026 16.5413 52.274 16.7693 52.454C16.9973 52.63 17.3073 52.718 17.6992 52.718H18.5513ZM19.6673 49.904V56H18.5513V53.462H18.1373C18.0213 53.462 17.9253 53.472 17.8493 53.492C17.7733 53.508 17.7073 53.534 17.6513 53.57C17.5993 53.606 17.5533 53.65 17.5133 53.702C17.4733 53.754 17.4333 53.812 17.3933 53.876L16.1513 55.592C16.1113 55.66 16.0693 55.72 16.0253 55.772C15.9813 55.82 15.9313 55.862 15.8753 55.898C15.8193 55.93 15.7533 55.956 15.6773 55.976C15.6013 55.992 15.5113 56 15.4073 56H14.5973L16.3073 53.738C16.4553 53.486 16.6573 53.316 16.9133 53.228C16.6093 53.188 16.3513 53.116 16.1393 53.012C15.9313 52.904 15.7613 52.78 15.6293 52.64C15.4973 52.496 15.4013 52.34 15.3413 52.172C15.2813 52 15.2513 51.826 15.2513 51.65C15.2513 51.434 15.2933 51.222 15.3773 51.014C15.4613 50.806 15.5953 50.62 15.7793 50.456C15.9633 50.292 16.2013 50.16 16.4933 50.06C16.7853 49.956 17.1373 49.904 17.5493 49.904H19.6673ZM29.4775 56H28.3015V50.792H25.5115V56H24.3415V49.904H29.4775V56ZM32.285 54.5C32.477 54.752 32.683 54.928 32.903 55.028C33.127 55.128 33.377 55.178 33.653 55.178C34.189 55.178 34.603 54.986 34.895 54.602C35.191 54.214 35.339 53.65 35.339 52.91C35.339 52.522 35.305 52.192 35.237 51.92C35.173 51.644 35.077 51.42 34.949 51.248C34.825 51.072 34.671 50.944 34.487 50.864C34.303 50.78 34.095 50.738 33.863 50.738C33.523 50.738 33.227 50.814 32.975 50.966C32.727 51.118 32.497 51.334 32.285 51.614V54.5ZM32.225 50.816C32.353 50.664 32.489 50.526 32.633 50.402C32.781 50.274 32.939 50.166 33.107 50.078C33.275 49.986 33.453 49.916 33.641 49.868C33.833 49.816 34.037 49.79 34.253 49.79C34.601 49.79 34.915 49.858 35.195 49.994C35.479 50.13 35.721 50.33 35.921 50.594C36.121 50.858 36.275 51.184 36.383 51.572C36.495 51.96 36.551 52.406 36.551 52.91C36.551 53.362 36.489 53.782 36.365 54.17C36.245 54.554 36.071 54.888 35.843 55.172C35.619 55.456 35.343 55.68 35.015 55.844C34.691 56.004 34.325 56.084 33.917 56.084C33.553 56.084 33.241 56.024 32.981 55.904C32.721 55.784 32.489 55.616 32.285 55.4V58.046H31.115V49.904H31.817C31.981 49.904 32.083 49.982 32.123 50.138L32.225 50.816ZM41.8913 52.274C41.8913 52.042 41.8573 51.828 41.7893 51.632C41.7253 51.436 41.6293 51.266 41.5013 51.122C41.3733 50.978 41.2173 50.866 41.0333 50.786C40.8493 50.706 40.6373 50.666 40.3973 50.666C39.9053 50.666 39.5173 50.808 39.2333 51.092C38.9533 51.376 38.7753 51.77 38.6993 52.274H41.8913ZM42.8573 55.13C42.7133 55.298 42.5473 55.444 42.3593 55.568C42.1713 55.688 41.9713 55.786 41.7593 55.862C41.5473 55.938 41.3273 55.994 41.0993 56.03C40.8753 56.066 40.6533 56.084 40.4333 56.084C40.0133 56.084 39.6233 56.014 39.2633 55.874C38.9073 55.73 38.5973 55.522 38.3333 55.25C38.0733 54.974 37.8693 54.634 37.7213 54.23C37.5773 53.822 37.5053 53.354 37.5053 52.826C37.5053 52.402 37.5713 52.008 37.7033 51.644C37.8353 51.276 38.0233 50.956 38.2673 50.684C38.5153 50.412 38.8173 50.198 39.1733 50.042C39.5293 49.886 39.9293 49.808 40.3733 49.808C40.7453 49.808 41.0873 49.87 41.3993 49.994C41.7153 50.114 41.9873 50.29 42.2153 50.522C42.4433 50.754 42.6213 51.04 42.7493 51.38C42.8813 51.72 42.9473 52.108 42.9473 52.544C42.9473 52.724 42.9273 52.846 42.8873 52.91C42.8473 52.97 42.7733 53 42.6653 53H38.6693C38.6813 53.364 38.7333 53.682 38.8253 53.954C38.9173 54.222 39.0433 54.446 39.2033 54.626C39.3673 54.806 39.5613 54.94 39.7853 55.028C40.0093 55.116 40.2593 55.16 40.5353 55.16C40.7953 55.16 41.0193 55.13 41.2073 55.07C41.3993 55.01 41.5633 54.946 41.6993 54.878C41.8393 54.806 41.9553 54.74 42.0473 54.68C42.1433 54.62 42.2273 54.59 42.2993 54.59C42.3953 54.59 42.4693 54.626 42.5213 54.698L42.8573 55.13ZM48.3219 55.148V50.822H46.4979C46.4579 51.414 46.4039 51.942 46.3359 52.406C46.2679 52.87 46.1879 53.278 46.0959 53.63C46.0079 53.978 45.9099 54.278 45.8019 54.53C45.6939 54.778 45.5799 54.984 45.4599 55.148H48.3219ZM50.5719 55.112V57.722C50.5719 57.834 50.5399 57.922 50.4759 57.986C50.4159 58.05 50.3359 58.082 50.2359 58.082H49.5099V56H44.5299V57.746C44.5299 57.834 44.5039 57.912 44.4519 57.98C44.3999 58.048 44.3179 58.082 44.2059 58.082H43.4619V55.148H43.6599C43.7999 55.148 43.9379 55.126 44.0739 55.082C44.2099 55.038 44.3399 54.95 44.4639 54.818C44.5919 54.686 44.7119 54.5 44.8239 54.26C44.9359 54.02 45.0379 53.706 45.1299 53.318C45.2219 52.93 45.3019 52.458 45.3699 51.902C45.4379 51.342 45.4919 50.676 45.5319 49.904H49.4559V55.112H50.5719ZM56.7588 56H55.5828V50.792H52.7928V56H51.6228V49.904H56.7588V56ZM59.5662 54.5C59.7582 54.752 59.9642 54.928 60.1842 55.028C60.4082 55.128 60.6582 55.178 60.9342 55.178C61.4702 55.178 61.8842 54.986 62.1762 54.602C62.4722 54.214 62.6202 53.65 62.6202 52.91C62.6202 52.522 62.5862 52.192 62.5182 51.92C62.4542 51.644 62.3582 51.42 62.2302 51.248C62.1062 51.072 61.9522 50.944 61.7682 50.864C61.5842 50.78 61.3762 50.738 61.1442 50.738C60.8042 50.738 60.5082 50.814 60.2562 50.966C60.0082 51.118 59.7782 51.334 59.5662 51.614V54.5ZM59.5062 50.816C59.6342 50.664 59.7702 50.526 59.9142 50.402C60.0622 50.274 60.2202 50.166 60.3882 50.078C60.5562 49.986 60.7342 49.916 60.9222 49.868C61.1142 49.816 61.3182 49.79 61.5342 49.79C61.8822 49.79 62.1962 49.858 62.4762 49.994C62.7602 50.13 63.0022 50.33 63.2022 50.594C63.4022 50.858 63.5562 51.184 63.6642 51.572C63.7762 51.96 63.8322 52.406 63.8322 52.91C63.8322 53.362 63.7702 53.782 63.6462 54.17C63.5262 54.554 63.3522 54.888 63.1242 55.172C62.9002 55.456 62.6242 55.68 62.2962 55.844C61.9722 56.004 61.6062 56.084 61.1982 56.084C60.8342 56.084 60.5222 56.024 60.2622 55.904C60.0022 55.784 59.7702 55.616 59.5662 55.4V58.046H58.3962V49.904H59.0982C59.2622 49.904 59.3642 49.982 59.4042 50.138L59.5062 50.816ZM70.4265 49.904V56H69.2505V52.016C69.2505 51.936 69.2545 51.848 69.2625 51.752C69.2705 51.652 69.2825 51.552 69.2985 51.452C69.2585 51.536 69.2185 51.616 69.1785 51.692C69.1425 51.764 69.1045 51.828 69.0645 51.884L66.2625 55.706C66.2185 55.778 66.1605 55.846 66.0885 55.91C66.0165 55.974 65.9345 56.006 65.8425 56.006H65.1345V49.904H66.3045V53.894C66.3045 53.974 66.3005 54.064 66.2925 54.164C66.2845 54.26 66.2725 54.356 66.2565 54.452C66.3365 54.276 66.4145 54.134 66.4905 54.026L69.2925 50.198C69.3365 50.13 69.3945 50.064 69.4665 50C69.5425 49.936 69.6265 49.904 69.7185 49.904H70.4265ZM75.2583 52.718V50.684H74.2923C74.0723 50.684 73.8883 50.716 73.7403 50.78C73.5923 50.84 73.4723 50.92 73.3803 51.02C73.2923 51.12 73.2283 51.23 73.1883 51.35C73.1523 51.47 73.1343 51.59 73.1343 51.71C73.1343 52.026 73.2483 52.274 73.4763 52.454C73.7043 52.63 74.0143 52.718 74.4063 52.718H75.2583ZM76.3743 49.904V56H75.2583V53.462H74.8443C74.7283 53.462 74.6323 53.472 74.5563 53.492C74.4803 53.508 74.4143 53.534 74.3583 53.57C74.3063 53.606 74.2603 53.65 74.2203 53.702C74.1803 53.754 74.1403 53.812 74.1003 53.876L72.8583 55.592C72.8183 55.66 72.7763 55.72 72.7323 55.772C72.6883 55.82 72.6383 55.862 72.5823 55.898C72.5263 55.93 72.4603 55.956 72.3843 55.976C72.3083 55.992 72.2183 56 72.1143 56H71.3043L73.0143 53.738C73.1623 53.486 73.3643 53.316 73.6203 53.228C73.3163 53.188 73.0583 53.116 72.8463 53.012C72.6383 52.904 72.4683 52.78 72.3363 52.64C72.2043 52.496 72.1083 52.34 72.0483 52.172C71.9883 52 71.9583 51.826 71.9583 51.65C71.9583 51.434 72.0003 51.222 72.0843 51.014C72.1683 50.806 72.3023 50.62 72.4863 50.456C72.6703 50.292 72.9083 50.16 73.2003 50.06C73.4923 49.956 73.8443 49.904 74.2563 49.904H76.3743ZM83.1194 50.792H80.8214V56H79.6454V50.792H77.3474V49.904H83.1194V50.792ZM89.3874 49.904V56H88.2114V52.016C88.2114 51.936 88.2154 51.848 88.2234 51.752C88.2314 51.652 88.2434 51.552 88.2594 51.452C88.2194 51.536 88.1794 51.616 88.1394 51.692C88.1034 51.764 88.0654 51.828 88.0254 51.884L85.2234 55.706C85.1794 55.778 85.1214 55.846 85.0494 55.91C84.9774 55.974 84.8954 56.006 84.8034 56.006H84.0954V49.904H85.2654V53.894C85.2654 53.974 85.2614 54.064 85.2534 54.164C85.2454 54.26 85.2334 54.356 85.2174 54.452C85.2974 54.276 85.3754 54.134 85.4514 54.026L88.2534 50.198C88.2974 50.13 88.3554 50.064 88.4274 50C88.5034 49.936 88.5874 49.904 88.6794 49.904H89.3874ZM96.3132 49.904V56H95.1372V52.016C95.1372 51.936 95.1412 51.848 95.1492 51.752C95.1572 51.652 95.1692 51.552 95.1852 51.452C95.1452 51.536 95.1052 51.616 95.0652 51.692C95.0292 51.764 94.9912 51.828 94.9512 51.884L92.1492 55.706C92.1052 55.778 92.0472 55.846 91.9752 55.91C91.9032 55.974 91.8212 56.006 91.7292 56.006H91.0212V49.904H92.1912V53.894C92.1912 53.974 92.1872 54.064 92.1792 54.164C92.1712 54.26 92.1592 54.356 92.1432 54.452C92.2232 54.276 92.3012 54.134 92.3772 54.026L95.1792 50.198C95.2232 50.13 95.2812 50.064 95.3532 50C95.4292 49.936 95.5132 49.904 95.6052 49.904H96.3132ZM93.7392 48.404C93.8992 48.404 94.0332 48.386 94.1412 48.35C94.2532 48.314 94.3412 48.256 94.4052 48.176C94.4732 48.096 94.5212 47.992 94.5492 47.864C94.5812 47.732 94.5972 47.572 94.5972 47.384H95.2872C95.3672 47.384 95.4292 47.42 95.4732 47.492C95.5172 47.564 95.5392 47.644 95.5392 47.732C95.5392 47.932 95.4972 48.112 95.4132 48.272C95.3332 48.432 95.2152 48.57 95.0592 48.686C94.9032 48.798 94.7132 48.886 94.4892 48.95C94.2692 49.01 94.0192 49.04 93.7392 49.04C93.4592 49.04 93.2072 49.01 92.9832 48.95C92.7632 48.886 92.5752 48.798 92.4192 48.686C92.2632 48.57 92.1432 48.432 92.0592 48.272C91.9792 48.112 91.9392 47.932 91.9392 47.732C91.9392 47.644 91.9612 47.564 92.0052 47.492C92.0492 47.42 92.1112 47.384 92.1912 47.384H92.8812C92.8812 47.572 92.8952 47.732 92.9232 47.864C92.9552 47.992 93.0032 48.096 93.0672 48.176C93.1352 48.256 93.2232 48.314 93.3312 48.35C93.4432 48.386 93.5792 48.404 93.7392 48.404ZM106.274 49.904V56H105.098V52.016C105.098 51.936 105.102 51.848 105.11 51.752C105.118 51.652 105.13 51.552 105.146 51.452C105.106 51.536 105.066 51.616 105.026 51.692C104.99 51.764 104.952 51.828 104.912 51.884L102.11 55.706C102.066 55.778 102.008 55.846 101.936 55.91C101.864 55.974 101.782 56.006 101.69 56.006H100.982V49.904H102.152V53.894C102.152 53.974 102.148 54.064 102.14 54.164C102.132 54.26 102.12 54.356 102.104 54.452C102.184 54.276 102.262 54.134 102.338 54.026L105.14 50.198C105.184 50.13 105.242 50.064 105.314 50C105.39 49.936 105.474 49.904 105.566 49.904H106.274ZM113.541 49.808C113.989 49.808 114.393 49.882 114.753 50.03C115.117 50.174 115.425 50.384 115.677 50.66C115.933 50.932 116.129 51.262 116.265 51.65C116.401 52.034 116.469 52.466 116.469 52.946C116.469 53.426 116.401 53.86 116.265 54.248C116.129 54.636 115.933 54.966 115.677 55.238C115.425 55.51 115.117 55.72 114.753 55.868C114.393 56.012 113.989 56.084 113.541 56.084C113.089 56.084 112.681 56.012 112.317 55.868C111.957 55.72 111.649 55.51 111.393 55.238C111.137 54.966 110.939 54.636 110.799 54.248C110.663 53.86 110.595 53.426 110.595 52.946C110.595 52.466 110.663 52.034 110.799 51.65C110.939 51.262 111.137 50.932 111.393 50.66C111.649 50.384 111.957 50.174 112.317 50.03C112.681 49.882 113.089 49.808 113.541 49.808ZM113.541 55.172C114.117 55.172 114.547 54.978 114.831 54.59C115.115 54.202 115.257 53.656 115.257 52.952C115.257 52.248 115.115 51.702 114.831 51.314C114.547 50.922 114.117 50.726 113.541 50.726C112.957 50.726 112.521 50.922 112.233 51.314C111.949 51.702 111.807 52.248 111.807 52.952C111.807 53.656 111.949 54.202 112.233 54.59C112.521 54.978 112.957 55.172 113.541 55.172ZM118.945 54.5C119.137 54.752 119.343 54.928 119.563 55.028C119.787 55.128 120.037 55.178 120.313 55.178C120.849 55.178 121.263 54.986 121.555 54.602C121.851 54.214 121.999 53.65 121.999 52.91C121.999 52.522 121.965 52.192 121.897 51.92C121.833 51.644 121.737 51.42 121.609 51.248C121.485 51.072 121.331 50.944 121.147 50.864C120.963 50.78 120.755 50.738 120.523 50.738C120.183 50.738 119.887 50.814 119.635 50.966C119.387 51.118 119.157 51.334 118.945 51.614V54.5ZM118.885 50.816C119.013 50.664 119.149 50.526 119.293 50.402C119.441 50.274 119.599 50.166 119.767 50.078C119.935 49.986 120.113 49.916 120.301 49.868C120.493 49.816 120.697 49.79 120.913 49.79C121.261 49.79 121.575 49.858 121.855 49.994C122.139 50.13 122.381 50.33 122.581 50.594C122.781 50.858 122.935 51.184 123.043 51.572C123.155 51.96 123.211 52.406 123.211 52.91C123.211 53.362 123.149 53.782 123.025 54.17C122.905 54.554 122.731 54.888 122.503 55.172C122.279 55.456 122.003 55.68 121.675 55.844C121.351 56.004 120.985 56.084 120.577 56.084C120.213 56.084 119.901 56.024 119.641 55.904C119.381 55.784 119.149 55.616 118.945 55.4V58.046H117.775V49.904H118.477C118.641 49.904 118.743 49.982 118.783 50.138L118.885 50.816ZM128.509 50.792H125.683V56H124.513V49.904H128.509V50.792ZM132.711 53.294C132.235 53.31 131.831 53.348 131.499 53.408C131.167 53.464 130.897 53.54 130.689 53.636C130.481 53.732 130.331 53.846 130.239 53.978C130.147 54.106 130.101 54.25 130.101 54.41C130.101 54.562 130.125 54.694 130.173 54.806C130.225 54.914 130.293 55.004 130.377 55.076C130.465 55.144 130.567 55.194 130.683 55.226C130.799 55.258 130.925 55.274 131.061 55.274C131.241 55.274 131.405 55.256 131.553 55.22C131.705 55.184 131.847 55.134 131.979 55.07C132.111 55.002 132.237 54.92 132.357 54.824C132.477 54.728 132.595 54.618 132.711 54.494V53.294ZM129.279 50.756C129.619 50.432 129.987 50.19 130.383 50.03C130.783 49.87 131.221 49.79 131.697 49.79C132.045 49.79 132.353 49.848 132.621 49.964C132.889 50.076 133.115 50.234 133.299 50.438C133.483 50.642 133.621 50.886 133.713 51.17C133.809 51.454 133.857 51.768 133.857 52.112V56H133.335C133.219 56 133.131 55.982 133.071 55.946C133.011 55.906 132.963 55.834 132.927 55.73L132.801 55.196C132.645 55.34 132.491 55.468 132.339 55.58C132.187 55.688 132.027 55.782 131.859 55.862C131.695 55.938 131.519 55.996 131.331 56.036C131.143 56.076 130.935 56.096 130.707 56.096C130.467 56.096 130.241 56.064 130.029 56C129.821 55.932 129.639 55.83 129.483 55.694C129.327 55.558 129.203 55.388 129.111 55.184C129.023 54.98 128.979 54.742 128.979 54.47C128.979 54.23 129.043 54 129.171 53.78C129.303 53.556 129.515 53.356 129.807 53.18C130.103 53.004 130.487 52.86 130.959 52.748C131.435 52.636 132.019 52.572 132.711 52.556V52.112C132.711 51.652 132.613 51.308 132.417 51.08C132.221 50.852 131.933 50.738 131.553 50.738C131.297 50.738 131.081 50.77 130.905 50.834C130.733 50.898 130.583 50.97 130.455 51.05C130.331 51.126 130.221 51.196 130.125 51.26C130.033 51.324 129.937 51.356 129.837 51.356C129.757 51.356 129.687 51.334 129.627 51.29C129.571 51.246 129.525 51.194 129.489 51.134L129.279 50.756ZM140.56 49.904V56H139.384V53.192H136.594V56H135.424V49.904H136.594V52.304H139.384V49.904H140.56ZM147.489 49.904V56H146.313V52.016C146.313 51.936 146.317 51.848 146.325 51.752C146.333 51.652 146.345 51.552 146.361 51.452C146.321 51.536 146.281 51.616 146.241 51.692C146.205 51.764 146.167 51.828 146.127 51.884L143.325 55.706C143.281 55.778 143.223 55.846 143.151 55.91C143.079 55.974 142.997 56.006 142.905 56.006H142.197V49.904H143.367V53.894C143.367 53.974 143.363 54.064 143.355 54.164C143.347 54.26 143.335 54.356 143.319 54.452C143.399 54.276 143.477 54.134 143.553 54.026L146.355 50.198C146.399 50.13 146.457 50.064 146.529 50C146.605 49.936 146.689 49.904 146.781 49.904H147.489ZM148.739 50.54C148.967 50.324 149.247 50.148 149.579 50.012C149.911 49.876 150.309 49.808 150.773 49.808C151.145 49.808 151.473 49.854 151.757 49.946C152.041 50.034 152.279 50.154 152.471 50.306C152.667 50.454 152.813 50.624 152.909 50.816C153.009 51.008 153.059 51.208 153.059 51.416C153.059 51.536 153.039 51.662 152.999 51.794C152.963 51.922 152.903 52.046 152.819 52.166C152.735 52.286 152.623 52.398 152.483 52.502C152.347 52.602 152.177 52.686 151.973 52.754C152.349 52.87 152.647 53.054 152.867 53.306C153.087 53.558 153.197 53.872 153.197 54.248C153.197 54.532 153.131 54.788 152.999 55.016C152.871 55.244 152.697 55.438 152.477 55.598C152.257 55.754 152.003 55.874 151.715 55.958C151.427 56.042 151.127 56.084 150.815 56.084C150.623 56.084 150.425 56.066 150.221 56.03C150.021 55.994 149.823 55.938 149.627 55.862C149.431 55.786 149.245 55.688 149.069 55.568C148.893 55.448 148.735 55.302 148.595 55.13L148.931 54.698C148.983 54.626 149.057 54.59 149.153 54.59C149.229 54.59 149.307 54.622 149.387 54.686C149.471 54.746 149.571 54.812 149.687 54.884C149.807 54.956 149.949 55.024 150.113 55.088C150.281 55.148 150.489 55.178 150.737 55.178C150.949 55.178 151.137 55.152 151.301 55.1C151.469 55.048 151.609 54.976 151.721 54.884C151.837 54.792 151.925 54.684 151.985 54.56C152.045 54.436 152.075 54.3 152.075 54.152C152.075 53.864 151.957 53.634 151.721 53.462C151.485 53.29 151.121 53.204 150.629 53.204H149.939V52.424H150.629C151.061 52.424 151.397 52.344 151.637 52.184C151.877 52.02 151.997 51.81 151.997 51.554C151.997 51.442 151.971 51.336 151.919 51.236C151.867 51.132 151.787 51.042 151.679 50.966C151.575 50.886 151.443 50.824 151.283 50.78C151.127 50.736 150.945 50.714 150.737 50.714C150.505 50.714 150.309 50.738 150.149 50.786C149.989 50.83 149.853 50.88 149.741 50.936C149.629 50.992 149.535 51.044 149.459 51.092C149.387 51.136 149.325 51.158 149.273 51.158C149.217 51.158 149.169 51.148 149.129 51.128C149.093 51.104 149.053 51.058 149.009 50.99L148.739 50.54ZM157.789 53.294C157.313 53.31 156.909 53.348 156.577 53.408C156.245 53.464 155.975 53.54 155.767 53.636C155.559 53.732 155.409 53.846 155.317 53.978C155.225 54.106 155.179 54.25 155.179 54.41C155.179 54.562 155.203 54.694 155.251 54.806C155.303 54.914 155.371 55.004 155.455 55.076C155.543 55.144 155.645 55.194 155.761 55.226C155.877 55.258 156.003 55.274 156.139 55.274C156.319 55.274 156.483 55.256 156.631 55.22C156.783 55.184 156.925 55.134 157.057 55.07C157.189 55.002 157.315 54.92 157.435 54.824C157.555 54.728 157.673 54.618 157.789 54.494V53.294ZM154.357 50.756C154.697 50.432 155.065 50.19 155.461 50.03C155.861 49.87 156.299 49.79 156.775 49.79C157.123 49.79 157.431 49.848 157.699 49.964C157.967 50.076 158.193 50.234 158.377 50.438C158.561 50.642 158.699 50.886 158.791 51.17C158.887 51.454 158.935 51.768 158.935 52.112V56H158.413C158.297 56 158.209 55.982 158.149 55.946C158.089 55.906 158.041 55.834 158.005 55.73L157.879 55.196C157.723 55.34 157.569 55.468 157.417 55.58C157.265 55.688 157.105 55.782 156.937 55.862C156.773 55.938 156.597 55.996 156.409 56.036C156.221 56.076 156.013 56.096 155.785 56.096C155.545 56.096 155.319 56.064 155.107 56C154.899 55.932 154.717 55.83 154.561 55.694C154.405 55.558 154.281 55.388 154.189 55.184C154.101 54.98 154.057 54.742 154.057 54.47C154.057 54.23 154.121 54 154.249 53.78C154.381 53.556 154.593 53.356 154.885 53.18C155.181 53.004 155.565 52.86 156.037 52.748C156.513 52.636 157.097 52.572 157.789 52.556V52.112C157.789 51.652 157.691 51.308 157.495 51.08C157.299 50.852 157.011 50.738 156.631 50.738C156.375 50.738 156.159 50.77 155.983 50.834C155.811 50.898 155.661 50.97 155.533 51.05C155.409 51.126 155.299 51.196 155.203 51.26C155.111 51.324 155.015 51.356 154.915 51.356C154.835 51.356 154.765 51.334 154.705 51.29C154.649 51.246 154.603 51.194 154.567 51.134L154.357 50.756ZM166.754 55.112V57.722C166.754 57.834 166.722 57.922 166.658 57.986C166.594 58.05 166.512 58.082 166.412 58.082H165.692V56H160.502V49.904H161.672V55.112H164.462V49.904H165.638V55.112H166.754ZM173.094 49.904V56H171.918V52.016C171.918 51.936 171.922 51.848 171.93 51.752C171.938 51.652 171.95 51.552 171.966 51.452C171.926 51.536 171.886 51.616 171.846 51.692C171.81 51.764 171.772 51.828 171.732 51.884L168.93 55.706C168.886 55.778 168.828 55.846 168.756 55.91C168.684 55.974 168.602 56.006 168.51 56.006H167.802V49.904H168.972V53.894C168.972 53.974 168.968 54.064 168.96 54.164C168.952 54.26 168.94 54.356 168.924 54.452C169.004 54.276 169.082 54.134 169.158 54.026L171.96 50.198C172.004 50.13 172.062 50.064 172.134 50C172.21 49.936 172.294 49.904 172.386 49.904H173.094ZM180.02 49.904V56H178.844V52.016C178.844 51.936 178.848 51.848 178.856 51.752C178.864 51.652 178.876 51.552 178.892 51.452C178.852 51.536 178.812 51.616 178.772 51.692C178.736 51.764 178.698 51.828 178.658 51.884L175.856 55.706C175.812 55.778 175.754 55.846 175.682 55.91C175.61 55.974 175.528 56.006 175.436 56.006H174.728V49.904H175.898V53.894C175.898 53.974 175.894 54.064 175.886 54.164C175.878 54.26 175.866 54.356 175.85 54.452C175.93 54.276 176.008 54.134 176.084 54.026L178.886 50.198C178.93 50.13 178.988 50.064 179.06 50C179.136 49.936 179.22 49.904 179.312 49.904H180.02ZM177.446 48.404C177.606 48.404 177.74 48.386 177.848 48.35C177.96 48.314 178.048 48.256 178.112 48.176C178.18 48.096 178.228 47.992 178.256 47.864C178.288 47.732 178.304 47.572 178.304 47.384H178.994C179.074 47.384 179.136 47.42 179.18 47.492C179.224 47.564 179.246 47.644 179.246 47.732C179.246 47.932 179.204 48.112 179.12 48.272C179.04 48.432 178.922 48.57 178.766 48.686C178.61 48.798 178.42 48.886 178.196 48.95C177.976 49.01 177.726 49.04 177.446 49.04C177.166 49.04 176.914 49.01 176.69 48.95C176.47 48.886 176.282 48.798 176.126 48.686C175.97 48.57 175.85 48.432 175.766 48.272C175.686 48.112 175.646 47.932 175.646 47.732C175.646 47.644 175.668 47.564 175.712 47.492C175.756 47.42 175.818 47.384 175.898 47.384H176.588C176.588 47.572 176.602 47.732 176.63 47.864C176.662 47.992 176.71 48.096 176.774 48.176C176.842 48.256 176.93 48.314 177.038 48.35C177.15 48.386 177.286 48.404 177.446 48.404Z" fill="#B4B4B4"/>
</svg>
