<svg width="37" height="35" fill="none" xmlns="http://www.w3.org/2000/svg"><path d="M37 17.497v13.676C33.514 33.416 27.693 35 21.755 35 9.74 34.994 0 27.16 0 17.497 0 7.835 9.74 0 21.755 0c5.143 0 9.867 1.435 13.591 3.835l-1.567 1.586C30.46 3.4 26.287 2.196 21.753 2.196 10.94 2.188 2.176 9.042 2.176 17.497s8.765 15.309 19.579 15.309a31.29 31.29 0 007.472-.965c2.322-.595 4.337-1.388 5.598-2.242v-9.922H17.41l-2.18-2.18H37z" fill="#fff"/><path d="M32.651 21.871v6.13c-2.882 1.574-6.772 2.622-10.896 2.622-9.611 0-17.404-5.874-17.404-13.122S12.144 4.378 21.755 4.378c3.921 0 7.537.979 10.448 2.624L30.616 8.6c-2.493-1.28-5.55-2.036-8.85-2.036-8.411 0-15.229 4.898-15.229 10.937s6.817 10.936 15.23 10.936c3.068.019 6.099-.68 8.853-2.04v-2.34l-8.871-.018-2.169-2.18 13.071.012z" fill="#fff"/><path d="M15.235 13.94h.617v2.74h-.617v-2.74zm1.792.519h-.749v-.52h2.116v.52h-.75v2.221h-.617v-2.22zm2.459 1.874l.347-.422c.184.17.42.271.67.286.256 0 .382-.101.382-.264 0-.162-.153-.228-.394-.327l-.355-.15a.789.789 0 01-.55-.748c0-.454.395-.816.972-.816.327 0 .641.13.875.358l-.309.397a.889.889 0 00-.566-.214c-.213 0-.349.089-.349.245 0 .157.18.228.416.323l.347.143a.751.751 0 01.542.745c0 .454-.378.849-1.027.849a1.494 1.494 0 01-1.001-.405zm2.478-.923v-1.47h.617v1.534c0 .537.167.721.473.721.306 0 .483-.184.483-.722V13.94h.591v1.471c0 .92-.37 1.32-1.076 1.32-.706 0-1.088-.4-1.088-1.32zm2.796-1.47h.936c.601 0 1.084.216 1.084.881 0 .666-.489.93-1.067.93h-.337v.93h-.617v-2.742zm.916 1.32c.34 0 .5-.153.5-.439 0-.285-.183-.396-.516-.396h-.284v.829l.3.005zm1.575-1.32h.937c.6 0 1.084.216 1.084.881 0 .666-.489.93-1.067.93h-.337v.93h-.617v-2.742zm.91 1.32c.338 0 .5-.153.5-.439 0-.285-.184-.396-.517-.396h-.284v.829l.3.005zm1.454.039c0-.896.503-1.41 1.238-1.41s1.238.518 1.238 1.41c0 .892-.503 1.43-1.238 1.43s-1.238-.536-1.238-1.43zm1.843 0c0-.551-.232-.874-.605-.874s-.607.323-.607.874c0 .55.234.896.607.896s.605-.347.605-.896zm1.146-1.359h.985c.578 0 1.051.198 1.051.854 0 .656-.473.9-1.05.9h-.365v.99h-.617l-.004-2.745zm.93 1.262c.325 0 .499-.139.499-.408 0-.27-.174-.363-.499-.363h-.313v.771h.313zm-.051.329l.426-.396.87 1.545h-.705l-.591-1.149zm2.141-1.072h-.75v-.52h2.118v.52h-.75v2.221h-.616l-.002-2.221zM3.422 4.911a1.644 1.644 0 01-1.183-.495 1.751 1.751 0 01-.362-.56 1.982 1.982 0 010-1.442 1.652 1.652 0 011.546-1.056 1.652 1.652 0 011.197.496c.155.16.279.351.364.56.092.229.138.474.134.721a1.85 1.85 0 01-.134.722 1.755 1.755 0 01-.365.559 1.65 1.65 0 01-1.197.495zm0-.333c.18 0 .358-.035.525-.103.16-.066.306-.166.426-.293.123-.132.22-.287.283-.456a1.73 1.73 0 000-1.173 1.432 1.432 0 00-.283-.46 1.268 1.268 0 00-.954-.41c-.18 0-.36.036-.527.107-.158.071-.3.174-.416.303-.12.135-.214.29-.28.46a1.73 1.73 0 000 1.173c.065.168.16.322.28.456.117.126.258.226.416.293.168.07.349.104.53.103zm-.646-.559V2.196h.682a.893.893 0 01.495.133.493.493 0 01.197.454c0 .107-.03.212-.089.303a.486.486 0 01-.242.198l.42.735h-.412l-.31-.622h-.373v.622h-.368zm.368-.92h.233c.256 0 .394-.102.394-.307a.299.299 0 00-.08-.216.407.407 0 00-.288-.08h-.259V3.1z" fill="#fff"/></svg>