<svg width="219" height="176" fill="none" xmlns="http://www.w3.org/2000/svg"><g clip-path="url(#clip0)"><path d="M34.5 50.7V14.4h165.3v99.7H93" stroke="#354154" stroke-width="4.503" stroke-miterlimit="10" stroke-linecap="round" stroke-linejoin="round"/><path d="M201.8 14.4H32.5c-3.4 0-6.1-2.7-6.1-6.1 0-3.4 2.7-6.1 6.1-6.1h169.3c3.4 0 6.1 2.7 6.1 6.1 0 3.4-2.7 6.1-6.1 6.1z" fill="url(#paint0_linear)" stroke="#354154" stroke-width="4.503" stroke-miterlimit="10"/><path d="M89 62H21.2s-5.5 38.8 23.4 68.5h21C94.4 100.8 89 62 89 62z" stroke="#354154" stroke-width="4.503" stroke-miterlimit="10" stroke-linecap="round" stroke-linejoin="round"/><path d="M90 76h17.8s-1.8 24.3-23.9 24.3M20.1 76H2.3s1.8 24.3 23.9 24.3m11 73.3s-.4-4.9 2.5-9.4c1.1-1.6 2.2-2.7 3.3-3.4 3.3-2.1 6.9-5.7 7.5-9.8 1-7.9-5.9-13.5-5.9-13.5l.3-7.1m20.5 0l.3 7.1s-7 5.6-6 13.5c.5 4.2 4.1 7.7 7.5 9.8 1.1.7 2.3 1.7 3.3 3.4 2.9 4.5 2.5 9.4 2.5 9.4m-44.2 0h52.5m37.5-89.2l26.8-26.8 11.8 11.8 26.8-26.8" stroke="#354154" stroke-width="4.503" stroke-miterlimit="10" stroke-linecap="round" stroke-linejoin="round"/><path d="M172.4 42.6h11.8v11.8" stroke="#354154" stroke-width="4.503" stroke-miterlimit="10" stroke-linecap="round" stroke-linejoin="round"/><path d="M29.8 93.7V67.6h26.1L29.8 93.7z" fill="url(#paint1_linear)"/><path d="M180.9 173.3l18.9-19 19 19h-37.9z" fill="url(#paint2_linear)"/><path d="M.2 14.2l19 19-19 18.9V14.2z" fill="url(#paint3_linear)"/><path d="M84 138.8h131.6" stroke="#354154" stroke-width="4.503" stroke-miterlimit="10" stroke-linecap="round" stroke-linejoin="round"/></g><defs><linearGradient id="paint0_linear" x1="26.463" y1="8.333" x2="207.925" y2="8.333" gradientUnits="userSpaceOnUse"><stop stop-color="#E34A4E"/><stop offset=".506" stop-color="#C43336"/><stop offset="1" stop-color="#9D071E"/></linearGradient><linearGradient id="paint1_linear" x1="33.645" y1="63.115" x2="44.086" y2="82.986" gradientUnits="userSpaceOnUse"><stop offset=".103" stop-color="#00ABCC"/><stop offset=".714" stop-color="#4EC5E0"/></linearGradient><linearGradient id="paint2_linear" x1="209.349" y1="163.857" x2="190.376" y2="182.83" gradientUnits="userSpaceOnUse"><stop stop-color="#E34A4E"/><stop offset=".506" stop-color="#C43336"/><stop offset="1" stop-color="#9D071E"/></linearGradient><linearGradient id="paint3_linear" x1="9.679" y1="42.709" x2="-9.294" y2="23.736" gradientUnits="userSpaceOnUse"><stop stop-color="#E34A4E"/><stop offset=".506" stop-color="#C43336"/><stop offset="1" stop-color="#9D071E"/></linearGradient><clipPath id="clip0"><path fill="#fff" d="M0 0h218.8v175.8H0z"/></clipPath></defs></svg>