<svg width="224" height="253" fill="none" xmlns="http://www.w3.org/2000/svg"><g clip-path="url(#clip0)"><path d="M61.5 137.2h45.8m-45.8 16.1h45.8" stroke="#354154" stroke-width="4.503" stroke-miterlimit="10" stroke-linecap="round" stroke-linejoin="round"/><path d="M103.6 36.3H65.1c-1.7 0-3 1.4-3 3v16.5c0 3.5 2.9 6.4 6.4 6.4h.1c2.7 0 5-1.7 6-4.1 1.6-3.8 5.4-6.5 9.8-6.5s8.2 2.7 9.8 6.5c1 2.5 3.3 4.1 6 4.1h.1c3.5 0 6.4-2.9 6.4-6.4V39.4c0-1.7-1.4-3.1-3.1-3.1z" fill="url(#paint0_linear)" stroke="#354154" stroke-width="4.503" stroke-miterlimit="10"/><path d="M193.2 197c3.7 0 6.7-3 6.7-6.8l-.2-112.6-13.5.1.2 112.5c0 3.8 3.1 6.8 6.8 6.8z" fill="url(#paint1_linear)" stroke="#354154" stroke-width="4.503" stroke-miterlimit="10"/><path d="M193.1 49.8c3.7 0 6.7 3 6.7 6.7v21.1h-13.5v-21c0-3.7 3.1-6.8 6.8-6.8zm1 147.2v14.5M151.8 49.8h14.1v131.3c0 17.6-14.3 31.9-31.9 31.9H28.5v-14.1" stroke="#354154" stroke-width="4.503" stroke-miterlimit="10" stroke-linecap="round" stroke-linejoin="round"/><path d="M51.8 36.3H16.9v162.6H123c4.9 0 8.8-4 8.8-8.8V179H143c4.9 0 8.8-4 8.8-8.8V36.3h-34.9" stroke="#354154" stroke-width="4.503" stroke-miterlimit="10" stroke-linecap="round" stroke-linejoin="round"/><path d="M84.4 189.7H24.3v-60l60.1 60z" fill="url(#paint2_linear)"/><path d="M84.4 95.6V125M68 93.9h32.7M68 86.1h32.7" stroke="#354154" stroke-width="4.503" stroke-miterlimit="10" stroke-linecap="round" stroke-linejoin="round"/><path d="M19 252.4l-19-19 19-18.9v37.9z" fill="url(#paint3_linear)"/><path d="M176.8 0l18.9 19-18.9 18.9V0z" fill="url(#paint4_linear)"/><path d="M61.5 228.3h159.9" stroke="#354154" stroke-width="4.503" stroke-miterlimit="10" stroke-linecap="round" stroke-linejoin="round"/></g><defs><linearGradient id="paint0_linear" x1="62.072" y1="49.326" x2="106.661" y2="49.326" gradientUnits="userSpaceOnUse"><stop stop-color="#E34A4E"/><stop offset=".506" stop-color="#C43336"/><stop offset="1" stop-color="#9D071E"/></linearGradient><linearGradient id="paint1_linear" x1="186.263" y1="137.313" x2="199.913" y2="137.313" gradientUnits="userSpaceOnUse"><stop stop-color="#E34A4E"/><stop offset=".506" stop-color="#C43336"/><stop offset="1" stop-color="#9D071E"/></linearGradient><linearGradient id="paint2_linear" x1="13.944" y1="180.932" x2="59.651" y2="156.917" gradientUnits="userSpaceOnUse"><stop offset=".103" stop-color="#00ABCC"/><stop offset=".714" stop-color="#4EC5E0"/></linearGradient><linearGradient id="paint3_linear" x1="9.513" y1="223.964" x2="28.486" y2="242.937" gradientUnits="userSpaceOnUse"><stop stop-color="#E34A4E"/><stop offset=".506" stop-color="#C43336"/><stop offset="1" stop-color="#9D071E"/></linearGradient><linearGradient id="paint4_linear" x1="186.268" y1="28.519" x2="167.295" y2="9.546" gradientUnits="userSpaceOnUse"><stop stop-color="#E34A4E"/><stop offset=".506" stop-color="#C43336"/><stop offset="1" stop-color="#9D071E"/></linearGradient><clipPath id="clip0"><path fill="#fff" d="M0 0h223.7v252.4H0z"/></clipPath></defs></svg>