<svg width="40" height="40" fill="none" xmlns="http://www.w3.org/2000/svg"><path d="M4.765 0A4.762 4.762 0 000 4.765v30.47A4.762 4.762 0 004.765 40h30.47A4.76 4.76 0 0040 35.235V4.765A4.76 4.76 0 0035.235 0H4.765zm5.716 3.809h2.285l1.524 3.808 1.523-3.808h2.288l-2.863 6.666v3.81h-1.905v-3.818c-.572-1.535-2.468-5.702-2.858-6.658h.006zM20 6.667a2.821 2.821 0 012.22.902c.41.469.638 1.22.638 2.21v1.393c0 .99-.19 1.676-.59 2.142a2.993 2.993 0 01-2.257.97 2.953 2.953 0 01-2.257-.97c-.409-.466-.61-1.152-.61-2.142V9.79c0-.99.22-1.752.639-2.22.524-.647 1.255-.903 2.217-.903zm3.809 0h1.907v5.716a.54.54 0 00.578.372c.392 0 .886-.457 1.326-.962V6.667h1.905v7.617h-1.908V12.97c-.773.754-1.43 1.318-2.296 1.29-.63-.02-1.067-.249-1.287-.706a3.073 3.073 0 01-.228-1.326l.003-5.56zM20 8.207a.906.906 0 00-.37.08.984.984 0 00-.587.894v2.674a.983.983 0 00.283.688.94.94 0 00.304.206.902.902 0 00.74 0 .976.976 0 00.584-.894V9.18A.968.968 0 0020 8.207zm0 8.935s6.39 0 10.659.305c.598.068 1.896.076 3.058 1.267.914.897 1.208 2.953 1.208 2.953.224 1.277.328 2.572.31 3.868v2.257a20.641 20.641 0 01-.308 3.868s-.282 2.057-1.207 2.954c-1.163 1.19-2.46 1.2-3.058 1.267-4.269.305-10.668.313-10.668.313s-7.925-.076-10.362-.305c-.677-.124-2.2-.084-3.363-1.266-.914-.906-1.208-2.963-1.208-2.963a20.635 20.635 0 01-.296-3.87v-2.258c-.02-1.296.084-2.59.308-3.867 0 0 .282-2.057 1.207-2.954 1.163-1.19 2.46-1.2 3.058-1.267C13.601 17.142 20 17.142 20 17.142zM7.617 20.954v1.884h1.905v9.545h1.907v-9.545h1.904v-1.884H7.617zm12.383 0v11.429h1.904v-1.191c.601.742 1.386 1.19 2.026 1.19a1.594 1.594 0 001.58-1.128c.15-.524.22-1.068.206-1.614v-2.615a7.541 7.541 0 00-.248-2.051 1.577 1.577 0 00-1.538-1.165c-.934 0-1.312.476-2.026 1.312v-4.167H20zm-6.667 2.855v6.367c-.02.494.055.987.22 1.453a1.245 1.245 0 001.245.754c.696 0 1.594-.491 2.344-1.301v1.3h1.904V23.81h-1.904v5.972c-.418.565-1.03.97-1.41.97a.446.446 0 01-.494-.377V23.81h-1.905zm16.22 0a2.97 2.97 0 00-2.257.874c-.398.42-.632 1.11-.632 2v2.91c0 .888.257 1.509.654 1.923.545.565 1.292.847 2.277.847.985 0 1.755-.3 2.274-.906.224-.257.376-.568.44-.903a8.76 8.76 0 00.07-1.05h-1.904v.763a.968.968 0 01-1.907 0V28.55h3.812v-1.924c0-.891-.22-1.543-.613-1.975a2.885 2.885 0 00-2.214-.843zm-.028 1.38a.889.889 0 01.953.798v1.267h-1.907v-1.267a.889.889 0 01.954-.799zm-6.458.281c.519 0 .742.32.742 1.312v2.621c0 .993-.223 1.338-.742 1.338a1.992 1.992 0 01-1.163-.505V26.07a2.22 2.22 0 011.163-.598v-.003z" fill="#F2F2F2"/></svg>