<svg width="191" height="204" fill="none" xmlns="http://www.w3.org/2000/svg"><path d="M57.739 55.424a55.137 55.137 0 0116.394-38.526 55.126 55.126 0 0193.854 38.526" stroke="#354154" stroke-width="2" stroke-linecap="round" stroke-linejoin="round"/><path d="M159.719 87.299h7.564a12.357 12.357 0 0012.355-12.357v-7.49a12.354 12.354 0 00-12.355-12.357h-7.564v37.984a28.975 28.975 0 01-8.491 20.499 28.987 28.987 0 01-20.5 8.486h-5.77M66.07 87.299h-7.563A12.356 12.356 0 0146.15 74.942v-7.49a12.357 12.357 0 0112.356-12.357h7.563v32.204z" stroke="#354154" stroke-width="2" stroke-linecap="round" stroke-linejoin="round"/><path d="M126.439 111.848h-8.551a3.923 3.923 0 00-3.923 3.923v2.369a3.923 3.923 0 003.923 3.924h8.551a3.924 3.924 0 003.924-3.924v-2.369a3.923 3.923 0 00-3.924-3.923z" fill="url(#paint0_linear)" stroke="#354154" stroke-width="2" stroke-miterlimit="10"/><path d="M144.556 194.046H190l-6.009-39.485a29.604 29.604 0 00-10.16-16.994 24.18 24.18 0 00-9.96-5.222l-15.977-4.199m-71.279 64.912h-40.67l6.008-38.497a29.6 29.6 0 0110.17-16.994 24.165 24.165 0 0110.06-5.25l25.607-7.436a5.206 5.206 0 001.564-.731 5.61 5.61 0 002.433-3.997l1.17-10.162a39.886 39.886 0 01-8.358-8.963 45.828 45.828 0 01-4.509-8.497l-2.231-5.232m40.066-38.561s-6.192 21.448-42.07 17.47a31.438 31.438 0 01-.191-13.537 44.946 44.946 0 019.62-19.783c7.381-8.644 17.514-13.976 28.708-13.976 12.74 0 24.117 6.915 31.598 17.744a46.451 46.451 0 013.612 6.402l2.945 6.092m-39.252 144.896v-38.954m0-.001l14.934-14.935m-14.934 14.935L97.96 140.156m18.163-99.201s2.652 24.365 33.536 23.524M24.723 128.741a11.196 11.196 0 0015.255 2.474 11.197 11.197 0 00-.877-19.009 11.188 11.188 0 00-5.443-1.419" stroke="#354154" stroke-width="2" stroke-linecap="round" stroke-linejoin="round"/><path d="M34.509 121.991a.863.863 0 01-.533.795.861.861 0 11-.318-1.655.862.862 0 01.851.86v0z" stroke="#354154" stroke-width="2" stroke-linecap="round" stroke-linejoin="round"/><path d="M33.658 100.881v21.11l-16.672 12.604" stroke="#354154" stroke-width="2" stroke-linecap="round" stroke-linejoin="round"/><path d="M43.106 153.271a32.656 32.656 0 01-42.066-31.72 32.66 32.66 0 0142.914-30.564 32.657 32.657 0 0121.485 38.659M1 121.991h4.417m56.473 0h4.418M33.658 89.33v4.426m0 56.47v4.418" stroke="#354154" stroke-width="2" stroke-linecap="round" stroke-linejoin="round"/><path d="M13.566 120.875a20.28 20.28 0 00.658 6.348l3.082-2.168a16.648 16.648 0 0110.252-18.549v-3.658a20.118 20.118 0 00-13.992 18.027z" fill="url(#paint1_linear)"/><path d="M51.739 163.671h25.296v25.299L51.74 163.671z" fill="url(#paint2_linear)"/><path d="M146.989 187.451l17.349-17.35 17.358 17.35h-34.707z" fill="url(#paint3_linear)"/><path d="M1.037 203h159.131" stroke="#354154" stroke-width="2" stroke-linecap="round" stroke-linejoin="round"/><path d="M1 1V0H0v1h1zm189 0h1V0h-1v1zm0 202v1h1v-1h-1zM1 203H0v1h1v-1zM1 2h189V0H1v2zm188-1v202h2V1h-2zm1 201H1v2h189v-2zM2 203V1H0v202h2z" fill="#fff"/><defs><linearGradient id="paint0_linear" x1="113.965" y1="116.951" x2="130.372" y2="116.951" gradientUnits="userSpaceOnUse"><stop stop-color="#E34A4E"/><stop offset=".51" stop-color="#C43336"/><stop offset="1" stop-color="#9D071E"/></linearGradient><linearGradient id="paint1_linear" x1="920.403" y1="4220.03" x2="1135.94" y2="4220.03" gradientUnits="userSpaceOnUse"><stop stop-color="#E34A4E"/><stop offset=".51" stop-color="#C43336"/><stop offset="1" stop-color="#9D071E"/></linearGradient><linearGradient id="paint2_linear" x1="81.416" y1="167.375" x2="62.155" y2="177.499" gradientUnits="userSpaceOnUse"><stop offset=".1" stop-color="#00ABCC"/><stop offset=".71" stop-color="#4EC5E0"/></linearGradient><linearGradient id="paint3_linear" x1="-23366.4" y1="-100232" x2="-24024.9" y2="-99574" gradientUnits="userSpaceOnUse"><stop stop-color="#E34A4E"/><stop offset=".51" stop-color="#C43336"/><stop offset="1" stop-color="#9D071E"/></linearGradient></defs></svg>