<svg width="224" height="253" fill="none" xmlns="http://www.w3.org/2000/svg"><path d="M61.5 137.2h45.8m-45.8 16.1h45.8" stroke="#B1B3B5" stroke-width="4.503" stroke-miterlimit="10" stroke-linecap="round" stroke-linejoin="round"/><path d="M103.6 36.3H65.1c-1.7 0-3 1.4-3 3v16.5c0 3.5 2.9 6.4 6.4 6.4h.1c2.7 0 5-1.7 6-4.1 1.6-3.8 5.4-6.5 9.8-6.5s8.2 2.7 9.8 6.5c1 2.5 3.3 4.1 6 4.1h.1c3.5 0 6.4-2.9 6.4-6.4V39.4c0-1.7-1.4-3.1-3.1-3.1zM193.2 197c3.7 0 6.7-3 6.7-6.8l-.2-112.6-13.5.1.2 112.5c0 3.8 3.1 6.8 6.8 6.8z" stroke="#B1B3B5" stroke-width="4.503" stroke-miterlimit="10"/><path d="M193.1 49.8c3.7 0 6.7 3 6.7 6.7v21.1h-13.5v-21c0-3.7 3.1-6.8 6.8-6.8zm1 147.2v14.5M151.8 49.8h14.1v131.3c0 17.6-14.3 31.9-31.9 31.9H28.5v-14.1" stroke="#B1B3B5" stroke-width="4.503" stroke-miterlimit="10" stroke-linecap="round" stroke-linejoin="round"/><path d="M51.8 36.3H16.9v162.6H123c4.9 0 8.8-4 8.8-8.8V179H143c4.9 0 8.8-4 8.8-8.8V36.3h-34.9" stroke="#B1B3B5" stroke-width="4.503" stroke-miterlimit="10" stroke-linecap="round" stroke-linejoin="round"/><path d="M84.4 189.7H24.3v-60l60.1 60z" fill="#B1B3B5"/><path d="M84.4 95.6V125M68 93.9h32.7M68 86.1h32.7" stroke="#B1B3B5" stroke-width="4.503" stroke-miterlimit="10" stroke-linecap="round" stroke-linejoin="round"/><path d="M19 252.4l-19-19 19-18.9v37.9zM176.8 0l18.9 19-18.9 18.9V0z" fill="#B1B3B5"/><path d="M61.5 228.3h159.9" stroke="#B1B3B5" stroke-width="4.503" stroke-miterlimit="10" stroke-linecap="round" stroke-linejoin="round"/></svg>