<svg width="219" height="176" fill="none" xmlns="http://www.w3.org/2000/svg"><g clip-path="url(#clip0)"><path d="M34.5 50.7V14.4h165.3v99.7H93" stroke="#B1B3B5" stroke-width="4.503" stroke-miterlimit="10" stroke-linecap="round" stroke-linejoin="round"/><path d="M201.8 14.4H32.5c-3.4 0-6.1-2.7-6.1-6.1 0-3.4 2.7-6.1 6.1-6.1h169.3c3.4 0 6.1 2.7 6.1 6.1 0 3.4-2.7 6.1-6.1 6.1z" stroke="#B1B3B5" stroke-width="4.503" stroke-miterlimit="10"/><path d="M89 62H21.2s-5.5 38.8 23.4 68.5h21C94.4 100.8 89 62 89 62z" stroke="#B1B3B5" stroke-width="4.503" stroke-miterlimit="10" stroke-linecap="round" stroke-linejoin="round"/><path d="M90 76h17.8s-1.8 24.3-23.9 24.3M20.1 76H2.3s1.8 24.3 23.9 24.3m11 73.3s-.4-4.9 2.5-9.4c1.1-1.6 2.2-2.7 3.3-3.4 3.3-2.1 6.9-5.7 7.5-9.8 1-7.9-5.9-13.5-5.9-13.5l.3-7.1m20.5 0l.3 7.1s-7 5.6-6 13.5c.5 4.2 4.1 7.7 7.5 9.8 1.1.7 2.3 1.7 3.3 3.4 2.9 4.5 2.5 9.4 2.5 9.4m-44.2 0h52.5m37.5-89.2l26.8-26.8 11.8 11.8 26.8-26.8" stroke="#B1B3B5" stroke-width="4.503" stroke-miterlimit="10" stroke-linecap="round" stroke-linejoin="round"/><path d="M172.4 42.6h11.8v11.8" stroke="#B1B3B5" stroke-width="4.503" stroke-miterlimit="10" stroke-linecap="round" stroke-linejoin="round"/><path d="M29.8 93.7V67.6h26.1L29.8 93.7zm151.1 79.6l18.9-19 19 19h-37.9zM.2 14.2l19 19-19 18.9V14.2z" fill="#B1B3B5"/><path d="M84 138.8h131.6" stroke="#B1B3B5" stroke-width="4.503" stroke-miterlimit="10" stroke-linecap="round" stroke-linejoin="round"/></g><defs><clipPath id="clip0"><path fill="#fff" d="M0 0h218.8v175.8H0z"/></clipPath></defs></svg>