<svg width="40" height="40" fill="none" xmlns="http://www.w3.org/2000/svg"><path d="M34.29 0H5.71A5.725 5.725 0 000 5.71v28.58A5.725 5.725 0 005.71 40h28.58A5.725 5.725 0 0040 34.29V5.71A5.725 5.725 0 0034.29 0zM11.666 33.332H4.999V15.001h6.668v18.331zm-3.334-20.5c-1.998 0-3.334-1.335-3.334-3 0-1.83 1.336-3.164 3.334-3.164 1.999 0 3.334 1.335 3.334 3 0 1.83-1.335 3.165-3.334 3.165zM35 33.332h-6.668v-9.998C28.332 20.664 26.497 20 26 20c-.496 0-2.667.333-2.667 3.334v9.998h-6.668V15.001h6.668v2.667c1.002-1.502 2.667-2.667 5.832-2.667C32.33 15 35 17.499 35 23.334v9.998z" fill="#F2F2F2"/></svg>