<svg width="262" height="213" fill="none" xmlns="http://www.w3.org/2000/svg"><g clip-path="url(#clip0)"><path d="M226.7 58.6H37.9V26.8c0-5.9 4.7-10.6 10.6-10.6h165.9c6.8 0 12.3 5.5 12.3 12.3v30.1z" fill="url(#paint0_linear)"/><path d="M138.8 171.7H48.3c-5.7 0-10.4-4.6-10.4-10.4V27.8c0-5.7 4.6-10.4 10.4-10.4h168c5.7 0 10.4 4.6 10.4 10.4v116.9" stroke="#354154" stroke-width="4.503" stroke-miterlimit="10" stroke-linecap="round" stroke-linejoin="round"/><path d="M63.3 37.8c0-1-.8-1.8-1.8-1.8s-1.8.8-1.8 1.8.8 1.8 1.8 1.8 1.8-.8 1.8-1.8zm20.3 0c0-1-.8-1.8-1.8-1.8s-1.8.8-1.8 1.8.8 1.8 1.8 1.8 1.8-.8 1.8-1.8zm20.2 0c0-1-.8-1.8-1.8-1.8s-1.8.8-1.8 1.8.8 1.8 1.8 1.8 1.8-.8 1.8-1.8z" stroke="#fff" stroke-width="4.503" stroke-miterlimit="10" stroke-linecap="round" stroke-linejoin="round"/><path d="M37.9 58.6h188.8" stroke="#354154" stroke-width="4.503" stroke-miterlimit="10" stroke-linecap="round" stroke-linejoin="round"/><path d="M133.3 38h75.2" stroke="#fff" stroke-width="4.503" stroke-miterlimit="10" stroke-linecap="round" stroke-linejoin="round"/><path d="M177 132.4v-32c0-3.2-2.6-5.9-5.9-5.9-3.2 0-5.9 2.6-5.9 5.9V142m23.5-9.6v-9.1c0-3.2-2.6-5.9-5.9-5.9m17.7 15v-5.2c0-3.2-2.6-5.9-5.9-5.9m8.1 69c-.2-10.8.6-12.9.6-12.9s.5-2.7 1.6-6.1c3.4-10.6 5.3-21.6 5.5-32.8v-5c0-3.2-2.6-5.9-5.9-5.9m-44.5-.7c-1.3-1.5-3.2-2.4-5.3-2.4-3.5 0-5.3 2-5.9 3.9-.1.2-.1.4-.1.5-.5 2-.2 4 .6 5.9 1.4 3.3 3.5 10.1 2.3 19.1-.7 5.2.5 10.5 3.5 14.8 1.9 2.7 4.2 5.9 6.5 8.7 0 0 5.8 5.8 5.8 12.8m37.3-62.5h-4.2m-5.9-6.4h-6.2m-5.5-3.9H177m-16.2 92.9v-16.7c0-1.8 1.5-3.3 3.3-3.3H206c1.8 0 3.3 1.5 3.3 3.3v16.7M60 97.5V81.9h55.2v15.6" stroke="#354154" stroke-width="4.503" stroke-miterlimit="10" stroke-linecap="round" stroke-linejoin="round"/><path d="M115.2 111.6H60v10.6h55.2v-10.6z" fill="url(#paint1_linear)"/><path d="M115.2 134.9H60v10.6h55.2v-10.6z" fill="url(#paint2_linear)"/><path d="M0 187.8l19-18.9 18.9 18.9H0z" fill="url(#paint3_linear)"/><path d="M261.9 0l-19 19L224 0h37.9z" fill="url(#paint4_linear)"/><path d="M17 2.3h160" stroke="#354154" stroke-width="4.503" stroke-miterlimit="10" stroke-linecap="round" stroke-linejoin="round"/></g><defs><linearGradient id="paint0_linear" x1="37.946" y1="37.38" x2="226.693" y2="37.38" gradientUnits="userSpaceOnUse"><stop stop-color="#E34A4E"/><stop offset=".506" stop-color="#C43336"/><stop offset="1" stop-color="#9D071E"/></linearGradient><linearGradient id="paint1_linear" x1="60.017" y1="116.906" x2="115.208" y2="116.906" gradientUnits="userSpaceOnUse"><stop offset=".103" stop-color="#00ABCC"/><stop offset=".714" stop-color="#4EC5E0"/></linearGradient><linearGradient id="paint2_linear" x1="60.017" y1="140.232" x2="115.208" y2="140.232" gradientUnits="userSpaceOnUse"><stop offset=".103" stop-color="#00ABCC"/><stop offset=".714" stop-color="#4EC5E0"/></linearGradient><linearGradient id="paint3_linear" x1="28.506" y1="178.386" x2="9.533" y2="197.359" gradientUnits="userSpaceOnUse"><stop stop-color="#E34A4E"/><stop offset=".506" stop-color="#C43336"/><stop offset="1" stop-color="#9D071E"/></linearGradient><linearGradient id="paint4_linear" x1="233.424" y1="9.507" x2="252.397" y2="-9.466" gradientUnits="userSpaceOnUse"><stop stop-color="#E34A4E"/><stop offset=".506" stop-color="#C43336"/><stop offset="1" stop-color="#9D071E"/></linearGradient><clipPath id="clip0"><path fill="#fff" d="M0 0h261.9v212.5H0z"/></clipPath></defs></svg>