<svg width="208" height="224" fill="none" xmlns="http://www.w3.org/2000/svg"><g clip-path="url(#clip0)"><path d="M170.2 44.4h5.9c12.2 0 22 9.9 22 22V96c0 12.2-9.9 22-22 22h-5.9c-12.2 0-22-9.9-22-22V66.4c0-12.1 9.8-22 22-22z" fill="url(#paint0_linear)" stroke="#354154" stroke-width="4.503" stroke-miterlimit="10"/><path d="M173.2 44.4v14.2m6.1 6.2c0-3.4-2.7-6.1-6.1-6.1-3.4 0-6.1 2.7-6.1 6.1 0 3.4 2.7 6.1 6.1 6.1 3.3 0 6.1-2.8 6.1-6.1z" stroke="#fff" stroke-width="4.503" stroke-miterlimit="10" stroke-linecap="round" stroke-linejoin="round"/><path d="M34.3 147v3.2c0 11 8.9 20 20 20h8.5c11 0 20-8.9 20-20V147l-.3-11v-.2c0-6.8 2.6-13.5 7.5-18.3 8.2-8.1 13.2-19.3 13.2-31.7 0-25.7-21.7-46.4-47.9-44.6-21.8 1.5-39.6 19-41.4 40.8-1.1 13.7 3.9 26.2 12.7 35.1 4.9 5 7.9 11.6 7.9 18.7v.2h23.9m-11.6 34.7v4.1c0 6.5 5.3 11.8 11.8 11.8 6.5 0 11.8-5.3 11.8-11.8v-4.2M58.5 30.8V20.5m-18.9 14l-3.5-9.6M23.2 44.5l-6.6-7.9m-5.5 22.9l-8.8-5.2m75.1-19.8l3.5-9.6m12.9 19.6l6.6-7.9m5.5 22.9l8.9-5.2M145.9 173c1.3-9.5-.9-19-6.2-23.1-9.6-7.4-25.1.8-24 16 1.6 23.5 38.4 30.9 52.4-9.1 3.5-9.9 5.1-20.5 5.1-31v-7.9" stroke="#354154" stroke-width="4.503" stroke-miterlimit="10" stroke-linecap="round" stroke-linejoin="round"/><path d="M58.5 186.5c.4 1.9 1.4 3.9 2.7 5.8 4.8 7.5 12.9 12.3 21.7 13.6 18.1 2.8 34.6-1.2 47.9-9.7 2.8-1.8 6.9-5.4 9-8.1.9-1.1 1.7-2.3 2.4-3.6" stroke="#354154" stroke-width="4.503" stroke-miterlimit="10" stroke-linecap="round" stroke-linejoin="round"/><path d="M43.8 59.7h38.6v38.6L43.8 59.7z" fill="url(#paint1_linear)"/><path d="M40.2 204.5l-19 19-18.9-19h37.9z" fill="url(#paint2_linear)"/><path d="M169.9 19l19-19 19 19h-38z" fill="url(#paint3_linear)"/><path d="M7.1 3.8h136.8" stroke="#354154" stroke-width="4.503" stroke-miterlimit="10" stroke-linecap="round" stroke-linejoin="round"/></g><defs><linearGradient id="paint0_linear" x1="148.16" y1="81.235" x2="198.156" y2="81.235" gradientUnits="userSpaceOnUse"><stop stop-color="#E34A4E"/><stop offset=".506" stop-color="#C43336"/><stop offset="1" stop-color="#9D071E"/></linearGradient><linearGradient id="paint1_linear" x1="89.129" y1="65.348" x2="59.697" y2="80.812" gradientUnits="userSpaceOnUse"><stop offset=".103" stop-color="#00ABCC"/><stop offset=".714" stop-color="#4EC5E0"/></linearGradient><linearGradient id="paint2_linear" x1="11.733" y1="213.984" x2="30.706" y2="195.01" gradientUnits="userSpaceOnUse"><stop stop-color="#E34A4E"/><stop offset=".506" stop-color="#C43336"/><stop offset="1" stop-color="#9D071E"/></linearGradient><linearGradient id="paint3_linear" x1="198.414" y1="9.527" x2="179.441" y2="28.5" gradientUnits="userSpaceOnUse"><stop stop-color="#E34A4E"/><stop offset=".506" stop-color="#C43336"/><stop offset="1" stop-color="#9D071E"/></linearGradient><clipPath id="clip0"><path fill="#fff" d="M0 0h207.9v223.5H0z"/></clipPath></defs></svg>