<svg width="40" height="40" fill="none" xmlns="http://www.w3.org/2000/svg"><path d="M27.5 0h-15A12.503 12.503 0 000 12.498v14.999A12.5 12.5 0 0012.5 40h15a12.505 12.505 0 0011.55-7.72 12.52 12.52 0 00.95-4.784V12.499A12.5 12.5 0 0027.5 0zm8.751 27.497a8.749 8.749 0 01-8.75 8.75H12.5a8.751 8.751 0 01-8.751-8.75v-15a8.749 8.749 0 018.75-8.749H27.5a8.752 8.752 0 018.751 8.75v14.999z" fill="#F2F2F2"/><path d="M20 10a10.003 10.003 0 00-9.812 11.95 10 10 0 0013.638 7.288A10 10 0 0020 10zm0 16.246a6.25 6.25 0 116.253-6.249A6.257 6.257 0 0120 26.247zm10.75-15.664a1.332 1.332 0 100-2.665 1.332 1.332 0 000 2.665z" fill="#F2F2F2"/></svg>