<svg width="80" height="74" fill="none" xmlns="http://www.w3.org/2000/svg"><path d="M32.928 36.994l4.715 4.61 4.689 4.609 4.688 4.61 19.182.037v4.94a43.455 43.455 0 01-19.143 4.313c-18.189 0-32.929-10.355-32.929-23.123 0-12.769 14.74-23.124 32.929-23.124 7.135 0 13.742 1.597 19.135 4.304l3.43-3.386 3.411-3.352 3.389-3.353C68.372 3.051 58.159 0 47.037 0 21.062 0 0 16.565 0 36.994c0 20.428 21.061 36.993 47.038 36.993 12.838 0 25.426-3.352 32.962-8.091V36.994H32.928z" fill="#C43336"/><path d="M80 36.994v28.914C72.464 70.652 59.876 74 47.038 74 21.06 73.987 0 57.422 0 36.994 0 16.565 21.061 0 47.038 0c11.12 0 21.334 3.034 29.386 8.109l-3.389 3.352c-7.174-4.27-16.198-6.818-26.002-6.818-23.376-.017-42.327 14.474-42.327 32.35 0 17.877 18.951 32.368 42.331 32.368a68.99 68.99 0 0016.156-2.04c5.021-1.258 9.377-2.934 12.105-4.74V41.603H37.643l-4.715-4.61H80z" fill="#9D071E"/><path d="M70.597 46.242v12.961c-6.232 3.328-14.642 5.544-23.56 5.544-20.78 0-37.63-12.42-37.63-27.745 0-15.325 16.85-27.745 37.63-27.745 8.479 0 16.296 2.07 22.592 5.548l-3.431 3.378c-5.392-2.707-12-4.304-19.135-4.304-18.188 0-32.928 10.355-32.928 23.123 0 12.769 14.74 23.123 32.928 23.123a43.455 43.455 0 0019.143-4.312v-4.949l-19.181-.037-4.69-4.61 28.262.025z" fill="#E34A4E"/><path d="M32.941 29.472h1.334v5.795h-1.334v-5.795zm3.875 1.098h-1.62v-1.098h4.574v1.098h-1.62v4.697h-1.334V30.57zm5.315 3.964l.75-.893c.398.36.91.573 1.45.604.554 0 .827-.214.827-.558 0-.343-.333-.482-.853-.691l-.767-.319a1.704 1.704 0 01-.855-.6 1.657 1.657 0 01-.334-.98c0-.959.852-1.726 2.101-1.726a2.748 2.748 0 011.893.759l-.67.838a1.946 1.946 0 00-1.223-.453c-.46 0-.754.189-.754.52 0 .33.388.482.9.683l.75.302c.344.098.647.306.859.59.212.286.322.632.313.985 0 .96-.819 1.794-2.221 1.794a3.27 3.27 0 01-2.166-.855zm5.359-1.953v-3.11h1.334v3.244c0 1.136.362 1.525 1.023 1.525.66 0 1.044-.39 1.044-1.525v-3.243h1.279v3.109c0 1.944-.802 2.79-2.328 2.79-1.526 0-2.353-.846-2.353-2.79zm6.044-3.109h2.024c1.3 0 2.345.456 2.345 1.864 0 1.409-1.057 1.966-2.306 1.966h-.73v1.965h-1.333v-5.795zm1.982 2.79c.733 0 1.083-.322 1.083-.926 0-.603-.397-.838-1.117-.838h-.614v1.752l.648.013zm3.406-2.79h2.024c1.3 0 2.345.456 2.345 1.864 0 1.409-1.057 1.966-2.306 1.966h-.73v1.965h-1.333v-5.795zm1.965 2.79c.733 0 1.082-.322 1.082-.926 0-.603-.396-.838-1.117-.838h-.613v1.752l.648.013zm3.145.084c0-1.894 1.087-2.98 2.677-2.98s2.677 1.095 2.677 2.98c0 1.886-1.087 3.026-2.677 3.026s-2.677-1.136-2.677-3.026zm3.986 0c0-1.165-.503-1.848-1.309-1.848-.805 0-1.313.683-1.313 1.848s.508 1.895 1.313 1.895c.806 0 1.309-.734 1.309-1.895zm2.477-2.874h2.13c1.25 0 2.273.419 2.273 1.806s-1.023 1.902-2.272 1.902h-.789v2.096h-1.334l-.008-5.804zm2.011 2.669c.704 0 1.079-.293 1.079-.863 0-.57-.375-.767-1.079-.767h-.677v1.63h.677zm-.11.696l.92-.839 1.88 3.27h-1.522l-1.278-2.431zm4.629-2.267h-1.62v-1.098h4.578v1.098h-1.62v4.697H77.03l-.004-4.697zM7.4 10.384a3.626 3.626 0 01-1.386-.27 3.576 3.576 0 01-1.172-.778 3.695 3.695 0 01-.784-1.181 4.104 4.104 0 010-3.051c.182-.441.448-.844.784-1.186a3.576 3.576 0 011.172-.777c.439-.18.91-.272 1.386-.27.49-.003.975.09 1.428.276a3.6 3.6 0 011.16.771c.337.342.604.745.788 1.186.2.484.299 1.003.29 1.525a3.834 3.834 0 01-.29 1.526c-.184.44-.451.84-.789 1.181A3.64 3.64 0 017.4 10.384zm0-.704c.389 0 .774-.073 1.134-.218.348-.14.662-.351.92-.62.267-.279.476-.606.614-.964a3.58 3.58 0 000-2.48c-.14-.36-.348-.69-.614-.973a2.74 2.74 0 00-.92-.641 2.985 2.985 0 00-2.28 0 2.74 2.74 0 00-.9.641 3.23 3.23 0 00-.605.972 3.58 3.58 0 000 2.481c.14.355.345.681.605.964.252.267.558.478.9.62.363.146.753.22 1.146.218zM6.002 8.498V4.643h1.475a1.98 1.98 0 011.07.28c.15.11.27.256.344.424.075.169.103.354.082.536 0 .228-.066.45-.192.642-.123.192-.307.34-.524.419l.908 1.554h-.891l-.67-1.316H6.8v1.316h-.797zm.797-1.944h.503c.554 0 .852-.218.852-.65a.619.619 0 00-.174-.456.893.893 0 00-.623-.172H6.8v1.278z" fill="#4D4D4F"/></svg>