<svg width="103" height="24" fill="none" xmlns="http://www.w3.org/2000/svg"><g clip-path="url(#clip0)" fill-rule="evenodd" clip-rule="evenodd"><path d="M18.847 14.734c.11 0 .202.033.276.097.074.065.144.134.208.209.065.074.134.143.208.208.075.064.17.097.286.097a.496.496 0 00.31-.097c.084-.065.163-.134.238-.208a2.36 2.36 0 01.237-.209.492.492 0 01.31-.097c.064 0 .129.012.193.034a.451.451 0 01.16.092.27.27 0 01.082.146.304.304 0 01-.028.193c-.13.265-.314.477-.552.635-.24.158-.569.237-.988.237-.414 0-.729-.08-.945-.237a1.122 1.122 0 01-.43-.635.318.318 0 01.096-.329.482.482 0 01.34-.136zm-.746 1.734a.623.623 0 01.61.746 32.876 32.876 0 01-.46 2.169 70.22 70.22 0 01-.49 1.83h.04c.226-.49.426-.896.6-1.22.175-.322.33-.603.465-.842l1.105-2.015c.11-.206.266-.369.469-.489.204-.12.425-.179.664-.179.2 0 .363.076.489.228.125.152.17.328.13.527L20.581 23.2a.922.922 0 01-.315.527.867.867 0 01-.576.209.563.563 0 01-.267-.063.627.627 0 01-.32-.398.607.607 0 01-.005-.276c.071-.368.148-.739.229-1.113.08-.375.159-.736.237-1.085.077-.349.153-.675.227-.978l.189-.785h-.039c-.11.278-.246.585-.411.92-.165.336-.341.68-.528 1.032-.188.351-.381.705-.581 1.06l-.572 1.017a1.311 1.311 0 01-1.153.668.631.631 0 01-.484-.233.674.674 0 01-.126-.241.592.592 0 01-.009-.28l1.133-5.967a.875.875 0 01.31-.538.888.888 0 01.581-.208z" fill="#322F31"/><path d="M59.229 4.782c-.302-.074-.605-.145-.906-.223-.599-.155-1.195-.321-1.795-.47-.646-.16-1.292-.322-1.945-.453-.711-.143-1.433-.234-2.143-.383-1.191-.25-2.401-.332-3.606-.466-.12-.013-.241-.032-.362-.035-1.868-.043-3.736-.061-5.596.145-1.355.15-2.71.31-4.06.496-.689.095-1.368.256-2.05.393-.682.136-1.367.26-2.043.423-.483.116-.955.28-1.427.438-.124.041-.24.127-.338.215-.217.194-.234.484-.006.662.222.172.48.308.74.419.969.412 1.945.808 2.918 1.26-.09 0-.185.015-.272-.003-.812-.178-1.623-.366-2.435-.542-.636-.137-1.276-.252-1.91-.394-.575-.128-1.147-.276-1.718-.423-.235-.06-.45-.156-.619-.347-.228-.258-.216-.619.048-.833.374-.305.84-.406 1.28-.552a24.36 24.36 0 011.608-.474 36.245 36.245 0 012.075-.482c1.233-.24 2.465-.51 3.71-.66 1.958-.238 3.927-.378 5.903-.347 1.366.022 2.733.02 4.099.059.559.016 1.118.1 1.673.178.78.11 1.559.225 2.332.37.58.11 1.151.258 1.72.411 1.167.313 2.334.628 3.493.967.561.164 1.105.386 1.657.582l-.025.069zm26.803 5.573c.134-.266.307-.235.47-.199 1.108.246 2.214.496 3.32.746 1.15.259 2.27.622 3.367 1.048 1.192.463 2.382.939 3.543 1.475.844.39 1.643.878 2.452 1.34.164.095.387.202.31.516-.189 0-.394.044-.57-.008-.65-.192-1.289-.425-1.936-.626-.808-.25-1.622-.484-2.433-.723a64.845 64.845 0 00-1.044-.302c-.64-.178-1.29-.327-1.92-.534a12.132 12.132 0 01-1.552-.63c-1.192-.585-2.371-1.197-3.553-1.804-.157-.082-.298-.196-.454-.3zm-79.164.965c-.063.83-.277 1.683-.805 2.438-.017.025-.02.063-.042.08-.148.12-.272.317-.496.254-.205-.058-.284-.224-.339-.435-.164-.63-.046-1.242.102-1.842.092-.375.296-.724.465-1.078.064-.133.166-.25.26-.365.116-.143.248-.3.452-.243.225.064.32.275.36.48.041.207.029.423.043.712z" fill="#EE403D"/><path d="M8.1 8.916c1-.074 2-.137 2.998-.205 1.076-.073 2.15-.169 3.227-.216 1.425-.062 2.853-.116 4.28-.12 1.533-.003 3.066.052 4.599.091a40.45 40.45 0 011.819.09c.65.046 1.3.11 1.949.174 1.01.1 2.025.175 3.03.32 1.003.145 2.002.337 2.992.554a67.99 67.99 0 013.392.829c1.135.31 2.256.675 3.385 1.01.178.053.364.08.546.12-1.008-.627-2.044-1.177-3.085-1.718-.118-.061-.236-.096-.262-.243.63-.05 1.235-.1 1.84-.145 1.27-.095 2.541-.188 3.813-.28 1.256-.09 2.512-.184 3.77-.267 1.074-.071 2.15-.127 3.227-.196 1.317-.084 2.635-.174 3.952-.262l.318-.02c1.273-.08 2.545-.163 3.817-.24.289-.017.577-.014.866-.03 1.395-.075 2.788-.168 4.184-.225a94.844 94.844 0 013.734-.086c2.232-.002 4.464.022 6.695.044 1.322.012 2.644.019 3.964.07 1.456.056 2.912.138 4.364.25.936.071 1.87.196 2.8.335.838.125 1.67.291 2.502.455 1.069.21 2.136.427 3.2.662.53.117 1.053.272 1.574.428 1.011.304 2.028.59 3.022.943.779.277 1.525.644 2.287.969 1.223.52 2.354 1.205 3.431 1.971.379.269.669.601.81 1 .23-.05.485-.075.747-.034a3.7 3.7 0 01.78.226c-.138-.713-.56-1.33-1.241-1.843a16.92 16.92 0 00-1.808-1.188 44.483 44.483 0 00-2.762-1.451c-.747-.358-1.522-.659-2.296-.955-.888-.34-1.777-.681-2.687-.957-1.126-.342-2.271-.626-3.413-.918a30.43 30.43 0 00-2.038-.457 39.294 39.294 0 00-2.246-.335c-.767-.095-1.538-.162-2.307-.238-.181-.018-.364-.02-.546-.031-1.166-.072-2.333-.198-3.5-.208-4.222-.035-8.444-.113-12.664.076-2.078.094-4.157.176-6.235.276-1.652.08-3.303.178-4.955.274-1.47.085-2.94.181-4.409.269-1.182.07-2.365.123-3.547.205-1.816.126-3.631.274-5.448.406-.786.057-1.575.089-2.362.144-1.197.084-2.392.183-3.587.263a1.831 1.831 0 01-.54-.065c-.734-.177-1.466-.361-2.198-.548-1.133-.287-2.288-.448-3.442-.614-.345-.05-.689-.118-1.035-.152-.695-.067-1.393-.1-2.086-.176-1.425-.157-2.854-.155-4.277-.068-1.347.082-2.69.244-4.032.392-1.084.12-2.17.245-3.247.414-1.272.199-2.537.442-3.803.677-.999.185-1.994.387-2.991.582l.014.093c.374-.04.746-.094 1.121-.121z" fill="#322F31"/><path d="M2.309 14.923c.293-.04.714-.016 1.048.016a51.99 51.99 0 01.326-1.803c.13-.636.283-1.269.463-1.892.17-.595.365-1.184.593-1.76.402-1.018 1.255-1.52 2.246-1.804.682-.195 1.383-.329 2.08-.465.772-.15 1.55-.274 2.325-.408 1.073-.185 2.148-.368 3.221-.555 1.014-.178 2.031-.344 3.04-.546 1.024-.203 2.04-.446 3.06-.668 1.064-.232 2.132-.448 3.193-.695.897-.21 1.785-.462 2.68-.68 1.16-.282 2.323-.551 3.486-.821.929-.216 1.857-.43 2.79-.632a31.09 31.09 0 011.514-.292c.688-.116 1.378-.213 2.065-.322.839-.131 1.673-.281 2.513-.393.571-.076 1.149-.105 1.724-.146 1.089-.076 2.178-.18 3.27-.212 2.509-.074 5.004.148 7.498.385.286.027.57.083.856.12.901.119 1.805.217 2.703.358.807.126 1.608.294 2.41.452 1.143.225 2.286.447 3.425.689.547.116 1.085.274 1.627.41.865.216 1.735.413 2.594.648.785.215 1.558.475 2.34.706.11.033.234.019.427.031-.104-.062-.137-.09-.176-.104-.994-.348-1.985-.706-2.985-1.038-1.13-.374-2.267-.73-3.404-1.084a42.696 42.696 0 00-4.117-1.09l-3.111-.64c-.223-.046-.444-.105-.668-.13C52.37.44 51.377.324 50.38.227c-.89-.086-1.782-.192-2.676-.21-1.714-.031-3.431-.01-5.147-.007-.303 0-.609.006-.91.043-1.413.174-2.838.208-4.254.41-.94.133-1.89.245-2.83.392-1.075.168-2.134.437-3.2.666-1.271.273-2.544.545-3.814.826-1.211.268-2.42.546-3.629.823-1.179.27-2.355.552-3.536.814-1.078.24-2.16.46-3.24.684-1.17.242-2.34.488-3.514.712-.773.147-1.556.246-2.33.389-1.176.216-2.346.461-3.523.677-.893.163-1.781.35-2.63.677-.606.234-1.173.542-1.606 1.055-.552.653-.787 1.455-1.055 2.236-.269.785-.485 1.588-.708 2.388a19.69 19.69 0 00-.374 1.542 32.2 32.2 0 00-.177 1.024c.14-.091.619-.383 1.082-.445zm2.231 1.713a1.473 1.473 0 01.775.936c.057.206.063.422.02.65l-.923 4.81a.956.956 0 01-.333.565.93.93 0 01-.617.223.617.617 0 01-.29-.067.727.727 0 01-.223-.175.613.613 0 01-.133-.252.656.656 0 01-.01-.295l.979-5.122H2.597l-.979 5.122a.956.956 0 01-.333.566.933.933 0 01-.617.223.618.618 0 01-.29-.067.743.743 0 01-.223-.175.624.624 0 01-.134-.252.663.663 0 01-.009-.295l.923-4.808c.043-.247.13-.477.26-.69a2.26 2.26 0 01.47-.55 2.079 2.079 0 011.35-.49h.894c.228 0 .438.048.631.143zm3.616 3.326c.234 0 .426-.05.575-.152.15-.101.266-.226.352-.375a1.54 1.54 0 00.176-.48c.031-.171.047-.326.047-.466 0-.215-.052-.39-.156-.522-.105-.133-.262-.2-.471-.2h-.171a.335.335 0 00-.124.02l-.418 2.175h.19zm-1.454-1.634c.05-.26.138-.503.261-.732.124-.228.278-.427.462-.598.183-.172.39-.305.622-.4.231-.095.48-.14.746-.133.12.007.253.02.4.038.145.02.292.051.44.095.15.044.294.107.434.185.139.08.265.18.38.3.164.178.283.39.356.637.073.247.11.466.11.655 0 .28-.031.537-.09.775a2.87 2.87 0 01-.57 1.15c-.125.148-.247.27-.367.366-.266.209-.57.362-.913.46a3.55 3.55 0 01-.978.148h-.286l-.342 1.777a.946.946 0 01-.327.551.914.914 0 01-.604.219.642.642 0 01-.637-.77l.903-4.723zm6.976 1.349l.02-.371c.005-.146.013-.3.023-.465.01-.165.02-.332.028-.5.01-.167.018-.318.024-.45h-.019c-.038.132-.082.283-.133.45-.05.168-.1.335-.147.5a27.684 27.684 0 01-.262.826l-.522 1.511h.922l.066-1.501zm-1.625 3.412a1.103 1.103 0 01-.409.531c-.19.133-.402.2-.636.2a.473.473 0 01-.252-.067.595.595 0 01-.18-.166.516.516 0 01-.09-.228.481.481 0 01.037-.261l2.29-5.721c.108-.267.281-.48.518-.642.238-.161.5-.242.784-.242a.9.9 0 01.67.276.922.922 0 01.271.674v5.598a.76.76 0 01-.223.551.747.747 0 01-.556.228.734.734 0 01-.693-.475.69.69 0 01-.048-.304l.019-.704h-1.236l-.266.752zm77.169-6.596a.611.611 0 01.598.732 29.994 29.994 0 01-.451 2.13 53.744 53.744 0 01-.48 1.795h.039c.221-.481.417-.88.588-1.198.172-.316.324-.592.457-.827l1.084-1.976c.107-.203.26-.363.46-.48.2-.117.416-.176.651-.176.197 0 .356.075.48.223.124.15.166.322.128.518l-1.121 5.864a.903.903 0 01-.309.518.85.85 0 01-.565.204.555.555 0 01-.262-.062.611.611 0 01-.313-.389.602.602 0 01-.005-.271c.07-.361.144-.725.223-1.093.08-.367.157-.722.233-1.064.076-.342.15-.662.224-.96.073-.298.134-.555.184-.77h-.037c-.108.273-.242.574-.404.903-.162.33-.334.667-.518 1.012s-.374.692-.57 1.04l-.561.998a1.251 1.251 0 01-.475.48 1.286 1.286 0 01-.656.176.63.63 0 01-.608-.741l1.112-5.854a.858.858 0 01.304-.528.871.871 0 01.57-.204zM27.268 23.82a.597.597 0 01-.599-.694l.148-1.087a49.834 49.834 0 01.28-1.834c.056-.333.13-.734.218-1.203h-.047c-.115.336-.216.63-.305.884s-.172.485-.251.694c-.08.209-.157.404-.233.584l-.238.566-.266.627c-.095.222-.2.478-.313.77a.88.88 0 01-.808.541.571.571 0 01-.419-.17.606.606 0 01-.18-.42 35.622 35.622 0 00-.023-.76c-.01-.22-.018-.428-.024-.622l-.02-.556a40.807 40.807 0 01-.01-2.138h-.018a42.201 42.201 0 01-.446 2.152 1519.385 1519.385 0 00-.485 2 .817.817 0 01-.305.48.857.857 0 01-.541.186.487.487 0 01-.238-.057.54.54 0 01-.276-.608l1.502-5.835c.063-.24.193-.439.39-.593a1.04 1.04 0 01.665-.234c.24 0 .445.083.613.247a.843.843 0 01.261.6c.013.734.03 1.453.052 2.157.023.703.027 1.384.015 2.043h.019c.177-.672.41-1.369.698-2.091.289-.722.572-1.448.85-2.177.09-.233.238-.422.448-.565.209-.142.44-.214.694-.214a.729.729 0 01.723.836l-.742 5.797a.817.817 0 01-.267.5.76.76 0 01-.522.194z" fill="#322F31"/><path d="M36.867 23.82a.6.6 0 01-.6-.694c.058-.418.107-.78.148-1.087a51.487 51.487 0 01.498-3.037h-.046c-.115.336-.216.63-.305.884a26.283 26.283 0 01-.484 1.278l-.238.566-.266.627c-.095.222-.2.478-.314.77a.88.88 0 01-.807.541.571.571 0 01-.419-.17.607.607 0 01-.18-.42 34.766 34.766 0 00-.024-.76c-.01-.22-.018-.428-.023-.622l-.02-.556a40.807 40.807 0 01-.01-2.138h-.019a42.474 42.474 0 01-.446 2.152c-.07.296-.142.598-.218.908l-.267 1.093a.818.818 0 01-.304.48.856.856 0 01-.542.185.49.49 0 01-.237-.057.54.54 0 01-.276-.608l1.502-5.835c.063-.24.193-.439.39-.593a1.04 1.04 0 01.665-.234c.24 0 .445.083.613.247a.842.842 0 01.26.6c.014.734.031 1.453.053 2.157.023.703.027 1.384.015 2.043h.019c.177-.672.41-1.369.698-2.091.288-.722.572-1.448.85-2.177.089-.233.238-.422.447-.565.21-.142.441-.214.694-.214a.713.713 0 01.547.247.718.718 0 01.147.267c.031.1.041.209.029.323l-.742 5.796a.813.813 0 01-.266.5.758.758 0 01-.523.194zm4.304-1.312c.152 0 .29-.076.414-.228.123-.152.234-.35.332-.594.099-.243.184-.516.257-.817.073-.3.133-.599.18-.893.048-.295.083-.569.105-.822.023-.254.033-.457.033-.608 0-.07-.005-.148-.014-.233a.735.735 0 00-.066-.238.552.552 0 00-.143-.185.348.348 0 00-.232-.076c-.147 0-.283.065-.41.194a1.89 1.89 0 00-.341.519 4.61 4.61 0 00-.267.736 10.176 10.176 0 00-.313 1.691 8.3 8.3 0 00-.038.737c0 .076.005.162.014.257a.892.892 0 00.066.266.587.587 0 00.148.209.384.384 0 00.266.085h.01zm-.237 1.398c-.418 0-.754-.09-1.007-.267a1.828 1.828 0 01-.58-.641 2.523 2.523 0 01-.266-.794 4.607 4.607 0 01-.066-.722 7.998 7.998 0 01.375-2.39c.123-.39.28-.756.47-1.098.19-.342.415-.636.675-.884a2.66 2.66 0 01.75-.513c.28-.126.599-.19.96-.19.42 0 .753.081 1.003.242.25.162.442.362.575.6.133.237.22.489.261.755.041.266.062.507.062.722 0 .412-.031.833-.095 1.264a7.986 7.986 0 01-.285 1.245 6.08 6.08 0 01-.475 1.112 3.61 3.61 0 01-.666.874 2.334 2.334 0 01-.75.509c-.279.117-.59.176-.932.176h-.01zm4.466-5.892a.612.612 0 01-.494-.229.615.615 0 01-.133-.532.92.92 0 01.328-.546.912.912 0 01.594-.214h2.575c.101 0 .195.02.28.062a.594.594 0 01.215.171.72.72 0 01.123.247.61.61 0 01.01.28.917.917 0 01-.328.547.911.911 0 01-.594.214h-.475l-.97 5.017a.946.946 0 01-.337.566.949.949 0 01-.623.223.671.671 0 01-.637-.494.663.663 0 01-.009-.295l.97-5.017H45.4zm5.427 4.494c.152 0 .29-.076.413-.228.124-.152.234-.35.333-.594.098-.243.184-.516.256-.817a11.654 11.654 0 00.285-1.715c.023-.254.034-.457.034-.608 0-.07-.005-.148-.014-.233a.733.733 0 00-.067-.238.552.552 0 00-.143-.185.348.348 0 00-.232-.076.567.567 0 00-.409.194c-.127.13-.24.303-.342.519-.101.215-.19.46-.266.736a9.922 9.922 0 00-.195.846 9.337 9.337 0 00-.157 1.582c0 .076.005.162.015.257a.895.895 0 00.066.266.592.592 0 00.147.209.386.386 0 00.267.085h.009zm-.238 1.398c-.418 0-.754-.09-1.007-.267a1.827 1.827 0 01-.58-.641 2.523 2.523 0 01-.265-.794 4.56 4.56 0 01-.067-.722 8.059 8.059 0 01.375-2.39c.123-.39.28-.756.47-1.098.19-.342.415-.636.675-.884a2.65 2.65 0 01.75-.513c.28-.126.6-.19.96-.19.42 0 .753.081 1.003.242.25.162.443.362.575.6.133.237.22.489.261.755.042.266.062.507.062.722 0 .412-.03.833-.094 1.264a7.986 7.986 0 01-.286 1.245 6.08 6.08 0 01-.475 1.112 3.61 3.61 0 01-.665.874 2.336 2.336 0 01-.75.509c-.28.117-.59.176-.933.176h-.009zm6.101-3.944c.235 0 .426-.05.576-.152.148-.101.265-.226.35-.375.086-.149.145-.31.177-.48.032-.171.047-.326.047-.466 0-.215-.052-.39-.156-.522-.105-.133-.262-.2-.471-.2h-.17a.336.336 0 00-.124.02l-.419 2.175h.19zm-1.454-1.634c.05-.26.138-.503.262-.732a2.32 2.32 0 01.46-.598c.184-.172.392-.305.623-.4.231-.095.48-.14.746-.133.12.007.253.02.4.038.145.02.292.051.44.095.15.044.294.107.434.185a1.576 1.576 0 01.736.936c.073.248.11.467.11.656 0 .28-.03.537-.09.775a2.875 2.875 0 01-.57 1.15c-.124.148-.247.27-.367.366-.266.209-.57.362-.913.46a3.55 3.55 0 01-.978.148h-.286l-.341 1.777a.945.945 0 01-.328.551.914.914 0 01-.604.219.64.64 0 01-.627-.48.638.638 0 01-.01-.29l.903-4.723zm7.917 4.713a.976.976 0 01-.22.57.694.694 0 01-.522.266 1.15 1.15 0 01-.157.01h-.166c-.33 0-.615-.046-.855-.138a2.008 2.008 0 01-.608-.351 1.768 1.768 0 01-.4-.49 2.516 2.516 0 01-.228-.551 3.514 3.514 0 01-.105-.527 3.907 3.907 0 01-.028-.423c0-.482.036-.925.11-1.331.072-.405.17-.776.294-1.112a4.456 4.456 0 01.993-1.596 2.983 2.983 0 011.078-.718 3.383 3.383 0 011.194-.223c.032 0 .061.002.09.005a.736.736 0 00.09.005.48.48 0 01.261.09.61.61 0 01.176.204c.044.082.07.173.076.27a.762.762 0 01-.037.29.678.678 0 01-.357.433c-.18.092-.373.148-.575.167-.152.012-.314.07-.485.175-.17.105-.32.24-.446.404a3.92 3.92 0 00-.533 1.079c-.146.434-.218.942-.218 1.525 0 .412.067.743.204.993.136.25.363.375.68.375h.047a.64.64 0 01.46.162.53.53 0 01.187.437z" fill="#EE403D"/><path d="M67.81 16.493c.246 0 .462.083.646.247.183.165.29.37.323.618.019.203.043.426.07.67l.087.732.08.703c.026.225.038.423.038.594h.057a5.99 5.99 0 01.172-.599c.076-.228.157-.465.246-.712l.266-.737c.089-.244.169-.467.238-.67.089-.253.243-.457.461-.613a1.23 1.23 0 01.727-.233c.101 0 .193.026.276.076a.582.582 0 01.28.447.541.541 0 01-.052.285l-1.625 3.44a39.69 39.69 0 01-.646 1.307c-.21.402-.441.755-.694 1.06a2.34 2.34 0 01-.746.593 2.086 2.086 0 01-.936.205.509.509 0 01-.276-.072.66.66 0 01-.295-.423.763.763 0 01-.01-.266c.02-.164.1-.294.243-.39a2.56 2.56 0 01.452-.237c.159-.07.299-.184.423-.342.123-.158.216-.32.28-.485a1.38 1.38 0 00.061-.242.572.572 0 00-.004-.195l-.836-3.905a.633.633 0 01.005-.32.75.75 0 01.137-.274.7.7 0 01.551-.262zm5.786 0a.61.61 0 01.495.233.63.63 0 01.133.537l-.456 2.338h.142l1.198-2.319c.12-.24.295-.432.527-.575a1.41 1.41 0 01.755-.214c.096 0 .18.024.252.072a.49.49 0 01.157.68l-1.634 2.594c.138.145.248.386.327.722.08.335.135.801.167 1.396l.033.613c.01.18.02.344.033.49a.706.706 0 01-.157.532.6.6 0 01-.489.228.919.919 0 01-.585-.214.83.83 0 01-.194-.237.697.697 0 01-.086-.3 6.87 6.87 0 01-.024-.46 51.437 51.437 0 00-.014-.556c-.013-.444-.055-.765-.128-.965-.073-.2-.208-.3-.404-.3h-.048l-.466 2.262a.983.983 0 01-.337.551.912.912 0 01-.603.22.634.634 0 01-.499-.234.644.644 0 01-.138-.537l1.112-5.787a.932.932 0 01.328-.551.91.91 0 01.603-.219zm5.599 3.469c.233 0 .425-.05.574-.152.15-.101.266-.226.352-.375a1.54 1.54 0 00.176-.48c.031-.171.047-.326.047-.466 0-.215-.052-.39-.157-.522-.104-.133-.261-.2-.47-.2h-.171a.332.332 0 00-.124.02l-.418 2.175h.19zm-1.455-1.634c.05-.26.138-.503.261-.732.124-.228.278-.427.461-.598.184-.172.392-.305.623-.4.23-.095.48-.14.746-.133.12.007.253.02.4.038.145.02.292.051.44.095.15.044.294.107.433.185a1.58 1.58 0 01.737.937c.073.247.11.466.11.655a3.031 3.031 0 01-.328 1.416c-.1.19-.21.36-.333.509-.124.148-.246.27-.366.366-.267.209-.57.362-.913.46a3.549 3.549 0 01-.978.148h-.285l-.342 1.777a.946.946 0 01-.328.551.915.915 0 01-.604.219.64.64 0 01-.627-.48.644.644 0 01-.01-.29l.903-4.723zm6.975 1.349c.007-.102.013-.225.019-.371l.024-.465.029-.5c.01-.167.016-.318.023-.45h-.019a28.15 28.15 0 01-.133.45c-.05.168-.1.335-.147.5-.047.164-.095.32-.142.465l-.12.361-.522 1.511h.922l.066-1.501zm-1.624 3.412a1.106 1.106 0 01-1.046.73.472.472 0 01-.252-.066.595.595 0 01-.18-.166.509.509 0 01-.09-.228.475.475 0 01.037-.261l2.29-5.721c.108-.267.28-.48.519-.642.237-.161.499-.242.783-.242a.9.9 0 01.67.276.922.922 0 01.272.674v5.598a.76.76 0 01-.224.551.747.747 0 01-.556.228.74.74 0 01-.741-.78l.019-.703h-1.236l-.265.752zm11.492-6.596c.1 0 .196.022.285.067a.734.734 0 01.228.176.629.629 0 01.133.252.675.675 0 01.01.294l-.41 2.119h1.246l.399-2.119a.945.945 0 01.337-.566.952.952 0 01.623-.223c.1 0 .196.022.285.067a.657.657 0 01.361.723l-1.093 5.748a.943.943 0 01-.337.566.949.949 0 01-.623.223.626.626 0 01-.29-.066.758.758 0 01-.223-.176.629.629 0 01-.134-.252.657.657 0 01-.009-.295l.4-2.166h-1.217l-.418 2.166a.95.95 0 01-.333.566.929.929 0 01-.617.223.622.622 0 01-.29-.066.746.746 0 01-.224-.176.62.62 0 01-.133-.252.66.66 0 01-.01-.295l1.103-5.749a.952.952 0 01.333-.566.934.934 0 01.618-.223zm6.661 3.184c.007-.102.013-.225.02-.371.006-.146.014-.3.023-.465a71.096 71.096 0 00.052-.95h-.018l-.133.45c-.051.168-.1.335-.148.5-.047.164-.095.32-.142.465-.048.146-.087.266-.12.361l-.522 1.511h.922l.066-1.501zm-1.624 3.412a1.105 1.105 0 01-1.046.73.472.472 0 01-.252-.066.593.593 0 01-.18-.166.508.508 0 01-.09-.228.481.481 0 01.037-.261l2.291-5.721c.107-.267.281-.48.518-.642.237-.161.499-.242.784-.242.266 0 .489.092.67.276.18.183.271.408.271.674v5.598a.76.76 0 01-.224.551.747.747 0 01-.556.228.733.733 0 01-.693-.475.676.676 0 01-.048-.304l.019-.704h-1.235l-.266.752z" fill="#322F31"/></g><defs><clipPath id="clip0"><path fill="#fff" d="M0 0h102.667v24H0z"/></clipPath></defs></svg>