<svg width="24" height="24" fill="none" xmlns="http://www.w3.org/2000/svg"><path d="M19.994 17.365l-4.982-5.093 4.044-4.135a3.97 3.97 0 003.773-1.094c1.122-1.146 1.43-2.794.958-4.235l-1.904 1.946c-.673.69-1.785.669-2.487-.048-.698-.715-.72-1.852-.047-2.541L21.252.219a3.96 3.96 0 00-4.142.98c-1.023 1.045-1.372 2.512-1.066 3.856L12 9.19 7.957 5.056c.305-1.343-.046-2.81-1.068-3.857A3.965 3.965 0 002.747.218L4.65 2.164c.674.69.654 1.827-.048 2.543-.7.715-1.81.736-2.486.049L.213 2.809c-.472 1.44-.163 3.089.96 4.235a3.967 3.967 0 003.773 1.092l4.042 4.132-4.982 5.092a3.179 3.179 0 00-2.523.954 3.38 3.38 0 000 4.71 3.207 3.207 0 004.604 0c.692-.709.992-1.657.934-2.584L12 15.35l4.982 5.093a3.35 3.35 0 00.933 2.582 3.206 3.206 0 004.606 0 3.383 3.383 0 000-4.708 3.19 3.19 0 00-2.527-.95zM4.226 22.36l-1.657-.452-.44-1.694 1.21-1.24 1.657.454.443 1.693-1.213 1.24zm17.203-.449l-1.656.451-1.213-1.24.443-1.692 1.656-.453 1.214 1.24-.444 1.694z" fill="#fff"/></svg>