<svg width="17" height="22" viewBox="0 0 17 22" fill="none" xmlns="http://www.w3.org/2000/svg">
<g opacity="0.3">
<path fill-rule="evenodd" clip-rule="evenodd" d="M10.3733 6.62669H15.9422L10.3733 1.05783V6.62669ZM9.3313 6.95453C9.3313 7.14395 9.40654 7.32561 9.54048 7.45955C9.67442 7.59349 9.85608 7.66874 10.0455 7.66874H15.5614V20.1977H1.43869V1.43862H9.3313V6.95453ZM5.22618 12.7602V13.7057H8.02732V16.5068H8.97278V13.7057H11.7739V12.7602H8.97278V9.95908H8.02732V12.7602H5.22618ZM11.3643 0.439108L16.5609 5.6357C16.6496 5.72433 16.7 5.84604 16.7 5.97172V20.8636C16.7 21.1254 16.4891 21.3364 16.2273 21.3364H0.772776C0.511047 21.3364 0.300049 21.1254 0.300049 20.8636V0.772715C0.300049 0.510986 0.511047 0.299988 0.772776 0.299988H11.0307C11.1554 0.299988 11.275 0.34977 11.3643 0.439108Z" fill="#3D3D3D"/>
</g>
</svg>
