<svg width="24" height="24" viewBox="0 0 24 24" fill="none" xmlns="http://www.w3.org/2000/svg">
<g opacity="0.8">
<path d="M17.2783 11.3136H17.2782H7.74977L4.84721 4.47597H20.7969C20.9959 4.47607 21.1909 4.5315 21.3602 4.63607C21.5295 4.74064 21.6664 4.89023 21.7556 5.06812C21.8447 5.246 21.8827 5.44518 21.8651 5.64339C21.8489 5.82753 21.7853 6.00409 21.681 6.15611L21.6553 6.19032L18.1365 10.882L18.1362 10.8825C18.0369 11.0164 17.9075 11.1252 17.7585 11.2001C17.6095 11.275 17.4451 11.3138 17.2783 11.3136ZM20.897 16.1053V16.0053H20.797H7.89471C7.61015 16.0053 7.33725 15.8923 7.13603 15.691C6.93741 15.4924 6.8247 15.2239 6.82183 14.9433L6.93399 14.4498L7.79984 12.6865H17.2781C17.2781 12.6865 17.2782 12.6865 17.2782 12.6865C17.6717 12.6867 18.0594 12.5918 18.4084 12.41C18.7568 12.2284 19.0564 11.9655 19.2816 11.6435L22.6974 7.0883C22.9878 6.72971 23.1709 6.29627 23.2255 5.83804C23.2801 5.37916 23.2036 4.9142 23.0049 4.49701C22.8061 4.07981 22.4932 3.72745 22.1025 3.48075C21.7117 3.23405 21.2591 3.10309 20.797 3.10304H4.26499L3.29503 0.818103L3.26917 0.757178H3.20298H0.857117H0.757117V0.857178V2.03011V2.13011H0.857117H2.36031L6.57672 12.0628L5.75336 13.7484C5.54765 14.1203 5.44237 14.5393 5.44791 14.9643C5.45347 15.3901 5.57012 15.8071 5.78631 16.174C6.0025 16.5409 6.31075 16.845 6.68055 17.0562C7.05034 17.2674 7.46886 17.3784 7.89471 17.3782C7.89473 17.3782 7.89474 17.3782 7.89476 17.3782H20.797H20.897V17.2782V16.1053ZM20.1806 19.0675C19.7219 18.6089 19.0998 18.3512 18.4511 18.3512C17.8024 18.3512 17.1803 18.6089 16.7216 19.0675C16.2629 19.5262 16.0052 20.1483 16.0052 20.797C16.0052 21.4457 16.2629 22.0678 16.7216 22.5265C17.1803 22.9852 17.8024 23.2429 18.4511 23.2429C19.0998 23.2429 19.7219 22.9852 20.1806 22.5265C20.6393 22.0678 20.897 21.4457 20.897 20.797C20.897 20.1483 20.6393 19.5262 20.1806 19.0675ZM17.6924 20.0383C17.8936 19.8371 18.1665 19.7241 18.4511 19.7241C18.7357 19.7241 19.0086 19.8371 19.2098 20.0383C19.411 20.2396 19.524 20.5125 19.524 20.797C19.524 21.0816 19.411 21.3545 19.2098 21.5557C19.0086 21.7569 18.7357 21.87 18.4511 21.87C18.1665 21.87 17.8936 21.7569 17.6924 21.5557C17.4912 21.3545 17.3782 21.0816 17.3782 20.797C17.3782 20.5125 17.4912 20.2396 17.6924 20.0383ZM9.6242 19.0675C9.16551 18.6089 8.54339 18.3512 7.89471 18.3512C7.24603 18.3512 6.62391 18.6089 6.16522 19.0675C5.70653 19.5262 5.44885 20.1483 5.44885 20.797C5.44885 21.4457 5.70653 22.0678 6.16522 22.5265C6.62391 22.9852 7.24603 23.2429 7.89471 23.2429C8.54339 23.2429 9.16551 22.9852 9.6242 22.5265C10.0829 22.0678 10.3406 21.4457 10.3406 20.797C10.3406 20.1483 10.0829 19.5262 9.6242 19.0675ZM7.13603 20.0383C7.33725 19.8371 7.61015 19.7241 7.89471 19.7241C8.17927 19.7241 8.45217 19.8371 8.65339 20.0383C8.8546 20.2396 8.96764 20.5125 8.96764 20.797C8.96764 21.0816 8.8546 21.3545 8.65339 21.5557C8.45217 21.7569 8.17927 21.87 7.89471 21.87C7.61015 21.87 7.33725 21.7569 7.13603 21.5557C6.93482 21.3545 6.82178 21.0816 6.82178 20.797C6.82178 20.5125 6.93482 20.2396 7.13603 20.0383Z" fill="#E5007C" stroke="#E5007C" stroke-width="0.2"/>
</g>
</svg>
