<svg width="35" height="35" viewBox="0 0 35 35" fill="none" xmlns="http://www.w3.org/2000/svg">
<rect width="35" height="35" rx="3" fill="white"/>
<g clip-path="url(#clip0)">
<path d="M21.8462 16.4112H21.846H13.9167L11.5121 10.7466H24.7783C24.941 10.7466 25.1005 10.792 25.239 10.8775C25.3774 10.963 25.4894 11.0853 25.5623 11.2308C25.6352 11.3763 25.6662 11.5392 25.6519 11.7013C25.6386 11.8518 25.5867 11.996 25.5015 12.1203L25.4803 12.1485L22.548 16.0583L22.5476 16.0587C22.4664 16.1683 22.3607 16.2572 22.2388 16.3184C22.117 16.3797 21.9825 16.4114 21.8462 16.4112ZM24.8784 20.421V20.321H24.7784H14.0265C13.7938 20.321 13.5706 20.2286 13.406 20.064C13.244 19.902 13.1519 19.6832 13.1491 19.4545L13.2417 19.0471L13.9578 17.5887H21.846C21.846 17.5887 21.846 17.5887 21.846 17.5887C22.1766 17.5888 22.5024 17.5091 22.7956 17.3564C23.0883 17.2038 23.3399 16.983 23.5291 16.7126L26.3752 12.9171C26.6191 12.6159 26.7728 12.2518 26.8186 11.8669C26.8645 11.4814 26.8003 11.0908 26.6333 10.7403C26.4663 10.3898 26.2035 10.0937 25.8752 9.88645C25.5469 9.67918 25.1666 9.56916 24.7784 9.56912H11.0127L10.2087 7.67516L10.1829 7.61423H10.1167H8.1618H8.0618V7.71423V8.69168V8.79168H8.1618H9.40344L12.9098 17.0518L12.2272 18.4492C12.0545 18.7616 11.9661 19.1135 11.9708 19.4704C11.9755 19.8281 12.0735 20.1785 12.2551 20.4867C12.4367 20.795 12.6957 21.0505 13.0064 21.2279C13.3171 21.4054 13.6687 21.4986 14.0265 21.4984C14.0265 21.4984 14.0265 21.4984 14.0265 21.4984H24.7784H24.8784V21.3984V20.421ZM24.2765 22.8778C23.8911 22.4924 23.3685 22.2759 22.8235 22.2759C22.2785 22.2759 21.7558 22.4924 21.3704 22.8777C20.9851 23.2631 20.7686 23.7858 20.7686 24.3308C20.7686 24.8758 20.9851 25.3984 21.3704 25.7838C21.7558 26.1692 22.2785 26.3857 22.8235 26.3857C23.3685 26.3857 23.8911 26.1692 24.2765 25.7838C24.6619 25.3984 24.8784 24.8758 24.8784 24.3308C24.8784 23.7858 24.6619 23.2631 24.2765 22.8778ZM22.203 23.7103C22.3676 23.5458 22.5908 23.4533 22.8235 23.4533C23.0562 23.4533 23.2794 23.5458 23.4439 23.7103C23.6085 23.8749 23.7009 24.0981 23.7009 24.3308C23.7009 24.5635 23.6085 24.7867 23.4439 24.9512C23.2794 25.1158 23.0562 25.2082 22.8235 25.2082C22.5908 25.2082 22.3676 25.1158 22.203 24.9512C22.0385 24.7867 21.946 24.5635 21.946 24.3308C21.946 24.0981 22.0385 23.8749 22.203 23.7103ZM15.4795 22.8777C15.0941 22.4924 14.5715 22.2759 14.0265 22.2759C13.4815 22.2759 12.9588 22.4924 12.5734 22.8777C12.1881 23.2631 11.9716 23.7858 11.9716 24.3308C11.9716 24.8758 12.1881 25.3984 12.5734 25.7838C12.9588 26.1692 13.4815 26.3857 14.0265 26.3857C14.5715 26.3857 15.0941 26.1692 15.4795 25.7838C15.8649 25.3984 16.0814 24.8758 16.0814 24.3308C16.0814 23.7858 15.8649 23.2631 15.4795 22.8777ZM13.406 23.7103C13.5706 23.5458 13.7938 23.4533 14.0265 23.4533C14.2592 23.4533 14.4824 23.5458 14.6469 23.7103C14.8115 23.8749 14.9039 24.0981 14.9039 24.3308C14.9039 24.5635 14.8115 24.7867 14.6469 24.9512C14.4824 25.1158 14.2592 25.2082 14.0265 25.2082C13.7938 25.2082 13.5706 25.1158 13.406 24.9512C13.2415 24.7867 13.149 24.5635 13.149 24.3308C13.149 24.0981 13.2415 23.8749 13.406 23.7103Z" fill="#E5007C" stroke="#E5007C" stroke-width="0.2"/>
</g>
<defs>
<clipPath id="clip0">
<rect width="19.131" height="20" fill="white" transform="translate(8.05518 7)"/>
</clipPath>
</defs>
</svg>
