<svg width="20" height="21" viewBox="0 0 20 21" fill="none" xmlns="http://www.w3.org/2000/svg">
<g opacity="0.5" clip-path="url(#clip0)">
<path fill-rule="evenodd" clip-rule="evenodd" d="M18.7089 17.3114L19.4103 16.5986L18.7032 17.3057L11.4187 10.0212L18.7032 2.73675C19.0865 2.35346 19.0865 1.71358 18.7032 1.3303C18.3199 0.947012 17.68 0.947012 17.2967 1.3303L10.0122 8.61479L2.72775 1.3303C2.50145 1.10399 2.25069 1.00641 2.03386 1.00032C1.82969 0.994573 1.58116 1.06676 1.3263 1.32527L1.32132 1.33032C0.87059 1.78105 0.916533 2.33198 1.3213 2.73675L8.60579 10.0212L1.3213 17.3057C0.884972 17.7421 0.905446 18.3028 1.31571 18.7066L1.32133 18.7121C1.72142 19.1122 2.33626 19.1037 2.72775 18.7122L10.0122 11.4277L17.2967 18.7122C17.68 19.0955 18.3199 19.0955 18.7032 18.7122L18.7088 18.7065C19.097 18.3245 19.097 17.6934 18.7089 17.3114Z" fill="#DADADA"/>
</g>
<defs>
<clipPath id="clip0">
<rect width="20" height="20.009" fill="white"/>
</clipPath>
</defs>
</svg>
