<svg width="18" height="18" viewBox="0 0 18 18" fill="none" xmlns="http://www.w3.org/2000/svg">
<g opacity="0.3">
<path d="M16.2 2V1.8H16H2H1.8V2V16V16.2H2H16H16.2V16V2ZM0.9 0.2H17.1C17.2387 0.2 17.4171 0.272757 17.5639 0.409059C17.7086 0.543436 17.8 0.718448 17.8 0.9V17.1C17.8 17.2254 17.7147 17.4025 17.5586 17.5586C17.4025 17.7147 17.2254 17.8 17.1 17.8H0.9C0.718448 17.8 0.543436 17.7086 0.409059 17.5639C0.272757 17.4171 0.2 17.2387 0.2 17.1V0.9C0.2 0.510457 0.510457 0.2 0.9 0.2ZM8.2 4.2H13.8V5.8H8.2V4.2ZM8.2 8.2H13.8V9.8H8.2V8.2ZM8.2 12.2H13.8V13.8H8.2V12.2ZM4.2 4.2H5.8V5.8H4.2V4.2ZM4.2 8.2H5.8V9.8H4.2V8.2ZM4.2 12.2H5.8V13.8H4.2V12.2Z" fill="#3D3D3D" stroke="#FEFEFE" stroke-width="0.4"/>
</g>
</svg>
