<svg width="25" height="25" viewBox="0 0 25 25" fill="none" xmlns="http://www.w3.org/2000/svg">
<path d="M17.0253 15.6671L13.8582 12.5L17.0253 9.33293C17.3979 8.96033 17.3979 8.34735 17.0253 7.97475C16.6527 7.60216 16.0397 7.60216 15.6671 7.97475L12.5001 11.1418L9.33299 7.97475C8.9604 7.60216 8.39549 7.54807 7.97482 7.97475C7.54814 8.40144 7.61424 8.97235 7.97482 9.33293L11.1419 12.5L7.97482 15.6671C7.57217 16.0697 7.5902 16.6466 7.97482 17.0252C8.35943 17.4099 8.9604 17.3978 9.33299 17.0252L12.5001 13.8582L15.6671 17.0252C16.0397 17.3978 16.6527 17.3978 17.0253 17.0252C17.4039 16.6526 17.4039 16.0397 17.0253 15.6671Z" fill="#8A8A8A"/>
<path d="M12.5 1.68269C15.3906 1.68269 18.107 2.80649 20.1502 4.84976C22.1935 6.89303 23.3173 9.60938 23.3173 12.5C23.3173 15.3906 22.1935 18.107 20.1502 20.1502C18.107 22.1935 15.3906 23.3173 12.5 23.3173C9.60938 23.3173 6.89303 22.1935 4.84976 20.1502C2.80649 18.107 1.68269 15.3906 1.68269 12.5C1.68269 9.60938 2.80649 6.89303 4.84976 4.84976C6.89303 2.80649 9.60938 1.68269 12.5 1.68269ZM12.5 0C5.59495 0 0 5.59495 0 12.5C0 19.405 5.59495 25 12.5 25C19.405 25 25 19.405 25 12.5C25 5.59495 19.405 0 12.5 0Z" fill="#8A8A8A"/>
</svg>
