<svg width="15" height="15" viewBox="0 0 15 15" fill="none" xmlns="http://www.w3.org/2000/svg">
<path d="M10.2152 9.40017L8.31492 7.49992L10.2152 5.59968C10.4387 5.37613 10.4387 5.00834 10.2152 4.78478C9.9916 4.56122 9.62381 4.56122 9.40025 4.78478L7.50001 6.68502L5.59977 4.78478C5.37621 4.56122 5.03727 4.52877 4.78487 4.78478C4.52886 5.04079 4.56852 5.38334 4.78487 5.59968L6.68511 7.49992L4.78487 9.40017C4.54328 9.64175 4.5541 9.9879 4.78487 10.2151C5.01564 10.4458 5.37621 10.4386 5.59977 10.2151L7.50001 8.31483L9.40025 10.2151C9.62381 10.4386 9.9916 10.4386 10.2152 10.2151C10.4423 9.99151 10.4423 9.62372 10.2152 9.40017Z" fill="#DADADA"/>
<path d="M7.5 1.00962C9.23438 1.00962 10.8642 1.68389 12.0901 2.90986C13.3161 4.13582 13.9904 5.76562 13.9904 7.5C13.9904 9.23438 13.3161 10.8642 12.0901 12.0901C10.8642 13.3161 9.23438 13.9904 7.5 13.9904C5.76562 13.9904 4.13582 13.3161 2.90986 12.0901C1.68389 10.8642 1.00962 9.23438 1.00962 7.5C1.00962 5.76562 1.68389 4.13582 2.90986 2.90986C4.13582 1.68389 5.76562 1.00962 7.5 1.00962ZM7.5 0C3.35697 0 0 3.35697 0 7.5C0 11.643 3.35697 15 7.5 15C11.643 15 15 11.643 15 7.5C15 3.35697 11.643 0 7.5 0Z" fill="#DADADA"/>
</svg>
