<svg width="22" height="22" viewBox="0 0 22 22" fill="none" xmlns="http://www.w3.org/2000/svg">
<g clip-path="url(#clip0)">
<path d="M20.5371 11.285C20.4486 11.1039 20.4486 10.8962 20.5371 10.7151L21.3577 9.03657C21.8145 8.10196 21.4525 6.988 20.5336 6.50044L18.8832 5.62474C18.7051 5.5303 18.583 5.36221 18.5482 5.16373L18.2254 3.32344C18.0457 2.29881 17.0979 1.61028 16.0681 1.75599L14.2181 2.01767C14.0185 2.04585 13.821 1.98166 13.6762 1.84154L12.3334 0.542515C11.5857 -0.180817 10.4144 -0.18086 9.66671 0.542515L8.32386 1.84167C8.17897 1.98183 7.98153 2.0459 7.78189 2.0178L5.93197 1.75612C4.9018 1.61033 3.95435 2.29894 3.77461 3.32357L3.45183 5.16378C3.41699 5.36229 3.29491 5.53034 3.11689 5.62483L1.46647 6.50053C0.547551 6.98805 0.185585 8.10209 0.642426 9.0367L1.46291 10.7152C1.55142 10.8963 1.55142 11.104 1.46291 11.2851L0.642383 12.9636C0.185542 13.8982 0.547508 15.0122 1.46643 15.4998L3.11685 16.3755C3.29491 16.4699 3.41699 16.638 3.45183 16.8365L3.77461 18.6768C3.93824 19.6095 4.73805 20.2637 5.65728 20.2636C5.74781 20.2636 5.83968 20.2572 5.93202 20.2442L7.78194 19.9825C7.98144 19.9542 8.17901 20.0185 8.3239 20.1586L9.66671 21.4576C10.0406 21.8194 10.5202 22.0002 11 22.0001C11.4797 22.0001 11.9596 21.8193 12.3333 21.4576L13.6762 20.1586C13.8211 20.0185 14.0186 19.9545 14.2181 19.9825L16.0681 20.2442C17.0984 20.3899 18.0457 19.7014 18.2254 18.6767L18.5482 16.8365C18.5831 16.638 18.7052 16.4699 18.8832 16.3755L20.5336 15.4998C21.4525 15.0122 21.8145 13.8982 21.3577 12.9636L20.5371 11.285ZM19.9389 14.3788L18.2885 15.2545C17.7623 15.5338 17.4014 16.0304 17.2985 16.6172L16.9757 18.4575C16.9149 18.8041 16.5944 19.037 16.2458 18.9878L14.3959 18.7261C13.8059 18.6425 13.2221 18.8324 12.794 19.2466L11.4511 20.5456C11.1982 20.7902 10.8019 20.7902 10.5489 20.5456L9.20608 19.2465C8.8442 18.8965 8.37112 18.7068 7.87724 18.7068C7.78675 18.7068 7.69553 18.7131 7.60418 18.7261L5.75426 18.9877C5.40595 19.037 5.08519 18.8041 5.02435 18.4574L4.70153 16.6171C4.59858 16.0303 4.23773 15.5337 3.71149 15.2545L2.06107 14.3788C1.75015 14.2138 1.62769 13.837 1.78225 13.5208L2.60278 11.8422C2.86437 11.307 2.86437 10.6931 2.60278 10.1579L1.78225 8.47936C1.62769 8.16315 1.75015 7.78627 2.06107 7.62132L3.71149 6.74562C4.23768 6.46637 4.59858 5.96974 4.70148 5.38296L5.02426 3.5427C5.08511 3.19603 5.40557 2.96315 5.75417 3.01239L7.60409 3.27407C8.19383 3.35755 8.77782 3.16776 9.206 2.75359L10.5488 1.45456C10.8018 1.2099 11.1981 1.2099 11.4511 1.45456L12.7939 2.75359C13.222 3.1678 13.8059 3.35755 14.3958 3.27407L16.2457 3.01239C16.594 2.9631 16.9148 3.19603 16.9756 3.5427L17.2984 5.383C17.4013 5.96978 17.7622 6.46645 18.2884 6.74562L19.9388 7.62132C20.2498 7.78627 20.3722 8.16315 20.2177 8.47936L19.3971 10.1579C19.1355 10.693 19.1355 11.307 19.3971 11.8422L20.2177 13.5207C20.3723 13.837 20.2498 14.2139 19.9389 14.3788Z" fill="#E5007C"/>
<path d="M15.6356 6.36428C15.3879 6.11653 14.9862 6.11653 14.7384 6.36428L6.36431 14.7384C6.11656 14.9862 6.11656 15.3879 6.36431 15.6356C6.48819 15.7595 6.65057 15.8215 6.81291 15.8215C6.97524 15.8215 7.13766 15.7596 7.2615 15.6356L15.6356 7.26155C15.8834 7.01375 15.8834 6.61208 15.6356 6.36428Z" fill="#E5007C"/>
<path d="M8.46226 5.29028C7.17956 5.29028 6.13599 6.33386 6.13599 7.61655C6.13599 8.89925 7.17956 9.94282 8.46226 9.94282C9.74495 9.94282 10.7885 8.89925 10.7885 7.61655C10.7885 6.33386 9.74495 5.29028 8.46226 5.29028ZM8.46226 8.67392C7.87922 8.67392 7.40489 8.19959 7.40489 7.61651C7.40489 7.03347 7.87922 6.55914 8.46226 6.55914C9.0453 6.55914 9.51967 7.03347 9.51967 7.61651C9.51963 8.19959 9.0453 8.67392 8.46226 8.67392Z" fill="#E5007C"/>
<path d="M13.5377 12.0576C12.255 12.0576 11.2114 13.1012 11.2114 14.3839C11.2114 15.6666 12.255 16.7102 13.5377 16.7102C14.8204 16.7102 15.864 15.6666 15.864 14.3839C15.864 13.1012 14.8204 12.0576 13.5377 12.0576ZM13.5377 15.4413C12.9547 15.4413 12.4803 14.9669 12.4803 14.3839C12.4803 13.8009 12.9546 13.3265 13.5377 13.3265C14.1207 13.3265 14.5951 13.8009 14.5951 14.3839C14.5951 14.9669 14.1207 15.4413 13.5377 15.4413Z" fill="#E5007C"/>
</g>
<defs>
<clipPath id="clip0">
<rect width="22" height="22" fill="white"/>
</clipPath>
</defs>
</svg>
