<svg xmlns="http://www.w3.org/2000/svg" preserveAspectRatio="xMinYMin meet" viewBox="0 0 100 60"><g fill="#E5007C"><path d="M46.5 20.5a1 1 0 01-2 0V9.743a1 1 0 012 0zm-24.3 8.88a1 1 0 01-2 0v-7.275a1 1 0 112 0v7.276zm-4.7-1.667a1 1 0 11-2 0v-7.608a1 1 0 112 0z"/><path d="M26.197 31.589a1 1 0 11-.92-1.776l15.757-8.157a11 11 0 017.789-.806l39.739 10.602a3 3 0 01.546 5.593l-18.8 9.211a11.013 11.013 0 01-7.83.708l-24.913-7.588a1 1 0 11.582-1.913l24.893 7.581a9 9 0 006.387-.584l18.801-9.211a1 1 0 00-.182-1.864L48.307 22.782a8.994 8.994 0 00-6.363.655L26.197 31.59z"/><path d="M88.809 34.89a1 1 0 112 0v5.847c0 1.13-.636 2.165-1.636 2.671l-18.705 9.71a11 11 0 01-8.151.716l-25.401-7.71a1 1 0 11.58-1.914l25.4 7.71c2.216.67 4.604.46 6.66-.581l18.704-9.71a1 1 0 00.549-.892v-5.848zm-72.022-5.301a2 2 0 00-1.396.143l-1.579.784 18.174 4.882a2 2 0 001.304-.092l2.022-.863zm.507-1.935l19.938 5.225a1.5 1.5 0 01.208 2.83l-3.366 1.436a4 4 0 01-2.607.184l-20.726-5.567c-.89-.24-1.01-1.452-.186-1.862l3.946-1.96a4 4 0 012.793-.286zM41.25 8.836a2 2 0 00-1.401.147L18.457 19.702l1.898.534a3 3 0 002.163-.208L43.549 9.436l-2.3-.6zm.504-1.935l3.582.934a1.5 1.5 0 01.296 2.79l-22.215 11.19a5 5 0 01-3.603.347l-3.142-.884a1.5 1.5 0 01-.265-2.785L38.953 7.195a4 4 0 012.801-.294z"/><path d="M36.347 34.527a1 1 0 112 0v11.11a1 1 0 01-.562.9l-3.953 1.93a4 4 0 01-2.825.26l-20.274-5.629a1 1 0 01-.733-.963V31.147a1 1 0 112 0v10.228l19.542 5.424a2 2 0 001.412-.13l3.393-1.656z"/><path d="M31.865 37.26a1 1 0 112 0v10a1 1 0 11-2 0zM45.29 13.172a1 1 0 01.508-1.934l21.434 5.64a1.5 1.5 0 01.208 2.831l-3.366 1.436a4 4 0 01-2.607.184l-16.183-4.347a1 1 0 01.519-1.931l16.183 4.347a2 2 0 001.304-.092l2.024-.864-20.025-5.27z"/><path d="M68.347 26.41a1 1 0 11-2 0v-7.883a1 1 0 112 0v7.884zm-6.482-5.15a1 1 0 112 0v3.66a1 1 0 01-2 0z"/></g></svg>