<svg xmlns="http://www.w3.org/2000/svg" preserveAspectRatio="xMinYMin meet" viewBox="0 0 100 60"><g fill="#E5007C"><path d="M44.699 12.919a9 9 0 00-6.292.62L14.319 25.383a1 1 0 00.172 1.86l38.59 10.812a9 9 0 006.327-.555l25.201-12.113a1 1 0 00-.175-1.868L44.699 12.92zm.515-1.933L84.95 21.588a3 3 0 01.527 5.602L60.274 39.304a11 11 0 01-7.733.678L13.951 29.17a3 3 0 01-.514-5.58l24.087-11.847a11 11 0 017.69-.757z"/><path d="M49.857 34.24c-5.829 0-12.481-3.072-13.016-6.993-.547-4.655 4.448-8.554 11.572-8.57 7.066-.016 12.715 3.884 13.164 8.557.313 3.9-5.86 7.007-11.72 7.007zm-.125-1.353c4.606 0 9.756-2.63 9.578-5.783-.27-3.902-4.826-7.087-10.766-7.074-6.006.013-10.02 3.193-9.463 7.06.51 3.195 6.068 5.797 10.65 5.797zm0 0c-3.318 0-6.05-1.683-6.101-3.76-.05-2.015 2.16-3.007 5.474-3.007s5.708.992 6.031 3.008c.333 2.076-2.086 3.76-5.404 3.76zm-.09-1.265c2.283 0 3.964-1.114 3.755-2.489-.17-1.124-1.546-1.66-4.192-1.66-2.647 0-3.909.536-3.842 1.66.081 1.375 1.997 2.489 4.28 2.489zm-5.002-5.178c.608 0 1.085-.303 1.065-.677s-.52-.677-1.117-.677c-.598 0-1.075.303-1.066.677.01.374.51.677 1.118.677zm8.805 0c-.608 0-1.14-.303-1.19-.677s.394-.677.992-.677 1.13.303 1.19.677-.384.677-.992.677zm5.172-3.138l-.87-1.3c.857-.166 1.361-.693 1.223-1.3-.17-.747-1.22-1.353-2.345-1.353-.941 0-1.678.429-1.798 1.027l-2.052-.325C53.041 18.856 54.504 18 56.353 18c2.21 0 4.31 1.212 4.69 2.707.31 1.212-.689 2.266-2.426 2.6zm-2.559-3.074c.347-.266.996-.27 1.455-.008.462.262.56.69.214.957l-.444.338c-.352.267-1.017.27-1.48.009-.46-.262-.542-.69-.189-.957zm-15.011-.004l.515.339c.406.264.408.692 0 .957-.41.264-1.075.264-1.48 0l-.516-.339c-.4-.264-.386-.692.024-.957.407-.264 1.057-.264 1.457 0zm3.313-.33c.183.357-.106.736-.649.848-.544.111-1.13-.087-1.304-.444-.272-.56-1.059-.949-1.956-.949-1.125 0-2.061.606-2.092 1.354-.023.548.467 1.035 1.231 1.246.533.146.777.544.541.888-.238.343-.87.503-1.41.357-1.543-.422-2.51-1.396-2.435-2.491C36.388 19.212 38.26 18 40.47 18c1.762 0 3.324.777 3.89 1.898zm6.051 7.95l.644.677c.432.45-.064.979-.923.979h-1.156c-.86 0-1.455-.53-1.107-.98l.515-.676c.374-.499 1.56-.499 2.027 0z"/><path d="M85.198 24.893a1 1 0 012 0v8.848a3 3 0 01-1.644 2.676L60.468 49.12a11 11 0 01-8.15.716l-38.36-11.59c-1.273-.384-2.201-1.56-2.201-2.879v-8.872a1 1 0 112 0v8.872c0 .412.329.829.779.965l38.36 11.59a9 9 0 006.669-.587L84.65 34.633a1 1 0 00.548-.892z"/><path d="M85.19 29.988a1 1 0 01.854 1.808 666.174 666.174 0 00-4.505 2.15 1 1 0 11-.868-1.801 668.12 668.12 0 014.52-2.157zm-7.223 3.463a1 1 0 11.873 1.8c-1.392.675-2.89 1.404-4.493 2.187a1 1 0 01-.878-1.798c1.605-.783 3.104-1.513 4.498-2.189zm-7.194 3.509a1 1 0 11.88 1.796c-1.424.697-2.92 1.431-4.487 2.203a1 1 0 01-.883-1.795 2151.66 2151.66 0 014.49-2.204zm-7.182 3.53a1 1 0 11.884 1.794 4542.4 4542.4 0 00-3.94 1.945c-.194.099-.391.191-.592.278a1 1 0 11-.795-1.835c.163-.07.325-.147.493-.232zm-7.061 2.874a1 1 0 01.214 1.988c-1.462.158-2.944.02-4.355-.406l-.979-.291a1 1 0 01.571-1.917l.983.293c1.157.35 2.37.461 3.566.333zm-7.424-1.482a1 1 0 11-.57 1.917c-1.64-.488-3.238-.962-4.792-1.422a1 1 0 11.568-1.918zm-7.67-2.274a1 1 0 01-.568 1.918c-1.651-.488-3.25-.96-4.795-1.414a1 1 0 01.564-1.919c1.547.455 3.146.927 4.798 1.415zm-7.676-2.26a1 1 0 01-.563 1.92c-1.667-.49-3.266-.957-4.797-1.403a1 1 0 11.56-1.92c1.532.446 3.132.914 4.8 1.403zm-7.683-2.24a1 1 0 01-.557 1.92c-1.693-.49-3.294-.952-4.801-1.384a1 1 0 11.55-1.922c1.51.432 3.112.894 4.808 1.386zm-7.695-2.21a1 1 0 11-.547 1.924 868.196 868.196 0 00-4.29-1.208 1 1 0 11.537-1.926c1.317.366 2.75.77 4.3 1.21z"/></g></svg>