<svg width="24" height="24" viewBox="0 0 24 24" fill="none" xmlns="http://www.w3.org/2000/svg">
<g opacity="0.3">
<path d="M21.6333 2.66667V2.36667H21.3333H2.66667H2.36667V2.66667V21.3333V21.6333H2.66667H21.3333H21.6333V21.3333V2.66667ZM1.2 0.3H22.8C22.9747 0.3 23.2049 0.392469 23.3959 0.569838C23.5838 0.74432 23.7 0.969338 23.7 1.2V22.8C23.7 22.9548 23.5929 23.1829 23.3879 23.3879C23.1829 23.5929 22.9548 23.7 22.8 23.7H1.2C0.969338 23.7 0.74432 23.5838 0.569838 23.3959C0.392469 23.2049 0.3 22.9747 0.3 22.8V1.2C0.3 0.699019 0.699019 0.3 1.2 0.3ZM10.9667 5.63333H18.3667V7.7H10.9667V5.63333ZM10.9667 10.9667H18.3667V13.0333H10.9667V10.9667ZM10.9667 16.3H18.3667V18.3667H10.9667V16.3ZM5.63333 5.63333H7.7V7.7H5.63333V5.63333ZM5.63333 10.9667H7.7V13.0333H5.63333V10.9667ZM5.63333 16.3H7.7V18.3667H5.63333V16.3Z" fill="#3D3D3D" stroke="#FEFEFE" stroke-width="0.6"/>
</g>
</svg>
