<svg xmlns="http://www.w3.org/2000/svg" preserveAspectRatio="xMinYMin meet" viewBox="0 0 100 60"><g fill="none" fill-rule="evenodd" stroke="#E5007C" stroke-width="2"><path d="M44.957 11.952l39.735 10.602a2 2 0 01.35 3.735l-25.2 12.113a10 10 0 01-7.03.617L14.22 28.207a2 2 0 01-.343-3.72L37.966 12.64a10 10 0 016.99-.689z"/><path stroke-linecap="round" d="M86.198 24.893v8.848a2 2 0 01-1.096 1.784L60.017 48.226a10 10 0 01-7.41.651l-38.36-11.589a2 2 0 01-1.422-1.914v-8.426"/><path d="M18.495 33.5c-.277 0-.53.028-.53.305 0 .276.253.695.53.695.276 0 .535.035.535-.24 0-.277-.26-.76-.535-.76zm10 3c-.277 0-.53.028-.53.305 0 .276.253.695.53.695.276 0 .535.035.535-.24 0-.277-.26-.76-.535-.76zm10 3c-.277 0-.53.028-.53.305 0 .276.253.695.53.695.276 0 .535.035.535-.24 0-.277-.26-.76-.535-.76zm11 3c-.277 0-.53.028-.53.305 0 .276.253.695.53.695.276 0 .535.035.535-.24 0-.277-.26-.76-.535-.76zm16-1.5c-.277 0-.53-.028-.53-.305 0-.276.253-.695.53-.695.276 0 .535-.035.535.24 0 .277-.26.76-.535.76zm10-5c-.277 0-.53-.028-.53-.305 0-.276.253-.695.53-.695.276 0 .535-.035.535.24 0 .277-.26.76-.535.76z"/><path stroke-linecap="round" d="M33.611 15.653l5.835 19.027m1.821-22.765l8.798 26.14m1.762-24.029l8.238 24.028M62.24 16.71l6.096 17.639m3.203-15.229l4.315 11.54M24.845 19.292l3.618 12.499"/></g></svg>