<svg xmlns="http://www.w3.org/2000/svg" preserveAspectRatio="xMinYMin meet" viewBox="0 0 100 60"><g fill="none" fill-rule="evenodd" stroke="#E5007C" stroke-width="2"><path d="M44.957 11.952l39.735 10.602a2 2 0 01.35 3.735l-25.2 12.113a10 10 0 01-7.03.617L14.22 28.207a2 2 0 01-.343-3.72L37.966 12.64a10 10 0 016.99-.689z"/><g stroke-linecap="round"><path d="M86.198 24.893v8.848a2 2 0 01-1.096 1.784L60.017 48.226a10 10 0 01-7.41.651l-38.36-11.589a2 2 0 01-1.422-1.914v-8.426"/><path d="M40.96 35.698c5.438 1.395 10.394-3.774 15.352-6.68 4.958-2.907 8.243 7.377 13.281 4.776m-55.416 3.377l3.094-7.986M50.29 48.117l-1.817-10.175m12.737 9.513l1.196-10m19.55-8.975l2.617 7.125"/></g></g></svg>