<svg width="15" height="11" viewBox="0 0 15 11" fill="none" xmlns="http://www.w3.org/2000/svg">
<path fill-rule="evenodd" clip-rule="evenodd" d="M4.5272 0.0291451C4.5272 0.0451749 4.52283 0.0582902 4.51749 0.0582902C4.51214 0.0582902 4.50777 0.0670337 4.50777 0.0777202C4.50777 0.0884067 4.5034 0.0971503 4.49806 0.0971503C4.49271 0.0971503 4.48834 0.110266 4.48834 0.126295C4.48834 0.142325 4.48397 0.15544 4.47863 0.15544C4.47328 0.15544 4.46891 0.164184 4.46891 0.17487C4.46891 0.185557 4.46454 0.194301 4.4592 0.194301C4.45385 0.194301 4.44948 0.207416 4.44948 0.223446C4.44948 0.239475 4.44511 0.252591 4.43977 0.252591C4.43442 0.252591 4.43005 0.261334 4.43005 0.272021C4.43005 0.282707 4.42568 0.291451 4.42034 0.291451C4.41499 0.291451 4.41062 0.304566 4.41062 0.320596C4.41062 0.336626 4.40625 0.349741 4.40091 0.349741C4.39556 0.349741 4.39119 0.358484 4.39119 0.369171C4.39119 0.379858 4.38682 0.388601 4.38148 0.388601C4.37613 0.388601 4.37176 0.401716 4.37176 0.417746C4.37176 0.433776 4.36739 0.446891 4.36205 0.446891C4.3567 0.446891 4.35233 0.460007 4.35233 0.476036C4.35233 0.492066 4.34796 0.505181 4.34262 0.505181C4.33727 0.505181 4.3329 0.513925 4.3329 0.524611C4.3329 0.535298 4.32853 0.544041 4.32319 0.544041C4.31784 0.544041 4.31347 0.557157 4.31347 0.573187C4.31347 0.589216 4.3091 0.602332 4.30376 0.602332C4.29841 0.602332 4.29404 0.611075 4.29404 0.621762C4.29404 0.632448 4.28967 0.641192 4.28433 0.641192C4.27898 0.641192 4.27461 0.654307 4.27461 0.670337C4.27461 0.686367 4.27024 0.699482 4.2649 0.699482C4.25955 0.699482 4.25518 0.708225 4.25518 0.718912C4.25518 0.729598 4.25081 0.738342 4.24547 0.738342C4.24012 0.738342 4.23575 0.751457 4.23575 0.767487C4.23575 0.783517 4.23138 0.796632 4.22604 0.796632C4.22069 0.796632 4.21632 0.805376 4.21632 0.816062C4.21632 0.826749 4.21195 0.835492 4.20661 0.835492C4.20126 0.835492 4.19689 0.848608 4.19689 0.864637C4.19689 0.880667 4.19252 0.893782 4.18718 0.893782C4.18183 0.893782 4.17746 0.902526 4.17746 0.913212C4.17746 0.923899 4.17309 0.932643 4.16775 0.932643C4.1624 0.932643 4.15803 0.945758 4.15803 0.961788C4.15803 0.977817 4.15366 0.990933 4.14832 0.990933C4.14297 0.990933 4.1386 0.999676 4.1386 1.01036C4.1386 1.02105 4.13423 1.02979 4.12889 1.02979C4.12354 1.02979 4.11917 1.04291 4.11917 1.05894C4.11917 1.07497 4.1148 1.08808 4.10946 1.08808C4.10411 1.08808 4.09974 1.09683 4.09974 1.10751C4.09974 1.1182 4.09537 1.12694 4.09003 1.12694C4.08468 1.12694 4.08031 1.14006 4.08031 1.15609C4.08031 1.17212 4.07594 1.18523 4.0706 1.18523C4.06525 1.18523 4.06088 1.19398 4.06088 1.20466C4.06088 1.21535 4.05651 1.22409 4.05117 1.22409C4.04582 1.22409 4.04145 1.23721 4.04145 1.25324C4.04145 1.26927 4.03708 1.28238 4.03174 1.28238C4.02639 1.28238 4.02202 1.29113 4.02202 1.30181C4.02202 1.3125 4.01765 1.32124 4.01231 1.32124C4.00696 1.32124 4.00259 1.33436 4.00259 1.35039C4.00259 1.36642 3.99822 1.37953 3.99288 1.37953C3.98753 1.37953 3.98316 1.38828 3.98316 1.39896C3.98316 1.40965 3.97879 1.41839 3.97345 1.41839C3.9681 1.41839 3.96373 1.43151 3.96373 1.44754C3.96373 1.46357 3.95936 1.47668 3.95402 1.47668C3.94867 1.47668 3.9443 1.4898 3.9443 1.50583C3.9443 1.52186 3.93993 1.53497 3.93459 1.53497C3.92924 1.53497 3.92487 1.54372 3.92487 1.5544C3.92487 1.56509 3.9205 1.57383 3.91516 1.57383C3.90981 1.57383 3.90544 1.58695 3.90544 1.60298C3.90544 1.61901 3.90107 1.63212 3.89573 1.63212C3.89038 1.63212 3.88601 1.64087 3.88601 1.65155C3.88601 1.66224 3.88164 1.67098 3.8763 1.67098C3.87095 1.67098 3.86658 1.6841 3.86658 1.70013C3.86658 1.71616 3.86221 1.72927 3.85687 1.72927C3.85152 1.72927 3.84715 1.73802 3.84715 1.7487C3.84715 1.75939 3.84278 1.76813 3.83744 1.76813C3.83209 1.76813 3.82772 1.78125 3.82772 1.79728C3.82772 1.81331 3.82335 1.82642 3.81801 1.82642C3.81266 1.82642 3.80829 1.83517 3.80829 1.84585C3.80829 1.85654 3.80392 1.86529 3.79858 1.86529C3.79323 1.86529 3.78886 1.8784 3.78886 1.89443C3.78886 1.91046 3.78449 1.92358 3.77915 1.92358C3.7738 1.92358 3.76943 1.93232 3.76943 1.94301C3.76943 1.95369 3.76506 1.96244 3.75972 1.96244C3.75437 1.96244 3.75 1.97555 3.75 1.99158C3.75 2.00761 3.74563 2.02073 3.74029 2.02073C3.73494 2.02073 3.73057 2.02947 3.73057 2.04016C3.73057 2.05084 3.7262 2.05959 3.72085 2.05959C3.71551 2.05959 3.71114 2.0727 3.71114 2.08873C3.71114 2.10476 3.70677 2.11788 3.70143 2.11788C3.69608 2.11788 3.69171 2.12662 3.69171 2.13731C3.69171 2.14799 3.68734 2.15674 3.68199 2.15674C3.67665 2.15674 3.67228 2.16985 3.67228 2.18588C3.67228 2.20191 3.66791 2.21503 3.66256 2.21503C3.65722 2.21503 3.65285 2.22377 3.65285 2.23446C3.65285 2.24514 3.64848 2.25389 3.64313 2.25389C3.63779 2.25389 3.63342 2.267 3.63342 2.28303C3.63342 2.29906 3.62905 2.31218 3.6237 2.31218C3.61836 2.31218 3.61399 2.32092 3.61399 2.33161C3.61399 2.34229 3.60962 2.35104 3.60427 2.35104C3.59893 2.35104 3.59456 2.36415 3.59456 2.38018C3.59456 2.39621 3.59019 2.40933 3.58484 2.40933C3.5795 2.40933 3.57513 2.41807 3.57513 2.42876C3.57513 2.43944 3.57076 2.44819 3.56541 2.44819C3.56007 2.44819 3.5557 2.4613 3.5557 2.47733C3.5557 2.49336 3.55133 2.50648 3.54598 2.50648C3.54064 2.50648 3.53627 2.51959 3.53627 2.53562C3.53627 2.55165 3.5319 2.56477 3.52655 2.56477C3.52121 2.56477 3.51684 2.57351 3.51684 2.5842C3.51684 2.59488 3.51247 2.60363 3.50712 2.60363C3.50178 2.60363 3.49741 2.61674 3.49741 2.63277C3.49741 2.6488 3.49304 2.66192 3.48769 2.66192C3.48235 2.66192 3.47798 2.67066 3.47798 2.68135C3.47798 2.69203 3.47361 2.70078 3.46826 2.70078C3.46292 2.70078 3.45855 2.71389 3.45855 2.72992C3.45855 2.74595 3.45418 2.75907 3.44883 2.75907C3.44349 2.75907 3.43912 2.76781 3.43912 2.7785C3.43912 2.78918 3.43475 2.79793 3.4294 2.79793C3.42406 2.79793 3.41969 2.81104 3.41969 2.82707C3.41969 2.8431 3.41532 2.85622 3.40997 2.85622C3.40463 2.85622 3.40026 2.86496 3.40026 2.87565C3.40026 2.88633 3.39589 2.89508 3.39054 2.89508C3.3852 2.89508 3.38083 2.90819 3.38083 2.92422C3.38083 2.94025 3.37646 2.95337 3.37111 2.95337C3.36577 2.95337 3.3614 2.96211 3.3614 2.9728C3.3614 2.98348 3.35703 2.99223 3.35168 2.99223C3.34634 2.99223 3.34197 3.00534 3.34197 3.02137C3.34197 3.0374 3.3376 3.05052 3.33225 3.05052C3.32691 3.05052 3.32254 3.05926 3.32254 3.06995C3.32254 3.08063 3.31817 3.08938 3.31282 3.08938C3.30748 3.08938 3.30311 3.10249 3.30311 3.11852C3.30311 3.13455 3.29874 3.14767 3.29339 3.14767C3.28805 3.14767 3.28368 3.15641 3.28368 3.1671C3.28368 3.17779 3.27931 3.18653 3.27396 3.18653C3.26862 3.18653 3.26425 3.19964 3.26425 3.21567C3.26425 3.2317 3.25988 3.24482 3.25453 3.24482C3.24919 3.24482 3.24482 3.25356 3.24482 3.26425C3.24482 3.27494 3.24045 3.28368 3.2351 3.28368C3.22976 3.28368 3.22539 3.29679 3.22539 3.31282C3.22539 3.32885 3.22102 3.34197 3.21567 3.34197C3.21033 3.34197 3.20596 3.35071 3.20596 3.3614C3.20596 3.37209 3.20159 3.38083 3.19624 3.38083C3.1909 3.38083 3.18653 3.39394 3.18653 3.40997C3.18653 3.426 3.18216 3.43912 3.17681 3.43912C3.17147 3.43912 3.1671 3.44786 3.1671 3.45855C3.1671 3.46924 3.16273 3.47798 3.15738 3.47798C3.15204 3.47798 3.14767 3.49109 3.14767 3.50712C3.14767 3.52315 3.1433 3.53627 3.13795 3.53627C3.13261 3.53627 3.12824 3.54938 3.12824 3.56541C3.12824 3.58144 3.12387 3.59456 3.11852 3.59456C3.11318 3.59456 3.10881 3.6033 3.10881 3.61399C3.10881 3.62468 3.10444 3.63342 3.09909 3.63342C3.09375 3.63342 3.08938 3.64654 3.08938 3.66256C3.08938 3.67859 3.08501 3.69171 3.07966 3.69171C3.07432 3.69171 3.06995 3.70045 3.06995 3.71114C3.06995 3.72183 3.06558 3.73057 3.06023 3.73057C3.05489 3.73057 3.05052 3.74369 3.05052 3.75972C3.05052 3.77574 3.04615 3.78886 3.0408 3.78886C3.03546 3.78886 3.03109 3.7976 3.03109 3.80829C3.03109 3.81898 3.02672 3.82772 3.02137 3.82772C3.01603 3.82772 3.01166 3.84084 3.01166 3.85687C3.01166 3.8729 3.00729 3.88601 3.00194 3.88601C2.9966 3.88601 2.99223 3.89475 2.99223 3.90544C2.99223 3.91613 2.98786 3.92487 2.98251 3.92487C2.97717 3.92487 2.9728 3.93799 2.9728 3.95402C2.9728 3.97005 2.96843 3.98316 2.96308 3.98316C2.95774 3.98316 2.95337 3.9919 2.95337 4.00259C2.95337 4.01328 2.949 4.02202 2.94365 4.02202C2.93831 4.02202 2.93394 4.03514 2.93394 4.05117C2.93394 4.0672 2.92957 4.08031 2.92422 4.08031C2.91888 4.08031 2.91451 4.08905 2.91451 4.09974C2.91451 4.11043 2.91014 4.11917 2.90479 4.11917C2.89945 4.11917 2.89508 4.13229 2.89508 4.14832C2.89508 4.16435 2.89071 4.17746 2.88536 4.17746C2.88002 4.17746 2.87565 4.1862 2.87565 4.19689C2.87565 4.20758 2.87128 4.21632 2.86593 4.21632C2.86059 4.21632 2.85622 4.22944 2.85622 4.24547C2.85622 4.2615 2.85185 4.27461 2.8465 4.27461C2.84116 4.27461 2.83679 4.28336 2.83679 4.29404C2.83679 4.30473 2.83242 4.31347 2.82707 4.31347C2.82173 4.31347 2.81736 4.32659 2.81736 4.34262C2.81736 4.35865 2.81299 4.37176 2.80764 4.37176C2.8023 4.37176 2.79793 4.38051 2.79793 4.39119C2.79793 4.40188 2.79356 4.41062 2.78821 4.41062C2.78287 4.41062 2.7785 4.42374 2.7785 4.43977C2.7785 4.4558 2.77413 4.46891 2.76878 4.46891C2.76344 4.46891 2.75907 4.48203 2.75907 4.49806C2.75907 4.51409 2.7547 4.5272 2.74935 4.5272C2.74401 4.5272 2.73964 4.53595 2.73964 4.54663C2.73964 4.55732 2.73527 4.56606 2.72992 4.56606C2.72458 4.56606 2.72021 4.57918 2.72021 4.59521C2.72021 4.61124 2.71584 4.62435 2.71049 4.62435C2.70515 4.62435 2.70078 4.6331 2.70078 4.64378C2.70078 4.65447 2.69641 4.66321 2.69106 4.66321C2.68572 4.66321 2.68135 4.67633 2.68135 4.69236C2.68135 4.70839 2.67698 4.7215 2.67163 4.7215C2.66629 4.7215 2.66192 4.73025 2.66192 4.74093C2.66192 4.75162 2.65755 4.76036 2.6522 4.76036C2.64686 4.76036 2.64249 4.77348 2.64249 4.78951C2.64249 4.80554 2.63812 4.81865 2.63277 4.81865C2.62743 4.81865 2.62306 4.8274 2.62306 4.83808C2.62306 4.84877 2.61869 4.85751 2.61334 4.85751C2.608 4.85751 2.60363 4.87063 2.60363 4.88666C2.60363 4.90269 2.59926 4.9158 2.59391 4.9158C2.58857 4.9158 2.5842 4.92455 2.5842 4.93523C2.5842 4.94592 2.57983 4.95466 2.57448 4.95466C2.56914 4.95466 2.56477 4.96778 2.56477 4.98381C2.56477 4.99984 2.5604 5.01295 2.55505 5.01295C2.54971 5.01295 2.54534 5.0217 2.54534 5.03238C2.54534 5.04307 2.54097 5.05181 2.53562 5.05181C2.53028 5.05181 2.52591 5.06493 2.52591 5.08096C2.52591 5.09699 2.52154 5.1101 2.51619 5.1101C2.51085 5.1101 2.50648 5.11885 2.50648 5.12953C2.50648 5.14022 2.5021 5.14896 2.49676 5.14896C2.49142 5.14896 2.48705 5.16208 2.48705 5.17811C2.48705 5.19414 2.48268 5.20725 2.47733 5.20725C2.47199 5.20725 2.46762 5.216 2.46762 5.22668C2.46762 5.23737 2.46324 5.24611 2.4579 5.24611C2.45256 5.24611 2.44819 5.25923 2.44819 5.27526C2.44819 5.29129 2.44381 5.3044 2.43847 5.3044C2.43313 5.3044 2.42876 5.31315 2.42876 5.32383C2.42876 5.33452 2.42438 5.34326 2.41904 5.34326C2.4137 5.34326 2.40933 5.35638 2.40933 5.37241C2.40933 5.38844 2.40495 5.40155 2.39961 5.40155C2.39427 5.40155 2.3899 5.4103 2.3899 5.42098C2.3899 5.43167 2.38552 5.44041 2.38018 5.44041C2.37484 5.44041 2.37047 5.45353 2.37047 5.46956C2.37047 5.48559 2.36609 5.4987 2.36075 5.4987C2.35541 5.4987 2.35104 5.51182 2.35104 5.52785C2.35104 5.54388 2.34666 5.55699 2.34132 5.55699C2.33598 5.55699 2.33161 5.56574 2.33161 5.57643C2.33161 5.58711 2.32723 5.59586 2.32189 5.59586C2.31655 5.59586 2.31218 5.60897 2.31218 5.625C2.31218 5.64103 2.3078 5.65415 2.30246 5.65415C2.29712 5.65415 2.29275 5.66289 2.29275 5.67358C2.29275 5.68426 2.28837 5.69301 2.28303 5.69301C2.27769 5.69301 2.27332 5.70612 2.27332 5.72215C2.27332 5.73818 2.26894 5.7513 2.2636 5.7513C2.25826 5.7513 2.25389 5.76004 2.25389 5.77073C2.25389 5.78141 2.24951 5.79016 2.24417 5.79016C2.23883 5.79016 2.23446 5.80327 2.23446 5.8193C2.23446 5.83533 2.23008 5.84845 2.22474 5.84845C2.2194 5.84845 2.21503 5.85719 2.21503 5.86788C2.21503 5.87856 2.21065 5.88731 2.20531 5.88731C2.19997 5.88731 2.1956 5.90042 2.1956 5.91645C2.1956 5.93248 2.19122 5.9456 2.18588 5.9456C2.18054 5.9456 2.17617 5.95434 2.17617 5.96503C2.17617 5.97571 2.17179 5.98446 2.16645 5.98446C2.16111 5.98446 2.15674 5.99757 2.15674 6.0136C2.15674 6.02963 2.15236 6.04275 2.14702 6.04275C2.14168 6.04275 2.13731 6.05149 2.13731 6.06218C2.13731 6.07286 2.13293 6.08161 2.12759 6.08161C2.12225 6.08161 2.11788 6.09472 2.11788 6.11075C2.11788 6.12678 2.1135 6.1399 2.10816 6.1399C2.10282 6.1399 2.09845 6.14864 2.09845 6.15933C2.09845 6.17001 2.09407 6.17876 2.08873 6.17876C2.08339 6.17876 2.07902 6.19187 2.07902 6.2079C2.07902 6.22393 2.07464 6.23705 2.0693 6.23705C2.06396 6.23705 2.05959 6.24579 2.05959 6.25648C2.05959 6.26716 2.05521 6.27591 2.04987 6.27591C2.04453 6.27591 2.04016 6.28902 2.04016 6.30505C2.04016 6.32108 2.03578 6.3342 2.03044 6.3342C2.0251 6.3342 2.02073 6.34294 2.02073 6.35363C2.02073 6.36431 2.01635 6.37306 2.01101 6.37306C2.00567 6.37306 2.0013 6.38617 2.0013 6.4022C2.0013 6.41823 1.99692 6.43135 1.99158 6.43135C1.98624 6.43135 1.98187 6.44009 1.98187 6.45078C1.98187 6.46146 1.97749 6.47021 1.97215 6.47021C1.96681 6.47021 1.96244 6.48332 1.96244 6.49935C1.96244 6.51538 1.95806 6.5285 1.95272 6.5285C1.94738 6.5285 1.94301 6.54161 1.94301 6.55764C1.94301 6.57367 1.93863 6.58679 1.93329 6.58679C1.92795 6.58679 1.92358 6.59553 1.92358 6.60622C1.92358 6.6169 1.9192 6.62565 1.91386 6.62565C1.90852 6.62565 1.90415 6.63876 1.90415 6.65479C1.90415 6.67082 1.89977 6.68394 1.89443 6.68394C1.88909 6.68394 1.88472 6.69268 1.88472 6.70337C1.88472 6.71405 1.88034 6.7228 1.875 6.7228C1.86966 6.7228 1.86529 6.73591 1.86529 6.75194C1.86529 6.76797 1.86091 6.78109 1.85557 6.78109C1.85023 6.78109 1.84585 6.78983 1.84585 6.80052C1.84585 6.8112 1.84148 6.81995 1.83614 6.81995C1.8308 6.81995 1.82642 6.83306 1.82642 6.84909C1.82642 6.86512 1.82205 6.87824 1.81671 6.87824C1.81137 6.87824 1.80699 6.88698 1.80699 6.89767C1.80699 6.90836 1.80262 6.9171 1.79728 6.9171C1.79194 6.9171 1.78756 6.93021 1.78756 6.94624C1.78756 6.96227 1.78319 6.97539 1.77785 6.97539C1.77251 6.97539 1.76813 6.98413 1.76813 6.99482C1.76813 7.00551 1.76376 7.01425 1.75842 7.01425C1.75308 7.01425 1.7487 7.02736 1.7487 7.04339C1.7487 7.05942 1.74433 7.07254 1.73899 7.07254C1.73365 7.07254 1.72927 7.08128 1.72927 7.09197C1.72927 7.10266 1.7249 7.1114 1.71956 7.1114C1.71422 7.1114 1.70984 7.12451 1.70984 7.14054C1.70984 7.15657 1.70547 7.16969 1.70013 7.16969C1.69479 7.16969 1.69041 7.17843 1.69041 7.18912C1.69041 7.19981 1.68604 7.20855 1.6807 7.20855C1.67536 7.20855 1.67098 7.22166 1.67098 7.23769C1.67098 7.25372 1.66661 7.26684 1.66127 7.26684C1.65593 7.26684 1.65155 7.27558 1.65155 7.28627C1.65155 7.29696 1.64718 7.3057 1.64184 7.3057C1.6365 7.3057 1.63212 7.31882 1.63212 7.33484C1.63212 7.35087 1.62775 7.36399 1.62241 7.36399C1.61707 7.36399 1.61269 7.37273 1.61269 7.38342C1.61269 7.39411 1.60832 7.40285 1.60298 7.40285C1.59764 7.40285 1.59326 7.41597 1.59326 7.43199C1.59326 7.44802 1.58889 7.46114 1.58355 7.46114C1.57821 7.46114 1.57383 7.46988 1.57383 7.48057C1.57383 7.49126 1.56946 7.5 1.56412 7.5C1.55878 7.5 1.5544 7.51312 1.5544 7.52915C1.5544 7.54518 1.55003 7.55829 1.54469 7.55829C1.53935 7.55829 1.53497 7.57141 1.53497 7.58744C1.53497 7.60347 1.5306 7.61658 1.52526 7.61658C1.51992 7.61658 1.51554 7.62532 1.51554 7.63601C1.51554 7.6467 1.51117 7.65544 1.50583 7.65544C1.50049 7.65544 1.49611 7.66856 1.49611 7.68459C1.49611 7.70062 1.49174 7.71373 1.4864 7.71373C1.48106 7.71373 1.47668 7.72247 1.47668 7.73316C1.47668 7.74385 1.47231 7.75259 1.46697 7.75259C1.46163 7.75259 1.45725 7.76571 1.45725 7.78174C1.45725 7.79777 1.45288 7.81088 1.44754 7.81088C1.4422 7.81088 1.43782 7.81962 1.43782 7.83031C1.43782 7.841 1.43345 7.84974 1.42811 7.84974C1.42277 7.84974 1.41839 7.86286 1.41839 7.87889C1.41839 7.89492 1.41402 7.90803 1.40868 7.90803C1.40334 7.90803 1.39896 7.91677 1.39896 7.92746C1.39896 7.93815 1.39459 7.94689 1.38925 7.94689C1.38391 7.94689 1.37953 7.96001 1.37953 7.97604C1.37953 7.99207 1.37516 8.00518 1.36982 8.00518C1.36448 8.00518 1.3601 8.01393 1.3601 8.02461C1.3601 8.0353 1.35573 8.04404 1.35039 8.04404C1.34505 8.04404 1.34067 8.05716 1.34067 8.07319C1.34067 8.08922 1.3363 8.10233 1.33096 8.10233C1.32562 8.10233 1.32124 8.11108 1.32124 8.12176C1.32124 8.13245 1.31687 8.14119 1.31153 8.14119C1.30619 8.14119 1.30181 8.15431 1.30181 8.17034C1.30181 8.18637 1.29744 8.19948 1.2921 8.19948C1.28676 8.19948 1.28238 8.20823 1.28238 8.21891C1.28238 8.2296 1.27801 8.23834 1.27267 8.23834C1.26733 8.23834 1.26295 8.25146 1.26295 8.26749C1.26295 8.28352 1.25858 8.29663 1.25324 8.29663C1.2479 8.29663 1.24352 8.30538 1.24352 8.31606C1.24352 8.32675 1.23915 8.33549 1.23381 8.33549C1.22847 8.33549 1.22409 8.34861 1.22409 8.36464C1.22409 8.38067 1.21972 8.39378 1.21438 8.39378C1.20904 8.39378 1.20466 8.40253 1.20466 8.41321C1.20466 8.4239 1.20029 8.43264 1.19495 8.43264C1.1896 8.43264 1.18523 8.44576 1.18523 8.46179C1.18523 8.47782 1.18086 8.49093 1.17552 8.49093C1.17017 8.49093 1.1658 8.49968 1.1658 8.51036C1.1658 8.52105 1.16143 8.52979 1.15609 8.52979C1.15074 8.52979 1.14637 8.54291 1.14637 8.55894C1.14637 8.57497 1.142 8.58808 1.13666 8.58808C1.13131 8.58808 1.12694 8.6012 1.12694 8.61723C1.12694 8.63326 1.12257 8.64637 1.11723 8.64637C1.11188 8.64637 1.10751 8.65512 1.10751 8.6658C1.10751 8.67649 1.10314 8.68523 1.0978 8.68523C1.09245 8.68523 1.08808 8.69835 1.08808 8.71438C1.08808 8.73041 1.08371 8.74352 1.07837 8.74352C1.07302 8.74352 1.06865 8.75227 1.06865 8.76295C1.06865 8.77364 1.06428 8.78238 1.05894 8.78238C1.05359 8.78238 1.04922 8.7955 1.04922 8.81153V8.84067H0.524611H0V9.51101V10.1813H2.6522H5.3044V9.51101V8.84067H4.90609C4.51425 8.84067 4.50777 8.84035 4.50777 8.82124C4.50777 8.81056 4.51214 8.80181 4.51749 8.80181C4.52283 8.80181 4.5272 8.79307 4.5272 8.78238C4.5272 8.7717 4.53157 8.76295 4.53692 8.76295C4.54226 8.76295 4.54663 8.74984 4.54663 8.73381C4.54663 8.71778 4.551 8.70466 4.55635 8.70466C4.56169 8.70466 4.56606 8.69155 4.56606 8.67552C4.56606 8.65949 4.57043 8.64637 4.57578 8.64637C4.58112 8.64637 4.58549 8.63326 4.58549 8.61723C4.58549 8.6012 4.58986 8.58808 4.59521 8.58808C4.60055 8.58808 4.60492 8.57497 4.60492 8.55894C4.60492 8.54291 4.60929 8.52979 4.61464 8.52979C4.61998 8.52979 4.62435 8.51668 4.62435 8.50065C4.62435 8.48462 4.62872 8.4715 4.63407 8.4715C4.63941 8.4715 4.64378 8.45839 4.64378 8.44236C4.64378 8.42633 4.64815 8.41321 4.6535 8.41321C4.65884 8.41321 4.66321 8.40447 4.66321 8.39378C4.66321 8.3831 4.66758 8.37435 4.67293 8.37435C4.67827 8.37435 4.68264 8.36124 4.68264 8.34521C4.68264 8.32918 4.68701 8.31606 4.69236 8.31606C4.6977 8.31606 4.70207 8.30295 4.70207 8.28692C4.70207 8.27089 4.70644 8.25777 4.71179 8.25777C4.71713 8.25777 4.7215 8.24466 4.7215 8.22863C4.7215 8.2126 4.72587 8.19948 4.73122 8.19948C4.73656 8.19948 4.74093 8.18637 4.74093 8.17034C4.74093 8.15431 4.7453 8.14119 4.75065 8.14119C4.75599 8.14119 4.76036 8.12808 4.76036 8.11205C4.76036 8.09602 4.76473 8.0829 4.77008 8.0829C4.77542 8.0829 4.77979 8.06979 4.77979 8.05376C4.77979 8.03773 4.78416 8.02461 4.78951 8.02461C4.79485 8.02461 4.79922 8.01587 4.79922 8.00518C4.79922 7.99449 4.80359 7.98575 4.80894 7.98575C4.81428 7.98575 4.81865 7.97264 4.81865 7.95661C4.81865 7.94058 4.82302 7.92746 4.82837 7.92746C4.83371 7.92746 4.83808 7.91435 4.83808 7.89832C4.83808 7.88229 4.84245 7.86917 4.8478 7.86917C4.85314 7.86917 4.85751 7.85606 4.85751 7.84003C4.85751 7.824 4.86189 7.81088 4.86723 7.81088C4.87257 7.81088 4.87694 7.79777 4.87694 7.78174C4.87694 7.76571 4.88131 7.75259 4.88666 7.75259C4.892 7.75259 4.89637 7.73948 4.89637 7.72345C4.89637 7.70742 4.90074 7.6943 4.90609 7.6943C4.91143 7.6943 4.9158 7.68119 4.9158 7.66516C4.9158 7.64913 4.92018 7.63601 4.92552 7.63601C4.93086 7.63601 4.93523 7.62727 4.93523 7.61658C4.93523 7.60589 4.93961 7.59715 4.94495 7.59715C4.95029 7.59715 4.95466 7.58404 4.95466 7.56801C4.95466 7.55198 4.95903 7.53886 4.96438 7.53886C4.96972 7.53886 4.97409 7.52574 4.97409 7.50972C4.97409 7.49369 4.97847 7.48057 4.98381 7.48057C4.98915 7.48057 4.99352 7.46745 4.99352 7.45143C4.99352 7.4354 4.9979 7.42228 5.00324 7.42228C5.00858 7.42228 5.01295 7.40916 5.01295 7.39314C5.01295 7.37711 5.01733 7.36399 5.02267 7.36399C5.02801 7.36399 5.03238 7.35087 5.03238 7.33484C5.03238 7.31882 5.03676 7.3057 5.0421 7.3057C5.04744 7.3057 5.05181 7.29258 5.05181 7.27655C5.05181 7.26052 5.05619 7.24741 5.06153 7.24741C5.06687 7.24741 5.07124 7.23429 5.07124 7.21826C5.07124 7.20223 5.07562 7.18912 5.08096 7.18912C5.0863 7.18912 5.09067 7.18038 5.09067 7.16969C5.09067 7.159 5.09505 7.15026 5.10039 7.15026C5.10573 7.15026 5.1101 7.13714 5.1101 7.12111C5.1101 7.10508 5.11448 7.09197 5.11982 7.09197C5.12516 7.09197 5.12953 7.07885 5.12953 7.06282C5.12953 7.04679 5.13391 7.03368 5.13925 7.03368C5.14459 7.03368 5.14896 7.02056 5.14896 7.00453C5.14896 6.9885 5.15334 6.97539 5.15868 6.97539C5.16402 6.97539 5.16839 6.96227 5.16839 6.94624C5.16839 6.93021 5.17277 6.9171 5.17811 6.9171C5.18345 6.9171 5.18782 6.90398 5.18782 6.88795C5.18782 6.87192 5.1922 6.85881 5.19754 6.85881C5.20288 6.85881 5.20725 6.84569 5.20725 6.82966C5.20725 6.81363 5.21163 6.80052 5.21697 6.80052C5.22231 6.80052 5.22668 6.79177 5.22668 6.78109C5.22668 6.7704 5.23106 6.76166 5.2364 6.76166C5.24174 6.76166 5.24611 6.74854 5.24611 6.73251C5.24611 6.71648 5.25049 6.70337 5.25583 6.70337C5.26117 6.70337 5.26554 6.69025 5.26554 6.67422C5.26554 6.65156 5.26986 6.64508 5.28497 6.64508C5.29713 6.64508 5.3044 6.65156 5.3044 6.66236C5.3044 6.67187 5.31315 6.68595 5.32383 6.69365C5.33452 6.70136 5.34326 6.71543 5.34326 6.72494C5.34326 6.73445 5.34764 6.74223 5.35298 6.74223C5.35832 6.74223 5.36269 6.75001 5.36269 6.75951C5.36269 6.76902 5.37144 6.7831 5.38212 6.7908C5.39281 6.79851 5.40155 6.81258 5.40155 6.82209C5.40155 6.8316 5.40593 6.83938 5.41127 6.83938C5.41661 6.83938 5.42098 6.84716 5.42098 6.85666C5.42098 6.86617 5.42973 6.88025 5.44041 6.88795C5.4511 6.89566 5.45984 6.90973 5.45984 6.91925C5.45984 6.92875 5.46422 6.93653 5.46956 6.93653C5.4749 6.93653 5.47927 6.94431 5.47927 6.95381C5.47927 6.96332 5.48802 6.9774 5.4987 6.9851C5.50939 6.99281 5.51814 7.00688 5.51814 7.0164C5.51814 7.0259 5.52251 7.03368 5.52785 7.03368C5.53319 7.03368 5.53756 7.04146 5.53756 7.05096C5.53756 7.06047 5.54631 7.07455 5.55699 7.08225C5.56768 7.08996 5.57643 7.10307 5.57643 7.1114C5.57643 7.11972 5.58517 7.13284 5.59586 7.14054C5.60654 7.14825 5.61529 7.16232 5.61529 7.17184C5.61529 7.18134 5.61966 7.18912 5.625 7.18912C5.63034 7.18912 5.63472 7.1969 5.63472 7.2064C5.63472 7.21591 5.64346 7.22999 5.65415 7.23769C5.66483 7.2454 5.67358 7.25948 5.67358 7.26899C5.67358 7.27849 5.67795 7.28627 5.68329 7.28627C5.68863 7.28627 5.69301 7.29405 5.69301 7.30355C5.69301 7.31306 5.70175 7.32714 5.71244 7.33484C5.72312 7.34255 5.73187 7.35663 5.73187 7.36614C5.73187 7.37564 5.73624 7.38342 5.74158 7.38342C5.74692 7.38342 5.7513 7.3912 5.7513 7.4007C5.7513 7.41021 5.76004 7.42429 5.77073 7.43199C5.78141 7.4397 5.79016 7.45378 5.79016 7.46329C5.79016 7.47279 5.79453 7.48057 5.79987 7.48057C5.80521 7.48057 5.80959 7.48835 5.80959 7.49785C5.80959 7.50736 5.81833 7.52144 5.82902 7.52915C5.8397 7.53685 5.84845 7.54996 5.84845 7.55829C5.84845 7.56662 5.85719 7.57973 5.86788 7.58744C5.87856 7.59514 5.88731 7.60922 5.88731 7.61873C5.88731 7.62823 5.89168 7.63601 5.89702 7.63601C5.90236 7.63601 5.90674 7.64379 5.90674 7.65329C5.90674 7.66281 5.91548 7.67688 5.92617 7.68459C5.93685 7.69229 5.9456 7.70637 5.9456 7.71588C5.9456 7.72538 5.94997 7.73316 5.95531 7.73316C5.96065 7.73316 5.96503 7.74094 5.96503 7.75044C5.96503 7.75996 5.97377 7.77403 5.98446 7.78174C5.99514 7.78944 6.00389 7.80352 6.00389 7.81303C6.00389 7.82253 6.00826 7.83031 6.0136 7.83031C6.01894 7.83031 6.02332 7.83809 6.02332 7.84759C6.02332 7.85711 6.03206 7.87118 6.04275 7.87889C6.05343 7.88659 6.06218 7.90067 6.06218 7.91018C6.06218 7.91968 6.06655 7.92746 6.07189 7.92746C6.07723 7.92746 6.08161 7.93524 6.08161 7.94475C6.08161 7.95426 6.09035 7.96833 6.10104 7.97604C6.11172 7.98374 6.12047 7.99782 6.12047 8.00733C6.12047 8.01683 6.12484 8.02461 6.13018 8.02461C6.13552 8.02461 6.1399 8.03239 6.1399 8.04189C6.1399 8.05141 6.14864 8.06548 6.15933 8.07319C6.17001 8.08089 6.17876 8.09401 6.17876 8.10233C6.17876 8.11066 6.1875 8.12377 6.19819 8.13148C6.20887 8.13918 6.21762 8.15326 6.21762 8.16277C6.21762 8.17227 6.22199 8.18005 6.22733 8.18005C6.23268 8.18005 6.23705 8.18783 6.23705 8.19734C6.23705 8.20685 6.24579 8.22092 6.25648 8.22863C6.26716 8.23633 6.27591 8.25041 6.27591 8.25992C6.27591 8.26942 6.28028 8.2772 6.28562 8.2772C6.29097 8.2772 6.29534 8.28498 6.29534 8.29449C6.29534 8.304 6.30408 8.31807 6.31477 8.32578C6.32545 8.33348 6.3342 8.34756 6.3342 8.35707C6.3342 8.36657 6.33857 8.37435 6.34391 8.37435C6.34926 8.37435 6.35363 8.38213 6.35363 8.39164C6.35363 8.40115 6.36237 8.41522 6.37306 8.42293C6.38374 8.43063 6.39249 8.44471 6.39249 8.45422C6.39249 8.46372 6.39686 8.4715 6.4022 8.4715C6.40755 8.4715 6.41192 8.47929 6.41192 8.48879C6.41192 8.4983 6.42066 8.51237 6.43135 8.52008C6.44203 8.52778 6.45078 8.5409 6.45078 8.54922C6.45078 8.55755 6.45952 8.57066 6.47021 8.57837C6.48089 8.58607 6.48964 8.60015 6.48964 8.60966C6.48964 8.61916 6.49401 8.62694 6.49935 8.62694C6.5047 8.62694 6.50907 8.63473 6.50907 8.64423C6.50907 8.65374 6.51781 8.66781 6.5285 8.67552C6.53918 8.68322 6.54793 8.6973 6.54793 8.70681C6.54793 8.71631 6.5523 8.72409 6.55764 8.72409C6.56299 8.72409 6.56736 8.73188 6.56736 8.74138C6.56736 8.75089 6.5761 8.76497 6.58679 8.77267C6.59747 8.78037 6.60622 8.79445 6.60622 8.80396C6.60622 8.81346 6.61059 8.82124 6.61593 8.82124C6.62128 8.82124 6.62565 8.82903 6.62565 8.83853C6.62565 8.84804 6.63439 8.86211 6.64508 8.86982C6.65576 8.87752 6.66451 8.8916 6.66451 8.90111C6.66451 8.91061 6.66888 8.91839 6.67422 8.91839C6.67957 8.91839 6.68394 8.92618 6.68394 8.93568C6.68394 8.94519 6.69268 8.95926 6.70337 8.96697C6.71405 8.97467 6.7228 8.98779 6.7228 8.99611C6.7228 9.00444 6.73154 9.01756 6.74223 9.02526C6.75291 9.03296 6.76166 9.04704 6.76166 9.05655C6.76166 9.06605 6.76603 9.07383 6.77137 9.07383C6.77672 9.07383 6.78109 9.08162 6.78109 9.09112C6.78109 9.10063 6.78983 9.11471 6.80052 9.12241C6.8112 9.13011 6.81995 9.14419 6.81995 9.1537C6.81995 9.1632 6.82432 9.17099 6.82966 9.17099C6.83501 9.17099 6.83938 9.17877 6.83938 9.18827C6.83938 9.19778 6.84812 9.21186 6.85881 9.21956C6.86949 9.22726 6.87824 9.24134 6.87824 9.25085C6.87824 9.26035 6.88261 9.26814 6.88795 9.26814C6.8933 9.26814 6.89767 9.27592 6.89767 9.28542C6.89767 9.29493 6.90641 9.30901 6.9171 9.31671C6.92779 9.32441 6.93653 9.33849 6.93653 9.348C6.93653 9.3575 6.9409 9.36528 6.94624 9.36528C6.95159 9.36528 6.95596 9.37307 6.95596 9.38257C6.95596 9.39208 6.9647 9.40616 6.97539 9.41386C6.98608 9.42156 6.99482 9.43468 6.99482 9.44301C6.99482 9.45133 7.00356 9.46445 7.01425 9.47215C7.02494 9.47985 7.03368 9.49393 7.03368 9.50344C7.03368 9.51294 7.03805 9.52073 7.04339 9.52073C7.04874 9.52073 7.05311 9.52851 7.05311 9.53801C7.05311 9.54752 7.06185 9.5616 7.07254 9.5693C7.08323 9.577 7.09197 9.59108 7.09197 9.60059C7.09197 9.61009 7.09634 9.61788 7.10168 9.61788C7.10703 9.61788 7.1114 9.62566 7.1114 9.63516C7.1114 9.64467 7.12014 9.65875 7.13083 9.66645C7.14152 9.67416 7.15026 9.68823 7.15026 9.69774C7.15026 9.70724 7.15463 9.71503 7.15997 9.71503C7.16532 9.71503 7.16969 9.72281 7.16969 9.73231C7.16969 9.74182 7.17843 9.7559 7.18912 9.7636C7.19981 9.77131 7.20855 9.78538 7.20855 9.79489C7.20855 9.80439 7.21292 9.81218 7.21826 9.81218C7.22361 9.81218 7.22798 9.81996 7.22798 9.82946C7.22798 9.83897 7.23672 9.85305 7.24741 9.86075C7.2581 9.86846 7.26684 9.88157 7.26684 9.8899C7.26684 9.89822 7.27558 9.91134 7.28627 9.91904C7.29696 9.92675 7.3057 9.94082 7.3057 9.95033C7.3057 9.95984 7.31007 9.96762 7.31541 9.96762C7.32076 9.96762 7.32513 9.9754 7.32513 9.9849C7.32513 9.99441 7.33387 10.0085 7.34456 10.0162C7.35525 10.0239 7.36399 10.038 7.36399 10.0475C7.36399 10.057 7.36836 10.0648 7.3737 10.0648C7.37905 10.0648 7.38342 10.0725 7.38342 10.0821C7.38342 10.0916 7.39216 10.1056 7.40285 10.1133C7.41354 10.121 7.42228 10.1351 7.42228 10.1446C7.42228 10.1541 7.42665 10.1619 7.43199 10.1619C7.43734 10.1619 7.44171 10.1697 7.44171 10.1792C7.44171 10.1887 7.45045 10.2028 7.46114 10.2105C7.47183 10.2182 7.48057 10.2323 7.48057 10.2418C7.48057 10.2526 7.48785 10.2591 7.5 10.2591C7.51215 10.2591 7.51943 10.2526 7.51943 10.2418C7.51943 10.2323 7.52817 10.2182 7.53886 10.2105C7.54955 10.2028 7.55829 10.1887 7.55829 10.1792C7.55829 10.1697 7.56266 10.1619 7.56801 10.1619C7.57335 10.1619 7.57772 10.1541 7.57772 10.1446C7.57772 10.1351 7.58646 10.121 7.59715 10.1133C7.60784 10.1056 7.61658 10.0916 7.61658 10.0821C7.61658 10.0725 7.62095 10.0648 7.6263 10.0648C7.63164 10.0648 7.63601 10.057 7.63601 10.0475C7.63601 10.038 7.64475 10.0239 7.65544 10.0162C7.66613 10.0085 7.67487 9.99441 7.67487 9.9849C7.67487 9.9754 7.67924 9.96762 7.68459 9.96762C7.68993 9.96762 7.6943 9.95984 7.6943 9.95033C7.6943 9.94082 7.70304 9.92675 7.71373 9.91904C7.72442 9.91134 7.73316 9.89822 7.73316 9.8899C7.73316 9.88157 7.7419 9.86846 7.75259 9.86075C7.76328 9.85305 7.77202 9.83897 7.77202 9.82946C7.77202 9.81996 7.77639 9.81218 7.78174 9.81218C7.78708 9.81218 7.79145 9.80439 7.79145 9.79489C7.79145 9.78538 7.80019 9.77131 7.81088 9.7636C7.82157 9.7559 7.83031 9.74182 7.83031 9.73231C7.83031 9.72281 7.83468 9.71503 7.84003 9.71503C7.84537 9.71503 7.84974 9.70724 7.84974 9.69774C7.84974 9.68823 7.85848 9.67416 7.86917 9.66645C7.87986 9.65875 7.8886 9.64467 7.8886 9.63516C7.8886 9.62566 7.89297 9.61788 7.89832 9.61788C7.90366 9.61788 7.90803 9.61009 7.90803 9.60059C7.90803 9.59108 7.91677 9.577 7.92746 9.5693C7.93815 9.5616 7.94689 9.54752 7.94689 9.53801C7.94689 9.52851 7.95126 9.52073 7.95661 9.52073C7.96195 9.52073 7.96632 9.51294 7.96632 9.50344C7.96632 9.49393 7.97507 9.47985 7.98575 9.47215C7.99644 9.46445 8.00518 9.45133 8.00518 9.44301C8.00518 9.43468 8.01393 9.42156 8.02461 9.41386C8.0353 9.40616 8.04404 9.39208 8.04404 9.38257C8.04404 9.37307 8.04841 9.36528 8.05376 9.36528C8.0591 9.36528 8.06347 9.3575 8.06347 9.348C8.06347 9.33849 8.07222 9.32441 8.0829 9.31671C8.09359 9.30901 8.10233 9.29493 8.10233 9.28542C8.10233 9.27592 8.1067 9.26814 8.11205 9.26814C8.11739 9.26814 8.12176 9.26035 8.12176 9.25085C8.12176 9.24134 8.13051 9.22726 8.14119 9.21956C8.15188 9.21186 8.16062 9.19778 8.16062 9.18827C8.16062 9.17877 8.16499 9.17099 8.17034 9.17099C8.17568 9.17099 8.18005 9.1632 8.18005 9.1537C8.18005 9.14419 8.1888 9.13011 8.19948 9.12241C8.21017 9.11471 8.21891 9.10063 8.21891 9.09112C8.21891 9.08162 8.22328 9.07383 8.22863 9.07383C8.23397 9.07383 8.23834 9.06605 8.23834 9.05655C8.23834 9.04704 8.24709 9.03296 8.25777 9.02526C8.26846 9.01756 8.2772 9.00444 8.2772 8.99611C8.2772 8.98779 8.28595 8.97467 8.29663 8.96697C8.30732 8.95926 8.31606 8.94519 8.31606 8.93568C8.31606 8.92618 8.32043 8.91839 8.32578 8.91839C8.33112 8.91839 8.33549 8.91061 8.33549 8.90111C8.33549 8.8916 8.34424 8.87752 8.35492 8.86982C8.36561 8.86211 8.37435 8.84804 8.37435 8.83853C8.37435 8.82903 8.37872 8.82124 8.38407 8.82124C8.38941 8.82124 8.39378 8.81346 8.39378 8.80396C8.39378 8.79445 8.40253 8.78037 8.41321 8.77267C8.4239 8.76497 8.43264 8.75089 8.43264 8.74138C8.43264 8.73188 8.43701 8.72409 8.44236 8.72409C8.4477 8.72409 8.45207 8.71631 8.45207 8.70681C8.45207 8.6973 8.46082 8.68322 8.4715 8.67552C8.48219 8.66781 8.49093 8.65374 8.49093 8.64423C8.49093 8.63473 8.49531 8.62694 8.50065 8.62694C8.50599 8.62694 8.51036 8.61916 8.51036 8.60966C8.51036 8.60015 8.51911 8.58607 8.52979 8.57837C8.54048 8.57066 8.54922 8.55755 8.54922 8.54922C8.54922 8.5409 8.55797 8.52778 8.56865 8.52008C8.57934 8.51237 8.58808 8.4983 8.58808 8.48879C8.58808 8.47929 8.59245 8.4715 8.5978 8.4715C8.60314 8.4715 8.60751 8.46372 8.60751 8.45422C8.60751 8.44471 8.61626 8.43063 8.62694 8.42293C8.63763 8.41522 8.64637 8.40115 8.64637 8.39164C8.64637 8.38213 8.65075 8.37435 8.65609 8.37435C8.66143 8.37435 8.6658 8.36657 8.6658 8.35707C8.6658 8.34756 8.67455 8.33348 8.68523 8.32578C8.69592 8.31807 8.70466 8.304 8.70466 8.29449C8.70466 8.28498 8.70903 8.2772 8.71438 8.2772C8.71972 8.2772 8.72409 8.26942 8.72409 8.25992C8.72409 8.25041 8.73284 8.23633 8.74352 8.22863C8.75421 8.22092 8.76295 8.20685 8.76295 8.19734C8.76295 8.18783 8.76733 8.18005 8.77267 8.18005C8.77801 8.18005 8.78238 8.17227 8.78238 8.16277C8.78238 8.15326 8.79113 8.13918 8.80181 8.13148C8.8125 8.12377 8.82124 8.11066 8.82124 8.10233C8.82124 8.09401 8.82999 8.08089 8.84067 8.07319C8.85136 8.06548 8.8601 8.05141 8.8601 8.04189C8.8601 8.03239 8.86448 8.02461 8.86982 8.02461C8.87516 8.02461 8.87953 8.01683 8.87953 8.00733C8.87953 7.99782 8.88828 7.98374 8.89896 7.97604C8.90965 7.96833 8.91839 7.95426 8.91839 7.94475C8.91839 7.93524 8.92277 7.92746 8.92811 7.92746C8.93345 7.92746 8.93782 7.91968 8.93782 7.91018C8.93782 7.90067 8.94657 7.88659 8.95725 7.87889C8.96794 7.87118 8.97668 7.85711 8.97668 7.84759C8.97668 7.83809 8.98106 7.83031 8.9864 7.83031C8.99174 7.83031 8.99611 7.82253 8.99611 7.81303C8.99611 7.80352 9.00486 7.78944 9.01554 7.78174C9.02623 7.77403 9.03497 7.75996 9.03497 7.75044C9.03497 7.74094 9.03935 7.73316 9.04469 7.73316C9.05003 7.73316 9.0544 7.72538 9.0544 7.71588C9.0544 7.70637 9.06315 7.69229 9.07383 7.68459C9.08452 7.67688 9.09326 7.66377 9.09326 7.65544C9.09326 7.64711 9.10201 7.634 9.11269 7.6263C9.12338 7.61859 9.13212 7.60452 9.13212 7.595C9.13212 7.5855 9.1365 7.57772 9.14184 7.57772C9.14718 7.57772 9.15156 7.56994 9.15156 7.56044C9.15156 7.55093 9.1603 7.53685 9.17099 7.52915C9.18167 7.52144 9.19041 7.50736 9.19041 7.49785C9.19041 7.48835 9.19479 7.48057 9.20013 7.48057C9.20547 7.48057 9.20984 7.47279 9.20984 7.46329C9.20984 7.45378 9.21859 7.4397 9.22927 7.43199C9.23996 7.42429 9.2487 7.41021 9.2487 7.4007C9.2487 7.3912 9.25308 7.38342 9.25842 7.38342C9.26376 7.38342 9.26814 7.37564 9.26814 7.36614C9.26814 7.35663 9.27688 7.34255 9.28757 7.33484C9.29825 7.32714 9.307 7.31306 9.307 7.30355C9.307 7.29405 9.31137 7.28627 9.31671 7.28627C9.32205 7.28627 9.32643 7.27849 9.32643 7.26899C9.32643 7.25948 9.33517 7.2454 9.34586 7.23769C9.35654 7.22999 9.36528 7.21591 9.36528 7.2064C9.36528 7.1969 9.36966 7.18912 9.375 7.18912C9.38034 7.18912 9.38472 7.18134 9.38472 7.17184C9.38472 7.16232 9.39346 7.14825 9.40415 7.14054C9.41483 7.13284 9.42358 7.11972 9.42358 7.1114C9.42358 7.10307 9.43232 7.08996 9.44301 7.08225C9.45369 7.07455 9.46244 7.06047 9.46244 7.05096C9.46244 7.04146 9.46681 7.03368 9.47215 7.03368C9.47749 7.03368 9.48187 7.0259 9.48187 7.0164C9.48187 7.00688 9.49061 6.99281 9.5013 6.9851C9.51198 6.9774 9.52073 6.96332 9.52073 6.95381C9.52073 6.94431 9.5251 6.93653 9.53044 6.93653C9.53578 6.93653 9.54016 6.92875 9.54016 6.91925C9.54016 6.90973 9.5489 6.89566 9.55959 6.88795C9.57027 6.88025 9.57902 6.86617 9.57902 6.85666C9.57902 6.84716 9.58339 6.83938 9.58873 6.83938C9.59407 6.83938 9.59845 6.8316 9.59845 6.82209C9.59845 6.81258 9.60719 6.79851 9.61788 6.7908C9.62856 6.7831 9.63731 6.76902 9.63731 6.75951C9.63731 6.75001 9.64168 6.74223 9.64702 6.74223C9.65236 6.74223 9.65674 6.73445 9.65674 6.72494C9.65674 6.71543 9.66548 6.70136 9.67617 6.69365C9.68685 6.68595 9.6956 6.67187 9.6956 6.66236C9.6956 6.65156 9.70287 6.64508 9.71503 6.64508C9.73014 6.64508 9.73446 6.65156 9.73446 6.67422C9.73446 6.69025 9.73883 6.70337 9.74417 6.70337C9.74951 6.70337 9.75389 6.71648 9.75389 6.73251C9.75389 6.74854 9.75826 6.76166 9.7636 6.76166C9.76894 6.76166 9.77332 6.7704 9.77332 6.78109C9.77332 6.79177 9.77769 6.80052 9.78303 6.80052C9.78837 6.80052 9.79275 6.81363 9.79275 6.82966C9.79275 6.84569 9.79712 6.85881 9.80246 6.85881C9.80781 6.85881 9.81218 6.87192 9.81218 6.88795C9.81218 6.90398 9.81655 6.9171 9.82189 6.9171C9.82724 6.9171 9.83161 6.93021 9.83161 6.94624C9.83161 6.96227 9.83598 6.97539 9.84132 6.97539C9.84666 6.97539 9.85104 6.9885 9.85104 7.00453C9.85104 7.02056 9.85541 7.03368 9.86075 7.03368C9.86609 7.03368 9.87047 7.04679 9.87047 7.06282C9.87047 7.07885 9.87484 7.09197 9.88018 7.09197C9.88552 7.09197 9.8899 7.10508 9.8899 7.12111C9.8899 7.13714 9.89427 7.15026 9.89961 7.15026C9.90495 7.15026 9.90933 7.159 9.90933 7.16969C9.90933 7.18038 9.9137 7.18912 9.91904 7.18912C9.92439 7.18912 9.92876 7.20223 9.92876 7.21826C9.92876 7.23429 9.93313 7.24741 9.93847 7.24741C9.94382 7.24741 9.94819 7.26052 9.94819 7.27655C9.94819 7.29258 9.95256 7.3057 9.9579 7.3057C9.96325 7.3057 9.96762 7.31882 9.96762 7.33484C9.96762 7.35087 9.97199 7.36399 9.97733 7.36399C9.98268 7.36399 9.98705 7.37711 9.98705 7.39314C9.98705 7.40916 9.99142 7.42228 9.99676 7.42228C10.0021 7.42228 10.0065 7.4354 10.0065 7.45143C10.0065 7.46745 10.0108 7.48057 10.0162 7.48057C10.0215 7.48057 10.0259 7.49369 10.0259 7.50972C10.0259 7.52574 10.0303 7.53886 10.0356 7.53886C10.041 7.53886 10.0453 7.5476 10.0453 7.55829C10.0453 7.56898 10.0497 7.57772 10.0551 7.57772C10.0604 7.57772 10.0648 7.59084 10.0648 7.60687C10.0648 7.6229 10.0691 7.63601 10.0745 7.63601C10.0798 7.63601 10.0842 7.64913 10.0842 7.66516C10.0842 7.68119 10.0886 7.6943 10.0939 7.6943C10.0993 7.6943 10.1036 7.70742 10.1036 7.72345C10.1036 7.73948 10.108 7.75259 10.1133 7.75259C10.1187 7.75259 10.1231 7.76571 10.1231 7.78174C10.1231 7.79777 10.1274 7.81088 10.1328 7.81088C10.1381 7.81088 10.1425 7.824 10.1425 7.84003C10.1425 7.85606 10.1469 7.86917 10.1522 7.86917C10.1575 7.86917 10.1619 7.88229 10.1619 7.89832C10.1619 7.91435 10.1663 7.92746 10.1716 7.92746C10.177 7.92746 10.1813 7.9362 10.1813 7.94689C10.1813 7.95758 10.1857 7.96632 10.1911 7.96632C10.1964 7.96632 10.2008 7.97944 10.2008 7.99547C10.2008 8.0115 10.2051 8.02461 10.2105 8.02461C10.2158 8.02461 10.2202 8.03773 10.2202 8.05376C10.2202 8.06979 10.2246 8.0829 10.2299 8.0829C10.2353 8.0829 10.2396 8.09602 10.2396 8.11205C10.2396 8.12808 10.244 8.14119 10.2494 8.14119C10.2547 8.14119 10.2591 8.15431 10.2591 8.17034C10.2591 8.18637 10.2634 8.19948 10.2688 8.19948C10.2741 8.19948 10.2785 8.2126 10.2785 8.22863C10.2785 8.24466 10.2829 8.25777 10.2882 8.25777C10.2936 8.25777 10.2979 8.27089 10.2979 8.28692C10.2979 8.30295 10.3023 8.31606 10.3076 8.31606C10.313 8.31606 10.3174 8.32918 10.3174 8.34521C10.3174 8.36124 10.3217 8.37435 10.3271 8.37435C10.3324 8.37435 10.3368 8.3831 10.3368 8.39378C10.3368 8.40447 10.3412 8.41321 10.3465 8.41321C10.3518 8.41321 10.3562 8.42633 10.3562 8.44236C10.3562 8.45839 10.3606 8.4715 10.3659 8.4715C10.3713 8.4715 10.3756 8.48462 10.3756 8.50065C10.3756 8.51668 10.38 8.52979 10.3854 8.52979C10.3907 8.52979 10.3951 8.54291 10.3951 8.55894C10.3951 8.57497 10.3995 8.58808 10.4048 8.58808C10.4101 8.58808 10.4145 8.6012 10.4145 8.61723C10.4145 8.63326 10.4189 8.64637 10.4242 8.64637C10.4296 8.64637 10.4339 8.65949 10.4339 8.67552C10.4339 8.69155 10.4383 8.70466 10.4437 8.70466C10.449 8.70466 10.4534 8.71778 10.4534 8.73381C10.4534 8.74984 10.4577 8.76295 10.4631 8.76295C10.4684 8.76295 10.4728 8.7717 10.4728 8.78238C10.4728 8.79307 10.4772 8.80181 10.4825 8.80181C10.4879 8.80181 10.4922 8.81056 10.4922 8.82124C10.4922 8.84035 10.4857 8.84067 10.0939 8.84067H9.6956V9.51101V10.1813H12.3478H15V9.51101V8.84067H14.4754H13.9508V8.81153C13.9508 8.7955 13.9464 8.78238 13.9411 8.78238C13.9357 8.78238 13.9313 8.77364 13.9313 8.76295C13.9313 8.75227 13.927 8.74352 13.9216 8.74352C13.9163 8.74352 13.9119 8.73041 13.9119 8.71438C13.9119 8.69835 13.9075 8.68523 13.9022 8.68523C13.8969 8.68523 13.8925 8.67649 13.8925 8.6658C13.8925 8.65512 13.8881 8.64637 13.8828 8.64637C13.8774 8.64637 13.8731 8.63326 13.8731 8.61723C13.8731 8.6012 13.8687 8.58808 13.8633 8.58808C13.858 8.58808 13.8536 8.57497 13.8536 8.55894C13.8536 8.54291 13.8493 8.52979 13.8439 8.52979C13.8386 8.52979 13.8342 8.52105 13.8342 8.51036C13.8342 8.49968 13.8298 8.49093 13.8245 8.49093C13.8191 8.49093 13.8148 8.47782 13.8148 8.46179C13.8148 8.44576 13.8104 8.43264 13.8051 8.43264C13.7997 8.43264 13.7953 8.4239 13.7953 8.41321C13.7953 8.40253 13.791 8.39378 13.7856 8.39378C13.7803 8.39378 13.7759 8.38067 13.7759 8.36464C13.7759 8.34861 13.7715 8.33549 13.7662 8.33549C13.7608 8.33549 13.7565 8.32675 13.7565 8.31606C13.7565 8.30538 13.7521 8.29663 13.7468 8.29663C13.7414 8.29663 13.737 8.28352 13.737 8.26749C13.737 8.25146 13.7327 8.23834 13.7273 8.23834C13.722 8.23834 13.7176 8.2296 13.7176 8.21891C13.7176 8.20823 13.7132 8.19948 13.7079 8.19948C13.7026 8.19948 13.6982 8.18637 13.6982 8.17034C13.6982 8.15431 13.6938 8.14119 13.6885 8.14119C13.6831 8.14119 13.6788 8.13245 13.6788 8.12176C13.6788 8.11108 13.6744 8.10233 13.669 8.10233C13.6637 8.10233 13.6593 8.08922 13.6593 8.07319C13.6593 8.05716 13.655 8.04404 13.6496 8.04404C13.6443 8.04404 13.6399 8.0353 13.6399 8.02461C13.6399 8.01393 13.6355 8.00518 13.6302 8.00518C13.6248 8.00518 13.6205 7.99207 13.6205 7.97604C13.6205 7.96001 13.6161 7.94689 13.6108 7.94689C13.6054 7.94689 13.601 7.93815 13.601 7.92746C13.601 7.91677 13.5967 7.90803 13.5913 7.90803C13.586 7.90803 13.5816 7.89492 13.5816 7.87889C13.5816 7.86286 13.5772 7.84974 13.5719 7.84974C13.5665 7.84974 13.5622 7.841 13.5622 7.83031C13.5622 7.81962 13.5578 7.81088 13.5525 7.81088C13.5471 7.81088 13.5427 7.79777 13.5427 7.78174C13.5427 7.76571 13.5384 7.75259 13.533 7.75259C13.5277 7.75259 13.5233 7.74385 13.5233 7.73316C13.5233 7.72247 13.5189 7.71373 13.5136 7.71373C13.5083 7.71373 13.5039 7.70062 13.5039 7.68459C13.5039 7.66856 13.4995 7.65544 13.4942 7.65544C13.4888 7.65544 13.4845 7.6467 13.4845 7.63601C13.4845 7.62532 13.4801 7.61658 13.4747 7.61658C13.4694 7.61658 13.465 7.60347 13.465 7.58744C13.465 7.57141 13.4607 7.55829 13.4553 7.55829C13.45 7.55829 13.4456 7.54518 13.4456 7.52915C13.4456 7.51312 13.4412 7.5 13.4359 7.5C13.4305 7.5 13.4262 7.49126 13.4262 7.48057C13.4262 7.46988 13.4218 7.46114 13.4165 7.46114C13.4111 7.46114 13.4067 7.44802 13.4067 7.43199C13.4067 7.41597 13.4024 7.40285 13.397 7.40285C13.3917 7.40285 13.3873 7.39411 13.3873 7.38342C13.3873 7.37273 13.3829 7.36399 13.3776 7.36399C13.3722 7.36399 13.3679 7.35087 13.3679 7.33484C13.3679 7.31882 13.3635 7.3057 13.3582 7.3057C13.3528 7.3057 13.3484 7.29696 13.3484 7.28627C13.3484 7.27558 13.3441 7.26684 13.3387 7.26684C13.3334 7.26684 13.329 7.25372 13.329 7.23769C13.329 7.22166 13.3246 7.20855 13.3193 7.20855C13.314 7.20855 13.3096 7.19981 13.3096 7.18912C13.3096 7.17843 13.3052 7.16969 13.2999 7.16969C13.2945 7.16969 13.2902 7.15657 13.2902 7.14054C13.2902 7.12451 13.2858 7.1114 13.2804 7.1114C13.2751 7.1114 13.2707 7.10266 13.2707 7.09197C13.2707 7.08128 13.2664 7.07254 13.261 7.07254C13.2557 7.07254 13.2513 7.05942 13.2513 7.04339C13.2513 7.02736 13.2469 7.01425 13.2416 7.01425C13.2362 7.01425 13.2319 7.00551 13.2319 6.99482C13.2319 6.98413 13.2275 6.97539 13.2222 6.97539C13.2168 6.97539 13.2124 6.96227 13.2124 6.94624C13.2124 6.93021 13.2081 6.9171 13.2027 6.9171C13.1974 6.9171 13.193 6.90836 13.193 6.89767C13.193 6.88698 13.1886 6.87824 13.1833 6.87824C13.1779 6.87824 13.1736 6.86512 13.1736 6.84909C13.1736 6.83306 13.1692 6.81995 13.1639 6.81995C13.1585 6.81995 13.1541 6.8112 13.1541 6.80052C13.1541 6.78983 13.1498 6.78109 13.1444 6.78109C13.1391 6.78109 13.1347 6.76797 13.1347 6.75194C13.1347 6.73591 13.1303 6.7228 13.125 6.7228C13.1197 6.7228 13.1153 6.71405 13.1153 6.70337C13.1153 6.69268 13.1109 6.68394 13.1056 6.68394C13.1002 6.68394 13.0959 6.67082 13.0959 6.65479C13.0959 6.63876 13.0915 6.62565 13.0861 6.62565C13.0808 6.62565 13.0764 6.6169 13.0764 6.60622C13.0764 6.59553 13.0721 6.58679 13.0667 6.58679C13.0614 6.58679 13.057 6.57367 13.057 6.55764C13.057 6.54161 13.0526 6.5285 13.0473 6.5285C13.0419 6.5285 13.0376 6.51538 13.0376 6.49935C13.0376 6.48332 13.0332 6.47021 13.0279 6.47021C13.0225 6.47021 13.0181 6.46146 13.0181 6.45078C13.0181 6.44009 13.0138 6.43135 13.0084 6.43135C13.0031 6.43135 12.9987 6.41823 12.9987 6.4022C12.9987 6.38617 12.9943 6.37306 12.989 6.37306C12.9836 6.37306 12.9793 6.36431 12.9793 6.35363C12.9793 6.34294 12.9749 6.3342 12.9696 6.3342C12.9642 6.3342 12.9598 6.32108 12.9598 6.30505C12.9598 6.28902 12.9555 6.27591 12.9501 6.27591C12.9448 6.27591 12.9404 6.26716 12.9404 6.25648C12.9404 6.24579 12.936 6.23705 12.9307 6.23705C12.9254 6.23705 12.921 6.22393 12.921 6.2079C12.921 6.19187 12.9166 6.17876 12.9113 6.17876C12.9059 6.17876 12.9016 6.17001 12.9016 6.15933C12.9016 6.14864 12.8972 6.1399 12.8918 6.1399C12.8865 6.1399 12.8821 6.12678 12.8821 6.11075C12.8821 6.09472 12.8778 6.08161 12.8724 6.08161C12.8671 6.08161 12.8627 6.07286 12.8627 6.06218C12.8627 6.05149 12.8583 6.04275 12.853 6.04275C12.8476 6.04275 12.8433 6.02963 12.8433 6.0136C12.8433 5.99757 12.8389 5.98446 12.8335 5.98446C12.8282 5.98446 12.8238 5.97571 12.8238 5.96503C12.8238 5.95434 12.8195 5.9456 12.8141 5.9456C12.8088 5.9456 12.8044 5.93248 12.8044 5.91645C12.8044 5.90042 12.8 5.88731 12.7947 5.88731C12.7893 5.88731 12.785 5.87856 12.785 5.86788C12.785 5.85719 12.7806 5.84845 12.7753 5.84845C12.7699 5.84845 12.7655 5.83533 12.7655 5.8193C12.7655 5.80327 12.7612 5.79016 12.7558 5.79016C12.7505 5.79016 12.7461 5.78141 12.7461 5.77073C12.7461 5.76004 12.7417 5.7513 12.7364 5.7513C12.7311 5.7513 12.7267 5.73818 12.7267 5.72215C12.7267 5.70612 12.7223 5.69301 12.717 5.69301C12.7116 5.69301 12.7073 5.68426 12.7073 5.67358C12.7073 5.66289 12.7029 5.65415 12.6975 5.65415C12.6922 5.65415 12.6878 5.64103 12.6878 5.625C12.6878 5.60897 12.6835 5.59586 12.6781 5.59586C12.6728 5.59586 12.6684 5.58274 12.6684 5.56671C12.6684 5.55068 12.664 5.53756 12.6587 5.53756C12.6533 5.53756 12.649 5.52882 12.649 5.51814C12.649 5.50745 12.6446 5.4987 12.6392 5.4987C12.6339 5.4987 12.6295 5.48559 12.6295 5.46956C12.6295 5.45353 12.6252 5.44041 12.6198 5.44041C12.6145 5.44041 12.6101 5.43167 12.6101 5.42098C12.6101 5.4103 12.6057 5.40155 12.6004 5.40155C12.595 5.40155 12.5907 5.38844 12.5907 5.37241C12.5907 5.35638 12.5863 5.34326 12.581 5.34326C12.5756 5.34326 12.5712 5.33452 12.5712 5.32383C12.5712 5.31315 12.5669 5.3044 12.5615 5.3044C12.5562 5.3044 12.5518 5.29129 12.5518 5.27526C12.5518 5.25923 12.5474 5.24611 12.5421 5.24611C12.5368 5.24611 12.5324 5.23737 12.5324 5.22668C12.5324 5.216 12.528 5.20725 12.5227 5.20725C12.5173 5.20725 12.513 5.19414 12.513 5.17811C12.513 5.16208 12.5086 5.14896 12.5032 5.14896C12.4979 5.14896 12.4935 5.14022 12.4935 5.12953C12.4935 5.11885 12.4892 5.1101 12.4838 5.1101C12.4785 5.1101 12.4741 5.09699 12.4741 5.08096C12.4741 5.06493 12.4697 5.05181 12.4644 5.05181C12.459 5.05181 12.4547 5.04307 12.4547 5.03238C12.4547 5.0217 12.4503 5.01295 12.4449 5.01295C12.4396 5.01295 12.4352 4.99984 12.4352 4.98381C12.4352 4.96778 12.4309 4.95466 12.4255 4.95466C12.4202 4.95466 12.4158 4.94592 12.4158 4.93523C12.4158 4.92455 12.4114 4.9158 12.4061 4.9158C12.4007 4.9158 12.3964 4.90269 12.3964 4.88666C12.3964 4.87063 12.392 4.85751 12.3867 4.85751C12.3813 4.85751 12.3769 4.84877 12.3769 4.83808C12.3769 4.8274 12.3726 4.81865 12.3672 4.81865C12.3619 4.81865 12.3575 4.80554 12.3575 4.78951C12.3575 4.77348 12.3531 4.76036 12.3478 4.76036C12.3425 4.76036 12.3381 4.75162 12.3381 4.74093C12.3381 4.73025 12.3337 4.7215 12.3284 4.7215C12.323 4.7215 12.3187 4.70839 12.3187 4.69236C12.3187 4.67633 12.3143 4.66321 12.3089 4.66321C12.3036 4.66321 12.2992 4.65447 12.2992 4.64378C12.2992 4.6331 12.2949 4.62435 12.2895 4.62435C12.2842 4.62435 12.2798 4.61124 12.2798 4.59521C12.2798 4.57918 12.2754 4.56606 12.2701 4.56606C12.2647 4.56606 12.2604 4.55295 12.2604 4.53692C12.2604 4.52089 12.256 4.50777 12.2506 4.50777C12.2453 4.50777 12.2409 4.49903 12.2409 4.48834C12.2409 4.47766 12.2366 4.46891 12.2312 4.46891C12.2259 4.46891 12.2215 4.4558 12.2215 4.43977C12.2215 4.42374 12.2171 4.41062 12.2118 4.41062C12.2064 4.41062 12.2021 4.40188 12.2021 4.39119C12.2021 4.38051 12.1977 4.37176 12.1924 4.37176C12.187 4.37176 12.1826 4.35865 12.1826 4.34262C12.1826 4.32659 12.1783 4.31347 12.1729 4.31347C12.1676 4.31347 12.1632 4.30473 12.1632 4.29404C12.1632 4.28336 12.1588 4.27461 12.1535 4.27461C12.1482 4.27461 12.1438 4.2615 12.1438 4.24547C12.1438 4.22944 12.1394 4.21632 12.1341 4.21632C12.1287 4.21632 12.1244 4.20758 12.1244 4.19689C12.1244 4.1862 12.12 4.17746 12.1146 4.17746C12.1093 4.17746 12.1049 4.16435 12.1049 4.14832C12.1049 4.13229 12.1006 4.11917 12.0952 4.11917C12.0899 4.11917 12.0855 4.11043 12.0855 4.09974C12.0855 4.08905 12.0811 4.08031 12.0758 4.08031C12.0704 4.08031 12.0661 4.0672 12.0661 4.05117C12.0661 4.03514 12.0617 4.02202 12.0563 4.02202C12.051 4.02202 12.0466 4.01328 12.0466 4.00259C12.0466 3.9919 12.0423 3.98316 12.0369 3.98316C12.0316 3.98316 12.0272 3.97005 12.0272 3.95402C12.0272 3.93799 12.0228 3.92487 12.0175 3.92487C12.0121 3.92487 12.0078 3.91613 12.0078 3.90544C12.0078 3.89475 12.0034 3.88601 11.9981 3.88601C11.9927 3.88601 11.9883 3.8729 11.9883 3.85687C11.9883 3.84084 11.984 3.82772 11.9786 3.82772C11.9733 3.82772 11.9689 3.81898 11.9689 3.80829C11.9689 3.7976 11.9645 3.78886 11.9592 3.78886C11.9539 3.78886 11.9495 3.77574 11.9495 3.75972C11.9495 3.74369 11.9451 3.73057 11.9398 3.73057C11.9344 3.73057 11.9301 3.72183 11.9301 3.71114C11.9301 3.70045 11.9257 3.69171 11.9203 3.69171C11.915 3.69171 11.9106 3.67859 11.9106 3.66256C11.9106 3.64654 11.9062 3.63342 11.9009 3.63342C11.8956 3.63342 11.8912 3.62468 11.8912 3.61399C11.8912 3.6033 11.8868 3.59456 11.8815 3.59456C11.8761 3.59456 11.8718 3.58144 11.8718 3.56541C11.8718 3.54938 11.8674 3.53627 11.862 3.53627C11.8567 3.53627 11.8523 3.52315 11.8523 3.50712C11.8523 3.49109 11.848 3.47798 11.8426 3.47798C11.8373 3.47798 11.8329 3.46924 11.8329 3.45855C11.8329 3.44786 11.8285 3.43912 11.8232 3.43912C11.8178 3.43912 11.8135 3.426 11.8135 3.40997C11.8135 3.39394 11.8091 3.38083 11.8038 3.38083C11.7984 3.38083 11.794 3.37209 11.794 3.3614C11.794 3.35071 11.7897 3.34197 11.7843 3.34197C11.779 3.34197 11.7746 3.32885 11.7746 3.31282C11.7746 3.29679 11.7702 3.28368 11.7649 3.28368C11.7596 3.28368 11.7552 3.27494 11.7552 3.26425C11.7552 3.25356 11.7508 3.24482 11.7455 3.24482C11.7401 3.24482 11.7358 3.2317 11.7358 3.21567C11.7358 3.19964 11.7314 3.18653 11.726 3.18653C11.7207 3.18653 11.7163 3.17779 11.7163 3.1671C11.7163 3.15641 11.712 3.14767 11.7066 3.14767C11.7013 3.14767 11.6969 3.13455 11.6969 3.11852C11.6969 3.10249 11.6925 3.08938 11.6872 3.08938C11.6818 3.08938 11.6775 3.08063 11.6775 3.06995C11.6775 3.05926 11.6731 3.05052 11.6677 3.05052C11.6624 3.05052 11.658 3.0374 11.658 3.02137C11.658 3.00534 11.6537 2.99223 11.6483 2.99223C11.643 2.99223 11.6386 2.98348 11.6386 2.9728C11.6386 2.96211 11.6342 2.95337 11.6289 2.95337C11.6235 2.95337 11.6192 2.94025 11.6192 2.92422C11.6192 2.90819 11.6148 2.89508 11.6095 2.89508C11.6041 2.89508 11.5997 2.88633 11.5997 2.87565C11.5997 2.86496 11.5954 2.85622 11.59 2.85622C11.5847 2.85622 11.5803 2.8431 11.5803 2.82707C11.5803 2.81104 11.5759 2.79793 11.5706 2.79793C11.5653 2.79793 11.5609 2.78918 11.5609 2.7785C11.5609 2.76781 11.5565 2.75907 11.5512 2.75907C11.5458 2.75907 11.5415 2.74595 11.5415 2.72992C11.5415 2.71389 11.5371 2.70078 11.5317 2.70078C11.5264 2.70078 11.522 2.69203 11.522 2.68135C11.522 2.67066 11.5176 2.66192 11.5123 2.66192C11.507 2.66192 11.5026 2.6488 11.5026 2.63277C11.5026 2.61674 11.4982 2.60363 11.4929 2.60363C11.4875 2.60363 11.4832 2.59051 11.4832 2.57448C11.4832 2.55845 11.4788 2.54534 11.4734 2.54534C11.4681 2.54534 11.4637 2.53659 11.4637 2.52591C11.4637 2.51522 11.4594 2.50648 11.454 2.50648C11.4487 2.50648 11.4443 2.49336 11.4443 2.47733C11.4443 2.4613 11.4399 2.44819 11.4346 2.44819C11.4292 2.44819 11.4249 2.43944 11.4249 2.42876C11.4249 2.41807 11.4205 2.40933 11.4152 2.40933C11.4098 2.40933 11.4054 2.39621 11.4054 2.38018C11.4054 2.36415 11.4011 2.35104 11.3957 2.35104C11.3904 2.35104 11.386 2.34229 11.386 2.33161C11.386 2.32092 11.3816 2.31218 11.3763 2.31218C11.371 2.31218 11.3666 2.29906 11.3666 2.28303C11.3666 2.267 11.3622 2.25389 11.3569 2.25389C11.3515 2.25389 11.3472 2.24514 11.3472 2.23446C11.3472 2.22377 11.3428 2.21503 11.3374 2.21503C11.3321 2.21503 11.3277 2.20191 11.3277 2.18588C11.3277 2.16985 11.3233 2.15674 11.318 2.15674C11.3127 2.15674 11.3083 2.14799 11.3083 2.13731C11.3083 2.12662 11.3039 2.11788 11.2986 2.11788C11.2932 2.11788 11.2889 2.10476 11.2889 2.08873C11.2889 2.0727 11.2845 2.05959 11.2791 2.05959C11.2738 2.05959 11.2694 2.05084 11.2694 2.04016C11.2694 2.02947 11.2651 2.02073 11.2597 2.02073C11.2544 2.02073 11.25 2.00761 11.25 1.99158C11.25 1.97555 11.2456 1.96244 11.2403 1.96244C11.2349 1.96244 11.2306 1.95369 11.2306 1.94301C11.2306 1.93232 11.2262 1.92358 11.2209 1.92358C11.2155 1.92358 11.2111 1.91046 11.2111 1.89443C11.2111 1.8784 11.2068 1.86529 11.2014 1.86529C11.1961 1.86529 11.1917 1.85654 11.1917 1.84585C11.1917 1.83517 11.1873 1.82642 11.182 1.82642C11.1767 1.82642 11.1723 1.81331 11.1723 1.79728C11.1723 1.78125 11.1679 1.76813 11.1626 1.76813C11.1572 1.76813 11.1529 1.75939 11.1529 1.7487C11.1529 1.73802 11.1485 1.72927 11.1431 1.72927C11.1378 1.72927 11.1334 1.71616 11.1334 1.70013C11.1334 1.6841 11.129 1.67098 11.1237 1.67098C11.1184 1.67098 11.114 1.66224 11.114 1.65155C11.114 1.64087 11.1096 1.63212 11.1043 1.63212C11.0989 1.63212 11.0946 1.61901 11.0946 1.60298C11.0946 1.58695 11.0902 1.57383 11.0848 1.57383C11.0795 1.57383 11.0751 1.56072 11.0751 1.54469C11.0751 1.52866 11.0708 1.51554 11.0654 1.51554C11.0601 1.51554 11.0557 1.5068 11.0557 1.49611C11.0557 1.48543 11.0513 1.47668 11.046 1.47668C11.0406 1.47668 11.0363 1.46357 11.0363 1.44754C11.0363 1.43151 11.0319 1.41839 11.0266 1.41839C11.0212 1.41839 11.0168 1.40965 11.0168 1.39896C11.0168 1.38828 11.0125 1.37953 11.0071 1.37953C11.0018 1.37953 10.9974 1.36642 10.9974 1.35039C10.9974 1.33436 10.993 1.32124 10.9877 1.32124C10.9824 1.32124 10.978 1.3125 10.978 1.30181C10.978 1.29113 10.9736 1.28238 10.9683 1.28238C10.9629 1.28238 10.9585 1.26927 10.9585 1.25324C10.9585 1.23721 10.9542 1.22409 10.9488 1.22409C10.9435 1.22409 10.9391 1.21535 10.9391 1.20466C10.9391 1.19398 10.9347 1.18523 10.9294 1.18523C10.9241 1.18523 10.9197 1.17212 10.9197 1.15609C10.9197 1.14006 10.9153 1.12694 10.91 1.12694C10.9046 1.12694 10.9003 1.1182 10.9003 1.10751C10.9003 1.09683 10.8959 1.08808 10.8905 1.08808C10.8852 1.08808 10.8808 1.07497 10.8808 1.05894C10.8808 1.04291 10.8765 1.02979 10.8711 1.02979C10.8658 1.02979 10.8614 1.02105 10.8614 1.01036C10.8614 0.999676 10.857 0.990933 10.8517 0.990933C10.8463 0.990933 10.842 0.977817 10.842 0.961788C10.842 0.945758 10.8376 0.932643 10.8323 0.932643C10.8269 0.932643 10.8225 0.923899 10.8225 0.913212C10.8225 0.902526 10.8182 0.893782 10.8128 0.893782C10.8075 0.893782 10.8031 0.880667 10.8031 0.864637C10.8031 0.848608 10.7987 0.835492 10.7934 0.835492C10.7881 0.835492 10.7837 0.826749 10.7837 0.816062C10.7837 0.805376 10.7793 0.796632 10.774 0.796632C10.7686 0.796632 10.7642 0.783517 10.7642 0.767487C10.7642 0.751457 10.7599 0.738342 10.7545 0.738342C10.7492 0.738342 10.7448 0.729598 10.7448 0.718912C10.7448 0.708225 10.7404 0.699482 10.7351 0.699482C10.7298 0.699482 10.7254 0.686367 10.7254 0.670337C10.7254 0.654307 10.721 0.641192 10.7157 0.641192C10.7103 0.641192 10.706 0.632448 10.706 0.621762C10.706 0.611075 10.7016 0.602332 10.6962 0.602332C10.6909 0.602332 10.6865 0.589216 10.6865 0.573187C10.6865 0.557157 10.6822 0.544041 10.6768 0.544041C10.6715 0.544041 10.6671 0.530926 10.6671 0.514896C10.6671 0.498867 10.6627 0.485751 10.6574 0.485751C10.652 0.485751 10.6477 0.477008 10.6477 0.466321C10.6477 0.455635 10.6433 0.446891 10.638 0.446891C10.6326 0.446891 10.6282 0.433776 10.6282 0.417746C10.6282 0.401716 10.6239 0.388601 10.6185 0.388601C10.6132 0.388601 10.6088 0.379858 10.6088 0.369171C10.6088 0.358484 10.6044 0.349741 10.5991 0.349741C10.5938 0.349741 10.5894 0.336626 10.5894 0.320596C10.5894 0.304566 10.585 0.291451 10.5797 0.291451C10.5743 0.291451 10.5699 0.282707 10.5699 0.272021C10.5699 0.261334 10.5656 0.252591 10.5602 0.252591C10.5549 0.252591 10.5505 0.239475 10.5505 0.223446C10.5505 0.207416 10.5461 0.194301 10.5408 0.194301C10.5355 0.194301 10.5311 0.185557 10.5311 0.17487C10.5311 0.164184 10.5267 0.15544 10.5214 0.15544C10.516 0.15544 10.5117 0.142325 10.5117 0.126295C10.5117 0.110266 10.5073 0.0971503 10.5019 0.0971503C10.4966 0.0971503 10.4922 0.0884067 10.4922 0.0777202C10.4922 0.0670337 10.4879 0.0582902 10.4825 0.0582902C10.4772 0.0582902 10.4728 0.0451749 10.4728 0.0291451C10.4728 0.0131153 10.4704 0 10.4675 0C10.4557 0 10.4145 0.0487207 10.4145 0.0627104C10.4145 0.0709681 10.4101 0.0777202 10.4048 0.0777202C10.3995 0.0777202 10.3951 0.0864637 10.3951 0.0971503C10.3951 0.107837 10.3907 0.11658 10.3854 0.11658C10.38 0.11658 10.3756 0.124362 10.3756 0.133863C10.3756 0.143374 10.3669 0.157451 10.3562 0.165155C10.3455 0.172859 10.3368 0.186937 10.3368 0.196448C10.3368 0.205949 10.3324 0.213731 10.3271 0.213731C10.3217 0.213731 10.3174 0.222474 10.3174 0.233161C10.3174 0.243847 10.313 0.252591 10.3076 0.252591C10.3023 0.252591 10.2979 0.260372 10.2979 0.269874C10.2979 0.279385 10.2892 0.293462 10.2785 0.301166C10.2678 0.30887 10.2591 0.322947 10.2591 0.332458C10.2591 0.341959 10.2547 0.349741 10.2494 0.349741C10.244 0.349741 10.2396 0.358484 10.2396 0.369171C10.2396 0.379858 10.2353 0.388601 10.2299 0.388601C10.2246 0.388601 10.2202 0.396383 10.2202 0.405884C10.2202 0.415395 10.2115 0.429472 10.2008 0.437176C10.1901 0.44488 10.1813 0.458957 10.1813 0.468468C10.1813 0.47797 10.177 0.485751 10.1716 0.485751C10.1663 0.485751 10.1619 0.494495 10.1619 0.505181C10.1619 0.515868 10.1575 0.524611 10.1522 0.524611C10.1469 0.524611 10.1425 0.532393 10.1425 0.541894C10.1425 0.551405 10.1337 0.565483 10.1231 0.573187C10.1124 0.580891 10.1036 0.594968 10.1036 0.604479C10.1036 0.61398 10.0993 0.621762 10.0939 0.621762C10.0886 0.621762 10.0842 0.630505 10.0842 0.641192C10.0842 0.651878 10.0798 0.660622 10.0745 0.660622C10.0691 0.660622 10.0648 0.668403 10.0648 0.677905C10.0648 0.687416 10.056 0.701493 10.0453 0.709197C10.0347 0.716901 10.0259 0.730978 10.0259 0.740489C10.0259 0.74999 10.0215 0.757772 10.0162 0.757772C10.0108 0.757772 10.0065 0.766516 10.0065 0.777202C10.0065 0.787889 10.0021 0.796632 9.99676 0.796632C9.99142 0.796632 9.98705 0.804414 9.98705 0.813915C9.98705 0.823426 9.9783 0.837503 9.96762 0.845207C9.95693 0.852911 9.94819 0.866988 9.94819 0.876499C9.94819 0.886001 9.94382 0.893782 9.93847 0.893782C9.93313 0.893782 9.92876 0.902526 9.92876 0.913212C9.92876 0.923899 9.92439 0.932643 9.91904 0.932643C9.9137 0.932643 9.90933 0.940424 9.90933 0.949925C9.90933 0.959436 9.90058 0.973514 9.8899 0.981218C9.87921 0.988922 9.87047 1.003 9.87047 1.01251C9.87047 1.02201 9.86609 1.02979 9.86075 1.02979C9.85541 1.02979 9.85104 1.03854 9.85104 1.04922C9.85104 1.05991 9.84666 1.06865 9.84132 1.06865C9.83598 1.06865 9.83161 1.07643 9.83161 1.08594C9.83161 1.09545 9.82286 1.10952 9.81218 1.11723C9.80149 1.12493 9.79275 1.13901 9.79275 1.14852C9.79275 1.15802 9.78837 1.1658 9.78303 1.1658C9.77769 1.1658 9.77332 1.17455 9.77332 1.18523C9.77332 1.19592 9.76894 1.20466 9.7636 1.20466C9.75826 1.20466 9.75389 1.21244 9.75389 1.22195C9.75389 1.23146 9.74514 1.24553 9.73446 1.25324C9.72377 1.26094 9.71503 1.27502 9.71503 1.28453C9.71503 1.29403 9.71065 1.30181 9.70531 1.30181C9.69997 1.30181 9.6956 1.31056 9.6956 1.32124C9.6956 1.33193 9.69122 1.34067 9.68588 1.34067C9.68054 1.34067 9.67617 1.34846 9.67617 1.35796C9.67617 1.36747 9.66742 1.38154 9.65674 1.38925C9.64605 1.39695 9.63731 1.41103 9.63731 1.42054C9.63731 1.43004 9.63293 1.43782 9.62759 1.43782C9.62225 1.43782 9.61788 1.44657 9.61788 1.45725C9.61788 1.46794 9.6135 1.47668 9.60816 1.47668C9.60282 1.47668 9.59845 1.48447 9.59845 1.49397C9.59845 1.50348 9.5897 1.51756 9.57902 1.52526C9.56833 1.53296 9.55959 1.54704 9.55959 1.55655C9.55959 1.56605 9.55521 1.57383 9.54987 1.57383C9.54453 1.57383 9.54016 1.58258 9.54016 1.59326C9.54016 1.60395 9.53578 1.61269 9.53044 1.61269C9.5251 1.61269 9.52073 1.62048 9.52073 1.62998C9.52073 1.63949 9.51198 1.65357 9.5013 1.66127C9.49061 1.66897 9.48187 1.68305 9.48187 1.69256C9.48187 1.70206 9.47749 1.70984 9.47215 1.70984C9.46681 1.70984 9.46244 1.71859 9.46244 1.72927C9.46244 1.73996 9.45806 1.7487 9.45272 1.7487C9.44738 1.7487 9.44301 1.75649 9.44301 1.76599C9.44301 1.7755 9.43426 1.78958 9.42358 1.79728C9.41289 1.80498 9.40415 1.81906 9.40415 1.82857C9.40415 1.83807 9.39977 1.84585 9.39443 1.84585C9.38909 1.84585 9.38472 1.8546 9.38472 1.86529C9.38472 1.87597 9.38034 1.88472 9.375 1.88472C9.36966 1.88472 9.36528 1.8925 9.36528 1.902C9.36528 1.91151 9.35654 1.92559 9.34586 1.93329C9.33517 1.94099 9.32643 1.95507 9.32643 1.96458C9.32643 1.97408 9.32205 1.98187 9.31671 1.98187C9.31137 1.98187 9.307 1.99061 9.307 2.0013C9.307 2.01198 9.30262 2.02073 9.29728 2.02073C9.29194 2.02073 9.28757 2.02851 9.28757 2.03801C9.28757 2.04752 9.27882 2.0616 9.26814 2.0693C9.25745 2.077 9.2487 2.09108 9.2487 2.10059C9.2487 2.11009 9.24433 2.11788 9.23899 2.11788C9.23365 2.11788 9.22927 2.12662 9.22927 2.13731C9.22927 2.14799 9.2249 2.15674 9.21956 2.15674C9.21422 2.15674 9.20984 2.16452 9.20984 2.17402C9.20984 2.18353 9.2011 2.19761 9.19041 2.20531C9.17973 2.21302 9.17099 2.22709 9.17099 2.2366C9.17099 2.2461 9.16661 2.25389 9.16127 2.25389C9.15593 2.25389 9.15156 2.26263 9.15156 2.27332C9.15156 2.284 9.14718 2.29275 9.14184 2.29275C9.1365 2.29275 9.13212 2.30053 9.13212 2.31003C9.13212 2.31954 9.12338 2.33362 9.11269 2.34132C9.10201 2.34903 9.09326 2.3631 9.09326 2.37261C9.09326 2.38211 9.08889 2.3899 9.08355 2.3899C9.07821 2.3899 9.07383 2.39864 9.07383 2.40933C9.07383 2.42001 9.06946 2.42876 9.06412 2.42876C9.05878 2.42876 9.0544 2.43654 9.0544 2.44604C9.0544 2.45555 9.04566 2.46963 9.03497 2.47733C9.02429 2.48504 9.01554 2.49911 9.01554 2.50862C9.01554 2.51813 9.01117 2.52591 9.00583 2.52591C9.00049 2.52591 8.99611 2.53465 8.99611 2.54534C8.99611 2.55602 8.99174 2.56477 8.9864 2.56477C8.98106 2.56477 8.97668 2.57255 8.97668 2.58205C8.97668 2.59156 8.96794 2.60564 8.95725 2.61334C8.94657 2.62105 8.93782 2.63512 8.93782 2.64463C8.93782 2.65414 8.93345 2.66192 8.92811 2.66192C8.92277 2.66192 8.91839 2.67066 8.91839 2.68135C8.91839 2.69203 8.91402 2.70078 8.90868 2.70078C8.90334 2.70078 8.89896 2.70856 8.89896 2.71806C8.89896 2.72757 8.89022 2.74165 8.87953 2.74935C8.86885 2.75706 8.8601 2.77113 8.8601 2.78064C8.8601 2.79015 8.85573 2.79793 8.85039 2.79793C8.84505 2.79793 8.84067 2.80667 8.84067 2.81736C8.84067 2.82804 8.8363 2.83679 8.83096 2.83679C8.82562 2.83679 8.82124 2.84457 8.82124 2.85407C8.82124 2.86358 8.8125 2.87766 8.80181 2.88536C8.79113 2.89307 8.78238 2.90714 8.78238 2.91666C8.78238 2.92616 8.77801 2.93394 8.77267 2.93394C8.76733 2.93394 8.76295 2.94268 8.76295 2.95337C8.76295 2.96405 8.75858 2.9728 8.75324 2.9728C8.7479 2.9728 8.74352 2.98058 8.74352 2.99008C8.74352 2.99959 8.73478 3.01367 8.72409 3.02137C8.71341 3.02908 8.70466 3.04315 8.70466 3.05267C8.70466 3.06217 8.70029 3.06995 8.69495 3.06995C8.6896 3.06995 8.68523 3.07869 8.68523 3.08938C8.68523 3.10006 8.68086 3.10881 8.67552 3.10881C8.67018 3.10881 8.6658 3.11659 8.6658 3.12609C8.6658 3.1356 8.65706 3.14968 8.64637 3.15738C8.63569 3.16509 8.62694 3.17916 8.62694 3.18868C8.62694 3.19818 8.62257 3.20596 8.61723 3.20596C8.61189 3.20596 8.60751 3.2147 8.60751 3.22539C8.60751 3.23608 8.60314 3.24482 8.5978 3.24482C8.59245 3.24482 8.58808 3.2526 8.58808 3.2621C8.58808 3.27161 8.57934 3.28569 8.56865 3.29339C8.55797 3.3011 8.54922 3.31518 8.54922 3.32469C8.54922 3.33419 8.54485 3.34197 8.53951 3.34197C8.53416 3.34197 8.52979 3.35071 8.52979 3.3614C8.52979 3.37209 8.52542 3.38083 8.52008 3.38083C8.51474 3.38083 8.51036 3.38861 8.51036 3.39811C8.51036 3.40762 8.50162 3.4217 8.49093 3.4294C8.48025 3.43711 8.4715 3.45119 8.4715 3.4607C8.4715 3.4702 8.46713 3.47798 8.46179 3.47798C8.45644 3.47798 8.45207 3.48672 8.45207 3.49741C8.45207 3.5081 8.4477 3.51684 8.44236 3.51684C8.43701 3.51684 8.43264 3.52462 8.43264 3.53412C8.43264 3.54363 8.4239 3.55771 8.41321 3.56541C8.40253 3.57312 8.39378 3.5872 8.39378 3.59671C8.39378 3.60621 8.38941 3.61399 8.38407 3.61399C8.37872 3.61399 8.37435 3.62273 8.37435 3.63342C8.37435 3.64411 8.36998 3.65285 8.36464 3.65285C8.35929 3.65285 8.35492 3.66063 8.35492 3.67013C8.35492 3.67964 8.34618 3.69372 8.33549 3.70143C8.32481 3.70913 8.31606 3.72321 8.31606 3.73272C8.31606 3.74222 8.31169 3.75 8.30635 3.75C8.301 3.75 8.29663 3.75874 8.29663 3.76943C8.29663 3.78012 8.29226 3.78886 8.28692 3.78886C8.28157 3.78886 8.2772 3.79664 8.2772 3.80614C8.2772 3.81565 8.26846 3.82973 8.25777 3.83744C8.24709 3.84514 8.23834 3.85922 8.23834 3.86873C8.23834 3.87823 8.23397 3.88601 8.22863 3.88601C8.22328 3.88601 8.21891 3.89475 8.21891 3.90544C8.21891 3.91613 8.21454 3.92487 8.2092 3.92487C8.20385 3.92487 8.19948 3.93265 8.19948 3.94215C8.19948 3.95166 8.19074 3.96574 8.18005 3.97345C8.16937 3.98115 8.16062 3.99523 8.16062 4.00474C8.16062 4.01424 8.15625 4.02202 8.15091 4.02202C8.14556 4.02202 8.14119 4.03076 8.14119 4.04145C8.14119 4.05214 8.13682 4.06088 8.13148 4.06088C8.12613 4.06088 8.12176 4.06866 8.12176 4.07816C8.12176 4.08768 8.11302 4.10175 8.10233 4.10946C8.09165 4.11716 8.0829 4.13124 8.0829 4.14075C8.0829 4.15025 8.07853 4.15803 8.07319 4.15803C8.06784 4.15803 8.06347 4.16677 8.06347 4.17746C8.06347 4.18815 8.0591 4.19689 8.05376 4.19689C8.04841 4.19689 8.04404 4.20467 8.04404 4.21417C8.04404 4.22369 8.0353 4.23776 8.02461 4.24547C8.01393 4.25317 8.00518 4.26725 8.00518 4.27676C8.00518 4.28626 8.00081 4.29404 7.99547 4.29404C7.99012 4.29404 7.98575 4.30278 7.98575 4.31347C7.98575 4.32416 7.98138 4.3329 7.97604 4.3329C7.97069 4.3329 7.96632 4.34165 7.96632 4.35233C7.96632 4.36302 7.96195 4.37176 7.95661 4.37176C7.95126 4.37176 7.94689 4.37954 7.94689 4.38904C7.94689 4.39856 7.93815 4.41263 7.92746 4.42034C7.91677 4.42804 7.90803 4.44212 7.90803 4.45163C7.90803 4.46113 7.90366 4.46891 7.89832 4.46891C7.89297 4.46891 7.8886 4.47766 7.8886 4.48834C7.8886 4.49903 7.88423 4.50777 7.87889 4.50777C7.87354 4.50777 7.86917 4.51555 7.86917 4.52505C7.86917 4.53457 7.86043 4.54864 7.84974 4.55635C7.83905 4.56405 7.83031 4.57813 7.83031 4.58764C7.83031 4.59714 7.82594 4.60492 7.8206 4.60492C7.81525 4.60492 7.81088 4.61367 7.81088 4.62435C7.81088 4.63504 7.80651 4.64378 7.80117 4.64378C7.79582 4.64378 7.79145 4.65156 7.79145 4.66107C7.79145 4.67058 7.78271 4.68465 7.77202 4.69236C7.76133 4.70006 7.75259 4.71414 7.75259 4.72365C7.75259 4.73315 7.74822 4.74093 7.74288 4.74093C7.73753 4.74093 7.73316 4.74968 7.73316 4.76036C7.73316 4.77105 7.72879 4.77979 7.72345 4.77979C7.7181 4.77979 7.71373 4.78757 7.71373 4.79708C7.71373 4.80659 7.70499 4.82066 7.6943 4.82837C7.68361 4.83607 7.67487 4.85015 7.67487 4.85966C7.67487 4.86916 7.6705 4.87694 7.66516 4.87694C7.65981 4.87694 7.65544 4.88569 7.65544 4.89637C7.65544 4.90706 7.65107 4.9158 7.64573 4.9158C7.64038 4.9158 7.63601 4.92358 7.63601 4.93309C7.63601 4.9426 7.62727 4.95667 7.61658 4.96438C7.60589 4.97208 7.59715 4.98616 7.59715 4.99567C7.59715 5.00517 7.59278 5.01295 7.58744 5.01295C7.58209 5.01295 7.57772 5.0217 7.57772 5.03238C7.57772 5.04307 7.57335 5.05181 7.56801 5.05181C7.56266 5.05181 7.55829 5.0596 7.55829 5.0691C7.55829 5.07861 7.54955 5.09268 7.53886 5.10039C7.52817 5.10809 7.51943 5.12217 7.51943 5.13168C7.51943 5.14248 7.51215 5.14896 7.5 5.14896C7.48705 5.14896 7.48057 5.14248 7.48057 5.12953C7.48057 5.11885 7.4762 5.1101 7.47086 5.1101C7.46551 5.1101 7.46114 5.10232 7.46114 5.09282C7.46114 5.08331 7.4524 5.06923 7.44171 5.06153C7.43102 5.05382 7.42228 5.03975 7.42228 5.03024C7.42228 5.02074 7.41791 5.01295 7.41257 5.01295C7.40722 5.01295 7.40285 5.00421 7.40285 4.99352C7.40285 4.98284 7.39848 4.97409 7.39314 4.97409C7.38779 4.97409 7.38342 4.96631 7.38342 4.95681C7.38342 4.9473 7.37468 4.93322 7.36399 4.92552C7.3533 4.91781 7.34456 4.90374 7.34456 4.89423C7.34456 4.88472 7.34019 4.87694 7.33484 4.87694C7.3295 4.87694 7.32513 4.8682 7.32513 4.85751C7.32513 4.84683 7.32076 4.83808 7.31541 4.83808C7.31007 4.83808 7.3057 4.8303 7.3057 4.8208C7.3057 4.81129 7.29696 4.79721 7.28627 4.78951C7.27558 4.7818 7.26684 4.76773 7.26684 4.75822C7.26684 4.74871 7.26247 4.74093 7.25712 4.74093C7.25178 4.74093 7.24741 4.73219 7.24741 4.7215C7.24741 4.71082 7.24304 4.70207 7.23769 4.70207C7.23235 4.70207 7.22798 4.69429 7.22798 4.68479C7.22798 4.67528 7.21924 4.6612 7.20855 4.6535C7.19786 4.64579 7.18912 4.63172 7.18912 4.62221C7.18912 4.6127 7.18475 4.60492 7.1794 4.60492C7.17406 4.60492 7.16969 4.59618 7.16969 4.58549C7.16969 4.57481 7.16532 4.56606 7.15997 4.56606C7.15463 4.56606 7.15026 4.55828 7.15026 4.54878C7.15026 4.53927 7.14152 4.52519 7.13083 4.51749C7.12014 4.50978 7.1114 4.49571 7.1114 4.4862C7.1114 4.47669 7.10703 4.46891 7.10168 4.46891C7.09634 4.46891 7.09197 4.46017 7.09197 4.44948C7.09197 4.4388 7.0876 4.43005 7.08225 4.43005C7.07691 4.43005 7.07254 4.42227 7.07254 4.41277C7.07254 4.40326 7.0638 4.38918 7.05311 4.38148C7.04242 4.37377 7.03368 4.3597 7.03368 4.35018C7.03368 4.34068 7.02931 4.3329 7.02396 4.3329C7.01862 4.3329 7.01425 4.32416 7.01425 4.31347C7.01425 4.30278 7.00988 4.29404 7.00453 4.29404C6.99919 4.29404 6.99482 4.28626 6.99482 4.27676C6.99482 4.26725 6.98608 4.25317 6.97539 4.24547C6.9647 4.23776 6.95596 4.22369 6.95596 4.21417C6.95596 4.20467 6.95159 4.19689 6.94624 4.19689C6.9409 4.19689 6.93653 4.18815 6.93653 4.17746C6.93653 4.16677 6.93216 4.15803 6.92681 4.15803C6.92147 4.15803 6.9171 4.15025 6.9171 4.14075C6.9171 4.13124 6.90836 4.11716 6.89767 4.10946C6.88698 4.10175 6.87824 4.08768 6.87824 4.07816C6.87824 4.06866 6.87387 4.06088 6.86852 4.06088C6.86318 4.06088 6.85881 4.05214 6.85881 4.04145C6.85881 4.03076 6.85444 4.02202 6.84909 4.02202C6.84375 4.02202 6.83938 4.01424 6.83938 4.00474C6.83938 3.99523 6.83064 3.98115 6.81995 3.97345C6.80926 3.96574 6.80052 3.95166 6.80052 3.94215C6.80052 3.93265 6.79615 3.92487 6.7908 3.92487C6.78546 3.92487 6.78109 3.91613 6.78109 3.90544C6.78109 3.89475 6.77672 3.88601 6.77137 3.88601C6.76603 3.88601 6.76166 3.87823 6.76166 3.86873C6.76166 3.85922 6.75291 3.84514 6.74223 3.83744C6.73154 3.82973 6.7228 3.81565 6.7228 3.80614C6.7228 3.79664 6.71843 3.78886 6.71308 3.78886C6.70774 3.78886 6.70337 3.78012 6.70337 3.76943C6.70337 3.75874 6.699 3.75 6.69365 3.75C6.68831 3.75 6.68394 3.74222 6.68394 3.73272C6.68394 3.72321 6.67519 3.70913 6.66451 3.70143C6.65382 3.69372 6.64508 3.67964 6.64508 3.67013C6.64508 3.66063 6.64071 3.65285 6.63536 3.65285C6.63002 3.65285 6.62565 3.64411 6.62565 3.63342C6.62565 3.62273 6.62128 3.61399 6.61593 3.61399C6.61059 3.61399 6.60622 3.60621 6.60622 3.59671C6.60622 3.5872 6.59747 3.57312 6.58679 3.56541C6.5761 3.55771 6.56736 3.54363 6.56736 3.53412C6.56736 3.52462 6.56299 3.51684 6.55764 3.51684C6.5523 3.51684 6.54793 3.5081 6.54793 3.49741C6.54793 3.48672 6.54356 3.47798 6.53821 3.47798C6.53287 3.47798 6.5285 3.4702 6.5285 3.4607C6.5285 3.45119 6.51975 3.43711 6.50907 3.4294C6.49838 3.4217 6.48964 3.40762 6.48964 3.39811C6.48964 3.38861 6.48527 3.38083 6.47992 3.38083C6.47458 3.38083 6.47021 3.37209 6.47021 3.3614C6.47021 3.35071 6.46584 3.34197 6.46049 3.34197C6.45515 3.34197 6.45078 3.33419 6.45078 3.32469C6.45078 3.31518 6.44203 3.3011 6.43135 3.29339C6.42066 3.28569 6.41192 3.27161 6.41192 3.2621C6.41192 3.2526 6.40755 3.24482 6.4022 3.24482C6.39686 3.24482 6.39249 3.23608 6.39249 3.22539C6.39249 3.2147 6.38812 3.20596 6.38277 3.20596C6.37743 3.20596 6.37306 3.19818 6.37306 3.18868C6.37306 3.17916 6.36431 3.16509 6.35363 3.15738C6.34294 3.14968 6.3342 3.1356 6.3342 3.12609C6.3342 3.11659 6.32983 3.10881 6.32448 3.10881C6.31914 3.10881 6.31477 3.10006 6.31477 3.08938C6.31477 3.07869 6.3104 3.06995 6.30505 3.06995C6.29971 3.06995 6.29534 3.06217 6.29534 3.05267C6.29534 3.04315 6.28659 3.02908 6.27591 3.02137C6.26522 3.01367 6.25648 2.99959 6.25648 2.99008C6.25648 2.98058 6.25211 2.9728 6.24676 2.9728C6.24142 2.9728 6.23705 2.96405 6.23705 2.95337C6.23705 2.94268 6.23268 2.93394 6.22733 2.93394C6.22199 2.93394 6.21762 2.92616 6.21762 2.91666C6.21762 2.90714 6.20887 2.89307 6.19819 2.88536C6.1875 2.87766 6.17876 2.86358 6.17876 2.85407C6.17876 2.84457 6.17439 2.83679 6.16904 2.83679C6.1637 2.83679 6.15933 2.82804 6.15933 2.81736C6.15933 2.80667 6.15495 2.79793 6.14961 2.79793C6.14427 2.79793 6.1399 2.79015 6.1399 2.78064C6.1399 2.77113 6.13115 2.75706 6.12047 2.74935C6.10978 2.74165 6.10104 2.72757 6.10104 2.71806C6.10104 2.70856 6.09666 2.70078 6.09132 2.70078C6.08598 2.70078 6.08161 2.69203 6.08161 2.68135C6.08161 2.67066 6.07723 2.66192 6.07189 2.66192C6.06655 2.66192 6.06218 2.65414 6.06218 2.64463C6.06218 2.63512 6.05343 2.62105 6.04275 2.61334C6.03206 2.60564 6.02332 2.59156 6.02332 2.58205C6.02332 2.57255 6.01894 2.56477 6.0136 2.56477C6.00826 2.56477 6.00389 2.55602 6.00389 2.54534C6.00389 2.53465 5.99951 2.52591 5.99417 2.52591C5.98883 2.52591 5.98446 2.51813 5.98446 2.50862C5.98446 2.49911 5.97571 2.48504 5.96503 2.47733C5.95434 2.46963 5.9456 2.45555 5.9456 2.44604C5.9456 2.43654 5.94122 2.42876 5.93588 2.42876C5.93054 2.42876 5.92617 2.42001 5.92617 2.40933C5.92617 2.39864 5.92179 2.3899 5.91645 2.3899C5.91111 2.3899 5.90674 2.38211 5.90674 2.37261C5.90674 2.3631 5.89799 2.34903 5.88731 2.34132C5.87662 2.33362 5.86788 2.31954 5.86788 2.31003C5.86788 2.30053 5.8635 2.29275 5.85816 2.29275C5.85282 2.29275 5.84845 2.284 5.84845 2.27332C5.84845 2.26263 5.84407 2.25389 5.83873 2.25389C5.83339 2.25389 5.82902 2.2461 5.82902 2.2366C5.82902 2.22709 5.82027 2.21302 5.80959 2.20531C5.7989 2.19761 5.79016 2.18353 5.79016 2.17402C5.79016 2.16452 5.78578 2.15674 5.78044 2.15674C5.7751 2.15674 5.77073 2.14799 5.77073 2.13731C5.77073 2.12662 5.76635 2.11788 5.76101 2.11788C5.75567 2.11788 5.7513 2.11009 5.7513 2.10059C5.7513 2.09108 5.74255 2.077 5.73187 2.0693C5.72118 2.0616 5.71244 2.04752 5.71244 2.03801C5.71244 2.02851 5.70806 2.02073 5.70272 2.02073C5.69738 2.02073 5.69301 2.01198 5.69301 2.0013C5.69301 1.99061 5.68863 1.98187 5.68329 1.98187C5.67795 1.98187 5.67358 1.97408 5.67358 1.96458C5.67358 1.95507 5.66483 1.94099 5.65415 1.93329C5.64346 1.92559 5.63472 1.91151 5.63472 1.902C5.63472 1.8925 5.63034 1.88472 5.625 1.88472C5.61966 1.88472 5.61529 1.87597 5.61529 1.86529C5.61529 1.8546 5.61091 1.84585 5.60557 1.84585C5.60023 1.84585 5.59586 1.83807 5.59586 1.82857C5.59586 1.81906 5.58711 1.80498 5.57643 1.79728C5.56574 1.78958 5.55699 1.7755 5.55699 1.76599C5.55699 1.75649 5.55262 1.7487 5.54728 1.7487C5.54194 1.7487 5.53756 1.73996 5.53756 1.72927C5.53756 1.71859 5.53319 1.70984 5.52785 1.70984C5.52251 1.70984 5.51814 1.70206 5.51814 1.69256C5.51814 1.68305 5.50939 1.66897 5.4987 1.66127C5.48802 1.65357 5.47927 1.63949 5.47927 1.62998C5.47927 1.62048 5.4749 1.61269 5.46956 1.61269C5.46422 1.61269 5.45984 1.60395 5.45984 1.59326C5.45984 1.58258 5.45547 1.57383 5.45013 1.57383C5.44479 1.57383 5.44041 1.56605 5.44041 1.55655C5.44041 1.54704 5.43167 1.53296 5.42098 1.52526C5.4103 1.51756 5.40155 1.50348 5.40155 1.49397C5.40155 1.48447 5.39718 1.47668 5.39184 1.47668C5.3865 1.47668 5.38212 1.46794 5.38212 1.45725C5.38212 1.44657 5.37775 1.43782 5.37241 1.43782C5.36707 1.43782 5.36269 1.43004 5.36269 1.42054C5.36269 1.41103 5.35395 1.39695 5.34326 1.38925C5.33258 1.38154 5.32383 1.36747 5.32383 1.35796C5.32383 1.34846 5.31946 1.34067 5.31412 1.34067C5.30878 1.34067 5.3044 1.33193 5.3044 1.32124C5.3044 1.31056 5.30003 1.30181 5.29469 1.30181C5.28935 1.30181 5.28497 1.29403 5.28497 1.28453C5.28497 1.27502 5.27623 1.26094 5.26554 1.25324C5.25486 1.24553 5.24611 1.23146 5.24611 1.22195C5.24611 1.21244 5.24174 1.20466 5.2364 1.20466C5.23106 1.20466 5.22668 1.19592 5.22668 1.18523C5.22668 1.17455 5.22231 1.1658 5.21697 1.1658C5.21163 1.1658 5.20725 1.15802 5.20725 1.14852C5.20725 1.13901 5.19851 1.12493 5.18782 1.11723C5.17714 1.10952 5.16839 1.09545 5.16839 1.08594C5.16839 1.07643 5.16402 1.06865 5.15868 1.06865C5.15334 1.06865 5.14896 1.05991 5.14896 1.04922C5.14896 1.03854 5.14459 1.02979 5.13925 1.02979C5.13391 1.02979 5.12953 1.02201 5.12953 1.01251C5.12953 1.003 5.12079 0.988922 5.1101 0.981218C5.09942 0.973514 5.09067 0.959436 5.09067 0.949925C5.09067 0.940424 5.0863 0.932643 5.08096 0.932643C5.07562 0.932643 5.07124 0.923899 5.07124 0.913212C5.07124 0.902526 5.06687 0.893782 5.06153 0.893782C5.05619 0.893782 5.05181 0.886001 5.05181 0.876499C5.05181 0.866988 5.04307 0.852911 5.03238 0.845207C5.0217 0.837503 5.01295 0.823426 5.01295 0.813915C5.01295 0.804414 5.00858 0.796632 5.00324 0.796632C4.9979 0.796632 4.99352 0.787889 4.99352 0.777202C4.99352 0.766516 4.98915 0.757772 4.98381 0.757772C4.97847 0.757772 4.97409 0.74999 4.97409 0.740489C4.97409 0.730978 4.96535 0.716901 4.95466 0.709197C4.94398 0.701493 4.93523 0.687416 4.93523 0.677905C4.93523 0.668403 4.93086 0.660622 4.92552 0.660622C4.92018 0.660622 4.9158 0.651878 4.9158 0.641192C4.9158 0.630505 4.91143 0.621762 4.90609 0.621762C4.90074 0.621762 4.89637 0.61398 4.89637 0.604479C4.89637 0.594968 4.88763 0.580891 4.87694 0.573187C4.86626 0.565483 4.85751 0.551405 4.85751 0.541894C4.85751 0.532393 4.85314 0.524611 4.8478 0.524611C4.84245 0.524611 4.83808 0.515868 4.83808 0.505181C4.83808 0.494495 4.83371 0.485751 4.82837 0.485751C4.82302 0.485751 4.81865 0.47797 4.81865 0.468468C4.81865 0.458957 4.80991 0.44488 4.79922 0.437176C4.78854 0.429472 4.77979 0.415395 4.77979 0.405884C4.77979 0.396383 4.77542 0.388601 4.77008 0.388601C4.76473 0.388601 4.76036 0.379858 4.76036 0.369171C4.76036 0.358484 4.75599 0.349741 4.75065 0.349741C4.7453 0.349741 4.74093 0.341959 4.74093 0.332458C4.74093 0.322947 4.73219 0.30887 4.7215 0.301166C4.71082 0.293462 4.70207 0.279385 4.70207 0.269874C4.70207 0.260372 4.6977 0.252591 4.69236 0.252591C4.68701 0.252591 4.68264 0.243847 4.68264 0.233161C4.68264 0.222474 4.67827 0.213731 4.67293 0.213731C4.66758 0.213731 4.66321 0.205949 4.66321 0.196448C4.66321 0.186937 4.65447 0.172859 4.64378 0.165155C4.6331 0.157451 4.62435 0.143374 4.62435 0.133863C4.62435 0.124362 4.61998 0.11658 4.61464 0.11658C4.60929 0.11658 4.60492 0.107837 4.60492 0.0971503C4.60492 0.0864637 4.60055 0.0777202 4.59521 0.0777202C4.58986 0.0777202 4.58549 0.0709681 4.58549 0.0627104C4.58549 0.0487207 4.54432 0 4.5325 0C4.52958 0 4.5272 0.0131153 4.5272 0.0291451Z" fill="#12CCAB"/>
</svg>
