<svg width="12" height="20" viewBox="0 0 12 20" fill="none" xmlns="http://www.w3.org/2000/svg">
<g clip-path="url(#clip0)">
<path d="M5.90848 0C3.00458 0 0.642283 2.31542 0.642283 5.16188C0.642283 8.00812 3.00458 10.3225 5.90848 10.3225C8.81228 10.3225 11.1734 8.00812 11.1734 5.16188C11.1734 2.31542 8.8123 0 5.90848 0ZM5.90848 3.02438C7.11033 3.02438 8.08765 3.98372 8.08765 5.16188C8.08765 6.33954 7.11035 7.29814 5.90848 7.29814C4.70639 7.29814 3.72805 6.33956 3.72805 5.16188C3.72805 3.98372 4.70639 3.02438 5.90848 3.02438ZM1.56675 10.4981C1.04573 10.4902 0.533378 10.7419 0.236166 11.2062C-0.218038 11.9136 -0.000453626 12.847 0.719442 13.2919C1.67167 13.8775 2.70496 14.293 3.77652 14.5325L0.833569 17.4187C0.231106 18.0096 0.231616 18.9666 0.834202 19.5575C1.13623 19.8524 1.53015 20 1.92506 20C2.31957 20 2.71481 19.8522 3.01592 19.5569L5.90724 16.7213L8.8011 19.5569C9.40305 20.1476 10.3792 20.1476 10.9822 19.5569C11.5849 18.9664 11.5849 18.0084 10.9822 17.4188L8.03793 14.5331C9.1098 14.2936 10.1434 13.8779 11.095 13.2919C11.8163 12.847 12.0342 11.9126 11.5802 11.2063C11.1256 10.4988 10.1739 10.2856 9.45202 10.7313C7.29613 12.0606 4.51827 12.0598 2.36305 10.7313C2.11496 10.5781 1.83966 10.5023 1.56675 10.4981V10.4981Z" fill="#E5007C"/>
</g>
<defs>
<clipPath id="clip0">
<rect width="11.8182" height="20" fill="white"/>
</clipPath>
</defs>
</svg>
