<svg width="15" height="15" viewBox="0 0 15 15" fill="none" xmlns="http://www.w3.org/2000/svg">
<path d="M11.2785 9.22233L14.5595 10.6285L14.5597 10.6286C14.7047 10.6917 14.8232 10.8034 14.8948 10.9444C14.9664 11.0855 14.9866 11.2472 14.9519 11.4015C14.9519 11.4016 14.9519 11.4016 14.9519 11.4016L14.2488 14.4483C14.2147 14.5964 14.1313 14.7285 14.0123 14.8231C13.8933 14.9176 13.7458 14.9691 13.5938 14.969H13.5937C6.10806 14.969 0.03125 8.90384 0.03125 1.40647V1.40647C0.0312159 1.25452 0.0826835 1.10706 0.177253 0.988135C0.271821 0.869213 0.403905 0.785856 0.551949 0.751669C0.55195 0.751668 0.551952 0.751668 0.551953 0.751667L3.59872 0.0485665C3.59874 0.0485625 3.59876 0.0485585 3.59878 0.0485545C3.75236 0.0136581 3.91331 0.0334393 4.05388 0.104489C4.19444 0.175538 4.30581 0.293401 4.36879 0.437758C4.3688 0.437777 4.36881 0.437795 4.36882 0.437814L5.77499 3.71888C5.83234 3.85276 5.84452 4.00168 5.80967 4.1431C5.77482 4.28452 5.69484 4.41074 5.58184 4.50264L5.58177 4.5027L3.80638 5.95583L3.7875 5.97127L3.79791 5.99334C4.87626 8.28044 6.71685 10.121 9.00396 11.1994L9.02602 11.2098L9.04147 11.1909L10.4946 9.41553L10.4946 9.4155C10.5867 9.30271 10.7129 9.22289 10.8543 9.18806C10.9956 9.15322 11.1445 9.16524 11.2784 9.22231C11.2784 9.22231 11.2785 9.22232 11.2785 9.22233Z" fill="#fff" stroke="#fff" stroke-width="0.0625"/>
</svg>
