<svg xmlns="http://www.w3.org/2000/svg" preserveAspectRatio="xMinYMin meet" viewBox="0 0 100 60"><g fill="#E5007C"><path d="M74.305 28.491c-.393.473-1.772 2.174-2 2.45-4.046 4.924-7.106 7.344-11.733 8.25-3.31.648-5.066 3.058-4.897 5.734.147 2.336 1.605 3.475 3.522 2.483a1 1 0 01.255-.091c.327-.142.663-.297 1.01-.467 2.5-1.223 4.113-2.087 12.185-6.475l.348-.19c3.818-2.074 6.247-3.373 8.479-4.52 5.522-2.839 6.787-10.496 3.198-12.306-4.03-.929-6.573.562-10.367 5.132zm-20.626 16.56c-.231-3.655 2.188-6.977 6.509-7.823 4.055-.794 6.796-2.96 10.572-7.556.22-.268 1.604-1.974 2.006-2.458 2.186-2.634 4.09-4.401 6.104-5.336l-35.027-8.932a8.997 8.997 0 00-1.727-.275c-5.548-.332-8.09 1.236-12.246 6.183l-.485.576c-3.883 4.618-6.516 6.57-11.38 7.292-6.905 1.023-7.969 8.259-2.521 9.808l37.778 11.485a4.211 4.211 0 001.668.4c-.71-.833-1.165-1.999-1.251-3.364zm-1.067 4.857L14.92 38.448c-7.628-2.168-6.126-12.382 2.792-13.705 4.267-.633 6.546-2.322 10.144-6.6l.483-.576c4.523-5.382 7.584-7.27 13.898-6.893.714.044 1.42.156 2.106.336l40.894 10.427c.157.044.25.084.33.133 5.257 2.633 3.65 12.365-3.178 15.874-2.215 1.138-4.633 2.432-8.438 4.499l-.348.19c-8.111 4.408-9.723 5.272-12.261 6.514a24.702 24.702 0 01-1.944.853c-2.76 1.058-5.02 1.217-6.785.408z"/><path d="M13.366 28.557a1 1 0 01.551-1.922l42.67 12.236a1 1 0 01-.552 1.923l-42.67-12.237z"/></g></svg>