<svg width="30" height="22" viewBox="0 0 30 22" fill="none" xmlns="http://www.w3.org/2000/svg">
<path d="M19 0.533334C24.7829 0.533334 29.4667 5.21712 29.4667 11C29.4667 16.7829 24.7829 21.4667 19 21.4667C13.2172 21.4667 8.53337 16.7829 8.53337 11C8.53337 5.21712 13.2172 0.533334 19 0.533334ZM19 19.2C23.5238 19.2 27.2 15.5238 27.2 11C27.2 6.47621 23.5238 2.8 19 2.8C14.4762 2.8 10.8 6.47621 10.8 11C10.8 15.5238 14.4762 19.2 19 19.2ZM2.80004 11C2.79998 12.6947 3.32582 14.3476 4.30503 15.7307C5.25685 17.0751 6.59144 18.1003 8.13337 18.6736V21.0585C3.74651 19.8101 0.533374 15.789 0.533374 11C0.533374 6.211 3.74651 2.18991 8.13337 0.941458V3.32635C5.01912 4.48394 2.80004 7.4826 2.80004 11Z" fill="#E5007C" stroke="#F8F8F7" stroke-width="0.4"/>
</svg>
