<svg width="30" height="30" viewBox="0 0 30 30" fill="none" xmlns="http://www.w3.org/2000/svg">
<g clip-path="url(#clip0)">
<path d="M28.0053 15.3887C27.8846 15.1417 27.8846 14.8585 28.0053 14.6116L29.1242 12.3226C29.7471 11.0481 29.2535 9.5291 28.0004 8.86425L25.7499 7.67011C25.5071 7.54132 25.3406 7.31211 25.2931 7.04146L24.8529 4.53197C24.6078 3.13475 23.3154 2.19585 21.9111 2.39454L19.3885 2.75137C19.1162 2.78981 18.8469 2.70227 18.6494 2.5112L16.8183 0.739801C15.7987 -0.246561 14.2015 -0.246619 13.182 0.739801L11.3508 2.51137C11.1532 2.7025 10.884 2.78987 10.6118 2.75155L8.08914 2.39471C6.68436 2.19591 5.39238 3.13492 5.14728 4.53214L4.70713 7.04152C4.65961 7.31222 4.49314 7.54138 4.25039 7.67023L1.99982 8.86436C0.746743 9.52916 0.253152 11.0483 0.876117 12.3228L1.99496 14.6117C2.11566 14.8586 2.11566 15.1419 1.99496 15.3888L0.876058 17.6777C0.253093 18.9522 0.746684 20.4712 1.99976 21.136L4.25033 22.3302C4.49314 22.459 4.65961 22.6882 4.70713 22.9588L5.14728 25.4683C5.3704 26.7403 6.46106 27.6323 7.71455 27.6322C7.838 27.6322 7.96328 27.6235 8.08919 27.6057L10.6118 27.2489C10.8839 27.2103 11.1533 27.298 11.3509 27.489L13.182 29.2604C13.6918 29.7537 14.3459 30.0002 15.0001 30.0002C15.6542 30.0001 16.3086 29.7536 16.8183 29.2604L18.6494 27.489C18.847 27.298 19.1163 27.2107 19.3885 27.2489L21.9111 27.6057C23.316 27.8044 24.6078 26.8655 24.8529 25.4683L25.2931 22.9589C25.3407 22.6882 25.5071 22.459 25.7499 22.3302L28.0004 21.136C29.2535 20.4712 29.7471 18.9521 29.1242 17.6776L28.0053 15.3887ZM27.1895 19.6075L24.9389 20.8017C24.2214 21.1825 23.7292 21.8597 23.5889 22.6598L23.1487 25.1693C23.0658 25.642 22.6288 25.9595 22.1534 25.8924L19.6308 25.5356C18.8263 25.4216 18.0303 25.6806 17.4464 26.2453L15.6152 28.0167C15.2703 28.3503 14.7299 28.3503 14.3849 28.0167L12.5538 26.2453C12.0604 25.7679 11.4152 25.5092 10.7418 25.5092C10.6184 25.5092 10.494 25.5179 10.3694 25.5355L7.84679 25.8924C7.37184 25.9595 6.93444 25.6419 6.85147 25.1692L6.41126 22.6597C6.27087 21.8596 5.7788 21.1823 5.06121 20.8016L2.81064 19.6075C2.38665 19.3825 2.21966 18.8686 2.43042 18.4374L3.54932 16.1485C3.90604 15.4186 3.90604 14.5816 3.54932 13.8517L2.43042 11.5628C2.21966 11.1316 2.38665 10.6177 2.81064 10.3927L5.06121 9.19858C5.77874 8.81778 6.27087 8.14056 6.4112 7.34041L6.85135 4.83097C6.93432 4.35824 7.37131 4.04066 7.84668 4.10781L10.3693 4.46464C11.1735 4.57849 11.9698 4.31968 12.5537 3.7549L14.3849 1.9835C14.7298 1.64987 15.2702 1.64987 15.6152 1.9835L17.4463 3.7549C18.0301 4.31974 18.8264 4.57849 19.6307 4.46464L22.1533 4.10781C22.6283 4.0406 23.0657 4.35824 23.1486 4.83097L23.5888 7.34047C23.7292 8.14062 24.2212 8.8179 24.9388 9.19858L27.1894 10.3927C27.6134 10.6177 27.7804 11.1316 27.5696 11.5628L26.4507 13.8517C26.094 14.5814 26.094 15.4186 26.4507 16.1484L27.5696 18.4373C27.7804 18.8686 27.6134 19.3826 27.1895 19.6075Z" fill="#E5007C"/>
<path d="M21.3214 8.67862C20.9836 8.34077 20.4358 8.34077 20.0979 8.67862L8.67868 20.0979C8.34083 20.4357 8.34083 20.9835 8.67868 21.3214C8.84761 21.4903 9.06903 21.5748 9.2904 21.5748C9.51176 21.5748 9.73325 21.4904 9.90211 21.3214L21.3213 9.90217C21.6593 9.56426 21.6593 9.01653 21.3214 8.67862Z" fill="#E5007C"/>
<path d="M11.5394 7.21387C9.79025 7.21387 8.36719 8.63693 8.36719 10.3861C8.36719 12.1352 9.79025 13.5582 11.5394 13.5582C13.2885 13.5582 14.7116 12.1352 14.7116 10.3861C14.7116 8.63693 13.2885 7.21387 11.5394 7.21387ZM11.5394 11.8279C10.7443 11.8279 10.0975 11.1811 10.0975 10.386C10.0975 9.59094 10.7443 8.94413 11.5394 8.94413C12.3344 8.94413 12.9813 9.59094 12.9813 10.386C12.9812 11.1811 12.3344 11.8279 11.5394 11.8279Z" fill="#E5007C"/>
<path d="M18.4603 16.4421C16.7111 16.4421 15.2881 17.8651 15.2881 19.6143C15.2881 21.3634 16.7111 22.7865 18.4603 22.7865C20.2094 22.7865 21.6325 21.3634 21.6325 19.6143C21.6325 17.8651 20.2094 16.4421 18.4603 16.4421ZM18.4603 21.0561C17.6652 21.0561 17.0183 20.4093 17.0183 19.6143C17.0183 18.8192 17.6652 18.1724 18.4603 18.1724C19.2553 18.1724 19.9021 18.8192 19.9021 19.6143C19.9021 20.4093 19.2553 21.0561 18.4603 21.0561Z" fill="#E5007C"/>
</g>
<defs>
<clipPath id="clip0">
<rect width="30" height="30" fill="white"/>
</clipPath>
</defs>
</svg>
