<svg width="25" height="25" viewBox="0 0 25 25" fill="none" xmlns="http://www.w3.org/2000/svg">
<path d="M17.0254 15.6671L13.8584 12.5L17.0254 9.33293C17.398 8.96033 17.398 8.34735 17.0254 7.97475C16.6528 7.60216 16.0398 7.60216 15.6672 7.97475L12.5002 11.1418L9.33311 7.97475C8.96052 7.60216 8.39561 7.54807 7.97494 7.97475C7.54826 8.40144 7.61436 8.97235 7.97494 9.33293L11.142 12.5L7.97494 15.6671C7.5723 16.0697 7.59032 16.6466 7.97494 17.0252C8.35956 17.4099 8.96052 17.3978 9.33311 17.0252L12.5002 13.8582L15.6672 17.0252C16.0398 17.3978 16.6528 17.3978 17.0254 17.0252C17.404 16.6526 17.404 16.0397 17.0254 15.6671Z" fill="#E5007C"/>
<path d="M12.5 1.68269C15.3906 1.68269 18.107 2.80649 20.1502 4.84976C22.1935 6.89303 23.3173 9.60938 23.3173 12.5C23.3173 15.3906 22.1935 18.107 20.1502 20.1502C18.107 22.1935 15.3906 23.3173 12.5 23.3173C9.60938 23.3173 6.89303 22.1935 4.84976 20.1502C2.80649 18.107 1.68269 15.3906 1.68269 12.5C1.68269 9.60938 2.80649 6.89303 4.84976 4.84976C6.89303 2.80649 9.60938 1.68269 12.5 1.68269ZM12.5 0C5.59495 0 0 5.59495 0 12.5C0 19.405 5.59495 25 12.5 25C19.405 25 25 19.405 25 12.5C25 5.59495 19.405 0 12.5 0Z" fill="#E5007C"/>
</svg>
