<svg width="10" height="12" viewBox="0 0 10 12" fill="none" xmlns="http://www.w3.org/2000/svg">
<path d="M2.2395 12V9.824H0.8475V8.784H2.2395V7.36H0.8475V6.144H2.2395V0.575999H5.2475C6.64483 0.575999 7.6795 0.858666 8.3515 1.424C9.03417 1.98933 9.3755 2.81067 9.3755 3.888C9.3755 4.976 9.0075 5.82933 8.2715 6.448C7.5355 7.056 6.45283 7.36 5.0235 7.36H3.6795V8.784H6.3195V9.824H3.6795V12H2.2395ZM3.6795 6.144H4.8155C5.78617 6.144 6.53817 5.984 7.0715 5.664C7.6155 5.344 7.8875 4.768 7.8875 3.936C7.8875 3.21067 7.6635 2.672 7.2155 2.32C6.7675 1.968 6.06883 1.792 5.1195 1.792H3.6795V6.144Z" fill="#3D3D3D"/>
</svg>
