<svg width="14" height="18" viewBox="0 0 14 18" fill="none" xmlns="http://www.w3.org/2000/svg">
<path d="M2.35925 18V14.736H0.27125V13.176H2.35925V11.04H0.27125V9.216H2.35925V0.863999H6.87125C8.96725 0.863999 10.5193 1.288 11.5273 2.136C12.5513 2.984 13.0633 4.216 13.0633 5.832C13.0633 7.464 12.5113 8.744 11.4073 9.672C10.3033 10.584 8.67925 11.04 6.53525 11.04H4.51925V13.176H8.47925V14.736H4.51925V18H2.35925ZM4.51925 9.216H6.22325C7.67925 9.216 8.80725 8.976 9.60725 8.496C10.4233 8.016 10.8313 7.152 10.8313 5.904C10.8313 4.816 10.4953 4.008 9.82325 3.48C9.15125 2.952 8.10325 2.688 6.67925 2.688H4.51925V9.216Z" fill="#E5007C"/>
</svg>
