<svg width="14" height="18" viewBox="0 0 14 18" fill="none" xmlns="http://www.w3.org/2000/svg">
<path d="M2.16 18V15.432H0.24V13.104H2.16V11.232H0.24V8.256H2.16V0.863999H7.632C9.84 0.863999 11.448 1.312 12.456 2.208C13.48 3.104 13.992 4.336 13.992 5.904C13.992 6.832 13.784 7.704 13.368 8.52C12.952 9.336 12.256 9.992 11.28 10.488C10.32 10.984 9.008 11.232 7.344 11.232H5.784V13.104H9.48V15.432H5.784V18H2.16ZM5.784 8.256H6.984C8.008 8.256 8.816 8.08 9.408 7.728C10.016 7.376 10.32 6.808 10.32 6.024C10.32 4.568 9.36 3.84 7.44 3.84H5.784V8.256Z" fill="#E5007C"/>
</svg>
