<svg width="9" height="12" viewBox="0 0 9 12" fill="none" xmlns="http://www.w3.org/2000/svg">
<path d="M1.552 12V9.824H0.16V8.784H1.552V7.36H0.16V6.144H1.552V0.575999H4.56C5.95733 0.575999 6.992 0.858666 7.664 1.424C8.34667 1.98933 8.688 2.81067 8.688 3.888C8.688 4.976 8.32 5.82933 7.584 6.448C6.848 7.056 5.76533 7.36 4.336 7.36H2.992V8.784H5.632V9.824H2.992V12H1.552ZM2.992 6.144H4.128C5.09867 6.144 5.85067 5.984 6.384 5.664C6.928 5.344 7.2 4.768 7.2 3.936C7.2 3.21067 6.976 2.672 6.528 2.32C6.08 1.968 5.38133 1.792 4.432 1.792H2.992V6.144Z" fill="#E5007C"/>
</svg>
