<svg width="15" height="15" viewBox="0 0 15 15" fill="none" xmlns="http://www.w3.org/2000/svg">
<path d="M13.6583 6.28993H11.1029L13.962 2.56178L13.962 2.56177C14.0495 2.44761 14.0647 2.29181 14 2.16246C13.9356 2.03361 13.803 1.95 13.6583 1.95H10.3315C10.1224 1.95 9.95151 2.1209 9.95151 2.33003C9.95151 2.53917 10.1224 2.71007 10.3315 2.71007H12.8869L10.0278 6.43822L10.0278 6.43822C9.94031 6.55239 9.92512 6.70819 9.98979 6.83754C10.0542 6.96639 10.1869 7.05 10.3315 7.05H13.6583C13.8674 7.05 14.0383 6.8791 14.0383 6.66997C14.0383 6.46083 13.8674 6.28993 13.6583 6.28993Z" fill="#E5007C" stroke="#E5007C" stroke-width="0.1"/>
<mask id="path-2-outside-1" maskUnits="userSpaceOnUse" x="-0.210526" y="-0.827881" width="15" height="16" fill="black">
<rect fill="white" x="-0.210526" y="-0.827881" width="15" height="16"/>
<path d="M14.0727 11.414C14.0698 11.4112 14.0669 11.4083 14.064 11.4054C14.0611 11.4025 14.0582 11.3967 14.0524 11.3938C14.0496 11.3909 14.0467 11.388 14.0438 11.3852C14.0409 11.3823 14.038 11.3794 14.0351 11.3765C14.0322 11.3765 14.0322 11.3736 14.0293 11.3736C14.0236 11.3678 14.0178 11.3649 14.012 11.362C14.0091 11.3592 14.0033 11.3563 14.0004 11.3534C13.9976 11.3534 13.9976 11.3505 13.9947 11.3505C13.9918 11.3505 13.9918 11.3476 13.9889 11.3476C13.986 11.3476 13.986 11.3476 13.986 11.3447C13.9831 11.3418 13.9773 11.3389 13.9744 11.3389C13.9715 11.3389 13.9687 11.336 13.9658 11.336C13.9629 11.336 13.96 11.3332 13.9571 11.3332C13.9542 11.3332 13.9513 11.3303 13.9484 11.3303C13.9427 11.3274 13.9398 11.3274 13.934 11.3245C13.9311 11.3245 13.9282 11.3216 13.9253 11.3216C13.9224 11.3216 13.9224 11.3216 13.9195 11.3187C13.9167 11.3187 13.9138 11.3158 13.9109 11.3158C13.9022 11.3129 13.8935 11.3129 13.882 11.31H13.8791C13.8733 11.31 13.8675 11.3072 13.8618 11.3072C13.856 11.3072 13.8502 11.3072 13.8444 11.3072H13.8415C13.8127 11.3072 13.7867 11.3129 13.7578 11.3216C13.1309 11.518 12.478 11.6192 11.8193 11.6192C11.7615 11.6192 11.7038 11.6192 11.6431 11.6163C11.6373 11.6163 11.6286 11.6163 11.6229 11.6163C11.62 11.6163 11.6171 11.6163 11.6142 11.6163C11.6084 11.6163 11.6026 11.6163 11.5969 11.6163C11.5506 11.6134 11.5044 11.6134 11.4611 11.6105C11.4466 11.6105 11.4293 11.6105 11.4149 11.6076C11.3571 11.6047 11.2993 11.5989 11.2415 11.5932C11.23 11.5932 11.2155 11.5903 11.204 11.5903C11.152 11.5845 11.1 11.5787 11.0451 11.5729C11.0364 11.5729 11.0278 11.57 11.0191 11.57C10.9642 11.5643 10.9093 11.5556 10.8544 11.5469C10.8458 11.5469 10.8371 11.544 10.8284 11.544C10.7735 11.5354 10.7215 11.5267 10.6666 11.5152C10.6609 11.5152 10.6551 11.5123 10.6493 11.5123C10.6435 11.5123 10.6406 11.5094 10.6349 11.5094C10.5858 11.5007 10.5338 11.4892 10.4846 11.4805C10.4702 11.4776 10.4586 11.4747 10.4442 11.4718C10.3864 11.4603 10.3286 11.4458 10.2738 11.4314C10.268 11.4314 10.2622 11.4285 10.2593 11.4285C10.2044 11.414 10.1524 11.3996 10.0975 11.3852C10.0918 11.3823 10.086 11.3823 10.0802 11.3794C10.0744 11.3765 10.0686 11.3765 10.0629 11.3736C10.008 11.3592 9.95308 11.3418 9.8953 11.3245C9.88953 11.3245 9.88664 11.3216 9.88375 11.3216C9.83175 11.3043 9.77686 11.2869 9.72486 11.2696C9.71908 11.2667 9.71619 11.2667 9.71041 11.2638C9.70464 11.2609 9.70175 11.2609 9.69597 11.258C9.64975 11.2407 9.60064 11.2234 9.55441 11.206C9.5313 11.1974 9.50819 11.1887 9.48508 11.18C9.43886 11.1627 9.39552 11.1454 9.3493 11.1252C9.34641 11.1252 9.34641 11.1223 9.34352 11.1223C9.29152 11.102 9.23952 11.0789 9.19041 11.0558C9.18752 11.0529 9.18463 11.0529 9.18174 11.05C9.1673 11.0443 9.15574 11.0385 9.1413 11.0327C9.09508 11.0125 9.05174 10.9923 9.00841 10.9692C8.99685 10.9634 8.98819 10.9576 8.97663 10.9547C8.92463 10.9287 8.87552 10.9027 8.82641 10.8767C8.82641 10.8767 8.82352 10.8738 8.82063 10.8738C7.5264 10.1603 6.48928 9.03648 5.8855 7.67869C5.8855 7.67291 5.88262 7.66425 5.88262 7.65847C5.88262 7.65269 5.87973 7.64403 5.87973 7.63825C5.87684 7.63247 5.87684 7.62669 5.87395 7.62091C5.87106 7.61514 5.86817 7.60647 5.86528 7.60069C5.55617 6.83513 5.40017 6.02624 5.40017 5.19423C5.40017 3.48689 6.06173 1.88066 7.2664 0.667319C7.35307 0.577763 7.37618 0.444873 7.3184 0.332206C7.31551 0.326428 7.30973 0.317761 7.30685 0.311983C7.30396 0.309094 7.30396 0.306205 7.30107 0.303317C7.30107 0.300428 7.29818 0.300428 7.29818 0.297539C7.29818 0.297539 7.29818 0.297539 7.29818 0.29465C7.29529 0.288872 7.28951 0.283094 7.28662 0.280205L7.28373 0.277316C7.28085 0.274427 7.27796 0.271539 7.27796 0.26865L7.27507 0.265761C7.27218 0.262872 7.26929 0.259983 7.2664 0.257094C7.26351 0.254205 7.26062 0.251316 7.26062 0.251316C7.25196 0.24265 7.2404 0.233983 7.23173 0.225316C7.22596 0.222427 7.22018 0.219538 7.21729 0.216649C7.21151 0.21376 7.20573 0.210872 7.19996 0.207983C7.19418 0.205094 7.19129 0.202205 7.18551 0.202205C7.17684 0.199316 7.16818 0.193538 7.15951 0.190649C7.15373 0.18776 7.14796 0.18776 7.14507 0.184871C7.13929 0.181982 7.13351 0.181982 7.12773 0.179094C7.12484 0.179094 7.12484 0.179094 7.12195 0.179094C7.1104 0.176205 7.09884 0.173316 7.0844 0.173316C7.06418 0.170427 7.04107 0.173316 7.02084 0.176205C6.98907 0.181982 6.95729 0.184871 6.92551 0.190649C6.8764 0.199316 6.83018 0.207983 6.78106 0.216649C6.77818 0.216649 6.77818 0.216649 6.77529 0.216649C6.72329 0.225316 6.67129 0.236872 6.62217 0.248427C6.61929 0.248427 6.6164 0.248427 6.61351 0.251316C6.58751 0.257094 6.55862 0.262872 6.53262 0.26865C6.50662 0.274427 6.47773 0.280205 6.45173 0.285983C6.42573 0.291761 6.39973 0.297539 6.37084 0.306205C6.32462 0.317761 6.27839 0.329317 6.23506 0.340872C6.23217 0.340872 6.23217 0.340872 6.22928 0.340872C6.18595 0.352428 6.14262 0.363984 6.09928 0.378428C6.07617 0.384206 6.05306 0.392873 6.03284 0.39865C6.00973 0.404428 5.98662 0.413095 5.96639 0.418873C5.94328 0.424651 5.92306 0.433317 5.89995 0.439095C5.81039 0.467984 5.72084 0.496873 5.63417 0.53154C5.61106 0.540207 5.59084 0.548874 5.56772 0.554651C5.54461 0.560429 5.52439 0.571985 5.50128 0.580651C5.47817 0.589318 5.45795 0.597985 5.43483 0.606652C5.36839 0.632652 5.30483 0.658652 5.24128 0.687541C5.21528 0.699097 5.19217 0.707763 5.16906 0.719319C5.12861 0.736652 5.08817 0.753986 5.05061 0.774208C5.03039 0.782875 5.00728 0.79443 4.98705 0.803097C4.97261 0.811764 4.95528 0.817542 4.94083 0.826209C4.92061 0.834875 4.8975 0.846431 4.87728 0.857987C4.74439 0.924431 4.61439 0.993765 4.48727 1.06599C4.44683 1.0891 4.40638 1.11221 4.36883 1.13532C4.30816 1.16999 4.24749 1.20754 4.18972 1.2451C4.16949 1.25666 4.14927 1.2711 4.13194 1.28266C4.09149 1.30866 4.05394 1.33466 4.01349 1.36066C3.99327 1.3751 3.97594 1.38666 3.95571 1.4011C3.87771 1.4531 3.8026 1.51088 3.72749 1.56577C3.70727 1.58021 3.68994 1.59466 3.6726 1.6091C3.65816 1.62066 3.64371 1.62932 3.63216 1.64088C3.61771 1.65244 3.60327 1.66399 3.58882 1.67555C3.5686 1.69288 3.54549 1.71021 3.52527 1.72755C3.44438 1.7911 3.36638 1.85755 3.29127 1.92688C3.27682 1.93844 3.26238 1.94999 3.25082 1.96444C3.19882 2.01066 3.14971 2.05688 3.1006 2.1031C3.08038 2.12333 3.06015 2.14066 3.04282 2.16088C3.02549 2.17822 3.00526 2.19555 2.98793 2.21288C2.93593 2.26488 2.88393 2.31688 2.83482 2.36888C2.81749 2.38622 2.80304 2.40355 2.78571 2.42088C2.76837 2.43822 2.75393 2.45555 2.7366 2.47288C2.70482 2.50755 2.67304 2.54222 2.64126 2.57977C2.62682 2.59711 2.60948 2.61444 2.59504 2.63466C1.42503 3.96934 0.789474 5.67668 0.789474 7.44469C0.789474 9.40626 1.55503 11.2523 2.94171 12.6418C4.32838 14.0314 6.17439 14.7912 8.13596 14.7912C9.31463 14.7912 10.4846 14.5052 11.5218 13.965C11.5766 13.9361 11.6315 13.9072 11.6864 13.8754C11.7095 13.8638 11.7326 13.8494 11.7558 13.8378C11.7644 13.835 11.7702 13.8292 11.7789 13.8263C11.7933 13.8176 11.8078 13.809 11.8222 13.8003C11.8453 13.7887 11.8655 13.7743 11.8886 13.7627C11.906 13.7512 11.9262 13.7425 11.9435 13.731C11.9638 13.7194 11.984 13.705 12.0042 13.6934C12.1833 13.5836 12.3567 13.4652 12.5242 13.3381C12.5473 13.3236 12.5675 13.3063 12.5878 13.2889C12.5935 13.2832 12.5993 13.2803 12.6051 13.2745C12.6253 13.2601 12.6455 13.2427 12.6658 13.2283C12.6744 13.2225 12.6802 13.2167 12.6889 13.2109C12.712 13.1936 12.7322 13.1763 12.7524 13.1589C12.7553 13.1561 12.7611 13.1532 12.764 13.1474C12.816 13.1041 12.8709 13.0607 12.9229 13.0145C12.998 12.9509 13.0702 12.8845 13.1424 12.8181C13.1569 12.8036 13.1742 12.7892 13.1887 12.7747C13.2695 12.6967 13.3504 12.6187 13.4255 12.5378C13.44 12.5234 13.4544 12.5089 13.4689 12.4945C13.4747 12.4887 13.4833 12.4801 13.4891 12.4743C13.5267 12.4367 13.5613 12.3963 13.5989 12.3558C13.6191 12.3327 13.6393 12.3096 13.6624 12.2865C13.6827 12.2634 13.7029 12.2403 13.7231 12.2143C13.7433 12.1912 13.7607 12.1681 13.7809 12.1449C13.7838 12.1421 13.7838 12.1392 13.7867 12.1363C13.804 12.1161 13.8213 12.0929 13.8387 12.0727C13.8387 12.0698 13.8415 12.0698 13.8415 12.0669C13.8647 12.0381 13.8907 12.0092 13.9138 11.9774C13.9311 11.9572 13.9455 11.9369 13.96 11.9167C14.0004 11.8647 14.038 11.8127 14.0756 11.7607C14.1478 11.6596 14.1478 11.5238 14.0756 11.4227C14.0784 11.4227 14.0756 11.4198 14.0727 11.414ZM12.8564 12.2952C12.7755 12.3732 12.6947 12.4483 12.6138 12.5205C12.5935 12.5378 12.5733 12.5581 12.5502 12.5754C12.4895 12.6274 12.4289 12.6794 12.3653 12.7285C12.3624 12.7314 12.3624 12.7314 12.3595 12.7343C12.3162 12.7689 12.2729 12.8036 12.2295 12.8354C12.2295 12.8354 12.2295 12.8354 12.2267 12.8354C12.1833 12.8672 12.1371 12.9018 12.0938 12.9336C12.0707 12.9509 12.0475 12.9654 12.0273 12.9827C12.0042 12.9972 11.9811 13.0145 11.9609 13.0289C11.9378 13.0434 11.9146 13.0607 11.8915 13.0752C11.8684 13.0896 11.8453 13.1069 11.8222 13.1214C11.7991 13.1358 11.776 13.1503 11.7529 13.1647C11.7298 13.1792 11.7066 13.1936 11.6835 13.2081C11.6604 13.2225 11.6373 13.2369 11.6142 13.2514C11.4784 13.3323 11.3426 13.4074 11.204 13.4796C11.1838 13.4912 11.1635 13.4998 11.1433 13.5114C11.1404 13.5114 11.1404 13.5143 11.1375 13.5143C11.1173 13.5258 11.0971 13.5345 11.0769 13.5432C11.048 13.5576 11.0162 13.5721 10.9844 13.5865C10.9584 13.5981 10.9324 13.6096 10.9064 13.6212C10.8804 13.6327 10.8544 13.6443 10.8284 13.6558C10.8024 13.6674 10.7764 13.679 10.7504 13.6905C10.6984 13.7136 10.6435 13.7338 10.5915 13.7541C10.5655 13.7656 10.5395 13.7743 10.5106 13.7858C10.4558 13.8061 10.4009 13.8263 10.346 13.8436C10.32 13.8523 10.294 13.861 10.268 13.8696C10.1871 13.8956 10.1033 13.9216 10.0224 13.9476C9.99642 13.9563 9.96753 13.9621 9.93864 13.9707C9.84908 13.9967 9.75664 14.0198 9.66419 14.0401C9.64397 14.0458 9.62375 14.0487 9.60353 14.0545C9.57464 14.0603 9.54864 14.0661 9.51975 14.0718C9.49953 14.0776 9.4793 14.0805 9.45908 14.0834C9.43597 14.0892 9.41286 14.0921 9.38686 14.0978C9.36375 14.1036 9.33775 14.1065 9.31463 14.1123C9.30886 14.1123 9.30308 14.1152 9.2973 14.1152C9.27419 14.1181 9.25397 14.1238 9.23086 14.1267C9.19619 14.1325 9.16152 14.1383 9.12686 14.1441C9.10663 14.147 9.08641 14.1498 9.06619 14.1527C9.04597 14.1556 9.02574 14.1585 9.00552 14.1614C8.98241 14.1643 8.95641 14.1672 8.93041 14.1701C8.92752 14.1701 8.92174 14.1701 8.91885 14.1701C8.89285 14.173 8.86397 14.1758 8.83797 14.1787C8.81774 14.1816 8.79752 14.1845 8.7773 14.1845C8.73396 14.1874 8.69063 14.1932 8.6473 14.1961C8.61841 14.199 8.59241 14.199 8.56352 14.2018C8.54041 14.2047 8.5173 14.2047 8.49419 14.2047C8.4653 14.2076 8.43641 14.2076 8.40752 14.2076C8.37863 14.2076 8.34974 14.2105 8.32085 14.2105C8.29774 14.2105 8.27752 14.2105 8.25441 14.2105C8.21685 14.2105 8.18218 14.2105 8.14463 14.2105C4.4035 14.2134 1.36726 11.1772 1.36726 7.44469C1.36726 7.39847 1.36726 7.35514 1.37014 7.3118C1.37014 7.30025 1.37014 7.29158 1.37014 7.28002C1.37014 7.26558 1.37014 7.24825 1.37014 7.2338C1.37014 7.19336 1.37303 7.15291 1.37592 7.10958C1.37592 7.08647 1.37881 7.06625 1.37881 7.04602C1.37881 7.02291 1.3817 7.00269 1.38459 6.97958C1.38459 6.95647 1.38748 6.93624 1.39037 6.91313C1.39037 6.8958 1.39326 6.87847 1.39614 6.86113C1.40481 6.76291 1.41637 6.6618 1.42792 6.56358C1.43081 6.54913 1.43081 6.5318 1.4337 6.51735C1.45681 6.36424 1.48281 6.21113 1.51459 6.05802C1.52326 6.01757 1.53192 5.97713 1.54059 5.93957C1.54637 5.91068 1.55503 5.88468 1.56081 5.85579C1.56659 5.83268 1.57237 5.81246 1.57815 5.78935C1.58392 5.76624 1.5897 5.74602 1.59548 5.7229C1.60126 5.70268 1.60703 5.67957 1.61281 5.65935C1.6157 5.6449 1.62148 5.63046 1.62437 5.61601C1.63015 5.59868 1.63592 5.57846 1.6417 5.56113C1.64748 5.5409 1.65326 5.52068 1.65904 5.49757C1.66481 5.47735 1.67059 5.45712 1.67926 5.4369C1.73126 5.26935 1.79192 5.10468 1.85837 4.94001C1.87281 4.90245 1.88726 4.86779 1.90459 4.83023C1.92481 4.78112 1.94793 4.73201 1.96815 4.68579C1.97681 4.66845 1.98259 4.65112 1.99126 4.63379C1.99704 4.62223 2.00281 4.60779 2.00859 4.59623C2.01726 4.5789 2.02593 4.55867 2.03459 4.54134C2.05482 4.5009 2.07215 4.46334 2.09237 4.4229C2.10104 4.40556 2.11259 4.38534 2.12126 4.36801C2.13859 4.33623 2.15593 4.30156 2.17326 4.26978C2.18193 4.25245 2.19059 4.23801 2.19926 4.22356C2.21082 4.20045 2.22526 4.17734 2.23971 4.15134C2.24548 4.13978 2.25415 4.12534 2.25993 4.11378C2.30904 4.02712 2.35815 3.94334 2.41015 3.85956C2.42171 3.83934 2.43326 3.822 2.44771 3.80178C2.45926 3.78156 2.47082 3.76423 2.48526 3.744C2.49682 3.72378 2.51126 3.70356 2.52571 3.68623C2.56037 3.63422 2.59793 3.58222 2.6326 3.53022C2.64704 3.51 2.66149 3.48978 2.67882 3.46956C2.69037 3.45222 2.70482 3.432 2.71926 3.41467C2.73371 3.39733 2.74526 3.37711 2.75971 3.35978C2.77126 3.34245 2.78571 3.32511 2.80015 3.30778C2.80015 3.30778 2.80015 3.30489 2.80304 3.30489C2.82037 3.28178 2.83771 3.26156 2.85504 3.23844C2.88682 3.198 2.9186 3.16044 2.95038 3.12289C2.97349 3.09689 2.99371 3.07089 3.01682 3.04489C3.0746 2.97555 3.13527 2.90911 3.19593 2.84266C3.22193 2.81378 3.24793 2.78489 3.27682 2.75889C3.27971 2.75311 3.28549 2.75022 3.28838 2.74444C3.31149 2.71844 3.33749 2.69533 3.3606 2.67222C3.36927 2.66355 3.37505 2.65777 3.38371 2.64911C3.40393 2.62889 3.42705 2.60577 3.44727 2.58555C3.48482 2.548 3.52238 2.51333 3.55993 2.47866C3.58305 2.45844 3.60616 2.43533 3.62638 2.41511C3.63505 2.40933 3.64082 2.40066 3.64949 2.39488C3.6726 2.37466 3.69571 2.35444 3.72171 2.33133C3.73038 2.32266 3.74194 2.314 3.7506 2.30533C3.7766 2.28222 3.8026 2.25911 3.83149 2.23599C3.83438 2.23311 3.83727 2.23022 3.84016 2.22733C3.87194 2.20133 3.90371 2.17533 3.93549 2.14933C3.96438 2.12622 3.99327 2.1031 4.02216 2.07999C4.0626 2.04822 4.10594 2.01644 4.14927 1.98466C4.18105 1.96155 4.20994 1.93844 4.24172 1.91821C4.27349 1.8951 4.30527 1.87488 4.33705 1.85177C4.38616 1.8171 4.43527 1.78533 4.48438 1.75355C4.5075 1.73621 4.5335 1.72177 4.5595 1.70444C4.56239 1.70155 4.56527 1.70155 4.56816 1.69866C4.59416 1.68132 4.62016 1.66688 4.64616 1.65244C4.64905 1.64955 4.65483 1.64666 4.65772 1.64377C4.66927 1.6351 4.68372 1.62932 4.69527 1.62066C4.71839 1.60621 4.7415 1.59466 4.76461 1.58021C4.77616 1.57444 4.78772 1.56577 4.79928 1.55999C4.83105 1.54266 4.85994 1.52532 4.89172 1.50799C4.89172 1.50799 4.89461 1.50799 4.89461 1.5051C4.92928 1.48777 4.96105 1.46755 4.99572 1.45021C5.10261 1.39243 5.21239 1.33754 5.32506 1.28554C5.34239 1.27688 5.36261 1.26821 5.37995 1.25954C5.41461 1.24221 5.44928 1.22777 5.48395 1.21332C5.51572 1.19888 5.55039 1.18443 5.58217 1.16999C5.61972 1.15554 5.65728 1.13821 5.69484 1.12377C5.70639 1.11799 5.72084 1.1151 5.73239 1.10932C5.76128 1.09777 5.79306 1.08621 5.82195 1.07465C5.82773 1.07177 5.83061 1.07177 5.8335 1.06888C5.98084 1.01399 6.12817 0.964876 6.28128 0.921542C5.34528 2.13777 4.83683 3.61978 4.83683 5.17979C4.83683 6.08402 4.99283 6.9738 5.32795 7.80581C5.32795 7.80581 5.32794 7.80869 5.33083 7.80869C5.33083 7.80869 5.33083 7.81158 5.33372 7.81158C5.63706 8.51648 6.05017 9.17515 6.57017 9.76448C6.57306 9.77026 6.57595 9.77604 6.57884 9.78182C6.58173 9.78759 6.58751 9.79626 6.5904 9.80204C6.59906 9.81359 6.60773 9.82515 6.6164 9.83671C6.64817 9.87137 6.67706 9.90604 6.70884 9.93782C6.74062 9.97248 6.7724 10.0043 6.80418 10.036L6.80706 10.0389C6.83595 10.0678 6.86484 10.0967 6.89373 10.1256L6.90529 10.1372C6.93707 10.166 6.96595 10.1978 6.99773 10.2267C7.02951 10.2585 7.06418 10.2903 7.09596 10.3192C7.1624 10.3798 7.23173 10.4405 7.29818 10.4983C7.33285 10.5272 7.36751 10.556 7.40218 10.5849C7.43685 10.6138 7.47151 10.6427 7.50618 10.6687C7.54085 10.6976 7.5784 10.7236 7.61307 10.7525C7.64774 10.7785 7.68529 10.8074 7.72285 10.8334C7.7604 10.8594 7.79507 10.8854 7.83263 10.9114C7.87018 10.9374 7.90774 10.9634 7.94529 10.9865C7.98285 11.0125 8.0204 11.0356 8.05796 11.0616C8.13307 11.1107 8.20818 11.154 8.2833 11.2003C8.28618 11.2032 8.28907 11.2032 8.29196 11.206C8.32374 11.2234 8.35552 11.2436 8.3873 11.2609C8.41907 11.2783 8.45374 11.2985 8.48552 11.3158H8.48841C8.52019 11.3332 8.55196 11.3505 8.58374 11.3678C8.59241 11.3707 8.59819 11.3765 8.60685 11.3794C8.63285 11.3938 8.66174 11.4083 8.69063 11.4227C8.69352 11.4256 8.69641 11.4256 8.6993 11.4285C8.73396 11.4458 8.76574 11.4632 8.80041 11.4776C8.86974 11.5123 8.93908 11.544 9.0113 11.5758C9.04597 11.5903 9.08352 11.6076 9.11819 11.622C9.15285 11.6365 9.19041 11.6509 9.22508 11.6654C9.29441 11.6943 9.36375 11.7203 9.43308 11.7463C9.47641 11.7607 9.51975 11.7781 9.56308 11.7925C9.59486 11.8041 9.62664 11.8156 9.65841 11.8243H9.6613C9.69597 11.8358 9.73353 11.8474 9.76819 11.8589C9.79708 11.8676 9.82597 11.8763 9.85486 11.8849C9.87508 11.8907 9.8953 11.8965 9.91264 11.9023C9.9213 11.9052 9.92708 11.9081 9.93575 11.9081C9.96175 11.9167 9.98775 11.9225 10.0109 11.9283C10.0686 11.9456 10.1293 11.9601 10.19 11.9745C10.2189 11.9832 10.2478 11.9889 10.2766 11.9947H10.2795C10.3055 12.0005 10.3315 12.0063 10.3575 12.0121C10.4326 12.0294 10.5078 12.0438 10.5829 12.0554C10.6118 12.0612 10.6406 12.0669 10.6724 12.0698C10.7042 12.0756 10.736 12.0814 10.7678 12.0843C10.7822 12.0872 10.7995 12.0901 10.814 12.0929C10.8429 12.0987 10.8746 12.1016 10.9035 12.1045C10.9411 12.1103 10.9815 12.1132 11.0191 12.1189C11.0566 12.1247 11.0942 12.1276 11.1318 12.1305C11.1346 12.1305 11.1346 12.1305 11.1375 12.1305C11.1722 12.1334 11.2069 12.1363 11.2415 12.1392C11.2473 12.1392 11.2502 12.1392 11.256 12.1392C11.2849 12.1421 11.3109 12.1449 11.3398 12.1449C11.3571 12.1449 11.3715 12.1478 11.3889 12.1478C11.4206 12.1507 11.4524 12.1507 11.4842 12.1536C11.5218 12.1565 11.5564 12.1565 11.594 12.1594C11.62 12.1594 11.646 12.1623 11.672 12.1623C11.6951 12.1623 11.7153 12.1623 11.7355 12.1623C11.7702 12.1623 11.802 12.1623 11.8366 12.1623C12.2555 12.1623 12.6715 12.1247 13.0818 12.0525C13.0558 12.0785 13.0298 12.1045 13.0038 12.1334C12.9807 12.1565 12.9575 12.1825 12.9315 12.2056C12.8969 12.2547 12.8767 12.2749 12.8564 12.2952Z"/>
</mask>
<path d="M14.0727 11.414C14.0698 11.4112 14.0669 11.4083 14.064 11.4054C14.0611 11.4025 14.0582 11.3967 14.0524 11.3938C14.0496 11.3909 14.0467 11.388 14.0438 11.3852C14.0409 11.3823 14.038 11.3794 14.0351 11.3765C14.0322 11.3765 14.0322 11.3736 14.0293 11.3736C14.0236 11.3678 14.0178 11.3649 14.012 11.362C14.0091 11.3592 14.0033 11.3563 14.0004 11.3534C13.9976 11.3534 13.9976 11.3505 13.9947 11.3505C13.9918 11.3505 13.9918 11.3476 13.9889 11.3476C13.986 11.3476 13.986 11.3476 13.986 11.3447C13.9831 11.3418 13.9773 11.3389 13.9744 11.3389C13.9715 11.3389 13.9687 11.336 13.9658 11.336C13.9629 11.336 13.96 11.3332 13.9571 11.3332C13.9542 11.3332 13.9513 11.3303 13.9484 11.3303C13.9427 11.3274 13.9398 11.3274 13.934 11.3245C13.9311 11.3245 13.9282 11.3216 13.9253 11.3216C13.9224 11.3216 13.9224 11.3216 13.9195 11.3187C13.9167 11.3187 13.9138 11.3158 13.9109 11.3158C13.9022 11.3129 13.8935 11.3129 13.882 11.31H13.8791C13.8733 11.31 13.8675 11.3072 13.8618 11.3072C13.856 11.3072 13.8502 11.3072 13.8444 11.3072H13.8415C13.8127 11.3072 13.7867 11.3129 13.7578 11.3216C13.1309 11.518 12.478 11.6192 11.8193 11.6192C11.7615 11.6192 11.7038 11.6192 11.6431 11.6163C11.6373 11.6163 11.6286 11.6163 11.6229 11.6163C11.62 11.6163 11.6171 11.6163 11.6142 11.6163C11.6084 11.6163 11.6026 11.6163 11.5969 11.6163C11.5506 11.6134 11.5044 11.6134 11.4611 11.6105C11.4466 11.6105 11.4293 11.6105 11.4149 11.6076C11.3571 11.6047 11.2993 11.5989 11.2415 11.5932C11.23 11.5932 11.2155 11.5903 11.204 11.5903C11.152 11.5845 11.1 11.5787 11.0451 11.5729C11.0364 11.5729 11.0278 11.57 11.0191 11.57C10.9642 11.5643 10.9093 11.5556 10.8544 11.5469C10.8458 11.5469 10.8371 11.544 10.8284 11.544C10.7735 11.5354 10.7215 11.5267 10.6666 11.5152C10.6609 11.5152 10.6551 11.5123 10.6493 11.5123C10.6435 11.5123 10.6406 11.5094 10.6349 11.5094C10.5858 11.5007 10.5338 11.4892 10.4846 11.4805C10.4702 11.4776 10.4586 11.4747 10.4442 11.4718C10.3864 11.4603 10.3286 11.4458 10.2738 11.4314C10.268 11.4314 10.2622 11.4285 10.2593 11.4285C10.2044 11.414 10.1524 11.3996 10.0975 11.3852C10.0918 11.3823 10.086 11.3823 10.0802 11.3794C10.0744 11.3765 10.0686 11.3765 10.0629 11.3736C10.008 11.3592 9.95308 11.3418 9.8953 11.3245C9.88953 11.3245 9.88664 11.3216 9.88375 11.3216C9.83175 11.3043 9.77686 11.2869 9.72486 11.2696C9.71908 11.2667 9.71619 11.2667 9.71041 11.2638C9.70464 11.2609 9.70175 11.2609 9.69597 11.258C9.64975 11.2407 9.60064 11.2234 9.55441 11.206C9.5313 11.1974 9.50819 11.1887 9.48508 11.18C9.43886 11.1627 9.39552 11.1454 9.3493 11.1252C9.34641 11.1252 9.34641 11.1223 9.34352 11.1223C9.29152 11.102 9.23952 11.0789 9.19041 11.0558C9.18752 11.0529 9.18463 11.0529 9.18174 11.05C9.1673 11.0443 9.15574 11.0385 9.1413 11.0327C9.09508 11.0125 9.05174 10.9923 9.00841 10.9692C8.99685 10.9634 8.98819 10.9576 8.97663 10.9547C8.92463 10.9287 8.87552 10.9027 8.82641 10.8767C8.82641 10.8767 8.82352 10.8738 8.82063 10.8738C7.5264 10.1603 6.48928 9.03648 5.8855 7.67869C5.8855 7.67291 5.88262 7.66425 5.88262 7.65847C5.88262 7.65269 5.87973 7.64403 5.87973 7.63825C5.87684 7.63247 5.87684 7.62669 5.87395 7.62091C5.87106 7.61514 5.86817 7.60647 5.86528 7.60069C5.55617 6.83513 5.40017 6.02624 5.40017 5.19423C5.40017 3.48689 6.06173 1.88066 7.2664 0.667319C7.35307 0.577763 7.37618 0.444873 7.3184 0.332206C7.31551 0.326428 7.30973 0.317761 7.30685 0.311983C7.30396 0.309094 7.30396 0.306205 7.30107 0.303317C7.30107 0.300428 7.29818 0.300428 7.29818 0.297539C7.29818 0.297539 7.29818 0.297539 7.29818 0.29465C7.29529 0.288872 7.28951 0.283094 7.28662 0.280205L7.28373 0.277316C7.28085 0.274427 7.27796 0.271539 7.27796 0.26865L7.27507 0.265761C7.27218 0.262872 7.26929 0.259983 7.2664 0.257094C7.26351 0.254205 7.26062 0.251316 7.26062 0.251316C7.25196 0.24265 7.2404 0.233983 7.23173 0.225316C7.22596 0.222427 7.22018 0.219538 7.21729 0.216649C7.21151 0.21376 7.20573 0.210872 7.19996 0.207983C7.19418 0.205094 7.19129 0.202205 7.18551 0.202205C7.17684 0.199316 7.16818 0.193538 7.15951 0.190649C7.15373 0.18776 7.14796 0.18776 7.14507 0.184871C7.13929 0.181982 7.13351 0.181982 7.12773 0.179094C7.12484 0.179094 7.12484 0.179094 7.12195 0.179094C7.1104 0.176205 7.09884 0.173316 7.0844 0.173316C7.06418 0.170427 7.04107 0.173316 7.02084 0.176205C6.98907 0.181982 6.95729 0.184871 6.92551 0.190649C6.8764 0.199316 6.83018 0.207983 6.78106 0.216649C6.77818 0.216649 6.77818 0.216649 6.77529 0.216649C6.72329 0.225316 6.67129 0.236872 6.62217 0.248427C6.61929 0.248427 6.6164 0.248427 6.61351 0.251316C6.58751 0.257094 6.55862 0.262872 6.53262 0.26865C6.50662 0.274427 6.47773 0.280205 6.45173 0.285983C6.42573 0.291761 6.39973 0.297539 6.37084 0.306205C6.32462 0.317761 6.27839 0.329317 6.23506 0.340872C6.23217 0.340872 6.23217 0.340872 6.22928 0.340872C6.18595 0.352428 6.14262 0.363984 6.09928 0.378428C6.07617 0.384206 6.05306 0.392873 6.03284 0.39865C6.00973 0.404428 5.98662 0.413095 5.96639 0.418873C5.94328 0.424651 5.92306 0.433317 5.89995 0.439095C5.81039 0.467984 5.72084 0.496873 5.63417 0.53154C5.61106 0.540207 5.59084 0.548874 5.56772 0.554651C5.54461 0.560429 5.52439 0.571985 5.50128 0.580651C5.47817 0.589318 5.45795 0.597985 5.43483 0.606652C5.36839 0.632652 5.30483 0.658652 5.24128 0.687541C5.21528 0.699097 5.19217 0.707763 5.16906 0.719319C5.12861 0.736652 5.08817 0.753986 5.05061 0.774208C5.03039 0.782875 5.00728 0.79443 4.98705 0.803097C4.97261 0.811764 4.95528 0.817542 4.94083 0.826209C4.92061 0.834875 4.8975 0.846431 4.87728 0.857987C4.74439 0.924431 4.61439 0.993765 4.48727 1.06599C4.44683 1.0891 4.40638 1.11221 4.36883 1.13532C4.30816 1.16999 4.24749 1.20754 4.18972 1.2451C4.16949 1.25666 4.14927 1.2711 4.13194 1.28266C4.09149 1.30866 4.05394 1.33466 4.01349 1.36066C3.99327 1.3751 3.97594 1.38666 3.95571 1.4011C3.87771 1.4531 3.8026 1.51088 3.72749 1.56577C3.70727 1.58021 3.68994 1.59466 3.6726 1.6091C3.65816 1.62066 3.64371 1.62932 3.63216 1.64088C3.61771 1.65244 3.60327 1.66399 3.58882 1.67555C3.5686 1.69288 3.54549 1.71021 3.52527 1.72755C3.44438 1.7911 3.36638 1.85755 3.29127 1.92688C3.27682 1.93844 3.26238 1.94999 3.25082 1.96444C3.19882 2.01066 3.14971 2.05688 3.1006 2.1031C3.08038 2.12333 3.06015 2.14066 3.04282 2.16088C3.02549 2.17822 3.00526 2.19555 2.98793 2.21288C2.93593 2.26488 2.88393 2.31688 2.83482 2.36888C2.81749 2.38622 2.80304 2.40355 2.78571 2.42088C2.76837 2.43822 2.75393 2.45555 2.7366 2.47288C2.70482 2.50755 2.67304 2.54222 2.64126 2.57977C2.62682 2.59711 2.60948 2.61444 2.59504 2.63466C1.42503 3.96934 0.789474 5.67668 0.789474 7.44469C0.789474 9.40626 1.55503 11.2523 2.94171 12.6418C4.32838 14.0314 6.17439 14.7912 8.13596 14.7912C9.31463 14.7912 10.4846 14.5052 11.5218 13.965C11.5766 13.9361 11.6315 13.9072 11.6864 13.8754C11.7095 13.8638 11.7326 13.8494 11.7558 13.8378C11.7644 13.835 11.7702 13.8292 11.7789 13.8263C11.7933 13.8176 11.8078 13.809 11.8222 13.8003C11.8453 13.7887 11.8655 13.7743 11.8886 13.7627C11.906 13.7512 11.9262 13.7425 11.9435 13.731C11.9638 13.7194 11.984 13.705 12.0042 13.6934C12.1833 13.5836 12.3567 13.4652 12.5242 13.3381C12.5473 13.3236 12.5675 13.3063 12.5878 13.2889C12.5935 13.2832 12.5993 13.2803 12.6051 13.2745C12.6253 13.2601 12.6455 13.2427 12.6658 13.2283C12.6744 13.2225 12.6802 13.2167 12.6889 13.2109C12.712 13.1936 12.7322 13.1763 12.7524 13.1589C12.7553 13.1561 12.7611 13.1532 12.764 13.1474C12.816 13.1041 12.8709 13.0607 12.9229 13.0145C12.998 12.9509 13.0702 12.8845 13.1424 12.8181C13.1569 12.8036 13.1742 12.7892 13.1887 12.7747C13.2695 12.6967 13.3504 12.6187 13.4255 12.5378C13.44 12.5234 13.4544 12.5089 13.4689 12.4945C13.4747 12.4887 13.4833 12.4801 13.4891 12.4743C13.5267 12.4367 13.5613 12.3963 13.5989 12.3558C13.6191 12.3327 13.6393 12.3096 13.6624 12.2865C13.6827 12.2634 13.7029 12.2403 13.7231 12.2143C13.7433 12.1912 13.7607 12.1681 13.7809 12.1449C13.7838 12.1421 13.7838 12.1392 13.7867 12.1363C13.804 12.1161 13.8213 12.0929 13.8387 12.0727C13.8387 12.0698 13.8415 12.0698 13.8415 12.0669C13.8647 12.0381 13.8907 12.0092 13.9138 11.9774C13.9311 11.9572 13.9455 11.9369 13.96 11.9167C14.0004 11.8647 14.038 11.8127 14.0756 11.7607C14.1478 11.6596 14.1478 11.5238 14.0756 11.4227C14.0784 11.4227 14.0756 11.4198 14.0727 11.414ZM12.8564 12.2952C12.7755 12.3732 12.6947 12.4483 12.6138 12.5205C12.5935 12.5378 12.5733 12.5581 12.5502 12.5754C12.4895 12.6274 12.4289 12.6794 12.3653 12.7285C12.3624 12.7314 12.3624 12.7314 12.3595 12.7343C12.3162 12.7689 12.2729 12.8036 12.2295 12.8354C12.2295 12.8354 12.2295 12.8354 12.2267 12.8354C12.1833 12.8672 12.1371 12.9018 12.0938 12.9336C12.0707 12.9509 12.0475 12.9654 12.0273 12.9827C12.0042 12.9972 11.9811 13.0145 11.9609 13.0289C11.9378 13.0434 11.9146 13.0607 11.8915 13.0752C11.8684 13.0896 11.8453 13.1069 11.8222 13.1214C11.7991 13.1358 11.776 13.1503 11.7529 13.1647C11.7298 13.1792 11.7066 13.1936 11.6835 13.2081C11.6604 13.2225 11.6373 13.2369 11.6142 13.2514C11.4784 13.3323 11.3426 13.4074 11.204 13.4796C11.1838 13.4912 11.1635 13.4998 11.1433 13.5114C11.1404 13.5114 11.1404 13.5143 11.1375 13.5143C11.1173 13.5258 11.0971 13.5345 11.0769 13.5432C11.048 13.5576 11.0162 13.5721 10.9844 13.5865C10.9584 13.5981 10.9324 13.6096 10.9064 13.6212C10.8804 13.6327 10.8544 13.6443 10.8284 13.6558C10.8024 13.6674 10.7764 13.679 10.7504 13.6905C10.6984 13.7136 10.6435 13.7338 10.5915 13.7541C10.5655 13.7656 10.5395 13.7743 10.5106 13.7858C10.4558 13.8061 10.4009 13.8263 10.346 13.8436C10.32 13.8523 10.294 13.861 10.268 13.8696C10.1871 13.8956 10.1033 13.9216 10.0224 13.9476C9.99642 13.9563 9.96753 13.9621 9.93864 13.9707C9.84908 13.9967 9.75664 14.0198 9.66419 14.0401C9.64397 14.0458 9.62375 14.0487 9.60353 14.0545C9.57464 14.0603 9.54864 14.0661 9.51975 14.0718C9.49953 14.0776 9.4793 14.0805 9.45908 14.0834C9.43597 14.0892 9.41286 14.0921 9.38686 14.0978C9.36375 14.1036 9.33775 14.1065 9.31463 14.1123C9.30886 14.1123 9.30308 14.1152 9.2973 14.1152C9.27419 14.1181 9.25397 14.1238 9.23086 14.1267C9.19619 14.1325 9.16152 14.1383 9.12686 14.1441C9.10663 14.147 9.08641 14.1498 9.06619 14.1527C9.04597 14.1556 9.02574 14.1585 9.00552 14.1614C8.98241 14.1643 8.95641 14.1672 8.93041 14.1701C8.92752 14.1701 8.92174 14.1701 8.91885 14.1701C8.89285 14.173 8.86397 14.1758 8.83797 14.1787C8.81774 14.1816 8.79752 14.1845 8.7773 14.1845C8.73396 14.1874 8.69063 14.1932 8.6473 14.1961C8.61841 14.199 8.59241 14.199 8.56352 14.2018C8.54041 14.2047 8.5173 14.2047 8.49419 14.2047C8.4653 14.2076 8.43641 14.2076 8.40752 14.2076C8.37863 14.2076 8.34974 14.2105 8.32085 14.2105C8.29774 14.2105 8.27752 14.2105 8.25441 14.2105C8.21685 14.2105 8.18218 14.2105 8.14463 14.2105C4.4035 14.2134 1.36726 11.1772 1.36726 7.44469C1.36726 7.39847 1.36726 7.35514 1.37014 7.3118C1.37014 7.30025 1.37014 7.29158 1.37014 7.28002C1.37014 7.26558 1.37014 7.24825 1.37014 7.2338C1.37014 7.19336 1.37303 7.15291 1.37592 7.10958C1.37592 7.08647 1.37881 7.06625 1.37881 7.04602C1.37881 7.02291 1.3817 7.00269 1.38459 6.97958C1.38459 6.95647 1.38748 6.93624 1.39037 6.91313C1.39037 6.8958 1.39326 6.87847 1.39614 6.86113C1.40481 6.76291 1.41637 6.6618 1.42792 6.56358C1.43081 6.54913 1.43081 6.5318 1.4337 6.51735C1.45681 6.36424 1.48281 6.21113 1.51459 6.05802C1.52326 6.01757 1.53192 5.97713 1.54059 5.93957C1.54637 5.91068 1.55503 5.88468 1.56081 5.85579C1.56659 5.83268 1.57237 5.81246 1.57815 5.78935C1.58392 5.76624 1.5897 5.74602 1.59548 5.7229C1.60126 5.70268 1.60703 5.67957 1.61281 5.65935C1.6157 5.6449 1.62148 5.63046 1.62437 5.61601C1.63015 5.59868 1.63592 5.57846 1.6417 5.56113C1.64748 5.5409 1.65326 5.52068 1.65904 5.49757C1.66481 5.47735 1.67059 5.45712 1.67926 5.4369C1.73126 5.26935 1.79192 5.10468 1.85837 4.94001C1.87281 4.90245 1.88726 4.86779 1.90459 4.83023C1.92481 4.78112 1.94793 4.73201 1.96815 4.68579C1.97681 4.66845 1.98259 4.65112 1.99126 4.63379C1.99704 4.62223 2.00281 4.60779 2.00859 4.59623C2.01726 4.5789 2.02593 4.55867 2.03459 4.54134C2.05482 4.5009 2.07215 4.46334 2.09237 4.4229C2.10104 4.40556 2.11259 4.38534 2.12126 4.36801C2.13859 4.33623 2.15593 4.30156 2.17326 4.26978C2.18193 4.25245 2.19059 4.23801 2.19926 4.22356C2.21082 4.20045 2.22526 4.17734 2.23971 4.15134C2.24548 4.13978 2.25415 4.12534 2.25993 4.11378C2.30904 4.02712 2.35815 3.94334 2.41015 3.85956C2.42171 3.83934 2.43326 3.822 2.44771 3.80178C2.45926 3.78156 2.47082 3.76423 2.48526 3.744C2.49682 3.72378 2.51126 3.70356 2.52571 3.68623C2.56037 3.63422 2.59793 3.58222 2.6326 3.53022C2.64704 3.51 2.66149 3.48978 2.67882 3.46956C2.69037 3.45222 2.70482 3.432 2.71926 3.41467C2.73371 3.39733 2.74526 3.37711 2.75971 3.35978C2.77126 3.34245 2.78571 3.32511 2.80015 3.30778C2.80015 3.30778 2.80015 3.30489 2.80304 3.30489C2.82037 3.28178 2.83771 3.26156 2.85504 3.23844C2.88682 3.198 2.9186 3.16044 2.95038 3.12289C2.97349 3.09689 2.99371 3.07089 3.01682 3.04489C3.0746 2.97555 3.13527 2.90911 3.19593 2.84266C3.22193 2.81378 3.24793 2.78489 3.27682 2.75889C3.27971 2.75311 3.28549 2.75022 3.28838 2.74444C3.31149 2.71844 3.33749 2.69533 3.3606 2.67222C3.36927 2.66355 3.37505 2.65777 3.38371 2.64911C3.40393 2.62889 3.42705 2.60577 3.44727 2.58555C3.48482 2.548 3.52238 2.51333 3.55993 2.47866C3.58305 2.45844 3.60616 2.43533 3.62638 2.41511C3.63505 2.40933 3.64082 2.40066 3.64949 2.39488C3.6726 2.37466 3.69571 2.35444 3.72171 2.33133C3.73038 2.32266 3.74194 2.314 3.7506 2.30533C3.7766 2.28222 3.8026 2.25911 3.83149 2.23599C3.83438 2.23311 3.83727 2.23022 3.84016 2.22733C3.87194 2.20133 3.90371 2.17533 3.93549 2.14933C3.96438 2.12622 3.99327 2.1031 4.02216 2.07999C4.0626 2.04822 4.10594 2.01644 4.14927 1.98466C4.18105 1.96155 4.20994 1.93844 4.24172 1.91821C4.27349 1.8951 4.30527 1.87488 4.33705 1.85177C4.38616 1.8171 4.43527 1.78533 4.48438 1.75355C4.5075 1.73621 4.5335 1.72177 4.5595 1.70444C4.56239 1.70155 4.56527 1.70155 4.56816 1.69866C4.59416 1.68132 4.62016 1.66688 4.64616 1.65244C4.64905 1.64955 4.65483 1.64666 4.65772 1.64377C4.66927 1.6351 4.68372 1.62932 4.69527 1.62066C4.71839 1.60621 4.7415 1.59466 4.76461 1.58021C4.77616 1.57444 4.78772 1.56577 4.79928 1.55999C4.83105 1.54266 4.85994 1.52532 4.89172 1.50799C4.89172 1.50799 4.89461 1.50799 4.89461 1.5051C4.92928 1.48777 4.96105 1.46755 4.99572 1.45021C5.10261 1.39243 5.21239 1.33754 5.32506 1.28554C5.34239 1.27688 5.36261 1.26821 5.37995 1.25954C5.41461 1.24221 5.44928 1.22777 5.48395 1.21332C5.51572 1.19888 5.55039 1.18443 5.58217 1.16999C5.61972 1.15554 5.65728 1.13821 5.69484 1.12377C5.70639 1.11799 5.72084 1.1151 5.73239 1.10932C5.76128 1.09777 5.79306 1.08621 5.82195 1.07465C5.82773 1.07177 5.83061 1.07177 5.8335 1.06888C5.98084 1.01399 6.12817 0.964876 6.28128 0.921542C5.34528 2.13777 4.83683 3.61978 4.83683 5.17979C4.83683 6.08402 4.99283 6.9738 5.32795 7.80581C5.32795 7.80581 5.32794 7.80869 5.33083 7.80869C5.33083 7.80869 5.33083 7.81158 5.33372 7.81158C5.63706 8.51648 6.05017 9.17515 6.57017 9.76448C6.57306 9.77026 6.57595 9.77604 6.57884 9.78182C6.58173 9.78759 6.58751 9.79626 6.5904 9.80204C6.59906 9.81359 6.60773 9.82515 6.6164 9.83671C6.64817 9.87137 6.67706 9.90604 6.70884 9.93782C6.74062 9.97248 6.7724 10.0043 6.80418 10.036L6.80706 10.0389C6.83595 10.0678 6.86484 10.0967 6.89373 10.1256L6.90529 10.1372C6.93707 10.166 6.96595 10.1978 6.99773 10.2267C7.02951 10.2585 7.06418 10.2903 7.09596 10.3192C7.1624 10.3798 7.23173 10.4405 7.29818 10.4983C7.33285 10.5272 7.36751 10.556 7.40218 10.5849C7.43685 10.6138 7.47151 10.6427 7.50618 10.6687C7.54085 10.6976 7.5784 10.7236 7.61307 10.7525C7.64774 10.7785 7.68529 10.8074 7.72285 10.8334C7.7604 10.8594 7.79507 10.8854 7.83263 10.9114C7.87018 10.9374 7.90774 10.9634 7.94529 10.9865C7.98285 11.0125 8.0204 11.0356 8.05796 11.0616C8.13307 11.1107 8.20818 11.154 8.2833 11.2003C8.28618 11.2032 8.28907 11.2032 8.29196 11.206C8.32374 11.2234 8.35552 11.2436 8.3873 11.2609C8.41907 11.2783 8.45374 11.2985 8.48552 11.3158H8.48841C8.52019 11.3332 8.55196 11.3505 8.58374 11.3678C8.59241 11.3707 8.59819 11.3765 8.60685 11.3794C8.63285 11.3938 8.66174 11.4083 8.69063 11.4227C8.69352 11.4256 8.69641 11.4256 8.6993 11.4285C8.73396 11.4458 8.76574 11.4632 8.80041 11.4776C8.86974 11.5123 8.93908 11.544 9.0113 11.5758C9.04597 11.5903 9.08352 11.6076 9.11819 11.622C9.15285 11.6365 9.19041 11.6509 9.22508 11.6654C9.29441 11.6943 9.36375 11.7203 9.43308 11.7463C9.47641 11.7607 9.51975 11.7781 9.56308 11.7925C9.59486 11.8041 9.62664 11.8156 9.65841 11.8243H9.6613C9.69597 11.8358 9.73353 11.8474 9.76819 11.8589C9.79708 11.8676 9.82597 11.8763 9.85486 11.8849C9.87508 11.8907 9.8953 11.8965 9.91264 11.9023C9.9213 11.9052 9.92708 11.9081 9.93575 11.9081C9.96175 11.9167 9.98775 11.9225 10.0109 11.9283C10.0686 11.9456 10.1293 11.9601 10.19 11.9745C10.2189 11.9832 10.2478 11.9889 10.2766 11.9947H10.2795C10.3055 12.0005 10.3315 12.0063 10.3575 12.0121C10.4326 12.0294 10.5078 12.0438 10.5829 12.0554C10.6118 12.0612 10.6406 12.0669 10.6724 12.0698C10.7042 12.0756 10.736 12.0814 10.7678 12.0843C10.7822 12.0872 10.7995 12.0901 10.814 12.0929C10.8429 12.0987 10.8746 12.1016 10.9035 12.1045C10.9411 12.1103 10.9815 12.1132 11.0191 12.1189C11.0566 12.1247 11.0942 12.1276 11.1318 12.1305C11.1346 12.1305 11.1346 12.1305 11.1375 12.1305C11.1722 12.1334 11.2069 12.1363 11.2415 12.1392C11.2473 12.1392 11.2502 12.1392 11.256 12.1392C11.2849 12.1421 11.3109 12.1449 11.3398 12.1449C11.3571 12.1449 11.3715 12.1478 11.3889 12.1478C11.4206 12.1507 11.4524 12.1507 11.4842 12.1536C11.5218 12.1565 11.5564 12.1565 11.594 12.1594C11.62 12.1594 11.646 12.1623 11.672 12.1623C11.6951 12.1623 11.7153 12.1623 11.7355 12.1623C11.7702 12.1623 11.802 12.1623 11.8366 12.1623C12.2555 12.1623 12.6715 12.1247 13.0818 12.0525C13.0558 12.0785 13.0298 12.1045 13.0038 12.1334C12.9807 12.1565 12.9575 12.1825 12.9315 12.2056C12.8969 12.2547 12.8767 12.2749 12.8564 12.2952Z" fill="#E5007C"/>
<path d="M14.0727 11.414C14.0698 11.4112 14.0669 11.4083 14.064 11.4054C14.0611 11.4025 14.0582 11.3967 14.0524 11.3938C14.0496 11.3909 14.0467 11.388 14.0438 11.3852C14.0409 11.3823 14.038 11.3794 14.0351 11.3765C14.0322 11.3765 14.0322 11.3736 14.0293 11.3736C14.0236 11.3678 14.0178 11.3649 14.012 11.362C14.0091 11.3592 14.0033 11.3563 14.0004 11.3534C13.9976 11.3534 13.9976 11.3505 13.9947 11.3505C13.9918 11.3505 13.9918 11.3476 13.9889 11.3476C13.986 11.3476 13.986 11.3476 13.986 11.3447C13.9831 11.3418 13.9773 11.3389 13.9744 11.3389C13.9715 11.3389 13.9687 11.336 13.9658 11.336C13.9629 11.336 13.96 11.3332 13.9571 11.3332C13.9542 11.3332 13.9513 11.3303 13.9484 11.3303C13.9427 11.3274 13.9398 11.3274 13.934 11.3245C13.9311 11.3245 13.9282 11.3216 13.9253 11.3216C13.9224 11.3216 13.9224 11.3216 13.9195 11.3187C13.9167 11.3187 13.9138 11.3158 13.9109 11.3158C13.9022 11.3129 13.8935 11.3129 13.882 11.31H13.8791C13.8733 11.31 13.8675 11.3072 13.8618 11.3072C13.856 11.3072 13.8502 11.3072 13.8444 11.3072H13.8415C13.8127 11.3072 13.7867 11.3129 13.7578 11.3216C13.1309 11.518 12.478 11.6192 11.8193 11.6192C11.7615 11.6192 11.7038 11.6192 11.6431 11.6163C11.6373 11.6163 11.6286 11.6163 11.6229 11.6163C11.62 11.6163 11.6171 11.6163 11.6142 11.6163C11.6084 11.6163 11.6026 11.6163 11.5969 11.6163C11.5506 11.6134 11.5044 11.6134 11.4611 11.6105C11.4466 11.6105 11.4293 11.6105 11.4149 11.6076C11.3571 11.6047 11.2993 11.5989 11.2415 11.5932C11.23 11.5932 11.2155 11.5903 11.204 11.5903C11.152 11.5845 11.1 11.5787 11.0451 11.5729C11.0364 11.5729 11.0278 11.57 11.0191 11.57C10.9642 11.5643 10.9093 11.5556 10.8544 11.5469C10.8458 11.5469 10.8371 11.544 10.8284 11.544C10.7735 11.5354 10.7215 11.5267 10.6666 11.5152C10.6609 11.5152 10.6551 11.5123 10.6493 11.5123C10.6435 11.5123 10.6406 11.5094 10.6349 11.5094C10.5858 11.5007 10.5338 11.4892 10.4846 11.4805C10.4702 11.4776 10.4586 11.4747 10.4442 11.4718C10.3864 11.4603 10.3286 11.4458 10.2738 11.4314C10.268 11.4314 10.2622 11.4285 10.2593 11.4285C10.2044 11.414 10.1524 11.3996 10.0975 11.3852C10.0918 11.3823 10.086 11.3823 10.0802 11.3794C10.0744 11.3765 10.0686 11.3765 10.0629 11.3736C10.008 11.3592 9.95308 11.3418 9.8953 11.3245C9.88953 11.3245 9.88664 11.3216 9.88375 11.3216C9.83175 11.3043 9.77686 11.2869 9.72486 11.2696C9.71908 11.2667 9.71619 11.2667 9.71041 11.2638C9.70464 11.2609 9.70175 11.2609 9.69597 11.258C9.64975 11.2407 9.60064 11.2234 9.55441 11.206C9.5313 11.1974 9.50819 11.1887 9.48508 11.18C9.43886 11.1627 9.39552 11.1454 9.3493 11.1252C9.34641 11.1252 9.34641 11.1223 9.34352 11.1223C9.29152 11.102 9.23952 11.0789 9.19041 11.0558C9.18752 11.0529 9.18463 11.0529 9.18174 11.05C9.1673 11.0443 9.15574 11.0385 9.1413 11.0327C9.09508 11.0125 9.05174 10.9923 9.00841 10.9692C8.99685 10.9634 8.98819 10.9576 8.97663 10.9547C8.92463 10.9287 8.87552 10.9027 8.82641 10.8767C8.82641 10.8767 8.82352 10.8738 8.82063 10.8738C7.5264 10.1603 6.48928 9.03648 5.8855 7.67869C5.8855 7.67291 5.88262 7.66425 5.88262 7.65847C5.88262 7.65269 5.87973 7.64403 5.87973 7.63825C5.87684 7.63247 5.87684 7.62669 5.87395 7.62091C5.87106 7.61514 5.86817 7.60647 5.86528 7.60069C5.55617 6.83513 5.40017 6.02624 5.40017 5.19423C5.40017 3.48689 6.06173 1.88066 7.2664 0.667319C7.35307 0.577763 7.37618 0.444873 7.3184 0.332206C7.31551 0.326428 7.30973 0.317761 7.30685 0.311983C7.30396 0.309094 7.30396 0.306205 7.30107 0.303317C7.30107 0.300428 7.29818 0.300428 7.29818 0.297539C7.29818 0.297539 7.29818 0.297539 7.29818 0.29465C7.29529 0.288872 7.28951 0.283094 7.28662 0.280205L7.28373 0.277316C7.28085 0.274427 7.27796 0.271539 7.27796 0.26865L7.27507 0.265761C7.27218 0.262872 7.26929 0.259983 7.2664 0.257094C7.26351 0.254205 7.26062 0.251316 7.26062 0.251316C7.25196 0.24265 7.2404 0.233983 7.23173 0.225316C7.22596 0.222427 7.22018 0.219538 7.21729 0.216649C7.21151 0.21376 7.20573 0.210872 7.19996 0.207983C7.19418 0.205094 7.19129 0.202205 7.18551 0.202205C7.17684 0.199316 7.16818 0.193538 7.15951 0.190649C7.15373 0.18776 7.14796 0.18776 7.14507 0.184871C7.13929 0.181982 7.13351 0.181982 7.12773 0.179094C7.12484 0.179094 7.12484 0.179094 7.12195 0.179094C7.1104 0.176205 7.09884 0.173316 7.0844 0.173316C7.06418 0.170427 7.04107 0.173316 7.02084 0.176205C6.98907 0.181982 6.95729 0.184871 6.92551 0.190649C6.8764 0.199316 6.83018 0.207983 6.78106 0.216649C6.77818 0.216649 6.77818 0.216649 6.77529 0.216649C6.72329 0.225316 6.67129 0.236872 6.62217 0.248427C6.61929 0.248427 6.6164 0.248427 6.61351 0.251316C6.58751 0.257094 6.55862 0.262872 6.53262 0.26865C6.50662 0.274427 6.47773 0.280205 6.45173 0.285983C6.42573 0.291761 6.39973 0.297539 6.37084 0.306205C6.32462 0.317761 6.27839 0.329317 6.23506 0.340872C6.23217 0.340872 6.23217 0.340872 6.22928 0.340872C6.18595 0.352428 6.14262 0.363984 6.09928 0.378428C6.07617 0.384206 6.05306 0.392873 6.03284 0.39865C6.00973 0.404428 5.98662 0.413095 5.96639 0.418873C5.94328 0.424651 5.92306 0.433317 5.89995 0.439095C5.81039 0.467984 5.72084 0.496873 5.63417 0.53154C5.61106 0.540207 5.59084 0.548874 5.56772 0.554651C5.54461 0.560429 5.52439 0.571985 5.50128 0.580651C5.47817 0.589318 5.45795 0.597985 5.43483 0.606652C5.36839 0.632652 5.30483 0.658652 5.24128 0.687541C5.21528 0.699097 5.19217 0.707763 5.16906 0.719319C5.12861 0.736652 5.08817 0.753986 5.05061 0.774208C5.03039 0.782875 5.00728 0.79443 4.98705 0.803097C4.97261 0.811764 4.95528 0.817542 4.94083 0.826209C4.92061 0.834875 4.8975 0.846431 4.87728 0.857987C4.74439 0.924431 4.61439 0.993765 4.48727 1.06599C4.44683 1.0891 4.40638 1.11221 4.36883 1.13532C4.30816 1.16999 4.24749 1.20754 4.18972 1.2451C4.16949 1.25666 4.14927 1.2711 4.13194 1.28266C4.09149 1.30866 4.05394 1.33466 4.01349 1.36066C3.99327 1.3751 3.97594 1.38666 3.95571 1.4011C3.87771 1.4531 3.8026 1.51088 3.72749 1.56577C3.70727 1.58021 3.68994 1.59466 3.6726 1.6091C3.65816 1.62066 3.64371 1.62932 3.63216 1.64088C3.61771 1.65244 3.60327 1.66399 3.58882 1.67555C3.5686 1.69288 3.54549 1.71021 3.52527 1.72755C3.44438 1.7911 3.36638 1.85755 3.29127 1.92688C3.27682 1.93844 3.26238 1.94999 3.25082 1.96444C3.19882 2.01066 3.14971 2.05688 3.1006 2.1031C3.08038 2.12333 3.06015 2.14066 3.04282 2.16088C3.02549 2.17822 3.00526 2.19555 2.98793 2.21288C2.93593 2.26488 2.88393 2.31688 2.83482 2.36888C2.81749 2.38622 2.80304 2.40355 2.78571 2.42088C2.76837 2.43822 2.75393 2.45555 2.7366 2.47288C2.70482 2.50755 2.67304 2.54222 2.64126 2.57977C2.62682 2.59711 2.60948 2.61444 2.59504 2.63466C1.42503 3.96934 0.789474 5.67668 0.789474 7.44469C0.789474 9.40626 1.55503 11.2523 2.94171 12.6418C4.32838 14.0314 6.17439 14.7912 8.13596 14.7912C9.31463 14.7912 10.4846 14.5052 11.5218 13.965C11.5766 13.9361 11.6315 13.9072 11.6864 13.8754C11.7095 13.8638 11.7326 13.8494 11.7558 13.8378C11.7644 13.835 11.7702 13.8292 11.7789 13.8263C11.7933 13.8176 11.8078 13.809 11.8222 13.8003C11.8453 13.7887 11.8655 13.7743 11.8886 13.7627C11.906 13.7512 11.9262 13.7425 11.9435 13.731C11.9638 13.7194 11.984 13.705 12.0042 13.6934C12.1833 13.5836 12.3567 13.4652 12.5242 13.3381C12.5473 13.3236 12.5675 13.3063 12.5878 13.2889C12.5935 13.2832 12.5993 13.2803 12.6051 13.2745C12.6253 13.2601 12.6455 13.2427 12.6658 13.2283C12.6744 13.2225 12.6802 13.2167 12.6889 13.2109C12.712 13.1936 12.7322 13.1763 12.7524 13.1589C12.7553 13.1561 12.7611 13.1532 12.764 13.1474C12.816 13.1041 12.8709 13.0607 12.9229 13.0145C12.998 12.9509 13.0702 12.8845 13.1424 12.8181C13.1569 12.8036 13.1742 12.7892 13.1887 12.7747C13.2695 12.6967 13.3504 12.6187 13.4255 12.5378C13.44 12.5234 13.4544 12.5089 13.4689 12.4945C13.4747 12.4887 13.4833 12.4801 13.4891 12.4743C13.5267 12.4367 13.5613 12.3963 13.5989 12.3558C13.6191 12.3327 13.6393 12.3096 13.6624 12.2865C13.6827 12.2634 13.7029 12.2403 13.7231 12.2143C13.7433 12.1912 13.7607 12.1681 13.7809 12.1449C13.7838 12.1421 13.7838 12.1392 13.7867 12.1363C13.804 12.1161 13.8213 12.0929 13.8387 12.0727C13.8387 12.0698 13.8415 12.0698 13.8415 12.0669C13.8647 12.0381 13.8907 12.0092 13.9138 11.9774C13.9311 11.9572 13.9455 11.9369 13.96 11.9167C14.0004 11.8647 14.038 11.8127 14.0756 11.7607C14.1478 11.6596 14.1478 11.5238 14.0756 11.4227C14.0784 11.4227 14.0756 11.4198 14.0727 11.414ZM12.8564 12.2952C12.7755 12.3732 12.6947 12.4483 12.6138 12.5205C12.5935 12.5378 12.5733 12.5581 12.5502 12.5754C12.4895 12.6274 12.4289 12.6794 12.3653 12.7285C12.3624 12.7314 12.3624 12.7314 12.3595 12.7343C12.3162 12.7689 12.2729 12.8036 12.2295 12.8354C12.2295 12.8354 12.2295 12.8354 12.2267 12.8354C12.1833 12.8672 12.1371 12.9018 12.0938 12.9336C12.0707 12.9509 12.0475 12.9654 12.0273 12.9827C12.0042 12.9972 11.9811 13.0145 11.9609 13.0289C11.9378 13.0434 11.9146 13.0607 11.8915 13.0752C11.8684 13.0896 11.8453 13.1069 11.8222 13.1214C11.7991 13.1358 11.776 13.1503 11.7529 13.1647C11.7298 13.1792 11.7066 13.1936 11.6835 13.2081C11.6604 13.2225 11.6373 13.2369 11.6142 13.2514C11.4784 13.3323 11.3426 13.4074 11.204 13.4796C11.1838 13.4912 11.1635 13.4998 11.1433 13.5114C11.1404 13.5114 11.1404 13.5143 11.1375 13.5143C11.1173 13.5258 11.0971 13.5345 11.0769 13.5432C11.048 13.5576 11.0162 13.5721 10.9844 13.5865C10.9584 13.5981 10.9324 13.6096 10.9064 13.6212C10.8804 13.6327 10.8544 13.6443 10.8284 13.6558C10.8024 13.6674 10.7764 13.679 10.7504 13.6905C10.6984 13.7136 10.6435 13.7338 10.5915 13.7541C10.5655 13.7656 10.5395 13.7743 10.5106 13.7858C10.4558 13.8061 10.4009 13.8263 10.346 13.8436C10.32 13.8523 10.294 13.861 10.268 13.8696C10.1871 13.8956 10.1033 13.9216 10.0224 13.9476C9.99642 13.9563 9.96753 13.9621 9.93864 13.9707C9.84908 13.9967 9.75664 14.0198 9.66419 14.0401C9.64397 14.0458 9.62375 14.0487 9.60353 14.0545C9.57464 14.0603 9.54864 14.0661 9.51975 14.0718C9.49953 14.0776 9.4793 14.0805 9.45908 14.0834C9.43597 14.0892 9.41286 14.0921 9.38686 14.0978C9.36375 14.1036 9.33775 14.1065 9.31463 14.1123C9.30886 14.1123 9.30308 14.1152 9.2973 14.1152C9.27419 14.1181 9.25397 14.1238 9.23086 14.1267C9.19619 14.1325 9.16152 14.1383 9.12686 14.1441C9.10663 14.147 9.08641 14.1498 9.06619 14.1527C9.04597 14.1556 9.02574 14.1585 9.00552 14.1614C8.98241 14.1643 8.95641 14.1672 8.93041 14.1701C8.92752 14.1701 8.92174 14.1701 8.91885 14.1701C8.89285 14.173 8.86397 14.1758 8.83797 14.1787C8.81774 14.1816 8.79752 14.1845 8.7773 14.1845C8.73396 14.1874 8.69063 14.1932 8.6473 14.1961C8.61841 14.199 8.59241 14.199 8.56352 14.2018C8.54041 14.2047 8.5173 14.2047 8.49419 14.2047C8.4653 14.2076 8.43641 14.2076 8.40752 14.2076C8.37863 14.2076 8.34974 14.2105 8.32085 14.2105C8.29774 14.2105 8.27752 14.2105 8.25441 14.2105C8.21685 14.2105 8.18218 14.2105 8.14463 14.2105C4.4035 14.2134 1.36726 11.1772 1.36726 7.44469C1.36726 7.39847 1.36726 7.35514 1.37014 7.3118C1.37014 7.30025 1.37014 7.29158 1.37014 7.28002C1.37014 7.26558 1.37014 7.24825 1.37014 7.2338C1.37014 7.19336 1.37303 7.15291 1.37592 7.10958C1.37592 7.08647 1.37881 7.06625 1.37881 7.04602C1.37881 7.02291 1.3817 7.00269 1.38459 6.97958C1.38459 6.95647 1.38748 6.93624 1.39037 6.91313C1.39037 6.8958 1.39326 6.87847 1.39614 6.86113C1.40481 6.76291 1.41637 6.6618 1.42792 6.56358C1.43081 6.54913 1.43081 6.5318 1.4337 6.51735C1.45681 6.36424 1.48281 6.21113 1.51459 6.05802C1.52326 6.01757 1.53192 5.97713 1.54059 5.93957C1.54637 5.91068 1.55503 5.88468 1.56081 5.85579C1.56659 5.83268 1.57237 5.81246 1.57815 5.78935C1.58392 5.76624 1.5897 5.74602 1.59548 5.7229C1.60126 5.70268 1.60703 5.67957 1.61281 5.65935C1.6157 5.6449 1.62148 5.63046 1.62437 5.61601C1.63015 5.59868 1.63592 5.57846 1.6417 5.56113C1.64748 5.5409 1.65326 5.52068 1.65904 5.49757C1.66481 5.47735 1.67059 5.45712 1.67926 5.4369C1.73126 5.26935 1.79192 5.10468 1.85837 4.94001C1.87281 4.90245 1.88726 4.86779 1.90459 4.83023C1.92481 4.78112 1.94793 4.73201 1.96815 4.68579C1.97681 4.66845 1.98259 4.65112 1.99126 4.63379C1.99704 4.62223 2.00281 4.60779 2.00859 4.59623C2.01726 4.5789 2.02593 4.55867 2.03459 4.54134C2.05482 4.5009 2.07215 4.46334 2.09237 4.4229C2.10104 4.40556 2.11259 4.38534 2.12126 4.36801C2.13859 4.33623 2.15593 4.30156 2.17326 4.26978C2.18193 4.25245 2.19059 4.23801 2.19926 4.22356C2.21082 4.20045 2.22526 4.17734 2.23971 4.15134C2.24548 4.13978 2.25415 4.12534 2.25993 4.11378C2.30904 4.02712 2.35815 3.94334 2.41015 3.85956C2.42171 3.83934 2.43326 3.822 2.44771 3.80178C2.45926 3.78156 2.47082 3.76423 2.48526 3.744C2.49682 3.72378 2.51126 3.70356 2.52571 3.68623C2.56037 3.63422 2.59793 3.58222 2.6326 3.53022C2.64704 3.51 2.66149 3.48978 2.67882 3.46956C2.69037 3.45222 2.70482 3.432 2.71926 3.41467C2.73371 3.39733 2.74526 3.37711 2.75971 3.35978C2.77126 3.34245 2.78571 3.32511 2.80015 3.30778C2.80015 3.30778 2.80015 3.30489 2.80304 3.30489C2.82037 3.28178 2.83771 3.26156 2.85504 3.23844C2.88682 3.198 2.9186 3.16044 2.95038 3.12289C2.97349 3.09689 2.99371 3.07089 3.01682 3.04489C3.0746 2.97555 3.13527 2.90911 3.19593 2.84266C3.22193 2.81378 3.24793 2.78489 3.27682 2.75889C3.27971 2.75311 3.28549 2.75022 3.28838 2.74444C3.31149 2.71844 3.33749 2.69533 3.3606 2.67222C3.36927 2.66355 3.37505 2.65777 3.38371 2.64911C3.40393 2.62889 3.42705 2.60577 3.44727 2.58555C3.48482 2.548 3.52238 2.51333 3.55993 2.47866C3.58305 2.45844 3.60616 2.43533 3.62638 2.41511C3.63505 2.40933 3.64082 2.40066 3.64949 2.39488C3.6726 2.37466 3.69571 2.35444 3.72171 2.33133C3.73038 2.32266 3.74194 2.314 3.7506 2.30533C3.7766 2.28222 3.8026 2.25911 3.83149 2.23599C3.83438 2.23311 3.83727 2.23022 3.84016 2.22733C3.87194 2.20133 3.90371 2.17533 3.93549 2.14933C3.96438 2.12622 3.99327 2.1031 4.02216 2.07999C4.0626 2.04822 4.10594 2.01644 4.14927 1.98466C4.18105 1.96155 4.20994 1.93844 4.24172 1.91821C4.27349 1.8951 4.30527 1.87488 4.33705 1.85177C4.38616 1.8171 4.43527 1.78533 4.48438 1.75355C4.5075 1.73621 4.5335 1.72177 4.5595 1.70444C4.56239 1.70155 4.56527 1.70155 4.56816 1.69866C4.59416 1.68132 4.62016 1.66688 4.64616 1.65244C4.64905 1.64955 4.65483 1.64666 4.65772 1.64377C4.66927 1.6351 4.68372 1.62932 4.69527 1.62066C4.71839 1.60621 4.7415 1.59466 4.76461 1.58021C4.77616 1.57444 4.78772 1.56577 4.79928 1.55999C4.83105 1.54266 4.85994 1.52532 4.89172 1.50799C4.89172 1.50799 4.89461 1.50799 4.89461 1.5051C4.92928 1.48777 4.96105 1.46755 4.99572 1.45021C5.10261 1.39243 5.21239 1.33754 5.32506 1.28554C5.34239 1.27688 5.36261 1.26821 5.37995 1.25954C5.41461 1.24221 5.44928 1.22777 5.48395 1.21332C5.51572 1.19888 5.55039 1.18443 5.58217 1.16999C5.61972 1.15554 5.65728 1.13821 5.69484 1.12377C5.70639 1.11799 5.72084 1.1151 5.73239 1.10932C5.76128 1.09777 5.79306 1.08621 5.82195 1.07465C5.82773 1.07177 5.83061 1.07177 5.8335 1.06888C5.98084 1.01399 6.12817 0.964876 6.28128 0.921542C5.34528 2.13777 4.83683 3.61978 4.83683 5.17979C4.83683 6.08402 4.99283 6.9738 5.32795 7.80581C5.32795 7.80581 5.32794 7.80869 5.33083 7.80869C5.33083 7.80869 5.33083 7.81158 5.33372 7.81158C5.63706 8.51648 6.05017 9.17515 6.57017 9.76448C6.57306 9.77026 6.57595 9.77604 6.57884 9.78182C6.58173 9.78759 6.58751 9.79626 6.5904 9.80204C6.59906 9.81359 6.60773 9.82515 6.6164 9.83671C6.64817 9.87137 6.67706 9.90604 6.70884 9.93782C6.74062 9.97248 6.7724 10.0043 6.80418 10.036L6.80706 10.0389C6.83595 10.0678 6.86484 10.0967 6.89373 10.1256L6.90529 10.1372C6.93707 10.166 6.96595 10.1978 6.99773 10.2267C7.02951 10.2585 7.06418 10.2903 7.09596 10.3192C7.1624 10.3798 7.23173 10.4405 7.29818 10.4983C7.33285 10.5272 7.36751 10.556 7.40218 10.5849C7.43685 10.6138 7.47151 10.6427 7.50618 10.6687C7.54085 10.6976 7.5784 10.7236 7.61307 10.7525C7.64774 10.7785 7.68529 10.8074 7.72285 10.8334C7.7604 10.8594 7.79507 10.8854 7.83263 10.9114C7.87018 10.9374 7.90774 10.9634 7.94529 10.9865C7.98285 11.0125 8.0204 11.0356 8.05796 11.0616C8.13307 11.1107 8.20818 11.154 8.2833 11.2003C8.28618 11.2032 8.28907 11.2032 8.29196 11.206C8.32374 11.2234 8.35552 11.2436 8.3873 11.2609C8.41907 11.2783 8.45374 11.2985 8.48552 11.3158H8.48841C8.52019 11.3332 8.55196 11.3505 8.58374 11.3678C8.59241 11.3707 8.59819 11.3765 8.60685 11.3794C8.63285 11.3938 8.66174 11.4083 8.69063 11.4227C8.69352 11.4256 8.69641 11.4256 8.6993 11.4285C8.73396 11.4458 8.76574 11.4632 8.80041 11.4776C8.86974 11.5123 8.93908 11.544 9.0113 11.5758C9.04597 11.5903 9.08352 11.6076 9.11819 11.622C9.15285 11.6365 9.19041 11.6509 9.22508 11.6654C9.29441 11.6943 9.36375 11.7203 9.43308 11.7463C9.47641 11.7607 9.51975 11.7781 9.56308 11.7925C9.59486 11.8041 9.62664 11.8156 9.65841 11.8243H9.6613C9.69597 11.8358 9.73353 11.8474 9.76819 11.8589C9.79708 11.8676 9.82597 11.8763 9.85486 11.8849C9.87508 11.8907 9.8953 11.8965 9.91264 11.9023C9.9213 11.9052 9.92708 11.9081 9.93575 11.9081C9.96175 11.9167 9.98775 11.9225 10.0109 11.9283C10.0686 11.9456 10.1293 11.9601 10.19 11.9745C10.2189 11.9832 10.2478 11.9889 10.2766 11.9947H10.2795C10.3055 12.0005 10.3315 12.0063 10.3575 12.0121C10.4326 12.0294 10.5078 12.0438 10.5829 12.0554C10.6118 12.0612 10.6406 12.0669 10.6724 12.0698C10.7042 12.0756 10.736 12.0814 10.7678 12.0843C10.7822 12.0872 10.7995 12.0901 10.814 12.0929C10.8429 12.0987 10.8746 12.1016 10.9035 12.1045C10.9411 12.1103 10.9815 12.1132 11.0191 12.1189C11.0566 12.1247 11.0942 12.1276 11.1318 12.1305C11.1346 12.1305 11.1346 12.1305 11.1375 12.1305C11.1722 12.1334 11.2069 12.1363 11.2415 12.1392C11.2473 12.1392 11.2502 12.1392 11.256 12.1392C11.2849 12.1421 11.3109 12.1449 11.3398 12.1449C11.3571 12.1449 11.3715 12.1478 11.3889 12.1478C11.4206 12.1507 11.4524 12.1507 11.4842 12.1536C11.5218 12.1565 11.5564 12.1565 11.594 12.1594C11.62 12.1594 11.646 12.1623 11.672 12.1623C11.6951 12.1623 11.7153 12.1623 11.7355 12.1623C11.7702 12.1623 11.802 12.1623 11.8366 12.1623C12.2555 12.1623 12.6715 12.1247 13.0818 12.0525C13.0558 12.0785 13.0298 12.1045 13.0038 12.1334C12.9807 12.1565 12.9575 12.1825 12.9315 12.2056C12.8969 12.2547 12.8767 12.2749 12.8564 12.2952Z" stroke="#E5007C" stroke-width="0.2" mask="url(#path-2-outside-1)"/>
</svg>
