<svg xmlns="http://www.w3.org/2000/svg" preserveAspectRatio="xMinYMin meet" viewBox="0 0 100 60"><g fill="#E5007C"><path d="M49.324 17.22a1 1 0 01.523-1.93L86.89 25.322a3 3 0 01.596 5.567L65.644 42.103a11.001 11.001 0 01-7.985.807L13.238 30.42a3 3 0 01-.593-5.542l3.447-1.819a1 1 0 11.934 1.77l-3.447 1.818a1 1 0 00.199 1.848l44.42 12.49a9 9 0 006.532-.662l21.844-11.212a1 1 0 00-.202-1.857z"/><path d="M38.576 12.28a9 9 0 00-6.33.744l-14.144 7.344a1 1 0 00.185 1.85l8.16 2.336a9 9 0 006.514-.608l14.976-7.514a1 1 0 00-.206-1.863zm.485-1.94l9.155 2.288a3 3 0 01.618 5.592l-14.976 7.513a11 11 0 01-7.96.744l-8.161-2.337a3 3 0 01-.557-5.547l14.145-7.344a11 11 0 017.736-.909z"/><path d="M48.55 15.52a1 1 0 111.986-.23c.373 3.224-.101 5.318-1.694 6.17-2.61 1.395-12.836 6.664-14.871 7.626-2.435 1.233-5.492 1.38-8.327.524l-7.686-2.365c-1.284-.387-2.369-1.672-2.369-2.987v-2.652a1 1 0 112 0v2.652c0 .378.464.927.952 1.074l7.686 2.365c2.362.713 4.892.591 6.865-.407 2.022-.957 12.224-6.213 14.807-7.594.63-.337.938-1.692.65-4.177z"/><path d="M87.087 28a1 1 0 012 0v7.244a2.992 2.992 0 01-1.629 2.668L66.026 49.264a10.99 10.99 0 01-8.134.721L13.136 37.256a3 3 0 01-2.132-2.871v-6.806a1 1 0 112 0v6.806c0 .44.289.83.695.952l44.756 12.73a8.99 8.99 0 006.652-.578l21.431-11.352a1 1 0 00.549-.893z"/><path d="M59.925 18.338a1 1 0 11.926 1.773L33.263 34.515a1 1 0 00-.537.887v5.703a1 1 0 11-2 0v-5.703a3 3 0 011.612-2.66z"/></g></svg>