<svg width="15" height="15" viewBox="0 0 15 15" fill="none" xmlns="http://www.w3.org/2000/svg">
<path fill-rule="evenodd" clip-rule="evenodd" d="M7.76423 0.163182C7.73587 0.10555 7.68906 0.0586146 7.63143 0.0302558C7.48704 -0.0410256 7.30914 0.0176773 7.23556 0.163963L5.07835 4.53731L0.251081 5.23887C0.187725 5.24792 0.129002 5.27779 0.0832986 5.32426C0.0289375 5.38035 -0.00100866 5.45568 2.59434e-05 5.53379C0.00106296 5.61209 0.0331405 5.68677 0.08921 5.74142L3.58129 9.14605L2.75627 13.9535C2.74692 14.0076 2.75284 14.0636 2.77347 14.1144C2.79411 14.1653 2.82858 14.2093 2.87297 14.2415C2.91735 14.2738 2.96989 14.2929 3.02461 14.2968C3.07933 14.3007 3.13405 14.2892 3.18256 14.2636L7.50009 11.9936L11.8185 14.2641C11.8735 14.2934 11.9395 14.3039 12.0033 14.2928C12.164 14.2651 12.2714 14.113 12.2439 13.9538L11.4189 9.14605L14.9104 5.74197C14.9569 5.69625 14.9871 5.63722 14.9962 5.57382L14.9966 5.57056C15.0209 5.41337 14.9116 5.26319 14.7478 5.23868L9.92183 4.53731L7.76423 0.163182ZM10.629 8.88783L11.3682 13.1939L7.50015 11.1626L3.63196 13.196L4.37119 8.8896L1.24249 5.83871L5.56697 5.2101L7.50009 1.29268L9.4332 5.2101L13.7579 5.83875L10.629 8.88783Z" fill="#DADADA"/>
<path d="M11.3682 13.1939L10.629 8.88783L13.7579 5.83875L9.4332 5.2101L7.50009 1.29268L5.56697 5.2101L1.24249 5.83871L4.37119 8.8896L3.63196 13.196L7.50015 11.1626L11.3682 13.1939Z" fill="#DADADA"/>
</svg>
