<svg xmlns="http://www.w3.org/2000/svg" preserveAspectRatio="xMinYMin meet" viewBox="0 0 100 60"><g fill="#E5007C"><path d="M38.405 11.042l-20.443 10.07a7 7 0 00-3.906 6.244l-.011 2.108a7 7 0 005.111 6.776l33.86 9.486a9 9 0 006.326-.555l24.14-11.604a2.033 2.033 0 00-.06-3.692l-1.556-.688 1.358-1.025a4.464 4.464 0 00-1.54-7.876L44.701 10.42a9 9 0 00-6.297.622zm47.886 22.322a4.033 4.033 0 01-1.942 2.006l-24.14 11.604a11 11 0 01-7.733.678l-33.86-9.486a9 9 0 01-6.571-8.712l.01-2.108a9 9 0 015.024-8.029l20.443-10.07a11 11 0 017.696-.76l36.981 9.867a6.464 6.464 0 013.213 10.486 4.035 4.035 0 01.88 4.524z"/><path d="M83.423 35.875a1 1 0 01.807-1.83 4.033 4.033 0 01.119 7.325l-24.14 11.604a11.004 11.004 0 01-7.74.676c-23.242-6.68-35.792-10.323-37.734-10.957-1.946-.635-2.835-2.879-2.135-4.785.78-2.122 3.093-2.941 5.995-1.843a1 1 0 01-.708 1.87c-1.928-.73-3.044-.334-3.41.662-.33.901.079 1.934.878 2.194 1.906.623 14.49 4.276 37.66 10.935a9 9 0 006.327-.555l24.14-11.604a2.033 2.033 0 00-.06-3.692z"/><path d="M83.19 28.098a1 1 0 11.862 1.804l-23.65 11.293c-2.433 1.068-4.626.182-5.08-1.928-.425-1.98.914-4.104 3.389-5.148l20.67-10.052a1 1 0 11.874 1.8L59.537 35.938c-1.695.716-2.467 1.941-2.259 2.908.168.781.975 1.107 2.292.53l23.62-11.28z"/></g></svg>