<svg width="21" height="24" viewBox="0 0 21 24" fill="none" xmlns="http://www.w3.org/2000/svg">
<g opacity="0.3" clip-path="url(#clip0)">
<path d="M15.8786 10.5C16.2929 10.625 16.6873 10.7946 17.0619 11.0089C17.4365 11.2232 17.8287 11.5491 18.2386 11.9866C18.6484 12.4241 18.9988 12.9397 19.2897 13.5335C19.5805 14.1272 19.8229 14.8951 20.0168 15.8371C20.2107 16.779 20.3077 17.8348 20.3077 19.0045C20.3077 20.3795 19.867 21.5558 18.9856 22.5335C18.1042 23.5112 17.0421 24 15.7993 24H4.50841C3.26562 24 2.20353 23.5112 1.32212 22.5335C0.440705 21.5558 0 20.3795 0 19.0045C0 17.8348 0.0969551 16.779 0.290865 15.8371C0.484776 14.8951 0.727163 14.1272 1.01803 13.5335C1.30889 12.9397 1.65925 12.4241 2.06911 11.9866C2.47897 11.5491 2.87119 11.2232 3.24579 11.0089C3.62039 10.7946 4.01482 10.625 4.42909 10.5C3.73277 9.38393 3.38462 8.16964 3.38462 6.85714C3.38462 5.92857 3.5631 5.04241 3.92007 4.19866C4.27704 3.35491 4.75961 2.625 5.36779 2.00893C5.97596 1.39286 6.69651 0.904018 7.52945 0.542411C8.36238 0.180804 9.23718 0 10.1538 0C11.0705 0 11.9453 0.180804 12.7782 0.542411C13.6112 0.904018 14.3317 1.39286 14.9399 2.00893C15.5481 2.625 16.0306 3.35491 16.3876 4.19866C16.7446 5.04241 16.9231 5.92857 16.9231 6.85714C16.9231 8.16964 16.5749 9.38393 15.8786 10.5ZM10.1538 1.71429C8.7524 1.71429 7.55589 2.21652 6.5643 3.22098C5.57272 4.22545 5.07692 5.4375 5.07692 6.85714C5.07692 8.27679 5.57272 9.48884 6.5643 10.4933C7.55589 11.4978 8.7524 12 10.1538 12C11.5553 12 12.7518 11.4978 13.7434 10.4933C14.735 9.48884 15.2308 8.27679 15.2308 6.85714C15.2308 5.4375 14.735 4.22545 13.7434 3.22098C12.7518 2.21652 11.5553 1.71429 10.1538 1.71429ZM15.7993 22.2857C16.5749 22.2857 17.2382 21.9665 17.7891 21.3281C18.3399 20.6897 18.6154 19.9152 18.6154 19.0045C18.6154 16.8705 18.2694 15.1875 17.5775 13.9554C16.8856 12.7232 15.8918 12.0759 14.5962 12.0134C13.3181 13.1473 11.8373 13.7143 10.1538 13.7143C8.47035 13.7143 6.98958 13.1473 5.71154 12.0134C4.41586 12.0759 3.42208 12.7232 2.73017 13.9554C2.03826 15.1875 1.69231 16.8705 1.69231 19.0045C1.69231 19.9152 1.96775 20.6897 2.51863 21.3281C3.06951 21.9665 3.73277 22.2857 4.50841 22.2857H15.7993Z" fill="#3D3D3D"/>
</g>
<defs>
<clipPath id="clip0">
<rect width="20.3077" height="24" fill="white"/>
</clipPath>
</defs>
</svg>
