<svg width="20" height="20" viewBox="0 0 20 20" fill="none" xmlns="http://www.w3.org/2000/svg">
<path d="M19.5792 5.17082C19.4633 4.75562 19.2423 4.37733 18.9375 4.07253C18.6327 3.76772 18.2544 3.54669 17.8392 3.43082C16.2808 3.01332 10.0092 3.01332 10.0092 3.01332C10.0092 3.01332 3.75334 3.00498 2.17918 3.43082C1.76398 3.54669 1.38569 3.76772 1.08089 4.07253C0.776077 4.37733 0.555053 4.75562 0.439178 5.17082C0.143778 6.76624 -0.00185508 8.38579 0.0041778 10.0083C-0.000714594 11.6247 0.144914 13.2381 0.439178 14.8275C0.555053 15.2427 0.776077 15.621 1.08089 15.9258C1.38569 16.2306 1.76398 16.4516 2.17918 16.5675C3.73584 16.9858 10.0092 16.9858 10.0092 16.9858C10.0092 16.9858 16.2642 16.9858 17.8392 16.5675C18.2544 16.4516 18.6327 16.2306 18.9375 15.9258C19.2423 15.621 19.4633 15.2427 19.5792 14.8275C19.8673 13.2375 20.0068 11.6242 19.9958 10.0083C20.0079 8.38636 19.8684 6.76682 19.5792 5.17082ZM8.00751 13.0008V7.00665L13.2275 10.0083L8.00751 13.0008Z" fill="white"/>
</svg>
