<svg width="418" height="199" fill="none" xmlns="http://www.w3.org/2000/svg"><rect x=".643" y=".804" width="413" height="190" rx="5" fill="#DAF3ED"/><mask id="a" maskUnits="userSpaceOnUse" x="0" y="0" width="414" height="191"><rect x=".643" y=".804" width="413" height="190" rx="5" fill="#FDF6E6"/></mask><g mask="url(#a)"><circle cx="352.643" cy="138.758" r="94" fill="#fff" fill-opacity=".4"/></g><path d="M41.04 99.51c.153 0 .269.049.349.145a.487.487 0 01.132.36v7.572a.529.529 0 01-.132.372c-.08.088-.196.132-.348.132a.486.486 0 01-.36-.132.529.529 0 01-.132-.372v-3.432h-5.064v3.432a.529.529 0 01-.132.372.486.486 0 01-.36.132.486.486 0 01-.36-.132.562.562 0 01-.12-.372v-7.572c0-.152.04-.272.12-.36a.464.464 0 01.36-.144c.152 0 .272.048.36.144a.487.487 0 01.132.36v3.3h5.064v-3.3c0-.152.044-.272.132-.36a.464.464 0 01.36-.144zm4.81 2.533c1.465 0 2.197.768 2.197 2.304v3.264a.47.47 0 01-.133.348.431.431 0 01-.336.132.47.47 0 01-.348-.132.47.47 0 01-.131-.348v-.576a1.751 1.751 0 01-.696.804 2.086 2.086 0 01-1.08.276c-.377 0-.724-.076-1.044-.228a1.864 1.864 0 01-.745-.636 1.572 1.572 0 01-.276-.9c0-.44.112-.78.336-1.02.224-.248.593-.424 1.105-.528.512-.112 1.224-.168 2.136-.168h.264v-.396c0-.48-.1-.832-.3-1.056-.193-.224-.508-.336-.949-.336-.544 0-1.096.148-1.656.444-.216.136-.367.204-.456.204a.308.308 0 01-.24-.108.4.4 0 01-.095-.276c0-.112.032-.208.096-.288a1.22 1.22 0 01.335-.264c.28-.16.596-.284.948-.372a4.14 4.14 0 011.069-.144zm-.395 5.304c.48 0 .872-.16 1.175-.48.313-.328.468-.748.468-1.26v-.348h-.215c-.705 0-1.24.032-1.608.096-.368.056-.633.156-.792.3-.152.136-.228.34-.228.612 0 .312.111.572.335.78.232.2.52.3.864.3zm7.095-2.484c.288.08.52.212.696.396.176.184.384.48.624.888l.756 1.236c.048.08.072.164.072.252a.423.423 0 01-.144.324.482.482 0 01-.756-.12l-.912-1.536c-.208-.344-.404-.576-.588-.696-.184-.12-.448-.18-.792-.18h-.672v2.184a.486.486 0 01-.132.36.515.515 0 01-.36.12.497.497 0 01-.348-.12.486.486 0 01-.132-.36v-5.064a.47.47 0 01.132-.348.47.47 0 01.348-.132c.152 0 .272.044.36.132a.47.47 0 01.132.348v2.124h.816l1.992-2.4c.112-.136.236-.204.372-.204.112 0 .208.04.288.12.088.08.132.18.132.3a.53.53 0 01-.132.324l-1.752 2.052zm5.758-2.82c1.464 0 2.196.768 2.196 2.304v3.264a.47.47 0 01-.133.348.431.431 0 01-.336.132.47.47 0 01-.347-.132.47.47 0 01-.133-.348v-.576a1.751 1.751 0 01-.696.804 2.086 2.086 0 01-1.08.276c-.376 0-.724-.076-1.044-.228a1.864 1.864 0 01-.743-.636 1.572 1.572 0 01-.276-.9c0-.44.111-.78.335-1.02.224-.248.593-.424 1.105-.528.511-.112 1.224-.168 2.136-.168h.264v-.396c0-.48-.1-.832-.3-1.056-.193-.224-.508-.336-.949-.336-.544 0-1.096.148-1.656.444-.216.136-.368.204-.456.204a.308.308 0 01-.24-.108.4.4 0 01-.096-.276c0-.112.032-.208.096-.288.073-.088.184-.176.337-.264.28-.16.596-.284.947-.372a4.14 4.14 0 011.069-.144zm-.397 5.304c.48 0 .872-.16 1.176-.48.313-.328.468-.748.468-1.26v-.348h-.215c-.705 0-1.24.032-1.609.096-.367.056-.632.156-.791.3-.152.136-.228.34-.228.612 0 .312.111.572.335.78.233.2.52.3.864.3zm4.84.744a.515.515 0 01-.36-.12.47.47 0 01-.132-.348v-4.932c0-.16.044-.284.132-.372a.486.486 0 01.36-.132h4.02c.152 0 .272.044.36.132a.464.464 0 01.144.36v4.944a.47.47 0 01-.132.348.497.497 0 01-.348.12.515.515 0 01-.36-.12.47.47 0 01-.132-.348v-4.668H63.23v4.668a.47.47 0 01-.132.348.497.497 0 01-.348.12zm7.913-4.44c0 1.256-.132 2.224-.396 2.904-.256.68-.68 1.184-1.272 1.512a.517.517 0 01-.204.036.432.432 0 01-.3-.108.374.374 0 01-.108-.276c0-.08.02-.156.06-.228.04-.072.1-.128.18-.168.288-.168.512-.392.672-.672.168-.28.284-.652.348-1.116.072-.472.108-1.096.108-1.872v-.972c0-.16.044-.284.132-.372a.486.486 0 01.36-.132h3.18c.152 0 .272.044.36.132a.464.464 0 01.144.36v4.944a.436.436 0 01-.144.336.47.47 0 01-.348.132.47.47 0 01-.348-.132.455.455 0 01-.132-.336v-4.668h-2.292v.696zm9.093-1.272a.783.783 0 01.252-.24.642.642 0 01.312-.072c.152 0 .272.048.36.144a.488.488 0 01.144.36v5.052a.455.455 0 01-.132.336.455.455 0 01-.336.132.482.482 0 01-.336-.132.482.482 0 01-.132-.336v-4.188l-3.156 4.368a.632.632 0 01-.54.288.529.529 0 01-.372-.132.488.488 0 01-.144-.36v-5.052a.474.474 0 01.48-.48c.136 0 .248.048.336.144.088.088.132.2.132.336v4.128l3.132-4.296zm3.338 5.652a.529.529 0 01-.372-.132.47.47 0 01-.132-.348v-4.86c0-.152.044-.272.132-.36a.464.464 0 01.36-.144h2.076c.64 0 1.136.124 1.488.372.352.248.528.62.528 1.116 0 .288-.084.556-.252.804-.168.248-.424.432-.768.552.36.064.644.216.852.456.216.24.324.544.324.912 0 .272-.076.532-.228.78-.144.248-.376.452-.696.612-.32.16-.72.24-1.2.24h-2.112zm1.992-3.324c.336 0 .608-.084.816-.252a.88.88 0 00.312-.708c0-.56-.388-.84-1.164-.84h-1.488v1.8h1.524zm.024 2.604c.824 0 1.236-.316 1.236-.948 0-.32-.12-.56-.36-.72-.24-.16-.568-.24-.984-.24h-1.44v1.908h1.548zm6.032-5.268c1.465 0 2.197.768 2.197 2.304v3.264a.47.47 0 01-.133.348.431.431 0 01-.335.132.47.47 0 01-.349-.132.47.47 0 01-.132-.348v-.576a1.751 1.751 0 01-.696.804 2.086 2.086 0 01-1.08.276c-.375 0-.724-.076-1.043-.228a1.864 1.864 0 01-.745-.636 1.572 1.572 0 01-.275-.9c0-.44.111-.78.335-1.02.225-.248.593-.424 1.105-.528.511-.112 1.224-.168 2.135-.168h.264v-.396c0-.48-.1-.832-.3-1.056-.191-.224-.507-.336-.947-.336-.544 0-1.097.148-1.657.444-.215.136-.367.204-.456.204a.308.308 0 01-.24-.108.4.4 0 01-.096-.276c0-.112.033-.208.097-.288a1.22 1.22 0 01.335-.264c.28-.16.597-.284.949-.372.36-.096.716-.144 1.068-.144zm-.395 5.304c.48 0 .871-.16 1.175-.48.313-.328.468-.748.468-1.26v-.348h-.216c-.703 0-1.24.032-1.608.096-.367.056-.631.156-.791.3-.152.136-.228.34-.228.612 0 .312.111.572.335.78.233.2.52.3.865.3zm8.427-4.968a.783.783 0 01.252-.24.642.642 0 01.312-.072c.152 0 .272.048.36.144a.488.488 0 01.144.36v5.052a.455.455 0 01-.132.336.456.456 0 01-.336.132.482.482 0 01-.336-.132.482.482 0 01-.132-.336v-4.188l-3.156 4.368a.632.632 0 01-.54.288.529.529 0 01-.372-.132.488.488 0 01-.144-.36v-5.052a.474.474 0 01.48-.48c.136 0 .248.048.336.144.088.088.132.2.132.336v4.128l3.132-4.296zm-1.488-1.356c-.448 0-.836-.104-1.164-.312a1.865 1.865 0 01-.732-.9.592.592 0 01-.036-.18.34.34 0 01.096-.252.367.367 0 01.252-.096c.16 0 .28.08.36.24.264.544.672.816 1.224.816.264 0 .496-.068.696-.204.208-.144.38-.348.516-.612.088-.16.208-.24.36-.24.096 0 .176.032.24.096a.321.321 0 01.108.252.514.514 0 01-.036.18 1.85 1.85 0 01-.732.9 2.105 2.105 0 01-1.152.312zm6.134 7.068a.497.497 0 01-.348-.12.47.47 0 01-.132-.348v-4.668h-1.716a.39.39 0 01-.288-.108.374.374 0 01-.108-.276c0-.112.036-.204.108-.276a.39.39 0 01.288-.108h4.392a.39.39 0 01.288.108.374.374 0 01.108.276.374.374 0 01-.108.276.39.39 0 01-.288.108h-1.704v4.668a.45.45 0 01-.144.348.497.497 0 01-.348.12zm8.08-1.416c.088 0 .164.036.228.108a.4.4 0 01.096.276c0 .2-.14.384-.42.552a3.805 3.805 0 01-.912.384c-.32.08-.632.12-.936.12-.904 0-1.62-.268-2.148-.804-.52-.536-.78-1.276-.78-2.22 0-.6.116-1.128.348-1.584.232-.464.556-.824.972-1.08a2.731 2.731 0 011.44-.384c.76 0 1.364.248 1.812.744.448.496.672 1.168.672 2.016 0 .16-.032.276-.096.348-.064.072-.168.108-.312.108h-3.864c.072 1.376.724 2.064 1.956 2.064.312 0 .58-.04.804-.12.224-.088.464-.204.72-.348.208-.12.348-.18.42-.18zm-2.1-3.876c-.512 0-.924.16-1.236.48-.304.32-.484.772-.54 1.356h3.396c-.016-.592-.164-1.044-.444-1.356-.28-.32-.672-.48-1.176-.48zm9.589 5.316c-.648 0-1.184-.164-1.608-.492a2.841 2.841 0 01-.912-1.26 5 5 0 01-.276-1.68c0-.944.08-1.712.24-2.304.168-.592.404-1.052.708-1.38a3.58 3.58 0 011.176-.816c.256-.12.644-.256 1.164-.408.56-.168 1.012-.328 1.356-.48a.555.555 0 01.228-.048c.12 0 .216.04.288.12a.36.36 0 01.108.264c0 .08-.024.16-.072.24a.544.544 0 01-.216.18 3.566 3.566 0 01-.636.288c-.224.08-.512.172-.864.276-.552.176-.88.284-.984.324-.52.184-.92.488-1.2.912-.28.416-.428 1.004-.444 1.764.176-.416.452-.76.828-1.032.384-.28.852-.42 1.404-.42.736 0 1.336.248 1.8.744.472.496.708 1.232.708 2.208 0 .544-.112 1.044-.336 1.5a2.59 2.59 0 01-.96 1.092c-.424.272-.924.408-1.5.408zm0-.804c.624 0 1.08-.22 1.368-.66.288-.448.432-.956.432-1.524 0-.672-.148-1.196-.444-1.572-.296-.384-.712-.576-1.248-.576-.416 0-.768.108-1.056.324-.28.208-.488.48-.624.816a2.638 2.638 0 00-.204 1.02c0 .608.14 1.124.42 1.548.28.416.732.624 1.356.624zm6.664.804c-.552 0-1.04-.124-1.464-.372-.416-.248-.74-.6-.972-1.056-.224-.464-.336-1-.336-1.608 0-.608.112-1.14.336-1.596.232-.464.556-.82.972-1.068.424-.248.912-.372 1.464-.372.552 0 1.04.124 1.464.372.424.248.748.604.972 1.068.232.456.348.988.348 1.596 0 .608-.116 1.144-.348 1.608a2.438 2.438 0 01-.972 1.056c-.424.248-.912.372-1.464.372zm0-.804c.576 0 1.016-.188 1.32-.564.312-.384.468-.94.468-1.668 0-.712-.156-1.26-.468-1.644-.312-.392-.752-.588-1.32-.588-.568 0-1.008.196-1.32.588-.312.384-.468.932-.468 1.644 0 .72.152 1.272.456 1.656.312.384.756.576 1.332.576zm4.701.78a.515.515 0 01-.36-.12.47.47 0 01-.132-.348v-5.076a.47.47 0 01.132-.348.486.486 0 01.36-.132.47.47 0 01.348.132.47.47 0 01.132.348v2.088h3.144v-2.088a.47.47 0 01.132-.348.513.513 0 01.36-.132.47.47 0 01.348.132.47.47 0 01.132.348l.012 5.052a.486.486 0 01-.132.36.486.486 0 01-.36.132.513.513 0 01-.36-.132.486.486 0 01-.132-.36v-2.184h-3.144v2.208a.47.47 0 01-.132.348.497.497 0 01-.348.12zm10.599-5.724c.088-.192.228-.288.42-.288.12 0 .228.04.324.12.096.08.144.18.144.3a.38.38 0 01-.048.192l-3.372 7.272a.448.448 0 01-.18.204.404.404 0 01-.228.072.493.493 0 01-.324-.12.353.353 0 01-.132-.288c0-.064.016-.128.048-.192l.84-1.812-2.376-5.136a.357.357 0 01-.048-.18c0-.12.052-.224.156-.312a.572.572 0 01.36-.132c.08 0 .156.024.228.072.08.048.14.116.18.204l2.004 4.5 2.004-4.476zm4.294 5.748a2.822 2.822 0 01-1.452-.372c-.416-.248-.74-.6-.972-1.056-.224-.456-.336-.984-.336-1.584 0-.6.116-1.132.348-1.596.24-.464.572-.824.996-1.08.424-.256.912-.384 1.464-.384.304 0 .604.044.9.132.304.08.568.2.792.36a.945.945 0 01.3.288.497.497 0 01.096.3.4.4 0 01-.096.276.273.273 0 01-.228.108.405.405 0 01-.18-.048 1.57 1.57 0 01-.168-.096 3.72 3.72 0 00-.684-.384 1.717 1.717 0 00-.684-.12c-.584 0-1.04.2-1.368.6-.32.392-.48.94-.48 1.644s.16 1.248.48 1.632c.328.384.784.576 1.368.576.272 0 .504-.04.696-.12.2-.08.4-.188.6-.324.088-.056.172-.104.252-.144.08-.04.148-.06.204-.06.088 0 .16.036.216.108a.4.4 0 01.096.276c0 .104-.028.2-.084.288-.056.08-.16.172-.312.276a2.962 2.962 0 01-.816.372 3.476 3.476 0 01-.948.132zm3.81-.084a.529.529 0 01-.372-.132.47.47 0 01-.132-.348v-5.004a.47.47 0 01.132-.348.486.486 0 01.36-.132.47.47 0 01.348.132.47.47 0 01.132.348v1.728h.888c1.488 0 2.232.608 2.232 1.824 0 .432-.108.796-.324 1.092-.216.288-.5.5-.852.636a2.943 2.943 0 01-1.092.204h-1.32zm5.004.06a.497.497 0 01-.348-.12.47.47 0 01-.132-.348v-5.076a.47.47 0 01.132-.348.47.47 0 01.348-.132c.152 0 .272.044.36.132a.47.47 0 01.132.348v5.076a.47.47 0 01-.132.348.515.515 0 01-.36.12zm-3.84-.792c.384 0 .72-.092 1.008-.276.296-.184.444-.488.444-.912 0-.432-.132-.724-.396-.876-.256-.152-.608-.228-1.056-.228h-.708v2.292h.708zm11.62.816a2.822 2.822 0 01-1.452-.372c-.416-.248-.74-.6-.972-1.056-.224-.456-.336-.984-.336-1.584 0-.6.116-1.132.348-1.596.24-.464.572-.824.996-1.08.424-.256.912-.384 1.464-.384.304 0 .604.044.9.132.304.08.568.2.792.36a.945.945 0 01.3.288.497.497 0 01.096.3.4.4 0 01-.096.276.273.273 0 01-.228.108.405.405 0 01-.18-.048 1.57 1.57 0 01-.168-.096 3.72 3.72 0 00-.684-.384 1.717 1.717 0 00-.684-.12c-.584 0-1.04.2-1.368.6-.32.392-.48.94-.48 1.644s.16 1.248.48 1.632c.328.384.784.576 1.368.576.272 0 .504-.04.696-.12.2-.08.4-.188.6-.324.088-.056.172-.104.252-.144.08-.04.148-.06.204-.06.088 0 .16.036.216.108a.4.4 0 01.096.276c0 .104-.028.2-.084.288-.056.08-.16.172-.312.276a2.962 2.962 0 01-.816.372 3.476 3.476 0 01-.948.132zm9.148-3.252c.288.08.52.212.696.396.176.184.384.48.624.888l.756 1.236c.048.08.072.164.072.252a.423.423 0 01-.144.324.482.482 0 01-.756-.12l-.912-1.536c-.208-.344-.404-.576-.588-.696-.184-.12-.448-.18-.792-.18h-.672v2.184a.486.486 0 01-.132.36.515.515 0 01-.36.12.497.497 0 01-.348-.12.486.486 0 01-.132-.36v-5.064a.47.47 0 01.132-.348.47.47 0 01.348-.132c.152 0 .272.044.36.132a.47.47 0 01.132.348v2.124h.816l1.992-2.4c.112-.136.236-.204.372-.204.112 0 .208.04.288.12.088.08.132.18.132.3a.53.53 0 01-.132.324l-1.752 2.052zm5.757-2.82c1.464 0 2.196.768 2.196 2.304v3.264a.47.47 0 01-.132.348.431.431 0 01-.336.132.47.47 0 01-.348-.132.47.47 0 01-.132-.348v-.576a1.751 1.751 0 01-.696.804 2.086 2.086 0 01-1.08.276c-.376 0-.724-.076-1.044-.228a1.864 1.864 0 01-.744-.636 1.572 1.572 0 01-.276-.9c0-.44.112-.78.336-1.02.224-.248.592-.424 1.104-.528.512-.112 1.224-.168 2.136-.168h.264v-.396c0-.48-.1-.832-.3-1.056-.192-.224-.508-.336-.948-.336-.544 0-1.096.148-1.656.444-.216.136-.368.204-.456.204a.308.308 0 01-.24-.108.4.4 0 01-.096-.276c0-.112.032-.208.096-.288.072-.088.184-.176.336-.264.28-.16.596-.284.948-.372.36-.096.716-.144 1.068-.144zm-.396 5.304c.48 0 .872-.16 1.176-.48.312-.328.468-.748.468-1.26v-.348h-.216c-.704 0-1.24.032-1.608.096-.368.056-.632.156-.792.3-.152.136-.228.34-.228.612 0 .312.112.572.336.78.232.2.52.3.864.3zm7.624.744a.497.497 0 01-.348-.132.47.47 0 01-.132-.348v-2.232h-.48c-.344 0-.62.08-.828.24-.2.16-.376.408-.528.744l-.648 1.428c-.088.2-.232.3-.432.3a.525.525 0 01-.348-.132.423.423 0 01-.144-.324c0-.04.016-.108.048-.204l.564-1.224c.192-.4.384-.704.576-.912.192-.208.44-.348.744-.42l-1.488-2.088a.545.545 0 01-.096-.276c0-.12.044-.22.132-.3a.467.467 0 01.324-.132c.16 0 .288.076.384.228l1.632 2.388h.588v-2.136a.47.47 0 01.48-.492.47.47 0 01.348.132.486.486 0 01.132.36v2.136h.6l1.608-2.376c.104-.16.236-.24.396-.24.12 0 .224.044.312.132.096.08.144.18.144.3a.463.463 0 01-.096.276l-1.476 2.088c.304.072.552.212.744.42.192.2.38.504.564.912l.576 1.224a.45.45 0 01-.108.54.525.525 0 01-.348.132.482.482 0 01-.252-.072.549.549 0 01-.168-.228l-.648-1.44c-.16-.336-.344-.584-.552-.744-.2-.16-.472-.24-.816-.24h-.48v2.232a.47.47 0 01-.132.348.47.47 0 01-.348.132zm4.732 1.524a.455.455 0 01-.336-.132.454.454 0 01-.12-.336v-1.38c0-.152.04-.272.12-.36a.387.387 0 01.312-.144h.216c.288-.416.492-.912.612-1.488s.18-1.328.18-2.256v-.828c0-.152.044-.272.132-.36a.464.464 0 01.36-.144h3.012c.152 0 .272.044.36.132a.464.464 0 01.144.36v4.584h.408c.152 0 .272.044.36.132a.464.464 0 01.144.36v1.392c0 .144-.04.256-.12.336a.431.431 0 01-.336.132.455.455 0 01-.336-.132.454.454 0 01-.12-.336v-1.116h-4.536v1.116a.431.431 0 01-.132.336.416.416 0 01-.324.132zm4.032-6.66h-2.172v.564c0 1.76-.256 3.008-.768 3.744h2.94v-4.308zm5.349 5.16c-.552 0-1.04-.124-1.464-.372-.416-.248-.74-.6-.972-1.056-.224-.464-.336-1-.336-1.608 0-.608.112-1.14.336-1.596.232-.464.556-.82.972-1.068.424-.248.912-.372 1.464-.372.552 0 1.04.124 1.464.372.424.248.748.604.972 1.068.232.456.348.988.348 1.596 0 .608-.116 1.144-.348 1.608a2.438 2.438 0 01-.972 1.056c-.424.248-.912.372-1.464.372zm0-.804c.576 0 1.016-.188 1.32-.564.312-.384.468-.94.468-1.668 0-.712-.156-1.26-.468-1.644-.312-.392-.752-.588-1.32-.588-.568 0-1.008.196-1.32.588-.312.384-.468.932-.468 1.644 0 .72.152 1.272.456 1.656.312.384.756.576 1.332.576zm8.288-4.932a.783.783 0 01.252-.24.642.642 0 01.312-.072c.152 0 .272.048.36.144a.488.488 0 01.144.36v5.052a.455.455 0 01-.132.336.455.455 0 01-.336.132.482.482 0 01-.336-.132.482.482 0 01-.132-.336v-4.188l-3.156 4.368a.632.632 0 01-.54.288.529.529 0 01-.372-.132.488.488 0 01-.144-.36v-5.052a.474.474 0 01.48-.48c.136 0 .248.048.336.144.088.088.132.2.132.336v4.128l3.132-4.296zm-1.488-1.356c-.448 0-.836-.104-1.164-.312a1.865 1.865 0 01-.732-.9.592.592 0 01-.036-.18.34.34 0 01.096-.252.367.367 0 01.252-.096c.16 0 .28.08.36.24.264.544.672.816 1.224.816.264 0 .496-.068.696-.204.208-.144.38-.348.516-.612.088-.16.208-.24.36-.24.096 0 .176.032.24.096a.321.321 0 01.108.252.514.514 0 01-.036.18 1.85 1.85 0 01-.732.9 2.105 2.105 0 01-1.152.312zM34.837 124.091a.515.515 0 01-.36-.12.47.47 0 01-.132-.348v-4.932c0-.16.044-.284.132-.372a.486.486 0 01.36-.132h4.02c.152 0 .272.044.36.132a.464.464 0 01.144.36v4.944a.47.47 0 01-.132.348.497.497 0 01-.348.12.515.515 0 01-.36-.12.47.47 0 01-.132-.348v-4.668h-3.072v4.668a.47.47 0 01-.132.348.497.497 0 01-.348.12zm8.73.024c-.553 0-1.04-.124-1.465-.372-.416-.248-.74-.6-.972-1.056-.224-.464-.336-1-.336-1.608 0-.608.112-1.14.336-1.596.232-.464.556-.82.972-1.068.424-.248.912-.372 1.464-.372.552 0 1.04.124 1.464.372.424.248.748.604.972 1.068.232.456.348.988.348 1.596 0 .608-.116 1.144-.348 1.608a2.438 2.438 0 01-.972 1.056c-.424.248-.912.372-1.464.372zm0-.804c.575 0 1.015-.188 1.32-.564.311-.384.467-.94.467-1.668 0-.712-.156-1.26-.468-1.644-.312-.392-.752-.588-1.32-.588-.568 0-1.008.196-1.32.588-.312.384-.468.932-.468 1.644 0 .72.152 1.272.456 1.656.312.384.756.576 1.332.576zm6.955-2.448c.288.08.52.212.696.396.176.184.384.48.624.888l.756 1.236c.048.08.072.164.072.252a.423.423 0 01-.144.324.482.482 0 01-.756-.12l-.912-1.536c-.208-.344-.404-.576-.588-.696-.184-.12-.448-.18-.792-.18h-.672v2.184a.486.486 0 01-.132.36.515.515 0 01-.36.12.497.497 0 01-.348-.12.486.486 0 01-.132-.36v-5.064a.47.47 0 01.132-.348.47.47 0 01.348-.132c.152 0 .272.044.36.132a.47.47 0 01.132.348v2.124h.816l1.992-2.4c.112-.136.236-.204.372-.204.112 0 .208.04.288.12.088.08.132.18.132.3a.53.53 0 01-.132.324l-1.752 2.052zm7.582-2.496c.088-.192.228-.288.42-.288.12 0 .228.04.324.12.096.08.144.18.144.3a.38.38 0 01-.048.192l-3.372 7.272a.448.448 0 01-.18.204.404.404 0 01-.228.072.493.493 0 01-.324-.12.353.353 0 01-.132-.288c0-.064.016-.128.048-.192l.84-1.812-2.376-5.136a.357.357 0 01-.048-.18c0-.12.052-.224.156-.312a.572.572 0 01.36-.132c.08 0 .156.024.228.072.08.048.14.116.18.204l2.004 4.5 2.004-4.476zm2.42 5.724a.515.515 0 01-.36-.12.47.47 0 01-.132-.348v-4.932c0-.16.044-.284.132-.372a.486.486 0 01.36-.132h4.02c.152 0 .272.044.36.132a.464.464 0 01.144.36v4.944a.47.47 0 01-.132.348.497.497 0 01-.348.12.515.515 0 01-.36-.12.47.47 0 01-.132-.348v-4.668h-3.072v4.668a.47.47 0 01-.132.348.497.497 0 01-.348.12zm6.774 0a.515.515 0 01-.36-.12.47.47 0 01-.132-.348v-4.932c0-.16.044-.284.132-.372a.486.486 0 01.36-.132h4.02c.152 0 .272.044.36.132a.464.464 0 01.144.36v4.944a.47.47 0 01-.132.348.497.497 0 01-.348.12.515.515 0 01-.36-.12.47.47 0 01-.132-.348v-4.668h-3.072v4.668a.47.47 0 01-.132.348.497.497 0 01-.348.12zm9.03-3.228c.287.08.52.212.695.396.176.184.384.48.624.888l.756 1.236c.048.08.072.164.072.252a.423.423 0 01-.144.324.482.482 0 01-.756-.12l-.912-1.536c-.208-.344-.404-.576-.588-.696-.184-.12-.448-.18-.792-.18h-.672v2.184a.486.486 0 01-.132.36.515.515 0 01-.36.12.497.497 0 01-.348-.12.486.486 0 01-.132-.36v-5.064a.47.47 0 01.132-.348.47.47 0 01.348-.132c.152 0 .272.044.36.132a.47.47 0 01.132.348v2.124h.816l1.992-2.4c.112-.136.236-.204.372-.204.112 0 .208.04.288.12.088.08.132.18.132.3a.53.53 0 01-.132.324l-1.752 2.052zm7.425-2.484a.783.783 0 01.252-.24.642.642 0 01.312-.072c.152 0 .272.048.36.144a.488.488 0 01.144.36v5.052a.455.455 0 01-.132.336.455.455 0 01-.336.132.482.482 0 01-.336-.132.482.482 0 01-.132-.336v-4.188l-3.156 4.368a.632.632 0 01-.54.288.529.529 0 01-.372-.132.488.488 0 01-.144-.36v-5.052a.474.474 0 01.48-.48c.136 0 .248.048.336.144.088.088.132.2.132.336v4.128l3.132-4.296zm10.008 0a.783.783 0 01.252-.24.642.642 0 01.312-.072c.152 0 .272.048.36.144a.488.488 0 01.144.36v5.052a.455.455 0 01-.132.336.455.455 0 01-.336.132.482.482 0 01-.336-.132.482.482 0 01-.132-.336v-4.188l-3.156 4.368a.632.632 0 01-.54.288.529.529 0 01-.372-.132.488.488 0 01-.144-.36v-5.052a.474.474 0 01.48-.48c.136 0 .248.048.336.144.088.088.132.2.132.336v4.128l3.132-4.296zm8.376 5.736c-.552 0-1.04-.124-1.464-.372-.416-.248-.74-.6-.972-1.056-.224-.464-.336-1-.336-1.608 0-.608.112-1.14.336-1.596.232-.464.556-.82.972-1.068.424-.248.912-.372 1.464-.372.552 0 1.04.124 1.464.372.424.248.748.604.972 1.068.232.456.348.988.348 1.596 0 .608-.116 1.144-.348 1.608a2.438 2.438 0 01-.972 1.056c-.424.248-.912.372-1.464.372zm0-.804c.576 0 1.016-.188 1.32-.564.312-.384.468-.94.468-1.668 0-.712-.156-1.26-.468-1.644-.312-.392-.752-.588-1.32-.588-.568 0-1.008.196-1.32.588-.312.384-.468.932-.468 1.644 0 .72.152 1.272.456 1.656.312.384.756.576 1.332.576zm4.7.78a.515.515 0 01-.36-.12.47.47 0 01-.132-.348v-4.932c0-.16.044-.284.132-.372a.486.486 0 01.36-.132h4.02c.152 0 .272.044.36.132a.464.464 0 01.144.36v4.944a.47.47 0 01-.132.348.497.497 0 01-.348.12.515.515 0 01-.36-.12.47.47 0 01-.132-.348v-4.668h-3.072v4.668a.47.47 0 01-.132.348.497.497 0 01-.348.12zm7.913-4.44c0 1.256-.132 2.224-.396 2.904-.256.68-.68 1.184-1.272 1.512a.517.517 0 01-.204.036.432.432 0 01-.3-.108.374.374 0 01-.108-.276c0-.08.02-.156.06-.228.04-.072.1-.128.18-.168.288-.168.512-.392.672-.672.168-.28.284-.652.348-1.116.072-.472.108-1.096.108-1.872v-.972c0-.16.044-.284.132-.372a.486.486 0 01.36-.132h3.18c.152 0 .272.044.36.132a.464.464 0 01.144.36v4.944a.436.436 0 01-.144.336.47.47 0 01-.348.132.47.47 0 01-.348-.132.455.455 0 01-.132-.336v-4.668h-2.292v.696zm7.425-1.608c1.464 0 2.196.768 2.196 2.304v3.264a.47.47 0 01-.132.348.431.431 0 01-.336.132.47.47 0 01-.348-.132.47.47 0 01-.132-.348v-.576a1.751 1.751 0 01-.696.804 2.086 2.086 0 01-1.08.276c-.376 0-.724-.076-1.044-.228a1.864 1.864 0 01-.744-.636 1.572 1.572 0 01-.276-.9c0-.44.112-.78.336-1.02.224-.248.592-.424 1.104-.528.512-.112 1.224-.168 2.136-.168h.264v-.396c0-.48-.1-.832-.3-1.056-.192-.224-.508-.336-.948-.336-.544 0-1.096.148-1.656.444-.216.136-.368.204-.456.204a.308.308 0 01-.24-.108.4.4 0 01-.096-.276c0-.112.032-.208.096-.288.072-.088.184-.176.336-.264.28-.16.596-.284.948-.372.36-.096.716-.144 1.068-.144zm-.396 5.304c.48 0 .872-.16 1.176-.48.312-.328.468-.748.468-1.26v-.348h-.216c-.704 0-1.24.032-1.608.096-.368.056-.632.156-.792.3-.152.136-.228.34-.228.612 0 .312.112.572.336.78.232.2.52.3.864.3zm8.163.744a.515.515 0 01-.36-.12.47.47 0 01-.132-.348v-1.896a3.66 3.66 0 01-.696.252c-.264.064-.54.096-.828.096-.672 0-1.196-.156-1.572-.468-.376-.312-.564-.808-.564-1.488v-1.572a.47.47 0 01.132-.348.486.486 0 01.36-.132.47.47 0 01.348.132.47.47 0 01.132.348v1.464c0 .456.112.784.336.984.232.2.56.3.984.3.544 0 1-.12 1.368-.36v-2.388a.47.47 0 01.132-.348.486.486 0 01.36-.132.47.47 0 01.348.132.47.47 0 01.132.348v5.076a.47.47 0 01-.132.348.497.497 0 01-.348.12zm6.311-5.712a.783.783 0 01.252-.24.642.642 0 01.312-.072c.152 0 .272.048.36.144a.488.488 0 01.144.36v5.052a.455.455 0 01-.132.336.455.455 0 01-.336.132.482.482 0 01-.336-.132.482.482 0 01-.132-.336v-4.188l-3.156 4.368a.632.632 0 01-.54.288.529.529 0 01-.372-.132.488.488 0 01-.144-.36v-5.052a.474.474 0 01.48-.48c.136 0 .248.048.336.144.088.088.132.2.132.336v4.128l3.132-4.296zm3.338 5.652a.529.529 0 01-.372-.132.47.47 0 01-.132-.348v-4.86c0-.152.044-.272.132-.36a.464.464 0 01.36-.144h2.076c.64 0 1.136.124 1.488.372.352.248.528.62.528 1.116 0 .288-.084.556-.252.804-.168.248-.424.432-.768.552.36.064.644.216.852.456.216.24.324.544.324.912 0 .272-.076.532-.228.78-.144.248-.376.452-.696.612-.32.16-.72.24-1.2.24h-2.112zm1.992-3.324c.336 0 .608-.084.816-.252a.88.88 0 00.312-.708c0-.56-.388-.84-1.164-.84h-1.488v1.8h1.524zm.024 2.604c.824 0 1.236-.316 1.236-.948 0-.32-.12-.56-.36-.72-.24-.16-.568-.24-.984-.24h-1.44v1.908h1.548zm6.033-5.268c1.464 0 2.196.768 2.196 2.304v3.264a.47.47 0 01-.132.348.431.431 0 01-.336.132.47.47 0 01-.348-.132.47.47 0 01-.132-.348v-.576a1.751 1.751 0 01-.696.804 2.086 2.086 0 01-1.08.276c-.376 0-.724-.076-1.044-.228a1.864 1.864 0 01-.744-.636 1.572 1.572 0 01-.276-.9c0-.44.112-.78.336-1.02.224-.248.592-.424 1.104-.528.512-.112 1.224-.168 2.136-.168h.264v-.396c0-.48-.1-.832-.3-1.056-.192-.224-.508-.336-.948-.336-.544 0-1.096.148-1.656.444-.216.136-.368.204-.456.204a.308.308 0 01-.24-.108.4.4 0 01-.096-.276c0-.112.032-.208.096-.288.072-.088.184-.176.336-.264.28-.16.596-.284.948-.372.36-.096.716-.144 1.068-.144zm-.396 5.304c.48 0 .872-.16 1.176-.48.312-.328.468-.748.468-1.26v-.348h-.216c-.704 0-1.24.032-1.608.096-.368.056-.632.156-.792.3-.152.136-.228.34-.228.612 0 .312.112.572.336.78.232.2.52.3.864.3zm8.427-4.968a.783.783 0 01.252-.24.642.642 0 01.312-.072c.152 0 .272.048.36.144a.488.488 0 01.144.36v5.052a.455.455 0 01-.132.336.455.455 0 01-.336.132.482.482 0 01-.336-.132.482.482 0 01-.132-.336v-4.188l-3.156 4.368a.632.632 0 01-.54.288.529.529 0 01-.372-.132.488.488 0 01-.144-.36v-5.052a.474.474 0 01.48-.48c.136 0 .248.048.336.144.088.088.132.2.132.336v4.128l3.132-4.296zm-1.488-1.356c-.448 0-.836-.104-1.164-.312a1.866 1.866 0 01-.732-.9.592.592 0 01-.036-.18.34.34 0 01.096-.252.367.367 0 01.252-.096c.16 0 .28.08.36.24.264.544.672.816 1.224.816.264 0 .496-.068.696-.204.208-.144.38-.348.516-.612.088-.16.208-.24.36-.24.096 0 .176.032.24.096a.321.321 0 01.108.252.514.514 0 01-.036.18 1.85 1.85 0 01-.732.9 2.105 2.105 0 01-1.152.312zm6.134 7.068a.497.497 0 01-.348-.12.47.47 0 01-.132-.348v-4.668h-1.716a.39.39 0 01-.288-.108.374.374 0 01-.108-.276c0-.112.036-.204.108-.276a.39.39 0 01.288-.108h4.392a.39.39 0 01.288.108.374.374 0 01.108.276.374.374 0 01-.108.276.39.39 0 01-.288.108h-1.704v4.668a.45.45 0 01-.144.348.497.497 0 01-.348.12zm8.08-1.416c.088 0 .164.036.228.108a.4.4 0 01.096.276c0 .2-.14.384-.42.552a3.805 3.805 0 01-.912.384c-.32.08-.632.12-.936.12-.904 0-1.62-.268-2.148-.804-.52-.536-.78-1.276-.78-2.22 0-.6.116-1.128.348-1.584.232-.464.556-.824.972-1.08a2.731 2.731 0 011.44-.384c.76 0 1.364.248 1.812.744.448.496.672 1.168.672 2.016 0 .16-.032.276-.096.348-.064.072-.168.108-.312.108h-3.864c.072 1.376.724 2.064 1.956 2.064.312 0 .58-.04.804-.12.224-.088.464-.204.72-.348.208-.12.348-.18.42-.18zm-2.1-3.876c-.512 0-.924.16-1.236.48-.304.32-.484.772-.54 1.356h3.396c-.016-.592-.164-1.044-.444-1.356-.28-.32-.672-.48-1.176-.48zm-127.872 15.58a.783.783 0 01.252-.24.642.642 0 01.312-.072c.152 0 .272.048.36.144a.488.488 0 01.144.36v5.052a.455.455 0 01-.132.336.455.455 0 01-.336.132.482.482 0 01-.336-.132.482.482 0 01-.132-.336v-4.188l-3.156 4.368a.632.632 0 01-.54.288.529.529 0 01-.372-.132.488.488 0 01-.144-.36v-5.052a.474.474 0 01.48-.48c.136 0 .248.048.336.144.088.088.132.2.132.336v4.128l3.132-4.296zm8.318-.312c.152 0 .272.044.36.132a.464.464 0 01.144.36v5.076a.455.455 0 01-.132.336.438.438 0 01-.324.12.48.48 0 01-.336-.12.48.48 0 01-.12-.336l.012-3.9-1.656 3.096c-.04.08-.1.144-.18.192a.504.504 0 01-.516 0 .489.489 0 01-.168-.192l-1.668-3.096.012 3.9a.455.455 0 01-.132.336.438.438 0 01-.324.12.48.48 0 01-.336-.12.48.48 0 01-.12-.336v-5.064c0-.152.044-.272.132-.36a.464.464 0 01.36-.144c.24 0 .416.108.528.324l1.98 3.72 1.956-3.696c.12-.232.296-.348.528-.348zm6.33.312a.783.783 0 01.252-.24.642.642 0 01.312-.072c.152 0 .272.048.36.144a.488.488 0 01.144.36v5.052a.455.455 0 01-.132.336.455.455 0 01-.336.132.482.482 0 01-.336-.132.482.482 0 01-.132-.336v-4.188l-3.156 4.368a.632.632 0 01-.54.288.529.529 0 01-.372-.132.488.488 0 01-.144-.36v-5.052a.474.474 0 01.48-.48c.136 0 .248.048.336.144.088.088.132.2.132.336v4.128l3.132-4.296zm8.364 5.736a2.822 2.822 0 01-1.452-.372c-.416-.248-.74-.6-.972-1.056-.224-.456-.336-.984-.336-1.584 0-.6.116-1.132.348-1.596.24-.464.572-.824.996-1.08.424-.256.912-.384 1.464-.384.304 0 .604.044.9.132.304.08.568.2.792.36a.945.945 0 01.3.288.497.497 0 01.096.3.4.4 0 01-.096.276.273.273 0 01-.228.108.405.405 0 01-.18-.048 1.57 1.57 0 01-.168-.096 3.72 3.72 0 00-.684-.384 1.717 1.717 0 00-.684-.12c-.584 0-1.04.2-1.368.6-.32.392-.48.94-.48 1.644s.16 1.248.48 1.632c.328.384.784.576 1.368.576.272 0 .504-.04.696-.12.2-.08.4-.188.6-.324.088-.056.172-.104.252-.144.08-.04.148-.06.204-.06.088 0 .16.036.216.108a.4.4 0 01.096.276c0 .104-.028.2-.084.288-.056.08-.16.172-.312.276a2.962 2.962 0 01-.816.372 3.476 3.476 0 01-.948.132zm4.938-4.464c0 1.256-.132 2.224-.396 2.904-.256.68-.68 1.184-1.272 1.512a.517.517 0 01-.204.036.432.432 0 01-.3-.108.374.374 0 01-.108-.276c0-.08.02-.156.06-.228.04-.072.1-.128.18-.168.288-.168.512-.392.672-.672.168-.28.284-.652.348-1.116.072-.472.108-1.096.108-1.872v-.972c0-.16.044-.284.132-.372a.486.486 0 01.36-.132h3.18c.152 0 .272.044.36.132a.464.464 0 01.144.36v4.944a.436.436 0 01-.144.336.47.47 0 01-.348.132.47.47 0 01-.348-.132.455.455 0 01-.132-.336v-4.668h-2.292v.696zm9.56 3.024c.089 0 .165.036.229.108a.4.4 0 01.096.276c0 .2-.14.384-.42.552a3.805 3.805 0 01-.912.384c-.32.08-.632.12-.936.12-.904 0-1.62-.268-2.148-.804-.52-.536-.78-1.276-.78-2.22 0-.6.116-1.128.348-1.584.232-.464.556-.824.972-1.08a2.731 2.731 0 011.44-.384c.76 0 1.364.248 1.812.744.448.496.672 1.168.672 2.016 0 .16-.032.276-.096.348-.064.072-.168.108-.312.108h-3.864c.072 1.376.724 2.064 1.956 2.064.312 0 .58-.04.804-.12.224-.088.464-.204.72-.348.208-.12.348-.18.42-.18zm-2.1-3.876c-.511 0-.923.16-1.235.48-.304.32-.484.772-.54 1.356h3.396c-.016-.592-.164-1.044-.444-1.356-.28-.32-.672-.48-1.176-.48zm3.58 6.816a.455.455 0 01-.335-.132.454.454 0 01-.12-.336v-1.38c0-.152.04-.272.12-.36a.387.387 0 01.312-.144h.216c.288-.416.492-.912.612-1.488s.18-1.328.18-2.256v-.828c0-.152.044-.272.132-.36a.464.464 0 01.36-.144h3.012c.152 0 .272.044.36.132a.464.464 0 01.144.36v4.584h.408c.152 0 .272.044.36.132a.464.464 0 01.144.36v1.392c0 .144-.04.256-.12.336a.431.431 0 01-.336.132.455.455 0 01-.336-.132.454.454 0 01-.12-.336v-1.116h-4.536v1.116a.431.431 0 01-.132.336.416.416 0 01-.324.132zm4.033-6.66h-2.172v.564c0 1.76-.256 3.008-.768 3.744h2.94v-4.308zm7.266-.588c.088-.192.228-.288.42-.288.12 0 .228.04.324.12.096.08.144.18.144.3a.38.38 0 01-.048.192l-3.372 7.272a.448.448 0 01-.18.204.404.404 0 01-.228.072.493.493 0 01-.324-.12.353.353 0 01-.132-.288c0-.064.016-.128.048-.192l.84-1.812-2.376-5.136a.357.357 0 01-.048-.18c0-.12.052-.224.156-.312a.572.572 0 01.36-.132c.08 0 .156.024.228.072.08.048.14.116.18.204l2.004 4.5 2.004-4.476zm6.764 5.748c-.784 0-1.416-.24-1.896-.72-.472-.488-.74-1.148-.804-1.98h-1.176v2.208a.47.47 0 01-.132.348.497.497 0 01-.348.12.497.497 0 01-.348-.12.47.47 0 01-.132-.348v-5.076a.47.47 0 01.132-.348.47.47 0 01.348-.132.47.47 0 01.348.132.47.47 0 01.132.348v2.1h1.188c.08-.808.356-1.444.828-1.908.472-.464 1.092-.696 1.86-.696.552 0 1.032.124 1.44.372.416.248.732.6.948 1.056.224.456.336.992.336 1.608 0 .616-.112 1.152-.336 1.608a2.386 2.386 0 01-.948 1.056c-.408.248-.888.372-1.44.372zm-.012-.804c.576 0 1.008-.188 1.296-.564.296-.384.444-.94.444-1.668 0-.72-.148-1.272-.444-1.656-.296-.384-.724-.576-1.284-.576s-.992.192-1.296.576c-.296.384-.444.936-.444 1.656 0 .728.144 1.284.432 1.668.296.376.728.564 1.296.564zm12.048 2.304a.455.455 0 01-.336-.132.454.454 0 01-.12-.336v-1.116h-6.936a.529.529 0 01-.372-.132.47.47 0 01-.132-.348v-5.004a.47.47 0 01.132-.348.47.47 0 01.348-.132c.152 0 .272.044.36.132a.47.47 0 01.132.348v4.716h2.268v-4.716c0-.144.04-.26.12-.348a.47.47 0 01.348-.132c.152 0 .272.044.36.132a.47.47 0 01.132.348v4.716h2.268v-4.716a.47.47 0 01.132-.348.47.47 0 01.348-.132.47.47 0 01.348.132.47.47 0 01.132.348v4.716h.408c.152 0 .272.044.36.132a.464.464 0 01.144.36v1.392c0 .144-.04.256-.12.336a.416.416 0 01-.324.132zm5.676-7.236a.783.783 0 01.252-.24.642.642 0 01.312-.072c.152 0 .272.048.36.144a.488.488 0 01.144.36v5.052a.455.455 0 01-.132.336.455.455 0 01-.336.132.482.482 0 01-.336-.132.482.482 0 01-.132-.336v-4.188l-3.156 4.368a.632.632 0 01-.54.288.529.529 0 01-.372-.132.488.488 0 01-.144-.36v-5.052a.474.474 0 01.48-.48c.136 0 .248.048.336.144.088.088.132.2.132.336v4.128l3.132-4.296zm7.382 4.296c.088 0 .164.036.228.108a.4.4 0 01.096.276c0 .2-.14.384-.42.552a3.805 3.805 0 01-.912.384c-.32.08-.632.12-.936.12-.904 0-1.62-.268-2.148-.804-.52-.536-.78-1.276-.78-2.22 0-.6.116-1.128.348-1.584.232-.464.556-.824.972-1.08a2.731 2.731 0 011.44-.384c.76 0 1.364.248 1.812.744.448.496.672 1.168.672 2.016 0 .16-.032.276-.096.348-.064.072-.168.108-.312.108h-3.864c.072 1.376.724 2.064 1.956 2.064.312 0 .58-.04.804-.12.224-.088.464-.204.72-.348.208-.12.348-.18.42-.18zm-2.1-3.876c-.512 0-.924.16-1.236.48-.304.32-.484.772-.54 1.356h3.396c-.016-.592-.164-1.044-.444-1.356-.28-.32-.672-.48-1.176-.48z" fill="#434343"/><path d="M33.559 65.03V39.47h4.032v10.693h2.988l8.028-10.692h4.608l-9.396 12.384 10.08 13.176h-4.932l-8.388-11.16H37.59v11.16h-4.032zm30.814.325c-1.824 0-3.492-.396-5.004-1.188-1.512-.816-2.64-1.956-3.384-3.42l3.168-1.44c.528.96 1.224 1.68 2.088 2.16.888.48 1.848.72 2.88.72a5.49 5.49 0 002.772-.72 5.895 5.895 0 002.052-1.944 6.06 6.06 0 001.008-2.7h-7.38v-2.628h7.344a6.329 6.329 0 00-.972-2.484 5.796 5.796 0 00-1.98-1.908c-.792-.48-1.728-.72-2.808-.72-1.008 0-1.932.216-2.772.648-.84.408-1.536 1.104-2.088 2.088l-3.024-1.584c.744-1.32 1.788-2.376 3.132-3.168 1.368-.792 3-1.188 4.896-1.188 1.584 0 2.976.276 4.176.828 1.2.528 2.208 1.26 3.024 2.196a8.927 8.927 0 011.872 3.096 10.07 10.07 0 01-.036 7.2 9.72 9.72 0 01-1.908 3.168c-.816.912-1.824 1.644-3.024 2.196-1.2.528-2.544.792-4.032.792zm13.188-.324V46.203h3.96v15.372h6.733V46.203h3.995v15.372h6.697V46.203h3.96V65.03H77.561zm29.949-8.064v-3.564h10.764v3.564H107.51zm24.441 8.424c-3.144 0-5.532-.948-7.164-2.844-1.632-1.896-2.448-4.608-2.448-8.136 0-2.304.192-4.248.576-5.832.408-1.608.996-2.928 1.764-3.96a9.313 9.313 0 012.916-2.556c1.176-.648 2.532-1.176 4.068-1.584l8.028-2.232.144 3.312-7.884 2.232c-1.872.576-3.336 1.44-4.392 2.592-1.032 1.152-1.656 2.856-1.872 5.112a7.23 7.23 0 012.88-2.88c1.248-.696 2.724-1.044 4.428-1.044 1.752 0 3.264.372 4.536 1.116a7.461 7.461 0 012.952 3.024c.696 1.296 1.044 2.784 1.044 4.464 0 1.824-.372 3.432-1.116 4.824-.72 1.368-1.8 2.448-3.24 3.24-1.416.768-3.156 1.152-5.22 1.152zm0-3.384c1.728 0 3.084-.516 4.068-1.548.984-1.032 1.476-2.4 1.476-4.104 0-1.632-.492-2.964-1.476-3.996-.96-1.056-2.316-1.584-4.068-1.584-1.584 0-2.904.492-3.96 1.476-1.032.984-1.548 2.352-1.548 4.104 0 1.656.48 3.012 1.44 4.068.96 1.056 2.316 1.584 4.068 1.584zm20.242 3.348c-1.824 0-3.492-.396-5.004-1.188-1.512-.816-2.64-1.956-3.384-3.42l3.168-1.44c.528.96 1.224 1.68 2.088 2.16.888.48 1.848.72 2.88.72a5.49 5.49 0 002.772-.72 5.895 5.895 0 002.052-1.944 6.06 6.06 0 001.008-2.7h-7.38v-2.628h7.344a6.329 6.329 0 00-.972-2.484 5.796 5.796 0 00-1.98-1.908c-.792-.48-1.728-.72-2.808-.72-1.008 0-1.932.216-2.772.648-.84.408-1.536 1.104-2.088 2.088l-3.024-1.584c.744-1.32 1.788-2.376 3.132-3.168 1.368-.792 3-1.188 4.896-1.188 1.584 0 2.976.276 4.176.828 1.2.528 2.208 1.26 3.024 2.196a8.927 8.927 0 011.872 3.096 10.07 10.07 0 01-.036 7.2 9.72 9.72 0 01-1.908 3.168c-.816.912-1.824 1.644-3.024 2.196-1.2.528-2.544.792-4.032.792zm13.189-.324V46.203h3.924v7.452h1.872l5.544-7.452h4.392l-6.876 9.108 7.668 9.72h-4.572l-6.192-7.812h-1.836v7.812h-3.924z" fill="#202020"/><path d="M325.885 128.627v6.912h-20.736v-6.912h6.816v-12.24c-.384.512-1.04 1.024-1.968 1.536-.896.512-1.888.96-2.976 1.344-1.056.352-2 .528-2.832.528v-7.104c.544 0 1.216-.176 2.016-.528.8-.352 1.6-.768 2.4-1.248a18.015 18.015 0 002.16-1.536c.64-.512 1.04-.928 1.2-1.248h7.824v20.496h6.096zm13.66 14.064c-2.464 0-4.688-.512-6.672-1.536-1.984-.992-3.504-2.368-4.56-4.128l4.272-4.752a10.953 10.953 0 003.264 2.688c1.248.672 2.496 1.008 3.744 1.008 1.472 0 2.656-.432 3.552-1.296.928-.864 1.392-2.016 1.392-3.456 0-1.344-.432-2.432-1.296-3.264-.832-.864-1.904-1.296-3.216-1.296a5.4 5.4 0 00-2.448.576 4.248 4.248 0 00-1.728 1.632h-6.672l3.984-20.736h16.944v7.008h-11.376l-.96 5.808c.192-.224.56-.416 1.104-.576.576-.192 1.328-.288 2.256-.288 2.176 0 4.112.464 5.808 1.392a10.12 10.12 0 013.984 3.888c.992 1.664 1.488 3.568 1.488 5.712 0 2.304-.56 4.32-1.68 6.048-1.088 1.76-2.608 3.12-4.56 4.08-1.92.992-4.128 1.488-6.624 1.488zm24.077-26.88c-1.536 0-2.928-.32-4.176-.96a8.167 8.167 0 01-2.928-2.688 6.903 6.903 0 01-1.104-3.792c0-1.376.368-2.624 1.104-3.744a7.77 7.77 0 012.928-2.64c1.248-.672 2.64-1.008 4.176-1.008s2.928.336 4.176 1.008c1.248.64 2.224 1.52 2.928 2.64.736 1.12 1.104 2.368 1.104 3.744 0 1.376-.368 2.64-1.104 3.792-.704 1.12-1.68 2.016-2.928 2.688-1.248.64-2.64.96-4.176.96zm-4.896 17.04l13.584-15.552 12.288-16.272 3.408 3.072-13.104 15.168-12.768 16.704-3.408-3.12zm4.896-20.784c.8 0 1.472-.352 2.016-1.056.576-.736.864-1.616.864-2.64 0-.992-.288-1.84-.864-2.544-.576-.736-1.248-1.104-2.016-1.104-.8 0-1.488.368-2.064 1.104-.544.704-.816 1.552-.816 2.544 0 1.024.288 1.904.864 2.64.576.704 1.248 1.056 2.016 1.056zm19.488 23.952c-1.536 0-2.928-.32-4.176-.96a8.167 8.167 0 01-2.928-2.688c-.736-1.12-1.104-2.368-1.104-3.744 0-1.376.368-2.624 1.104-3.744a7.636 7.636 0 012.928-2.688c1.248-.672 2.64-1.008 4.176-1.008s2.928.336 4.176 1.008c1.248.64 2.224 1.536 2.928 2.688.736 1.12 1.104 2.368 1.104 3.744 0 1.376-.368 2.624-1.104 3.744-.704 1.12-1.68 2.016-2.928 2.688-1.248.64-2.64.96-4.176.96zm0-3.744c.8 0 1.488-.352 2.064-1.056.576-.736.864-1.6.864-2.592 0-1.024-.288-1.888-.864-2.592-.576-.736-1.264-1.104-2.064-1.104s-1.488.368-2.064 1.104c-.544.704-.816 1.568-.816 2.592 0 .992.288 1.856.864 2.592.576.704 1.248 1.056 2.016 1.056zm-108.131-6.172v-4.288h.256a1.2 1.2 0 00.72-.288c.234-.181.421-.517.56-1.008.149-.49.24-1.2.272-2.128l.128-2.752h6.608v6.176h1.2v4.288h-2.24v-2.064h-5.264v2.064h-2.24zm3.36-4.288h2.624v-4.048h-1.824l-.048.896c-.054.886-.139 1.579-.256 2.08-.107.491-.272.848-.496 1.072zm11.684 2.384c-.96 0-1.776-.202-2.448-.608a4.116 4.116 0 01-1.52-1.6 4.492 4.492 0 01-.528-2.144c0-.778.176-1.498.528-2.16a4.1 4.1 0 011.536-1.6c.672-.405 1.482-.608 2.432-.608.949 0 1.76.203 2.432.608a4.1 4.1 0 011.536 1.6 4.53 4.53 0 01.528 2.16c0 .768-.176 1.483-.528 2.144a4.087 4.087 0 01-1.536 1.6c-.672.406-1.483.608-2.432.608zm-1.872-4.352c0 .651.176 1.179.528 1.584.362.406.81.608 1.344.608.522 0 .96-.202 1.312-.608.362-.405.544-.933.544-1.584 0-.65-.182-1.178-.544-1.584a1.67 1.67 0 00-1.312-.608c-.534 0-.982.203-1.344.608-.352.406-.528.934-.528 1.584z" fill="#D2374A"/></svg>