<svg width="19" height="19" fill="none" xmlns="http://www.w3.org/2000/svg"><path d="M8.5 11.811c1.003 1.139 1.921 1.62 2.858.382.12-.154.253-.253.38-.31.31-.136.956.153.956.153l1.905.929s.392.187.723.42c.117.081.233.174.318.251.443.42.05 1.33-.299 1.935-.52.901-2.243 2.431-5.42.647a14.661 14.661 0 01-3.286-2.5c-.887-.907-1.884-2.238-2.53-3.463A14.741 14.741 0 012.77 6.57c-.783-3.559 1.181-4.762 2.195-4.999.68-.157 1.665-.269 1.938.278.06.105.104.241.149.377.125.384.19.813.19.813l.335 2.094s.09.702-.132.96a.712.712 0 01-.396.274c-1.286.476-1.297 1.345-.714 2.421.15.292.659 1.066 1.17 1.755.417.59.846 1.105.994 1.267z" stroke="#898989" stroke-miterlimit="10"/></svg>