<svg width="16" height="16" fill="none" xmlns="http://www.w3.org/2000/svg"><circle cx="8" cy="8" r="7.5" stroke="#898989"/><path d="M3.167 13.619c0-.784.468-1.552 1.343-2.145.872-.592 2.104-.974 3.49-.974v-1c-1.56 0-2.993.428-4.052 1.146-1.055.717-1.781 1.759-1.781 2.973h1zM8 10.5c1.386 0 2.619.382 3.49.974.875.593 1.344 1.36 1.344 2.145h1c0-1.214-.726-2.256-1.782-2.973C10.994 9.928 9.56 9.5 8 9.5v1z" fill="#898989" mask="url(#a)"/><circle cx="8" cy="7.059" r="2.794" fill="#fff" stroke="#898989"/></svg>