<svg width="16" height="17" fill="none" xmlns="http://www.w3.org/2000/svg"><path d="M6.523 5.391L8.43 1.046l1.878 4.285a.58.58 0 00.373.42.825.825 0 00.26.043l4.37.749-3.282 3.684a.87.87 0 00-.218.458.627.627 0 00-.005.067v.015h0l.5.001h-.5c0 .026.002.051.005.077l.779 5.008-3.806-2.31a.5.5 0 00-.26-.073h0-.001 0-.001 0-.001 0-.001 0-.002 0-.001 0-.001 0-.001 0-.001 0-.002 0-.001 0-.001 0-.001 0-.002 0-.001 0-.001 0-.001 0H8.5h0-.001 0-.001 0-.001 0-.002 0-.001 0-.001 0-.001 0-.002 0-.001 0-.001 0-.001 0-.001 0-.001 0-.002 0-.001 0-.001 0-.001 0-.001 0-.002 0-.001 0-.001 0-.001 0-.001 0-.001 0-.002 0-.001 0-.001 0-.001 0-.001 0-.001 0-.001 0-.001 0-.002 0-.001 0-.001 0-.001 0-.001 0-.001 0-.001 0-.001 0-.001 0-.001 0-.001 0-.001 0-.002 0-.001 0-.001 0-.001 0-.001 0-.001 0-.001 0-.001 0-.001 0-.001 0-.001 0-.001 0-.001 0-.001 0-.001 0-.001 0-.001 0-.001 0-.001 0-.001 0-.001 0-.001 0-.001 0-.001 0-.001 0-.001 0-.001 0-.001 0-.001 0-.001 0-.001 0-.001 0-.001 0-.001 0-.001 0-.001 0-.001 0-.001 0-.001 0-.001 0-.001 0-.001 0-.001 0-.001 0-.001 0-.001 0-.001 0H8.4h0-.001 0-.001 0-.001 0-.001 0-.001 0-.001 0-.001 0-.001 0-.001 0-.001 0-.001 0-.001 0-.001 0-.001 0-.001 0-.001 0-.001 0-.001 0-.001 0-.001 0-.001 0-.001 0-.001 0-.001 0-.001 0-.001 0-.001 0-.001 0-.001 0-.001 0-.001 0-.001 0-.001 0-.001 0-.001 0-.001 0-.001 0-.001 0-.001 0-.001 0-.001 0-.001 0-.001 0-.001 0-.001 0-.001 0-.001 0-.001 0-.001 0-.001 0-.001 0-.001 0-.001 0-.001 0-.001 0-.001 0-.001 0-.001 0-.001 0-.001 0-.001 0-.001 0-.001 0-.001 0-.001 0-.001a.5.5 0 00-.255.07l-3.906 2.32.78-5.015a.5.5 0 00.005-.085c0-.038.002-.164-.034-.28a.595.595 0 00-.264-.34L1.542 6.544l4.392-.753a.746.746 0 00.366-.145.958.958 0 00.118-.101l.01-.01.003-.004.002-.002h0c0-.001.001-.001-.368-.339l.369.338a.5.5 0 00.09-.137z" stroke="#E2E2E2" stroke-linejoin="round"/></svg>