<svg width="16" height="17" fill="none" xmlns="http://www.w3.org/2000/svg"><path d="M5.666 5.391L7.57 1.046l1.88 4.285a.58.58 0 00.372.42.825.825 0 00.26.043l4.37.749-3.283 3.684a.87.87 0 00-.222.506v.034h0l.5.001h-.5c0 .026.001.051.005.077l.779 5.008-3.807-2.31a.5.5 0 00-.26-.073h0-.001 0-.001 0-.002 0-.001 0-.001 0-.001 0-.002 0-.001 0-.001 0-.001 0-.002 0-.001 0-.001 0-.001 0-.002 0-.001 0-.001 0-.001 0-.001 0-.002 0-.001 0-.001 0-.001 0-.002 0-.001 0-.001 0-.001 0-.001 0-.001 0-.002 0-.001 0-.001 0-.001 0-.001 0-.002 0-.001 0-.001 0-.001 0-.001 0-.001 0-.002 0-.001 0-.001 0-.001 0-.001 0-.001 0-.001 0-.002 0-.001 0-.001 0-.001 0-.001 0-.001 0H7.6h0-.001 0-.002 0-.001 0-.001 0-.001 0-.001 0-.001 0-.001 0-.001 0-.001 0-.001 0-.001 0-.001 0-.001 0-.001 0-.001 0-.001 0-.001 0-.001 0-.001 0-.001 0-.001 0-.001 0-.001 0-.001 0-.001 0-.001 0-.001 0-.001 0-.001 0-.001 0-.001 0-.001 0-.001 0-.001 0-.001 0-.001 0-.001 0-.001 0-.001 0-.001 0-.001 0-.001 0-.001 0-.001 0-.001 0-.001 0-.001 0-.001 0-.001 0-.001 0-.001 0-.001 0-.001 0-.001 0-.001 0-.001 0-.001 0-.001 0-.001 0-.001 0-.001 0-.001 0-.001 0-.001 0-.001 0-.001 0-.001 0-.001 0-.001 0-.001 0-.001 0-.001 0-.001 0-.001 0-.001 0-.001 0-.001 0-.001 0-.001 0-.001 0-.001 0-.001 0-.001 0-.001 0-.001 0-.001 0-.001 0-.001 0-.001 0-.001 0-.001 0-.001 0-.001 0-.001 0-.001 0-.001 0H7.5h0-.001 0-.001 0-.001 0-.001 0-.001 0-.001 0-.001 0-.001 0-.001 0-.001 0-.001 0-.001 0-.001 0-.001 0-.001 0-.001 0-.001 0-.001 0-.001 0-.001 0-.001 0-.001 0-.001 0a.5.5 0 00-.255.07l-3.906 2.32.779-5.015a.5.5 0 00.006-.085c0-.038.002-.164-.034-.28a.595.595 0 00-.264-.34L.685 6.544l4.392-.753a.746.746 0 00.366-.145.958.958 0 00.118-.101l.01-.01.003-.004.001-.002h.001l-.368-.339.369.338a.5.5 0 00.089-.137z" stroke="red" stroke-linejoin="round"/></svg>