<svg width="15" height="14" fill="none" xmlns="http://www.w3.org/2000/svg"><path d="M.718 10.392v.002-.002zm-.009.067c-.005.066-.005.162.006.286.023.258.09.603.228.979.094.256.422.593.896.896.465.297.925.47 1.143.49.171.016.362.07.517.114l.125.034c.197.052.431.1.75.109.646.017 1.691-.13 3.506-.84 1.739-.68 3.242-2.033 4.36-3.39 1.128-1.367 1.805-2.664 1.945-3.168a24.534 24.534 0 01.194-.668c.046-.154.07-.246.085-.347.034-.223.036-.515.036-1.425 0-1.475-.72-2.226-1.08-2.603L13.357.86c-.076-.08-.238-.164-.442-.226a2.448 2.448 0 00-.308-.072l-.016-.003h-.002 0-.007l-.007-.002h0-.003L12.56.555l-.043-.007a7.262 7.262 0 00-.148-.02A2.986 2.986 0 0012.052.5c-.107 0-.109.004-.11.006 0 0 0 0 0 0-.012.008-.109.073-.243.386a174.668 174.668 0 00-.637 1.544 29.068 29.068 0 01-.501 1.179.31.31 0 00-.04.109.132.132 0 00.017.075l.025.051c.101.213.143.3.264.443.07.081.133.158.191.23.122.148.224.273.32.363l.006.006.006.005.01.01c.083.083.247.247.33.472.106.283.063.58-.105.865h0l-.005.01-.005.007c-.23.372-.988 1.6-2.116 2.606a9.75 9.75 0 01-2.839 1.784c-.086.037-.154.066-.202.089-.217.105-.468.191-.737.157-.29-.036-.498-.198-.651-.374-.203-.233-.925-1.073-1.189-1.463h0l-.005-.009a.469.469 0 00-.028-.039 1.846 1.846 0 00-.2.06c-.136.048-.632.28-1.18.541-.533.256-1.069.519-1.245.607l-.209.102a4.783 4.783 0 00-.265.137z" stroke="#C4C4C4"/></svg>