<svg width="15" height="16" fill="none" xmlns="http://www.w3.org/2000/svg"><path fill-rule="evenodd" clip-rule="evenodd" d="M7.639 14.787c4.065 0 7.361-3.27 7.361-7.304C15 3.443 11.704.174 7.634.174 3.568.174.272 3.444.272 7.484c0 1.377.388 2.671 1.059 3.771L0 15.175l4.081-1.3a7.344 7.344 0 003.558.912zM1.44 7.477c0-3.384 2.777-6.14 6.193-6.14 3.416 0 6.192 2.756 6.182 6.14 0 3.385-2.777 6.141-6.188 6.141a6.213 6.213 0 01-3.405-1.016l-2.379.754.776-2.279a6.091 6.091 0 01-1.18-3.6zm9.614 1.589a7.75 7.75 0 01-.092-.045c-.178-.09-1.069-.524-1.231-.582-.168-.058-.288-.089-.404.09-.12.177-.466.58-.57.701-.106.12-.21.136-.394.047l-.113-.05a4.573 4.573 0 01-1.338-.84c-.532-.475-.893-1.06-1.005-1.24v-.002c-.106-.178-.011-.278.078-.367.06-.056.127-.138.193-.219.027-.033.053-.065.08-.095a1.059 1.059 0 00.177-.299.33.33 0 00-.015-.314c-.03-.057-.19-.442-.339-.806l-.217-.525c-.148-.346-.29-.346-.395-.346h-.008c-.105 0-.299.032-.299.032s-.361.047-.53.225c-.008.01-.019.02-.03.032A1.97 1.97 0 004 5.924c0 .88.644 1.734.739 1.85l.034.05c.22.326 1.341 1.986 3.046 2.653 1.52.595 1.78.531 2.013.474.048-.012.095-.023.151-.029.33-.03 1.069-.434 1.221-.848.152-.414.152-.77.105-.844-.039-.06-.126-.102-.254-.164z" fill="#C4C4C4"/></svg>