<svg width="17" height="17" fill="none" xmlns="http://www.w3.org/2000/svg"><path fill-rule="evenodd" clip-rule="evenodd" d="M8.657 16.56c4.608 0 8.343-3.705 8.343-8.277C17 3.705 13.265 0 8.651 0 4.044 0 .31 3.705.31 8.283a8.2 8.2 0 001.2 4.276L0 17l4.626-1.473a8.323 8.323 0 004.031 1.034zM1.633 8.278c0-3.836 3.147-6.959 7.018-6.959 3.872 0 7.019 3.123 7.007 6.96 0 3.835-3.147 6.958-7.013 6.958a7.041 7.041 0 01-3.86-1.152l-2.695.856.879-2.583a6.903 6.903 0 01-1.336-4.08zm10.896 1.8a10.21 10.21 0 01-.104-.051c-.202-.101-1.212-.594-1.396-.66-.19-.065-.326-.1-.457.102-.136.202-.528.659-.647.795-.119.137-.238.155-.445.054a3.212 3.212 0 00-.13-.057c-.287-.123-.859-.366-1.515-.953-.604-.538-1.013-1.2-1.139-1.405L6.695 7.9c-.12-.202-.012-.315.089-.416.067-.063.144-.157.22-.248l.089-.108a1.2 1.2 0 00.186-.306l.015-.032a.374.374 0 00-.017-.357c-.035-.064-.214-.5-.384-.913-.094-.228-.184-.449-.246-.595-.167-.392-.33-.392-.447-.392h-.01c-.119 0-.338.036-.338.036s-.41.053-.6.255l-.035.037c-.213.222-.684.714-.684 1.656 0 .997.73 1.965.838 2.096l.039.056c.25.37 1.52 2.251 3.452 3.008 1.723.674 2.018.602 2.281.537.054-.014.107-.027.171-.033.374-.035 1.212-.492 1.384-.962.172-.469.172-.872.119-.956-.044-.068-.143-.115-.288-.186z" fill="#898989"/></svg>