<svg width="35" height="35" fill="none" xmlns="http://www.w3.org/2000/svg"><path d="M22.593 10.204c-.682-4.259-4.413-7.45-8.74-7.45H7.646V1.176a.878.878 0 00-1.499-.62l-5.89 5.89a.878.878 0 000 1.242l5.89 5.892a.879.879 0 001.5-.621v-1.58h6.206c.117 0 .232.115.232.233v22.214c0 .486.393.879.878.879h6.866a.878.878 0 00.878-.879v-14.77c0-.117.115-.232.232-.232h4.415v1.517a.878.878 0 001.5.622l5.889-5.892a.878.878 0 000-1.242l-5.89-5.891a.878.878 0 00-1.5.62v1.647h-4.76zm-8.74-.583H6.768a.878.878 0 00-.878.878v.338l-3.77-3.77 3.77-3.77v.336c0 .485.393.878.878.878h7.085c3.457 0 6.438 2.543 7 5.94a8.877 8.877 0 00-5.011 3.315v-2.155c0-1.079-.911-1.99-1.99-1.99zM29.11 18.22v-.274a.878.878 0 00-.878-.879h-5.293c-1.078 0-1.989.911-1.989 1.99v13.891h-5.108V19.056c0-3.915 3.184-7.1 7.097-7.1h5.293a.878.878 0 00.878-.878v-.4l3.77 3.77-3.77 3.771z" fill="#000"/></svg>