<svg width="19" height="19" fill="none" xmlns="http://www.w3.org/2000/svg"><path d="M19.039 6.383v2.969c0 .41-.332.742-.742.742h-.488l-.313 2.783a.742.742 0 01-1.475-.166l.387-3.442a.742.742 0 01.737-.66h.41V7.125H1.523v1.484h12.655a.742.742 0 010 1.485H2.777l.733 6.114a1.486 1.486 0 001.473 1.308h9.171c.757 0 1.39-.567 1.475-1.32a.742.742 0 111.475.167A2.966 2.966 0 0114.154 19h-9.17a2.97 2.97 0 01-2.948-2.616l-.754-6.29h-.5a.742.742 0 01-.743-.742v-2.97a.74.74 0 01.742-.741h2.633L7.336.303a.742.742 0 111.196.879L5.256 5.64h8.594l-3.276-4.46A.742.742 0 0111.77.304l3.922 5.338h2.605c.41 0 .742.332.742.742zM8.797 12.32v2.97a.742.742 0 101.484 0v-2.97a.742.742 0 00-1.484 0zm2.969 0v2.97a.742.742 0 001.484 0v-2.97a.742.742 0 00-1.484 0zm-5.938 0v2.97a.742.742 0 101.485 0v-2.97a.742.742 0 00-1.485 0z" fill="#000"/></svg>