<svg width="20" height="20" fill="none" xmlns="http://www.w3.org/2000/svg"><g clip-path="url(#clip0)"><path d="M20.039 6.719v3.125c0 .431-.35.781-.781.781h-.514l-.33 2.93a.781.781 0 01-1.552-.175l.407-3.623a.781.781 0 01.777-.695h.43V7.5H1.603v1.562h13.32a.781.781 0 010 1.563H2.92l.771 6.436a1.563 1.563 0 001.552 1.377h9.653c.796 0 1.464-.597 1.553-1.389a.781.781 0 111.553.175A3.123 3.123 0 0114.897 20H5.244a3.127 3.127 0 01-3.103-2.753l-.794-6.622H.82a.781.781 0 01-.78-.781V6.719a.78.78 0 01.78-.782h2.771L7.72.32a.781.781 0 111.259.925L5.53 5.937h9.047l-3.449-4.693a.781.781 0 111.26-.925l4.127 5.618h2.743c.431 0 .78.35.78.782zm-10.781 6.25v3.125a.781.781 0 101.562 0v-3.125a.781.781 0 00-1.562 0zm3.125 0v3.125a.781.781 0 101.562 0v-3.125a.781.781 0 10-1.562 0zm-6.25 0v3.125a.781.781 0 101.562 0v-3.125a.781.781 0 00-1.562 0z" fill="#19A15F"/></g><defs><clipPath id="clip0"><path fill="#fff" d="M0 0h20v20H0z"/></clipPath></defs></svg>