<svg width="33" height="33" fill="none" xmlns="http://www.w3.org/2000/svg"><path d="M28.805 13.014L17.87 2.078a2.899 2.899 0 00-4.454 3.673l-.015.076A20.232 20.232 0 017.85 16.2l-5.016 5.016a2.898 2.898 0 000 4.1l2.734 2.734a2.898 2.898 0 004.1 0l.684-.683 4.784 4.784a2.898 2.898 0 004.1 0 2.903 2.903 0 000-4.101L17.186 26l.684-.684a2.898 2.898 0 000-4.1l-.465-.465a20.234 20.234 0 017.651-3.267l.077-.016a2.903 2.903 0 003.672-.353 2.903 2.903 0 000-4.1zM8.302 26.681a.966.966 0 01-1.367 0L4.2 23.948a.966.966 0 010-1.367l4.784-4.784 4.1 4.101-4.783 4.784zm9.568 2.734a.968.968 0 01-1.367 1.367l-4.784-4.784 1.367-1.367 4.784 4.784zm-3.417-6.151c.29-.29.725-.736 1.412-1.322l.638.638a.966.966 0 010 1.367l-.683.684-1.367-1.367zm.04-2.693l-4.182-4.183a22.134 22.134 0 004.706-8.963l8.44 8.44a22.132 22.132 0 00-8.963 4.706zm12.945-4.825a.966.966 0 01-1.367 0L15.136 4.812a.966.966 0 111.367-1.367L27.438 14.38a.968.968 0 010 1.367z" fill="#000"/><path d="M9.673 21.215a.967.967 0 00-1.367 0L6.94 22.582a.966.966 0 101.367 1.366l1.367-1.366a.967.967 0 000-1.367zM22.31 0a.967.967 0 00-.966.967V2.9a.967.967 0 101.933 0V.967A.967.967 0 0022.31 0zm7.738 7.732h-1.933a.967.967 0 100 1.933h1.933a.967.967 0 000-1.933zm-1.254-5.515a.966.966 0 00-1.367 0L25.494 4.15a.967.967 0 001.367 1.367l1.933-1.933a.966.966 0 000-1.367z" fill="#000"/></svg>