<svg width="33" height="33" fill="none" xmlns="http://www.w3.org/2000/svg"><g clip-path="url(#clip0)" fill="#000"><path d="M9.342 31.066a.967.967 0 01-.967-.966v-.645a.967.967 0 111.934 0v.645a.967.967 0 01-.967.966z"/><path d="M9.342 31.13a.967.967 0 01-.967-.966v-.645a.967.967 0 111.934 0v.645a.967.967 0 01-.967.967zm-.967-15.21v.709a.967.967 0 101.934 0v-.71a.967.967 0 10-1.934 0zm.967 3.545a.967.967 0 00-.967.967v.709a.967.967 0 101.934 0v-.71a.967.967 0 00-.967-.966zm0 4.512a.967.967 0 00-.967.966v.71a.967.967 0 101.934 0v-.71a.967.967 0 00-.967-.966zm14.974-2.987l-2.608-.4-1.175-2.503a.967.967 0 00-1.75 0l-1.175 2.503-2.608.4a.967.967 0 00-.545 1.63l1.914 1.964-.453 2.783a.966.966 0 001.422 1.002l2.32-1.283 2.32 1.283a.968.968 0 001.423-1.002l-.454-2.783 1.915-1.963a.966.966 0 00-.546-1.63zm-3.094 2.591a.967.967 0 00-.262.831l.212 1.3-1.046-.578a.968.968 0 00-.936 0l-1.046.578.213-1.3a.967.967 0 00-.263-.83l-.942-.966 1.258-.192a.967.967 0 00.73-.545l.518-1.106.519 1.106c.137.292.41.496.73.545l1.257.192-.942.965z"/><path d="M33 13.728a.966.966 0 00-.283-.684 2.904 2.904 0 010-4.102.967.967 0 000-1.367L25.425.283a.966.966 0 00-1.367 0 2.904 2.904 0 01-4.102 0 .967.967 0 00-1.368 0L5.852 13.02H4.834a.967.967 0 00-.967.966c0 1.6-1.301 2.9-2.9 2.9a.967.967 0 00-.967.968v10.312c0 .534.433.967.967.967 1.599 0 2.9 1.301 2.9 2.9 0 .534.433.967.967.967h23.332a.967.967 0 00.967-.967c0-1.599 1.301-2.9 2.9-2.9a.967.967 0 00.967-.967V17.853a.967.967 0 00-.967-.966c-.515 0-1-.136-1.419-.373l2.103-2.102a.966.966 0 00.283-.684zm-1.934 13.568a4.849 4.849 0 00-3.77 3.77H5.704a4.849 4.849 0 00-3.77-3.77v-8.573a4.849 4.849 0 003.77-3.77h21.592a4.849 4.849 0 003.77 3.77v8.573zM18.561 12.84l-.414-1.15 1.148.416c.304.11.641.06.901-.13l1.025-.754.017 1.349a.97.97 0 00.118.449h-2.749a.993.993 0 00-.046-.18zm12.173.82l-1.396 1.396a2.884 2.884 0 01-.205-1.07.967.967 0 00-.967-.966H24.5l-1.335-.961-.033-2.742a.967.967 0 00-1.54-.767l-2.125 1.562-2.6-.94a.967.967 0 00-1.239 1.238l.94 2.601-.007.009H8.587L19.34 2.266a4.8 4.8 0 002.667.8 4.8 4.8 0 002.666-.8l6.06 6.06a4.81 4.81 0 00-.8 2.667c0 .963.28 1.883.8 2.667z"/></g><defs><clipPath id="clip0"><path fill="#fff" d="M0 0h33v33H0z"/></clipPath></defs></svg>