<svg width="33" height="33" fill="none" xmlns="http://www.w3.org/2000/svg"><path d="M29.824 28.755L27.564 7.87a1.012 1.012 0 00-1.005-.903h-3.733V6.29A6.296 6.296 0 0016.536 0a6.297 6.297 0 00-6.29 6.29v.676H6.514c-.516 0-.95.39-1.005.903l-2.26 20.886a3.838 3.838 0 00.959 2.973A3.838 3.838 0 007.059 33h18.954a3.839 3.839 0 002.852-1.272 3.838 3.838 0 00.959-2.973zM12.27 6.29a4.271 4.271 0 014.266-4.266 4.271 4.271 0 014.267 4.266v.677H12.27V6.29zm15.09 24.087c-.348.387-.826.6-1.346.6H7.059c-.52 0-.999-.213-1.346-.6a1.788 1.788 0 01-.453-1.403L7.422 8.99h2.825v2.578a1.012 1.012 0 102.023 0V8.99h8.533v2.578a1.012 1.012 0 102.023 0V8.99h2.825l2.161 19.983a1.788 1.788 0 01-.452 1.403z" fill="#000"/><path d="M16.525 18.361h1.49a1.012 1.012 0 000-2.023h-.478v-.39a1.012 1.012 0 00-2.024 0v.616c-.877.412-1.49 1.34-1.49 2.416 0 1.456 1.123 2.641 2.502 2.641.26 0 .478.283.478.618s-.219.619-.478.619h-1.49a1.012 1.012 0 000 2.023h.478v.39a1.012 1.012 0 102.024 0v-.617c.876-.41 1.49-1.338 1.49-2.415 0-1.456-1.123-2.641-2.502-2.641-.26 0-.478-.283-.478-.618 0-.336.219-.619.478-.619z" fill="#000"/></svg>