<svg width="35" height="35" fill="none" xmlns="http://www.w3.org/2000/svg"><path d="M31.516 7.936h-7.542V4.898a2.627 2.627 0 00-2.624-2.625h-7.7a2.627 2.627 0 00-2.624 2.625v3.038H3.484A3.488 3.488 0 000 11.421v17.82a3.488 3.488 0 003.484 3.485h28.032A3.488 3.488 0 0035 29.24V11.42a3.488 3.488 0 00-3.484-3.485zM13.249 4.898c0-.222.18-.402.401-.402h7.7c.221 0 .401.18.401.402v3.038h-8.503V4.898zM2.223 11.42c0-.696.566-1.262 1.261-1.262h28.032c.695 0 1.261.566 1.261 1.262v1.645a3.51 3.51 0 01-2.515 3.352l-11.624 3.385a4.062 4.062 0 01-2.276 0L4.74 16.418a3.51 3.51 0 01-2.516-3.352V11.42zm29.293 19.082H3.484a1.263 1.263 0 01-1.261-1.261V17.59a5.69 5.69 0 001.894.961c12.84 3.739 12.18 3.636 13.383 3.636 1.218 0 .527.107 13.383-3.636a5.688 5.688 0 001.894-.961v11.65c0 .696-.566 1.262-1.261 1.262z" fill="#000"/></svg>