<svg width="33" height="33" fill="none" xmlns="http://www.w3.org/2000/svg"><g clip-path="url(#clip0)"><path d="M32.655 12.13l-8.25-8.25a1.179 1.179 0 00-2.012.834v3.535h-8.25a1.179 1.179 0 000 2.357h9.429c.65 0 1.178-.527 1.178-1.178v-1.87l5.405 5.406-5.405 5.405v-1.87c0-.65-.527-1.178-1.178-1.178H10.607v-3.536a1.179 1.179 0 00-2.012-.833l-8.25 8.25c-.46.46-.46 1.206 0 1.666l8.25 8.25a1.178 1.178 0 002.012-.833V24.75h8.25a1.179 1.179 0 100-2.358H9.43a1.18 1.18 0 00-1.18 1.179v1.87l-5.404-5.406L8.25 14.63v1.87c0 .65.528 1.178 1.179 1.178h12.964v3.536a1.178 1.178 0 002.012.833l8.25-8.25a1.18 1.18 0 000-1.667z" fill="#19A15F"/></g><defs><clipPath id="clip0"><path fill="#fff" d="M0 0h33v33H0z"/></clipPath></defs></svg>