<svg width="52" height="52" fill="none" xmlns="http://www.w3.org/2000/svg"><g clip-path="url(#clip0)" fill="#000"><path d="M27.632 52h-3.264a4.792 4.792 0 01-4.787-4.787V46.11a20.996 20.996 0 01-3.26-1.353l-.782.782c-1.895 1.898-4.93 1.842-6.77 0L6.461 43.23c-1.844-1.841-1.897-4.876 0-6.77l.782-.782a20.996 20.996 0 01-1.353-3.26H4.787A4.793 4.793 0 010 27.632v-3.264a4.792 4.792 0 014.787-4.787h1.104a20.997 20.997 0 011.353-3.26l-.782-.782c-1.896-1.894-1.844-4.929 0-6.77L8.77 6.461a4.787 4.787 0 016.77 0l.782.782a21.011 21.011 0 013.26-1.353V4.787A4.792 4.792 0 0124.368 0h3.264a4.792 4.792 0 014.787 4.787v1.104c1.122.359 2.212.811 3.26 1.353l.782-.782c1.895-1.898 4.93-1.842 6.77 0l2.307 2.307c1.844 1.841 1.897 4.876 0 6.77l-.782.782a20.995 20.995 0 011.353 3.26h1.104A4.792 4.792 0 0152 24.368v3.264a4.792 4.792 0 01-4.787 4.787h-1.104a21.002 21.002 0 01-1.353 3.26l.782.782c1.896 1.894 1.844 4.929 0 6.77l-2.307 2.307a4.787 4.787 0 01-6.77 0l-.782-.782a21.016 21.016 0 01-3.26 1.353v1.104A4.792 4.792 0 0127.632 52zM16.83 41.556a17.98 17.98 0 004.654 1.933c.673.173 1.143.78 1.143 1.475v2.25c0 .959.78 1.74 1.74 1.74h3.264c.96 0 1.74-.782 1.74-1.74v-2.25c0-.695.47-1.302 1.143-1.475a17.957 17.957 0 004.654-1.933 1.524 1.524 0 011.853.234l1.594 1.594a1.74 1.74 0 002.46 0l2.308-2.308a1.74 1.74 0 000-2.46l-1.593-1.594a1.524 1.524 0 01-.234-1.853 17.953 17.953 0 001.932-4.654 1.523 1.523 0 011.475-1.143h2.25c.959 0 1.74-.78 1.74-1.74v-3.264c0-.96-.782-1.74-1.74-1.74h-2.25c-.695 0-1.302-.47-1.475-1.143a17.957 17.957 0 00-1.932-4.654 1.524 1.524 0 01.234-1.853l1.593-1.593a1.74 1.74 0 000-2.46l-2.307-2.309a1.74 1.74 0 00-2.46 0l-1.595 1.594a1.524 1.524 0 01-1.852.234 17.957 17.957 0 00-4.655-1.932 1.523 1.523 0 01-1.143-1.475v-2.25c0-.96-.78-1.74-1.74-1.74h-3.264c-.96 0-1.74.78-1.74 1.74v2.25c0 .694-.47 1.3-1.143 1.474a17.957 17.957 0 00-4.654 1.933 1.524 1.524 0 01-1.853-.234l-1.593-1.594a1.74 1.74 0 00-2.46 0l-2.309 2.308a1.74 1.74 0 000 2.46l1.594 1.594c.491.492.588 1.254.234 1.853a17.954 17.954 0 00-1.932 4.654 1.523 1.523 0 01-1.476 1.143H4.787c-.96 0-1.74.78-1.74 1.74v3.264c0 .96.78 1.74 1.74 1.74h2.25c.694 0 1.3.47 1.474 1.143a17.957 17.957 0 001.933 4.654 1.525 1.525 0 01-.235 1.853l-1.593 1.593a1.74 1.74 0 000 2.46l2.308 2.309a1.74 1.74 0 002.46 0l1.594-1.594c.362-.362 1.116-.67 1.853-.234z"/><path d="M26.002 37.314c-6.24 0-11.314-5.076-11.314-11.314 0-6.239 5.075-11.315 11.314-11.315 6.238 0 11.314 5.076 11.314 11.315 0 6.238-5.076 11.314-11.314 11.314zm0-19.582c-4.56 0-8.268 3.71-8.268 8.268 0 4.558 3.709 8.267 8.268 8.267 4.558 0 8.267-3.709 8.267-8.267 0-4.559-3.709-8.268-8.267-8.268z"/></g><defs><clipPath id="clip0"><path fill="#fff" d="M0 0h52v52H0z"/></clipPath></defs></svg>