<svg width="52" height="52" fill="none" xmlns="http://www.w3.org/2000/svg"><path d="M35.263 30.59l-7.25-5.437V14.077c0-1.114-.9-2.014-2.015-2.014-1.113 0-2.014.9-2.014 2.013V26.16c0 .634.298 1.233.806 1.611l8.056 6.042a2 2 0 001.206.403c.614 0 1.218-.276 1.613-.808a2.01 2.01 0 00-.402-2.817z" fill="#000"/><path d="M26 0C11.663 0 0 11.663 0 26s11.663 26 26 26 26-11.663 26-26S40.337 0 26 0zm0 47.972C13.886 47.972 4.028 38.114 4.028 26S13.886 4.028 26 4.028c12.116 0 21.972 9.858 21.972 21.972S38.114 47.972 26 47.972z" fill="#000"/></svg>