<svg width="53" height="53" fill="none" xmlns="http://www.w3.org/2000/svg"><path d="M42.023 18.803c-4.494-4.964-7.165-9.332-8.614-12.124-1.57-3.023-2.083-4.898-2.087-4.913L30.854 0l-1.668.744c-.195.087-4.805 2.19-7.388 7.355-1.297 2.594-1.556 5.481-1.545 7.447a2.4 2.4 0 01-1.927 2.361 2.393 2.393 0 01-2.165-.655l-3.108-3.108-1.07 1.474c-.11.153-2.723 3.756-3.199 4.476A21.128 21.128 0 005.282 31.94c.042 5.653 2.265 10.95 6.26 14.914C15.537 50.817 20.85 53 26.504 53c11.701 0 21.222-9.52 21.222-21.222 0-4.243-2.079-8.972-5.703-12.975zm-15.52 31.089c-4.827 0-9.363-1.863-12.772-5.245-3.408-3.383-5.305-7.904-5.34-12.731a18.028 18.028 0 012.987-10.108c.242-.367 1.212-1.72 2.055-2.889l.53.53a5.494 5.494 0 004.973 1.506 5.513 5.513 0 004.425-5.426c-.009-1.627.195-3.995 1.217-6.04 1.244-2.488 3.104-4.114 4.396-5.018 1.17 2.973 4.132 9.115 10.744 16.418 1.473 1.627 4.9 5.945 4.9 10.889 0 9.988-8.126 18.114-18.114 18.114z" fill="#000"/><path d="M29.651 26.37l-9.745 14.27h3.446l9.745-14.27h-3.446zm2.079 6.523c-2.161 0-3.793 1.447-3.793 3.975 0 2.549 1.631 3.976 3.793 3.976 2.16 0 3.792-1.427 3.792-3.976 0-2.528-1.631-3.975-3.792-3.975zm0 5.749c-.449 0-.897-.408-.897-1.774s.448-1.774.897-1.774c.448 0 .897.408.897 1.774s-.449 1.774-.897 1.774zm-6.661-8.502c0-2.528-1.631-3.976-3.793-3.976-2.16 0-3.792 1.448-3.792 3.976 0 2.548 1.631 3.975 3.792 3.975 2.162 0 3.793-1.427 3.793-3.975zm-4.69 0c0-1.366.449-1.774.897-1.774.449 0 .898.408.898 1.774s-.449 1.773-.898 1.773c-.448 0-.896-.407-.896-1.773z" fill="#000"/></svg>