<svg width="52" height="52" fill="none" xmlns="http://www.w3.org/2000/svg"><path d="M39.66 19.137a19.393 19.393 0 00-13.66-5.6 19.218 19.218 0 00-13.658 5.652 19.311 19.311 0 00-5.756 13.606c0 .733.576 1.36 1.308 1.36.733 0 1.36-.575 1.36-1.308a4.872 4.872 0 011.414-3.244c.837-.838 1.988-1.308 3.297-1.308 1.308 0 2.46.523 3.349 1.36.837.837 1.36 2.041 1.36 3.35 0 .732.576 1.308 1.309 1.308.732 0 1.308-.576 1.308-1.309 0-1.308.523-2.46 1.36-3.349.524-.523 1.257-.942 1.99-1.204l-.053 19.31v.053c0 1.151.47 2.198 1.204 2.983.732.733 1.831 1.204 2.982 1.204 1.152 0 2.198-.471 2.983-1.204.785-.785 1.256-1.832 1.256-2.983 0-.733-.575-1.308-1.308-1.308-.733 0-1.308.575-1.308 1.308 0 .419-.157.837-.419 1.1-.262.26-.68.47-1.099.47-.419 0-.785-.157-1.099-.47-.262-.263-.47-.681-.47-1.1v-.052l.052-19.31a4.087 4.087 0 011.988 1.203c.837.837 1.36 2.041 1.36 3.35 0 .732.576 1.308 1.309 1.308s1.308-.576 1.308-1.309c0-1.308.524-2.46 1.36-3.349.838-.837 2.042-1.36 3.35-1.36 1.256 0 2.46.523 3.297 1.308.837.837 1.413 1.988 1.413 3.244 0 .733.628 1.309 1.308 1.309.785-.053 1.36-.628 1.36-1.413-.051-5.338-2.25-10.1-5.756-13.606zm-1.57 6.436a7.314 7.314 0 00-5.181 2.146 7.657 7.657 0 00-.838.994 7.649 7.649 0 00-.837-.994 7.408 7.408 0 00-5.18-2.146 7.318 7.318 0 00-5.182 2.146 7.657 7.657 0 00-.837.994 7.657 7.657 0 00-.837-.994 7.408 7.408 0 00-5.181-2.146c-1.204 0-2.355.314-3.401.838a15.897 15.897 0 013.663-5.39c3.035-2.983 7.221-4.867 11.826-4.867 4.606 0 8.792 1.831 11.827 4.866a17.551 17.551 0 013.664 5.39c-1.152-.523-2.303-.837-3.507-.837zM27.52 1.082c-.209-.21-.366-.471-.47-.576-.053-.105-.157-.157-.21-.21-.575-.47-1.413-.366-1.884.21-.104.105-.261.314-.47.576-.995 1.15-2.408 2.773-2.408 4.343 0 1.047.419 2.041 1.151 2.774a3.832 3.832 0 002.774 1.15c1.099 0 2.04-.418 2.773-1.15a3.831 3.831 0 001.152-2.774c0-1.57-1.413-3.192-2.407-4.343zm-.627 5.233a1.262 1.262 0 01-1.78 0 1.263 1.263 0 01-.366-.89c0-.523.628-1.308 1.256-2.093.628.732 1.256 1.57 1.256 2.093 0 .366-.157.68-.366.89zm-16.646.681c-.21-.21-.366-.471-.47-.576-.053-.105-.158-.157-.21-.21-.576-.47-1.413-.366-1.884.21-.105.105-.262.314-.471.576-.994 1.15-2.407 2.773-2.407 4.343a3.92 3.92 0 001.151 2.774 3.831 3.831 0 002.774 1.151 3.831 3.831 0 002.773-1.151 3.832 3.832 0 001.151-2.774c0-1.622-1.36-3.192-2.407-4.343zm-.628 5.233a1.263 1.263 0 01-1.78 0 1.262 1.262 0 01-.365-.89c0-.523.628-1.308 1.256-2.093.628.733 1.255 1.57 1.255 2.093 0 .367-.156.68-.366.89zm35.167-5.233c-.21-.21-.366-.471-.47-.576-.053-.105-.158-.157-.21-.21-.576-.47-1.413-.366-1.884.21-.105.105-.262.314-.471.576-.994 1.15-2.407 2.773-2.407 4.343a3.92 3.92 0 001.151 2.774 3.831 3.831 0 002.774 1.151c1.099 0 2.04-.419 2.773-1.151a3.832 3.832 0 001.151-2.774c0-1.622-1.412-3.192-2.407-4.343zm-.628 5.233a1.263 1.263 0 01-1.779 0 1.262 1.262 0 01-.366-.89c0-.523.628-1.308 1.256-2.093.628.733 1.256 1.57 1.256 2.093 0 .367-.157.68-.367.89z" fill="#000"/></svg>