<svg width="57" height="57" fill="none" xmlns="http://www.w3.org/2000/svg"><path d="M43.044 33.889a7.193 7.193 0 00-7.185 7.185c0 3.961 3.223 7.184 7.185 7.184a7.193 7.193 0 007.185-7.184 7.193 7.193 0 00-7.185-7.185zm0 10.777a3.596 3.596 0 01-3.592-3.592 3.596 3.596 0 013.592-3.593 3.596 3.596 0 013.593 3.593 3.596 3.596 0 01-3.593 3.592zM18.505 33.889a7.193 7.193 0 00-7.185 7.185c0 3.961 3.223 7.184 7.185 7.184 3.962 0 7.185-3.223 7.185-7.184a7.193 7.193 0 00-7.185-7.185zm0 10.777a3.596 3.596 0 01-3.592-3.592 3.596 3.596 0 013.592-3.593 3.597 3.597 0 013.593 3.593 3.596 3.596 0 01-3.593 3.592zm29.389-31.343a1.797 1.797 0 00-1.606-.989h-9.46v3.592h8.352l4.892 9.729 3.21-1.614-5.388-10.718z" fill="#000"/><path d="M37.662 39.338H24.07v3.592h13.592v-3.592zm-24.553 0H6.882a1.796 1.796 0 100 3.592h6.227a1.796 1.796 0 100-3.592zM56.62 28.357l-3.534-4.55a1.794 1.794 0 00-1.418-.695H38.615V10.538c0-.992-.804-1.796-1.796-1.796H6.882a1.796 1.796 0 100 3.592h28.14v12.574c0 .992.805 1.796 1.797 1.796h13.97l2.615 3.37v9.264h-4.97a1.796 1.796 0 100 3.592H55.2c.992 0 1.796-.804 1.797-1.796V29.459c0-.4-.133-.787-.378-1.102zm-43.631 1.879H4.726a1.796 1.796 0 100 3.593h8.262a1.796 1.796 0 100-3.593zm4.135-7.064H1.796a1.796 1.796 0 100 3.592h15.328a1.796 1.796 0 100-3.592z" fill="#000"/><path d="M20.054 16.105H4.726a1.796 1.796 0 100 3.593h15.328a1.796 1.796 0 100-3.593z" fill="#000"/></svg>