<svg width="53" height="53" fill="none" xmlns="http://www.w3.org/2000/svg"><path d="M45.428 18.929h-1.893v-1.893C43.525 7.63 35.903.01 26.499 0 17.095.01 9.474 7.631 9.463 17.036v1.893H7.571a1.893 1.893 0 00-1.893 1.893v30.285c0 1.046.847 1.893 1.893 1.893h37.857a1.893 1.893 0 001.893-1.893V20.821a1.893 1.893 0 00-1.893-1.892zm-32.179-1.893c0-7.318 5.932-13.25 13.25-13.25s13.25 5.932 13.25 13.25v1.893h-26.5v-1.893zm30.286 32.178H9.463v-26.5h34.072v26.5z" fill="#000"/><path d="M31.855 32.176a5.665 5.665 0 00-5.355-3.783A5.665 5.665 0 0024.608 39.4v4.134a1.893 1.893 0 103.785 0v-4.133a5.665 5.665 0 003.462-7.226zM26.5 35.964a1.893 1.893 0 110-3.786 1.893 1.893 0 010 3.786z" fill="#000"/></svg>