<svg width="23" height="23" fill="none" xmlns="http://www.w3.org/2000/svg"><g clip-path="url(#clip0)"><path d="M.326 1.909a1.14 1.14 0 010-1.587 1.14 1.14 0 011.587 0l9.523 9.539L20.975.32a1.12 1.12 0 011.57 0 1.112 1.112 0 010 1.588l-9.522 9.524 9.523 9.539a1.112 1.112 0 010 1.587 1.12 1.12 0 01-1.571 0l-9.54-9.54-9.522 9.54a1.14 1.14 0 01-1.587 0c-.43-.444-.43-1.16 0-1.587l9.523-9.54L.326 1.91z" fill="#939393"/></g><defs><clipPath id="clip0"><path fill="#fff" d="M0 0h22.88v22.88H0z"/></clipPath></defs></svg>