<svg width="19" height="19" fill="none" xmlns="http://www.w3.org/2000/svg"><path d="M17.24 12.843V3.696a.706.706 0 00-.703-.704H2.463a.705.705 0 00-.704.704v9.147L0 14.955c0 .581.472 1.054 1.056 1.054h16.888c.583 0 1.056-.473 1.056-1.054l-1.76-2.112zm-6.332 2.816H8.093a.176.176 0 01-.176-.176c0-.098.079-.177.176-.177h2.816c.096 0 .176.079.176.177a.178.178 0 01-.177.176zM6.6 14.955l.537-.644h4.727l.537.644H6.6zm9.65-3.356c0 .34-.276.614-.613.614H3.363a.616.616 0 01-.613-.614v-7.36c0-.34.276-.615.613-.615h12.274c.337 0 .613.276.613.614v7.36z" fill="#515154"/></svg>