<svg width="17" height="17" fill="none" xmlns="http://www.w3.org/2000/svg"><g clip-path="url(#clip0)"><path d="M15.583.709H1.417C.636.709 0 1.344 0 2.126v9.916c0 .782.636 1.417 1.417 1.417h4.96c-.015.565-.123 1.469-.528 1.896a.696.696 0 01-.537.229.354.354 0 100 .708h6.375a.354.354 0 100-.708.693.693 0 01-.535-.229c-.404-.425-.513-1.33-.528-1.896h4.96c.78 0 1.416-.635 1.416-1.417V2.126c0-.782-.636-1.417-1.417-1.417zM8.5 12.753a.711.711 0 010-1.421.711.711 0 010 1.42zm-7.083-2.127v-8.5h14.166l.001 8.5H1.417z" fill="#515154"/></g><defs><clipPath id="clip0"><path fill="#fff" d="M0 0h17v17H0z"/></clipPath></defs></svg>