<svg width="19" height="19" fill="none" xmlns="http://www.w3.org/2000/svg"><path d="M13.458 3.167h-.175l-.64-2.568a.792.792 0 00-.77-.599h-4.75a.792.792 0 00-.768.6l-.64 2.567H5.54a2.375 2.375 0 00-2.375 2.375v7.916a2.375 2.375 0 002.375 2.375h.174l.642 2.568a.792.792 0 00.767.599h4.75c.363 0 .68-.247.768-.6l.642-2.567h.174a2.375 2.375 0 002.375-2.375V5.542a2.375 2.375 0 00-2.375-2.375zM7.743 1.583h3.513l.396 1.584H7.347l.396-1.584zm3.513 15.834H7.743l-.396-1.584h4.305l-.396 1.584zm2.993-3.959a.792.792 0 01-.791.792H5.54a.792.792 0 01-.792-.792V5.542c0-.438.355-.792.792-.792h7.917c.437 0 .791.354.791.792v7.916z" fill="#515154"/></svg>