<svg width="19" height="19" fill="none" xmlns="http://www.w3.org/2000/svg"><path d="M9.5 14.065a.928.928 0 100-1.856.928.928 0 000 1.856z" fill="#515154"/><path d="M13.953 0H5.047A2.23 2.23 0 002.82 2.227v14.546A2.23 2.23 0 005.047 19h8.906a2.23 2.23 0 002.227-2.227V2.227A2.23 2.23 0 0013.953 0zm.742 16.773c0 .41-.333.743-.742.743H5.047a.743.743 0 01-.742-.743V8.758h10.39v8.015zm0-9.5H4.305V2.227c0-.41.333-.743.742-.743h8.906c.41 0 .742.333.742.743v5.046z" fill="#515154"/><path d="M9.5 16.662a3.53 3.53 0 003.525-3.525A3.53 3.53 0 009.5 9.61a3.53 3.53 0 00-3.525 3.526A3.53 3.53 0 009.5 16.662zm0-5.566c1.125 0 2.041.915 2.041 2.04A2.043 2.043 0 019.5 15.179a2.043 2.043 0 01-2.041-2.041c0-1.126.916-2.041 2.041-2.041z" fill="#515154"/></svg>