<svg width="24" height="24" fill="none" xmlns="http://www.w3.org/2000/svg"><g clip-path="url(#clip0)" fill="#000"><path d="M23.47 3.494a.857.857 0 00-.934.186l-3.669 3.668-2.107-2.186 3.571-3.71A.857.857 0 0019.714 0h-6a.857.857 0 00-.606.251L9.679 3.68a.857.857 0 00-.251.606v4.788l-8.29 8.29a3.887 3.887 0 105.498 5.497l8.29-8.29h4.787a.86.86 0 00.607-.25l3.428-3.43a.857.857 0 00.251-.605v-6a.857.857 0 00-.529-.792zM22.285 9.93l-2.926 2.926H14.57a.857.857 0 00-.606.251l-8.54 8.541a2.174 2.174 0 11-3.074-3.073l8.54-8.542a.857.857 0 00.251-.606V4.641l2.926-2.927H17.7L14.956 4.57a.857.857 0 000 1.19l3.287 3.407c.16.166.379.26.61.262a.991.991 0 00.613-.25l2.819-2.823V9.93z"/><path d="M5.732 18.25a.857.857 0 00-1.191 0l-.857.858a.857.857 0 101.212 1.212l.857-.858a.857.857 0 00-.021-1.212z"/></g><defs><clipPath id="clip0"><path fill="#fff" d="M0 0h24v24H0z"/></clipPath></defs></svg>