<svg width="24" height="24" fill="none" xmlns="http://www.w3.org/2000/svg"><path d="M12 0C7.348 0 3.562 3.785 3.562 8.438a8.42 8.42 0 001.26 4.436l6.698 10.794a.703.703 0 00.597.332h.006a.703.703 0 00.597-.342l6.527-10.898a8.427 8.427 0 001.19-4.322C20.438 3.785 16.652 0 12 0zm6.04 12.038l-5.933 9.908-6.09-9.813A7.022 7.022 0 014.96 8.438c0-3.878 3.163-7.042 7.04-7.042 3.877 0 7.036 3.163 7.036 7.04a7.025 7.025 0 01-.995 3.601z" fill="#19A15F"/><path d="M12 4.219a4.224 4.224 0 00-4.219 4.218A4.213 4.213 0 0012 12.657a4.21 4.21 0 004.219-4.22A4.224 4.224 0 0012 4.22zm0 7.04a2.824 2.824 0 01-2.822-2.822A2.832 2.832 0 0112 5.617a2.828 2.828 0 012.817 2.822A2.819 2.819 0 0112 11.258z" fill="#19A15F"/></svg>