<svg width="28" height="29" fill="none" xmlns="http://www.w3.org/2000/svg"><path d="M14 .497C6.263.497 0 6.87 0 14.746c0 7.874 6.262 14.248 14 14.248 7.737 0 14-6.372 14-14.248C28 6.87 21.738.497 14 .497zm0 26.821c-6.811 0-12.353-5.64-12.353-12.572C1.647 7.813 7.19 2.173 14 2.173s12.353 5.64 12.353 12.573c0 6.932-5.542 12.572-12.353 12.572z" fill="#19A15F"/><path d="M18.94 16.912v-5.939c0-3.004-2.401-5.448-5.353-5.448-2.951 0-5.353 2.444-5.353 5.448v12.154h1.647V10.973c0-2.08 1.663-3.771 3.706-3.771 2.044 0 3.706 1.692 3.706 3.771v5.94l-1.888-1.922-1.165 1.185 3.877 3.945 3.876-3.945-1.165-1.185-1.888 1.921z" fill="#19A15F"/></svg>