<svg width="19" height="19" fill="none" xmlns="http://www.w3.org/2000/svg"><g clip-path="url(#clip0)" fill="#515154"><path d="M12.95.247A.589.589 0 0012.469 0H6.53a.593.593 0 00-.563.781l1.188 3.563c.08.242.307.406.563.406h3.562a.594.594 0 00.563-.405L13.032.783a.59.59 0 00-.082-.536zm-2.096 3.316H8.146l-.79-2.376h4.29l-.792 2.375z"/><path d="M14.235 14.113L11.86 4.02a.593.593 0 10-1.155.273l2.298 9.772L9.5 17.567l-3.503-3.502 2.3-9.772A.594.594 0 007.14 4.02L4.766 14.115a.59.59 0 00.158.555l4.156 4.157a.596.596 0 00.841-.002l4.156-4.156a.594.594 0 00.158-.556z"/></g><defs><clipPath id="clip0"><path fill="#fff" d="M0 0h19v19H0z"/></clipPath></defs></svg>