<svg width="19" height="19" fill="none" xmlns="http://www.w3.org/2000/svg"><path d="M11.043 0H3.518a1.04 1.04 0 00-1.04 1.04v16.92c0 .574.467 1.04 1.04 1.04H15.48a1.04 1.04 0 001.04-1.04V5.13c0-.278-.109-.539-.305-.735L11.766.293A1.032 1.032 0 0011.043 0zm4.177 17.7H3.778V1.3h6.215v3.484c0 .77.626 1.396 1.395 1.396h3.832V17.7zM11.388 4.88a.096.096 0 01-.095-.096V2.049L14.32 4.88h-2.933zm-5.37 2.796h7.059v1.3H6.018v-1.3zm0 2.165h7.059v1.3H6.018v-1.3zm0 2.165h7.059v1.3H6.018v-1.3zm0 2.165h4.028v1.3H6.018v-1.3z" fill="#515154"/></svg>