<svg width="18" height="18" fill="none" xmlns="http://www.w3.org/2000/svg"><g clip-path="url(#clip0)" fill="#fff"><path d="M14.271 6.386c-1.526-1.686-2.433-3.17-2.925-4.118-.533-1.026-.708-1.663-.71-1.668l-.158-.6-.566.253c-.067.03-1.632.743-2.51 2.498-.44.88-.528 1.861-.524 2.529a.815.815 0 01-1.39.579L4.432 4.803l-.363.501c-.037.052-.925 1.276-1.086 1.52a7.176 7.176 0 00-1.19 4.023 7.164 7.164 0 002.126 5.065A7.167 7.167 0 009.001 18c3.974 0 7.207-3.233 7.207-7.207 0-1.441-.706-3.048-1.937-4.407zm-5.27 10.558a6.12 6.12 0 01-4.338-1.78 6.115 6.115 0 01-1.814-4.325 6.123 6.123 0 011.015-3.433c.082-.124.411-.584.697-.98l.18.18a1.866 1.866 0 001.69.51 1.872 1.872 0 001.502-1.842C7.93 4.72 8 3.917 8.347 3.223A4.658 4.658 0 019.84 1.518c.397 1.01 1.403 3.096 3.649 5.576.5.553 1.663 2.02 1.663 3.699a6.159 6.159 0 01-6.151 6.151z"/><path d="M10.07 8.955l-3.31 4.847h1.17l3.31-4.847h-1.17zm.706 2.217c-.734 0-1.288.492-1.288 1.35 0 .866.554 1.35 1.288 1.35s1.288-.484 1.288-1.35c0-.858-.554-1.35-1.288-1.35zm0 1.952c-.152 0-.304-.138-.304-.602 0-.464.152-.602.304-.602s.305.138.305.602c0 .464-.152.602-.305.602zm-2.263-2.887c0-.859-.554-1.35-1.288-1.35s-1.287.491-1.287 1.35c0 .865.553 1.35 1.287 1.35.734 0 1.288-.485 1.288-1.35zm-1.592 0c0-.464.152-.603.304-.603.153 0 .305.139.305.603 0 .464-.152.602-.305.602-.152 0-.304-.138-.304-.602z"/></g><defs><clipPath id="clip0"><path fill="#fff" d="M0 0h18v18H0z"/></clipPath></defs></svg>