<svg width="18" height="18" fill="none" xmlns="http://www.w3.org/2000/svg"><g clip-path="url(#clip0)"><path d="M13.208 9.896l-1.983 1.983a18.28 18.28 0 01-2.773-2.291c-.9-.9-1.68-1.849-2.326-2.826L8.1 4.788 3.277-.035.8 2.442l-.014.015C-.151 3.47-.218 5.182.596 7.276c.765 1.965 2.232 4.093 4.132 5.992 1.922 1.922 4.072 3.398 6.055 4.155.947.362 1.813.542 2.57.542.938 0 1.708-.276 2.258-.826l2.42-2.42-4.823-4.823zm3.331 4.823l-1.089 1.088-3.33-3.33 1.088-1.09 3.331 3.332zM6.61 4.788L4.784 6.61 1.465 3.29l1.812-1.833 3.331 3.33zm4.55 11.65c-1.847-.706-3.866-2.096-5.685-3.916-1.798-1.798-3.181-3.797-3.894-5.629C.964 5.31.925 4.011 1.464 3.29l3.321 3.32-.002.003.222.355a19.023 19.023 0 002.701 3.366A19.072 19.072 0 0011.016 13l.356.224.74-.763 3.338 3.346c-1.262 1.155-1.608 1.155-4.29.63z" fill="#fff"/></g><defs><clipPath id="clip0"><path fill="#fff" d="M0 0h18v18H0z"/></clipPath></defs></svg>