<svg width="18" height="18" fill="none" xmlns="http://www.w3.org/2000/svg"><g clip-path="url(#clip0)"><path d="M4.029 17.637a.957.957 0 01-.932-1.17l1.158-5.102L.327 7.922A.956.956 0 01.87 6.247l5.196-.471L8.12.968a.956.956 0 011.76 0l2.054 4.808 5.195.471a.955.955 0 01.824.658.956.956 0 01-.28 1.016l-3.927 3.444 1.158 5.1a.956.956 0 01-1.423 1.034L9 14.822 4.52 17.5a.958.958 0 01-.491.136zM9 13.668a.96.96 0 01.49.136l4.23 2.529-1.094-4.814a.957.957 0 01.303-.933l3.708-3.252-4.905-.445a.956.956 0 01-.795-.58L9 1.772 7.061 6.31a.953.953 0 01-.793.577l-4.906.446 3.708 3.252c.265.232.382.59.303.933L4.28 16.332l4.228-2.528a.96.96 0 01.49-.136zm-2.974-7.8v.002-.001zm5.946-.002l.001.002v-.002z" fill="#fff"/></g><defs><clipPath id="clip0"><path fill="#fff" d="M0 0h18v18H0z"/></clipPath></defs></svg>