<svg width="18" height="18" fill="none" xmlns="http://www.w3.org/2000/svg"><g clip-path="url(#clip0)"><path d="M15.69 5.073L4.82 15.75 2.57 13.5 13.13 2.478a.851.851 0 011.185.004l1.378 1.417a.845.845 0 01-.004 1.174zM2.57 13.5l2.25 2.25-2.965.587.715-2.837zM16.712 2.897L15.334 1.48c-.467-.52-1.93-1.259-3.216-.014L1.615 12.1a.702.702 0 00-.182.316l-1.266 4.68c-.162.597.148.966.689.903.05-.007 4.954-1.058 4.954-1.058a.714.714 0 00.355-.197L16.698 6.078a2.28 2.28 0 00.014-3.181z" fill="#fff"/></g><defs><clipPath id="clip0"><path fill="#fff" d="M0 0h18v18H0z"/></clipPath></defs></svg>