<svg width="18" height="18" fill="none" xmlns="http://www.w3.org/2000/svg"><path d="M17.485 2.461a.678.678 0 00-.96-.001l-8.138 8.117-2.936-3.19a.679.679 0 00-.998.92l3.414 3.708c.125.136.3.215.485.219h.014a.68.68 0 00.48-.198l8.637-8.616a.678.678 0 00.002-.959z" fill="#fff"/><path d="M17.322 8.322a.678.678 0 00-.679.678c0 4.215-3.428 7.643-7.643 7.643-4.214 0-7.643-3.428-7.643-7.643 0-4.214 3.429-7.643 7.643-7.643A.678.678 0 109 0C4.037 0 0 4.037 0 9c0 4.962 4.037 9 9 9 4.962 0 9-4.038 9-9a.678.678 0 00-.678-.678z" fill="#fff"/></svg>