<svg width="18" height="19" fill="none" xmlns="http://www.w3.org/2000/svg"><g clip-path="url(#clip0)"><path d="M17.812 7.17l-4.5-4.456a.647.647 0 00-.91 0 .633.633 0 00-.188.45v1.91h-4.5a.64.64 0 00-.643.636.64.64 0 00.643.637h5.143a.64.64 0 00.643-.637V4.7l2.948 2.92-2.948 2.92V9.53a.64.64 0 00-.643-.636H5.786v-1.91a.64.64 0 00-.643-.637.646.646 0 00-.455.187l-4.5 4.456a.632.632 0 000 .9l4.5 4.457a.646.646 0 001.098-.45v-1.91h4.5a.64.64 0 00.643-.637.64.64 0 00-.643-.636H5.143a.64.64 0 00-.643.636v1.01l-2.948-2.92L4.5 8.52v1.01a.64.64 0 00.643.637h7.071v1.91a.646.646 0 001.097.45l4.5-4.456a.632.632 0 000-.9z" fill="#fff"/></g><defs><clipPath id="clip0"><path fill="#fff" transform="translate(0 .617)" d="M0 0h18v17.826H0z"/></clipPath></defs></svg>