<svg width="52" height="52" fill="none" xmlns="http://www.w3.org/2000/svg"><g clip-path="url(#clip0)"><path d="M20.313 0a1.524 1.524 0 00-1.446 2.004c.04.12 3.929 12.119-1.786 17.833l-2.154 2.155c-2.602 2.601-2.925 6.63-.97 9.587l-12.62 12.62a4.575 4.575 0 000 6.464 4.575 4.575 0 006.463 0l12.62-12.62a7.615 7.615 0 009.588-.97l2.155-2.154c5.717-5.717 17.713-1.826 17.834-1.786A1.524 1.524 0 0052 31.687c0-8.464-3.296-16.42-9.28-22.406C36.733 3.296 28.776 0 20.312 0zM5.645 48.509a1.525 1.525 0 01-2.154 0 1.525 1.525 0 010-2.155l12.513-12.512 2.154 2.154L5.645 48.51zm22.208-13.59a4.568 4.568 0 01-6.463 0l-4.31-4.31a4.576 4.576 0 010-6.463l1.078-1.077 10.773 10.773-1.078 1.077zm3.302-3.162L20.243 20.845c4.282-5.545 3.006-13.873 2.088-17.728 2.061.144 4.062.51 5.98 1.068l-.796 3.183a31.627 31.627 0 01-1.306 4.042 1.523 1.523 0 002.83 1.13 34.675 34.675 0 001.432-4.433l.728-2.91a28.702 28.702 0 018.25 5.2l-5.355 5.354a1.523 1.523 0 102.155 2.155l5.354-5.354a28.706 28.706 0 015.2 8.249c-2.148.577-4.258.927-7.343 2.16a1.523 1.523 0 101.13 2.83c2.874-1.148 4.81-1.458 7.225-2.102a28.47 28.47 0 011.068 5.98c-3.854-.919-12.183-2.194-17.728 2.088z" fill="#000"/></g><defs><clipPath id="clip0"><path fill="#fff" d="M0 0h52v52H0z"/></clipPath></defs></svg>