<svg width="20" height="20" fill="none" xmlns="http://www.w3.org/2000/svg"><path d="M10 0C4.486 0 0 4.486 0 10s4.486 10 10 10 10-4.486 10-10S15.514 0 10 0zm0 18.45c-4.66 0-8.45-3.79-8.45-8.45 0-4.66 3.79-8.45 8.45-8.45 4.66 0 8.45 3.79 8.45 8.45 0 4.66-3.79 8.45-8.45 8.45z" fill="#000"/><path d="M10 9.375c-.862 0-1.563-.7-1.563-1.563a1.564 1.564 0 013.126.001.625.625 0 101.25 0 2.817 2.817 0 00-2.188-2.742v-.696a.625.625 0 10-1.25 0v.696a2.817 2.817 0 00-2.188 2.742A2.816 2.816 0 0010 10.624c.862 0 1.563.7 1.563 1.563a1.564 1.564 0 01-3.126-.001.625.625 0 10-1.25 0c0 1.337.937 2.457 2.188 2.742v.696a.625.625 0 101.25 0v-.696a2.817 2.817 0 002.188-2.742A2.816 2.816 0 0010 9.376z" fill="#000"/></svg>