<svg width="34" height="32" fill="none" xmlns="http://www.w3.org/2000/svg"><path d="M33.004 7.035h-7.57v-5.91a.996.996 0 00-.997-.996H.997A.996.996 0 000 1.125v25.766a4.986 4.986 0 004.98 4.98h24.04a4.986 4.986 0 004.98-4.98V8.03a.996.996 0 00-.996-.996zM4.98 29.88a2.992 2.992 0 01-2.988-2.988V2.12h21.45c0 26.328-.013 24.864.022 25.24.087.923.431 1.794.976 2.518H4.98zm27.028-2.988a2.992 2.992 0 01-2.989 2.988h-.597a2.992 2.992 0 01-2.988-2.988V9.027h6.574v17.864z" fill="#000"/><path d="M20.188 4.91H5.313a.996.996 0 000 1.992h14.875a.996.996 0 000-1.992zm0 4.25H5.313a.996.996 0 000 1.992h14.875a.996.996 0 100-1.992zm0 15.938H5.313a.996.996 0 100 1.992h14.875a.996.996 0 100-1.992zm0-11.688H12.75a.996.996 0 00-.996.996v7.438c0 .55.446.996.996.996h7.438c.55 0 .996-.446.996-.996v-7.438a.996.996 0 00-.997-.996zm-.997 7.438h-5.445v-5.446h5.445v5.446zM5.313 16.996H8.5a.996.996 0 000-1.992H5.312a.996.996 0 000 1.992zm0 4.25H8.5a.996.996 0 000-1.992H5.312a.996.996 0 000 1.992z" fill="#000"/></svg>