<svg width="30" height="30" fill="none" xmlns="http://www.w3.org/2000/svg"><g clip-path="url(#clip0)" fill="#fff"><path d="M28.933 23.051l-6.629-6.628c-.777-.778-1.5-1.26-2.274-1.518-.556-.186-1-.63-1.185-1.188-.256-.763-.752-1.508-1.54-2.296a1.492 1.492 0 00-2.107-.003l-3.781 3.78c-.282.28-.437.654-.437 1.052 0 .397.155.77.463 1.077.777.778 1.5 1.26 2.274 1.518.556.186 1 .63 1.185 1.187.258.774.742 1.495 1.518 2.273l6.63 6.629A3.666 3.666 0 0025.625 30a3.67 3.67 0 002.572-1.064l.735-.735a3.618 3.618 0 001.066-2.577c0-.973-.379-1.885-1.066-2.573zm-.883 4.264l-.735.735c-.885.885-2.489.892-3.381 0l-6.629-6.629c-.635-.635-1.022-1.202-1.216-1.785a3.139 3.139 0 00-1.976-1.977c-.584-.194-1.151-.58-1.813-1.243a.231.231 0 010-.332l3.782-3.781a.223.223 0 01.158-.068.29.29 0 01.202.09c.635.636 1.022 1.204 1.217 1.788a3.138 3.138 0 001.976 1.977c.584.194 1.152.58 1.787 1.215l6.628 6.629c.451.45.7 1.05.7 1.692 0 .639-.25 1.238-.7 1.689z"/><path d="M14.818 12.058L7.5 4.741v-.844A1.86 1.86 0 006.464 2.22L2.155.066a.625.625 0 00-.72.117L.183 1.433a.622.622 0 00-.117.721l2.155 4.308a1.86 1.86 0 001.676 1.037h.844l7.316 7.318a.628.628 0 00.885-.001.625.625 0 000-.884l-7.5-7.5A.63.63 0 005 6.249H3.898a.617.617 0 01-.558-.346L1.387 1.997l.612-.613 3.906 1.954c.214.106.345.32.345.559v1.102c0 .167.067.325.184.443l7.5 7.5a.625.625 0 00.884-.884z"/></g><defs><clipPath id="clip0"><path fill="#fff" d="M0 0h30v30H0z"/></clipPath></defs></svg>