<svg width="30" height="30" fill="none" xmlns="http://www.w3.org/2000/svg"><path d="M29.142 4.102a1.13 1.13 0 00-1.599-.002L13.98 17.628l-4.894-5.315a1.131 1.131 0 00-1.663 1.531l5.69 6.18a1.129 1.129 0 001.63.036L29.14 5.7a1.13 1.13 0 00.002-1.598z" fill="#fff"/><path d="M28.87 13.87A1.13 1.13 0 0027.738 15c0 7.024-5.715 12.739-12.739 12.739C7.975 27.739 2.26 22.024 2.26 15 2.261 7.976 7.976 2.261 15 2.261A1.13 1.13 0 1015 0C6.729 0 0 6.729 0 15c0 8.27 6.729 15 15 15 8.27 0 15-6.73 15-15a1.13 1.13 0 00-1.13-1.13z" fill="#fff"/></svg>