<svg width="36" height="32" fill="none" xmlns="http://www.w3.org/2000/svg"><path d="M5.24 31.849H2.69l1.803-1.804a6.104 6.104 0 001.743-3.61c-2.538-1.666-4.394-3.857-5.387-6.37-.993-2.51-1.117-5.275-.36-7.993C1.395 8.81 3.525 5.836 6.484 3.7 9.7 1.378 13.703.15 18.06.15c5.49 0 10.116 1.577 13.38 4.561C34.38 7.399 36 11.025 36 14.921c0 1.892-.385 3.733-1.145 5.473a14.081 14.081 0 01-3.423 4.763c-3.269 2.995-7.892 4.578-13.372 4.578a24.33 24.33 0 01-6.052-.77c-1.793 1.84-4.224 2.884-6.768 2.884zM18.06 2.264c-8.737 0-14.098 5.21-15.536 10.374-1.358 4.88.644 9.492 5.357 12.336l.526.317-.016.615a8.32 8.32 0 01-.841 3.448 7.486 7.486 0 003.31-2.264l.446-.528.663.198c1.859.556 4.022.862 6.091.862 10.874 0 15.827-6.584 15.827-12.702 0-3.295-1.376-6.367-3.873-8.65-2.867-2.62-7.001-4.006-11.954-4.006z" fill="#fff"/></svg>