<svg width="35" height="35" fill="none" xmlns="http://www.w3.org/2000/svg"><path d="M34.022 16.607a3.207 3.207 0 00.817-3.31 3.208 3.208 0 00-2.606-2.197L24.667 10a1.18 1.18 0 01-.888-.645l-3.384-6.857A3.209 3.209 0 0017.5.7c-1.238 0-2.347.69-2.895 1.8L11.22 9.354c-.172.348-.504.59-.887.645l-7.567 1.1A3.208 3.208 0 00.16 13.297a3.207 3.207 0 00.816 3.31l5.476 5.337c.278.27.404.66.339 1.043l-1.293 7.536a3.209 3.209 0 001.284 3.158 3.21 3.21 0 003.4.246l6.769-3.559a1.18 1.18 0 011.096 0l6.768 3.559a3.21 3.21 0 003.4-.246 3.209 3.209 0 001.285-3.158l-1.293-7.536a1.178 1.178 0 01.34-1.043l5.474-5.337zm-7.835 6.726l1.293 7.537c.077.451-.098.882-.469 1.152a1.168 1.168 0 01-1.241.09l-6.768-3.559a3.243 3.243 0 00-1.502-.37c-.521 0-1.04.128-1.502.37L9.23 32.111a1.16 1.16 0 01-1.241-.09c-.37-.269-.546-.7-.468-1.152l1.292-7.536a3.229 3.229 0 00-.929-2.858L2.41 15.138a1.154 1.154 0 01-.298-1.207c.142-.436.497-.736.95-.802l7.568-1.1a3.23 3.23 0 002.43-1.766l3.385-6.857A1.156 1.156 0 0117.5 2.75c.459 0 .853.245 1.056.656l3.384 6.857a3.23 3.23 0 002.43 1.767l7.568 1.1c.454.065.81.365.95.8.143.437.032.888-.297 1.208l-5.475 5.337a3.229 3.229 0 00-.93 2.858z" fill="#000"/></svg>