<svg width="19" height="19" fill="none" xmlns="http://www.w3.org/2000/svg"><path d="M18.447 3.377h-5.051V2.82c0-.92-.749-1.67-1.67-1.67H7.274c-.92 0-1.67.75-1.67 1.67v.557H.558A.558.558 0 000 3.934V16.18c0 .92.75 1.67 1.67 1.67h15.66c.92 0 1.67-.75 1.67-1.67V3.943c-.021-.365-.246-.564-.553-.566zM6.717 2.82c0-.307.25-.556.556-.556h4.454c.306 0 .556.25.556.556v.557H6.717V2.82zM17.67 4.49l-1.729 5.186a.556.556 0 01-.527.38h-3.132V9.5a.557.557 0 00-.556-.557H7.273a.557.557 0 00-.556.557v.557H3.586a.556.556 0 01-.528-.381L1.329 4.49h16.342zm-6.501 5.567v1.113H7.83v-1.113h3.34zm6.717 6.123c0 .307-.25.556-.557.556H1.67a.557.557 0 01-.557-.556V7.364l.888 2.664a1.668 1.668 0 001.585 1.142h3.13v.557c0 .307.25.556.557.556h4.454a.556.556 0 00.556-.556v-.557h3.132c.72 0 1.356-.459 1.584-1.142l.888-2.664v8.816z" fill="#515154"/></svg>