<svg width="20" height="20" fill="none" xmlns="http://www.w3.org/2000/svg"><g clip-path="url(#clip0)" fill="#000"><path d="M5.453 9.24a1.151 1.151 0 100-2.302H4.178a6.648 6.648 0 011.866-2.195 6.518 6.518 0 013.953-1.32 6.559 6.559 0 014.099 1.433 6.607 6.607 0 012.295 3.598 1.151 1.151 0 102.239-.538 8.899 8.899 0 00-5.65-6.28 8.855 8.855 0 00-2.983-.515A8.864 8.864 0 002.302 5.57V3.729a1.151 1.151 0 10-2.302 0v4.36A1.15 1.15 0 001.151 9.24h4.302zm13.397 1.518h-4.3a1.151 1.151 0 000 2.302h1.272a6.586 6.586 0 01-2.193 2.424 6.545 6.545 0 01-3.626 1.091 6.56 6.56 0 01-4.096-1.433 6.606 6.606 0 01-2.296-3.598 1.151 1.151 0 10-2.238.539 8.898 8.898 0 005.65 6.28c.953.34 1.953.513 2.973.514h.012a8.841 8.841 0 004.894-1.474A8.889 8.889 0 0017.7 14.42v1.849a1.151 1.151 0 102.302 0v-4.36c0-.636-.516-1.152-1.151-1.152z"/></g><defs><clipPath id="clip0"><path fill="#fff" d="M0 0h20v20H0z"/></clipPath></defs></svg>