<svg width="18" height="18" fill="none" xmlns="http://www.w3.org/2000/svg"><path d="M17.702 16.75l-4.068-4.195a.694.694 0 00-1.003 0 .748.748 0 000 1.035l4.067 4.195a.696.696 0 001.004 0 .748.748 0 000-1.034z" fill="#C4C9D5"/><path d="M8.141 0C3.903 0 .455 3.556.455 7.928c0 4.37 3.448 7.927 7.686 7.927 4.239 0 7.687-3.556 7.687-7.927C15.828 3.556 12.38 0 8.14 0zm0 14.392c-3.455 0-6.267-2.9-6.267-6.464 0-3.565 2.812-6.464 6.267-6.464 3.456 0 6.268 2.9 6.268 6.464 0 3.564-2.812 6.464-6.268 6.464z" fill="#C4C9D5"/></svg>