<svg width="30" height="29" fill="none" xmlns="http://www.w3.org/2000/svg"><path d="M28.467 7.704c-.324-1.165-1.274-2.083-2.478-2.396-2.201-.582-11.005-.582-11.005-.582s-8.803 0-11.004.56C2.798 5.599 1.825 6.54 1.5 7.704c-.58 2.128-.58 6.54-.58 6.54s0 4.433.58 6.538c.325 1.165 1.274 2.083 2.479 2.397 2.224.582 11.004.582 11.004.582s8.804 0 11.005-.56c1.204-.313 2.154-1.232 2.479-2.396.579-2.128.579-6.54.579-6.54s.023-4.433-.58-6.56zM12.181 18.32v-8.151l7.32 4.075-7.32 4.076z" fill="#272727"/></svg>