<svg width="25" height="25" fill="none" xmlns="http://www.w3.org/2000/svg"><path fill-rule="evenodd" clip-rule="evenodd" d="M20.794 4.176A11.539 11.539 0 0012.58.77C6.177.77.967 5.98.965 12.383a11.583 11.583 0 001.55 5.806L.867 24.207l6.157-1.615a11.602 11.602 0 005.55 1.414h.005c6.4 0 11.611-5.21 11.613-11.614a11.543 11.543 0 00-3.398-8.216zM12.58 22.044h-.004A9.641 9.641 0 017.662 20.7l-.353-.21-3.653.959.975-3.562-.23-.366a9.629 9.629 0 01-1.475-5.137c.002-5.322 4.332-9.652 9.656-9.652a9.587 9.587 0 016.825 2.83 9.595 9.595 0 012.825 6.83c-.003 5.323-4.333 9.653-9.653 9.653zm5.294-7.23c-.29-.145-1.716-.847-1.982-.944-.266-.096-.46-.145-.653.146-.194.29-.75.944-.92 1.137-.168.194-.338.218-.628.073-.29-.145-1.225-.452-2.334-1.44-.862-.77-1.445-1.72-1.614-2.01-.169-.291-.001-.433.127-.593.315-.39.63-.799.726-.992.097-.194.048-.363-.025-.509-.072-.145-.652-1.573-.894-2.154-.236-.566-.475-.49-.653-.499-.17-.008-.363-.01-.556-.01-.194 0-.508.073-.774.364-.266.29-1.016.992-1.016 2.42 0 1.429 1.04 2.809 1.185 3.002.145.194 2.047 3.125 4.957 4.382.693.3 1.233.478 1.655.611.695.221 1.328.19 1.828.115.557-.083 1.716-.702 1.959-1.38.241-.677.241-1.258.169-1.38-.073-.12-.266-.193-.556-.338z" fill="#12AF0A"/></svg>