<svg width="35" height="35" fill="none" xmlns="http://www.w3.org/2000/svg"><path d="M35 14.85a3.428 3.428 0 00-3.424-3.424H23.32l1.202-3.28a.943.943 0 00.01-.032c.58-1.738.434-3.56-.42-5.273A3.764 3.764 0 0020.724.748h-.401c-.972 0-1.794.759-1.871 1.728a7.347 7.347 0 01-2.046 4.518l-6.613 6.714H9.13v-1.141c0-.63-.51-1.141-1.14-1.141H1.14c-.63 0-1.141.51-1.141 1.14V33.11c0 .63.511 1.142 1.141 1.142h6.85c.63 0 1.141-.511 1.141-1.142v-1.14h19.022a3.428 3.428 0 003.424-3.425c0-.61-.16-1.183-.44-1.68a3.424 3.424 0 001.14-4.565 3.424 3.424 0 001.142-4.565A3.424 3.424 0 0035 14.85zm-28.152 0v17.119H2.283V13.71h4.565v1.14zm24.728 1.14h-3.424a1.141 1.141 0 000 2.283h2.283a1.143 1.143 0 010 2.283H27.01a1.141 1.141 0 000 2.283h2.282a1.142 1.142 0 010 2.282h-1.14c-.06 0-.119.007-.176.015h-2.183a1.141 1.141 0 000 2.283h2.282c.052 0 .101-.005.15-.011a1.142 1.142 0 01-.074 2.279H9.13V15.99h1.142c.306 0 .598-.123.813-.34l6.951-7.058a9.638 9.638 0 002.655-5.562h.034c.572 0 1.087.318 1.343.83.585 1.17.687 2.353.303 3.516l-1.758 4.797a1.141 1.141 0 001.072 1.534h9.891a1.143 1.143 0 010 2.283z" fill="#000"/></svg>