<svg width="19" height="19" fill="none" xmlns="http://www.w3.org/2000/svg"><g clip-path="url(#clip0)"><path d="M4.253 18.616a1.01 1.01 0 01-.984-1.235l1.222-5.384L.346 8.362a1.009 1.009 0 01.572-1.768l5.485-.497L8.57 1.022a1.01 1.01 0 011.858-.001l2.168 5.076 5.484.497a1.011 1.011 0 01.574 1.768l-4.145 3.634 1.222 5.384a1.01 1.01 0 01-1.502 1.091L9.5 15.645l-4.73 2.828a1.01 1.01 0 01-.517.143zM9.5 14.428c.18 0 .358.048.518.143l4.463 2.67-1.153-5.083a1.01 1.01 0 01.32-.984l3.914-3.432-5.179-.47a1.009 1.009 0 01-.839-.613L9.5 1.87 7.453 6.66a1.006 1.006 0 01-.836.61l-5.18.47 3.914 3.433c.28.245.403.622.32.985L4.52 17.24l4.463-2.67c.16-.094.338-.143.518-.143zM6.36 6.194v.001-.001zm6.277-.003l.001.002v-.002z" fill="#515154"/></g><defs><clipPath id="clip0"><path fill="#fff" d="M0 0h19v19H0z"/></clipPath></defs></svg>