<svg width="112" height="107" fill="none" xmlns="http://www.w3.org/2000/svg"><path d="M111.708 40.434a5.937 5.937 0 00-5.125-4.08l-32.326-2.927L61.474 3.601A5.955 5.955 0 0056.002 0a5.952 5.952 0 00-5.475 3.606L37.744 33.427 5.412 36.354a5.948 5.948 0 00-5.119 4.08 5.916 5.916 0 001.74 6.304L26.47 68.1l-7.206 31.641a5.923 5.923 0 002.315 6.127A5.958 5.958 0 0025.064 107a5.945 5.945 0 003.052-.847l27.885-16.614 27.874 16.614a5.944 5.944 0 006.543-.284 5.928 5.928 0 002.314-6.127l-7.205-31.64 24.435-21.36a5.926 5.926 0 001.746-6.308z" fill="#FFE922"/></svg>