<svg width="17" height="16" fill="none" xmlns="http://www.w3.org/2000/svg"><path d="M15.23 9.043c.975 0 1.77-.78 1.77-1.739V1.74C17 .781 16.205 0 15.23 0h-2.126c-.399 0-.765.132-1.062.352v8.691h3.187zM0 6.435c0 .418.169.807.461 1.095-.33.355-.5.832-.453 1.328.083.884.894 1.577 1.847 1.577h4.376c-.217.646-.564 1.83-.564 2.782 0 1.51 1.305 2.783 2.125 2.783.736 0 1.261-.407 1.284-.424a.347.347 0 00.132-.272v-2.359l2.04-4.34.085-.042V1.107C10.757.84 10.027.696 9.563.696H3.06c-.772 0-1.447.51-1.605 1.215a1.54 1.54 0 00.128 1.045 1.556 1.556 0 00-.876 1.392c0 .246.058.482.167.695A1.555 1.555 0 000 6.435z" fill="#F34A38"/></svg>