<svg width="30" height="30" fill="none" xmlns="http://www.w3.org/2000/svg"><g clip-path="url(#clip0)" fill="#796225"><path d="M19.891 15.978H.978a.979.979 0 010-1.956h18.913a.979.979 0 010 1.956z"/><path d="M14.674 21.195a.979.979 0 01-.691-1.67l4.526-4.526-4.527-4.526a.979.979 0 011.385-1.384l5.217 5.217a.978.978 0 010 1.384l-5.217 5.217a.97.97 0 01-.693.288z"/><path d="M15.652 29.348c-5.936 0-11.177-3.571-13.354-9.1a.978.978 0 111.821-.714c1.88 4.773 6.407 7.857 11.533 7.857 6.832 0 12.392-5.559 12.392-12.391S22.484 2.609 15.652 2.609C10.526 2.609 6 5.693 4.12 10.466a.978.978 0 11-1.82-.715C4.474 4.223 9.715.652 15.651.652 23.563.652 30 7.09 30 15c0 7.91-6.437 14.348-14.348 14.348z"/></g><defs><clipPath id="clip0"><path fill="#fff" d="M0 0h30v30H0z"/></clipPath></defs></svg>