<svg width="21" height="21" fill="none" xmlns="http://www.w3.org/2000/svg"><g clip-path="url(#clip0)" fill="#fff"><path d="M13.924 11.185H.684a.685.685 0 010-1.37h13.24a.685.685 0 010 1.37z"/><path d="M10.271 14.837a.685.685 0 01-.484-1.17l3.169-3.168-3.168-3.168a.685.685 0 01.968-.969l3.652 3.652a.685.685 0 010 .969l-3.652 3.652a.68.68 0 01-.485.202z"/><path d="M10.957 20.544a9.992 9.992 0 01-9.348-6.37.685.685 0 111.274-.5 8.63 8.63 0 008.074 5.5c4.782 0 8.674-3.891 8.674-8.674 0-4.782-3.892-8.674-8.674-8.674a8.63 8.63 0 00-8.074 5.5.685.685 0 11-1.275-.5 9.992 9.992 0 019.349-6.37C16.494.457 21 4.963 21 10.5s-4.506 10.044-10.043 10.044z"/></g><defs><clipPath id="clip0"><path fill="#fff" d="M0 0h21v21H0z"/></clipPath></defs></svg>