<svg width="16" height="17" fill="none" xmlns="http://www.w3.org/2000/svg"><path d="M5.614 9.622h2.5c-.44 1.318-1.628 2.263-3.02 2.252-1.687-.013-3.083-1.448-3.149-3.24-.07-1.922 1.38-3.508 3.174-3.508.82 0 1.568.332 2.132.875A.33.33 0 007.719 6l.918-.919a.38.38 0 00.001-.53c-.894-.9-2.094-1.461-3.417-1.489C2.399 3.004.02 5.462 0 8.462c-.02 3.02 2.279 5.477 5.118 5.477 2.73 0 4.96-2.272 5.11-5.133.004-.036.007-1.248.007-1.248H5.614c-.19 0-.343.163-.343.364v1.336c0 .2.153.364.343.364zm8.857-1.943V6.374c0-.176-.134-.32-.3-.32h-1.034c-.166 0-.3.144-.3.32V7.68h-1.229c-.166 0-.3.143-.3.32v1.098c0 .176.134.319.3.319h1.228v1.305c0 .176.135.32.3.32h1.035c.166 0 .3-.144.3-.32V9.416H15.7c.166 0 .3-.143.3-.32V7.999c0-.176-.134-.32-.3-.32h-1.228z" fill="#F34A38"/></svg>