<svg width="17" height="16" fill="none" xmlns="http://www.w3.org/2000/svg"><path d="M1.77 6.957c-.975 0-1.77.78-1.77 1.739v5.565C0 15.22.795 16 1.77 16h2.126a1.78 1.78 0 001.062-.352V6.957H1.771zM17 9.565c0-.418-.169-.807-.461-1.095.33-.355.5-.832.453-1.328-.083-.884-.894-1.577-1.847-1.577H10.77c.216-.646.563-1.83.563-2.782C11.333 1.273 10.028 0 9.208 0c-.736 0-1.261.407-1.284.424a.347.347 0 00-.132.272v2.359l-2.04 4.34-.085.042v7.456c.576.267 1.306.411 1.77.411h6.502c.772 0 1.447-.51 1.605-1.215a1.54 1.54 0 00-.128-1.045c.524-.259.876-.788.876-1.392a1.52 1.52 0 00-.167-.695c.524-.26.875-.789.875-1.392z" fill="#51B74F"/></svg>