<svg width="190" height="79" fill="none" xmlns="http://www.w3.org/2000/svg"><path d="M38.209 12.858c5.523 0 10 4.477 10 10V66.46h5.62a5 5 0 015 5v5.787c0 .498-.22.913-.663 1.245-.443.387-.913.553-1.41.498-.554 0-1.052-.194-1.494-.581-.388-.387-.581-.913-.581-1.577 0-2.102-.747-3.512-2.24-4.231-1.494-.72-3.098-1.08-4.813-1.08h-37.09c-2.157 0-3.762.416-4.813 1.245-1.05.885-1.576 2.24-1.576 4.066 0 .664-.221 1.19-.664 1.577-.443.387-.913.58-1.41.58-.498.056-.969-.11-1.411-.497C.22 78.16 0 77.745 0 77.247V71.46a5 5 0 015-5h5.206c2.6-6.914 4.315-14.105 5.145-21.573.83-7.468 1.244-14.715 1.244-21.74 0-2.378-.387-3.955-1.162-4.73-.774-.774-2.157-1.327-4.148-1.659-.664 0-1.19-.194-1.577-.58-.387-.388-.58-.83-.58-1.328-.056-.443.082-.886.414-1.328.387-.443.83-.664 1.328-.664h27.339zM17.839 66.46h22.902V27.92c0-5.523-4.477-10-10-10h-1.285c-2.212 0-3.734.249-4.563.746-.83.498-1.245 1.909-1.245 4.232 0 7.136-.415 14.549-1.245 22.238-.83 7.633-2.35 14.742-4.563 21.324zm76.111 5.062a3.568 3.568 0 01-3.568-3.568V66.21c-1.936 2.158-4.038 3.734-6.306 4.73-2.213.996-5.117 1.494-8.713 1.494-3.208.055-5.808-1.024-7.8-3.237-1.991-2.212-2.987-4.867-2.987-7.965 0-2.655.692-4.896 2.075-6.721 1.438-1.88 3.236-3.374 5.393-4.48 2.102-1.162 4.398-1.992 6.887-2.49 2.545-.498 4.896-.775 7.053-.83h3.568a6.72 6.72 0 01.83-.083v-2.323c0-1.106-.139-2.24-.415-3.402-.277-1.217-.747-2.296-1.41-3.236-.72-.996-1.66-1.798-2.822-2.407-1.162-.663-2.627-.995-4.398-.995-2.6 0-4.646.719-6.14 2.157a6.902 6.902 0 00-1.299 1.614c-1.09 1.884-2.706 3.78-4.882 3.78-2.177 0-3.949-1.82-3.098-3.823a5.51 5.51 0 01.069-.16c.608-1.439 1.604-2.738 2.987-3.9 1.328-1.162 3.042-2.13 5.144-2.904 2.103-.775 4.62-1.162 7.551-1.162 5.034 0 8.934 1.328 11.7 3.983 2.766 2.6 4.149 6.085 4.149 10.455v23.648a3.568 3.568 0 01-3.568 3.568zm-3.568-14.687v-5.808c-1.328 0-2.85.055-4.564.166-1.66.11-3.291.332-4.895.664-2.324.553-4.343 1.493-6.058 2.82-1.66 1.273-2.489 3.181-2.489 5.726 0 .609.083 1.3.249 2.075.166.719.47 1.41.913 2.074.498.664 1.161 1.244 1.991 1.742.83.443 1.909.664 3.236.664 1.438 0 2.849-.249 4.232-.747a12.948 12.948 0 003.734-2.074 12.076 12.076 0 002.572-3.236c.72-1.217 1.079-2.572 1.079-4.066zm19.792-8.546v-7.302c0-1.272-.111-2.351-.332-3.236-.166-.94-.664-1.743-1.493-2.407a4.436 4.436 0 00-1.494-.58 4.7 4.7 0 00-1.494-.25c-.719 0-1.3-.193-1.742-.58-.387-.443-.581-.94-.581-1.494 0-.497.194-.912.581-1.244.442-.332.94-.498 1.493-.498h7.883c1.272 0 2.268.442 2.987 1.328.719.83 1.079 1.714 1.079 2.655v13.027c0 2.544.719 4.508 2.157 5.891 1.494 1.328 3.541 1.992 6.14 1.992 2.49 0 4.868-.692 7.136-2.075 2.324-1.438 3.983-3.512 4.979-6.223.332-.996.608-2.24.83-3.734.221-1.493.332-2.766.332-3.817v-9.044h7.135v37.256a3.567 3.567 0 11-7.135 0V53.267c-1.162 2.71-3.098 4.73-5.809 6.057-2.71 1.273-5.863 1.854-9.459 1.743-3.927-.055-7.081-1.272-9.459-3.651-2.379-2.379-3.623-5.421-3.734-9.127zm75.421 23.233a3.567 3.567 0 01-3.567-3.568V66.21c-1.937 2.158-4.039 3.734-6.307 4.73-2.212.996-5.116 1.494-8.712 1.494-3.208.055-5.808-1.024-7.8-3.237-1.991-2.212-2.987-4.867-2.987-7.965 0-2.655.692-4.896 2.075-6.721 1.438-1.88 3.236-3.374 5.393-4.48 2.102-1.162 4.398-1.992 6.887-2.49 2.544-.498 4.895-.775 7.053-.83h3.568a6.8 6.8 0 01.83-.083v-2.323c0-1.106-.139-2.24-.415-3.402-.277-1.217-.747-2.296-1.411-3.236-.719-.996-1.659-1.798-2.821-2.407-1.162-.663-2.628-.995-4.398-.995-2.6 0-4.646.719-6.14 2.157a6.923 6.923 0 00-1.299 1.614c-1.089 1.884-2.706 3.78-4.883 3.78-2.176 0-3.948-1.82-3.097-3.823a5.51 5.51 0 01.069-.16c.608-1.439 1.604-2.738 2.987-3.9 1.327-1.162 3.042-2.13 5.144-2.904 2.102-.775 4.619-1.162 7.551-1.162 5.034 0 8.934 1.328 11.7 3.983 2.765 2.6 4.148 6.085 4.148 10.455v23.648a3.568 3.568 0 01-3.568 3.568zm-3.567-14.687v-5.808c-1.328 0-2.849.055-4.564.166a35.83 35.83 0 00-4.896.664c-2.323.553-4.342 1.493-6.057 2.82-1.659 1.273-2.489 3.181-2.489 5.726 0 .609.083 1.3.249 2.075.166.719.47 1.41.912 2.074.498.664 1.162 1.244 1.992 1.742.83.443 1.908.664 3.236.664 1.438 0 2.849-.249 4.232-.747a12.957 12.957 0 003.734-2.074 12.08 12.08 0 002.572-3.236c.719-1.217 1.079-2.572 1.079-4.066z" fill="#B3F066"/><path d="M144.791 26.52l6.541-12.306c1.947-3.664-.02-8.188-4.029-9.262-4.008-1.074-7.974 1.86-8.119 6.007l-.489 13.928-.318 7.097 3.668.732 2.746-6.195z" fill="#F9F7F8"/><path d="M142.775 32.01l12.303 6.552c3.663 1.952 8.182-.013 9.253-4.02 1.07-4.01-1.865-7.978-6.009-8.128l-13.919-.5-6.738-.406-.806 3.019 5.916 3.483z" fill="#F9F7F8"/><path d="M135.375 28.852l-8.945-.314a4.144 4.144 0 01-3.858-5.214 4.144 4.144 0 015.948-2.588l7.905 4.201 2.581 1.406-.143 2.638-3.488-.129z" fill="#F9F7F8"/><path d="M140.106 21.075l-2.349-7.678c-.885-2.893-4.231-4.21-6.851-2.698-2.62 1.513-3.151 5.07-1.089 7.282l5.475 5.874 3.824 4.34 2.34-1.42-1.35-5.7z" fill="#F9F7F8"/><path d="M148.254 27.328l7.678-2.35c2.893-.884 4.211-4.23 2.698-6.85-1.512-2.62-5.069-3.152-7.282-1.089l-5.873 5.475-4.906 4.589 1.086 2.886 6.599-2.661z" fill="#F9F7F8"/><path d="M146.815 32.697l5.476 5.873c2.062 2.213 1.53 5.77-1.089 7.282-2.62 1.513-5.966.195-6.851-2.698l-2.349-7.678-2.057-5.238 3.278-1.72 3.592 4.179z" fill="#F9F7F8"/><path d="M137.384 34.118l-6.805 6.344c-2.563 2.39-6.684 1.773-8.436-1.262-1.752-3.035-.226-6.912 3.125-7.937l8.896-2.721 7.732-2.278 1.321 1.887-5.833 5.967z" fill="#F9F7F8"/><path d="M141.871 31.51v9.63c-.07 2.007-2.927 4.09-4.866 3.57-1.939-.52-3.299-3.401-2.357-5.174l4.013-8.829 3.21.803z" fill="#F9F7F8"/><path d="M143.331 28.141a1.419 1.419 0 01-.874-.686 1.527 1.527 0 01.546-2.039l7.608-4.556a1.414 1.414 0 011.975.529 1.527 1.527 0 01-.547 2.038l-7.608 4.557a1.418 1.418 0 01-1.1.157z" fill="#EFEDEF"/><path d="M154.401 33.026l-10.938-2.931c-.939-.252-1.569-.946-1.407-1.55.162-.605 1.054-.89 1.993-.64l10.938 2.932c.939.251 1.569.945 1.407 1.55-.162.604-1.054.89-1.993.639zm-13.167-5.422c-.604-.162-.899-1.024-.657-1.925l2.944-10.99c.242-.901.928-1.5 1.532-1.339.605.162.899 1.024.657 1.925l-2.944 10.99c-.242.901-.928 1.5-1.532 1.339z" fill="#EFEDEF"/><path d="M146.859 39.954a1.512 1.512 0 01-.906-.675l-3.145-5.212a.81.81 0 01-.025-.043l-1.633-2.928a1.39 1.39 0 01.592-1.93 1.525 1.525 0 012.007.61l1.621 2.905 3.133 5.191a1.39 1.39 0 01-.523 1.95 1.51 1.51 0 01-1.121.132z" fill="#EFEDEF"/><path d="M138.312 38.509a1.133 1.133 0 01-.801-1.388l1.896-7.076a1.133 1.133 0 011.388-.802c.604.162.162.519 0 1.123l-1.095 7.342a1.134 1.134 0 01-1.388.801z" fill="#EFEDEF"/><path d="M129.043 35.956a1.734 1.734 0 01-1.026-.75 1.496 1.496 0 01.574-2.139l5.982-3.19a.852.852 0 01.08-.04l2.85-1.325c.815-.38 1.824-.052 2.253.73a1.495 1.495 0 01-.699 2.102l-2.809 1.306-5.942 3.17c-.395.21-.849.247-1.263.136z" fill="#EFEDEF"/><path d="M139.109 28.928l-7.487-2.006a1.133 1.133 0 01.587-2.189l7.487 2.006a1.133 1.133 0 01-.587 2.19z" fill="#EFEDEF"/><path d="M139.01 26.66a1.525 1.525 0 01-.87-.614l-1.293-1.907c-.016-.023-.03-.046-.045-.07l-3.174-5.299a1.42 1.42 0 01.532-1.985 1.536 1.536 0 012.05.55l3.153 5.262 1.27 1.872a1.42 1.42 0 01-.416 2.013 1.518 1.518 0 01-1.207.179z" fill="#EFEDEF"/><path d="M139.817 32.892a4.778 4.778 0 102.473-9.23 4.778 4.778 0 00-2.473 9.23z" fill="#FED402"/><path d="M138.705 27.648a4.78 4.78 0 014.681-3.542 4.782 4.782 0 00-6.948 2.934 4.778 4.778 0 004.55 6.016 4.78 4.78 0 01-2.283-5.408z" fill="#FAC600"/></svg>