<svg width="110" height="47" fill="none" xmlns="http://www.w3.org/2000/svg"><path d="M17.888 8.072c5.523 0 10 4.477 10 10V39.08h1.144a5 5 0 015 5v1.24c0 .288-.128.528-.384.72-.256.224-.528.32-.816.288-.32 0-.608-.112-.864-.336-.224-.224-.336-.528-.336-.912 0-1.216-.432-2.032-1.296-2.448a6.334 6.334 0 00-2.784-.624H6.096c-1.248 0-2.176.24-2.784.72-.608.512-.912 1.296-.912 2.352 0 .384-.128.688-.384.912-.256.224-.528.336-.816.336-.288.032-.56-.064-.816-.288-.256-.192-.384-.432-.384-.72v-1.24a5 5 0 015-5h.904c1.504-4 2.496-8.16 2.976-12.48s.72-8.512.72-12.576c0-1.376-.224-2.288-.672-2.736-.448-.448-1.248-.768-2.4-.96-.384 0-.688-.112-.912-.336a1.057 1.057 0 01-.336-.768c-.032-.256.048-.512.24-.768.224-.256.48-.384.768-.384h11.6zM10.32 39.08h13.248V17.528A6.528 6.528 0 0017.04 11c-1.28 0-2.16.144-2.64.432-.48.288-.72 1.104-.72 2.448 0 4.128-.24 8.416-.72 12.864-.48 4.416-1.36 8.528-2.64 12.336zm44.028 2.928a2.064 2.064 0 01-2.064-2.064v-1.008c-1.12 1.248-2.336 2.16-3.648 2.736-1.28.576-2.96.864-5.04.864-1.856.032-3.36-.592-4.512-1.872-1.152-1.28-1.728-2.816-1.728-4.608 0-1.536.4-2.832 1.2-3.888a9.098 9.098 0 013.12-2.592 13.76 13.76 0 013.984-1.44c1.472-.288 2.832-.448 4.08-.48h2.064c.224-.032.384-.048.48-.048v-1.344c0-.64-.08-1.296-.24-1.968a5.21 5.21 0 00-.816-1.872 4.619 4.619 0 00-1.632-1.392c-.672-.384-1.52-.576-2.544-.576-1.504 0-2.688.416-3.552 1.248a3.993 3.993 0 00-.751.933c-.63 1.09-1.565 2.187-2.825 2.187-1.259 0-2.283-1.052-1.792-2.211l.04-.093c.352-.832.928-1.584 1.728-2.256.768-.672 1.76-1.232 2.976-1.68 1.216-.448 2.672-.672 4.368-.672 2.912 0 5.168.768 6.768 2.304 1.6 1.504 2.4 3.52 2.4 6.048v13.68c0 1.14-.924 2.064-2.064 2.064zm-2.064-8.496v-3.36c-.768 0-1.648.032-2.64.096-.96.064-1.904.192-2.832.384-1.344.32-2.512.864-3.504 1.632-.96.736-1.44 1.84-1.44 3.312 0 .352.048.752.144 1.2.096.416.272.816.528 1.2.288.384.672.72 1.152 1.008.48.256 1.104.384 1.872.384.832 0 1.648-.144 2.448-.432.8-.288 1.52-.688 2.16-1.2a6.985 6.985 0 001.488-1.872 4.536 4.536 0 00.624-2.352zm11.45-4.944v-4.224c0-.736-.064-1.36-.192-1.872-.096-.544-.384-1.008-.864-1.392a2.563 2.563 0 00-.864-.336 2.718 2.718 0 00-.864-.144c-.416 0-.752-.112-1.008-.336a1.278 1.278 0 01-.336-.864.91.91 0 01.336-.72c.256-.192.544-.288.864-.288h4.56c.736 0 1.312.256 1.728.768.416.48.624.992.624 1.536v7.536c0 1.472.416 2.608 1.248 3.408.864.768 2.048 1.152 3.552 1.152 1.44 0 2.816-.4 4.128-1.2 1.344-.832 2.304-2.032 2.88-3.6.192-.576.352-1.296.48-2.16.128-.864.192-1.6.192-2.208v-5.232h4.128v21.552a2.064 2.064 0 01-4.128 0v-8.496c-.672 1.568-1.792 2.736-3.36 3.504-1.568.736-3.392 1.072-5.472 1.008-2.272-.032-4.096-.736-5.472-2.112-1.376-1.376-2.096-3.136-2.16-5.28zm43.63 13.44a2.064 2.064 0 01-2.064-2.064v-1.008c-1.12 1.248-2.336 2.16-3.648 2.736-1.28.576-2.96.864-5.04.864-1.856.032-3.36-.592-4.512-1.872-1.152-1.28-1.728-2.816-1.728-4.608 0-1.536.4-2.832 1.2-3.888a9.098 9.098 0 013.12-2.592 13.76 13.76 0 013.984-1.44c1.472-.288 2.832-.448 4.08-.48h2.064c.224-.032.384-.048.48-.048v-1.344c0-.64-.08-1.296-.24-1.968a5.21 5.21 0 00-.816-1.872 4.619 4.619 0 00-1.632-1.392c-.672-.384-1.52-.576-2.544-.576-1.504 0-2.688.416-3.552 1.248a3.993 3.993 0 00-.751.933c-.63 1.09-1.566 2.187-2.825 2.187-1.26 0-2.284-1.052-1.792-2.211l.04-.093c.352-.832.928-1.584 1.728-2.256.768-.672 1.76-1.232 2.976-1.68 1.216-.448 2.672-.672 4.368-.672 2.912 0 5.168.768 6.768 2.304 1.6 1.504 2.4 3.52 2.4 6.048v13.68c0 1.14-.924 2.064-2.064 2.064zm-2.064-8.496v-3.36c-.768 0-1.648.032-2.64.096-.96.064-1.904.192-2.832.384-1.344.32-2.512.864-3.504 1.632-.96.736-1.44 1.84-1.44 3.312 0 .352.048.752.144 1.2.096.416.272.816.528 1.2.288.384.672.72 1.152 1.008.48.256 1.104.384 1.872.384.832 0 1.648-.144 2.448-.432.8-.288 1.52-.688 2.16-1.2a6.985 6.985 0 001.488-1.872 4.536 4.536 0 00.624-2.352z" fill="#B3F066"/><path d="M83.76 15.976l3.783-7.12a3.733 3.733 0 10-7.027-1.883l-.283 8.058-.184 4.105 2.122.423 1.588-3.583z" fill="#F9F7F8"/><path d="M82.593 19.15l7.117 3.792a3.725 3.725 0 005.353-2.327c.619-2.318-1.079-4.614-3.476-4.7l-8.052-.29-3.898-.235-.466 1.746 3.422 2.015z" fill="#F9F7F8"/><path d="M78.313 17.325l-5.175-.182a2.397 2.397 0 111.209-4.514l4.572 2.43 1.493.814-.082 1.526-2.017-.075z" fill="#F9F7F8"/><path d="M81.049 12.826L79.69 8.384a2.721 2.721 0 10-4.593 2.652l3.167 3.397 2.212 2.511 1.354-.821-.781-3.297z" fill="#F9F7F8"/><path d="M85.763 16.442l4.441-1.358a2.721 2.721 0 10-2.651-4.593l-3.398 3.167-2.838 2.654.628 1.67 3.818-1.54z" fill="#F9F7F8"/><path d="M84.93 19.548l3.168 3.398a2.721 2.721 0 11-4.593 2.652l-1.36-4.442-1.189-3.03 1.897-.995 2.077 2.417z" fill="#F9F7F8"/><path d="M79.475 20.37l-3.937 3.67a3.153 3.153 0 11-3.072-5.321l5.146-1.574 4.473-1.318.764 1.092-3.374 3.452z" fill="#F9F7F8"/><path d="M82.07 18.862v5.571c-.04 1.16-1.693 2.365-2.815 2.065-1.122-.3-1.908-1.968-1.363-2.994l2.321-5.107 1.857.465z" fill="#F9F7F8"/><path d="M82.915 16.913a.821.821 0 01-.506-.397.883.883 0 01.316-1.18l4.401-2.635a.818.818 0 011.142.306.883.883 0 01-.316 1.179l-4.4 2.636a.822.822 0 01-.637.091z" fill="#EFEDEF"/><path d="M89.318 19.739l-6.327-1.696c-.543-.145-.908-.547-.814-.896.094-.35.61-.516 1.153-.37l6.328 1.695c.543.146.907.547.814.897-.094.35-.61.515-1.154.37zm-7.616-3.137c-.35-.094-.52-.592-.38-1.114l1.703-6.357c.14-.521.536-.868.886-.774.35.093.52.592.38 1.113l-1.703 6.358c-.14.521-.537.868-.886.774z" fill="#EFEDEF"/><path d="M84.955 23.747a.874.874 0 01-.523-.391l-1.82-3.015a.618.618 0 01-.014-.025l-.945-1.694a.804.804 0 01.342-1.116.883.883 0 011.162.353l.937 1.68 1.813 3.003a.804.804 0 01-.303 1.128.874.874 0 01-.649.077z" fill="#EFEDEF"/><path d="M80.011 22.91a.656.656 0 01-.463-.802l1.097-4.094a.656.656 0 01.802-.463c.35.093.094.3 0 .649l-.633 4.247a.656.656 0 01-.803.464z" fill="#EFEDEF"/><path d="M74.65 21.434a1.002 1.002 0 01-.594-.434.865.865 0 01.332-1.238l3.46-1.845a.959.959 0 01.047-.024l1.648-.766a1.017 1.017 0 011.304.423.865.865 0 01-.404 1.216l-1.626.755-3.437 1.834a1.002 1.002 0 01-.73.079z" fill="#EFEDEF"/><path d="M80.473 17.368l-4.332-1.16a.656.656 0 01.34-1.266l4.33 1.16a.656.656 0 01-.338 1.266z" fill="#EFEDEF"/><path d="M80.415 16.056a.881.881 0 01-.503-.355l-.748-1.103a.937.937 0 01-.026-.041l-1.836-3.065a.822.822 0 01.307-1.148.889.889 0 011.186.318l1.824 3.044.735 1.083a.822.822 0 01-.24 1.164.88.88 0 01-.699.104z" fill="#EFEDEF"/><path d="M80.882 19.662a2.764 2.764 0 101.43-5.34 2.764 2.764 0 00-1.43 5.34z" fill="#FED402"/><path d="M80.239 16.627a2.765 2.765 0 012.707-2.048 2.765 2.765 0 10-1.387 5.177 2.766 2.766 0 01-1.32-3.129z" fill="#FAC600"/></svg>