<svg width="29" height="30" fill="none" xmlns="http://www.w3.org/2000/svg"><path d="M28.705 10.934c-1.013-3.226-4.375-4.998-7.493-3.95-.412.139-.828.33-1.24.567.09-.478.137-.948.137-1.396 0-3.424-2.287-6.151-5.55-6.151-3.266 0-5.668 2.733-5.668 6.151 0 .448.047.918.138 1.396a6.932 6.932 0 00-1.241-.567c-3.118-1.048-6.48.724-7.493 3.95-1.028 3.271.72 6.915 3.818 7.956.412.138.858.237 1.326.296a7.28 7.28 0 00-.905 1.045c-1.927 2.744-1.337 6.599 1.316 8.592 2.65 1.993 6.094 1.392 8.028-1.36.254-.363.483-.771.681-1.214.2.443.428.851.682 1.213 1.936 2.757 5.264 3.35 7.91 1.361 2.652-1.993 3.242-5.848 1.315-8.592a7.217 7.217 0 00-.905-1.046 6.844 6.844 0 001.326-.295c3.097-1.041 4.846-4.685 3.818-7.957zM14.56 1.76c2.23 0 3.85 1.848 3.85 4.394 0 1.146-.433 2.559-1.16 3.78a.899.899 0 00-.125.474l-.884 1.583a4.206 4.206 0 00-.843-.27V8.117c0-.485-.37-.879-.838-.879-.47 0-.85.394-.85.879v3.603c-.296.063-.58.158-.85.28l-.987-1.673a.896.896 0 00-.124-.394c-.726-1.22-1.16-2.633-1.16-3.779 0-2.505 1.707-4.394 3.97-4.394zM4.638 17.218c-2.183-.733-3.457-3.416-2.727-5.741.724-2.305 3.124-3.57 5.352-2.821.914.307 1.912.998 2.747 1.89l1.46 2.471a4.406 4.406 0 00-.604.844l-3.315-1.114a.844.844 0 00-1.07.564.885.885 0 00.545 1.107l3.314 1.114a4.43 4.43 0 00.002 1.006l-2.122.766c-1.271.276-2.594.247-3.582-.086zm9.072 5.476c-.11 1.42-.56 2.815-1.207 3.736-1.382 1.968-3.764 2.392-5.655.971-1.894-1.424-2.316-4.177-.94-6.137 1.125-1.601 3.079-2.329 3.227-2.429l1.74-.628c.156.282.341.546.553.784l-2.05 2.918a.899.899 0 00.189 1.227.831.831 0 001.186-.194l2.049-2.917c.287.136.59.24.908.307v2.362zm.85-4.031c-1.405 0-2.549-1.183-2.549-2.636 0-1.454 1.143-2.637 2.549-2.637 1.405 0 2.548 1.183 2.548 2.637 0 1.453-1.143 2.636-2.548 2.636zm7.592 8.738c-1.952 1.468-4.199.932-5.536-.971-.647-.921-1.108-2.316-1.218-3.736v-2.362c.317-.067.632-.171.92-.307l2.048 2.917a.831.831 0 001.186.194.899.899 0 00.188-1.227l-2.049-2.918c.21-.236.394-.497.55-.776l1.583.59c.195.15 2.126.834 3.267 2.46 1.377 1.96.956 4.712-.94 6.136zm-1.308-10.084l-2.068-.771c.04-.346.041-.664.003-1.014l3.314-1.114a.885.885 0 00.545-1.107.844.844 0 00-1.07-.564l-3.315 1.114a4.413 4.413 0 00-.615-.857l1.403-2.512c.824-.865 1.8-1.535 2.696-1.836 2.227-.749 4.628.516 5.352 2.82.73 2.325-.544 5.009-2.727 5.742-.972.327-2.266.36-3.518.099z" fill="#51B74F"/></svg>