<svg width="26" height="30" fill="none" xmlns="http://www.w3.org/2000/svg"><path d="M20.349 22.599c2.586 0 4.69-2.254 4.69-5.025 0-1.14-.367-2.255-1.031-3.142a4.782 4.782 0 00-1.704-1.424 7.1 7.1 0 00.268-1.946 6.99 6.99 0 00-1.509-4.364 6.228 6.228 0 00-3.102-2.1 5.48 5.48 0 00-1.436-3.046C15.58.552 14.328 0 13 0c-1.328 0-2.58.551-3.525 1.552A5.481 5.481 0 008.04 4.597a6.229 6.229 0 00-3.102 2.101c-.973 1.213-1.509 2.763-1.509 4.364 0 .667.09 1.319.268 1.946a4.783 4.783 0 00-1.704 1.424 5.266 5.266 0 00-1.03 3.142c0 2.77 2.103 5.025 4.689 5.025h6.53v5.644H5.416V30h15.166v-1.757H13.82v-5.644h6.529zM5.651 20.842c-1.682 0-3.05-1.466-3.05-3.268 0-1.524.967-2.832 2.35-3.18l.987-.248-.432-.982a5.191 5.191 0 01-.438-2.102c0-1.181.395-2.324 1.113-3.218.71-.885 1.69-1.475 2.758-1.66l.68-.118.009-.738c.022-1.97 1.534-3.57 3.372-3.57 1.838 0 3.35 1.6 3.372 3.57l.008.738.681.118c1.069.185 2.048.775 2.759 1.66a5.152 5.152 0 011.112 3.218c0 .734-.148 1.442-.438 2.103l-.432.981.986.248c1.384.348 2.35 1.656 2.35 3.18 0 1.802-1.367 3.268-3.049 3.268H13.82v-4.887l3.003-3.217-1.16-1.243-1.843 1.975V7.648h-1.64v2.653l-1.844-1.975-1.16 1.243 3.004 3.217v3.853l-1.844-1.975-1.16 1.242 3.004 3.218v1.718H5.65z" fill="#51B74F"/></svg>