<svg width="29" height="30" fill="none" xmlns="http://www.w3.org/2000/svg"><path d="M28.075 26.984l-1.143-2.954-.554-10.067c-.177-3.223-1.904-6.097-4.619-7.688l-3.362-1.971.521-2.676a.98.98 0 00-.24-.853.907.907 0 00-.816-.28l-1.8.304a.072.072 0 01-.05-.01L14.934.133a.896.896 0 00-.959.013l-.993.64a.073.073 0 01-.052.012L11.138.495a.906.906 0 00-.815.28.98.98 0 00-.241.853l.52 2.676-3.361 1.97c-2.715 1.592-4.442 4.466-4.619 7.689l-.038.689a.435.435 0 00.4.464.43.43 0 00.45-.414l.037-.69c.16-2.922 1.727-5.529 4.189-6.972l.278-.163h13.124l.278.163c2.462 1.443 4.028 4.05 4.189 6.973l.532 9.674H24.09a.433.433 0 00-.425.44c0 .242.19.44.425.44h2.135l1.062 2.744c.16.413.113.861-.128 1.23-.241.368-.626.58-1.056.58H2.898c-.43 0-.815-.212-1.056-.58a1.339 1.339 0 01-.128-1.23l1.062-2.745h.926a.433.433 0 00.426-.44c0-.242-.19-.44-.426-.44H2.94l.391-7.11a.435.435 0 00-.4-.464.431.431 0 00-.45.414l-.412 7.504-1.143 2.954a2.26 2.26 0 00.213 2.05 2.104 2.104 0 001.76.966h23.204c.706 0 1.364-.361 1.76-.966a2.261 2.261 0 00.213-2.05zM10.935 1.385a.07.07 0 01.066-.022l1.792.303a.9.9 0 00.64-.133l.993-.641a.072.072 0 01.077-.001l1.078.656a.902.902 0 00.619.12l1.8-.304a.07.07 0 01.065.022c.018.02.025.043.02.07l-.514 2.634H11.43l-.514-2.635a.075.075 0 01.02-.069zM9.439 5.997l1.754-1.028h6.614l1.754 1.028H9.44z" fill="#51B74F"/><path d="M19.533 23.654c.17.168.439.163.601-.013a8.31 8.31 0 002.206-5.674c0-4.52-3.555-8.197-7.925-8.197-4.37 0-7.924 3.677-7.924 8.197s3.555 8.198 7.924 8.198a7.71 7.71 0 004.21-1.252.449.449 0 00.133-.606.417.417 0 00-.586-.139 6.88 6.88 0 01-3.757 1.117c-3.9 0-7.074-3.283-7.074-7.318s3.174-7.317 7.074-7.317 7.074 3.282 7.074 7.317a7.419 7.419 0 01-1.968 5.065.45.45 0 00.012.622z" fill="#51B74F"/><path d="M14.415 24.555a.433.433 0 00.426-.44v-1.077c2.113-.221 3.768-2.072 3.768-4.316 0-.89-.539-2.138-1.601-3.708a30.36 30.36 0 00-2.107-2.722.645.645 0 00-.486-.224.645.645 0 00-.486.224 30.349 30.349 0 00-2.106 2.722c-1.063 1.57-1.601 2.817-1.601 3.708 0 .64.132 1.26.394 1.838.1.22.353.315.566.212a.446.446 0 00.204-.585 3.532 3.532 0 01-.15-.396l2.754 1.639v.723a3.25 3.25 0 01-1.57-.655.416.416 0 00-.594.09.45.45 0 00.087.615 4.073 4.073 0 002.077.835v1.077c0 .243.19.44.425.44zm.426-2.404v-.721l2.753-1.639c-.394 1.25-1.46 2.19-2.754 2.36zm-2.127-6.913l1.276.76v1.575l-2.013-1.198c.22-.37.47-.753.737-1.137zm4.14 1.137l-2.013 1.198v-1.575l1.275-.76c.268.384.518.766.738 1.137zm.903 2.305l-2.917 1.735v-1.827l2.432-1.447c.292.59.473 1.123.485 1.539zm-2.154-4.15l-.762-.972c.256.313.513.64.762.971zm-1.613-.972l-.762.971a28.4 28.4 0 01.762-.97zm-2.916 5.122c.011-.416.192-.948.484-1.54l2.432 1.448v1.827l-2.916-1.735z" fill="#51B74F"/></svg>