<svg width="29" height="30" fill="none" xmlns="http://www.w3.org/2000/svg"><path d="M21.922 5.044h0a.695.695 0 00-.322.91 8.269 8.269 0 01.73 3.421c0 2.255-.876 4.347-2.466 5.892h0c-1.656 1.61-2.588 3.639-2.63 5.727h-5.482c-.13-2.176-1.053-4.226-2.579-5.69l-.069.072.07-.073c-1.569-1.505-2.458-3.549-2.502-5.755-.093-4.584 3.418-8.276 7.828-8.276a7.62 7.62 0 013.962 1.112l.052-.085-.052.085c.32.195.729.083.915-.243a.697.697 0 00-.236-.937A8.926 8.926 0 0014.5-.1c-5.158 0-9.269 4.324-9.16 9.676l.1-.002-.1.002c.051 2.58 1.09 4.97 2.924 6.73l.07-.071-.07.072c1.379 1.323 2.171 3.227 2.171 5.222v2.26c0 1.107.717 2.047 1.7 2.345v1.522c0 1.345 1.057 2.444 2.365 2.444 1.308 0 2.366-1.1 2.366-2.444v-1.522c.982-.298 1.699-1.238 1.699-2.345v-2.648c0-1.752.783-3.485 2.214-4.876 1.86-1.808 2.884-4.256 2.884-6.89a9.666 9.666 0 00-.854-3.998l-.091.041.091-.041a.659.659 0 00-.887-.333zM14.5 28.728c-.566 0-1.033-.478-1.033-1.072v-1.423h2.066v1.423c0 .594-.467 1.072-1.033 1.072zm-2.732-4.939v-1.423h5.464v1.423c0 .594-.467 1.072-1.033 1.072h-3.398c-.566 0-1.033-.478-1.033-1.072z" fill="#51B74F" stroke="#51B74F" stroke-width=".2"/><path d="M15.166 14.648a.676.676 0 01-.666.686.676.676 0 01-.666-.686V13.52c-1.928-.33-3.399-2.064-3.399-4.144 0-1.95.906-3.403 1.826-4.376a7.981 7.981 0 011.94-1.51l.965 11.16zm0 0V13.52m0 1.13v-1.13m0 0c1.928-.33 3.399-2.064 3.399-4.144 0-1.95-.906-3.403-1.827-4.376A7.982 7.982 0 0014.8 3.49l.367 10.03zm-3.398-4.144c0-2.452 1.956-3.974 2.732-4.48.777.507 2.732 2.028 2.732 4.48 0 1.324-.882 2.436-2.066 2.745V9.375a.676.676 0 00-.666-.686.676.676 0 00-.666.686v2.745c-1.184-.309-2.066-1.42-2.066-2.745zm-9.014 2.157h0a.661.661 0 01.855.41m-.855-.41L.759 13.012a.661.661 0 00.856.41h0l1.597-.6h0a.692.692 0 00.397-.879m-.855-.41l-1.597.6h0m1.597-.6l-1.597.6m2.452-.19l-.094.034.094-.034s0 0 0 0zm-2.452.19a.692.692 0 00-.398.879l.398-.878zm26.686-8.329h0a.692.692 0 00.398-.878h0a.661.661 0 00-.856-.41h0l-1.597.6h0a.692.692 0 00-.397.878h0a.661.661 0 00.855.41h0l1.597-.6zM3.212 3.116h0l.303.845.094.033s0 0 0 0a.692.692 0 00-.397-.878zm22.178 8.827h0a.692.692 0 00.398.878l.036-.093-.036.093 1.597.601h0a.662.662 0 00.856-.41h0a.692.692 0 00-.398-.878l-.035.093.035-.093-1.597-.601h0a.662.662 0 00-.855.41zM.566 8.655h1.7c.37 0 .666-.31.666-.686a.676.676 0 00-.666-.686h-1.7a.676.676 0 00-.666.686c0 .375.295.686.666.686zm27.868-1.372h-1.7a.676.676 0 00-.666.686c0 .375.295.686.666.686h1.7c.37 0 .666-.31.666-.686a.676.676 0 00-.666-.686zM20.73 4.202c.372 0 .667-.31.667-.686a.676.676 0 00-.666-.686.676.676 0 00-.667.686c0 .375.295.686.666.686z" fill="#51B74F" stroke="#51B74F" stroke-width=".2"/></svg>