<svg width="29" height="30" fill="none" xmlns="http://www.w3.org/2000/svg"><g clip-path="url(#clip0)" fill="#51B74F" stroke="#51B74F" stroke-width=".2"><path d="M12.352 17.423H9.537V2.528C9.537 1.083 8.672-.1 7.513-.1c-.577 0-1.087.304-1.449.78-.362.478-.58 1.131-.58 1.848v14.895h-2.81a.658.658 0 00-.648.666v6.338c0 3.13 2.453 5.673 5.487 5.673 3.033 0 5.487-2.543 5.487-5.672v0-6.339a.658.658 0 00-.648-.666zM7.513 1.233c.15 0 .33.11.478.342.146.227.25.556.25.953v17.655H6.796L6.78 2.528s0 0 0 0c0-.394.105-.723.253-.95.15-.233.331-.344.48-.344zm-.005 27.528c-2.312 0-4.191-1.94-4.191-4.339v0-5.666h2.162v2.094c0 .365.287.667.648.667h2.74a.658.658 0 00.648-.667v-2.094h2.162l.021 5.666c0 2.399-1.879 4.338-4.19 4.339zM23.165 17.98V2.529c0-1.445-.865-2.628-2.023-2.628-1.159 0-2.03 1.183-2.03 2.628v15.453c-2.183.67-3.808 2.403-3.808 4.456v6.446c0 .365.287.667.648.667a.658.658 0 00.648-.667v-5.779h1.57v5.779c0 .365.287.667.648.667a.658.658 0 00.648-.667v-5.779h1.028v5.779c0 .365.287.667.648.667a.658.658 0 00.648-.667v-5.779h1.022v5.779c0 .365.287.667.648.667a.658.658 0 00.648-.667v-5.779h1.57v5.779c0 .365.287.667.648.667a.658.658 0 00.648-.667v-6.445c0-2.054-1.598-3.786-3.809-4.457zM21.142 1.235c.149 0 .329.11.477.34.146.228.25.557.25.954v15.193a6.457 6.457 0 00-1.444 0l-.016-15.193s0 0 0 0c0-.394.105-.723.252-.95.15-.233.332-.344.48-.344zM25.58 21.77h-8.888c.407-1.578 2.227-2.76 4.444-2.76 2.216 0 4.036 1.202 4.444 2.76z"/></g><defs><clipPath id="clip0"><path fill="#fff" d="M0 0h29v30H0z"/></clipPath></defs></svg>