<svg width="18" height="19" fill="none" xmlns="http://www.w3.org/2000/svg"><g clip-path="url(#clip0)" fill="#FFC107"><path d="M3.54 10.197c-.459.954.063 1.41 1.254 2.19 1.012.66 2.411.901 3.31.998l-.753.764c-1.068 1.073-2.08 2.112-2.788 2.831-1.03 1.043.628 2.716 1.658 1.695l2.788-2.838c1.067 1.084 2.09 2.123 2.788 2.842 1.03 1.025 2.688-.634 1.67-1.695l-2.789-2.83-.763-.765c.91-.097 2.288-.353 3.288-.999 1.19-.784 1.712-1.239 1.26-2.193-.274-.541-1.012-.994-1.995-.211 0 0-1.327 1.073-3.467 1.073S5.535 9.986 5.535 9.986c-.983-.787-1.724-.33-1.994.211z"/><path d="M9 9.612c2.608 0 4.738-2.151 4.738-4.8 0-2.66-2.13-4.812-4.739-4.812S4.26 2.152 4.26 4.812c0 2.649 2.13 4.8 4.74 4.8zm0-7.174c1.281 0 2.326 1.061 2.326 2.374 0 1.301-1.045 2.363-2.327 2.363-1.281 0-2.327-1.062-2.327-2.363 0-1.314 1.045-2.374 2.327-2.374z"/></g><defs><clipPath id="clip0"><path fill="#fff" d="M0 0h18v19H0z"/></clipPath></defs></svg>