<svg width="12" height="12" fill="none" xmlns="http://www.w3.org/2000/svg"><g clip-path="url(#clip0)" fill="#796225"><path d="M11.957 9.418L11.26 7.39a5.08 5.08 0 00.514-2.22 5.038 5.038 0 00-1.455-3.557A5.034 5.034 0 006.788.095a5.03 5.03 0 00-3.666 1.484 5.027 5.027 0 00-1.484 3.518A3.694 3.694 0 00.516 9.635l-.48 1.397c-.082.24-.022.5.158.68a.655.655 0 00.68.158l1.397-.48a3.71 3.71 0 001.58.356h.005a3.688 3.688 0 002.982-1.516 5.084 5.084 0 002.095-.513l2.028.697a.778.778 0 00.809-.187.778.778 0 00.187-.809zm-8.1 1.614h-.005c-.484 0-.963-.12-1.388-.345a.357.357 0 00-.283-.022l-1.433.493.493-1.433a.357.357 0 00-.022-.283 2.976 2.976 0 01.485-3.453 5.038 5.038 0 001.452 2.787 5.041 5.041 0 002.79 1.399 2.97 2.97 0 01-2.09.857zm7.408-1.31a.065.065 0 01-.072.016l-2.171-.746a.357.357 0 00-.283.022 4.36 4.36 0 01-2.026.503h-.007c-2.364 0-4.317-1.92-4.354-4.283a4.321 4.321 0 011.275-3.15A4.322 4.322 0 016.777.809c2.365.037 4.287 1.994 4.283 4.36a4.365 4.365 0 01-.503 2.027.357.357 0 00-.022.283l.746 2.171a.065.065 0 01-.016.072z"/><path d="M8.833 3.27H4.578a.357.357 0 000 .714h4.255a.357.357 0 000-.714zm0 1.469H4.578a.357.357 0 000 .714h4.255a.357.357 0 000-.714zM7.195 6.207H4.578a.357.357 0 000 .715h2.617a.357.357 0 000-.715z"/></g><defs><clipPath id="clip0"><path fill="#fff" d="M0 0h12v12H0z"/></clipPath></defs></svg>