<svg width="76" height="80" fill="none" xmlns="http://www.w3.org/2000/svg"><path d="M16.128 0c5.568 0 9.984 2.112 13.248 6.336 3.456 4.224 5.184 9.6 5.184 16.128 0 8.064-2.112 17.568-6.336 28.512-4.032 10.944-9.792 20.544-17.28 28.8l-7.2-5.76c3.84-4.608 7.488-11.136 10.944-19.584 3.456-8.256 5.184-16.224 5.184-23.904v-2.304h-.576a19.232 19.232 0 01-6.624 1.152c-3.456 0-6.432-1.344-8.928-4.032C1.248 22.656 0 19.584 0 16.128 0 11.136 1.536 7.2 4.608 4.32 7.68 1.44 11.52 0 16.128 0zm40.616 0c5.568 0 9.984 2.112 13.248 6.336 3.456 4.224 5.184 9.6 5.184 16.128 0 8.064-2.112 17.568-6.336 28.512-4.032 10.944-9.792 20.544-17.28 28.8l-7.2-5.76c3.84-4.608 7.488-11.136 10.944-19.584 3.456-8.256 5.184-16.224 5.184-23.904v-2.304h-.576a19.232 19.232 0 01-6.624 1.152c-3.456 0-6.432-1.344-8.928-4.032-2.496-2.688-3.744-5.76-3.744-9.216 0-4.992 1.536-8.928 4.608-11.808C48.296 1.44 52.136 0 56.744 0z" fill="#FFF4D9"/></svg>