<svg width="28" height="28" fill="none" xmlns="http://www.w3.org/2000/svg"><path d="M13.963 0C21.728 0 28 6.272 28 13.963A14.021 14.021 0 0113.963 28C6.272 28 0 21.728 0 13.963 0 6.272 6.272 0 13.963 0zm0 1.867c-6.646 0-12.096 5.45-12.096 12.096 0 6.72 5.45 12.096 12.096 12.096 6.72 0 12.096-5.376 12.096-12.096 0-6.646-5.376-12.096-12.096-12.096z" fill="#51B74F"/><path fill-rule="evenodd" clip-rule="evenodd" d="M13.963 15.979a9.277 9.277 0 017.765 4.181c.299.448.224 1.12-.15 1.568-2.015 1.941-4.629 3.061-7.615 3.061-2.912 0-5.6-1.12-7.542-3.061-.448-.448-.522-1.12-.149-1.568a9.13 9.13 0 017.69-4.181zm0-9.483a4.015 4.015 0 014.032 4.032 4.015 4.015 0 01-4.032 4.032 4.015 4.015 0 01-4.032-4.032 4.015 4.015 0 014.032-4.032z" fill="#51B74F"/></svg>