<svg width="19" height="19" fill="none" xmlns="http://www.w3.org/2000/svg"><g clip-path="url(#clip0)"><path d="M16.352 10.96c.63.616 1.296 1.195 1.86 1.872.25.301.487.612.668.961.256.497.024 1.043-.421 1.073l-2.768-.001c-.714.059-1.284-.229-1.763-.717-.383-.39-.738-.805-1.106-1.209a2.624 2.624 0 00-.498-.443c-.378-.245-.706-.17-.922.224-.22.401-.27.845-.291 1.292-.03.651-.227.823-.882.853-1.399.066-2.727-.146-3.96-.852-1.088-.622-1.932-1.5-2.666-2.495C2.174 9.58 1.08 7.453.096 5.266c-.221-.493-.06-.758.484-.767a75.139 75.139 0 012.71-.001c.367.005.61.216.752.562a16.799 16.799 0 001.837 3.404c.2.282.403.564.693.763.321.22.566.146.717-.211.096-.227.137-.471.16-.714.07-.835.08-1.67-.045-2.502-.077-.52-.37-.856-.889-.954-.264-.05-.225-.149-.097-.3.223-.26.432-.422.85-.422h3.128c.492.097.601.318.669.814l.002 3.475c-.005.191.096.76.442.888.276.09.459-.131.624-.307.75-.794 1.284-1.734 1.762-2.707.212-.428.394-.872.57-1.316.131-.329.337-.491.708-.484l3.01.003c.09 0 .18.001.266.016.508.086.647.305.49.8-.247.777-.727 1.425-1.197 2.076-.502.695-1.039 1.366-1.537 2.064-.457.639-.421.96.147 1.515z" fill="#436EAB"/></g><defs><clipPath id="clip0"><path fill="#fff" d="M0 0h19v19H0z"/></clipPath></defs></svg>