<svg width="425" height="246" fill="none" xmlns="http://www.w3.org/2000/svg"><path d="M416.581 107.852L237.651 5.398c-10.601-6.103-27.694-6.103-38.241 0L7.877 116.656c-10.548 6.103-10.493 15.986.108 22.143l178.93 102.455c10.602 6.103 27.694 6.103 38.242 0l191.532-111.258c10.548-6.103 10.494-16.041-.108-22.144z" fill="#F3F3F3"/><path d="M205.36 208.201L56.936 122.867l170.871-97.486 148.423 85.28-170.87 97.54z" fill="#fff"/><path d="M376.23 110.661v6.427l-170.871 97.54v-6.427l170.871-97.54z" fill="#D8D8D8"/><path d="M56.937 122.867v6.427l148.423 85.334v-6.427L56.936 122.867z" fill="#B5B5B5"/><path d="M202.601 175.31l-9.682-5.563c-.325-.216-.649-.27-.974-.27-.324 0-.595.054-.919.27l-6.437 3.726c-.27.162-.433.324-.433.54 0 .216.163.378.487.594l9.682 5.509c.108.054.162.108.271.054a.41.41 0 00.216-.108l.92-.54a.668.668 0 00.162-.108c0-.054-.054-.108-.162-.162l-9.412-5.401 5.463-3.132 9.412 5.401a.587.587 0 00.27.054.41.41 0 00.216-.108l.92-.54a.668.668 0 00.162-.108s-.054-.054-.162-.108zm-.703-4.106a3.888 3.888 0 01-1.028-.756c-.27-.27-.487-.54-.541-.81-.108-.27-.054-.54.054-.81s.379-.486.757-.756c.433-.27.92-.432 1.353-.486a5.657 5.657 0 011.352 0c.433.054.92.216 1.352.378.433.162.866.378 1.244.594.379.216.758.486 1.028.756.325.27.487.54.649.81.108.27.108.54 0 .81s-.379.54-.811.81c-.433.27-.866.432-1.298.486-.433.054-.866.108-1.353 0-.432-.054-.919-.162-1.352-.378-.487-.162-.919-.378-1.406-.648zm5.841-3.402c-1.298-.756-2.65-1.189-4.002-1.243-1.352-.054-2.597.216-3.786.919-.487.324-.92.648-1.136.972-.271.378-.379.756-.325 1.134.054.378.216.81.595 1.188.379.432.866.81 1.569 1.188 1.406.81 2.758 1.242 4.11 1.297 1.299.054 2.543-.271 3.733-.919 1.19-.702 1.731-1.404 1.622-2.214-.216-.702-.973-1.512-2.38-2.322zm6.167-.055c-.054-.108-.108-.27-.162-.378-.108-.108-.217-.27-.379-.432a5.292 5.292 0 00-.757-.594c-.325-.27-.703-.54-1.19-.918l-2.218-1.674 3.029-1.729 5.896 3.403-4.219 2.322zm6.978-3.456c-.055-.054-.163-.108-.325-.108-.162-.054-.379 0-.595.108l-.487.216-6.328-3.673c-.217-.108-.433-.216-.649-.216-.217-.054-.487.054-.866.27l-3.84 2.215c-.325.162-.487.324-.487.486-.054.162.054.324.325.486l3.245 2.538c.541.432.919.756 1.19 1.026.27.27.433.594.433.919l-.379.27c-.162.108-.27.27-.216.324a.422.422 0 00.216.216s.054 0 .054.054l2.975 1.512a.408.408 0 00.216.054l.109-.054.865-.486.054-.108c0-.054 0-.054-.108-.108l-2.11-1.404 5.842-3.403 2.326 1.242c.162.054.27.108.379.054l.865-.486c.108-.054.108-.162-.054-.216l-2.65-1.728c.054 0 0 0 0 0zm.757-8.209l-.595-.324c-.109-.054-.163-.108-.271-.108-.108 0-.162 0-.27.108l-3.192 1.891c-.486.27-.811.54-1.027.81-.163.27-.271.486-.217.756.054.216.163.432.433.648.216.216.487.432.811.594l5.409 3.133c.108.054.217.108.325.108.108 0 .162-.054.27-.108l.758-.432c.108-.054.162-.108.162-.162 0-.054-.054-.108-.162-.162l-5.626-3.241c-.378-.216-.541-.432-.541-.594 0-.216.217-.432.595-.648l3.192-1.836c.108-.054.162-.108.162-.163-.054-.108-.108-.162-.216-.27zm4.868.81a3.888 3.888 0 01-1.028-.756c-.27-.27-.487-.541-.541-.811-.108-.27-.054-.54.054-.81s.379-.486.757-.756c.433-.27.92-.432 1.353-.486a5.657 5.657 0 011.352 0c.433.054.919.216 1.352.378.433.162.866.378 1.244.648a8.39 8.39 0 011.028.702c.325.27.487.54.649.81.108.271.108.541 0 .811s-.379.54-.811.756c-.433.27-.866.432-1.298.486-.433.054-.866.108-1.353.054-.432-.054-.919-.162-1.352-.378-.433-.108-.919-.378-1.406-.648zm5.896-3.403c-1.299-.756-2.651-1.188-4.003-1.242-1.352-.054-2.596.216-3.786.918-.487.324-.92.648-1.136.972-.271.378-.379.756-.325 1.134.054.378.216.811.595 1.189.325.432.866.81 1.569 1.188 1.406.81 2.758 1.242 4.111 1.296 1.298.054 2.542-.27 3.732-.918 1.19-.702 1.731-1.404 1.622-2.215-.27-.702-1.027-1.512-2.379-2.322zm4.489-6.211l-.595-.378c-.108-.054-.162-.108-.271-.108-.108 0-.162 0-.324.108l-6.22 3.619c-.109.054-.163.108-.163.162 0 .054.054.108.163.162l.595.378a.487.487 0 00.27.054c.054 0 .162 0 .27-.108l2.38-1.405 6.762 3.889c.108.054.216.108.27.108.054 0 .162-.054.271-.108l.757-.432c.108-.054.162-.108.162-.162 0-.054-.054-.108-.162-.162l-6.707-3.889 2.488-1.458c.108-.054.162-.108.162-.162l-.108-.108zm4.868.811a3.905 3.905 0 01-1.028-.756c-.27-.27-.487-.54-.541-.81-.108-.27-.054-.54.054-.81.109-.27.379-.487.758-.757.432-.27.919-.432 1.352-.486.487-.054.92-.054 1.352 0 .433.054.92.216 1.352.378.433.162.866.378 1.245.649.378.216.757.486 1.027.702.271.27.487.54.595.81.108.27.108.54 0 .81s-.378.54-.811.81c-.433.27-.866.432-1.298.486a5.657 5.657 0 01-1.352 0c-.433-.054-.92-.162-1.353-.378a7.741 7.741 0 01-1.352-.648zm5.842-3.403c-1.298-.756-2.651-1.188-4.003-1.242-1.352-.054-2.596.216-3.786.918-.541.324-.92.648-1.136.972-.271.379-.379.757-.325 1.135.054.378.217.81.595 1.188.379.432.866.81 1.569 1.188 1.406.81 2.759 1.242 4.111 1.296 1.298.054 2.542-.27 3.732-.918 1.19-.702 1.731-1.404 1.623-2.214-.271-.756-.974-1.512-2.38-2.323zm.216-3.403l2.705-1.566c.324-.216.703-.27 1.082-.27.378 0 .703.054.973.216.217.108.379.27.433.378.054.108.054.27.054.378-.054.108-.108.216-.216.324a1.147 1.147 0 01-.325.216l-2.596 1.512-2.11-1.188zm3.137 1.782l2.543-1.458c.541-.324 1.027-.486 1.568-.486.487 0 .974.108 1.353.324.162.108.27.162.378.324.108.108.217.27.217.378 0 .162 0 .324-.163.486a1.701 1.701 0 01-.649.54l-2.542 1.459-2.705-1.567zm6.924-2.376c-.433-.27-.92-.432-1.515-.486-.595-.108-1.19-.054-1.839.162l-.054-.054a.86.86 0 00.054-.81c-.108-.27-.378-.54-.703-.702a3.37 3.37 0 00-2.272-.486c-.757.054-1.514.324-2.271.756l-3.354 1.944c-.216.108-.324.216-.324.378 0 .108.108.27.27.378l6.924 3.997c.162.108.378.162.595.162.216 0 .432-.054.649-.162l3.515-2.052c.379-.216.704-.433.866-.703.216-.27.324-.486.324-.756.055-.27-.054-.54-.162-.756-.054-.324-.324-.594-.703-.81zm10.71-3.672l-7.302-4.212a1.445 1.445 0 00-.649-.162 1.09 1.09 0 00-.595.162l-.379.216c-.216.108-.324.216-.324.324 0 .108 0 .216.054.378l1.298 3.456c.108.378.216.702.378 1.026.109.325.271.649.433 1.027l-.054.054-6.004-3.457c-.108-.054-.216-.108-.27-.108a.412.412 0 00-.217.108l-.865.486c-.054.054-.108.108-.162.108 0 .054.054.108.162.162l7.302 4.213c.216.108.433.162.649.162.216 0 .433-.054.595-.162l.379-.216c.162-.108.27-.216.324-.324.054-.108.054-.216-.054-.378l-1.244-3.511a1.918 1.918 0 00-.216-.486 3.534 3.534 0 00-.163-.432c-.054-.162-.108-.324-.216-.432l-.162-.486.108-.054 5.95 3.402a.408.408 0 00.216.054.412.412 0 00.217-.108l.865-.486a.668.668 0 00.162-.108.422.422 0 00-.216-.216zm.919-8.641l-.595-.378c-.108-.054-.162-.108-.27-.108-.054 0-.163 0-.325.108l-6.22 3.618c-.108.054-.162.108-.162.162 0 .054.054.108.162.162l.595.378c.108.054.162.054.27.108.108 0 .162 0 .271-.108l2.38-1.404 6.707 3.889c.108.054.216.108.27.108.054 0 .163-.054.271-.108l.757-.432c.108-.054.162-.108.162-.162 0-.054-.054-.108-.162-.162l-6.707-3.889 2.488-1.458c.108-.054.162-.108.162-.162.054-.108.054-.162-.054-.162zm4.273.378c-.27-.216-.54-.432-.703-.648-.162-.216-.324-.486-.324-.702-.054-.216 0-.486.108-.702.108-.216.379-.432.703-.648.433-.216.811-.379 1.244-.487.379-.108.812-.108 1.19-.054.379.054.757.108 1.082.271.379.108.703.324 1.028.486l-4.328 2.484zm5.409-3.295c-.486-.27-1.027-.54-1.568-.702-.541-.162-1.136-.27-1.677-.27a6.73 6.73 0 00-1.785.216c-.595.162-1.19.378-1.785.756a4.252 4.252 0 00-1.136.973c-.216.378-.324.756-.27 1.134.054.378.216.81.595 1.188.324.432.865.81 1.568 1.188.758.432 1.461.756 2.164.972a6.8 6.8 0 002.055.324c.65 0 1.299-.054 1.948-.216a6.583 6.583 0 001.785-.756 4.352 4.352 0 001.136-.81c.378-.27.595-.594.757-.972.054-.054.054-.108-.054-.162-.054 0-.108-.054-.163-.054l-.973-.216c-.217-.054-.325 0-.379.108-.108.216-.27.432-.541.648-.27.216-.541.486-.865.648a3.91 3.91 0 01-1.082.486 4.618 4.618 0 01-1.244.162c-.433 0-.865-.054-1.352-.162-.487-.108-.974-.324-1.461-.594l4.436-2.592c.162-.108.27-.162.378-.27.108-.108.163-.216.163-.324 0-.108 0-.216-.109-.378-.108-.054-.27-.217-.541-.325zm12.982-2.106l-7.14-4.105a1.35 1.35 0 00-.757-.216c-.216 0-.487.054-.811.216l-4.003 2.323c-.216.108-.379.27-.379.432 0 .162.109.324.379.486l1.569 1.026c.865.594 1.514 1.026 2.001 1.404.487.378.865.702 1.082.972.216.27.324.486.324.702 0 .216-.108.433-.216.649-.054.108-.054.216.054.27.054 0 .054.054.108.054l.812.216c.162.054.216.054.324 0l.162-.162c.325-.378.487-.702.541-1.027.054-.324-.054-.648-.378-1.026-.271-.378-.703-.756-1.353-1.242-.595-.486-1.406-1.026-2.325-1.674l-1.082-.702 2.975-1.729 6.761 3.889a.587.587 0 00.27.054c.055 0 .163-.054.271-.108l.757-.432c.108-.054.162-.108.217-.162-.055 0-.109-.054-.163-.108zm-.703-4.267l2.434-1.404c.27-.162.541-.27.865-.324.325-.054.595-.108.866-.108.27 0 .541.054.811.108s.487.162.703.27c.162.108.271.216.433.324.162.108.216.27.27.432.054.162 0 .324-.108.54-.108.216-.324.378-.703.594l-2.434 1.404-3.137-1.836zm6.977-2.268a6.834 6.834 0 00-.865-.378 7.818 7.818 0 00-1.298-.27c-.487-.054-1.028 0-1.623.108a4.92 4.92 0 00-1.785.702l-2.488 1.458-2.542-1.458c-.109-.054-.217-.108-.271-.108-.054 0-.162.054-.27.108l-.758.432c-.108.054-.162.108-.162.162 0 .054.054.108.162.162l7.086 4.051c.217.108.433.216.703.216.271.054.541 0 .812-.216l3.299-1.945a3.01 3.01 0 00.866-.756c.162-.27.27-.54.27-.81s-.108-.54-.27-.81c-.217-.162-.487-.432-.866-.648zm10.71-3.403l-7.626-4.374c-.108-.054-.217-.108-.271-.108-.054 0-.162.054-.27.108l-.757.432c-.109.054-.163.108-.163.162 0 .054.054.108.163.162l2.92 1.674-4.002 2.322-2.921-1.674c-.108-.054-.216-.108-.271-.108-.054 0-.162.054-.27.108l-.757.432c-.108.054-.162.108-.162.162 0 .054.054.108.162.162l7.626 4.375c.109.054.217.108.325.108.108 0 .162-.054.27-.108l.758-.432c.108-.054.162-.108.162-.162 0-.054-.054-.108-.162-.162l-3.516-2.052 4.003-2.323 3.515 2.052c.109.054.217.108.271.108.108 0 .162-.054.27-.108l.758-.432c.108-.054.162-.108.162-.162a.738.738 0 00-.217-.162zm-.595-4.267l2.435-1.404c.27-.162.54-.27.865-.324.325-.054.595-.108.865-.108.271 0 .541.054.812.108.27.054.487.162.703.27.162.108.27.216.433.324.162.108.216.27.27.432.054.162 0 .324-.108.54-.108.216-.325.378-.703.594l-2.434 1.404-3.138-1.836zm6.978-2.214a6.834 6.834 0 00-.865-.378 7.93 7.93 0 00-1.299-.271c-.486-.054-1.027 0-1.622.109a4.92 4.92 0 00-1.785.702l-2.488 1.458-2.543-1.458c-.108-.054-.216-.108-.27-.108-.054 0-.162.054-.27.108l-.758.432c-.108.054-.162.108-.162.162 0 .054.054.108.162.162l7.086 4.05c.216.108.433.216.703.216.271.054.541 0 .812-.216l3.299-1.944a3.01 3.01 0 00.866-.756c.162-.27.27-.54.27-.81s-.108-.54-.27-.81a4.004 4.004 0 00-.866-.648zm4.706.054l-7.627-4.375c-.108-.054-.216-.108-.27-.108-.108 0-.162.054-.271.108l-.757.432c-.108.054-.162.108-.162.162 0 .054.054.108.162.162l7.627 4.375c.108.054.216.108.27.108.054 0 .162-.054.271-.108l.757-.432c.108-.054.162-.108.162-.162 0-.054-.054-.108-.162-.162zm-2.543-10.694c-.054-.054-.162-.054-.27-.054l-.541.054-.162.054c-.054 0-.054.054-.054.162.054.486-.054.864-.162 1.134-.109.27-.325.432-.595.595-.325.162-.704.324-1.19.378-.541.054-1.082.108-1.731.108h-.271c-.054 0-.108.054-.108.162l-.054.324c0 .054 0 .108.054.162h.054l.162.054c.758.108 1.461.108 2.218.054.757-.054 1.352-.216 1.893-.54.379-.216.703-.54.866-.972.216-.433.216-.919.054-1.513l-.163-.162zm11.468 5.563l-7.303-4.213a1.438 1.438 0 00-.649-.162c-.216 0-.432.054-.595.162l-.378.216c-.217.109-.325.216-.325.325 0 .108 0 .216.054.378l1.298 3.456c.109.378.217.702.379 1.026.108.324.27.648.433 1.027l-.054.054-6.004-3.457c-.108-.054-.163-.108-.271-.108a.41.41 0 00-.216.108l-.866.486c-.108.054-.108.108-.162.108 0 .054.054.108.162.162l7.303 4.213c.216.108.432.162.649.162.216 0 .432-.054.595-.162l.378-.216c.163-.108.271-.216.325-.324.054-.108.054-.216-.054-.378l-1.244-3.511a1.922 1.922 0 00-.217-.486 3.72 3.72 0 00-.162-.432c-.054-.162-.108-.324-.216-.432a1.925 1.925 0 00-.217-.486l.109-.054 5.949 3.402a.413.413 0 00.217.054.41.41 0 00.216-.108l.866-.486a.668.668 0 00.162-.108c-.054-.108-.108-.162-.162-.216zm-52.955 51.848c-.054-.054-.162-.108-.324-.108-.163-.054-.379 0-.595.108l-.487.216-6.761-3.888c-.108-.054-.217-.108-.271-.108-.054 0-.162.054-.27.108l-.757.432a.738.738 0 00-.217.162c0 .054.054.108.162.162l6.816 3.943-4.003 2.322-6.815-3.943c-.108-.054-.217-.108-.271-.108-.054 0-.162.054-.27.108l-.757.432c-.109.054-.163.108-.163.162 0 .054.054.108.163.162l7.085 4.105c.271.162.541.216.812.216.27 0 .541-.054.757-.162l5.463-3.132 2.326 1.242c.162.054.27.054.379 0l.865-.486.108-.108c0-.054-.054-.054-.108-.108l-2.867-1.729c0 .054 0 0 0 0zm-1.622-3.889a2.778 2.778 0 01-.704-.648c-.162-.216-.324-.486-.324-.702-.054-.216 0-.486.108-.702.108-.216.379-.432.703-.648.433-.216.812-.378 1.244-.486a2.994 2.994 0 011.19-.054c.379.054.758.108 1.136.27.379.162.703.27 1.028.486l-4.381 2.484zm5.463-3.294c-.487-.27-1.028-.54-1.623-.702-.541-.162-1.136-.27-1.677-.27-.595 0-1.19.054-1.731.216-.595.162-1.19.378-1.785.756-.486.324-.865.648-1.136.972-.216.378-.324.756-.27 1.134.054.378.216.81.595 1.188.379.433.865.811 1.569 1.189.757.432 1.46.756 2.163.918a6.802 6.802 0 002.056.324c.649 0 1.298-.054 1.947-.216a7.39 7.39 0 001.785-.756 4.335 4.335 0 001.136-.81c.324-.27.595-.595.757-.973.054-.054.054-.108-.054-.162-.054 0-.108-.054-.162-.054l-.974-.162c-.216-.054-.324 0-.379.108a2.56 2.56 0 01-.486.649c-.271.216-.541.486-.866.648a3.897 3.897 0 01-1.082.486 4.612 4.612 0 01-1.244.162c-.432 0-.865-.054-1.352-.162-.487-.108-.974-.324-1.46-.594l4.435-2.593c.162-.108.27-.162.379-.27.108-.108.162-.216.162-.324 0-.108 0-.216-.108-.378-.163-.054-.325-.162-.595-.324zm12.603-1.728l-.163-.054-6.869-.81-1.19-3.457-.108-.108c-.054-.054-.108 0-.217.054l-1.027.594-.162.162v.162l1.027 2.485-4.327-.594h-.27c-.055 0-.163.054-.271.108l-1.028.594c-.108.054-.108.108-.054.108l.054.054c.054 0 .109.054.163.054l5.95.702 1.406 3.943c0 .054.054.108.108.108.054.054.162 0 .271-.054l.973-.595c.108-.054.162-.108.162-.162v-.162l-1.135-2.97 5.084.702h.27c.055 0 .163-.054.271-.108l1.136-.648c0-.054 0-.054-.054-.108z" fill="#272727"/><path opacity=".3" d="M218.179 132.426l58.958-33.971L224.4 68.048l-58.959 33.971 52.738 30.407z" fill="#000"/><path d="M165.442 102.019l16.118-9.29v-41.1l-10.385 4.807-6.545 3.618-1.027 27.437 1.839 14.528z" fill="#16A89F"/><path d="M161.817 99.913l3.624 2.107V60.919l-3.624-2.106v41.1z" fill="#0A8074"/><path d="M209.309 31.97l15.361-8.858-8.925-5.13-15.415 8.857 8.979 5.13z" fill="#0BCA8E"/><path d="M209.309 76.797V31.97l-8.979-5.131v44.773l8.979 5.185z" fill="#447056"/><path d="M209.309 76.797V31.97l15.361-8.858V67.94l-15.361 8.857z" fill="#518265"/><path d="M220.884 110.12l47.869-27.706-46.517-26.843-47.87 27.707 46.518 26.842z" fill="#939598"/><path d="M220.884 127.294V110.12l-46.518-26.843v17.175l46.518 26.842z" fill="#808285"/><path d="M220.884 127.295v-17.174l47.869-27.707V99.59l-47.869 27.706z" fill="#A7A9AC"/><path d="M217.746 40.773s-.054 0-.054-.054c-.27-.162-.649-.108-1.081.108L161.168 72.8c-.054.054-.108.054-.162.109-.811.54-1.406 1.674-1.406 2.592v.162c0 .486.162.864.432 1.026l52.792 30.407 57.606-35.97-52.684-30.353z" fill="#535359"/><path d="M270.592 72.368v.162c0 .81-.541 1.783-1.244 2.16l-55.442 31.974c-.379.216-.758.216-.974 0 .162 0 .379-.054.595-.162l55.442-32.027c.704-.378 1.245-1.35 1.245-2.16v-.163c0-.324-.109-.594-.271-.702.379.054.649.378.649.918z" fill="#535359"/><path d="M270.214 72.206v.162c0 .81-.541 1.782-1.244 2.16l-55.442 31.974a1.416 1.416 0 01-.595.162c-.163-.162-.271-.378-.271-.702v-.163c0-.81.541-1.782 1.244-2.16l55.442-31.973c.217-.108.433-.162.595-.162.163.108.271.378.271.702z" fill="#939598"/><path d="M269.348 71.612c.703-.378 1.244-.054 1.244.702v.163c0 .81-.541 1.782-1.244 2.16l-55.442 31.973c-.703.378-1.244.054-1.244-.702v-.162c0-.81.541-1.782 1.244-2.16l55.442-31.974zm0-.324l-55.442 31.973c-.865.487-1.569 1.729-1.569 2.701v.162c0 .972.704 1.404 1.569.918l55.442-31.973c.866-.486 1.569-1.728 1.569-2.7v-.163c0-1.026-.703-1.404-1.569-.918z" fill="#303033"/><path d="M216.502 103.099l-.378-.162a.64.64 0 00-.541.054c-.487.27-.866.918-.866 1.512 0 .27.108.486.271.54l.27.108.054-.108c.108 0 .163-.054.271-.108.487-.27.865-.918.865-1.512v-.216l.054-.108z" fill="#BCBEC0"/><path d="M216.719 103.639c0 .54-.379 1.188-.866 1.458s-.865.054-.865-.486.378-1.188.865-1.458c.487-.324.866-.054.866.486z" fill="#85878A"/><path d="M216.286 103.855c0 .27-.216.594-.433.756-.162.108-.324.054-.378-.054.054 0 .108 0 .162-.054.216-.162.433-.486.433-.756 0-.108 0-.162-.054-.216.162 0 .27.162.27.324z" fill="#BCBEC0"/><path d="M216.124 103.747c0 .27-.217.594-.433.756-.054.054-.108.054-.162.054-.054-.054-.054-.108-.054-.216 0-.27.216-.594.432-.756.054-.054.108-.054.163-.054 0 .108.054.162.054.216z" fill="#4A4A4A"/><path d="M222.939 99.372l-.379-.162a.642.642 0 00-.541.054c-.487.27-.865.918-.865 1.513 0 .27.108.486.27.594l.271.108.054-.108c.108 0 .162-.054.27-.108.487-.27.866-.919.866-1.513v-.216l.054-.162z" fill="#BCBEC0"/><path d="M223.155 99.912c0 .54-.378 1.188-.865 1.458s-.866.054-.866-.486.379-1.188.866-1.458.865-.054.865.486z" fill="#85878A"/><path d="M222.723 100.182c0 .271-.217.595-.433.757-.162.108-.325.054-.379-.054.054 0 .108 0 .162-.054.217-.162.433-.487.433-.757 0-.108 0-.162-.054-.216.162 0 .271.108.271.324z" fill="#BCBEC0"/><path d="M222.506 100.074c0 .27-.216.595-.433.757-.054.054-.108.054-.162.054-.054-.054-.054-.108-.054-.216 0-.271.216-.595.433-.757.054-.054.108-.054.162-.054.054.054.054.108.054.216z" fill="#4A4A4A"/><path d="M229.376 95.7l-.379-.162c-.162-.054-.324-.054-.541.054-.487.27-.865.919-.865 1.513 0 .27.108.486.27.594l.271.108.054-.108c.108 0 .162-.054.27-.108.487-.27.866-.918.866-1.512v-.216l.054-.163z" fill="#BCBEC0"/><path d="M229.538 96.24c0 .54-.379 1.188-.865 1.458-.487.27-.866.054-.866-.486s.379-1.188.866-1.458c.486-.27.865-.054.865.486z" fill="#85878A"/><path d="M229.16 96.457c0 .27-.217.594-.433.756-.162.108-.325.054-.379-.054.054 0 .108 0 .162-.054.217-.162.433-.486.433-.756 0-.108 0-.162-.054-.216.162.054.271.162.271.324z" fill="#BCBEC0"/><path d="M228.943 96.403c0 .27-.216.594-.433.756-.054.054-.108.054-.162.054-.054-.054-.054-.108-.054-.216 0-.27.216-.594.433-.757.054-.053.108-.053.162-.053.054.053.054.108.054.216z" fill="#4A4A4A"/><path d="M235.758 92.028l-.378-.162c-.162-.055-.325-.055-.595.054-.487.27-.866.918-.866 1.458 0 .27.109.486.271.594l.27.108.054-.108c.109 0 .163-.054.271-.108.487-.27.865-.918.865-1.458v-.216l.108-.162z" fill="#BCBEC0"/><path d="M235.975 92.513c0 .54-.379 1.189-.865 1.459-.487.27-.866.054-.866-.486s.379-1.189.866-1.459c.486-.27.865-.054.865.486z" fill="#85878A"/><path d="M235.542 92.784c0 .27-.216.594-.432.756-.163.108-.325.054-.379-.054.054 0 .108 0 .162-.054.217-.162.433-.486.433-.756 0-.108 0-.162-.054-.216.162 0 .27.108.27.324z" fill="#BCBEC0"/><path d="M235.38 92.676c0 .27-.216.594-.433.756-.054.054-.108.054-.162.054-.054-.054-.054-.108-.054-.216 0-.27.216-.594.433-.756.054-.054.108-.054.162-.054 0 .054.054.108.054.216z" fill="#4A4A4A"/><path d="M242.195 88.301l-.379-.162a.785.785 0 00-.595.054c-.486.27-.865.918-.865 1.458 0 .27.108.486.27.594l.271.108.054-.108c.108 0 .162-.054.27-.108.487-.27.866-.918.866-1.458v-.216l.108-.162z" fill="#BCBEC0"/><path d="M242.412 88.84c0 .54-.379 1.189-.866 1.459s-.865.054-.865-.486.378-1.188.865-1.459c.487-.27.866-.053.866.487z" fill="#85878A"/><path d="M241.979 89.057c0 .27-.217.594-.433.757-.162.108-.324.054-.379-.054.055 0 .109 0 .163-.054.216-.163.432-.487.432-.757 0-.108 0-.162-.054-.216.163.054.271.162.271.324z" fill="#BCBEC0"/><path d="M241.762 89.003c0 .27-.216.594-.432.756-.054.054-.109.054-.163.054-.054-.054-.054-.108-.054-.216 0-.27.217-.594.433-.756.054-.054.108-.054.162-.054.054.054.054.108.054.216z" fill="#4A4A4A"/><path d="M248.632 84.628l-.379-.216c-.162-.054-.325-.054-.595.108-.487.27-.866.918-.866 1.458 0 .27.109.487.271.595l.27.108.054-.108c.109 0 .163-.054.271-.108.487-.27.865-.919.865-1.459v-.216l.109-.162z" fill="#BCBEC0"/><path d="M248.848 85.114c0 .54-.379 1.188-.865 1.458-.487.27-.866.054-.866-.486s.379-1.188.866-1.458c.432-.27.865-.054.865.486z" fill="#85878A"/><path d="M248.415 85.385c0 .27-.216.594-.432.756-.163.108-.325.054-.379-.054.054 0 .108 0 .162-.054.217-.162.433-.486.433-.756 0-.108 0-.162-.054-.216.162 0 .27.108.27.324z" fill="#BCBEC0"/><path d="M248.199 85.277c0 .27-.216.594-.433.756-.054.054-.108.054-.162.054-.054-.054-.054-.108-.054-.216 0-.27.216-.594.433-.756.054-.054.108-.054.162-.054.054.054.054.162.054.216z" fill="#4A4A4A"/><path d="M255.014 80.902l-.378-.216a.784.784 0 00-.595.054c-.487.27-.866.918-.866 1.458 0 .27.108.486.271.594l.27.108.054-.108c.108 0 .163-.054.271-.108.487-.27.865-.918.865-1.458v-.216l.108-.108z" fill="#BCBEC0"/><path d="M255.231 81.442c0 .54-.379 1.188-.866 1.458-.486.27-.865.054-.865-.486s.379-1.188.865-1.458c.487-.27.866-.054.866.486z" fill="#85878A"/><path d="M254.798 81.658c0 .27-.216.594-.433.756-.162.108-.324.054-.378-.054.054 0 .108 0 .162-.054.216-.162.433-.486.433-.756 0-.108 0-.162-.054-.216.162.054.27.162.27.324z" fill="#BCBEC0"/><path d="M254.636 81.604c0 .27-.216.594-.433.756-.054.054-.108.054-.162.054-.054-.054-.054-.108-.054-.216 0-.27.216-.594.433-.756.054-.054.108-.054.162-.054 0 .054.054.108.054.216z" fill="#4A4A4A"/><path d="M261.451 77.229l-.379-.162a.785.785 0 00-.595.054c-.487.27-.865.918-.865 1.512 0 .27.108.486.27.594l.271.108.054-.108c.108 0 .162-.054.27-.108.487-.27.866-.918.866-1.458v-.216l.108-.216z" fill="#BCBEC0"/><path d="M261.667 77.715c0 .54-.378 1.188-.865 1.458s-.865.054-.865-.486.378-1.188.865-1.458.865-.054.865.486z" fill="#85878A"/><path d="M261.235 77.985c0 .27-.217.594-.433.756-.162.108-.325.054-.379-.054.054 0 .109 0 .163-.054.216-.162.432-.486.432-.756 0-.108 0-.162-.054-.216.163 0 .271.108.271.324z" fill="#BCBEC0"/><path d="M261.018 77.877c0 .27-.216.594-.432.756-.055.054-.109.054-.163.054-.054-.054-.054-.108-.054-.216 0-.27.216-.594.433-.756.054-.054.108-.054.162-.054.054.054.054.162.054.216z" fill="#4A4A4A"/><path d="M267.888 73.502l-.379-.215a.784.784 0 00-.595.053c-.487.27-.865.919-.865 1.459 0 .27.108.486.27.594l.271.108.054-.108c.108 0 .162-.054.27-.108.487-.27.866-.918.866-1.459v-.215l.108-.109z" fill="#BCBEC0"/><path d="M268.104 74.043c0 .54-.378 1.188-.865 1.458s-.865.054-.865-.486.378-1.188.865-1.512c.487-.216.865 0 .865.54z" fill="#85878A"/><path d="M267.672 74.312c0 .27-.217.594-.433.757-.162.108-.325.053-.379-.055.054 0 .109 0 .163-.054.216-.108.432-.486.432-.756 0-.108 0-.162-.054-.216.163 0 .271.108.271.324z" fill="#BCBEC0"/><path d="M267.455 74.204c0 .27-.216.594-.432.756-.055.054-.109.054-.163.054-.054-.054-.054-.108-.054-.216 0-.27.217-.594.433-.756.054-.054.108-.054.162-.054.054.054.054.108.054.216z" fill="#4A4A4A"/><path d="M219.802 96.835l46.896-27.059-47.167-27.274-46.95 27.058 47.221 27.275z" fill="#FC0"/><path d="M214.717 45.256l4.814-2.754 47.167 27.274-4.706 2.755-47.275-27.275z" fill="#C48500"/><path d="M218.774 36.507c0-.432.325-1.026.704-1.242.162-.108.378-.108.486-.054l-2.704-1.566c-.108-.054-.325-.054-.487.054-.379.216-.703.756-.703 1.242 0 .216.108.378.216.486l2.434 1.404.271.162a.685.685 0 01-.217-.486z" fill="#A7A9AC"/><path d="M220.235 35.697c0 .216-.054.486-.217.702l-.162.216c-.108.108-.216.27-.378.324-.379.216-.704.054-.704-.432 0-.432.325-1.026.704-1.242.432-.216.757-.054.757.432zm-2.759-1.62c0 .216-.054.486-.216.702l-.163.216c-.108.108-.216.27-.378.324-.379.216-.703.054-.703-.432 0-.432.324-1.026.703-1.242.433-.162.757 0 .757.432z" fill="#D1D3D4"/><path d="M213.96 39.315c0-3.564 2.488-7.885 5.571-9.613 1.515-.865 2.867-.973 3.895-.432l47.383 27.328-7.843 13.61-47.383-27.328c-1.028-.594-1.623-1.837-1.623-3.565z" fill="#FC0"/><path d="M261.181 66.536c0 3.564 2.488 4.968 5.571 3.186 3.083-1.782 5.571-6.103 5.571-9.613 0-3.565-2.488-4.97-5.571-3.187-3.083 1.782-5.571 6.103-5.571 9.614z" fill="#C48500"/><path d="M268.753 65.347c0-.432.325-1.026.704-1.242.162-.108.378-.108.486-.054l-2.704-1.566c-.108-.054-.325-.054-.487.054-.379.216-.703.756-.703 1.242 0 .216.108.378.216.486l2.434 1.404.271.162a.685.685 0 01-.217-.486z" fill="#A7A9AC"/><path d="M270.16 64.537c0 .216-.054.486-.217.702l-.162.216a2.312 2.312 0 01-.379.324c-.378.216-.703.054-.703-.432 0-.432.325-1.026.703-1.242.487-.216.758-.054.758.432z" fill="#D1D3D4"/><path d="M270.647 67.67l15.415-8.858-8.925-5.185-15.415 8.911 8.925 5.131z" fill="#0BCA8E"/><path d="M270.646 112.496V67.669l-8.924-5.13v44.772l8.924 5.185z" fill="#447056"/><path d="M270.646 112.496V67.669l15.416-8.857v44.773l-15.416 8.911z" fill="#518265"/><path opacity=".3" d="M161.655 72.53l52.738 30.408 13.306-7.67-52.738-30.406-9.519-3.943v9.452l-3.787 2.16z" fill="#000"/><path d="M167.064 71.936l53.117 30.623v-7.94l-53.117-30.568v7.885z" fill="#000"/><path d="M166.415 71.828l1.893 1.08v-7.94l-1.893-1.08v7.94zm2.38 1.35l1.893 1.08v-7.885l-1.893-1.134v7.94zm2.38 1.351l1.893 1.134v-7.94l-1.893-1.08v7.886zm2.38 1.404l1.893 1.08v-7.94l-1.893-1.08v7.94zm2.38 1.35l1.893 1.08v-7.885l-1.893-1.134v7.939zm2.38 1.404l1.893 1.08v-7.939l-1.893-1.08v7.94zm2.38 1.351l1.893 1.08v-7.885l-1.893-1.134v7.939zm2.38 1.349l1.893 1.134v-7.939l-1.893-1.08v7.885zm2.38 1.405l1.893 1.08v-7.94l-1.893-1.08v7.94zm2.379 1.35l1.894 1.08v-7.885l-1.894-1.134v7.94zm2.381 1.405l1.893 1.08v-7.94l-1.893-1.08v7.94zm2.38 1.349l1.893 1.08v-7.885l-1.893-1.134v7.94z" fill="#303033"/><path d="M165.928 63.943l28.776 16.58v-4.158l-28.776-16.58v4.158z" fill="#000"/><path d="M195.137 88.355l1.947 1.134v-7.94l-1.947-1.08v7.886zm2.38 1.405l1.947 1.08V82.9l-1.947-1.08v7.94zm2.38 1.35l1.947 1.08v-7.886l-1.947-1.134v7.94zm2.38 1.35l1.947 1.134v-7.94l-1.947-1.08v7.886zm2.38 1.404l1.947 1.08v-7.939l-1.947-1.08v7.94zm2.38 1.35l1.947 1.135v-7.94l-1.947-1.08v7.885zm2.38 1.405l1.947 1.08v-7.94l-1.947-1.08v7.94zm2.38 1.35l1.947 1.08v-7.886l-1.947-1.134v7.94zm2.38 1.404l1.947 1.08v-7.94l-1.947-1.08v7.94zm2.38 1.35l1.947 1.081v-7.886l-1.947-1.134v7.939zm2.38 1.351l1.947 1.134v-7.94l-1.947-1.08v7.886zm2.379 1.403l1.948 1.081v-7.94l-1.948-1.08v7.939z" fill="#303033"/><path d="M194.704 80.524l28.722 16.527v-4.105l-28.722-16.58-2.109 1.025 2.109 3.133z" fill="#000"/><path d="M221.803 134.533l16.119-9.29v-41.1l-10.385 4.752-6.491 3.673-1.028 27.436 1.785 14.529z" fill="#16A89F"/><path d="M218.179 132.427l3.624 2.106v-41.1l-3.624-2.107v41.101z" fill="#0A8074"/><path d="M221.803 93.432l16.119-9.29v-3.834l-16.119 9.29v3.834z" fill="#16A89F"/><path d="M233.595 83.17l3.786-2.214v3.187l-3.786 2.214V83.17zm3.191-1.134l-2.542 1.459v1.728l2.542-1.459v-1.728z" fill="#E31B25"/><path d="M233.919 85.817l3.192-1.836v-2.485l-3.192 1.836v2.485z" fill="#fff"/><path d="M234.839 83.494l1.947-1.134v-.324l-1.947 1.134v.324zm-.595 1.837l2.542-1.458v-1.188l-2.542 1.512v1.134z" fill="#A7A9AC"/><path d="M221.803 89.597l16.119-9.29-60.04-34.511-16.065 9.29 59.986 34.511z" fill="#24D2C1"/><path d="M221.641 87.545l12.982-7.453-56.578-32.568-12.982 7.454 56.578 32.567z" fill="#303033"/><path d="M161.817 55.086l59.986 34.511v3.835l-59.986-34.62v-3.726z" fill="#0A8074"/><path d="M221.641 81.658l11.846-6.805v5.238l-11.846 6.806v-5.24z" fill="#16A89F"/><path d="M166.199 54.978v-5.185l55.442 31.865v5.239l-55.442-31.92z" fill="#0A8074"/><path d="M166.199 49.793l11.845-6.86 55.443 31.92-11.846 6.805-55.442-31.865z" fill="#24D2C1"/><path d="M219.748 76.744c-.758-.432-1.19-1.026-1.19-1.674 0-.649.432-1.243 1.19-1.675.757-.432 1.731-.648 2.758-.648 1.028 0 2.002.216 2.759.648.757.432 1.19 1.026 1.19 1.675 0 .648-.433 1.242-1.19 1.674-.757.432-1.677.648-2.759.648-1.082 0-2.055-.216-2.758-.648zm.162-3.025c-.649.378-.974.864-.974 1.35 0 .486.379.973.974 1.35.703.379 1.568.595 2.542.595.974 0 1.893-.216 2.542-.594.649-.378.974-.865.974-1.35 0-.487-.379-.973-.974-1.35-.703-.379-1.568-.595-2.542-.595-.974 0-1.839.216-2.542.594z" fill="#303033"/><path d="M226.238 70.748v4.375c0 .54-.378 1.08-1.081 1.512-1.461.864-3.841.864-5.301 0-.703-.432-1.082-.972-1.082-1.512v-4.32h7.464v-.055z" fill="#fff"/><path d="M219.802 72.26c1.46.865 3.84.865 5.301 0 1.46-.864 1.46-2.214 0-3.024-1.461-.864-3.841-.864-5.301 0-1.461.81-1.461 2.16 0 3.024z" fill="#BCBEC0"/><path d="M223.48 70.154c-.541-.324-1.461-.324-2.056 0-.432.27-.541.648-.27.972.054-.108.162-.162.27-.216.541-.324 1.461-.324 2.056 0 .108.054.216.162.27.216.271-.324.162-.756-.27-.972z" fill="#303033"/><path d="M223.48 70.856c-.541-.324-1.461-.324-2.056 0a1.175 1.175 0 00-.27.216c.054.108.162.162.27.216.541.324 1.461.324 2.056 0 .108-.054.216-.162.27-.216a1.175 1.175 0 00-.27-.216z" fill="#121214"/><path d="M174.745 50.874c-.758-.433-1.19-1.027-1.19-1.675 0-.648.432-1.242 1.19-1.674.757-.432 1.676-.648 2.758-.648 1.028 0 2.002.216 2.759.648.757.432 1.19 1.026 1.19 1.674 0 .648-.433 1.242-1.19 1.675-.757.432-1.731.648-2.759.648-1.027 0-2.001-.216-2.758-.648zm.162-3.025c-.649.378-.974.864-.974 1.35 0 .486.379.973.974 1.35.703.379 1.569.595 2.542.595.974 0 1.893-.216 2.542-.594.649-.378.974-.865.974-1.35 0-.487-.379-.973-.974-1.35-.703-.379-1.568-.595-2.542-.595-.919 0-1.839.216-2.542.594z" fill="#303033"/><path d="M181.235 44.824V49.2c0 .54-.378 1.08-1.081 1.512-1.461.864-3.841.864-5.301 0-.703-.432-1.082-.972-1.082-1.512v-4.375h7.464z" fill="#939598"/><path d="M174.853 46.39c1.46.864 3.84.864 5.3 0 1.461-.864 1.461-2.214 0-3.024-1.46-.864-3.84-.864-5.3 0-1.461.81-1.461 2.16 0 3.024z" fill="#BCBEC0"/><path d="M178.531 44.23c-.541-.324-1.46-.324-2.055 0-.433.27-.541.648-.271.973.054-.109.162-.163.271-.217.54-.324 1.46-.324 2.055 0 .108.055.216.163.27.217.217-.325.163-.703-.27-.973z" fill="#303033"/><path d="M178.477 44.986c-.541-.324-1.461-.324-2.056 0-.108.054-.216.162-.27.216.054.108.162.162.27.216.541.324 1.461.324 2.056 0 .108-.054.216-.162.27-.216-.054-.054-.108-.162-.27-.216z" fill="#121214"/><path d="M256.15 96.078v12.206l6.924-3.943v-12.26l-6.924 3.997z" fill="#303033"/><path d="M263.074 92.082l-2.921-1.675-6.924 3.997 2.921 1.674 6.924-3.996z" fill="#535359"/><path d="M253.229 106.61l2.921 1.675V96.079l-2.921-1.675v12.206z" fill="#121214"/><path d="M256.799 101.695l5.572-3.187-2.813-3.078-2.759 6.265z" fill="#FF8400"/><path d="M259.612 95.754l2.434 2.754-4.868 2.809 2.434-5.563zm-.054-.324l-2.759 6.265 5.517-3.187-2.758-3.078z" fill="#000"/><path d="M260.045 96.726l.216 1.512-.757.162.595 1.026-1.028-1.134.866-.108-.433-1.026.541-.432z" fill="#000"/><path opacity=".3" d="M180.478 152.248l31.913-18.417-58.525-33.756-31.913 18.417 58.525 33.756z" fill="#000"/><path d="M191.621 85.546L153.542 63.62l18.877-37.969 38.025 21.928-18.823 37.968z" fill="#FC0"/><path d="M192.27 87.436c0-.432.324-1.026.703-1.242a.54.54 0 01.487-.054l-17.093-9.938c-.108-.053-.324-.053-.487.055-.378.215-.703.756-.703 1.242 0 .216.108.432.217.486l16.768 9.775.27.162c-.054-.108-.162-.27-.162-.486z" fill="#C48500"/><path d="M130.878 77.067l9.519-55.413 23.908-13.772v12.044l-10.439 5.995-28.235 94.677-3.678-2.106V82.198l8.925-5.13z" fill="#447056"/><path d="M121.953 82.198l8.925-5.13 3.678 2.106-8.925 5.13-3.678-2.106zm22.123-58.438l23.907-13.772-3.678-2.106-23.908 13.772 3.679 2.106z" fill="#0BCA8E"/><path d="M134.556 79.174l9.52-55.414 23.907-13.772v12.044l-10.439 5.995v74.154l-31.913 18.417V84.304l8.925-5.13zm-20.284 8.749l2.596 1.512v3.457l-2.596-1.459v-3.51z" fill="#518265"/><path d="M114.272 87.923l8.113-4.645 2.597 1.459-8.114 4.698-2.596-1.512z" fill="#0BCA8E"/><path d="M116.868 89.435l8.114-4.699v3.889l-8.114 4.267v-3.457zm13.361-58.924l.54-3.078 3.029 1.08.433 1.512-1.406 1.998-2.596-1.512z" fill="#518265"/><path d="M133.366 28.945l-2.596-1.512 9.033 1.242 2.596 1.512-6.383.162-2.65-1.404z" fill="#0BCA8E"/><path d="M132.825 32.024l.541-3.079 9.033 1.242-.541 3.079-9.033-1.242z" fill="#518265"/><path d="M146.672 101.101c0-.432.324-1.026.703-1.242.162-.108.379-.108.487-.054l-2.705-1.566c-.108-.054-.324-.054-.487.054-.378.216-.703.756-.703 1.242 0 .216.108.378.217.486l2.434 1.404.27.162a.684.684 0 01-.216-.486z" fill="#A7A9AC"/><path d="M148.132 100.237c0 .216-.054.486-.216.702l-.162.216a2.36 2.36 0 01-.379.324c-.379.216-.703.054-.703-.432 0-.432.324-1.026.703-1.242.433-.162.757 0 .757.432z" fill="#D1D3D4"/><path d="M141.858 103.855c0-3.564 2.488-7.885 5.571-9.613 1.515-.865 2.867-.973 3.895-.432l47.383 27.328-7.844 13.61-47.382-27.328c-1.028-.54-1.623-1.782-1.623-3.565z" fill="#FC0"/><path d="M189.079 131.13c0 3.565 2.488 4.969 5.571 3.241 3.083-1.783 5.571-6.103 5.571-9.614 0-3.564-2.488-4.969-5.571-3.186-3.083 1.728-5.571 6.049-5.571 9.559z" fill="#AB183A"/><path d="M196.651 129.942c0-.432.325-1.026.703-1.242.163-.108.379-.108.487-.054l-2.704-1.567c-.108-.054-.325-.054-.487.054-.379.216-.703.757-.703 1.243 0 .216.108.378.216.486l2.434 1.404.271.162a.681.681 0 01-.217-.486z" fill="#A7A9AC"/><path d="M198.058 129.078c0 .216-.054.486-.217.702l-.162.216c-.108.108-.216.27-.379.324-.378.216-.703.054-.703-.432 0-.432.325-1.026.703-1.242.487-.162.758 0 .758.432z" fill="#D1D3D4"/><path d="M163.765 91.325c0-.432.324-1.026.703-1.243a.54.54 0 01.487-.053l-2.705-1.567c-.108-.054-.325-.054-.487.054-.378.216-.703.756-.703 1.242 0 .217.108.379.216.487l2.434 1.404.271.162c-.162-.108-.216-.27-.216-.486z" fill="#A7A9AC"/><path d="M165.171 90.46c0 .217-.054.487-.216.703l-.163.216c-.108.108-.216.27-.378.324-.379.216-.704.054-.704-.432 0-.432.325-1.026.704-1.243.432-.162.757 0 .757.432z" fill="#D1D3D4"/><path d="M158.896 94.134c0-3.565 2.489-7.886 5.572-9.614 1.514-.864 2.867-.972 3.894-.432l47.383 27.328-7.897 13.611-47.383-27.329c-.974-.594-1.569-1.836-1.569-3.564z" fill="#FC0"/><path d="M206.117 121.354c0 3.565 2.488 4.969 5.571 3.187 3.084-1.783 5.572-6.103 5.572-9.614 0-3.565-2.488-4.969-5.572-3.186-3.083 1.782-5.571 6.103-5.571 9.613z" fill="#AB183A"/><path d="M213.69 120.166c0-.433.324-1.027.703-1.243.162-.108.379-.108.487-.054l-2.705-1.566c-.108-.054-.324-.054-.486.054-.379.216-.704.756-.704 1.242 0 .216.109.378.217.486l2.434 1.405.27.162a.684.684 0 01-.216-.486z" fill="#A7A9AC"/><path d="M215.15 119.355c0 .216-.054.486-.216.702l-.162.216a2.36 2.36 0 01-.379.324c-.379.216-.703.054-.703-.432 0-.432.324-1.026.703-1.242.433-.216.757-.054.757.432z" fill="#D1D3D4"/><path d="M129.85 110.714c0-.432.325-1.026.703-1.242.162-.108.379-.108.487-.054l-2.705-1.566c-.108-.054-.324-.054-.486.054-.379.216-.703.756-.703 1.242 0 .216.108.378.216.486l2.434 1.404.27.162c-.162-.108-.216-.27-.216-.486z" fill="#A7A9AC"/><path d="M131.256 109.905c0 .216-.054.486-.216.702l-.162.216c-.108.108-.217.27-.379.324-.379.216-.703.054-.703-.432 0-.432.324-1.027.703-1.243.433-.216.757 0 .757.433z" fill="#D1D3D4"/><path d="M124.982 113.523c0-3.564 2.488-7.885 5.571-9.613 1.515-.864 2.867-.973 3.895-.432l47.383 27.328-7.898 13.664-47.382-27.328c-.974-.594-1.569-1.836-1.569-3.619z" fill="#FC0"/><path d="M172.203 140.797c0 3.565 2.488 4.969 5.571 3.187 3.083-1.782 5.571-6.103 5.571-9.614 0-3.564-2.488-4.968-5.571-3.186-3.083 1.728-5.571 6.049-5.571 9.613z" fill="#C48500"/><path d="M179.775 139.555c0-.432.325-1.026.703-1.242.163-.108.379-.108.487-.054l-2.704-1.566c-.108-.054-.325-.054-.487.054-.379.216-.703.756-.703 1.242 0 .216.108.432.216.486l2.434 1.404.271.162c-.109-.108-.217-.216-.217-.486z" fill="#A7A9AC"/><path d="M181.236 138.745c0 .216-.054.486-.217.702l-.162.216c-.108.108-.216.217-.378.325-.379.216-.704.054-.704-.433 0-.432.325-1.026.704-1.242.432-.216.757 0 .757.432z" fill="#D1D3D4"/><path d="M165.117 118.437L127.091 96.51l27.478-18.957 38.079 21.927-27.531 18.957z" fill="#C48500"/><path d="M198.328 103.532c0-.432.324-1.027.703-1.243.162-.108.379-.108.487-.054l-52.684-30.407c-.108-.054-.325-.054-.487.054-.378.216-.703.757-.703 1.243 0 .216.108.432.216.486l52.414 30.245.27.162c-.108-.108-.216-.216-.216-.486z" fill="#C48500"/><path d="M199.788 102.722c0 .216-.054.486-.216.702l-.163.216c-.108.108-.216.27-.378.324-.379.216-.703.054-.703-.432 0-.432.324-1.026.703-1.242.433-.216.757 0 .757.432zm-29.587 18.632c0-.432.325-1.026.703-1.242.163-.108.379-.108.487-.054l-52.683-30.407a.54.54 0 00-.487.054c-.379.216-.703.756-.703 1.242 0 .216.108.378.216.486l52.359 30.245.271.162c-.109-.054-.163-.216-.163-.486z" fill="#D1D3D4"/><path d="M171.607 120.544c0 .216-.054.486-.216.702l-.162.216c-.108.108-.217.27-.379.324-.378.216-.703.054-.703-.432 0-.432.325-1.027.703-1.243.433-.162.757 0 .757.433z" fill="#D1D3D4"/><path opacity=".3" d="M180.803 116.008l.973-29.327 5.301-18.201 3.246-7.885 1.244-.702-9.52 55.413-1.244.702z" fill="#C48500"/><path d="M138.018 30.458l1.244-.702 52.305 30.137-1.244.702-52.305-30.137z" fill="#BCBEC0"/><path d="M128.498 85.871l9.519-55.413 52.305 30.137-9.519 55.413-52.305-30.137z" fill="#fff"/><path d="M187.456 61.62c0-.432.324-1.026.703-1.242a.54.54 0 01.487-.054l-52.684-30.407c-.108-.054-.325-.054-.487.054-.378.216-.703.756-.703 1.242 0 .217.108.379.216.487l52.414 30.244.27.163c-.162-.108-.216-.27-.216-.486z" fill="#D1D3D4"/><path d="M188.862 60.81c0 .216-.054.486-.217.702l-.162.216c-.108.108-.216.27-.378.324-.379.216-.704.054-.704-.432 0-.432.325-1.026.704-1.242.432-.216.757-.054.757.432zm25.422-11.233c0-.432.325-1.027.703-1.243.163-.108.379-.108.487-.054l-52.683-30.407a.54.54 0 00-.487.054c-.379.216-.703.756-.703 1.243 0 .216.108.378.216.486L214.23 49.9l.271.162c-.163-.108-.217-.27-.217-.486z" fill="#D1D3D4"/><path d="M215.69 48.767c0 .216-.054.486-.216.702l-.162.216a2.36 2.36 0 01-.379.324c-.378.216-.703.054-.703-.432 0-.432.325-1.026.703-1.242.433-.216.757 0 .757.432z" fill="#D1D3D4"/><path d="M143.21 36.237c0 .108 7.086 7.453 16.66 13.016 9.303 5.401 21.041 9.02 21.419 8.912.379-1.242 1.244-1.404 1.244-1.404l-14.55-14.259-23.529-7.669s-.974.432-1.244 1.404z" fill="#C48500"/><path d="M126.226 95.323L143.21 36.29l38.025 21.928-16.984 59.031a1.438 1.438 0 00-.162.648c0 .216.054.378.216.432L126.28 96.403c-.162-.054-.217-.216-.217-.486 0-.216.055-.432.163-.594zm56.308-38.563l-38.08-21.927 27.965-11.45 38.025 21.927-27.91 11.45z" fill="#FC0"/><path d="M185.725 108.662l9.519-55.413 23.908-13.772V51.52l-10.439 5.995-28.235 94.731-3.678-2.16v-36.24l8.925-5.185z" fill="#447056"/><path d="M176.8 113.847l8.925-5.185 3.678 2.16-8.925 5.131-3.678-2.106z" fill="#518265"/><path d="M198.923 55.41l23.908-13.773-3.679-2.16-23.907 13.772 3.678 2.16z" fill="#0BCA8E"/><path d="M189.403 110.822l9.52-55.413 23.908-13.772V53.68l-10.44 5.995v74.154l-31.913 18.417v-36.294l8.925-5.131z" fill="#518265"/><path d="M169.119 119.518l2.596 1.512v3.51l-2.596-1.512v-3.51z" fill="#0BCA8E"/><path d="M169.119 119.518l8.114-4.645 2.596 1.512-8.114 4.645-2.596-1.512z" fill="#0BCA8E"/><path d="M171.715 121.03l8.114-4.645v3.834l-8.114 4.321v-3.51z" fill="#518265"/><path d="M185.076 62.16l.541-3.133 3.029 1.08.432 1.567-1.406 1.944-2.596-1.458z" fill="#0BCA8E"/><path d="M188.213 60.54l-2.596-1.513 9.033 1.297 2.596 1.512-6.383.162-2.65-1.458z" fill="#0BCA8E"/><path d="M187.672 63.618l.541-3.079 9.033 1.296-.541 3.079-9.033-1.296z" fill="#518265"/><path d="M191.945 119.032l29.371-16.959-8.925-5.13-29.37 16.904 8.924 5.185z" fill="#0BCA8E"/><path d="M191.945 155.92v-36.888l-8.924-5.185v36.888l8.924 5.185z" fill="#447056"/><path d="M191.945 155.92v-36.888l29.371-16.959v36.888l-29.371 16.959z" fill="#518265"/><path opacity=".3" d="M131.31 138.314c3.408 1.944 8.871 1.944 12.224 0 3.408-1.945 3.408-5.131 0-7.075-3.353-1.945-8.87-1.945-12.224 0-3.408 1.944-3.408 5.13 0 7.075z" fill="#000"/><path d="M133.636 130.752s.92-.054 1.461.162c.487.216.162 1.998.162 1.998s-.811.541-1.298 1.189-.433.918-.92 1.566c-.487.648-1.677.918-2.001.216-.325-.702 1.677-1.836 1.839-2.809.108-1.026.757-2.322.757-2.322z" fill="#535359"/><path d="M133.636 130.483s.919-.054 1.46.162c.487.216.163 1.998.163 1.998s-.812.54-1.299 1.188c-.486.648-.432.918-.919 1.512-.487.648-1.677.919-2.001.216-.325-.702.378-2.214.541-3.186.108-.972 2.055-1.89 2.055-1.89z" fill="#fff"/><path d="M128.281 79.714s-1.136.486-1.298 2.7c-.108 1.89-1.298 6.913-1.406 7.886-.108.972.378 2.322 1.514 2.484 1.136.162 4.003.648 4.003.648V91.11l-2.164-.918.812-3.133 1.081-7.183-2.542-.162z" fill="#16A89F"/><path d="M136.99 102.451c.487 6.697-1.623 10.964-1.839 13.016-.108.919 0 1.945-.108 2.755-.109.81-1.785 6.535-.866 12.854.271 1.62-2.65 2.322-2.704 1.188-.379-6.589-1.515-8.587-1.299-10.586.163-2.052.487-2.7.704-3.996.216-1.35-2.272-13.988-2.326-14.475l3.678-3.618s4.057 2.214 4.76 2.862z" fill="#2B5E85"/><path d="M138.991 133.885c1.893 1.242 4.111 1.404 4.652 1.458.541.054.865 1.836-.92 2.052-1.785.216-3.948.27-4.651.324-.703.108-2.597.81-3.3-.054-.649-.864.054-2.106.217-3.078.162-.864 2.704-1.566 4.002-.702z" fill="#535359"/><path d="M138.991 133.669c1.893 1.242 4.111 1.404 4.652 1.458.541.054.865 1.836-.92 2.052-1.785.216-3.948.27-4.651.378-.703.054-2.597.811-3.3-.054-.649-.864.054-2.106.217-3.078.162-.972 2.704-1.62 4.002-.756z" fill="#fff"/><path d="M141.155 104.666c.486 6.697-1.623 10.963-1.839 13.016-.109.918 0 1.944-.109 2.754-.108.81-1.731 6.373-.27 13.07.216 1.081-3.895 2.053-4.003.919-.162-1.081-1.19-8.21-.973-10.262.162-2.052.919-2.971 1.081-4.321.217-1.35-1.027-12.422-1.081-12.908-1.515-.81-4.868-2.214-5.193-3.024-.325-.811-.27-2.161-.27-2.161l6.328-.216c0 .054 5.625 2.431 6.329 3.133z" fill="#3576AB"/><path d="M137.693 76.906c-.325 2.322-.325 4.537-.325 4.537v1.026l-2.596.864-3.191-1.728-.758-3.079 1.136-2.322 4.165-1.35 1.136.756c.054-.054.162.756.433 1.296z" fill="#F0C6B4"/><path d="M131.581 79.984s.649 1.674 3.624 2.106c.703.108 2.001 0 2.109-.648 1.515 1.296 4.652 3.349 4.652 3.349s1.244 1.188 1.19 1.782c-.108 1.728-1.46 2.16-1.785 3.727-.595 2.808-.054 11.071.054 12.746.108 1.674-.919 2.862-3.786 2.862s-9.628-3.024-9.52-4.807c.054-1.782 2.001-6.643 2.109-8.047.109-1.458-2.488-8.21-2.379-10.316.108-2.052 1.027-3.024 1.027-3.024l2.705.27z" fill="#24D2C1"/><path d="M138.18 69.29s1.19.972 1.406 2.592c.054.325.054.81.054 1.459 0 2.754-.433 3.402-.703 3.618-1.352 1.026-3.029-.972-3.029-.972l-.108-4.05 2.38-2.647z" fill="#F0C6B4"/><path d="M129.85 72.8s.433-2.591 2.38-3.942c2.542-1.674 5.138-.54 5.95.378 1.027 1.242.487 4.429.811 5.51-.541-.54-1.136-.487-1.623 0-.486.485-.324 1.08-1.352 2.43s-3.408.972-4.381.54c-.92-.432-1.893-3.187-1.893-3.187l.108-1.728z" fill="#603913"/><path d="M130.823 75.178a1.406 1.406 0 10-1.406-1.404c0 .775.63 1.404 1.406 1.404z" fill="#E31B25"/><path d="M131.364 74.475c-.108 1.35 2.921 6.752-.919 9.614-.757-1.458-3.408-4.86-3.3-6.751.108-1.89 1.839-3.403 2.272-3.889.379-.54 2.11-.378 1.947 1.026z" fill="#754C29"/><path d="M151.594 76.096s.054-2.539.108-2.863c.055-.324 2.002-3.078 2.813-2.7.811.432.811 3.24.379 3.834-.433.594-.649 2.377-.974 2.647-.324.27-.865.108-.865.108l-1.461-1.026z" fill="#F0C6B4"/><path d="M137.963 85.925c-.27-2.97 4.219-2.268 4.219-2.268s5.896.378 6.708.27c.703-2.646 2.434-7.183 2.542-7.723.162-.54 2.163.162 2.001 1.026-.162.81-1.244 6.643-1.46 7.561-.217.918-.595 2.323-2.218 2.323s-8.222.918-8.222.918-3.299.648-3.57-2.107z" fill="#16A89F"/></svg>