<svg width="425" height="258" fill="none" xmlns="http://www.w3.org/2000/svg"><path d="M416.581 118.973l-178.93-102.72c-10.601-6.119-27.694-6.119-38.241 0L7.877 127.8c-10.548 6.119-10.493 16.028.108 22.201l178.93 102.72c10.602 6.119 27.694 6.119 38.242 0l191.532-111.546c10.548-6.119 10.494-16.082-.108-22.201z" fill="#F3F3F3"/><path d="M204.711 219.581L56.288 134.026l170.87-97.738 148.423 85.555-170.87 97.738z" fill="#fff"/><path d="M375.581 121.843v6.389L204.71 226.025v-6.444l170.871-97.738z" fill="#D8D8D8"/><path d="M56.288 134.026v6.444l148.423 85.555v-6.444L56.288 134.026z" fill="#B5B5B5"/><path d="M261.127 173.013c-.054-.054-.163-.054-.271-.054l-.919-.217h-.271c-.108 0-.162.055-.216.163a5.636 5.636 0 01-.757.92c-.325.325-.704.596-1.136.867-.649.379-1.298.65-1.947.758-.65.108-1.299.162-1.948.108-.649-.054-1.244-.216-1.839-.433a13.054 13.054 0 01-1.785-.812 10.241 10.241 0 01-1.46-1.083c-.433-.379-.703-.758-.812-1.137-.162-.379-.108-.813.055-1.192.162-.379.54-.758 1.135-1.083.812-.433 1.677-.812 2.759-1.028.108-.055.216-.055.216-.109s0-.054-.054-.162l-.378-.596c-.054-.054-.108-.108-.108-.162h-.325c-.811.162-1.46.325-2.001.595a9.339 9.339 0 00-1.461.758c-.703.434-1.19.867-1.514 1.354-.325.488-.433 1.029-.325 1.516.108.542.379 1.083.866 1.625.486.541 1.19 1.083 2.055 1.57.92.542 1.839.975 2.759 1.246.865.27 1.785.433 2.596.433.811.054 1.623-.054 2.434-.271a10.54 10.54 0 002.272-.921c.27-.162.487-.324.757-.487.27-.162.487-.379.703-.541.217-.217.433-.379.649-.596.217-.217.325-.433.433-.65-.108-.271-.108-.325-.162-.379zm10.006-5.198c-.054 0-.054-.054-.108-.054l-4.598-1.517c-.324-.108-.594-.216-.865-.27l-.811-.163c-.271-.054-.595 0-.866 0a6.295 6.295 0 00-.973.217l-.054-.054c.162-.325.216-.596.054-.921-.109-.325-.325-.65-.649-.974l-2.11-2.004s-.054-.054-.108-.054c0 0-.054-.054-.108-.054-.108-.054-.217 0-.325.054l-.865.487c-.054.054-.108.054-.163.109-.054.054 0 .108.055.162l2.001 1.949c.27.271.378.488.487.704.054.217.054.379 0 .542a.844.844 0 01-.325.433l-.487.325-2.055 1.191-4.219-2.437-.054-.054c-.054-.054-.108-.054-.162-.054a.409.409 0 00-.217.108l-.919.542c-.054.054-.109.108-.163.108 0 .054.054.109.109.163l10.439 6.01c.108.054.216.108.27.054a.412.412 0 00.217-.108l.919-.541a.71.71 0 00.163-.109c0-.054-.055-.108-.163-.162l-4.922-2.87 2.218-1.3c.27-.162.541-.27.757-.379.27-.108.487-.162.811-.216.271-.054.595 0 .866 0 .324.054.649.108 1.028.27l4.381 1.462a.578.578 0 00.27.055c.108 0 .162-.055.217-.055l.919-.541c.108-.054.162-.108.108-.162.054.162 0 .108 0 .108zm9.628-5.632l-9.682-5.577c-.649-.379-1.298-.379-1.893-.054l-4.814 2.761c-.27.163-.433.325-.433.488 0 .162.163.379.487.595l1.785 1.246c1.082.704 1.947 1.299 2.705 1.787.703.487 1.298.92 1.677 1.353.378.379.649.758.703 1.083.054.325-.054.704-.325 1.083l-.054.109s0 .054.054.108c.054 0 .108.054.162.054l.812.325c.162.054.27.054.378 0 .054 0 .163-.054.163-.108.486-.542.757-1.029.703-1.517-.054-.487-.325-.974-.757-1.462a12.808 12.808 0 00-1.948-1.624 45.185 45.185 0 00-2.921-1.949l-1.568-1.029 3.894-2.274 9.412 5.414c.108.055.216.109.27.055a.41.41 0 00.217-.109l.919-.541a.664.664 0 00.163-.108c.054 0 0-.055-.109-.109zm.541-4.44l-2.271-2.545-1.515-1.679.054-.054 3.029.921 4.273 1.299-3.57 2.058zm9.953-1.625c-.054 0-.108-.054-.162-.054l-13.469-3.736c-.324-.108-.541-.108-.757-.108-.216 0-.433.108-.703.27l-.487.271c-.216.163-.379.271-.379.379 0 .109.054.271.217.433l6.49 7.798s.055.054.109.054.108.054.162.054c.054 0 .162 0 .27-.054l1.028-.596c.162-.108.216-.216.108-.325l-1.514-1.786 4.381-2.545 3.029.866c.162.054.271.054.379.054.054 0 .162-.054.27-.108l1.028-.596c.108-.054.162-.108.108-.162-.054-.054-.054-.109-.108-.109zm1.893-2.382a2.65 2.65 0 00-.162-.379 1.78 1.78 0 00-.325-.433l-.541-.542c-.216-.216-.541-.433-.919-.704l-4.868-3.628 3.894-2.274 8.33 4.819-5.409 3.141zm8.546-4.224a1.408 1.408 0 00-.595-.162.918.918 0 00-.541.162l-.541.271-8.654-4.982c-.324-.216-.649-.27-.974-.324-.324 0-.649.108-.973.27l-4.652 2.708c-.379.216-.541.433-.487.595.054.217.217.434.487.65l4.327 3.249c.379.325.758.596 1.028.812.27.217.541.433.757.65.217.217.325.433.433.596.108.216.162.379.216.595l-.487.325c-.162.109-.27.271-.27.379.054.109.108.163.216.271 0 0 .054 0 .054.054l3.192 1.625a.487.487 0 00.27.054c.054 0 .108 0 .163-.054l.757-.434c.108-.054.108-.162-.054-.27l-2.164-1.408 7.627-4.44 2.38 1.299a.408.408 0 00.216.054l.162-.054.758-.433c.054-.054.108-.054.108-.108s-.054-.109-.108-.163l-2.651-1.787zm-106.99 34.656c-.054 0-.054-.054-.108-.054l-4.598-1.516c-.325-.108-.595-.162-.865-.271l-.812-.162c-.27-.054-.595 0-.865 0-.271.054-.595.108-.974.216l-.054-.054c.162-.325.216-.595.054-.92-.108-.325-.324-.65-.649-.975l-2.109-2.003-.055-.055c-.054 0-.054-.054-.108-.054-.108-.054-.216 0-.324.054l-.866.488c-.054.054-.108.054-.108.108-.054.054 0 .108.054.163l2.002 1.949c.27.271.432.487.486.704.054.216.054.379 0 .541a.838.838 0 01-.324.433l-.487.325-2.055 1.192-4.219-2.437s-.054 0-.054-.054c-.055-.054-.109-.054-.163-.054a.41.41 0 00-.216.108l-.92.541c-.054.055-.108.109-.162.109 0 .054.054.108.108.162l10.44 6.011c.108.054.216.108.27.054a.41.41 0 00.216-.108l.92-.542c.108-.054.162-.108.162-.162 0-.055-.054-.055-.162-.163l-4.922-2.87 2.217-1.299c.271-.163.541-.271.758-.379.27-.109.487-.163.811-.163.271-.054.595 0 .866 0 .324.054.649.109 1.027.271l4.382 1.462a.587.587 0 00.27.054c.108 0 .162-.054.216-.054l.92-.542c.108-.054.162-.108.108-.162-.054.162-.054.108-.108.108zm-1.461-3.682a3.925 3.925 0 01-1.027-.758c-.271-.271-.487-.542-.541-.813a.87.87 0 01.054-.812c.108-.271.379-.487.757-.758a3.41 3.41 0 011.352-.487c.487-.054.92-.054 1.353 0 .432.054.865.216 1.352.379.433.162.865.379 1.244.595.379.217.757.488 1.028.759.324.27.487.541.649.812.108.271.108.541 0 .812s-.379.541-.812.812a3.198 3.198 0 01-1.298.488c-.432.054-.865.108-1.352 0-.433-.055-.919-.163-1.352-.379a6.707 6.707 0 01-1.407-.65zm5.842-3.412c-1.298-.758-2.65-1.191-4.002-1.245-1.353-.054-2.597.217-3.787.92-.487.325-.865.65-1.136.975-.27.379-.378.758-.324 1.137.054.379.216.813.595 1.192.324.433.865.812 1.568 1.191 1.407.812 2.759 1.245 4.057 1.299 1.298.055 2.542-.216 3.732-.92 1.19-.704 1.731-1.408 1.623-2.22-.162-.758-.919-1.516-2.326-2.329zm12.279-2.653l-7.627-4.386c-.108-.054-.217-.108-.271-.108-.054 0-.162.054-.27.108l-.757.433c-.108.054-.163.109-.163.163 0 .054.055.108.163.162l2.921 1.679-4.003 2.328-2.921-1.678c-.108-.055-.216-.109-.27-.109-.055 0-.163.054-.271.109l-.757.433c-.108.054-.162.108-.162.162 0 .054 0 .108.108.163l7.626 4.386c.109.054.217.108.325.108.054 0 .162-.054.27-.108l.758-.434c.108-.054.162-.108.162-.162 0-.054-.054-.108-.162-.162l-3.516-2.058 4.003-2.328 3.515 2.057c.109.054.217.108.271.108.054 0 .162-.054.27-.108l.758-.433c.108-.054.162-.108.162-.162 0-.055-.054-.109-.162-.163zm.973-8.663l-.595-.379c-.108-.054-.162-.108-.27-.108-.108 0-.217-.001-.325.108l-6.22 3.628c-.108.054-.162.108-.162.162 0 .054.054.108.162.163l.595.379c.054.054.162.054.27.054.109 0 .163 0 .325-.108l2.38-1.408 6.707 3.898c.108.055.216.109.27.109.055 0 .163-.054.271-.109l.757-.433c.108-.054.162-.108.162-.162 0-.054-.054-.109-.162-.163l-6.707-3.898 2.488-1.462c.108-.055.162-.109.162-.163l-.108-.108zm2.867-1.246c.163-.216.379-.379.649-.65.271-.216.541-.433.812-.595a5.079 5.079 0 011.136-.487 4.573 4.573 0 011.244-.163c.432 0 .919.108 1.46.271a7.071 7.071 0 011.623.758c.595.379.973.65 1.244.92.27.271.433.596.433.867.054.271-.055.487-.217.758-.162.216-.433.433-.811.65-.217.162-.487.27-.812.433-.324.162-.757.271-1.244.433l-5.517-3.195zm8.384-1.624c-.595-.379-1.244-.65-1.893-.867-.649-.216-1.352-.324-2.001-.379a6.258 6.258 0 00-2.002.163c-.649.162-1.298.379-1.947.758-.487.271-.973.596-1.46.975s-.866.758-1.136 1.191c-.108.108-.054.162.054.271l10.439 6.01c.108.054.163.054.217.054a.41.41 0 00.216-.108l.865-.487c.055-.055.109-.109.163-.109 0-.054-.054-.054-.108-.108l-3.03-1.733c.487-.162.92-.325 1.299-.487.378-.163.703-.325.973-.542.595-.324 1.028-.703 1.244-1.137.217-.379.325-.812.217-1.191-.109-.379-.325-.758-.703-1.191-.379-.379-.812-.758-1.407-1.083zm2.704-1.625a3.902 3.902 0 01-1.027-.758c-.271-.271-.487-.541-.541-.812-.108-.271-.109-.542.054-.812.108-.271.378-.488.757-.759.433-.27.92-.433 1.352-.487.487-.054.92-.054 1.353 0 .432.054.865.217 1.352.379a8.87 8.87 0 011.244.596c.378.216.757.487 1.028.704.27.27.486.541.595.812.108.271.108.541 0 .812-.109.271-.379.542-.812.812-.433.271-.865.434-1.298.488a5.657 5.657 0 01-1.352 0c-.433-.054-.92-.163-1.352-.379a4.937 4.937 0 01-1.353-.596zm5.842-3.411c-1.298-.758-2.65-1.192-4.003-1.246-1.352-.054-2.596.217-3.786.921-.487.325-.865.65-1.136.975-.27.379-.378.758-.324 1.137.054.379.216.812.595 1.191.324.433.865.812 1.568 1.191 1.407.812 2.759 1.246 4.057 1.3 1.298.054 2.542-.271 3.732-.921 1.19-.704 1.731-1.408 1.623-2.22-.162-.758-.92-1.516-2.326-2.328zm12.224-2.599l-7.139-4.116c-.271-.162-.487-.216-.704-.216-.216 0-.486.054-.811.216l-4.003 2.329a.724.724 0 00-.378.433c0 .163.108.325.324.487l1.569 1.029c.865.596 1.514 1.029 2.001 1.408.487.379.866.704 1.082.975.216.27.325.487.325.704 0 .216-.055.433-.217.649-.054.109-.054.217.054.271.054 0 .054.054.108.054l.812.217a.344.344 0 00.324 0l.163-.162c.324-.38.486-.704.541-1.029.054-.325-.055-.65-.379-1.029-.271-.379-.703-.758-1.352-1.246-.595-.433-1.407-1.028-2.326-1.678l-1.082-.704 2.975-1.733 6.761 3.899c.108.054.217.108.271.054.054 0 .162-.054.27-.108l.757-.433a.756.756 0 00.217-.163c-.054 0-.054-.054-.163-.108zm-.702-4.278l2.434-1.408c.27-.162.54-.27.865-.325.27-.054.595-.108.865-.108.271 0 .541.054.812.108.27.055.487.163.703.271.162.108.27.217.433.325.162.108.216.271.27.433.054.163 0 .325-.108.542-.108.216-.325.379-.703.595l-2.434 1.408-3.137-1.841zm6.977-2.22c-.216-.108-.487-.271-.919-.379-.379-.162-.812-.217-1.299-.271-.486-.054-1.027 0-1.622.109-.595.108-1.19.324-1.839.703l-2.488 1.462-2.543-1.462c-.108-.054-.216-.108-.27-.108-.054 0-.162.054-.271.108l-.757.434c-.108.054-.162.108-.162.162 0 .054.054.108.162.163l7.086 4.061c.216.108.433.216.703.216.271.054.541 0 .811-.216l3.3-1.95c.379-.216.649-.487.865-.758a1.22 1.22 0 00.271-.812c0-.271-.108-.541-.271-.812-.108-.217-.378-.433-.757-.65zm14.712-5.685c-.054 0-.054-.054-.108-.054l-3.461-1.083c-.433-.109-.866-.217-1.299-.271a3.24 3.24 0 00-1.406.162v-.054c.162-.216.162-.487.108-.704a2.053 2.053 0 00-.541-.704l-1.46-1.516h-.054c-.054 0-.108-.054-.163-.054-.054 0-.162 0-.216.054l-.865.487-.108.109c0 .054 0 .108.054.162l1.352 1.462c.162.163.27.325.324.488.054.162.054.27 0 .379a.727.727 0 01-.27.325c-.108.108-.27.216-.433.27l-1.352.758-3.029-1.732c-.108-.055-.162-.109-.271-.055-.108.055-.162.055-.216.109l-.811.487c-.054.054-.162.108-.162.108 0 .055 0 .109.108.163l7.68 4.44c.109.054.217.108.271.054a.41.41 0 00.216-.108l.812-.487c.108-.055.162-.109.162-.163 0-.054-.054-.054-.162-.162l-3.57-2.058 1.514-.866c.325-.163.703-.325 1.136-.379.433-.055.92 0 1.461.108l3.299 1.029c.108.054.162.054.27 0l.163-.054.919-.542c.108-.054.163-.108.108-.162.055.108.055.108 0 .054zm.217-2.708c-.379-.216-.595-.433-.649-.649-.054-.217-.054-.434.054-.596.108-.217.27-.379.487-.542.216-.162.432-.27.594-.379l1.785-1.028 2.759 1.624c-.108.108-.216.271-.379.379-.162.108-.324.271-.432.379a2.955 2.955 0 00-.433.325c-.162.108-.27.162-.379.217-.27.162-.541.325-.865.433-.271.108-.541.162-.866.216-.27.055-.594.055-.865 0-.216-.108-.541-.216-.811-.379zm6.923-2.111l-4.868-2.816c-.865-.487-1.785-.758-2.704-.758-.92 0-1.894.325-2.975.92a17.87 17.87 0 00-1.298.867c-.433.325-.758.649-.974.974-.054.054-.054.109-.054.163l.162.054.866.271c.108.054.162.054.27 0 .054 0 .108-.054.162-.109.163-.216.433-.433.757-.704.325-.27.704-.487 1.082-.703.379-.217.703-.38 1.028-.488.325-.108.595-.162.92-.108.27 0 .54.054.757.162.216.109.487.217.757.325l.325.217-1.894 1.083c-.595.379-1.081.704-1.352 1.029-.27.324-.433.649-.433.974 0 .325.109.596.325.867.216.27.487.487.865.704.325.216.704.379 1.136.487.433.108.866.162 1.353.162.486 0 1.027-.108 1.568-.27a8.744 8.744 0 001.839-.813c.487-.27.974-.595 1.461-.974.486-.379.811-.704 1.081-1.137.109-.109.055-.217-.162-.379zm8.601-4.387l-7.681-4.44c-.108-.054-.162-.108-.271-.054a.41.41 0 00-.216.108l-.865.488a.664.664 0 00-.163.108c0 .054.054.108.108.162l3.462 2.004a2.758 2.758 0 01-.703.65c-.325.216-.595.433-.865.595-.325.217-.649.325-.974.488a5.672 5.672 0 01-.92.216c-.324 0-.595-.054-.919-.108a6.142 6.142 0 01-1.082-.487l-1.839-1.029c-.108-.054-.162-.108-.27-.054a.412.412 0 00-.217.108l-.865.487c-.054.054-.108.109-.162.109 0 .054.054.108.108.162l1.785 1.029c1.081.596 2.109.92 3.083.92 1.028 0 2.055-.324 3.137-.92.27-.163.595-.379.92-.65.324-.271.595-.487.811-.758l3.083 1.787c.108.054.216.108.27.054a.409.409 0 00.217-.108l.865-.488c.054-.054.108-.108.163-.108.162-.162.108-.216 0-.271zm-1.461-4.44a4.662 4.662 0 01-.757-.65 1.68 1.68 0 01-.325-.703.86.86 0 01.163-.704c.108-.217.378-.434.703-.65.432-.217.811-.379 1.244-.488.378-.108.811-.108 1.19-.054.378.054.757.109 1.136.271a3.59 3.59 0 011.027.487l-4.381 2.491zm5.463-3.303c-.487-.271-1.028-.541-1.623-.704-.54-.162-1.135-.271-1.676-.271-.595 0-1.19.055-1.785.217-.595.163-1.19.379-1.785.758-.487.325-.866.65-1.136.975-.271.379-.325.758-.325 1.137.054.379.271.812.595 1.191.325.433.866.812 1.569 1.191.757.434 1.46.759 2.164.975a7.04 7.04 0 002.055.325c.649 0 1.298-.054 1.947-.217a7.357 7.357 0 001.785-.758 4.318 4.318 0 001.136-.812c.325-.271.595-.595.757-.975.054-.054.054-.108-.054-.162-.054 0-.108-.054-.162-.054l-.974-.217c-.216-.054-.324 0-.378.109a1.932 1.932 0 01-.541.649c-.217.271-.541.488-.866.65a3.877 3.877 0 01-1.081.487 4.585 4.585 0 01-1.245.163c-.432 0-.865-.054-1.352-.163-.487-.108-.973-.324-1.46-.595l4.435-2.599c.162-.109.271-.163.379-.271.108-.108.162-.217.162-.325 0-.108 0-.217-.108-.379 0-.054-.162-.162-.433-.325zm11.9-1.895c-.054 0-.108-.054-.216-.054l-.974-.217h-.216c-.054 0-.108.054-.163.162-.108.217-.27.434-.54.65-.217.271-.541.488-.866.704a5.436 5.436 0 01-1.352.542c-.433.054-.92.108-1.352.054a6.165 6.165 0 01-1.353-.325 8.87 8.87 0 01-1.244-.596 3.88 3.88 0 01-1.027-.758c-.271-.271-.487-.541-.595-.812a.864.864 0 01.054-.812c.108-.271.378-.542.811-.758a3.598 3.598 0 011.028-.488c.378-.108.703-.216 1.082-.325.162 0 .216-.054.216-.108s0-.054-.054-.162l-.325-.542a.116.116 0 00-.108-.108c-.054-.054-.162-.054-.324-.054a12.24 12.24 0 00-1.515.379 9.505 9.505 0 00-1.298.595c-.541.325-.974.704-1.244 1.083-.271.379-.325.758-.271 1.192.054.379.271.812.649 1.191a7.4 7.4 0 001.515 1.191c1.352.812 2.704 1.246 4.003 1.3 1.298.054 2.542-.217 3.678-.921.432-.27.811-.541 1.19-.866.378-.325.649-.65.811-1.029.108 0 .054-.054 0-.108zm.703-8.177l-.595-.379c-.108-.054-.162-.108-.27-.108-.108 0-.162 0-.325.108l-6.22 3.628c-.108.054-.162.108-.162.162 0 .054.054.109.162.163l.595.379c.054.054.162.054.27.054.054 0 .163 0 .325-.108l2.38-1.408 6.707 3.898c.108.055.216.109.27.109.055 0 .163-.054.271-.109l.757-.433c.108-.054.162-.108.162-.162 0-.054-.054-.109-.162-.163l-6.707-3.898 2.488-1.462c.108-.055.162-.109.162-.163.055 0 0-.054-.108-.108zm2.759-1.299l2.704-1.571c.325-.216.704-.27 1.082-.27.379 0 .703.054 1.028.216.216.109.324.271.433.379.054.109.054.271.054.379a1.125 1.125 0 01-.217.325 1.114 1.114 0 01-.324.217l-2.597 1.516-2.163-1.191zm3.191 1.841l2.542-1.462c.541-.325 1.028-.488 1.569-.488.541 0 .974.109 1.352.325.163.109.271.163.433.325.108.109.216.271.216.379 0 .163 0 .325-.162.488a1.702 1.702 0 01-.649.541l-2.542 1.462-2.759-1.57zm6.924-2.383c-.433-.27-.92-.433-1.515-.487-.595-.108-1.19-.054-1.839.162l-.054-.054a.87.87 0 00.054-.812c-.108-.271-.379-.541-.703-.704-.703-.379-1.46-.596-2.218-.487-.811.054-1.568.325-2.272.758l-3.353 1.949c-.216.108-.325.271-.325.379 0 .109.109.271.271.379l6.923 4.007c.163.109.379.163.595.163.217 0 .433-.054.649-.163l3.516-2.057c.379-.217.649-.488.866-.704.216-.271.324-.542.378-.758 0-.271-.054-.488-.216-.758-.162-.38-.433-.596-.757-.813zm2.704-1.57c-.378-.217-.595-.433-.649-.65-.054-.217-.054-.433.054-.596.108-.162.271-.379.487-.541.216-.163.433-.271.595-.379l1.785-1.029 2.759 1.624c-.109.109-.217.271-.379.379a3.104 3.104 0 00-.433.38 2.995 2.995 0 00-.432.324 3.068 3.068 0 01-.379.217c-.271.162-.541.325-.866.433-.27.109-.54.163-.865.217a2.33 2.33 0 01-.865 0c-.217-.108-.541-.217-.812-.379zm6.924-2.112l-4.868-2.816c-.866-.487-1.785-.758-2.705-.758-.919 0-1.893.325-2.975.921-.433.27-.865.541-1.298.866-.433.325-.757.65-.974.975-.054.054-.054.108-.054.162l.163.054.865.271c.108.054.162.054.27 0 .055 0 .109-.054.163-.108.162-.217.432-.433.757-.704.379-.271.703-.488 1.082-.704a5.681 5.681 0 011.028-.487c.324-.109.595-.163.919-.163.27 0 .541.054.757.163.217.108.487.216.758.324l.324.217-1.893 1.083c-.595.379-1.082.704-1.352 1.029-.271.325-.433.65-.433.975 0 .324.108.595.325.866.216.271.486.487.865.704.325.216.703.379 1.136.487.433.108.865.163 1.352.163.487 0 1.028-.109 1.569-.271a8.736 8.736 0 001.839-.812c.487-.271.973-.596 1.46-.975s.812-.704 1.082-1.137c.108-.108.054-.217-.162-.325z" fill="#272727"/><path d="M188.538 3.311v65.303l-1.461-.812V2.5l1.461.812z" fill="#D8D8D8"/><path d="M188.43 3.31l1.46-.866v65.304l-1.46.866V3.311zm-2.759 0l1.406-.866v65.304l-1.406.866V3.311z" fill="#B5B5B5"/><path d="M185.671 3.31v65.25l-1.406-.812V2.444l1.406.867z" fill="#D8D8D8"/><path d="M189.89 2.445l-1.46.866-1.353-.704-1.352.704-1.46-.866L187.077.82l2.813 1.625z" fill="#fff"/><path d="M137.855 124.767v1.895l67.883-39.799v-1.895l-67.883 39.799z" fill="#B5B5B5"/><path d="M137.855 124.767v1.895l-18.606-10.992v-1.896l18.606 10.993z" fill="#D8D8D8"/><path d="M119.249 113.774l18.607 10.993 67.882-39.8-18.661-10.938-67.828 39.745z" fill="#fff"/><path d="M187.348 78.145v14.566l-14.064-8.122V69.86l14.064 8.285z" fill="#FB0"/><path opacity=".3" d="M185.779 79.01l-10.926-6.389v11.046l10.926 6.282V79.01z" fill="#C48500"/><path opacity=".5" d="M175.34 72.892v10.505l10.439 6.064v.488l-10.926-6.282V72.621l.487.27z" fill="#C48500"/><path d="M187.348 78.144V92.71l13.306-7.689V70.293l-13.306 7.851z" fill="#FC0"/><path opacity=".3" d="M199.085 84.101V73.055l-10.169 5.956v10.992l10.169-5.902z" fill="#C48500"/><path opacity=".3" d="M198.652 83.884V73.271l.433-.216V84.1l-10.169 5.902v-.487l9.736-5.632z" fill="#C48500"/><path d="M200.654 70.293l-13.306 7.852-14.064-8.285 13.36-7.797 14.01 8.23z" fill="#FFDE17"/><path d="M200.654 70.293l-13.306 7.852-14.064-8.285 14.118 7.744 13.252-7.31z" fill="#FFEA9C"/><path d="M197.571 70.293l-10.927-6.39-10.223 5.957 10.927 6.443 10.223-6.01z" fill="#FC0"/><path opacity=".3" d="M186.644 64.39l-9.79 5.74-.433-.27 10.223-5.957 10.927 6.39-.433.27-10.494-6.172z" fill="#C48500"/><path d="M180.154 78.415l1.082 3.465-.703-.433v4.116l-.758-.434v-4.115l-.757-.433 1.136-2.166zm-3.841.595l1.136-2.165 1.082 3.465-.703-.433v4.115l-.811-.433v-4.115l-.704-.433zm21.149 4.225l.433-.27V78.09l-.433.27v4.874zm-.811-.379l.487-.27v-4.008l-.487.27v4.008zm-1.136.704l.433-.271v-4.061l-.433.27v4.061zm.703-.434l.217-.108v-4.061l-.217.108v4.061zm-1.352.814l.432-.271v-4.062l-.432.271v4.061zm-.379.162l.163-.055v-4.06l-.163.108v4.007zm-2.596 1.515l.162-.108v-4.007l-.162.108v4.007zm1.244-.703l.325-.217V80.69l-.325.163v4.061zm.649-.379l.433-.271v-4.007l-.433.27v4.008zm-1.514.866l.54-.325V81.07l-.54.325v4.007zm-.974.541l.379-.162v-4.061l-.379.216v4.007zm-.757.488l.432-.271v-4.061l-.432.27v4.062zm-.649 1.191l.324-.216V82.53l-.324.217v4.873z" fill="#A16D00"/><path d="M170.525 88.055v14.62l-14.063-8.176V79.824l14.063 8.23z" fill="#FB0"/><path opacity=".3" d="M168.956 88.975l-10.926-6.39v11.046l10.926 6.281V88.974z" fill="#C48500"/><path opacity=".5" d="M158.517 82.856V93.36l10.439 6.064v.487l-10.926-6.28V82.584l.487.27z" fill="#C48500"/><path d="M170.525 88.054v14.62l13.307-7.743V80.257l-13.307 7.797z" fill="#FC0"/><path opacity=".3" d="M182.263 94.065V83.019l-10.169 5.956v10.938l10.169-5.848z" fill="#C48500"/><path opacity=".3" d="M181.83 93.848V83.235l.433-.216v11.046l-10.169 5.848v-.433l9.736-5.632z" fill="#C48500"/><path d="M183.831 80.257l-13.306 7.797-14.063-8.23 13.36-7.798 14.009 8.231z" fill="#FFDE17"/><path d="M183.831 80.257l-13.306 7.798-14.063-8.23 14.117 7.742 13.252-7.31z" fill="#FFEA9C"/><path d="M180.748 80.257l-10.926-6.39-10.223 5.956 10.926 6.444 10.223-6.01z" fill="#FC0"/><path opacity=".3" d="M169.822 74.355l-9.79 5.74-.433-.272 10.223-5.956 10.926 6.39-.432.27-10.494-6.172z" fill="#C48500"/><path d="M163.331 88.379l1.082 3.465-.703-.433v4.115l-.757-.487v-4.115l-.758-.38 1.136-2.165zm-3.84.596l1.136-2.166 1.081 3.465-.703-.433v4.115l-.811-.433v-4.115l-.703-.433zm21.149 4.224l.433-.27v-4.874l-.433.27V93.2zm-.757-.379l.433-.27v-4.062l-.433.271v4.061zm-1.19.65l.433-.272v-4.007l-.433.271v4.007zm.703-.38l.216-.108v-4.061l-.216.108v4.061zm-1.353.759l.433-.27V89.57l-.433.271v4.007zm-.324.217l.108-.109V89.95l-.108.054v4.061zm-2.65 1.515l.162-.108v-4.007l-.162.054v4.061zm1.244-.704l.325-.216V90.6l-.325.216v4.061zm.649-.379l.433-.27v-4.062l-.433.27v4.062zm-1.515.867l.541-.325v-4.007l-.541.27v4.062zm-.973.541l.378-.162v-4.061l-.378.216v4.007zm-.758.434l.433-.217V92.06l-.433.271v4.007zm-.649 1.245l.325-.216v-4.874l-.325.217v4.873z" fill="#A16D00"/><path d="M153.811 97.91v14.566l-14.063-8.123V89.625l14.063 8.285z" fill="#FB0"/><path opacity=".3" d="M152.243 98.775l-10.927-6.39v11.047l10.927 6.335V98.775z" fill="#C48500"/><path opacity=".5" d="M141.803 92.656v10.505l10.44 6.065v.541l-10.927-6.335V92.386l.487.27z" fill="#C48500"/><path d="M153.812 97.91v14.565l13.306-7.689V90.058l-13.306 7.851z" fill="#FC0"/><path opacity=".3" d="M165.549 103.866V92.819l-10.169 6.01v10.939l10.169-5.902z" fill="#C48500"/><path opacity=".3" d="M165.116 103.649V93.09l.433-.27v11.046l-10.169 5.902v-.433l9.736-5.686z" fill="#C48500"/><path d="M167.118 90.058l-13.307 7.851-14.063-8.285 13.36-7.797 14.01 8.23z" fill="#FFDE17"/><path d="M167.118 90.058l-13.307 7.852-14.063-8.285 14.118 7.743 13.252-7.31z" fill="#FFEA9C"/><path d="M164.034 90.058l-10.926-6.39-10.223 5.956 10.926 6.444 10.223-6.01z" fill="#FC0"/><path opacity=".3" d="M153.108 84.21l-9.79 5.685-.433-.27 10.223-5.957 10.926 6.39-.432.27-10.494-6.118z" fill="#C48500"/><path d="M146.617 98.18l1.082 3.465-.703-.433v4.115l-.811-.433v-4.115l-.704-.433 1.136-2.166zm-3.84.595l1.136-2.166 1.082 3.466-.704-.433v4.115l-.811-.433v-4.115l-.703-.434zm21.095 4.224l.487-.271v-4.819l-.487.27V103zm-.757-.378l.487-.271v-4.007l-.487.27v4.008zm-1.136.703l.433-.271v-4.06l-.433.27v4.061zm.703-.433l.216-.108v-4.061l-.216.162v4.007zm-1.352.812l.432-.271v-4.06l-.432.27v4.061zm-.379.162l.162-.054V99.75l-.162.108v4.007zm-2.596 1.517l.162-.054v-4.061l-.162.108v4.007zm1.244-.704l.325-.217v-4.007l-.325.217v4.007zm.649-.38l.433-.27v-4.007l-.433.27v4.007zm-1.515.867l.541-.325v-4.007l-.541.325v4.007zm-.973.596l.378-.216v-4.062l-.378.217v4.061zm-.758.433l.433-.271v-4.061l-.433.271v4.061zm-.648 1.191l.324-.217v-4.873l-.324.217v4.873z" fill="#A16D00"/><path d="M136.99 107.873v14.566l-14.064-8.123V99.588l14.064 8.285z" fill="#FB0"/><path opacity=".3" d="M135.421 108.738l-10.926-6.389v11.046l10.926 6.335v-10.992z" fill="#C48500"/><path opacity=".5" d="M124.982 102.619v10.505l10.439 6.065v.541l-10.926-6.335v-11.046l.487.27z" fill="#C48500"/><path d="M136.99 107.872v14.566l13.306-7.689v-14.728l-13.306 7.851z" fill="#FC0"/><path opacity=".3" d="M148.727 113.829v-11.047l-10.169 5.957v10.992l10.169-5.902z" fill="#C48500"/><path opacity=".3" d="M148.294 113.612v-10.613l.433-.217v11.047l-10.169 5.902v-.488l9.736-5.631z" fill="#C48500"/><path d="M150.296 100.021l-13.306 7.851-14.064-8.285 13.361-7.797 14.009 8.231z" fill="#FFDE17"/><path d="M150.296 100.021l-13.306 7.852-14.064-8.285 14.118 7.743 13.252-7.31z" fill="#FFEA9C"/><path d="M147.213 100.02l-10.927-6.39-10.223 5.957 10.927 6.444 10.223-6.011z" fill="#FC0"/><path opacity=".3" d="M136.286 94.118l-9.79 5.74-.433-.27 10.223-5.957 10.927 6.389-.433.271-10.494-6.173z" fill="#C48500"/><path d="M129.796 108.143l1.081 3.465-.703-.433v4.115l-.811-.433v-4.115l-.703-.433 1.136-2.166zm-3.841.595l1.136-2.166 1.082 3.466-.703-.433v4.115l-.812-.433v-4.116l-.703-.433zm21.149 4.224l.433-.271v-4.819l-.433.217v4.873zm-.811-.379l.487-.27v-4.007l-.487.27v4.007zm-1.136.704l.433-.271v-4.061l-.433.271v4.061zm.703-.433l.217-.108v-4.061l-.217.108v4.061zm-1.352.812l.433-.271v-4.061l-.433.271v4.061zm-.379.162l.163-.054v-4.061l-.163.108v4.007zm-2.596 1.517l.162-.109v-4.007l-.162.109v4.007zm1.244-.704l.325-.217v-4.007l-.325.162v4.062zm.649-.38l.433-.271v-4.007l-.433.271v4.007zm-1.514.867l.541-.325v-4.007l-.541.325v4.007zm-.974.542l.379-.163v-4.061l-.379.217v4.007zm-.757.487l.432-.271v-4.061l-.432.271v4.061zm-.649 1.191l.324-.217v-4.873l-.324.216v4.874z" fill="#A16D00"/><path d="M137.855 104.19v1.896l67.883-39.745v-1.896l-67.883 39.745z" fill="#B5B5B5"/><path d="M137.855 104.19v1.896l-18.606-10.993v-1.895l18.606 10.992z" fill="#D8D8D8"/><path d="M119.249 93.198l18.607 10.992 67.882-39.745-18.661-10.992-67.828 39.745z" fill="#fff"/><path d="M187.348 57.46v14.62l-14.064-8.176V49.229l14.064 8.231z" fill="#FB0"/><path opacity=".3" d="M185.779 58.38l-10.926-6.444v11.047l10.926 6.335V58.38z" fill="#C48500"/><path opacity=".5" d="M175.34 52.207v10.505l10.439 6.065v.541l-10.926-6.335V51.937l.487.27z" fill="#C48500"/><path d="M187.348 57.46v14.62l13.306-7.744V49.662l-13.306 7.797z" fill="#FC0"/><path opacity=".3" d="M199.085 63.416V52.37l-10.169 6.01v10.94l10.169-5.903z" fill="#C48500"/><path opacity=".3" d="M198.652 63.254V52.641l.433-.27v11.045l-10.169 5.903v-.434l9.736-5.631z" fill="#C48500"/><path d="M200.654 49.662l-13.306 7.798-14.064-8.23 13.36-7.798 14.01 8.23z" fill="#FFDE17"/><path d="M200.654 49.663l-13.306 7.797-14.064-8.23 14.118 7.689 13.252-7.256z" fill="#FFEA9C"/><path d="M197.571 49.662l-10.927-6.443-10.223 6.01 10.927 6.39 10.223-5.957z" fill="#FC0"/><path opacity=".3" d="M186.644 43.76l-9.79 5.686-.433-.217 10.223-6.01 10.927 6.443-.433.217-10.494-6.119z" fill="#C48500"/><path d="M180.154 57.784l1.082 3.412-.703-.38v4.116l-.758-.487v-4.116l-.757-.379 1.136-2.166zm-3.841.596l1.136-2.166 1.082 3.411-.703-.379v4.115l-.811-.487V58.76l-.704-.38zm21.149 4.224l.433-.27V57.46l-.433.27v4.874zm-.811-.379l.487-.27v-4.061l-.487.27v4.061zm-1.136.649l.433-.27v-4.007l-.433.27v4.007zm.703-.378l.217-.163v-4.007l-.217.108v4.062zm-1.352.758l.432-.27v-4.007l-.432.27v4.007zm-.379.216l.163-.108v-4.007l-.163.055v4.06zm-2.596 1.517l.162-.108v-4.062l-.162.109v4.06zm1.244-.704l.325-.217v-4.061l-.325.216v4.062zm.649-.38l.433-.27V59.57l-.433.271v4.061zm-1.514.867l.54-.325v-4.061l-.54.325v4.06zm-.974.541l.379-.216v-4.007l-.379.216v4.007zm-.757.434l.432-.271v-4.007l-.432.27v4.008zm-.649 1.191l.324-.162V61.9l-.324.217v4.82z" fill="#A16D00"/><path d="M170.525 67.423v14.62l-14.063-8.176V59.14l14.063 8.284z" fill="#FB0"/><path opacity=".3" d="M168.956 68.343L158.03 61.9v11.047l10.926 6.335V68.343z" fill="#C48500"/><path opacity=".5" d="M158.517 62.17v10.505l10.439 6.065v.541l-10.926-6.335V61.899l.487.271z" fill="#C48500"/><path d="M170.525 67.423v14.62l13.307-7.743V59.57l-13.307 7.852z" fill="#FC0"/><path opacity=".3" d="M182.263 73.38V62.332l-10.169 6.01V79.28l10.169-5.902z" fill="#C48500"/><path opacity=".3" d="M181.83 73.217V62.604l.433-.271v11.046l-10.169 5.902v-.433l9.736-5.631z" fill="#C48500"/><path d="M183.831 59.571l-13.306 7.852-14.063-8.285 13.36-7.797 14.009 8.23z" fill="#FFDE17"/><path d="M183.831 59.572l-13.306 7.851-14.063-8.284 14.117 7.743 13.252-7.31z" fill="#FFEA9C"/><path d="M180.748 59.571l-10.926-6.39-10.223 5.957 10.926 6.444 10.223-6.01z" fill="#FC0"/><path opacity=".3" d="M169.822 53.723l-9.79 5.686-.433-.271 10.223-5.956 10.926 6.39-.432.27-10.494-6.119z" fill="#C48500"/><path d="M163.331 67.693l1.082 3.466-.703-.433v4.115l-.757-.433v-4.115l-.758-.434 1.136-2.166zm-3.84.596l1.136-2.166 1.081 3.466-.703-.38v4.116l-.811-.487v-4.116l-.703-.433zm21.149 4.278l.433-.27v-4.874l-.433.27v4.874zm-.757-.433l.433-.216v-4.062l-.433.271v4.007zm-1.19.703l.433-.27V68.56l-.433.216v4.061zm.703-.433l.216-.108V68.29l-.216.108v4.007zm-1.353.813l.433-.27v-4.008l-.433.217v4.061zm-.324.216l.108-.108v-4.061l-.108.108v4.061zm-2.65 1.517l.162-.109v-4.06l-.162.108v4.06zm1.244-.759l.325-.162v-4.061l-.325.216v4.007zm.649-.325l.433-.27v-4.062l-.433.27v4.062zm-1.515.867l.541-.325v-4.061l-.541.325v4.06zm-.973.541l.378-.216V71.05l-.378.162v4.061zm-.758.433l.433-.27V71.43l-.433.27v4.007zm-.649 1.193l.325-.218v-4.819l-.325.217v4.82z" fill="#A16D00"/><path d="M153.811 77.225v14.62l-14.063-8.177V68.994l14.063 8.23z" fill="#FB0"/><path opacity=".3" d="M152.243 78.144l-10.927-6.39v10.993l10.927 6.335V78.144z" fill="#C48500"/><path opacity=".5" d="M141.803 72.026V82.53l10.44 6.01v.541l-10.927-6.335V71.755l.487.27z" fill="#C48500"/><path d="M153.812 77.224v14.62l13.306-7.743V69.427l-13.306 7.797z" fill="#FC0"/><path opacity=".3" d="M165.549 83.235V72.189l-10.169 5.956v10.938l10.169-5.848z" fill="#C48500"/><path opacity=".3" d="M165.116 83.018V72.405l.433-.216v11.046l-10.169 5.848v-.433l9.736-5.632z" fill="#C48500"/><path d="M167.118 69.427l-13.307 7.797-14.063-8.23 13.36-7.798 14.01 8.23z" fill="#FFDE17"/><path d="M167.118 69.427l-13.307 7.798-14.063-8.23 14.118 7.742 13.252-7.31z" fill="#FFEA9C"/><path d="M164.034 69.427l-10.926-6.39-10.223 5.956 10.926 6.444 10.223-6.01z" fill="#FC0"/><path opacity=".3" d="M153.108 63.524l-9.79 5.74-.433-.27 10.223-5.957 10.926 6.39-.432.27-10.494-6.173z" fill="#C48500"/><path d="M146.617 77.549l1.082 3.411-.703-.379v4.115l-.811-.487v-4.115l-.704-.38 1.136-2.165zm-3.84.595l1.136-2.166 1.082 3.466-.704-.433v4.115l-.811-.433v-4.115l-.703-.434zm21.095 4.225l.487-.271v-4.873l-.487.27v4.874zm-.757-.379l.487-.27v-4.062l-.487.27v4.062zm-1.136.65l.433-.272v-4.007l-.433.271v4.007zm.703-.38l.216-.108v-4.061l-.216.108v4.061zm-1.352.759l.432-.27V78.74l-.432.271v4.007zm-.379.216l.162-.108V79.12l-.162.054v4.061zm-2.596 1.516l.162-.108v-4.007l-.162.054v4.061zm1.244-.704l.325-.216v-4.062l-.325.217v4.061zm.649-.379l.433-.27v-4.062l-.433.27v4.062zm-1.515.866l.541-.324v-4.062l-.541.325v4.061zm-.973.542l.378-.216v-4.007l-.378.216v4.007zm-.758.434l.433-.217V81.23l-.433.271v4.007zm-.648 1.245l.324-.217v-4.873l-.324.217v4.873z" fill="#A16D00"/><path d="M136.99 87.188v14.62l-14.064-8.177V78.957l14.064 8.23z" fill="#FB0"/><path opacity=".3" d="M135.421 88.108l-10.926-6.444V92.71l10.926 6.336V88.108z" fill="#C48500"/><path opacity=".5" d="M124.982 81.935V92.44l10.439 6.064v.542l-10.926-6.336V81.664l.487.27z" fill="#C48500"/><path d="M136.99 87.187v14.62l13.306-7.743V79.39l-13.306 7.797z" fill="#FC0"/><path opacity=".3" d="M148.727 93.144V82.098l-10.169 6.01v10.938l10.169-5.902z" fill="#C48500"/><path opacity=".3" d="M148.294 92.981V82.368l.433-.27v11.046l-10.169 5.902v-.433l9.736-5.632z" fill="#C48500"/><path d="M150.296 79.39l-13.306 7.797-14.064-8.23 13.361-7.798 14.009 8.23z" fill="#FFDE17"/><path d="M150.296 79.39l-13.306 7.798-14.064-8.231 14.118 7.69 13.252-7.257z" fill="#FFEA9C"/><path d="M147.213 79.39l-10.927-6.444-10.223 6.01 10.927 6.39 10.223-5.956z" fill="#FC0"/><path opacity=".3" d="M136.286 73.488l-9.79 5.685-.433-.216 10.223-6.01 10.927 6.443-.433.217-10.494-6.12z" fill="#C48500"/><path d="M129.796 87.512l1.081 3.411-.703-.379v4.115l-.811-.487v-4.115l-.703-.38 1.136-2.165zm-3.841.595l1.136-2.166 1.082 3.412-.703-.38v4.116l-.812-.487v-4.116l-.703-.379zm21.149 4.225l.433-.271v-4.874l-.433.271v4.874zm-.811-.379l.487-.27V87.62l-.487.27v4.062zm-1.136.649l.433-.27v-4.008l-.433.271v4.007zm.703-.379l.217-.162v-4.007l-.217.108v4.061zm-1.352.759l.433-.27v-4.008l-.433.27v4.008zm-.379.216l.163-.108v-4.007l-.163.054v4.061zm-2.596 1.516l.162-.108v-4.007l-.162.054v4.06zm1.244-.704l.325-.216v-4.062l-.325.217v4.061zm.649-.38l.433-.27v-4.061l-.433.27v4.062zm-1.514.867l.541-.325v-4.06l-.541.324v4.061zm-.974.542l.379-.217v-4.007l-.379.217v4.007zm-.757.433l.432-.27v-4.008l-.432.271v4.007zm-.649 1.192l.324-.163v-4.873l-.324.216v4.82z" fill="#A16D00"/><path d="M137.855 83.506V85.4l67.883-39.745V43.76l-67.883 39.745z" fill="#B5B5B5"/><path d="M137.855 83.505v1.896l-18.606-10.938v-1.896l18.606 10.938z" fill="#D8D8D8"/><path d="M119.249 72.567l18.607 10.938 67.882-39.745-18.661-10.938-67.828 39.745z" fill="#fff"/><path d="M153.812 56.756v14.566l-14.063-8.176V48.472l14.063 8.284z" fill="#FB0"/><path opacity=".3" d="M152.244 57.622l-10.927-6.39V62.28l10.927 6.281V57.622z" fill="#C48500"/><path opacity=".5" d="M141.804 51.503v10.505l10.44 6.065v.487l-10.927-6.281V51.232l.487.271z" fill="#C48500"/><path d="M153.812 56.756v14.566l13.306-7.743V48.904l-13.306 7.852z" fill="#FC0"/><path opacity=".3" d="M165.549 62.712V51.666l-10.169 5.956V68.56l10.169-5.848z" fill="#C48500"/><path opacity=".3" d="M165.117 62.496V51.883l.432-.217v11.046L155.38 68.56v-.433l9.737-5.631z" fill="#C48500"/><path d="M167.118 48.904l-13.306 7.852-14.063-8.285 13.36-7.797 14.009 8.23z" fill="#FFDE17"/><path d="M167.118 48.905l-13.306 7.851-14.063-8.284 14.117 7.743 13.252-7.31z" fill="#FFEA9C"/><path d="M164.035 48.904l-10.926-6.39-10.223 5.957 10.926 6.444 10.223-6.01z" fill="#FC0"/><path opacity=".3" d="M153.109 43.002l-9.791 5.74-.432-.271 10.223-5.956 10.926 6.39-.433.27-10.493-6.173z" fill="#C48500"/><path d="M146.618 57.026l1.082 3.466-.704-.433v4.115l-.811-.433v-4.115l-.703-.434 1.136-2.166zm-3.841.596l1.136-2.166 1.082 3.466-.703-.434v4.116l-.811-.434v-4.115l-.704-.433zm21.096 4.224l.486-.27v-4.874l-.486.27v4.874zm-.758-.379l.487-.27v-4.008l-.487.217v4.061zm-1.136.65l.433-.217v-4.061l-.433.27v4.008zm.704-.379l.216-.108v-4.062l-.216.109v4.06zm-1.353.758l.433-.216v-4.061l-.433.27v4.008zm-.378.217l.162-.108v-4.007l-.162.108v4.007zm-2.597 1.516l.163-.109v-4.007l-.163.054v4.062zm1.245-.704l.324-.216v-4.007l-.324.162v4.061zm.649-.379l.432-.27v-4.008l-.432.217v4.06zm-1.515.867l.541-.325V59.68l-.541.325v4.007zm-.974.541l.379-.163v-4.06l-.379.216v4.007zm-.757.486l.433-.27v-4.06l-.433.27v4.062zm-.649 1.193l.325-.217v-4.873l-.325.216v4.874z" fill="#A16D00"/><path d="M136.99 66.665v14.62l-14.064-8.176V58.435l14.064 8.23z" fill="#FB0"/><path opacity=".3" d="M135.421 67.585l-10.926-6.39v10.992l10.926 6.336V67.585z" fill="#C48500"/><path opacity=".5" d="M124.982 61.466v10.505l10.439 6.01v.542l-10.926-6.335V61.194l.487.271z" fill="#C48500"/><path d="M136.99 66.665v14.62l13.306-7.743V58.867l-13.306 7.798z" fill="#FC0"/><path opacity=".3" d="M148.727 72.621V61.63l-10.169 5.956v10.938l10.169-5.902z" fill="#C48500"/><path opacity=".3" d="M148.294 72.459V61.845l.433-.216V72.62l-10.169 5.902v-.433l9.736-5.631z" fill="#C48500"/><path d="M150.296 58.867l-13.306 7.798-14.064-8.23 13.361-7.798 14.009 8.23z" fill="#FFDE17"/><path d="M150.296 58.868l-13.306 7.797-14.064-8.23 14.118 7.743 13.252-7.31z" fill="#FFEA9C"/><path d="M147.213 58.867l-10.927-6.39-10.223 5.957 10.927 6.444 10.223-6.01z" fill="#FC0"/><path opacity=".3" d="M136.286 52.965l-9.79 5.74-.433-.271 10.223-5.956 10.927 6.39-.433.216-10.494-6.12z" fill="#C48500"/><path d="M129.796 66.99l1.081 3.41-.703-.378v4.115l-.811-.487v-4.116l-.703-.379 1.136-2.166zm-3.841.595l1.136-2.166 1.082 3.466-.703-.434v4.116l-.812-.488v-4.115l-.703-.38zm21.149 4.225l.433-.272v-4.873l-.433.27v4.874zm-.811-.38l.487-.27v-4.061l-.487.27v4.061zm-1.136.65l.433-.271v-4.007l-.433.27v4.007zm.703-.38l.217-.162v-4.007l-.217.108v4.062zm-1.352.76l.433-.271v-4.007l-.433.27v4.007zm-.379.216l.163-.109v-4.006l-.163.054v4.06zm-2.596 1.516l.162-.109v-4.007l-.162.054v4.062zm1.244-.704l.325-.217V69.21l-.325.217v4.06zm.649-.38l.433-.27v-4.062l-.433.271v4.061zm-1.514.867l.541-.325v-4.061l-.541.325v4.06zm-.974.542l.379-.217v-4.007l-.379.217v4.007zm-.757.433l.432-.271v-4.007l-.432.27v4.008zm-.649 1.245l.324-.216v-4.873l-.324.216v4.873z" fill="#A16D00"/><path d="M137.855 63.038v1.895l67.883-39.8v-1.895l-67.883 39.8z" fill="#B5B5B5"/><path d="M137.855 63.037v1.895L119.249 53.94v-1.895l18.606 10.992z" fill="#D8D8D8"/><path d="M119.249 52.045l18.607 10.992 67.882-39.8L187.077 12.3l-67.828 39.745z" fill="#fff"/><path d="M153.812 36.234V50.8l-14.063-8.122V27.949l14.063 8.285z" fill="#FB0"/><path opacity=".3" d="M152.244 37.1l-10.927-6.39v11.046l10.927 6.282V37.1z" fill="#C48500"/><path opacity=".5" d="M141.804 30.98v10.506l10.44 6.064v.488l-10.927-6.282V30.71l.487.27z" fill="#C48500"/><path d="M153.812 36.233V50.8l13.306-7.689V28.382l-13.306 7.851z" fill="#FC0"/><path opacity=".3" d="M165.549 42.19V31.144L155.38 37.1v10.992l10.169-5.902z" fill="#C48500"/><path opacity=".3" d="M165.117 41.973V31.36l.432-.216V42.19l-10.169 5.902v-.487l9.737-5.632z" fill="#C48500"/><path d="M167.118 28.382l-13.306 7.851-14.063-8.284 13.36-7.798 14.009 8.231z" fill="#FFDE17"/><path d="M167.118 28.382l-13.306 7.852-14.063-8.285 14.117 7.744 13.252-7.31z" fill="#FFEA9C"/><path d="M164.035 28.382l-10.926-6.39-10.223 5.956 10.926 6.444 10.223-6.01z" fill="#FC0"/><path opacity=".3" d="M153.109 22.48l-9.791 5.74-.432-.271 10.223-5.957 10.926 6.39-.433.27-10.493-6.172z" fill="#C48500"/><path d="M146.618 36.504l1.082 3.465-.704-.433v4.115l-.811-.433v-4.115l-.703-.433 1.136-2.166zm-3.841.596l1.136-2.166 1.082 3.465-.703-.433v4.115l-.811-.433v-4.115l-.704-.434zm21.096 4.223l.486-.27v-4.82l-.486.217v4.873zm-.758-.378l.487-.271v-4.007l-.487.27v4.008zm-1.136.703l.433-.27v-4.062l-.433.271v4.061zm.704-.433l.216-.108v-4.061l-.216.108v4.061zm-1.353.812l.433-.27v-4.062l-.433.271v4.061zm-.378.163l.162-.055v-4.06l-.162.107v4.008zm-2.597 1.516l.163-.108V39.59l-.163.108v4.007zm1.245-.704l.324-.217v-4.007l-.324.163V43zm.649-.379l.432-.271v-4.007l-.432.27v4.008zm-1.515.867l.541-.326v-4.007l-.541.325v4.007zm-.974.541l.379-.162v-4.061l-.379.216v4.007zm-.757.487l.433-.27v-4.061l-.433.27v4.061zm-.649 1.192l.325-.218V40.62l-.325.217v4.873z" fill="#A16D00"/><path d="M137.747 55.24v75.321l-2.812-1.625V53.561l2.812 1.68z" fill="#D8D8D8"/><path d="M137.747 55.24v75.32l2.813-1.624v-75.32l-2.813 1.624z" fill="#B5B5B5"/><path d="M137.747 53.615l1.407-.812 1.406.812-2.813 1.625-2.812-1.679 1.406-.812 1.406.866z" fill="#fff"/><path d="M204.44 12.679v75.429l1.406.812V13.545l-1.406-.866z" fill="#D8D8D8"/><path d="M205.63 15.278v75.375l2.867-1.625V13.653l-2.867 1.625z" fill="#B5B5B5"/><path d="M205.846 13.546l-1.568.92 1.352.812 2.867-1.624-2.867-1.625-1.19.704 1.406.813z" fill="#fff"/><path d="M204.278 14.466V89.84l1.352.812V15.278l-1.352-.812z" fill="#D8D8D8"/><path d="M120.33 41.54v75.375l-1.352.812V42.352l1.352-.812z" fill="#B5B5B5"/><path d="M119.14 44.084v75.375l-2.867-1.624V42.46l2.867 1.624z" fill="#D8D8D8"/><path d="M118.978 42.352l1.514.975-1.352.758-2.867-1.625 2.867-1.624 1.19.704-1.352.812z" fill="#fff"/><path d="M120.492 43.327v75.321l-1.352.812V44.085l1.352-.758z" fill="#B5B5B5"/><path d="M105.834 50.42v65.304l1.46-.812V49.608l-1.46.813z" fill="#D8D8D8"/><path d="M105.942 50.42l-1.46-.812v65.25l1.46.866V50.421zm2.759 0l-1.407-.812v65.25l1.407.866V50.421z" fill="#B5B5B5"/><path d="M108.701 50.42v65.304l1.407-.866v-65.25l-1.407.813z" fill="#D8D8D8"/><path d="M104.482 49.608l1.46.813 1.353-.704 1.352.703 1.46-.812-2.812-1.678-2.813 1.678z" fill="#fff"/><path d="M156.517 171.876v1.895l-67.883-39.745v-1.895l67.883 39.745z" fill="#B5B5B5"/><path d="M156.517 171.876v1.895l18.607-10.992v-1.895l-18.607 10.992z" fill="#D8D8D8"/><path d="M175.124 160.884l-18.607 10.992-67.883-39.745 18.661-10.992 67.829 39.745z" fill="#fff"/><path d="M107.024 125.254v14.566l14.064-8.122V116.97l-14.064 8.284z" fill="#FB0"/><path opacity=".3" d="M108.593 126.174l10.926-6.444v11.047l-10.926 6.335v-10.938z" fill="#C48500"/><path opacity=".5" d="M119.033 120.001v10.505l-10.44 6.065v.541l10.926-6.335V119.73l-.486.271z" fill="#C48500"/><path d="M107.024 125.254v14.566l-13.306-7.689v-14.729l13.306 7.852z" fill="#FC0"/><path opacity=".3" d="M95.287 131.21v-11.046l10.169 6.011v10.938l-10.169-5.903z" fill="#C48500"/><path opacity=".3" d="M95.666 130.994v-10.559l-.379-.271v11.046l10.169 5.903v-.434l-9.79-5.685z" fill="#C48500"/><path d="M93.718 117.402l13.306 7.852 14.064-8.285-13.36-7.797-14.01 8.23z" fill="#FFDE17"/><path d="M93.718 117.403l13.306 7.851 14.064-8.284-14.118 7.743-13.252-7.31z" fill="#FFEA9C"/><path d="M96.801 117.402l10.926-6.389 10.223 5.956-10.926 6.444-10.223-6.011z" fill="#FC0"/><path opacity=".3" d="M107.727 111.554l9.791 5.686.432-.271-10.223-5.956-10.926 6.389.433.271 10.493-6.119z" fill="#C48500"/><path d="M114.219 125.524l-1.082 3.466.703-.433v4.115l.757-.433v-4.115l.757-.434-1.135-2.166zm3.84.596l-1.136-2.166-1.082 3.466.703-.434v4.116l.758-.433v-4.116l.757-.433zm-21.149 4.224l-.433-.271v-4.819l.433.271v4.819zm.757-.379l-.433-.271v-4.006l.433.27v4.007zm1.19.704l-.433-.271v-4.061l.433.271v4.061zm-.703-.434l-.216-.108v-4.007l.216.108v4.007zm1.352.813l-.433-.271v-4.061l.433.271v4.061zm.324.162l-.107-.054v-4.061l.108.108v4.007zm2.651 1.517l-.162-.055v-4.061l.162.109v4.007zm-1.244-.705l-.324-.162v-4.061l.324.216v4.007zm-.649-.378l-.433-.217v-4.061l.433.271v4.007zm1.514.92l-.54-.325v-4.061l.54.325v4.061zm.974.542l-.379-.217v-4.061l.379.217v4.061zm.757.432l-.486-.27v-4.007l.486.216v4.061zm.649 1.192l-.324-.216v-4.82l.324.163v4.873z" fill="#A16D00"/><path d="M123.847 135.217v14.566l14.063-8.122v-14.728l-14.063 8.284z" fill="#FB0"/><path opacity=".3" d="M125.415 136.083l10.926-6.39v11.047l-10.926 6.335v-10.992z" fill="#C48500"/><path opacity=".5" d="M135.854 129.964v10.505l-10.439 6.065v.541l10.926-6.335v-11.047l-.487.271z" fill="#C48500"/><path d="M123.847 135.217v14.566l-13.361-7.689v-14.729l13.361 7.852z" fill="#FC0"/><path opacity=".3" d="M112.109 141.173v-11.046l10.169 6.01v10.938l-10.169-5.902z" fill="#C48500"/><path opacity=".3" d="M112.488 140.957v-10.559l-.379-.271v11.046l10.169 5.902v-.433l-9.79-5.685z" fill="#C48500"/><path d="M110.486 127.365l13.361 7.852 14.063-8.285-13.36-7.797-14.064 8.23z" fill="#FFDE17"/><path d="M110.486 127.366l13.361 7.851 14.063-8.284-14.118 7.743-13.306-7.31z" fill="#FFEA9C"/><path d="M113.624 127.365l10.926-6.389 10.223 5.956-10.926 6.444-10.223-6.011z" fill="#FC0"/><path opacity=".3" d="M124.55 121.517l9.79 5.686.433-.271-10.223-5.956-10.926 6.389.432.271 10.494-6.119z" fill="#C48500"/><path d="M131.04 135.487l-1.082 3.466.704-.433v4.115l.757-.433v-4.116l.757-.433-1.136-2.166zm3.841.596l-1.136-2.166-1.082 3.466.703-.434v4.116l.758-.434v-4.115l.757-.433zm-21.149 4.224l-.433-.271v-4.819l.433.271v4.819zm.757-.379l-.433-.271v-4.007l.433.271v4.007zm1.19.704l-.487-.271V136.3l.487.271v4.061zm-.703-.433l-.217-.109v-4.061l.217.163v4.007zm1.352.812l-.433-.271v-4.061l.433.27v4.062zm.325.162l-.109-.054v-4.061l.109.108v4.007zm2.65 1.516l-.162-.054v-4.061l.162.109v4.006zm-1.244-.704l-.379-.216v-4.007l.379.216v4.007zm-.649-.378l-.433-.271v-4.007l.433.271v4.007zm1.514.866l-.541-.325v-4.007l.541.325v4.007zm.974.596l-.379-.217v-4.061l.379.217v4.061zm.757.433l-.487-.271v-4.061l.487.271v4.061zm.649 1.191l-.325-.217v-4.873l.325.216v4.874z" fill="#A16D00"/><path d="M140.56 145.018v14.62l14.063-8.176v-14.729l-14.063 8.285z" fill="#FB0"/><path opacity=".3" d="M142.129 145.939l10.926-6.444v11.046l-10.926 6.336v-10.938z" fill="#C48500"/><path opacity=".5" d="M152.568 139.766v10.505l-10.439 6.064v.542l10.926-6.336v-11.046l-.487.271z" fill="#C48500"/><path d="M140.56 145.019v14.62l-13.306-7.744v-14.728l13.306 7.852z" fill="#FC0"/><path opacity=".3" d="M128.822 150.975v-11.046l10.169 6.01v10.938l-10.169-5.902z" fill="#C48500"/><path opacity=".3" d="M129.201 150.813v-10.614l-.379-.27v11.046l10.169 5.902v-.433l-9.79-5.631z" fill="#C48500"/><path d="M127.254 137.167l13.306 7.851 14.063-8.284-13.36-7.744-14.009 8.177z" fill="#FFDE17"/><path d="M127.254 137.167l13.306 7.851 14.063-8.285-14.117 7.744-13.252-7.31z" fill="#FFEA9C"/><path d="M130.337 137.167l10.926-6.39 10.223 6.011-10.926 6.389-10.223-6.01z" fill="#FC0"/><path opacity=".3" d="M141.263 131.319l9.79 5.685.433-.216-10.223-6.011-10.926 6.39.433.271 10.493-6.119z" fill="#C48500"/><path d="M147.754 145.289l-1.082 3.466.704-.434v4.17l.757-.487v-4.116l.757-.433-1.136-2.166zm3.841.649l-1.136-2.166-1.082 3.412.703-.379v4.115l.757-.487v-4.116l.758-.379zm-21.15 4.225l-.432-.271v-4.873l.432.27v4.874zm.758-.379l-.433-.271v-4.061l.433.271v4.061zm1.19.649l-.433-.271v-4.007l.433.217v4.061zm-.703-.433l-.217-.108v-4.007l.217.108V150zm1.352.813l-.433-.271v-4.007l.433.271v4.007zm.324.216l-.108-.108v-4.062l.108.109v4.061zm2.651 1.516l-.163-.108v-4.061l.163.108v4.061zm-1.244-.758l-.325-.162v-4.062l.325.217v4.007zm-.649-.324l-.433-.271v-4.061l.433.271v4.061zm1.514.865l-.541-.324v-4.062l.541.325v4.061zm.974.542l-.379-.217v-4.007l.379.163v4.061zm.757.433l-.433-.271v-4.007l.433.271v4.007zm.649 1.192l-.325-.217v-4.819l.325.217v4.819z" fill="#A16D00"/><path d="M157.382 154.982v14.566l14.064-8.122v-14.729l-14.064 8.285z" fill="#FB0"/><path opacity=".3" d="M158.951 155.902l10.926-6.444v11.046l-10.926 6.336v-10.938z" fill="#C48500"/><path opacity=".5" d="M169.391 149.729v10.505l-10.44 6.064v.542l10.926-6.336v-11.046l-.486.271z" fill="#C48500"/><path d="M157.382 154.981v14.566l-13.306-7.689V147.13l13.306 7.851z" fill="#FC0"/><path opacity=".3" d="M145.645 160.938v-11.046l10.169 6.01v10.938l-10.169-5.902z" fill="#C48500"/><path opacity=".3" d="M146.024 160.721v-10.559l-.379-.27v11.046l10.169 5.902v-.433l-9.79-5.686z" fill="#C48500"/><path d="M144.076 147.13l13.306 7.852 14.064-8.285-13.361-7.798-14.009 8.231z" fill="#FFDE17"/><path d="M144.076 147.13l13.306 7.852 14.064-8.285-14.118 7.744-13.252-7.311z" fill="#FFEA9C"/><path d="M147.159 147.13l10.926-6.39 10.223 5.957-10.926 6.443-10.223-6.01z" fill="#FC0"/><path opacity=".3" d="M158.085 141.282l9.791 5.685.432-.27-10.223-5.957-10.926 6.39.433.271 10.493-6.119z" fill="#C48500"/><path d="M164.576 155.252l-1.081 3.465.703-.433v4.116l.757-.434v-4.115l.757-.433-1.136-2.166zm3.841.596l-1.136-2.166-1.082 3.465.703-.433v4.115l.758-.433v-4.115l.757-.433zm-21.149 4.223l-.433-.216v-4.874l.433.271v4.819zm.757-.378l-.433-.217v-4.061l.433.271v4.007zm1.19.703l-.433-.27v-4.062l.433.271v4.061zm-.703-.433l-.217-.108v-4.007l.217.108v4.007zm1.352.812l-.433-.271v-4.061l.433.271v4.061zm.325.217l-.108-.109v-4.061l.108.109v4.061zm2.65 1.462l-.162-.054v-4.061l.162.108v4.007zm-1.244-.704l-.324-.163v-4.061l.324.217v4.007zm-.649-.38l-.433-.216v-4.061l.433.271v4.006zm1.514.921l-.541-.325v-4.061l.541.325v4.061zm.974.542l-.379-.216v-4.061l.379.216v4.061zm.757.433l-.486-.271v-4.007l.486.217v4.061zm.649 1.192l-.324-.217v-4.819l.324.162v4.874z" fill="#A16D00"/><path d="M156.517 151.3v1.895L88.634 113.45v-1.895l67.883 39.745z" fill="#B5B5B5"/><path d="M156.517 151.299v1.896l18.607-10.938v-1.896l-18.607 10.938z" fill="#D8D8D8"/><path d="M175.124 140.362L156.517 151.3l-67.883-39.745 18.661-10.993 67.829 39.8z" fill="#fff"/><path d="M107.024 104.624v14.566l14.064-8.177V96.339l-14.064 8.285z" fill="#FB0"/><path opacity=".3" d="M108.593 105.489l10.926-6.39v11.047l-10.926 6.281v-10.938z" fill="#C48500"/><path opacity=".5" d="M119.033 99.37v10.505l-10.44 6.065v.487l10.926-6.281V99.1l-.486.27z" fill="#C48500"/><path d="M107.024 104.623v14.566l-13.306-7.743V96.772l13.306 7.851z" fill="#FC0"/><path opacity=".3" d="M95.287 110.58V99.533l10.169 5.957v10.992l-10.169-5.902z" fill="#C48500"/><path opacity=".3" d="M95.666 110.363V99.75l-.379-.217v11.047l10.169 5.902v-.488l-9.79-5.631z" fill="#C48500"/><path d="M93.718 96.772l13.306 7.851 14.064-8.285-13.36-7.797-14.01 8.23z" fill="#FFDE17"/><path d="M93.718 96.772l13.306 7.852 14.064-8.285-14.118 7.743-13.252-7.31z" fill="#FFEA9C"/><path d="M96.801 96.771l10.926-6.39 10.223 5.957-10.926 6.444-10.223-6.01z" fill="#FC0"/><path opacity=".3" d="M107.727 90.87l9.791 5.739.432-.27-10.223-5.957-10.926 6.39.433.27 10.493-6.173z" fill="#C48500"/><path d="M114.219 104.894l-1.082 3.465.703-.433v4.115l.757-.433v-4.115l.757-.433-1.135-2.166zm3.84.595l-1.136-2.166-1.082 3.466.703-.433v4.115l.758-.433v-4.116l.757-.433zm-21.149 4.224l-.433-.27v-4.874l.433.271v4.873zm.757-.379l-.433-.27v-4.007l.433.216v4.061zm1.19.65l-.433-.217v-4.061l.433.271v4.007zm-.703-.379l-.216-.108v-4.061l.216.108v4.061zm1.352.813l-.433-.271v-4.061l.433.271v4.061zm.324.162l-.107-.108v-4.007l.108.108v4.007zm2.651 1.516l-.162-.109v-4.007l.162.055v4.061zm-1.244-.704l-.324-.217v-4.007l.324.162v4.062zm-.649-.379l-.433-.271v-4.007l.433.271v4.007zm1.514.867l-.54-.325v-4.007l.54.325v4.007zm.974.541l-.379-.163v-4.061l.379.217v4.007zm.757.487l-.486-.271v-4.061l.486.271v4.061zm.649 1.192l-.324-.217v-4.873l.324.216v4.874z" fill="#A16D00"/><path d="M123.847 114.532v14.62l14.063-8.176v-14.674l-14.063 8.23z" fill="#FB0"/><path opacity=".3" d="M125.415 115.452l10.926-6.39v10.993l-10.926 6.335v-10.938z" fill="#C48500"/><path opacity=".5" d="M135.854 109.333v10.505l-10.439 6.011v.541l10.926-6.335v-10.993l-.487.271z" fill="#C48500"/><path d="M123.847 114.532v14.62l-13.361-7.743v-14.675l13.361 7.798z" fill="#FC0"/><path opacity=".3" d="M112.109 120.542v-11.046l10.169 5.956v10.938l-10.169-5.848z" fill="#C48500"/><path opacity=".3" d="M112.488 120.326v-10.613l-.379-.217v11.046l10.169 5.848v-.433l-9.79-5.631z" fill="#C48500"/><path d="M110.486 106.735l13.361 7.797 14.063-8.231-13.36-7.797-14.064 8.231z" fill="#FFDE17"/><path d="M110.486 106.735l13.361 7.797 14.063-8.23-14.118 7.743-13.306-7.31z" fill="#FFEA9C"/><path d="M113.624 106.734l10.926-6.389 10.223 5.956-10.926 6.444-10.223-6.011z" fill="#FC0"/><path opacity=".3" d="M124.55 100.832l9.79 5.74.433-.271-10.223-5.956-10.926 6.389.432.271 10.494-6.173z" fill="#C48500"/><path d="M131.04 114.856l-1.082 3.412.704-.379v4.115l.757-.487v-4.116l.757-.379-1.136-2.166zm3.841.596l-1.136-2.166-1.082 3.466.703-.434v4.116l.758-.433v-4.116l.757-.433zm-21.149 4.224l-.433-.27v-4.874l.433.271v4.873zm.757-.378l-.433-.271v-4.061l.433.271v4.061zm1.19.649l-.487-.271v-4.007l.487.271v4.007zm-.703-.379l-.217-.108v-4.062l.217.109v4.061zm1.352.759l-.433-.271v-4.007l.433.271v4.007zm.325.216l-.109-.108v-4.007l.109.054v4.061zm2.65 1.516l-.162-.109v-4.007l.162.055v4.061zm-1.244-.704l-.379-.217v-4.061l.379.217v4.061zm-.649-.379l-.433-.27v-4.061l.433.27v4.061zm1.514.866l-.541-.325v-4.061l.541.325v4.061zm.974.542l-.379-.217v-4.007l.379.217v4.007zm.757.433l-.487-.217v-4.061l.487.271v4.007zm.649 1.246l-.325-.217v-4.873l.325.216v4.874z" fill="#A16D00"/><path d="M140.56 124.388v14.566l14.063-8.122v-14.728l-14.063 8.284z" fill="#FB0"/><path opacity=".3" d="M142.129 125.254l10.926-6.39v11.047l-10.926 6.335v-10.992z" fill="#C48500"/><path opacity=".5" d="M152.568 119.135v10.505l-10.439 6.064v.542l10.926-6.335v-11.047l-.487.271z" fill="#C48500"/><path d="M140.56 124.388v14.566l-13.306-7.689v-14.729l13.306 7.852z" fill="#FC0"/><path opacity=".3" d="M128.822 130.344v-11.046l10.169 5.956v10.992l-10.169-5.902z" fill="#C48500"/><path opacity=".3" d="M129.201 130.128v-10.559l-.379-.271v11.046l10.169 5.902v-.433l-9.79-5.685z" fill="#C48500"/><path d="M127.254 116.536l13.306 7.852 14.063-8.285-13.36-7.797-14.009 8.23z" fill="#FFDE17"/><path d="M127.254 116.537l13.306 7.851 14.063-8.284-14.117 7.743-13.252-7.31z" fill="#FFEA9C"/><path d="M130.337 116.536l10.926-6.39 10.223 5.957-10.926 6.444-10.223-6.011z" fill="#FC0"/><path opacity=".3" d="M141.263 110.634l9.79 5.74.433-.271-10.223-5.957-10.926 6.39.433.271 10.493-6.173z" fill="#C48500"/><path d="M147.754 124.658l-1.082 3.466.704-.433v4.115l.757-.433v-4.116l.757-.433-1.136-2.166zm3.841.596l-1.136-2.166-1.082 3.465.703-.433v4.116l.757-.434v-4.115l.758-.433zm-21.15 4.224l-.432-.271v-4.819l.432.27v4.82zm.758-.379l-.433-.271v-4.007l.433.271v4.007zm1.19.704l-.433-.271v-4.061l.433.27v4.062zm-.703-.433l-.217-.109V125.2l.217.163v4.007zm1.352.812l-.433-.271v-4.061l.433.27v4.062zm.324.162l-.108-.054v-4.061l.108.108v4.007zm2.651 1.516l-.163-.054v-4.061l.163.108v4.007zm-1.244-.704l-.325-.216v-4.007l.325.216v4.007zm-.649-.379l-.433-.271v-4.007l.433.271v4.007zm1.514.866l-.541-.324v-4.007l.541.324v4.007zm.974.597l-.379-.217v-4.061l.379.217v4.061zm.757.433l-.433-.271v-4.061l.433.271v4.061zm.649 1.19l-.325-.216v-4.874l.325.217v4.873z" fill="#A16D00"/><path d="M157.382 134.351v14.566l14.064-8.176v-14.675l-14.064 8.285z" fill="#FB0"/><path opacity=".3" d="M158.951 135.217l10.926-6.39v11.046l-10.926 6.282v-10.938z" fill="#C48500"/><path opacity=".5" d="M169.391 129.098v10.505l-10.44 6.064v.488l10.926-6.282v-11.046l-.486.271z" fill="#C48500"/><path d="M157.382 134.351v14.566l-13.306-7.69v-14.728l13.306 7.852z" fill="#FC0"/><path opacity=".3" d="M145.645 140.307v-11.046l10.169 5.956v10.992l-10.169-5.902z" fill="#C48500"/><path opacity=".3" d="M146.024 140.09v-10.613l-.379-.216v11.046l10.169 5.902v-.487l-9.79-5.632z" fill="#C48500"/><path d="M144.076 126.499l13.306 7.852 14.064-8.285-13.361-7.797-14.009 8.23z" fill="#FFDE17"/><path d="M144.076 126.5l13.306 7.851 14.064-8.285-14.118 7.744-13.252-7.31z" fill="#FFEA9C"/><path d="M147.159 126.499l10.926-6.39 10.223 5.957-10.926 6.443-10.223-6.01z" fill="#FC0"/><path opacity=".3" d="M158.085 120.597l9.791 5.739.432-.27-10.223-5.957-10.926 6.39.433.271 10.493-6.173z" fill="#C48500"/><path d="M164.576 134.621l-1.081 3.466.703-.434v4.116l.757-.433v-4.116l.757-.433-1.136-2.166zm3.841.596l-1.136-2.166-1.082 3.465.703-.433v4.115l.758-.433v-4.115l.757-.433zm-21.149 4.224l-.433-.271v-4.873l.433.271v4.873zm.757-.379l-.433-.271v-4.007l.433.217v4.061zm1.19.649l-.433-.216v-4.061l.433.27v4.007zm-.703-.378l-.217-.109v-4.061l.217.108v4.062zm1.352.812l-.433-.27v-4.062l.433.271v4.061zm.325.163l-.108-.109v-4.007l.108.109v4.007zm2.65 1.515l-.162-.108v-4.007l.162.054v4.061zm-1.244-.703l-.324-.217v-4.007l.324.163v4.061zm-.649-.379l-.433-.271v-4.007l.433.271v4.007zm1.514.866l-.541-.325v-4.007l.541.325v4.007zm.974.541l-.379-.162v-4.061l.379.216v4.007zm.757.488l-.486-.271v-4.061l.486.27v4.062zm.649 1.191l-.324-.216v-4.874l.324.217v4.873z" fill="#A16D00"/><path d="M156.517 130.669v1.896L88.634 92.82v-1.95l67.883 39.799z" fill="#B5B5B5"/><path d="M156.517 130.669v1.895l18.607-10.992v-1.895l-18.607 10.992z" fill="#D8D8D8"/><path d="M175.124 119.677l-18.607 10.992-67.883-39.8 18.661-10.937 67.829 39.745z" fill="#fff"/><path d="M140.56 103.866v14.566l14.063-8.123V95.581l-14.063 8.285z" fill="#FB0"/><path opacity=".3" d="M142.129 104.785l10.926-6.443v11.046l-10.926 6.336v-10.939z" fill="#C48500"/><path opacity=".5" d="M152.568 98.612v10.505l-10.439 6.065v.542l10.926-6.336V98.342l-.487.27z" fill="#C48500"/><path d="M140.56 103.865v14.566l-13.306-7.689V96.014l13.306 7.851z" fill="#FC0"/><path opacity=".3" d="M128.822 109.822V98.775l10.169 6.011v10.938l-10.169-5.902z" fill="#C48500"/><path opacity=".3" d="M129.201 109.605V99.046l-.379-.27v11.046l10.169 5.902v-.433l-9.79-5.686z" fill="#C48500"/><path d="M127.254 96.014l13.306 7.851 14.063-8.284-13.36-7.798-14.009 8.23z" fill="#FFDE17"/><path d="M127.254 96.014l13.306 7.852 14.063-8.285-14.117 7.743-13.252-7.31z" fill="#FFEA9C"/><path d="M130.337 96.014l10.926-6.39 10.223 5.956-10.926 6.444-10.223-6.01z" fill="#FC0"/><path opacity=".3" d="M141.263 90.165l9.79 5.686.433-.27-10.223-5.957-10.926 6.39.433.27 10.493-6.119z" fill="#C48500"/><path d="M147.754 104.136l-1.082 3.465.704-.433v4.115l.757-.433v-4.115l.757-.433-1.136-2.166zm3.841.595l-1.136-2.166-1.082 3.466.703-.433v4.115l.757-.433v-4.115l.758-.434zm-21.15 4.224l-.432-.271v-4.819l.432.271v4.819zm.758-.378l-.433-.271v-4.007l.433.271v4.007zm1.19.703l-.433-.271v-4.061l.433.271v4.061zm-.703-.433l-.217-.108v-4.061l.217.162v4.007zm1.352.812l-.433-.271v-4.061l.433.271v4.061zm.324.162l-.108-.054v-4.061l.108.108v4.007zm2.651 1.517l-.163-.054v-4.061l.163.108v4.007zm-1.244-.704l-.325-.217v-4.007l.325.217v4.007zm-.649-.379l-.433-.27v-4.007l.433.27v4.007zm1.514.866l-.541-.325v-4.007l.541.325v4.007zm.974.596l-.379-.216v-4.062l.379.217v4.061zm.757.433l-.433-.27v-4.062l.433.271v4.061zm.649 1.191l-.325-.216v-4.819l.325.162v4.873z" fill="#A16D00"/><path d="M157.382 113.829v14.566l14.063-8.123v-14.728l-14.063 8.285z" fill="#FB0"/><path opacity=".3" d="M158.951 114.694l10.926-6.389v11.046l-10.926 6.335v-10.992z" fill="#C48500"/><path opacity=".5" d="M169.39 108.575v10.505l-10.439 6.065v.541l10.926-6.335v-11.046l-.487.27z" fill="#C48500"/><path d="M157.382 113.828v14.566l-13.306-7.689v-14.728l13.306 7.851z" fill="#FC0"/><path opacity=".3" d="M145.645 119.785v-11.047l10.168 5.957v10.992l-10.168-5.902z" fill="#C48500"/><path opacity=".3" d="M146.023 119.568v-10.613l-.378-.217v11.047l10.168 5.902v-.433l-9.79-5.686z" fill="#C48500"/><path d="M144.076 105.977l13.306 7.851 14.063-8.285-13.36-7.797-14.009 8.231z" fill="#FFDE17"/><path d="M144.076 105.977l13.306 7.852 14.063-8.285-14.117 7.743-13.252-7.31z" fill="#FFEA9C"/><path d="M147.159 105.976l10.926-6.39 10.223 5.957-10.926 6.444-10.223-6.011z" fill="#FC0"/><path opacity=".3" d="M158.085 100.074l9.79 5.74.433-.271-10.223-5.956-10.926 6.389.432.271 10.494-6.173z" fill="#C48500"/><path d="M164.576 114.099l-1.082 3.465.703-.433v4.115l.758-.433v-4.115l.757-.433-1.136-2.166zm3.84.595l-1.135-2.166-1.082 3.466.703-.433v4.115l.757-.433v-4.116l.757-.433zm-21.149 4.224l-.433-.271v-4.819l.433.217v4.873zm.758-.379l-.433-.27v-4.007l.433.27v4.007zm1.189.704l-.432-.271v-4.061l.432.271v4.061zm-.703-.433l-.216-.108v-4.061l.216.162v4.007zm1.352.812l-.432-.271v-4.061l.432.271v4.061zm.325.162l-.108-.054v-4.061l.108.108v4.007zm2.651 1.517l-.163-.108v-4.007l.163.108v4.007zm-1.244-.704l-.325-.217v-4.007l.325.217v4.007zm-.65-.379l-.432-.271v-4.007l.432.271v4.007zm1.515.866l-.541-.325v-4.007l.541.325v4.007zm.973.596l-.378-.217v-4.061l.378.217v4.061zm.758.433l-.487-.271v-4.061l.487.271v4.061zm.649 1.191l-.325-.217v-4.873l.325.216v4.874z" fill="#A16D00"/><path d="M156.517 110.146v1.896L88.634 72.297V70.4l67.883 39.745z" fill="#B5B5B5"/><path d="M156.517 110.146v1.895l18.607-10.992v-1.841l-18.607 10.938z" fill="#D8D8D8"/><path d="M175.124 99.208l-18.607 10.938-67.883-39.745 18.661-10.992 67.829 39.8z" fill="#fff"/><path d="M140.56 83.343V97.91l14.063-8.122V75.059l-14.063 8.284z" fill="#FB0"/><path opacity=".3" d="M142.129 84.263l10.926-6.444v11.047L142.129 95.2V84.263z" fill="#C48500"/><path opacity=".5" d="M152.568 78.09v10.505l-10.439 6.065v.541l10.926-6.335V77.819l-.487.271z" fill="#C48500"/><path d="M140.56 83.343v14.566l-13.306-7.69V75.492l13.306 7.852z" fill="#FC0"/><path opacity=".3" d="M128.822 89.3V78.252l10.169 6.01V95.2l-10.169-5.9z" fill="#C48500"/><path opacity=".3" d="M129.201 89.083v-10.56l-.379-.27v11.046l10.169 5.902v-.433l-9.79-5.685z" fill="#C48500"/><path d="M127.254 75.491l13.306 7.852 14.063-8.285-13.36-7.797-14.009 8.23z" fill="#FFDE17"/><path d="M127.254 75.492l13.306 7.851 14.063-8.284-14.117 7.743-13.252-7.31z" fill="#FFEA9C"/><path d="M130.337 75.491l10.926-6.39 10.223 5.957-10.926 6.444-10.223-6.01z" fill="#FC0"/><path opacity=".3" d="M141.263 69.643l9.79 5.686.433-.271-10.223-5.956-10.926 6.39.433.27 10.493-6.119z" fill="#C48500"/><path d="M147.754 83.613l-1.082 3.466.704-.433v4.115l.757-.433v-4.116l.757-.433-1.136-2.166zm3.841.596l-1.136-2.166-1.082 3.465.703-.433v4.116l.757-.434v-4.115l.758-.433zm-21.15 4.224l-.432-.217v-4.873l.432.27v4.82zm.758-.379l-.433-.216v-4.062l.433.271v4.007zm1.19.704l-.433-.271v-4.061l.433.27v4.062zm-.703-.434l-.217-.108v-4.007l.217.108v4.007zm1.352.813l-.433-.271v-4.061l.433.27v4.062zm.324.216l-.108-.108v-4.061l.108.108v4.061zm2.651 1.463l-.163-.055v-4.06l.163.108v4.007zm-1.244-.705l-.325-.162v-4.061l.325.216v4.007zm-.649-.378l-.433-.217v-4.06l.433.27v4.007zm1.514.92l-.541-.325v-4.061l.541.325v4.06zm.974.542l-.379-.217v-4.061l.379.217v4.06zm.757.432l-.433-.27V87.35l.433.216v4.061zm.649 1.192l-.325-.217v-4.819l.325.163v4.873z" fill="#A16D00"/><path d="M156.625 102.349v75.375l2.812-1.624v-75.375l-2.812 1.624z" fill="#D8D8D8"/><path d="M156.625 102.349v75.375l-2.813-1.624v-75.375l2.813 1.624z" fill="#B5B5B5"/><path d="M156.625 100.724l-1.407-.812-1.406.812 2.813 1.625 2.812-1.625-1.406-.812-1.406.812z" fill="#fff"/><path d="M89.932 59.843v75.375l-1.407.812V60.655l1.407-.812z" fill="#D8D8D8"/><path d="M88.742 62.387v75.375l-2.867-1.624V60.763l2.867 1.624z" fill="#B5B5B5"/><path d="M88.525 60.655l1.569.974-1.406.759-2.813-1.625 2.813-1.624 1.244.704-1.407.812z" fill="#fff"/><path d="M90.094 61.63v75.321l-1.406.812V62.388l1.406-.758z" fill="#D8D8D8"/><path d="M174.042 88.65v75.374l1.352.813V89.462l-1.352-.813z" fill="#B5B5B5"/><path d="M175.231 91.249v75.374l2.813-1.678V89.624l-2.813 1.625z" fill="#D8D8D8"/><path d="M175.394 89.516l-1.515.92 1.353.812 2.812-1.624-2.812-1.679-1.19.704 1.352.867z" fill="#fff"/><path d="M173.879 90.436v75.375l1.353.813V91.249l-1.353-.813z" fill="#B5B5B5"/><path d="M270.701 86.7s-1.136 1.19-1.298 1.353c-.163.163-1.731.92-1.839.92-.109 0-1.407.272-1.515.434-.108.163-.649 1.191-.595 1.57.054.38.595 1.246.974 1.408.378.163 2.38-.758 2.866-1.083l1.623-1.083s1.569-.216 2.218-.379c.649-.162.757-.595.757-.974 0-.38.162-1.95 0-2.22-.162-.217-3.191.054-3.191.054z" fill="#6B2912"/><path d="M271.782 74.57s-.811-.27-.865 1.084c0 1.354-.216 9.26-.325 9.855-.108.596-.378 1.408-.162 1.841.162.379 2.759 1.137 3.354-.325.541-1.462 1.352-4.603 1.568-6.227.217-1.57.109-5.469.109-5.469l-3.679-.758z" fill="#323232"/><path d="M276.056 88.27s-.812 1.733-.866 2.004c-.054.27-1.947 2.816-2.271 3.087-.325.27-.704 1.462-.595 1.678.054.217 1.73.542 2.109.542s1.569.162 1.893-.271c.325-.38 1.028-1.137 1.19-1.787.162-.65.703-1.95.866-2.058.162-.108.649-.866.703-1.137.054-.325 0-1.95 0-1.95l-3.029-.108z" fill="#6B2912"/><path d="M269.835 58.055s-1.46 1.57-.649 7.419c.812 5.848 1.407 9.584 1.893 10.342.487.758 2.705.92 4.003 0s1.839-8.393 1.839-9.963c0-1.57.054-6.985-1.244-8.014-1.244-1.029-5.842.216-5.842.216z" fill="#404040"/><path d="M272.486 59.95s.811 3.628 1.352 4.549c.541.92 1.785 1.678 1.785 1.678s-.541 6.282-.595 8.664c-.054 2.383.054 3.52 1.623 3.737 1.568.216 3.407-.163 4.273-1.354.865-1.192 2.596-8.556 3.029-10.234.487-1.733 1.082-4.116.487-6.985-.595-2.87-5.626-2.979-5.626-2.979l-6.328 2.924z" fill="#4D4D4D"/><path d="M280.599 84.046s-1.19 3.845-1.406 4.495c-.216.704-.595.974-.595.974s-1.947.596-2.813-1.083c.163-2.382-.27-8.393-.595-11.37 2.813-3.304 6.004-.326 6.004-.326s-.162 4.17-.216 4.982c-.054.812-.379 2.328-.379 2.328z" fill="#4D4D4D"/><path d="M283.953 60.762c-2.596 2.166-6.437 1.841-9.52 1.137-1.46-.325-3.137-.703-4.327-1.624-1.352-1.029-1.028-2.437-.974-3.899.108-1.895.163-3.844 0-5.74-.054-.703-.27-1.083-.541-1.732-.216-.542-.432-1.192-.595-2.329-.216-1.678-.108-3.357.217-5.09.162-.866.324-1.786.541-2.653.595-2.599 2.271-4.494 7.41-3.086 5.138 1.407 7.464 5.09 7.464 5.09l-1.298 3.898s.433 7.04.433 7.202c0 .217.703 2.653.865 3.845.271 1.57 2.002 3.573.325 4.981z" fill="#589FED"/><path d="M234.406 96.23l1.028.65v-.92l-1.028-.65v.92zm1.028.65l19.364-11.372v-.92l-19.364 11.371v.92z" fill="#5F5F5F"/><path d="M234.406 95.31l1.028.649 19.364-11.371-1.028-.596-19.364 11.317z" fill="#D9D9D9"/><path d="M236.083 95.526l.865-.488V61.9l-.865.488v33.139z" fill="#939394"/><path d="M235.164 94.984l.919.542v-33.14l-.919-.487v33.085z" fill="#5F5F5F"/><path d="M253.446 85.346l.865-.487v-33.14l-.865.488v33.139z" fill="#8D919C"/><path d="M252.526 84.75l.92.596V52.207l-.92-.487v33.03zm13.307 29.674l1.027.596v-.92l-1.027-.596v.92z" fill="#5F5F5F"/><path d="M266.86 115.02l19.31-11.317v-.921l-19.31 11.317v.921z" fill="#939394"/><path d="M265.833 113.504l1.027.595 19.31-11.317-1.027-.595-19.31 11.317z" fill="#D9D9D9"/><path d="M267.509 113.666l.866-.487V80.094l-.866.487v33.085z" fill="#939394"/><path d="M266.59 113.124l.919.542V80.581l-.919-.487v33.03z" fill="#5F5F5F"/><path d="M284.872 103.486l.865-.488V69.859l-.865.542v33.085z" fill="#939394"/><path d="M283.953 102.944l.919.542V70.401l-.919-.542v33.085z" fill="#5F5F5F"/><path d="M233.433 66.448l33.914 19.602v-4.115l-33.914-19.602v4.115z" fill="#78301D"/><path d="M233.433 62.333l33.914 19.602 21.095-12.292-33.914-19.602-21.095 12.292z" fill="#EA9854"/><path d="M233.433 62.333l33.914 18.681 19.797-11.317-32.616-19.656-21.095 12.292z" fill="#fff"/><path d="M278.976 64.878l-10.655 6.281-10.656-6.173-6.599-3.79 1.569-.92.54.27.704 1.679v.054h.054l5.409-3.14.703-2.6-.433-.27 2.164-1.3 17.2 9.909z" fill="#FFEA9C"/><path d="M253.176 60.546l.703 1.678-1.785-1.028 1.082-.65z" fill="#4A7D1F"/><path d="M278.003 64.877l-2.921 8.069-6.761-2.383-10.169-5.848-4.219-2.437 5.409-3.14.703-2.6 1.731-1.028 16.227 9.367z" fill="#A16D00"/><path d="M253.176 60.546l.703 1.733-1.785-1.083 1.082-.65z" fill="#6AAD1F"/><path d="M261.776 55.51v7.093l-3.624 2.112-4.219-2.437 5.409-3.14.703-2.6 1.731-1.028z" fill="#FB0"/><path d="M267.347 86.05l21.095-12.346V69.59l-21.095 12.346v4.115z" fill="#B04833"/><path d="M272.648 38.182s-.649 2.437.757 3.358c1.407.92 3.787.541 5.139-.92 1.298-1.463.974-2.762-.379-3.52-1.352-.759-3.461-2.112-3.894-1.95-.433.163-1.623 3.032-1.623 3.032z" fill="#F6B486"/><path d="M273.351 37.804s.271 2.22.811 2.761c.541.542 1.028.596 1.894.217.865-.38 1.19-1.029 1.406-1.841.216-.812-.866-2.816-.866-2.816s-1.73-2.545-1.947-2.545c-.108.108-1.298 4.224-1.298 4.224z" fill="#F6B486"/><path d="M272.486 66.448s-1.19 1.03-1.839 1.408a41.37 41.37 0 00-2.218 1.625c-.324.27-1.028.866-1.406.812-.379-.054-3.949-1.408-5.788-2.545-1.785-1.191-3.678-2.762-4.057-3.411-.324-.542-.432-.759-.162-.92.054-.055.162-.11.325-.163.703-.271 3.353-1.896 3.515-1.95.163 0 1.461-.433 1.677-.433.217 0 2.218.108 2.759.27.541.163 2.488 1.084 2.65 1.517.163.433.595.812 1.244 1.3.541.487 3.246 1.787 3.354 2.274 0 .162 0 .216-.054.216z" fill="#447056"/><path d="M259.287 64.229s-.486.974 2.489 2.707c2.975 1.733 4.705 2.328 5.246 2.545.541.217.649.217 1.136-.108.487-.325 2.11-1.517 2.272-1.625.162-.108.541-.65.379-.812-.163-.108-10.981-2.87-11.522-2.707z" fill="#0BCA8E"/><path d="M269.943 67.856s.054.27-.811.162c-.865-.162-4.544-.812-5.734-1.083-1.189-.27-3.624-1.083-4.056-1.3-.433-.162-.812-1.299-.812-1.299s-1.081-.812-1.406-.866c.054-.054.162-.108.325-.163.703-.27 3.353-1.895 3.515-1.949.163 0 1.461-.433 1.677-.433.217 0 2.218.108 2.759.27.541.163 2.488 1.084 2.65 1.517.162.433.595.812 1.244 1.3.541.487 3.246 1.786 3.354 2.273-1.082.759-2.705 1.57-2.705 1.57z" fill="#518265"/><path d="M272.756 64.066s-1.298.92-1.514 1.353c-.217.38-.487 1.354-.541 1.517a34.68 34.68 0 01-1.19 1.461c-.054.109 0 .325 0 .325s.433.055.649 0a3.48 3.48 0 00.487-.325s.541.055.811.055c.271 0 1.244.162 1.515.054.27-.109.757-1.679 1.19-2.22.432-.542 1.622-2.275 2.271-2.762.649-.487 4.328-5.144 4.814-6.444.487-1.353 1.948-4.494 2.164-6.66.216-2.22-.865-3.195-1.515-2.87-.649.325-2.163 1.354-2.488 2.329-.378.974-1.19 4.115-1.298 4.71-.162.596-.162 1.354-.162 1.354s-2.272 4.332-3.732 6.336c-1.19 1.516-1.461 1.787-1.461 1.787z" fill="#FFDEC7"/><path d="M272.377 64.553s-.649.108-1.352.325c-.703.162-1.028.595-1.19.704-.162.108-.811.704-.865.704-.055 0-.704.108-.866.216-.108.108-.216.487-.054.542.162.054.974-.109.974-.109l1.244-.704.324.109s.487.216 1.136-.271c.703-.433 1.406-1.462.649-1.516z" fill="#FFDEC7"/><path d="M283.574 40.782s-2.38-.433-3.137 2.22c-.541 1.841-1.677 7.202-1.677 7.202s2.164.92 3.895.866c1.785-.054 2.326-.433 2.326-.433s-.487-6.768-.487-7.635c0-.866.27-1.516-.92-2.22z" fill="#3D7DC0"/><path d="M239.978 61.413l6.166 3.627a3.232 3.232 0 003.137 0l9.412-5.469c.757-.433.757-1.57 0-2.003l-6.058-3.628a3.1 3.1 0 00-3.138-.054l-9.519 5.523c-.758.433-.758 1.57 0 2.004z" fill="#447056"/><path d="M239.977 60.6l6.167 3.629a3.232 3.232 0 003.137 0l9.412-5.47c.27-.162.432-.378.486-.595.163.487 0 1.137-.486 1.408l-9.412 5.469a3.232 3.232 0 01-3.137 0l-6.167-3.628c-.54-.325-.703-.92-.486-1.408.054.217.216.433.486.596z" fill="#518265"/><path d="M239.978 60.114l6.166 3.628a3.232 3.232 0 003.137 0l9.412-5.47c.757-.432.757-1.57 0-2.003l-6.058-3.628a3.101 3.101 0 00-3.138-.054l-9.519 5.523c-.758.433-.758 1.57 0 2.004z" fill="#A16D00"/><path d="M239.977 59.3l6.167 3.629a3.232 3.232 0 003.137 0l9.412-5.47c.27-.162.432-.378.486-.595.163.488 0 1.137-.486 1.408l-9.412 5.47a3.232 3.232 0 01-3.137 0l-6.167-3.629c-.54-.325-.703-.92-.486-1.408.054.217.216.434.486.596z" fill="#FC0"/><path d="M239.978 58.814l6.166 3.628a3.232 3.232 0 003.137 0l9.412-5.47c.757-.432.757-1.57 0-2.003l-6.058-3.628a3.101 3.101 0 00-3.138-.054l-9.519 5.523c-.758.434-.758 1.57 0 2.004z" fill="#ABCA1E"/><path d="M239.977 58.002l6.167 3.628a3.232 3.232 0 003.137 0l9.412-5.469c.27-.162.432-.379.486-.596.163.488 0 1.138-.486 1.408l-9.412 5.47a3.232 3.232 0 01-3.137 0l-6.167-3.629c-.54-.325-.703-.92-.486-1.407.054.216.216.433.486.595z" fill="#0BCA8E"/><path d="M239.978 57.73l6.166 3.629a3.234 3.234 0 003.138 0l9.411-5.47c.758-.432.758-1.57 0-2.003l-6.058-3.628a3.1 3.1 0 00-3.137-.054l-9.52 5.523c-.757.434-.757 1.57 0 2.004z" fill="#FC0"/><path d="M239.977 56.92l6.167 3.627a3.232 3.232 0 003.137 0l9.412-5.469c.27-.162.432-.379.486-.596.163.488 0 1.138-.486 1.408l-9.412 5.47a3.232 3.232 0 01-3.137 0l-6.167-3.629c-.54-.325-.703-.92-.486-1.407.054.216.216.433.486.595z" fill="#FB0"/><path d="M247.226 55.457l-.163-.975s-2.109.65-4.056.596c-1.623-.054-2.326-.217-2.326-.217l-.703.759c.054-.055 3.786 1.19 7.248-.163zm.378-1.407l1.298.216s.811-.92.541-2.112c-.108-.38-.487-1.246-.595-1.408l-1.244.108s1.677 1.787 0 3.195z" fill="#FB0"/><path d="M268.591 48.904c-.162.758-.324 1.408-.379 1.57-.162.326-2.325 4.495-2.975 5.686-.703 1.191-2.001 3.79-2.001 4.061 0 .271-.27.975-.27.975l-.433-.054s-.27.216-.433.325c-.216.108-.811.595-1.298.595s-.649-.325-.649-.325-.811.542-.919.596c-.109.054-.866.38-.92.38 0-.055.162-.38.216-.488.054-.108 1.19-1.462 1.407-1.787.216-.325 1.081-.542 1.244-.867.216-.324 2.812-10.071 3.353-10.883.487-.867.92-1.57 1.244-3.087.325-1.516 1.461-4.332 1.461-4.332.378-.054.703 0 .973.109-.27 1.732-.432 3.411-.216 5.09.162 1.245.379 1.895.595 2.436z" fill="#F6B486"/><path d="M268.158 41.486c.163-.867.325-1.787.541-2.653.163-.813.433-1.517.866-2.112-.325.054-.758.216-.974.433-.379.379-1.46 2.599-1.731 3.303-.27.704-.811 1.624-.811 1.679 0 .054.433.65.324.703-.054.109-.378.65-.216 1.192.108.541 1.082 1.3 1.569 1.678.054.054.108.054.162.109-.108-1.462.054-2.87.27-4.332z" fill="#3D7DC0"/><path d="M269.024 31.36s-.974.974-.92 2.978c.054 2.004 1.569 4.657 1.569 4.657s.054.974.324 1.083c.217.108.649-.217.649-.217s.92 1.191 1.731 1.083c.812-.108 2.11-1.083 2.759-1.787.649-.65 1.19-2.328 1.298-2.87.162-.595.649-4.386-2.38-4.927-3.029-.542-5.03 0-5.03 0z" fill="#FCD1B3"/><path d="M274.217 28.815s-3.354-.758-4.49.596c-1.136 1.353-1.947 2.761-2.055 3.898-.108 1.138.27 2.166.27 2.166l.108.217s-.324-1.191.595-.812c.92.379 2.867.487 3.516.216a7.57 7.57 0 011.244-.487s.974 1.029 1.136 1.408c.162.325.757.487.541 1.354-.216.866-.162 1.083-.162 1.083s.487-1.354.595-1.787c.054-.488-.054-.488.216-1.138.325-.595.812.488.812.488s.865-.433.811-2.6c-.054-2.22-.974-4.06-3.137-4.602z" fill="#603913"/><path d="M276.218 34.771s.162 1.679.162 2.22c0 .542.271 1.03.271 1.03l.595.216.486-.596s.812.054 1.028-.054c.216-.108.541-.433.541-.433s-.811-1.191-1.136-1.787c-.324-.596-.703-2.49-.919-3.195-.217-.758-3.246-1.516-1.028 2.6z" fill="#6A3120"/><path d="M261.83 60.113s-.649.108-1.028.65c-.378.54-.973 1.786-.973 1.949 0 .162.486.433.757.27.27-.162.649-.92.649-.92s.703-.433.974-.704c.27-.27.378-.325.378-.433.054-.162.271-1.029-.757-.812z" fill="#FFDEC7"/><path d="M251.066 68.29l17.255 9.909v-7.04l-17.255-9.963v7.094z" fill="#FC0"/><path d="M256.205 69.101l6.977 4.061v-2.87l-6.977-4.06v2.87z" fill="#EACCFF"/><path d="M278.977 64.878v7.093l-10.656 6.227V71.16l2.055-1.245.703 1.733 5.463-3.141.704-2.6 1.731-1.028z" fill="#FB0"/><path d="M269.997 69.59l.379.324-2.055 1.246-17.255-9.964h1.028l16.227 9.368 1.676-.975zm8.98-4.712l-1.731 1.029-.433-.271 1.19-.758h.974z" fill="#FFEA9C"/><path d="M276.813 65.636l-.649 2.545-5.247 2.978.162.487 5.463-3.14.704-2.6-.433-.27zm-17.201-9.367l-.703 2.544-5.409 3.195.541.271 5.247-3.032.757-2.708-.433-.27z" fill="#FFEA9C"/></svg>