<svg width="20" height="21" fill="none" xmlns="http://www.w3.org/2000/svg"><g clip-path="url(#clip0)" fill="#0D805C"><path d="M16.945 4.24L13.18.679A2.14 2.14 0 0011.702.09h-7.17a2.15 2.15 0 00-2.15 2.148v15.703a2.15 2.15 0 002.15 2.149h10.937a2.15 2.15 0 002.148-2.149V5.801c0-.587-.245-1.156-.672-1.56zm-1.138.537h-2.916a.196.196 0 01-.196-.195V1.833l3.112 2.944zm-.338 14.141H4.53a.978.978 0 01-.976-.977V2.238c0-.538.438-.976.976-.976h6.992v3.32a1.37 1.37 0 001.368 1.367h3.554v11.992a.978.978 0 01-.976.977z"/><path d="M14.18 7.902H5.586a.586.586 0 000 1.172h8.594a.586.586 0 000-1.172zm0 3.125H5.586a.586.586 0 000 1.172h8.594a.586.586 0 100-1.172zm-5.753 3.125H5.586a.586.586 0 000 1.172h2.84a.586.586 0 100-1.172z"/></g><defs><clipPath id="clip0"><path fill="#fff" transform="translate(0 .09)" d="M0 0h20v20H0z"/></clipPath></defs></svg>