<svg width="264" height="15" fill="none" xmlns="http://www.w3.org/2000/svg"><path fill-rule="evenodd" clip-rule="evenodd" d="M47.432 3.221H31.335a1.15 1.15 0 00-1.15 1.15v6.899c0 .635.516 1.15 1.15 1.15h16.097a1.15 1.15 0 001.15-1.15v-6.9a1.15 1.15 0 00-1.15-1.15zM31.335.921a3.45 3.45 0 00-3.449 3.45v6.899a3.45 3.45 0 003.45 3.449h16.096a3.45 3.45 0 003.45-3.45V4.372a3.45 3.45 0 00-3.45-3.45H31.335zm173.736 2.301h-16.097a1.15 1.15 0 00-1.15 1.15v6.898c0 .635.515 1.15 1.15 1.15h16.097a1.15 1.15 0 001.15-1.15V4.372a1.15 1.15 0 00-1.15-1.15zm-16.097-2.3a3.449 3.449 0 00-3.449 3.45v6.898a3.449 3.449 0 003.449 3.45h16.097a3.449 3.449 0 003.449-3.45V4.372a3.449 3.449 0 00-3.449-3.45h-16.097zM2.592 3.221h17.246c.635 0 1.15.515 1.15 1.15v6.899a1.15 1.15 0 01-1.15 1.15H4.89v2.299h14.947a3.45 3.45 0 003.45-3.45V4.372a3.45 3.45 0 00-3.45-3.45H.292V14.72h2.3V3.221z" fill="#343228"/><path d="M55.48 6.67h22.996v2.3H55.48v-2.3z" fill="#343228"/><path fill-rule="evenodd" clip-rule="evenodd" d="M76.176 3.221H58.93a1.15 1.15 0 00-1.15 1.15v6.899c0 .635.515 1.15 1.15 1.15h17.246v-.002h2.3v2.302H58.93a3.45 3.45 0 01-3.45-3.45V4.372a3.45 3.45 0 013.45-3.45h19.546v2.301h-2.3zm2.3 5.75v-2.3h-2.3v2.3h2.3zm24.145-5.75H85.374v9.198h.003v2.3h-2.303V.921h19.547a3.449 3.449 0 013.449 3.45v.464h-2.3v-.464a1.15 1.15 0 00-1.149-1.15zm1.149 3.914v.004h2.3v5.28-5.284h-2.3z" fill="#343228"/><path fill-rule="evenodd" clip-rule="evenodd" d="M103.77 4.245v1.276a1.15 1.15 0 01-1.149 1.15H87.673v2.3h14.948a3.449 3.449 0 003.449-3.45V4.245h-2.3z" fill="#343228"/><path fill-rule="evenodd" clip-rule="evenodd" d="M100.096 8.97l3.319 5.749h2.655l-3.319-5.749h-2.655zm77.381-5.749H160.23v9.198h.003v2.3h-2.302V.921h19.546a3.449 3.449 0 013.449 3.45v.464h-2.3v-.464a1.15 1.15 0 00-1.149-1.15zm1.149 3.914v.004h2.3v5.28-5.284h-2.3z" fill="#343228"/><path fill-rule="evenodd" clip-rule="evenodd" d="M178.626 4.245v1.276a1.15 1.15 0 01-1.149 1.15H162.53v2.3h14.947a3.449 3.449 0 003.449-3.45V4.245h-2.3z" fill="#343228"/><path fill-rule="evenodd" clip-rule="evenodd" d="M174.952 8.97l3.319 5.749h2.655l-3.319-5.749h-2.655zm85.307-5.749h-17.246v9.198h.003v2.3h-2.303V.921h19.546a3.45 3.45 0 013.45 3.45v.464h-2.3v-.464a1.15 1.15 0 00-1.15-1.15zm1.15 3.914v.004h2.3v5.28-5.284h-2.3z" fill="#343228"/><path fill-rule="evenodd" clip-rule="evenodd" d="M261.409 4.245v1.276a1.15 1.15 0 01-1.15 1.15h-14.947v2.3h14.947a3.449 3.449 0 003.449-3.45V4.245h-2.299z" fill="#343228"/><path d="M134.936 6.67h18.396v2.3h-18.396v-2.3z" fill="#343228"/><path fill-rule="evenodd" clip-rule="evenodd" d="M151.032 6.67h2.3V3.22h-18.397v.001h-1.149a1.15 1.15 0 00-1.15 1.15v6.899c0 .635.515 1.15 1.15 1.15h17.246V6.67zm-20.696-2.3a3.45 3.45 0 013.45-3.45h19.546v13.8h-19.546a3.45 3.45 0 01-3.45-3.45V4.372zM215.419.922h-2.3V11.27a3.449 3.449 0 003.449 3.45h16.097a3.449 3.449 0 003.449-3.45V.922h-2.299V11.27a1.15 1.15 0 01-1.15 1.15h-16.097a1.15 1.15 0 01-1.149-1.15V.922z" fill="#343228"/></svg>