<svg width="41" height="41" fill="none" xmlns="http://www.w3.org/2000/svg"><g clip-path="url(#clip0)" fill="#0D805C"><path d="M35.44 5.842h-3.374V2.47c0-1.06-.868-1.928-1.927-1.928H5.56c-1.06 0-1.928.867-1.928 1.928v30.843c0 1.06.868 1.928 1.928 1.928h3.374v3.373c0 1.06.867 1.928 1.927 1.928h16.385c1.06 0 2.56-.595 3.331-1.32l5.385-5.07c.773-.726 1.404-2.188 1.404-3.249l.001-23.132c0-1.06-.867-1.928-1.927-1.928zM8.933 7.77v26.024H5.56a.488.488 0 01-.482-.482V2.47c0-.261.22-.482.482-.482h24.579c.26 0 .482.22.482.482v3.373H10.86c-1.06 0-1.928.868-1.928 1.928zm26.039 25.329l-5.386 5.068c-.11.104-.253.205-.412.302v-4.434c0-.331.133-.629.354-.85.222-.22.52-.355.85-.355H35.2a2.037 2.037 0 01-.228.269zm.948-2.197c0 .143-.026.31-.065.482h-5.476a2.656 2.656 0 00-2.65 2.65v5.003a2.52 2.52 0 01-.483.058H10.861a.488.488 0 01-.482-.482V7.77c0-.261.22-.482.482-.482H35.44c.261 0 .482.22.482.482v23.132z"/><path d="M30.14 12.59H16.162a.722.722 0 100 1.445H30.14a.723.723 0 100-1.446zm0 9.638H16.162a.723.723 0 100 1.446H30.14a.723.723 0 000-1.446zm-6.266 4.819h-7.71a.723.723 0 100 1.446h7.71a.722.722 0 100-1.446zm6.266-9.639H16.162a.723.723 0 100 1.446H30.14a.723.723 0 000-1.446z"/></g><defs><clipPath id="clip0"><path fill="#fff" transform="translate(.5 .541)" d="M0 0h40v40H0z"/></clipPath></defs></svg>