<svg width="95" height="52" fill="none" xmlns="http://www.w3.org/2000/svg"><path d="M7.034 27.976a6.418 6.418 0 100-12.835 6.418 6.418 0 000 12.835z" fill="#0D805C"/><path d="M76.13 14.894v11.053L51.052 40.472V29.464l25.076-14.57z" fill="#D8D8D8"/><path d="M51.053 29.464v11.008L31.047 28.916V17.908l20.006 11.556z" fill="#B5B5B5"/><path d="M76.13 14.894l-25.077 14.57L30.956 17.91 56.078 3.338l20.051 11.556z" fill="#fff"/><path d="M76.769 12.107v2.421L51.053 29.464v-2.42l25.716-14.937z" fill="#D8D8D8"/><path d="M51.053 27.044v2.42L30.316 17.543v-2.42l20.737 11.92z" fill="#B5B5B5"/><path d="M76.769 12.108L51.007 27.044 30.316 15.123 56.123.14l20.646 11.967z" fill="#fff"/><path d="M74.348 12.108l-23.34 13.52-18.226-10.505 23.34-13.52 18.226 10.505z" fill="#518265"/><path d="M56.123 1.603v1.69l16.718 9.683 1.507-.868L56.123 1.603zm-23.341 13.52l23.34-13.52v1.69L34.245 15.945l-1.462-.822z" fill="#447056"/><path d="M56.123 6.033l2.33 1.37v-.914l-2.33-1.37v.914z" fill="#D6E7F3"/><path d="M56.123 5.12v.913L53.017 7.86v-.914l3.106-1.827zm3.882 1.323V7.86l-3.882 2.239V8.68l3.883-2.238z" fill="#E9F3F9"/><path d="M52.24 6.443V7.86l3.883 2.239V8.68l-3.882-2.238z" fill="#D6E7F3"/><path d="M56.123 4.206l-3.882 2.238 3.882 2.238 3.883-2.238-3.883-2.238zm-2.33 2.284l2.33-1.37 2.33 1.37-2.33 1.37-2.33-1.37z" fill="#fff"/><path d="M56.123 6.032l-1.553.914 1.553.913 1.553-.913-1.553-.914zM46.85 36.316L26.617 24.623l3.06-6.03 20.19 11.694-3.015 6.03z" fill="#447056"/><path d="M49.866 30.287l-20.19-11.693 1.143-.685 20.234 11.693-1.187.685z" fill="#0BCA8E"/><path d="M51.053 29.602v4.248l-4.202 2.467 3.014-6.03 1.188-.684z" fill="#447056"/><path d="M29.585 26.359l-1.462-.868 3.015-6.03 1.507.869-3.06 6.029zm3.198 1.827l-1.508-.868 3.015-6.029 1.507.868-3.014 6.03zm3.151 1.827l-1.507-.868 3.014-6.029 1.508.868-3.015 6.03zm3.152 1.827l-1.462-.867 3.015-6.03 1.461.868-3.014 6.03zm3.151 1.828l-1.461-.868 3.014-6.03 1.508.868-3.06 6.03zm3.198 1.827l-1.507-.868 3.014-6.03 1.508.868-3.015 6.03z" fill="#EBF1FD"/><path d="M48.13 27.912l-1.188.685 1.508.868 1.187-.685-1.507-.868zm-3.152-1.826l-1.188.685 1.508.868 1.187-.685-1.507-.868zm-3.152-1.827l-1.187.685 1.461.868 1.188-.685-1.462-.868zm-3.197-1.829l-1.188.686 1.508.868 1.187-.686-1.507-.867zm-3.151-1.825l-1.188.685 1.507.867 1.188-.685-1.507-.867zm-3.152-1.828l-1.188.685 1.507.868 1.188-.685-1.507-.868zm28.867 8.496v4.75l-6.258 3.655v-4.796l6.258-3.609z" fill="#fff"/><path d="M61.193 32.024l-.593-.32v-4.065l.593-.366v4.75z" fill="#385945"/><path d="M60.6 31.704l-5.665 3.289v.685l6.258-3.654-.594-.32z" fill="#0BCA8E"/><path d="M73.709 20.058v4.796l-6.258 3.608-.046-4.75 6.304-3.654z" fill="#fff"/><path d="M73.709 24.853l-.594-.366v-4.065l.594-.365v4.796z" fill="#385945"/><path d="M73.115 24.487l-5.71 3.289.046.685 6.258-3.608-.594-.366z" fill="#0BCA8E"/><path d="M66.446 24.26v4.75l-4.156 2.42v-4.795l4.156-2.375z" fill="#fff"/><path d="M66.446 29.01l-.594-.32v-4.11l.594-.32v4.75z" fill="#385945"/><path d="M65.852 28.69l-3.562 2.056v.685l4.156-2.42-.594-.32z" fill="#0BCA8E"/><path d="M67.542 11.102v2.192l-3.151 1.873v-2.238l3.151-1.827z" fill="#E9F3F9"/><path d="M64.39 12.929v2.238l-3.197-1.873v-2.192l3.198 1.827z" fill="#D6E7F3"/><path d="M67.542 11.102l-3.151 1.828-3.198-1.828 3.152-1.827 3.197 1.827z" fill="#fff"/><path d="M64.664 4.115l-.045 6.897c0 .046-.046.092-.092.137-.091.046-.274.046-.41 0-.046-.045-.092-.091-.092-.137l.046-6.897c0 .046.045.092.09.137.092.046.275.046.412 0 .091-.091.091-.137.091-.137z" fill="#0BCA8E"/><path d="M64.573 3.978c.092.045.092.182 0 .228-.091.046-.274.046-.41 0-.092-.046-.092-.183 0-.228.136-.046.319-.046.41 0z" fill="#35567B"/><path d="M65.715 3.292a1.326 1.326 0 01-2.65 0c0-.091 0-.228.047-.32a1.318 1.318 0 011.279-1.004.58.58 0 01.274.045c.593.137 1.05.64 1.05 1.28z" fill="#385945"/><path d="M65.396 3.11a1.13 1.13 0 01-1.142 1.143 1.13 1.13 0 01-1.142-1.142V3.02a1.318 1.318 0 011.279-1.005c.091 0 .182 0 .274.045.457.137.73.548.73 1.05z" fill="#385945"/><path d="M63.75 3.201a.32.32 0 100-.64.32.32 0 000 .64z" fill="#fff"/><g clip-path="url(#clip0)" fill="#0D805C"><path d="M77.016 46.14c-.1 0-.1-.1-.2-.1s-.1-.1-.2-.1h-.3c-.1 0-.2.1-.3.1l-.5.2-8.4-4.8c-.1-.1-.2-.1-.2-.1-.1 0-.1 0-.2.1l-.8.5c-.1 0-.1.1-.1.1s0 .1.1.1l8.4 4.9-4.9 2.8-8.4-4.9c-.1-.1-.2-.1-.2-.1-.1 0-.1 0-.2.1l-.8.5c-.1 0-.1.1-.1.1s0 .1.1.1l8.7 5c.3.2.6.3.9.2.3 0 .6-.1.8-.2l6.2-3.6 2.1 1.2c.2.1.3.1.4 0l.7-.4.1-.1s0-.1-.1-.1l-2.6-1.5zm3.4-7.199c-.8-.5-1.6-.8-2.4-1-.8-.2-1.5-.4-2.3-.4-.7 0-1.5 0-2.2.2-.7.2-1.4.4-2 .8-.4.2-.8.5-1.2.8-.4.3-.7.7-.9 1.1v.1s.1 0 .2.1l.9.2h.2c.1 0 .1 0 .1-.1.2-.3.4-.5.7-.8.3-.3.6-.5 1-.7.5-.3 1-.5 1.4-.6.5-.1 1-.1 1.5-.1s1 .1 1.5.2 1 .3 1.4.5l-4 2.3c-.1 0-.1.1-.1.1l.1.1.7.4c.1 0 .1.1.2.1s.1 0 .2-.1l4-2.4c.5.3.9.6 1.2.9.3.3.5.6.6.9.1.3 0 .6-.2 1-.2.3-.6.6-1.1 1-.4.2-.8.4-1.3.6-.5.2-.9.3-1.4.4-.1 0-.2.1-.2.1v.1l.3.5c0 .1.1.1.1.1h.2c.3-.1.7-.1 1-.2.3-.1.7-.2 1-.3.3-.1.6-.3.9-.4.3-.1.5-.3.7-.4 1.3-.8 1.9-1.6 1.7-2.5.2-.6-.7-1.6-2.5-2.6zm14.1-2.501l-8.7-5c-.3-.2-.6-.3-.8-.3-.3 0-.6.1-.8.2l-5.8 3.4c-.2.1-.4.3-.4.5s.1.3.4.5l8.7 5c.1.1.2.1.2.1.1 0 .1 0 .2-.1l.8-.5c.1 0 .1-.1.1-.1s0-.1-.1-.1l-8.3-4.9 4.9-2.8 8.3 4.8c.1.1.2.1.2.1.1-.1.2-.1.3-.1l.8-.5c.1 0 .1-.1.1-.1 0-.1 0-.1-.1-.1z"/></g><defs><clipPath id="clip0"><path fill="#fff" transform="translate(59.616 31.14)" d="M0 0h35v19.9H0z"/></clipPath></defs></svg>