<svg width="40" height="40" fill="none" xmlns="http://www.w3.org/2000/svg"><g opacity=".3"><path opacity=".3" d="M19.896 38.64c10.38 0 18.795-8.415 18.795-18.795 0-10.38-8.415-18.795-18.795-18.795-10.38 0-18.795 8.415-18.795 18.795 0 10.38 8.415 18.795 18.795 18.795z" fill="#DC1818"/><path opacity=".3" d="M19.896 38.64c10.38 0 18.795-8.415 18.795-18.795 0-10.38-8.415-18.795-18.795-18.795-10.38 0-18.795 8.415-18.795 18.795 0 10.38 8.415 18.795 18.795 18.795z" stroke="#fff" stroke-miterlimit="10"/></g><path opacity=".5" d="M19.896 31.076c6.203 0 11.231-5.029 11.231-11.232 0-6.202-5.028-11.23-11.23-11.23-6.204 0-11.232 5.028-11.232 11.23 0 6.203 5.028 11.232 11.231 11.232z" fill="#DC1818"/><path d="M19.896 26.262a6.418 6.418 0 100-12.835 6.418 6.418 0 000 12.835z" fill="#DC1818"/></svg>