<svg width="95" height="52" fill="none" xmlns="http://www.w3.org/2000/svg"><path d="M6.717 27.976a6.418 6.418 0 100-12.835 6.418 6.418 0 000 12.835z" fill="#DC1818"/><path d="M75.812 14.894v11.053L50.736 40.472V29.464l25.076-14.57z" fill="#D8D8D8"/><path d="M50.736 29.464v11.008L30.73 28.916V17.908l20.006 11.556z" fill="#B5B5B5"/><path d="M75.812 14.894l-25.076 14.57L30.638 17.91 55.76 3.338l20.052 11.556z" fill="#fff"/><path d="M76.451 12.107v2.421L50.735 29.464v-2.42l25.716-14.937z" fill="#D8D8D8"/><path d="M50.736 27.044v2.42L29.999 17.543v-2.42l20.737 11.92z" fill="#B5B5B5"/><path d="M76.451 12.108L50.69 27.044 29.999 15.123 55.805.14 76.45 12.108z" fill="#fff"/><path d="M74.03 12.108l-23.34 13.52-18.225-10.505 23.34-13.52L74.03 12.108z" fill="#518265"/><path d="M55.806 1.603v1.69l16.717 9.683 1.508-.868L55.806 1.603zm-23.341 13.52l23.34-13.52v1.69L33.926 15.945l-1.461-.822z" fill="#447056"/><path d="M55.806 6.033l2.33 1.37v-.914l-2.33-1.37v.914z" fill="#D6E7F3"/><path d="M55.806 5.12v.913L52.7 7.86v-.914l3.106-1.827zm3.882 1.323V7.86l-3.882 2.239V8.68l3.882-2.238z" fill="#E9F3F9"/><path d="M51.923 6.443V7.86l3.883 2.239V8.68l-3.883-2.238z" fill="#D6E7F3"/><path d="M55.806 4.206l-3.883 2.238 3.883 2.238 3.882-2.238-3.882-2.238zm-2.33 2.284l2.33-1.37 2.33 1.37-2.33 1.37-2.33-1.37z" fill="#fff"/><path d="M55.806 6.032l-1.553.914 1.553.913 1.553-.913-1.553-.914zm-9.273 30.284L26.3 24.623l3.06-6.03 20.19 11.694-3.016 6.03z" fill="#447056"/><path d="M49.548 30.287L29.36 18.594l1.142-.685 20.235 11.693-1.188.685z" fill="#0BCA8E"/><path d="M50.735 29.602v4.248l-4.202 2.467 3.015-6.03 1.187-.684z" fill="#447056"/><path d="M29.268 26.359l-1.462-.868 3.015-6.03 1.507.869-3.06 6.029zm3.197 1.827l-1.507-.868 3.015-6.029 1.507.868-3.015 6.03zm3.152 1.827l-1.508-.868 3.015-6.029 1.507.868-3.014 6.03zm3.151 1.827l-1.461-.867 3.014-6.03 1.462.868-3.015 6.03zm3.152 1.828l-1.462-.868 3.015-6.03 1.507.868-3.06 6.03zm3.198 1.827l-1.508-.868 3.015-6.03 1.507.868-3.014 6.03z" fill="#EBF1FD"/><path d="M47.813 27.912l-1.188.685 1.507.868 1.188-.685-1.507-.868zm-3.153-1.826l-1.187.685 1.508.868 1.187-.685-1.507-.868zm-3.151-1.827l-1.188.685 1.462.868 1.188-.685-1.462-.868zm-3.197-1.829l-1.188.686 1.507.868 1.188-.686-1.507-.867zm-3.152-1.825l-1.187.685 1.507.867 1.188-.685-1.508-.867zm-3.152-1.828l-1.187.685 1.507.868 1.188-.685-1.508-.868zm28.868 8.496v4.75l-6.258 3.655v-4.796l6.258-3.609z" fill="#fff"/><path d="M60.876 32.024l-.594-.32v-4.065l.594-.366v4.75z" fill="#385945"/><path d="M60.282 31.704l-5.664 3.289v.685l6.258-3.654-.594-.32z" fill="#0BCA8E"/><path d="M73.391 20.058v4.796l-6.257 3.608-.046-4.75 6.303-3.654z" fill="#fff"/><path d="M73.391 24.853l-.594-.366v-4.065l.594-.365v4.796z" fill="#385945"/><path d="M72.797 24.487l-5.71 3.289.047.685 6.257-3.608-.594-.366z" fill="#0BCA8E"/><path d="M66.129 24.26v4.75l-4.157 2.42v-4.795l4.157-2.375z" fill="#fff"/><path d="M66.129 29.01l-.594-.32v-4.11l.594-.32v4.75z" fill="#385945"/><path d="M65.535 28.69l-3.563 2.056v.685l4.157-2.42-.594-.32z" fill="#0BCA8E"/><path d="M67.225 11.102v2.192l-3.152 1.873v-2.238l3.152-1.827z" fill="#E9F3F9"/><path d="M64.073 12.929v2.238l-3.197-1.873v-2.192l3.197 1.827z" fill="#D6E7F3"/><path d="M67.225 11.102l-3.152 1.828-3.197-1.828 3.151-1.827 3.198 1.827z" fill="#fff"/><path d="M64.347 4.115l-.045 6.897c0 .046-.046.092-.092.137-.091.046-.274.046-.41 0-.047-.045-.092-.091-.092-.137l.045-6.897c0 .046.046.092.092.137.091.046.274.046.41 0 .092-.091.092-.137.092-.137z" fill="#0BCA8E"/><path d="M64.256 3.978c.092.045.092.182 0 .228-.091.046-.274.046-.41 0-.092-.046-.092-.183 0-.228.136-.046.319-.046.41 0z" fill="#35567B"/><path d="M65.398 3.292a1.326 1.326 0 01-2.65 0c0-.091 0-.228.046-.32a1.318 1.318 0 011.28-1.004.58.58 0 01.273.045c.594.137 1.05.64 1.05 1.28z" fill="#385945"/><path d="M65.078 3.11a1.13 1.13 0 01-1.142 1.143 1.13 1.13 0 01-1.142-1.142V3.02a1.318 1.318 0 011.28-1.005c.09 0 .182 0 .273.045.457.137.731.548.731 1.05z" fill="#385945"/><path d="M63.434 3.201a.32.32 0 100-.64.32.32 0 000 .64z" fill="#fff"/><g clip-path="url(#clip0)" fill="#0D805C"><path d="M76.699 46.14c-.1 0-.1-.1-.2-.1s-.1-.1-.2-.1h-.3c-.1 0-.2.1-.3.1l-.5.2-8.4-4.8c-.1-.1-.2-.1-.2-.1-.1 0-.1 0-.2.1l-.8.5c-.1 0-.1.1-.1.1s0 .1.1.1l8.4 4.9-4.9 2.8-8.4-4.9c-.1-.1-.2-.1-.2-.1-.1 0-.1 0-.2.1l-.8.5c-.1 0-.1.1-.1.1s0 .1.1.1l8.7 5c.3.2.6.3.9.2.3 0 .6-.1.8-.2l6.2-3.6 2.1 1.2c.2.1.3.1.4 0l.7-.4.1-.1s0-.1-.1-.1l-2.6-1.5zm3.4-7.199c-.8-.5-1.6-.8-2.4-1-.8-.2-1.5-.4-2.3-.4-.7 0-1.5 0-2.2.2-.7.2-1.4.4-2 .8-.4.2-.8.5-1.2.8-.4.3-.7.7-.9 1.1v.1s.1 0 .2.1l.9.2h.2c.1 0 .1 0 .1-.1.2-.3.4-.5.7-.8.3-.3.6-.5 1-.7.5-.3 1-.5 1.4-.6.5-.1 1-.1 1.5-.1s1 .1 1.5.2 1 .3 1.4.5l-4 2.3c-.1 0-.1.1-.1.1l.1.1.7.4c.1 0 .1.1.2.1s.1 0 .2-.1l4-2.4c.5.3.9.6 1.2.9.3.3.5.6.6.9.1.3 0 .6-.2 1-.2.3-.6.6-1.1 1-.4.2-.8.4-1.3.6-.5.2-.9.3-1.4.4-.1 0-.2.1-.2.1v.1l.3.5c0 .1.1.1.1.1h.2c.3-.1.7-.1 1-.2.3-.1.7-.2 1-.3.3-.1.6-.3.9-.4.3-.1.5-.3.7-.4 1.3-.8 1.9-1.6 1.7-2.5.2-.6-.7-1.6-2.5-2.6zm14.1-2.501l-8.7-5c-.3-.2-.6-.3-.8-.3-.3 0-.6.1-.8.2l-5.8 3.4c-.2.1-.4.3-.4.5s.1.3.4.5l8.7 5c.1.1.2.1.2.1.1 0 .1 0 .2-.1l.8-.5c.1 0 .1-.1.1-.1s0-.1-.1-.1l-8.3-4.9 4.9-2.8 8.3 4.8c.1.1.2.1.2.1.1-.1.2-.1.3-.1l.8-.5c.1 0 .1-.1.1-.1 0-.1 0-.1-.1-.1z"/></g><defs><clipPath id="clip0"><path fill="#fff" transform="translate(59.299 31.14)" d="M0 0h35v19.9H0z"/></clipPath></defs></svg>