<svg width="57" height="38" fill="none" xmlns="http://www.w3.org/2000/svg"><path d="M5.674 4.477l.253-.364.436.086S21.94 7.303 25.944 8.11c2.87.578 5.896 2.118 8.821 3.607 2.285 1.163 4.458 2.253 6.366 2.825 4.9 1.436 13.26.922 15.179.78l-.419 1.385c-2.67.182-10.326.541-15.14-.869-2.04-.612-4.257-1.726-6.6-2.918-2.843-1.447-5.782-2.945-8.473-3.485-3.575-.72-16.38-3.272-19.077-3.81-.126.32-.239.807-.072 1.31.256.772 1.136 1.433 2.52 1.903l12.907 3.825.809-.95 1.034.874-5.246 6.175a1.074 1.074 0 00.122 1.51l.988.842 5.856-6.971 1.04.869-6.402 7.62a1.139 1.139 0 00.114 1.554l.933.829c.09-.302.236-.59.437-.845l6.398-7.532 1.034.874-6.383 7.513c-.245.311-.31.741-.209 1.124l.02.019-.01.011c.058.2.159.388.308.535l1.885 1.852c.523.511 1.606.817 2.299.657l3.79-.991c-.14-.361-.395-.816-.848-1.106-.605-.385-1.454-.416-2.524-.087l-.414.128-1.415-1.57 2.297-2.863 3.568-.345.23.257c.024.03 2.592 2.848 7.814 3.702 1.78.292 3.63-.04 5.772-.423 2.328-.417 4.928-.878 8.054-.66l-.403 1.334c-2.832-.154-5.243.268-7.41.656-2.169.39-4.219.756-6.23.428-4.829-.791-7.558-3.102-8.362-3.884l-2.33.225-1.224 1.525.074.083c1.292-.316 2.383-.192 3.247.37 1.38.894 1.598 2.563 1.606 2.634l.07.584-5.036 1.317c-.604.139-1.32.085-1.987-.117-.612-.184-1.182-.493-1.588-.89l-1.886-1.853a2.485 2.485 0 01-.508-.73l-1.97-1.751a2.488 2.488 0 01-.537-3.01l-1.04-.888a2.425 2.425 0 01-.276-3.41l3.481-4.098L8.64 10.125c-1.854-.629-2.998-1.56-3.399-2.768-.5-1.512.394-2.825.433-2.88z" fill="#fff"/></svg>