<svg width="30" height="30" fill="none" xmlns="http://www.w3.org/2000/svg"><path d="M15.005 9.36A5.632 5.632 0 009.365 15a5.632 5.632 0 005.64 5.64 5.632 5.632 0 005.64-5.64 5.632 5.632 0 00-5.64-5.64zm0 9.307A3.674 3.674 0 0111.338 15a3.67 3.67 0 013.667-3.667A3.67 3.67 0 0118.672 15a3.674 3.674 0 01-3.667 3.667zm7.187-9.538c0 .731-.59 1.315-1.316 1.315a1.316 1.316 0 111.316-1.316zm3.736 1.335c-.084-1.762-.486-3.323-1.777-4.61-1.287-1.286-2.848-1.688-4.61-1.777-1.817-.103-7.26-.103-9.077 0-1.757.084-3.319.486-4.61 1.772-1.29 1.287-1.688 2.848-1.777 4.61-.103 1.816-.103 7.26 0 9.077.084 1.762.486 3.323 1.777 4.61 1.291 1.286 2.848 1.688 4.61 1.777 1.816.103 7.26.103 9.077 0 1.762-.084 3.323-.486 4.61-1.777 1.286-1.287 1.688-2.848 1.777-4.61.103-1.816.103-7.256 0-9.072zm-2.347 11.02a3.713 3.713 0 01-2.091 2.092c-1.448.575-4.885.442-6.485.442-1.6 0-5.042.128-6.485-.442a3.712 3.712 0 01-2.091-2.091C5.854 20.037 5.987 16.6 5.987 15c0-1.6-.128-5.042.442-6.485A3.713 3.713 0 018.52 6.424c1.448-.575 4.885-.442 6.485-.442 1.6 0 5.042-.128 6.485.442a3.713 3.713 0 012.091 2.091c.574 1.448.442 4.885.442 6.485 0 1.6.132 5.042-.442 6.485z" fill="#0D805C"/></svg>