<svg width="86" height="90" fill="none" xmlns="http://www.w3.org/2000/svg"><g clip-path="url(#clip0)"><path d="M51.35 89.235c-.4 0-.8-.1-1.1-.4-.6-.6-.6-1.5 0-2.1l6.1-6.1-6.1-6.1c-.6-.6-.6-1.5 0-2.1.6-.6 1.5-.6 2.1 0l7.1 7.1c.3.3.4.7.4 1.1 0 .4-.2.8-.4 1.1l-7.1 7.1c-.3.3-.6.4-1 .4z" fill="#272727"/><path d="M58.45 82.136h-42.2c-8.8 0-16-7.2-16-16s7.2-16 16-16c.8 0 1.5.7 1.5 1.5s-.7 1.5-1.5 1.5c-7.2 0-13 5.8-13 13s5.8 13 13 13h42.2c.8 0 1.5.7 1.5 1.5s-.7 1.5-1.5 1.5z" fill="#272727"/><path d="M60.65 24.136c-4.3 0-9.4-9.5-9.4-14.1 0-5.2 4.2-9.4 9.4-9.4s9.4 4.2 9.4 9.4c0 4.5-5.3 14.1-9.4 14.1zm0-20.5c-3.6 0-6.4 2.9-6.4 6.4 0 4.1 4.7 11.1 6.4 11.1 1.5 0 6.4-6.9 6.4-11.1 0-3.5-2.9-6.4-6.4-6.4zm-36 48.7c-4.2 0-9.4-9.4-9.4-14.1 0-5.2 4.2-9.4 9.4-9.4s9.4 4.2 9.4 9.4c0 4.5-5.2 14.1-9.4 14.1zm0-20.5c-3.5 0-6.4 2.9-6.4 6.4 0 4.1 4.7 11.1 6.4 11.1 1.5 0 6.4-6.9 6.4-11.1 0-3.5-2.8-6.4-6.4-6.4zm42.2 49.5c-4.2 0-9.4-9.4-9.4-14.1 0-5.2 4.2-9.4 9.4-9.4s9.4 4.2 9.4 9.4c0 4.6-5.3 14.1-9.4 14.1zm0-20.4c-3.5 0-6.4 2.9-6.4 6.4 0 4.1 4.7 11.1 6.4 11.1 1.5 0 6.4-6.9 6.4-11.1 0-3.6-2.9-6.4-6.4-6.4z" fill="#0D805C"/><path d="M62.95 15.136h-4.1v-.9c0-.1.1 0 .1 0h1.3v-6.1l-1.4.2h-.2v-.8c0-.1.1-.1.2-.1l1.7-.5h.5c.1 0 .2.2.2.3v6.9h1.6v.8c.1.1.1.2.1.2z" fill="#0D805C"/><path d="M62.75 15.936h-3.9c-.5 0-.7-.3-.8-.4-.1-.2-.1-.3-.1-.5v-.6c0-.2 0-.4.1-.6.1-.1.3-.4.8-.4h.7v-4.4l-.5.1h-.2c-.2 0-.5-.1-.6-.2-.1-.1-.3-.3-.3-.7v-.5c0-.2.1-.4.2-.6.1-.2.3-.3.6-.4l1.7-.5c.4-.1.6-.1.9 0 .4.2.7.5.7 1.1v6.1h.7c.5 0 .7.3.8.4.1.1.1.3.1.6v.6c0 .2 0 .4-.1.5-.1.1-.3.4-.8.4zm-40.6 27.1c-.1-.1-.2-.3-.2-.6s.1-.6.3-.9c.2-.4.4-.7.8-1.1.3-.3.6-.6 1-.8.4-.2.6-.4.9-.6.3-.2.5-.3.7-.4.2-.1.3-.3.5-.4.2-.1.1-.4.1-.6 0-.2.1-.3.1-.5 0-.4-.2-.7-.5-.9-.3-.2-.7-.3-1.2-.3-.3 0-.6.1-.9.2-.3.1-.6.3-.9.5-.1.1-.2.1-.3 0l-.4-.5c-.1-.1 0-.2.1-.3.4-.3.7-.5 1.2-.6.4-.2.9-.2 1.3-.2s.7 0 1 .1c.3.1.6.2.9.4.2.2.4.4.6.7.2.3.2.6.2.9 0 .3 0 .6-.1.8-.1.2-.2.5-.4.7l-.6.6c-.2.2-.5.4-.8.5-.2.1-.5.3-.7.5-.2.2-.5.4-.7.6-.2.2-.4.5-.6.7-.2.2-.3.5-.4.8h4.2v.9h-4.5c-.3 0-.6-.1-.7-.2z" fill="#0D805C"/><path d="M27.25 43.936h-4.4c-.5 0-1-.1-1.2-.4-.2-.3-.4-.7-.4-1.1 0-.4.1-.8.3-1.2.2-.4.5-.9.9-1.3.3-.3.7-.7 1.1-.9.4-.3.7-.5.9-.6.2-.2.5-.3.6-.4.1-.1.3-.2.3-.3.1-.1.1-.1.1-.2v-.2c0-.1 0-.2-.1-.3-.3-.2-.9-.3-1.5-.1-.2.1-.5.2-.7.4-.5.4-1 .2-1.3-.1l-.3-.6c-.3-.5-.2-1 .2-1.3.4-.3.9-.6 1.4-.7.9-.3 1.9-.3 2.8-.1.4.1.8.3 1.1.5.3.2.6.5.8.9.2.4.3.8.3 1.3 0 .4-.1.7-.2 1.1-.1.3-.3.6-.5.9l-.7.7-.9.6c-.2.1-.4.3-.6.4-.2.2-.4.3-.6.5l-.2.2h2.8c.5 0 .7.2.8.4.1.2.1.3.1.6v.6c0 .2 0 .4-.1.5-.1 0-.4.2-.8.2zm39.5 28.7c-.5 0-.9-.1-1.4-.2-.5-.1-.9-.3-1.2-.6-.1-.1-.1-.1 0-.2l.4-.5c.1-.1.2-.1.3 0 .3.2.6.3.9.4.3.1.7.1 1 .1.7 0 1.1-.1 1.5-.4.3-.3.5-.7.5-1.2 0-.2 0-.4-.1-.5-.1-.2-.2-.3-.3-.4-.2-.1-.3-.2-.6-.3-.2-.1-.5-.1-.7-.1h-.3c-.1 0-.2 0-.2-.1-.1 0-.1-.1-.1-.3v-.3c0-.2.1-.3.3-.3h.3c.5 0 .9-.1 1.2-.3.3-.2.4-.5.4-1 0-.2 0-.4-.1-.6-.1-.1-.2-.3-.4-.4-.2-.1-.3-.2-.5-.2s-.4-.1-.6-.1c-.3 0-.7 0-1 .1-.3.1-.6.2-.9.4-.1.1-.2.1-.3 0l-.6-.3c-.1-.1 0-.2 0-.2.3-.3.7-.5 1.2-.6.5-.1.9-.2 1.4-.2.4 0 .7 0 1 .1.3.1.6.2.8.4l.6.6c.1.3.2.5.2.9s-.1.8-.4 1.2c-.2.3-.6.6-1 .7v.1c.5.1.9.3 1.1.6.3.3.4.8.4 1.3 0 .4-.1.7-.2 1-.1.3-.3.6-.6.8-.3.2-.6.4-.9.5-.2.1-.6.1-1.1.1z" fill="#0D805C"/><path d="M66.75 73.436c-.5 0-1-.1-1.6-.2-.6-.1-1.1-.4-1.6-.8-.3-.3-.4-.7-.2-1.1l.4-.6c.3-.4.8-.5 1.3-.2.3.2.5.3.7.4.7.2 1.5.1 1.7-.1.1-.1.2-.3.2-.6v-.2c0-.1-.1-.1-.1-.2-.1-.1-.2-.1-.3-.2-.1 0-.3-.1-.5-.1h-.3c-.3 0-.5-.1-.7-.2-.2-.1-.4-.4-.4-.9v-.3c0-.6.4-1.1 1-1.1h.3c.3 0 .6-.1.7-.2.1-.1.2-.1.2-.4v-.1c0-.1-.1-.1-.1-.1-.1 0-.2-.1-.3-.1-.4-.1-.8 0-1.2.1-.3.1-.5.2-.7.3-.5.3-1 .2-1.3-.2l-.3-.5c-.3-.4-.2-.9.1-1.2.4-.3.9-.6 1.5-.8 1-.3 2-.3 2.8-.1.4.1.8.3 1.1.5.3.2.6.5.8.9.2.4.3.8.3 1.2 0 .6-.2 1.1-.5 1.6 0 .1-.1.1-.1.2l.3.3c.4.5.6 1.1.6 1.7 0 .5-.1.9-.3 1.3-.2.4-.4.8-.8 1.1-.3.3-.7.5-1.2.7-.5.1-1 .2-1.5.2z" fill="#0D805C"/><path d="M69.75 53.036h-36.6c-.8 0-1.5-.7-1.5-1.5s.7-1.5 1.5-1.5h36.6c7.2 0 13-5.8 13-13s-5.8-13-13-13c-.8 0-1.5-.7-1.5-1.5s.7-1.5 1.5-1.5c8.8 0 16 7.2 16 16s-7.2 16-16 16zm-18.5-29h-32.9c-.8 0-1.5-.7-1.5-1.5s.7-1.5 1.5-1.5h32.9c.8 0 1.5.7 1.5 1.5s-.7 1.5-1.5 1.5z" fill="#272727"/></g><defs><clipPath id="clip0"><path fill="#fff" transform="translate(.25 .636)" d="M0 0h85.5v88.6H0z"/></clipPath></defs></svg>