<svg width="93" height="90" fill="none" xmlns="http://www.w3.org/2000/svg"><g clip-path="url(#clip0)"><path d="M85.383 89.736h-77.5c-.8 0-1.5-.7-1.5-1.5v-32.7c0-.8.7-1.5 1.5-1.5s1.5.7 1.5 1.5v31.2h74.5v-31.2c0-.8.7-1.5 1.5-1.5s1.5.7 1.5 1.5v32.7c0 .8-.7 1.5-1.5 1.5z" fill="#272727"/><path d="M85.283 50.735c-3.9 0-7-3.1-7-7v-1.4c0-.8.7-1.5 1.5-1.5s1.5.7 1.5 1.5v1.4c0 2.2 1.8 4 4 4s4-1.8 4-4v-21.5h-2.4c-.8 0-1.5-.7-1.5-1.5s.7-1.5 1.5-1.5h3.9c.8 0 1.5.7 1.5 1.5v23c0 3.9-3.2 7-7 7zm-77.3 0c-3.9 0-7-3.1-7-7v-23c0-.8.7-1.5 1.5-1.5h4.2c.8 0 1.5.7 1.5 1.5s-.7 1.5-1.5 1.5h-2.7v21.5c0 2.2 1.8 4 4 4s4-1.8 4-4v-1.4c0-.8.7-1.5 1.5-1.5s1.5.7 1.5 1.5v1.4c0 3.9-3.1 7-7 7z" fill="#0D805C"/><path d="M19.084 50.735c-3.9 0-7-3.1-7-7v-1.4c0-.8.7-1.5 1.5-1.5s1.5.7 1.5 1.5v1.4c0 2.2 1.8 4 4 4s4-1.8 4-4v-1.4c0-.8.7-1.5 1.5-1.5s1.5.7 1.5 1.5v1.4c0 3.9-3.2 7-7 7z" fill="#0D805C"/><path d="M30.084 50.735c-3.9 0-7-3.1-7-7v-1.4c0-.8.7-1.5 1.5-1.5s1.5.7 1.5 1.5v1.4c0 2.2 1.8 4 4 4s4-1.8 4-4v-1.4c0-.8.7-1.5 1.5-1.5s1.5.7 1.5 1.5v1.4c0 3.9-3.1 7-7 7z" fill="#0D805C"/><path d="M41.084 50.735c-3.9 0-7-3.1-7-7v-1.4c0-.8.7-1.5 1.5-1.5s1.5.7 1.5 1.5v1.4c0 2.2 1.8 4 4 4s4-1.8 4-4v-1.4c0-.8.7-1.5 1.5-1.5s1.5.7 1.5 1.5v1.4c0 3.9-3.1 7-7 7z" fill="#0D805C"/><path d="M52.184 50.735c-3.9 0-7-3.1-7-7v-1.4c0-.8.7-1.5 1.5-1.5s1.5.7 1.5 1.5v1.4c0 2.2 1.8 4 4 4s4-1.8 4-4v-1.4c0-.8.7-1.5 1.5-1.5s1.5.7 1.5 1.5v1.4c0 3.9-3.2 7-7 7z" fill="#0D805C"/><path d="M63.184 50.735c-3.9 0-7-3.1-7-7v-1.4c0-.8.7-1.5 1.5-1.5s1.5.7 1.5 1.5v1.4c0 2.2 1.8 4 4 4s4-1.8 4-4v-1.4c0-.8.7-1.5 1.5-1.5s1.5.7 1.5 1.5v1.4c0 3.9-3.1 7-7 7z" fill="#0D805C"/><path d="M74.184 50.735c-3.9 0-7-3.1-7-7v-1.4c0-.8.7-1.5 1.5-1.5s1.5.7 1.5 1.5v1.4c0 2.2 1.8 4 4 4s4-1.8 4-4v-1.4c0-.8.7-1.5 1.5-1.5s1.5.7 1.5 1.5v1.4c0 3.9-3.1 7-7 7z" fill="#0D805C"/><path d="M56.584 89.736c-.8 0-1.5-.7-1.5-1.5v-26.3h-15.4v26.3c0 .8-.7 1.5-1.5 1.5s-1.5-.7-1.5-1.5v-27.8c0-.8.7-1.5 1.5-1.5h18.4c.8 0 1.5.7 1.5 1.5v27.8c0 .8-.7 1.5-1.5 1.5z" fill="#272727"/><path d="M80.383 35.636h-67.5c-.8 0-1.5-.7-1.5-1.5v-32.5c0-.8.7-1.5 1.5-1.5h67.4c.8 0 1.5.7 1.5 1.5v32.5c.1.8-.6 1.5-1.4 1.5zm-66-3h64.4v-29.5h-64.4v29.5z" fill="#0D805C"/><path d="M34.684 22.236h-.9v-11.5c0-.5-.4-.9-.9-.9h-1.6c-.5 0-.9.4-.9.9v11.5h-6.1v-11.5c0-.5-.4-.9-.9-.9h-1.4c-.5 0-.9.4-.9.9v13.7c0 .5.4.9.9.9h10.3v2.2c0 .5.4.9.9.9h1.3c.5 0 .9-.4.9-.8l.2-4.5c0-.2-.1-.5-.2-.7-.2-.1-.4-.2-.7-.2zm11.699-12.6c-1.3 0-2.4.2-3.3.7-.9.4-1.7 1-2.6 1.8-.3.3-.4.9 0 1.2l1 1.1c.2.2.4.3.6.3.2 0 .5-.1.6-.2 1.2-1.1 2.4-1.7 3.7-1.7 1.2 0 2.1.4 2.9 1.2.6.6 1 1.2 1.2 2h-5.8c-.5 0-.9.4-.9.9v1.4c0 .5.4.9.9.9h5.9c-.2.8-.6 1.5-1.3 2.1-.8.8-1.8 1.2-3 1.2-.7 0-1.4-.1-1.9-.4-.6-.3-1.2-.7-1.8-1.4-.3-.3-.9-.3-1.2 0l-1.1 1c-.2.2-.3.4-.3.6 0 .2.1.5.3.6.8.9 1.8 1.5 2.7 2 1 .5 2.1.7 3.4.7 2.2 0 4.1-.8 5.6-2.3 1.5-1.5 2.2-3.4 2.2-5.7 0-2.2-.7-4.1-2.2-5.6-1.5-1.6-3.4-2.4-5.6-2.4zm24.9.2h-10.9c-.5 0-.9.4-.9.9v13.7c0 .5.4.9.9.9h1.6c.5 0 .9-.4.9-.9v-11.4h6v11.5c0 .5.4.9.9.9h1.6c.5 0 .9-.4.9-.9v-13.8c-.1-.5-.5-.9-1-.9z" fill="#0D805C"/><path d="M24.584 89.035c-.8 0-1.5-.7-1.5-1.5v-32.7c0-.5.3-1 .7-1.3.4-.3 1-.3 1.4-.1l13.7 6.1c.8.3 1.1 1.2.8 2-.3.8-1.2 1.1-2 .8l-11.6-5.2v30.4c0 .8-.7 1.5-1.5 1.5z" fill="#272727"/></g><defs><clipPath id="clip0"><path fill="#fff" transform="translate(.983 .136)" d="M0 0h91.3v89.6H0z"/></clipPath></defs></svg>