<svg width="124" height="87" fill="none" xmlns="http://www.w3.org/2000/svg"><g clip-path="url(#clip0)"><path d="M109.25 57.815h-10.5c-.8 0-1.5-.7-1.5-1.5s.7-1.5 1.5-1.5h10.5c6 0 11-4.9 11-11s-4.9-11-11-11c-.8 0-1.7.1-2.6.3-.4.1-.9 0-1.2-.2-.3-.2-.6-.6-.6-1.1-.7-7-6.6-12.3-13.7-12.3-.6 0-1.2 0-1.9.2-.6.1-1.3-.2-1.5-.8-3.1-5.9-9.1-9.6-15.7-9.6-3.4 0-6.6 1-9.5 2.8-.6.4-1.4.3-1.9-.2-5-5.4-11.9-8.4-19-8.4-13 0-24 9.7-25.5 22.7-.1.6-.6 1.2-1.2 1.3-6.4 1.2-11.1 6.9-11.1 13.5 0 7.6 6.2 13.8 13.8 13.8h2.2c.8 0 1.5.7 1.5 1.5s-.7 1.5-1.5 1.5h-2.2c-9.3 0-16.8-7.5-16.8-16.8 0-7.6 5.2-14.3 12.5-16.2 2.1-13.9 14.1-24.3 28.3-24.3 7.6 0 14.9 3 20.2 8.4 3.1-1.7 6.5-2.6 10-2.6 7.4 0 14.2 3.9 17.9 10.3.5 0 .9-.1 1.3-.1 8.1 0 14.9 5.7 16.5 13.4.6-.1 1.1-.1 1.7-.1 7.7 0 14 6.3 14 14s-6.3 14-14 14z" fill="#497C60"/><path d="M87.55 86.615h-56.4c-3.7 0-6.7-3-6.7-6.7v-43.5c0-3.7 3-6.7 6.7-6.7h56.3c3.7 0 6.7 3 6.7 6.7v43.5c.1 3.7-2.9 6.7-6.6 6.7zm-56.4-53.9c-2 0-3.7 1.7-3.7 3.7v43.5c0 2 1.7 3.7 3.7 3.7h56.3c2 0 3.7-1.7 3.7-3.7v-43.5c0-2-1.7-3.7-3.7-3.7h-56.3z" fill="#272727"/><path d="M86.95 45.315h-55.2c-.8 0-1.5-.7-1.5-1.5s.7-1.5 1.5-1.5h55.2c.8 0 1.5.7 1.5 1.5s-.7 1.5-1.5 1.5zm-54.8-5.8a1.7 1.7 0 100-3.4 1.7 1.7 0 000 3.4zm11.1 0a1.7 1.7 0 100-3.4 1.7 1.7 0 000 3.4zm-5.6 0a1.7 1.7 0 100-3.4 1.7 1.7 0 000 3.4zm43.9 15.8h-32.3c-.8 0-1.5-.7-1.5-1.5s.7-1.5 1.5-1.5h32.3c.8 0 1.5.7 1.5 1.5s-.7 1.5-1.5 1.5z" fill="#272727"/><path d="M38.65 57.415c-.4 0-.8-.1-1.1-.4l-2.1-2.1c-.6-.6-.6-1.5 0-2.1.6-.6 1.5-.6 2.1 0l1 1 3.1-3.1c.6-.6 1.5-.6 2.1 0 .6.6.6 1.5 0 2.1l-4.2 4.2c-.1.2-.5.4-.9.4z" fill="#52AE85"/><path d="M81.55 76.515h-32.3c-.8 0-1.5-.7-1.5-1.5s.7-1.5 1.5-1.5h32.3c.8 0 1.5.7 1.5 1.5s-.7 1.5-1.5 1.5z" fill="#272727"/><path d="M38.65 78.615c-.4 0-.8-.2-1.1-.4l-2.1-2.1c-.6-.6-.6-1.5 0-2.1.6-.6 1.5-.6 2.1 0l1 1 3.1-3.1c.6-.6 1.5-.6 2.1 0 .6.6.6 1.5 0 2.1l-4.2 4.2c-.1.3-.5.4-.9.4z" fill="#52AE85"/><path d="M81.55 65.914h-32.3c-.8 0-1.5-.7-1.5-1.5s.7-1.5 1.5-1.5h32.3c.8 0 1.5.7 1.5 1.5s-.7 1.5-1.5 1.5z" fill="#272727"/><path d="M38.65 68.014c-.4 0-.8-.1-1.1-.4l-2-2.1c-.6-.6-.6-1.5 0-2.1.6-.6 1.5-.6 2.1 0l1 1 3.1-3.1c.6-.6 1.5-.6 2.1 0 .6.6.6 1.5 0 2.1l-4.2 4.2c-.2.3-.6.4-1 .4z" fill="#52AE85"/><path d="M18.15 69.115H2.45c-.8 0-1.5-.7-1.5-1.5s.7-1.5 1.5-1.5h15.6c.8 0 1.5.7 1.5 1.5s-.6 1.5-1.4 1.5z" fill="#272727"/><path d="M16.15 73.015c-.4 0-.8-.1-1.1-.4-.6-.6-.6-1.5 0-2.1l2.9-2.9-2.9-2.9c-.6-.6-.6-1.5 0-2.1.6-.6 1.5-.6 2.1 0l3.9 4c.3.3.4.7.4 1.1 0 .4-.2.8-.4 1.1l-3.9 3.9c-.3.2-.6.3-1 .3z" fill="#272727"/><path d="M114.25 69.115h-15.6c-.8 0-1.5-.7-1.5-1.5s.7-1.5 1.5-1.5h15.6c.8 0 1.5.7 1.5 1.5s-.6 1.5-1.5 1.5z" fill="#52AE85"/><path d="M112.35 73.015c-.4 0-.8-.1-1.1-.4-.6-.6-.6-1.5 0-2.1l2.9-2.9-2.9-2.9c-.6-.6-.6-1.5 0-2.1.6-.6 1.5-.6 2.1 0l4 4c.3.3.4.7.4 1.1 0 .4-.2.8-.4 1.1l-4 3.9c-.3.2-.6.3-1 .3z" fill="#52AE85"/></g><defs><clipPath id="clip0"><path fill="#fff" transform="translate(.85 .515)" d="M0 0h122.3v86.1H0z"/></clipPath></defs></svg>