<svg width="126" height="83" fill="none" xmlns="http://www.w3.org/2000/svg"><g clip-path="url(#clip0)"><path d="M99.834 37.265c-.8 0-1.5-.7-1.5-1.5v-17.8c0-.8.7-1.5 1.5-1.5.799 0 1.499.7 1.499 1.5v17.8c0 .8-.6 1.5-1.5 1.5z" fill="#0D805C"/><path d="M108.734 28.365h-17.8c-.8 0-1.5-.7-1.5-1.5s.7-1.5 1.5-1.5h17.8c.8 0 1.5.7 1.5 1.5s-.6 1.5-1.5 1.5z" fill="#0D805C"/><path d="M99.834 52.065c-3.3 0-6.6-.6-9.7-1.9-.8-.3-1.1-1.2-.8-2 .3-.8 1.2-1.1 2-.8 2.7 1.1 5.6 1.7 8.5 1.7 12.3 0 22.2-10 22.2-22.2s-9.9-22.2-22.2-22.2c-2.9 0-5.8.6-8.5 1.7-.8.3-1.6 0-2-.8-.3-.8 0-1.6.8-2 3.1-1.3 6.3-1.9 9.7-1.9 13.9 0 25.2 11.3 25.2 25.2.1 13.9-11.3 25.2-25.2 25.2z" fill="#0D805C"/><path d="M66.034 62.665h-26.1c-11.4 0-20.8-9.3-20.8-20.8v-31c.1-5.6 4.6-10.1 10.2-10.1h47.4c5.6 0 10.1 4.5 10.1 10.1v31c0 11.4-9.3 20.8-20.8 20.8zm-36.7-58.9c-3.9 0-7.1 3.2-7.1 7.1v31c0 9.8 8 17.8 17.8 17.8h26.1c9.8 0 17.8-8 17.8-17.8v-31c0-3.9-3.2-7.1-7.1-7.1h-47.5z" fill="#272727"/><path d="M77.934 41.165h-49.8c-.8 0-1.5-.7-1.5-1.5v-24.2c0-.8.7-1.5 1.5-1.5h49.8c.8 0 1.5.7 1.5 1.5v24.2c0 .8-.7 1.5-1.5 1.5zm-48.3-3h46.8v-21.2h-46.8v21.2zm18.2 9.3a1.6 1.6 0 100-3.2 1.6 1.6 0 000 3.2zm10.4 0a1.6 1.6 0 100-3.2 1.6 1.6 0 000 3.2zm-5.2 0a1.6 1.6 0 100-3.2 1.6 1.6 0 000 3.2z" fill="#0D805C"/><path d="M73.534 82.364h-71.9c-.8 0-1.5-.7-1.5-1.5s.7-1.5 1.5-1.5h71.9c.8 0 1.5.7 1.5 1.5s-.7 1.5-1.5 1.5z" fill="#272727"/><path d="M40.834 81.165c-.8 0-1.5-.7-1.5-1.5v-2.5h-15v2.5c0 .8-.7 1.5-1.5 1.5s-1.5-.7-1.5-1.5v-4c0-.8.7-1.5 1.5-1.5h18c.8 0 1.5.7 1.5 1.5v4c0 .8-.6 1.5-1.5 1.5zm59.4.799c-.8 0-1.5-.7-1.5-1.5v-8.4h-22.5v8.4c0 .8-.7 1.5-1.5 1.5s-1.5-.7-1.5-1.5v-9.9c0-.8.7-1.5 1.5-1.5h25.5c.8 0 1.5.7 1.5 1.5v9.9c0 .8-.7 1.5-1.5 1.5zm-12.6-14.599c-.8 0-1.5-.7-1.5-1.5v-3.8l-6-6c-.6-.6-.6-1.5 0-2.1.6-.6 1.5-.6 2.1 0l6.4 6.4c.3.3.4.7.4 1.1v4.5c.1.8-.6 1.4-1.4 1.4z" fill="#272727"/></g><defs><clipPath id="clip0"><path fill="#fff" transform="translate(.134 .765)" d="M0 0h125v81.6H0z"/></clipPath></defs></svg>