<svg width="109" height="84" fill="none" xmlns="http://www.w3.org/2000/svg"><g clip-path="url(#clip0)"><path d="M59.867 56.765c-.8 0-1.5-.7-1.5-1.5v-17.3c0-.8.7-1.5 1.5-1.5 3.9 0 7 3.2 7 7v6.2c0 3.9-3.1 7.1-7 7.1zm1.5-17v13.7c1.5-.6 2.5-2.1 2.5-3.7v-6.2c0-1.8-1-3.2-2.5-3.8zm-46.8 19.6h-.3l-7.7-1.8c-.7-.2-1.2-.8-1.2-1.5v-7.6c0-.8.7-1.5 1.5-1.5s1.5.7 1.5 1.5v6.4l6.2 1.5 6.2-1.5v-6.4c0-.8.7-1.5 1.5-1.5s1.5.7 1.5 1.5v7.6c0 .7-.5 1.3-1.2 1.5l-7.7 1.8h-.3zm50.3 23.7h-63c-.8 0-1.5-.7-1.5-1.5v-14.2c0-.8.7-1.5 1.5-1.5h63c.8 0 1.5.7 1.5 1.5v14.2c0 .8-.7 1.5-1.5 1.5zm-61.5-3h60v-11.2h-60v11.2z" fill="#272727"/><path d="M59.867 68.465c-.8 0-1.5-.7-1.5-1.5v-32.2h-50v12.2h27.8c.8 0 1.5.7 1.5 1.5v18.5c0 .8-.7 1.5-1.5 1.5s-1.5-.7-1.5-1.5v-17h-27.8c-.8 0-1.5-.7-1.5-1.5v-15.2c0-.8.7-1.5 1.5-1.5h52.9c.8 0 1.5.7 1.5 1.5v33.7c.1.8-.6 1.5-1.4 1.5z" fill="#272727"/><path d="M15.967 34.765c-.8 0-1.5-.7-1.5-1.5v-9.3c0-.8.7-1.5 1.5-1.5s1.5.7 1.5 1.5v9.3c0 .8-.7 1.5-1.5 1.5zm-1.4 30.1c-.8 0-1.5-.7-1.5-1.5v-5.1c0-.8.7-1.5 1.5-1.5s1.5.7 1.5 1.5v5.1c0 .8-.7 1.5-1.5 1.5zm11.8-30.1c-.8 0-1.5-.7-1.5-1.5v-9.3c0-.8.7-1.5 1.5-1.5s1.5.7 1.5 1.5v9.3c0 .8-.6 1.5-1.5 1.5z" fill="#272727"/><path d="M48.067 49.965c-3.4 0-6.2-2.8-6.2-6.2 0-3.4 2.8-6.2 6.2-6.2 3.4 0 6.2 2.8 6.2 6.2 0 3.4-2.8 6.2-6.2 6.2zm0-9.4c-1.8 0-3.2 1.4-3.2 3.2 0 1.8 1.4 3.2 3.2 3.2 1.8 0 3.2-1.4 3.2-3.2 0-1.8-1.5-3.2-3.2-3.2zm0 20.2c-2.4 0-4.4-2-4.4-4.4 0-2.4 2-4.4 4.4-4.4 2.4 0 4.4 2 4.4 4.4 0 2.4-2 4.4-4.4 4.4zm0-5.9c-.8 0-1.4.6-1.4 1.4 0 .8.6 1.4 1.4 1.4.8 0 1.4-.6 1.4-1.4 0-.7-.7-1.4-1.4-1.4zm10.3 21.3h-49.5c-.8 0-1.5-.7-1.5-1.5s.7-1.5 1.5-1.5h49.5c.8 0 1.5.7 1.5 1.5s-.7 1.5-1.5 1.5z" fill="#0D805C"/><path d="M106.667 77.565h-35.8c-.8 0-1.5-.7-1.5-1.5s.7-1.5 1.5-1.5h34.3v-55l-33.9-16.3-33.9 16.3v7.7c0 .8-.7 1.5-1.5 1.5s-1.5-.7-1.5-1.5v-8.7c0-.6.3-1.1.9-1.4l35.4-17c.4-.2.9-.2 1.3 0l35.4 17c.5.2.9.8.9 1.4v57.5c-.1.9-.8 1.5-1.6 1.5z" fill="#0D805C"/></g><defs><clipPath id="clip0"><path fill="#fff" transform="translate(.367 .064)" d="M0 0h107.8v83H0z"/></clipPath></defs></svg>