<svg width="120" height="83" fill="none" xmlns="http://www.w3.org/2000/svg"><g clip-path="url(#clip0)"><path d="M66.068 76.135h-34.6c-.8 0-1.5-.7-1.5-1.5s.7-1.5 1.5-1.5h34.6c2.4 0 4.4-2 4.4-4.4v-55.2l-8.1-3c-.8-.3-1.2-1.1-.9-1.9.3-.8 1.1-1.2 1.9-.9l9.1 3.3c.6.2 1 .8 1 1.4v56.3c0 4.1-3.3 7.4-7.4 7.4z" fill="#272727"/><path d="M72.968 82.935h-34.5c-.8 0-1.5-.7-1.5-1.5s.7-1.5 1.5-1.5h34.6c2.4 0 4.4-2 4.4-4.4v-56.3c0-.8.7-1.5 1.5-1.5s1.5.7 1.5 1.5v56.3c0 4-3.4 7.4-7.5 7.4zm-48.6-50.8c-.5 0-1-.3-1.3-.7l-12.9-21.5c-.2-.4-.2-.8-.1-1.2.1-.4.4-.8.8-.9l13.5-6.7c.7-.4 1.6-.1 2 .7l12.1 23.6c.2.4.2.8.1 1.2-.2.4-.5.7-.9.9l-12.8 4.5c-.1.1-.3.1-.5.1zm-10.7-22.4l11.4 19.1 10-3.6-10.7-20.8-10.7 5.3z" fill="#272727"/><path d="M49.968 32.136c-.2 0-.3 0-.5-.1l-12.8-4.7c-.4-.1-.7-.5-.9-.9-.2-.4-.1-.8.1-1.2l12.1-23.5c.4-.7 1.3-1 2-.7l13.5 6.7c.4.2.7.6.8 1 .1.4.1.8-.2 1.2l-12.8 21.5c-.3.5-.8.7-1.3.7zm-10.7-7l10 3.6 11.4-19-10.7-5.3-10.7 20.7zm-8.9 50.999c-.8 0-1.5-.7-1.5-1.5v-46.2c0-.8.7-1.5 1.5-1.5s1.5.7 1.5 1.5v46.2c0 .8-.7 1.5-1.5 1.5z" fill="#272727"/><path d="M42.868 76.135h-34.6c-4.1 0-7.4-3.3-7.4-7.4v-56.3c0-.6.4-1.2 1-1.4l9.1-3.3c.8-.3 1.6.1 1.9.9.3.8-.1 1.6-.9 1.9l-8.1 3v55.2c0 2.4 2 4.4 4.4 4.4h34.6c.8 0 1.5.7 1.5 1.5s-.7 1.5-1.5 1.5z" fill="#272727"/><path d="M59.868 45.836h-15.1c-.8 0-1.5-.7-1.5-1.5v-6.7c0-.8.7-1.5 1.5-1.5h15.1c.8 0 1.5.7 1.5 1.5v6.7c0 .8-.7 1.5-1.5 1.5zm-13.6-3h12.1v-3.7h-12.1v3.7zm48.1 15.5c-.8 0-1.5-.7-1.5-1.5v-17.8c0-.8.7-1.5 1.5-1.5s1.5.7 1.5 1.5v17.8c0 .9-.6 1.5-1.5 1.5z" fill="#0D805C"/><path d="M103.368 49.437h-17.9c-.8 0-1.5-.7-1.5-1.5s.7-1.5 1.5-1.5h17.8c.8 0 1.5.7 1.5 1.5s-.6 1.5-1.4 1.5z" fill="#0D805C"/><path d="M94.368 73.236c-3.3 0-6.6-.6-9.7-1.9-.8-.3-1.1-1.2-.8-2 .3-.8 1.2-1.1 2-.8 2.7 1.1 5.6 1.7 8.5 1.7 12.3 0 22.2-10 22.2-22.2s-10-22.2-22.2-22.2c-2.9 0-5.8.6-8.5 1.7-.8.3-1.6 0-2-.8-.3-.8 0-1.6.8-2 3.1-1.3 6.3-1.9 9.7-1.9 13.9 0 25.2 11.3 25.2 25.2.1 13.9-11.2 25.2-25.2 25.2z" fill="#0D805C"/><path d="M49.268 3.936h-24.2c-.8 0-1.5-.7-1.5-1.5s.6-1.5 1.5-1.5h24.2c.8 0 1.5.7 1.5 1.5s-.7 1.5-1.5 1.5z" fill="#272727"/></g><defs><clipPath id="clip0"><path fill="#fff" transform="translate(.868 .936)" d="M0 0h118.8v82H0z"/></clipPath></defs></svg>