<svg width="292" height="77" fill="none" xmlns="http://www.w3.org/2000/svg"><path d="M3.456 33.594H24.56c.766 0 1.148-.407 1.148-1.219v-6.387c0-.797-.41-1.195-1.23-1.195H3.456v8.8zM.502 21.852h24.61c2.351 0 3.527 1.171 3.527 3.515v7.582c0 2.375-1.176 3.563-3.527 3.563H.502v-14.66zm55.676 10.593v-6.41c0-.82-.39-1.23-1.172-1.23H35.108c-.781 0-1.172.383-1.172 1.148v6.457c0 .797.39 1.196 1.172 1.196H55.03c.765 0 1.148-.387 1.148-1.16zm-21.691 4.078c-2.344 0-3.516-1.175-3.516-3.527v-7.594c0-2.343 1.16-3.515 3.48-3.515h21.083c2.383 0 3.574 1.199 3.574 3.597v7.582c0 2.282-1.152 3.422-3.457 3.422l-21.164.035zm55.09 0H61.452V21.852h28.125v2.941H64.428v2.941h25.149v2.942H64.428v2.93h25.149v2.917zm30.574 0h-3.574l-3.539-4.699H94.944v4.7h-2.965l.035-14.649h24.621c2.321 0 3.481 1.152 3.481 3.457v3c0 2.328-1.184 3.492-3.551 3.492l3.586 4.7zm-4.219-11.73H94.944v4.125h21.082c.773 0 1.164-.414 1.172-1.242l.023-1.7c.008-.788-.422-1.183-1.289-1.183zm36.434 5.86v-2.895h14.648v5.168c0 2.398-1.176 3.597-3.527 3.597h-21.082c-2.36 0-3.535-1.199-3.528-3.597l.036-7.524c.007-2.343 1.16-3.515 3.457-3.515h24.644v2.918h-24.035c-.758 0-1.137.422-1.137 1.265v6.34c0 .797.379 1.196 1.137 1.196h19.957c.781 0 1.168-.395 1.16-1.184l-.012-1.77h-11.718zm45.199 5.87h-3.574l-3.539-4.699h-18.094v4.7h-2.965l.035-14.649h24.621c2.321 0 3.481 1.152 3.481 3.457v3c0 2.328-1.184 3.492-3.551 3.492l3.586 4.7zm-4.219-11.73h-20.988v4.125h21.082c.773 0 1.164-.414 1.172-1.242l.023-1.7c.008-.788-.422-1.183-1.289-1.183zm31.746 7.652v-6.41c0-.82-.39-1.23-1.172-1.23h-19.898c-.781 0-1.172.383-1.172 1.148v6.457c0 .797.391 1.196 1.172 1.196h19.922c.765 0 1.148-.387 1.148-1.16zm-21.691 4.078c-2.344 0-3.516-1.175-3.516-3.527v-7.594c0-2.343 1.16-3.515 3.481-3.515h21.082c2.383 0 3.574 1.199 3.574 3.597v7.582c0 2.282-1.152 3.422-3.457 3.422l-21.164.035zm52.195-4.125V21.875h2.895v11.05c0 2.4-1.176 3.598-3.528 3.598H233.87c-2.344 0-3.516-1.199-3.516-3.597V21.875h2.965v10.523c0 .82.383 1.23 1.148 1.23l19.981-.023c.765 0 1.148-.402 1.148-1.207zm29.309-7.593h-21.071l-.011 4.09h21.117c.711 0 1.074-.387 1.09-1.16V25.94c.008-.757-.367-1.136-1.125-1.136zm-21.071 7.043v4.675h-2.964V21.875h24.539c2.398 0 3.597 1.16 3.597 3.48v2.883c0 2.414-1.187 3.621-3.562 3.621l-21.61-.011z" fill="#343228"/><path d="M69.182 49.5l-3.18 5.89c-.226.42-.493.733-.8.94-.3.2-.63.3-.99.3a2.26 2.26 0 01-.86-.19l.21-.6c.24.093.46.14.66.14.46 0 .837-.25 1.13-.75l.2-.34-2.84-5.39h.79l2.44 4.74 2.5-4.74h.74zm7.496 1.74v5.26h-.71v-4.63h-3.3v4.63h-.71v-5.26h4.72zm6.728-.04c.493 0 .94.113 1.34.34.4.22.713.533.94.94.227.407.34.87.34 1.39 0 .527-.113.993-.34 1.4a2.43 2.43 0 01-.94.95c-.393.22-.84.33-1.34.33-.427 0-.813-.087-1.16-.26-.34-.18-.62-.44-.84-.78v2.93h-.71v-7.2h.68v1.04c.213-.347.493-.613.84-.8.353-.187.75-.28 1.19-.28zm-.05 4.72c.367 0 .7-.083 1-.25.3-.173.533-.417.7-.73.173-.313.26-.67.26-1.07s-.087-.753-.26-1.06a1.801 1.801 0 00-.7-.73c-.3-.173-.633-.26-1-.26-.373 0-.71.087-1.01.26a1.893 1.893 0 00-.7.73c-.167.307-.25.66-.25 1.06s.083.757.25 1.07c.173.313.407.557.7.73.3.167.637.25 1.01.25zm7.976-4.72c.687 0 1.214.173 1.58.52.367.34.55.847.55 1.52v3.26h-.68v-.82c-.16.273-.397.487-.71.64-.306.153-.673.23-1.1.23-.587 0-1.053-.14-1.4-.42-.347-.28-.52-.65-.52-1.11 0-.447.16-.807.48-1.08.327-.273.844-.41 1.55-.41h1.67v-.32c0-.453-.126-.797-.38-1.03-.253-.24-.623-.36-1.11-.36-.333 0-.653.057-.96.17a2.37 2.37 0 00-.79.45l-.32-.53c.267-.227.587-.4.96-.52.373-.127.767-.19 1.18-.19zm-.25 4.79c.4 0 .744-.09 1.03-.27.287-.187.5-.453.64-.8v-.86h-1.65c-.9 0-1.35.313-1.35.94 0 .307.117.55.35.73.233.173.56.26.98.26zm9.62-2.21c.714.167 1.07.597 1.07 1.29 0 .46-.17.813-.51 1.06-.34.247-.846.37-1.52.37h-2.39v-5.26h2.32c.6 0 1.07.117 1.41.35.34.233.51.567.51 1 0 .287-.08.533-.24.74-.153.2-.37.35-.65.45zm-2.66-.2h1.58c.407 0 .717-.077.93-.23.22-.153.33-.377.33-.67 0-.293-.11-.513-.33-.66-.213-.147-.523-.22-.93-.22h-1.58v1.78zm1.67 2.36c.454 0 .794-.073 1.02-.22.227-.147.34-.377.34-.69 0-.313-.103-.543-.31-.69-.206-.153-.533-.23-.98-.23h-1.74v1.83h1.67zm10.024-4.7v5.26h-.71v-4.63h-2.52l-.07 1.3c-.053 1.093-.18 1.933-.38 2.52s-.556.88-1.07.88c-.14 0-.31-.027-.51-.08l.05-.61c.12.027.204.04.25.04.274 0 .48-.127.62-.38a2.59 2.59 0 00.28-.94c.047-.373.087-.867.12-1.48l.09-1.88h3.85zm8.059 0v5.26h-.65v-1.74h-1.85l-1.22 1.74h-.77l1.31-1.84c-.407-.113-.72-.307-.94-.58-.22-.273-.33-.62-.33-1.04 0-.587.2-1.033.6-1.34.4-.307.946-.46 1.64-.46h2.21zm-3.73 1.82c0 .78.496 1.17 1.49 1.17h1.59v-2.36h-1.54c-1.027 0-1.54.397-1.54 1.19zm12.274-1.86c.493 0 .937.113 1.33.34.4.227.713.543.94.95.227.407.34.867.34 1.38 0 .513-.113.973-.34 1.38-.227.407-.54.727-.94.96-.393.227-.837.34-1.33.34-.467 0-.89-.1-1.27-.3a2.59 2.59 0 01-.93-.85 2.663 2.663 0 01-.41-1.24h-1.2v2.34h-.71v-5.26h.71v2.27h1.21c.053-.453.197-.853.43-1.2.24-.353.547-.627.92-.82a2.68 2.68 0 011.25-.29zm0 4.73a1.839 1.839 0 001.66-.99c.167-.313.25-.67.25-1.07s-.083-.757-.25-1.07a1.759 1.759 0 00-.69-.72 1.839 1.839 0 00-.97-.26c-.36 0-.687.087-.98.26a1.775 1.775 0 00-.68.72 2.24 2.24 0 00-.25 1.07c0 .4.083.757.25 1.07.167.313.393.557.68.73.293.173.62.26.98.26zm13.392-4.69v5.26h-7.26v-5.26h.71v4.64h2.58v-4.64h.71v4.64h2.55v-4.64h.71zm.81 4.64v1.77h-.67V56.5h-.89v-.62h1.56zm5.028-4.68c.686 0 1.213.173 1.58.52.366.34.55.847.55 1.52v3.26h-.68v-.82c-.16.273-.397.487-.71.64-.307.153-.674.23-1.1.23-.587 0-1.054-.14-1.4-.42-.347-.28-.52-.65-.52-1.11 0-.447.16-.807.48-1.08.326-.273.843-.41 1.55-.41h1.67v-.32c0-.453-.127-.797-.38-1.03-.254-.24-.624-.36-1.11-.36a2.75 2.75 0 00-.96.17 2.35 2.35 0 00-.79.45l-.32-.53c.266-.227.586-.4.96-.52.373-.127.766-.19 1.18-.19zm-.25 4.79c.4 0 .743-.09 1.03-.27.286-.187.5-.453.64-.8v-.86h-1.65c-.9 0-1.35.313-1.35.94 0 .307.116.55.35.73.233.173.56.26.98.26zm10.31-4.75v5.26h-.65v-1.74h-1.85l-1.22 1.74h-.77l1.31-1.84c-.407-.113-.72-.307-.94-.58-.22-.273-.33-.62-.33-1.04 0-.587.2-1.033.6-1.34.4-.307.946-.46 1.64-.46h2.21zm-3.73 1.82c0 .78.496 1.17 1.49 1.17h1.59v-2.36h-1.54c-1.027 0-1.54.397-1.54 1.19zm14.281 1.1h-1.2v2.34h-.71v-5.26h.71v2.31h1.21l1.85-2.31h.77l-2.07 2.55 2.22 2.71h-.84l-1.94-2.34zm7.885 2.39c-.506 0-.963-.113-1.37-.34a2.561 2.561 0 01-.96-.96 2.726 2.726 0 01-.35-1.38c0-.513.117-.973.35-1.38a2.49 2.49 0 01.96-.95c.407-.227.864-.34 1.37-.34.507 0 .964.113 1.37.34.407.227.724.543.95.95.234.407.35.867.35 1.38 0 .513-.116.973-.35 1.38a2.473 2.473 0 01-.95.96 2.76 2.76 0 01-1.37.34zm0-.63c.374 0 .707-.083 1-.25.3-.173.534-.417.7-.73.167-.313.25-.67.25-1.07s-.083-.757-.25-1.07a1.732 1.732 0 00-.7-.72 1.926 1.926 0 00-1-.26c-.373 0-.71.087-1.01.26a1.827 1.827 0 00-.7.72 2.25 2.25 0 00-.25 1.07c0 .4.084.757.25 1.07a1.9 1.9 0 00.7.73c.3.167.637.25 1.01.25zm12.068-4.68v5.26h-.65v-4.16l-2.13 3.52h-.32l-2.13-3.53v4.17h-.65v-5.26h.72l2.23 3.79 2.27-3.79h.66zm8.74 0v5.26h-.71v-4.63h-3.3v4.63h-.71v-5.26h4.72zm5.828-.04c.687 0 1.214.173 1.58.52.367.34.55.847.55 1.52v3.26h-.68v-.82a1.62 1.62 0 01-.71.64c-.306.153-.673.23-1.1.23-.586 0-1.053-.14-1.4-.42-.346-.28-.52-.65-.52-1.11 0-.447.16-.807.48-1.08.327-.273.844-.41 1.55-.41h1.67v-.32c0-.453-.126-.797-.38-1.03-.253-.24-.623-.36-1.11-.36a2.75 2.75 0 00-.96.17 2.36 2.36 0 00-.79.45l-.32-.53c.267-.227.587-.4.96-.52.374-.127.767-.19 1.18-.19zm-.25 4.79c.4 0 .744-.09 1.03-.27.287-.187.5-.453.64-.8v-.86h-1.65c-.9 0-1.35.313-1.35.94 0 .307.117.55.35.73.234.173.56.26.98.26zm6.27-4.75h.71v2.33h3.31v-2.33h.71v5.26h-.71v-2.32h-3.31v2.32h-.71v-5.26zm8.748 0h.71v4.18l3.51-4.18h.63v5.26h-.71v-4.18l-3.5 4.18h-.64v-5.26zm12.925 0v5.26h-.65v-1.74h-1.85l-1.22 1.74h-.77l1.31-1.84c-.406-.113-.72-.307-.94-.58-.22-.273-.33-.62-.33-1.04 0-.587.2-1.033.6-1.34.4-.307.947-.46 1.64-.46h2.21zm-3.73 1.82c0 .78.497 1.17 1.49 1.17h1.59v-2.36h-1.54c-1.026 0-1.54.397-1.54 1.19z" fill="#828282"/></svg>