<svg width="321" height="319" fill="none" xmlns="http://www.w3.org/2000/svg"><path opacity=".3" d="M90.163 107.8c5.454 0 9.876-4.503 9.876-10.057 0-5.555-4.422-10.057-9.876-10.057-5.453 0-9.875 4.502-9.875 10.057 0 5.554 4.422 10.057 9.876 10.057z" stroke="#fff" stroke-miterlimit="10"/><g clip-path="url(#clip0)" fill="#D8D8D8" fill-opacity=".76"><path fill-rule="evenodd" clip-rule="evenodd" d="M53.724 182.293l.859 1.595-.184 3.681 2.576 1.35 1.84 1.227 1.719-1.227h.122l2.577.122 2.7-1.656.306-2.086v-.123h.184l3.068.368 1.595-.49h.123l.06.122 1.228 2.393 2.7.92.551-.491.184-3.006-1.717-1.288-.062-.061v-.123l-.122-1.902-1.105-1.043-1.656-1.227-.123-.061v-.123l.184-2.945-3.313-2.576-.061-.062v-.061l-.307-2.025-1.288-.552-.123-.061v-1.411l-.49-.859-1.902-.123-.369.798v.061h-.122l-.798.184h-.061l-.062-.122-.552-.614h-.797l-1.288 1.104v2.27l-.737.982.614.491.061.061v.061l.062 1.043.06.246h-.244l-1.35-.062-.552.921.368 1.901v.062l-.062.061-4.294 4.356z"/><path fill-rule="evenodd" clip-rule="evenodd" d="M47.221 162.108l-1.472 1.78-.675 1.104.306 1.472 1.473.736-.184 2.27 3.803 2.393.123 4.417 2.945 5.644 4.172-4.171-.368-1.841-.062-.061.062-.062.675-1.104v-.123h.122l1.289.062-.062-.736-.675-.553-.184-.061.123-.184.798-1.104V169.9l-2.761-2.822-2.7-.552h-.06v-.062l-1.964-1.288h-.062v-.061l-.49-1.657-.982-.184-.981.552-.123.062-.062-.062-2.024-1.718z"/><path fill-rule="evenodd" clip-rule="evenodd" d="M49.797 152.354l-1.656.736-.797 1.595-1.166.307-.123 1.963 1.718 1.043-.43 3.742 2.025 1.718.92-.552h.123l1.166.184.122.061v.061l.553 1.718 1.84 1.227 2.76.552v.062h.062l2.76 2.822 1.228-1.105v-.061h1.166l.06.061.492.614.552-.061.306-.737-1.227-1.656v-.123l-.122-1.595-1.288-.429h-.123v-.123l-.43-.797v-1.473l-.613-.797v-3.007l-4.417-5.766-5.46-.184zm6.197-13.374l-2.7-.184-2.024-1.902.184-1.84-1.902-.368-1.104 2.699-3.988 3.374.307 2.209 2.086-.123 1.595 1.35.613 2.76 1.78-.184 2.147.43v1.35l-2.638 3.435 4.97.184 6.134-4.478-.49-.798v-1.166l.06-.061.737-.736v-.061l1.043-.614-.123-.797-1.227-.123-.675.552-.061.061-.123-.061-1.104-.614h-.062v-.061l-.736-1.35v-.061l-.061-1.166v-.061l.061-.061.614-1.105-2.945-.184h-.061l-.062-.061-.245-.184z"/><path fill-rule="evenodd" clip-rule="evenodd" d="M64.706 122.047l-.43.797-3.313 1.902-1.718 2.7-1.779 3.742-.184 3.006.491 1.779-1.288 1.595-.123 1.227.061.062 3.19.184 1.228-.552h.122l2.454.061 1.35-1.288.061-.062h.123l1.84.123h.123v.123l.798 2.638.675-.368.06-.062h.062l1.35.246h.123v.061l.674.982 3.62-.369 2.086-1.349 2.393-3.436.061-.797-1.595-1.964-.061-.061v-.061l-.246-1.779-3.987-.737h-.062l-1.963-1.472h-.061v-.061l-2.577-4.786-.798-1.963-.797-.429-1.534.429h-.061l-.368-.061zm-9.08 30.368l4.356 5.706.06.061v2.945l.614.797v1.534l.369.736 1.288.43 2.024.061.614-1.104h.061v-.062l3.804-3.067.43-3.129-1.657-1.534h-.061v-.061l-.86-1.841v-.061l.123-3.19-5.03-2.699-6.135 4.478z"/><path fill-rule="evenodd" clip-rule="evenodd" d="M69 160.82l-3.742 3.006-.675 1.166v.061h-.123l-1.963-.061.123 1.472 1.165 1.657 2.086.123h.123v.061l.614 1.043v1.288l1.288.614h.061v.122l.307 2.025 3.313 2.515 1.595-.736.43-.981-.246-1.596-.49-.981v-.184l.674-1.166.061-.061.062-.062 2.822-1.288 1.656-1.472v-1.841l-.368-1.227-1.472-1.165-.062-.062-.49-1.349-1.411-.123-2.209 1.043h-.123l-1.534-.184h-.06l-.062-.062L69 160.82z"/><path fill-rule="evenodd" clip-rule="evenodd" d="M78.51 167.2v.368h-.062l-1.78 1.595v.062l-2.821 1.288-.614 1.043.43.92h.06v.062l.246 1.656v.123l-.49 1.104v.061h-.062l-1.656.798-.184 2.822 1.595 1.166 1.165 1.104.062.061v.062l.122 1.963 1.657 1.227 2.454-.43 4.97-2.515.613-.859.061-4.11.43-2.822.06-.062 2.148-2.576-1.718-1.902-1.043.675h-.061l-.859.306h-.061l-.062-.061-1.41-.798-.062-.061-1.227-2.208-1.902-.062zm-11.35-16.564l-.123 3.129.797 1.779 1.718 1.534.062.061v.123l-.43 3.19 1.411 1.657 1.411.184 2.209-1.043h.123l1.41.123.123-.798v-.123l1.043-1.349 1.963-2.148v-1.411l.062-.061 1.227-1.227-.246-2.454-1.472-.859-.061-.061-.614-1.35-3.067.184-.737.859-.122.123-.123-.062-2.638-1.656-.736-.184-3.19 1.84z"/><path fill-rule="evenodd" clip-rule="evenodd" d="M79.184 157.201l-2.025 2.147-.92 1.288-.184.921.491 1.349 1.472 1.166h.062v.061l.43 1.35v1.288l2.024.123h.122l.062.123 1.227 2.27 1.227.675.797-.184 1.166-.737.123-.122.122.122 1.902 2.148 1.288.429 1.166-.061 3.804-3.375v-.061l2.024-1.411-.43-1.288-.797-2.148-3.926-6.625-2.393-.062-.859.737-.06.061-.124-.061-.981-.614-.92-.675-.491.368v.062h-.062l-1.656.429h-.123l-.92-.429-.675.613h-.122l-1.841.123zm-1.411-8.038l.552-.674.92-1.35v-3.068l-1.41-.797h-.062v-.061l-1.104-1.718v-.062l-.307-1.779-1.963 1.289h-.062l-3.742.368h-.123l-.061-.062-.675-.981-1.227-.184-.797.491-.246.122-.061-.245-.798-2.761-1.595-.123-1.41 1.289v.061h-.123l-2.516-.061-1.227.552-.736 1.227.061 1.104.675 1.227.92.552.614-.491.061-.061h.062l1.472.123h.184v.184l.184 1.104v.123l-.123.061-1.104.614-.675.675v.858l.491.859 5.153 2.761 3.252-1.902.061-.061h.062l.859.307h.06l2.516 1.533.675-.797.062-.061h.122l3.129-.185z"/><path fill-rule="evenodd" clip-rule="evenodd" d="M76.73 139.409l.245 1.902 1.105 1.656 1.472.798.061.061v3.497l-.981 1.35-.552.736.613 1.227 1.473.92.06.062.062.061.246 2.638v.123l-.062.061-1.227 1.166v1.165l1.718-.122.675-.614.061-.061h.123l.982.491 1.595-.43.552-.429.123-.062.122.062 1.043.736.798.552.797-.736h.123l2.454.061.92-1.411.675-1.779-.613-.552-1.105-1.411-.061-.061-.859-2.761-.061-.062.061-.061.614-1.902v-.061l2.085-2.393 1.289-1.165.245-1.411-1.595-1.902H88.08l-4.295-2.761-.061-.061v-.062l.123-1.656-.553-.246-.43.43v.061h-.06l-3.681.491v.43h-.062l-2.331 3.435z"/><path fill-rule="evenodd" clip-rule="evenodd" d="M93.356 143.151l-1.043.921-2.025 2.331-.552 1.84.86 2.638 1.042 1.411.675.614.123.061-.062.123-.674 1.963-.982 1.473 3.865 6.441 2.638-1.595.061-.061h.062l3.374-.123 3.742-2.208-.797-2.209-3.62-4.663-1.84-.797-.062-.061-1.35-1.473-.122-.123.061-.122 1.043-1.35.43-1.718-.86-.859-1.84 1.534-.123.123-.122-.123-1.718-1.84-.061-.062v-.061l-.123-2.025z"/><path fill-rule="evenodd" clip-rule="evenodd" d="M98.264 146.035l.245.245.123.062-.062.123-.429 1.84v.061h-.061l-.92 1.289 1.226 1.349 1.841.798.061.061 3.681 4.724.062.062.736 2.208 1.227-.245.859-1.289.061-.061h.123l2.208-.184h.062l.061.061.859.798 1.411-.798.429-4.846-2.208-1.227h-.062l-.061-.123-.061-2.024-1.043-.921-1.657.552-.061.062-.061-.062-5.399-2.883-3.19.368z"/><path fill-rule="evenodd" clip-rule="evenodd" d="M103.785 146.465l3.191 1.718 1.656-.553.061-.061.123.123 1.166 1.043h.061v.122l.061 1.964 2.27 1.227.062.061v.123l-.43 4.846 6.626.062.859-.553h.061l2.209.062h.123l.061.123.613 1.656 1.718.798h.062v.061l1.533 1.472 2.393-2.454.061-.061h.123l5.89.123.122-3.743v-.061l.062-.061 1.165-1.289-1.288-1.288-3.129.797h-.184l-4.724-2.822h-.061v-.061l-2.884-5.276-4.294-2.577-6.565-.368-2.27 1.595-.061.062h-.061l-2.516.122-.797 1.166-.061.061-3.007 1.841zm-9.938-5.522l2.883-1.288-.43-1.288v-.123l.86-4.785.061-.184.123.061 2.454.123 3.129-3.006-.43-3.559h-3.006v.184l-.307-.245-3.313-2.945-2.024.123h-.062l-.06-.062-2.394-1.963h-.06v-.061l-.43-1.779-1.78-1.227-.613.491-.307 1.595-.061.184h-.184l-4.356-.368h-.061l-.062-.062-1.472-1.288-4.295-1.166h-.06l-2.27-1.656-1.228-1.227-1.165 1.166-.675 2.883-1.289 1.963-.061.123h-.061l-3.006.552.797 1.779 2.515 4.785 1.902 1.35 4.05.736h.183v.184l.246 1.841 1.656 2.024.062.062v.061l-.062.246 3.497-.491.49-.43.062-.122.123.061.736.368.123.061v.123l-.123 1.595 4.11 2.638 3.866-.061h.122l.062.123 1.595 1.901z"/><path fill-rule="evenodd" clip-rule="evenodd" d="M112.19 141.434l-2.392-2.332-.123-.061.061-.123.92-3.374-1.779-2.209-1.595.062h-.061l-4.111-2.638-3.067 3.067-.061.062h-.123l-2.331-.184-.86 4.601.43 1.411.061.184-.184.061-3.006 1.35-.306 1.472.184 2.27 1.595 1.718 1.779-1.534.184-.122.061.122.491.491 3.558-.429h.062v.061l1.779.92 3.251-1.963.737-1.227.061-.061h.123l2.576-.123 2.086-1.472zm-4.478 71.595l-.123 2.27 1.166 2.883 1.411-.307 1.042-.859 2.086.982-.122 1.411-.614 1.288.736.798 1.964.675.858 2.822.798 3.497-.92 2.208.92 1.78 2.27-1.35.982.307.736 1.472.491 2.577 1.472 1.104 1.84-1.166 1.657.062 3.251 1.411-.122 1.533.675 1.166 1.656.307 1.288-1.411 1.411 1.411 1.78 1.104-.43 2.822.43 1.595 1.779 1.963 1.533.553 1.473-.921 1.227.368.859 1.841 3.742 1.166 1.595-1.166 1.595-2.331-2.822-6.197-.245-.184h-.062v-.061l-.674-1.841v-.122l.061-.123 1.534-1.166.429-1.104-.797-1.656-3.927-1.227-1.902.491-.92 2.269-.061.123-.123-.061-2.393-.184h-.061l-.061-.062-2.209-2.208-3.988-.92h-.122v-.062l-.921-1.718-.061-.122.123-.062 1.534-1.717-.982-1.043-.061-.062v-.061l.061-1.043.061-.123.123-.061 1.411-.43.184-2.453-2.086.122-1.043.675-.245.123v-.307l-.368-2.883v-.184h.122l.921-.369.122-1.779-.92-1.043-.061-.061v-.061l.122-4.049-1.165-1.596v-5.582l-1.104-2.393v-.123l.49-2.208-1.472-1.595v.245h-.061l-.737 2.454v.061l-.552 1.105-.061.061-4.295 2.393-1.043 1.963-.061.061h-.061l-2.884.92h-.061l-1.472.246-3.007 2.577-.061.061h-.061l-4.295.307-.122.184zm-21.043-1.779l1.902 1.84-.184 2.025-.491 1.595L89 218.673l2.209-.982 1.042-2.208 1.35-1.411 3.068.613 1.718-1.411 1.165-.061.92.675 3.129-.184 2.27-.614 1.534-.307.123-.122.061-1.411-.184-1.105-1.534-2.208v-.123l.184-2.699-1.718-2.148v-.061l-.674-2.515-.062-1.411-1.472-.491-4.233-2.331h-.123v-.123l-.061-2.331-4.11-.737h-.062l-4.417-2.576-.123-.062v-1.533l-.614-1.105-2.147-.184h-.061l-.061-.122-3.13-4.908-4.171 2.147h-.061l-2.454.429-.184 3.006v.123h-.062l-.675.614.246 2.454 1.227 1.595 1.902.429h.06v.061l3.375 3.252.061.061v2.577l-.06.061-1.473 1.718-.062 1.595 1.166.062 1.411-.614.245-.061v.245l.123 2.7.86 1.227 1.962.429h.123v.184l.123 4.479z"/><path fill-rule="evenodd" clip-rule="evenodd" d="M103.969 198.918l.062 1.411.613 2.454 1.779 2.148.062.061v.123l-.246 2.638 1.534 2.208v.062l.184 1.227-.061 1.227 4.171-.307 2.945-2.577.062-.061h.061l1.534-.246 2.822-.859 1.043-1.963.061-.061h.061l4.233-2.393.553-1.043.736-2.392.245-1.166-2.147-3.067-.859-.798-.982.675h-.061v.061l-.859.123-.122.061-.062-.122-1.718-2.454-.552.368-2.147 2.27-.061.061-1.227.736-.123.062-.061-.062-1.595-.368h-.062v-.061l-2.454-2.147-1.656-1.227-1.534.184-2.577.306-.981 1.411-.062.675.798.368.123.062v.122l-.307 1.718v.062l-.123.061-1.043.429z"/><path fill-rule="evenodd" clip-rule="evenodd" d="M98.08 193.643l.061 2.27 4.111 2.208 1.472.491 1.043-.429.245-1.412-.797-.429-.062-.061v-.123l.062-.798v-.061l1.104-1.595.061-.061h.062l2.638-.307 1.595-.184h.123l1.717 1.288h.062l2.392 2.147 1.534.369 1.166-.675 2.147-2.27v-.062l.552-.368-1.595-1.963-.123-.123.123-.122.675-.798-.123-1.718-3.251-.245h-.062l-.061-.061-1.84-2.638-2.332-.062h-.122v-.122l-.859-2.086-2.577-3.068-.307.43-.429 2.27-.062.061-.552.859-.122.123-.123-.062-3.865-1.35v4.111l-.062.061-.797.921.736 1.472v.123l-.368.981v.062l-3.19 3.006z"/><path fill-rule="evenodd" clip-rule="evenodd" d="M89.675 171.925l-1.166.061h-.061l-1.227-.429-2.147 2.515-.43 2.761-.061 4.11v.062l-.062.061-.674.92v.061h-.062l-.49.246 3.067 4.846 2.147.185.123.061.061.061.675 1.227v1.473l4.294 2.454 4.172.736 3.129-2.945.307-.859-.798-1.472-.061-.123.123-.061.859-.982v-4.049l-1.473-.123h-.123l-.06-.122-1.044-2.209-2.392-.429-.798.674-.184.123-.123-.184-1.472-2.454v-.061l-.246-2.761h-2.637l-.062-.123-1.104-3.251z"/><path fill-rule="evenodd" clip-rule="evenodd" d="M95.81 167.017l-2.025 1.411-3.803 3.374 1.104 3.129h2.761v.122l.245 2.884 1.35 2.27.675-.614.061-.061h.123l2.576.491h.062l.061.122 1.043 2.209 1.35.123v-.062l.245.062 3.988 1.411.491-.736.429-2.27.061-.062.491-.613.798-1.411.061-.982-1.104-.613-.062-.062v-.061l-.184-1.166-.674-.368-.369.552-.061.123h-.061l-2.7.061-.306.798-.062.123h-.122l-1.411-.246h-.062l-.061-.122-1.411-2.7h-.061v-.061l-.369-3.927-3.067-3.128zm12.515 10.797v1.043l-.061.062v.061l-.798 1.288 2.638 3.129v.061l.368.921 1.964-.552v-.062l2.576-.307.246-1.963v-.122h.122l1.289-.737v-.061h.061l2.638-.613.246-2.209-.737-3.865-4.969-1.657-2.883.859-.246 2.945v.061l-.123.062-2.331 1.656z"/><path fill-rule="evenodd" clip-rule="evenodd" d="M94.706 163.274l.736 2.025.552 1.349 3.19 3.252.061.061v.062l.368 3.987 1.412 2.577 1.104.184.307-.736.061-.062.123-.061 2.699-.061.368-.675.123-.184.184.123.859.49.123.062v.122l.184 1.166.981.552 2.27-1.595.245-3.006.062-.123.123-.061 2.883-.798.123-4.355v-.184h.184l2.638-.123 1.411-1.104.061-.062.123.062 2.822 1.779 2.27-3.129.123-.184.122.122 2.638 1.902 1.841-.797.859-.982-1.595-2.024-3.252-3.313-1.779-.798h-.061l-.062-.061-.552-1.657-2.024-.061-.798.552h-.123l-6.81-.061-1.533.92-.123.061-.123-.122-.92-.859-2.086.184-.859 1.227v.061h-.122l-1.35.307-3.926 2.331h-.062l-3.374.123-2.7 1.595z"/><path fill-rule="evenodd" clip-rule="evenodd" d="M121.025 168.305l-2.823-1.78-1.349 1.105h-.123l-2.515.122-.123 4.172 5.031 1.595.122.062v.122l.737 3.988v.061l-.246 2.025 1.35-.491v-.061h.061l4.172-.552h.123l2.945.92.061.061.061.062.92 1.533 1.534-1.411-.122-3.374-.675-1.595-2.025-2.27-5.276-.92h-.061v-.062l-1.227-.981-.062-.062v-.061l-.49-2.208z"/><path fill-rule="evenodd" clip-rule="evenodd" d="M130.963 180.329l-1.472 1.35-.123.123-.122-.184-1.043-1.657-2.884-.92-4.11.552-1.534.614-.123.061-2.699.675-1.227.675-.307 2.024v.184h-.123l-2.699.307-1.902.552.307.798 2.331.061h.062l.061.123 1.84 2.576 3.313.246h.123l.061.184.123 1.963v.123l-.675.736 1.534 1.84.123.185 1.717 2.515.737-.123 1.043-.736.122-.061.123.061 1.043.92v.062l2.209 3.128v.184l-.123.491 1.718 1.902.061.061-.061.062-.491 2.208 1.043 2.332h.429l.675-1.473.798-1.84.061-.123h.123l1.411.061h.061v.062l1.841 1.104.49-.613-.368-2.025-1.288-1.288-.061-.062v-.061l.306-2.086v-.184l.184.061 3.436.369 2.761-.859.368-2.27-.982-.184h-.061l-.062-.062-.674-.736-.123-.123.184-.122 1.472-1.105.062-.49-1.289-.123h-.122v-.184l-.184-.798v-.122l.736-1.289-.491-.368-2.454 1.35h-.123l-2.883-.614h-.123v-.061l-1.227-1.963-.061-.062-.736-2.392v-.062l-.062-5.46z"/><path fill-rule="evenodd" clip-rule="evenodd" d="M131.761 187.017l.368 1.104 1.165 1.902 2.761.552 2.516-1.411h.122l.062.062.736.49.123.123-.062.123-.797 1.411.122.613 1.35.184h.184l-.061.185-.123.736v.122h-.061l-1.35 1.043.491.553 1.043.122h1.779l1.718-1.595.061-3.988v-.184h.184l1.595.123 1.718-1.84 1.043-2.7v-.061l1.595-1.718 1.902-4.847-.982-.674v-.062l-1.104-1.227-1.472.246h-.062l-.061-.062-1.963-1.779-3.006-.123-.062 1.043-.184 1.473v.061l-.061.061-2.147 1.78-.123.122-.062-.061-1.717-.798-1.35-.122-1.35 4.908-.061.122h-.123l-2.883.491-1.411 3.497z"/><path fill-rule="evenodd" clip-rule="evenodd" d="M144.092 193.642l-1.779 1.657h-1.779l-.368 2.454-.062.061-.122.062-2.884.92h-.061l-3.313-.368-.245 1.779 1.288 1.288h.061v.062l.368 2.208v.061l-.061.062-.552.797-.123.184-.123-.122-1.963-1.227h-1.227l-.797 1.656-.675 1.595-.062.123H129v5.215l1.104 1.595.062.061v.061l-.123 4.049.92 1.043.062.062v.122l-.123 1.902v.123l-.123.061-.92.307.307 2.515.797-.552h.123l2.331-.122h.184v.184l-.184 2.822v.122h-.123l-1.472.43v.859l1.043 1.104.123.123-.123.122-1.595 1.718.736 1.534 4.049.92h.062l2.147 2.209 2.208.184.921-2.209.061-.061.061-.061 1.902-.491.246-1.657.245-1.779v-.122h.123l2.392-.553.307-1.963v-.061l2.025-3.374.061-.062 3.313-1.84.061-.062.123.062 1.656.859h.798l.613-2.148v-.122h.123l1.656-.552.921-.737-1.289-1.288-.736.307-1.227.675h-.184l-5.276-1.779h-.061l-1.227-.982-.062-.061-1.411-3.191v-.122l.614-1.841.061-.123h.062l2.515-1.533h.123l1.349.122h.123l.061.062 1.105 1.472v.062l.061 2.454 1.043.797 1.288-.613h.062l1.227.122h.061l.061.062.798.552 1.902 1.84.859-.491.674-1.227-1.165-1.533-.062-.062v-.061l-.184-1.227v-.061h.062l1.165-2.27.307-1.841-.981-.122h-.062l-3.435-1.534h-.062v-.062l-1.472-1.165-.061-.062-.491-1.656-1.411.368-.123.061-.123-.122-.613-.859v-.061l-.062-.062-.184-1.472-.245-.982-1.534-.368h-.184v-.123l-.123-2.085-3.742-.185h-.123v-2.883l-1.656.061zm11.35-31.656l-2.454 1.104-.062.062-.061-.062-6.994-2.699-2.392 2.638-.123.123-.123-.062-1.104-.92-.061-.061v-4.295l-.614-1.35v-.122l.061-.062 5.583-6.257-.184-2.761-1.656-1.963-2.209.368-3.19 2.086h-.123l-2.822-.123-.368 1.043 1.963 1.841.184.184-.184.122-2.454 2.516-1.227 1.349-.122 3.865v.184h-.185l-6.012-.122-2.392 2.454 1.472 1.533h.061l1.657 2.209.061.123-.061.061-.92 1.104-.062.062-2.024.92h-.062l-.122-.061-2.577-1.841-2.209 3.006.491 2.209 1.166.92 5.276.92h.061l.062.062 2.085 2.331v.061l.737 1.718v.061l.122 3.436v.061l.062 5.829.184.613 1.288-3.129v-.122h.123l2.883-.43 1.411-4.969v-.184l.184.061 1.534.123h.061l1.595.736 2.025-1.656.184-1.411.061-1.166v-.184h.184l3.252.123h.123l1.963 1.84 1.472-.307h.062l.122.062 1.105 1.349.92.675 1.534-1.718 1.227-1.595-1.411-1.227-.062-.061v-2.147l.123-.062 5.215-2.147-.184-2.822-3.129-4.049zm115.705-55.645l1.35.123.307-.92-.921-1.043-1.165.368.429 1.472zm4.417 7.118l1.657.674 1.718-.368-.737-2.515-2.085 1.166-.553 1.043z"/><path fill-rule="evenodd" clip-rule="evenodd" d="M279.491 114.746l-2.025.123-1.043 3.62-3.251-3.006-.92 3.067 3.497 3.804.184 3.313-6.381-5.706-.184-3.619 2.7-3.252.368-5.337-1.105.49-1.288 3.62-2.025 1.779-2.085.614-1.964 3.006.062 7.914-4.908 7.669.307 4.724h5.03l4.111 4.907v4.724l-2.945 3.497.797 1.595 2.332 1.289-4.295.981-1.227-4.478 3.19-5.583-1.411-4.233-4.846-.675-2.7 2.577-.306 5.889-4.54 4.602-4.111 1.533-2.76 3.006-9.448-5.828v-2.822l6.319 2.945 3.313-1.35 5.276-3.374 3.619-7.178-.613-3.926 6.135-14.479.675-2.515-.675-3.313 3.988-3.804.797-5.276-3.067-4.11 3.128-.43-.429-3.865-3.19-.245-.184 2.822.675 1.718-2.025-.798-3.006 2.27-3.62 4.601-2.76 2.7-4.234 1.043-2.208 2.086 2.208 2.883-2.392 4.295-3.313 1.042-.061 1.473 2.883 3.006-.982 2.822.491 1.779 1.104 1.595-3.742 3.375-1.166-1.902-1.042-4.295-3.865-6.257-2.27 1.901 1.349 2.332.062.061-.062.123-2.76 4.846 1.042 3.497.062.062-.062.061-1.717 2.638v.061h-.062l-2.76.921-1.78 2.147-.061.061h-.123l-6.871.307-3.497 2.883h-.061l-.061.062h-2.27l-.184 5.828v.123l-2.7 3.803 1.718 3.681 6.626.491h.061l.061.061 3.129 2.454.123.062v.061l.061 3.19 1.105 1.043 7.607.368.123.062.061.061 2.331 2.945v.123l.246 4.846 1.288 1.657v.122l-.061 3.19h5.092l.061.062 4.54 4.172 6.319 2.699.061.061v.062l2.332 3.803 4.11 2.516 4.172.429 3.435-2.515.123-.123.123.123 3.129 2.883 3.19-.061h.061l.062.061 2.392 3.497 1.289.123h.061l.061.061 2.27 2.27 4.785-6.073.307-3.865v-.123l3.19-4.356-.613-3.497-3.62-2.699-.061-.062v-.122l.92-5.092-2.392-3.252-.062-.061v-.062l.798-7.116-3.006-3.927-.062-.061v-.061l1.227-3.62-1.227-2.822-.061-.184.184-.061 3.926-1.043 1.595-4.172-.858-4.908-4.05-.982h-.061v-.061l-3.742-4.908-.062-.061.062-.123.736-2.945v-.123h.061l5.583-2.515.552-2.208-2.331-5.031h-.061l.061-.061.552-3.313.061-.123h.123l2.393-.429-2.27-4.847v-.43zm-83.374 119.08h2.822l2.27 3.865 1.84.307.061-.062.614-1.656h.061v-.061l3.313-3.068.491-2.331v-.062h.061l1.964-2.208.061-.061h.123l2.454.49.674-.981.369-1.841-.675-1.84-2.086-.798h-.123v-.122l-.307-1.105-.061-.122.061-.062 1.043-1.227.307-3.067v-.062l.061-.061 3.497-3.436.123-.122.123.122 2.024 2.025.123.061-.123.184-1.104 1.534 1.411.246h.061l3.559 2.576 2.76-.429h.062l.061.061 2.577 1.411 2.454.123 3.374-2.331-6.012-4.54-.062-.062-2.883-5.705-2.147-4.847-1.718-.368-3.558-1.472-.062-.062-1.779-1.656-.491 1.411-.061.123h-.123l-2.822-.123-.675.797h-.061l-1.779.982h-.123l-1.35-.307-.858.675-.062.062h-1.902l-2.27-.982-.92 1.779-.061.123h-.123l-3.129.613-2.024 3.497-.062.123h-.122l-5.644-.184-1.534 3.251.061 3.191v.122l-.123.062-1.472.368-.552 2.515 1.288 3.006.552 1.963 2.393.737.061.061 2.209 1.963.061.061v.062l.062 2.086 3.19 2.822.061.061.062.061.184 1.841z"/><path fill-rule="evenodd" clip-rule="evenodd" d="M169.368 230.391l5.644 1.288 3.19 2.025 1.902-1.472 2.822 1.472 9.387 1.779 3.436-1.534v-.061l-.185-1.779-3.251-2.884h-.061v-.122l-.062-2.025-2.147-1.902-2.393-.736-.122-.061-.062-.123-.49-2.024-1.35-3.007v-.122l.552-2.516-2.699-1.288-1.964.982-.122.061-.123-.123-1.595-2.086-3.497-1.165-3.926 1.165.184 1.105v.061l-.062 3.558v.123l-.061.061-5.338 3.988-.122 1.902 3.988 2.454.184.061-.123.184-1.534 2.761z"/><path fill-rule="evenodd" clip-rule="evenodd" d="M147.282 240.207l1.105-1.472 3.803-.307.307-2.7 1.779-1.043 1.902.123 2.331 1.779 1.411-1.288-1.717-2.822-.798-2.761 1.902-2.024 1.718-.491 2.576 2.822 5.399.307v-.062l1.534-2.638-3.988-2.392-.123-.062.062-.122.122-2.148v-.061l.062-.061 5.337-3.988.062-3.497-.43-2.454-1.472-1.35-.736.43-.062.061h-.061l-1.411-.368h-.062l-5.705-4.908-.982.245-.306 1.902v.062l-1.227 2.269.184 1.105 1.227 1.595.061.061-.061.123-.737 1.411v.061h-.061l-1.043.614-.123.061-.061-.123-2.024-1.901-.737-.553-1.104-.122-1.411.613-.061.062-.123-.062-1.166-.92-.061-.061v-.123l-.061-2.393-.982-1.349-1.288-.123-2.393 1.472-.613 1.718 1.349 3.006 1.166.982 5.215 1.718 1.165-.614.859-.429.123-.062.123.123 1.472 1.595.184.123-.184.123-1.104.858v.062h-.062l-1.595.491-.613 2.147-.062.184h-1.165v-.061l-1.657-.798-3.19 1.779-1.902 3.313-.306 2.025v.122h-.123l-2.393.552-.245 1.657-.246 1.656 3.927 1.166.122.061v.062l.859 1.779v.123l-.429 1.227v.061l-.061.061-1.473 1.166.552 1.595z"/><path fill-rule="evenodd" clip-rule="evenodd" d="M187.16 167.753l-.982 1.656-.675 1.595v.062l-3.251 4.233-4.847 4.724v.061h-.061l-4.05 1.841-.061 1.84 1.288 2.454.062.123-.062.123-1.779 2.024-.245 2.7-.061.061-1.166 1.411v.123h-.123l-3.803.184-.553 2.392v.062l-.061.061-1.595 1.043-.184.061-.061-.122-1.534-1.718-2.147 3.435-.062.062h-.061l-3.558.368-3.007 3.558.553 1.657 1.349 1.104 3.436 1.534 1.104.122 1.166-.245.123-.061.061.061 5.705 4.969 1.289.307.797-.552.123-.062.123.123 1.595 1.473v.061l.061.061.184 1.043 3.927-1.165.061-.062.061.062 3.62 1.227.061.061 1.534 2.024 1.963-.981.062-.061.061.061 2.822 1.35 1.411-.43-.061-3.067v-.062l1.595-3.374.061-.123h.123l5.644.184 1.963-3.374-1.411-2.208-.061-.062v-.061l.184-2.086.552-3.742-3.865-2.516h-.061v-.061l-.675-1.718v-.123l.061-.061 2.209-2.699-.491-2.27-.736-4.049v-.062l.061-.061 1.841-2.638-.123-3.006-2.147-5.092-3.62-2.147-.061-.062v-.061l-.553-2.515-1.042-.982z"/><path fill-rule="evenodd" clip-rule="evenodd" d="M212.067 145.851l-2.147.061-3.129 2.761-.061.061h-.061l-2.822.123h-.062l-.061-.062-.92-1.472-4.602 4.049-.674 2.638-.062.061-4.846 4.295-5.276 9.018 1.165 1.166v.061l.552 2.454 3.62 2.148.061.061.062.061 2.147 5.154v.061l.123 3.129v.061l-.062.061-1.84 2.577.736 3.988.491 2.393v.061l-.062.061-2.147 2.7.552 1.533 3.927 2.516.122.061v.123l-.613 3.865-.184 2.024 1.411 2.086 3.067-.613.982-1.902.061-.123.184.062 2.332 1.042h1.717l.859-.736h.184l1.35.307 1.718-.92.675-.798.061-.061h.123l2.76.123.553-1.534.122-.307.184.245 1.964 1.841 3.497 1.411 1.717.429h.123l.061.062 2.148 4.908 2.883 5.705 6.135 4.54 3.374-1.902.368-2.024v-.123h.062l2.086-1.35.061-.061h.061l2.393.307 2.086-6.687v-.062l.061-.061 2.945-2.209.123-.061h.061l3.19.92.062.062 4.233 2.822 6.441.061h.062l.061.061 4.479 3.313 5.46-3.129.061-.061.123.061 2.822 2.025 3.129-.368 3.497-1.534.613-1.595-3.926-2.27-.123-.061v-5.031l-2.331-2.331-1.227-.123h-.123l-.061-.061-2.393-3.497-3.129.061h-.184l-3.006-2.883-3.374 2.454-.062.061h-.061l-4.294-.429h-.062l-4.171-2.577h-.062v-.061l-2.331-3.804-6.319-2.761v-.061L239 180.39h-5.337v-.184l.061-3.312-1.288-1.657v-.123l-.246-4.846-2.208-2.884-7.608-.368h-.061l-.061-.061-1.227-1.104-.062-.062v-.061l-.061-3.19-3.068-2.393-6.687-.491h-.122l-.062-.122-1.84-3.865v-.123l.061-.062 2.699-3.865.184-5.766zM81.7 103.458l-.92.675-.553 1.411.123 4.724v.123l-.123.061-3.497 1.104-.184 1.657-.061.122h-.123l-1.166.123-.306 1.166v.061l-.553.491 1.227 1.165 2.209 1.657 4.294 1.104h.062v.062l1.472 1.288 4.172.307.307-1.534v-.061h.061l.798-.675.122-.062.123.062 1.963 1.411.062.061v.061l.429 1.718 2.27 1.902 2.025-.123h.06l.062.062 3.129 2.76.123-1.411-.552-1.779-1.411-1.534-.062-.122.062-.123 1.35-2.086-.246-2.27-1.227-2.454-.062-.061v-.061l.369-1.657-1.166-.184h-.123l-.061-.123-.307-1.165h-2.086l-.122-.062-.062-.061-.613-1.166-.062-.061.062-.061.552-1.043-.123-1.35-1.656-.552-.491.675-.061.061h-.062l-1.165-.123h-.062l-.061-.061-1.104-.982-1.78.246h-.122l-.062-.123-1.043-1.84-1.227-.552-2.024 1.042-.184.062-.062-.184-.552-1.718z"/><path fill-rule="evenodd" clip-rule="evenodd" d="M103.294 130.452l4.05 2.577 1.595-.062h.122l.062.062 1.902 2.331.061.123-.061.061-.921 3.374 2.454 2.332 6.626.368h.123l4.356 2.699h.061v.061l2.883 5.277 4.602 2.699 3.19-.798.061-.061.123.123 1.35 1.349 2.208-2.27-1.963-1.84-.123-.123.062-.122.49-1.227.062-.123h.122l2.945.123 3.068-2.025v-2.147l-2.148-1.043-.122-.061.061-.185.675-1.779-1.963-.675-1.289.614-.184.061-.122-.184-1.534-3.926-3.865-.123h-.061l-.062-.061-2.454-2.822-2.331-1.473v-.061l-2.27-2.086-6.564-7.423-.062-.062.062-.122.49-3.681v-.123l2.454-2.761-1.595-.49-.122-.062v-2.699l-1.964.061-1.349 1.289h-.123l-2.761-.123h-.122v-.062l-1.35-1.349h-1.227l-1.841.613-2.944 2.209-1.902 4.049-.062.123h-.122l-3.252-.246-1.779.92-1.288 2.025 1.35 1.472h.06v.062l.553 1.84v.062l-.123 1.595h3.313v.184l.429 3.742zM81.086 94.256l-1.902.184-3.129 2.392-1.779 2.516-3.497-.184-2.086 3.497-2.515.307-.123 2.699-3.68 2.393.183 3.496 1.534 1.902-1.718 2.086.368 1.718 2.454.614.491 2.515-.797 1.35h.184l1.595-.43h.061l.061.061.86.43 3.067-.614 1.165-1.84.675-2.884.062-.061 1.963-1.963.307-1.227.061-.123h.123l1.104-.122.245-1.534v-.123l.123-.061 3.436-1.105-.123-4.601v-.061l.613-1.534v-.061l1.166-.859 1.104-3.497L81.27 97.2v-.062l-.184-2.883z"/><path fill-rule="evenodd" clip-rule="evenodd" d="M100.104 89.348l-3.313.122-4.11 1.473-.184 3.313.368 1.472-1.165 1.043-.92-2.331-1.596-.062-2.515-2.454L83.6 93.95l-2.147.245.184 2.884 1.472 2.331v.184l-1.165 3.497.552 1.779 1.963-.981.062-.062.122.062 1.289.613h.061v.061l1.043 1.78 1.78-.246h.06l.062.061 1.165 1.043.982.123.49-.675.062-.122.123.061 1.902.613.122.062v.122l.123 1.473v.123l-.552.981.552.982 2.147.061h.123l.061.123.246 1.104 1.288.184.184.061v.185l-.368 1.84 1.227 2.393v.061l.245 2.086 1.596-.859h.122l3.129.245 1.902-3.987v-.062h.061l3.006-2.27.062-.061 1.902-.613h.061l2.638.061 1.35-1.104-2.516-3.375-1.656-.245-.123-.061v-.123l-.797-2.515-.982.061-.184 1.595-.061.184-.184-.061-.798-.184h-.123v-.062l-.613-1.104-.798.245-.122 1.841-.062.184h-.184l-1.104-.307h-.123l-.061-.061-.614-1.35-3.128.062h-.123l-.061-.062-1.227-1.902h-3.129v-.061l-.86-1.043-.06-.061.06-.123 5.154-6.196-.307-6.32zm44.049-12.454l.859-5.154 1.166 1.718-.491 3.62 1.534 3.19.368 5.276 2.086 3.19.552 3.313 7.791 4.724 4.786-.92 3.619-4.908.982-5.215-1.595-6.196.184-8.957-.982-3.313-2.515-4.05-.368-3.067 1.104-.675 1.473 2.086 1.472-1.043-1.35-2.699-5.337-3.558-7.608-.736-1.472 1.104-3.804 2.208.062 3.007-2.577 4.233-5.092.061-1.718 2.147 3.743 4.97.061.06v.124l-.614 2.944 3.068 1.534h.061l.062.061.49.92z"/><path fill-rule="evenodd" clip-rule="evenodd" d="M134.828 97.691l-.245-1.656.307-1.35-1.289-1.84 1.166-2.209 3.742-4.601 3.068-.982 1.84-3.129.675-4.478-.736-1.227-3.19-1.595-.123-.062.061-.122.552-3.007-3.619-4.846-4.233 5.337-2.209-.061-2.822 1.902-1.963-.123-.798 2.025-.92 1.656-1.595 1.227.92 1.718-1.104 1.104-3.742-.613-.982 3.497-.675 5.276-2.208.92-9.816-1.288-4.418.122.123 2.884 2.393-.491h.061l3.129.43.123.06v.062l1.288 1.718v.123l-.061 2.208v.123l-1.105 1.288.123 2.454-.307 2.147v.062l-.061.061-1.595 1.227-.491 1.227.614 1.288.858.185.123-1.718v-.184h.123l1.043-.307.184-.061.061.122.614 1.105.552.122.184-1.472v-.123l.184-.061 1.288-.123h.184v.184l.798 2.577 1.595.307h.061l.062.061 2.454 3.251.429-1.042-.307-3.129.062-.062 1.104-2.208.061-.062 4.049-4.417.123-.061h.061l2.393.613h.123v.062l.736 1.411.061.061v.061l-.368 2.393v.061h-.061l-1.779 1.718-2.945 3.374-.859 2.884 2.025-.061h.184v2.822l1.595.49 1.165-1.227.062-.061h1.533l.614-2.699v-.123l2.761-2.883-.675-1.105-.859-1.472-.061-.061.061-.062.613-2.27.062-.061 2.638-2.699.245-1.411.062-.185.184.062 1.84.49 1.166.185 1.411-1.534h.061l.184-.123zm42.148 20.246l-3.681 4.785 1.288 1.963.061.123-.061.122-.859 1.534.614 2.515.061.123-.123.062-2.392 1.411h-.062l-.123-.062-3.006-1.902-2.944.123h-.123l-.061-.184-.491-2.147-7.301-5.644-.859 1.227L159 125.36v.123l-.613 2.822v.061l-.062.061-1.718 1.718.737 1.411h.061v.062l.123 1.472v.184h-.184l-2.884.123-2.27 3.006-.122 1.779 2.76 1.104 1.105-1.349.061-.062h.061l2.577-.859.184-.061.061.123 1.596 3.251.061.123-.123.123-6.012 4.723-.123 2.639v.122l-.061.062-2.086 1.595-.061.061-.123-.061-2.638-1.043-1.841 1.533-5.582 6.197.552 1.349v4.172l.92.736 2.331-2.638.062-.061.122.061 7.055 2.7 2.454-1.104 1.412-3.436v-.123h.184l4.662.43h.062l.061.061 3.435 3.926L169 164.44l5.338.613 2.085-1.166.123-.061.123.061 5.705 4.724 3.559.491 6.38-10.92.061-.061 4.786-4.295.736-2.638.061-.061 4.724-4.233.184-.123.123.184.981 1.534 2.638-.123 3.129-2.822h.123l4.785-.123 3.497-2.883h.123l6.871-.307 1.779-2.147h.062l2.76-.92 1.595-2.516-1.043-3.435v-.184l1.289-2.209-1.35-.245-.859 1.288-.061.061h-1.718l-2.086 1.963-.061.062h-.123l-2.515-.614-1.902 2.209-.061.061h-.123l-5.706.491h-.061l-.061-.061-24.786-17.669-2.331.736h-.123l-10.674-1.165zm-37.853-27.178l.797.859 1.043-.675-.306-1.227-.798-.613-.613.858-.123.798zm74.417 2.822l1.288-.981v-2.086l-1.534-.368.246 3.435z"/><path fill-rule="evenodd" clip-rule="evenodd" d="M234.153 123.581l-1.901-3.497-5.031-5.399h-3.804l-.491 2.147-.122 3.313-2.7 1.595-1.472-.307-.982 1.534-1.902-1.534 2.148-1.963v-2.208l-7.056-.123-3.496-2.577-5.399.491-1.902-2.577 3.19-.306 1.657-3.313-4.295-.982-1.963 2.393-1.043-1.779-10.982-2.761-1.411 1.411-1.595-1.473-5.767 3.375-3.006-2.884.859-2.576-.859-2.638 3.559-1.166 3.312 2.27 1.595-2.577-.061-4.724-4.417-4.785-1.288 4.724-6.013 3.865-.49 3.006-2.884 2.577 1.104 6.012 3.191 4.724 2.883.368h.061l.062.061 1.533 2.27 10.675 1.166 2.454-.736.062-.062.122.062 24.786 17.73 5.582-.491 1.964-2.209.061-.122.123.061 2.515.552 2.086-1.902.061-.061h1.657l.859-1.288.061-.123h.123l1.595.307 1.288-2.27-1.35-2.393-.061-.123.061-.061 2.454-2.024z"/><path fill-rule="evenodd" clip-rule="evenodd" d="M225.319 113.213l-2.209.246-1.717-2.945.429-2.7 2.822-.674.798 3.006-.123 3.067zM191.025 99.41l1.717 2.269 4.05.123.429-1.534-.245-2.27-2.148-2.331-3.067 1.104-.736 2.638zm30.122 3.005l.921-8.834.674-3.436 2.945-3.129 3.497-1.165 1.411-2.025-.797-2.454 2.576 1.657 2.332-.246.552-1.718 1.534.062.122-1.718 1.902.675.307-1.718 1.411 1.534 1.043-1.411.368-2.147 2.024 1.41 1.227-1.165 2.7.614 2.27-2.577 17.055-.368 4.11-2.209.43-3.067-1.718-2.086-4.11 1.043-.737 1.534-6.993-.614-3.007-2.577-2.699 1.534-2.699-1.166-3.375 2.209h-2.822l-1.411 1.166-1.902-1.964-.92 4.11-2.086.124-.245 1.595-5.276 1.656-1.841-.797-1.165 1.35 1.472 1.533-2.086 2.025-3.374-1.412-.491 2.577-2.454-.123-.122 1.964-3.375 1.779-2.086-.736-2.331 1.779-.123 2.576 2.209 2.209.123 3.374-2.148 2.148 1.657 3.62 1.902.245.122 1.595 2.086.49 1.411.675zm-53.313 2.025l-3.006 2.7-1.411-2.577 1.963-.43-2.454-4.662-3.803.613-3.804-1.35-4.724.737-2.577 6.503-1.901-1.104-2.7-6.32.368-4.907-4.417.49-1.165 4.234 1.901 2.269-1.779 2.393-2.945-1.595-.49-3.374-.062.061-1.472 1.595-.061.062h-.123l-1.227-.246-1.657-.49-.245 1.288v.061l-.061.061-2.7 2.7-.552 2.086.798 1.411.797 1.227.062.122-.123.123-2.822 2.945-.614 2.761v.184h-1.656l-1.227 1.288-2.515 2.945-.491 3.558 6.503 7.362 2.208 2.086 2.332 1.472 2.454 2.822 3.865.123h.122l.062.123 1.533 3.865 1.166-.552h.123l2.27.736.184.061-.062.184-.736 1.841 2.086 1.043.123.061v2.209l2.147-.307h.061l.123.061 1.718 2.086v.061l.061.062.184 2.515 1.718-1.411.061-.061.123.061 2.638 1.043 1.902-1.472.123-2.638v-.123h.122l5.89-4.785-1.411-2.884-2.454.798-1.166 1.411-.122.123-.123-.062-2.945-1.227-.123-.061v-.123l.123-1.963v-.061l.061-.062 2.332-3.129.061-.061h.061l2.823-.123-.123-1.227-.859-1.472-.061-.123.122-.061 1.779-1.841.614-2.699-2.086-3.436-.061-.061.061-.123.982-1.472.122-.184.184.123 7.546 5.828.062.061v.062l.429 2.085 2.822-.122h.123l3.006 1.902 2.147-1.227-.613-2.454v-.123l.859-1.534-1.35-1.963-.061-.123.122-.122 3.743-4.847-1.473-2.147-2.883-.368h-.123l-.061-.062-3.19-4.846v-.062h-.062l-1.043-5.828zm100-68.282l1.289 1.165 1.718-1.472-.859-1.227-1.289.307-.859 1.227zm2.761 1.042l.92.737 1.657-.86.429-1.901-1.227-.307-1.779 2.331zm4.417-.244l1.595 1.472 3.313-1.656-.675-1.841-2.208-.92-1.963 1.595-.062 1.35zm3.497-3.497l1.411.675.921-1.043-1.166-1.105-1.166 1.473zm6.135-3.866l.43 1.473 1.411-.552-.552-1.78-1.289.86zm-4.662-3.68l.736.736 1.043-.797-1.473-1.412-.797.614.491.859zm-4.172.919l.184 1.166 1.595 1.043.92-1.411-.859-1.718-1.84.92zm-3.068 1.289l2.945 2.638-.368 2.209-2.945-.982-1.963-2.27 2.331-1.595zm8.221 8.405l.43 1.718 3.251-.062 1.288-2.147-1.042-1.78-1.412 1.964-2.085-.49-.43.797zm-8.896 3.926l.859 1.227.737-.982-.737-1.35-.859 1.105zm-8.098-8.527l1.35 2.208 1.534-1.472-.798-1.84-2.086 1.104zm3.804-.737l.307 1.35.859-.613-.675-1.473-.491.736zm-1.411-7.362l1.043 1.412.92-.92-1.534-1.412-.429.92zm-9.141-2.821l.491 1.902 1.411 1.104 1.963-.184 1.288.982.737-.92-1.534-1.412-1.411.43-2.945-1.902zm.368 4.785l-.123 1.595 1.473 1.472 1.472 1.902.491-.859-.43-1.779 2.025-.49 2.577.858 1.656-1.656-1.534-1.718-1.227-.43-1.288.982-1.779.245-1.104.491-2.209-.613zm3.19 6.135l-.307 1.043 1.166.736.123-1.472-.982-.307zM30.657 80.452l6.748 14.601 4.233-2.147.307-8.098-1.963-3.068-.92 3.62-2.025-1.288-1.657-4.724-2.024 1.288-2.7-.184zm23.742 107.546l-.062.982-3.067-.062-1.227 1.779-1.595.184-1.902 3.436-3.19 1.166-2.27-3.375-5.399-.736-2.515 2.638 5.399 3.19-1.596 1.105-2.822-1.718-1.595 1.288.982 1.902h2.025l.06.062 2.394 2.883.06.123-.06.122-1.78 3.313 2.332 2.822.061.123-.061.123-.552 1.043-.123 2.27 1.35 1.656 1.226-1.472.123-.062.123.062 2.024.736.798-1.227.061-.123.123.062 1.718.674.061.062v2.638l2.025.92.061.061v2.577l1.043 1.656 2.454-.306.797-1.411v-.123h4.111l2.331-2.638-.061-1.288-2.209-.246-.184-.061v-.123l-.123-1.902-2.085-2.883-.062-.061.062-.062 1.043-3.988-1.289-2.024-.122-.123.184-.123 2.883-1.656.123-.061.122.061 1.043 1.104 2.025-.184 1.166-2.331-.369-3.988-.06-.122.122-.062 3.067-2.024-.49-4.847-2.454-.123-1.718 1.227-.123.062-.061-.062-1.964-1.288-2.392-1.227z"/><path fill-rule="evenodd" clip-rule="evenodd" d="M75.32 217.63l3.373-1.105.491-2.638 2.884-1.595 3.129-.797 1.104-.368-.123-4.234-1.902-.368h-.061l-.062-.061-.92-1.35v-.122l-.122-2.454-1.166.49h-.061l-1.473-.061-.184-.061v-.184l.123-1.841v-.061h.061l1.473-1.718v-2.331l-3.252-3.129-1.902-.43h-.061l-.061-.061-1.35-1.718v-.122l-.246-2.454-2.699-.982h-.123v-.061l-1.165-2.332-1.473.43-.061.061-2.945-.429-.245 1.963v.123l-.123.061-2.7 1.656.553 5.031v.061l-.123.123-3.067 1.963.368 3.927v.122l-1.227 2.516-.062.061h-.122l-2.209.184h-.061l-.062-.061-1.043-1.043-2.638 1.534 1.289 1.901.061.062v.061l-1.104 3.988 1.963 2.761 4.908.552.552-1.411v-.123h.184l1.657.123h.122l.062.184.49 2.515 1.902.246 1.657-1.043.061-.062h.061l5.951 1.227h.123v.123l1.595 2.761z"/><path fill-rule="evenodd" clip-rule="evenodd" d="M60.718 240.452l3.129 1.166 8.405-.184-.675-3.313 2.086-.43 1.595-9.018-1.411-1.902-2.086-.491.307-1.656 2.576-2.454-2.27-3.19 1.105-.552 1.472-.675-1.472-2.638-5.829-1.227-1.533.981 1.104 2.761v.123l-1.104 5.214 1.35 2.454.06.062-.06.061-1.35 3.988.552 2.454.061.245h-.307l-2.454-.306-1.288.613-.123.061-.061-.184-.92-1.288-.798.92 1.289 3.068.06.122-.122.123-1.718 1.411v.061l-1.595.798 2.025 2.822z"/><path fill-rule="evenodd" clip-rule="evenodd" d="M54.153 241.741l3.13.061 2.944-1.35-1.963-2.76-.123-.184.184-.123 1.718-.92 1.656-1.289-1.288-3.067-.061-.123.061-.061 1.043-1.227.184-.184.123.184.92 1.411 1.227-.552h.061l2.27.245-.49-2.209v-.122l1.35-3.927-1.35-2.454-.062-.061.061-.061 1.105-5.215-1.105-2.761-1.963-.306h-.122v-.123l-.553-2.516-1.35-.122-.551 1.411-.062.123h-.122l-4.908-.553.122 1.595 2.209.246h.123v.184l.184 1.534v.061l-.062.061-2.515 2.761-.061.061h-3.988l-.798 1.473-.061.061h-.062l-2.637.307h-.123l-.062-.123-1.104-1.779-.061-.061v-2.393l-1.963-.92-.123-.061v-2.639l-1.35-.613-.797 1.288-.062.123-.122-.061-2.148-.798-1.165 1.411 1.35 1.657 1.41-.246.123-.061.061.123.92 1.349 1.903.491.06.061.062.062.86 2.208 1.901 3.313.061.062-.061.061-.49 3.313 2.024 3.681v.061l.736 2.884v.061l-.123 3.006 3.13 3.129v.061l.735 1.841z"/><path fill-rule="evenodd" clip-rule="evenodd" d="M34.828 252.17l-1.043 1.043.184 3.006 2.761 3.988-.184 4.233-.49 1.963 2.515 3.129 1.165-.491.736-1.227 1.473.798 1.595.49 1.902-1.165v-5.338l1.35-7.484 4.785-4.601.368-4.786-.49-2.147 2.33-1.718-.674-1.779-3.068-3.067-1.104.858-.062.062h-.06l-3.252-.184-1.78 1.411.614 1.288.061.123-.123.061-1.595.982 2.025 2.883 2.147.43h.123v.122l.736 2.638v.123l-.123.061-1.656.737h-.123l-1.656-.123-2.147 4.172-.123.245-.184-.184-1.657-1.411-.981 1.104-.061.123-.123-.061-4.11-.307z"/><path fill-rule="evenodd" clip-rule="evenodd" d="M33.97 248.367l.674 1.963.307 1.472 3.926.307 1.043-1.166.123-.122.123.122 1.656 1.35 2.086-4.11.061-.062h.123l1.78.123 1.471-.614-.613-2.392-2.086-.368h-.123v-.062l-2.883-4.11-2.209-.123-1.104.43 1.227 4.601.061.123-.184.061-5.46 2.577z"/><path fill-rule="evenodd" clip-rule="evenodd" d="M32.62 246.465l.061.858 1.043.798 5.399-2.577-1.105-4.356-.981.43-.982 2.945v.061l-.061.061-1.35 1.105h-.061v.061l-1.963.614z"/><path fill-rule="evenodd" clip-rule="evenodd" d="M28.387 240.206l.183 3.375 3.988 1.901.062.614 1.779-.614 1.35-1.043.92-3.006.061-.061.061-.061 2.209-.982-1.718-1.411-.675 1.104-.061.123h-.123l-4.54-1.104-3.374 1.104-.122.061z"/><path fill-rule="evenodd" clip-rule="evenodd" d="M25.442 233.274l2.085 2.331.123 3.19.675.982 3.497-1.104h.061l4.479 1.043 1.41-2.454-.613-1.964h-2.147l-.061-.061-4.11-3.742-2.945-.123-2.454 1.902z"/><path fill-rule="evenodd" clip-rule="evenodd" d="M20.288 223.703l2.454 4.111v2.515l2.454 2.7 2.516-1.964.061-.061h.061l2.884.123-.123-3.006v-.062l.061-.061 1.534-1.043-2.208-4.11-.737 1.472-.061.123h-.123l-2.638-.307h-.061l-.061-.061-1.473-1.964-4.54 1.595z"/><path fill-rule="evenodd" clip-rule="evenodd" d="M15.626 197.385l.184 3.497-1.104 1.288.49 1.472 1.595 1.227-.122 2.516.92 3.987-.307 3.681-.675 6.074.798 1.104 1.595-.675 1.043 1.78 4.785-1.657.123-.061.061.123 1.473 2.024 2.454.245 1.779-3.496.061-.062h.061l1.841-.736-.736-1.043-.061-.123.06-.122 1.044-1.964-1.166-1.042-.123-.123.123-.123 1.35-1.35.123-1.165v-.123l.122-.061 1.595-.614.184-.061.062.123.981 1.779 1.289-1.043.122-2.27v-.123l.491-.981-2.27-2.823-.061-.122.061-.123 1.78-3.374-2.21-2.761h-2.146l-.06-.123-1.228-2.392-3.68-3.313-.492 4.785-2.024-.981-3.804.184-1.41 1.779-2.823-4.724-2.147 2.086zm3.804 22.024l-.123-2.331v-.368h.368l2.454-.246v-1.779l.061-.061.062-.061 2.76-2.025-1.779-1.104-2.331-2.638-.062-.062-.06-.061v-.123l.306-2.086.061-.245v-.245l.246.061.245.061 1.963.675h.123l.061.062.062.061 1.533 2.454h2.516v.368l.122 2.209 1.534 1.288.061.061.062.062v.184l-.123 3.067v.123l-.061.061-.061.062-2.21 2.944-.306.368-.245.369-.062-.43-.06-.429-.308-2.516-3.497 3.865-.122.123-.123.123-.123-.062-.122-.061-2.639-1.227-.122-.061-.123-.062v-.122l.062-.246z"/><path fill-rule="evenodd" clip-rule="evenodd" d="M37.65 212.968l-1.35 1.165-.183.123-.123-.184-.982-1.779-1.288.552-.123 1.166v.061h-.061l-1.288 1.288 1.104.982.123.061-.062.123-1.043 2.025.736 1.165.123.184-.184.062-2.024.797-.798 1.657 2.393 4.54.061.122-.123.123-1.595 1.043.123 3.006 4.049 3.681h2.27l.061.123.675 2.208.062.062-.062.061-.675 1.227 1.963 1.595 2.332.123h.061l.061.061.675.92 1.411-.859-.613-1.227-.062-.184.123-.061 1.963-1.534.062-.061h.061l3.252.184 1.104-.92.184-2.945-.675-2.883-2.086-3.681-.061-.062v-.061l.552-3.313-1.902-3.252-.797-2.147-1.84-.552h-.062l-.061-.061-.92-1.289-1.412.246h-.123l-.06-.062-2.946-3.619zm-18.037 4.049l.185 2.393 2.638 1.227 3.742-4.172.245-.246.062.369.368 2.944 2.208-2.944.184-3.007-1.595-1.349-.061-.062-.061-.061-.123-2.331h-2.331l-.062-.062-1.595-2.576-1.963-.675-.307 2.086 2.27 2.638 1.963 1.227.246.184-.246.123-2.944 2.208v1.841h-.184l-2.639.245zm263.988 87.668l12.822-4.847 4.602-.306.858 1.165 6.872 1.534.49 3.129 2.638 1.288 7.301.798 2.884.368 1.472 1.411 2.331-.798 2.086-1.779 1.534-3.742-2.515-3.006.306-4.601 1.595-.491.062-2.086 2.147-.123.552-2.208-1.35-2.638-.061-.123.123-.061 1.472-1.718-.429-1.534v-.061l.061-.062 1.043-1.104-.245-1.043-3.007.184h-.061l-.061-.061-7.546-5.215-.43 2.086v.123h-.184l-9.141.797-.613 2.454v.123h-.123l-1.779.491.184 1.656v.123l-.062.061-2.453 1.595-.123 1.595v.184h-.123l-1.718.43-3.006 2.515-.061.062h-.123l-7.055-.921v-.061h-.061l-4.356-3.068-1.963-.122-1.289 3.374-.061.123h-.123l-4.969.306.307 3.497 3.006 5.338.061.122-.123.123-2.086 1.411.491 3.313z"/><path fill-rule="evenodd" clip-rule="evenodd" d="M255.81 294.501l.368 3.436 3.19 1.779.123 3.374 3.19.675 1.288 1.595 3.62-1.902.675 2.516 2.331 3.374 3.62.429 1.104-2.392 4.785-.184 3.191-2.393-.491-3.558v-.123l.122-.061 2.025-1.411-2.945-5.215v-.123l-.307-3.374-2.576 1.963-.123.123-.123-.123-2.331-3.006-.061-.061v-.062l.797-3.619-1.349-1.534-3.988-.123v.061h-.123l-2.515.491h-.062l-.061-.061-2.086-1.657-.123 1.657v.123l-2.024 3.006-.061.122h-.123l-3.681-.306-2.945.981-1.166 1.595 1.841.921.061.061v.061l.491 2.209.061.184h-.184l-3.435.552zm21.595-8.527l2.209-.798 1.656-.798 2.761-2.76-.614-1.718v-.123l.491-1.963-.675-2.638v-.061l.062-.062 1.84-2.331.92-2.822-2.699-.92h-.061v-.062l-.491-1.656v-.061l.061-.062 2.086-2.761-1.104-2.76v-.123l.49-2.209v-.061l.062-.061 2.822-1.35 1.411-1.411-2.945-5.767-.061-.061v-.062l.429-2.024-3.19 1.35-.061.061-.062-.061-4.171-1.841-4.724.675-1.78 2.147-.061.061h-5.031l-.122 13.129 1.779-.245h.184v.184l.307 2.638 2.454 2.638v.061l.797 2.27 2.27 1.657.184.122-.122.185-1.718 2.085 1.411 1.534.061.062v.122l-.675 2.7v.061l-.061.061-1.779 1.105-.123 3.128 4.049.123h.062l.061.061 1.411 1.412z"/><path fill-rule="evenodd" clip-rule="evenodd" d="M230.472 264.746l4.847 23.19 2.638-.429 1.779-2.577 1.718.675.491 2.7 5.46 3.006 4.356-1.595 2.27.981 1.656 3.436 3.19-.368-.49-1.902-1.902-.982-.184-.061.122-.184 1.35-1.841v-.061h.061l3.007-1.043h.122l3.558.307 1.902-2.884.184-1.963.062-.307.245.184 2.27 1.78 2.27-.43.184-3.374v-.123l.061-.061 1.841-1.104.613-2.516-1.472-1.595-.123-.123.123-.122 1.718-2.025-2.147-1.595h-.062l-.061-.061-.798-2.331-2.515-2.639v-.122l-.307-2.454-1.779.184-2.209 2.024-.061.062h-.123l-4.294-.368-1.288.981-.123.062-.123-.062-1.288-1.043-3.742 3.62-.123.123-.123-.123-2.945-2.822-.061-.062-.491-2.147-2.392-3.19-9.878 3.374h-.122l-2.086-.92-.982.675-.061.061-.123-.061-1.534-.982-2.086 1.227z"/><path fill-rule="evenodd" clip-rule="evenodd" d="M222.927 254.869l5.214.123-2.086 2.209 4.295 7.178 2.086-1.227.122-.062.062.062 1.595.981.92-.675.061-.061.123.061 2.086.921 9.939-3.436h.122l.123.061 2.454 3.375h.061v.061l.491 2.086 2.761 2.699 3.681-3.619.123-.123.122.061 1.35 1.105 1.227-.982.061-.061h.123l4.295.429 2.147-1.963.122-13.252h-1.779l-2.392 2.025-.184.123-.123-.123-1.043-1.35v-.184l.307-4.969-7.239-.184-.062-.062-.061-.061-1.289-2.393-3.742.123h-.184v-.184l-.736-2.638-2.331-3.067-12.638-6.013v4.172l-.062.061-2.392 1.411.674 2.638.123.307-.307-.061-3.067-.184-2.393.981-1.411 2.516.307 7.239v.061l-1.656 3.865z"/><path fill-rule="evenodd" clip-rule="evenodd" d="M203.479 238.06l1.411.429.122 2.638-.92.982.614 1.779-1.964 2.331.369 1.718 4.294.982.245 2.27 2.086.122 1.595.43 1.595 1.779-2.331 1.902v1.595l2.331-.675 2.025 1.043 1.779-.368 1.473-1.289 4.355-.797 1.657-4.049-.307-7.239v-.062h.061l1.411-2.638.062-.061h.061l2.454-1.043h.123l2.883.184-.675-2.577-.061-.122.123-.062 2.392-1.411v-10.123l-1.717-1.84-.123-.123.123-.122 1.84-2.209-.184-1.411-3.374 2.331-.062.062h-.061l-2.577-.123h-.122l-2.516-1.472-2.76.429h-.123l-3.62-2.577-1.595-.306-.306-.062.184-.245 1.165-1.657-1.779-1.717-3.313 3.251-.307 3.068v.061h-.061l-.982 1.227.246.92 2.086.798.122.061v.061l.737 1.964v.122l-.43 1.841v.061l-.736 1.166-.061.122-.123-.061-2.515-.491-1.841 2.086-.552 2.331v.123l-3.313 3.068-.613 1.595z"/><path fill-rule="evenodd" clip-rule="evenodd" d="M273.295 211.679l-2.7-1.963-5.399 3.129-.122.061-.123-.061-4.54-3.313-6.442-.123h-.061l-.061-.061-4.233-2.822-3.068-.859-2.822 2.147-2.147 6.749-.062.184-.122-.062-2.516-.245-1.901 1.227-.43 2.086v.061l-.061.062-3.436 1.963.184 1.656v.062l-.061.061-1.718 2.147 1.657 1.779v5.89l12.822 6.135h.061v.061l2.393 3.129.061.061.675 2.516 3.681-.062h.122l.062.062 1.288 2.454 7.301.184h.184v.184l-.307 5.153.859 1.105 2.331-1.964h7.117l1.779-2.086.061-.061h.062l4.846-.675h.123l4.11 1.841 3.313-1.473.184-3.374v-.123l.062-.061 3.497-2.638.429-1.595-3.006-.982h-.123l-2.147-2.208-.061-.062v-.061l-.307-2.822-.061-.123.122-.061 3.804-3.313.123-1.902-2.516-.307h-.122v-.122l-2.823-5.767-9.631-1.473-.184-.061v-2.883l.061-.062 1.288-1.595-1.349-4.724zm12.454 47.117l-1.166.552-.491 2.025 1.166 2.76.061.123-.123.061-2.085 2.822.429 1.473 2.761.981.184.062-.062.184-.981 3.006v.061h-.061l-1.78 2.27.675 2.577v.123l-.491 1.963.614 1.779.061.123-.061.061-2.884 2.884h-.061l-1.656.858-2.27.798-.798 3.497 2.147 2.822 2.761-2.086.246-.184v.123l4.908-.307 1.288-3.374.061-.184.123.061 2.086.123 1.411-3.068.061-.061h.062l2.638-.982.797-1.779v-2.086h.062l2.392-1.288-.123-2.086-.981-2.945-.061-.061-.491-2.822-2.148-3.313-.061-.061.061-.123.921-2.025-1.657-1.043-2.76.307h-3.191l-.061-.123-1.472-4.478zm-4.602-148.467l1.718 2.209 1.166-.491-.368-3.129-1.166-.613-1.35 2.024zm4.724-14.11l.92 1.165.921-.981-.43-1.534-1.166.368-.245.982zm32.638-54.663l3.743.675-.859-2.822-2.638.062-.246 2.085zm1.227 10.124l3.927 1.472-.552 1.902-1.78.981-2.638-1.84-.429-1.718 1.472-.797zm-7.178 25.95l1.841.982.122-1.41-1.165-1.412-.92.798.122 1.043zm-19.264 24.785l1.35 1.288.92-.92-.306-1.411-1.227-.307-.737 1.35zm3.313 1.656l.798.614.491-.982-.859-.981-.43 1.349zm2.025-3.741l.798.491.429-.86-1.166-.797-.061 1.166zm1.411-2.086l.859.675.859-1.166-1.35-.981-.736.49.368.982zm-6.258-7.117l.982.675 1.472-.859-.859-1.472-1.227-.368-1.165 1.043.797.981zm3.068-5.03l-.307.859.736 1.104.859-.92.062-.982-1.35-.061zm-2.332-35.522l-.184 1.166 1.166 1.227h1.718l-.062-1.473-1.165-1.595-1.473.675zm7.608-9.141l1.534.491 1.779-.43-1.043-2.27-1.289-1.042-.92.858-.184 1.473.123.92zm64.662 146.809l-1.227 1.35-.061.061h-.061l-2.884.614-2.576 1.165.122 2.884.736 1.963v.061l-.061.062-1.472 3.251 1.472 2.331v.123l.307 3.497v.123l-2.27 4.417v.061h-.061l-3.804 2.332 1.411 2.454.061.122-.061.123-1.595 2.209.859 2.883 3.251 1.043.123.061v.123l.429 2.147v.123l-.061.061-2.393 2.516-.122 1.779 1.533.429h.123l.062.123.736 2.27.061.123-.061.061-1.779 1.779-.737 2.699-.061.246-.184-.123-3.374-1.963h-.062v-.061l-1.595-3.497-3.067 1.411-.43 2.944v.062l-.061.061-6.81 7.178.307 3.436v.122l-.123.062-1.84.736-.184.061-.062-.184-2.638-5.644-1.779 2.331-.061.062h-.062l-7.055.306-2.76 5.154 3.128 4.908.062.061v.061l-.614 2.761v.123h-.122l-3.129.429-1.779 3.375-.614 9.079v.184h-.184l-3.006-.306-2.147.981v1.779l5.153 4.602 7.73 5.398 3.129-.184h.184l.061.184.123.491 1.963.062 3.497-2.516.123-.123.123.123 2.208 3.068 6.749 5.337h3.374l.061.061 2.577 3.252.061.061v.062l.307 2.515 3.558.675h.123v.123l.491 1.84 3.067-1.043.614-2.147h-3.436l-.061-.123-.736-1.534-.062-.122.123-.062 1.534-.92h.122l2.086-.307 4.233-2.944 1.534-2.332 3.129-2.822.675-2.086 1.84-3.19 2.209-3.435 1.902-5.277 1.472-4.233-1.534-3.558v-.123l.368-3.803v-.062l.062-.061 1.963-2.331-2.331-1.963-.062-.062v-.061l-.368-2.209-.061-.184h.184l4.049-.491.491-2.331.061-.184.184.061 2.147.737 3.804-1.289 1.043-2.392.061-.184.185.122 1.901 1.043h2.025l.061.062 1.35 1.84 8.037-2.147.859-3.436.061-.184h.184l1.595.246 2.025-2.27.306-.307.062.429.245 2.454 4.908.737 2.884-2.025.122-3.742-3.067-2.148-.062-.061v-.061l-.245-4.724v-.123l.061-.061 1.718-1.289.062-.061h.061l4.172-.123-3.927-8.895-2.086-1.473-3.681 1.657-.184.061-.061-.184-1.35-4.049-5.889-2.331-2.945.49-4.601 9.939-3.129 3.62-.123.122-.122-.122-2.209-2.209-1.411 2.515-.061.062h-.123l-4.233.184-2.884 2.208-.122.123-.123-.123-2.761-2.944-.061-.062v-.061l.491-7.607 2.515-5.829-3.252-.981h-.061l-.061-.062-1.534-3.435v-.123l1.166-4.846-2.638-1.473-.123-.061v-.123l.184-4.785-1.963-3.742-1.534 1.104-.061.061h-.062l-2.27-.184h-.184v-2.822l.062-.061 1.717-1.105-1.411-2.147zm-18.098 92.147l-.368-1.84v-.184l.184-.062 1.779-.552-.797-2.699-.062-.184.184-.061 2.148-.798.184-.061.061.122 1.657 3.313 4.171-2.454.123-.061.123.123 1.411 2.024 1.227 1.104 1.595-.613h2.454l.061.061 1.104 1.718.062.123-.062.122-4.294 5.461-.123.122-.122-.122-2.638-1.841-3.191.307h-.061l-.061-.062-1.902-1.165-2.27-1.657-2.331-.184h-.246z"/><path d="M363.417 188.06l-.123.123-.061-.123-2.086-1.595h-5.03v-.246l.306-2.76.062-.062 2.883-3.497.859-2.269-1.902-1.289-.061-.061v-2.577l-1.595-1.779-.062-.061v-.123l.737-3.558-1.902-1.411-.123-.123.123-.184 2.822-3.129-1.043-13.251-3.313-5.093 1.656-.858 3.988-3.313h.123l2.392.245.859-4.11v-.062l1.166-1.779.307-2.331v-.061l.061-.062 4.908-3.865-2.086-2.577h-.061v-4.049l-4.295-6.073v-.062l-.613-3.067-1.288-1.779h-.062v-.123l.123-1.718-2.638 1.289-2.945 2.331-4.11 1.166-1.595 2.822.061-3.988 8.343-8.589 4.602-8.344 2.086-7.361-6.442-7.301-5.951-.246-2.147 3.007-2.393.43 1.841-5.093-4.908-.614 1.595-2.33-3.006-2.455-2.7.982-4.294 6.38.981 3.804-4.601.307.123 1.227 1.656 2.454-3.251-.675-1.718 1.595-3.804-.675-.491-1.718-5.398.123.061 3.067-6.503.92-4.356 3.498-3.436.122-2.515 2.147-1.104 4.54 2.147 3.804-3.251.798-8.467-1.411-4.908-.123-1.472 2.699-.245 6.994 3.128 3.006 1.473 3.497h-4.295l-3.681-6.871-2.699.184v.307l2.393 5.031.061.245h-.245l-2.516.429-.552 3.129 2.331 4.97.062.061-.062.061-.552 2.393-.061.061-.062.062-5.582 2.515-.675 2.761 3.619 4.785 4.111 1.043h.123v.123l.92 5.153-.307.675-1.411 3.681-.061.061h-.062l-3.803 1.043 1.165 2.699v.123l-1.165 3.558 2.944 3.865.062.062v.061l-.736 7.117 2.392 3.313v.122l-.859 5.092 3.559 2.638.061.062v.061l.613 3.681v.061l-.061.062-3.129 4.356-.306 3.926v.061h-.062l-4.908 6.258v4.847l4.049 2.269.123.062-.061.184-.737 1.84v.062h-.061l-3.62 1.533h-.061l-3.006.43 1.288 4.662.062.062-.062.061-1.349 1.657v2.454l9.57 1.472h.123l.061.123 2.761 5.767 2.638.306.123.062v.184l-.123 2.147-.061.061-.062.062-3.742 3.313.307 2.699 2.086 2.086 3.128.981.184.062-.061.184-.491 1.84v.062h-.061l-3.436 2.638-.184 3.435v.123l-.49 2.209 3.006 5.828.061.122-.123.062-1.472 1.534h-.061l-1.289.613 1.473 4.417h2.883l2.883-.307h.123l1.841 1.166.122.123-.061.123-.982 2.085 2.148 3.252v.123l.49 2.822 1.043 3.006v.061l.184 2.147v.123l-.122.062-2.393 1.288v1.963h-.061l-.798 1.841-.061.061-.061.061-2.639.982-1.411 2.945 4.234 3.006 6.932.859 3.006-2.454v-.062h.062l1.595-.368.122-1.595v-.123l.062-.061 2.454-1.534-.184-1.717v-.185l.122-.061 1.841-.429.613-2.454v-.123l.123-.061 9.203-.798.429-2.086-5.092-4.601-.061-.061V269.9l.061-.061 2.331-1.043v-.061h.062l2.883.307.552-8.958.062-.061 1.84-3.497v-.123h.123l3.067-.429.552-2.515-3.129-4.97-.061-.122.061-.062 2.884-5.337.061-.123h.062l7.055-.307 1.963-2.515.184-.245.123.306 2.638 5.767 1.595-.613-.307-3.374v-.123l.061-.061 6.81-7.424.43-2.945v-.061l3.619-1.718.062.184 1.656 3.62 3.129 1.84.675-2.515v-.061l.061-.062 1.718-1.717-.675-2.086-1.595-.43-.123-.061v-.123l.123-1.963v-.061l.061-.062 2.393-2.515-.429-1.963-3.252-1.043h-.061l-.062-.123-.92-3.006v-.123l.061-.061 1.596-2.209-1.473-2.454-.061-.184.122-.061 3.927-2.393 2.208-4.355-.306-3.375-1.473-2.392-.061-.123.061-.061 1.473-3.313-.736-1.902v-.061l-.123-3.007-.062-.122.123-.062 2.761-1.227h.061l2.822-.613 1.227-1.35-1.043-1.288-2.147 1.411zm-181.104-19.08h-.061l-.062-.061-5.644-4.663-2.086 1.104-.061.062h-.061l-5.583-.675-3.743-1.963-.061-.062-3.436-3.865-4.478-.429-1.288 3.251 3.128 4.172.062.061v.062l.184 3.006v.123l-.123.061-5.215 2.147v1.779l1.473 1.227.122.123-1.656 2.147-1.411 1.595-1.902 4.908v.062h-.061l-1.595 1.779-1.043 2.699v.062l-1.779 1.901-.062.062h-.122l-1.473-.123-.061 3.742 1.718-.061h.184v2.883l3.681.184h.122v.185l.184 2.085 1.596.368.061.062.061.061.246 1.043v.061l.184 1.473.552.736 1.411-.368 3.067-3.681.062-.061h.061l3.497-.368 2.27-3.497.123-.246.122.184 1.595 1.779 1.411-.92.553-2.454.061-.123h.123l3.926-.184 1.043-1.349.245-2.7.062-.061 1.717-2.025-1.288-2.392v-.123l.061-1.963v-.123l.123-.061 4.172-1.841 4.785-4.724 3.19-4.233.553-1.349-3.436-.491zM14.092 194.378l2.147-2.515-4.846-6.381 2.883-8.159-2.024-1.718-1.84 1.288-7.056-4.846-.92 1.411.306 5.767-2.699 2.822.736 3.988 4.663-.307 5.153 6.564 3.497 2.086z"/></g><g opacity=".3"><path opacity=".3" d="M46.28 211c8.184 0 14.817-6.756 14.817-15.09s-6.633-15.09-14.817-15.09c-8.183 0-14.816 6.756-14.816 15.09S38.097 211 46.28 211z" fill="#DC1818"/><path opacity=".3" d="M46.28 211c8.184 0 14.817-6.756 14.817-15.09s-6.633-15.09-14.817-15.09c-8.183 0-14.816 6.756-14.816 15.09S38.097 211 46.28 211z" stroke="#fff" stroke-miterlimit="10"/></g><path opacity=".5" d="M46.28 204.926c4.89 0 8.854-4.037 8.854-9.017 0-4.98-3.964-9.017-8.853-9.017-4.89 0-8.855 4.037-8.855 9.017 0 4.98 3.965 9.017 8.855 9.017z" fill="#DC1818"/><path d="M46.28 201.061c2.795 0 5.06-2.307 5.06-5.152 0-2.846-2.265-5.153-5.06-5.153-2.794 0-5.059 2.307-5.059 5.153 0 2.845 2.265 5.152 5.06 5.152z" fill="#DC1818"/><g opacity=".3"><path opacity=".3" d="M65.918 223c8.183 0 14.817-6.756 14.817-15.09s-6.633-15.09-14.817-15.09c-8.183 0-14.816 6.756-14.816 15.09S57.735 223 65.918 223z" fill="#DC1818"/><path opacity=".3" d="M65.918 223c8.183 0 14.817-6.756 14.817-15.09s-6.633-15.09-14.817-15.09c-8.183 0-14.816 6.756-14.816 15.09S57.735 223 65.918 223z" stroke="#fff" stroke-miterlimit="10"/></g><path opacity=".5" d="M65.918 216.928c4.89 0 8.854-4.037 8.854-9.017 0-4.98-3.964-9.017-8.854-9.017-4.89 0-8.854 4.037-8.854 9.017 0 4.98 3.965 9.017 8.854 9.017z" fill="#DC1818"/><path d="M65.918 213.063c2.794 0 5.06-2.307 5.06-5.152 0-2.846-2.265-5.153-5.06-5.153-2.794 0-5.06 2.307-5.06 5.153 0 2.845 2.266 5.152 5.06 5.152z" fill="#DC1818"/><path d="M89.545 103.125c2.794 0 5.06-2.307 5.06-5.152 0-2.846-2.266-5.153-5.06-5.153-2.794 0-5.059 2.307-5.059 5.153 0 2.845 2.265 5.152 5.06 5.152z" fill="#0D805C"/><path stroke="#0D805C" d="M89.601 77.34v15.518"/><path fill="#0D805C" d="M61.902 62.82h97.208v18H61.902z"/><path d="M70.743 68.839c-.57 0-1.011.215-1.324.644-.312.427-.468 1.022-.468 1.787 0 1.592.597 2.388 1.792 2.388.501 0 1.108-.125 1.821-.376v1.27c-.586.244-1.24.366-1.963.366-1.038 0-1.833-.314-2.383-.942-.55-.632-.825-1.537-.825-2.715 0-.742.135-1.392.405-1.948.27-.56.658-.989 1.162-1.285.508-.3 1.102-.449 1.783-.449.693 0 1.39.168 2.09.503l-.489 1.23a8.065 8.065 0 00-.805-.331 2.404 2.404 0 00-.796-.142zm6.694 5.981l-.288-.742h-.04c-.25.316-.509.536-.775.66-.264.12-.61.18-1.036.18-.524 0-.937-.15-1.24-.45-.3-.299-.45-.725-.45-1.279 0-.579.203-1.005.606-1.279.407-.276 1.02-.43 1.836-.459l.948-.03v-.238c0-.554-.284-.83-.85-.83-.436 0-.949.131-1.538.395l-.493-1.006a4.438 4.438 0 012.09-.493c.732 0 1.294.16 1.684.479.39.319.586.804.586 1.455v3.637h-1.04zm-.44-2.529l-.576.02c-.433.013-.755.09-.966.234-.212.143-.318.361-.318.654 0 .42.241.63.723.63.345 0 .62-.1.825-.298.208-.198.313-.462.313-.79v-.45zm4.507-2.93v2.1h2.08v-2.1h1.49v5.46h-1.49v-2.252h-2.08v2.251h-1.489v-5.459h1.49zm8.711 0h1.641l-2.163 2.617 2.353 2.842h-1.69l-2.23-2.768v2.768h-1.49v-5.459h1.49v2.652l2.09-2.652zm7.13 0v1.118h-1.788v4.341h-1.49v-4.34h-1.791v-1.12h5.068zm.536 3.389v-1.22h2.622v1.22h-2.622zm9.473 2.07h-1.509v-5.879h-2.627v5.88h-1.513v-7.14h5.649v7.14zm3.945-4.502c-.315 0-.563.101-.742.303-.179.199-.281.482-.307.85h2.089c-.006-.368-.102-.651-.288-.85-.185-.202-.436-.303-.752-.303zm.21 4.6c-.879 0-1.565-.243-2.06-.728-.495-.485-.742-1.171-.742-2.06 0-.915.227-1.621.683-2.12.459-.5 1.092-.751 1.9-.751.771 0 1.372.22 1.801.659.43.44.645 1.046.645 1.821v.723h-3.521c.017.423.142.754.376.991.235.238.563.357.987.357.328 0 .639-.035.932-.103.293-.068.599-.177.918-.327v1.152c-.26.13-.539.227-.835.288a5.132 5.132 0 01-1.084.098zm7.954-5.557v1.118h-1.787v4.341h-1.489v-4.34h-1.792v-1.12h5.068zm3.282.957c-.316 0-.564.101-.743.303-.179.199-.281.482-.307.85h2.09c-.007-.368-.103-.651-.288-.85-.186-.202-.437-.303-.752-.303zm.21 4.6c-.879 0-1.566-.243-2.061-.728-.495-.485-.742-1.171-.742-2.06 0-.915.228-1.621.683-2.12.459-.5 1.093-.751 1.9-.751.771 0 1.372.22 1.802.659.429.44.644 1.046.644 1.821v.723h-3.52c.016.423.141.754.376.991.234.238.563.357.986.357.329 0 .64-.035.933-.103.293-.068.599-.177.918-.327v1.152c-.261.13-.539.227-.835.288a5.145 5.145 0 01-1.084.098zm6.435 0c-.641 0-1.144-.233-1.509-.698h-.078c.052.456.078.72.078.79v2.213h-1.489V69.36h1.211l.21.708h.068c.349-.54.865-.81 1.548-.81.645 0 1.149.249 1.514.747.364.498.547 1.19.547 2.075 0 .583-.087 1.089-.259 1.519-.169.43-.412.756-.728.981a1.867 1.867 0 01-1.113.337zm-.439-4.468c-.368 0-.637.114-.806.342-.169.225-.257.597-.264 1.118v.161c0 .586.087 1.006.259 1.26.176.254.453.38.83.38.668 0 1.001-.55 1.001-1.65 0-.537-.083-.939-.249-1.206-.163-.27-.42-.405-.771-.405zm3.437 1.099c0-1.253.238-2.204.713-2.852.479-.65 1.224-1.063 2.236-1.235a64.35 64.35 0 012.203-.322l.17 1.299c-.423.048-1.173.153-2.251.312-.41.065-.716.163-.917.293a1.19 1.19 0 00-.455.557c-.097.24-.157.561-.18.962h.073c.173-.267.4-.472.684-.616.283-.143.587-.215.913-.215.673 0 1.198.207 1.572.62.374.41.561 1 .561 1.768 0 .885-.237 1.574-.712 2.066-.472.488-1.125.732-1.958.732-.834 0-1.485-.298-1.954-.894-.465-.599-.698-1.424-.698-2.475zm2.739 2.163c.707 0 1.06-.487 1.06-1.46 0-.947-.319-1.42-.957-1.42-.176 0-.352.04-.527.121a1.935 1.935 0 00-.479.322 1.41 1.41 0 00-.317.396c0 .66.106 1.167.317 1.518.212.349.513.523.903.523zm3.033-4.35h1.631l1.03 3.07c.088.267.148.583.18.948h.03c.036-.335.106-.651.21-.947l1.01-3.072h1.597l-2.309 6.158c-.212.57-.515.996-.909 1.279-.39.283-.848.425-1.372.425a3.46 3.46 0 01-.757-.083v-1.182c.18.042.375.064.586.064.264 0 .494-.082.689-.245.198-.16.353-.402.464-.727l.088-.269-2.168-5.42zm9.472 5.556c-.641 0-1.144-.233-1.508-.698h-.079c.052.456.079.72.079.79v2.213h-1.49V69.36h1.211l.21.708h.069c.348-.54.864-.81 1.547-.81.645 0 1.149.249 1.514.747s.547 1.19.547 2.075c0 .583-.086 1.089-.259 1.519-.169.43-.412.756-.727.981a1.872 1.872 0 01-1.114.337zm-.439-4.468c-.368 0-.637.114-.806.342-.169.225-.257.597-.263 1.118v.161c0 .586.086 1.006.258 1.26.176.254.453.38.83.38.668 0 1.001-.55 1.001-1.65 0-.537-.083-.939-.249-1.206-.162-.27-.42-.405-.771-.405zm-75.83 12.911v1.118h-2.28v4.341h-1.49v-5.459h3.77z" fill="#fff"/><path fill="#DC1818" d="M155.183 170.82h81.497v18h-81.497z"/><path stroke="#DC1818" d="M172.375 182.058v16"/><path d="M165.102 182.82h-4.112v-7.138h4.112v1.24h-2.598v1.567h2.417v1.24h-2.417v1.841h2.598v1.25zm4.956-5.459h1.64l-2.163 2.618 2.354 2.841h-1.69l-2.231-2.768v2.768h-1.489v-5.459h1.489v2.652l2.09-2.652zm6.079 5.459l-.288-.742h-.039c-.251.316-.51.536-.777.659-.263.121-.608.181-1.035.181-.524 0-.937-.15-1.24-.449-.299-.3-.449-.726-.449-1.28 0-.579.202-1.005.605-1.279.407-.277 1.019-.43 1.836-.459l.948-.029v-.239c0-.554-.284-.83-.85-.83-.436 0-.949.131-1.538.395l-.493-1.006a4.434 4.434 0 012.089-.493c.733 0 1.294.16 1.685.479.391.319.586.804.586 1.455v3.637h-1.04zm-.439-2.529l-.577.02c-.433.013-.755.091-.966.234-.212.143-.318.361-.318.654 0 .42.241.63.723.63.345 0 .62-.099.825-.298.208-.198.313-.462.313-.791v-.449zm7.534-2.93v1.118h-1.787v4.341h-1.49v-4.341h-1.792v-1.118h5.069zm3.281.957c-.316 0-.563.101-.742.303-.179.199-.282.482-.308.85h2.09c-.007-.368-.103-.651-.288-.85-.186-.202-.436-.303-.752-.303zm.21 4.6c-.879 0-1.566-.243-2.061-.728-.494-.485-.742-1.171-.742-2.06 0-.915.228-1.621.684-2.119.459-.502 1.092-.752 1.899-.752.772 0 1.372.22 1.802.659.43.439.644 1.047.644 1.821v.723h-3.52c.016.423.142.753.376.991s.563.357.986.357c.329 0 .64-.035.933-.103.293-.068.599-.177.918-.327v1.152a3.45 3.45 0 01-.835.288 5.143 5.143 0 01-1.084.098zm6.435 0c-.641 0-1.144-.233-1.508-.698h-.078c.052.455.078.719.078.791v2.212h-1.49v-7.862h1.211l.21.708h.069c.348-.54.864-.81 1.548-.81.644 0 1.149.249 1.513.747.365.498.547 1.19.547 2.075 0 .583-.086 1.089-.259 1.519-.169.429-.412.756-.727.981a1.87 1.87 0 01-1.114.337zm-.439-4.468c-.368 0-.636.114-.806.342-.169.225-.257.597-.263 1.118v.161c0 .586.086 1.006.258 1.26.176.254.453.381.831.381.667 0 1.001-.55 1.001-1.65 0-.538-.084-.94-.25-1.207-.162-.27-.419-.405-.771-.405zm5.21-1.089v2.159c0 .227-.037.784-.112 1.669l2.519-3.828h1.792v5.459h-1.44v-2.177c0-.388.032-.935.097-1.641l-2.509 3.818h-1.787v-5.459h1.44zm7.256 0v2.1h2.08v-2.1h1.489v5.459h-1.489v-2.251h-2.08v2.251h-1.489v-5.459h1.489zm4.8 2.188c0-1.253.237-2.204.713-2.852.478-.651 1.223-1.063 2.236-1.235a62.28 62.28 0 012.202-.322l.171 1.298a82.5 82.5 0 00-2.251.313c-.41.065-.716.163-.918.293-.202.13-.353.316-.454.557-.098.24-.158.561-.181.961h.073a1.74 1.74 0 01.684-.615c.283-.143.588-.215.913-.215.674 0 1.198.207 1.572.621.375.41.562.999.562 1.767 0 .886-.238 1.574-.713 2.066-.472.488-1.125.732-1.958.732s-1.484-.298-1.953-.894c-.466-.599-.698-1.424-.698-2.475zm2.739 2.163c.706 0 1.059-.487 1.059-1.46 0-.947-.319-1.421-.957-1.421-.175 0-.351.041-.527.122a1.959 1.959 0 00-.478.322 1.43 1.43 0 00-.318.396c0 .661.106 1.167.318 1.518.211.349.512.523.903.523zm3.032-4.351h1.631l1.03 3.072c.088.267.148.582.181.947h.029c.036-.335.106-.651.21-.947l1.011-3.072h1.597l-2.31 6.158c-.212.569-.514.996-.908 1.279a2.278 2.278 0 01-1.372.425c-.257 0-.51-.028-.757-.083v-1.182c.179.042.374.063.586.063.264 0 .493-.081.688-.244.199-.159.354-.402.464-.727l.088-.269-2.168-5.42zm9.473 5.557c-.642 0-1.144-.233-1.509-.698h-.078c.052.455.078.719.078.791v2.212h-1.489v-7.862h1.211l.21.708h.068c.348-.54.864-.81 1.548-.81.644 0 1.149.249 1.513.747.365.498.547 1.19.547 2.075 0 .583-.086 1.089-.258 1.519-.17.429-.412.756-.728.981a1.869 1.869 0 01-1.113.337zm-.44-4.468c-.368 0-.636.114-.805.342-.17.225-.258.597-.264 1.118v.161c0 .586.086 1.006.259 1.26.176.254.452.381.83.381.667 0 1.001-.55 1.001-1.65 0-.538-.083-.94-.249-1.207-.163-.27-.42-.405-.772-.405zm-60.146 12.911v1.118h-2.28v4.341h-1.49v-5.459h3.77z" fill="#fff"/><path fill="#DC1818" d="M225.879 228.82h78.552v17h-78.552z"/><path stroke="#DC1818" d="M252.399 240.057v15.518"/><path d="M237.537 240.82h-1.509v-3.081h-2.827v3.081h-1.514v-7.138h1.514v2.797h2.827v-2.797h1.509v7.138zm2.876-2.739c0 .54.088.949.264 1.226.179.276.468.415.869.415.397 0 .682-.137.854-.41.176-.277.264-.687.264-1.231 0-.54-.088-.946-.264-1.216-.176-.27-.464-.405-.864-.405-.397 0-.684.135-.859.405-.176.267-.264.672-.264 1.216zm3.774 0c0 .889-.234 1.584-.703 2.085-.469.501-1.121.752-1.958.752-.524 0-.986-.114-1.387-.342a2.298 2.298 0 01-.922-.991c-.215-.43-.323-.931-.323-1.504 0-.892.233-1.585.699-2.08.465-.495 1.119-.742 1.962-.742.525 0 .987.114 1.387.342.401.227.708.555.923.981.215.426.322.926.322 1.499zm6.27-1.289c0 .293-.093.544-.279.752-.182.205-.452.337-.81.395v.04c.387.045.693.179.918.4.228.218.342.488.342.81 0 .531-.209.936-.625 1.216-.417.277-1.013.415-1.787.415h-2.798v-5.459h2.798c.748 0 1.308.122 1.679.367.375.24.562.595.562 1.064zm-1.372 2.319c0-.215-.083-.369-.249-.464-.166-.097-.415-.146-.747-.146h-1.182v1.289h1.211c.316 0 .555-.059.718-.176a.586.586 0 00.249-.503zm-.137-2.202c0-.332-.264-.498-.791-.498h-1.25v1.079h1.079c.316 0 .555-.045.718-.136.163-.092.244-.24.244-.445zm4.053 1.172c0 .54.088.949.263 1.226.179.276.469.415.87.415.397 0 .682-.137.854-.41.176-.277.264-.687.264-1.231 0-.54-.088-.946-.264-1.216-.176-.27-.464-.405-.864-.405-.397 0-.684.135-.86.405-.175.267-.263.672-.263 1.216zm3.774 0c0 .889-.234 1.584-.703 2.085-.469.501-1.121.752-1.958.752-.524 0-.986-.114-1.387-.342a2.306 2.306 0 01-.923-.991c-.214-.43-.322-.931-.322-1.504 0-.892.233-1.585.698-2.08.466-.495 1.12-.742 1.963-.742.524 0 .987.114 1.387.342.4.227.708.555.923.981.215.426.322.926.322 1.499zm3.447 2.837c-1.699 0-2.548-.933-2.548-2.798 0-.928.231-1.636.693-2.124.462-.491 1.125-.737 1.987-.737.632 0 1.198.123 1.699.371l-.439 1.152a6.83 6.83 0 00-.654-.229 2.056 2.056 0 00-.606-.093c-.774 0-1.162.55-1.162 1.65 0 1.068.388 1.602 1.162 1.602.287 0 .552-.038.796-.112.244-.079.488-.199.733-.362v1.275a2.402 2.402 0 01-.733.317 4.046 4.046 0 01-.928.088zm4.371-5.557v2.159c0 .227-.038.784-.113 1.669l2.52-3.828h1.792v5.459h-1.441v-2.177c0-.388.033-.935.098-1.641l-2.51 3.818h-1.787v-5.459h1.441zm5.434 2.188c0-1.253.238-2.204.713-2.852.479-.651 1.224-1.063 2.236-1.235a63 63 0 012.202-.322l.171 1.298c-.423.049-1.173.153-2.251.313-.41.065-.716.163-.918.293-.201.13-.353.316-.454.557-.097.24-.158.561-.18.961h.073c.172-.266.4-.472.683-.615.284-.143.588-.215.914-.215.673 0 1.197.207 1.572.621.374.41.561.999.561 1.767 0 .886-.237 1.574-.713 2.066-.472.488-1.124.732-1.958.732-.833 0-1.484-.298-1.953-.894-.465-.599-.698-1.424-.698-2.475zm2.739 2.163c.707 0 1.06-.487 1.06-1.46 0-.947-.319-1.421-.957-1.421-.176 0-.352.041-.527.122a1.964 1.964 0 00-.479.322 1.425 1.425 0 00-.317.396c0 .661.105 1.167.317 1.518.212.349.513.523.903.523zm5.254-4.351v2.159c0 .227-.037.784-.112 1.669l2.519-3.828h1.792v5.459h-1.44v-2.177c0-.388.033-.935.098-1.641l-2.51 3.818h-1.787v-5.459h1.44zm8.765 5.557c-.641 0-1.144-.233-1.509-.698h-.078c.052.455.078.719.078.791v2.212h-1.489v-7.862h1.211l.21.708h.068c.348-.54.864-.81 1.548-.81.645 0 1.149.249 1.514.747.364.498.547 1.19.547 2.075 0 .583-.087 1.089-.259 1.519-.17.429-.412.756-.728.981a1.869 1.869 0 01-1.113.337zm-.44-4.468c-.367 0-.636.114-.805.342-.169.225-.257.597-.264 1.118v.161c0 .586.086 1.006.259 1.26.176.254.452.381.83.381.667 0 1.001-.55 1.001-1.65 0-.538-.083-.94-.249-1.207-.163-.27-.42-.405-.772-.405zm5.987 4.468c-1.699 0-2.549-.933-2.549-2.798 0-.928.231-1.636.693-2.124.463-.491 1.125-.737 1.988-.737.631 0 1.198.123 1.699.371l-.44 1.152a6.83 6.83 0 00-.654-.229 2.054 2.054 0 00-.605-.093c-.775 0-1.162.55-1.162 1.65 0 1.068.387 1.602 1.162 1.602.286 0 .551-.038.796-.112.244-.079.488-.199.732-.362v1.275a2.407 2.407 0 01-.732.317 4.058 4.058 0 01-.928.088zm-57.183 8.443h1.641l-2.163 2.618 2.353 2.841h-1.689l-2.232-2.768v2.768h-1.489v-5.459h1.489v2.652l2.09-2.652z" fill="#fff"/><path fill="#0D805C" d="M66.812 116.82h49.095v16H66.812z"/><path stroke="#0D805C" d="M84.513 129.057v15.518"/><path d="M75.642 127.82l-1.718-5.6h-.044c.062 1.139.092 1.899.092 2.28v3.32H72.62v-7.138h2.06l1.69 5.459h.03l1.791-5.459h2.06v7.138h-1.41v-3.379c0-.159.001-.343.005-.551.006-.209.029-.762.068-1.661h-.044l-1.84 5.591h-1.388zm7.48-2.739c0 .54.089.949.264 1.226.18.276.47.415.87.415.397 0 .682-.137.854-.41.176-.277.264-.687.264-1.231 0-.54-.088-.946-.264-1.216-.176-.27-.464-.405-.864-.405-.397 0-.684.135-.86.405-.175.267-.263.672-.263 1.216zm3.775 0c0 .889-.234 1.584-.703 2.085-.469.501-1.121.752-1.958.752-.524 0-.986-.114-1.387-.342a2.303 2.303 0 01-.922-.991c-.215-.43-.323-.931-.323-1.504 0-.892.233-1.585.698-2.08.466-.495 1.12-.742 1.963-.742.525 0 .987.114 1.387.342.4.227.708.555.923.981.215.426.322.926.322 1.499zm3.447 2.837c-1.699 0-2.548-.933-2.548-2.798 0-.928.23-1.636.693-2.124.462-.491 1.125-.737 1.987-.737.632 0 1.198.123 1.7.371l-.44 1.152a6.891 6.891 0 00-.654-.229 2.053 2.053 0 00-.606-.093c-.774 0-1.162.55-1.162 1.65 0 1.068.388 1.602 1.162 1.602.287 0 .552-.038.796-.112.244-.079.488-.199.733-.362v1.275a2.402 2.402 0 01-.733.317 4.048 4.048 0 01-.928.088zm6.51-5.557h1.64l-2.163 2.618 2.353 2.841h-1.69l-2.23-2.768v2.768h-1.49v-5.459h1.49v2.652l2.09-2.652zm7.651 1.431c0 .293-.093.544-.279.752-.182.205-.452.337-.81.395v.04c.387.045.693.179.918.4.228.218.342.488.342.81 0 .531-.209.936-.625 1.216-.417.277-1.013.415-1.788.415h-2.797v-5.459h2.797c.749 0 1.309.122 1.68.367.374.24.562.595.562 1.064zm-1.372 2.319c0-.215-.083-.369-.249-.464-.166-.097-.415-.146-.748-.146h-1.181v1.289h1.211c.316 0 .555-.059.718-.176a.586.586 0 00.249-.503zm-.137-2.202c0-.332-.264-.498-.791-.498h-1.25v1.079h1.079c.316 0 .555-.045.718-.136.162-.092.244-.24.244-.445zM75.97 141.82l-.289-.742h-.039c-.25.316-.51.536-.776.659-.264.121-.609.181-1.035.181-.524 0-.938-.15-1.24-.449-.3-.3-.45-.726-.45-1.28 0-.579.202-1.005.606-1.279.407-.277 1.019-.43 1.836-.459l.947-.029v-.239c0-.554-.283-.83-.85-.83-.436 0-.949.131-1.538.395l-.493-1.006a4.435 4.435 0 012.09-.493c.732 0 1.294.16 1.685.479.39.319.585.804.585 1.455v3.637h-1.04zm-.44-2.529l-.576.02c-.433.013-.755.091-.967.234-.212.143-.317.361-.317.654 0 .42.24.63.722.63.345 0 .62-.099.826-.298.208-.198.312-.462.312-.791v-.449z" fill="#fff"/><g opacity=".3"><path opacity=".3" d="M300.584 266.985c8.179 0 14.81-6.752 14.81-15.082 0-8.33-6.631-15.083-14.81-15.083s-14.809 6.753-14.809 15.083 6.63 15.082 14.809 15.082z" fill="#DC1818"/><path opacity=".3" d="M300.584 266.985c8.179 0 14.81-6.752 14.81-15.082 0-8.33-6.631-15.083-14.81-15.083s-14.809 6.753-14.809 15.083 6.63 15.082 14.809 15.082z" stroke="#fff" stroke-miterlimit="10"/></g><path opacity=".5" d="M300.584 260.917c4.888 0 8.85-4.035 8.85-9.013 0-4.977-3.962-9.012-8.85-9.012-4.887 0-8.849 4.035-8.849 9.012 0 4.978 3.962 9.013 8.849 9.013z" fill="#DC1818"/><path d="M300.585 257.053c2.793 0 5.057-2.306 5.057-5.15 0-2.844-2.264-5.15-5.057-5.15-2.793 0-5.057 2.306-5.057 5.15 0 2.844 2.264 5.15 5.057 5.15zm-128.56-50.928c2.794 0 5.059-2.307 5.059-5.152 0-2.846-2.265-5.153-5.059-5.153-2.795 0-5.06 2.307-5.06 5.153 0 2.845 2.265 5.152 5.06 5.152z" fill="#DC1818"/><g opacity=".3"><path opacity=".3" d="M196.503 230.985c8.179 0 14.81-6.752 14.81-15.082 0-8.33-6.631-15.083-14.81-15.083s-14.809 6.753-14.809 15.083 6.63 15.082 14.809 15.082z" fill="#DC1818"/><path opacity=".3" d="M196.503 230.985c8.179 0 14.81-6.752 14.81-15.082 0-8.33-6.631-15.083-14.81-15.083s-14.809 6.753-14.809 15.083 6.63 15.082 14.809 15.082z" stroke="#fff" stroke-miterlimit="10"/></g><path opacity=".5" d="M196.503 224.915c4.888 0 8.85-4.035 8.85-9.013 0-4.977-3.962-9.012-8.85-9.012-4.887 0-8.849 4.035-8.849 9.012 0 4.978 3.962 9.013 8.849 9.013z" fill="#DC1818"/><path d="M196.503 221.053c2.793 0 5.057-2.306 5.057-5.15 0-2.844-2.264-5.15-5.057-5.15-2.793 0-5.057 2.306-5.057 5.15 0 2.844 2.264 5.15 5.057 5.15z" fill="#DC1818"/><g opacity=".3"><path opacity=".3" d="M212.214 253.985c8.179 0 14.809-6.752 14.809-15.082 0-8.33-6.63-15.083-14.809-15.083-8.179 0-14.81 6.753-14.81 15.083s6.631 15.082 14.81 15.082z" fill="#DC1818"/><path opacity=".3" d="M212.214 253.985c8.179 0 14.809-6.752 14.809-15.082 0-8.33-6.63-15.083-14.809-15.083-8.179 0-14.81 6.753-14.81 15.083s6.631 15.082 14.81 15.082z" stroke="#fff" stroke-miterlimit="10"/></g><path opacity=".5" d="M212.214 247.915c4.887 0 8.849-4.035 8.849-9.013 0-4.977-3.962-9.012-8.849-9.012-4.888 0-8.85 4.035-8.85 9.012 0 4.978 3.962 9.013 8.85 9.013z" fill="#DC1818"/><path d="M212.214 244.052c2.793 0 5.057-2.306 5.057-5.15 0-2.844-2.264-5.15-5.057-5.15-2.793 0-5.057 2.306-5.057 5.15 0 2.844 2.264 5.15 5.057 5.15z" fill="#DC1818"/><g opacity=".3"><path opacity=".3" d="M271.128 279.985c8.179 0 14.809-6.752 14.809-15.082 0-8.33-6.63-15.083-14.809-15.083-8.179 0-14.81 6.753-14.81 15.083s6.631 15.082 14.81 15.082z" fill="#DC1818"/><path opacity=".3" d="M271.128 279.985c8.179 0 14.809-6.752 14.809-15.082 0-8.33-6.63-15.083-14.809-15.083-8.179 0-14.81 6.753-14.81 15.083s6.631 15.082 14.81 15.082z" stroke="#fff" stroke-miterlimit="10"/></g><path opacity=".5" d="M271.128 273.915c4.887 0 8.849-4.035 8.849-9.013 0-4.977-3.962-9.012-8.849-9.012-4.888 0-8.85 4.035-8.85 9.012 0 4.978 3.962 9.013 8.85 9.013z" fill="#DC1818"/><path d="M271.128 270.051c2.793 0 5.057-2.306 5.057-5.15 0-2.844-2.264-5.15-5.057-5.15-2.793 0-5.057 2.306-5.057 5.15 0 2.844 2.264 5.15 5.057 5.15z" fill="#DC1818"/><g opacity=".3"><path opacity=".3" d="M159.191 235.985c8.179 0 14.81-6.752 14.81-15.082 0-8.33-6.631-15.083-14.81-15.083s-14.809 6.753-14.809 15.083 6.63 15.082 14.809 15.082z" fill="#DC1818"/><path opacity=".3" d="M159.191 235.985c8.179 0 14.81-6.752 14.81-15.082 0-8.33-6.631-15.083-14.81-15.083s-14.809 6.753-14.809 15.083 6.63 15.082 14.809 15.082z" stroke="#fff" stroke-miterlimit="10"/></g><path opacity=".5" d="M159.192 229.915c4.887 0 8.849-4.035 8.849-9.013 0-4.977-3.962-9.012-8.849-9.012-4.888 0-8.85 4.035-8.85 9.012 0 4.978 3.962 9.013 8.85 9.013z" fill="#DC1818"/><path d="M159.191 226.053c2.793 0 5.057-2.306 5.057-5.15 0-2.844-2.264-5.15-5.057-5.15-2.792 0-5.056 2.306-5.056 5.15 0 2.844 2.264 5.15 5.056 5.15z" fill="#DC1818"/><g opacity=".3"><path opacity=".3" d="M176.865 241.985c8.179 0 14.81-6.752 14.81-15.082 0-8.33-6.631-15.083-14.81-15.083s-14.809 6.753-14.809 15.083 6.63 15.082 14.809 15.082z" fill="#DC1818"/><path opacity=".3" d="M176.865 241.985c8.179 0 14.81-6.752 14.81-15.082 0-8.33-6.631-15.083-14.81-15.083s-14.809 6.753-14.809 15.083 6.63 15.082 14.809 15.082z" stroke="#fff" stroke-miterlimit="10"/></g><path opacity=".5" d="M176.865 235.915c4.888 0 8.85-4.035 8.85-9.013 0-4.977-3.962-9.012-8.85-9.012-4.887 0-8.849 4.035-8.849 9.012 0 4.978 3.962 9.013 8.849 9.013z" fill="#DC1818"/><path d="M176.865 232.054c2.793 0 5.057-2.306 5.057-5.15 0-2.844-2.264-5.15-5.057-5.15-2.792 0-5.056 2.306-5.056 5.15 0 2.844 2.264 5.15 5.056 5.15z" fill="#DC1818"/><g opacity=".3"><path opacity=".3" d="M136.608 224.985c8.179 0 14.809-6.752 14.809-15.082 0-8.33-6.63-15.083-14.809-15.083-8.179 0-14.81 6.753-14.81 15.083s6.631 15.082 14.81 15.082z" fill="#DC1818"/><path opacity=".3" d="M136.608 224.985c8.179 0 14.809-6.752 14.809-15.082 0-8.33-6.63-15.083-14.809-15.083-8.179 0-14.81 6.753-14.81 15.083s6.631 15.082 14.81 15.082z" stroke="#fff" stroke-miterlimit="10"/></g><path opacity=".5" d="M136.608 218.914c4.887 0 8.849-4.035 8.849-9.013 0-4.977-3.962-9.012-8.849-9.012-4.888 0-8.85 4.035-8.85 9.012 0 4.978 3.962 9.013 8.85 9.013z" fill="#DC1818"/><path d="M136.607 215.054c2.793 0 5.057-2.306 5.057-5.15 0-2.844-2.264-5.15-5.057-5.15-2.792 0-5.056 2.306-5.056 5.15 0 2.844 2.264 5.15 5.056 5.15zm-13.677-26.929c2.794 0 5.059-2.307 5.059-5.152 0-2.846-2.265-5.153-5.059-5.153s-5.059 2.307-5.059 5.153c0 2.845 2.265 5.152 5.059 5.152z" fill="#DC1818"/><g opacity=".3"><path opacity=".3" d="M111.078 216.985c8.179 0 14.81-6.752 14.81-15.082 0-8.33-6.631-15.083-14.81-15.083s-14.81 6.753-14.81 15.083 6.631 15.082 14.81 15.082z" fill="#DC1818"/><path opacity=".3" d="M111.078 216.985c8.179 0 14.81-6.752 14.81-15.082 0-8.33-6.631-15.083-14.81-15.083s-14.81 6.753-14.81 15.083 6.631 15.082 14.81 15.082z" stroke="#fff" stroke-miterlimit="10"/></g><path opacity=".5" d="M111.078 210.915c4.888 0 8.85-4.035 8.85-9.013 0-4.977-3.962-9.012-8.85-9.012-4.887 0-8.849 4.035-8.849 9.012 0 4.978 3.962 9.013 8.849 9.013z" fill="#DC1818"/><path d="M111.078 207.053c2.793 0 5.057-2.306 5.057-5.15 0-2.844-2.264-5.15-5.057-5.15-2.792 0-5.057 2.306-5.057 5.15 0 2.844 2.265 5.15 5.057 5.15z" fill="#DC1818"/><g opacity=".3"><path opacity=".3" d="M106.169 200.985c8.179 0 14.809-6.752 14.809-15.082 0-8.33-6.63-15.083-14.809-15.083-8.18 0-14.81 6.753-14.81 15.083s6.63 15.082 14.81 15.082z" fill="#DC1818"/><path opacity=".3" d="M106.169 200.985c8.179 0 14.809-6.752 14.809-15.082 0-8.33-6.63-15.083-14.809-15.083-8.18 0-14.81 6.753-14.81 15.083s6.63 15.082 14.81 15.082z" stroke="#fff" stroke-miterlimit="10"/></g><path opacity=".5" d="M106.169 194.915c4.888 0 8.85-4.035 8.85-9.013 0-4.977-3.962-9.012-8.85-9.012-4.887 0-8.85 4.035-8.85 9.012 0 4.978 3.963 9.013 8.85 9.013z" fill="#DC1818"/><path d="M106.169 191.053c2.793 0 5.057-2.306 5.057-5.15 0-2.844-2.264-5.15-5.057-5.15-2.793 0-5.057 2.306-5.057 5.15 0 2.844 2.264 5.15 5.057 5.15z" fill="#DC1818"/><g opacity=".3"><path opacity=".3" d="M65.911 191.985c8.18 0 14.81-6.752 14.81-15.082 0-8.33-6.63-15.083-14.81-15.083-8.179 0-14.81 6.753-14.81 15.083s6.631 15.082 14.81 15.082z" fill="#DC1818"/><path opacity=".3" d="M65.911 191.985c8.18 0 14.81-6.752 14.81-15.082 0-8.33-6.63-15.083-14.81-15.083-8.179 0-14.81 6.753-14.81 15.083s6.631 15.082 14.81 15.082z" stroke="#fff" stroke-miterlimit="10"/></g><path opacity=".5" d="M65.91 185.915c4.888 0 8.85-4.035 8.85-9.013 0-4.977-3.962-9.012-8.85-9.012-4.887 0-8.849 4.035-8.849 9.012 0 4.978 3.962 9.013 8.85 9.013z" fill="#DC1818"/><path d="M65.911 182.053c2.793 0 5.057-2.306 5.057-5.15 0-2.844-2.264-5.15-5.057-5.15-2.793 0-5.057 2.306-5.057 5.15 0 2.844 2.264 5.15 5.057 5.15z" fill="#DC1818"/><g opacity=".3"><path opacity=".3" d="M106.169 180.985c8.179 0 14.809-6.752 14.809-15.082 0-8.33-6.63-15.083-14.809-15.083-8.18 0-14.81 6.753-14.81 15.083s6.63 15.082 14.81 15.082z" fill="#DC1818"/><path opacity=".3" d="M106.169 180.985c8.179 0 14.809-6.752 14.809-15.082 0-8.33-6.63-15.083-14.809-15.083-8.18 0-14.81 6.753-14.81 15.083s6.63 15.082 14.81 15.082z" stroke="#fff" stroke-miterlimit="10"/></g><path opacity=".5" d="M106.169 174.915c4.887 0 8.849-4.035 8.849-9.013 0-4.977-3.962-9.012-8.849-9.012-4.888 0-8.85 4.035-8.85 9.012 0 4.978 3.962 9.013 8.85 9.013z" fill="#DC1818"/><path d="M106.169 171.053c2.793 0 5.057-2.306 5.057-5.15 0-2.844-2.264-5.15-5.057-5.15-2.793 0-5.057 2.306-5.057 5.15 0 2.844 2.264 5.15 5.057 5.15z" fill="#DC1818"/><g opacity=".3"><path opacity=".3" d="M94.386 169.985c8.179 0 14.81-6.752 14.81-15.082 0-8.33-6.631-15.083-14.81-15.083s-14.81 6.753-14.81 15.083 6.631 15.082 14.81 15.082z" fill="#DC1818"/><path opacity=".3" d="M94.386 169.985c8.179 0 14.81-6.752 14.81-15.082 0-8.33-6.631-15.083-14.81-15.083s-14.81 6.753-14.81 15.083 6.631 15.082 14.81 15.082z" stroke="#fff" stroke-miterlimit="10"/></g><path opacity=".5" d="M94.386 163.915c4.888 0 8.85-4.035 8.85-9.013 0-4.977-3.962-9.012-8.85-9.012-4.887 0-8.85 4.035-8.85 9.012 0 4.978 3.963 9.013 8.85 9.013z" fill="#DC1818"/><path d="M94.386 160.052c2.793 0 5.057-2.306 5.057-5.15 0-2.844-2.264-5.15-5.056-5.15-2.793 0-5.057 2.306-5.057 5.15 0 2.844 2.264 5.15 5.056 5.15zM252.54 264.125c2.794 0 5.059-2.307 5.059-5.152 0-2.846-2.265-5.153-5.059-5.153s-5.059 2.307-5.059 5.153c0 2.845 2.265 5.152 5.059 5.152z" fill="#DC1818"/><path d="M84.636 152.125c2.794 0 5.06-2.307 5.06-5.152 0-2.846-2.266-5.153-5.06-5.153-2.794 0-5.06 2.307-5.06 5.153 0 2.845 2.266 5.152 5.06 5.152z" fill="#0D805C"/><path fill="#DC1818" d="M117.871 152.82h46.149v16h-46.149z"/><path stroke="#DC1818" d="M122.789 163.82v22"/><path d="M129.499 164.82h-1.719l-2.588-3.618v3.618h-1.514v-7.138h1.514v3.457l2.559-3.457h1.611l-2.602 3.427 2.739 3.711zm4.248 0l-.288-.742h-.039c-.251.316-.51.536-.777.659-.263.121-.608.181-1.035.181-.524 0-.937-.15-1.24-.449-.3-.3-.449-.726-.449-1.28 0-.579.202-1.005.605-1.279.407-.277 1.019-.43 1.836-.459l.947-.029v-.239c0-.554-.283-.83-.849-.83-.436 0-.949.131-1.538.395l-.493-1.006a4.431 4.431 0 012.089-.493c.733 0 1.294.16 1.685.479.391.319.586.804.586 1.455v3.637h-1.04zm-.44-2.529l-.576.02c-.433.013-.755.091-.967.234-.211.143-.317.361-.317.654 0 .42.241.63.723.63.345 0 .62-.099.825-.298.208-.198.312-.462.312-.791v-.449zm4.375-.83c.564 0 .962-.046 1.197-.137.237-.091.356-.236.356-.434 0-.176-.086-.308-.259-.396-.172-.088-.457-.132-.854-.132-.251 0-.536.031-.855.093a4.612 4.612 0 00-.864.254l-.439-1.04a6.018 6.018 0 011.128-.313 6.977 6.977 0 011.22-.097c.681 0 1.226.13 1.636.39.41.261.615.614.615 1.06 0 .615-.363 1.016-1.089 1.201v.049c.446.111.764.269.953.474.192.201.288.467.288.796 0 .332-.108.626-.323.883-.215.257-.525.456-.932.596-.407.14-.886.21-1.436.21-.911 0-1.611-.112-2.099-.337v-1.23c.28.13.585.232.918.307.335.075.659.113.971.113.485 0 .848-.054 1.089-.162.241-.11.361-.267.361-.468 0-.222-.127-.384-.38-.489-.254-.107-.645-.161-1.172-.161h-.577v-1.03h.547zm7.666 3.359l-.288-.742h-.039c-.25.316-.509.536-.776.659-.264.121-.609.181-1.035.181-.524 0-.938-.15-1.241-.449-.299-.3-.449-.726-.449-1.28 0-.579.202-1.005.606-1.279.407-.277 1.019-.43 1.836-.459l.947-.029v-.239c0-.554-.283-.83-.85-.83-.436 0-.949.131-1.538.395l-.493-1.006a4.435 4.435 0 012.09-.493c.732 0 1.294.16 1.684.479.391.319.586.804.586 1.455v3.637h-1.04zm-.439-2.529l-.576.02c-.433.013-.755.091-.967.234-.212.143-.317.361-.317.654 0 .42.24.63.722.63.345 0 .62-.099.825-.298.209-.198.313-.462.313-.791v-.449zm4.507-2.93v2.1h2.08v-2.1h1.489v5.459h-1.489v-2.251h-2.08v2.251h-1.489v-5.459h1.489zm6.621 2.11h1.05c.84 0 1.461.133 1.865.4.404.267.605.671.605 1.211 0 1.159-.804 1.738-2.412 1.738h-2.597v-5.459h1.489v2.11zm2.031 1.631c0-.212-.085-.365-.254-.459-.169-.095-.421-.142-.757-.142h-1.02v1.289h1.04c.661 0 .991-.229.991-.688z" fill="#fff"/><defs><clipPath id="clip0"><path fill="#fff" transform="translate(.043 .82)" d="M0 0h598.957v317.423H0z"/></clipPath></defs></svg>