<svg width="1141" height="594" fill="none" xmlns="http://www.w3.org/2000/svg"><g clip-path="url(#clip0)" fill="#D8D8D8" fill-opacity=".76"><path fill-rule="evenodd" clip-rule="evenodd" d="M904.29 117.428l-.917 2.751 2.407 1.491 2.637-1.491-.917-3.325-3.21.574zm-225.059 71.427l4.357 3.439 1.949-3.095.688-2.637-2.408-1.491-2.866-.343-1.72 4.127zm-8.369 10.203l1.376 1.72 4.815-2.981-1.032-2.866-3.095-.115-1.606 2.637-.458 1.605zm106.166-44.598l7.223.917.344 3.669-2.867.688-3.21-1.949-1.49-3.325zm19.032-11.924l1.261 5.732h2.981l.688-5.159-2.981-2.522-1.949 1.949zm6.649 4.815v6.65l7.338-1.605 6.994-3.669-2.408-5.274-4.586-.688-3.439-.802-2.523 3.783-1.376 1.605zm2.293-36.802l2.293 4.7 14.102.23 4.128-7.567-2.752-5.848-2.981 3.325-5.732-.458-1.605 2.637h-3.096l-.573 3.095-3.784-.114zm-5.503-23.619l-.917 3.44 2.867.688 1.031-2.98-2.981-1.147zm-7.452 30.498l3.21 5.045 6.191 1.261.115-7.108-2.064-3.44-7.223-.458-3.783 2.751-5.733-1.032-.458 4.013 3.439 3.554-1.949 2.179-5.503-4.472-6.535.573-.573 5.389.688 5.503 2.98 3.784 1.147 4.242 6.076 1.72 5.733-.459-.573-5.962 4.127.459 3.21-5.274 3.669.802 2.522-2.751-2.522-2.523-5.503-1.605-4.357-5.159 3.669-1.032zm-27.745 13.3l.917 4.242 3.783 4.356 2.408-.917-2.866-5.159-4.242-2.522zm163.261-9.402l-1.949 3.669-10.318 5.847-7.452-7.108-7.453-.803-10.662 6.994-7.223 8.943-2.637 9.172-4.93 1.49-5.962-2.981-5.732.573-3.096 3.899-2.522-2.293-2.523 2.637-2.98-2.752 4.356-4.357-10.089-.688-5.847 5.045 3.21 10.777-5.847 5.618v-8.37h-3.898l-3.898 3.555-.917-4.357 5.732-5.159-6.076.344-18.344 9.286 3.554 4.357-5.274 5.045 2.064 3.783 3.783-1.949.344 5.503 4.471 5.159-6.879 1.72-2.063 2.752 1.834 4.471-5.618 1.032-7.452-2.293-2.293 8.37-12.726-2.179v18.688l-8.943-1.49-13.873-12.497 5.159-3.554-8.484-12.612-5.388-2.522-8.255 2.751-9.172-3.554-1.261 14.217-16.624 7.108-6.421-4.356.917-3.325-16.968-.23-4.471 6.077-1.147 3.898-1.146-5.847-3.096-2.752-3.783 3.898-5.16 2.637-.344 3.554 2.408 3.211h.115v.114l1.146 5.733 7.911 11.35.115.115v7.452l4.127 4.93.23.229-.344.23-9.287 7.452-.573 4.357v.114l-2.179 3.325-1.72 7.911v.344h-.343l-4.586-.573-7.453 5.961v.115l-2.522 1.261 5.847 8.943.115.115v.114l1.949 24.994v.115l-.115.114-5.044 5.733 3.324 2.637.23.114-.115.23-1.376 6.65 2.981 3.21.115.114v4.816l3.554 2.522.229.115-.114.229-1.72 4.586v.115l-5.389 6.42-.458 4.586h8.828l.114.115 3.784 2.981 4.013-2.752.229-.115.229.23 2.293 2.866.23.229 2.981 4.472.114.343-.229.23-3.44 2.063v4.013l3.784.344 3.095-2.178.344-.229.115.344 3.898 7.452v.114l-.229 8.828 4.93 2.752.229.115v.344l-2.293 9.172 2.752 6.191 6.305 1.834.344.115-.114.458-4.816 11.122-.917 13.987 4.815 5.159 5.274-4.013h.115l7.911-.344 2.752-5.044.229-.344.344.344 4.242 4.242 5.503-6.421 8.713-18.688.115-.114.115-.115 5.847-.917h.229l11.236 4.471.115.115.114.115 2.408 7.337 6.764-2.981.115-.114.229.114 4.128 2.867.114.114v.115l7.567 17.197 9.86 18.23 6.306-4.013v-.115l6.42-2.522.23-.115.114.115 4.93 4.013 2.752-2.408.229-.114.229.114 3.899 3.669 3.668-3.554.115-.115h.115l9.057.23h.115v.114l5.732 4.357 11.007-4.127h.229l.115.114 3.783 3.096 15.249-6.994.114-.115.115.115 4.357.917 4.815-1.834-.573-3.554-.115-.23.229-.114 11.809-6.191-2.866-8.255-.115-.23.115-.229 4.013-4.242-1.605-4.013-7.567-4.93-.344-.229.229-.229 3.898-7.682-7.337-5.159-.344-.229.229-.23 3.439-4.012v-17.198l.23-.115 14.56-5.503.574-6.535v-.344h.229l8.599-.573 1.949-5.274-.23-5.503v-.23l.23-.114 4.127-1.949-3.095-11.121-5.848-4.013-.229-.115.115-.229 3.783-13.414-5.274-13.987v-.23l.115-.114 2.866-3.898.229-.115h.23l10.204 3.554 6.535-1.376 2.178-4.013.115-.114.229-.115 7.682-1.146 1.375-4.93-12.84-26.599-.115-.115.115-.114 1.261-6.536v-.114l.114-.115 8.599-6.076-3.21-6.191-.115-.23.23-.229 8.254-7.796.115-.115h.115l7.452-.688 4.242-4.815.803-8.255-4.816-4.357-.114-.114v-.115l-.344-5.388-3.096-4.586-.115-.23.23-.229 3.669-3.44-4.013-4.7-.115-.23.229-.229 9.631-8.828v-.115h.115l4.242-1.719 3.21-4.701-5.962-12.726h-7.796l-5.962-2.637h-.114l-.115-.115-3.096-8.14-.114-.229.114-.115 12.268-14.217v-6.993l-15.937-11.924zm18.803-93.096l8.141 9.516 1.719-1.835 2.179-11.006 2.637-5.16-2.867-3.897-7.337.573-4.472 6.65v5.159z"/><path fill-rule="evenodd" clip-rule="evenodd" d="M1070.88 124.307l-1.84-20.179-5.62-3.21 13.3-9.172-1.95-6.19-24.65-2.065-2.98 3.898-6.76.574-.69 5.274-5.39-.344v-7.338l6.08-2.064 2.52-5.044-1.37-13.3-2.41-.917-2.98 1.95-.23-4.93-5.73 2.292-4.02-4.471 1.49-7.338 4.93 4.357 2.76-2.293 4.12 4.471 2.41-5.618-.46-6.764 4.47-3.669 7.8.688 13.07-9.86-3.1-3.783 6.54 1.032-.23-6.42-7.11 1.375-2.06-4.586-9.52-1.834 3.78-4.701-4.93-3.554 4.48-3.096-5.62-7.337-15.82 9.4-.92 7.568-4.36 5.618 10.67 4.356-5.85 2.637-17.2-4.7-19.949 13.3-29.923 16.28-8.026 13.07.803 3.898-5.504 1.49-7.681 6.88 5.503 6.764 4.815-1.49 7.338 4.126-.803 7.224-6.764.802-4.471 2.637-9.516-5.962v12.153l-9.745 7.223-3.669 7.338 16.051 12.038.229.115v7.567l-.115.114-12.153 14.217 2.981 7.681 5.848 2.523h7.91l.115.229 3.096 6.306 5.044.802h.115l.115.115 3.21 5.732 6.764-3.21.115-.114.114.114 6.306 1.949 4.816-4.242.114-.114h.115l7.452-.459 5.503-5.847-1.032-5.503-.114-.344.344-.115 5.503-1.72 1.49-5.274.115-.229h.229l4.702-.573 1.49-4.472.11-.114.12-.115 8.71-2.064 2.3-4.012.11-.115h.23l12.95-.803h.35v.23l3.09 8.255 9.06-2.752h.12l9.86.229 8.02-22.93.12-.344.34.115 4.82 2.522 6.19-1.834zm61.11 102.727l2.98 2.866 5.61-4.701-2.4-.573-6.19 2.408zm-24.31 122.675l.46 2.178 2.75 1.835 1.38-3.44-1.5-2.522-3.09 1.949zm8.83-4.128l-.35 2.064 2.98 1.147 1.72-1.835-2.98-2.637-1.37 1.261zm-1.84 4.472l-.68 8.713 3.32 4.357 3.1-1.491-.69-8.484-2.41-2.293-2.64-.802zm4.82 19.261l-.46 3.096 1.49 3.21 3.9-1.834.57-2.064-5.5-2.408zm5.16 25.223l-1.49 2.866 2.18 3.211 2.75-2.637-1.72-3.211-1.72-.229zm.23 16.052l1.49 2.408 2.06-.688.57-4.013-2.75-.573-1.37 2.866zm1.83 6.42l-2.18 2.293 1.72 4.815 5.16-1.376-1.72-4.93-2.98-.802zm-3.44 19.605l-2.64 2.637.12 5.389.11 5.732.12 2.637h2.75l2.29-6.42-.57-6.421-2.18-3.554zm-7.79 21.325l2.63.115.92 3.669-1.95 3.095-2.64 3.669-.23 4.128-.8 5.044-.46 3.898-1.26-.688-1.03-6.649-.23-8.37 3.44-3.439 1.83-1.605-.22-2.867zm-9.86 44.37l1.37-.573.46-9.631 1.72-1.949.34-2.522-1.83-1.147-2.75 1.261-1.49 1.147 1.37 4.357-.46 5.503 1.27 3.554zm10.2-9.745l.92 2.178 2.75-1.032-.57-2.866-1.61-2.064-1.49 1.376v2.408zm-52.74-284.907l-2.18 6.535 8.26 9.287 1.26-13.414-4.59-1.949-2.75-.459zm54.69 24.422l2.18 3.324 8.25 1.376 3.44-1.834-2.06-3.44-6.08-.688-5.73 1.262z"/><path fill-rule="evenodd" clip-rule="evenodd" d="M967.233 305.684l4.93-3.21 3.439-2.867 4.586-1.146-1.49-9.516 8.254-2.637 6.306-5.503 5.847-.23-4.356 6.192 4.127 3.554 6.074-6.765 1.49-10.662 5.39-2.064 4.24-5.618-4.47-3.325-3.9 4.816-4.12-3.898-1.15-19.262-3.554-11.35 1.144-8.484 6.88-9.86 4.01-.229 1.84-5.618 8.02 11.006 5.62-.917.35-4.127-1.27-8.37-1.37-5.962-5.5-2.981-.12-.114v-.115l-1.03-5.388-3.44-3.325-5.62.573h-.34l-.12-.229-3.32-8.714-4.817-1.032h-.114v-.114l-7.797-11.236-5.388 5.733-.115.114h-.114l-7.453.459-4.815 4.357-.115.114h-.229l-6.42-2.064-6.879 3.325-.344.115-.115-.229-3.325-5.848-4.357-.687 2.867 5.961v.115l-.115.229-3.325 4.93h-.114v.115l-4.472 1.72-9.286 8.598 3.898 4.701.229.344-.229.229-3.669 3.44 2.981 4.357v.229l.344 5.274 4.815 4.357.115.114v.229l-.803 8.599v.115h-.115l-4.356 4.93-.115.115h-.115l-7.452.802-8.14 7.567 3.325 6.306.115.229-.23.229-8.713 6.077-1.261 6.306 12.611 26.254 5.847-3.898h.344l13.185 4.472h.229v.229l1.491 7.338v.229l-3.21 5.732 2.407 4.701 5.274-3.783.115-.115h7.108v.229l3.44 5.733zm10.204 226.777l-.803 21.784 4.013 6.764-15.363 1.261-5.045 11.007 14.217 14.675.344 5.389 7.796-7.453 13.529.115 9.745-7.796 5.73-11.58 2.87-31.873 3.9-16.624-2.64-19.376-3.78-1.146h-.23l-.12-.23-.91-4.7-6.31-4.586-7.224 5.388 4.244 4.586 6.76.574h.35v.458l-1.49 10.548-.12.229h-.23l-4.81.23.69 6.649v.23l-.12.114-6.879 4.586-.114.115h-.115l-11.35.688-2.867 3.783 2.293 4.357.115.459-.344.114-5.732 1.261z"/><path fill-rule="evenodd" clip-rule="evenodd" d="M971.131 508.959l4.93 8.14-1.835 5.962 3.096 8.713 5.274-1.146-2.179-4.242-.114-.23.229-.114 2.981-4.013.115-.115.114-.114 11.465-.688 6.653-4.472-.81-6.879v-.344h.35l4.93-.229 1.49-9.86-6.54-.573h-.23v-.115l-4.696-4.93-.229-.344.343-.229 7.682-5.732.23-.115.11.115 6.77 4.815.11.115v.114l.92 4.586 3.44.917 1.72-22.012-2.41-6.879-10.89-22.128-3.55-4.242-3.214-15.592-2.179-5.16-.688-.802-8.14-3.325-2.751-3.44 2.407-4.815-5.962-2.408-12.611-2.293-9.631 5.045-3.439 14.79-4.128-5.274-4.586 6.076-4.012-11.465-8.14 5.045-6.994-1.146.458-6.535 8.943-22.357 2.179-22.472 2.636-10.892-2.178-8.942 2.981-8.026-1.376-8.599 18.918-18.458 5.961 1.032.574-2.179-1.72-2.637 2.637-1.719-3.21-5.733h-6.421l-5.503 4.013-.344.344-.229-.459-2.637-5.274v-.344l3.21-5.732-1.376-6.994-12.955-4.357-5.847 4.013-1.491 5.159v.23h-.229l-7.796 1.146-2.293 4.013v.115h-.23l-6.764 1.49h-.115l-10.089-3.439-2.637 3.439 5.159 13.987v.23l-3.783 13.185 5.732 4.012.115.115v.115l3.21 11.465.115.229-.229.115-4.242 1.949.343 5.388v.115h-.114l-2.064 5.618v.229h-.229l-8.599.573-.459 6.421-.114.229-.115.115-14.56 5.503v17.083l-3.325 3.783 7.337 5.045.23.229-.115.229-4.013 7.682 7.452 4.815v.115h.115l1.72 4.471.114.23-.114.114-4.013 4.242 2.866 8.026 11.695-6.077.229-.114.229.229 3.784 4.127.229.23-.115.229-5.732 12.382.573 6.077v.229l-.115.115-4.356 2.522.344 4.93h9.745l.115.115 4.471 6.535 4.815-.23 7.911-7.223 1.261-5.388v-.344h6.191l1.835-3.669.115-.229.229.114 4.242.574.229.114v.115l3.898 11.924.115.229-.229.114-2.523 2.637-.114.115h-.115l-9.516 1.491 2.408 5.044.114.229-.229.23-3.783 4.013-.918 5.388v.115l-.114.114-5.618 6.535 2.408 2.981.229.23-.229.229-3.784 5.045v6.076l10.089 5.045.115.114 8.14 11.351 5.159-4.93h.23l10.891.114h.115l.115.115 4.815 3.898 14.561-4.93.688-.229-.23.688-1.49 6.191z"/><path fill-rule="evenodd" clip-rule="evenodd" d="M929.742 519.047l5.618 8.828 5.962 5.274 12.726-6.191 1.72-5.274 9.516-10.662 5.159-2.293 1.376-5.503-14.102 4.7-.229.115-.115-.115-4.93-4.013-10.663-.114-5.273 4.93-6.765 10.318zm-101.695-33.248l12.726-6.535 9.746 3.439 11.694-1.949 17.198 17.083 21.324 22.013 8.485-3.325 5.159 2.408 3.783-1.835 7.109 2.179 3.783-.459 6.764-10.318-8.14-11.351-10.204-5.044-.229-.115v-6.764l.115-.115 3.669-4.93-2.408-2.981-.229-.229.229-.229 5.732-6.765.918-5.274v-.114l.114-.115 3.669-4.013-2.408-5.274-.229-.458h.459l9.86-1.605 2.407-2.408-3.783-11.465-3.669-.573-1.834 3.668-.115.115h-6.077l-1.261 5.274v.115h-.114l-8.026 7.452-.114.115h-.115l-5.159.344h-.115l-.115-.23-4.471-6.535h-10.089v-.344l-.344-5.503v-.229l.114-.115 4.357-2.408-.573-5.961-.115-.115h.115l5.732-12.382-3.554-3.784-23.732 12.268.573 3.669.115.229-.344.115-5.16 1.949h-.114l-4.472-.918-15.363 6.994-.114.115-.23-.115-3.669-3.095-11.121 4.127h-.114l-.23-.115-5.732-4.471-8.713-.229-3.784 3.783-.229.229-.23-.229-3.898-3.669-2.751 2.293-.23.23-.229-.23-4.93-4.012-6.191 2.522-6.076 3.898 7.681 5.159.23.23-.23.229-2.178 3.21 3.439 3.554 6.421-3.554.344-.229.114.344 3.096 5.388 4.815-1.146.459-.115v.459l.688 9.63 5.044 2.752.344.229-.229.344-2.866 3.898 8.025 11.924zm167.16-63.86l-.229-.574 11.002 5.962 3.56 9.287 5.5 6.993 6.54 10.434 4.58 7.681 5.51 4.128 1.6 4.815 1.49 4.357 6.77 3.095.91 6.765 7 8.828.57-7.682-1.03-5.847 5.5-.344 2.07-.917 5.04 2.637-4.13-8.599h-5.96l-6.42-2.866-7.22-5.16-4.7-12.038-2.64-7.681 5.62-3.096 10.43-.573-23.5-15.937-16.63-14.904-7.678-14.446-10.548-7.223-4.816-6.191-3.324 1.49-.803 3.554 6.191 4.242 3.325 5.045-1.834 2.522-2.981-.802-.917 4.357 5.961 4.471 5.962 13.643-.458-.229.687.803zm-894.272-82.663l1.605 2.981-.344 6.879 4.816 2.522 3.439 2.293 3.21-2.293h.23l4.815.229 5.044-3.095.574-3.898v-.23h.344l5.732.688 2.981-.917h.229l.115.229 2.293 4.472 5.045 1.719 1.032-.917.343-5.618-3.21-2.407-.114-.115v-.229l-.23-3.554-2.063-1.949-3.096-2.293-.229-.115v-.229l.344-5.504-6.191-4.815-.115-.115v-.114l-.573-3.784-2.408-1.031-.229-.115v-2.637l-.917-1.605-3.555-.23-.688 1.491v.115h-.229l-1.49.344h-.115l-.115-.23-1.031-1.146h-1.491l-2.408 2.063v4.243l-1.375 1.834 1.146.917.115.115v.114l.114 1.949.115.459h-.459l-2.522-.115-1.032 1.72.688 3.554v.115l-.114.115-8.026 8.14z"/><path fill-rule="evenodd" clip-rule="evenodd" d="M88.782 301.556l-2.751 3.325-1.262 2.063.574 2.752 2.751 1.376-.344 4.242 7.109 4.471.23 8.255 5.502 10.548 7.796-7.797-.687-3.439-.115-.115.115-.114 1.261-2.064v-.229h.229l2.408.114-.115-1.375-1.261-1.032-.344-.115.229-.344 1.491-2.064v-3.898l-5.16-5.274-5.044-1.031h-.115v-.115l-3.669-2.408h-.114v-.114l-.917-3.096-1.835-.344-1.834 1.032-.23.115-.114-.115-3.784-3.21z"/><path fill-rule="evenodd" clip-rule="evenodd" d="M93.598 283.327l-3.096 1.376-1.49 2.981-2.179.573-.229 3.669 3.21 1.949-.802 6.994 3.783 3.21 1.72-1.032h.229l2.178.344.23.115v.114l1.032 3.21 3.439 2.293 5.159 1.032v.115h.115l5.159 5.274 2.293-2.064v-.114h2.179l.114.114.918 1.147 1.031-.115.574-1.376-2.293-3.095v-.23l-.23-2.981-2.407-.802h-.23v-.229l-.802-1.491v-2.751l-1.147-1.491v-5.618l-8.254-10.777-10.204-.344zm11.579-24.994l-5.044-.344-3.784-3.554.344-3.439-3.554-.688-2.064 5.044-7.452 6.306.573 4.127 3.898-.229 2.981 2.522 1.147 5.16 3.325-.344 4.012.802v2.523l-4.93 6.42 9.287.344 11.465-8.37-.917-1.49v-2.178l.115-.115 1.375-1.376v-.114l1.949-1.147-.229-1.49-2.293-.23-1.261 1.032-.115.115-.229-.115-2.064-1.146h-.114v-.115l-1.376-2.522v-.115l-.115-2.178v-.115l.115-.115 1.146-2.063-5.503-.344h-.114l-.115-.115-.459-.344z"/><path fill-rule="evenodd" clip-rule="evenodd" d="M121.458 226.69l-.803 1.49-6.191 3.554-3.21 5.045-3.325 6.994-.344 5.618.917 3.324-2.407 2.981-.23 2.293.115.115 5.962.344 2.293-1.032h.229l4.586.115 2.522-2.408.115-.115h.229l3.44.23h.229v.229l1.491 4.93 1.261-.688.114-.115h.115l2.522.459h.23v.115l1.261 1.834 6.764-.688 3.898-2.522 4.472-6.42.114-1.491-2.981-3.669-.114-.114v-.115l-.459-3.325-7.452-1.376h-.115l-3.669-2.751h-.114v-.115l-4.816-8.943-1.49-3.668-1.491-.803-2.866.803h-.114l-.688-.115zm-16.969 56.752l8.14 10.662.115.115v5.503l1.147 1.491v2.866l.687 1.376 2.408.802 3.784.115 1.146-2.064h.115v-.115l7.108-5.732.803-5.847-3.096-2.867h-.115v-.114l-1.605-3.44v-.114l.23-5.962-9.402-5.045-11.465 8.37z"/><path fill-rule="evenodd" clip-rule="evenodd" d="M129.483 299.148l-6.994 5.618-1.261 2.179v.114h-.229l-3.669-.114.229 2.751 2.179 3.096 3.898.229h.229v.115l1.147 1.949v2.407l2.407 1.147h.115v.229l.573 3.784 6.191 4.7 2.981-1.375.803-1.835-.459-2.981-.917-1.834v-.344l1.261-2.178.115-.115.114-.115 5.274-2.407 3.096-2.752v-3.439l-.688-2.293-2.752-2.179-.114-.114-.917-2.523-2.637-.229-4.128 1.949h-.229l-2.866-.344h-.115l-.115-.115-2.522-2.981z"/><path fill-rule="evenodd" clip-rule="evenodd" d="M147.254 311.072v.688h-.115l-3.325 2.981v.115l-5.274 2.407-1.146 1.949.802 1.72h.115v.115l.459 3.095v.23l-.918 2.063v.115h-.114l-3.096 1.49-.344 5.274 2.981 2.179 2.179 2.063.114.115v.115l.23 3.669 3.095 2.293 4.586-.803 9.287-4.701 1.146-1.605.115-7.681.802-5.274.115-.115 4.013-4.815-3.21-3.554-1.949 1.261h-.115l-1.605.573h-.115l-.114-.115-2.637-1.49-.115-.115-2.293-4.127-3.554-.115zm-21.21-30.956l-.23 5.847 1.491 3.325 3.21 2.867.115.114v.23l-.803 5.961 2.637 3.096 2.637.344 4.128-1.949h.229l2.637.229.229-1.49v-.23l1.949-2.522 3.669-4.013v-2.637l.115-.114 2.293-2.293-.459-4.586-2.752-1.605-.114-.115-1.147-2.522-5.732.344-1.376 1.605-.229.229-.23-.115-4.93-3.095-1.375-.344-5.962 3.439z"/><path fill-rule="evenodd" clip-rule="evenodd" d="M148.515 292.384l-3.783 4.013-1.72 2.408-.344 1.72.917 2.522 2.752 2.178h.114v.115l.803 2.522v2.408l3.783.229h.23l.114.229 2.293 4.243 2.293 1.261 1.491-.344 2.178-1.376.23-.229.229.229 3.554 4.013 2.408.802 2.178-.114 7.108-6.306v-.115l3.784-2.637-.803-2.407-1.49-4.013-7.338-12.382-4.471-.115-1.605 1.376-.115.114-.229-.114-1.835-1.147-1.719-1.261-.918.688v.115h-.114l-3.096.802h-.229l-1.72-.802-1.261 1.146h-.229l-3.44.229zm-2.637-15.019l1.032-1.261 1.72-2.522v-5.733l-2.637-1.49h-.115v-.115l-2.064-3.21v-.115l-.573-3.325-3.669 2.408h-.115l-6.993.688h-.229l-.115-.115-1.261-1.834-2.293-.344-1.491.917-.458.229-.115-.458-1.49-5.159-2.981-.23-2.637 2.408v.115h-.23l-4.7-.115-2.293 1.032-1.376 2.293.115 2.064 1.261 2.293 1.719 1.031 1.147-.917.115-.114h.114l2.752.229h.344v.344l.344 2.063v.23l-.23.114-2.063 1.147-1.261 1.261v1.605l.917 1.605 9.63 5.16 6.077-3.555.115-.114h.114l1.605.573h.115l4.701 2.866 1.261-1.49.114-.115h.23l5.847-.344z"/><path fill-rule="evenodd" clip-rule="evenodd" d="M143.929 259.135l.459 3.555 2.064 3.095 2.751 1.491.115.114v6.535l-1.835 2.523-1.031 1.375 1.146 2.293 2.752 1.72.114.115.115.115.459 4.93v.229l-.115.114-2.293 2.179v2.178l3.21-.229 1.261-1.147.115-.114h.229l1.835.917 2.98-.803 1.032-.802.23-.115.229.115 1.949 1.376 1.49 1.031 1.491-1.375h.229l4.586.114 1.72-2.637 1.261-3.324-1.146-1.032-2.064-2.637-.115-.115-1.605-5.159-.114-.115.114-.115 1.147-3.554v-.114l3.898-4.472 2.407-2.178.459-2.637-2.981-3.554h-7.337l-8.026-5.159-.115-.115v-.115l.23-3.095-1.032-.459-.803.803v.114h-.114l-6.879.918v.802h-.115l-4.357 6.42z"/><path fill-rule="evenodd" clip-rule="evenodd" d="M174.999 266.129l-1.949 1.72-3.783 4.356-1.032 3.44 1.605 4.93 1.949 2.637 1.261 1.146.229.115-.114.229-1.261 3.669-1.835 2.752 7.223 12.038 4.93-2.981.115-.115h.115l6.305-.229 6.994-4.127-1.491-4.128-6.764-8.713-3.439-1.491-.115-.114-2.522-2.752-.23-.229.115-.229 1.949-2.523.803-3.21-1.605-1.605-3.44 2.866-.229.229-.23-.229-3.21-3.439-.114-.115v-.115l-.23-3.783z"/><path fill-rule="evenodd" clip-rule="evenodd" d="M184.171 271.518l.459.459.229.114-.115.23-.802 3.439v.115h-.115l-1.72 2.407 2.293 2.523 3.44 1.49.115.115 6.879 8.828.114.114 1.376 4.128 2.293-.459 1.605-2.407.115-.115h.229l4.128-.344h.114l.115.115 1.605 1.49 2.637-1.49.802-9.058-4.127-2.293h-.115l-.114-.229-.115-3.783-1.949-1.72-3.096 1.032-.114.114-.115-.114-10.089-5.389-5.962.688z"/><path fill-rule="evenodd" clip-rule="evenodd" d="M194.49 272.32l5.962 3.21 3.095-1.032.115-.114.229.229 2.178 1.949h.115v.229l.115 3.669 4.242 2.293.114.115v.229l-.802 9.058 12.382.114 1.605-1.032h.115l4.127.115h.23l.114.229 1.147 3.096 3.21 1.49h.115v.115l2.866 2.752 4.471-4.586.115-.115h.229l11.007.229.229-6.993v-.115l.115-.115 2.178-2.407-2.408-2.408-5.847 1.49h-.344l-8.828-5.274h-.115v-.114l-5.388-9.86-8.026-4.815-12.267-.688-4.242 2.981-.115.114h-.115l-4.7.23-1.491 2.178-.114.115-5.618 3.439zm-18.574-10.318l5.389-2.408-.803-2.407v-.229l1.606-8.943.114-.344.229.114 4.586.23 5.848-5.618-.803-6.65h-5.618v.344l-.573-.458-6.191-5.504-3.784.23h-.114l-.115-.115-4.471-3.669h-.115v-.114l-.802-3.325-3.325-2.293-1.147.917-.573 2.981-.115.344h-.344l-8.14-.688h-.114l-.115-.115-2.752-2.407-8.025-2.179h-.115l-4.242-3.095-2.293-2.293-2.178 2.178-1.261 5.389-2.408 3.668-.115.23h-.114l-5.618 1.031 1.49 3.325 4.701 8.943 3.554 2.522 7.567 1.376h.344v.344l.458 3.44 3.096 3.783.115.115v.114l-.115.459 6.535-.917.917-.803.115-.229.229.115 1.376.687.229.115v.229l-.229 2.981 7.682 4.93 7.223-.114h.229l.115.229 2.98 3.554z"/><path fill-rule="evenodd" clip-rule="evenodd" d="M210.197 262.919l-4.471-4.357-.23-.114.115-.23 1.72-6.306-3.325-4.127-2.981.115h-.115l-7.681-4.93-5.733 5.732-.114.115h-.23l-4.356-.344-1.605 8.599.802 2.637.115.344-.344.114-5.618 2.523-.573 2.751.344 4.242 2.981 3.21 3.324-2.866.344-.229.115.229.917.917 6.65-.802h.115v.114l3.324 1.72 6.077-3.669 1.376-2.293.114-.114h.23l4.815-.23 3.898-2.751zm-8.37 133.797l-.229 4.242 2.178 5.388 2.637-.573 1.95-1.605 3.898 1.834-.23 2.637-1.146 2.408 1.376 1.49 3.668 1.262 1.606 5.273 1.49 6.536-1.72 4.127 1.72 3.325 4.242-2.523 1.834.574 1.376 2.751.917 4.816 2.752 2.063 3.44-2.178 3.095.115 6.077 2.637-.23 2.866 1.261 2.178 3.096.574 2.408-2.637 2.637 2.637 3.324 2.063-.802 5.274.802 2.981 3.325 3.669 2.867 1.032 2.751-1.72 2.293.688 1.605 3.439 6.994 2.179 2.981-2.179 2.981-4.356-5.274-11.58-.459-.344h-.114v-.115l-1.262-3.439v-.229l.115-.23 2.866-2.178.803-2.064-1.491-3.095-7.337-2.293-3.554.917-1.72 4.242-.115.229-.229-.114-4.471-.344h-.115l-.115-.115-4.127-4.127-7.452-1.72h-.23v-.115l-1.719-3.21-.115-.229.229-.115 2.867-3.21-1.835-1.949-.115-.115v-.115l.115-1.949.115-.229.229-.115 2.637-.802.344-4.586-3.898.229-1.949 1.261-.459.23v-.574l-.688-5.388v-.344h.23l1.719-.688.23-3.325-1.72-1.949-.115-.115v-.114l.23-7.567-2.179-2.981v-10.433l-2.064-4.472v-.229l.918-4.127-2.752-2.981v.458h-.115l-1.375 4.586v.115l-1.032 2.064-.115.114-8.025 4.472-1.949 3.668-.115.115h-.115l-5.388 1.72h-.115l-2.752.458-5.617 4.816-.115.114h-.115l-8.025.574-.23.344zm-39.325-3.325l3.555 3.44-.344 3.783-.918 2.981 2.064 3.669 4.128-1.835 1.949-4.127 2.522-2.637 5.732 1.147 3.211-2.637 2.178-.115 1.72 1.261 5.847-.344 4.242-1.146 2.866-.574.229-.229.115-2.637-.344-2.064-2.866-4.127v-.229l.344-5.045-3.21-4.013v-.114l-1.261-4.701-.115-2.637-2.752-.917-7.911-4.357h-.229v-.229l-.115-4.357-7.681-1.376h-.115l-8.255-4.815-.229-.115v-2.866l-1.146-2.064-4.013-.344h-.115l-.114-.229-5.848-9.172-7.796 4.013h-.114l-4.587.802-.343 5.618v.23h-.115l-1.261 1.146.458 4.586 2.293 2.981 3.555.803h.114v.114l6.306 6.077.115.114v4.816l-.115.114-2.752 3.21-.114 2.981 2.178.115 2.637-1.146.459-.115v.458l.229 5.045 1.605 2.293 3.669.803h.229v.344l.229 8.369z"/><path fill-rule="evenodd" clip-rule="evenodd" d="M194.834 370.346l.115 2.637 1.146 4.586 3.325 4.013.115.114v.23l-.459 4.93 2.866 4.127v.115l.344 2.293-.114 2.293 7.796-.573 5.503-4.816.115-.114h.114l2.867-.459 5.274-1.605 1.949-3.669.114-.115h.115l7.911-4.471 1.032-1.949 1.375-4.471.459-2.179-4.013-5.732-1.605-1.491-1.834 1.261h-.115v.115l-1.605.229-.229.115-.115-.229-3.21-4.586-1.032.688-4.013 4.242-.114.114-2.293 1.376-.23.115-.114-.115-2.981-.688h-.115v-.114l-4.586-4.013-3.096-2.293-2.866.344-4.815.573-1.835 2.637-.114 1.261 1.49.688.23.115v.229l-.574 3.21v.115l-.229.115-1.949.802z"/><path fill-rule="evenodd" clip-rule="evenodd" d="M183.827 360.486l.115 4.242 7.681 4.127 2.752.918 1.949-.803.459-2.637-1.491-.802-.114-.115v-.229l.114-1.491v-.115l2.064-2.98.115-.115h.114l4.93-.573 2.981-.344h.229l3.211 2.407h.114l4.472 4.013 2.866.688 2.178-1.261 4.013-4.242v-.115l1.032-.688-2.981-3.669-.229-.229.229-.229 1.261-1.491-.229-3.21-6.077-.458h-.114l-.115-.115-3.44-4.93-4.356-.115h-.23v-.229l-1.605-3.898-4.815-5.733-.573.803-.803 4.242-.114.115-1.032 1.605-.23.229-.229-.115-7.223-2.522v7.682l-.114.114-1.491 1.72 1.376 2.752v.229l-.688 1.834v.115l-5.962 5.618z"/><path fill-rule="evenodd" clip-rule="evenodd" d="M168.12 319.9l-2.178.114h-.115l-2.293-.802-4.012 4.701-.803 5.159-.115 7.681v.115l-.114.115-1.261 1.719v.115h-.115l-.917.459 5.732 9.057 4.013.344.229.115.115.114 1.261 2.293v2.752l8.026 4.586 7.796 1.376 5.847-5.503.573-1.606-1.49-2.751-.115-.229.23-.115 1.605-1.835v-7.566l-2.752-.23h-.229l-.115-.229-1.949-4.127-4.471-.803-1.491 1.261-.344.229-.229-.343-2.752-4.586v-.115l-.458-5.159h-4.93l-.115-.23-2.064-6.076z"/><path fill-rule="evenodd" clip-rule="evenodd" d="M179.585 310.729l-3.783 2.636-7.109 6.306 2.064 5.847h5.159v.23l.459 5.388 2.522 4.242 1.261-1.146.115-.115h.229l4.816.917h.114l.115.23 1.949 4.127 2.522.229v-.114l.459.114 7.452 2.637.917-1.375.803-4.243.115-.114.917-1.147 1.49-2.637.115-1.834-2.064-1.147-.114-.114v-.115l-.344-2.178-1.262-.688-.687 1.032-.115.229h-.115l-5.044.115-.574 1.49-.114.229h-.23l-2.637-.458h-.114l-.115-.229-2.637-5.045h-.114v-.115l-.688-7.337-5.733-5.847zm23.389 20.178v1.949l-.115.115v.114l-1.49 2.408 4.93 5.847v.115l.688 1.719 3.668-1.031v-.115l4.816-.573.458-3.669v-.229h.23l2.407-1.376v-.115h.115l4.93-1.146.458-4.128-1.375-7.223-9.287-3.095-5.389 1.605-.458 5.503v.115l-.23.114-4.356 3.096z"/><path fill-rule="evenodd" clip-rule="evenodd" d="M177.521 303.735l1.376 3.783 1.032 2.522 5.962 6.077.115.115v.114l.688 7.453 2.636 4.815 2.064.344.573-1.376.115-.115.229-.114 5.045-.115.688-1.261.229-.344.344.229 1.605.917.23.115v.229l.343 2.179 1.835 1.032 4.242-2.981.459-5.618.114-.229.23-.115 5.388-1.491.229-8.14v-.344h.344l4.93-.229 2.637-2.064.115-.114.229.114 5.274 3.325 4.242-5.847.229-.344.23.229 4.93 3.554 3.439-1.49 1.605-1.834-2.981-3.784-6.076-6.191-3.325-1.49h-.115l-.114-.115-1.032-3.096-3.784-.114-1.49 1.032h-.229l-12.726-.115-2.867 1.72-.229.114-.229-.229-1.72-1.605-3.898.344-1.605 2.293v.115h-.23l-2.522.573-7.337 4.357h-.115l-6.306.229-5.045 2.981z"/><path fill-rule="evenodd" clip-rule="evenodd" d="M226.706 313.135l-5.273-3.324-2.523 2.063h-.229l-4.701.23-.229 7.796 9.401 2.981.23.114v.23l1.375 7.452v.115l-.458 3.783 2.522-.917v-.115h.115l7.796-1.032h.229l5.503 1.72.115.115.115.114 1.72 2.867 2.866-2.637-.229-6.306-1.262-2.981-3.783-4.242-9.86-1.72h-.115v-.114l-2.293-1.835-.114-.115v-.114l-.918-4.128z"/><path fill-rule="evenodd" clip-rule="evenodd" d="M245.28 335.607l-2.752 2.522-.229.229-.229-.343-1.95-3.096-5.388-1.72-7.682 1.032-2.866 1.147-.229.114-5.045 1.261-2.293 1.262-.573 3.783v.344h-.229l-5.045.573-3.554 1.032.573 1.49 4.357.115h.114l.115.229 3.44 4.816 6.191.458h.229l.115.344.229 3.669v.229l-1.261 1.376 2.866 3.44.229.344 3.211 4.7 1.375-.229 1.949-1.376.23-.114.229.114 1.949 1.72v.115l4.127 5.847v.344l-.229.917 3.21 3.554.115.115-.115.114-.917 4.128 1.949 4.356h.803l1.261-2.751 1.49-3.44.115-.229h.229l2.637.115h.115v.114l3.439 2.064.918-1.146-.688-3.784-2.408-2.408-.115-.114v-.115l.574-3.898v-.344l.344.115 6.42.688 5.159-1.605.688-4.242-1.834-.344h-.115l-.114-.115-1.262-1.376-.229-.229.344-.229 2.752-2.064.114-.917-2.407-.23h-.23v-.344l-.344-1.49v-.229l1.376-2.408-.917-.688-4.586 2.522h-.229l-5.389-1.146h-.229v-.115l-2.293-3.669-.115-.114-1.376-4.472v-.114l-.114-10.204z"/><path fill-rule="evenodd" clip-rule="evenodd" d="M246.771 348.104l.687 2.064 2.179 3.554 5.159 1.032 4.701-2.637h.229l.115.114 1.375.918.23.229-.115.229-1.49 2.637.229 1.147 2.522.344h.344l-.114.344-.23 1.375v.23h-.114l-2.523 1.949.918 1.032 1.949.229h3.324l3.211-2.981.114-7.452v-.344h.344l2.981.229 3.21-3.44 1.949-5.044v-.115l2.981-3.21 3.554-9.057-1.834-1.262v-.114l-2.064-2.293-2.751.458h-.115l-.115-.114-3.668-3.325-5.618-.229-.115 1.949-.344 2.751v.115l-.114.115-4.013 3.324-.23.23-.114-.115-3.21-1.49-2.523-.23-2.522 9.172-.115.23h-.229l-5.389.917-2.636 6.535z"/><path fill-rule="evenodd" clip-rule="evenodd" d="M269.815 360.487l-3.325 3.095h-3.324l-.688 4.586-.115.115-.229.115-5.389 1.719h-.114l-6.192-.688-.458 3.325 2.407 2.408h.115v.115l.688 4.127v.115l-.115.114-1.031 1.491-.23.344-.229-.23-3.669-2.293h-2.293l-1.49 3.096-1.262 2.981-.114.229h-1.147v9.745l2.064 2.981.115.115v.115l-.23 7.567 1.72 1.949.115.114v.23l-.23 3.554v.229l-.229.115-1.72.573.574 4.701 1.49-1.032h.229l4.357-.23h.344v.344l-.344 5.274v.23h-.229l-2.752.802v1.605l1.949 2.064.23.229-.23.23-2.981 3.21 1.376 2.866 7.567 1.72h.115l4.013 4.127 4.127.344 1.72-4.127.114-.115.115-.115 3.554-.917.459-3.095.458-3.325v-.23h.23l4.471-1.031.573-3.669v-.115l3.784-6.306.114-.114 6.191-3.44.115-.114.229.114 3.096 1.605h1.49l1.147-4.012v-.23h.229l3.096-1.032 1.72-1.375-2.408-2.408-1.376.573-2.293 1.261h-.344l-9.86-3.324h-.114l-2.293-1.835-.115-.115-2.637-5.961v-.23l1.146-3.439.115-.229h.115l4.7-2.867h.23l2.522.23h.229l.115.114 2.064 2.752v.114l.114 4.586 1.949 1.491 2.408-1.147h.115l2.293.23h.114l.115.114 1.49 1.032 3.555 3.44 1.605-.917 1.261-2.293-2.178-2.867-.115-.114v-.115l-.344-2.293v-.115h.115l2.178-4.242.573-3.439-1.834-.23h-.115l-6.42-2.866h-.115v-.114l-2.752-2.179-.114-.114-.917-3.096-2.637.688-.23.115-.229-.23-1.146-1.605v-.114l-.115-.115-.344-2.752-.459-1.834-2.866-.688h-.344v-.229l-.229-3.898-6.994-.344h-.229v-5.389l-3.096.115zm21.21-59.161l-4.586 2.064-.114.115-.115-.115-13.07-5.044-4.471 4.93-.23.229-.229-.115-2.064-1.72-.114-.114v-8.026l-1.147-2.522v-.229l.115-.115 10.433-11.694-.344-5.16-3.096-3.668-4.127.688-5.962 3.898h-.229l-5.274-.23-.688 1.949 3.669 3.44.344.344-.344.229-4.586 4.701-2.293 2.522-.229 7.223v.344h-.344l-11.236-.229-4.471 4.586 2.751 2.866h.115l3.095 4.127.115.23-.115.114-1.719 2.064-.115.115-3.784 1.719h-.114l-.229-.114-4.816-3.44-4.127 5.618.917 4.128 2.178 1.719 9.86 1.72h.115l.115.115 3.898 4.356v.115l1.375 3.21v.115l.23 6.42v.115l.114 10.892.344 1.146 2.408-5.847v-.229h.229l5.389-.803 2.637-9.286v-.344l.344.114 2.866.23h.115l2.981 1.375 3.783-3.095.344-2.637.115-2.178v-.344h.344l6.076.229h.229l3.669 3.439 2.752-.573h.114l.23.115 2.063 2.522 1.72 1.261 2.866-3.21 2.293-2.981-2.636-2.293-.115-.115v-4.012l.229-.115 9.745-4.013-.343-5.274-5.848-7.567zm216.231-103.987l2.522.229.573-1.72-1.72-1.949-2.178.688.803 2.752zm8.255 13.299l3.095 1.261 3.211-.688-1.376-4.7-3.898 2.178-1.032 1.949z"/><path fill-rule="evenodd" clip-rule="evenodd" d="M522.848 213.046l-3.783.229-1.949 6.765-6.077-5.618-1.719 5.732 6.535 7.109.344 6.191-11.924-10.663-.344-6.764 5.045-6.077.688-9.974-2.064.917-2.408 6.764-3.783 3.325-3.898 1.147-3.669 5.618.114 14.79-9.172 14.331.574 8.828h9.401l7.682 9.172v8.828l-5.504 6.535 1.491 2.981 4.356 2.408-8.025 1.834-2.293-8.369 5.962-10.434-2.637-7.91-9.058-1.262-5.044 4.816-.573 11.006-8.485 8.599-7.681 2.866-5.159 5.618-17.657-10.892v-5.274l11.809 5.504 6.192-2.523 9.859-6.306 6.765-13.414-1.147-7.337 11.465-27.058 1.262-4.7-1.262-6.191 7.453-7.109 1.49-9.86-5.732-7.681 5.847-.803-.803-7.223-5.962-.458-.344 5.273 1.262 3.211-3.784-1.491-5.618 4.242-6.764 8.599-5.159 5.045-7.911 1.949-4.128 3.898 4.128 5.388-4.472 8.026-6.191 1.949-.114 2.752 5.388 5.617-1.834 5.274.917 3.325 2.064 2.981-6.994 6.306-2.178-3.554-1.949-8.026-7.223-11.694-4.242 3.554 2.522 4.357.115.114-.115.23-5.159 9.057 1.949 6.535.114.115-.114.114-3.21 4.93v.115h-.115l-5.159 1.72-3.325 4.013-.115.114h-.229l-12.841.573-6.535 5.389h-.115l-.114.115h-4.242l-.344 10.891v.23l-5.045 7.108 3.21 6.879 12.382.917h.115l.115.115 5.847 4.586.229.115v.114l.115 5.962 2.064 1.949 14.216.688.229.115.115.114 4.357 5.504v.229l.458 9.057 2.408 3.096v.229l-.115 5.962h9.516l.115.115 8.484 7.796 11.809 5.044.115.115v.115l4.357 7.108 7.681 4.701 7.796.802 6.421-4.7.229-.23.229.23 5.847 5.388 5.962-.115h.115l.115.115 4.471 6.535 2.408.229h.114l.115.115 4.242 4.242 8.943-11.35.573-7.223v-.229l5.962-8.141-1.147-6.535-6.764-5.044-.115-.115v-.229l1.72-9.516-4.471-6.077-.115-.114v-.115l1.49-13.299-5.617-7.338-.115-.115v-.114l2.293-6.765-2.293-5.274-.115-.344.344-.114 7.338-1.949 2.981-7.796-1.605-9.173-7.567-1.834h-.115v-.115l-6.994-9.172-.114-.114.114-.23 1.376-5.503v-.229h.115l10.433-4.701 1.032-4.127-4.357-9.401h-.114l.114-.115 1.032-6.191.115-.23h.229l4.471-.802-4.242-9.057v-.803zm-155.81 222.536h5.274l4.242 7.223 3.44.573.115-.114 1.146-3.096h.115v-.115l6.191-5.732.917-4.357v-.115h.115l3.668-4.127.115-.115h.229l4.586.918 1.262-1.835.687-3.439-1.261-3.44-3.898-1.49h-.229v-.23l-.573-2.063-.115-.23.115-.114 1.949-2.293.573-5.733v-.114l.115-.115 6.535-6.42.229-.23.229.23 3.784 3.783.229.115-.229.344-2.064 2.866 2.637.459h.115l6.649 4.815 5.16-.803h.114l.115.115 4.815 2.637 4.586.229 6.306-4.357-11.236-8.484-.114-.114-5.389-10.663-4.013-9.057-3.21-.688-6.65-2.752-.114-.114-3.325-3.096-.917 2.637-.115.229h-.229l-5.274-.229-1.261 1.491h-.115l-3.325 1.834h-.229l-2.522-.573-1.606 1.261-.114.115h-3.554l-4.242-1.835-1.72 3.325-.115.229h-.229l-5.847 1.147-3.784 6.535-.114.229h-.23l-10.548-.344-2.866 6.077.115 5.961v.23l-.229.114-2.752.688-1.032 4.701 2.408 5.618 1.032 3.669 4.471 1.375.115.115 4.127 3.669.115.115v.114l.114 3.898 5.962 5.274.115.115.114.114.344 3.44z"/><path fill-rule="evenodd" clip-rule="evenodd" d="M317.051 429.162l10.548 2.408 5.962 3.783 3.554-2.751 5.274 2.751 17.541 3.325 6.421-2.866v-.115l-.344-3.325-6.077-5.388h-.114v-.229l-.115-3.784-4.013-3.554-4.471-1.376-.229-.114-.115-.23-.917-3.783-2.522-5.618v-.229l1.031-4.701-5.044-2.408-3.669 1.835-.229.114-.23-.229-2.981-3.898-6.535-2.178-7.337 2.178.344 2.064v.114l-.115 6.65v.229l-.115.115-9.974 7.452-.229 3.554 7.452 4.586.344.115-.229.344-2.867 5.159z"/><path fill-rule="evenodd" clip-rule="evenodd" d="M275.777 447.506l2.063-2.751 7.109-.574.573-5.044 3.325-1.949 3.554.229 4.357 3.325 2.637-2.408-3.211-5.274-1.49-5.159 3.554-3.783 3.21-.918 4.816 5.274 10.089.574v-.115l2.866-4.93-7.452-4.471-.229-.115.114-.229.23-4.013v-.115l.114-.114 9.975-7.453.114-6.535-.802-4.586-2.752-2.522-1.376.803-.114.114h-.115l-2.637-.688h-.114l-10.663-9.172-1.834.459-.574 3.554v.115l-2.293 4.242.344 2.063 2.293 2.981.115.115-.115.229-1.375 2.637v.115h-.115l-1.949 1.146-.229.115-.115-.229-3.784-3.554-1.375-1.032-2.064-.23-2.637 1.147-.115.115-.229-.115-2.178-1.72-.115-.114v-.23l-.115-4.471-1.834-2.522-2.408-.23-4.471 2.752-1.146 3.21 2.522 5.618 2.178 1.834 9.745 3.211 2.179-1.147 1.605-.803.229-.114.229.229 2.752 2.981.344.229-.344.23-2.064 1.605v.114h-.114l-2.981.918-1.147 4.012-.114.344h-2.179v-.114l-3.095-1.491-5.962 3.325-3.554 6.191-.573 3.784v.229h-.23l-4.471 1.032-.459 3.095-.458 3.096 7.337 2.178.23.115v.115l1.605 3.324v.23l-.803 2.293v.114l-.114.115-2.752 2.178 1.032 2.981z"/><path fill-rule="evenodd" clip-rule="evenodd" d="M350.3 312.104l-1.835 3.095-1.261 2.981v.115l-6.076 7.91-9.058 8.829v.114h-.114l-7.567 3.44-.115 3.439 2.408 4.586.114.23-.114.229-3.325 3.783-.459 5.045-.114.115-2.179 2.637v.229h-.229l-7.108.344-1.032 4.471v.115l-.115.114-2.981 1.949-.344.115-.114-.229-2.867-3.21-4.012 6.42-.115.115h-.115l-6.649.688-5.618 6.649 1.032 3.096 2.522 2.064 6.42 2.866 2.064.229 2.178-.458.23-.115.114.115 10.663 9.286 2.407.573 1.491-1.031.229-.115.229.229 2.981 2.752v.114l.115.115.344 1.949 7.338-2.178.114-.115.115.115 6.764 2.293.115.114 2.866 3.784 3.669-1.834.115-.115.114.115 5.274 2.522 2.637-.803-.115-5.732v-.115l2.981-6.306.115-.229h.229l10.548.344 3.669-6.306-2.637-4.127-.115-.115v-.114l.344-3.899 1.032-6.993-7.223-4.701h-.114v-.115l-1.262-3.21v-.229l.115-.115 4.127-5.044-.917-4.242-1.376-7.567v-.115l.115-.115 3.44-4.93-.23-5.617-4.012-9.516-6.765-4.013-.114-.115v-.114l-1.032-4.701-1.949-1.834z"/><path fill-rule="evenodd" clip-rule="evenodd" d="M396.848 271.174l-4.013.114-5.847 5.16-.115.114h-.115l-5.273.23h-.115l-.115-.115-1.72-2.752-8.598 7.567-1.261 4.93-.115.115-9.058 8.025-9.859 16.854 2.178 2.178v.115l1.032 4.586 6.764 4.013.115.114.114.115 4.013 9.631v.114l.23 5.848v.114l-.115.115-3.44 4.815 1.376 7.452.917 4.472v.114l-.114.115-4.013 5.045 1.032 2.866 7.337 4.701.23.114v.23l-1.147 7.223-.344 3.783 2.637 3.898 5.733-1.146 1.834-3.555.115-.229.344.115 4.356 1.949h3.211l1.605-1.376h.344l2.522.573 3.21-1.719 1.261-1.491.115-.115h.229l5.16.23 1.031-2.867.23-.573.344.459 3.669 3.439 6.535 2.637 3.21.803h.229l.115.115 4.013 9.172 5.388 10.662 11.465 8.484 6.306-3.554.688-3.784v-.229h.114l3.899-2.522.114-.115h.115l4.471.573 3.898-12.496v-.115l.115-.115 5.503-4.127.23-.115h.114l5.962 1.72.115.115 7.91 5.274 12.039.114h.114l.115.115 8.37 6.191 10.203-5.847.115-.115.229.115 5.274 3.783 5.847-.688 6.536-2.866 1.146-2.981-7.338-4.242-.229-.114v-9.402l-4.357-4.357-2.293-.229h-.229l-.115-.114-4.471-6.536-5.847.115h-.344l-5.618-5.388-6.306 4.586-.114.114h-.115l-8.025-.802h-.115l-7.796-4.816h-.115v-.114l-4.357-7.109-11.809-5.159v-.115l-8.484-7.681h-9.974v-.344l.114-6.191-2.407-3.096v-.229l-.459-9.057-4.127-5.389-14.217-.688h-.115l-.114-.115-2.293-2.063-.115-.115v-.115l-.115-5.961-5.732-4.472-12.497-.917h-.229l-.115-.229-3.44-7.223v-.229l.115-.115 5.045-7.223.344-10.777zM153.216 191.95l-1.72 1.261-1.032 2.637.229 8.828v.23l-.229.114-6.535 2.064-.344 3.096-.115.229h-.229l-2.178.229-.574 2.179v.114l-1.031.917 2.293 2.179 4.127 3.095 8.025 2.064h.115v.115l2.752 2.407 7.796.574.573-2.867v-.114h.115l1.49-1.261.23-.115.229.115 3.669 2.636.114.115v.115l.803 3.21 4.242 3.554 3.783-.229h.115l.115.114 5.847 5.16.229-2.637-1.032-3.325-2.637-2.866-.114-.23.114-.229 2.523-3.898-.459-4.242-2.293-4.586-.115-.115v-.114l.688-3.096-2.178-.344h-.229l-.115-.229-.573-2.179h-3.898l-.23-.114-.114-.115-1.147-2.178-.114-.115.114-.115 1.032-1.949-.229-2.522-3.096-1.032-.917 1.261-.115.115h-.114l-2.179-.229h-.114l-.115-.115-2.064-1.834-3.325.458h-.229l-.114-.229-1.95-3.44-2.293-1.031-3.783 1.949-.344.114-.115-.344-1.031-3.21z"/><path fill-rule="evenodd" clip-rule="evenodd" d="M193.573 242.397l7.567 4.815 2.981-.115h.229l.115.115 3.554 4.357.114.229-.114.115-1.72 6.305 4.586 4.357 12.382.688h.23l8.14 5.045h.114v.114l5.389 9.86 8.599 5.045 5.962-1.491.114-.114.229.229 2.523 2.522 4.127-4.242-3.669-3.439-.229-.23.115-.229.917-2.293.115-.229h.229l5.503.229 5.733-3.783v-4.013l-4.013-1.949-.229-.115.114-.344 1.261-3.325-3.668-1.261-2.408 1.147-.344.114-.229-.344-2.867-7.337-7.223-.229h-.114l-.115-.115-4.586-5.274-4.357-2.752v-.114l-4.242-3.898-12.267-13.873-.115-.115.115-.229.917-6.879v-.229l4.586-5.16-2.981-.917-.229-.114v-5.045l-3.669.115-2.522 2.407h-.23l-5.159-.229h-.229v-.115l-2.523-2.522h-2.293l-3.439 1.146-5.503 4.128-3.554 7.567-.115.229h-.229l-6.077-.459-3.325 1.72-2.407 3.784 2.522 2.751h.115v.115l1.031 3.439v.115l-.229 2.981h6.191v.344l.803 6.994zm-41.504-67.644l-3.554.344-5.847 4.471-3.325 4.701-6.535-.344-3.898 6.535-4.701.573-.229 5.045-6.879 4.471.344 6.535 2.866 3.554-3.21 3.899.688 3.21 4.586 1.146.917 4.701-1.49 2.522h.344l2.981-.802h.114l.115.114 1.605.803 5.733-1.147 2.178-3.439 1.261-5.389.115-.114 3.668-3.669.574-2.293.114-.229h.23l2.063-.23.459-2.866v-.229l.229-.115 6.421-2.064-.23-8.598v-.115l1.147-2.866v-.115l2.178-1.605 2.064-6.535-2.752-4.357v-.115l-.344-5.388z"/><path fill-rule="evenodd" clip-rule="evenodd" d="M187.611 165.581l-6.191.229-7.682 2.752-.344 6.191.688 2.752-2.178 1.949-1.72-4.357-2.981-.115-4.7-4.586-5.733 3.784-4.013.458.344 5.389 2.752 4.357v.344l-2.178 6.535 1.031 3.325 3.669-1.835.115-.114.229.114 2.408 1.147h.114v.114l1.95 3.325 3.324-.458h.115l.115.114 2.178 1.949 1.834.23.918-1.262.114-.229.23.115 3.554 1.146.229.115v.229l.229 2.752v.229l-1.032 1.835 1.032 1.834 4.013.115h.229l.115.229.459 2.064 2.407.344.344.114v.344l-.688 3.44 2.293 4.471v.115l.459 3.898 2.981-1.605h.229l5.847.458 3.554-7.452v-.115h.115l5.618-4.242.115-.114 3.554-1.147h.114l4.93.115 2.523-2.064-4.701-6.306-3.095-.458-.23-.115v-.229l-1.49-4.701-1.835.115-.344 2.981-.114.344-.344-.115-1.491-.344h-.229v-.115l-1.146-2.063-1.491.458-.229 3.44-.115.344h-.344l-2.064-.574h-.229l-.114-.114-1.147-2.522-5.847.114h-.229l-.115-.114-2.293-3.555h-5.847v-.114l-1.605-1.949-.115-.115.115-.229 9.63-11.58-.573-11.809zm82.319-23.274l1.605-9.631 2.178 3.21-.917 6.765 2.866 5.962.688 9.859 3.898 5.962 1.032 6.191 14.561 8.828 8.942-1.719 6.765-9.172 1.834-9.746-2.981-11.579.344-16.739-1.834-6.191-4.701-7.567-.688-5.733 2.064-1.261 2.752 3.898 2.751-1.949-2.522-5.044-9.975-6.65-14.216-1.376-2.752 2.064-7.108 4.127.114 5.618-4.815 7.911-9.516.114-3.21 4.013 6.994 9.287.114.115v.229l-1.146 5.503 5.732 2.866h.115l.115.115.917 1.72z"/><path fill-rule="evenodd" clip-rule="evenodd" d="M252.503 181.174l-.459-3.096.574-2.522-2.408-3.44 2.178-4.127 6.994-8.599 5.732-1.834 3.44-5.848 1.261-8.369-1.376-2.293-5.961-2.981-.23-.115.115-.229 1.032-5.618-6.765-9.057-7.91 9.974-4.128-.114-5.274 3.554-3.669-.229-1.49 3.783-1.72 3.096-2.981 2.293 1.72 3.21-2.064 2.064-6.993-1.147-1.835 6.535-1.261 9.86-4.127 1.72-18.344-2.408-8.255.229.229 5.389 4.471-.917h.115l5.847.802.23.115v.115l2.407 3.21v.229l-.114 4.128v.229l-2.064 2.408.229 4.586-.573 4.012v.115l-.115.115-2.981 2.293-.917 2.293 1.147 2.407 1.605.344.229-3.21v-.344h.229l1.949-.573.344-.115.115.23 1.147 2.063 1.031.23.344-2.752v-.229l.344-.115 2.408-.229h.344v.344l1.49 4.815 2.981.573h.115l.115.115 4.586 6.076.802-1.949-.573-5.847.115-.115 2.063-4.127.115-.115 7.567-8.254.229-.115h.115l4.471 1.146h.229v.115l1.376 2.637.115.115v.114l-.688 4.472v.114h-.115l-3.325 3.211-5.503 6.305-1.605 5.389 3.784-.115h.344v5.274l2.98.917 2.179-2.293.114-.114h2.867l1.146-5.045v-.229l5.159-5.389-1.261-2.064-1.605-2.751-.114-.115.114-.114 1.147-4.242.114-.115 4.93-5.045.459-2.637.115-.344.344.115 3.439.917 2.178.344 2.637-2.866h.115l.344-.229zm78.764 37.834l-6.879 8.943 2.408 3.668.115.23-.115.229-1.605 2.866 1.146 4.701.115.229-.229.115-4.472 2.637h-.114l-.229-.115-5.618-3.554-5.504.229h-.229l-.115-.344-.917-4.012-13.643-10.548-1.605 2.293 3.898 6.305v.23l-1.147 5.274v.114l-.114.115-3.21 3.21 1.375 2.637h.115v.115l.229 2.751v.344h-.344l-5.388.23-4.242 5.618-.23 3.324 5.16 2.064 2.063-2.522.115-.115h.115l4.815-1.605.344-.115.115.23 2.981 6.076.114.229-.229.23-11.236 8.828-.229 4.93v.229l-.115.115-3.898 2.981-.115.114-.229-.114-4.93-1.949-3.439 2.866-10.433 11.58 1.031 2.522v7.796l1.72 1.376 4.357-4.93.114-.115.23.115 13.185 5.044 4.586-2.063 2.637-6.421v-.229h.343l8.714.803h.115l.114.114 6.421 7.338 7.108 3.669 9.974 1.146 3.899-2.178.229-.115.229.115 10.663 8.828 6.649.917 11.924-20.408.115-.114 8.942-8.026 1.376-4.93.115-.114 8.828-7.911.344-.23.229.344 1.835 2.867 4.93-.23 5.847-5.274h.229l8.943-.229 6.535-5.388h.229l12.841-.574 3.325-4.012h.114l5.16-1.72 2.981-4.701-1.95-6.42v-.344l2.408-4.128-2.522-.458-1.605 2.407-.115.115h-3.21l-3.898 3.669-.115.115h-.229l-4.701-1.147-3.554 4.127-.115.115h-.229l-10.662.917h-.115l-.115-.114-46.318-33.02-4.357 1.376h-.229l-19.95-2.178zm-70.739-50.79l1.491 1.605 1.949-1.261-.573-2.293-1.491-1.147-1.146 1.605-.23 1.491zm139.071 5.274l2.408-1.835v-3.898l-2.866-.688.458 6.421z"/><path fill-rule="evenodd" clip-rule="evenodd" d="M438.122 229.556l-3.555-6.535-9.401-10.089h-7.108l-.917 4.012-.23 6.191-5.044 2.981-2.752-.573-1.834 2.866-3.555-2.866 4.013-3.669v-4.127l-13.185-.229-6.535-4.816-10.089.918-3.554-4.816 5.962-.573 3.095-6.191-8.025-1.835-3.669 4.472-1.949-3.325-20.522-5.159-2.637 2.637-2.981-2.752-10.777 6.306-5.618-5.389 1.605-4.815-1.605-4.93 6.649-2.178 6.192 4.242 2.98-4.816-.114-8.828-8.255-8.942-2.408 8.828-11.235 7.223-.918 5.617-5.388 4.816 2.064 11.235 5.961 8.829 5.389.687h.115l.114.115 2.866 4.242 19.95 2.179 4.586-1.376.114-.115.23.115 46.318 33.134 10.433-.918 3.669-4.127.115-.229.229.114 4.701 1.032 3.898-3.554.115-.115h3.095l1.605-2.407.115-.229h.229l2.981.573 2.408-4.242-2.522-4.472-.115-.229.115-.115 4.586-3.783z"/><path fill-rule="evenodd" clip-rule="evenodd" d="M421.612 210.179l-4.127.459-3.211-5.503.803-5.045 5.274-1.261 1.49 5.618-.229 5.732zm-64.09-25.796l3.211 4.242 7.567.23.802-2.867-.458-4.242-4.013-4.356-5.733 2.063-1.376 4.93zm56.294 5.619l1.719-16.51 1.262-6.42 5.503-5.848 6.535-2.178 2.637-3.783-1.491-4.586 4.816 3.095 4.356-.458 1.032-3.211 2.866.115.23-3.21 3.554 1.261.573-3.21 2.637 2.866 1.949-2.637.688-4.013 3.784 2.637 2.293-2.178 5.044 1.146 4.242-4.815 31.873-.688 7.682-4.127.802-5.733-3.21-3.898-7.682 1.949-1.375 2.866-13.071-1.146-5.617-4.815-5.045 2.866-5.045-2.178-6.305 4.127h-5.274l-2.637 2.178-3.554-3.668-1.72 7.681-3.898.229-.459 2.981-9.86 3.096-3.439-1.491-2.179 2.523 2.752 2.866-3.898 3.783-6.306-2.637-.917 4.816-4.586-.23-.23 3.669-6.305 3.325-3.898-1.376-4.357 3.325-.229 4.816 4.127 4.127.229 6.306-4.012 4.012 3.095 6.765 3.554.458.23 2.981 3.898.918 2.637 1.261zm-99.631 3.783l-5.618 5.045-2.637-4.816 3.669-.802-4.586-8.714-7.108 1.147-7.109-2.523-8.828 1.376-4.815 12.153-3.554-2.064-5.045-11.809.688-9.172-8.255.918-2.178 7.911 3.554 4.242-3.325 4.471-5.503-2.981-.917-6.306-.115.115-2.752 2.981-.114.114h-.23l-2.293-.458-3.095-.917-.459 2.407v.115l-.114.115-5.045 5.044-1.032 3.898 1.491 2.637 1.49 2.293.115.23-.23.229-5.273 5.503-1.147 5.159v.344h-3.096l-2.293 2.408-4.7 5.503-.917 6.65 12.153 13.758 4.127 3.898 4.357 2.752 4.586 5.274 7.223.229h.229l.115.229 2.866 7.223 2.178-1.032h.229l4.243 1.376.343.115-.114.344-1.376 3.439 3.898 1.949.229.115v4.127l4.013-.573h.115l.229.115 3.21 3.898v.114l.115.115.344 4.701 3.21-2.637.115-.115.229.115 4.93 1.949 3.554-2.752.23-4.93v-.229h.229l11.006-8.943-2.637-5.388-4.586 1.49-2.178 2.637-.229.229-.23-.114-5.503-2.293-.229-.115v-.229l.229-3.669v-.115l.115-.114 4.356-5.847.115-.115h.115l5.274-.229-.23-2.293-1.605-2.752-.114-.229.229-.115 3.325-3.439 1.146-5.045-3.898-6.42-.114-.115.114-.229 1.835-2.752.229-.344.344.229 14.102 10.892.115.115v.114l.802 3.899 5.274-.23h.229l5.618 3.554 4.013-2.293-1.147-4.586v-.229l1.605-2.866-2.522-3.669-.114-.229.229-.23 6.993-9.057-2.751-4.013-5.389-.688h-.229l-.115-.114-5.961-9.058v-.114h-.115l-1.949-10.892zM501.064 66.179l2.408 2.178 3.21-2.751-1.605-2.293-2.407.573-1.606 2.293zm5.16 1.949l1.72 1.376 3.095-1.605.803-3.554-2.293-.573-3.325 4.356zm8.255-.458l2.981 2.75 6.191-3.095-1.261-3.44-4.128-1.719-3.668 2.98-.115 2.523zm6.535-6.536l2.637 1.262 1.719-1.95-2.178-2.063-2.178 2.751zm11.465-7.222l.803 2.751 2.637-1.031-1.032-3.325-2.408 1.605zm-8.714-6.879l1.376 1.376 1.949-1.49-2.751-2.638-1.491 1.147.917 1.605zm-7.796 1.719l.344 2.178 2.981 1.95 1.72-2.638-1.605-3.21-3.44 1.72zm-5.732 2.408l5.503 4.93-.688 4.127-5.503-1.834-3.669-4.242 4.357-2.98zM525.6 66.867l.802 3.21 6.077-.114 2.407-4.013-1.949-3.325-2.637 3.669-3.898-.917-.802 1.49zm-16.624 7.337l1.605 2.293 1.376-1.834-1.376-2.522-1.605 2.063zm-15.134-15.935l2.522 4.127 2.866-2.751-1.49-3.44-3.898 2.064zm7.108-1.377l.573 2.523 1.606-1.147-1.262-2.751-.917 1.375zm-2.637-13.757l1.949 2.637 1.72-1.72-2.866-2.637-.803 1.72zM481.23 37.86l.917 3.554 2.637 2.064 3.669-.344 2.408 1.835 1.375-1.72-2.866-2.637-2.637.802-5.503-3.554zm.688 8.943l-.229 2.98 2.752 2.752 2.751 3.555.917-1.606-.802-3.324 3.783-.917 4.816 1.605 3.095-3.096-2.866-3.21-2.293-.803-2.408 1.835-3.325.458-2.063.918-4.128-1.147zm5.962 11.466l-.573 1.949 2.178 1.375.229-2.751-1.834-.573zM57.827 148.956l12.611 27.287 7.911-4.013.573-15.134-3.668-5.732-1.72 6.764-3.784-2.407-3.095-8.828-3.784 2.407-5.044-.344zm44.369 200.982l-.114 1.835-5.733-.115-2.293 3.325-2.98.344-3.555 6.42-5.962 2.179-4.242-6.306-10.089-1.376-4.7 4.93 10.089 5.962-2.981 2.064-5.274-3.21-2.981 2.407 1.834 3.554H67l.114.115 4.472 5.389.114.229-.114.229-3.325 6.191 4.357 5.274.114.229-.114.23-1.032 1.949-.23 4.242 2.523 3.095 2.293-2.751.229-.115.23.115 3.783 1.376 1.49-2.293.115-.23.23.115 3.21 1.261.114.115v4.93l3.784 1.72.114.114v4.815l1.95 3.096 4.585-.573 1.49-2.637v-.229h7.682l4.357-4.93-.115-2.408-4.127-.459-.344-.114v-.23l-.229-3.554-3.898-5.388-.115-.115.115-.115 1.949-7.452-2.408-3.783-.229-.23.344-.229 5.388-3.096.229-.114.23.114 1.949 2.064 3.783-.344 2.179-4.357-.688-7.452-.115-.229.229-.115 5.733-3.783-.917-9.058-4.586-.229-3.211 2.293-.229.115-.114-.115-3.669-2.408-4.472-2.293z"/><path fill-rule="evenodd" clip-rule="evenodd" d="M141.292 405.315l6.306-2.064.917-4.93 5.389-2.981 5.847-1.49 2.063-.688-.229-7.911-3.554-.688h-.115l-.114-.114-1.72-2.523v-.229l-.229-4.586-2.179.917h-.114l-2.752-.114-.344-.115v-.344l.229-3.439v-.115h.115l2.752-3.21v-4.357l-6.077-5.847-3.554-.803h-.115l-.114-.114-2.523-3.211v-.229l-.458-4.586-5.045-1.834h-.229v-.115l-2.178-4.357-2.752.803-.115.114-5.503-.802-.459 3.669v.229l-.229.115-5.044 3.095 1.031 9.402v.114l-.229.23-5.732 3.668.687 7.338v.229l-2.293 4.701-.114.115h-.229l-4.128.344h-.115l-.114-.115-1.949-1.949-4.93 2.866 2.407 3.554.115.115v.115l-2.064 7.452 3.669 5.159 9.172 1.032 1.032-2.637v-.229h.344l3.096.229h.229l.115.344.917 4.701 3.554.458 3.095-1.949.115-.115h.115l11.121 2.293h.229v.23l2.981 5.159z"/><path fill-rule="evenodd" clip-rule="evenodd" d="M114.005 447.965l5.847 2.178 15.707-.344-1.261-6.191 3.898-.802 2.981-16.854-2.637-3.554-3.898-.917.573-3.096 4.816-4.586-4.242-5.962 2.063-1.032 2.752-1.261-2.752-4.93-10.891-2.293-2.867 1.835 2.064 5.159v.229l-2.064 9.746 2.523 4.586.114.114-.114.115-2.523 7.452 1.032 4.586.115.459h-.573l-4.586-.574-2.408 1.147-.229.115-.115-.344-1.72-2.408-1.49 1.72 2.407 5.732.115.23-.229.229-3.21 2.637v.115l-2.981 1.49 3.783 5.274z"/><path fill-rule="evenodd" clip-rule="evenodd" d="M101.738 450.372l5.847.115 5.503-2.522-3.669-5.16-.229-.344.344-.229 3.21-1.72 3.096-2.407-2.408-5.733-.114-.229.114-.115 1.949-2.293.344-.344.229.344 1.72 2.637 2.293-1.032h.115l4.242.459-.917-4.127v-.23l2.522-7.337-2.522-4.586-.115-.115.115-.115 2.063-9.745-2.063-5.159-3.669-.573h-.229v-.23l-1.032-4.7-2.523-.23-1.031 2.637-.115.23h-.229l-9.172-1.032.229 2.981 4.127.458h.23v.344l.344 2.866v.115l-.115.115-4.701 5.159-.114.115h-7.453l-1.49 2.751-.115.115h-.114l-4.93.573h-.23l-.114-.229-2.064-3.325-.115-.115v-4.471l-3.668-1.72-.23-.114v-4.93l-2.522-1.147-1.49 2.408-.115.229-.23-.115-4.012-1.49-2.179 2.637 2.523 3.096 2.637-.459.229-.115.115.23 1.72 2.522 3.553.917.115.115.115.114 1.605 4.128 3.554 6.191.115.115-.115.114-.917 6.191 3.783 6.879v.115l1.376 5.389v.114l-.23 5.618 5.848 5.847v.115l1.376 3.439z"/><path fill-rule="evenodd" clip-rule="evenodd" d="M65.623 469.863l-1.95 1.949.345 5.617 5.159 7.453-.344 7.911-.917 3.668 4.7 5.848 2.179-.918 1.376-2.293 2.751 1.491 2.981.917 3.554-2.178v-9.975l2.523-13.987 8.942-8.599.688-8.943-.917-4.012 4.357-3.211-1.261-3.325-5.733-5.732-2.063 1.605-.115.115h-.115l-6.076-.344-3.325 2.637 1.146 2.407.115.23-.23.114-2.98 1.835 3.783 5.388 4.013.803h.23v.229l1.375 4.93v.229l-.23.115-3.095 1.376h-.229l-3.096-.229-4.012 7.796-.23.458-.344-.344-3.095-2.637-1.835 2.064-.114.229-.23-.114-7.681-.573z"/><path fill-rule="evenodd" clip-rule="evenodd" d="M64.018 462.754l1.26 3.669.574 2.751 7.338.574 1.949-2.179.229-.229.23.229 3.095 2.523 3.898-7.682.115-.115h.229l3.325.23 2.751-1.147-1.146-4.471-3.898-.688h-.23v-.115l-5.388-7.681-4.128-.23-2.063.803 2.293 8.599.114.229-.344.115-10.203 4.815z"/><path fill-rule="evenodd" clip-rule="evenodd" d="M61.496 459.2l.114 1.605 1.95 1.49 10.088-4.815-2.063-8.14-1.835.802-1.834 5.504v.114l-.115.115-2.522 2.064h-.115v.114l-3.668 1.147z"/><path fill-rule="evenodd" clip-rule="evenodd" d="M53.584 447.506l.344 6.306 7.453 3.554.114 1.147 3.325-1.147 2.523-1.949 1.72-5.618.114-.114.115-.115 4.127-1.834-3.21-2.637-1.261 2.063-.115.23h-.23l-8.483-2.064-6.306 2.064-.23.114z"/><path fill-rule="evenodd" clip-rule="evenodd" d="M48.081 434.55l3.899 4.357.229 5.962 1.261 1.834 6.535-2.064h.115l8.37 1.95 2.636-4.586-1.146-3.669h-4.013l-.115-.115-7.681-6.994-5.503-.229-4.587 3.554z"/><path fill-rule="evenodd" clip-rule="evenodd" d="M38.45 416.665l4.587 7.682v4.701l4.586 5.044 4.7-3.669.115-.114h.115l5.388.229-.23-5.618v-.114l.116-.115 2.866-1.949-4.128-7.682-1.375 2.752-.115.229h-.23l-4.93-.573h-.114l-.115-.115-2.751-3.668-8.484 2.98z"/><path fill-rule="evenodd" clip-rule="evenodd" d="M29.737 367.48l.344 6.535-2.063 2.408.917 2.751 2.98 2.293-.229 4.701 1.72 7.452-.573 6.879-1.261 11.351 1.49 2.063 2.981-1.261 1.95 3.325 8.942-3.096.23-.114.114.229 2.751 3.784 4.586.458 3.325-6.535.115-.115h.115l3.44-1.375-1.377-1.949-.114-.23.114-.229 1.95-3.669-2.179-1.949-.23-.229.23-.229 2.522-2.523.23-2.178v-.229l.229-.115 2.98-1.147.345-.114.114.229 1.835 3.325 2.407-1.949.23-4.242v-.229l.917-1.835-4.242-5.274-.115-.229.115-.229 3.325-6.306-4.128-5.159h-4.013l-.114-.23-2.293-4.471-6.88-6.191-.916 8.943-3.784-1.835-7.108.344-2.637 3.325-5.274-8.828-4.013 3.898zm7.109 41.159l-.23-4.356v-.688h.688l4.586-.459v-3.325l.115-.114.115-.115 5.159-3.783-3.325-2.064-4.357-4.93-.114-.115-.115-.114v-.23l.573-3.898.115-.458v-.459l.459.115.458.114 3.669 1.261h.229l.115.115.114.115 2.867 4.586h4.7v.688l.23 4.127 2.866 2.408.115.114.114.115v.344l-.23 5.733v.229l-.114.114-.114.115-4.128 5.503-.573.688-.459.688-.114-.802-.115-.803-.573-4.701-6.535 7.223-.23.23-.229.229-.23-.115-.228-.114-4.93-2.293-.23-.115-.229-.115v-.229l.115-.459z"/><path fill-rule="evenodd" clip-rule="evenodd" d="M70.897 396.601l-2.523 2.178-.344.23-.229-.344-1.834-3.325-2.408 1.032-.23 2.178v.115h-.114l-2.408 2.407 2.064 1.835.23.114-.115.23-1.95 3.783 1.377 2.178.229.344-.344.115-3.784 1.491-1.49 3.095 4.471 8.484.115.23-.23.229-2.98 1.949.229 5.618 7.567 6.879h4.242l.115.229 1.26 4.127.115.115-.114.115-1.261 2.293 3.669 2.981 4.356.229h.115l.115.115 1.26 1.719 2.638-1.605-1.147-2.293-.115-.344.23-.114 3.668-2.867.115-.114h.115l6.076.344 2.064-1.72.344-5.503-1.261-5.389-3.898-6.879-.115-.114v-.115l1.032-6.191-3.554-6.077-1.49-4.012-3.44-1.032h-.115l-.115-.115-1.72-2.408-2.636.459h-.23l-.114-.115-5.503-6.764zm-33.707 7.567l.343 4.471 4.93 2.293 6.994-7.796.459-.458.114.688.688 5.503 4.128-5.503.344-5.618-2.981-2.523-.115-.114-.115-.115-.229-4.357h-4.357l-.114-.114-2.981-4.816-3.669-1.261-.573 3.898 4.242 4.93 3.669 2.293.458.344-.458.23-5.504 4.127v3.439h-.344l-4.93.459zm583.799 136.778l15.821 6.42 14.561 3.325 2.981 11.58 10.662 5.618 7.453-.23 10.662-6.305 8.255 2.637 8.599-.574 2.293 3.898 4.93.23 1.605-5.962v-.229h.114l4.816-2.523-5.16-5.503-.229-.344.344-.229 4.93-4.013-1.834-5.618-.23-.458h9.975l5.732-4.816.115-.114h.229l5.16.688 9.63-12.727.115-.114.115-.115 6.191-.459 1.949-2.98v-.115h.114l5.274-2.178 4.128-5.045.458-5.274-4.242-2.866-.229-.115v-5.503l.229-.115 9.172-6.993 3.21-7.338v-.115h.115l8.14-2.866-.458-6.535-4.93-4.471-5.618-.918h-.115l-.114-.229-4.586-13.873-2.867-2.637-.229-.229.115-.229 2.866-4.128-.344-3.898-3.44 3.784-.114.114h-.229l-2.867-.458-1.605 6.306v.229h-.229l-15.478 4.242h-.229l-.115-.229-2.637-3.44h-3.554l-.115-.114-3.324-1.72-1.835 4.242v.229h-.115l-7.452 2.408-.114.114-.115-.114-3.784-1.261-.802 4.242-.115.229h-.229l-7.452.917.573 3.784 4.586 3.783.344.229-.229.23-3.899 4.586-.687 6.879 2.407 5.847.459-1.147 1.49-9.516v-.114l2.523-4.357.114-.229h.23l3.21.458h.344v.23l.573 3.668v.115l-1.49 8.484.573 8.37 1.261 4.586.115.114-.115.115-1.72 4.357v.114h-.114l-2.523 2.408-.917 1.605.917 2.866v.23l-1.146 2.866-.115.229h-.115l-2.866.688-.115 3.21v.115h-.114l-3.554 5.962-.115.115h-.115l-5.388 1.719-3.554 4.816-.115.229h-.229l-4.128-.344-1.032 6.076v.115l-.114.115-2.981 3.439h-.115v.115l-9.86 4.242-1.261 4.471v.23h-.229l-6.306 2.063-.344.115-.114-.344-.918-3.554-6.649-1.376h-.23v-.229l-.573-4.93-4.586-5.847h-6.306l-.114-.115-12.727-10.089-.114-.115-4.013-5.389-6.306 4.587h-3.898l.115.802.114.115-.114.114-1.949 2.064.688 2.866v.115l-.115.115-2.637 3.095 2.408 4.701z"/><path fill-rule="evenodd" clip-rule="evenodd" d="M530.53 568.004l23.962-9.058 8.598-.573 1.605 2.178 12.841 2.867.917 5.847 4.93 2.407 13.644 1.491 5.388.688 2.752 2.637 4.357-1.491 3.898-3.325 2.866-6.993-4.701-5.618.574-8.599 2.981-.917.114-3.898 4.013-.23 1.032-4.127-2.523-4.93-.114-.229.229-.115 2.752-3.21-.803-2.866v-.115l.115-.115 1.949-2.063-.459-1.949-5.618.344h-.114l-.115-.115-14.102-9.745-.802 3.898v.229h-.344l-17.083 1.491-1.147 4.586v.229h-.229l-3.325.917.344 3.096v.229l-.115.115-4.586 2.98-.229 2.981v.344h-.229l-3.21.803-5.618 4.701-.115.114h-.229l-13.185-1.72v-.114h-.115l-8.14-5.733-3.669-.229-2.407 6.306-.115.229h-.229l-9.287.573.573 6.535 5.618 9.975.115.229-.229.23-3.899 2.636.918 6.192z"/><path fill-rule="evenodd" clip-rule="evenodd" d="M478.593 548.971l.688 6.421 5.962 3.325.229 6.305 5.962 1.261 2.408 2.981 6.764-3.554 1.261 4.701 4.357 6.306 6.764.802 2.064-4.471 8.943-.344 5.962-4.471-.918-6.65v-.229l.23-.115 3.783-2.637-5.503-9.745v-.23l-.573-6.305-4.816 3.668-.229.23-.229-.23-4.357-5.617-.115-.115v-.115l1.491-6.764-2.522-2.866-7.453-.23v.115h-.229l-4.701.917h-.114l-.115-.114-3.898-3.096-.229 3.096v.229l-3.784 5.618-.114.229h-.23l-6.879-.573-5.503 1.834-2.178 2.981 3.439 1.72.115.114v.115l.917 4.127.115.344h-.344l-6.421 1.032zm40.357-15.936l4.128-1.491 3.095-1.49 5.159-5.159-1.146-3.21v-.23l.917-3.669-1.261-4.93v-.114l.115-.115 3.439-4.357 1.72-5.273-5.045-1.72h-.114v-.115l-.918-3.095v-.115l.115-.115 3.898-5.159-2.064-5.159v-.23l.918-4.127v-.115l.114-.114 5.274-2.523 2.637-2.636-5.503-10.778-.115-.114v-.115l.803-3.783-5.962 2.522-.115.115-.114-.115-7.796-3.44-8.829 1.262-3.324 4.012-.115.115h-9.401l-.23 24.535 3.325-.458h.344v.343l.573 4.93 4.586 4.93v.115l1.491 4.242 4.242 3.096.344.229-.229.344-3.211 3.898 2.637 2.866.115.115v.229l-1.261 5.045v.115l-.115.114-3.325 2.064-.229 5.847 7.567.229h.115l.114.115 2.637 2.637z"/><path fill-rule="evenodd" clip-rule="evenodd" d="M431.243 493.366l9.057 43.338 4.93-.802 3.325-4.816 3.21 1.261.917 5.045 10.204 5.618 8.14-2.981 4.242 1.834 3.096 6.421 5.962-.688-.917-3.554-3.555-1.835-.344-.114.23-.344 2.522-3.44v-.114h.115l5.618-1.949h.229l6.65.573 3.554-5.389.344-3.669.114-.573.459.344 4.242 3.325 4.242-.803.344-6.305v-.23l.115-.114 3.439-2.064 1.147-4.701-2.752-2.981-.229-.229.229-.229 3.21-3.784-4.012-2.981h-.115l-.115-.114-1.49-4.357-4.701-4.93v-.229l-.573-4.586-3.325.344-4.127 3.783-.115.115h-.229l-8.026-.688-2.408 1.834-.229.115-.229-.115-2.408-1.949-6.993 6.765-.23.229-.229-.229-5.503-5.274-.115-.115-.917-4.013-4.471-5.961-18.459 6.305h-.23l-3.898-1.719-1.834 1.261-.115.114-.229-.114-2.866-1.835-3.898 2.293z"/><path fill-rule="evenodd" clip-rule="evenodd" d="M417.141 474.907l9.745.229-3.898 4.128 8.025 13.414 3.898-2.293.23-.115.114.115 2.981 1.834 1.72-1.261.115-.115.229.115 3.898 1.72 18.573-6.421h.23l.229.115 4.586 6.306h.115v.114l.917 3.898 5.159 5.045 6.879-6.764.229-.23.23.115 2.522 2.064 2.293-1.835.115-.114h.229l8.026.802 4.012-3.669.23-24.764h-3.325l-4.472 3.783-.344.23-.229-.23-1.949-2.522v-.344l.573-9.286-13.528-.344-.115-.115-.115-.115-2.407-4.471-6.994.229h-.344v-.344l-1.376-4.93-4.356-5.732-23.618-11.236v7.796l-.115.115-4.471 2.637 1.261 4.93.229.573-.573-.115-5.733-.343-4.471 1.834-2.637 4.701.573 13.528v.115l-3.095 7.223z"/><path fill-rule="evenodd" clip-rule="evenodd" d="M380.797 443.493l2.637.803.229 4.93-1.72 1.834 1.147 3.325-3.669 4.357.688 3.21 8.025 1.834.459 4.242 3.898.23 2.981.802 2.981 3.325-4.357 3.554v2.981l4.357-1.261 3.783 1.949 3.325-.688 2.752-2.407 8.14-1.491 3.095-7.567-.573-13.529v-.114h.115l2.637-4.93.114-.115h.115l4.586-1.949h.229l5.389.344-1.261-4.815-.115-.23.23-.114 4.471-2.637v-18.917l-3.21-3.44-.23-.229.23-.23 3.439-4.127-.344-2.637-6.306 4.357-.114.114h-.115l-4.815-.229h-.229l-4.701-2.751-5.159.802h-.23l-6.764-4.815-2.981-.573-.573-.115.344-.459 2.178-3.095-3.325-3.21-6.191 6.076-.573 5.732v.115h-.115l-1.834 2.293.458 1.72 3.899 1.49.229.115v.115l1.376 3.668v.23l-.803 3.439v.115l-1.376 2.178-.114.23-.23-.115-4.7-.917-3.44 3.898-1.032 4.357v.229l-6.191 5.732-1.146 2.981z"/><path fill-rule="evenodd" clip-rule="evenodd" d="M511.269 394.194l-5.045-3.669-10.089 5.847-.229.115-.23-.115-8.484-6.191-12.038-.229h-.115l-.114-.115-7.911-5.274-5.733-1.605-5.274 4.013-4.013 12.611-.114.344-.23-.114-4.7-.459-3.554 2.293-.803 3.898v.115l-.115.114-6.42 3.669.344 3.096v.114l-.115.115-3.21 4.013 3.096 3.325v11.006l23.962 11.465h.114v.115l4.472 5.847.114.115 1.261 4.7 6.879-.114h.23l.114.114 2.408 4.586 13.643.344h.344v.344l-.573 9.631 1.605 2.064 4.357-3.669h13.299l3.325-3.898.115-.115h.115l9.057-1.261h.229l7.682 3.439 6.191-2.751.344-6.306v-.229l.115-.115 6.535-4.93.802-2.981-5.618-1.834h-.229l-4.013-4.128-.114-.114v-.115l-.574-5.274-.114-.229.229-.115 7.108-6.191.23-3.554-4.701-.573h-.229v-.23l-5.274-10.777-18-2.751-.344-.115v-5.389l.114-.114 2.408-2.981-2.522-8.828zm23.274 88.051l-2.179 1.032-.917 3.783 2.178 5.16.115.229-.229.115-3.898 5.274.802 2.751 5.159 1.835.344.114-.114.344-1.835 5.618v.115h-.114l-3.325 4.242 1.261 4.815v.229l-.917 3.669 1.146 3.325.115.229-.115.115-5.388 5.389h-.115l-3.096 1.605-4.242 1.49-1.49 6.535 4.013 5.274 5.159-3.898.459-.344v.229l9.172-.573 2.407-6.306.115-.344.229.115 3.898.229 2.637-5.732.115-.115h.115l4.93-1.834 1.49-3.325v-3.898h.115l4.471-2.408-.229-3.898-1.835-5.503-.114-.115-.918-5.274-4.012-6.191-.115-.115.115-.229 1.719-3.783-3.095-1.949-5.159.573h-5.962l-.115-.229-2.751-8.37zm-8.599-277.454l3.21 4.128 2.178-.918-.688-5.847-2.178-1.146-2.522 3.783zm8.828-26.369l1.72 2.178 1.719-1.834-.802-2.867-2.178.688-.459 1.835zm60.994-102.153l6.993 1.26-1.605-5.273-4.93.115-.458 3.898zm5.847 13.185l3.784-5.16-.917-4.471 3.783-2.522 3.669-3.67 4.242 3.67 2.293 6.65 1.49 2.98-3.898 2.064v3.554l-9.516 4.357-4.93-4.472v-2.98zm-3.554 5.732l7.337 2.751-1.032 3.554-3.324 1.835-4.93-3.44-.803-3.21 2.752-1.49zm6.535 11.579l3.325-8.025 8.943-4.357 1.605 6.191 2.407-.803.344-2.637 4.013 4.013-.344 5.159-2.981 4.93 2.523 3.096-.688 4.471-3.21 1.72-6.65-4.471-5.962-5.16-3.44-1.49.115-2.637zm23.503 4.586l-.803 10.548-4.012 7.223 1.49 5.503 6.535-5.274 6.879-.458 3.669-3.669.459-8.37-3.898-4.93-3.211 3.325-1.834-1.949.344-4.93-5.618 2.981zm19.147 15.134l.688 2.867 5.044 1.146-.229-1.949-5.045-3.21-.458 1.146zm-38.867 20.981l2.637 2.064 2.064-1.147-1.49-2.981-3.211 2.064zm-23.732-3.783l3.439 1.834.23-2.637-2.179-2.637-1.719 1.491.229 1.949zm20.866 11.121l1.376 1.49 1.605-1.605-1.834-1.949-1.147 2.064zm-56.866 35.198l2.522 2.407 1.72-1.719-.574-2.637-2.293-.574-1.375 2.523zm6.191 3.095l1.49 1.146.918-1.834-1.605-1.835-.803 2.523zm3.783-6.994l1.49.917.803-1.605-2.178-1.49-.115 2.178zm2.637-3.897l1.605 1.261 1.605-2.178-2.522-1.835-1.376.917.688 1.835zm-11.694-13.3l1.834 1.261 2.752-1.605-1.605-2.752-2.293-.688-2.179 1.949 1.491 1.835zm5.732-9.401l-.573 1.605 1.376 2.064 1.605-1.72.115-1.834-2.523-.115zm-4.356-66.384l-.344 2.179 2.178 2.293h3.21l-.114-2.752-2.179-2.98-2.751 1.26zm14.216-17.081l2.866.917 3.325-.803-1.949-4.242-2.407-1.95-1.72 1.606-.344 2.752.229 1.72zm120.842 274.357l-2.293 2.523-.115.114h-.115l-5.388 1.147-4.815 2.178.229 5.389 1.376 3.669v.114l-.115.115-2.752 6.076 2.752 4.357v.229l.573 6.535v.23l-4.242 8.255v.114h-.114l-7.109 4.357 2.637 4.586.115.229-.115.23-2.981 4.127 1.605 5.389 6.077 1.949.229.114v.23l.803 4.012v.23l-.115.114-4.471 4.701-.23 3.325 2.867.802h.229l.115.23 1.375 4.242.115.229-.115.115-3.324 3.324-1.376 5.045-.115.459-.344-.23-6.306-3.668h-.114v-.115l-2.981-6.535-5.733 2.637-.802 5.503v.115l-.115.114-12.726 13.414.573 6.421v.229l-.229.115-3.44 1.376-.344.114-.114-.344-4.93-10.548-3.325 4.357-.115.115h-.114l-13.185.573-5.159 9.631 5.847 9.172.114.114v.115l-1.146 5.159v.23h-.229l-5.848.802-3.324 6.306-1.147 16.968v.344h-.344l-5.618-.573-4.013 1.834v3.325l9.631 8.599 14.446 10.089 5.847-.344h.344l.115.344.229.917 3.669.115 6.535-4.701.229-.229.23.229 4.127 5.733 12.612 9.974h6.305l.115.115 4.815 6.076.115.115v.115l.573 4.7 6.65 1.262h.229v.229l.917 3.439 5.733-1.949 1.146-4.012h-6.42l-.115-.23-1.375-2.866-.115-.229.229-.115 2.866-1.72h.23l3.898-.573 7.911-5.503 2.866-4.357 5.847-5.274 1.261-3.898 3.44-5.962 4.127-6.42 3.554-9.86 2.752-7.911-2.866-6.65v-.229l.688-7.108v-.115l.114-.115 3.669-4.356-4.357-3.669-.114-.115v-.114l-.688-4.128-.115-.344h.344l7.567-.917.917-4.357.115-.344.344.115 4.013 1.376 7.108-2.408 1.949-4.471.115-.344.344.229 3.554 1.949h3.783l.115.115 2.522 3.439 15.019-4.012 1.605-6.421.115-.344h.344l2.981.459 3.783-4.242.574-.573.114.802.459 4.586 9.172 1.376 5.388-3.784.23-6.993-5.733-4.013-.114-.115v-.114l-.459-8.828v-.23l.115-.114 3.21-2.408.115-.115h.114l7.796-.229-7.337-16.624-3.898-2.752-6.879 3.096-.344.114-.115-.343-2.522-7.567-11.007-4.357-5.503.917-8.599 18.573-5.847 6.765-.229.229-.229-.229-4.128-4.128-2.637 4.701-.114.115h-.23l-7.911.344-5.388 4.127-.229.229-.23-.229-5.159-5.503-.115-.115v-.114l.917-14.217 4.701-10.892-6.076-1.834h-.115l-.115-.115-2.866-6.42v-.23l2.178-9.057-4.929-2.752-.23-.114v-.23l.344-8.942-3.669-6.994-2.866 2.064-.115.114h-.114l-4.242-.344h-.344v-5.273l.114-.115 3.211-2.064-2.637-4.013zm-33.822 172.205l-.688-3.439v-.344l.344-.115 3.325-1.032-1.491-5.044-.114-.344.344-.115 4.012-1.491.344-.114.115.229 3.096 6.191 7.796-4.586.229-.114.229.229 2.637 3.783 2.293 2.064 2.981-1.146h4.586l.115.114 2.064 3.21.114.23-.114.229-8.026 10.204-.229.229-.23-.229-4.929-3.44-5.962.574h-.115l-.115-.115-3.554-2.178-4.242-3.096-4.357-.344h-.458z"/><path d="M652.289 519.277l.573 2.866 4.013.344h.229l.115.115 4.242 3.095 3.439 2.178 5.847-.573h.344l.115.115 4.586 3.21 7.681-9.745-1.834-2.866h-3.898l-2.866 1.031-.23.115-.229.115-.115-.23-.114-.114-2.293-2.064h-.115v-.115l-2.522-3.439-7.452 4.357-.344.229-.344.229-.115-.344-.229-.344-2.867-5.962-3.439 1.262 1.376 4.7.114.344v.344l-.229.115-.344.114-3.095.918z"/><path fill-rule="evenodd" clip-rule="evenodd" d="M707.894 567.545l3.095.115 3.211 5.961 24.535 2.293 16.395-9.859 5.274-.23 1.719-5.388 8.026-7.453 11.236-.573 3.324 3.21 4.701-4.356 19.835 3.21 2.751-7.682 6.765-4.7-2.752-6.879 2.981-18.688 5.044-5.045-3.324-8.943-7.109-.802 5.045-9.402 8.943-6.191-8.026-12.038-.115-.229.115-.23 2.752-3.898-4.816-2.751-.114-.115v-.229l-.688-9.402-4.701 1.147-.229.115-.115-.23-2.981-5.388-6.305 3.554-.23.115-.229-.23-3.898-3.898-.229-.229.114-.229 2.293-3.096-7.796-5.159h-.115v-.115l-9.974-18.459-8.026.23-2.981 2.293.459 8.484 5.732 4.013.115.114v.23l-.229 7.337v.229l-.115.115-5.618 3.898-.114.115h-.115l-9.401-1.491-2.637 3.784 2.751 2.522.115.115v.114l4.586 13.758 5.389.918h.114l.115.114 5.159 4.701.115.115v.114l.458 6.879v.23l-.229.114-8.14 2.867-3.096 7.222v.115h-.114l-9.172 6.994v4.815l4.242 2.866.114.115v.229l-.458 5.618v.115l-.115.114-4.127 5.16v.114h-.115l-5.274 2.179-1.949 3.095-.115.115h-.229l-6.191.459-9.745 12.84-.115.115h-.229l-5.274-.688-5.733 4.815-.114.115h-9.402l1.835 5.389.114.229-.229.115-4.815 3.898 5.159 5.618.344.343-.344.23-5.044 2.637-1.72 5.503zm42.306-21.784l1.719-4.356.115-.23.115-.229h.458l9.631-1.146 2.752-5.733.229-.459.229-.458.344.344.344.344 2.178 2.063 2.293-5.503.115-.229.115-.115h.458l4.93-1.032h.23l.114.115.115.115 5.847 3.669.229.114.23.115v.458l-.688 3.899v.458h-.459l-2.866.688 4.93 4.471.344.344.344.344-.459.23-.458.229-20.294 9.745-.229.115-.229.115-.115-.115-.114-.115-11.809-7.337-.23-.115-.229-.115.115-.229-.344-.459z"/><path d="M752.493 541.519l-1.72 4.471 11.809 7.338 20.293-9.86-5.389-4.93-.458-.459.573-.114 3.554-.803.803-3.898-5.962-3.784-4.815 1.032-2.523 5.962-.229.459-.344-.344-2.637-2.408-2.751 5.962-.115.229h-.229l-9.86 1.147zM679.69 350.053l-.229.23-.115-.23-3.898-2.981h-9.401v-.458l.573-5.159.114-.115 5.389-6.535 1.605-4.242-3.554-2.408-.115-.114v-4.816l-2.981-3.325-.114-.114v-.23l1.376-6.649-3.555-2.637-.229-.23.229-.343 5.274-5.848-1.949-24.764-6.191-9.516 3.096-1.605 7.452-6.191h.229l4.472.458 1.605-7.681v-.115l2.178-3.325.573-4.356v-.115l.115-.115 9.172-7.223-3.898-4.815h-.115v-7.567l-8.025-11.35v-.115l-1.147-5.733-2.407-3.324h-.115v-.23l.229-3.21-4.93 2.408-5.503 4.356-7.681 2.179-2.981 5.274.114-7.453 15.593-16.051 8.598-15.592 3.899-13.758-12.039-13.643-11.121-.459-4.013 5.618-4.471.802 3.44-9.516-9.172-1.146 2.98-4.357-5.617-4.586-5.045 1.835-8.026 11.923 1.835 7.109-8.599.573.229 2.293 3.096 4.586-6.077-1.261-3.21 2.981-7.108-1.262-.917-3.21-10.089.23.114 5.732-12.153 1.72-8.14 6.535-6.42.229-4.701 4.013-2.064 8.484 4.013 7.108-6.076 1.491-15.822-2.637-9.172-.229-2.752 5.044-.458 13.07 5.847 5.618 2.751 6.535h-8.025l-6.879-12.841-5.045.344v.574l4.472 9.401.114.458h-.458l-4.701.803-1.032 5.847 4.357 9.287.114.115-.114.114-1.032 4.472-.115.114-.114.115-10.434 4.701-1.261 5.159 6.765 8.942 7.681 1.95h.23v.229l1.719 9.63-.573 1.262-2.637 6.879-.115.114h-.114l-7.109 1.949 2.179 5.045v.229l-2.179 6.65 5.504 7.223.114.115v.114l-1.375 13.3 4.471 6.191v.229l-1.605 9.516 6.65 4.93.114.115v.114l1.147 6.879v.115l-.115.115-5.847 8.14-.573 7.337v.115h-.115l-9.172 11.694v9.058l7.567 4.242.229.115-.114.343-1.376 3.44v.115h-.115l-6.764 2.866h-.115l-5.618.802 2.408 8.714.114.114-.114.115-2.522 3.096v4.586l17.885 2.751h.229l.115.23 5.159 10.777 4.93.573.229.115v.344l-.229 4.012-.114.115-.115.115-6.994 6.191.573 5.044 3.899 3.898 5.847 1.835.344.115-.115.343-.917 3.44v.115h-.115l-6.42 4.93-.344 6.42v.229l-.917 4.128 5.617 10.891.115.23-.229.114-2.752 2.867h-.114l-2.408 1.146 2.752 8.255h5.388l5.389-.573h.229l3.439 2.178.23.229-.115.23-1.834 3.898 4.012 6.076v.23l.918 5.274 1.949 5.617v.115l.344 4.013v.229l-.23.115-4.471 2.407v3.669h-.115l-1.49 3.44-.115.114-.114.115-4.93 1.834-2.637 5.504 7.911 5.617 12.955 1.606 5.618-4.586v-.115h.115l2.98-.688.23-2.981v-.229l.114-.115 4.586-2.866-.344-3.21v-.344l.23-.115 3.439-.802 1.147-4.586v-.23l.229-.114 17.198-1.491.802-3.898-9.516-8.599-.114-.114v-4.013l.114-.115 4.357-1.949v-.114h.115l5.388.573 1.032-16.739.115-.115 3.439-6.535v-.229h.229l5.733-.803 1.032-4.7-5.847-9.287-.115-.229.115-.115 5.388-9.975.115-.229h.115l13.184-.573 3.669-4.701.344-.458.229.573 4.93 10.777 2.981-1.147-.573-6.305v-.23l.115-.114 12.726-13.873.802-5.503v-.115l6.765-3.21.114.344 3.096 6.764 5.847 3.44 1.261-4.701v-.115l.115-.114 3.21-3.21-1.261-3.898-2.981-.803-.229-.115v-.229l.229-3.669v-.114l.115-.115 4.471-4.701-.802-3.669-6.077-1.949h-.115l-.114-.229-1.72-5.618v-.229l.115-.115 2.981-4.127-2.752-4.586-.115-.344.23-.115 7.337-4.471 4.128-8.14-.574-6.306-2.751-4.471-.115-.23.115-.114 2.751-6.191-1.375-3.555v-.114l-.23-5.618-.114-.229.229-.115 5.159-2.293h.115l5.274-1.147 2.293-2.522-1.949-2.408-4.013 2.637zm438.08-8.598l-1.49-18.688-2.07-8.599-6.07-6.076.46-9.172 3.21-2.637-10.67-12.383.23-8.598 4.48-4.816-1.15-4.93-8.94-2.522-9.18-16.28 2.3-1.491 2.75 3.898 4.47-2.866-6.88-6.535-3.78 2.064-5.96-3.784-.12.115-3.09-7.338h-6.08l-.8 4.357-3.9-.459-12.73-25.337.69-8.026 5.16-1.146-3.78-15.02 8.02 6.421.23-18 6.31-6.535 9.51-.23-5.39-13.184-2.63-28.663-6.08 1.949h-.23l-.11-.114-4.59-2.408-7.91 22.815-.12.23h-.22l-10.09-.23-9.29 2.867-.34.114-.12-.344-3.09-8.369-12.5.802-2.29 4.013-.12.115h-.11l-8.72 2.063-1.49 4.472v.229h-.23l-4.698.573-1.49 5.16-.115.229h-.114l-5.504 1.72 1.032 5.388 7.799 11.351 4.81 1.031h.23v.23l3.33 8.713 5.5-.573h.23l.11.115 3.67 3.439.12.115v.114l1.03 5.274 5.04 2.867 3.44-3.211-9.51-11.465 2.29-7.452 9.17-3.21-4.93 7.337 1.15 5.618 7.34 5.045 3.32.115-.23 5.273 3.21.803-2.98 14.905 3.33 5.617 1.14 17.427 2.64 11.121 3.55 11.236-4.12 4.471 1.37 4.357-2.29 2.981 5.85 6.764.91 10.663 7.91 8.943 9.41 10.662 51.59 34.51zm-776.528-27.058h-.114l-.115-.115-10.548-8.713-3.898 2.063-.115.115h-.114l-10.433-1.261-6.994-3.669-.115-.115-6.42-7.223-8.37-.802-2.407 6.076 5.847 7.796.115.115v.115l.343 5.618v.229l-.229.115-9.745 4.012v3.325l2.751 2.293.23.229-3.096 4.013-2.637 2.981-3.554 9.172v.115h-.115l-2.98 3.325-1.95 5.044v.115l-3.324 3.554-.115.115h-.229l-2.752-.23-.115 6.994 3.211-.115h.344v5.389l6.879.344h.229v.344l.344 3.898 2.981.688.114.115.115.114.459 1.949v.115l.344 2.752 1.031 1.375 2.637-.688 5.733-6.879.115-.114h.114l6.535-.688 4.242-6.535.23-.459.229.344 2.981 3.325 2.637-1.72 1.032-4.586.114-.229h.23l7.337-.344 1.949-2.522.459-5.045.115-.115 3.21-3.783-2.408-4.471v-.23l.115-3.668v-.23l.229-.114 7.796-3.44 8.943-8.828 5.962-7.911 1.032-2.522-6.421-.917zM26.871 361.863l4.013-4.701-9.058-11.924 5.39-15.248-3.784-3.21-3.44 2.407-13.185-9.057-1.72 2.637.574 10.777-5.045 5.274 1.376 7.452 8.713-.573 9.631 12.268 6.535 3.898z"/></g><defs><clipPath id="clip0"><path fill="#fff" transform="translate(.616 .14)" d="M0 0h1139.97v593.2H0z"/></clipPath></defs></svg>