<svg width="42" height="42" fill="none" xmlns="http://www.w3.org/2000/svg"><g opacity=".3"><path opacity=".3" d="M21 41.032c11.046 0 20-8.954 20-20 0-11.045-8.954-20-20-20s-20 8.955-20 20c0 11.046 8.954 20 20 20z" fill="#0BCA8E"/><path opacity=".3" d="M21 41.032c11.046 0 20-8.954 20-20 0-11.045-8.954-20-20-20s-20 8.955-20 20c0 11.046 8.954 20 20 20z" stroke="#fff" stroke-miterlimit="10"/></g><path opacity=".5" d="M21 32.983c6.6 0 11.951-5.35 11.951-11.95 0-6.601-5.35-11.952-11.95-11.952-6.601 0-11.952 5.35-11.952 11.951 0 6.6 5.35 11.951 11.951 11.951z" fill="#0BCA8E"/><path d="M21 27.862a6.83 6.83 0 100-13.659 6.83 6.83 0 000 13.659z" fill="#518265"/></svg>