<svg width="20" height="21" fill="none" xmlns="http://www.w3.org/2000/svg"><g clip-path="url(#clip0)"><path d="M14.206.5H5.791c-.805 0-1.455.653-1.455 1.457v17.088c0 .803.65 1.455 1.455 1.455h8.415c.804 0 1.456-.652 1.456-1.455V1.957c0-.804-.652-1.457-1.456-1.457zm-6.284.885h4.155c.105 0 .19.156.19.35 0 .194-.085.352-.19.352H7.922c-.105 0-.19-.158-.19-.352 0-.194.085-.35.19-.35zM10 19.062a.93.93 0 010-1.858.929.929 0 010 1.858zm4.571-3.184H5.427V2.958h9.144v12.92z" fill="#0D815D"/></g><defs><clipPath id="clip0"><path fill="#fff" transform="translate(0 .5)" d="M0 0h20v20H0z"/></clipPath></defs></svg>