<svg width="20" height="21" fill="none" xmlns="http://www.w3.org/2000/svg"><g clip-path="url(#clip0)"><path d="M10 .5a6.674 6.674 0 00-6.667 6.667 6.68 6.68 0 00.8 3.168l5.502 9.95a.416.416 0 00.73 0l5.503-9.954a6.679 6.679 0 00.799-3.164A6.674 6.674 0 0010 .5zm0 10a3.337 3.337 0 01-3.333-3.333A3.337 3.337 0 0110 3.833a3.337 3.337 0 013.333 3.334A3.337 3.337 0 0110 10.5z" fill="#0D815D"/></g><defs><clipPath id="clip0"><path fill="#fff" transform="translate(0 .5)" d="M0 0h20v20H0z"/></clipPath></defs></svg>