<svg width="40" height="40" fill="none" xmlns="http://www.w3.org/2000/svg"><g opacity=".3"><path opacity=".3" d="M19.775 38.76c10.38 0 18.795-8.414 18.795-18.794S30.155 1.17 19.775 1.17C9.395 1.17.98 9.586.98 19.966c0 10.38 8.415 18.795 18.795 18.795z" fill="#DC1818"/><path opacity=".3" d="M19.775 38.76c10.38 0 18.795-8.414 18.795-18.794S30.155 1.17 19.775 1.17C9.395 1.17.98 9.586.98 19.966c0 10.38 8.415 18.795 18.795 18.795z" stroke="#fff" stroke-miterlimit="10"/></g><path opacity=".5" d="M19.775 31.197c6.203 0 11.231-5.029 11.231-11.232 0-6.202-5.028-11.23-11.23-11.23-6.204 0-11.232 5.028-11.232 11.23 0 6.203 5.028 11.232 11.231 11.232z" fill="#DC1818"/><path d="M19.775 26.383a6.418 6.418 0 100-12.835 6.418 6.418 0 000 12.835z" fill="#DC1818"/></svg>