<svg width="64" height="65" fill="none" xmlns="http://www.w3.org/2000/svg"><g clip-path="url(#clip0)" fill="#0D805C"><path d="M59.625 59.473v-59h-15v59h-5v-39h-15v39h-5V37.848h-15v21.625H0v5h64v-5h-4.375zm-50 0V42.848h5v16.625h-5zm20-34h5v34h-5v-34zm20 34v-54h5v54h-5z"/><path d="M17 25.773H3.5v4.5H17v-4.5z"/><path d="M10.063 33.998h-4.5V10.285h8.25a6.946 6.946 0 016.937 6.938 6.946 6.946 0 01-6.938 6.937h-3.75v9.838zm0-14.338h3.75a2.433 2.433 0 002.437-2.437 2.433 2.433 0 00-2.438-2.438h-3.75v4.875z"/></g><defs><clipPath id="clip0"><path fill="#fff" transform="translate(0 .473)" d="M0 0h64v64H0z"/></clipPath></defs></svg>