<svg width="52" height="78" fill="none" xmlns="http://www.w3.org/2000/svg"><g clip-path="url(#clip0)" fill="#0D805C"><path d="M49.398 39.138c.863-1.368.938-3.053.227-4.512-3.282-6.707-9.65-11.444-19.738-11.444-12.372 0-22.657 9.91-22.657 22.558v2.12c-.03 6.558-.076 15.687 2.284 27.778a2.251 2.251 0 002.223 1.835h24.956a2.26 2.26 0 002.27-2.256V72.78c0-2.542.967-5.009 2.661-7.084 5.581-3.083 9.514-8.647 10.346-15.114.333-2.587-1.89-4.843-4.538-4.843-2.269 0-4.19 1.594-4.462 3.685l-.015-.075c-1.588 5.715-6.806 9.925-13.068 9.925-7.517 0-13.612-6.06-13.612-13.535 0-7.474 6.095-13.535 13.612-13.535 4.9 0 9.166 2.602 11.57 6.482l-.03-.18c1.74 3.504 6.141 3.534 7.971.631zM.09 4.864l-.06 1.85c-.257 9.565 1.135 21.145 3.918 30.92a26.85 26.85 0 011.376-3.414c.605-6.963 1.936-13.565 4.039-19.896a63.043 63.043 0 01-.258-7.37l.061-1.85C9.226 2.73 7.411.549 4.628.474 2.148.473.151 2.398.091 4.864zM25.123.954c-2.194-1.098-4.992-.15-6.096 2.015l-.953 1.91c-3.478 6.918-5.777 14.167-7.124 21.49 2.027-1.97 4.402-3.594 6.973-4.857a104.453 104.453 0 014.144-4.963c.545-.617 1.12-1.143 1.68-1.744.725-1.955 1.512-4.03 2.465-5.896L27.165 7A4.509 4.509 0 0025.123.954zm12.992 18.799c.968-.857 1.876-1.76 2.889-2.557l1.679-1.323a4.5 4.5 0 00.726-6.347c-1.513-1.895-4.477-2.225-6.383-.722l-1.679 1.324c-3.191 2.511-6.337 5.52-9.362 8.858 1.285-.18 2.586-.316 3.917-.316 2.92 0 5.657.376 8.213 1.083z"/></g><defs><clipPath id="clip0"><path fill="#fff" transform="translate(0 .473)" d="M0 0h52v77H0z"/></clipPath></defs></svg>