<svg width="198" height="56" fill="none" xmlns="http://www.w3.org/2000/svg"><path d="M10.137 19.473H1.154v-1.89l3.226-3.26c.955-.98 1.579-1.656 1.872-2.031.293-.38.504-.732.633-1.055a2.67 2.67 0 00.193-1.002c0-.515-.143-.9-.43-1.151-.282-.252-.66-.378-1.134-.378-.498 0-.982.114-1.45.343a7.484 7.484 0 00-1.468.975L1.119 8.275c.633-.539 1.157-.92 1.573-1.142.416-.223.87-.393 1.363-.51a6.821 6.821 0 011.652-.185c.803 0 1.512.147 2.127.44.615.293 1.093.703 1.433 1.23.34.528.51 1.131.51 1.811 0 .592-.106 1.148-.317 1.67-.205.515-.527 1.046-.967 1.59-.433.546-1.201 1.322-2.303 2.33l-1.652 1.555v.123h5.599v2.286zm10.213-6.425c0 2.244-.37 3.905-1.108 4.983-.732 1.078-1.863 1.617-3.392 1.617-1.483 0-2.602-.556-3.358-1.67-.75-1.113-1.125-2.756-1.125-4.93 0-2.268.366-3.938 1.099-5.01.732-1.078 1.86-1.617 3.384-1.617 1.482 0 2.601.562 3.357 1.687.762 1.125 1.143 2.772 1.143 4.94zm-6.285 0c0 1.576.135 2.707.405 3.392.275.68.735 1.02 1.38 1.02.632 0 1.09-.346 1.37-1.037.282-.692.423-1.817.423-3.375 0-1.576-.144-2.707-.431-3.393-.281-.691-.735-1.037-1.362-1.037-.64 0-1.096.346-1.371 1.037-.276.686-.414 1.817-.414 3.393zm14.37 6.425H25.72v-7.436l.026-1.222.044-1.336c-.451.452-.765.748-.94.888l-1.477 1.187-1.31-1.635 4.14-3.296h2.233v12.85zm8.245-8.21c1.242 0 2.23.35 2.962 1.047.738.697 1.107 1.652 1.107 2.865 0 1.435-.442 2.54-1.327 3.313-.885.774-2.15 1.16-3.797 1.16-1.43 0-2.584-.231-3.463-.694v-2.347a7.332 7.332 0 001.617.607 7.286 7.286 0 001.75.228c1.657 0 2.487-.68 2.487-2.039 0-1.295-.859-1.942-2.576-1.942-.31 0-.653.032-1.028.097a7.1 7.1 0 00-.914.193l-1.081-.58.483-6.548h6.97v2.303h-4.588l-.237 2.522.307-.061c.358-.082.8-.123 1.328-.123z" fill="#0D805C"/><circle cx="20.5" cy="50.973" r="4.5" fill="#0D805C"/><circle cx="176.5" cy="50.973" r="4.5" fill="#0D805C"/><circle cx="137.5" cy="50.973" r="4.5" fill="#0D805C"/><circle cx="98.5" cy="50.973" r="4.5" fill="#0D805C"/><circle cx="59.5" cy="50.973" r="4.5" fill="#0D805C"/><g clip-path="url(#clip0)"><path d="M198 19.473h-23v-15h23l-6.481 7.5 6.481 7.5z" fill="#0D805C"/></g><path d="M177 24.473v16m-156-16v16" stroke="#0D805C"/><defs><clipPath id="clip0"><path fill="#fff" transform="translate(175 4.473)" d="M0 0h23v15H0z"/></clipPath></defs></svg>