<svg width="63" height="64" fill="none" xmlns="http://www.w3.org/2000/svg"><g clip-path="url(#clip0)" fill="#0D805C"><path d="M33.337 33.81V.473C15.487 1.408.935 15.96 0 33.81h33.337zm-7.382-5.529h-3.692V24.59h3.692v3.691zM14.88 17.207h3.69v3.691h-3.69v-3.691zm9.236-.771l2.609 2.608-9.992 10.008-2.608-2.608 9.991-10.008zm9.221 21.066H11.271c.902 11.763 10.32 21.18 22.083 22.083V37.502h-.017zm3.692-29.647v55.618c14.404-.952 25.954-13.355 25.954-27.99C63 20.834 51.45 8.808 37.03 7.856zm12.928 30.172h-2.871v1.246h5.332v3.462h-5.332v2.855h-3.462v-2.855H42.05v-3.462h1.575V27.38h6.333a5.342 5.342 0 015.332 5.332c0 2.937-2.395 5.316-5.332 5.316z"/><path d="M49.957 30.84h-2.871v3.741h2.871a1.87 1.87 0 100-3.74z"/></g><defs><clipPath id="clip0"><path fill="#fff" transform="translate(0 .473)" d="M0 0h63v63H0z"/></clipPath></defs></svg>