<svg width="79" height="107" fill="none" xmlns="http://www.w3.org/2000/svg"><g clip-path="url(#clip0)" fill="#0D805C"><path d="M46.895 10.796c0 4.056-3.315 7.351-7.395 7.351s-7.395-3.295-7.395-7.35c0-4.056 3.315-7.352 7.395-7.352s7.395 3.296 7.395 7.351z"/><path d="M50.604 88.084V35.798L77.377 9.183a5.526 5.526 0 000-7.812l-.904-.898-24.316 22.56a9.262 9.262 0 01-6.305 2.465h-12.68c-2.341 0-4.613-.876-6.305-2.466L2.527.472l-.904.9a5.526 5.526 0 000 7.811l26.773 26.615v52.286h9.25v-29.45h3.709v29.45h9.249zm9.272 3.664H19.148v14.725h40.728V91.748z"/></g><defs><clipPath id="clip0"><path fill="#fff" transform="translate(0 .473)" d="M0 0h79v106H0z"/></clipPath></defs></svg>