<svg width="60" height="65" fill="none" xmlns="http://www.w3.org/2000/svg"><g clip-path="url(#clip0)" fill="#0D805C"><path d="M29.974 64.473l-24.06-19.11v-27.31H0v-6.405h12.25V42.25l17.74 14.092 17.724-13.986v-30.71H60v6.406h-5.949V45.47L29.974 64.473z"/><path d="M38 23.518H18.99v6.405H38v-6.405z"/><path d="M28.231 34.225h-6.336V.473h11.616c5.386 0 9.769 4.43 9.769 9.875 0 5.444-4.383 9.874-9.769 9.874h-5.28v14.003zm0-20.408h5.28c1.901 0 3.432-1.548 3.432-3.47 0-1.921-1.53-3.469-3.432-3.469h-5.28v6.94z"/></g><defs><clipPath id="clip0"><path fill="#fff" transform="translate(0 .473)" d="M0 0h60v64H0z"/></clipPath></defs></svg>