<svg width="183" height="251" fill="none" xmlns="http://www.w3.org/2000/svg"><path d="M50.05 224.665v4.983c0 2.762.976 5.578 2.871 8.123v-4.982c-1.95-2.6-2.87-5.362-2.87-8.124z" fill="#518265"/><path d="M52.92 232.788v4.983c1.734 2.383 4.28 4.549 7.583 6.498 6.878 4.008 15.868 6.012 24.858 6.12v-4.982c-9.044-.109-17.98-2.112-24.858-6.12-3.304-1.896-5.85-4.116-7.582-6.499zm32.441 12.619v4.983c9.424.108 18.901-1.95 26.104-6.12 7.095-4.116 10.669-9.478 10.615-14.839v-4.983c0 5.362-3.52 10.778-10.615 14.839-7.203 4.171-16.68 6.228-26.104 6.12z" fill="#518265"/><path d="M60.666 209.826c-14.136 8.123-14.19 21.338-.163 29.516 14.027 8.123 36.827 8.123 50.962 0 14.135-8.124 14.189-21.339.163-29.516-14.027-8.178-36.827-8.178-50.962 0z" fill="#10191B"/><path d="M50.05 221.687v4.982c0 5.308 3.521 10.615 10.453 14.677 14.027 8.124 36.827 8.124 50.962 0 7.095-4.116 10.669-9.478 10.615-14.839v-4.983c0 5.362-3.52 10.778-10.615 14.84-14.135 8.123-36.935 8.123-50.962 0-6.986-4.062-10.452-9.37-10.452-14.677z" fill="#F3F3F3"/><path d="M60.666 206.793c-14.136 8.124-14.19 21.338-.163 29.516 14.027 8.177 36.827 8.177 50.962 0 14.135-8.124 14.189-21.338.163-29.516-14.027-8.124-36.827-8.124-50.962 0z" fill="#AFAFAF"/><path d="M104.1 228.456l8.665-5.037-10.777-60.873-8.611 5.037 10.723 60.873z" fill="#447056"/><path d="M93.377 167.583l8.611-5.037-30.545-17.547-8.665 4.982 30.599 17.602z" fill="#242A31"/><path d="M62.778 149.981L73.5 210.854l30.599 17.602-10.723-60.873-30.6-17.602zM7.808 5.165l5.903-3.412C11.815.67 10.137.56 8.891 1.266L2.988 4.677c1.191-.704 2.924-.595 4.82.488z" fill="#518265"/><path d="M174.775 235.496l5.904-3.411c1.245-.704 1.949-2.221 2.003-4.333l-5.903 3.412c-.054 2.112-.812 3.628-2.004 4.332z" fill="#C6D5FA"/><path d="M174.775 235.496l5.904-3.411c1.245-.704 1.949-2.221 2.003-4.333l-5.903 3.412c-.054 2.112-.812 3.628-2.004 4.332zm1.95-4.386l5.903-3.412.325-120.392-5.903 3.412-.325 120.392z" fill="#518265"/><path d="M170.28 99.02l5.904-3.412L13.711 1.753 7.808 5.165 170.28 99.02z" fill="#AFAFAF"/><path d="M177.05 110.718l5.903-3.412c0-4.333-3.033-9.532-6.77-11.752l-5.903 3.412c3.791 2.22 6.824 7.473 6.77 11.752z" fill="#0BCA8E"/><path d="M177.05 110.718l5.903-3.412c0-4.333-3.033-9.532-6.77-11.752l-5.903 3.412c3.791 2.22 6.824 7.473 6.77 11.752z" fill="#AFAFAF"/><path d="M7.808 5.165C4.071 2.999.984 4.732.984 9.065L.66 129.455c0 4.333 3.033 9.532 6.77 11.753l162.526 93.8c3.737 2.167 6.824.434 6.824-3.899l.325-120.392c0-4.333-3.033-9.532-6.77-11.752L7.808 5.165z" fill="#F3F3F3"/><path d="M173.15 222.878v8.232c0 .704-.108 1.029-.216 1.192-.163 0-.542-.108-1.192-.433L9.216 138.068c-2.654-1.517-4.983-5.524-4.983-8.557v-4.062l168.917 97.429z" fill="#AFAFAF"/><path d="M4.288 125.395l168.863 97.483v-2.708l.324-109.452c0-3.033-2.328-7.04-4.982-8.557L7.213 9.011 6.02 8.305c-.596-.379-1.03-.433-1.192-.433-.054.163-.162.542-.216 1.192l-.325 116.33z" fill="#518265"/><path d="M6.887 124.203l155.486 89.793 10.778 6.228.054-26.916.108-30.816.054-25.508.054-26.212c0-3.033-2.328-7.04-4.928-8.557l-26.05-15.056-31.357-18.142-32.278-18.63-47.875-27.62L7.213 9.063l-.326 115.139z" fill="#0BCA8E"/><path d="M113.253 165.146l-63.581-36.828-.108-.054c-10.128-7.04-17.71-21.229-17.71-32.927 0-6.445 2.329-11.374 6.499-13.756 4.17-2.383 9.586-1.95 15.272 1.353.488.271.921.542 1.354.867 1.787-4.874 5.037-8.448 9.207-10.236 5.74-2.437 12.944-1.408 20.31 2.87 13.214 7.637 24.641 24.317 28.161 40.781.866.379 1.733.813 2.599 1.3 10.94 6.336 19.822 21.663 19.768 34.282 0 6.444-2.329 11.373-6.499 13.756-1.733 1.029-3.737 1.516-5.849 1.516-2.924-.054-6.12-1.029-9.423-2.924zM65.594 76.869c-3.845 1.625-6.607 5.199-7.853 10.236l-.704 2.707-2.22-1.733a26.095 26.095 0 00-3.087-2.112c-4.495-2.6-8.611-3.087-11.59-1.354-2.979 1.733-4.603 5.47-4.657 10.561-.055 10.452 7.04 23.559 16.084 29.895l63.527 36.773c4.495 2.599 8.611 3.087 11.59 1.354 2.978-1.733 4.603-5.47 4.657-10.561.054-11.427-8.015-25.346-17.926-31.086a21.977 21.977 0 00-3.033-1.462l-.975-.38-.216-1.029C106.158 102.81 95.218 86.671 82.6 79.36c-4.17-2.437-8.232-3.628-11.807-3.628-1.841.162-3.574.487-5.199 1.137z" fill="#F3F3F3"/></svg>