<svg width="472" height="287" fill="none" xmlns="http://www.w3.org/2000/svg"><path d="M452.832 141.594L273.714 38.606c-10.613-6.135-27.724-6.135-38.282 0L43.697 150.444c-10.559 6.134-10.505 16.069.108 22.258l179.119 102.989c10.612 6.134 27.723 6.134 38.282 0L452.94 163.853c10.559-6.135 10.505-16.124-.108-22.259z" fill="#F3F3F3"/><path d="M202.456 102.505l-63.298-36.537-14.674 8.524 24.312 14.06 6.065-3.582 5.685 12.16-20.901-3.257 6.065-3.583-24.312-14.007-12.833 7.492-29.997-17.372-.325.162 93.295 53.965 30.918-18.025z" fill="#F3F3F3"/><path d="M154.861 84.97l-6.065 3.583-3.086 1.737-6.064 3.583 20.9 3.258-5.685-12.161z" fill="#AFAFAF"/><path d="M241.821 242.465l-148.58-85.778 171.051-97.994 148.579 85.779-171.05 97.993z" fill="#fff"/><path d="M412.871 144.472v6.46l-171.05 97.994v-6.461l171.05-97.993z" fill="#D8D8D8"/><path d="M93.241 156.687v6.461l148.58 85.778v-6.461l-148.58-85.778z" fill="#B5B5B5"/><path d="M282.377 183.615c-.054-.055-.162-.055-.27-.109l-.975-.217h-.271c-.108 0-.162.054-.216.163a5.755 5.755 0 01-.758.923c-.325.326-.704.597-1.138.868-.649.38-1.299.652-1.949.761-.65.108-1.299.162-1.949.108-.65-.054-1.246-.217-1.841-.434a12.98 12.98 0 01-1.787-.815 10.196 10.196 0 01-1.462-1.085c-.433-.38-.704-.76-.812-1.14-.163-.381-.108-.815.054-1.195.162-.38.541-.76 1.137-1.086.812-.434 1.679-.814 2.762-1.031.108 0 .216-.054.216-.109 0-.054 0-.054-.054-.108l-.379-.598c-.054-.054-.108-.108-.108-.162h-.325c-.812.163-1.462.325-2.004.597a9.23 9.23 0 00-1.462.76c-.704.434-1.191.869-1.516 1.357-.325.489-.433 1.032-.325 1.52.109.543.379 1.086.867 1.629.487.543 1.191 1.086 2.057 1.574.921.543 1.841.978 2.762 1.249.866.271 1.787.434 2.599.434a7.308 7.308 0 002.437-.271 10.51 10.51 0 002.274-.923c.27-.163.487-.326.758-.489.27-.163.487-.38.758-.543.216-.217.433-.38.65-.597.216-.217.324-.434.433-.651-.109-.217-.109-.272-.163-.38.054.054.054.054 0 0zm10.017-5.212c-.054 0-.054-.054-.108-.054l-4.603-1.521c-.325-.108-.595-.217-.866-.271l-.812-.163a2.34 2.34 0 00-.867 0c-.27.054-.595.109-.974.217l-.054-.054c.162-.326.162-.597.054-.923-.109-.326-.325-.597-.704-.923l-2.112-2.009s-.054-.054-.108-.054c0 0-.054-.054-.108-.054-.109-.055-.217 0-.325.054l-.867.489c-.054.054-.108.054-.108.108-.054.055 0 .109.054.163l2.004 1.955c.27.271.379.488.487.705.054.217.054.38 0 .543a.843.843 0 01-.325.435l-.487.325-2.058 1.195-4.223-2.443-.054-.055c-.055-.054-.109-.054-.163-.054a.404.404 0 00-.216.109l-.921.543c-.054.054-.108.108-.162.108 0 .054.054.109.108.163l10.45 6.026c.108.054.163.109.271.054a.416.416 0 00.217-.108l.92-.543c.108-.054.162-.109.162-.109 0-.054-.054-.108-.162-.162l-4.927-2.878 2.22-1.303c.27-.163.541-.271.758-.38a1.98 1.98 0 01.812-.163c.271-.054.596 0 .866 0 .325.055.65.109 1.029.272l4.386 1.466a.346.346 0 00.325 0c.054 0 .162-.055.216-.055l.921-.543c.108-.054.162-.108.108-.162 0 .108 0 .108-.054.054zm9.639-5.646l-9.693-5.592c-.649-.38-1.299-.38-1.895-.055l-4.819 2.769c-.271.163-.433.326-.433.489 0 .163.162.38.487.597l1.787 1.249c1.083.706 1.949 1.303 2.707 1.791.758.489 1.3.923 1.679 1.358.379.38.65.76.704 1.085.054.326-.054.706-.325 1.086l-.054.109s0 .054.054.108c.054 0 .108.055.162.055l.813.271c.162.054.27.054.379 0 .108 0 .162-.054.162-.108.487-.543.758-1.032.704-1.521-.054-.488-.325-.977-.758-1.465a12.82 12.82 0 00-1.949-1.629 45.88 45.88 0 00-2.924-1.955l-1.571-1.031 3.899-2.28 9.422 5.429c.108.054.162.108.27.054a.404.404 0 00.217-.109l.92-.542a.681.681 0 00.163-.109c.054.054 0 0-.108-.054zm.595-4.452l-2.274-2.552-1.516-1.683.054-.054 3.032.923 4.278 1.303-3.574 2.063zm9.963-1.629c-.054 0-.108-.054-.162-.054l-13.483-3.746c-.325-.109-.541-.109-.758-.109-.217 0-.433.109-.704.272l-.487.271c-.217.163-.379.271-.379.38 0 .109.054.271.216.434l6.498 7.818s.054.054.108.054.109.055.163.055c.054 0 .162 0 .27-.055l1.029-.597c.163-.108.217-.217.108-.326l-1.516-1.791 4.386-2.552 3.087.869c.162.054.27.054.325.054.054 0 .162-.054.27-.108l1.029-.598c.108-.054.162-.108.108-.162-.054-.055-.054-.109-.108-.109zm1.841-2.389a2.72 2.72 0 00-.162-.38 1.801 1.801 0 00-.325-.434l-.542-.543c-.216-.217-.541-.434-.92-.706l-4.873-3.637 3.953-2.28 8.338 4.832-5.469 3.148zm8.61-4.234a1.408 1.408 0 00-.596-.163c-.217 0-.379.054-.541.109l-.542.271-8.663-4.995c-.325-.217-.65-.271-.975-.271-.325 0-.65.108-.975.271l-4.656 2.715c-.379.217-.542.434-.488.597.054.217.217.434.488.652l4.331 3.257c.379.326.758.543 1.029.814.271.217.542.435.758.652.217.217.325.434.433.597.109.217.163.434.217.597l-.433.326c-.163.108-.271.271-.217.38 0 .108.109.163.217.271 0 0 .054 0 .054.055l3.195 1.628c.108.055.162.055.27.055.055 0 .109 0 .163-.055l.758-.434c.108-.054.108-.163-.054-.271l-2.166-1.412 7.635-4.452 2.382 1.303a.415.415 0 00.217.055l.162-.055.758-.434c.054-.054.108-.054.108-.109 0-.054-.054-.108-.108-.163l-2.761-1.791zm-52.848 52.553c-.054 0-.108-.055-.217-.055l-.974-.217h-.217c-.054 0-.108.055-.162.163a1.931 1.931 0 01-.542.652 5.44 5.44 0 01-.866.705 5.377 5.377 0 01-1.354.543c-.433.109-.92.109-1.353.055a6.162 6.162 0 01-1.354-.326 8.899 8.899 0 01-1.246-.597 3.896 3.896 0 01-1.028-.76c-.271-.272-.488-.543-.596-.815a.874.874 0 01.054-.814c.108-.272.379-.543.812-.76.325-.217.65-.326 1.029-.489.379-.108.704-.217 1.083-.325.163-.055.217-.055.217-.109s0-.054-.054-.109l-.325-.543c0-.054-.054-.054-.109-.108-.054-.054-.162-.054-.324-.054-.542.108-1.029.217-1.517.38-.433.162-.92.38-1.299.597-.542.326-.975.706-1.246 1.086-.27.38-.324.76-.27 1.194.054.38.27.814.65 1.194.379.435.866.815 1.516 1.195 1.353.814 2.707 1.248 4.007 1.303 1.299.054 2.49-.217 3.627-.923a9.553 9.553 0 001.192-.869c.379-.326.649-.651.812-1.031.108-.055.108-.109.054-.163zm14.728-8.198l-7.364-4.235c-.108-.054-.325-.108-.542-.163-.216 0-.433.055-.649.163l-.488.272c-.162.108-.27.217-.325.271 0 .109 0 .217.109.38 0 .054.054.109.162.272.108.108.163.271.271.488.108.163.216.38.379.597.108.217.271.38.379.598.108.162.217.325.271.488.108.109.162.217.162.272 0 .054.108.162.217.38.108.217.27.434.433.651.162.217.271.434.433.652.108.217.217.325.217.38h-.054c-.055 0-.217-.055-.488-.109s-.595-.109-.92-.217c-.325-.054-.65-.163-.921-.217-.271-.055-.487-.109-.541-.109l-4.982-1.031c-.271-.055-.541-.055-.704-.055-.162 0-.325.109-.487.217l-.487.272c-.217.163-.325.271-.325.38a.723.723 0 00.27.326l7.364 4.234c.109.055.217.109.271.055.054 0 .163-.055.217-.055l.812-.488c.108-.055.162-.109.162-.163 0-.054-.054-.054-.162-.163l-5.794-3.257.054-.055c.055 0 .163.055.434.109l.812.163c.325.054.595.108.812.163.271.054.379.054.433.108.108 0 .379.054.812.163.379.054.813.163 1.3.272.433.108.866.162 1.299.271.379.054.65.109.759.163.27.054.487.054.649.054a.87.87 0 00.488-.163l.379-.217c.162-.109.27-.217.325-.271 0-.109 0-.218-.109-.38-.108-.163-.216-.38-.433-.652l-.487-.814c-.163-.272-.325-.489-.433-.706a1.372 1.372 0 00-.217-.326l-.921-1.411.055-.055 5.793 3.366c.109.055.217.109.271.055a.414.414 0 00.217-.109l.812-.488c.108-.055.162-.109.162-.163 0-.055-.054-.055-.162-.163zm.866-2.986c-.379-.218-.595-.435-.649-.652-.055-.217-.055-.434.054-.597.108-.163.27-.38.487-.543.217-.163.433-.271.596-.38l1.787-1.031 2.761 1.628c-.108.109-.217.272-.379.38a3.17 3.17 0 00-.433.38c-.163.109-.325.217-.433.326a3.068 3.068 0 01-.379.217c-.271.163-.542.326-.867.434-.27.109-.541.163-.866.218a2.335 2.335 0 01-.866 0c-.217-.109-.542-.217-.813-.38zm6.931-2.118l-4.873-2.823c-.866-.488-1.787-.76-2.707-.76-.921 0-1.896.326-2.924.923-.433.272-.867.543-1.3.869-.433.325-.758.651-.974.977-.055.054-.055.109 0 .163l.162.054.866.272c.109.054.163.054.271 0 .054 0 .108-.055.162-.163.163-.217.434-.435.759-.706.324-.272.703-.489 1.082-.706.379-.217.759-.38 1.029-.488.325-.109.596-.163.921-.163.271 0 .541.054.758.163.271.108.487.217.758.325l.325.217-1.895 1.086c-.596.38-1.083.706-1.354 1.032-.271.326-.433.651-.433.977 0 .326.108.597.325.869.216.271.487.488.866.705.325.218.704.38 1.137.489a5.42 5.42 0 001.354.163c.487 0 1.029-.109 1.57-.272.596-.162 1.191-.434 1.841-.814.487-.271.975-.597 1.462-.977s.812-.706 1.083-1.14c0-.055-.054-.163-.271-.272zm1.462-8.415l-.595-.38c-.109-.054-.163-.108-.271-.108-.108 0-.217 0-.325.108l-6.227 3.638c-.108.054-.162.108-.162.163 0 .054.054.108.162.163l.596.38c.054.054.162.054.27.054.109 0 .163 0 .325-.109l2.383-1.411 6.714 3.909c.108.054.217.108.271.108.054 0 .162-.054.27-.108l.759-.435c.108-.054.162-.108.162-.162 0-.055-.054-.109-.162-.163l-6.715-3.909 2.491-1.466c.108-.054.162-.109.162-.163l-.108-.109zm4.223.435c-.324-.217-.541-.435-.758-.652-.162-.217-.324-.434-.324-.706a.862.862 0 01.162-.705c.108-.218.379-.435.704-.652.433-.217.812-.38 1.245-.488.379-.109.812-.109 1.191-.055.38.055.759.109 1.138.272.379.108.703.271 1.028.488l-4.386 2.498zm5.469-3.366c-.487-.272-1.028-.543-1.624-.706-.542-.163-1.137-.272-1.679-.272-.595 0-1.191.055-1.787.218-.595.162-1.191.38-1.786.76-.488.325-.921.651-1.137.977-.271.38-.325.76-.325 1.14.054.38.27.814.595 1.194.325.435.867.815 1.571 1.195.758.434 1.462.76 2.165.923a7.059 7.059 0 002.058.325c.65 0 1.3-.054 1.949-.217a6.56 6.56 0 001.787-.76 4.33 4.33 0 001.137-.814c.325-.272.596-.597.758-.977.054-.055.054-.109-.054-.163-.054 0-.108-.055-.162-.055l-.975-.217c-.217-.054-.325 0-.379.109a1.924 1.924 0 01-.541.651c-.217.272-.542.489-.867.652-.325.217-.704.38-1.083.488a4.585 4.585 0 01-1.245.163 6.11 6.11 0 01-1.354-.163c-.487-.108-.974-.325-1.462-.597l4.44-2.606c.163-.108.271-.163.379-.271.109-.109.163-.217.163-.326 0-.108 0-.217-.109-.38-.054.054-.216-.108-.433-.271zm1.029-2.878c.163-.217.379-.38.65-.651.271-.217.541-.434.812-.597.379-.217.758-.38 1.137-.489a4.715 4.715 0 011.3-.163c.433 0 .92.109 1.462.272.487.163 1.029.38 1.624.705.542.326.975.652 1.246.923.27.326.433.598.433.869.054.271-.054.489-.217.76-.162.217-.433.434-.812.652-.217.162-.541.271-.812.434-.325.163-.758.271-1.246.434l-5.577-3.149zm8.393-1.628c-.596-.38-1.245-.652-1.895-.869-.65-.217-1.354-.326-2.004-.38a6.267 6.267 0 00-2.003.163c-.65.163-1.3.38-1.949.76-.488.271-.975.597-1.462.977-.488.38-.867.76-1.137 1.195-.055.108-.054.162.054.271l10.45 6.026a.413.413 0 00.217.054.41.41 0 00.216-.108l.867-.489c.108-.054.108-.108.162-.108 0-.055-.054-.055-.108-.109l-3.032-1.737c.487-.163.92-.326 1.299-.489.379-.163.704-.326.975-.543.595-.325 1.029-.705 1.245-1.14.217-.38.325-.814.217-1.194a2.775 2.775 0 00-.704-1.195c-.325-.38-.812-.76-1.408-1.085zm12.4-2.769l-7.31-4.234a1.434 1.434 0 00-.65-.163c-.216 0-.433.054-.595.163l-.379.217c-.217.108-.325.217-.325.325 0 .109 0 .218.054.38l1.299 3.475c.109.38.217.706.379 1.032.109.325.271.651.379 1.031l-.054.054-6.01-3.474c-.108-.055-.217-.109-.271-.055a.412.412 0 00-.216.109l-.867.489-.162.163c0 .054.054.108.108.162l7.31 4.235c.217.109.433.163.65.163.216 0 .433-.054.595-.163l.379-.217c.163-.109.271-.217.325-.326.054-.108.054-.217-.054-.38l-1.245-3.529a1.919 1.919 0 00-.217-.488c-.054-.163-.108-.326-.216-.435-.055-.163-.109-.325-.217-.434l-.162-.489.108-.054 5.956 3.42c.108.055.162.055.217.055a.412.412 0 00.216-.109l.866-.489c.109-.054.163-.108.163-.162.108-.163.054-.218-.054-.272zm.866-3.04c-.379-.217-.596-.434-.65-.652-.054-.217-.054-.434.054-.597.109-.163.271-.38.488-.543.216-.163.433-.271.595-.38l1.787-1.031 2.762 1.628c-.109.109-.217.272-.379.38-.163.109-.325.272-.434.38-.162.109-.325.218-.433.326-.162.109-.271.163-.379.217-.271.163-.541.326-.866.435-.271.108-.542.163-.867.217a2.33 2.33 0 01-.866 0c-.217-.109-.541-.217-.812-.38zm6.931-2.117l-4.874-2.824c-.866-.488-1.786-.76-2.707-.76-.92 0-1.895.326-2.924.923-.433.272-.866.543-1.299.869-.434.326-.758.651-.975.977-.054.054-.054.109 0 .163l.162.054.867.272c.108.054.162.054.271 0 .054 0 .108-.055.162-.163.162-.217.433-.434.758-.706.325-.271.704-.488 1.083-.706.379-.217.758-.38 1.029-.488.325-.109.595-.163.92-.109.271 0 .542.054.758.109.271.108.488.217.758.325l.325.218-1.895 1.085c-.596.38-1.083.706-1.354 1.032-.27.326-.433.651-.433.977 0 .326.109.597.325.869.217.271.487.488.866.706.325.217.704.38 1.138.488.433.109.866.163 1.353.163.488 0 1.029-.108 1.571-.271a8.743 8.743 0 001.841-.815c.487-.271.974-.597 1.462-.977.487-.38.812-.706 1.082-1.14 0-.054-.054-.163-.27-.271zm9.151-4.724l-7.148-4.126a1.347 1.347 0 00-.758-.217c-.216 0-.487.054-.812.217l-4.007 2.335c-.216.108-.379.271-.379.434 0 .163.108.326.379.489l1.57 1.031c.867.597 1.516 1.032 2.004 1.412.487.38.866.705 1.083.977.216.271.325.488.325.706 0 .217-.055.434-.217.651-.054.109-.054.217.054.272.054 0 .054.054.108.054l.813.217a.346.346 0 00.325 0c.108-.054.108-.109.162-.163.325-.38.487-.706.541-1.031.055-.326-.054-.652-.379-1.032-.27-.38-.703-.76-1.353-1.249-.596-.434-1.408-1.031-2.329-1.683l-1.082-.705 2.978-1.738 6.768 3.909c.108.055.217.109.271.055.054 0 .162-.055.27-.109l.759-.434c.108-.055.162-.109.216-.163 0 0-.054-.055-.162-.109zm.866-3.04c-.379-.217-.596-.434-.65-.652-.054-.217-.054-.434.054-.597.109-.163.271-.38.488-.543.216-.162.433-.271.595-.38l1.787-1.031 2.762 1.629c-.109.108-.217.271-.379.38-.163.108-.325.271-.434.38a3.01 3.01 0 00-.433.325c-.162.109-.271.163-.379.218-.271.162-.541.325-.866.434-.271.108-.542.163-.867.217-.27.054-.595.054-.866 0-.216-.109-.541-.217-.812-.38zm6.931-2.117l-4.874-2.823c-.866-.489-1.786-.76-2.707-.76-.92 0-1.949.325-2.978.922-.433.272-.866.543-1.299.869-.434.326-.759.652-.975.977-.054.055-.054.109-.054.163l.162.054.867.272c.108.054.162.054.27 0 .054 0 .109-.054.163-.163.162-.217.433-.434.758-.706.325-.271.704-.488 1.083-.705.379-.218.704-.381 1.028-.489.325-.109.596-.163.921-.163.271 0 .541.054.758.163.271.108.487.217.758.326l.325.217-1.895 1.086c-.596.38-1.083.705-1.354 1.031-.271.326-.433.652-.433.977 0 .326.108.598.325.869.216.271.487.489.866.706.325.217.704.38 1.137.488.433.109.867.163 1.354.163.487 0 1.029-.108 1.57-.271a8.72 8.72 0 001.841-.815c.488-.271.975-.597 1.462-.977.488-.38.812-.706 1.083-1.14.108 0 .054-.163-.162-.271zm11.263-5.972l-7.364-4.235c-.109-.054-.325-.108-.542-.163a1.45 1.45 0 00-.65.163l-.487.272a2.068 2.068 0 00-.325.271c0 .109 0 .217.108.38 0 .054.055.109.163.272.054.108.162.271.271.488.108.163.216.38.379.597.108.218.27.38.379.598.108.163.216.325.27.488.055.109.109.217.163.272 0 .054.108.163.216.38.109.217.271.434.379.651.163.217.271.435.434.652.108.217.216.325.216.38h-.054c-.054 0-.217-.055-.487-.109-.271-.054-.596-.108-.921-.217-.325-.054-.65-.163-.92-.217-.271-.054-.488-.109-.542-.109l-4.981-1.031c-.271-.055-.542-.055-.704-.055-.163 0-.325.109-.487.218l-.488.271c-.216.163-.325.272-.325.38a.727.727 0 00.271.326l7.364 4.234c.108.055.217.109.271.055.054 0 .162-.055.216-.055l.813-.488c.108-.054.162-.109.162-.163 0-.054-.054-.054-.162-.163l-5.686-3.312.054-.054c.054 0 .163.054.433.109l.813.163c.325.054.595.108.812.162.271.055.379.055.433.109.108 0 .379.054.812.163.379.054.812.163 1.3.271.433.109.866.163 1.299.272.379.054.65.108.758.163.271.054.488.054.65.054a.865.865 0 00.487-.163l.379-.217c.163-.109.271-.217.325-.272 0-.108 0-.217-.108-.38-.108-.162-.217-.38-.433-.651l-.487-.814c-.163-.272-.325-.489-.434-.706a1.354 1.354 0 00-.216-.326l-.921-1.411.054-.055 5.794 3.366c.109.055.163.109.271.055a.418.418 0 00.217-.109l.812-.489c.108-.054.162-.108.162-.163-.054 0-.108-.054-.216-.108zm8.88-5.158l-7.31-4.234a1.438 1.438 0 00-.65-.163c-.217 0-.433.054-.596.163l-.379.217c-.216.108-.325.217-.325.325 0 .109 0 .218.055.38l1.299 3.475c.108.38.217.706.379 1.032.108.325.271.651.433 1.031l-.054.054-6.01-3.474c-.109-.054-.163-.109-.271-.109-.054 0-.162.055-.271.109l-.866.488-.163.163c0 .055.055.109.163.163l7.31 4.235c.216.108.433.163.65.163.216 0 .433-.055.595-.163l.379-.217c.163-.109.271-.218.325-.326.054-.109.054-.217-.054-.38l-1.245-3.529a93.354 93.354 0 01-.163-.489c-.054-.162-.108-.325-.216-.434-.055-.163-.109-.326-.217-.434a93.354 93.354 0 00-.163-.489l.109-.054 5.956 3.42a.41.41 0 00.217.054c.054 0 .162-.054.216-.054l.867-.489c.108-.054.162-.108.162-.162 0-.163-.054-.218-.162-.272z" fill="#272727"/><path d="M273.28 30.028l.921-.543v76.984l-.921.543V30.028z" fill="#BABFBE"/><path d="M269.057 106.631l2.382 1.412V31.059l-2.382-1.411v76.983z" fill="#899593"/><path d="M271.439 31.06l.92-.543V107.5l-.92.543V31.059z" fill="#BABFBE"/><path d="M272.359 107.5l2.437 1.411V31.928l-2.437-1.411V107.5z" fill="#9DA7A5"/><path d="M273.876 32.471l.92-.543v76.984l-.92.542V32.471z" fill="#8F9795"/><path d="M276.312 33.829v76.983l2.708-1.52V32.309l-2.708 1.52z" fill="#BABFBE"/><path d="M279.02 32.308l-2.437-1.411-.866.488-2.437-1.357.921-.543-2.437-1.411-1.787 1.031-.92.543 2.382 1.412.921-.543 2.436 1.411-.92.543 2.436 1.358.921-.49 1.787-1.03z" fill="#C6D1CF"/><path d="M254.058 81.44V56.414l-55.88 32.303v25.027l55.88-32.302z" fill="#447056"/><path d="M274.309 41.755c0 .38-.162.651-.379.76l-17.219 9.718c-.216.163-.541.108-.866-.055-.65-.38-1.191-1.302-1.191-2.117 0-.38.108-.651.325-.76l17.219-9.718s.054 0 .054-.054c.216-.109.541-.109.866.108.65.38 1.191 1.358 1.191 2.118z" fill="url(#paint0_linear)"/><path d="M254.6 50.115c0 .76.541 1.683 1.191 2.063.65.38 1.191.055 1.191-.705s-.541-1.683-1.191-2.063c-.65-.38-1.191-.055-1.191.706z" fill="#F3F4F4"/><path d="M254.654 50.224c0 .706.487 1.52 1.083 1.9.595.326 1.083.054 1.083-.651 0-.706-.488-1.52-1.083-1.9-.596-.326-1.083 0-1.083.651z" fill="#E4E5E5"/><path d="M264.454 53.644c0-4.56-3.249-10.152-7.202-12.487-2.057-1.194-3.898-1.248-5.198-.434l-1.462.977 10.234 17.645 1.137-.543a4.7 4.7 0 00.867-.543c1.028-.923 1.624-2.66 1.624-4.615z" fill="url(#paint1_linear)"/><path d="M248.697 46.206c0 4.56 3.249 10.152 7.202 12.487 4.007 2.335 7.201.434 7.201-4.126 0-4.56-3.248-10.152-7.201-12.487-4.007-2.28-7.202-.434-7.202 4.126z" fill="#B18961"/><path d="M260.014 53.373c0-3.312-2.328-7.384-5.198-9.012-1.462-.87-2.816-.923-3.736-.326l-55.988 32.628 7.418 12.758 55.771-32.302c.271-.109.434-.218.596-.38.704-.706 1.137-1.955 1.137-3.366z" fill="#518265"/><path d="M193.63 79.866c0 3.312 2.328 7.384 5.198 9.013 2.87 1.683 5.198.325 5.198-2.986 0-3.312-2.328-7.384-5.198-9.013-2.87-1.628-5.198-.325-5.198 2.986z" fill="#B18961"/><path d="M206.733 86.652c0-4.56-3.249-10.152-7.201-12.486-2.058-1.195-3.899-1.249-5.198-.435l-1.462.978 10.233 17.644 1.137-.543a4.7 4.7 0 00.867-.543c1.029-.977 1.624-2.66 1.624-4.615z" fill="url(#paint2_linear)"/><path d="M190.977 79.16c0 4.56 3.248 10.153 7.201 12.487 4.007 2.335 7.202.434 7.202-4.126 0-4.56-3.249-10.152-7.202-12.487-3.953-2.28-7.201-.434-7.201 4.126z" fill="#B18961"/><path d="M194.117 81.006c0 2.606 1.841 5.7 4.061 7.004 2.22 1.302 4.061.27 4.061-2.335 0-2.606-1.841-5.7-4.061-7.003-2.22-1.303-4.061-.218-4.061 2.334z" fill="#9A4232"/><path d="M200.182 84.372c0 .652-.217 1.14-.596 1.358h-.054l-.812.434c-.379.271-.921.217-1.516-.109-1.138-.651-2.112-2.28-2.112-3.637 0-.652.216-1.086.541-1.303h.054l.813-.434.054-.055c.379-.217.92-.163 1.462.163 1.191.652 2.166 2.28 2.166 3.583z" fill="url(#paint3_linear)"/><path d="M195.092 82.527c0 1.303.92 2.931 2.057 3.583 1.137.651 2.058.108 2.058-1.195 0-1.303-.921-2.931-2.058-3.583-1.137-.651-2.057-.108-2.057 1.195z" fill="#F3F4F4"/><path d="M195.2 82.798c0 1.194.867 2.66 1.895 3.257 1.029.597 1.895.109 1.895-1.086 0-1.194-.866-2.66-1.895-3.257-1.083-.597-1.895-.163-1.895 1.086z" fill="#E4E5E5"/><path d="M198.124 84.59c0 .38-.162.651-.379.76l-17.219 9.718c-.216.163-.541.108-.866-.055-.65-.38-1.191-1.303-1.191-2.117 0-.38.108-.651.325-.76l17.218-9.718s.055 0 .055-.054c.216-.109.541-.109.866.108.65.38 1.191 1.303 1.191 2.118z" fill="url(#paint4_linear)"/><path d="M178.415 92.896c0 .76.541 1.683 1.191 2.063.65.38 1.191.054 1.191-.706s-.541-1.683-1.191-2.063c-.65-.325-1.191-.054-1.191.706z" fill="#F3F4F4"/><path d="M178.469 93.059c0 .706.487 1.52 1.083 1.9.595.326 1.083.054 1.083-.652 0-.705-.488-1.52-1.083-1.9-.596-.325-1.083-.054-1.083.652z" fill="#E4E5E5"/><path d="M254.058 103.102V78.075l-55.88 32.357v25.027l55.88-32.357z" fill="#C48500"/><path d="M274.309 63.416c0 .38-.162.652-.379.76l-17.219 9.718c-.216.163-.541.109-.866-.054-.65-.38-1.191-1.303-1.191-2.117 0-.38.108-.652.325-.76l17.219-9.718s.054 0 .054-.054c.216-.11.541-.11.866.108.65.434 1.191 1.357 1.191 2.117z" fill="url(#paint5_linear)"/><path d="M254.6 71.777c0 .76.541 1.683 1.191 2.063.65.38 1.191.054 1.191-.706s-.541-1.683-1.191-2.063c-.65-.326-1.191-.054-1.191.706z" fill="#F3F4F4"/><path d="M254.654 71.94c0 .706.487 1.52 1.083 1.9.595.326 1.083.054 1.083-.597 0-.706-.488-1.52-1.083-1.9-.596-.38-1.083-.11-1.083.597z" fill="#E4E5E5"/><path d="M264.454 75.36c0-4.56-3.249-10.152-7.202-12.487-2.057-1.194-3.898-1.248-5.198-.434l-1.462.977 10.234 17.644 1.137-.543c.325-.162.596-.325.867-.542 1.028-.978 1.624-2.66 1.624-4.615z" fill="url(#paint6_linear)"/><path d="M248.697 67.922c0 4.56 3.249 10.152 7.202 12.487 4.007 2.334 7.201.434 7.201-4.126 0-4.56-3.248-10.153-7.201-12.487-4.007-2.334-7.202-.489-7.202 4.126z" fill="#B18961"/><path d="M260.014 75.034c0-3.311-2.328-7.383-5.198-9.012-1.462-.869-2.816-.923-3.736-.326l-55.988 32.629 7.418 12.758 55.771-32.303a1.61 1.61 0 00.596-.38c.704-.706 1.137-1.9 1.137-3.366z" fill="#FC0"/><path d="M193.63 101.582c0 3.312 2.328 7.384 5.198 9.012 2.87 1.683 5.198.326 5.198-2.986 0-3.311-2.328-7.383-5.198-9.012-2.87-1.683-5.198-.326-5.198 2.986z" fill="#B18961"/><path d="M206.733 108.314c0-4.56-3.249-10.152-7.201-12.487-2.058-1.194-3.899-1.248-5.198-.434l-1.462.977 10.233 17.645 1.137-.543a4.7 4.7 0 00.867-.543c1.029-.978 1.624-2.661 1.624-4.615z" fill="url(#paint7_linear)"/><path d="M190.977 100.876c0 4.56 3.248 10.152 7.201 12.487 4.007 2.334 7.202.434 7.202-4.126 0-4.561-3.249-10.152-7.202-12.487-3.953-2.334-7.201-.434-7.201 4.126z" fill="#B18961"/><path d="M194.117 102.722c0 2.606 1.841 5.701 4.061 7.004 2.22 1.303 4.061.271 4.061-2.335s-1.841-5.7-4.061-7.003c-2.22-1.303-4.061-.272-4.061 2.334z" fill="#9A4232"/><path d="M200.182 106.088c0 .652-.217 1.14-.596 1.357h-.054l-.812.435c-.379.271-.921.217-1.516-.109-1.138-.651-2.112-2.28-2.112-3.637 0-.652.216-1.086.541-1.303h.054l.813-.434.054-.055c.379-.217.92-.163 1.462.163 1.191.597 2.166 2.226 2.166 3.583z" fill="url(#paint8_linear)"/><path d="M195.092 104.188c0 1.303.92 2.932 2.057 3.583 1.137.652 2.058.109 2.058-1.194s-.921-2.932-2.058-3.583c-1.137-.652-2.057-.109-2.057 1.194z" fill="#F3F4F4"/><path d="M195.2 104.459c0 1.195.867 2.661 1.895 3.258 1.029.597 1.895.108 1.895-1.086 0-1.194-.866-2.66-1.895-3.257-1.083-.598-1.895-.109-1.895 1.085z" fill="#E4E5E5"/><path d="M198.124 106.251c0 .38-.162.652-.379.76l-17.219 9.718c-.216.163-.541.109-.866-.054-.65-.38-1.191-1.303-1.191-2.117 0-.38.108-.652.325-.76l17.218-9.718s.055 0 .055-.055c.216-.108.541-.108.866.109.65.434 1.191 1.357 1.191 2.117z" fill="url(#paint9_linear)"/><path d="M178.415 114.612c0 .76.541 1.683 1.191 2.063.65.38 1.191.054 1.191-.706s-.541-1.683-1.191-2.063c-.65-.38-1.191-.054-1.191.706z" fill="#F3F4F4"/><path d="M178.469 114.775c0 .706.487 1.52 1.083 1.9.595.326 1.083.054 1.083-.651 0-.706-.488-1.52-1.083-1.9-.596-.326-1.083-.055-1.083.651z" fill="#E4E5E5"/><path d="M254.112 125.633v-25.028l-55.88 32.357v25.028l55.88-32.357z" fill="#447056"/><path d="M274.363 85.947c0 .38-.162.652-.379.76l-17.218 9.718c-.217.163-.542.109-.867-.054-.65-.38-1.191-1.303-1.191-2.117 0-.38.108-.652.325-.76l17.219-9.719s.054 0 .054-.054c.216-.108.541-.108.866.109.65.434 1.191 1.357 1.191 2.117z" fill="url(#paint10_linear)"/><path d="M254.654 94.308c0 .76.541 1.683 1.191 2.063.65.38 1.191.054 1.191-.706s-.541-1.683-1.191-2.063c-.65-.38-1.191-.054-1.191.706z" fill="#F3F4F4"/><path d="M254.708 94.47c0 .707.487 1.521 1.083 1.901.596.326 1.083.054 1.083-.651 0-.706-.487-1.52-1.083-1.9-.596-.326-1.083-.055-1.083.65z" fill="#E4E5E5"/><path d="M264.508 97.837c0-4.56-3.249-10.153-7.201-12.487-2.058-1.195-3.899-1.249-5.199-.434l-1.462.977 10.234 17.644 1.137-.543a4.7 4.7 0 00.867-.543c1.029-.923 1.624-2.606 1.624-4.614z" fill="url(#paint11_linear)"/><path d="M248.751 90.399c0 4.56 3.249 10.152 7.202 12.486 4.007 2.335 7.202.435 7.202-4.126 0-4.56-3.249-10.152-7.202-12.486-4.007-2.28-7.202-.435-7.202 4.126z" fill="#B18961"/><path d="M260.068 97.565c0-3.312-2.328-7.383-5.198-9.012-1.462-.869-2.815-.923-3.736-.326l-56.042 32.574 7.418 12.758 55.771-32.302c.271-.109.434-.217.596-.38.758-.652 1.191-1.9 1.191-3.312z" fill="#518265"/><path d="M193.684 124.113c0 3.312 2.328 7.384 5.198 9.012 2.87 1.683 5.198.326 5.198-2.986 0-3.311-2.328-7.383-5.198-9.012-2.87-1.683-5.198-.38-5.198 2.986z" fill="#B18961"/><path d="M206.787 130.845c0-4.561-3.248-10.152-7.201-12.487-2.058-1.194-3.899-1.249-5.198-.434l-1.462.977 10.234 17.644 1.137-.543c.325-.162.595-.325.866-.543 1.029-.977 1.624-2.66 1.624-4.614z" fill="url(#paint12_linear)"/><path d="M191.031 123.407c0 4.56 3.249 10.152 7.201 12.487 4.007 2.334 7.202.434 7.202-4.126 0-4.561-3.249-10.153-7.202-12.487-3.952-2.335-7.201-.489-7.201 4.126z" fill="#B18961"/><path d="M194.171 125.199c0 2.605 1.841 5.7 4.061 7.003 2.22 1.303 4.061.271 4.061-2.334 0-2.606-1.841-5.701-4.061-7.004-2.22-1.249-4.061-.217-4.061 2.335z" fill="#9A4232"/><path d="M200.182 128.565c0 .651-.217 1.14-.596 1.357h-.054l-.812.434c-.379.272-.921.218-1.516-.108-1.138-.652-2.112-2.28-2.112-3.638 0-.651.216-1.085.541-1.303h.054l.813-.434.054-.054c.379-.217.92-.163 1.462.163 1.245.651 2.166 2.28 2.166 3.583z" fill="url(#paint13_linear)"/><path d="M195.146 126.719c0 1.303.921 2.932 2.058 3.583 1.137.652 2.057.109 2.057-1.194s-.92-2.932-2.057-3.583c-1.137-.652-2.058-.109-2.058 1.194z" fill="#F3F4F4"/><path d="M195.254 126.991c0 1.194.867 2.66 1.896 3.257 1.028.597 1.895.109 1.895-1.086 0-1.194-.867-2.66-1.895-3.257-1.083-.597-1.896-.109-1.896 1.086z" fill="#E4E5E5"/><path d="M198.178 128.782c0 .38-.162.652-.379.76l-17.273 9.718c-.216.163-.541.109-.866-.054-.65-.38-1.191-1.303-1.191-2.118 0-.38.108-.651.325-.76l17.218-9.718s.055 0 .055-.054c.216-.108.541-.108.866.109.704.38 1.245 1.357 1.245 2.117z" fill="url(#paint14_linear)"/><path d="M178.469 137.143c0 .76.541 1.683 1.191 2.063.65.38 1.191.054 1.191-.706s-.541-1.683-1.191-2.063c-.704-.38-1.191-.054-1.191.706z" fill="#F3F4F4"/><path d="M178.523 137.251c0 .706.487 1.52 1.083 1.9.596.326 1.083.055 1.083-.597 0-.706-.487-1.52-1.083-1.9-.596-.38-1.083-.109-1.083.597z" fill="#E4E5E5"/><path d="M177.224 85.621l.92-.542v76.983l-.92.543V85.622z" fill="#BABFBE"/><path d="M173 162.225l2.437 1.411V86.653L173 85.24v76.984z" fill="#899593"/><path d="M175.437 86.653l.92-.543v76.983l-.92.543V86.653z" fill="#BABFBE"/><path d="M176.357 163.093l2.382 1.412V87.521l-2.382-1.411v76.983z" fill="#9DA7A5"/><path d="M177.873 88.064l.866-.542v76.983l-.866.543V88.064z" fill="#8F9795"/><path d="M177.873 165.048l2.383 1.357V89.422l-2.383-1.358v76.984z" fill="#899593"/><path d="M180.256 89.422v76.983l2.707-1.575V87.847l-2.707 1.575z" fill="#BABFBE"/><path d="M182.963 87.847l-2.382-1.357-.921.489-2.437-1.358.921-.542-2.437-1.412-1.786 1.031-.921.543 2.437 1.412.92-.543 2.383 1.412-.867.542 2.383 1.358.92-.489 1.787-1.086z" fill="#C6D1CF"/><path d="M273.876 109.454l2.437 1.358V33.828l-2.437-1.357v76.983z" fill="#899593"/><path d="M310.046 51.473l.921-.489v76.984l-.921.488V51.473z" fill="#BABFBE"/><path d="M305.823 128.13l2.436 1.412V52.559l-2.436-1.412v76.983z" fill="#899593"/><path d="M308.259 52.559l.867-.543v76.983l-.867.543V52.559z" fill="#BABFBE"/><path d="M309.126 128.999l2.437 1.411V53.427l-2.437-1.411v76.983z" fill="#9DA7A5"/><path d="M310.642 53.97l.921-.543v76.984l-.921.488V53.97z" fill="#8F9795"/><path d="M313.079 55.327v76.984l2.707-1.575V53.753l-2.707 1.574z" fill="#BABFBE"/><path d="M315.786 53.753l-2.383-1.357-.92.488-2.437-1.411.921-.489-2.437-1.411-1.787 1.031-.92.543 2.436 1.412.867-.543 2.436 1.411-.92.543 2.436 1.358.921-.49 1.787-1.085z" fill="#C6D1CF"/><path d="M290.824 102.94V77.912l-55.88 32.303v25.027l55.88-32.302z" fill="#447056"/><path d="M311.075 63.254c0 .38-.163.651-.379.76l-17.219 9.718c-.217.163-.541.108-.866-.055-.65-.38-1.192-1.303-1.192-2.117 0-.38.109-.651.325-.76l17.219-9.718s.054 0 .054-.054c.217-.109.542-.109.867.108.649.38 1.191 1.303 1.191 2.118z" fill="url(#paint15_linear)"/><path d="M291.365 71.615c0 .76.542 1.683 1.191 2.063.65.38 1.192.054 1.192-.706s-.542-1.683-1.192-2.063c-.649-.38-1.191-.055-1.191.706z" fill="#F3F4F4"/><path d="M291.419 71.723c0 .706.488 1.52 1.083 1.9.596.326 1.083.054 1.083-.651 0-.706-.487-1.52-1.083-1.9-.595-.326-1.083-.055-1.083.65z" fill="#E4E5E5"/><path d="M301.22 75.143c0-4.56-3.249-10.152-7.202-12.487-2.058-1.194-3.899-1.248-5.198-.434l-1.462.977 10.234 17.645 1.137-.543a4.67 4.67 0 00.866-.543c1.029-.977 1.625-2.66 1.625-4.615z" fill="url(#paint16_linear)"/><path d="M285.463 67.705c0 4.56 3.249 10.153 7.201 12.487 4.007 2.335 7.202.434 7.202-4.126 0-4.56-3.249-10.152-7.202-12.487-3.952-2.334-7.201-.488-7.201 4.126z" fill="#B18961"/><path d="M296.78 74.872c0-3.312-2.329-7.384-5.198-9.013-1.462-.868-2.816-.922-3.737-.325l-55.988 32.628 7.419 12.758 55.771-32.302c.271-.109.433-.218.596-.38.704-.76 1.137-1.955 1.137-3.366z" fill="#518265"/><path d="M230.45 101.365c0 3.312 2.328 7.384 5.198 9.013 2.87 1.683 5.198.325 5.198-2.986 0-3.312-2.328-7.384-5.198-9.013-2.87-1.628-5.198-.325-5.198 2.986z" fill="#B18961"/><path d="M243.553 108.097c0-4.56-3.249-10.152-7.202-12.486-2.057-1.195-3.898-1.25-5.198-.435l-1.462.977 10.234 17.645 1.137-.543a4.7 4.7 0 00.867-.543c.974-.923 1.624-2.606 1.624-4.615z" fill="url(#paint17_linear)"/><path d="M227.742 100.659c0 4.561 3.249 10.153 7.202 12.487 4.007 2.335 7.201.434 7.201-4.126 0-4.56-3.249-10.152-7.201-12.487-3.953-2.28-7.202-.434-7.202 4.126z" fill="#B18961"/><path d="M230.937 102.506c0 2.605 1.841 5.7 4.061 7.003 2.22 1.303 4.061.271 4.061-2.334 0-2.606-1.841-5.701-4.061-7.004-2.274-1.303-4.061-.271-4.061 2.335z" fill="#9A4232"/><path d="M236.947 105.871c0 .652-.216 1.141-.595 1.358h-.055l-.812.434c-.379.271-.92.217-1.516-.109-1.137-.651-2.112-2.28-2.112-3.637 0-.651.217-1.086.542-1.303h.054l.812-.434.054-.055c.379-.217.921-.162 1.462.163 1.192.652 2.166 2.226 2.166 3.583z" fill="url(#paint18_linear)"/><path d="M231.857 104.026c0 1.303.921 2.931 2.058 3.583 1.137.651 2.058.108 2.058-1.195 0-1.303-.921-2.931-2.058-3.583-1.137-.651-2.058-.108-2.058 1.195z" fill="#F3F4F4"/><path d="M231.966 104.243c0 1.194.866 2.66 1.895 3.257 1.029.598 1.895.109 1.895-1.085 0-1.195-.866-2.661-1.895-3.258s-1.895-.108-1.895 1.086z" fill="#E4E5E5"/><path d="M234.89 106.035c0 .38-.163.651-.379.76l-17.219 9.718c-.217.162-.542.108-.866-.055-.65-.38-1.192-1.303-1.192-2.117 0-.38.109-.652.325-.76l17.219-9.718s.054 0 .054-.054c.217-.109.542-.109.867.108.649.435 1.191 1.357 1.191 2.118z" fill="url(#paint19_linear)"/><path d="M215.18 114.395c0 .76.542 1.683 1.191 2.063.65.38 1.192.054 1.192-.706s-.542-1.683-1.192-2.063c-.649-.325-1.191-.054-1.191.706z" fill="#F3F4F4"/><path d="M215.234 114.558c0 .706.488 1.52 1.083 1.9.596.326 1.083.055 1.083-.651 0-.706-.487-1.52-1.083-1.9-.595-.326-1.083-.055-1.083.651z" fill="#E4E5E5"/><path d="M290.824 124.601V99.574l-55.88 32.357v25.027l55.88-32.357z" fill="#F3F3F3"/><path d="M311.075 84.915c0 .38-.163.652-.379.76l-17.219 9.718c-.217.163-.541.109-.866-.054-.65-.38-1.192-1.303-1.192-2.117 0-.38.109-.652.325-.76l17.219-9.718s.054 0 .054-.055c.217-.108.542-.108.867.11.649.433 1.191 1.356 1.191 2.116z" fill="url(#paint20_linear)"/><path d="M291.365 93.276c0 .76.542 1.683 1.191 2.063.65.38 1.192.054 1.192-.706s-.542-1.683-1.192-2.063c-.649-.326-1.191-.054-1.191.706z" fill="#F3F4F4"/><path d="M291.419 93.439c0 .706.488 1.52 1.083 1.9.596.326 1.083.054 1.083-.597 0-.706-.487-1.52-1.083-1.9-.595-.38-1.083-.11-1.083.597z" fill="#E4E5E5"/><path d="M301.22 96.859c0-4.56-3.249-10.152-7.202-12.487-2.058-1.194-3.899-1.248-5.198-.434l-1.462.977 10.234 17.644 1.137-.542c.325-.163.595-.326.866-.543 1.029-.978 1.625-2.66 1.625-4.615z" fill="url(#paint21_linear)"/><path d="M285.463 89.367c0 4.56 3.249 10.152 7.201 12.487 4.007 2.334 7.202.434 7.202-4.126 0-4.56-3.249-10.153-7.202-12.487-3.952-2.28-7.201-.434-7.201 4.126z" fill="#B18961"/><path d="M296.78 96.533c0-3.311-2.329-7.383-5.198-9.012-1.462-.868-2.816-.923-3.737-.326l-55.988 32.629 7.419 12.758 55.771-32.303c.271-.108.433-.217.596-.38.704-.706 1.137-1.954 1.137-3.366z" fill="#fff"/><path d="M230.45 123.081c0 3.312 2.328 7.384 5.198 9.012 2.87 1.683 5.198.326 5.198-2.986 0-3.311-2.328-7.383-5.198-9.012-2.87-1.683-5.198-.325-5.198 2.986z" fill="#B18961"/><path d="M243.553 129.813c0-4.56-3.249-10.152-7.202-12.487-2.057-1.194-3.898-1.248-5.198-.434l-1.462.977 10.234 17.645 1.137-.543a4.7 4.7 0 00.867-.543c.974-.977 1.624-2.66 1.624-4.615z" fill="url(#paint22_linear)"/><path d="M227.742 122.375c0 4.561 3.249 10.152 7.202 12.487 4.007 2.334 7.201.434 7.201-4.126 0-4.56-3.249-10.152-7.201-12.487-3.953-2.334-7.202-.488-7.202 4.126z" fill="#B18961"/><path d="M230.937 124.221c0 2.606 1.841 5.701 4.061 7.004 2.22 1.303 4.061.271 4.061-2.335s-1.841-5.7-4.061-7.003c-2.274-1.303-4.061-.272-4.061 2.334z" fill="#9A4232"/><path d="M236.947 127.587c0 .652-.216 1.14-.595 1.357h-.055l-.812.435c-.379.271-.92.217-1.516-.109-1.137-.651-2.112-2.28-2.112-3.637 0-.652.217-1.086.542-1.303h.054l.812-.434.054-.055c.379-.217.921-.163 1.462.163 1.192.597 2.166 2.226 2.166 3.583z" fill="url(#paint23_linear)"/><path d="M231.857 125.687c0 1.303.921 2.932 2.058 3.583 1.137.652 2.058.109 2.058-1.194s-.921-2.932-2.058-3.583c-1.137-.652-2.058-.109-2.058 1.194z" fill="#F3F4F4"/><path d="M231.966 125.959c0 1.194.866 2.66 1.895 3.257s1.895.109 1.895-1.086c0-1.194-.866-2.66-1.895-3.257s-1.895-.109-1.895 1.086z" fill="#E4E5E5"/><path d="M234.89 127.75c0 .38-.163.652-.379.76l-17.219 9.718c-.217.163-.542.109-.866-.054-.65-.38-1.192-1.303-1.192-2.117 0-.38.109-.652.325-.76l17.219-9.718s.054 0 .054-.055c.217-.108.542-.108.867.109.649.38 1.191 1.357 1.191 2.117z" fill="url(#paint24_linear)"/><path d="M215.18 136.111c0 .76.542 1.683 1.191 2.063.65.38 1.192.054 1.192-.706s-.542-1.683-1.192-2.063c-.649-.38-1.191-.054-1.191.706z" fill="#F3F4F4"/><path d="M215.234 136.219c0 .706.488 1.52 1.083 1.9.596.326 1.083.055 1.083-.651 0-.706-.487-1.52-1.083-1.9-.595-.272-1.083 0-1.083.651z" fill="#E4E5E5"/><path d="M290.878 147.132v-25.028l-55.88 32.303v25.028l55.88-32.303z" fill="#C48500"/><path d="M311.129 107.446c0 .38-.162.652-.379.76l-17.219 9.718c-.216.163-.541.109-.866-.054-.65-.38-1.191-1.303-1.191-2.117 0-.381.108-.652.325-.761l17.218-9.717s.054 0 .054-.055c.217-.108.542-.108.867.109.65.38 1.191 1.357 1.191 2.117z" fill="url(#paint25_linear)"/><path d="M291.419 115.807c0 .76.542 1.683 1.192 2.063.649.38 1.191.054 1.191-.706s-.542-1.683-1.191-2.063c-.65-.38-1.192-.054-1.192.706z" fill="#F3F4F4"/><path d="M291.474 115.915c0 .706.487 1.521 1.083 1.901.595.325 1.083.054 1.083-.652 0-.706-.488-1.52-1.083-1.9-.596-.326-1.083 0-1.083.651z" fill="#E4E5E5"/><path d="M301.274 119.336c0-4.561-3.249-10.153-7.202-12.487-2.057-1.195-3.898-1.249-5.198-.434l-1.462.977 10.234 17.644 1.137-.543c.325-.163.596-.326.866-.543 1.029-.923 1.625-2.66 1.625-4.614z" fill="url(#paint26_linear)"/><path d="M285.517 111.898c0 4.56 3.249 10.152 7.202 12.486 4.007 2.335 7.201.435 7.201-4.126 0-4.56-3.249-10.152-7.201-12.486-4.007-2.281-7.202-.435-7.202 4.126z" fill="#B18961"/><path d="M296.834 119.064c0-3.312-2.328-7.383-5.198-9.012-1.462-.869-2.816-.923-3.736-.326l-55.988 32.629 7.418 12.758 55.771-32.303c.271-.108.433-.217.596-.38.704-.706 1.137-1.954 1.137-3.366z" fill="#FC0"/><path d="M230.45 145.558c0 3.312 2.328 7.383 5.198 9.012 2.87 1.683 5.198.326 5.198-2.986 0-3.312-2.328-7.383-5.198-9.012-2.816-1.629-5.198-.326-5.198 2.986z" fill="#B18961"/><path d="M243.607 152.344c0-4.561-3.249-10.152-7.201-12.487-2.058-1.194-3.899-1.249-5.198-.434l-1.462.977 10.233 17.644 1.138-.543c.324-.162.595-.325.866-.542.975-.978 1.624-2.661 1.624-4.615z" fill="url(#paint27_linear)"/><path d="M227.796 144.852c0 4.56 3.249 10.152 7.202 12.486 4.007 2.335 7.201.435 7.201-4.126 0-4.56-3.248-10.152-7.201-12.486-3.953-2.28-7.202-.435-7.202 4.126z" fill="#B18961"/><path d="M230.937 146.698c0 2.606 1.841 5.7 4.061 7.003 2.22 1.303 4.061.271 4.061-2.334 0-2.606-1.841-5.701-4.061-7.004-2.22-1.249-4.061-.217-4.061 2.335z" fill="#9A4232"/><path d="M237.001 150.064c0 .651-.216 1.14-.595 1.357h-.054l-.813.434c-.379.272-.92.218-1.516-.108-1.137-.652-2.111-2.28-2.111-3.638 0-.651.216-1.085.541-1.303h.054l.812-.434.055-.054c.379-.217.92-.163 1.462.163 1.191.651 2.165 2.28 2.165 3.583z" fill="url(#paint28_linear)"/><path d="M231.912 148.218c0 1.303.92 2.932 2.057 3.583 1.137.652 2.058.109 2.058-1.194s-.921-2.932-2.058-3.583c-1.137-.652-2.057-.109-2.057 1.194z" fill="#F3F4F4"/><path d="M232.02 148.489c0 1.195.866 2.661 1.895 3.258s1.895.108 1.895-1.086c0-1.194-.866-2.66-1.895-3.257-1.083-.598-1.895-.163-1.895 1.085z" fill="#E4E5E5"/><path d="M234.944 150.281c0 .38-.162.652-.379.76l-17.219 9.718c-.216.163-.541.109-.866-.054-.65-.38-1.191-1.303-1.191-2.118 0-.38.108-.651.324-.76l17.219-9.718s.054.001.054-.054c.217-.108.542-.108.867.109.65.38 1.191 1.303 1.191 2.117z" fill="url(#paint29_linear)"/><path d="M215.234 158.587c0 .76.542 1.683 1.192 2.063.649.38 1.191.055 1.191-.705s-.542-1.683-1.191-2.063c-.65-.326-1.192-.055-1.192.705z" fill="#F3F4F4"/><path d="M215.289 158.75c0 .706.487 1.52 1.083 1.9.595.326 1.082.055 1.082-.597 0-.706-.487-1.52-1.082-1.9-.596-.38-1.083-.109-1.083.597z" fill="#E4E5E5"/><path d="M214.043 107.066l.867-.489v76.983l-.867.489v-76.983z" fill="#BABFBE"/><path d="M209.82 183.723l2.382 1.412v-76.984l-2.382-1.411v76.983z" fill="#899593"/><path d="M212.202 108.151l.921-.543v76.984l-.921.543v-76.984z" fill="#BABFBE"/><path d="M213.123 184.592l2.436 1.411V109.02l-2.436-1.412v76.984z" fill="#9DA7A5"/><path d="M214.639 109.509l.92-.489v76.983l-.92.489v-76.983z" fill="#8F9795"/><path d="M214.639 186.492l2.436 1.412V110.92l-2.436-1.411v76.983z" fill="#899593"/><path d="M217.076 110.92v76.983l2.707-1.574v-76.983l-2.707 1.574z" fill="#BABFBE"/><path d="M219.783 109.346l-2.437-1.357-.92.488-2.383-1.411.867-.489-2.383-1.411-1.841 1.031-.866.543 2.382 1.411.921-.542 2.436 1.411-.92.489 2.437 1.411.866-.488 1.841-1.086z" fill="#C6D1CF"/><path d="M310.642 130.899l2.436 1.412V55.327l-2.436-1.357v76.93z" fill="#899593"/><path d="M106.182 65.697l28.319-16.504-14.782-8.09L77.43 65.751l1.083.652 30.052 17.372 12.833-7.492-15.216-8.794c-.812-.49-.812-1.303 0-1.792z" fill="#F3F3F3"/><path d="M137.696 50.93l-26.911 15.69 13.699 7.872 14.674-8.523 12.562-7.33-14.024-7.709z" fill="#F3F3F3"/><path d="M110.785 66.62l26.857-15.636-3.141-1.737-28.319 16.504c-.866.489-.812 1.303 0 1.792l15.216 8.795 24.312 14.007 3.032-1.792-24.312-14.007-13.645-7.926z" fill="#AFAFAF"/><path d="M66.005 67.271a22.935 22.935 0 015.577 2.172c1.462.868 2.654 1.791 3.466 2.823 3.14 3.8 2.003 8.523-3.412 11.672-6.876 4.018-18.085 4.018-25.015 0-6.931-4.017-6.986-10.532-.109-14.55 5.252-2.985 12.995-3.691 19.493-2.117zm16.948-4.234c-6.822-3.963-6.877-10.37-.054-14.279 6.768-3.963 17.814-3.963 24.637 0 6.822 3.963 6.877 10.37.054 14.333-6.768 3.854-17.814 3.854-24.637-.054zm54.905-35.343c.975.38 1.895.814 2.708 1.303.812.488 1.57 1.031 2.166 1.574.433.38.866.815 1.191 1.195.325.434.65.868.866 1.303.379.651.596 1.357.704 2.008.217 1.52-.162 3.095-1.137 4.56-.325.49-.758.978-1.245 1.466-.65.652-1.462 1.25-2.437 1.792a18.42 18.42 0 01-3.141 1.412c-.812.271-1.624.542-2.436.705-2.491.597-5.198.815-7.852.706-.379 0-.758-.054-1.191-.109a17.91 17.91 0 01-2.382-.325c-1.516-.272-2.924-.652-4.278-1.195-.975-.38-1.841-.76-2.707-1.248-.867-.489-1.57-1.032-2.22-1.575-.433-.38-.867-.814-1.191-1.248-.325-.435-.65-.869-.867-1.303-.325-.652-.595-1.303-.65-2.009-.216-1.52.163-3.095 1.137-4.56a7.532 7.532 0 011.246-1.412c.704-.651 1.516-1.249 2.491-1.846a19.875 19.875 0 013.086-1.411c.812-.272 1.624-.543 2.491-.76 2.491-.598 5.198-.815 7.851-.706.433 0 .812.054 1.191.108.813.055 1.571.163 2.329.326 1.516.38 2.924.76 4.277 1.249zm34.221-2.28L148.796 11.95c-10.613-6.135-27.723-6.135-38.282 0L19.06 65.208c-10.56 6.135-10.505 16.07.108 22.26L42.45 100.93c10.613 6.135 27.723 6.135 38.282 0l91.455-53.313c10.558-6.135 10.504-16.07-.109-22.204z" fill="#F3F3F3"/><path d="M75.048 72.32l-23.5 13.681c-1.787-.488-3.411-1.14-4.928-2.008-1.624-.977-2.923-2.063-3.79-3.203l23.121-13.464-23.12 13.464c-2.762-3.746-1.571-8.253 3.681-11.293-6.877 4.018-6.877 10.533.108 14.55 6.931 4.017 18.14 4.017 25.017 0-5.415 3.149-13.537 3.855-20.09 2.009l23.5-13.736z" fill="#fff"/><path d="M66.005 67.271c-6.443-1.574-14.186-.868-19.439 2.172-5.252 3.04-6.497 7.546-3.682 11.292l23.121-13.464z" fill="#fff"/><path d="M71.528 69.443c-1.624-.978-3.52-1.683-5.577-2.172L42.83 80.735c.865 1.194 2.11 2.28 3.79 3.203 1.461.869 3.14 1.52 4.927 2.009l23.5-13.681c-.867-.978-2.058-1.955-3.52-2.823z" fill="#323E95"/><path d="M75.048 72.32l-23.5 13.681c6.606 1.792 14.674 1.14 20.088-2.008 5.415-3.15 6.552-7.872 3.412-11.673zm6.01-14.007l3.195-1.846-2.058-2.334 4.007 1.194 3.195-1.846-.704 2.606 4.007 1.195-4.44.434-.704 2.606-2.058-2.335-4.44.326zm8.772-9.23l1.3-.325-.704.706.92.597-1.354-.163-.704.706-.162-.814-1.354-.163 1.3-.326-.163-.814.92.597zm10.938 6.299l1.299-.326-.704.706.921.597-1.408-.163-.704.706-.162-.815-1.354-.163 1.3-.325-.163-.815.975.598zm-3.033-6.135l-1.137.434.38.814-1.138-.488-1.191.434.487-.76L94 49.192h1.408l.487-.76.38.76 1.461.055zm1.03 3.583l.974-.597-.65-.706 1.245.38.975-.597-.216.814 1.245.38-1.408.109-.216.814-.65-.706-1.3.109zm8.771-4.126c-6.822-3.963-17.868-3.963-24.637 0-6.768 3.963-6.768 10.37.054 14.278 6.823 3.963 17.869 3.963 24.637 0 6.823-3.909 6.769-10.315-.054-14.278z" fill="#D8001E"/><path d="M89.397 53.481l-3.195 1.846-4.061-1.194 2.058 2.334-3.14 1.846 4.44-.38 2.057 2.335.704-2.606 4.44-.434-4.007-1.195.704-2.552zm1.733-4.723l-1.3.326-.92-.651.108.814-1.246.326 1.354.217.163.814.704-.706 1.353.163-.92-.597.704-.706zm6.605.489l-1.408-.054-.379-.76-.487.76-1.408-.055 1.137.543-.487.76 1.137-.488 1.137.543-.379-.815 1.137-.434zm3.628 2.063l-.974.543-1.3-.38.65.76-.975.597 1.408-.163.596.76.27-.814 1.354-.109-1.245-.38.216-.814zm.704 3.746l-1.299.326-.921-.597.162.814-1.299.326 1.354.163.162.814.704-.706 1.408.163-.975-.597.704-.706z" fill="#FFCE00"/><path d="M123.347 36.163l-9.205-5.32c-.488.434-.867.922-1.246 1.41l5.74 3.313-6.931 1.248c.108.652.325 1.358.65 2.009l4.494-.814-3.628 2.117c.325.434.758.814 1.191 1.249l8.935-5.212zm14.132 8.198l-9.259-5.375-8.88 5.157c1.353.49 2.815.923 4.277 1.195l1.354-2.552 3.086-1.791.325.217L126 45.664c.379.054.758.054 1.191.108l2.112-4.017 5.739 3.311c.867-.217 1.679-.434 2.437-.705zm.379-16.667a26.847 26.847 0 00-4.223-1.14l-1.3 2.443-3.195 1.845-.27-.162 2.382-4.452c-.379-.055-.812-.055-1.191-.109l-2.112 4.018-5.739-3.312c-.867.217-1.679.434-2.491.76l9.205 5.32 8.934-5.211zm4.873 2.823l-8.934 5.211 9.259 5.375c.488-.488.921-.977 1.246-1.466l-5.74-3.311 6.931-1.249a5.568 5.568 0 00-.704-2.009l-4.494.815 3.628-2.118c-.325-.434-.704-.814-1.192-1.248z" fill="#fff"/><path d="M140.565 28.997a20.767 20.767 0 00-2.707-1.303l-8.934 5.211-9.205-5.32c-1.083.38-2.112.869-3.087 1.412-.974.542-1.786 1.194-2.49 1.845l9.205 5.32-8.881 5.158c.65.543 1.354 1.086 2.221 1.575a13.73 13.73 0 002.707 1.248l8.88-5.157 9.259 5.375a18.42 18.42 0 003.141-1.412c.974-.543 1.787-1.14 2.436-1.791l-9.259-5.375 8.934-5.212c-.649-.597-1.407-1.086-2.22-1.575z" fill="#CE1124"/><path d="M118.69 35.566l-5.74-3.312c-1.029 1.466-1.408 3.04-1.137 4.56l6.877-1.248z" fill="#00247D"/><path d="M116.903 38.009l-4.494.814c.217.434.542.869.867 1.303l3.627-2.117zm27.02-6.244l-3.628 2.117 4.494-.814a6.027 6.027 0 00-.866-1.303z" fill="#CE1124"/><path d="M135.042 45.067l-5.739-3.312-2.112 4.017c2.653.109 5.36-.108 7.851-.705z" fill="#00247D"/><path d="M128.436 41.212l-.325-.217-3.086 1.791-1.354 2.552a16.8 16.8 0 002.383.326l2.382-4.452z" fill="#CE1124"/><path d="M130.061 26.12c-2.653-.11-5.361.108-7.852.705l5.74 3.312 2.112-4.018z" fill="#00247D"/><path d="M133.635 26.553a17.16 17.16 0 00-2.329-.326l-2.436 4.452.27.163 3.195-1.846 1.3-2.443z" fill="#CE1124"/><path d="M145.493 35.077l-6.931 1.249 5.74 3.312c1.028-1.466 1.407-2.986 1.191-4.56z" fill="#00247D"/><defs><linearGradient id="paint0_linear" x1="265.38" y1="47.496" x2="263.54" y2="44.318" gradientUnits="userSpaceOnUse"><stop offset=".01" stop-color="#7B827F"/><stop offset=".11" stop-color="#858C8A"/><stop offset=".284" stop-color="#9FA8A6"/><stop offset=".392" stop-color="#B2BDBB"/><stop offset=".393" stop-color="#B6C1BF"/><stop offset=".403" stop-color="#CCD5D3"/><stop offset=".414" stop-color="#DDE4E2"/><stop offset=".427" stop-color="#E8EFED"/><stop offset=".447" stop-color="#EFF5F3"/><stop offset=".5" stop-color="#F1F7F5"/><stop offset=".574" stop-color="#EFF5F3"/><stop offset=".6" stop-color="#E8EFED"/><stop offset=".619" stop-color="#DDE5E3"/><stop offset=".634" stop-color="#CCD6D4"/><stop offset=".646" stop-color="#B8C4C2"/><stop offset=".68" stop-color="#AFBAB8"/><stop offset=".83" stop-color="#89908E"/><stop offset=".867" stop-color="#929A97"/><stop offset=".97" stop-color="#A8B3AE"/></linearGradient><linearGradient id="paint1_linear" x1="264.177" y1="57.488" x2="253.857" y2="39.66" gradientUnits="userSpaceOnUse"><stop offset=".257" stop-color="#C9BD9B"/><stop offset=".295" stop-color="#D8CFB6"/><stop offset=".657" stop-color="#D8CFB6"/><stop offset=".684" stop-color="#E5DFCF"/></linearGradient><linearGradient id="paint2_linear" x1="206.473" y1="90.465" x2="196.153" y2="72.637" gradientUnits="userSpaceOnUse"><stop offset=".257" stop-color="#C9BD9B"/><stop offset=".295" stop-color="#D8CFB6"/><stop offset=".657" stop-color="#D8CFB6"/><stop offset=".684" stop-color="#E5DFCF"/></linearGradient><linearGradient id="paint3_linear" x1="199.104" y1="85.987" x2="196.135" y2="80.86" gradientUnits="userSpaceOnUse"><stop offset=".01" stop-color="#7B827F"/><stop offset=".11" stop-color="#858C8A"/><stop offset=".284" stop-color="#9FA8A6"/><stop offset=".392" stop-color="#B2BDBB"/><stop offset=".393" stop-color="#B6C1BF"/><stop offset=".403" stop-color="#CCD5D3"/><stop offset=".414" stop-color="#DDE4E2"/><stop offset=".427" stop-color="#E8EFED"/><stop offset=".447" stop-color="#EFF5F3"/><stop offset=".5" stop-color="#F1F7F5"/><stop offset=".574" stop-color="#EFF5F3"/><stop offset=".6" stop-color="#E8EFED"/><stop offset=".619" stop-color="#DDE5E3"/><stop offset=".634" stop-color="#CCD6D4"/><stop offset=".646" stop-color="#B8C4C2"/><stop offset=".68" stop-color="#AFBAB8"/><stop offset=".83" stop-color="#89908E"/><stop offset=".867" stop-color="#929A97"/><stop offset=".97" stop-color="#A8B3AE"/></linearGradient><linearGradient id="paint4_linear" x1="189.165" y1="90.313" x2="187.325" y2="87.135" gradientUnits="userSpaceOnUse"><stop offset=".01" stop-color="#7B827F"/><stop offset=".11" stop-color="#858C8A"/><stop offset=".284" stop-color="#9FA8A6"/><stop offset=".392" stop-color="#B2BDBB"/><stop offset=".393" stop-color="#B6C1BF"/><stop offset=".403" stop-color="#CCD5D3"/><stop offset=".414" stop-color="#DDE4E2"/><stop offset=".427" stop-color="#E8EFED"/><stop offset=".447" stop-color="#EFF5F3"/><stop offset=".5" stop-color="#F1F7F5"/><stop offset=".574" stop-color="#EFF5F3"/><stop offset=".6" stop-color="#E8EFED"/><stop offset=".619" stop-color="#DDE5E3"/><stop offset=".634" stop-color="#CCD6D4"/><stop offset=".646" stop-color="#B8C4C2"/><stop offset=".68" stop-color="#AFBAB8"/><stop offset=".83" stop-color="#89908E"/><stop offset=".867" stop-color="#929A97"/><stop offset=".97" stop-color="#A8B3AE"/></linearGradient><linearGradient id="paint5_linear" x1="265.38" y1="69.188" x2="263.54" y2="66.01" gradientUnits="userSpaceOnUse"><stop offset=".01" stop-color="#7B827F"/><stop offset=".11" stop-color="#858C8A"/><stop offset=".284" stop-color="#9FA8A6"/><stop offset=".392" stop-color="#B2BDBB"/><stop offset=".393" stop-color="#B6C1BF"/><stop offset=".403" stop-color="#CCD5D3"/><stop offset=".414" stop-color="#DDE4E2"/><stop offset=".427" stop-color="#E8EFED"/><stop offset=".447" stop-color="#EFF5F3"/><stop offset=".5" stop-color="#F1F7F5"/><stop offset=".574" stop-color="#EFF5F3"/><stop offset=".6" stop-color="#E8EFED"/><stop offset=".619" stop-color="#DDE5E3"/><stop offset=".634" stop-color="#CCD6D4"/><stop offset=".646" stop-color="#B8C4C2"/><stop offset=".68" stop-color="#AFBAB8"/><stop offset=".83" stop-color="#89908E"/><stop offset=".867" stop-color="#929A97"/><stop offset=".97" stop-color="#A8B3AE"/></linearGradient><linearGradient id="paint6_linear" x1="264.177" y1="79.18" x2="253.857" y2="61.352" gradientUnits="userSpaceOnUse"><stop offset=".257" stop-color="#C9BD9B"/><stop offset=".295" stop-color="#D8CFB6"/><stop offset=".657" stop-color="#D8CFB6"/><stop offset=".684" stop-color="#E5DFCF"/></linearGradient><linearGradient id="paint7_linear" x1="206.473" y1="112.157" x2="196.153" y2="94.329" gradientUnits="userSpaceOnUse"><stop offset=".257" stop-color="#C9BD9B"/><stop offset=".295" stop-color="#D8CFB6"/><stop offset=".657" stop-color="#D8CFB6"/><stop offset=".684" stop-color="#E5DFCF"/></linearGradient><linearGradient id="paint8_linear" x1="199.104" y1="107.679" x2="196.135" y2="102.551" gradientUnits="userSpaceOnUse"><stop offset=".01" stop-color="#7B827F"/><stop offset=".11" stop-color="#858C8A"/><stop offset=".284" stop-color="#9FA8A6"/><stop offset=".392" stop-color="#B2BDBB"/><stop offset=".393" stop-color="#B6C1BF"/><stop offset=".403" stop-color="#CCD5D3"/><stop offset=".414" stop-color="#DDE4E2"/><stop offset=".427" stop-color="#E8EFED"/><stop offset=".447" stop-color="#EFF5F3"/><stop offset=".5" stop-color="#F1F7F5"/><stop offset=".574" stop-color="#EFF5F3"/><stop offset=".6" stop-color="#E8EFED"/><stop offset=".619" stop-color="#DDE5E3"/><stop offset=".634" stop-color="#CCD6D4"/><stop offset=".646" stop-color="#B8C4C2"/><stop offset=".68" stop-color="#AFBAB8"/><stop offset=".83" stop-color="#89908E"/><stop offset=".867" stop-color="#929A97"/><stop offset=".97" stop-color="#A8B3AE"/></linearGradient><linearGradient id="paint9_linear" x1="189.165" y1="112.005" x2="187.325" y2="108.827" gradientUnits="userSpaceOnUse"><stop offset=".01" stop-color="#7B827F"/><stop offset=".11" stop-color="#858C8A"/><stop offset=".284" stop-color="#9FA8A6"/><stop offset=".392" stop-color="#B2BDBB"/><stop offset=".393" stop-color="#B6C1BF"/><stop offset=".403" stop-color="#CCD5D3"/><stop offset=".414" stop-color="#DDE4E2"/><stop offset=".427" stop-color="#E8EFED"/><stop offset=".447" stop-color="#EFF5F3"/><stop offset=".5" stop-color="#F1F7F5"/><stop offset=".574" stop-color="#EFF5F3"/><stop offset=".6" stop-color="#E8EFED"/><stop offset=".619" stop-color="#DDE5E3"/><stop offset=".634" stop-color="#CCD6D4"/><stop offset=".646" stop-color="#B8C4C2"/><stop offset=".68" stop-color="#AFBAB8"/><stop offset=".83" stop-color="#89908E"/><stop offset=".867" stop-color="#929A97"/><stop offset=".97" stop-color="#A8B3AE"/></linearGradient><linearGradient id="paint10_linear" x1="265.431" y1="91.698" x2="263.591" y2="88.52" gradientUnits="userSpaceOnUse"><stop offset=".01" stop-color="#7B827F"/><stop offset=".11" stop-color="#858C8A"/><stop offset=".284" stop-color="#9FA8A6"/><stop offset=".392" stop-color="#B2BDBB"/><stop offset=".393" stop-color="#B6C1BF"/><stop offset=".403" stop-color="#CCD5D3"/><stop offset=".414" stop-color="#DDE4E2"/><stop offset=".427" stop-color="#E8EFED"/><stop offset=".447" stop-color="#EFF5F3"/><stop offset=".5" stop-color="#F1F7F5"/><stop offset=".574" stop-color="#EFF5F3"/><stop offset=".6" stop-color="#E8EFED"/><stop offset=".619" stop-color="#DDE5E3"/><stop offset=".634" stop-color="#CCD6D4"/><stop offset=".646" stop-color="#B8C4C2"/><stop offset=".68" stop-color="#AFBAB8"/><stop offset=".83" stop-color="#89908E"/><stop offset=".867" stop-color="#929A97"/><stop offset=".97" stop-color="#A8B3AE"/></linearGradient><linearGradient id="paint11_linear" x1="264.228" y1="101.691" x2="253.908" y2="83.863" gradientUnits="userSpaceOnUse"><stop offset=".257" stop-color="#C9BD9B"/><stop offset=".295" stop-color="#D8CFB6"/><stop offset=".657" stop-color="#D8CFB6"/><stop offset=".684" stop-color="#E5DFCF"/></linearGradient><linearGradient id="paint12_linear" x1="206.524" y1="134.668" x2="196.204" y2="116.84" gradientUnits="userSpaceOnUse"><stop offset=".257" stop-color="#C9BD9B"/><stop offset=".295" stop-color="#D8CFB6"/><stop offset=".657" stop-color="#D8CFB6"/><stop offset=".684" stop-color="#E5DFCF"/></linearGradient><linearGradient id="paint13_linear" x1="199.154" y1="130.19" x2="196.186" y2="125.062" gradientUnits="userSpaceOnUse"><stop offset=".01" stop-color="#7B827F"/><stop offset=".11" stop-color="#858C8A"/><stop offset=".284" stop-color="#9FA8A6"/><stop offset=".392" stop-color="#B2BDBB"/><stop offset=".393" stop-color="#B6C1BF"/><stop offset=".403" stop-color="#CCD5D3"/><stop offset=".414" stop-color="#DDE4E2"/><stop offset=".427" stop-color="#E8EFED"/><stop offset=".447" stop-color="#EFF5F3"/><stop offset=".5" stop-color="#F1F7F5"/><stop offset=".574" stop-color="#EFF5F3"/><stop offset=".6" stop-color="#E8EFED"/><stop offset=".619" stop-color="#DDE5E3"/><stop offset=".634" stop-color="#CCD6D4"/><stop offset=".646" stop-color="#B8C4C2"/><stop offset=".68" stop-color="#AFBAB8"/><stop offset=".83" stop-color="#89908E"/><stop offset=".867" stop-color="#929A97"/><stop offset=".97" stop-color="#A8B3AE"/></linearGradient><linearGradient id="paint14_linear" x1="189.216" y1="134.515" x2="187.376" y2="131.337" gradientUnits="userSpaceOnUse"><stop offset=".01" stop-color="#7B827F"/><stop offset=".11" stop-color="#858C8A"/><stop offset=".284" stop-color="#9FA8A6"/><stop offset=".392" stop-color="#B2BDBB"/><stop offset=".393" stop-color="#B6C1BF"/><stop offset=".403" stop-color="#CCD5D3"/><stop offset=".414" stop-color="#DDE4E2"/><stop offset=".427" stop-color="#E8EFED"/><stop offset=".447" stop-color="#EFF5F3"/><stop offset=".5" stop-color="#F1F7F5"/><stop offset=".574" stop-color="#EFF5F3"/><stop offset=".6" stop-color="#E8EFED"/><stop offset=".619" stop-color="#DDE5E3"/><stop offset=".634" stop-color="#CCD6D4"/><stop offset=".646" stop-color="#B8C4C2"/><stop offset=".68" stop-color="#AFBAB8"/><stop offset=".83" stop-color="#89908E"/><stop offset=".867" stop-color="#929A97"/><stop offset=".97" stop-color="#A8B3AE"/></linearGradient><linearGradient id="paint15_linear" x1="302.161" y1="68.986" x2="300.321" y2="65.808" gradientUnits="userSpaceOnUse"><stop offset=".01" stop-color="#7B827F"/><stop offset=".11" stop-color="#858C8A"/><stop offset=".284" stop-color="#9FA8A6"/><stop offset=".392" stop-color="#B2BDBB"/><stop offset=".393" stop-color="#B6C1BF"/><stop offset=".403" stop-color="#CCD5D3"/><stop offset=".414" stop-color="#DDE4E2"/><stop offset=".427" stop-color="#E8EFED"/><stop offset=".447" stop-color="#EFF5F3"/><stop offset=".5" stop-color="#F1F7F5"/><stop offset=".574" stop-color="#EFF5F3"/><stop offset=".6" stop-color="#E8EFED"/><stop offset=".619" stop-color="#DDE5E3"/><stop offset=".634" stop-color="#CCD6D4"/><stop offset=".646" stop-color="#B8C4C2"/><stop offset=".68" stop-color="#AFBAB8"/><stop offset=".83" stop-color="#89908E"/><stop offset=".867" stop-color="#929A97"/><stop offset=".97" stop-color="#A8B3AE"/></linearGradient><linearGradient id="paint16_linear" x1="300.958" y1="78.978" x2="290.638" y2="61.15" gradientUnits="userSpaceOnUse"><stop offset=".257" stop-color="#C9BD9B"/><stop offset=".295" stop-color="#D8CFB6"/><stop offset=".657" stop-color="#D8CFB6"/><stop offset=".684" stop-color="#E5DFCF"/></linearGradient><linearGradient id="paint17_linear" x1="243.254" y1="111.955" x2="232.934" y2="94.127" gradientUnits="userSpaceOnUse"><stop offset=".257" stop-color="#C9BD9B"/><stop offset=".295" stop-color="#D8CFB6"/><stop offset=".657" stop-color="#D8CFB6"/><stop offset=".684" stop-color="#E5DFCF"/></linearGradient><linearGradient id="paint18_linear" x1="235.884" y1="107.477" x2="232.916" y2="102.35" gradientUnits="userSpaceOnUse"><stop offset=".01" stop-color="#7B827F"/><stop offset=".11" stop-color="#858C8A"/><stop offset=".284" stop-color="#9FA8A6"/><stop offset=".392" stop-color="#B2BDBB"/><stop offset=".393" stop-color="#B6C1BF"/><stop offset=".403" stop-color="#CCD5D3"/><stop offset=".414" stop-color="#DDE4E2"/><stop offset=".427" stop-color="#E8EFED"/><stop offset=".447" stop-color="#EFF5F3"/><stop offset=".5" stop-color="#F1F7F5"/><stop offset=".574" stop-color="#EFF5F3"/><stop offset=".6" stop-color="#E8EFED"/><stop offset=".619" stop-color="#DDE5E3"/><stop offset=".634" stop-color="#CCD6D4"/><stop offset=".646" stop-color="#B8C4C2"/><stop offset=".68" stop-color="#AFBAB8"/><stop offset=".83" stop-color="#89908E"/><stop offset=".867" stop-color="#929A97"/><stop offset=".97" stop-color="#A8B3AE"/></linearGradient><linearGradient id="paint19_linear" x1="225.946" y1="111.803" x2="224.106" y2="108.625" gradientUnits="userSpaceOnUse"><stop offset=".01" stop-color="#7B827F"/><stop offset=".11" stop-color="#858C8A"/><stop offset=".284" stop-color="#9FA8A6"/><stop offset=".392" stop-color="#B2BDBB"/><stop offset=".393" stop-color="#B6C1BF"/><stop offset=".403" stop-color="#CCD5D3"/><stop offset=".414" stop-color="#DDE4E2"/><stop offset=".427" stop-color="#E8EFED"/><stop offset=".447" stop-color="#EFF5F3"/><stop offset=".5" stop-color="#F1F7F5"/><stop offset=".574" stop-color="#EFF5F3"/><stop offset=".6" stop-color="#E8EFED"/><stop offset=".619" stop-color="#DDE5E3"/><stop offset=".634" stop-color="#CCD6D4"/><stop offset=".646" stop-color="#B8C4C2"/><stop offset=".68" stop-color="#AFBAB8"/><stop offset=".83" stop-color="#89908E"/><stop offset=".867" stop-color="#929A97"/><stop offset=".97" stop-color="#A8B3AE"/></linearGradient><linearGradient id="paint20_linear" x1="302.161" y1="90.678" x2="300.321" y2="87.5" gradientUnits="userSpaceOnUse"><stop offset=".01" stop-color="#7B827F"/><stop offset=".11" stop-color="#858C8A"/><stop offset=".284" stop-color="#9FA8A6"/><stop offset=".392" stop-color="#B2BDBB"/><stop offset=".393" stop-color="#B6C1BF"/><stop offset=".403" stop-color="#CCD5D3"/><stop offset=".414" stop-color="#DDE4E2"/><stop offset=".427" stop-color="#E8EFED"/><stop offset=".447" stop-color="#EFF5F3"/><stop offset=".5" stop-color="#F1F7F5"/><stop offset=".574" stop-color="#EFF5F3"/><stop offset=".6" stop-color="#E8EFED"/><stop offset=".619" stop-color="#DDE5E3"/><stop offset=".634" stop-color="#CCD6D4"/><stop offset=".646" stop-color="#B8C4C2"/><stop offset=".68" stop-color="#AFBAB8"/><stop offset=".83" stop-color="#89908E"/><stop offset=".867" stop-color="#929A97"/><stop offset=".97" stop-color="#A8B3AE"/></linearGradient><linearGradient id="paint21_linear" x1="300.958" y1="100.67" x2="290.638" y2="82.842" gradientUnits="userSpaceOnUse"><stop offset=".257" stop-color="#C9BD9B"/><stop offset=".295" stop-color="#D8CFB6"/><stop offset=".657" stop-color="#D8CFB6"/><stop offset=".684" stop-color="#E5DFCF"/></linearGradient><linearGradient id="paint22_linear" x1="243.254" y1="133.647" x2="232.934" y2="115.819" gradientUnits="userSpaceOnUse"><stop offset=".257" stop-color="#C9BD9B"/><stop offset=".295" stop-color="#D8CFB6"/><stop offset=".657" stop-color="#D8CFB6"/><stop offset=".684" stop-color="#E5DFCF"/></linearGradient><linearGradient id="paint23_linear" x1="235.884" y1="129.169" x2="232.916" y2="124.041" gradientUnits="userSpaceOnUse"><stop offset=".01" stop-color="#7B827F"/><stop offset=".11" stop-color="#858C8A"/><stop offset=".284" stop-color="#9FA8A6"/><stop offset=".392" stop-color="#B2BDBB"/><stop offset=".393" stop-color="#B6C1BF"/><stop offset=".403" stop-color="#CCD5D3"/><stop offset=".414" stop-color="#DDE4E2"/><stop offset=".427" stop-color="#E8EFED"/><stop offset=".447" stop-color="#EFF5F3"/><stop offset=".5" stop-color="#F1F7F5"/><stop offset=".574" stop-color="#EFF5F3"/><stop offset=".6" stop-color="#E8EFED"/><stop offset=".619" stop-color="#DDE5E3"/><stop offset=".634" stop-color="#CCD6D4"/><stop offset=".646" stop-color="#B8C4C2"/><stop offset=".68" stop-color="#AFBAB8"/><stop offset=".83" stop-color="#89908E"/><stop offset=".867" stop-color="#929A97"/><stop offset=".97" stop-color="#A8B3AE"/></linearGradient><linearGradient id="paint24_linear" x1="225.946" y1="133.495" x2="224.106" y2="130.317" gradientUnits="userSpaceOnUse"><stop offset=".01" stop-color="#7B827F"/><stop offset=".11" stop-color="#858C8A"/><stop offset=".284" stop-color="#9FA8A6"/><stop offset=".392" stop-color="#B2BDBB"/><stop offset=".393" stop-color="#B6C1BF"/><stop offset=".403" stop-color="#CCD5D3"/><stop offset=".414" stop-color="#DDE4E2"/><stop offset=".427" stop-color="#E8EFED"/><stop offset=".447" stop-color="#EFF5F3"/><stop offset=".5" stop-color="#F1F7F5"/><stop offset=".574" stop-color="#EFF5F3"/><stop offset=".6" stop-color="#E8EFED"/><stop offset=".619" stop-color="#DDE5E3"/><stop offset=".634" stop-color="#CCD6D4"/><stop offset=".646" stop-color="#B8C4C2"/><stop offset=".68" stop-color="#AFBAB8"/><stop offset=".83" stop-color="#89908E"/><stop offset=".867" stop-color="#929A97"/><stop offset=".97" stop-color="#A8B3AE"/></linearGradient><linearGradient id="paint25_linear" x1="302.211" y1="113.188" x2="300.371" y2="110.01" gradientUnits="userSpaceOnUse"><stop offset=".01" stop-color="#7B827F"/><stop offset=".11" stop-color="#858C8A"/><stop offset=".284" stop-color="#9FA8A6"/><stop offset=".392" stop-color="#B2BDBB"/><stop offset=".393" stop-color="#B6C1BF"/><stop offset=".403" stop-color="#CCD5D3"/><stop offset=".414" stop-color="#DDE4E2"/><stop offset=".427" stop-color="#E8EFED"/><stop offset=".447" stop-color="#EFF5F3"/><stop offset=".5" stop-color="#F1F7F5"/><stop offset=".574" stop-color="#EFF5F3"/><stop offset=".6" stop-color="#E8EFED"/><stop offset=".619" stop-color="#DDE5E3"/><stop offset=".634" stop-color="#CCD6D4"/><stop offset=".646" stop-color="#B8C4C2"/><stop offset=".68" stop-color="#AFBAB8"/><stop offset=".83" stop-color="#89908E"/><stop offset=".867" stop-color="#929A97"/><stop offset=".97" stop-color="#A8B3AE"/></linearGradient><linearGradient id="paint26_linear" x1="301.009" y1="123.181" x2="290.689" y2="105.353" gradientUnits="userSpaceOnUse"><stop offset=".257" stop-color="#C9BD9B"/><stop offset=".295" stop-color="#D8CFB6"/><stop offset=".657" stop-color="#D8CFB6"/><stop offset=".684" stop-color="#E5DFCF"/></linearGradient><linearGradient id="paint27_linear" x1="243.305" y1="156.158" x2="232.985" y2="138.33" gradientUnits="userSpaceOnUse"><stop offset=".257" stop-color="#C9BD9B"/><stop offset=".295" stop-color="#D8CFB6"/><stop offset=".657" stop-color="#D8CFB6"/><stop offset=".684" stop-color="#E5DFCF"/></linearGradient><linearGradient id="paint28_linear" x1="235.935" y1="151.68" x2="232.967" y2="146.552" gradientUnits="userSpaceOnUse"><stop offset=".01" stop-color="#7B827F"/><stop offset=".11" stop-color="#858C8A"/><stop offset=".284" stop-color="#9FA8A6"/><stop offset=".392" stop-color="#B2BDBB"/><stop offset=".393" stop-color="#B6C1BF"/><stop offset=".403" stop-color="#CCD5D3"/><stop offset=".414" stop-color="#DDE4E2"/><stop offset=".427" stop-color="#E8EFED"/><stop offset=".447" stop-color="#EFF5F3"/><stop offset=".5" stop-color="#F1F7F5"/><stop offset=".574" stop-color="#EFF5F3"/><stop offset=".6" stop-color="#E8EFED"/><stop offset=".619" stop-color="#DDE5E3"/><stop offset=".634" stop-color="#CCD6D4"/><stop offset=".646" stop-color="#B8C4C2"/><stop offset=".68" stop-color="#AFBAB8"/><stop offset=".83" stop-color="#89908E"/><stop offset=".867" stop-color="#929A97"/><stop offset=".97" stop-color="#A8B3AE"/></linearGradient><linearGradient id="paint29_linear" x1="225.997" y1="156.005" x2="224.157" y2="152.827" gradientUnits="userSpaceOnUse"><stop offset=".01" stop-color="#7B827F"/><stop offset=".11" stop-color="#858C8A"/><stop offset=".284" stop-color="#9FA8A6"/><stop offset=".392" stop-color="#B2BDBB"/><stop offset=".393" stop-color="#B6C1BF"/><stop offset=".403" stop-color="#CCD5D3"/><stop offset=".414" stop-color="#DDE4E2"/><stop offset=".427" stop-color="#E8EFED"/><stop offset=".447" stop-color="#EFF5F3"/><stop offset=".5" stop-color="#F1F7F5"/><stop offset=".574" stop-color="#EFF5F3"/><stop offset=".6" stop-color="#E8EFED"/><stop offset=".619" stop-color="#DDE5E3"/><stop offset=".634" stop-color="#CCD6D4"/><stop offset=".646" stop-color="#B8C4C2"/><stop offset=".68" stop-color="#AFBAB8"/><stop offset=".83" stop-color="#89908E"/><stop offset=".867" stop-color="#929A97"/><stop offset=".97" stop-color="#A8B3AE"/></linearGradient></defs></svg>