<svg width="17" height="17" fill="none" xmlns="http://www.w3.org/2000/svg"><g clip-path="url(#clip0)"><path fill-rule="evenodd" clip-rule="evenodd" d="M13.556 3.397a7.385 7.385 0 00-5.258-2.18C4.201 1.217.867 4.552.865 8.65c0 1.31.342 2.588.992 3.716L.803 16.217l3.94-1.033a7.426 7.426 0 003.552.904h.003c4.097 0 7.431-3.334 7.433-7.432a7.387 7.387 0 00-2.175-5.259zM8.298 14.833h-.002a6.171 6.171 0 01-3.145-.861l-.225-.134-2.339.613.624-2.28-.146-.233A6.162 6.162 0 012.12 8.65 6.187 6.187 0 018.3 2.473c1.65 0 3.202.644 4.368 1.811a6.141 6.141 0 011.808 4.371 6.187 6.187 0 01-6.178 6.178zm3.389-4.627c-.186-.093-1.099-.542-1.27-.604-.17-.062-.293-.093-.417.093s-.48.604-.588.728c-.109.124-.217.14-.403.046-.185-.092-.784-.289-1.493-.921A5.602 5.602 0 016.483 8.26c-.109-.186-.001-.277.081-.379.201-.25.403-.511.464-.635.062-.124.031-.233-.015-.326-.046-.092-.418-1.007-.573-1.379-.15-.362-.304-.313-.418-.318a7.425 7.425 0 00-.356-.007.682.682 0 00-.495.233c-.17.186-.65.635-.65 1.549 0 .914.666 1.797.759 1.921.092.124 1.31 2 3.172 2.804.443.192.79.306 1.059.392.445.141.85.121 1.17.073.357-.053 1.099-.449 1.253-.883.155-.434.155-.805.109-.883-.047-.078-.17-.124-.356-.217z" fill="#0D815D"/></g><defs><clipPath id="clip0"><path fill="#fff" transform="translate(.25 .725)" d="M0 0h16v16H0z"/></clipPath></defs></svg>