<svg width="97" height="97" fill="none" xmlns="http://www.w3.org/2000/svg"><g clip-path="url(#clip0)" fill="#FFCB5A"><path d="M37.712 46.55a2.84 2.84 0 002.462 1.42h20.84a2.84 2.84 0 002.46-1.42l10.42-18.048a2.842 2.842 0 000-2.842L63.474 7.612a2.842 2.842 0 00-2.46-1.42h-20.84a2.843 2.843 0 00-2.462 1.42L27.292 25.66a2.842 2.842 0 000 2.842l10.42 18.047zm4.102-34.675h17.559l8.78 15.206-8.78 15.205H41.814l-8.78-15.205 8.78-15.206z"/><path d="M50.593 35.606c4.701 0 8.526-3.825 8.526-8.525 0-4.701-3.825-8.526-8.526-8.526s-8.525 3.825-8.525 8.526c0 4.7 3.824 8.525 8.525 8.525zm0-11.367a2.845 2.845 0 012.842 2.842 2.845 2.845 0 01-2.842 2.841 2.844 2.844 0 01-2.842-2.841 2.845 2.845 0 012.842-2.842zm-39.908 5.683h7.579a2.842 2.842 0 100-5.683h-7.579a2.842 2.842 0 100 5.683zm1.337-22.345l6.563 3.789a2.84 2.84 0 102.842-4.922l-6.563-3.79a2.842 2.842 0 00-2.842 4.923zm70.767 16.662a2.842 2.842 0 000 5.683h7.578a2.842 2.842 0 100-5.683h-7.578zM81.05 11.747c.482 0 .97-.123 1.418-.381l6.563-3.79a2.842 2.842 0 00-2.842-4.922l-6.563 3.79a2.842 2.842 0 001.424 5.303zm11.412 56.426a11.332 11.332 0 00-9.85-1.903l-18.536 5.02a9.588 9.588 0 00.551-3.209c0-5.31-4.32-9.631-9.63-9.631H42.288a13.092 13.092 0 00-10.118-4.752 13.082 13.082 0 00-8.107 2.808c-1.296-3.06-4.33-5.212-7.856-5.212H2.842A2.842 2.842 0 000 54.136v37.717a2.842 2.842 0 002.842 2.842h13.365a8.52 8.52 0 006.986-3.648 13.102 13.102 0 008.977 3.552h.787l.03.002h20.75c4.256 0 8.403-.84 12.325-2.496L95.263 79.78A2.841 2.841 0 0097 77.121a11.334 11.334 0 00-4.538-8.948zM16.207 89.01H5.684V56.977h10.523a2.845 2.845 0 012.842 2.842v6.168c-.019.286-.031.573-.031.863v14.597c0 .29.012.577.03.864v3.858a2.845 2.845 0 01-2.84 2.842zm47.645-2.142a25.87 25.87 0 01-10.115 2.048l-21.567-.001c-3.893 0-7.098-2.995-7.438-6.8V66.181c.34-3.806 3.545-6.8 7.438-6.8a7.445 7.445 0 016.29 3.445 2.84 2.84 0 002.392 1.307h14.145a3.951 3.951 0 013.947 3.947A3.951 3.951 0 0155 72.028H42.48c-.754 0-1.477.3-2.01.832l-3.024 3.025a2.841 2.841 0 004.018 4.02l2.193-2.194h18.07c.252 0 .502-.033.744-.099l21.626-5.856a5.687 5.687 0 014.943.955 5.694 5.694 0 011.966 2.696L63.852 86.869z"/></g><defs><clipPath id="clip0"><path fill="#fff" d="M0 0h97v97H0z"/></clipPath></defs></svg>