<svg width="33" height="30" fill="none" xmlns="http://www.w3.org/2000/svg"><path d="M22.168 30H10.832a5.172 5.172 0 01-4.47-2.58L.686 17.57a5.16 5.16 0 010-5.14l5.678-9.85A5.171 5.171 0 0110.833 0h11.335c1.839 0 3.552.989 4.47 2.58l5.677 9.85a5.16 5.16 0 010 5.14l-2.722 4.722a1.29 1.29 0 01-2.235-1.285l2.722-4.722a2.58 2.58 0 000-2.57l-5.678-9.85a2.585 2.585 0 00-2.234-1.29H10.832c-.92 0-1.776.495-2.235 1.29l-5.677 9.85a2.58 2.58 0 000 2.57l5.677 9.85a2.585 2.585 0 002.235 1.29h11.336c.92 0 1.776-.495 2.234-1.29a1.29 1.29 0 011.761-.474c.617.355.83 1.142.474 1.758A5.172 5.172 0 0122.167 30zm2.067-15c0-4.26-3.47-7.725-7.735-7.725-4.265 0-7.735 3.465-7.735 7.725s3.47 7.725 7.735 7.725c4.265 0 7.735-3.465 7.735-7.725zm-2.578 0a5.16 5.16 0 01-5.157 5.15A5.16 5.16 0 0111.343 15 5.16 5.16 0 0116.5 9.85 5.16 5.16 0 0121.657 15z" fill="#FFCB5A"/></svg>