<svg width="684" height="342" fill="none" xmlns="http://www.w3.org/2000/svg"><path d="M180.395 341.952c0-89.394 72.481-161.607 161.607-161.607 89.393 0 161.606 72.482 161.606 161.607" stroke="#318FF3" stroke-opacity=".07" stroke-miterlimit="10"/><path d="M165.361 341.952c0-97.447 79.193-176.64 176.641-176.64 97.447 0 176.64 79.193 176.64 176.64" stroke="#318FF3" stroke-opacity=".07" stroke-miterlimit="10"/><path d="M150.596 341.952c0-105.769 85.635-191.673 191.673-191.673 105.769 0 191.673 85.635 191.673 191.673" stroke="#318FF3" stroke-opacity=".07" stroke-miterlimit="10"/><path d="M135.562 341.952c0-114.091 92.347-206.438 206.439-206.438 114.091 0 206.706 92.347 206.706 206.438" stroke="#318FF3" stroke-opacity=".07" stroke-miterlimit="10"/><path d="M120.529 341.952c0-122.413 99.058-221.471 221.472-221.471 122.413 0 221.471 99.058 221.471 221.471" stroke="#318FF3" stroke-opacity=".07" stroke-miterlimit="10"/><path d="M105.496 341.952c0-130.735 105.769-236.504 236.505-236.504 130.466 0 236.504 105.769 236.504 236.504" stroke="#318FF3" stroke-opacity=".07" stroke-miterlimit="10"/><path d="M90.732 341.952c0-138.789 112.481-251.538 251.538-251.538 139.057 0 251.27 112.749 251.27 251.538" stroke="#318FF3" stroke-opacity=".07" stroke-miterlimit="10"/><path d="M75.7 341.952C75.7 194.841 194.89 75.65 342.001 75.65c147.11 0 266.571 119.191 266.571 266.302" stroke="#318FF3" stroke-opacity=".07" stroke-miterlimit="10"/><path d="M60.666 341.952c0-155.433 125.903-281.336 281.336-281.336 155.432 0 281.335 125.903 281.335 281.336" stroke="#318FF3" stroke-opacity=".07" stroke-miterlimit="10"/><path d="M45.633 341.952c0-163.755 132.614-296.369 296.369-296.369 163.754 0 296.369 132.614 296.369 296.369" stroke="#318FF3" stroke-opacity=".07" stroke-miterlimit="10"/><path d="M30.33 341.952c0-172.076 139.594-311.67 311.671-311.67 172.076 0 311.67 139.594 311.67 311.67M342 15.785c180.13 0 326.167 146.037 326.167 326.167m-652.333 0c0-180.13 146.037-326.167 326.167-326.167M342 .752c188.452 0 341.2 152.748 341.2 341.2m-682.4 0C.8 153.5 153.55.752 342.002.752" stroke="#318FF3" stroke-opacity=".07" stroke-miterlimit="10"/></svg>