<svg width="616" height="616" fill="none" xmlns="http://www.w3.org/2000/svg"><circle cx="307.999" cy="307.775" r="282.474" stroke="#C7E4FF" stroke-width="50"/><path d="M307.268 88.825c-2.8 2.1-5.9-1-3.8-3.8 2.8-2.1 6 1 3.8 3.8zm0 33.8c-2.8 2.1-5.9-1-3.8-3.8 2.8-2.1 6 1 3.8 3.8zm0 33.7c-2.8 2.1-5.9-1-3.8-3.8 2.8-2.1 6 1.1 3.8 3.8zm0 33.8c-2.8 2.1-5.9-1-3.8-3.8 2.8-2.1 6 1 3.8 3.8zm-33.4-101.3c-2.8 2.1-5.9-1-3.8-3.8 2.7-2.1 5.9 1 3.8 3.8zm0 33.8c-2.8 2.1-5.9-1-3.8-3.8 2.7-2.1 5.9 1 3.8 3.8zm0 33.7c-2.8 2.1-5.9-1-3.8-3.8 2.7-2.1 5.9 1.1 3.8 3.8zm0 33.8c-2.8 2.1-5.9-1-3.8-3.8 2.7-2.1 5.9 1 3.8 3.8zm-30.598-101.3c-2.8 2.1-5.9-1-3.8-3.8 2.8-2.1 5.9 1 3.8 3.8zm0 33.8c-2.8 2.1-5.9-1-3.8-3.8 2.8-2.1 5.9 1 3.8 3.8zm0 33.7c-2.8 2.1-5.9-1-3.8-3.8 2.8-2.1 5.9 1.1 3.8 3.8zm0 33.8c-2.8 2.1-5.9-1-3.8-3.8 2.8-2.1 5.9 1 3.8 3.8zm-33.5-101.3c-2.8 2.1-5.9-1-3.8-3.8 2.8-2.1 5.9 1 3.8 3.8zm-100.312 0c-2.8 2.1-5.9-1-3.8-3.8 2.8-2.1 5.9 1 3.8 3.8zm100.312 33.8c-2.8 2.1-5.9-1-3.8-3.8 2.8-2.1 5.9 1 3.8 3.8zm-100.312 0c-2.8 2.1-5.9-1-3.8-3.8 2.8-2.1 5.9 1 3.8 3.8zm100.312 33.7c-2.8 2.1-5.9-1-3.8-3.8 2.8-2.1 5.9 1.1 3.8 3.8zm-100.312 0c-2.8 2.1-5.9-1-3.8-3.8 2.8-2.1 5.9 1.1 3.8 3.8zm100.312 33.8c-2.8 2.1-5.9-1-3.8-3.8 2.8-2.1 5.9 1 3.8 3.8zm-100.312 0c-2.8 2.1-5.9-1-3.8-3.8 2.8-2.1 5.9 1 3.8 3.8zm66.81-101.3c-2.8 2.1-5.9-1-3.8-3.8 2.8-2.1 6 1 3.8 3.8zm0 33.8c-2.8 2.1-5.9-1-3.8-3.8 2.8-2.1 6 1 3.8 3.8zm-100.308 0c-2.8 2.1-5.9-1-3.8-3.8 2.8-2.1 6 1 3.8 3.8zm0-33.8c-2.8 2.1-5.9-1-3.8-3.8 2.8-2.1 6 1 3.8 3.8zm100.308 67.5c-2.8 2.1-5.9-1-3.8-3.8 2.8-2.1 6 1.1 3.8 3.8zm-100.308 0c-2.8 2.1-5.9-1-3.8-3.8 2.8-2.1 6 1.1 3.8 3.8zm100.308 33.8c-2.8 2.1-5.9-1-3.8-3.8 2.8-2.1 6 1 3.8 3.8zm-100.308 0c-2.8 2.1-5.9-1-3.8-3.8 2.8-2.1 6 1 3.8 3.8zm66.912-101.3c-2.8 2.1-5.9-1-3.8-3.8 2.7-2.1 5.9 1 3.8 3.8zm-100.312 0c-2.8 2.1-5.9-1-3.8-3.8 2.7-2.1 5.9 1 3.8 3.8zm100.312 33.8c-2.8 2.1-5.9-1-3.8-3.8 2.7-2.1 5.9 1 3.8 3.8zm-100.312 0c-2.8 2.1-5.9-1-3.8-3.8 2.7-2.1 5.9 1 3.8 3.8zm100.312 33.7c-2.8 2.1-5.9-1-3.8-3.8 2.7-2.1 5.9 1.1 3.8 3.8zm-100.312 0c-2.8 2.1-5.9-1-3.8-3.8 2.7-2.1 5.9 1.1 3.8 3.8zm100.312 33.8c-2.8 2.1-5.9-1-3.8-3.8 2.7-2.1 5.9 1 3.8 3.8zm-100.312 0c-2.8 2.1-5.9-1-3.8-3.8 2.7-2.1 5.9 1 3.8 3.8zm264.708 36.603c-2.8 2.1-5.9-1-3.8-3.8 2.8-2.1 6 1 3.8 3.8zm0 33.8c-2.8 2.1-5.9-1-3.8-3.8 2.8-2.1 6 1 3.8 3.8zm0 33.7c-2.8 2.1-5.9-1-3.8-3.8 2.8-2.1 6 1.1 3.8 3.8zm0 33.8c-2.8 2.1-5.9-1-3.8-3.8 2.8-2.1 6 1 3.8 3.8zm-33.4-101.3c-2.8 2.1-5.9-1-3.8-3.8 2.7-2.1 5.9 1 3.8 3.8zm0 33.8c-2.8 2.1-5.9-1-3.8-3.8 2.7-2.1 5.9 1 3.8 3.8zm0 33.7c-2.8 2.1-5.9-1-3.8-3.8 2.7-2.1 5.9 1.1 3.8 3.8zm0 33.8c-2.8 2.1-5.9-1-3.8-3.8 2.7-2.1 5.9 1 3.8 3.8zm-30.598-101.3c-2.8 2.1-5.9-1-3.8-3.8 2.8-2.1 5.9 1 3.8 3.8zm0 33.8c-2.8 2.1-5.9-1-3.8-3.8 2.8-2.1 5.9 1 3.8 3.8zm0 33.7c-2.8 2.1-5.9-1-3.8-3.8 2.8-2.1 5.9 1.1 3.8 3.8zm0 33.8c-2.8 2.1-5.9-1-3.8-3.8 2.8-2.1 5.9 1 3.8 3.8zm-33.5-101.3c-2.8 2.1-5.9-1-3.8-3.8 2.8-2.1 5.9 1 3.8 3.8zm-100.312 0c-2.8 2.1-5.9-1-3.8-3.8 2.8-2.1 5.9 1 3.8 3.8zm100.312 33.8c-2.8 2.1-5.9-1-3.8-3.8 2.8-2.1 5.9 1 3.8 3.8zm-100.312 0c-2.8 2.1-5.9-1-3.8-3.8 2.8-2.1 5.9 1 3.8 3.8zm100.312 33.7c-2.8 2.1-5.9-1-3.8-3.8 2.8-2.1 5.9 1.1 3.8 3.8zm-100.312 0c-2.8 2.1-5.9-1-3.8-3.8 2.8-2.1 5.9 1.1 3.8 3.8zm100.312 33.8c-2.8 2.1-5.9-1-3.8-3.8 2.8-2.1 5.9 1 3.8 3.8zm-100.312 0c-2.8 2.1-5.9-1-3.8-3.8 2.8-2.1 5.9 1 3.8 3.8zm66.81-101.3c-2.8 2.1-5.9-1-3.8-3.8 2.8-2.1 6 1 3.8 3.8zm-100.308 0c-2.8 2.1-5.9-1-3.8-3.8 2.8-2.1 6 1 3.8 3.8zm100.308 33.8c-2.8 2.1-5.9-1-3.8-3.8 2.8-2.1 6 1 3.8 3.8zm-100.308 0c-2.8 2.1-5.9-1-3.8-3.8 2.8-2.1 6 1 3.8 3.8zm100.308 33.699c-2.8 2.1-5.9-1-3.8-3.8 2.8-2.1 6 1.1 3.8 3.8zm-100.308 0c-2.8 2.1-5.9-1-3.8-3.8 2.8-2.1 6 1.1 3.8 3.8zm100.308 33.801c-2.8 2.1-5.9-1-3.8-3.8 2.8-2.1 6 1 3.8 3.8zm-100.308 0c-2.8 2.1-5.9-1-3.8-3.8 2.8-2.1 6 1 3.8 3.8zm66.912-101.3c-2.8 2.1-5.9-1-3.8-3.8 2.7-2.1 5.9 1 3.8 3.8zm-100.312 0c-2.8 2.1-5.9-1-3.8-3.8 2.7-2.1 5.9 1 3.8 3.8zm100.312 33.8c-2.8 2.1-5.9-1-3.8-3.8 2.7-2.1 5.9 1 3.8 3.8zm-100.312 0c-2.8 2.1-5.9-1-3.8-3.8 2.7-2.1 5.9 1 3.8 3.8zm100.312 33.699c-2.8 2.1-5.9-1-3.8-3.8 2.7-2.1 5.9 1.1 3.8 3.8zm-100.312 0c-2.8 2.1-5.9-1-3.8-3.8 2.7-2.1 5.9 1.1 3.8 3.8zm100.312 33.801c-2.8 2.1-5.9-1-3.8-3.8 2.7-2.1 5.9 1 3.8 3.8zm-100.312 0c-2.8 2.1-5.9-1-3.8-3.8 2.7-2.1 5.9 1 3.8 3.8zm264.708 36.602c-2.8 2.1-5.9-1-3.8-3.8 2.8-2.1 6 1 3.8 3.8zm0 33.8c-2.8 2.1-5.9-1-3.8-3.8 2.8-2.1 6 1 3.8 3.8zm0 33.7c-2.8 2.1-5.9-1-3.8-3.8 2.8-2.1 6 1.1 3.8 3.8zm0 33.8c-2.8 2.1-5.9-1-3.8-3.8 2.8-2.1 6 1 3.8 3.8zm-33.4-101.3c-2.8 2.1-5.9-1-3.8-3.8 2.7-2.1 5.9 1 3.8 3.8zm0 33.8c-2.8 2.1-5.9-1-3.8-3.8 2.7-2.1 5.9 1 3.8 3.8zm0 33.7c-2.8 2.1-5.9-1-3.8-3.8 2.7-2.1 5.9 1.1 3.8 3.8zm0 33.8c-2.8 2.1-5.9-1-3.8-3.8 2.7-2.1 5.9 1 3.8 3.8zm-30.598-101.3c-2.8 2.1-5.9-1-3.8-3.8 2.8-2.1 5.9 1 3.8 3.8zm0 33.8c-2.8 2.1-5.9-1-3.8-3.8 2.8-2.1 5.9 1 3.8 3.8zm0 33.7c-2.8 2.1-5.9-1-3.8-3.8 2.8-2.1 5.9 1.1 3.8 3.8zm0 33.8c-2.8 2.1-5.9-1-3.8-3.8 2.8-2.1 5.9 1 3.8 3.8zm-33.5-101.3c-2.8 2.1-5.9-1-3.8-3.8 2.8-2.1 5.9 1 3.8 3.8zm-100.312 0c-2.8 2.1-5.9-1-3.8-3.8 2.8-2.1 5.9 1 3.8 3.8zm100.312 33.8c-2.8 2.1-5.9-1-3.8-3.8 2.8-2.1 5.9 1 3.8 3.8zm-100.312 0c-2.8 2.1-5.9-1-3.8-3.8 2.8-2.1 5.9 1 3.8 3.8zm100.312 33.7c-2.8 2.1-5.9-1-3.8-3.8 2.8-2.1 5.9 1.1 3.8 3.8zm-100.312 0c-2.8 2.1-5.9-1-3.8-3.8 2.8-2.1 5.9 1.1 3.8 3.8zm100.312 33.8c-2.8 2.1-5.9-1-3.8-3.8 2.8-2.1 5.9 1 3.8 3.8zm-100.312 0c-2.8 2.1-5.9-1-3.8-3.8 2.8-2.1 5.9 1 3.8 3.8zm66.81-101.3c-2.8 2.1-5.9-1-3.8-3.8 2.8-2.1 6 1 3.8 3.8zm-100.308 0c-2.8 2.1-5.9-1-3.8-3.8 2.8-2.1 6 1 3.8 3.8zm0 33.8c-2.8 2.1-5.9-1-3.8-3.8 2.8-2.1 6 1 3.8 3.8zm0 33.7c-2.8 2.1-5.9-1-3.8-3.8 2.8-2.1 6 1.1 3.8 3.8zm0 33.8c-2.8 2.1-5.9-1-3.8-3.8 2.8-2.1 6 1 3.8 3.8zm66.912-101.3c-2.8 2.1-5.9-1-3.8-3.8 2.7-2.1 5.9 1 3.8 3.8zm-100.312 0c-2.8 2.1-5.9-1-3.8-3.8 2.7-2.1 5.9 1 3.8 3.8zm100.312 33.8c-2.8 2.1-5.9-1-3.8-3.8 2.7-2.1 5.9 1 3.8 3.8zm-100.312 0c-2.8 2.1-5.9-1-3.8-3.8 2.7-2.1 5.9 1 3.8 3.8zm100.312 33.7c-2.8 2.1-5.9-1-3.8-3.8 2.7-2.1 5.9 1.1 3.8 3.8zm-100.312 0c-2.8 2.1-5.9-1-3.8-3.8 2.7-2.1 5.9 1.1 3.8 3.8zm100.312 33.8c-2.8 2.1-5.9-1-3.8-3.8 2.7-2.1 5.9 1 3.8 3.8zm-100.312 0c-2.8 2.1-5.9-1-3.8-3.8 2.7-2.1 5.9 1 3.8 3.8zm264.708 36.602c-2.8 2.1-5.9-1-3.8-3.8 2.8-2.1 6 1 3.8 3.8zm-33.4 0c-2.8 2.1-5.9-1-3.8-3.8 2.7-2.1 5.9 1 3.8 3.8zm-30.598 0c-2.8 2.1-5.9-1-3.8-3.8 2.8-2.1 5.9 1 3.8 3.8zm-33.5 0c-2.8 2.1-5.9-1-3.8-3.8 2.8-2.1 5.9 1 3.8 3.8zm-100.312 0c-2.8 2.1-5.9-1-3.8-3.8 2.8-2.1 5.9 1 3.8 3.8zm66.81 0c-2.8 2.1-5.9-1-3.8-3.8 2.8-2.1 6 1 3.8 3.8zm-100.308 0c-2.8 2.1-5.9-1-3.8-3.8 2.8-2.1 6 1 3.8 3.8zm66.912 0c-2.8 2.1-5.9-1-3.8-3.8 2.7-2.1 5.9 1 3.8 3.8zm-100.312 0c-2.8 2.1-5.9-1-3.8-3.8 2.7-2.1 5.9 1 3.8 3.8zM574.278 88.825c-2.8 2.1-5.9-1-3.8-3.8 2.7-2.1 5.9 1 3.8 3.8zm0 33.8c-2.8 2.1-5.9-1-3.8-3.8 2.7-2.1 5.9 1 3.8 3.8zm0 33.7c-2.8 2.1-5.9-1-3.8-3.8 2.7-2.1 5.9 1.1 3.8 3.8zm0 33.8c-2.8 2.1-5.9-1-3.8-3.8 2.7-2.1 5.9 1 3.8 3.8zm-30.601-67.5c-2.8 2.1-5.9-1-3.8-3.8 2.8-2.1 5.9 1 3.8 3.8zm0-33.712c-2.8 2.1-5.9-1-3.8-3.8 2.8-2.1 5.9 1 3.8 3.8zm0 67.412c-2.8 2.1-5.9-1-3.8-3.8 2.8-2.1 5.9 1.1 3.8 3.8zm0 33.8c-2.8 2.1-5.9-1-3.8-3.8 2.8-2.1 5.9 1 3.8 3.8zm-33.5-101.3c-2.8 2.1-5.9-1-3.8-3.8 2.8-2.1 5.9 1 3.8 3.8zm-100.313 0c-2.8 2.1-5.9-1-3.8-3.8 2.8-2.1 5.9 1 3.8 3.8zm100.313 33.8c-2.8 2.1-5.9-1-3.8-3.8 2.8-2.1 5.9 1 3.8 3.8zm-100.313 0c-2.8 2.1-5.9-1-3.8-3.8 2.8-2.1 5.9 1 3.8 3.8zm100.313 33.7c-2.8 2.1-5.9-1-3.8-3.8 2.8-2.1 5.9 1.1 3.8 3.8zm-100.313 0c-2.8 2.1-5.9-1-3.8-3.8 2.8-2.1 5.9 1.1 3.8 3.8zm100.313 33.8c-2.8 2.1-5.9-1-3.8-3.8 2.8-2.1 5.9 1 3.8 3.8zm-100.313 0c-2.8 2.1-5.9-1-3.8-3.8 2.8-2.1 5.9 1 3.8 3.8zm66.811-101.3c-2.8 2.1-5.9-1-3.8-3.8 2.8-2.1 6 1 3.8 3.8zm-100.309 0c-2.8 2.1-5.9-1-3.8-3.8 2.8-2.1 6 1 3.8 3.8zm100.309 33.8c-2.8 2.1-5.9-1-3.8-3.8 2.8-2.1 6 1 3.8 3.8zm-100.309 0c-2.8 2.1-5.9-1-3.8-3.8 2.8-2.1 6 1 3.8 3.8zm100.309 33.7c-2.8 2.1-5.9-1-3.8-3.8 2.8-2.1 6 1.1 3.8 3.8zm-100.309 0c-2.8 2.1-5.9-1-3.8-3.8 2.8-2.1 6 1.1 3.8 3.8zm100.309 33.8c-2.8 2.1-5.9-1-3.8-3.8 2.8-2.1 6 1 3.8 3.8zm-100.309 0c-2.8 2.1-5.9-1-3.8-3.8 2.8-2.1 6 1 3.8 3.8zm66.912-101.3c-2.8 2.1-5.9-1-3.8-3.8 2.7-2.1 5.9 1 3.8 3.8zm-100.312 0c-2.8 2.1-5.9-1-3.8-3.8 2.7-2.1 5.9 1 3.8 3.8zm100.312 33.8c-2.8 2.1-5.9-1-3.8-3.8 2.7-2.1 5.9 1 3.8 3.8zm-100.312 0c-2.8 2.1-5.9-1-3.8-3.8 2.7-2.1 5.9 1 3.8 3.8zm100.312 33.7c-2.8 2.1-5.9-1-3.8-3.8 2.7-2.1 5.9 1.1 3.8 3.8zm-100.312 0c-2.8 2.1-5.9-1-3.8-3.8 2.7-2.1 5.9 1.1 3.8 3.8zm100.312 33.8c-2.8 2.1-5.9-1-3.8-3.8 2.7-2.1 5.9 1 3.8 3.8zm-100.312 0c-2.8 2.1-5.9-1-3.8-3.8 2.7-2.1 5.9 1 3.8 3.8zm243.312 36.603c-2.8 2.1-5.9-1-3.8-3.8 2.7-2.1 5.9 1 3.8 3.8zm0 33.8c-2.8 2.1-5.9-1-3.8-3.8 2.7-2.1 5.9 1 3.8 3.8zm0 33.7c-2.8 2.1-5.9-1-3.8-3.8 2.7-2.1 5.9 1.1 3.8 3.8zm0 33.8c-2.8 2.1-5.9-1-3.8-3.8 2.7-2.1 5.9 1 3.8 3.8zm-30.601-101.3c-2.8 2.1-5.9-1-3.8-3.8 2.8-2.1 5.9 1 3.8 3.8zm0 33.8c-2.8 2.1-5.9-1-3.8-3.8 2.8-2.1 5.9 1 3.8 3.8zm0 33.7c-2.8 2.1-5.9-1-3.8-3.8 2.8-2.1 5.9 1.1 3.8 3.8zm0 33.8c-2.8 2.1-5.9-1-3.8-3.8 2.8-2.1 5.9 1 3.8 3.8zm-33.5-101.3c-2.8 2.1-5.9-1-3.8-3.8 2.8-2.1 5.9 1 3.8 3.8zm-100.313 0c-2.8 2.1-5.9-1-3.8-3.8 2.8-2.1 5.9 1 3.8 3.8zm100.313 33.8c-2.8 2.1-5.9-1-3.8-3.8 2.8-2.1 5.9 1 3.8 3.8zm-100.313 0c-2.8 2.1-5.9-1-3.8-3.8 2.8-2.1 5.9 1 3.8 3.8zm100.313 33.7c-2.8 2.1-5.9-1-3.8-3.8 2.8-2.1 5.9 1.1 3.8 3.8zm-100.313 0c-2.8 2.1-5.9-1-3.8-3.8 2.8-2.1 5.9 1.1 3.8 3.8zm100.313 33.8c-2.8 2.1-5.9-1-3.8-3.8 2.8-2.1 5.9 1 3.8 3.8zm-100.313 0c-2.8 2.1-5.9-1-3.8-3.8 2.8-2.1 5.9 1 3.8 3.8zm66.811-101.3c-2.8 2.1-5.9-1-3.8-3.8 2.8-2.1 6 1 3.8 3.8zm-100.309 0c-2.8 2.1-5.9-1-3.8-3.8 2.8-2.1 6 1 3.8 3.8zm100.309 33.8c-2.8 2.1-5.9-1-3.8-3.8 2.8-2.1 6 1 3.8 3.8zm-100.309 0c-2.8 2.1-5.9-1-3.8-3.8 2.8-2.1 6 1 3.8 3.8zm100.309 33.699c-2.8 2.1-5.9-1-3.8-3.8 2.8-2.1 6 1.1 3.8 3.8zm-100.309 0c-2.8 2.1-5.9-1-3.8-3.8 2.8-2.1 6 1.1 3.8 3.8zm100.309 33.801c-2.8 2.1-5.9-1-3.8-3.8 2.8-2.1 6 1 3.8 3.8zm-100.309 0c-2.8 2.1-5.9-1-3.8-3.8 2.8-2.1 6 1 3.8 3.8zm66.912-101.3c-2.8 2.1-5.9-1-3.8-3.8 2.7-2.1 5.9 1 3.8 3.8zm-100.312 0c-2.8 2.1-5.9-1-3.8-3.8 2.7-2.1 5.9 1 3.8 3.8zm100.312 33.8c-2.8 2.1-5.9-1-3.8-3.8 2.7-2.1 5.9 1 3.8 3.8zm-100.312 0c-2.8 2.1-5.9-1-3.8-3.8 2.7-2.1 5.9 1 3.8 3.8zm100.312 33.699c-2.8 2.1-5.9-1-3.8-3.8 2.7-2.1 5.9 1.1 3.8 3.8zm-100.312 0c-2.8 2.1-5.9-1-3.8-3.8 2.7-2.1 5.9 1.1 3.8 3.8zm100.312 33.801c-2.8 2.1-5.9-1-3.8-3.8 2.7-2.1 5.9 1 3.8 3.8zm-100.312 0c-2.8 2.1-5.9-1-3.8-3.8 2.7-2.1 5.9 1 3.8 3.8zm219.312 36.602c-2.8 2.1-5.9-1-3.8-3.8 2.7-2.1 5.9 1 3.8 3.8zm0 33.8c-2.8 2.1-5.9-1-3.8-3.8 2.7-2.1 5.9 1 3.8 3.8zm0 33.7c-2.8 2.1-5.9-1-3.8-3.8 2.7-2.1 5.9 1.1 3.8 3.8zm0 33.8c-2.8 2.1-5.9-1-3.8-3.8 2.7-2.1 5.9 1 3.8 3.8zm-30.601-101.3c-2.8 2.1-5.9-1-3.8-3.8 2.8-2.1 5.9 1 3.8 3.8zm0 33.8c-2.8 2.1-5.9-1-3.8-3.8 2.8-2.1 5.9 1 3.8 3.8zm0 33.7c-2.8 2.1-5.9-1-3.8-3.8 2.8-2.1 5.9 1.1 3.8 3.8zm0 33.8c-2.8 2.1-5.9-1-3.8-3.8 2.8-2.1 5.9 1 3.8 3.8zm-33.5-101.3c-2.8 2.1-5.9-1-3.8-3.8 2.8-2.1 5.9 1 3.8 3.8zm-100.313 0c-2.8 2.1-5.9-1-3.8-3.8 2.8-2.1 5.9 1 3.8 3.8zm100.313 33.8c-2.8 2.1-5.9-1-3.8-3.8 2.8-2.1 5.9 1 3.8 3.8zm-100.313 0c-2.8 2.1-5.9-1-3.8-3.8 2.8-2.1 5.9 1 3.8 3.8zm100.313 33.7c-2.8 2.1-5.9-1-3.8-3.8 2.8-2.1 5.9 1.1 3.8 3.8zm-100.313 0c-2.8 2.1-5.9-1-3.8-3.8 2.8-2.1 5.9 1.1 3.8 3.8zm100.313 33.8c-2.8 2.1-5.9-1-3.8-3.8 2.8-2.1 5.9 1 3.8 3.8zm-100.313 0c-2.8 2.1-5.9-1-3.8-3.8 2.8-2.1 5.9 1 3.8 3.8zm66.811-101.3c-2.8 2.1-5.9-1-3.8-3.8 2.8-2.1 6 1 3.8 3.8zm-100.309 0c-2.8 2.1-5.9-1-3.8-3.8 2.8-2.1 6 1 3.8 3.8zm100.309 33.8c-2.8 2.1-5.9-1-3.8-3.8 2.8-2.1 6 1 3.8 3.8zm-100.309 0c-2.8 2.1-5.9-1-3.8-3.8 2.8-2.1 6 1 3.8 3.8zm100.309 33.7c-2.8 2.1-5.9-1-3.8-3.8 2.8-2.1 6 1.1 3.8 3.8zm-100.309 0c-2.8 2.1-5.9-1-3.8-3.8 2.8-2.1 6 1.1 3.8 3.8zm100.309 33.8c-2.8 2.1-5.9-1-3.8-3.8 2.8-2.1 6 1 3.8 3.8zm-100.309 0c-2.8 2.1-5.9-1-3.8-3.8 2.8-2.1 6 1 3.8 3.8zm66.912-101.3c-2.8 2.1-5.9-1-3.8-3.8 2.7-2.1 5.9 1 3.8 3.8zm-100.312 0c-2.8 2.1-5.9-1-3.8-3.8 2.7-2.1 5.9 1 3.8 3.8zm100.312 33.8c-2.8 2.1-5.9-1-3.8-3.8 2.7-2.1 5.9 1 3.8 3.8zm-100.312 0c-2.8 2.1-5.9-1-3.8-3.8 2.7-2.1 5.9 1 3.8 3.8zm100.312 33.7c-2.8 2.1-5.9-1-3.8-3.8 2.7-2.1 5.9 1.1 3.8 3.8zm-100.312 0c-2.8 2.1-5.9-1-3.8-3.8 2.7-2.1 5.9 1.1 3.8 3.8zm100.312 33.8c-2.8 2.1-5.9-1-3.8-3.8 2.7-2.1 5.9 1 3.8 3.8zm-100.312 0c-2.8 2.1-5.9-1-3.8-3.8 2.7-2.1 5.9 1 3.8 3.8zm231.312 36.602c-2.8 2.1-5.9-1-3.8-3.8 2.7-2.1 5.9 1 3.8 3.8zm-30.601 0c-2.8 2.1-5.9-1-3.8-3.8 2.8-2.1 5.9 1 3.8 3.8zm-33.5 0c-2.8 2.1-5.9-1-3.8-3.8 2.8-2.1 5.9 1 3.8 3.8zm-100.313 0c-2.8 2.1-5.9-1-3.8-3.8 2.8-2.1 5.9 1 3.8 3.8zm66.811 0c-2.8 2.1-5.9-1-3.8-3.8 2.8-2.1 6 1 3.8 3.8zm-100.309 0c-2.8 2.1-5.9-1-3.8-3.8 2.8-2.1 6 1 3.8 3.8zm66.912 0c-2.8 2.1-5.9-1-3.8-3.8 2.7-2.1 5.9 1 3.8 3.8zm-100.312 0c-2.8 2.1-5.9-1-3.8-3.8 2.7-2.1 5.9 1 3.8 3.8z" fill="#D4D4D4"/></svg>