<svg width="20" height="20" fill="none" xmlns="http://www.w3.org/2000/svg"><path d="M6.742 15.088c-1.067 0-1.93.888-1.93 1.981s.863 1.981 1.93 1.981 1.93-.888 1.93-1.98c0-1.094-.863-1.982-1.93-1.982zm0 3.004c-.548 0-.994-.457-.994-1.023 0-.566.446-1.023.994-1.023s.994.457.994 1.023c0 .566-.446 1.023-.994 1.023zm7.934-3.004c-1.067 0-1.93.888-1.93 1.981s.863 1.981 1.93 1.981 1.93-.888 1.93-1.98c0-1.094-.863-1.982-1.93-1.982zm0 3.004c-.548 0-.994-.457-.994-1.023 0-.566.446-1.023.994-1.023s.994.457.994 1.023c0 .566-.446 1.023-.994 1.023zm4.277-14.249h0c.095.114.122.27.073.41l-1.002 4.31.93-4.72zm0 0v-.001m0 0h0m0 0a.567.567 0 00-.367-.188h0m.366.188l-.366-.189m0 0h-.005m.005 0h-.005m0 0L5.025 3.461 4.66 2.315h0m13.92 1.338L4.66 2.315m0 0h0m0 0h0m0 0A1.976 1.976 0 002.817.95v0M4.66 2.314L2.817.95m0 0h0m0 0h0m0 0h-1.4a.473.473 0 00-.467.48c0 .262.208.478.468.478h1.398a1.04 1.04 0 01.955.717l2.646 8.199-.201.476h0M2.816.95l3.4 10.35m0 0l-.001.002m0-.002v.002m0 0a2.158 2.158 0 00.192 1.91v.001m-.192-1.911l.192 1.911m0 0a1.98 1.98 0 001.607.924h0m-1.607-.924l1.607.924m0 0h.002m-.002 0h.002m0 0h8.122c.26 0 .467-.216.467-.479a.473.473 0 00-.467-.479H8.016a1.01 1.01 0 01-.835-.49h0m.835 1.448l-.835-1.449m0 0a1.158 1.158 0 01-.1-.985l.155-.358 8.761-.941h0m-8.816 2.284l8.816-2.284m0 0c.988-.112 1.799-.85 2.027-1.84l-2.027 1.84zm1.115-2.057v.001a1.383 1.383 0 01-1.229 1.098h0-.001l-8.646.918L5.328 4.42l12.668.192-.884 3.736z" fill="#fff" stroke="#fff" stroke-width=".1"/></svg>