<svg width="23" height="21" fill="none" xmlns="http://www.w3.org/2000/svg"><path d="M8.596 4.903c.06.314.38.561.758.493a.629.629 0 00.506-.738.645.645 0 00-.819-.478.626.626 0 00-.445.723z" fill="#D2374A"/><path d="M22.482 13.668c-3.507-9.94-3.266-9.259-3.281-9.293a3.26 3.26 0 00-1.944-1.754C17.132 2.579 10.073.97 9.869.902c-.626-.21-1.495-.093-2.106.454l-6.05 5.42a3.2 3.2 0 00-1.07 2.379v9.597c0 1.132.94 2.052 2.096 2.052h12.943c1.155 0 2.095-.92 2.095-2.052v-.927l3.608-1.503c1.049-.442 1.537-1.628 1.097-2.654zm-6.8 5.88H2.739a.802.802 0 01-.806-.796V9.155c0-.553.238-1.083.654-1.456 5.183-4.643 1.979-1.747 6.07-5.42a.834.834 0 01.8-.182c.261.075-.2-.29 6.377 5.603.416.372.654.902.654 1.455v9.597a.802.802 0 01-.806.797zm5.193-4.38l-3.098 1.291V9.155a3.2 3.2 0 00-1.07-2.38L12.202 2.74l4.662 1.077c.51.179.924.554 1.144 1.035 3.5 9.921 3.265 9.255 3.28 9.29a.774.774 0 01-.413 1.027z" fill="#D2374A"/><path d="M11.04 8.557a.651.651 0 00-.843.336l-3.138 7.281c-.179.416.137.871.594.871a.645.645 0 00.595-.385l3.138-7.281a.622.622 0 00-.345-.822zm-3.02 1.809c0-1.212-.911-2.197-2.031-2.197s-2.031.985-2.031 2.197c0 1.21.91 2.196 2.03 2.196 1.12 0 2.032-.985 2.032-2.196zm-2.031.941c-.402 0-.742-.431-.742-.941s.34-.942.742-.942c.402 0 .742.431.742.942 0 .51-.34.941-.742.941zm6.503 1.84c-1.12 0-2.03.986-2.03 2.197s.91 2.197 2.03 2.197c1.12 0 2.032-.986 2.032-2.197s-.912-2.197-2.031-2.197zm0 3.138c-.402 0-.741-.43-.741-.941 0-.51.34-.941.742-.941.402 0 .742.43.742.941 0 .51-.34.941-.742.941z" fill="#D2374A"/></svg>