<svg width="31" height="31" fill="none" xmlns="http://www.w3.org/2000/svg"><path d="M9.46 12.805l18.31-.016c1.227-.001 2.25 1.013 2.25 2.23.002 1.219-1.02 2.234-2.245 2.236l-18.352.015c-1.226.002-2.249-1.012-2.25-2.23.04-1.259 1.02-2.234 2.287-2.235zM17.377.011L27.76.002c1.226-.001 2.249 1.013 2.25 2.23 0 1.219-1.02 2.234-2.246 2.235l-10.382.01c-1.226 0-2.248-1.013-2.25-2.231 0-1.218 1.02-2.234 2.246-2.235zM2.32 25.559l25.462-.023c1.227 0 2.25 1.013 2.25 2.231.001 1.218-1.02 2.234-2.246 2.235l-25.504.022c-1.226.001-2.249-1.013-2.25-2.23.04-1.219 1.02-2.234 2.287-2.235z" fill="#D2374A"/></svg>