<svg width="27" height="28" fill="none" xmlns="http://www.w3.org/2000/svg"><path d="M2.269 9.57h8.666c.951 0 1.725-.773 1.725-1.725V2.43c0-.951-.774-1.725-1.725-1.725H2.27C1.318.705.545 1.479.545 2.43v5.416c0 .952.773 1.725 1.725 1.725zm-.442-7.14c0-.244.199-.442.442-.442h8.666c.243 0 .442.198.442.442v5.416a.443.443 0 01-.442.442H2.27a.443.443 0 01-.442-.442V2.43zm.442 24.475h8.666c.951 0 1.725-.774 1.725-1.725V13.262c0-.951-.774-1.725-1.725-1.725H2.27c-.952 0-1.725.774-1.725 1.725V25.18c0 .95.773 1.725 1.725 1.725zm-.442-13.642c0-.244.199-.442.442-.442h8.666c.243 0 .442.198.442.442V25.18a.443.443 0 01-.442.442H2.27a.443.443 0 01-.442-.442V13.262zm14.525 13.642h8.666c.952 0 1.726-.774 1.726-1.725v-5.417c0-.951-.774-1.725-1.726-1.725h-8.666c-.951 0-1.725.774-1.725 1.725v5.417c0 .95.774 1.725 1.725 1.725zm-.442-7.142c0-.244.2-.442.442-.442h8.666c.243 0 .442.198.442.442v5.417a.443.443 0 01-.442.441h-8.666a.443.443 0 01-.442-.441v-5.417zm.442-3.692h8.666c.952 0 1.726-.774 1.726-1.725V2.43c0-.951-.774-1.725-1.726-1.725h-8.666c-.951 0-1.725.774-1.725 1.725v11.916c0 .951.774 1.725 1.725 1.725zM15.91 2.43c0-.244.2-.442.442-.442h8.666c.243 0 .442.198.442.442v11.916a.443.443 0 01-.442.442h-8.666a.443.443 0 01-.442-.442V2.43z" fill="#fff" stroke="#fff" stroke-width=".2"/></svg>