<svg width="34" height="22" fill="none" xmlns="http://www.w3.org/2000/svg"><path d="M30.912 13.259v-.518h1.036v1.036h-.518a.519.519 0 01-.518-.518zM30.8 9.537l-.808-3.235a.551.551 0 00.386-.525v-.535a2.157 2.157 0 00-2.155-2.154H24.5V2.035c0-.598-.487-1.085-1.086-1.085H4.173c-.598 0-1.085.487-1.085 1.085v9.086a.551.551 0 001.102 0V2.052h19.207v9.07a.551.551 0 001.102 0v-.519h5.863s0 0 0 0 0 0 0 0a1.59 1.59 0 011.487 1.036H30.36a.551.551 0 00-.55.551v1.069c0 .893.726 1.62 1.619 1.62h.518v2.104h-1.225a3.228 3.228 0 00-3.034-2.137 3.228 3.228 0 00-3.034 2.137h-.156V13.26a.551.551 0 10-1.102 0v3.724h-10.31a3.228 3.228 0 00-3.035-2.138 3.228 3.228 0 00-3.034 2.138H4.19v-1.035h2.12a.551.551 0 000-1.103H1.5a.551.551 0 000 1.103h1.587V17c0 .599.487 1.085 1.085 1.085H6.83a3.227 3.227 0 003.223 3.207 3.227 3.227 0 003.223-3.207h11.19a3.227 3.227 0 003.224 3.207 3.227 3.227 0 003.223-3.207H32.5a.551.551 0 00.551-.55V12.19a2.693 2.693 0 00-2.25-2.653zM24.5 4.19h3.724c.575 0 1.044.463 1.053 1.036H24.5V4.19zm0 5.311V6.328h4.363l.794 3.173H24.5zm-14.447 10.69a2.124 2.124 0 01-2.121-2.122c0-1.17.952-2.121 2.121-2.121 1.17 0 2.121.951 2.121 2.121s-.951 2.121-2.12 2.121zm17.637 0a2.124 2.124 0 01-2.121-2.122c0-1.17.951-2.121 2.121-2.121s2.121.951 2.121 2.121-.951 2.121-2.121 2.121z" fill="#D2374A" stroke="#D2374A" stroke-width=".1"/><path d="M10.052 16.983a1.087 1.087 0 000 2.171 1.087 1.087 0 000-2.17zm17.637 0a1.087 1.087 0 000 2.171 1.087 1.087 0 000-2.17zm-5.879-2.137h-7.482a.55.55 0 100 1.102h7.482a.551.551 0 000-1.102zM8.983 12.708H2.57a.551.551 0 000 1.102h6.413a.551.551 0 000-1.102zm9.475-6.787h0a.551.551 0 010 .78h0l-4.81 4.81 4.81-5.59zm0 0a.551.551 0 00-.779 0m.78 0h-.78m0 0s0 0 0 0m0 0h0m0 0l-4.42 4.42-2.283-2.282a.55.55 0 00-.78 0s0 0 0 0l.036.036a.501.501 0 000 .708l2.673 2.672m4.774-5.554l-4.81 5.59.036-.036m0 0l-.036.036a.55.55 0 00.78 0l-.036-.036a.5.5 0 01-.708 0z" fill="#D2374A" stroke="#D2374A" stroke-width=".1"/></svg>