<svg width="44" height="47" fill="none" xmlns="http://www.w3.org/2000/svg"><path d="M5.134 29.947a2.2 2.2 0 100 4.4 2.2 2.2 0 000-4.4zm0 2.933a.734.734 0 110-1.468.734.734 0 010 1.468zM33 29.947a2.2 2.2 0 100 4.4 2.2 2.2 0 000-4.4zm0 2.933a.734.734 0 110-1.468.734.734 0 010 1.468z" fill="#fff"/><path d="M38.133 32.147a5.134 5.134 0 00-5.22-5.133c-2.783.047-5.046 2.382-5.046 5.205v2.464c-2.01-.547-4.94-1.07-8.8-1.07-3.862 0-6.792.523-8.8 1.07v-2.536a5.131 5.131 0 00-5.333-5.13 5.152 5.152 0 00-4.93 4.93A5.136 5.136 0 004.4 37.23v2.985a2.937 2.937 0 002.933 2.933v2.2a.733.733 0 00.734.733h2.2a.734.734 0 00.655-.405l1.264-2.528h13.76l1.265 2.528a.733.733 0 00.656.405h2.2a.733.733 0 00.733-.733v-2.2a2.936 2.936 0 002.933-2.933v-2.986a5.141 5.141 0 004.4-5.081zM9.813 44.614H8.8v-1.467h1.747l-.734 1.467zm19.52 0H28.32l-.733-1.467h1.746v1.467zm3.667-8.8a.734.734 0 00-.733.733v3.667A1.469 1.469 0 0130.8 41.68H7.333a1.469 1.469 0 01-1.466-1.466v-3.667a.733.733 0 00-.734-.733 3.668 3.668 0 01-3.664-3.81 3.678 3.678 0 013.52-3.52A3.666 3.666 0 018.8 32.146v2.988c-1.156.404-1.764.738-1.826.773l.717 1.279c.038-.021 3.877-2.107 11.376-2.107s11.337 2.086 11.373 2.106l.72-1.278c-.063-.035-.67-.37-1.827-.773V32.22c0-2.028 1.617-3.705 3.604-3.738A3.667 3.667 0 1133 35.814zM5.867 21.88a1.468 1.468 0 011.467-1.466H30.8a1.468 1.468 0 011.467 1.466v3.667h1.467V21.88a2.937 2.937 0 00-2.934-2.933H7.334A2.937 2.937 0 004.4 21.88v3.667h1.467V21.88z" fill="#fff"/><path d="M14.667 23.347h1.467v1.467h-1.467v-1.467zm3.666 3.667H19.8v1.466h-1.467v-1.466zm-7.333 0h1.467v1.466H11v-1.466zm3.667 3.666h1.467v1.467h-1.467V30.68zM22 23.347h1.467v1.467H22v-1.467zm3.667 3.667h1.467v1.466h-1.467v-1.466zM22 30.68h1.467v1.467H22V30.68zM41.066.614H20.533A2.937 2.937 0 0017.6 3.547v.733h1.466v-.733a1.468 1.468 0 011.467-1.467h9.533v15.4h1.467V2.08h9.533a1.469 1.469 0 011.467 1.467v36.667a1.469 1.469 0 01-1.467 1.467h-6.6v1.466h1.747l1.264 2.528a.733.733 0 00.656.406h2.2a.733.733 0 00.733-.734v-2.2A2.937 2.937 0 0044 40.214V3.547A2.937 2.937 0 0041.066.614zm-1.466 44h-1.014l-.733-1.467H39.6v1.467z" fill="#fff"/><path d="M5.134 16.014h6.6v1.466H13.2v-1.466h6.6a.733.733 0 00.731-.794l-.733-8.8a.733.733 0 00-.731-.673H13.2V4.281h-1.466v1.466H5.867a.733.733 0 00-.73.673l-.734 8.8a.733.733 0 00.73.794zm1.408-8.8h11.85l.611 7.333H5.931l.61-7.333z" fill="#fff"/></svg>