<svg width="51" height="56" fill="none" xmlns="http://www.w3.org/2000/svg"><path d="M24.518 34.108h0a3.112 3.112 0 002.45.905l.008.1m-2.458-1.005L36.592 20.91a.806.806 0 011.123 1.123s0 0 0 0l-8.464 11.702s0 0 0 0a3.117 3.117 0 01-2.283 1.278l.008.1m-2.458-1.005a3.118 3.118 0 01-.905-2.45 3.115 3.115 0 011.276-2.28l-.37 4.73zm2.458 1.005a3.212 3.212 0 01-2.528-.934 3.218 3.218 0 01-.934-2.529l3.462 3.462zm-2.087-5.736l11.703-8.467-11.703 8.467zm.945 1.3v.001l-.518 1.113-.1-.008s0 0 0 0a1.52 1.52 0 00.438 1.188h0c.315.315.748.468 1.187.439h.001c.442-.035.846-.26 1.107-.62h0l5.163-7.137-.14-.14-7.139 5.165z" fill="#fff" stroke="#D2374A" stroke-width=".2"/><path d="M19.914 53.302a.903.903 0 00.678 1.083 24.425 24.425 0 005.555.624l.053-.002c.006 0 .011.004.016.004a.034.034 0 00.01-.003.031.031 0 01.011-.002l-6.323-1.704zm0 0a.9.9 0 011.083-.679c1.392.32 2.807.5 4.217.554v.004h.1l.004-.1h-.004v-1.686a.903.903 0 111.808 0v1.679h-.004l.004.1h.1v-.005a22.422 22.422 0 009.264-2.52l.002.003.087-.05-.047-.089-.003.002-.842-1.456a.903.903 0 01.331-1.235l-16.1 5.478zm5.298-46.985V3.582h-3.064a.553.553 0 01-.552-.552c0-.304.248-.552.552-.552h8.136c.304 0 .553.248.553.552a.553.553 0 01-.553.552H27.22v2.735l-.104-.004a22.39 22.39 0 00-.936-.018h-.111c-.086 0-.166.002-.25.006l-.607.016zm0 0l.105-.004c.064-.003.122-.003.182-.004l.128-.002-.415.01zM47.136 18.5h0l.004.007a24.144 24.144 0 013.237 12.096A24.14 24.14 0 0147.139 42.7h0l-.004.007a.224.224 0 00-.015.047v.002l-.002.005a.163.163 0 01-.018.023c-.008.009-.02.022-.03.036h0l-.004.008a24.486 24.486 0 01-8.799 8.788h0l-.006.004a.223.223 0 00-.036.031l-.002.002-.004.004a.172.172 0 01-.023.01l-.007.002a.572.572 0 00-.043.017h0l-.008.005A24.151 24.151 0 0126.2 54.907h-.002a3.222 3.222 0 00-.129.004c-1.821 0-3.657-.21-5.454-.623h0a.803.803 0 01-.604-.963h0a.8.8 0 01.962-.605h.001c1.432.33 2.887.511 4.337.56l.103.005v-1.89a.803.803 0 111.608 0v1.884l.105-.005a22.525 22.525 0 009.494-2.584l.092-.048-.052-.09-.891-1.543h0a.803.803 0 01.294-1.099h0a.802.802 0 011.098.295l.087-.05-.087.05.889 1.54.052.09.088-.056a22.875 22.875 0 007.057-7.057l.056-.088-.09-.052-1.54-.889a.804.804 0 01-.294-1.098h0a.803.803 0 011.098-.295l1.543.892.09.052.049-.092a22.539 22.539 0 002.587-9.643l.004-.104H46.86a.803.803 0 110-1.608h1.891l-.004-.104a22.538 22.538 0 00-2.587-9.642l-.049-.092-.09.052-1.543.892h0a.804.804 0 01-.806-1.393l1.54-.889.09-.052-.056-.088a22.875 22.875 0 00-7.057-7.057l-.088-.056-.052.09-.889 1.54h0a.803.803 0 01-1.098.295h0a.804.804 0 01-.294-1.099l.891-1.543.052-.09-.092-.048a22.524 22.524 0 00-9.494-2.584l-.105-.004V9.81a.803.803 0 11-1.608 0V7.918l-.104.005c-.267.013-.541.029-.838.052h0l-.97.075h0-.004c-.846.097-1.69.242-2.524.433h0a.803.803 0 01-.964-.604h0a.803.803 0 01.604-.963h0c.96-.22 1.93-.378 2.903-.481l.09-.01V5.19h-1.457a2.162 2.162 0 01-2.16-2.16c0-1.191.969-2.16 2.16-2.16h8.136c1.192 0 2.161.969 2.161 2.16 0 1.191-.968 2.16-2.16 2.16H28.83v1.266l.089.01a24.137 24.137 0 019.248 3.065h0l.004.002c.02.01.04.015.05.017h.002l.002.001.001.002.002.002a.23.23 0 00.036.031h0l.006.004a24.444 24.444 0 014.33 3.21l.07.066.068-.068 1.942-1.94.071-.072-.07-.07-1.21-1.209 3.695-3.693 3.694 3.693-3.694 3.695-1.207-1.208-.071-.07-.07.07-1.943 1.94-.068.07.066.07a24.481 24.481 0 013.21 4.33h0l.003.006c.013.018.029.032.033.037l.002.001v.005c.003.008.007.027.016.046zm-8.819 33.202a24.586 24.586 0 008.835-8.824l-8.965 8.9a.202.202 0 01.034-.014.28.28 0 00.051-.022.12.12 0 00.025-.021.14.14 0 01.02-.019zm8.918-43.543l-.07-.07-.072.07-1.279 1.279-.07.07.07.071 1.28 1.28.07.07.07-.07 1.28-1.28.07-.07-.07-.071-1.28-1.279zM13.56 13.526h4.52a.803.803 0 110 1.608h-4.52a.803.803 0 110-1.608zm-4.52 6.328h9.04a.803.803 0 110 1.608H9.04a.803.803 0 110-1.608zm-4.52 6.329h13.56a.803.803 0 110 1.608H4.52a.803.803 0 110-1.608zM.904 32.51H18.08a.803.803 0 110 1.608H.904a.803.803 0 110-1.608zm5.424 6.329H18.08a.803.803 0 110 1.608H6.328a.803.803 0 110-1.608zm5.425 6.328h6.328a.803.803 0 110 1.608h-6.328a.803.803 0 110-1.608z" fill="#fff" stroke="#D2374A" stroke-width=".2"/></svg>