<svg width="52" height="53" fill="none" xmlns="http://www.w3.org/2000/svg"><mask id="a" fill="#fff"><path d="M24.5 39.145a.88.88 0 00-1.229.188l-.109.148a.88.88 0 001.416 1.043l.11-.15a.88.88 0 00-.188-1.229z"/><path d="M24.73 47.51l-2.262-4.112 2.111-2.875a.879.879 0 00-1.417-1.042L20.72 42.81a.88.88 0 00-.062.944l2.532 4.603a.88.88 0 101.54-.848zm6.552-4.7l-2.433-3.315a.878.878 0 00-1.562.308.879.879 0 00.144.734l2.1 2.86-2.245 4.084a.882.882 0 00.77 1.304.88.88 0 00.771-.456l2.517-4.575a.88.88 0 00-.062-.944zm1.393-13.816a.88.88 0 00-.908.054c-.523.36-1.008.742-1.442 1.134-2.366 2.139-4.614 1.85-4.702 1.837a.853.853 0 00-.16-.01c-.935.023-2.621-.831-4.405-2.232a14.372 14.372 0 00-.832-.607.879.879 0 00-1.37.729v3.016a.88.88 0 00.405.74l6.234 4.166.003.003.017.01a.88.88 0 00.98-.006l.01-.006.01-.007 6.22-4.155a.88.88 0 00.411-.744v-3.144a.879.879 0 00-.471-.778zm-1.288 3.45L26 36.045l-5.386-3.6v-.799c1.311.953 3.24 2.122 4.813 2.122h.01c.529.059 3.221.217 5.95-2.176v.854z"/><path d="M26.867 36.957a.88.88 0 00-1.576-.376l-2.02 2.752a.88.88 0 101.417 1.041l2.01-2.738a.878.878 0 00.17-.679zM39.395 8.614c-.018-.138-.43-3.11-3.228-4.283.082-.522.073-1.193-.258-1.845-.446-.878-1.325-1.45-2.613-1.7a.876.876 0 00-.168-.016h-11.8c-4.792 0-8.69 3.898-8.69 8.69v4.63c0 1.207.411 2.383 1.158 3.313.37.46.826 1.265.895 2.482a.88.88 0 001.757-.05V13.8c.596-2.47 2.634-2.95 2.984-3.015h3.817c.449 0 .89-.068 1.313-.204.725-.232 1.877-.66 2.715-.98a2.549 2.549 0 011.748-.021l4.087 1.434c2.042.754 2.407 2.547 2.452 2.83v7.244a.879.879 0 001.749.13c.003-.023.354-2.29 1.486-4.106a3.94 3.94 0 00.602-2.084V8.725a.897.897 0 00-.007-.111zm-1.752 6.413c0 .393-.11.782-.32 1.129v-2.374a.86.86 0 00-.006-.095c-.014-.128-.377-3.14-3.605-4.326l-.012-.005-4.092-1.436a4.307 4.307 0 00-2.956.037 60.528 60.528 0 01-2.628.95 2.55 2.55 0 01-.775.119H19.36a.895.895 0 00-.113.007 5.597 5.597 0 00-4.538 4.474.874.874 0 00-.021.191v1.81a3.574 3.574 0 01-.293-1.418V9.46a6.94 6.94 0 016.932-6.931h11.711c.485.103 1.075.315 1.298.746.274.528-.038 1.255-.038 1.255a.879.879 0 00.59 1.229c2.238.538 2.694 2.685 2.754 3.032v6.236z"/><path d="M37.317 13.687c-.014-.128-.377-3.14-3.605-4.326l-.012-.005-4.092-1.436a4.311 4.311 0 00-2.956.037 60.528 60.528 0 01-2.628.95 2.55 2.55 0 01-.775.119H19.36a.895.895 0 00-.113.007 5.597 5.597 0 00-4.538 4.474.874.874 0 00-.021.191v7.578c.006.262.192 6.462 4.476 9.297l.022.016.056.039c.244.165.49.344.73.532 1.247.98 3.599 2.607 5.454 2.607h.01c.101.011.281.026.525.026 1.052 0 3.295-.275 5.542-2.307.377-.34.801-.674 1.261-.99l.066-.046.065-.046c1.429-.96 3.904-3.436 4.423-9.238a.893.893 0 00.004-.079v-7.305a.86.86 0 00-.006-.095zm-1.753 7.36c-.479 5.237-2.71 7.267-3.649 7.898l-.099.068-.049.035c-.523.36-1.008.742-1.442 1.134-2.357 2.131-4.598 1.851-4.708 1.836a.88.88 0 00-.154-.01c-.935.024-2.621-.83-4.405-2.23a14.372 14.372 0 00-.832-.608l-.02-.015a2.519 2.519 0 00-.068-.046c-3.457-2.288-3.683-7.643-3.69-7.866v-7.444c.599-2.478 2.649-2.954 2.983-3.015h3.818c.449 0 .89-.068 1.313-.204.725-.232 1.877-.66 2.715-.98a2.549 2.549 0 011.748-.021l4.087 1.434c2.042.754 2.407 2.547 2.452 2.83v7.204zm-8.777 15.662a.88.88 0 00-1.495-.128l-2.106 2.869a.88.88 0 001.416 1.042l2.106-2.858a.911.911 0 00.171-.532.88.88 0 00-.092-.393zm.056 14.155a.879.879 0 00-1.229-.04l-.2.183a.879.879 0 00-.175 1.077l.006.011a.879.879 0 001.39.193l.194-.194a.879.879 0 00.014-1.23z"/><path d="M26.587 51.007l-.201-.184a.88.88 0 00-1.215 1.27l.195.196a.879.879 0 001.393-.2l.006-.01a.88.88 0 00-.178-1.072z"/><path d="M26.602 51.02H26.6a.879.879 0 00-1.2-.002l-.003.003a.88.88 0 00-.027 1.273l.01.009a.877.877 0 001.24-.002l.01-.009a.88.88 0 00-.03-1.271zm-.316-14.77a.882.882 0 00-.986.331.878.878 0 00.718 1.387.88.88 0 00.88-.88v-.002a.878.878 0 00-.612-.835z"/><path d="M26.715 36.574l-.008-.01a.879.879 0 00-1.586.523v.014a.879.879 0 00.881.876.88.88 0 00.712-1.403z"/><path d="M36.459 33.812a.878.878 0 00-.526-.516l-3.37-1.209a.878.878 0 00-.786.096l-6.246 4.175c-.002 0-.003.002-.005.003l.49.73-.501-.723a.879.879 0 00-.224 1.254l4.573 6.228a.879.879 0 001.48-.096l5.063-9.207a.879.879 0 00.052-.735zM30.466 41.7l-3.213-4.377 5.133-3.43 1.983.711-3.903 7.096z"/><path d="M26.867 36.95a.88.88 0 00-.377-.578l-6.266-4.188a.88.88 0 00-.786-.096l-3.37 1.208a.879.879 0 00-.475 1.251l5.064 9.207a.88.88 0 001.48.096l2.442-3.327.006-.009 2.124-2.892a.88.88 0 00.158-.672zm-3.705 2.531l-.006.009-1.622 2.21-3.903-7.097 1.984-.71 5.133 3.43-1.586 2.158zm28.795 9.339l-1.135-6.848a6.062 6.062 0 00-3.914-4.705l-10.972-3.97a.88.88 0 00-1.086 1.22l2.29 4.593-2.247.035a.88.88 0 00-.766 1.287l.922 1.76-9.435 8.631a.931.931 0 00-.028.028l-.195.194a.88.88 0 00-.15 1.044l.007.012a.88.88 0 00.771.458h22.768c.946 0 1.839-.414 2.45-1.135a3.21 3.21 0 00.72-2.603zm-2.06 1.466a1.453 1.453 0 01-1.11.514H28.244l8.492-7.767a.879.879 0 00.186-1.057l-.574-1.095 2.217-.034a.88.88 0 00.773-1.272l-1.934-3.877 8.906 3.222a4.303 4.303 0 012.778 3.34l1.134 6.848c.07.422-.049.852-.325 1.178z"/><path d="M26.61 51.028l-.01-.01a.88.88 0 00-1.214.032l-.01.01A.88.88 0 0026 52.559h.02a.879.879 0 00.59-1.531z"/><path d="M26.582 51.002a.878.878 0 00-1.359.231l-.006.011a.88.88 0 00.14 1.034l.002.004a.877.877 0 001.224.038l.01-.009a.88.88 0 00.194-.256.889.889 0 00-.205-1.053z"/><path d="M26.62 51.056l-.004-.004-.007-.007-.195-.194a.657.657 0 00-.028-.028l-9.435-8.63.922-1.761a.88.88 0 00-.766-1.287l-2.248-.035 2.291-4.594a.88.88 0 00-1.086-1.22l-10.972 3.97a6.062 6.062 0 00-3.914 4.706L.043 48.821a3.207 3.207 0 00.72 2.603 3.208 3.208 0 002.45 1.135H26a.879.879 0 00.62-1.503zM3.213 50.8a1.452 1.452 0 01-1.435-1.692l1.134-6.849a4.302 4.302 0 012.778-3.34l8.906-3.221-1.933 3.877a.879.879 0 00.773 1.271l2.217.035-.574 1.095a.88.88 0 00.185 1.056l8.492 7.768H3.213z"/><path d="M28.993 40.229a.878.878 0 00-.144-.733l-2.14-2.915a.876.876 0 00-1.445.048l-2.1 2.85a.88.88 0 00-.015 1.025l.895 1.285-.953 6.006a.88.88 0 00.098.562l2.04 3.71a.879.879 0 001.542 0l2.056-3.738a.881.881 0 00.098-.562l-.948-5.978.884-1.27a.89.89 0 00.132-.29zM26 49.819l-1.126-2.046.962-6.058a.878.878 0 00-.147-.64l-.737-1.058 1.05-1.426 1.057 1.439-.728 1.045a.88.88 0 00-.147.64l.957 6.03-1.14 2.075z"/></mask><path d="M24.5 39.145a.88.88 0 00-1.229.188l-.109.148a.88.88 0 001.416 1.043l.11-.15a.88.88 0 00-.188-1.229z" fill="#fff"/><path d="M24.73 47.51l-2.262-4.112 2.111-2.875a.879.879 0 00-1.417-1.042L20.72 42.81a.88.88 0 00-.062.944l2.532 4.603a.88.88 0 101.54-.848zm6.552-4.7l-2.433-3.315a.878.878 0 00-1.562.308.879.879 0 00.144.734l2.1 2.86-2.245 4.084a.882.882 0 00.77 1.304.88.88 0 00.771-.456l2.517-4.575a.88.88 0 00-.062-.944zm1.393-13.816a.88.88 0 00-.908.054c-.523.36-1.008.742-1.442 1.134-2.366 2.139-4.614 1.85-4.702 1.837a.853.853 0 00-.16-.01c-.935.023-2.621-.831-4.405-2.232a14.372 14.372 0 00-.832-.607.879.879 0 00-1.37.729v3.016a.88.88 0 00.405.74l6.234 4.166.003.003.017.01a.88.88 0 00.98-.006l.01-.006.01-.007 6.22-4.155a.88.88 0 00.411-.744v-3.144a.879.879 0 00-.471-.778zm-1.288 3.45L26 36.045l-5.386-3.6v-.799c1.311.953 3.24 2.122 4.813 2.122h.01c.529.059 3.221.217 5.95-2.176v.854z" fill="#fff"/><path d="M26.867 36.957a.88.88 0 00-1.576-.376l-2.02 2.752a.88.88 0 101.417 1.041l2.01-2.738a.878.878 0 00.17-.679zM39.395 8.614c-.018-.138-.43-3.11-3.228-4.283.082-.522.073-1.193-.258-1.845-.446-.878-1.325-1.45-2.613-1.7a.876.876 0 00-.168-.016h-11.8c-4.792 0-8.69 3.898-8.69 8.69v4.63c0 1.207.411 2.383 1.158 3.313.37.46.826 1.265.895 2.482a.88.88 0 001.757-.05V13.8c.596-2.47 2.634-2.95 2.984-3.015h3.817c.449 0 .89-.068 1.313-.204.725-.232 1.877-.66 2.715-.98a2.549 2.549 0 011.748-.021l4.087 1.434c2.042.754 2.407 2.547 2.452 2.83v7.244a.879.879 0 001.749.13c.003-.023.354-2.29 1.486-4.106a3.94 3.94 0 00.602-2.084V8.725a.897.897 0 00-.007-.111zm-1.752 6.413c0 .393-.11.782-.32 1.129v-2.374a.86.86 0 00-.006-.095c-.014-.128-.377-3.14-3.605-4.326l-.012-.005-4.092-1.436a4.307 4.307 0 00-2.956.037 60.528 60.528 0 01-2.628.95 2.55 2.55 0 01-.775.119H19.36a.895.895 0 00-.113.007 5.597 5.597 0 00-4.538 4.474.874.874 0 00-.021.191v1.81a3.574 3.574 0 01-.293-1.418V9.46a6.94 6.94 0 016.932-6.931h11.711c.485.103 1.075.315 1.298.746.274.528-.038 1.255-.038 1.255a.879.879 0 00.59 1.229c2.238.538 2.694 2.685 2.754 3.032v6.236z" fill="#fff"/><path d="M37.317 13.687c-.014-.128-.377-3.14-3.605-4.326l-.012-.005-4.092-1.436a4.311 4.311 0 00-2.956.037 60.528 60.528 0 01-2.628.95 2.55 2.55 0 01-.775.119H19.36a.895.895 0 00-.113.007 5.597 5.597 0 00-4.538 4.474.874.874 0 00-.021.191v7.578c.006.262.192 6.462 4.476 9.297l.022.016.056.039c.244.165.49.344.73.532 1.247.98 3.599 2.607 5.454 2.607h.01c.101.011.281.026.525.026 1.052 0 3.295-.275 5.542-2.307.377-.34.801-.674 1.261-.99l.066-.046.065-.046c1.429-.96 3.904-3.436 4.423-9.238a.893.893 0 00.004-.079v-7.305a.86.86 0 00-.006-.095zm-1.753 7.36c-.479 5.237-2.71 7.267-3.649 7.898l-.099.068-.049.035c-.523.36-1.008.742-1.442 1.134-2.357 2.131-4.598 1.851-4.708 1.836a.88.88 0 00-.154-.01c-.935.024-2.621-.83-4.405-2.23a14.372 14.372 0 00-.832-.608l-.02-.015a2.519 2.519 0 00-.068-.046c-3.457-2.288-3.683-7.643-3.69-7.866v-7.444c.599-2.478 2.649-2.954 2.983-3.015h3.818c.449 0 .89-.068 1.313-.204.725-.232 1.877-.66 2.715-.98a2.549 2.549 0 011.748-.021l4.087 1.434c2.042.754 2.407 2.547 2.452 2.83v7.204zm-8.777 15.662a.88.88 0 00-1.495-.128l-2.106 2.869a.88.88 0 001.416 1.042l2.106-2.858a.911.911 0 00.171-.532.88.88 0 00-.092-.393zm.056 14.155a.879.879 0 00-1.229-.04l-.2.183a.879.879 0 00-.175 1.077l.006.011a.879.879 0 001.39.193l.194-.194a.879.879 0 00.014-1.23z" fill="#fff"/><path d="M26.587 51.007l-.201-.184a.88.88 0 00-1.215 1.27l.195.196a.879.879 0 001.393-.2l.006-.01a.88.88 0 00-.178-1.072z" fill="#fff"/><path d="M26.602 51.02H26.6a.879.879 0 00-1.2-.002l-.003.003a.88.88 0 00-.027 1.273l.01.009a.877.877 0 001.24-.002l.01-.009a.88.88 0 00-.03-1.271zm-.316-14.77a.882.882 0 00-.986.331.878.878 0 00.718 1.387.88.88 0 00.88-.88v-.002a.878.878 0 00-.612-.835z" fill="#fff"/><path d="M26.715 36.574l-.008-.01a.879.879 0 00-1.586.523v.014a.879.879 0 00.881.876.88.88 0 00.712-1.403z" fill="#fff"/><path d="M36.459 33.812a.878.878 0 00-.526-.516l-3.37-1.209a.878.878 0 00-.786.096l-6.246 4.175c-.002 0-.003.002-.005.003l.49.73-.501-.723a.879.879 0 00-.224 1.254l4.573 6.228a.879.879 0 001.48-.096l5.063-9.207a.879.879 0 00.052-.735zM30.466 41.7l-3.213-4.377 5.133-3.43 1.983.711-3.903 7.096z" fill="#fff"/><path d="M26.867 36.95a.88.88 0 00-.377-.578l-6.266-4.188a.88.88 0 00-.786-.096l-3.37 1.208a.879.879 0 00-.475 1.251l5.064 9.207a.88.88 0 001.48.096l2.442-3.327.006-.009 2.124-2.892a.88.88 0 00.158-.672zm-3.705 2.531l-.006.009-1.622 2.21-3.903-7.097 1.984-.71 5.133 3.43-1.586 2.158zm28.795 9.339l-1.135-6.848a6.062 6.062 0 00-3.914-4.705l-10.972-3.97a.88.88 0 00-1.086 1.22l2.29 4.593-2.247.035a.88.88 0 00-.766 1.287l.922 1.76-9.435 8.631a.931.931 0 00-.028.028l-.195.194a.88.88 0 00-.15 1.044l.007.012a.88.88 0 00.771.458h22.768c.946 0 1.839-.414 2.45-1.135a3.21 3.21 0 00.72-2.603zm-2.06 1.466a1.453 1.453 0 01-1.11.514H28.244l8.492-7.767a.879.879 0 00.186-1.057l-.574-1.095 2.217-.034a.88.88 0 00.773-1.272l-1.934-3.877 8.906 3.222a4.303 4.303 0 012.778 3.34l1.134 6.848c.07.422-.049.852-.325 1.178z" fill="#fff"/><path d="M26.61 51.028l-.01-.01a.88.88 0 00-1.214.032l-.01.01A.88.88 0 0026 52.559h.02a.879.879 0 00.59-1.531z" fill="#fff"/><path d="M26.582 51.002a.878.878 0 00-1.359.231l-.006.011a.88.88 0 00.14 1.034l.002.004a.877.877 0 001.224.038l.01-.009a.88.88 0 00.194-.256.889.889 0 00-.205-1.053z" fill="#fff"/><path d="M26.62 51.056l-.004-.004-.007-.007-.195-.194a.657.657 0 00-.028-.028l-9.435-8.63.922-1.761a.88.88 0 00-.766-1.287l-2.248-.035 2.291-4.594a.88.88 0 00-1.086-1.22l-10.972 3.97a6.062 6.062 0 00-3.914 4.706L.043 48.821a3.207 3.207 0 00.72 2.603 3.208 3.208 0 002.45 1.135H26a.879.879 0 00.62-1.503zM3.213 50.8a1.452 1.452 0 01-1.435-1.692l1.134-6.849a4.302 4.302 0 012.778-3.34l8.906-3.221-1.933 3.877a.879.879 0 00.773 1.271l2.217.035-.574 1.095a.88.88 0 00.185 1.056l8.492 7.768H3.213z" fill="#fff"/><path d="M28.993 40.229a.878.878 0 00-.144-.733l-2.14-2.915a.876.876 0 00-1.445.048l-2.1 2.85a.88.88 0 00-.015 1.025l.895 1.285-.953 6.006a.88.88 0 00.098.562l2.04 3.71a.879.879 0 001.542 0l2.056-3.738a.881.881 0 00.098-.562l-.948-5.978.884-1.27a.89.89 0 00.132-.29zM26 49.819l-1.126-2.046.962-6.058a.878.878 0 00-.147-.64l-.737-1.058 1.05-1.426 1.057 1.439-.728 1.045a.88.88 0 00-.147.64l.957 6.03-1.14 2.075z" fill="#fff"/><path d="M21.058 29.777l.062-.078-.062.078zm3.503-19.197l.031.096-.03-.095zm2.716-.98l.035.094-.035-.093zm1.748-.021l-.033.094.033-.094zm4.087 1.434l.034-.093h-.001l-.034.093zm4.205 2.674l-.1.01.1-.01zm-3.605-4.326l.034-.094-.034.094zm-.012-.005l.034-.094-.034.094zm-9.676-.45l.031.095-.03-.095zm-4.776.127l-.013-.099.013.1zm-4.538 4.474l-.097-.022.097.022zm17 15.458c-.526.363-1.015.747-1.452 1.143l.134.148c.43-.389.912-.768 1.432-1.126l-.114-.165zm-6.25 2.944c-.442.01-1.079-.187-1.836-.571-.755-.382-1.616-.942-2.504-1.64l-.124.158c.896.703 1.769 1.271 2.537 1.66.765.388 1.439.605 1.932.592l-.005-.2zm-4.34-2.21a14.47 14.47 0 00-.838-.612l-.112.166c.278.187.555.39.826.603l.124-.157zm4.307 4.168h.011v-.2h-.009v.2zM23.25 10.884c.46 0 .911-.07 1.343-.208l-.061-.19a4.224 4.224 0 01-1.282.198v.2zm1.343-.208a64.35 64.35 0 002.72-.982l-.07-.187c-.84.319-1.988.746-2.711.978l.061.19zm2.72-.982a2.449 2.449 0 011.68-.02l.066-.19a2.649 2.649 0 00-1.817.023l.072.187zm1.68-.02l4.086 1.434.067-.189-4.087-1.434-.066.188zm4.085 1.433c1.99.735 2.345 2.48 2.388 2.751l.198-.032c-.047-.293-.422-2.134-2.517-2.906l-.07.187zm4.345 2.675a.96.96 0 00-.005-.106l-.2.022a.763.763 0 01.005.084h.2zm-.005-.106c-.015-.136-.386-3.203-3.67-4.41l-.07.188c3.172 1.165 3.528 4.124 3.54 4.244l.2-.022zm-3.671-4.41a.385.385 0 01-.006-.002l-.006-.002-.068.188.006.003.006.002.068-.189zm-.013-.004l-4.092-1.437-.066.189 4.092 1.437.066-.189zm-7.116-1.398c-1.174.446-2.08.773-2.623.947l.061.19a59.01 59.01 0 002.633-.95l-.071-.187zm-2.623.947a2.438 2.438 0 01-.745.115v.2c.277 0 .548-.042.806-.125l-.061-.19zm-.745.115h-3.89v.2h3.888v-.2zm-3.888 0a.996.996 0 00-.126.008l.026.198a.795.795 0 01.1-.006v-.2zm-.126.008a5.696 5.696 0 00-4.622 4.55l.195.044a5.5 5.5 0 014.453-4.396l-.026-.198zm-4.622 4.55a.98.98 0 00-.024.214h.2c0-.057.006-.114.019-.17l-.195-.043zM24.5 39.146l.118-.16-.118.16zm-1.15 1.564l.118-.16-.119.16zm1.228-.185l.16.119h.001l-.161-.119zm.11-.15l.161.119-.16-.119zm.041 7.135l-.175.097.175-.097zm-2.26-4.111l-.162-.119-.075.103.061.112.175-.096zm2.11-2.875l-.16-.119.16.119zm-.188-1.23l-.118.162.118-.161zM20.72 42.81l.161.118-.161-.118zm3.241 6.002v.2-.2zm.423-.109l.096.175-.096-.175zm6.899-5.893l.161-.119-.161.119zm-2.433-3.315l.16-.118-.16.118zm-.879-.341l.039.196-.039-.197zm-.683.65l-.194-.05.194.05zm.144.733l.161-.119-.16.119zm2.1 2.86l.176.097.062-.112-.076-.102-.161.118zm-2.245 4.084l-.175-.096.175.096zm.552 1.276l.05-.194-.05.194zm.99-.428l.174.097-.175-.097zm3.847-19.335l.093-.178-.093.178zm-.908.054l-.115-.164.229.328-.114-.164zm-1.442 1.134l.134.148-.268-.296.134.148zm-4.702 1.837l-.031.198h.003l.028-.198zm-.16-.01l-.007-.2.012.4-.005-.2zm-5.237-2.839l-.112.166.228-.329-.116.163zm-.904-.047l.094.176-.094-.176zm-.137 4.478l.125-.156-.125.156zm.076.055l.111-.167-.003-.002-.108.169zm6.234 4.165l-.111.167.008.005.103-.172zm.003.003l-.114.163.003.003.111-.166zm.017.01l-.111.167.11-.166zm.901.042l.095.177-.095-.177zm.08-.048l-.11-.167-.003.002.113.165zm.009-.006l-.11-.168-.001.002.11.166zm.01-.007l-.111-.166h-.001l.112.166zm6.22-4.155l-.108-.17-.004.003.111.166zm.072-.052l.123.158-.123-.158zm.338-3.836h-.2.2zm-1.758 2.673l.11.166.09-.06v-.106h-.2zM26 36.045l-.111.166.111.074.111-.074-.11-.167zm-5.386-3.6h-.2v.107l.088.059.112-.166zm0-.8l.117-.162-.317-.23v.392h.2zm4.813 2.122v.2-.4.2zm.01 0l.022-.199-.043.398.022-.199zm5.95-2.176h.2v-.442l-.332.291.132.15zm-4.52 5.366l.198-.033-.198.033zm-.663-.71l.047-.195-.047.194zm-2.745 4.316l.119-.161-.119.16zm3.24-2.927l-.16-.121-.002.003.162.118zM39.394 8.614l.199-.025-.199.025zM36.168 4.33l-.197-.03-.024.154.144.06.077-.184zm-.258-1.845l.178-.09-.178.09zm-2.613-1.7l-.038.196.038-.196zm-19.5 16.616l.156-.125-.156.125zm.895 2.483l.2-.011-.2.011zm.902.83l.006.2-.006-.2zm.854-6.916l-.194-.047-.006.023v.024h.2zm2.985-3.015v-.2h-.018l-.018.004.036.196zm3.817 0v.2-.4.2zm13.129 11.18l-.015.199.015-.2zm.066.002v.2-.2zm.869-.749l-.198-.03.198.03zM38.8 17.11l.17.106-.17-.106zm.602-8.386h.2-.2zm-1.758 6.302h.2-.2zm-.32 1.129h-.2v.716l.37-.613-.17-.103zm0-2.374h.2-.4.2zM29.607 7.92l-.067.188.133-.377-.066.189zm-2.956.037l-.07-.187.142.374-.072-.187zM14.69 13.698h.2-.4.2zm0 1.81l-.184.079.384-.08h-.2zm18.35-12.98l.042-.195-.02-.004h-.022v.2zm1.298.747l-.178.092.178-.092zM34.3 4.53l-.18-.09-.001.005.18.085zm.003.755l-.18.086.18-.086zm.587.474l.046-.195-.046.195zm2.754 3.032h.2v-.017l-.003-.016-.197.033zM14.689 21.256h.2-.2zm0 .02l-.2.002v.002l.2-.005zm4.476 9.297l.115-.163-.005-.003-.11.166zm.022.016l.115-.163-.115.163zm.056.039l.112-.166-.112.166zm.73.532l.123-.157-.124.157zm11.531.326l-.134-.148.134.148zm1.261-.99l.114.164-.114-.164zm.066-.046l.114.163h.001l-.115-.163zm.065-.046l.111.167-.111-.167zm4.423-9.238l-.199-.018.2.018zm.004-.079h.2-.2zm-1.759-.04l.2.018v-.018h-.2zm-3.649 7.898l-.111-.166.111.166zm-.099.068l-.115-.163.115.163zm-6.199 3.005l-.03.198h.003l.027-.198zm-5.412-2.863l-.116.163.116-.163zm-.067-.046l.11-.167-.11.167zm-3.69-7.866h-.2v.007l.2-.007zm2.983-10.459v-.2h-.018l-.018.004.036.196zm7.356 25.925l.179-.09-.18.09zm-.712-.483l.017-.2-.017.2zm-2.89 3.224l-.16-.118.16.118zm.188 1.229l.119-.162-.119.162zm1.229-.187l-.161-.119.16.119zm2.106-2.858l-.161-.118.161.118zm.135 13.23l-.145.139.145-.139zm-1.43.143l.135.148-.135-.148zm-.174 1.077l-.175.098.175-.098zm.006.011l.175-.097-.175.097zm.647.443l-.028.198.028-.198zm.743-.25l.141.142-.141-.142zm.194-.194l-.141-.142.141.142zm-.242-1.087l-.135.148.135-.148zm-.201-.184l-.135.148.135-.148zm-1.229.041l-.144-.138.144.138zm.014 1.23l.141-.142-.141.142zm.195.195l.142-.142-.142.142zm.746.248l-.028-.198.028.198zm.647-.447l-.175-.098v.002l.175.096zm.006-.011l.174.097.001-.001-.175-.096zm-.163-1.058l-.135.148.135-.148zm-.001-.001l-.137.146.002.002.135-.148zm-.505-.232l.022-.199-.022.199zm-.695.23l.136.147-.136-.147zm-.003.003l.135.148.001-.001-.136-.147zm-.286.63l-.2-.004.2.004zm.259.643l.141-.142-.141.142zm.01.009l-.142.141.141-.141zm1.24-.002l.142.142-.141-.142zm.01-.009l.141.142-.141-.142zm.257-.642l-.2.005.2-.005zm-.602-15.4l-.061.191.06-.19zm-.986.331l-.163-.116.163.116zm.095 1.129l.142-.141-.142.14zm1.13.097l-.114-.163.115.163zm.374-.72h.2-.2zm-.184-.513l.16-.119-.16.119zm-.008-.01l-.16.119.16-.12zm-1.119 1.31l-.095.176.095-.177zm.905-.044l-.11-.167.11.167zm.38-.58l-.196-.035.197.034zm9.586-3.438l-.187.07v.001l.187-.07zm-.526-.516l-.067.188.067-.188zm-3.37-1.209l.067-.188-.068.188zm-.084-.025l-.049.194h.001l.048-.194zm-.702.122l.111.166-.111-.166zm-6.246 4.174l-.111-.167-.002.002.113.165zm-.005.003l-.116-.163-.16.112.11.163.166-.112zm.49.73l-.164.113.33-.225-.166.111zm-.501-.723l.164-.114-.111-.16-.164.108.11.166zm-.368.52l.194.049-.194-.048zm-.014.359l-.197.032.197-.032zm.159.375l-.162.119.162-.119zm4.572 6.228l.162-.118-.162.118zm.766.357l-.013-.2.013.2zm5.777-9.66l-.175-.096.175.096zm-5.94 7.152l-.162.119.186.252.15-.274-.175-.097zm-3.214-4.377l-.112-.166-.173.116.123.168.162-.118zm5.133-3.43l.067-.188-.095-.034-.083.056.11.166zm1.983.711l.176.097.113-.206-.221-.08-.067.19zm-7.502 2.347l.197-.034-.197.034zm-.377-.578l.112-.166-.112.166zm-6.266-4.188l-.111.166.11-.166zm-.68-.127l.043.195-.043-.195zm-.106.03l-.067-.188.067.189zm-3.37 1.209l.067.188-.068-.188zm-.526.516l-.187-.07.187.07zm.052.735l-.176.097.176-.097zm5.776 9.66l-.013.2.013-.2zm.766-.357l.161.119-.16-.119zm2.45-3.336l-.162-.118-.002.003.163.115zm2.123-2.892l.161.118-.16-.118zm-3.553 1.868l-.16-.12-.001.002.161.118zm-1.622 2.21l-.175.096.15.275.186-.253-.161-.118zm-3.903-7.097l-.068-.188-.22.08.113.205.175-.097zm1.984-.71l.11-.167-.083-.056-.095.034.068.188zm5.133 3.43l.161.117.124-.168-.174-.116-.111.166zM51.957 48.82l-.198.032.198-.032zm-1.135-6.849l-.197.033.197-.033zm-3.914-4.705l-.068.188.068-.188zm-10.972-3.97l.068-.188-.068.188zm-.956.242l-.15-.133.15.133zm-.13.977l-.18.09.18-.09zm2.29 4.594l.004.2.317-.005-.141-.284-.18.09zm-2.247.035l-.003-.2.003.2zm-.742.43l.171.102-.171-.102zm-.024.857l-.177.093.177-.093zm.922 1.76l.135.148.114-.104-.071-.137-.178.093zm-9.658 8.853l-.142-.14.142.14zm-.15 1.044l-.175.096.175-.096zm.007.012l.176-.096-.176.096zm25.99-.677l-.153-.13.152.13zm-1.341-1.138l.152.13-.152-.13zm-21.653.514l-.135-.147-.38.347h.515v-.2zm8.492-7.767l-.135-.148.135.148zm.186-1.057l-.178.093.178-.093zm-.574-1.095l-.003-.2-.325.005.15.288.178-.093zm2.217-.034l-.003-.2.003.2zm.737-.422l.171.104-.17-.105zm.036-.85l.179-.089-.18.09zm-1.934-3.877l.068-.188-.47-.17.223.447.18-.09zm8.906 3.222l-.068.188.068-.188zm2.778 3.34l-.197.032.197-.033zm1.134 6.848l.198-.033-.198.033zm-23.613 1.92l.135-.148-.134.148zm-.01-.01l-.134.149.134-.148zm-1.213.032l-.142-.14.142.14zm-.01.01l.142.14-.141-.14zm-.188.957l-.184.077.184-.077zm1.652-.021l-.187-.072.187.072zm-.258-.994l-.134.15.134-.15zm-.735-.213l.033.197-.033-.197zm-.624.444l.175.097-.175-.097zm-.006.011l-.175-.096.175.096zm.14 1.034l-.145.14.144-.14zm.002.004l.144-.14-.144.14zm1.224.038l-.133-.149-.002.001.135.148zm.01-.009l.134.149-.134-.149zm.194-.256l-.18-.09.18.09zm-.167-.999l-.143.14.002.002.14-.142zm-.004-.004l.143-.14-.001-.001-.142.141zm-.007-.007l.142-.141-.142.141zm-.195-.194l-.142.14v.001l.142-.141zm-9.463-8.659l-.178-.093-.071.137.113.104.136-.148zm.922-1.76l-.178-.093.178.093zm-.023-.858l.171-.102-.171.102zm-.743-.43l.004-.2-.004.2zm-2.248-.034l-.179-.09-.141.285.317.005.003-.2zm2.291-4.594l-.179-.09.18.09zm-1.086-1.22l.068.189-.068-.188zm-10.972 3.97l.068.189-.068-.188zm-3.914 4.706l.197.033-.197-.033zm-1.135 6.85l-.197-.033.197.033zm.72 2.603l-.153.13.153-.13zm2.45 1.135v-.2.2zm23.6-.544l-.185-.077.185.077zm-24.71-1.729l.153-.129-.152.13zm-.325-1.178l-.197-.033.197.033zm1.134-6.849l.198.033-.198-.033zm2.778-3.34l.069.189-.069-.188zm8.906-3.221l.179.09.223-.448-.47.17.068.188zm-1.933 3.877l.179.09-.18-.09zm.035.85l.171-.105-.17.104zm.738.422l.003-.2-.003.2zm2.217.034l.177.093.15-.288-.324-.005-.003.2zm-.574 1.095l.177.093-.177-.093zm.185 1.056l.135-.147-.135.147zm8.492 7.768v.2h.515l-.38-.347-.135.147zm5.237-10.571l-.194-.049.194.049zm-2.284-3.648l-.161.119.16-.119zm-.982-.31l.062.19-.063-.19zm-.463.358l.161.12.007-.01-.168-.11zm-2.1 2.85l.16.12-.16-.12zm-.08.13l-.179-.09.18.09zm.065.896l-.164.114.164-.114zm.895 1.284l.197.031.013-.08-.046-.065-.164.114zm-.953 6.006l-.198-.031.198.031zm2.139 4.273l.175-.096-.175.096zm1.54 0l-.175-.097.176.097zm2.155-4.3l.198-.032-.198.031zm-.948-5.979l-.165-.114-.046.066.013.08.198-.032zm.884-1.27l.164.114-.164-.114zm-2.86 9.3l-.176.097.175.319.175-.319L26 49.82zm-1.127-2.046l-.197-.031-.01.068.032.06.175-.097zm.962-6.058l-.198-.031.198.031zm-.147-.64l-.164.114.164-.114zm-.737-1.058l-.161-.119-.085.115.082.118.164-.114zm1.05-1.426l.162-.118-.16-.22-.162.22.16.118zm1.057 1.439l.164.114.082-.117-.085-.116-.16.119zm-.728 1.045l.164.114-.164-.114zm-.147.64l-.197.031.197-.031zm.957 6.03l.175.097.033-.06-.01-.068-.198.032zm-2.523-8.76a1.08 1.08 0 00-1.508.23l.322.237a.68.68 0 01.95-.145l.236-.323zm-1.508.23l-.109.148.323.237.108-.148-.322-.237zm-.109.148a1.08 1.08 0 00.23 1.508l.237-.323a.68.68 0 01-.144-.948L23 39.363zm.23 1.508c.192.141.417.21.64.21v-.4a.675.675 0 01-.403-.133l-.237.322zm.64.21c.33 0 .656-.151.868-.438l-.322-.238a.678.678 0 01-.547.276v.4zm.868-.438l.11-.15-.322-.237-.11.15.322.237zm.11-.15a1.08 1.08 0 00-.23-1.509l-.238.322a.68.68 0 01.146.95l.322.237zm.056 6.92L22.644 43.3l-.35.193 2.26 4.112.35-.193zm-2.276-3.897l2.112-2.875-.323-.237-2.11 2.875.322.237zm2.112-2.875a1.08 1.08 0 00-.232-1.509l-.236.323a.679.679 0 01.145.95l.323.236zm-.232-1.509a1.078 1.078 0 00-1.508.23l.323.237a.679.679 0 01.949-.144l.236-.323zm-1.508.23l-2.443 3.33.322.236 2.444-3.328-.323-.237zm-2.443 3.33a1.08 1.08 0 00-.076 1.158l.35-.193a.68.68 0 01.048-.729l-.322-.237zm-.076 1.158l2.532 4.603.35-.193-2.532-4.603-.35.193zm2.532 4.603c.196.357.566.56.946.56v-.4a.68.68 0 01-.596-.353l-.35.193zm.946.56c.176-.001.355-.044.52-.135l-.193-.35a.677.677 0 01-.327.084v.4zm.52-.135a1.08 1.08 0 00.425-1.465l-.35.193a.68.68 0 01-.268.922l.192.35zm6.963-6.187l-2.433-3.314-.323.237 2.434 3.314.322-.237zm-2.433-3.314a1.078 1.078 0 00-1.079-.42l.078.393a.678.678 0 01.678.264l.323-.237zm-1.078-.42a1.08 1.08 0 00-.84.797l.389.098a.68.68 0 01.528-.502l-.077-.393zm-.84.797a1.08 1.08 0 00.178.901l.322-.237a.679.679 0 01-.111-.566l-.388-.097zm.178.901l2.1 2.861.323-.236-2.1-2.862-.323.237zm2.087 2.646l-2.246 4.084.35.193 2.246-4.084-.35-.193zm-2.246 4.084a1.08 1.08 0 00-.134.52h.4c0-.114.03-.227.085-.327l-.351-.193zm-.134.52c0 .493.334.923.811 1.046l.1-.388a.68.68 0 01-.51-.657h-.4zm.811 1.046c.09.023.18.034.269.034v-.4a.677.677 0 01-.17-.022l-.099.388zm.269.034c.386 0 .752-.209.945-.56l-.35-.192a.68.68 0 01-.595.352v.4zm.945-.56l2.517-4.575-.35-.192-2.517 4.575.35.193zm2.517-4.575a1.08 1.08 0 00-.076-1.159l-.322.237a.68.68 0 01.047.73l.35.192zm1.249-15.034a1.08 1.08 0 00-1.114.067l.227.33a.68.68 0 01.7-.043l.187-.354zm-2.577 1.218c-2.307 2.085-4.486 1.795-4.54 1.787l-.056.396c.122.017 2.438.306 4.864-1.887l-.268-.296zm-4.537 1.787a1.06 1.06 0 00-.198-.012l.013.4a.52.52 0 01.123.008l.062-.396zm-5.316-2.816a1.079 1.079 0 00-1.11-.059l.188.353a.679.679 0 01.698.037l.224-.331zm-1.11-.059a1.08 1.08 0 00-.573.953h.4c0-.251.139-.482.36-.6l-.187-.353zm-.573.953v3.016h.4v-3.016h-.4zm0 3.016c0 .328.15.637.404.842l.25-.312a.68.68 0 01-.254-.53h-.4zm.404.842c.03.024.062.047.095.067l.215-.337a.657.657 0 01-.059-.042l-.25.312zm.091.065l6.234 4.166.222-.333-6.234-4.166-.222.333zm6.242 4.17a.212.212 0 01-.012-.007l-.005-.004.001.001a.186.186 0 00.008.005l.229-.327.006.004-.007-.005a.192.192 0 00-.014-.01l-.206.344zm-.005-.002l.017.01.222-.332-.017-.01-.222.332zm.017.011c.18.12.388.18.596.18v-.4a.68.68 0 01-.375-.113l-.22.333zm.596.18c.175 0 .35-.043.51-.128l-.188-.353a.682.682 0 01-.322.08v.4zm.51-.128a1.16 1.16 0 00.098-.06l-.225-.33a.67.67 0 01-.061.037l.189.353zm.095-.058a.353.353 0 00.01-.006l-.221-.333-.008.005.22.334zm.008-.005l.014-.009-.224-.331-.007.004.217.336zm.013-.008l6.22-4.156-.223-.333-6.22 4.156.223.333zm6.215-4.154c.03-.019.06-.04.089-.062l-.246-.316a.716.716 0 01-.057.04l.214.338zm.09-.062a1.08 1.08 0 00.414-.85h-.4a.679.679 0 01-.261.535l.246.315zm.414-.85v-3.144h-.4v3.143h.4zm0-3.144a1.08 1.08 0 00-.577-.956l-.186.355a.679.679 0 01.363.6h.4zm-2.07 2.507l-5.386 3.599.222.333 5.387-3.6-.222-.332zm-5.164 3.599l-5.386-3.6-.223.333 5.387 3.6.222-.333zm-5.297-3.433v-.8h-.4v.8h.4zm-.318-.638c.661.48 1.482 1.018 2.339 1.436.854.417 1.761.724 2.592.724v-.4c-.741 0-1.585-.277-2.417-.683-.828-.405-1.628-.928-2.279-1.4l-.235.323zm4.92 2.159c.56.062 3.317.219 6.103-2.225l-.264-.3c-2.671 2.343-5.3 2.182-5.796 2.127l-.043.398zm5.77-2.375v.854h.4v-.854h-.4zm-4.121 5.333a1.079 1.079 0 00-.814-.872l-.093.389a.68.68 0 01.512.549l.395-.066zm-.815-.872a1.08 1.08 0 00-1.12.41l.323.238a.68.68 0 01.705-.26l.092-.388zm-1.12.41l-2.02 2.753.322.237 2.02-2.752-.322-.237zm-2.02 2.753a1.08 1.08 0 00.23 1.509l.237-.322a.68.68 0 01-.145-.95l-.322-.237zm.23 1.509c.193.141.417.21.639.21v-.4a.674.674 0 01-.401-.132l-.237.322zm.639.21c.331 0 .659-.153.87-.441l-.322-.237a.678.678 0 01-.548.277v.4zm.87-.441l2.01-2.738-.322-.237-2.01 2.738.322.237zm2.008-2.735c.14-.184.222-.412.222-.656h-.4a.677.677 0 01-.14.413l.318.243zm.222-.657c0-.059-.005-.118-.014-.177l-.395.066c.006.037.01.075.01.112h.4zM39.593 8.59a6.12 6.12 0 00-.59-1.818c-.47-.936-1.303-2.014-2.758-2.624l-.155.369c1.343.563 2.115 1.557 2.555 2.434.44.88.544 1.633.551 1.69l.397-.051zm-3.228-4.227c.085-.548.078-1.265-.278-1.967l-.357.181c.307.604.317 1.228.24 1.725l.395.061zm-.278-1.967c-.482-.95-1.426-1.547-2.753-1.805l-.076.392c1.25.243 2.063.789 2.472 1.594l.357-.18zM33.334.59a1.076 1.076 0 00-.206-.02v.4c.044 0 .087.004.13.012l.076-.392zm-.206-.02h-11.8v.4h11.8v-.4zm-11.8 0c-4.902 0-8.89 3.988-8.89 8.89h.4c0-4.681 3.809-8.49 8.49-8.49v-.4zm-8.89 8.89v4.63h.4V9.46h-.4zm0 4.63c0 1.252.426 2.472 1.202 3.438l.312-.25a5.104 5.104 0 01-1.114-3.188h-.4zm1.202 3.438c.348.433.785 1.2.85 2.369l.4-.023c-.071-1.265-.546-2.109-.938-2.597l-.312.25zm.85 2.369a1.078 1.078 0 001.109 1.017l-.011-.4a.678.678 0 01-.698-.64l-.4.023zm1.109 1.017a1.08 1.08 0 001.048-1.079h-.4a.68.68 0 01-.66.68l.012.4zm1.048-1.079V13.8h-.4v6.037h.4zm-.005-5.99c.568-2.35 2.502-2.804 2.826-2.864l-.072-.393c-.376.07-2.518.577-3.143 3.164l.389.094zm2.79-2.86h3.817v-.4h-3.817v.4zm15.932 2.857v7.245h.4v-7.245h-.4zm0 7.245c0 .565.436 1.034.999 1.076l.03-.399a.679.679 0 01-.629-.677h-.4zm1 1.076c.026.002.053.003.08.003v-.4c-.016 0-.033 0-.052-.002l-.029.399zm.08.003c.53 0 .986-.388 1.067-.92l-.396-.059a.68.68 0 01-.671.58v.4zm1.067-.919v-.007l.004-.02.013-.076a13.605 13.605 0 01.297-1.252c.227-.787.592-1.789 1.144-2.675l-.34-.212c-1.154 1.853-1.51 4.156-1.514 4.182l.396.06zm1.458-4.03c.413-.663.633-1.42.633-2.19h-.4a3.74 3.74 0 01-.572 1.979l.339.211zm.633-2.19V8.725h-.4v6.302h.4zm0-6.302a.88.88 0 00-.01-.136l-.396.05a.686.686 0 01.006.086h.4zm-2.159 6.302c0 .355-.1.709-.292 1.025l.342.207a2.38 2.38 0 00.35-1.232h-.4zm.08 1.129v-2.374h-.4v2.374h.4zm-7.85-8.425a4.507 4.507 0 00-1.492-.254v.4c.46 0 .92.077 1.36.231l.133-.377zm-1.492-.254a4.5 4.5 0 00-1.6.293l.143.374a4.1 4.1 0 011.457-.267v-.4zm-13.692 6.221v1.81h.4v-1.81h-.4zm.384 1.73a3.374 3.374 0 01-.277-1.338h-.4c0 .52.107 1.03.31 1.497l.367-.159zm-.277-1.338V9.46h-.4v4.63h.4zm0-4.63a6.74 6.74 0 016.732-6.731v-.4a7.14 7.14 0 00-7.132 7.131h.4zm6.732-6.731h11.711v-.4H21.328v.4zm11.67-.005c.233.05.483.124.698.233.216.11.379.246.464.41l.355-.184c-.139-.267-.383-.453-.638-.582a3.31 3.31 0 00-.796-.268l-.083.391zm1.162.643c.106.206.105.467.064.699-.04.23-.113.393-.104.375l.358.179c.009-.019.093-.219.14-.485.046-.264.063-.63-.103-.952l-.355.184zm-.042 1.078a1.08 1.08 0 00.003.926l.361-.173a.679.679 0 01-.002-.583l-.362-.17zm.003.926c.14.293.405.506.72.582l.094-.389a.68.68 0 01-.453-.366l-.36.173zm.72.582c2.11.508 2.547 2.533 2.605 2.872l.394-.067c-.06-.355-.537-2.624-2.905-3.194l-.093.39zm2.602 2.838v6.236h.4V8.791h-.4zm-7.77-1.06a4.511 4.511 0 00-3.091.04l.142.373a4.111 4.111 0 012.817-.036l.133-.377zM14.49 13.698v7.558h.4v-7.558h-.4zm0 7.558v.022l.4-.006v-.016h-.4zm0 .024c.003.14.052 1.776.642 3.737.59 1.959 1.726 4.269 3.923 5.723l.221-.333c-2.086-1.382-3.184-3.59-3.76-5.505-.576-1.914-.623-3.51-.626-3.631l-.4.009zm4.56 9.457l.023.015.23-.326-.022-.016-.23.327zm.023.015l.06.042.223-.332a2.971 2.971 0 01-.053-.036l-.23.326zm.059.042c.24.162.482.338.718.523l.247-.314a12.875 12.875 0 00-.741-.54l-.224.33zm.718.523c.628.494 1.538 1.153 2.528 1.69.984.534 2.072.96 3.05.96v-.4c-.877 0-1.892-.387-2.86-.912-.962-.521-1.852-1.166-2.471-1.652l-.247.314zm5.567 2.649c.107.012.294.027.546.027v-.4c-.235 0-.408-.014-.503-.025l-.043.398zm.546.027c1.087 0 3.383-.285 5.676-2.358l-.268-.297c-2.2 1.99-4.391 2.255-5.408 2.255v.4zm5.676-2.358c.37-.335.787-.663 1.24-.975l-.227-.329c-.466.321-.897.66-1.28 1.007l.267.297zm1.242-.976l.065-.046-.229-.327-.066.046.23.328zm.066-.046c.022-.016.041-.03.061-.042l-.223-.333-.069.048.231.327zm.061-.043c1.48-.993 3.986-3.524 4.511-9.387l-.398-.035c-.514 5.743-2.957 8.165-4.336 9.09l.223.332zm4.511-9.387a1.1 1.1 0 00.005-.096h-.4l-.003.06.398.036zm.005-.096v-7.305h-.4v7.305h.4zm-2.158-.058c-.474 5.177-2.673 7.153-3.561 7.75l.223.332c.989-.664 3.252-2.749 3.736-8.046l-.398-.036zm-3.562 7.75l-.102.07.23.328.096-.067-.224-.331zm-.102.07l-.049.035.23.327.05-.034-.231-.327zm-1.51 1.185c-2.298 2.077-4.47 1.797-4.546 1.786l-.055.396c.144.02 2.452.3 4.869-1.886l-.268-.296zm-4.544 1.786a1.09 1.09 0 00-.19-.012l.011.4c.04 0 .08.002.12.008l.059-.396zm-5.305-2.813l-.02-.015-.233.326.021.015.232-.326zm-.02-.015l-.073-.05-.221.334.061.042.232-.326zm-.073-.05c-1.671-1.106-2.574-2.963-3.058-4.597a13.664 13.664 0 01-.544-3.109l-.4.014c.005.12.064 1.533.56 3.209.496 1.67 1.435 3.635 3.22 4.817l.222-.334zm-3.601-7.699v-7.444h-.4v7.444h.4zm-.006-7.397c.57-2.36 2.516-2.808 2.825-2.865l-.072-.393c-.36.065-2.514.568-3.142 3.164l.389.094zm2.789-2.862h3.818v-.4h-3.818v.4zm15.933 2.858v7.205h.4v-7.205h-.4zM26.966 36.62a1.08 1.08 0 00-.874-.592l-.034.398a.68.68 0 01.55.373l.358-.179zm-.875-.593a1.081 1.081 0 00-.96.437l.322.237c.14-.19.37-.294.605-.275l.033-.398zm-.96.437l-2.107 2.869.323.236 2.106-2.868-.323-.237zm-2.107 2.869a1.08 1.08 0 00.23 1.508l.238-.323a.68.68 0 01-.145-.949l-.323-.236zm.23 1.508c.193.141.417.21.64.21v-.4a.675.675 0 01-.402-.133l-.237.323zm.64.21c.33 0 .657-.152.869-.44l-.322-.237a.678.678 0 01-.547.277v.4zm.869-.44l2.106-2.857-.322-.237-2.106 2.857.322.238zm2.106-2.857a1.11 1.11 0 00.21-.651h-.4a.711.711 0 01-.132.414l.322.237zm.21-.651c0-.168-.039-.333-.113-.482l-.358.178a.68.68 0 01.071.304h.4zm-.092 13.624a1.079 1.079 0 00-1.508-.05l.27.295a.679.679 0 01.95.032l.288-.277zm-1.508-.05l-.2.183.27.296.2-.184-.27-.295zm-.2.183a1.08 1.08 0 00-.215 1.323l.35-.195a.679.679 0 01.134-.832l-.27-.296zm-.215 1.323l.007.011.349-.195-.007-.011-.349.195zm.007.01c.164.296.458.497.793.544l.055-.396a.679.679 0 01-.5-.342l-.348.195zm.793.544c.05.007.1.01.149.01v-.4a.689.689 0 01-.094-.006l-.055.396zm.149.01c.284 0 .56-.112.763-.316l-.283-.283a.68.68 0 01-.48.199v.4zm.763-.316l.195-.195-.283-.283-.195.195.283.283zm.195-.195a1.079 1.079 0 00.016-1.509l-.289.277a.679.679 0 01-.01.95l.283.282zm-.249-1.376l-.201-.183-.27.295.201.184.27-.296zm-.201-.183a1.08 1.08 0 00-1.508.05l.289.277a.68.68 0 01.949-.032l.27-.295zm-1.508.05a1.08 1.08 0 00.017 1.51l.282-.284a.68.68 0 01-.01-.95l-.29-.276zm.017 1.51l.195.194.282-.283-.195-.195-.282.283zm.195.194c.203.204.478.316.763.316v-.4a.68.68 0 01-.48-.199l-.283.283zm.763.316c.05 0 .101-.003.153-.01l-.057-.397a.684.684 0 01-.096.007v.4zm.152-.01a1.08 1.08 0 00.794-.55l-.35-.192a.68.68 0 01-.5.345l.056.396zm.793-.548l.006-.012-.349-.195-.006.011.349.196zm.007-.013a1.08 1.08 0 00-.218-1.316l-.27.296a.68.68 0 01.137.828l.351.192zm-.203-1.302l-.001-.001-.27.295.001.002.27-.296zm0 0a1.079 1.079 0 00-.62-.284l-.043.398a.67.67 0 01.39.179l.273-.292zm-.62-.284a1.08 1.08 0 00-.852.283l.272.293a.68.68 0 01.537-.178l.044-.398zm-.852.282l-.002.003.271.294.003-.003-.272-.294zm-.002.002a1.079 1.079 0 00-.351.774l.4.009a.679.679 0 01.221-.487l-.27-.296zm-.351.774c-.006.296.108.58.318.788l.282-.283a.679.679 0 01-.2-.496l-.4-.009zm.318.788l.009.01.283-.283-.01-.01-.282.283zm.01.01c.21.21.485.314.76.314v-.4a.677.677 0 01-.479-.198l-.282.284zm.76.314c.276 0 .552-.106.763-.316l-.283-.283a.677.677 0 01-.48.199v.4zm.763-.316l.01-.01-.284-.282-.009.009.283.283zm.01-.01a1.08 1.08 0 00.315-.787l-.4.009a.679.679 0 01-.199.496l.283.282zm.315-.787a1.078 1.078 0 00-.351-.773l-.27.296c.137.125.217.3.221.486l.4-.01zm-.742-15.586a1.082 1.082 0 00-1.209.405l.326.232a.682.682 0 01.762-.256l.121-.38zm-1.209.405a1.078 1.078 0 00.116 1.386l.284-.282a.678.678 0 01-.074-.872l-.326-.232zm.116 1.386c.21.21.487.317.765.317v-.4a.677.677 0 01-.481-.2l-.284.283zm.765.317c.217 0 .435-.065.623-.197l-.23-.327a.68.68 0 01-.393.124v.4zm.623-.197c.287-.202.458-.531.458-.882h-.4a.68.68 0 01-.288.555l.23.327zm.458-.882v-.003h-.4v.003h.4zm0-.003c0-.47-.306-.883-.753-1.026l-.121.381c.282.09.474.35.474.645h.4zm-.223-.631l-.008-.01-.321.238.007.01.322-.238zm-.008-.01a1.08 1.08 0 00-1.205-.383l.125.38a.68.68 0 01.758.24l.322-.237zm-1.205-.383a1.08 1.08 0 00-.742 1.025h.4a.68.68 0 01.467-.646l-.125-.38zm-.742 1.025v.014h.4v-.014h-.4zm0 .014c0 .4.224.762.573.949l.189-.353a.679.679 0 01-.362-.596h-.4zm.573.949c.159.085.334.127.508.127v-.4a.675.675 0 01-.32-.08l-.188.353zm.508.127c.21 0 .42-.06.602-.18l-.221-.334a.689.689 0 01-.38.114v.4zm.601-.18a1.08 1.08 0 00.467-.713l-.393-.07a.68.68 0 01-.294.449l.22.333zm.467-.713a1.078 1.078 0 00-.194-.829l-.322.238c.11.15.155.338.123.522l.393.07zm9.576-3.543a1.078 1.078 0 00-.645-.633l-.135.376a.678.678 0 01.406.399l.374-.142zm-.645-.633L32.63 31.9l-.135.377 3.371 1.208.135-.376zM32.63 31.9a1.064 1.064 0 00-.104-.031l-.095.388a.65.65 0 01.064.02l.135-.377zm-.103-.03a1.079 1.079 0 00-.861.149l.222.332a.678.678 0 01.542-.094l.097-.388zm-.861.149L25.42 36.19l.222.333 6.246-4.174-.222-.332zm-6.248 4.175l.002-.002-.01.007.231.326-.003.003.002-.002.004-.003-.226-.33zm-.058.28l.49.729.332-.223-.49-.73-.332.224zm.82.503l-.5-.722-.33.229.502.721.328-.228zm-.776-.774a1.08 1.08 0 00-.45.638l.387.097a.679.679 0 01.284-.402l-.22-.333zm-.45.638a1.08 1.08 0 00-.018.44l.394-.066a.679.679 0 01.011-.277l-.388-.097zm-.018.44c.027.166.094.324.194.46l.323-.236a.682.682 0 01-.123-.29l-.394.065zm.194.46l4.573 6.229.323-.237-4.573-6.228-.323.237zm4.573 6.229c.204.278.528.44.87.44v-.4a.679.679 0 01-.547-.277l-.323.237zm.87.44c.024 0 .048 0 .071-.002l-.027-.4a.598.598 0 01-.044.002v.4zm.07-.002a1.08 1.08 0 00.876-.557l-.35-.192a.68.68 0 01-.552.35l.026.399zm.876-.557l5.063-9.206-.35-.193-5.064 9.207.35.192zm5.063-9.206c.153-.277.176-.607.064-.903l-.374.142a.679.679 0 01-.04.568l.35.193zm-5.954 6.937l-3.214-4.377-.323.236 3.214 4.378.323-.237zm-3.264-4.093l5.133-3.43-.222-.332-5.134 3.43.223.332zm4.954-3.408l1.984.712.135-.377-1.984-.711-.135.376zm1.876.427l-3.903 7.096.35.193 3.904-7.096-.35-.193zm-7.13 2.409a1.079 1.079 0 00-.462-.71l-.223.332a.68.68 0 01.29.447l.395-.07zm-.462-.71l-6.267-4.188-.222.332 6.266 4.188.223-.333zm-6.267-4.188a1.08 1.08 0 00-.834-.156l.086.39a.68.68 0 01.526.098l.222-.332zm-.834-.156c-.045.01-.088.022-.13.037l.135.377a.67.67 0 01.081-.024l-.086-.39zm-.13.037L16 33.108l.135.376 3.37-1.208-.134-.377zM16 33.108a1.079 1.079 0 00-.645.634l.374.141a.679.679 0 01.406-.399L16 33.108zm-.645.634a1.08 1.08 0 00.063.902l.35-.193a.68.68 0 01-.04-.568l-.373-.142zm.063.902l5.064 9.206.35-.193-5.063-9.206-.35.193zm5.064 9.206c.177.323.508.533.875.557l.026-.4a.68.68 0 01-.55-.35l-.351.193zm.875.557a.83.83 0 00.07.002v-.4l-.044-.001-.026.399zm.07.002c.343 0 .666-.162.87-.44l-.322-.237a.68.68 0 01-.548.277v.4zm.87-.44l2.444-3.328-.323-.237-2.443 3.328.322.237zm2.442-3.325a.37.37 0 00.01-.014l-.327-.23-.002.002.319.242zm.008-.011l2.123-2.893-.322-.236-2.124 2.892.323.237zm2.123-2.893a1.08 1.08 0 00.194-.824l-.394.069a.68.68 0 01-.122.519l.322.236zm-3.868 1.621a.605.605 0 00-.007.01l.001-.001.32.24.007-.01c.002-.002 0 0 0 .001l-.32-.24zm-.007.01l-1.622 2.21.322.237 1.622-2.21-.322-.236zm-1.286 2.232l-3.903-7.096-.35.193 3.903 7.096.35-.193zm-4.01-6.812l1.983-.71-.135-.377-1.984.711.135.377zm1.805-.733l5.133 3.43.222-.332-5.133-3.43-.222.332zm5.083 3.146L23 39.363l.323.237 1.585-2.16-.322-.236zm27.567 11.584L51.02 41.94l-.395.065 1.134 6.848.395-.065zM51.02 41.94a6.262 6.262 0 00-4.044-4.861l-.136.376a5.862 5.862 0 013.785 4.55l.395-.066zm-4.044-4.861l-10.972-3.97-.136.376 10.972 3.97.136-.377zm-10.972-3.97a1.079 1.079 0 00-1.173.297l.298.266a.68.68 0 01.739-.187l.136-.376zm-1.173.297a1.08 1.08 0 00-.16 1.2l.358-.18a.68.68 0 01.1-.754l-.298-.266zm-.16 1.2l2.29 4.593.359-.178-2.291-4.594-.358.178zm2.467 4.304l-2.248.035.006.4 2.248-.035-.006-.4zm-2.248.035a1.08 1.08 0 00-.911.527l.344.205a.679.679 0 01.573-.332l-.006-.4zm-.911.527a1.08 1.08 0 00-.029 1.053l.355-.186a.68.68 0 01.017-.662l-.343-.205zm-.029 1.053l.922 1.76.355-.186-.922-1.76-.355.186zm.964 1.52l-9.435 8.63.27.296 9.435-8.631-.27-.295zm-9.435 8.63a1.128 1.128 0 00-.035.034l.283.283a.63.63 0 01.022-.021l-.27-.295zm-.035.034l-.195.195.283.283.195-.195-.283-.283zm-.195.195c-.338.339-.413.86-.183 1.28l.35-.191a.68.68 0 01.116-.806l-.283-.283zm-.183 1.282l.007.012.35-.193-.007-.013-.35.194zm.007.011c.189.346.552.562.947.562v-.4a.68.68 0 01-.596-.354l-.351.192zm.947.562h22.767v-.4H26.02v.4zm22.767 0c1.005 0 1.953-.44 2.603-1.206l-.305-.259a3.007 3.007 0 01-2.298 1.065v.4zm2.603-1.206c.65-.766.928-1.774.764-2.765l-.395.066c.145.874-.1 1.764-.674 2.44l.305.26zm-1.646-1.396a1.252 1.252 0 01-.957.443v.4c.487 0 .947-.213 1.262-.584l-.305-.259zm-.957.443H28.244v.4h20.543v-.4zm-20.408.348l8.492-7.768-.27-.295-8.492 7.768.27.295zm8.492-7.768c.362-.33.455-.863.228-1.297l-.355.186a.679.679 0 01-.143.816l.27.295zm.228-1.297l-.574-1.095-.354.186.573 1.095.355-.186zm-.748-.802l2.217-.034-.006-.4-2.217.034.006.4zm2.217-.034a1.08 1.08 0 00.905-.518l-.341-.209a.68.68 0 01-.57.327l.006.4zm.905-.519c.193-.317.21-.71.044-1.042l-.358.178a.68.68 0 01-.028.657l.342.207zm.044-1.042l-1.934-3.877-.358.178 1.934 3.877.358-.178zm-2.18-3.6l8.905 3.222.136-.376-8.906-3.222-.136.376zm8.905 3.222a4.102 4.102 0 012.649 3.184l.395-.065a4.503 4.503 0 00-2.908-3.495l-.136.376zm2.649 3.184l1.134 6.849.395-.066-1.135-6.848-.394.065zm1.134 6.849c.06.364-.042.734-.281 1.016l.305.259c.315-.372.45-.86.37-1.34l-.394.065zm-23.282 1.738l-.01-.009-.268.297.01.01.268-.298zm-.01-.009a1.08 1.08 0 00-1.489.04l.284.282a.68.68 0 01.937-.025l.268-.297zm-1.49.04l-.008.01.284.28.009-.009-.284-.281zm-.008.009a1.08 1.08 0 00-.231 1.175l.369-.154a.68.68 0 01.145-.74l-.283-.281zm-.231 1.175c.167.403.56.665.996.665v-.4a.68.68 0 01-.627-.419l-.37.154zm.997.665h.02l-.002-.4h-.02l.002.4zm.018 0c.447 0 .847-.275 1.007-.691l-.373-.144a.679.679 0 01-.633.435v.4zm1.007-.691a1.077 1.077 0 00-.282-1.188l-.269.296a.679.679 0 01.178.748l.373.144zm-.31-1.214a1.078 1.078 0 00-.903-.262l.067.394a.678.678 0 01.568.165l.268-.297zm-.902-.262a1.079 1.079 0 00-.766.545l.35.192a.679.679 0 01.482-.343l-.066-.394zm-.766.545l-.006.01.35.194.006-.011-.35-.193zm-.006.011a1.08 1.08 0 00.17 1.27l.288-.279a.68.68 0 01-.108-.799l-.35-.192zm.17 1.27l.003.003.288-.279-.003-.003-.288.278zm.003.003c.212.218.494.328.776.328v-.4a.677.677 0 01-.488-.206l-.288.278zm.776.328c.26 0 .52-.093.727-.282l-.27-.295a.676.676 0 01-.457.178v.4zm.726-.28l.01-.01-.268-.296-.01.008.268.297zm.01-.01a1.08 1.08 0 00.239-.315l-.358-.179a.678.678 0 01-.15.198l.27.296zm.238-.315c.219-.436.11-.967-.25-1.29l-.267.297a.689.689 0 01.16.814l.357.18zm-.202-1.227l-.004-.004-.286.279.004.004.286-.28zm-.005-.006l-.007-.007-.283.283.007.007.283-.283zm-.008-.007l-.195-.195-.282.283.195.195.282-.283zm-.194-.194a.808.808 0 00-.036-.035l-.268.297.02.02.284-.282zm-.035-.034l-9.436-8.631-.27.295 9.436 8.63.27-.294zm-9.393-8.391l.922-1.76-.355-.186-.922 1.76.355.186zm.922-1.76a1.08 1.08 0 00-.029-1.053l-.343.205a.68.68 0 01.017.662l.355.186zm-.029-1.053a1.08 1.08 0 00-.91-.527l-.007.4a.68.68 0 01.574.332l.343-.205zm-.91-.527l-2.249-.035-.006.4 2.248.035.006-.4zm-2.073.254l2.291-4.594-.358-.178-2.29 4.594.357.178zm2.291-4.594a1.08 1.08 0 00-.16-1.2l-.299.267a.68.68 0 01.101.755l.358.178zm-.16-1.2a1.079 1.079 0 00-1.173-.296l.137.376a.679.679 0 01.738.187l.298-.266zm-1.173-.296l-10.972 3.97.136.376 10.972-3.97-.136-.376zm-10.972 3.97a6.263 6.263 0 00-4.044 4.86l.395.066a5.862 5.862 0 013.785-4.55l-.136-.377zM.98 41.938l-1.134 6.85.395.065 1.134-6.85-.395-.064zm-1.134 6.85a3.407 3.407 0 00.764 2.764l.305-.258a3.007 3.007 0 01-.674-2.442l-.395-.065zm.764 2.764a3.408 3.408 0 002.603 1.206v-.4a3.008 3.008 0 01-2.298-1.065l-.305.26zm2.603 1.206H26v-.4H3.213v.4zm22.787 0c.437 0 .831-.264.998-.668l-.37-.152a.679.679 0 01-.628.42v.4zm.998-.668a1.08 1.08 0 00-.237-1.177l-.282.284a.68.68 0 01.149.74l.37.153zM3.213 50.6c-.37 0-.718-.162-.957-.444l-.305.259c.315.371.775.584 1.262.584v-.4zm-.957-.444a1.253 1.253 0 01-.28-1.016l-.395-.066c-.08.48.055.97.37 1.34l.305-.258zm-.28-1.016l1.134-6.849-.395-.065-1.134 6.848.395.066zm1.134-6.849a4.102 4.102 0 012.649-3.184l-.137-.376a4.502 4.502 0 00-2.907 3.495l.395.065zm2.649-3.184l8.905-3.222-.136-.376-8.906 3.222.137.376zm8.658-3.5l-1.933 3.878.358.178 1.933-3.877-.358-.178zm-1.933 3.878c-.166.332-.15.725.043 1.042l.342-.208a.679.679 0 01-.027-.656l-.358-.178zm.043 1.042c.193.317.535.513.906.519l.006-.4a.679.679 0 01-.57-.327l-.342.208zm.906.519l2.217.034.006-.4-2.217-.034-.006.4zm2.043-.26l-.574 1.096.354.186.574-1.096-.354-.185zm-.574 1.096a1.08 1.08 0 00.227 1.297l.27-.295a.679.679 0 01-.143-.816l-.354-.186zm.227 1.297l8.492 7.768.27-.295-8.492-7.768-.27.295zm8.627 7.42H3.213v.4h20.543v-.4zm5.43-10.323a1.078 1.078 0 00-.176-.9l-.323.237c.12.163.16.37.112.566l.388.097zm-.176-.9l-2.14-2.914-.322.237 2.14 2.914.322-.237zm-2.14-2.914a1.076 1.076 0 00-1.206-.381l.125.38a.677.677 0 01.759.238l.322-.237zm-1.206-.381c-.24.078-.437.237-.568.439l.336.217a.677.677 0 01.357-.276l-.125-.38zm-.56.429l-2.101 2.85.322.237 2.1-2.85-.322-.237zm-2.101 2.85c-.037.05-.07.103-.098.159l.358.178a.679.679 0 01.061-.1l-.321-.237zm-.098.159a1.08 1.08 0 00.08 1.099l.328-.229a.68.68 0 01-.05-.691l-.358-.18zm.08 1.099l.894 1.284.329-.228-.895-1.285-.328.229zm.861 1.139l-.953 6.006.395.063.953-6.007-.395-.062zm-.953 6.006c-.037.237.005.479.12.689l.351-.193a.68.68 0 01-.076-.433l-.395-.063zm.12.689l2.042 3.711.35-.193-2.04-3.71-.351.192zm2.042 3.711c.19.345.552.56.945.56v-.4a.68.68 0 01-.595-.352l-.35.192zm.945.56c.394 0 .756-.215.946-.56l-.35-.193a.68.68 0 01-.596.352v.4zm.946-.56l2.056-3.738-.35-.193-2.057 3.738.35.193zm2.056-3.738a1.08 1.08 0 00.134-.52h-.4a.681.681 0 01-.084.327l.35.193zm.134-.52c0-.057-.005-.114-.013-.17l-.396.062a.712.712 0 01.009.108h.4zm-.014-.17l-.948-5.978-.395.063.948 5.977.395-.062zm-.981-5.832l.884-1.27-.328-.23-.885 1.27.329.23zm.885-1.272c.074-.107.129-.227.16-.355l-.387-.096a.687.687 0 01-.102.224l.329.227zm-2.85 9.092l-1.126-2.047-.35.193 1.125 2.046.35-.192zm-1.104-1.92l.961-6.058-.395-.062-.961 6.058.395.063zm.961-6.058a1.079 1.079 0 00-.18-.785l-.328.228c.1.144.14.321.113.495l.395.062zm-.18-.785l-.737-1.058-.328.228.737 1.058.328-.228zm-.74-.825l1.05-1.426-.321-.238-1.051 1.426.322.237zm.729-1.427l1.056 1.439.322-.237-1.056-1.438-.322.236zm1.053 1.206l-.728 1.046.328.228.728-1.045-.328-.229zm-.728 1.046c-.16.228-.224.51-.18.785l.395-.062a.68.68 0 01.113-.495l-.328-.228zm-.18.785l.957 6.03.395-.062-.957-6.03-.395.062zm.979 5.903l-1.141 2.075.35.192 1.141-2.074-.35-.193z" fill="#D2374A" mask="url(#a)"/></svg>