<svg width="62" height="50" fill="none" xmlns="http://www.w3.org/2000/svg"><mask id="a" fill="#fff"><path d="M48.654 11.24H13.348a.898.898 0 00-.909.886c0 .49.407.886.91.886h35.305a.898.898 0 00.909-.886.898.898 0 00-.91-.886zm0 9.647H13.348a.898.898 0 00-.909.886c0 .49.407.886.91.886h35.305a.898.898 0 00.909-.886.898.898 0 00-.91-.886zm-11.575 6.261H24.923a.898.898 0 00-.909.886c0 .49.407.886.909.886h12.156a.898.898 0 00.909-.886.898.898 0 00-.909-.886zm11.575-11.104H22.319a.898.898 0 00-.909.886c0 .489.407.886.909.886h26.335a.898.898 0 00.909-.886.898.898 0 00-.91-.886zm-30.564 0h-4.742a.898.898 0 00-.909.886c0 .489.407.886.91.886h4.741a.898.898 0 00.91-.886.898.898 0 00-.91-.886z"/><path d="M57.309 9.742a1.134 1.134 0 00-.79-.314c-1.842 0-3.35-1.403-3.433-3.196a1.104 1.104 0 00-1.12-1.04H9.82c-.6 0-1.092.457-1.119 1.04-.079 1.714-1.517 3.116-3.275 3.193a1.101 1.101 0 00-1.066 1.09v22.903a1.1 1.1 0 001.066 1.09c1.758.078 3.196 1.48 3.275 3.193.027.583.519 1.04 1.119 1.04h26.832a.898.898 0 00.908-.886.898.898 0 00-.908-.886H10.444c-.376-2.134-2.078-3.794-4.268-4.16V11.125c2.19-.367 3.892-2.027 4.268-4.16h40.898c.391 2.201 2.21 3.9 4.484 4.191v15.047c0 .49.407.886.909.886a.898.898 0 00.909-.886V10.52a1.07 1.07 0 00-.335-.779z"/><path d="M59.478.77H2.524C1.133.77.001 1.873.001 3.23v37.474c0 1.356 1.132 2.46 2.523 2.46h38.15l-1.35 2.758c-.174.355-.132.77.11 1.084.24.314.638.47 1.035.409l2.515-.394 1.403 2.244a1.084 1.084 0 00.976.504 1.08 1.08 0 00.92-.598l2.437-4.978 2.437 4.977a1.08 1.08 0 00.975.6c.375 0 .725-.19.922-.505l1.402-2.244 2.515.394a1.09 1.09 0 001.036-.409c.24-.315.283-.73.11-1.083l-1.351-2.76h2.712c1.391 0 2.523-1.103 2.523-2.459V3.23c0-1.356-1.132-2.459-2.523-2.459zM45.23 47.208l-.952-1.522a1.086 1.086 0 00-1.093-.492l-1.615.253 1.701-3.474a3.287 3.287 0 002.617.936 1.45 1.45 0 01.956.25c.092.063.187.12.283.173l-1.897 3.876zm3.707-5.254l-.009.001a1.458 1.458 0 01-1.03-.24 3.295 3.295 0 00-2.181-.57 1.426 1.426 0 01-1.425-.802 3.14 3.14 0 00-.419-.658l-.023-.029c-.01-.01-.018-.022-.027-.033a3.232 3.232 0 00-1.128-.836 1.38 1.38 0 01-.822-1.389 3.098 3.098 0 00-.584-2.125 1.357 1.357 0 010-1.604c.45-.617.657-1.372.584-2.126a1.38 1.38 0 01.822-1.388 3.199 3.199 0 001.597-1.557 1.428 1.428 0 011.425-.801 3.302 3.302 0 002.18-.57 1.451 1.451 0 011.645 0c.634.439 1.407.64 2.181.57a1.426 1.426 0 011.425.801c.323.689.89 1.242 1.597 1.556.549.245.88.803.822 1.39a3.098 3.098 0 00.584 2.125c.35.48.35 1.124 0 1.604a3.098 3.098 0 00-.584 2.125 1.38 1.38 0 01-.823 1.39 3.23 3.23 0 00-1.128.836l-.023.029a3.14 3.14 0 00-.444.691 1.427 1.427 0 01-1.426.801 3.305 3.305 0 00-2.18.57 1.438 1.438 0 01-.606.24zm5.318 3.24a1.086 1.086 0 00-1.093.492l-.952 1.522-1.897-3.876c.096-.053.191-.11.283-.173.277-.192.618-.282.956-.25a3.286 3.286 0 002.617-.936l1.7 3.474-1.614-.253zm5.928-4.49a.697.697 0 01-.705.688h-3.58l-.469-.958.072-.036c1.252-.558 2.006-1.83 1.876-3.167-.032-.33.059-.661.256-.932a3.094 3.094 0 000-3.657 1.358 1.358 0 01-.256-.932c.13-1.336-.624-2.608-1.876-3.167a1.404 1.404 0 01-.7-.682c-.573-1.22-1.88-1.955-3.25-1.829a1.446 1.446 0 01-.955-.25 3.308 3.308 0 00-3.752 0 1.447 1.447 0 01-.956.25c-1.372-.126-2.676.609-3.249 1.829a1.4 1.4 0 01-.7.682c-1.252.559-2.005 1.831-1.876 3.167a1.36 1.36 0 01-.256.932 3.094 3.094 0 000 3.657c.197.27.288.602.256.932-.13 1.336.624 2.609 1.876 3.167.024.011.048.024.071.036l-.468.958H2.524a.697.697 0 01-.705-.688V3.229c0-.379.316-.687.705-.687h56.954c.389 0 .705.308.705.687v37.475z"/><path d="M48.654 28.966c-3.114 0-5.647 2.47-5.647 5.505 0 3.035 2.533 5.505 5.647 5.505 3.113 0 5.647-2.47 5.647-5.505 0-3.036-2.534-5.505-5.647-5.505zm0 9.237c-2.112 0-3.83-1.674-3.83-3.732 0-2.058 1.718-3.733 3.83-3.733 2.111 0 3.829 1.675 3.829 3.733s-1.718 3.732-3.83 3.732z"/></mask><path d="M48.654 11.24H13.348a.898.898 0 00-.909.886c0 .49.407.886.91.886h35.305a.898.898 0 00.909-.886.898.898 0 00-.91-.886zm0 9.647H13.348a.898.898 0 00-.909.886c0 .49.407.886.91.886h35.305a.898.898 0 00.909-.886.898.898 0 00-.91-.886zm-11.575 6.261H24.923a.898.898 0 00-.909.886c0 .49.407.886.909.886h12.156a.898.898 0 00.909-.886.898.898 0 00-.909-.886zm11.575-11.104H22.319a.898.898 0 00-.909.886c0 .489.407.886.909.886h26.335a.898.898 0 00.909-.886.898.898 0 00-.91-.886zm-30.564 0h-4.742a.898.898 0 00-.909.886c0 .489.407.886.91.886h4.741a.898.898 0 00.91-.886.898.898 0 00-.91-.886z" fill="#fff"/><path d="M57.309 9.742a1.134 1.134 0 00-.79-.314c-1.842 0-3.35-1.403-3.433-3.196a1.104 1.104 0 00-1.12-1.04H9.82c-.6 0-1.092.457-1.119 1.04-.079 1.714-1.517 3.116-3.275 3.193a1.101 1.101 0 00-1.066 1.09v22.903a1.1 1.1 0 001.066 1.09c1.758.078 3.196 1.48 3.275 3.193.027.583.519 1.04 1.119 1.04h26.832a.898.898 0 00.908-.886.898.898 0 00-.908-.886H10.444c-.376-2.134-2.078-3.794-4.268-4.16V11.125c2.19-.367 3.892-2.027 4.268-4.16h40.898c.391 2.201 2.21 3.9 4.484 4.191v15.047c0 .49.407.886.909.886a.898.898 0 00.909-.886V10.52a1.07 1.07 0 00-.335-.779z" fill="#fff"/><path d="M59.478.77H2.524C1.133.77.001 1.873.001 3.23v37.474c0 1.356 1.132 2.46 2.523 2.46h38.15l-1.35 2.758c-.174.355-.132.77.11 1.084.24.314.638.47 1.035.409l2.515-.394 1.403 2.244a1.084 1.084 0 00.976.504 1.08 1.08 0 00.92-.598l2.437-4.978 2.437 4.977a1.08 1.08 0 00.975.6c.375 0 .725-.19.922-.505l1.402-2.244 2.515.394a1.09 1.09 0 001.036-.409c.24-.315.283-.73.11-1.083l-1.351-2.76h2.712c1.391 0 2.523-1.103 2.523-2.459V3.23c0-1.356-1.132-2.459-2.523-2.459zM45.23 47.208l-.952-1.522a1.086 1.086 0 00-1.093-.492l-1.615.253 1.701-3.474a3.287 3.287 0 002.617.936 1.45 1.45 0 01.956.25c.092.063.187.12.283.173l-1.897 3.876zm3.707-5.254l-.009.001a1.458 1.458 0 01-1.03-.24 3.295 3.295 0 00-2.181-.57 1.426 1.426 0 01-1.425-.802 3.14 3.14 0 00-.419-.658l-.023-.029c-.01-.01-.018-.022-.027-.033a3.232 3.232 0 00-1.128-.836 1.38 1.38 0 01-.822-1.389 3.098 3.098 0 00-.584-2.125 1.357 1.357 0 010-1.604c.45-.617.657-1.372.584-2.126a1.38 1.38 0 01.822-1.388 3.199 3.199 0 001.597-1.557 1.428 1.428 0 011.425-.801 3.302 3.302 0 002.18-.57 1.451 1.451 0 011.645 0c.634.439 1.407.64 2.181.57a1.426 1.426 0 011.425.801c.323.689.89 1.242 1.597 1.556.549.245.88.803.822 1.39a3.098 3.098 0 00.584 2.125c.35.48.35 1.124 0 1.604a3.098 3.098 0 00-.584 2.125 1.38 1.38 0 01-.823 1.39 3.23 3.23 0 00-1.128.836l-.023.029a3.14 3.14 0 00-.444.691 1.427 1.427 0 01-1.426.801 3.305 3.305 0 00-2.18.57 1.438 1.438 0 01-.606.24zm5.318 3.24a1.086 1.086 0 00-1.093.492l-.952 1.522-1.897-3.876c.096-.053.191-.11.283-.173.277-.192.618-.282.956-.25a3.286 3.286 0 002.617-.936l1.7 3.474-1.614-.253zm5.928-4.49a.697.697 0 01-.705.688h-3.58l-.469-.958.072-.036c1.252-.558 2.006-1.83 1.876-3.167-.032-.33.059-.661.256-.932a3.094 3.094 0 000-3.657 1.358 1.358 0 01-.256-.932c.13-1.336-.624-2.608-1.876-3.167a1.404 1.404 0 01-.7-.682c-.573-1.22-1.88-1.955-3.25-1.829a1.446 1.446 0 01-.955-.25 3.308 3.308 0 00-3.752 0 1.447 1.447 0 01-.956.25c-1.372-.126-2.676.609-3.249 1.829a1.4 1.4 0 01-.7.682c-1.252.559-2.005 1.831-1.876 3.167a1.36 1.36 0 01-.256.932 3.094 3.094 0 000 3.657c.197.27.288.602.256.932-.13 1.336.624 2.609 1.876 3.167.024.011.048.024.071.036l-.468.958H2.524a.697.697 0 01-.705-.688V3.229c0-.379.316-.687.705-.687h56.954c.389 0 .705.308.705.687v37.475z" fill="#fff"/><path d="M48.654 28.966c-3.114 0-5.647 2.47-5.647 5.505 0 3.035 2.533 5.505 5.647 5.505 3.113 0 5.647-2.47 5.647-5.505 0-3.036-2.534-5.505-5.647-5.505zm0 9.237c-2.112 0-3.83-1.674-3.83-3.732 0-2.058 1.718-3.733 3.83-3.733 2.111 0 3.829 1.675 3.829 3.733s-1.718 3.732-3.83 3.732z" fill="#fff"/><path d="M37.988 28.034h-.2.2zm19.32-18.292l.14-.144-.14.144zm-4.222-3.51l.2-.01-.2.01zm-44.386 0l-.2-.009.2.01zM5.425 9.426l.01.2-.01-.2zm0 25.083l.01-.2-.01.2zM8.7 37.701l-.2.01.2-.01zm1.744-.732l-.197.034.03.166h.167v-.2zm-4.268-4.16h-.2v.169l.167.028.033-.197zm0-21.684l-.033-.197-.167.027v.17h.2zm4.268-4.16v-.2h-.168l-.029.165.197.035zm40.898 0l.197-.035-.03-.165h-.167v.2zm4.484 4.191h.2v-.176l-.175-.022-.025.198zm1.818-.636h-.2.2zm-16.97 32.643l.18.088.14-.288h-.32v.2zm-1.35 2.76l.18.087-.18-.088zm.11 1.083l-.16.122.16-.122zm1.035.409l.031.197-.03-.197zm2.515-.394l.17-.106-.07-.112-.131.02.03.198zm1.403 2.244l.17-.106-.17.106zm.976.504l-.01-.2.01.2zm.92-.598l.18.088-.18-.088zm2.437-4.978l.18-.088-.18-.367-.18.367.18.088zm2.437 4.977l.18-.087-.18.087zm.92.599l.01-.2-.01.2zm.977-.504l-.17-.106.17.106zm1.402-2.244l.031-.198-.13-.02-.07.112.17.106zm2.515.394l-.031.198.03-.198zm1.036-.409l-.159-.122.159.122zm.11-1.083l-.18.087.18-.087zm-1.351-2.76v-.2h-.321l.141.289.18-.088zM45.23 47.209l-.17.106.19.305.16-.323-.18-.088zm-.952-1.522l-.17.106.17-.106zm-1.093-.492l-.031-.197.03.197zm-1.615.253l-.18-.088-.168.346.38-.06-.032-.198zm1.701-3.474l.141-.142-.198-.196-.122.25.18.088zm2.617.936l.018.2-.018-.2zm.956.25l.114-.164-.114.164zm.283.173l.18.088.084-.171-.167-.092-.097.175zm1.81-1.378l.025.199.005-.001-.03-.198zm-.009.001l.029.198h.003l-.032-.198zm-.415 0l.028-.198h-.002l-.026.198zm-.01 0l-.03.197h.002l.027-.198zm-.606-.24l-.114.164.114-.164zm-2.18-.57l-.019-.199.019.2zm-1.425-.802l.181-.085-.181.085zm-.419-.658l-.162.118.008.01.154-.128zm-.023-.029l.157-.124-.004-.005-.153.129zm-.027-.033l.152-.13-.001-.002-.15.132zm-.033-.035l-.15.133.008.008.142-.14zm-1.095-.8l-.081.182.081-.183zm-.822-1.39l.199.02-.2-.02zm-.584-2.125l.161-.118-.161.118zm0-1.604l-.162-.118.161.118zm.584-2.126l.199-.019-.2.02zm.822-1.388l-.081-.183.081.183zm1.597-1.557l-.181-.085.18.085zm1.425-.801l-.019.199.019-.2zm2.18-.57l-.114-.165.114.165zm1.645 0l-.113.164.113-.164zm2.181.57l.019.199-.019-.2zm1.425.801l.181-.085-.18.085zm1.597 1.556l.081-.182-.081.182zm.822 1.39l-.199-.02.2.02zm.584 2.125l.162-.118-.162.118zm0 1.604l-.161-.118.161.118zm-.584 2.125l-.199.02.2-.02zm-.823 1.39l-.081-.183.081.182zm-1.092.798l.142.14.007-.007-.15-.133zm-.036.038l-.151-.13h-.001l.152.13zm-.023.029l-.153-.13-.003.004.156.126zm-.027.034l.155.127.007-.01-.162-.117zm-.418.657l.181.084-.18-.084zm-1.425.801l.019-.199-.019.2zm-2.18.57l-.114-.165.113.165zm4.712 3.48l.03-.198-.03.197zm-1.093.49l-.17-.105.17.106zm-.952 1.523l-.18.088.16.324.19-.306-.17-.106zm-1.897-3.876l-.097-.175-.167.092.084.17.18-.087zm.283-.173l-.114-.164.114.164zm.956-.25l-.019.2.019-.2zm2.617-.936l.18-.088-.123-.25-.198.197.141.141zm1.7 3.474l-.03.198.38.06-.17-.346-.18.088zm.03-4.056l-.18.088.054.113h.125v-.2zm-.47-.957l-.091-.178-.174.09.086.176.18-.088zm.072-.036l.081.183-.081-.183zm1.876-3.167l-.2.02.2-.02zm.256-.932l.162.118-.162-.118zm0-3.657l-.162.118.162-.118zm-.256-.932l-.2-.02.2.02zM55.5 28.543l-.082.183.082-.183zm-.7-.682l-.181.085.18-.085zm-3.25-1.829l-.017-.199.018.2zm-.955-.25l.114-.164-.114.165zm-3.752 0l.114.165-.114-.164zm-.956.25l.019-.199-.02.2zm-3.249 1.829l.181.085-.18-.085zm-.7.682l.081.183-.081-.183zm-1.876 3.167l.2-.02-.2.02zm-.256.932l-.162-.118.162.118zm0 3.657l-.162.118.162-.118zm.256.932l.2.02-.2-.02zm1.876 3.167l-.082.183.082-.183zm.071.036l.18.088.086-.176-.174-.09-.092.178zm-.468.958v.2h.124l.055-.113-.18-.087zM54.3 34.47h-.2.2zm-5.646-23.43H13.348v.4h35.306v-.4zm-35.306 0c-.607 0-1.109.481-1.109 1.086h.4c0-.374.313-.686.71-.686v-.4zm-1.109 1.086c0 .604.502 1.086 1.11 1.086v-.4a.698.698 0 01-.71-.686h-.4zm1.11 1.086h35.305v-.4H13.348v.4zm35.305 0c.607 0 1.109-.482 1.109-1.086h-.4a.698.698 0 01-.71.686v.4zm1.109-1.086c0-.605-.502-1.086-1.11-1.086v.4c.397 0 .71.312.71.686h.4zm-1.11 8.561H13.349v.4h35.306v-.4zm-35.305 0c-.607 0-1.109.481-1.109 1.086h.4c0-.374.313-.686.71-.686v-.4zm-1.109 1.086c0 .605.502 1.086 1.11 1.086v-.4a.698.698 0 01-.71-.686h-.4zm1.11 1.086h35.305v-.4H13.348v.4zm35.305 0c.607 0 1.109-.481 1.109-1.086h-.4a.698.698 0 01-.71.686v.4zm1.109-1.086c0-.605-.502-1.086-1.11-1.086v.4c.397 0 .71.312.71.686h.4zm-12.684 5.175H24.923v.4h12.156v-.4zm-12.156 0c-.608 0-1.109.481-1.109 1.086h.4c0-.374.312-.686.709-.686v-.4zm-1.109 1.086c0 .605.501 1.086 1.109 1.086v-.4a.698.698 0 01-.709-.686h-.4zm1.109 1.086h12.156v-.4H24.923v.4zm12.156 0c.608 0 1.109-.481 1.109-1.086h-.4a.698.698 0 01-.709.686v.4zm1.109-1.086c0-.605-.501-1.086-1.109-1.086v.4c.396 0 .709.312.709.686h.4zm10.466-12.19H22.319v.4h26.335v-.4zm-26.335 0c-.608 0-1.109.481-1.109 1.086h.4c0-.375.313-.686.709-.686v-.4zM21.21 16.93c0 .604.501 1.086 1.109 1.086v-.4a.698.698 0 01-.709-.686h-.4zm1.109 1.086h26.335v-.4H22.319v.4zm26.335 0c.607 0 1.109-.482 1.109-1.086h-.4a.698.698 0 01-.71.686v.4zm1.109-1.086c0-.605-.502-1.086-1.11-1.086v.4c.397 0 .71.311.71.686h.4zM18.09 15.844h-4.742v.4h4.742v-.4zm-4.742 0c-.607 0-1.109.48-1.109 1.086h.4c0-.375.313-.686.71-.686v-.4zM12.24 16.93c0 .604.502 1.086 1.11 1.086v-.4a.698.698 0 01-.71-.686h-.4zm1.11 1.086h4.741v-.4h-4.742v.4zm4.741 0c.608 0 1.11-.482 1.11-1.086h-.4a.698.698 0 01-.71.686v.4zm1.11-1.086c0-.605-.502-1.086-1.11-1.086v.4c.397 0 .71.311.71.686h.4zm38.247-7.332a1.334 1.334 0 00-.928-.37v.4c.248 0 .478.093.651.259l.277-.29zm-.928-.37v.4-.4zm0 0c-1.74 0-3.156-1.324-3.234-3.005l-.4.018c.089 1.904 1.69 3.387 3.634 3.387v-.4zm-3.234-3.005c-.032-.695-.616-1.23-1.318-1.23v.4c.498 0 .897.377.919.848l.4-.018zm-1.318-1.23H9.819v.4h42.148v-.4zm-42.148 0c-.702 0-1.286.535-1.319 1.23l.4.019a.905.905 0 01.919-.85v-.4zM8.5 6.223c-.074 1.606-1.425 2.93-3.083 3.002l.017.4C7.291 9.543 8.816 8.062 8.9 6.242l-.4-.019zM5.417 9.225a1.301 1.301 0 00-1.258 1.29h.4a.9.9 0 01.875-.89l-.017-.4zm-1.258 1.29v22.903h.4V10.516h-.4zm0 22.903a1.3 1.3 0 001.258 1.29l.017-.4a.901.901 0 01-.875-.89h-.4zm1.258 1.29c1.658.073 3.01 1.397 3.083 3.003l.4-.019c-.084-1.82-1.61-3.302-3.466-3.383l-.017.4zM8.5 37.711c.033.694.617 1.23 1.319 1.23v-.4a.905.905 0 01-.919-.849l-.4.019zm1.319 1.23h26.832v-.4H9.819v.4zm26.832 0c.607 0 1.108-.482 1.108-1.086h-.4a.698.698 0 01-.708.686v.4zm1.108-1.086c0-.605-.5-1.086-1.108-1.086v.4c.396 0 .708.312.708.686h.4zm-1.108-1.086H10.444v.4h26.207v-.4zm-26.01.165c-.39-2.22-2.162-3.943-4.432-4.323l-.066.395c2.109.353 3.744 1.95 4.104 3.997l.394-.069zm-4.265-4.125V11.125h-.4v21.684h.4zM6.21 11.322c2.27-.38 4.041-2.103 4.432-4.323l-.394-.069c-.36 2.048-1.995 3.645-4.104 3.998l.066.394zm4.235-4.157h40.898v-.4H10.444v.4zM51.145 7c.407 2.29 2.297 4.053 4.655 4.355l.051-.397c-2.19-.28-3.937-1.916-4.312-4.028l-.394.07zm4.48 4.156v15.047h.4V11.156h-.4zm0 15.047c0 .604.502 1.086 1.11 1.086v-.4a.698.698 0 01-.71-.686h-.4zm1.11 1.086c.607 0 1.109-.482 1.109-1.086h-.4a.698.698 0 01-.71.686v.4zm1.109-1.086V10.52h-.4v15.682h.4zm0-15.682c0-.35-.142-.68-.397-.923l-.277.289a.87.87 0 01.274.633h.4zM59.478.57H2.524v.4h56.954v-.4zM2.524.57C1.027.57-.199 1.758-.199 3.23h.4C.201 1.988 1.238.97 2.524.97v-.4zM-.199 3.23v37.474h.4V3.229h-.4zm0 37.474c0 1.471 1.226 2.66 2.723 2.66v-.4c-1.286 0-2.323-1.02-2.323-2.26h-.4zm2.723 2.66h38.15v-.4H2.524v.4zm37.97-.289l-1.35 2.76.36.175 1.35-2.759-.36-.176zm-1.35 2.76a1.23 1.23 0 00.13 1.293l.318-.244a.828.828 0 01-.089-.874l-.359-.176zm.13 1.293c.288.373.758.557 1.226.484l-.062-.395a.89.89 0 01-.846-.333l-.317.244zm1.226.484l2.515-.394-.062-.395-2.515.394.062.395zm2.314-.485l1.403 2.244.34-.212-1.404-2.244-.339.212zm1.403 2.244c.234.375.648.599 1.091.599v-.4a.885.885 0 01-.752-.411l-.34.212zm1.091.599c.022 0 .044 0 .066-.002l-.02-.4a.847.847 0 01-.046.002v.4zm.065-.002a1.28 1.28 0 001.09-.71l-.36-.175a.88.88 0 01-.75.486l.02.4zm1.09-.71l2.437-4.977-.36-.176-2.437 4.978.36.176zm2.077-4.977l2.437 4.977.36-.176-2.437-4.977-.36.176zm2.437 4.977a1.28 1.28 0 001.09.71l.02-.4a.88.88 0 01-.75-.485l-.36.175zm1.09.71l.065.002v-.4a.99.99 0 01-.046-.001l-.02.4zm.065.002c.443 0 .857-.224 1.091-.599l-.34-.212a.885.885 0 01-.751.411v.4zm1.091-.599l1.403-2.244-.34-.212-1.402 2.244.34.212zm1.202-2.153l2.515.395.062-.396-2.515-.394-.062.395zm2.515.395a1.29 1.29 0 001.225-.485l-.317-.244a.89.89 0 01-.846.333l-.062.396zm1.225-.485c.288-.375.338-.871.13-1.294l-.358.177a.827.827 0 01-.089.873l.317.244zm.13-1.293l-1.35-2.76-.359.177 1.35 2.758.36-.175zm-1.53-2.471h2.713v-.4h-2.712v.4zm2.713 0c1.497 0 2.723-1.188 2.723-2.66h-.4c0 1.241-1.038 2.26-2.323 2.26v.4zm2.723-2.66V3.23h-.4v37.475h.4zm0-37.475c0-1.47-1.226-2.659-2.723-2.659v.4c1.285 0 2.323 1.019 2.323 2.26h.4zM45.399 47.102l-.951-1.522-.34.212.952 1.522.34-.212zm-.951-1.522a1.286 1.286 0 00-1.294-.583l.062.395a.886.886 0 01.893.4l.339-.212zm-1.294-.583l-1.615.253.062.395 1.615-.253-.062-.395zm-1.404.538l1.7-3.474-.358-.176-1.701 3.474.359.176zm1.38-3.42a3.487 3.487 0 002.776.993l-.036-.398a3.087 3.087 0 01-2.458-.879l-.282.284zm2.777.993c.292-.027.585.05.824.215l.227-.328a1.647 1.647 0 00-1.089-.285l.038.398zm.823.215c.1.07.201.13.3.184l.194-.35a3.026 3.026 0 01-.266-.162l-.228.328zm.218-.079L45.05 47.12l.36.176 1.897-3.876-.36-.176zm1.963-1.488h.001-.002c-.003 0-.008 0-.014.002l.064.395h-.005.007l-.05-.397zm-.011.001c-.12.017-.24.017-.36 0l-.056.396c.157.023.316.023.473 0l-.057-.396zm-.36 0h-.01v-.001l-.055.396.009.001h.002l.053-.396zm-.008 0a1.237 1.237 0 01-.52-.207l-.229.33c.21.145.447.235.69.272l.059-.396zm-.52-.207a3.496 3.496 0 00-1.99-.619v.4c.629 0 1.245.19 1.761.548l.228-.329zm-1.99-.619a3.53 3.53 0 00-.324.015l.037.398a3.44 3.44 0 01.286-.013v-.4zm-.324.015a1.227 1.227 0 01-1.225-.688l-.362.17c.288.614.94.98 1.624.916l-.037-.398zm-1.225-.688a3.342 3.342 0 00-.445-.7l-.31.254c.156.19.29.395.393.617l.362-.17zm-.438-.69l-.028-.036-.314.248.018.023.324-.235zm-.032-.041l-.01-.013-.018-.02-.304.26a.939.939 0 01.01.011l.017.02.305-.258zm-.03-.035a1.056 1.056 0 00-.04-.044l-.285.28.025.027.3-.264zm-.033-.037a3.43 3.43 0 00-1.163-.85l-.163.365a3.03 3.03 0 011.027.751l.299-.266zm-1.163-.85a1.18 1.18 0 01-.705-1.187l-.398-.039a1.58 1.58 0 00.94 1.59l.163-.364zm-.705-1.187a3.298 3.298 0 00-.622-2.263l-.323.236a2.9 2.9 0 01.547 1.988l.398.039zm-.622-2.263a1.157 1.157 0 010-1.368l-.323-.236a1.558 1.558 0 000 1.84l.323-.236zm0-1.368c.479-.656.7-1.46.622-2.263l-.398.039a2.897 2.897 0 01-.547 1.988l.323.236zm.622-2.263a1.18 1.18 0 01.705-1.187l-.163-.365a1.58 1.58 0 00-.94 1.59l.398-.038zm.705-1.187a3.398 3.398 0 001.696-1.654l-.362-.17a2.998 2.998 0 01-1.497 1.459l.163.365zm1.696-1.654a1.228 1.228 0 011.225-.687l.037-.399a1.628 1.628 0 00-1.624.916l.362.17zm1.225-.687a3.5 3.5 0 002.313-.605l-.228-.328a3.101 3.101 0 01-2.048.534l-.037.399zm2.313-.605a1.251 1.251 0 011.418 0l.227-.328a1.65 1.65 0 00-1.873 0l.228.328zm1.418 0a3.5 3.5 0 002.313.605l-.037-.399a3.104 3.104 0 01-2.049-.535l-.227.33zm2.313.605a1.226 1.226 0 011.225.687l.362-.17a1.626 1.626 0 00-1.624-.916l.037.399zm1.225.687c.344.733.947 1.32 1.696 1.654l.163-.365a2.998 2.998 0 01-1.497-1.459l-.362.17zm1.696 1.654c.473.211.753.69.705 1.187l.398.038a1.58 1.58 0 00-.94-1.59l-.163.365zm.705 1.187a3.298 3.298 0 00.622 2.263l.323-.236a2.897 2.897 0 01-.547-1.989l-.398-.038zm.622 2.263c.298.41.298.958 0 1.368l.323.235a1.556 1.556 0 000-1.839l-.323.236zm0 1.368c-.479.656-.7 1.46-.622 2.263l.398-.039a2.898 2.898 0 01.547-1.989l-.323-.235zm-.622 2.263a1.18 1.18 0 01-.705 1.187l.163.365a1.58 1.58 0 00.94-1.591l-.398.039zm-.705 1.187a3.43 3.43 0 00-1.16.848l.298.266a3.03 3.03 0 011.025-.75l-.163-.364zm-1.154.84c-.013.014-.029.03-.044.048l.302.263a.611.611 0 01.027-.03l-.285-.28zm-.045.05a1.193 1.193 0 00-.015.017.037.037 0 01-.01.011l.306.258a.712.712 0 00.023-.027l-.304-.26zm-.027.032l-.033.042.324.235.02-.026-.311-.25zm-.026.033a3.342 3.342 0 00-.444.698l.362.17c.104-.22.236-.425.392-.614l-.31-.254zm-.444.698a1.227 1.227 0 01-1.225.688l-.037.398a1.627 1.627 0 001.624-.916l-.362-.17zm-1.225.688a3.505 3.505 0 00-2.313.604l.227.33a3.105 3.105 0 012.05-.536l.036-.398zm-2.313.604c-.159.11-.337.179-.522.206l.06.396a1.64 1.64 0 00.69-.273l-.228-.329zm4.857 3.447a1.286 1.286 0 00-1.294.583l.34.212a.886.886 0 01.892-.4l.062-.395zm-1.294.583l-.951 1.522.339.212.951-1.522-.339-.212zm-.602 1.54l-1.898-3.876-.359.176 1.898 3.876.36-.176zm-1.98-3.613c.1-.055.2-.115.3-.184l-.228-.328a3.034 3.034 0 01-.266.162l.193.35zm.3-.184a1.25 1.25 0 01.823-.215l.038-.398a1.645 1.645 0 00-1.09.285l.228.328zm.824-.215a3.487 3.487 0 002.776-.993l-.282-.284a3.087 3.087 0 01-2.458.88l-.036.397zm2.455-1.047l1.701 3.474.36-.176-1.701-3.474-.36.176zm1.912 3.189l-1.615-.253-.062.395 1.615.253.062-.395zm4.082-4.546a.497.497 0 01-.505.487v.4a.897.897 0 00.905-.887h-.4zm-.505.487h-3.58v.4h3.58v-.4zm-3.4.112l-.469-.957-.36.176.47.957.359-.175zm-.557-.691c.029-.015.044-.023.061-.03l-.162-.366c-.032.014-.064.03-.082.04l.183.356zm.062-.031c1.327-.592 2.131-1.945 1.993-3.369l-.398.039c.12 1.248-.583 2.44-1.758 2.965l.163.365zm1.993-3.369c-.028-.281.05-.564.219-.795l-.324-.236c-.226.31-.33.69-.293 1.07l.398-.039zm.219-.795a3.294 3.294 0 000-3.893l-.324.236a2.894 2.894 0 010 3.421l.324.236zm0-3.893a1.158 1.158 0 01-.22-.795l-.397-.038c-.037.38.067.76.293 1.07l.324-.237zm-.22-.795c.14-1.423-.665-2.776-1.993-3.369l-.163.366c1.176.524 1.88 1.717 1.759 2.965l.398.038zm-1.993-3.369a1.203 1.203 0 01-.6-.584l-.362.17c.162.346.447.622.8.78l.162-.366zm-.6-.584c-.61-1.299-1.997-2.077-3.448-1.943l.036.399c1.289-.12 2.514.572 3.05 1.714l.362-.17zm-3.449-1.943a1.245 1.245 0 01-.823-.215l-.228.329c.316.22.703.32 1.088.285l-.037-.399zm-.824-.215a3.508 3.508 0 00-3.979 0l.228.329a3.109 3.109 0 013.524 0l.227-.329zm-3.979 0a1.246 1.246 0 01-.823.215l-.038.398c.385.036.773-.065 1.09-.284l-.229-.329zm-.824.215c-1.453-.133-2.838.644-3.448 1.943l.362.17c.536-1.142 1.759-1.833 3.05-1.715l.036-.398zm-3.448 1.943a1.203 1.203 0 01-.6.584l.162.366c.353-.158.637-.434.8-.78l-.362-.17zm-.6.584c-1.328.593-2.132 1.945-1.994 3.37l.398-.04c-.12-1.247.583-2.44 1.758-2.964l-.163-.366zm-1.994 3.37c.027.28-.05.563-.219.794l.323.236c.226-.31.331-.69.294-1.07l-.398.04zm-.219.794a3.294 3.294 0 000 3.893l.323-.236a2.894 2.894 0 010-3.42l-.323-.237zm0 3.893c.17.231.246.514.22.795l.397.039a1.56 1.56 0 00-.294-1.07l-.323.236zm.22.795c-.14 1.424.664 2.777 1.992 3.369l.163-.365c-1.175-.525-1.879-1.718-1.758-2.965l-.398-.039zm1.993 3.37a.656.656 0 01.06.03l.184-.356c-.018-.009-.05-.027-.082-.04l-.162.365zm-.027-.236l-.469.958.36.175.468-.957-.36-.176zm-.29.846H2.525v.4h39.018v-.4zm-39.017 0a.497.497 0 01-.505-.488h-.4c0 .494.41.888.905.888v-.4zm-.505-.488V3.229h-.4v37.475h.4zm0-37.475c0-.263.222-.487.505-.487v-.4a.897.897 0 00-.905.887h.4zm.505-.487h56.954v-.4H2.524v.4zm56.954 0c.283 0 .505.224.505.487h.4a.897.897 0 00-.905-.887v.4zm.505.487v37.475h.4V3.229h-.4zm-11.33 25.537c-3.219 0-5.846 2.554-5.846 5.705h.4c0-2.92 2.438-5.305 5.447-5.305v-.4zm-5.846 5.705c0 3.15 2.627 5.705 5.847 5.705v-.4c-3.009 0-5.447-2.385-5.447-5.305h-.4zm5.847 5.705c3.22 0 5.847-2.555 5.847-5.705h-.4c0 2.92-2.44 5.305-5.447 5.305v.4zM54.5 34.47c0-3.15-2.628-5.705-5.847-5.705v.4c3.008 0 5.447 2.385 5.447 5.305h.4zm-5.847 3.532c-2.006 0-3.63-1.59-3.63-3.532h-.4c0 2.173 1.813 3.932 4.03 3.932v-.4zm-3.63-3.532c0-1.943 1.624-3.533 3.63-3.533v-.4c-2.217 0-4.03 1.76-4.03 3.933h.4zm3.63-3.533c2.005 0 3.629 1.59 3.629 3.533h.4c0-2.174-1.812-3.933-4.03-3.933v.4zm3.629 3.533c0 1.943-1.623 3.532-3.63 3.532v.4c2.218 0 4.03-1.759 4.03-3.932h-.4z" fill="#D2374A" mask="url(#a)"/></svg>