<svg width="56" height="57" fill="none" xmlns="http://www.w3.org/2000/svg"><path d="M17.127 29.948a.657.657 0 00-.866.334l-.28.63a.656.656 0 101.2.532l.28-.63a.657.657 0 00-.334-.866zm-1.122 2.529a.657.657 0 00-.866.334l-2.485 5.598a.656.656 0 001.2.533l2.485-5.599a.657.657 0 00-.334-.866z" fill="#fff"/><path d="M42.438 11.497a3.932 3.932 0 00-3.143-1.54h-3.748v-7.38a.656.656 0 10-1.312 0v7.382H30.45a3.933 3.933 0 00-3.143 1.539l-.225.295-6.662 3.441a3.796 3.796 0 00-1.67 1.72L6.697 42.05a3.778 3.778 0 001.769 5.036l11.687 5.612c.463 1.667 2.035 2.869 3.854 2.869h21.73a3.88 3.88 0 003.919-3.884V22.378a3.914 3.914 0 00-.786-2.359l-6.433-8.522zm-7.692 3.345c.084.017.17.017.254 0a1.237 1.237 0 11-.254 0zm-14.73 36.334L9.035 45.901a2.464 2.464 0 01-1.153-3.284l.593-1.235 11.541 5.542v4.25zm.822-31.157a3.95 3.95 0 00-.822 2.36v23.09L9.043 40.2l10.89-22.678a2.476 2.476 0 011.09-1.122l4.216-2.177-4.4 5.797zm27.506 28.876H29.313a.657.657 0 000 1.313h19.031v1.475a2.568 2.568 0 01-2.607 2.571H24.008c-1.447 0-2.68-1.124-2.68-2.571v-1.475h3.61a.656.656 0 100-1.313h-3.61V22.378a2.67 2.67 0 01.558-1.581l6.456-8.51a2.64 2.64 0 012.109-1.017h3.784v2.34a2.543 2.543 0 101.312 0v-2.34h3.748a2.615 2.615 0 012.096 1.017l6.433 8.523c.34.452.522 1.003.52 1.568v26.517z" fill="#fff"/><path d="M44.844 27.13H24.937a.656.656 0 00-.656.656v16.843a.656.656 0 00.657.657h19.906a.656.656 0 00.656-.657V27.786a.656.656 0 00-.656-.657zm-.657 16.843H25.595V28.442h18.593v15.531z" fill="#fff"/><path d="M32.494 35.972a2.143 2.143 0 100-4.285 2.143 2.143 0 000 4.285zm0-2.974a.83.83 0 110 1.661.83.83 0 010-1.66zm4.757 3.445a2.143 2.143 0 100 4.286 2.143 2.143 0 000-4.286zm0 2.974a.83.83 0 110-1.66.83.83 0 010 1.66zm-6.158.57a.656.656 0 00.928 0l6.631-6.631a.656.656 0 10-.928-.928l-6.631 6.631a.655.655 0 000 .928z" fill="#fff"/></svg>