<svg width="55" height="55" fill="none" xmlns="http://www.w3.org/2000/svg"><mask id="a" fill="#fff"><path d="M53.067 19.93h-2.785l-.743-5.366a.803.803 0 00-1.59.22l.713 5.146H41.64l1.154-8.33h5.413c.472.01.869-.446.794-.913l-.319-2.302A1.716 1.716 0 0046.99 6.91h-3.678c-.848 0-1.576.633-1.692 1.474l-1.6 11.545h-1.497l-1.6-11.545a1.716 1.716 0 00-1.692-1.474h-3.678c-.848 0-1.575.633-1.692 1.474l-1.6 11.545h-4.174a.802.802 0 00-.802.803v20.67h-2.859a3.404 3.404 0 00.804-2.2V33.8a3.427 3.427 0 00-3.423-3.422h-1.035a3.427 3.427 0 00-3.423 3.422v5.404c0 .838.303 1.605.803 2.2h-3.567c.5-.595.803-1.362.803-2.2V33.8a3.427 3.427 0 00-3.423-3.422H6.93A3.427 3.427 0 003.507 33.8v5.404c0 .838.303 1.605.804 2.2H1.709c-.058 0-.104-23.163-.104-23.163 0-.037 9.883-5.561 9.883-5.561.037-.05.18.034.154.09v3.397c-.042 1.264 1.456 2.145 2.54 1.493l8.948-4.98c.037-.05.18.034.155.09v4.161a.802.802 0 001.604 0v-4.16c.043-1.264-1.456-2.145-2.54-1.494l-8.948 4.98c-.036.05-.18-.034-.154-.09V12.77c.042-1.264-1.456-2.144-2.54-1.493l-9.83 5.471A1.71 1.71 0 000 18.24V41.3a1.71 1.71 0 001.709 1.708h4.937v4.327a.802.802 0 001.604 0v-4.327h8.237v4.327a.802.802 0 001.605 0v-4.327h5.193v4.935a1.71 1.71 0 001.709 1.709h2.974v1.28c0 .994.809 1.803 1.803 1.803h7.685c.995 0 1.804-.809 1.804-1.803v-1.28h6.17v4.316a.802.802 0 101.604 0v-4.316h6.033a1.71 1.71 0 001.709-1.709V21.64a1.71 1.71 0 00-1.71-1.709zM43.312 8.515h3.678c.051 0 .096.039.103.09l.192 1.39h-4.268l.192-1.39a.104.104 0 01.103-.09zM14.954 33.8a1.82 1.82 0 011.818-1.818h1.035a1.82 1.82 0 011.818 1.818v5.404a1.82 1.82 0 01-1.533 1.794v-3.799a.802.802 0 10-1.605 0v3.799a1.82 1.82 0 01-1.533-1.794V33.8zm-9.842 0a1.82 1.82 0 011.818-1.818h1.036A1.82 1.82 0 019.784 33.8v5.404a1.82 1.82 0 01-1.534 1.794v-3.799a.802.802 0 00-1.604 0v3.799a1.82 1.82 0 01-1.534-1.794V33.8zM31.553 8.515h3.678c.051 0 .096.039.103.09l.192 1.39h-4.268l.192-1.39a.104.104 0 01.103-.09zm-.518 3.085h4.714l1.154 8.33h-7.022l1.154-8.33zm2.579 31.142a.802.802 0 00.802-.802v-9.96h3.132c.06 0 .107.048.107.108v15.958h-3.239v-2.261a.802.802 0 10-1.605 0v2.261h-3.239V32.089c0-.06.049-.108.108-.108h3.131v9.959c0 .443.36.802.803.802zm4.042 8.19a.2.2 0 01-.2.199h-7.685a.2.2 0 01-.199-.2v-1.28h8.084v1.28zm10.911-5.096a1.82 1.82 0 01-1.533 1.793V43.83a.802.802 0 10-1.605 0v3.8a1.82 1.82 0 01-1.533-1.794v-5.404a1.82 1.82 0 011.818-1.818h1.035a1.82 1.82 0 011.818 1.818v5.404zm4.604 2.107a.104.104 0 01-.104.104h-3.708a3.407 3.407 0 00.813-2.211v-5.404a3.427 3.427 0 00-3.423-3.423h-1.035a3.427 3.427 0 00-3.423 3.423v5.404c0 .842.306 1.614.813 2.211H39.26V32.09c0-.944-.768-1.712-1.712-1.712H29.68c-.944 0-1.713.768-1.713 1.712v15.958h-2.974a.104.104 0 01-.103-.104V21.535c8.758.104 19.637-.199 28.28.104v26.304z"/></mask><path d="M53.067 19.93h-2.785l-.743-5.366a.803.803 0 00-1.59.22l.713 5.146H41.64l1.154-8.33h5.413c.472.01.869-.446.794-.913l-.319-2.302A1.716 1.716 0 0046.99 6.91h-3.678c-.848 0-1.576.633-1.692 1.474l-1.6 11.545h-1.497l-1.6-11.545a1.716 1.716 0 00-1.692-1.474h-3.678c-.848 0-1.575.633-1.692 1.474l-1.6 11.545h-4.174a.802.802 0 00-.802.803v20.67h-2.859a3.404 3.404 0 00.804-2.2V33.8a3.427 3.427 0 00-3.423-3.422h-1.035a3.427 3.427 0 00-3.423 3.422v5.404c0 .838.303 1.605.803 2.2h-3.567c.5-.595.803-1.362.803-2.2V33.8a3.427 3.427 0 00-3.423-3.422H6.93A3.427 3.427 0 003.507 33.8v5.404c0 .838.303 1.605.804 2.2H1.709c-.058 0-.104-23.163-.104-23.163 0-.037 9.883-5.561 9.883-5.561.037-.05.18.034.154.09v3.397c-.042 1.264 1.456 2.145 2.54 1.493l8.948-4.98c.037-.05.18.034.155.09v4.161a.802.802 0 001.604 0v-4.16c.043-1.264-1.456-2.145-2.54-1.494l-8.948 4.98c-.036.05-.18-.034-.154-.09V12.77c.042-1.264-1.456-2.144-2.54-1.493l-9.83 5.471A1.71 1.71 0 000 18.24V41.3a1.71 1.71 0 001.709 1.708h4.937v4.327a.802.802 0 001.604 0v-4.327h8.237v4.327a.802.802 0 001.605 0v-4.327h5.193v4.935a1.71 1.71 0 001.709 1.709h2.974v1.28c0 .994.809 1.803 1.803 1.803h7.685c.995 0 1.804-.809 1.804-1.803v-1.28h6.17v4.316a.802.802 0 101.604 0v-4.316h6.033a1.71 1.71 0 001.709-1.709V21.64a1.71 1.71 0 00-1.71-1.709zM43.312 8.515h3.678c.051 0 .096.039.103.09l.192 1.39h-4.268l.192-1.39a.104.104 0 01.103-.09zM14.954 33.8a1.82 1.82 0 011.818-1.818h1.035a1.82 1.82 0 011.818 1.818v5.404a1.82 1.82 0 01-1.533 1.794v-3.799a.802.802 0 10-1.605 0v3.799a1.82 1.82 0 01-1.533-1.794V33.8zm-9.842 0a1.82 1.82 0 011.818-1.818h1.036A1.82 1.82 0 019.784 33.8v5.404a1.82 1.82 0 01-1.534 1.794v-3.799a.802.802 0 00-1.604 0v3.799a1.82 1.82 0 01-1.534-1.794V33.8h0zM31.553 8.515h3.678c.051 0 .096.039.103.09l.192 1.39h-4.268l.192-1.39a.104.104 0 01.103-.09zm-.518 3.085h4.714l1.154 8.33h-7.022l1.154-8.33zm2.579 31.142a.802.802 0 00.802-.802v-9.96h3.132c.06 0 .107.048.107.108v15.958h-3.239v-2.261a.802.802 0 10-1.605 0v2.261h-3.239V32.089c0-.06.049-.108.108-.108h3.131v9.959c0 .443.36.802.803.802zm4.042 8.19a.2.2 0 01-.2.199h-7.685a.2.2 0 01-.199-.2v-1.28h8.084v1.28zm10.911-5.096a1.82 1.82 0 01-1.533 1.793V43.83a.802.802 0 10-1.605 0v3.8a1.82 1.82 0 01-1.533-1.794v-5.404a1.82 1.82 0 011.818-1.818h1.035a1.82 1.82 0 011.818 1.818v5.404zm4.604 2.107a.104.104 0 01-.104.104h-3.708a3.407 3.407 0 00.813-2.211v-5.404a3.427 3.427 0 00-3.423-3.423h-1.035a3.427 3.427 0 00-3.423 3.423v5.404c0 .842.306 1.614.813 2.211H39.26V32.09c0-.944-.768-1.712-1.712-1.712H29.68c-.944 0-1.713.768-1.713 1.712v15.958h-2.974a.104.104 0 01-.103-.104V21.535c8.758.104 19.637-.199 28.28.104v26.304h0z" fill="#fff" stroke="#D2374A" stroke-width=".4" mask="url(#a)"/><path d="M5.948 24.005h12.991a.204.204 0 00.204-.204v-1.905a.204.204 0 00-.204-.204H5.948a.204.204 0 00-.204.204V23.8c0 .113.092.204.204.204zm14.6-2.11v1.906a1.61 1.61 0 01-1.609 1.609H5.948a1.61 1.61 0 01-1.609-1.61v-1.904a1.61 1.61 0 011.609-1.609h12.991a1.61 1.61 0 011.609 1.609zm9.128 1.756h18.895a1.61 1.61 0 011.608 1.609v1.905a1.61 1.61 0 01-1.608 1.609H29.676a1.61 1.61 0 01-1.608-1.61V25.26a1.61 1.61 0 011.608-1.609zm18.895 3.718a.204.204 0 00.203-.204V25.26a.204.204 0 00-.203-.204H29.676a.204.204 0 00-.203.204v1.905c0 .112.09.204.203.204h18.895zm-4.893 3.108h4.892a1.61 1.61 0 011.609 1.608v1.905a1.61 1.61 0 01-1.609 1.61h-4.892a1.61 1.61 0 01-1.608-1.609v-1.905a1.61 1.61 0 011.608-1.608zm4.892 3.717a.204.204 0 00.204-.204v-1.905a.204.204 0 00-.204-.204h-4.892a.204.204 0 00-.203.204v1.905c0 .112.09.204.203.204h4.892zM4.34 28.021c0-.387.314-.702.702-.702h3.79a.702.702 0 010 1.405h-3.79a.702.702 0 01-.703-.703zM30.888 2.275H19.524a.702.702 0 010-1.405h11.364a3.11 3.11 0 013.107 3.107.702.702 0 11-1.405 0c0-.939-.763-1.702-1.702-1.702zm11.417 0h-5.15a.702.702 0 110-1.405h5.15a3.11 3.11 0 013.106 3.107.702.702 0 11-1.404 0c0-.939-.764-1.702-1.702-1.702z" fill="#fff" stroke="#D2374A" stroke-width=".2"/></svg>