<svg width="21" height="27" fill="none" xmlns="http://www.w3.org/2000/svg"><path d="M14.98 12.649h0a.571.571 0 00-.644.11h0c-1.113 1.1-2.39 1.674-3.692 1.674-1.303 0-2.58-.575-3.692-1.674a.571.571 0 00-.645-.11 10.093 10.093 0 00-4.159 3.626A9.906 9.906 0 00.544 21.69v.008c0 .16.068.311.186.418h0a14.805 14.805 0 009.914 3.789c3.673 0 7.194-1.346 9.913-3.789h0a.562.562 0 00.187-.418v-.008c0-1.928-.555-3.8-1.604-5.414a10.09 10.09 0 00-4.16-3.626zm-4.336 1.237c1.538 0 3.025-.925 4.193-2.573 1.03-1.455 1.647-3.256 1.647-4.822 0-3.192-2.62-5.787-5.84-5.787-3.22 0-5.84 2.595-5.84 5.787 0 1.566.617 3.367 1.647 4.822 1.168 1.648 2.655 2.573 4.193 2.573zm0-12.055c2.595 0 4.704 2.092 4.704 4.66 0 1.315-.55 2.916-1.44 4.173-.952 1.344-2.145 2.095-3.264 2.095-1.12 0-2.312-.751-3.264-2.095-.89-1.257-1.44-2.858-1.44-4.173 0-2.568 2.11-4.66 4.704-4.66zm0 22.945c-3.307 0-6.479-1.18-8.961-3.329a8.783 8.783 0 011.42-4.56 8.958 8.958 0 013.347-3.048c1.254 1.125 2.697 1.721 4.194 1.721 1.496 0 2.94-.596 4.194-1.72a8.955 8.955 0 013.347 3.047 8.784 8.784 0 011.42 4.56 13.668 13.668 0 01-8.961 3.33z" fill="#B4B4B4" stroke="#B4B4B4" stroke-width=".2"/></svg>