<svg width="41" height="29" fill="none" xmlns="http://www.w3.org/2000/svg"><path d="M20.733.004c.282.023.565.058.852.073 2.296.144 4.486.725 6.595 1.639 1.234.534 2.411 1.177 3.397 2.115.397.375.726.825 1.077 1.247.127.155.096.251-.076.36-.08.05-.172.085-.256.124-2.106.96-3.527 2.529-4.157 4.799-.207.74-.222 1.498-.195 2.262.011.31-.012.62-.027.925-.004.066-.042.128-.08.248l-.241-.561-3.217-7.77c-.245-.593-.547-1.15-.982-1.623-.585-.631-1.315-.98-2.148-1.12-1.123-.185-2.182-.015-3.137.636-.722.492-1.165 1.216-1.498 2.01-1.13 2.72-2.254 5.442-3.381 8.16-.03.07-.062.136-.092.206-.02 0-.038 0-.057.004-.02-.112-.058-.225-.058-.337-.015-.612-.003-1.228-.03-1.836-.058-1.313-.516-2.486-1.277-3.544a7.224 7.224 0 00-3.056-2.46 2.347 2.347 0 01-.191-.084c-.241-.124-.268-.225-.119-.45.592-.894 1.383-1.576 2.27-2.153 1.693-1.104 3.557-1.79 5.495-2.29 1.295-.332 2.61-.487 3.943-.553.061-.004.122-.023.183-.031.157.004.31.004.463.004z" fill="#D2374A"/><path d="M20.503 25.454a23.193 23.193 0 01-4.456-.244c-2.946-.437-5.735-1.313-8.253-2.97-1.269-.837-2.4-1.836-3.31-3.068a6.817 6.817 0 01-.744-1.344c-.378-.883-.921-1.607-1.712-2.15a4.575 4.575 0 01-1.51-1.692c-1.195-2.32-.255-5.093 2.125-6.108 2.12-.902 4.192-.747 6.133.55 1.158.775 1.765 1.902 1.9 3.288.041.415.041.837.049 1.255.015.794.019 1.588.027 2.382.007.581.48 1.127 1.215 1.023a64.684 64.684 0 014.321-.484 55.96 55.96 0 014.555-.175c1.593.016 3.19.124 4.784.248 1.177.093 2.35.271 3.523.419.573.07 1.07-.345 1.1-.969.027-.58.02-1.162.027-1.743.012-.62 0-1.24.046-1.855.134-1.7.97-2.936 2.457-3.73 1.005-.538 2.07-.829 3.21-.759 1.238.078 2.422.353 3.412 1.17 2.136 1.766 2.128 5.054-.008 6.848-.221.185-.447.364-.68.534-.554.399-.993.902-1.242 1.538-.821 2.083-2.369 3.513-4.138 4.733-1.922 1.324-4.062 2.141-6.32 2.672-1.506.356-3.038.57-4.585.628-.642.027-1.284.003-1.926.003z" fill="#D2374A"/><path d="M23.013 13.428h-3.435c-.554 0-1.108.008-1.662.012-.234 0-.26-.039-.172-.264.683-1.72 1.364-3.439 2.052-5.159.103-.263.206-.53.343-.774.237-.415.524-.415.745.015.214.422.383.868.558 1.31.604 1.518 1.2 3.036 1.8 4.554.122.318.103.349-.23.306zM32 24.362a1044.73 1044.73 0 011.667 4.028c.11.267.053.352-.23.352-1.394 0-2.789 0-4.18.004-.145 0-.233-.042-.29-.186-.321-.813-.646-1.622-.97-2.436-.08-.205-.05-.283.145-.325 1.268-.283 2.453-.794 3.63-1.333.065-.038.137-.066.229-.104zm-18.918 1.549l-.642 1.623c-.137.349-.278.693-.412 1.042-.046.12-.115.17-.241.17-1.425-.004-2.854 0-4.28-.004-.198 0-.263-.097-.187-.286.52-1.259 1.043-2.518 1.563-3.78.076-.186.195-.17.34-.101.814.399 1.643.751 2.522.984.436.108.871.228 1.337.352z" fill="#D2374A"/></svg>