<svg width="17" height="21" fill="none" xmlns="http://www.w3.org/2000/svg"><path d="M15.208 4.281C13.698 2.071 11.306.804 8.644.804S3.589 2.07 2.079 4.28C.577 6.48.23 9.263 1.15 11.722a6.374 6.374 0 001.16 1.936l5.808 6.9a.688.688 0 001.053 0l5.807-6.898a6.38 6.38 0 001.159-1.933c.921-2.464.574-5.247-.928-7.446zm-.367 6.956c-.188.514-.495 1.022-.912 1.511a.02.02 0 00-.003.004l-5.282 6.274-5.285-6.278a5.003 5.003 0 01-.914-1.516c-.76-2.033-.472-4.335.772-6.156C4.465 3.25 6.443 2.202 8.644 2.202c2.2 0 4.178 1.048 5.426 2.874a6.745 6.745 0 01.771 6.161z" fill="#D2374A"/><path d="M8.644 4.953c-2.135 0-3.873 1.757-3.873 3.916 0 2.16 1.737 3.916 3.873 3.916 2.135 0 3.872-1.757 3.872-3.916 0-2.16-1.737-3.916-3.872-3.916zm0 6.433c-1.373 0-2.49-1.129-2.49-2.517s1.117-2.518 2.49-2.518c1.372 0 2.49 1.13 2.49 2.518s-1.118 2.518-2.49 2.518z" fill="#D2374A"/></svg>