<svg width="37" height="25" fill="none" xmlns="http://www.w3.org/2000/svg"><path d="M19.15 15.519c0 4.85 3.95 8.8 8.8 8.8 4.85 0 8.8-3.95 8.8-8.8 0-4.85-3.95-8.8-8.8-8.8-1.05 0-2.1.2-3.05.55.2-2.2.85-4.45 1.95-6.55.1-.15.1-.35.05-.5-.05-.1-.15-.2-.25-.2-.15-.05-.3 0-.5.15a20.1 20.1 0 00-5.1 6.75c-1.1 2.4-1.75 4.95-1.85 7.65-.05.3-.05.65-.05.95zm-19.15 0c0 4.85 3.95 8.8 8.8 8.8 4.85 0 8.8-3.95 8.8-8.8 0-4.85-3.95-8.8-8.8-8.8-1.05 0-2.1.2-3.05.55.2-2.2.85-4.45 1.95-6.55.1-.15.1-.35.05-.5-.05-.1-.15-.2-.25-.2-.15-.05-.3 0-.5.15a20.1 20.1 0 00-5.1 6.75c-1.1 2.4-1.75 4.95-1.85 7.65-.05.3-.05.65-.05.95z" fill="#D2374A"/></svg>