<svg width="47" height="47" fill="none" xmlns="http://www.w3.org/2000/svg"><path d="M45.676 18.334l.038-.082a2.836 2.836 0 00-1.191-3.677l-.062-.035a2.836 2.836 0 01-1.436-2.83l.009-.072A2.836 2.836 0 0040.747 8.5l-.053-.01a2.837 2.837 0 01-2.257-2.25 2.837 2.837 0 00-3.138-2.279l-.088.011a2.838 2.838 0 01-2.83-1.432l-.03-.054a2.838 2.838 0 00-3.688-1.184l-.024.012c-1.05.494-2.295.3-3.145-.49L25.426.76a2.839 2.839 0 00-3.867 0l-.077.072a2.839 2.839 0 01-3.13.495l-.095-.043a2.838 2.838 0 00-3.675 1.19l-.036.065a2.838 2.838 0 01-2.83 1.433l-.082-.01a2.837 2.837 0 00-3.139 2.285l-.01.05a2.837 2.837 0 01-2.252 2.255H6.23a2.836 2.836 0 00-2.28 3.138l.01.078a2.836 2.836 0 01-1.436 2.83l-.062.034A2.835 2.835 0 001.27 18.31l.031.067a2.835 2.835 0 01-.514 3.151l-.007.008a2.835 2.835 0 00-.017 3.888l.048.052c.79.845.987 2.085.498 3.133l-.039.083a2.835 2.835 0 001.192 3.677l.062.034a2.836 2.836 0 011.436 2.83l-.01.072a2.836 2.836 0 002.288 3.139l.047.009a2.837 2.837 0 012.26 2.257l.008.044a2.837 2.837 0 003.14 2.285l.08-.01a2.838 2.838 0 012.83 1.433l.037.066a2.838 2.838 0 003.675 1.19l.094-.044a2.839 2.839 0 013.13.495l.077.072a2.839 2.839 0 003.868 0l.076-.072a2.839 2.839 0 013.13-.495l.095.043a2.838 2.838 0 003.675-1.19l.037-.066a2.838 2.838 0 012.83-1.432l.08.01a2.837 2.837 0 003.14-2.285l.009-.044a2.837 2.837 0 012.259-2.257l.047-.01a2.836 2.836 0 002.287-3.138l-.009-.072a2.836 2.836 0 011.436-2.83l.01-.005a2.835 2.835 0 001.164-3.734l-.015-.032a2.835 2.835 0 01.47-3.19l.032-.035a2.835 2.835 0 000-3.87l-.064-.068a2.835 2.835 0 01-.497-3.134z" fill="#79C36E"/></svg>