<svg width="105" height="106" fill="none" xmlns="http://www.w3.org/2000/svg"><path d="M43.649 78.624L26.81 89.258l7.09-19.81L46.593 57.13l-2.944 21.494z" fill="#DBC0B9"/><path d="M104.797.638l-70.896 68.81L60.5 94.68a1.712 1.712 0 002.742-.547L104.797.638zm0 0L1.171 35.179A1.712 1.712 0 00.54 38.05l22.727 21.39L104.797.638z" fill="#F9EAE0"/><path d="M33.9 69.449l-7.09 19.81-3.544-29.82 81.531-58.8-70.896 68.81z" fill="#F6F6F6"/><path d="M1.997 80.229a1.6 1.6 0 001.135-.47l14.18-14.18a1.605 1.605 0 00-2.27-2.27L.862 77.49a1.605 1.605 0 001.135 2.74zm24.813 24.813a1.6 1.6 0 001.135-.47l14.18-14.18a1.605 1.605 0 00-2.27-2.269l-14.179 14.18a1.604 1.604 0 001.135 2.739zm-24.813 0c.41 0 .822-.157 1.135-.47l14.18-14.18a1.605 1.605 0 00-2.27-2.269l-14.18 14.18a1.604 1.604 0 001.135 2.739z" fill="#FDF6E6"/><path d="M.06 36.366c.14-.527.523-.99 1.111-1.186L104.797.638 44.535 44.1.061 36.366z" fill="#fff"/><path d="M61.964 95.124l-10.34-42.878L104.798.638 63.243 94.133c-.247.558-.742.9-1.279.99z" fill="#D2374A"/></svg>