<svg width="26" height="29" fill="none" xmlns="http://www.w3.org/2000/svg"><path d="M14.627 1.585V0l-.002.003-1.158 1.488-.908 1.17.87 1.119 1.196 1.538.002.002V3.892c5.143.784 9.083 5.225 9.083 10.587 0 5.468-4.098 9.976-9.39 10.626l1.044 1.045-1.11 1.268C20.845 26.787 26 21.235 26 14.478 26 7.85 21.038 2.386 14.627 1.586z" fill="#fff"/><path d="M13.458 25.178l-1.197-1.54-.002-.002v1.524c-5.569-.38-9.97-5.015-9.97-10.68 0-5.75 4.53-10.438 10.214-10.698l-.98-1.12 1.173-1.174C5.658 1.649 0 7.402 0 14.48c0 6.93 5.425 12.593 12.26 12.977v1.5l.002-.003 1.154-1.485.912-1.173-.87-1.118z" fill="#fff"/></svg>