<svg width="66" height="67" fill="none" xmlns="http://www.w3.org/2000/svg"><circle cx="33" cy="33.77" r="33" fill="#fff" fill-opacity=".8"/><circle cx="33" cy="33.77" r="23" fill="#D2374A"/><path d="M41.981 43.714h0c.147.145.37.145.516-.022l.443-.438a.35.35 0 000-.51l-4.527-4.476-.035-.034-.035.034-.889.879-.035.035.036.036 4.526 4.496zM27.294 32.77h3.97v3.974h.944V32.77h4.022v-.936h-4.022V27.86h-.945v3.973h-4.019v.936h.05zm-4.344-.468c0 4.734 3.894 8.582 8.68 8.582 4.787 0 8.68-3.848 8.68-8.582 0-4.733-3.893-8.582-8.68-8.582-4.786 0-8.68 3.849-8.68 8.582zm.946 0c0-4.217 3.467-7.645 7.734-7.645 4.267 0 7.735 3.428 7.735 7.645s-3.468 7.646-7.735 7.646-7.734-3.429-7.734-7.646z" fill="#fff" stroke="#fff" stroke-width=".1"/></svg>