<svg width="22" height="22" fill="none" xmlns="http://www.w3.org/2000/svg"><path d="M12.517 8.476h-2.213V6.263a.914.914 0 00-.916-.916.914.914 0 00-.916.916v2.213H6.26a.914.914 0 00-.916.916c0 .508.408.916.916.916h2.213v2.214c0 .507.409.916.916.916a.914.914 0 00.916-.916v-2.214h2.213a.917.917 0 000-1.832z" fill="#D2374A"/><path d="M9.392 16.94a7.548 7.548 0 110-15.095 7.547 7.547 0 110 15.095zm12.338 3.502l-5.087-5.087A9.392 9.392 0 009.388 0C4.198 0 0 4.207 0 9.392a9.392 9.392 0 009.392 9.393c2.263 0 4.337-.8 5.958-2.133l5.087 5.087c.233.238.947.355 1.297 0a.92.92 0 00-.004-1.297z" fill="#D2374A"/></svg>