<svg width="57" height="58" fill="none" xmlns="http://www.w3.org/2000/svg"><rect y=".995" width="56.684" height="56.684" rx="4" fill="#29679F"/><path d="M10.283 40.674V17.331h3.682V37.42h12.527v3.255H10.283zm17.11-11.836c0-1.424.252-2.827.756-4.208a11.985 11.985 0 012.203-3.748 10.97 10.97 0 013.551-2.663c1.403-.68 3.003-1.019 4.8-1.019 2.104 0 3.923.471 5.458 1.414 1.534.942 2.674 2.17 3.419 3.682l-2.893 1.94c-.439-.943-.998-1.677-1.677-2.203a5.776 5.776 0 00-2.17-1.15 7.538 7.538 0 00-2.269-.363c-1.227 0-2.3.253-3.221.757a7.142 7.142 0 00-2.335 1.94 9.224 9.224 0 00-1.413 2.728 10.343 10.343 0 00-.46 3.025c0 1.512.317 2.926.953 4.241.657 1.293 1.545 2.345 2.663 3.156 1.14.79 2.444 1.184 3.912 1.184.745 0 1.523-.132 2.334-.395a6.953 6.953 0 002.236-1.216c.68-.57 1.227-1.315 1.644-2.236l3.057 1.743c-.482 1.161-1.238 2.148-2.268 2.959a10.736 10.736 0 01-3.42 1.84 11.674 11.674 0 01-3.714.625c-1.644 0-3.146-.34-4.505-1.019a11.705 11.705 0 01-3.517-2.761 13.361 13.361 0 01-2.302-3.88 12.26 12.26 0 01-.822-4.373z" fill="#fff"/></svg>