<svg width="60" height="59" fill="none" xmlns="http://www.w3.org/2000/svg"><g style="mix-blend-mode:lighten" clip-path="url(#clip0)"><path d="M30.45 58.902c16.292 0 29.5-12.983 29.5-29 0-16.016-13.208-29-29.5-29-16.293 0-29.5 12.984-29.5 29 0 16.017 13.207 29 29.5 29z" fill="#1977F3"/><path d="M41.933 38.286l1.307-8.385h-8.181v-5.44c0-2.292 1.14-4.53 4.808-4.53h3.721v-7.138s-3.377-.566-6.604-.566c-6.738 0-11.143 4.012-11.143 11.284v6.39h-7.492v8.385h7.492v20.265c1.502.232 3.04.35 4.609.35 1.568 0 3.107-.122 4.609-.35V38.286h6.874z" fill="#fff"/></g><defs><clipPath id="clip0"><path fill="#fff" transform="translate(.95 .896)" d="M0 0h59v58H0z"/></clipPath></defs></svg>