<svg width="16" height="16" fill="none" xmlns="http://www.w3.org/2000/svg"><path d="M15.2 1.067h-1.867v-.8A.266.266 0 0013.066 0H11.2a.266.266 0 00-.267.267v.8H5.067v-.8A.266.266 0 004.8 0H2.933a.266.266 0 00-.266.267v.8H.8a.266.266 0 00-.267.266v14.4c0 .148.12.267.267.267h14.4c.147 0 .267-.12.267-.267v-14.4a.266.266 0 00-.267-.266zM11.467.533H12.8v1.6h-1.334v-1.6zM3.2.533h1.333v1.6H3.2v-1.6zM1.067 1.6h1.6v.8c0 .147.119.267.266.267H4.8c.147 0 .267-.12.267-.267v-.8h5.866v.8c0 .147.12.267.267.267h1.867c.147 0 .266-.12.266-.267v-.8h1.6V4H1.067V1.6zm0 13.867V4.533h13.866v10.934H1.067z" fill="#fff"/><path d="M10.134 6.133h-7.2v7.733h10.133V6.133h-2.933zm-1.867.533h1.867v1.867H8.267V6.666zm1.867 4.267H8.267V9.066h1.867v1.867zM5.867 9.066h1.867v1.867H5.867V9.066zm0-2.4h1.867v1.867H5.867V6.666zm-2.4 0h1.867v1.867H3.467V6.666zm0 2.4h1.867v1.867H3.467V9.066zm1.867 4.267H3.467v-1.867h1.867v1.867zm2.4 0H5.867v-1.867h1.867v1.867zm2.4 0H8.267v-1.867h1.867v1.867zm2.4 0h-1.867v-1.867h1.867v1.867zm0-2.4h-1.867V9.066h1.867v1.867zm0-4.267v1.867h-1.867V6.666h1.867z" fill="#fff"/></svg>