<svg width="19" height="19" fill="none" xmlns="http://www.w3.org/2000/svg"><path d="M17.047 5.631c.012.169.012.338.012.506 0 5.148-3.918 11.08-11.08 11.08-2.206 0-4.255-.64-5.979-1.748.313.036.615.048.94.048a7.8 7.8 0 004.835-1.664 3.9 3.9 0 01-3.641-2.7c.241.036.482.06.735.06.35 0 .7-.048 1.025-.133A3.895 3.895 0 01.772 7.258V7.21c.518.29 1.12.47 1.76.495A3.891 3.891 0 01.796 4.462c0-.724.193-1.387.53-1.966a11.069 11.069 0 008.03 4.075 4.337 4.337 0 01-.097-.892 3.892 3.892 0 013.894-3.894c1.121 0 2.134.47 2.845 1.23a7.667 7.667 0 002.472-.94 3.884 3.884 0 01-1.712 2.145A7.806 7.806 0 0019 3.618a8.368 8.368 0 01-1.953 2.013z" fill="#E5E5E5"/></svg>