<svg width="19" height="19" fill="none" xmlns="http://www.w3.org/2000/svg"><path d="M18.192 4.228c-.515-.917-1.074-1.086-2.213-1.15-1.138-.077-3.998-.11-6.477-.11-2.483 0-5.345.033-6.481.109-1.136.065-1.697.233-2.217 1.15C.274 5.144 0 6.72 0 9.497v.008c0 2.764.273 4.353.804 5.26.52.916 1.08 1.082 2.216 1.16 1.137.066 4 .105 6.482.105 2.479 0 5.34-.039 6.478-.104 1.139-.077 1.698-.244 2.214-1.16.535-.906.806-2.495.806-5.26v-.009c0-2.778-.27-4.355-.808-5.27zM7.125 13.063V5.936L13.063 9.5l-5.938 3.563z" fill="#fff"/></svg>