<svg width="67" height="67" fill="none" xmlns="http://www.w3.org/2000/svg"><g clip-path="url(#clip0)" fill="#fff"><path d="M53.592 34.011a1.15 1.15 0 00-2.059.528l-.638 4.474a1.123 1.123 0 01-.06.168 20.68 20.68 0 002.812-5.096l-.055-.074zM49.755 40c-.054 0-.108-.003-.162-.01l-6.833-.977a1.15 1.15 0 01-.975-1.301l.638-4.475a1.15 1.15 0 00-1.828-1.083l-3.616 2.711a1.15 1.15 0 01-1.61-.23l-4.141-5.52a1.15 1.15 0 01.23-1.611l3.615-2.711a1.15 1.15 0 00-.528-2.06l-4.474-.639a1.15 1.15 0 01-.977-1.3v-.002l.977-6.831a1.15 1.15 0 011.3-.977h.002l4.474.64c.46.067.915-.152 1.15-.553a1.126 1.126 0 00-.069-1.277L34.22 8.18a1.15 1.15 0 01.23-1.61l.652-.49a21.093 21.093 0 00-3.168.086c-11.36 1.297-19.519 11.558-18.222 22.92a20.704 20.704 0 009.409 15.088 6.596 6.596 0 013.12 5.525v4.648a3.45 3.45 0 003.45 3.451h9.202a3.45 3.45 0 003.45-3.45v-4.553a6.776 6.776 0 013.187-5.662 20.843 20.843 0 004.8-4.302 1.149 1.149 0 01-.575.17zM35.442 54.347h-2.3v-3.45h2.3v3.45zm-2.3-5.751a7.343 7.343 0 00-4.716-6.855c-8.283-3.24-12.372-12.58-9.133-20.863a16.103 16.103 0 016.417-7.762l1.22 1.946c-6.452 4.06-8.39 12.581-4.33 19.033a13.803 13.803 0 006.656 5.505 9.624 9.624 0 016.186 8.996h-2.3zM29.691 63.55v1.15a2.3 2.3 0 002.3 2.3h4.602a2.3 2.3 0 002.3-2.3v-1.15h-9.202z"/><path d="M22.5 45.145a21.76 21.76 0 01-1.966-1.437 6.88 6.88 0 01-13.001-3.164 6.907 6.907 0 016.046-6.843 21.9 21.9 0 01-.911-3.9l-.202.957a2.3 2.3 0 01-3.555 1.422l-2.393-1.643-2.095 2.091 1.647 2.395a2.3 2.3 0 01-1.42 3.557l-2.868.604v2.732l2.867.604a2.3 2.3 0 011.42 3.558L4.423 48.46l2.095 2.091 2.39-1.647a2.3 2.3 0 013.557 1.42l.603 2.873h2.734l.603-2.868a2.3 2.3 0 013.556-1.42l2.39 1.642 2.467-2.467a5.614 5.614 0 00-2.318-2.939zm16.393 13.803h-9.202v2.3h9.202v-2.3zm24.12-39.118a3.45 3.45 0 01-1.582-6.177l2.695-2.023-2.76-3.68-2.695 2.02a3.45 3.45 0 01-5.488-3.243l.476-3.336-4.554-.65-.476 3.336a3.45 3.45 0 01-6.177 1.582l-2.022-2.7-3.68 2.76 2.02 2.696a3.45 3.45 0 01-3.25 5.486l-3.335-.476-.653 4.555 3.335.476a3.451 3.451 0 011.582 6.177l-2.694 2.022 2.76 3.681 2.696-2.021a3.45 3.45 0 015.486 3.25l-.476 3.335 4.564.654.477-3.336a3.451 3.451 0 016.176-1.582l2.023 2.694 3.68-2.76-2.028-2.7a3.45 3.45 0 013.245-5.487l3.336.476.65-4.553-3.331-.477zm-14.071 7.215a6.901 6.901 0 116.901-6.902 6.91 6.91 0 01-6.901 6.902zm15.257 15.8h-8.052v2.3h8.052v-2.3zm-8.466 6.017l-1.473 1.767 6.902 5.75 1.473-1.767-6.902-5.75zm-4.187 3.185h-2.3v8.052h2.3v-8.052zM9.857 17.573l-9.201 2.3.557 2.23 9.202-2.3-.558-2.23zM3.903 6.252L2.566 8.123l8.052 5.751 1.336-1.87-8.051-5.752zM14.65 0l-2.228.57 2.352 9.2 2.23-.57L14.65 0z"/></g><defs><clipPath id="clip0"><path fill="#fff" d="M0 0h67v67H0z"/></clipPath></defs></svg>