<svg width="69" height="69" fill="none" xmlns="http://www.w3.org/2000/svg"><g clip-path="url(#clip0)"><path d="M68.996 65.537a1.094 1.094 0 00-1.006-1.006H52.86V55.1c8.723-1.545 14.542-9.87 12.997-18.593a16.04 16.04 0 00-5.792-9.743c.306-.609.556-1.245.746-1.9v-.052c1.69-5.947-1.763-12.138-7.71-13.826-5.947-1.69-12.138 1.763-13.827 7.71-.567 2-.567 4.117 0 6.116.19.678.445 1.336.76 1.965l-.046.033a20.346 20.346 0 011.848 8.515c0 .625-.029 1.245-.086 1.86a.655.655 0 01.91.173l.007.01 4.677 6.682a1.094 1.094 0 002.044-.544V24.117a.655.655 0 111.31 0v1.428a1.094 1.094 0 002.044.543l1.185-1.69a.655.655 0 111.035.786l-4.002 5.712a1.088 1.088 0 00-.256.7v32.929h-1.31v-15c0-.257-.09-.505-.255-.701l-7.513-10.71A20.306 20.306 0 0136.91 48.55a16.054 16.054 0 0010.284 6.55v9.432h-22.67v-11.18c9.981-1.72 16.68-11.206 14.96-21.188A18.34 18.34 0 0032.75 20.86c.388-.746.7-1.53.93-2.338 1.93-6.766-1.99-13.817-8.756-15.747-6.766-1.93-13.816 1.99-15.746 8.756a12.74 12.74 0 00-.015 6.938v.053c.231.808.543 1.592.93 2.338C2.133 27.124.756 38.655 7.02 46.616a18.341 18.341 0 0011.3 6.734v11.181H1.18a1.094 1.094 0 100 2.181h66.81a1.094 1.094 0 001.005-1.175zm-46.654-39.14V64.53h-1.827V47.062c0-.256-.09-.505-.256-.7l-8.685-12.4a.917.917 0 011.434-1.134c.028.046.058.09.092.131l5.351 7.645a1.094 1.094 0 002.044-.544V17.763a.91.91 0 111.821 0v1.677a1.094 1.094 0 002.044.543l1.343-1.919c.989-1.179 2.155.118 1.552.976l-4.657 6.655a1.087 1.087 0 00-.256.701z" fill="#fff"/></g><defs><clipPath id="clip0"><path fill="#fff" d="M0 0h69v69H0z"/></clipPath></defs></svg>