<svg width="65" height="65" fill="none" xmlns="http://www.w3.org/2000/svg"><path d="M65 21.455v-7.49a5.72 5.72 0 00-5.713-5.713h-.762v6.982a1.904 1.904 0 01-3.808 0V5.078a1.904 1.904 0 00-3.809 0v3.174H38.213v6.982a1.904 1.904 0 01-3.809 0V5.078a1.904 1.904 0 00-3.808 0v3.174H17.9v6.982a1.904 1.904 0 01-3.808 0V5.078a1.904 1.904 0 00-3.809 0v3.174h-4.57A5.72 5.72 0 000 13.965v7.49h65zM0 25.264v30.85a5.72 5.72 0 005.713 5.712h53.574A5.72 5.72 0 0065 56.113v-30.85H0zM18.281 51.67H14.22a1.904 1.904 0 010-3.809h4.062a1.904 1.904 0 010 3.809zm0-8.125H14.22a1.904 1.904 0 010-3.809h4.062a1.904 1.904 0 010 3.809zm0-8.125H14.22a1.904 1.904 0 010-3.809h4.062a1.904 1.904 0 010 3.809zm16.25 16.25H30.47a1.904 1.904 0 010-3.809h4.062a1.904 1.904 0 010 3.809zm0-8.125H30.47a1.904 1.904 0 010-3.809h4.062a1.904 1.904 0 010 3.809zm0-8.125H30.47a1.904 1.904 0 010-3.809h4.062a1.904 1.904 0 010 3.809zm16.25 16.25H46.72a1.904 1.904 0 010-3.809h4.062a1.904 1.904 0 010 3.809zm0-8.125H46.72a1.904 1.904 0 010-3.809h4.062a1.904 1.904 0 010 3.809zm0-8.125H46.72a1.904 1.904 0 010-3.809h4.062a1.904 1.904 0 010 3.809z" fill="#fff"/></svg>