<svg width="62" height="66" fill="none" xmlns="http://www.w3.org/2000/svg"><path d="M4.003 36.057l3.103 2.273 2.96-4.104 2.96 4.104 3.104-2.273-2.96-4.103 4.788-1.566-1.184-3.678-4.79 1.566v-5.073H8.148v5.073l-4.79-1.566-1.184 3.678 4.787 1.566-2.958 4.103zM23.19 24.455l3.103 2.274 2.96-4.105 2.961 4.105 3.103-2.274-2.959-4.102 4.788-1.567-1.184-3.678-4.79 1.567v-5.073h-3.837v5.073l-4.79-1.567-1.184 3.678 4.788 1.567-2.959 4.102zm19.187-11.601l3.103 2.273 2.96-4.104 2.962 4.104 3.102-2.274-2.958-4.102 4.787-1.566-1.184-3.678-4.79 1.566V0h-3.837v5.073l-4.79-1.566-1.183 3.678 4.787 1.566-2.959 4.103z" fill="#fff"/><path d="M58.035 62.133h-3.838V19.336H42.685v42.797H35.01V30.937H23.497v31.196h-7.675V42.539H4.31v19.594H.472V66h57.563v-3.867z" fill="#fff"/></svg>