<svg width="67" height="67" fill="none" xmlns="http://www.w3.org/2000/svg"><path d="M33.5 0c-4.33 0-7.852 3.652-7.852 7.982s3.522 7.852 7.852 7.852 7.852-3.521 7.852-7.852C41.352 3.652 37.83 0 33.5 0zM3.926 43.315c0 4.33 3.652 7.851 7.982 7.851s7.852-3.521 7.852-7.851-3.522-7.852-7.852-7.852-7.982 3.521-7.982 7.852zm51.166-7.852c-4.33 0-7.852 3.521-7.852 7.852 0 4.33 3.522 7.851 7.852 7.851s7.851-3.521 7.851-7.851-3.521-7.852-7.851-7.852z" fill="#fff"/><path d="M61.578 53.129a11.696 11.696 0 01-12.972 0c-.382.253-.692.591-1.04.885l-12.103-9.68V31.537h9.814v-3.926c0-4.097-2.108-7.704-5.29-9.814a11.696 11.696 0 01-12.973 0c-3.183 2.11-5.291 5.717-5.291 9.814v3.926h9.814v12.797l-12.103 9.68c-.349-.294-.658-.632-1.04-.885a11.696 11.696 0 01-6.486 1.963c-2.397 0-4.755-.728-6.617-1.963C2.108 55.239 0 58.977 0 63.074V67h23.686v-3.926c0-2.185-.632-4.338-1.675-6.091L33.5 47.79l11.489 9.193a12.086 12.086 0 00-1.674 6.091V67H67v-3.926c0-4.097-2.239-7.834-5.422-9.945z" fill="#fff"/></svg>