<svg width="69" height="69" fill="none" xmlns="http://www.w3.org/2000/svg"><path d="M64.67 45.802V24.34l-4.043 1.348v20.114a6.36 6.36 0 00-4.33 6.02v10.826a2.02 2.02 0 002.02 2.021h8.661A2.022 2.022 0 0069 62.648V51.822a6.36 6.36 0 00-4.33-6.02zM32.583 33.758l-19.591-6.53v13.768c0 .536.212 1.05.592 1.43C19.17 48.011 26.6 51.088 34.5 51.088c7.901 0 15.33-3.077 20.916-8.664.379-.38.592-.893.592-1.43V27.228l-19.591 6.53a6.066 6.066 0 01-3.835 0z" fill="#fff"/><path d="M34.5 30.026c.216 0 .432-.035.64-.104l32.478-10.826a2.022 2.022 0 000-3.835L35.139 4.434a2.024 2.024 0 00-1.278 0L1.382 15.26a2.021 2.021 0 000 3.836l32.479 10.826c.207.07.423.104.639.104z" fill="#fff"/></svg>