<svg width="278" height="278" fill="none" xmlns="http://www.w3.org/2000/svg"><path d="M139 240.75v37c38.314 0 73.001-15.531 98.11-40.64l-26.163-26.164c-18.413 18.417-43.85 29.804-71.947 29.804z" fill="#FBC412"/><path d="M240.75 139c0 28.097-11.387 53.534-29.804 71.947l26.164 26.163c25.109-25.109 40.64-59.796 40.64-98.11h-37z" fill="#29B49B"/><path d="M210.947 67.053L237.11 40.89C212.001 15.78 177.314.25 139 .25v37c28.097 0 53.534 11.387 71.947 29.803z" fill="#29B43F"/><path d="M210.946 67.053c18.417 18.413 29.804 43.85 29.804 71.947h37c0-38.313-15.531-73.001-40.64-98.11l-26.164 26.163z" fill="#E01483"/><path d="M139 240.75v37c-38.314 0-73.001-15.531-98.11-40.64l26.163-26.164c18.413 18.417 43.85 29.804 71.947 29.804z" fill="#2D9B1B"/><path d="M37.25 139c0 28.097 11.387 53.534 29.803 71.947L40.89 237.11C15.78 212.001.25 177.314.25 139h37z" fill="#EC3737"/><path d="M67.053 67.053L40.89 40.89C65.999 15.78 100.686.25 139 .25v37c-28.097 0-53.534 11.387-71.947 29.803z" fill="#E48C24"/><path d="M67.053 67.053C48.638 85.466 37.25 110.904 37.25 139h-37c0-38.313 15.53-73.001 40.64-98.11l26.163 26.163z" fill="#2C29B4"/></svg>