<svg width="318" height="372" fill="none" xmlns="http://www.w3.org/2000/svg"><path fill-rule="evenodd" clip-rule="evenodd" d="M0 338.747l283.114 33.051L318 124.923 237.43 21.378 47.01 0 0 338.747zm68.96-311.96l150.926 15.131-20.879 95.94 90.54 12.139-28.394 195.713-234.954-28.649L68.961 26.787zm24.837 238.99c-.685-.892-3.612-3.522-6.988-6.555-4.712-4.233-10.3-9.253-11.888-11.434 38.615-42.841 132.916-42.311 159.104 14.367-4.365 1.602-23.85 10.008-27.668 12.145-10.925-31.619-74.917-41.595-112.56-8.523zm56.705-105.189l15.91-11.933-19.082-27.88 30.58-16.356-10.225-20.45-33.932 16.966-19.05-27.838-23.865 15.91 19.639 23.564-29.63 14.817 13.146 21.909 32.579-17.422 23.93 28.713z" fill="#FF008A"/></svg>