<svg width="21" height="21" fill="none" xmlns="http://www.w3.org/2000/svg"><path d="M17.323 5.39c0 .025-.005.049-.008.073v5.656a.532.532 0 01-.533.533c-.01 0-.018-.002-.028-.003h-1.008v-.004a.531.531 0 01-.517-.528h-.002V5.342h.01a.53.53 0 01.509-.48v-.005h1.044c.294 0 .533.239.533.533zm-3.15-.886v7.665a.534.534 0 01-.532.533c-.01 0-.02-.003-.029-.003h-2.086a.625.625 0 01-.112.133l-2.075 3.595-.005-.003a1.201 1.201 0 01-1.046.616 1.215 1.215 0 01-1.206-1.223H7.07v-3.118H4.196v-.004a.531.531 0 01-.517-.528h-.001V6.255h.001c0-.067.026-.135.077-.187l2.05-2.051.005.005a.26.26 0 01.203-.057h7.582c.015-.002.03-.005.045-.005a.531.531 0 01.53.505h.002v.016l.001.012v.01zM4.306 6.255l.01-.01-.01.01z" fill="#E95131"/></svg>