<svg width="27" height="31" fill="none" xmlns="http://www.w3.org/2000/svg"><path d="M24.046 10.648L21.825 4.67a1.76 1.76 0 00-1.74-1.15l-6.37.306c-.56.026-1.08.322-1.39.79L2.627 19.304c-.264.4-.354.896-.249 1.363l.957 4.227c.104.46.381.84.75 1.083.36.238.807.345 1.264.268l4.354-.73c.482-.08.913-.36 1.182-.768l.469-.71 2.876-4.355 4.513-6.834a1.768 1.768 0 00-.5-2.446l-1.849-1.22a1.768 1.768 0 00-2.446.5l-4.625 7.002a.816.816 0 001.362.9l4.625-7.003a.133.133 0 01.185-.037l1.848 1.22c.061.04.078.123.038.185l-4.514 6.834-2.876 4.355-.468.71a.133.133 0 01-.09.058l-4.354.73a.133.133 0 01-.152-.103l-.956-4.227a.134.134 0 01.018-.102l9.7-14.688a.134.134 0 01.105-.06l6.37-.304a.133.133 0 01.131.086l2.221 5.978c.015.04.01.085-.013.12l-5.442 8.24a.816.816 0 101.362.9l5.442-8.24a1.77 1.77 0 00.182-1.588z" fill="#6EE47A"/></svg>