<svg width="18" height="18" fill="none" xmlns="http://www.w3.org/2000/svg"><g clip-path="url(#clip0)" fill="#6EE47A"><path d="M17.698 8.047L9.622.687a.919.919 0 00-1.244 0L.302 8.048a.917.917 0 00-.239 1.015c.139.359.477.59.861.59h1.29v7.373c0 .292.237.53.53.53H7.17a.53.53 0 00.53-.53v-4.477h2.6v4.477c0 .292.238.53.53.53h4.427a.53.53 0 00.529-.53V9.652h1.29a.917.917 0 00.86-.59.918.918 0 00-.238-1.015zm-2.05-6.545h-3.555l4.084 3.714V2.032a.53.53 0 00-.53-.53z"/></g><defs><clipPath id="clip0"><path fill="#fff" d="M0 0h18v18H0z"/></clipPath></defs></svg>