<svg width="22" height="22" fill="none" xmlns="http://www.w3.org/2000/svg"><path d="M20.506 12.296a3.82 3.82 0 00.647-2.155c0-.908-.334-1.697-1.004-2.367-.67-.67-1.463-1.005-2.38-1.005h-2.327c.423-.872.635-1.719.635-2.538 0-1.032-.155-1.851-.463-2.46A2.905 2.905 0 0014.266.43C13.675.143 13.01 0 12.269 0c-.45 0-.846.163-1.19.49-.379.37-.652.845-.82 1.427-.167.582-.301 1.14-.402 1.673-.102.533-.258.91-.47 1.13a25.419 25.419 0 00-1.414 1.692c-.89 1.155-1.494 1.838-1.812 2.05H2.54c-.467 0-.866.165-1.197.495-.33.33-.495.73-.495 1.197v8.461c0 .467.165.866.495 1.197.331.33.73.496 1.197.496h3.807c.194 0 .802.176 1.825.528 1.084.38 2.038.668 2.862.866.824.199 1.66.298 2.505.298h1.706c1.242 0 2.243-.355 3-1.065.759-.71 1.133-1.676 1.125-2.902.529-.678.793-1.463.793-2.353 0-.194-.013-.383-.04-.568.335-.59.503-1.225.503-1.904 0-.317-.04-.622-.12-.912zM3.98 18.364a.814.814 0 01-.595.251.814.814 0 01-.595-.25.813.813 0 01-.251-.596c0-.23.084-.427.251-.595a.814.814 0 01.595-.251c.23 0 .428.084.595.251a.813.813 0 01.251.595c0 .23-.083.428-.251.595zm15.197-7.139c-.189.406-.425.613-.707.622.132.15.243.36.33.628.089.269.133.513.133.734 0 .607-.234 1.132-.7 1.572.158.282.237.587.237.913 0 .326-.077.65-.231.971-.154.322-.364.553-.628.694.044.264.066.511.066.74 0 1.472-.846 2.208-2.539 2.208H13.54c-1.155 0-2.662-.321-4.522-.965a7.406 7.406 0 00-1.818-.601 6.013 6.013 0 00-.436-.086 2.67 2.67 0 00-.416-.04h-.423v-8.46h.423c.14 0 .297-.04.469-.12.172-.079.348-.198.529-.357.18-.158.35-.315.509-.47.159-.153.335-.347.529-.58a26.169 26.169 0 00.872-1.105l.304-.396c.485-.6.824-1 1.018-1.203.362-.38.624-.862.787-1.448.163-.586.297-1.14.403-1.66.106-.52.273-.894.503-1.123.846 0 1.41.207 1.692.621.282.414.423 1.053.423 1.917 0 .52-.212 1.227-.635 2.122-.423.895-.634 1.598-.634 2.109h4.653c.441 0 .833.17 1.177.509.344.34.516.733.516 1.183 0 .309-.095.666-.285 1.072z" fill="#fff"/></svg>