<svg width="50" height="50" fill="none" xmlns="http://www.w3.org/2000/svg"><path d="M20.28 28.879c-3.179-.332-6.045-1.114-8.498-3.034-.305-.238-.619-.468-.897-.735-1.074-1.032-1.182-2.213-.332-3.43.727-1.042 1.947-1.32 3.216-.722.245.116.48.26.704.416 4.572 3.142 10.854 3.228 15.444.141.454-.349.94-.633 1.504-.778 1.095-.281 2.117.121 2.705 1.08.671 1.094.663 2.162-.165 3.012-1.27 1.303-2.796 2.245-4.492 2.903-1.604.622-3.36.935-5.099 1.143.262.285.386.426.55.59 2.361 2.373 4.732 4.735 7.085 7.114.802.81.97 1.816.528 2.76-.483 1.03-1.563 1.708-2.622 1.635-.672-.046-1.195-.38-1.66-.849-1.782-1.793-3.597-3.552-5.342-5.379-.508-.531-.752-.43-1.2.03a356.771 356.771 0 01-5.447 5.469c-.822.811-1.802.957-2.756.494-1.014-.492-1.66-1.527-1.61-2.568.035-.703.381-1.241.864-1.723 2.336-2.333 4.666-4.672 6.997-7.009.154-.155.298-.32.523-.56z" fill="#6EE47A"/><path d="M22.215 20.752c-5.67-.019-10.32-4.72-10.286-10.399C11.96 4.611 16.614-.016 22.34 0c5.738.015 10.343 4.71 10.314 10.51-.029 5.668-4.71 10.262-10.439 10.242zm5.154-10.385a5.054 5.054 0 00-5.07-5.067 5.061 5.061 0 00-5.082 5.128c.021 2.81 2.286 5.038 5.108 5.028a5.043 5.043 0 005.044-5.089z" fill="#6EE47A"/></svg>