<svg width="67" height="67" fill="none" xmlns="http://www.w3.org/2000/svg"><path d="M2.577 17.18c1.797 0 2.564.51 3.725 1.285 1.437.958 3.225 2.15 6.582 2.15 3.357 0 5.146-1.192 6.583-2.15 1.16-.774 1.928-1.285 3.724-1.285 1.797 0 2.564.511 3.724 1.285 1.438.958 3.226 2.15 6.584 2.15 3.357 0 5.146-1.192 6.583-2.15 1.16-.774 1.928-1.285 3.724-1.285 1.797 0 2.565.511 3.725 1.285 1.438.958 3.227 2.15 6.584 2.15 3.357 0 5.146-1.192 6.583-2.15 1.161-.774 1.928-1.285 3.725-1.285a2.577 2.577 0 000-5.154c-3.358 0-5.146 1.192-6.584 2.15-1.16.774-1.928 1.286-3.724 1.286-1.797 0-2.564-.512-3.725-1.286-1.437-.958-3.226-2.15-6.584-2.15-3.357 0-5.146 1.192-6.583 2.15-1.16.774-1.928 1.286-3.724 1.286-1.797 0-2.564-.512-3.725-1.286-1.437-.958-3.226-2.15-6.583-2.15s-5.146 1.192-6.583 2.15c-1.16.774-1.928 1.285-3.724 1.285-1.796 0-2.563-.51-3.723-1.285-1.438-.958-3.227-2.15-6.584-2.15a2.577 2.577 0 000 5.154zm61.846 12.025c-3.357 0-5.146 1.193-6.584 2.151-1.16.774-1.927 1.285-3.724 1.285-1.797 0-2.564-.511-3.725-1.285-1.437-.958-3.226-2.15-6.584-2.15-3.357 0-5.145 1.192-6.583 2.15-1.16.774-1.927 1.285-3.724 1.285-1.797 0-2.564-.511-3.725-1.285-1.437-.959-3.226-2.151-6.583-2.151s-5.146 1.192-6.583 2.15c-1.16.774-1.927 1.286-3.724 1.286-1.796 0-2.563-.512-3.723-1.285-1.438-.959-3.226-2.151-6.584-2.151a2.578 2.578 0 000 5.154c1.797 0 2.564.511 3.725 1.285 1.437.958 3.225 2.151 6.582 2.151 3.357 0 5.146-1.193 6.583-2.15 1.16-.775 1.928-1.286 3.724-1.286 1.797 0 2.564.511 3.724 1.285 1.438.959 3.226 2.151 6.584 2.151 3.357 0 5.146-1.193 6.583-2.15 1.16-.775 1.928-1.286 3.724-1.286 1.797 0 2.565.511 3.725 1.285 1.438.958 3.227 2.151 6.584 2.151 3.357 0 5.146-1.192 6.583-2.15 1.161-.775 1.928-1.286 3.725-1.286a2.577 2.577 0 000-5.154z" fill="#FF3D3D"/></svg>