<svg width="22" height="22" fill="none" xmlns="http://www.w3.org/2000/svg"><path d="M18.778 3.222A10.928 10.928 0 0011 0C8.062 0 5.3 1.144 3.222 3.222A10.928 10.928 0 000 11c0 2.938 1.144 5.7 3.222 7.778A10.928 10.928 0 0011 22c2.938 0 5.7-1.144 7.778-3.222A10.928 10.928 0 0022 11c0-2.938-1.144-5.7-3.222-7.778zM11 20.282c-5.118 0-9.281-4.164-9.281-9.282S5.882 1.719 11 1.719 20.281 5.882 20.281 11 16.118 20.281 11 20.281z" fill="#FF6243"/><path d="M15.855 12.28a6.12 6.12 0 01-1.075 1.82c-.97 1.137-2.206 1.712-3.677 1.712-1.481 0-2.758-.582-3.795-1.731a6.618 6.618 0 01-1.175-1.835l-1.61.601a8.232 8.232 0 001.461 2.332c1.365 1.539 3.135 2.352 5.12 2.352 1.993 0 3.733-.82 5.03-2.37a7.777 7.777 0 001.355-2.35l-1.634-.532zM7.219 9.115a1.375 1.375 0 100-2.75 1.375 1.375 0 000 2.75zm7.562 0a1.375 1.375 0 100-2.75 1.375 1.375 0 000 2.75z" fill="#FF6243"/></svg>