<svg width="63" height="63" fill="none" xmlns="http://www.w3.org/2000/svg"><path d="M59.75 28.217a3.206 3.206 0 00-.158-.305c-.816-1.47-2.374-3.272-4.675-5.409l-.048-.049-.024-.024-.025-.024h-.025c-1.044-.996-1.705-1.665-1.982-2.007-.506-.653-.62-1.314-.343-1.983.196-.506.93-1.574 2.203-3.205.669-.865 1.199-1.558 1.59-2.08 2.823-3.753 4.046-6.15 3.67-7.195l-.145-.244c-.098-.147-.35-.28-.758-.403-.408-.123-.93-.143-1.567-.061l-7.047.048c-.114-.04-.277-.036-.49.013l-.318.073-.123.061-.097.074a1.088 1.088 0 00-.27.257 1.683 1.683 0 00-.243.428 39.954 39.954 0 01-2.62 5.506 52.038 52.038 0 01-1.663 2.63c-.506.743-.93 1.29-1.273 1.64-.342.35-.652.632-.93.844-.277.212-.489.302-.636.27a17.691 17.691 0 01-.416-.099 1.629 1.629 0 01-.55-.6c-.14-.252-.233-.57-.282-.954a10.504 10.504 0 01-.086-.99 20.67 20.67 0 01.013-1.175c.017-.506.024-.849.024-1.028 0-.62.013-1.293.037-2.02.024-.725.044-1.3.061-1.724.017-.424.025-.873.025-1.346 0-.473-.03-.844-.086-1.114a3.81 3.81 0 00-.256-.783 1.319 1.319 0 00-.502-.587 2.827 2.827 0 00-.82-.33c-.865-.196-1.966-.302-3.304-.319-3.034-.032-4.984.164-5.848.588a3.3 3.3 0 00-.93.734c-.294.359-.335.555-.123.587.98.147 1.672.498 2.08 1.052l.147.294c.115.212.229.588.343 1.126.114.538.188 1.133.22 1.786.082 1.19.082 2.21 0 3.059a37.551 37.551 0 01-.232 1.982c-.074.473-.184.856-.33 1.15a4.862 4.862 0 01-.294.538.422.422 0 01-.123.122 1.834 1.834 0 01-.66.123c-.23 0-.506-.114-.832-.343a5.873 5.873 0 01-1.016-.942c-.35-.4-.746-.958-1.187-1.676a29.257 29.257 0 01-1.37-2.545l-.392-.71a60.945 60.945 0 01-1.003-1.994 38.46 38.46 0 01-1.126-2.533c-.13-.343-.326-.604-.587-.783l-.122-.074a1.677 1.677 0 00-.392-.208 2.597 2.597 0 00-.563-.159l-6.705.05c-.685 0-1.15.154-1.394.464l-.098.147c-.05.082-.074.212-.074.392 0 .18.049.4.147.66.979 2.3 2.043 4.52 3.193 6.657 1.15 2.137 2.15 3.858 2.998 5.162a60.918 60.918 0 002.594 3.695c.88 1.159 1.464 1.901 1.75 2.227.285.327.51.571.672.735l.612.587c.392.391.967.86 1.725 1.407a29.42 29.42 0 002.52 1.615c.923.53 1.995.962 3.219 1.297 1.224.335 2.414.469 3.573.404h2.814c.57-.05 1.003-.229 1.297-.538l.097-.123c.066-.098.127-.249.184-.452a2.5 2.5 0 00.085-.673 8.06 8.06 0 01.16-1.896c.121-.563.26-.987.416-1.273.155-.285.33-.526.526-.721.195-.196.334-.315.416-.355.082-.042.146-.07.195-.086.392-.13.853-.004 1.383.38.53.383 1.028.856 1.493 1.419a43.467 43.467 0 001.676 1.896c.653.702 1.224 1.223 1.713 1.566l.49.294c.326.196.75.375 1.273.538.52.163.977.204 1.37.123l6.264-.098c.62 0 1.102-.102 1.444-.306.342-.204.546-.429.611-.673.066-.245.07-.522.013-.832-.058-.31-.115-.526-.172-.649z" fill="#6EE47A"/></svg>