<svg width="632" height="399" fill="none" xmlns="http://www.w3.org/2000/svg"><path d="M351.277 354.324h-6.855v4.258h3.535c1.484.02 2.643.4 3.477 1.143.833.742 1.25 1.751 1.25 3.027 0 1.283-.42 2.305-1.26 3.066-.84.762-1.986 1.156-3.438 1.182h-5.449v-14.219h8.74v1.543zm-6.855 5.801v5.342h3.428c.931 0 1.653-.248 2.168-.742.52-.495.781-1.159.781-1.993 0-.8-.251-1.432-.752-1.894-.495-.462-1.201-.7-2.119-.713h-3.506zm19.443 1.709c0 1.608-.368 2.904-1.103 3.887-.736.983-1.732 1.474-2.989 1.474-1.282 0-2.291-.407-3.027-1.22v5.087h-1.807v-14.628h1.651l.088 1.171c.735-.911 1.758-1.367 3.066-1.367 1.27 0 2.272.479 3.008 1.436.742.957 1.113 2.288 1.113 3.994v.166zm-1.806-.205c0-1.191-.254-2.132-.762-2.822s-1.205-1.036-2.09-1.036c-1.094 0-1.914.486-2.461 1.456v5.048c.54.964 1.367 1.446 2.481 1.446.865 0 1.552-.342 2.06-1.026.514-.69.772-1.712.772-3.066zm3.632-.01c0-1.035.202-1.966.606-2.793.41-.827.976-1.465 1.699-1.914.729-.449 1.559-.674 2.49-.674 1.439 0 2.601.498 3.487 1.494.892.997 1.338 2.321 1.338 3.975v.127c0 1.029-.199 1.953-.596 2.773a4.454 4.454 0 01-1.69 1.905c-.729.455-1.569.683-2.519.683-1.432 0-2.595-.498-3.486-1.494-.886-.996-1.329-2.314-1.329-3.955v-.127zm1.817.215c0 1.172.27 2.113.81 2.822.547.71 1.276 1.065 2.188 1.065.918 0 1.647-.358 2.187-1.075.541-.722.811-1.731.811-3.027 0-1.159-.277-2.096-.83-2.812-.547-.723-1.276-1.084-2.188-1.084-.892 0-1.611.354-2.158 1.064-.547.71-.82 1.725-.82 3.047zm13.359.664h-1.318V367h-1.817v-10.566h1.817v4.472h1.181l3.555-4.472h2.188l-4.18 5.078 4.531 5.488h-2.295l-3.662-4.502zm11.738 4.697c-1.432 0-2.597-.468-3.496-1.406-.898-.944-1.347-2.204-1.347-3.779v-.332c0-1.048.198-1.983.595-2.803.404-.827.964-1.471 1.68-1.934a4.233 4.233 0 012.344-.703c1.374 0 2.441.453 3.203 1.358s1.143 2.2 1.143 3.886v.752h-7.159c.026 1.042.329 1.885.909 2.53.585.638 1.328.957 2.226.957.638 0 1.179-.131 1.621-.391.443-.26.83-.605 1.162-1.035l1.104.859c-.886 1.361-2.214 2.041-3.985 2.041zm-.224-9.472c-.729 0-1.341.267-1.836.8-.495.528-.801 1.27-.918 2.227h5.293v-.137c-.052-.918-.3-1.627-.742-2.129-.443-.507-1.042-.761-1.797-.761zm15.371 4.111c0 1.608-.368 2.904-1.104 3.887-.735.983-1.731 1.474-2.988 1.474-1.282 0-2.292-.407-3.027-1.22v5.087h-1.807v-14.628h1.651l.087 1.171c.736-.911 1.758-1.367 3.067-1.367 1.269 0 2.272.479 3.008 1.436.742.957 1.113 2.288 1.113 3.994v.166zm-1.807-.205c0-1.191-.254-2.132-.761-2.822-.508-.69-1.205-1.036-2.09-1.036-1.094 0-1.914.486-2.461 1.456v5.048c.54.964 1.367 1.446 2.48 1.446.866 0 1.553-.342 2.061-1.026.514-.69.771-1.712.771-3.066zm8.35 4.092c.644 0 1.208-.196 1.689-.586.482-.391.749-.879.801-1.465h1.709c-.032.605-.241 1.182-.625 1.728a4.098 4.098 0 01-1.543 1.309 4.402 4.402 0 01-2.031.488c-1.439 0-2.585-.478-3.438-1.435-.846-.964-1.269-2.279-1.269-3.946v-.302c0-1.029.189-1.944.566-2.744.378-.801.918-1.423 1.621-1.866.71-.442 1.547-.664 2.51-.664 1.185 0 2.168.355 2.949 1.065.788.709 1.208 1.631 1.26 2.763h-1.709c-.052-.683-.312-1.243-.781-1.679-.462-.443-1.035-.664-1.719-.664-.918 0-1.631.332-2.139.996-.501.657-.751 1.611-.751 2.861v.342c0 1.217.25 2.155.751 2.812.502.658 1.218.987 2.149.987zm9.521-3.223h-1.318V367h-1.816v-10.566h1.816v4.472h1.182l3.554-4.472h2.188l-4.18 5.078 4.531 5.488h-2.294l-3.663-4.502zm14.346-6.064h1.807V367h-1.807v-7.705L433.289 367h-1.807v-10.566h1.807v7.714l4.873-7.714zm11.543 0h1.807V367h-1.807v-7.705L444.832 367h-1.807v-10.566h1.807v7.714l4.873-7.714zm.488-3.848c0 .788-.27 1.422-.81 1.904-.534.475-1.237.713-2.11.713-.872 0-1.578-.241-2.119-.723-.54-.481-.81-1.113-.81-1.894h1.474c0 .456.124.814.371 1.074.248.254.609.381 1.084.381.456 0 .811-.127 1.065-.381.26-.254.391-.612.391-1.074h1.464zm-77.314 39.135c.644 0 1.208-.196 1.689-.586.482-.391.749-.879.801-1.465h1.709c-.032.605-.241 1.182-.625 1.728a4.098 4.098 0 01-1.543 1.309 4.402 4.402 0 01-2.031.488c-1.439 0-2.585-.478-3.438-1.435-.846-.964-1.269-2.279-1.269-3.946v-.302c0-1.029.189-1.944.566-2.744.378-.801.918-1.423 1.621-1.866.71-.442 1.547-.664 2.51-.664 1.185 0 2.168.355 2.949 1.065.788.709 1.208 1.631 1.26 2.763h-1.709c-.052-.683-.312-1.243-.781-1.679-.462-.443-1.035-.664-1.719-.664-.918 0-1.631.332-2.139.996-.501.657-.751 1.611-.751 2.861v.342c0 1.217.25 2.155.751 2.812.502.658 1.218.987 2.149.987zM387.088 393h-1.817v-3.828a9.594 9.594 0 01-2.441.312c-1.322 0-2.331-.338-3.027-1.015-.69-.677-1.042-1.641-1.055-2.891v-3.154h1.807v3.213c.032 1.575.791 2.363 2.275 2.363.833 0 1.647-.104 2.441-.312v-5.254h1.817V393zm7.285.195c-1.432 0-2.598-.468-3.496-1.406-.898-.944-1.348-2.204-1.348-3.779v-.332c0-1.048.199-1.983.596-2.803.404-.827.964-1.471 1.68-1.934a4.23 4.23 0 012.343-.703c1.374 0 2.442.453 3.204 1.358.761.905 1.142 2.2 1.142 3.886v.752h-7.158c.026 1.042.329 1.885.908 2.53.586.638 1.328.957 2.227.957.638 0 1.178-.131 1.621-.391.443-.26.83-.605 1.162-1.035l1.103.859c-.885 1.361-2.213 2.041-3.984 2.041zm-.225-9.472c-.729 0-1.341.267-1.836.8-.494.528-.8 1.27-.917 2.227h5.293v-.137c-.053-.918-.3-1.627-.743-2.129-.442-.507-1.041-.761-1.797-.761zm14.18.175h-3.545V393h-1.806v-9.102H399.5v-1.464h8.828v1.464zm14.854 5.391h-5.957L415.887 393h-1.934l5.43-14.219h1.64l5.44 14.219h-1.924l-1.357-3.711zm-5.391-1.543h4.834l-2.422-6.65-2.412 6.65z" fill="#8E44AD"/><path d="M518.777 354.324h-6.855v4.258h3.535c1.484.02 2.643.4 3.477 1.143.833.742 1.25 1.751 1.25 3.027 0 1.283-.42 2.305-1.26 3.066-.84.762-1.986 1.156-3.438 1.182h-5.449v-14.219h8.74v1.543zm-6.855 5.801v5.342h3.428c.931 0 1.653-.248 2.168-.742.52-.495.781-1.159.781-1.993 0-.8-.251-1.432-.752-1.894-.495-.462-1.201-.7-2.119-.713h-3.506zm19.443 1.709c0 1.608-.368 2.904-1.103 3.887-.736.983-1.732 1.474-2.989 1.474-1.282 0-2.291-.407-3.027-1.22v5.087h-1.807v-14.628h1.651l.088 1.171c.735-.911 1.758-1.367 3.066-1.367 1.27 0 2.272.479 3.008 1.436.742.957 1.113 2.288 1.113 3.994v.166zm-1.806-.205c0-1.191-.254-2.132-.762-2.822s-1.205-1.036-2.09-1.036c-1.094 0-1.914.486-2.461 1.456v5.048c.54.964 1.367 1.446 2.481 1.446.865 0 1.552-.342 2.06-1.026.514-.69.772-1.712.772-3.066zm3.632-.01c0-1.035.202-1.966.606-2.793.41-.827.976-1.465 1.699-1.914.729-.449 1.559-.674 2.49-.674 1.439 0 2.601.498 3.487 1.494.892.997 1.338 2.321 1.338 3.975v.127c0 1.029-.199 1.953-.596 2.773a4.454 4.454 0 01-1.69 1.905c-.729.455-1.569.683-2.519.683-1.432 0-2.595-.498-3.486-1.494-.886-.996-1.329-2.314-1.329-3.955v-.127zm1.817.215c0 1.172.27 2.113.81 2.822.547.71 1.276 1.065 2.188 1.065.918 0 1.647-.358 2.187-1.075.541-.722.811-1.731.811-3.027 0-1.159-.277-2.096-.83-2.812-.547-.723-1.276-1.084-2.188-1.084-.892 0-1.611.354-2.158 1.064-.547.71-.82 1.725-.82 3.047zm13.359.664h-1.318V367h-1.817v-10.566h1.817v4.472h1.181l3.555-4.472h2.188l-4.18 5.078 4.531 5.488h-2.295l-3.662-4.502zm11.738 4.697c-1.432 0-2.597-.468-3.496-1.406-.898-.944-1.347-2.204-1.347-3.779v-.332c0-1.048.198-1.983.595-2.803.404-.827.964-1.471 1.68-1.934a4.233 4.233 0 012.344-.703c1.374 0 2.441.453 3.203 1.358s1.143 2.2 1.143 3.886v.752h-7.159c.026 1.042.329 1.885.909 2.53.585.638 1.328.957 2.226.957.638 0 1.179-.131 1.621-.391.443-.26.83-.605 1.162-1.035l1.104.859c-.886 1.361-2.214 2.041-3.985 2.041zm-.224-9.472c-.729 0-1.341.267-1.836.8-.495.528-.801 1.27-.918 2.227h5.293v-.137c-.052-.918-.3-1.627-.742-2.129-.443-.507-1.042-.761-1.797-.761zm15.371 4.111c0 1.608-.368 2.904-1.104 3.887-.735.983-1.731 1.474-2.988 1.474-1.282 0-2.292-.407-3.027-1.22v5.087h-1.807v-14.628h1.651l.087 1.171c.736-.911 1.758-1.367 3.067-1.367 1.269 0 2.272.479 3.008 1.436.742.957 1.113 2.288 1.113 3.994v.166zm-1.807-.205c0-1.191-.254-2.132-.761-2.822-.508-.69-1.205-1.036-2.09-1.036-1.094 0-1.914.486-2.461 1.456v5.048c.54.964 1.367 1.446 2.48 1.446.866 0 1.553-.342 2.061-1.026.514-.69.771-1.712.771-3.066zm8.35 4.092c.644 0 1.208-.196 1.689-.586.482-.391.749-.879.801-1.465h1.709c-.032.605-.241 1.182-.625 1.728a4.098 4.098 0 01-1.543 1.309 4.402 4.402 0 01-2.031.488c-1.439 0-2.585-.478-3.438-1.435-.846-.964-1.269-2.279-1.269-3.946v-.302c0-1.029.189-1.944.566-2.744.378-.801.918-1.423 1.621-1.866.71-.442 1.547-.664 2.51-.664 1.185 0 2.168.355 2.949 1.065.788.709 1.208 1.631 1.26 2.763h-1.709c-.052-.683-.312-1.243-.781-1.679-.462-.443-1.035-.664-1.719-.664-.918 0-1.631.332-2.139.996-.501.657-.751 1.611-.751 2.861v.342c0 1.217.25 2.155.751 2.812.502.658 1.218.987 2.149.987zm9.521-3.223h-1.318V367h-1.816v-10.566h1.816v4.472h1.182l3.554-4.472h2.188l-4.18 5.078 4.531 5.488h-2.294l-3.663-4.502zm14.346-6.064h1.807V367h-1.807v-7.705L600.789 367h-1.807v-10.566h1.807v7.714l4.873-7.714zm11.543 0h1.807V367h-1.807v-7.705L612.332 367h-1.807v-10.566h1.807v7.714l4.873-7.714zm.488-3.848c0 .788-.27 1.422-.81 1.904-.534.475-1.237.713-2.11.713-.872 0-1.578-.241-2.119-.723-.54-.481-.81-1.113-.81-1.894h1.474c0 .456.124.814.371 1.074.248.254.609.381 1.084.381.456 0 .811-.127 1.065-.381.26-.254.391-.612.391-1.074h1.464zm-77.099 39.135c.644 0 1.207-.196 1.689-.586.482-.391.749-.879.801-1.465h1.709c-.033.605-.241 1.182-.625 1.728a4.098 4.098 0 01-1.543 1.309 4.402 4.402 0 01-2.031.488c-1.439 0-2.585-.478-3.438-1.435-.846-.964-1.269-2.279-1.269-3.946v-.302c0-1.029.189-1.944.566-2.744.378-.801.918-1.423 1.621-1.866.71-.442 1.546-.664 2.51-.664 1.185 0 2.168.355 2.949 1.065.788.709 1.208 1.631 1.26 2.763h-1.709c-.052-.683-.313-1.243-.781-1.679-.463-.443-1.035-.664-1.719-.664-.918 0-1.631.332-2.139.996-.501.657-.752 1.611-.752 2.861v.342c0 1.217.251 2.155.752 2.812.502.658 1.218.987 2.149.987zM554.803 393h-1.817v-3.828a9.594 9.594 0 01-2.441.312c-1.322 0-2.331-.338-3.027-1.015-.691-.677-1.042-1.641-1.055-2.891v-3.154h1.807v3.213c.032 1.575.791 2.363 2.275 2.363.833 0 1.647-.104 2.441-.312v-5.254h1.817V393zm7.285.195c-1.432 0-2.598-.468-3.496-1.406-.899-.944-1.348-2.204-1.348-3.779v-.332c0-1.048.199-1.983.596-2.803.403-.827.963-1.471 1.68-1.934a4.227 4.227 0 012.343-.703c1.374 0 2.442.453 3.203 1.358.762.905 1.143 2.2 1.143 3.886v.752h-7.158c.026 1.042.329 1.885.908 2.53.586.638 1.328.957 2.227.957.638 0 1.178-.131 1.621-.391a4.07 4.07 0 001.162-1.035l1.103.859c-.885 1.361-2.213 2.041-3.984 2.041zm-.225-9.472c-.729 0-1.341.267-1.836.8-.494.528-.8 1.27-.918 2.227h5.293v-.137c-.052-.918-.299-1.627-.742-2.129-.443-.507-1.042-.761-1.797-.761zm14.18.175h-3.545V393h-1.807v-9.102h-3.476v-1.464h8.828v1.464zm15.674-3.574h-6.856v4.258h3.535c1.485.02 2.644.4 3.477 1.143.833.742 1.25 1.751 1.25 3.027 0 1.283-.42 2.305-1.26 3.066-.84.762-1.985 1.156-3.437 1.182h-5.449v-14.219h8.74v1.543zm-6.856 5.801v5.342h3.428c.931 0 1.654-.248 2.168-.742.521-.495.781-1.159.781-1.993 0-.8-.25-1.432-.752-1.894-.494-.462-1.201-.7-2.119-.713h-3.506z" fill="#2BA14B"/><path d="M213.615 352.781h1.875V367h-1.875v-10.957L206.613 367h-1.884v-14.219h1.884v10.957l7.002-10.957zm14.258 0h1.875V367h-1.875v-10.957L220.871 367h-1.885v-14.219h1.885v10.957l7.002-10.957zm15.752 9.707c-.176 1.504-.732 2.666-1.67 3.487-.931.813-2.171 1.22-3.721 1.22-1.679 0-3.027-.602-4.043-1.806-1.009-1.205-1.513-2.816-1.513-4.834v-1.367c0-1.322.234-2.484.703-3.487.475-1.002 1.146-1.771 2.012-2.305.865-.54 1.868-.81 3.007-.81 1.511 0 2.722.423 3.633 1.269.912.84 1.442 2.006 1.592 3.497h-1.885c-.163-1.133-.517-1.954-1.064-2.461-.541-.508-1.299-.762-2.276-.762-1.198 0-2.138.443-2.822 1.328-.677.885-1.016 2.145-1.016 3.779v1.377c0 1.543.323 2.77.967 3.682.645.911 1.547 1.367 2.705 1.367 1.042 0 1.84-.234 2.393-.703.56-.475.931-1.299 1.113-2.471h1.885z" fill="#F39C12"/><path d="M38.783 367v-14.219h4.649c1.543 0 2.701.319 3.476.957.782.638 1.172 1.582 1.172 2.832a2.91 2.91 0 01-.566 1.768c-.378.508-.892.902-1.543 1.182.768.214 1.373.625 1.816 1.23.45.599.674 1.315.674 2.148 0 1.276-.413 2.279-1.24 3.008-.827.729-1.996 1.094-3.506 1.094h-4.932zm1.875-6.65v5.117h3.096c.872 0 1.56-.225 2.06-.674.508-.456.762-1.081.762-1.875 0-1.712-.93-2.568-2.793-2.568h-3.125zm0-1.504h2.832c.82 0 1.475-.205 1.963-.616.495-.41.742-.966.742-1.669 0-.782-.228-1.348-.683-1.7-.456-.358-1.15-.537-2.08-.537h-2.774v4.522zm13.594 3.652h-1.318V367h-1.817v-10.566h1.817v4.472h1.181l3.555-4.472h2.187l-4.18 5.078L60.21 367h-2.295l-3.662-4.502zm16.172-6.064V367h-1.817v-9.072h-3.593l-.215 3.955c-.117 1.816-.423 3.115-.918 3.896-.488.782-1.266 1.188-2.334 1.221h-.723v-1.592l.518-.039c.586-.065 1.006-.404 1.26-1.015.254-.612.416-1.745.488-3.399l.195-4.521h7.139zM79.848 367c-.105-.208-.19-.579-.254-1.113-.84.872-1.843 1.308-3.008 1.308-1.042 0-1.898-.293-2.568-.879-.665-.592-.996-1.341-.996-2.246 0-1.1.416-1.953 1.25-2.558.84-.612 2.018-.918 3.535-.918h1.757v-.83c0-.632-.188-1.133-.566-1.504-.378-.378-.934-.567-1.67-.567-.644 0-1.185.163-1.621.489-.436.325-.654.719-.654 1.181h-1.817c0-.527.186-1.035.557-1.523.378-.495.885-.886 1.523-1.172a5.166 5.166 0 012.12-.43c1.217 0 2.17.306 2.86.918.691.606 1.05 1.442 1.075 2.51v4.863c0 .97.124 1.742.371 2.315V367h-1.894zm-2.998-1.377c.566 0 1.103-.146 1.61-.439.509-.293.877-.674 1.105-1.143v-2.168h-1.417c-2.213 0-3.32.648-3.32 1.943 0 .567.189 1.01.566 1.329.378.319.863.478 1.456.478zm7.265-.098l.625-.771c.703-.912 1.104-2.279 1.201-4.102l.166-4.218h6.807v9.091h1.358v4.58h-1.807V367h-7.373v3.105h-1.807l.01-4.58h.82zm2.139 0h4.853v-7.421h-3.251l-.108 2.519c-.11 2.103-.609 3.737-1.494 4.902zM34.477 393v-10.566h4.12c1.407 0 2.484.247 3.233.742.755.488 1.133 1.207 1.133 2.158 0 .488-.147.931-.44 1.328-.293.391-.726.69-1.298.899.638.149 1.149.442 1.533.878.39.437.586.957.586 1.563 0 .97-.358 1.712-1.075 2.227-.71.514-1.715.771-3.017.771h-4.775zm1.806-4.639v3.184h2.989c.755 0 1.318-.14 1.689-.42.378-.28.566-.674.566-1.182 0-1.054-.774-1.582-2.324-1.582h-2.92zm0-1.445h2.334c1.693 0 2.54-.495 2.54-1.484 0-.99-.801-1.501-2.403-1.534h-2.47v3.018zm19.053-3.877c1.328 0 2.39.446 3.184 1.338.8.885 1.2 2.054 1.2 3.506v.166c0 .996-.191 1.888-.575 2.676a4.297 4.297 0 01-1.66 1.826c-.717.429-1.544.644-2.481.644-1.42 0-2.562-.472-3.428-1.416-.866-.95-1.299-2.223-1.299-3.818v-.879c0-2.22.41-3.984 1.23-5.293.828-1.309 2.045-2.106 3.653-2.393.912-.162 1.527-.361 1.846-.595.319-.235.478-.557.478-.967h1.485c0 .814-.186 1.449-.557 1.904-.364.456-.95.778-1.758.967l-1.347.303c-1.075.254-1.882.683-2.422 1.289-.534.599-.882 1.4-1.045 2.402.957-1.107 2.122-1.66 3.496-1.66zm-.352 1.484c-.885 0-1.588.3-2.109.899-.52.592-.781 1.416-.781 2.471v.156c0 1.133.26 2.031.781 2.695.527.658 1.237.986 2.129.986.898 0 1.608-.332 2.129-.996.52-.664.781-1.634.781-2.91 0-.996-.264-1.793-.791-2.392-.52-.606-1.234-.909-2.139-.909zM68.275 393c-.104-.208-.188-.579-.254-1.113-.84.872-1.842 1.308-3.007 1.308-1.042 0-1.898-.293-2.569-.879-.664-.592-.996-1.341-.996-2.246 0-1.1.417-1.953 1.25-2.558.84-.612 2.018-.918 3.535-.918h1.758v-.83c0-.632-.189-1.133-.566-1.504-.378-.378-.934-.567-1.67-.567-.645 0-1.185.163-1.621.489-.436.325-.655.719-.655 1.181h-1.816c0-.527.186-1.035.557-1.523.377-.495.885-.886 1.523-1.172a5.167 5.167 0 012.12-.43c1.217 0 2.17.306 2.86.918.69.606 1.049 1.442 1.075 2.51v4.863c0 .97.123 1.742.37 2.315V393h-1.894zm-2.998-1.377c.567 0 1.104-.146 1.612-.439.508-.293.875-.674 1.103-1.143v-2.168h-1.416c-2.213 0-3.32.648-3.32 1.943 0 .567.189 1.01.566 1.329.378.319.863.478 1.455.478zM81.264 393h-1.807v-4.512h-4.853V393h-1.817v-10.566h1.816v4.58h4.854v-4.58h1.807V393zm6.2-4.502h-1.317V393H84.33v-10.566h1.817v4.472h1.181l3.555-4.472h2.187l-4.18 5.078L93.423 393h-2.295l-3.662-4.502zm11.74 4.697c-1.433 0-2.598-.468-3.497-1.406-.898-.944-1.348-2.204-1.348-3.779v-.332c0-1.048.199-1.983.596-2.803.404-.827.964-1.471 1.68-1.934a4.231 4.231 0 012.343-.703c1.374 0 2.442.453 3.204 1.358.761.905 1.142 2.2 1.142 3.886v.752h-7.158c.026 1.042.329 1.885.908 2.53.586.638 1.328.957 2.227.957.638 0 1.178-.131 1.621-.391.443-.26.83-.605 1.162-1.035l1.104.859c-.886 1.361-2.214 2.041-3.985 2.041zm-.225-9.472c-.73 0-1.342.267-1.836.8-.495.528-.801 1.27-.918 2.227h5.293v-.137c-.053-.918-.3-1.627-.743-2.129-.442-.507-1.041-.761-1.797-.761zM18 234c0-5.523 4.477-10 10-10h80c5.523 0 10 4.477 10 10v80H18v-80z" fill="#15A1FF"/><path d="M175 53c0-5.523 4.477-10 10-10h80c5.523 0 10 4.477 10 10v261H175V53z" fill="#F39C12"/><path d="M347 10c0-5.523 4.477-10 10-10h80c5.523 0 10 4.477 10 10v304H347V10z" fill="#8E44AD"/><path d="M515 111c0-5.523 4.477-10 10-10h80c5.523 0 10 4.477 10 10v203H515V111z" fill="#2BA14B"/><path stroke="#8C8C8C" stroke-width=".5" stroke-dasharray="3 3" d="M0 313.75h610"/><path d="M208.505 189h-4.951v-15.762l-4.863 1.421v-3.75l9.36-3.237h.454V189zm21.241-8.716c0 2.881-.65 5.103-1.949 6.665-1.289 1.563-3.11 2.344-5.463 2.344-2.373 0-4.209-.786-5.508-2.358-1.299-1.573-1.948-3.789-1.948-6.651v-3.896c0-2.881.644-5.103 1.933-6.665 1.299-1.563 3.13-2.344 5.493-2.344 2.364 0 4.195.786 5.493 2.358 1.299 1.573 1.949 3.794 1.949 6.665v3.882zm-4.937-4.526c0-1.533-.2-2.676-.6-3.428-.401-.762-1.036-1.142-1.905-1.142-.849 0-1.469.351-1.86 1.054-.381.703-.586 1.768-.615 3.194v5.449c0 1.592.2 2.759.6 3.501.401.732 1.035 1.098 1.905 1.098.839 0 1.46-.356 1.86-1.069.4-.723.605-1.851.615-3.384v-5.273zm7.515-3.985c0-1.318.429-2.382 1.289-3.193.859-.81 2.012-1.216 3.457-1.216 1.465 0 2.622.406 3.472 1.216.849.801 1.274 1.89 1.274 3.267v1.054c0 1.319-.425 2.378-1.274 3.179-.85.801-1.997 1.201-3.443 1.201-1.435 0-2.593-.395-3.471-1.186-.87-.801-1.304-1.895-1.304-3.282v-1.04zm3.179 1.128c0 .508.141.923.424 1.245.284.313.674.469 1.172.469 1.026 0 1.538-.654 1.538-1.963v-.879c0-.507-.136-.922-.41-1.245-.273-.332-.659-.498-1.157-.498-.479 0-.859.161-1.143.484-.283.312-.424.742-.424 1.289v1.098zm6.958 10.87c0-1.329.429-2.393 1.289-3.194.869-.801 2.021-1.201 3.457-1.201 1.455 0 2.612.395 3.471 1.186.86.792 1.289 1.895 1.289 3.311v1.025c0 1.329-.424 2.393-1.274 3.194-.85.801-2.002 1.201-3.457 1.201-1.436 0-2.593-.396-3.472-1.187-.869-.8-1.303-1.894-1.303-3.281v-1.054zm3.164 1.127c0 .459.156.865.468 1.216.313.342.694.513 1.143.513.947 0 1.46-.449 1.538-1.348l.015-1.508c0-.518-.142-.933-.425-1.246-.283-.322-.669-.483-1.157-.483-.469 0-.845.151-1.128.454-.284.293-.435.693-.454 1.201v1.201zm-7.588 2.505l-2.3-1.157 10.415-16.67 2.3 1.157-10.415 16.67zM64.739 271.665h2.168v3.809h-2.168V280h-4.937v-4.526h-8.247l-.293-3.018 8.54-13.74v-.044h4.937v12.993zm-8.775 0h3.838v-6.562l-.307.498-3.53 6.064zm13.126-8.892c0-1.318.43-2.382 1.288-3.193.86-.81 2.012-1.216 3.458-1.216 1.464 0 2.622.406 3.471 1.216.85.801 1.275 1.89 1.275 3.267v1.054c0 1.319-.425 2.378-1.275 3.179-.85.801-1.997 1.201-3.442 1.201-1.436 0-2.593-.395-3.472-1.186-.869-.801-1.303-1.895-1.303-3.282v-1.04zm3.178 1.128c0 .508.142.923.425 1.245.283.313.674.469 1.172.469 1.025 0 1.538-.654 1.538-1.963v-.879c0-.507-.137-.922-.41-1.245-.274-.332-.66-.498-1.157-.498-.479 0-.86.161-1.143.484-.283.312-.425.742-.425 1.289v1.098zm6.958 10.87c0-1.329.43-2.393 1.29-3.194.868-.801 2.02-1.201 3.456-1.201 1.455 0 2.613.395 3.472 1.186.86.792 1.289 1.895 1.289 3.311v1.025c0 1.329-.425 2.393-1.274 3.194-.85.801-2.002 1.201-3.457 1.201-1.436 0-2.593-.396-3.472-1.187-.87-.8-1.304-1.894-1.304-3.281v-1.054zm3.164 1.127c0 .459.156.865.469 1.216a1.49 1.49 0 001.143.513c.947 0 1.46-.449 1.538-1.348l.014-1.508c0-.518-.141-.933-.425-1.246-.283-.322-.668-.483-1.157-.483-.468 0-.844.151-1.128.454-.283.293-.434.693-.454 1.201v1.201zm-7.588 2.505l-2.3-1.157 10.416-16.67 2.3 1.157-10.416 16.67zM381.918 168h-4.951v-15.762l-4.863 1.421v-3.75l9.36-3.237h.454V168zm21.314 0h-14.883v-3.223l6.856-7.207c1.689-1.924 2.534-3.452 2.534-4.585 0-.918-.2-1.616-.601-2.094-.4-.479-.981-.718-1.743-.718-.752 0-1.362.322-1.831.967-.469.634-.703 1.43-.703 2.387h-4.951a6.97 6.97 0 01.981-3.618 6.868 6.868 0 012.725-2.607c1.162-.625 2.461-.938 3.896-.938 2.305 0 4.077.532 5.318 1.597 1.25 1.064 1.875 2.593 1.875 4.585 0 .84-.157 1.66-.469 2.461-.313.791-.801 1.626-1.465 2.505-.654.869-1.714 2.036-3.179 3.501l-2.754 3.178h8.394V168zm2.505-17.227c0-1.318.43-2.382 1.289-3.193.859-.81 2.012-1.216 3.457-1.216 1.465 0 2.622.406 3.472 1.216.849.801 1.274 1.89 1.274 3.267v1.054c0 1.319-.425 2.378-1.274 3.179-.85.801-1.997 1.201-3.443 1.201-1.435 0-2.593-.395-3.471-1.186-.87-.801-1.304-1.895-1.304-3.282v-1.04zm3.179 1.128c0 .508.141.923.424 1.245.284.313.674.469 1.172.469 1.026 0 1.538-.654 1.538-1.963v-.879c0-.507-.136-.922-.41-1.245-.273-.332-.659-.498-1.157-.498-.479 0-.859.161-1.143.484-.283.312-.424.742-.424 1.289v1.098zm6.958 10.87c0-1.329.429-2.393 1.289-3.194.869-.801 2.021-1.201 3.457-1.201 1.455 0 2.612.395 3.471 1.186.86.792 1.289 1.895 1.289 3.311v1.025c0 1.329-.424 2.393-1.274 3.194-.85.801-2.002 1.201-3.457 1.201-1.436 0-2.593-.396-3.472-1.187-.869-.8-1.303-1.894-1.303-3.281v-1.054zm3.164 1.127c0 .459.156.865.468 1.216.313.342.694.513 1.143.513.947 0 1.46-.449 1.538-1.348l.015-1.508c0-.518-.142-.933-.425-1.246-.283-.322-.669-.483-1.157-.483-.469 0-.845.151-1.128.454-.284.293-.435.693-.454 1.201v1.201zm-7.588 2.505l-2.3-1.157 10.415-16.67 2.3 1.157-10.415 16.67zm150.359 34.906L553.84 220h-5.215l7.983-17.52h-10.166v-3.808h15.367v2.637zm2.563 1.464c0-1.318.43-2.382 1.289-3.193.86-.81 2.012-1.216 3.457-1.216 1.465 0 2.622.406 3.472 1.216.849.801 1.274 1.89 1.274 3.267v1.054c0 1.319-.425 2.378-1.274 3.179-.85.801-1.997 1.201-3.443 1.201-1.435 0-2.592-.395-3.471-1.186-.869-.801-1.304-1.895-1.304-3.282v-1.04zm3.179 1.128c0 .508.141.923.425 1.245.283.313.673.469 1.171.469 1.026 0 1.539-.654 1.539-1.963v-.879c0-.507-.137-.922-.411-1.245-.273-.332-.659-.498-1.157-.498-.478 0-.859.161-1.142.484-.284.312-.425.742-.425 1.289v1.098zm6.958 10.87c0-1.329.429-2.393 1.289-3.194.869-.801 2.021-1.201 3.457-1.201 1.455 0 2.612.395 3.472 1.186.859.792 1.289 1.895 1.289 3.311v1.025c0 1.329-.425 2.393-1.275 3.194-.849.801-2.002 1.201-3.457 1.201-1.435 0-2.593-.396-3.472-1.187-.869-.8-1.303-1.894-1.303-3.281v-1.054zm3.164 1.127c0 .459.156.865.469 1.216.312.342.693.513 1.142.513.947 0 1.46-.449 1.538-1.348l.015-1.508c0-.518-.142-.933-.425-1.246-.283-.322-.669-.483-1.157-.483-.469 0-.845.151-1.128.454-.283.293-.435.693-.454 1.201v1.201zm-7.588 2.505l-2.3-1.157 10.415-16.67 2.3 1.157-10.415 16.67z" fill="#fff"/></svg>