<svg width="632" height="399" viewBox="0 0 632 399" fill="none" xmlns="http://www.w3.org/2000/svg">
<path d="M351.277 354.324H344.422V358.582H347.957C349.441 358.602 350.6 358.982 351.434 359.725C352.267 360.467 352.684 361.476 352.684 362.752C352.684 364.035 352.264 365.057 351.424 365.818C350.584 366.58 349.438 366.974 347.986 367H342.537V352.781H351.277V354.324ZM344.422 360.125V365.467H347.85C348.781 365.467 349.503 365.219 350.018 364.725C350.538 364.23 350.799 363.566 350.799 362.732C350.799 361.932 350.548 361.3 350.047 360.838C349.552 360.376 348.846 360.138 347.928 360.125H344.422ZM363.865 361.834C363.865 363.442 363.497 364.738 362.762 365.721C362.026 366.704 361.03 367.195 359.773 367.195C358.491 367.195 357.482 366.788 356.746 365.975V371.062H354.939V356.434H356.59L356.678 357.605C357.413 356.694 358.436 356.238 359.744 356.238C361.014 356.238 362.016 356.717 362.752 357.674C363.494 358.631 363.865 359.962 363.865 361.668V361.834ZM362.059 361.629C362.059 360.438 361.805 359.497 361.297 358.807C360.789 358.117 360.092 357.771 359.207 357.771C358.113 357.771 357.293 358.257 356.746 359.227V364.275C357.286 365.239 358.113 365.721 359.227 365.721C360.092 365.721 360.779 365.379 361.287 364.695C361.801 364.005 362.059 362.983 362.059 361.629ZM365.691 361.619C365.691 360.584 365.893 359.653 366.297 358.826C366.707 357.999 367.273 357.361 367.996 356.912C368.725 356.463 369.555 356.238 370.486 356.238C371.925 356.238 373.087 356.736 373.973 357.732C374.865 358.729 375.311 360.053 375.311 361.707V361.834C375.311 362.863 375.112 363.787 374.715 364.607C374.324 365.421 373.761 366.056 373.025 366.512C372.296 366.967 371.456 367.195 370.506 367.195C369.074 367.195 367.911 366.697 367.02 365.701C366.134 364.705 365.691 363.387 365.691 361.746V361.619ZM367.508 361.834C367.508 363.006 367.778 363.947 368.318 364.656C368.865 365.366 369.594 365.721 370.506 365.721C371.424 365.721 372.153 365.363 372.693 364.646C373.234 363.924 373.504 362.915 373.504 361.619C373.504 360.46 373.227 359.523 372.674 358.807C372.127 358.084 371.398 357.723 370.486 357.723C369.594 357.723 368.875 358.077 368.328 358.787C367.781 359.497 367.508 360.512 367.508 361.834ZM380.867 362.498H379.549V367H377.732V356.434H379.549V360.906H380.73L384.285 356.434H386.473L382.293 361.512L386.824 367H384.529L380.867 362.498ZM392.605 367.195C391.173 367.195 390.008 366.727 389.109 365.789C388.211 364.845 387.762 363.585 387.762 362.01V361.678C387.762 360.63 387.96 359.695 388.357 358.875C388.761 358.048 389.321 357.404 390.037 356.941C390.76 356.473 391.541 356.238 392.381 356.238C393.755 356.238 394.822 356.691 395.584 357.596C396.346 358.501 396.727 359.796 396.727 361.482V362.234H389.568C389.594 363.276 389.897 364.119 390.477 364.764C391.062 365.402 391.805 365.721 392.703 365.721C393.341 365.721 393.882 365.59 394.324 365.33C394.767 365.07 395.154 364.725 395.486 364.295L396.59 365.154C395.704 366.515 394.376 367.195 392.605 367.195ZM392.381 357.723C391.652 357.723 391.04 357.99 390.545 358.523C390.05 359.051 389.744 359.793 389.627 360.75H394.92V360.613C394.868 359.695 394.62 358.986 394.178 358.484C393.735 357.977 393.136 357.723 392.381 357.723ZM407.752 361.834C407.752 363.442 407.384 364.738 406.648 365.721C405.913 366.704 404.917 367.195 403.66 367.195C402.378 367.195 401.368 366.788 400.633 365.975V371.062H398.826V356.434H400.477L400.564 357.605C401.3 356.694 402.322 356.238 403.631 356.238C404.9 356.238 405.903 356.717 406.639 357.674C407.381 358.631 407.752 359.962 407.752 361.668V361.834ZM405.945 361.629C405.945 360.438 405.691 359.497 405.184 358.807C404.676 358.117 403.979 357.771 403.094 357.771C402 357.771 401.18 358.257 400.633 359.227V364.275C401.173 365.239 402 365.721 403.113 365.721C403.979 365.721 404.666 365.379 405.174 364.695C405.688 364.005 405.945 362.983 405.945 361.629ZM414.295 365.721C414.939 365.721 415.503 365.525 415.984 365.135C416.466 364.744 416.733 364.256 416.785 363.67H418.494C418.462 364.275 418.253 364.852 417.869 365.398C417.485 365.945 416.971 366.382 416.326 366.707C415.688 367.033 415.011 367.195 414.295 367.195C412.856 367.195 411.71 366.717 410.857 365.76C410.011 364.796 409.588 363.481 409.588 361.814V361.512C409.588 360.483 409.777 359.568 410.154 358.768C410.532 357.967 411.072 357.345 411.775 356.902C412.485 356.46 413.322 356.238 414.285 356.238C415.47 356.238 416.453 356.593 417.234 357.303C418.022 358.012 418.442 358.934 418.494 360.066H416.785C416.733 359.383 416.473 358.823 416.004 358.387C415.542 357.944 414.969 357.723 414.285 357.723C413.367 357.723 412.654 358.055 412.146 358.719C411.645 359.376 411.395 360.33 411.395 361.58V361.922C411.395 363.139 411.645 364.077 412.146 364.734C412.648 365.392 413.364 365.721 414.295 365.721ZM423.816 362.498H422.498V367H420.682V356.434H422.498V360.906H423.68L427.234 356.434H429.422L425.242 361.512L429.773 367H427.479L423.816 362.498ZM438.162 356.434H439.969V367H438.162V359.295L433.289 367H431.482V356.434H433.289V364.148L438.162 356.434ZM449.705 356.434H451.512V367H449.705V359.295L444.832 367H443.025V356.434H444.832V364.148L449.705 356.434ZM450.193 352.586C450.193 353.374 449.923 354.008 449.383 354.49C448.849 354.965 448.146 355.203 447.273 355.203C446.401 355.203 445.695 354.962 445.154 354.48C444.614 353.999 444.344 353.367 444.344 352.586H445.818C445.818 353.042 445.942 353.4 446.189 353.66C446.437 353.914 446.798 354.041 447.273 354.041C447.729 354.041 448.084 353.914 448.338 353.66C448.598 353.406 448.729 353.048 448.729 352.586H450.193ZM372.879 391.721C373.523 391.721 374.087 391.525 374.568 391.135C375.05 390.744 375.317 390.256 375.369 389.67H377.078C377.046 390.275 376.837 390.852 376.453 391.398C376.069 391.945 375.555 392.382 374.91 392.707C374.272 393.033 373.595 393.195 372.879 393.195C371.44 393.195 370.294 392.717 369.441 391.76C368.595 390.796 368.172 389.481 368.172 387.814V387.512C368.172 386.483 368.361 385.568 368.738 384.768C369.116 383.967 369.656 383.345 370.359 382.902C371.069 382.46 371.906 382.238 372.869 382.238C374.054 382.238 375.037 382.593 375.818 383.303C376.606 384.012 377.026 384.934 377.078 386.066H375.369C375.317 385.383 375.057 384.823 374.588 384.387C374.126 383.944 373.553 383.723 372.869 383.723C371.951 383.723 371.238 384.055 370.73 384.719C370.229 385.376 369.979 386.33 369.979 387.58V387.922C369.979 389.139 370.229 390.077 370.73 390.734C371.232 391.392 371.948 391.721 372.879 391.721ZM387.088 393H385.271V389.172C384.477 389.38 383.663 389.484 382.83 389.484C381.508 389.484 380.499 389.146 379.803 388.469C379.113 387.792 378.761 386.828 378.748 385.578V382.424H380.555V385.637C380.587 387.212 381.346 388 382.83 388C383.663 388 384.477 387.896 385.271 387.688V382.434H387.088V393ZM394.373 393.195C392.941 393.195 391.775 392.727 390.877 391.789C389.979 390.845 389.529 389.585 389.529 388.01V387.678C389.529 386.63 389.728 385.695 390.125 384.875C390.529 384.048 391.089 383.404 391.805 382.941C392.527 382.473 393.309 382.238 394.148 382.238C395.522 382.238 396.59 382.691 397.352 383.596C398.113 384.501 398.494 385.796 398.494 387.482V388.234H391.336C391.362 389.276 391.665 390.119 392.244 390.764C392.83 391.402 393.572 391.721 394.471 391.721C395.109 391.721 395.649 391.59 396.092 391.33C396.535 391.07 396.922 390.725 397.254 390.295L398.357 391.154C397.472 392.515 396.144 393.195 394.373 393.195ZM394.148 383.723C393.419 383.723 392.807 383.99 392.312 384.523C391.818 385.051 391.512 385.793 391.395 386.75H396.688V386.613C396.635 385.695 396.388 384.986 395.945 384.484C395.503 383.977 394.904 383.723 394.148 383.723ZM408.328 383.898H404.783V393H402.977V383.898H399.5V382.434H408.328V383.898ZM423.182 389.289H417.225L415.887 393H413.953L419.383 378.781H421.023L426.463 393H424.539L423.182 389.289ZM417.791 387.746H422.625L420.203 381.096L417.791 387.746Z" fill="#8E44AD"/>
<path d="M518.777 354.324H511.922V358.582H515.457C516.941 358.602 518.1 358.982 518.934 359.725C519.767 360.467 520.184 361.476 520.184 362.752C520.184 364.035 519.764 365.057 518.924 365.818C518.084 366.58 516.938 366.974 515.486 367H510.037V352.781H518.777V354.324ZM511.922 360.125V365.467H515.35C516.281 365.467 517.003 365.219 517.518 364.725C518.038 364.23 518.299 363.566 518.299 362.732C518.299 361.932 518.048 361.3 517.547 360.838C517.052 360.376 516.346 360.138 515.428 360.125H511.922ZM531.365 361.834C531.365 363.442 530.997 364.738 530.262 365.721C529.526 366.704 528.53 367.195 527.273 367.195C525.991 367.195 524.982 366.788 524.246 365.975V371.062H522.439V356.434H524.09L524.178 357.605C524.913 356.694 525.936 356.238 527.244 356.238C528.514 356.238 529.516 356.717 530.252 357.674C530.994 358.631 531.365 359.962 531.365 361.668V361.834ZM529.559 361.629C529.559 360.438 529.305 359.497 528.797 358.807C528.289 358.117 527.592 357.771 526.707 357.771C525.613 357.771 524.793 358.257 524.246 359.227V364.275C524.786 365.239 525.613 365.721 526.727 365.721C527.592 365.721 528.279 365.379 528.787 364.695C529.301 364.005 529.559 362.983 529.559 361.629ZM533.191 361.619C533.191 360.584 533.393 359.653 533.797 358.826C534.207 357.999 534.773 357.361 535.496 356.912C536.225 356.463 537.055 356.238 537.986 356.238C539.425 356.238 540.587 356.736 541.473 357.732C542.365 358.729 542.811 360.053 542.811 361.707V361.834C542.811 362.863 542.612 363.787 542.215 364.607C541.824 365.421 541.261 366.056 540.525 366.512C539.796 366.967 538.956 367.195 538.006 367.195C536.574 367.195 535.411 366.697 534.52 365.701C533.634 364.705 533.191 363.387 533.191 361.746V361.619ZM535.008 361.834C535.008 363.006 535.278 363.947 535.818 364.656C536.365 365.366 537.094 365.721 538.006 365.721C538.924 365.721 539.653 365.363 540.193 364.646C540.734 363.924 541.004 362.915 541.004 361.619C541.004 360.46 540.727 359.523 540.174 358.807C539.627 358.084 538.898 357.723 537.986 357.723C537.094 357.723 536.375 358.077 535.828 358.787C535.281 359.497 535.008 360.512 535.008 361.834ZM548.367 362.498H547.049V367H545.232V356.434H547.049V360.906H548.23L551.785 356.434H553.973L549.793 361.512L554.324 367H552.029L548.367 362.498ZM560.105 367.195C558.673 367.195 557.508 366.727 556.609 365.789C555.711 364.845 555.262 363.585 555.262 362.01V361.678C555.262 360.63 555.46 359.695 555.857 358.875C556.261 358.048 556.821 357.404 557.537 356.941C558.26 356.473 559.041 356.238 559.881 356.238C561.255 356.238 562.322 356.691 563.084 357.596C563.846 358.501 564.227 359.796 564.227 361.482V362.234H557.068C557.094 363.276 557.397 364.119 557.977 364.764C558.562 365.402 559.305 365.721 560.203 365.721C560.841 365.721 561.382 365.59 561.824 365.33C562.267 365.07 562.654 364.725 562.986 364.295L564.09 365.154C563.204 366.515 561.876 367.195 560.105 367.195ZM559.881 357.723C559.152 357.723 558.54 357.99 558.045 358.523C557.55 359.051 557.244 359.793 557.127 360.75H562.42V360.613C562.368 359.695 562.12 358.986 561.678 358.484C561.235 357.977 560.636 357.723 559.881 357.723ZM575.252 361.834C575.252 363.442 574.884 364.738 574.148 365.721C573.413 366.704 572.417 367.195 571.16 367.195C569.878 367.195 568.868 366.788 568.133 365.975V371.062H566.326V356.434H567.977L568.064 357.605C568.8 356.694 569.822 356.238 571.131 356.238C572.4 356.238 573.403 356.717 574.139 357.674C574.881 358.631 575.252 359.962 575.252 361.668V361.834ZM573.445 361.629C573.445 360.438 573.191 359.497 572.684 358.807C572.176 358.117 571.479 357.771 570.594 357.771C569.5 357.771 568.68 358.257 568.133 359.227V364.275C568.673 365.239 569.5 365.721 570.613 365.721C571.479 365.721 572.166 365.379 572.674 364.695C573.188 364.005 573.445 362.983 573.445 361.629ZM581.795 365.721C582.439 365.721 583.003 365.525 583.484 365.135C583.966 364.744 584.233 364.256 584.285 363.67H585.994C585.962 364.275 585.753 364.852 585.369 365.398C584.985 365.945 584.471 366.382 583.826 366.707C583.188 367.033 582.511 367.195 581.795 367.195C580.356 367.195 579.21 366.717 578.357 365.76C577.511 364.796 577.088 363.481 577.088 361.814V361.512C577.088 360.483 577.277 359.568 577.654 358.768C578.032 357.967 578.572 357.345 579.275 356.902C579.985 356.46 580.822 356.238 581.785 356.238C582.97 356.238 583.953 356.593 584.734 357.303C585.522 358.012 585.942 358.934 585.994 360.066H584.285C584.233 359.383 583.973 358.823 583.504 358.387C583.042 357.944 582.469 357.723 581.785 357.723C580.867 357.723 580.154 358.055 579.646 358.719C579.145 359.376 578.895 360.33 578.895 361.58V361.922C578.895 363.139 579.145 364.077 579.646 364.734C580.148 365.392 580.864 365.721 581.795 365.721ZM591.316 362.498H589.998V367H588.182V356.434H589.998V360.906H591.18L594.734 356.434H596.922L592.742 361.512L597.273 367H594.979L591.316 362.498ZM605.662 356.434H607.469V367H605.662V359.295L600.789 367H598.982V356.434H600.789V364.148L605.662 356.434ZM617.205 356.434H619.012V367H617.205V359.295L612.332 367H610.525V356.434H612.332V364.148L617.205 356.434ZM617.693 352.586C617.693 353.374 617.423 354.008 616.883 354.49C616.349 354.965 615.646 355.203 614.773 355.203C613.901 355.203 613.195 354.962 612.654 354.48C612.114 353.999 611.844 353.367 611.844 352.586H613.318C613.318 353.042 613.442 353.4 613.689 353.66C613.937 353.914 614.298 354.041 614.773 354.041C615.229 354.041 615.584 353.914 615.838 353.66C616.098 353.406 616.229 353.048 616.229 352.586H617.693ZM540.594 391.721C541.238 391.721 541.801 391.525 542.283 391.135C542.765 390.744 543.032 390.256 543.084 389.67H544.793C544.76 390.275 544.552 390.852 544.168 391.398C543.784 391.945 543.27 392.382 542.625 392.707C541.987 393.033 541.31 393.195 540.594 393.195C539.155 393.195 538.009 392.717 537.156 391.76C536.31 390.796 535.887 389.481 535.887 387.814V387.512C535.887 386.483 536.076 385.568 536.453 384.768C536.831 383.967 537.371 383.345 538.074 382.902C538.784 382.46 539.62 382.238 540.584 382.238C541.769 382.238 542.752 382.593 543.533 383.303C544.321 384.012 544.741 384.934 544.793 386.066H543.084C543.032 385.383 542.771 384.823 542.303 384.387C541.84 383.944 541.268 383.723 540.584 383.723C539.666 383.723 538.953 384.055 538.445 384.719C537.944 385.376 537.693 386.33 537.693 387.58V387.922C537.693 389.139 537.944 390.077 538.445 390.734C538.947 391.392 539.663 391.721 540.594 391.721ZM554.803 393H552.986V389.172C552.192 389.38 551.378 389.484 550.545 389.484C549.223 389.484 548.214 389.146 547.518 388.469C546.827 387.792 546.476 386.828 546.463 385.578V382.424H548.27V385.637C548.302 387.212 549.061 388 550.545 388C551.378 388 552.192 387.896 552.986 387.688V382.434H554.803V393ZM562.088 393.195C560.656 393.195 559.49 392.727 558.592 391.789C557.693 390.845 557.244 389.585 557.244 388.01V387.678C557.244 386.63 557.443 385.695 557.84 384.875C558.243 384.048 558.803 383.404 559.52 382.941C560.242 382.473 561.023 382.238 561.863 382.238C563.237 382.238 564.305 382.691 565.066 383.596C565.828 384.501 566.209 385.796 566.209 387.482V388.234H559.051C559.077 389.276 559.38 390.119 559.959 390.764C560.545 391.402 561.287 391.721 562.186 391.721C562.824 391.721 563.364 391.59 563.807 391.33C564.249 391.07 564.637 390.725 564.969 390.295L566.072 391.154C565.187 392.515 563.859 393.195 562.088 393.195ZM561.863 383.723C561.134 383.723 560.522 383.99 560.027 384.523C559.533 385.051 559.227 385.793 559.109 386.75H564.402V386.613C564.35 385.695 564.103 384.986 563.66 384.484C563.217 383.977 562.618 383.723 561.863 383.723ZM576.043 383.898H572.498V393H570.691V383.898H567.215V382.434H576.043V383.898ZM591.717 380.324H584.861V384.582H588.396C589.881 384.602 591.04 384.982 591.873 385.725C592.706 386.467 593.123 387.476 593.123 388.752C593.123 390.035 592.703 391.057 591.863 391.818C591.023 392.58 589.878 392.974 588.426 393H582.977V378.781H591.717V380.324ZM584.861 386.125V391.467H588.289C589.22 391.467 589.943 391.219 590.457 390.725C590.978 390.23 591.238 389.566 591.238 388.732C591.238 387.932 590.988 387.3 590.486 386.838C589.992 386.376 589.285 386.138 588.367 386.125H584.861Z" fill="#2BA14B"/>
<path d="M213.615 352.781H215.49V367H213.615V356.043L206.613 367H204.729V352.781H206.613V363.738L213.615 352.781ZM227.873 352.781H229.748V367H227.873V356.043L220.871 367H218.986V352.781H220.871V363.738L227.873 352.781ZM243.625 362.488C243.449 363.992 242.893 365.154 241.955 365.975C241.024 366.788 239.784 367.195 238.234 367.195C236.555 367.195 235.207 366.593 234.191 365.389C233.182 364.184 232.678 362.573 232.678 360.555V359.188C232.678 357.866 232.912 356.704 233.381 355.701C233.856 354.699 234.527 353.93 235.393 353.396C236.258 352.856 237.261 352.586 238.4 352.586C239.911 352.586 241.122 353.009 242.033 353.855C242.945 354.695 243.475 355.861 243.625 357.352H241.74C241.577 356.219 241.223 355.398 240.676 354.891C240.135 354.383 239.377 354.129 238.4 354.129C237.202 354.129 236.262 354.572 235.578 355.457C234.901 356.342 234.562 357.602 234.562 359.236V360.613C234.562 362.156 234.885 363.383 235.529 364.295C236.174 365.206 237.076 365.662 238.234 365.662C239.276 365.662 240.074 365.428 240.627 364.959C241.187 364.484 241.558 363.66 241.74 362.488H243.625Z" fill="#F39C12"/>
<path d="M38.7832 367V352.781H43.4316C44.9746 352.781 46.1335 353.1 46.9082 353.738C47.6895 354.376 48.0801 355.32 48.0801 356.57C48.0801 357.234 47.8913 357.824 47.5137 358.338C47.1361 358.846 46.6217 359.24 45.9707 359.52C46.7389 359.734 47.3444 360.145 47.7871 360.75C48.2363 361.349 48.4609 362.065 48.4609 362.898C48.4609 364.174 48.0475 365.177 47.2207 365.906C46.3939 366.635 45.2253 367 43.7148 367H38.7832ZM40.6582 360.35V365.467H43.7539C44.6263 365.467 45.3132 365.242 45.8145 364.793C46.3223 364.337 46.5762 363.712 46.5762 362.918C46.5762 361.206 45.6452 360.35 43.7832 360.35H40.6582ZM40.6582 358.846H43.4902C44.3105 358.846 44.9648 358.641 45.4531 358.23C45.9479 357.82 46.1953 357.264 46.1953 356.561C46.1953 355.779 45.9674 355.213 45.5117 354.861C45.056 354.503 44.3626 354.324 43.4316 354.324H40.6582V358.846ZM54.252 362.498H52.9336V367H51.1172V356.434H52.9336V360.906H54.1152L57.6699 356.434H59.8574L55.6777 361.512L60.209 367H57.9141L54.252 362.498ZM70.4238 356.434V367H68.6074V357.928H65.0137L64.7988 361.883C64.6816 363.699 64.3757 364.998 63.8809 365.779C63.3926 366.561 62.6146 366.967 61.5469 367H60.8242V365.408L61.3418 365.369C61.9277 365.304 62.3477 364.965 62.6016 364.354C62.8555 363.742 63.0182 362.609 63.0898 360.955L63.2852 356.434H70.4238ZM79.8477 367C79.7435 366.792 79.6589 366.421 79.5938 365.887C78.7539 366.759 77.7513 367.195 76.5859 367.195C75.5443 367.195 74.6882 366.902 74.0176 366.316C73.3535 365.724 73.0215 364.975 73.0215 364.07C73.0215 362.97 73.4382 362.117 74.2715 361.512C75.1113 360.9 76.2897 360.594 77.8066 360.594H79.5645V359.764C79.5645 359.132 79.3757 358.631 78.998 358.26C78.6204 357.882 78.0638 357.693 77.3281 357.693C76.6836 357.693 76.1432 357.856 75.707 358.182C75.2708 358.507 75.0527 358.901 75.0527 359.363H73.2363C73.2363 358.836 73.4219 358.328 73.793 357.84C74.1706 357.345 74.6784 356.954 75.3164 356.668C75.9609 356.382 76.6673 356.238 77.4355 356.238C78.653 356.238 79.6068 356.544 80.2969 357.156C80.987 357.762 81.3451 358.598 81.3711 359.666V364.529C81.3711 365.499 81.4948 366.271 81.7422 366.844V367H79.8477ZM76.8496 365.623C77.416 365.623 77.9531 365.477 78.4609 365.184C78.9688 364.891 79.3366 364.51 79.5645 364.041V361.873H78.1484C75.9349 361.873 74.8281 362.521 74.8281 363.816C74.8281 364.383 75.0169 364.826 75.3945 365.145C75.7721 365.464 76.2572 365.623 76.8496 365.623ZM84.1152 365.525L84.7402 364.754C85.4434 363.842 85.8438 362.475 85.9414 360.652L86.1074 356.434H92.9141V365.525H94.2715V370.105H92.4648V367H85.0918V370.105H83.2852L83.2949 365.525H84.1152ZM86.2539 365.525H91.1074V358.104H87.8555L87.748 360.623C87.6374 362.726 87.1393 364.36 86.2539 365.525ZM34.4766 393V382.434H38.5977C40.0039 382.434 41.0814 382.681 41.8301 383.176C42.5853 383.664 42.9629 384.383 42.9629 385.334C42.9629 385.822 42.8164 386.265 42.5234 386.662C42.2305 387.053 41.7975 387.352 41.2246 387.561C41.8626 387.71 42.3737 388.003 42.7578 388.439C43.1484 388.876 43.3438 389.396 43.3438 390.002C43.3438 390.972 42.9857 391.714 42.2695 392.229C41.5599 392.743 40.554 393 39.252 393H34.4766ZM36.2832 388.361V391.545H39.2715C40.0267 391.545 40.5898 391.405 40.9609 391.125C41.3385 390.845 41.5273 390.451 41.5273 389.943C41.5273 388.889 40.7526 388.361 39.2031 388.361H36.2832ZM36.2832 386.916H38.6172C40.3099 386.916 41.1562 386.421 41.1562 385.432C41.1562 384.442 40.3555 383.931 38.7539 383.898H36.2832V386.916ZM55.3359 383.039C56.6641 383.039 57.7253 383.485 58.5195 384.377C59.3203 385.262 59.7207 386.431 59.7207 387.883V388.049C59.7207 389.045 59.5286 389.937 59.1445 390.725C58.7604 391.506 58.207 392.115 57.4844 392.551C56.7682 392.98 55.9414 393.195 55.0039 393.195C53.5846 393.195 52.4421 392.723 51.5762 391.779C50.7103 390.829 50.2773 389.556 50.2773 387.961V387.082C50.2773 384.862 50.6875 383.098 51.5078 381.789C52.3346 380.48 53.5521 379.683 55.1602 379.396C56.0716 379.234 56.6868 379.035 57.0059 378.801C57.3249 378.566 57.4844 378.244 57.4844 377.834H58.9688C58.9688 378.648 58.7832 379.283 58.4121 379.738C58.0475 380.194 57.4616 380.516 56.6543 380.705L55.3066 381.008C54.2324 381.262 53.4251 381.691 52.8848 382.297C52.3509 382.896 52.0026 383.697 51.8398 384.699C52.7969 383.592 53.9622 383.039 55.3359 383.039ZM54.9844 384.523C54.099 384.523 53.3958 384.823 52.875 385.422C52.3542 386.014 52.0938 386.838 52.0938 387.893V388.049C52.0938 389.182 52.3542 390.08 52.875 390.744C53.4023 391.402 54.112 391.73 55.0039 391.73C55.9023 391.73 56.612 391.398 57.1328 390.734C57.6536 390.07 57.9141 389.1 57.9141 387.824C57.9141 386.828 57.6504 386.031 57.123 385.432C56.6022 384.826 55.8893 384.523 54.9844 384.523ZM68.2754 393C68.1712 392.792 68.0866 392.421 68.0215 391.887C67.1816 392.759 66.179 393.195 65.0137 393.195C63.972 393.195 63.1159 392.902 62.4453 392.316C61.7812 391.724 61.4492 390.975 61.4492 390.07C61.4492 388.97 61.8659 388.117 62.6992 387.512C63.5391 386.9 64.7174 386.594 66.2344 386.594H67.9922V385.764C67.9922 385.132 67.8034 384.631 67.4258 384.26C67.0482 383.882 66.4915 383.693 65.7559 383.693C65.1113 383.693 64.571 383.856 64.1348 384.182C63.6986 384.507 63.4805 384.901 63.4805 385.363H61.6641C61.6641 384.836 61.8496 384.328 62.2207 383.84C62.5983 383.345 63.1061 382.954 63.7441 382.668C64.3887 382.382 65.0951 382.238 65.8633 382.238C67.0807 382.238 68.0345 382.544 68.7246 383.156C69.4147 383.762 69.7728 384.598 69.7988 385.666V390.529C69.7988 391.499 69.9225 392.271 70.1699 392.844V393H68.2754ZM65.2773 391.623C65.8438 391.623 66.3809 391.477 66.8887 391.184C67.3965 390.891 67.7643 390.51 67.9922 390.041V387.873H66.5762C64.3626 387.873 63.2559 388.521 63.2559 389.816C63.2559 390.383 63.4447 390.826 63.8223 391.145C64.1999 391.464 64.6849 391.623 65.2773 391.623ZM81.2637 393H79.457V388.488H74.6035V393H72.7871V382.434H74.6035V387.014H79.457V382.434H81.2637V393ZM87.4648 388.498H86.1465V393H84.3301V382.434H86.1465V386.906H87.3281L90.8828 382.434H93.0703L88.8906 387.512L93.4219 393H91.127L87.4648 388.498ZM99.2031 393.195C97.7708 393.195 96.6055 392.727 95.707 391.789C94.8086 390.845 94.3594 389.585 94.3594 388.01V387.678C94.3594 386.63 94.5579 385.695 94.9551 384.875C95.3587 384.048 95.9186 383.404 96.6348 382.941C97.3574 382.473 98.1387 382.238 98.9785 382.238C100.352 382.238 101.42 382.691 102.182 383.596C102.943 384.501 103.324 385.796 103.324 387.482V388.234H96.166C96.1921 389.276 96.4948 390.119 97.0742 390.764C97.6602 391.402 98.4023 391.721 99.3008 391.721C99.9388 391.721 100.479 391.59 100.922 391.33C101.365 391.07 101.752 390.725 102.084 390.295L103.188 391.154C102.302 392.515 100.974 393.195 99.2031 393.195ZM98.9785 383.723C98.2493 383.723 97.6374 383.99 97.1426 384.523C96.6478 385.051 96.3418 385.793 96.2246 386.75H101.518V386.613C101.465 385.695 101.218 384.986 100.775 384.484C100.333 383.977 99.7337 383.723 98.9785 383.723Z" fill="#15A1FF"/>
<path d="M18 234C18 228.477 22.4772 224 28 224H108C113.523 224 118 228.477 118 234V314H18V234Z" fill="#15A1FF"/>
<path d="M175 53C175 47.4771 179.477 43 185 43H265C270.523 43 275 47.4772 275 53V314H175V53Z" fill="#F39C12"/>
<path d="M347 10C347 4.47715 351.477 0 357 0H437C442.523 0 447 4.47715 447 10V314H347V10Z" fill="#8E44AD"/>
<path d="M515 111C515 105.477 519.477 101 525 101H605C610.523 101 615 105.477 615 111V314H515V111Z" fill="#2BA14B"/>
<line x1="-2.18557e-08" y1="313.75" x2="610" y2="313.75" stroke="#8C8C8C" stroke-width="0.5" stroke-dasharray="3 3"/>
<path d="M208.505 189H203.554V173.238L198.691 174.659V170.909L208.051 167.672H208.505V189ZM229.746 180.284C229.746 183.165 229.096 185.387 227.797 186.949C226.508 188.512 224.687 189.293 222.334 189.293C219.961 189.293 218.125 188.507 216.826 186.935C215.527 185.362 214.878 183.146 214.878 180.284V176.388C214.878 173.507 215.522 171.285 216.811 169.723C218.11 168.16 219.941 167.379 222.304 167.379C224.668 167.379 226.499 168.165 227.797 169.737C229.096 171.31 229.746 173.531 229.746 176.402V180.284ZM224.809 175.758C224.809 174.225 224.609 173.082 224.209 172.33C223.808 171.568 223.173 171.188 222.304 171.188C221.455 171.188 220.835 171.539 220.444 172.242C220.063 172.945 219.858 174.01 219.829 175.436V180.885C219.829 182.477 220.029 183.644 220.429 184.386C220.83 185.118 221.464 185.484 222.334 185.484C223.173 185.484 223.794 185.128 224.194 184.415C224.594 183.692 224.799 182.564 224.809 181.031V175.758ZM232.324 171.773C232.324 170.455 232.753 169.391 233.613 168.58C234.472 167.77 235.625 167.364 237.07 167.364C238.535 167.364 239.692 167.77 240.542 168.58C241.391 169.381 241.816 170.47 241.816 171.847V172.901C241.816 174.22 241.391 175.279 240.542 176.08C239.692 176.881 238.545 177.281 237.099 177.281C235.664 177.281 234.506 176.886 233.628 176.095C232.758 175.294 232.324 174.2 232.324 172.813V171.773ZM235.503 172.901C235.503 173.409 235.644 173.824 235.927 174.146C236.211 174.459 236.601 174.615 237.099 174.615C238.125 174.615 238.637 173.961 238.637 172.652V171.773C238.637 171.266 238.501 170.851 238.227 170.528C237.954 170.196 237.568 170.03 237.07 170.03C236.591 170.03 236.211 170.191 235.927 170.514C235.644 170.826 235.503 171.256 235.503 171.803V172.901ZM242.461 183.771C242.461 182.442 242.89 181.378 243.75 180.577C244.619 179.776 245.771 179.376 247.207 179.376C248.662 179.376 249.819 179.771 250.678 180.562C251.538 181.354 251.967 182.457 251.967 183.873V184.898C251.967 186.227 251.543 187.291 250.693 188.092C249.843 188.893 248.691 189.293 247.236 189.293C245.8 189.293 244.643 188.897 243.764 188.106C242.895 187.306 242.461 186.212 242.461 184.825V183.771ZM245.625 184.898C245.625 185.357 245.781 185.763 246.093 186.114C246.406 186.456 246.787 186.627 247.236 186.627C248.183 186.627 248.696 186.178 248.774 185.279L248.789 183.771C248.789 183.253 248.647 182.838 248.364 182.525C248.081 182.203 247.695 182.042 247.207 182.042C246.738 182.042 246.362 182.193 246.079 182.496C245.795 182.789 245.644 183.189 245.625 183.697V184.898ZM238.037 187.403L235.737 186.246L246.152 169.576L248.452 170.733L238.037 187.403Z" fill="white"/>
<path d="M64.7389 271.665H66.9068V275.474H64.7389V280H59.8024V275.474H51.5553L51.2623 272.456L59.8024 258.716V258.672H64.7389V271.665ZM55.9645 271.665H59.8024V265.103L59.4947 265.601L55.9645 271.665ZM69.0895 262.773C69.0895 261.455 69.5191 260.391 70.3785 259.58C71.2379 258.77 72.3902 258.364 73.8356 258.364C75.3004 258.364 76.4576 258.77 77.3072 259.58C78.1568 260.381 78.5816 261.47 78.5816 262.847V263.901C78.5816 265.22 78.1568 266.279 77.3072 267.08C76.4576 267.881 75.3102 268.281 73.8649 268.281C72.4293 268.281 71.2721 267.886 70.3932 267.095C69.524 266.294 69.0895 265.2 69.0895 263.813V262.773ZM72.2682 263.901C72.2682 264.409 72.4098 264.824 72.693 265.146C72.9762 265.459 73.3668 265.615 73.8649 265.615C74.8902 265.615 75.4029 264.961 75.4029 263.652V262.773C75.4029 262.266 75.2662 261.851 74.9928 261.528C74.7193 261.196 74.3336 261.03 73.8356 261.03C73.357 261.03 72.9762 261.191 72.693 261.514C72.4098 261.826 72.2682 262.256 72.2682 262.803V263.901ZM79.2262 274.771C79.2262 273.442 79.6559 272.378 80.5152 271.577C81.3844 270.776 82.5367 270.376 83.9723 270.376C85.4274 270.376 86.5846 270.771 87.444 271.562C88.3033 272.354 88.733 273.457 88.733 274.873V275.898C88.733 277.227 88.3082 278.291 87.4586 279.092C86.609 279.893 85.4566 280.293 84.0016 280.293C82.566 280.293 81.4088 279.897 80.5299 279.106C79.6608 278.306 79.2262 277.212 79.2262 275.825V274.771ZM82.3902 275.898C82.3902 276.357 82.5465 276.763 82.859 277.114C83.1715 277.456 83.5524 277.627 84.0016 277.627C84.9488 277.627 85.4615 277.178 85.5397 276.279L85.5543 274.771C85.5543 274.253 85.4127 273.838 85.1295 273.525C84.8463 273.203 84.4606 273.042 83.9723 273.042C83.5035 273.042 83.1275 273.193 82.8443 273.496C82.5611 273.789 82.4098 274.189 82.3902 274.697V275.898ZM74.8024 278.403L72.5025 277.246L82.9176 260.576L85.2174 261.733L74.8024 278.403Z" fill="white"/>
<path d="M381.918 168H376.967V152.238L372.104 153.659V149.909L381.464 146.672H381.918V168ZM403.232 168H388.349V164.777L395.205 157.57C396.894 155.646 397.739 154.118 397.739 152.985C397.739 152.067 397.539 151.369 397.138 150.891C396.738 150.412 396.157 150.173 395.395 150.173C394.643 150.173 394.033 150.495 393.564 151.14C393.095 151.774 392.861 152.57 392.861 153.527H387.91C387.91 152.219 388.237 151.013 388.891 149.909C389.545 148.796 390.454 147.927 391.616 147.302C392.778 146.677 394.077 146.364 395.512 146.364C397.817 146.364 399.589 146.896 400.83 147.961C402.08 149.025 402.705 150.554 402.705 152.546C402.705 153.386 402.548 154.206 402.236 155.007C401.923 155.798 401.435 156.633 400.771 157.512C400.117 158.381 399.057 159.548 397.592 161.013L394.838 164.191H403.232V168ZM405.737 150.773C405.737 149.455 406.167 148.391 407.026 147.58C407.885 146.77 409.038 146.364 410.483 146.364C411.948 146.364 413.105 146.77 413.955 147.58C414.804 148.381 415.229 149.47 415.229 150.847V151.901C415.229 153.22 414.804 154.279 413.955 155.08C413.105 155.881 411.958 156.281 410.512 156.281C409.077 156.281 407.919 155.886 407.041 155.095C406.171 154.294 405.737 153.2 405.737 151.813V150.773ZM408.916 151.901C408.916 152.409 409.057 152.824 409.34 153.146C409.624 153.459 410.014 153.615 410.512 153.615C411.538 153.615 412.05 152.961 412.05 151.652V150.773C412.05 150.266 411.914 149.851 411.64 149.528C411.367 149.196 410.981 149.03 410.483 149.03C410.004 149.03 409.624 149.191 409.34 149.514C409.057 149.826 408.916 150.256 408.916 150.803V151.901ZM415.874 162.771C415.874 161.442 416.303 160.378 417.163 159.577C418.032 158.776 419.184 158.376 420.62 158.376C422.075 158.376 423.232 158.771 424.091 159.562C424.951 160.354 425.38 161.457 425.38 162.873V163.898C425.38 165.227 424.956 166.291 424.106 167.092C423.256 167.893 422.104 168.293 420.649 168.293C419.213 168.293 418.056 167.897 417.177 167.106C416.308 166.306 415.874 165.212 415.874 163.825V162.771ZM419.038 163.898C419.038 164.357 419.194 164.763 419.506 165.114C419.819 165.456 420.2 165.627 420.649 165.627C421.596 165.627 422.109 165.178 422.187 164.279L422.202 162.771C422.202 162.253 422.06 161.838 421.777 161.525C421.494 161.203 421.108 161.042 420.62 161.042C420.151 161.042 419.775 161.193 419.492 161.496C419.208 161.789 419.057 162.189 419.038 162.697V163.898ZM411.45 166.403L409.15 165.246L419.565 148.576L421.865 149.733L411.45 166.403Z" fill="white"/>
<path d="M561.809 201.309L553.84 220H548.625L556.608 202.48H546.442V198.672H561.809V201.309ZM564.372 202.773C564.372 201.455 564.802 200.391 565.661 199.58C566.521 198.77 567.673 198.364 569.118 198.364C570.583 198.364 571.74 198.77 572.59 199.58C573.439 200.381 573.864 201.47 573.864 202.847V203.901C573.864 205.22 573.439 206.279 572.59 207.08C571.74 207.881 570.593 208.281 569.147 208.281C567.712 208.281 566.555 207.886 565.676 207.095C564.807 206.294 564.372 205.2 564.372 203.813V202.773ZM567.551 203.901C567.551 204.409 567.692 204.824 567.976 205.146C568.259 205.459 568.649 205.615 569.147 205.615C570.173 205.615 570.686 204.961 570.686 203.652V202.773C570.686 202.266 570.549 201.851 570.275 201.528C570.002 201.196 569.616 201.03 569.118 201.03C568.64 201.03 568.259 201.191 567.976 201.514C567.692 201.826 567.551 202.256 567.551 202.803V203.901ZM574.509 214.771C574.509 213.442 574.938 212.378 575.798 211.577C576.667 210.776 577.819 210.376 579.255 210.376C580.71 210.376 581.867 210.771 582.727 211.562C583.586 212.354 584.016 213.457 584.016 214.873V215.898C584.016 217.227 583.591 218.291 582.741 219.092C581.892 219.893 580.739 220.293 579.284 220.293C577.849 220.293 576.691 219.897 575.812 219.106C574.943 218.306 574.509 217.212 574.509 215.825V214.771ZM577.673 215.898C577.673 216.357 577.829 216.763 578.142 217.114C578.454 217.456 578.835 217.627 579.284 217.627C580.231 217.627 580.744 217.178 580.822 216.279L580.837 214.771C580.837 214.253 580.695 213.838 580.412 213.525C580.129 213.203 579.743 213.042 579.255 213.042C578.786 213.042 578.41 213.193 578.127 213.496C577.844 213.789 577.692 214.189 577.673 214.697V215.898ZM570.085 218.403L567.785 217.246L578.2 200.576L580.5 201.733L570.085 218.403Z" fill="white"/>
</svg>
