<svg width="603" height="315" viewBox="0 0 603 315" fill="none" xmlns="http://www.w3.org/2000/svg">
<mask id="mask0" mask-type="alpha" maskUnits="userSpaceOnUse" x="0" y="0" width="315" height="315">
<circle cx="157.5" cy="157.5" r="147.5" stroke="black" stroke-width="20"/>
</mask>
<g mask="url(#mask0)">
<circle opacity="0.2" cx="157.5" cy="157.5" r="147.5" stroke="#A5A5A5" stroke-width="20"/>
<path d="M157.5 -8.27661H381.316V349.829L21.7241 324.052L302 369.5L157.5 170.776V-8.27661Z" fill="#15A1FF"/>
<path d="M268.5 312L378 77.5L369.592 346.105L10 320.328L107.5 366.5L145.776 167.053L268.5 312Z" fill="#F39C12"/>
</g>
<path d="M140.246 115.27V119.918H139.699C137.147 119.957 135.09 120.621 133.527 121.91C131.978 123.199 131.047 124.99 130.734 127.281C132.245 125.745 134.152 124.977 136.457 124.977C138.931 124.977 140.897 125.862 142.355 127.633C143.814 129.404 144.543 131.734 144.543 134.625C144.543 136.474 144.139 138.147 143.332 139.645C142.538 141.142 141.405 142.307 139.934 143.141C138.475 143.974 136.822 144.391 134.973 144.391C131.978 144.391 129.556 143.349 127.707 141.266C125.871 139.182 124.953 136.402 124.953 132.926V130.895C124.953 127.809 125.533 125.087 126.691 122.73C127.863 120.361 129.536 118.531 131.711 117.242C133.898 115.94 136.431 115.283 139.309 115.27H140.246ZM134.738 129.508C133.827 129.508 133 129.749 132.258 130.23C131.516 130.699 130.969 131.324 130.617 132.105V133.824C130.617 135.712 130.988 137.19 131.73 138.258C132.473 139.312 133.514 139.84 134.855 139.84C136.066 139.84 137.043 139.365 137.785 138.414C138.54 137.451 138.918 136.207 138.918 134.684C138.918 133.134 138.54 131.884 137.785 130.934C137.03 129.983 136.014 129.508 134.738 129.508ZM167.043 132.242C167.043 136.174 166.229 139.182 164.602 141.266C162.974 143.349 160.591 144.391 157.453 144.391C154.354 144.391 151.984 143.368 150.344 141.324C148.703 139.28 147.863 136.35 147.824 132.535V127.301C147.824 123.329 148.645 120.315 150.285 118.258C151.939 116.201 154.315 115.172 157.414 115.172C160.513 115.172 162.883 116.194 164.523 118.238C166.164 120.27 167.004 123.193 167.043 127.008V132.242ZM161.398 126.5C161.398 124.143 161.073 122.431 160.422 121.363C159.784 120.283 158.781 119.742 157.414 119.742C156.086 119.742 155.103 120.257 154.465 121.285C153.84 122.301 153.508 123.896 153.469 126.07V132.984C153.469 135.302 153.781 137.027 154.406 138.16C155.044 139.28 156.06 139.84 157.453 139.84C158.833 139.84 159.829 139.299 160.441 138.219C161.053 137.138 161.372 135.484 161.398 133.258V126.5ZM170.793 121.031C170.793 119.286 171.359 117.874 172.492 116.793C173.625 115.699 175.109 115.152 176.945 115.152C178.807 115.152 180.305 115.693 181.438 116.773C182.57 117.841 183.137 119.293 183.137 121.129V122.535C183.137 124.293 182.57 125.706 181.438 126.773C180.305 127.841 178.82 128.375 176.984 128.375C175.135 128.375 173.638 127.841 172.492 126.773C171.359 125.693 170.793 124.241 170.793 122.418V121.031ZM174.543 122.535C174.543 123.316 174.764 123.948 175.207 124.43C175.663 124.898 176.255 125.133 176.984 125.133C177.714 125.133 178.293 124.892 178.723 124.41C179.152 123.928 179.367 123.284 179.367 122.477V121.031C179.367 120.25 179.152 119.618 178.723 119.137C178.293 118.655 177.701 118.414 176.945 118.414C176.229 118.414 175.65 118.655 175.207 119.137C174.764 119.605 174.543 120.263 174.543 121.109V122.535ZM184.387 137.027C184.387 135.27 184.96 133.857 186.105 132.789C187.251 131.708 188.736 131.168 190.559 131.168C192.408 131.168 193.898 131.702 195.031 132.77C196.177 133.824 196.75 135.283 196.75 137.145V138.551C196.75 140.296 196.19 141.708 195.07 142.789C193.951 143.857 192.46 144.391 190.598 144.391C188.723 144.391 187.219 143.85 186.086 142.77C184.953 141.689 184.387 140.257 184.387 138.473V137.027ZM188.137 138.551C188.137 139.267 188.371 139.879 188.84 140.387C189.309 140.895 189.895 141.148 190.598 141.148C192.186 141.148 192.98 140.27 192.98 138.512V137.027C192.98 136.246 192.759 135.621 192.316 135.152C191.874 134.671 191.288 134.43 190.559 134.43C189.829 134.43 189.243 134.671 188.801 135.152C188.358 135.621 188.137 136.266 188.137 137.086V138.551ZM178.098 141.871L175.344 140.387L189.23 118.16L191.984 119.645L178.098 141.871Z" fill="#15A1FF"/>
<path d="M117.867 183H115.898V173.219H110.891V183H108.922V171.625H117.867V183ZM127.477 178.859C127.477 180.167 127.18 181.211 126.586 181.992C125.992 182.768 125.195 183.156 124.195 183.156C123.268 183.156 122.526 182.852 121.969 182.242V186.25H120.07V174.547H121.82L121.898 175.406C122.456 174.729 123.214 174.391 124.172 174.391C125.203 174.391 126.01 174.776 126.594 175.547C127.182 176.312 127.477 177.378 127.477 178.742V178.859ZM125.586 178.695C125.586 177.852 125.417 177.182 125.078 176.688C124.745 176.193 124.266 175.945 123.641 175.945C122.865 175.945 122.307 176.266 121.969 176.906V180.656C122.312 181.312 122.875 181.641 123.656 181.641C124.26 181.641 124.732 181.398 125.07 180.914C125.414 180.424 125.586 179.685 125.586 178.695ZM134.367 174.547H136.258V183H134.367V177.359L131.055 183H129.164V174.547H131.055V180.188L134.367 174.547ZM142.258 175.016C143.32 175.016 144.172 175.372 144.812 176.086C145.453 176.794 145.773 177.758 145.773 178.977V179.07C145.773 180.289 145.424 181.276 144.727 182.031C144.034 182.786 143.091 183.164 141.898 183.164C140.737 183.164 139.799 182.779 139.086 182.008C138.372 181.237 138.016 180.185 138.016 178.852V178.305C138.016 176.482 138.339 175.039 138.984 173.977C139.63 172.914 140.594 172.25 141.875 171.984C142.594 171.839 143.057 171.685 143.266 171.523C143.479 171.357 143.586 171.133 143.586 170.852H145.117C145.117 171.378 145.031 171.805 144.859 172.133C144.688 172.461 144.424 172.729 144.07 172.938C143.716 173.141 143.107 173.333 142.242 173.516C141.451 173.682 140.846 173.979 140.43 174.406C140.018 174.833 139.742 175.424 139.602 176.18C140.357 175.404 141.242 175.016 142.258 175.016ZM141.883 176.539C141.268 176.539 140.786 176.747 140.438 177.164C140.089 177.576 139.914 178.211 139.914 179.07C139.914 179.883 140.086 180.516 140.43 180.969C140.773 181.422 141.263 181.648 141.898 181.648C142.529 181.648 143.016 181.422 143.359 180.969C143.708 180.51 143.883 179.823 143.883 178.906C143.883 178.177 143.708 177.602 143.359 177.18C143.016 176.753 142.523 176.539 141.883 176.539ZM149.305 177.234H151.164C151.857 177.234 152.461 177.354 152.977 177.594C153.492 177.833 153.883 178.169 154.148 178.602C154.419 179.034 154.555 179.536 154.555 180.109C154.555 180.979 154.247 181.677 153.633 182.203C153.018 182.729 152.201 182.995 151.18 183H147.406V174.547H149.305V177.234ZM157.859 183H155.961V174.547H157.859V183ZM149.305 178.758V181.484H151.156C151.62 181.484 151.984 181.37 152.25 181.141C152.521 180.906 152.656 180.576 152.656 180.148C152.656 179.721 152.523 179.385 152.258 179.141C151.997 178.891 151.643 178.763 151.195 178.758H149.305ZM167.32 174.547V183H165.422V176.078H163.031L162.875 179.023C162.776 180.44 162.503 181.458 162.055 182.078C161.612 182.693 160.932 183 160.016 183H159.43L159.422 181.422L159.812 181.383C160.229 181.326 160.531 181.073 160.719 180.625C160.911 180.172 161.034 179.349 161.086 178.156L161.242 174.547H167.32ZM171.383 177.234H173.242C173.935 177.234 174.539 177.354 175.055 177.594C175.57 177.833 175.961 178.169 176.227 178.602C176.497 179.034 176.633 179.536 176.633 180.109C176.633 180.979 176.326 181.677 175.711 182.203C175.096 182.729 174.279 182.995 173.258 183H169.484V174.547H171.383V177.234ZM171.383 178.758V181.484H173.234C173.698 181.484 174.062 181.37 174.328 181.141C174.599 180.906 174.734 180.576 174.734 180.148C174.734 179.721 174.602 179.385 174.336 179.141C174.076 178.891 173.721 178.763 173.273 178.758H171.383ZM185.312 183H183.414V179.586H180.125V183H178.227V174.547H180.125V178.07H183.414V174.547H185.312V183ZM189.383 177.234H191.242C191.935 177.234 192.539 177.354 193.055 177.594C193.57 177.833 193.961 178.169 194.227 178.602C194.497 179.034 194.633 179.536 194.633 180.109C194.633 180.979 194.326 181.677 193.711 182.203C193.096 182.729 192.279 182.995 191.258 183H187.484V174.547H189.383V177.234ZM197.938 183H196.039V174.547H197.938V183ZM189.383 178.758V181.484H191.234C191.698 181.484 192.062 181.37 192.328 181.141C192.599 180.906 192.734 180.576 192.734 180.148C192.734 179.721 192.602 179.385 192.336 179.141C192.076 178.891 191.721 178.763 191.273 178.758H189.383ZM203.25 177.328L204.859 174.547H206.969L204.383 178.711L207.055 183H204.961L203.273 180.109L201.594 183H199.484L202.156 178.711L199.578 174.547H201.672L203.25 177.328ZM134.914 202.641C135.388 202.641 135.781 202.503 136.094 202.227C136.406 201.951 136.573 201.609 136.594 201.203H138.383C138.362 201.729 138.198 202.221 137.891 202.68C137.583 203.133 137.167 203.492 136.641 203.758C136.115 204.023 135.547 204.156 134.938 204.156C133.755 204.156 132.818 203.773 132.125 203.008C131.432 202.242 131.086 201.185 131.086 199.836V199.641C131.086 198.354 131.43 197.326 132.117 196.555C132.805 195.779 133.742 195.391 134.93 195.391C135.935 195.391 136.753 195.685 137.383 196.273C138.018 196.857 138.352 197.625 138.383 198.578H136.594C136.573 198.094 136.406 197.695 136.094 197.383C135.786 197.07 135.393 196.914 134.914 196.914C134.299 196.914 133.826 197.138 133.492 197.586C133.159 198.029 132.99 198.703 132.984 199.609V199.914C132.984 200.831 133.148 201.516 133.477 201.969C133.81 202.417 134.289 202.641 134.914 202.641ZM139.852 202.484C140.378 201.896 140.729 201.339 140.906 200.812C141.089 200.281 141.198 199.604 141.234 198.781L141.344 195.547H147.211V202.484H148.383V206.516H146.492V204H141.07V206.516H139.148L139.156 202.484H139.852ZM142.078 202.484H145.32V197.18H143.188L143.133 198.797C143.06 200.349 142.708 201.578 142.078 202.484ZM153.461 204.156C152.258 204.156 151.281 203.779 150.531 203.023C149.786 202.263 149.414 201.253 149.414 199.992V199.758C149.414 198.914 149.576 198.161 149.898 197.5C150.227 196.833 150.685 196.315 151.273 195.945C151.862 195.576 152.518 195.391 153.242 195.391C154.393 195.391 155.281 195.758 155.906 196.492C156.536 197.227 156.852 198.266 156.852 199.609V200.375H151.328C151.385 201.073 151.617 201.625 152.023 202.031C152.435 202.438 152.951 202.641 153.57 202.641C154.44 202.641 155.148 202.289 155.695 201.586L156.719 202.562C156.38 203.068 155.927 203.461 155.359 203.742C154.797 204.018 154.164 204.156 153.461 204.156ZM153.234 196.914C152.714 196.914 152.292 197.096 151.969 197.461C151.651 197.826 151.448 198.333 151.359 198.984H154.977V198.844C154.935 198.208 154.766 197.729 154.469 197.406C154.172 197.078 153.76 196.914 153.234 196.914ZM165.516 195.547V204H163.617V197.078H161.227L161.07 200.023C160.971 201.44 160.698 202.458 160.25 203.078C159.807 203.693 159.128 204 158.211 204H157.625L157.617 202.422L158.008 202.383C158.424 202.326 158.727 202.073 158.914 201.625C159.107 201.172 159.229 200.349 159.281 199.156L159.438 195.547H165.516ZM167.18 199.695C167.18 198.867 167.344 198.122 167.672 197.461C168 196.794 168.461 196.284 169.055 195.93C169.648 195.57 170.331 195.391 171.102 195.391C172.242 195.391 173.167 195.758 173.875 196.492C174.589 197.227 174.974 198.201 175.031 199.414L175.039 199.859C175.039 200.693 174.878 201.438 174.555 202.094C174.237 202.75 173.779 203.258 173.18 203.617C172.586 203.977 171.898 204.156 171.117 204.156C169.924 204.156 168.969 203.76 168.25 202.969C167.536 202.172 167.18 201.112 167.18 199.789V199.695ZM169.078 199.859C169.078 200.729 169.258 201.411 169.617 201.906C169.977 202.396 170.477 202.641 171.117 202.641C171.758 202.641 172.255 202.391 172.609 201.891C172.969 201.391 173.148 200.659 173.148 199.695C173.148 198.841 172.964 198.164 172.594 197.664C172.229 197.164 171.732 196.914 171.102 196.914C170.482 196.914 169.99 197.161 169.625 197.656C169.26 198.146 169.078 198.88 169.078 199.859ZM179.648 200.656H178.688V204H176.789V195.547H178.688V198.922H179.523L181.859 195.547H184.203L181.148 199.594L184.461 204H181.992L179.648 200.656Z" fill="#15A1FF"/>
<path d="M534.676 178.281H537.684C539.116 178.281 540.177 177.923 540.867 177.207C541.557 176.491 541.902 175.54 541.902 174.355C541.902 173.21 541.557 172.318 540.867 171.68C540.19 171.042 539.253 170.723 538.055 170.723C536.974 170.723 536.069 171.022 535.34 171.621C534.611 172.207 534.246 172.975 534.246 173.926H528.602C528.602 172.441 528.999 171.113 529.793 169.941C530.6 168.757 531.72 167.832 533.152 167.168C534.598 166.504 536.186 166.172 537.918 166.172C540.926 166.172 543.283 166.895 544.988 168.34C546.694 169.772 547.547 171.751 547.547 174.277C547.547 175.579 547.15 176.777 546.355 177.871C545.561 178.965 544.52 179.805 543.23 180.391C544.832 180.964 546.023 181.823 546.805 182.969C547.599 184.115 547.996 185.469 547.996 187.031C547.996 189.557 547.072 191.582 545.223 193.105C543.387 194.629 540.952 195.391 537.918 195.391C535.079 195.391 532.755 194.642 530.945 193.145C529.148 191.647 528.25 189.668 528.25 187.207H533.895C533.895 188.275 534.292 189.147 535.086 189.824C535.893 190.501 536.883 190.84 538.055 190.84C539.396 190.84 540.444 190.488 541.199 189.785C541.967 189.069 542.352 188.125 542.352 186.953C542.352 184.115 540.789 182.695 537.664 182.695H534.676V178.281ZM571.043 183.242C571.043 187.174 570.229 190.182 568.602 192.266C566.974 194.349 564.591 195.391 561.453 195.391C558.354 195.391 555.984 194.368 554.344 192.324C552.703 190.28 551.863 187.35 551.824 183.535V178.301C551.824 174.329 552.645 171.315 554.285 169.258C555.939 167.201 558.315 166.172 561.414 166.172C564.513 166.172 566.883 167.194 568.523 169.238C570.164 171.27 571.004 174.193 571.043 178.008V183.242ZM565.398 177.5C565.398 175.143 565.073 173.431 564.422 172.363C563.784 171.283 562.781 170.742 561.414 170.742C560.086 170.742 559.103 171.257 558.465 172.285C557.84 173.301 557.508 174.896 557.469 177.07V183.984C557.469 186.302 557.781 188.027 558.406 189.16C559.044 190.28 560.06 190.84 561.453 190.84C562.833 190.84 563.829 190.299 564.441 189.219C565.053 188.138 565.372 186.484 565.398 184.258V177.5ZM574.793 172.031C574.793 170.286 575.359 168.874 576.492 167.793C577.625 166.699 579.109 166.152 580.945 166.152C582.807 166.152 584.305 166.693 585.438 167.773C586.57 168.841 587.137 170.293 587.137 172.129V173.535C587.137 175.293 586.57 176.706 585.438 177.773C584.305 178.841 582.82 179.375 580.984 179.375C579.135 179.375 577.638 178.841 576.492 177.773C575.359 176.693 574.793 175.241 574.793 173.418V172.031ZM578.543 173.535C578.543 174.316 578.764 174.948 579.207 175.43C579.663 175.898 580.255 176.133 580.984 176.133C581.714 176.133 582.293 175.892 582.723 175.41C583.152 174.928 583.367 174.284 583.367 173.477V172.031C583.367 171.25 583.152 170.618 582.723 170.137C582.293 169.655 581.701 169.414 580.945 169.414C580.229 169.414 579.65 169.655 579.207 170.137C578.764 170.605 578.543 171.263 578.543 172.109V173.535ZM588.387 188.027C588.387 186.27 588.96 184.857 590.105 183.789C591.251 182.708 592.736 182.168 594.559 182.168C596.408 182.168 597.898 182.702 599.031 183.77C600.177 184.824 600.75 186.283 600.75 188.145V189.551C600.75 191.296 600.19 192.708 599.07 193.789C597.951 194.857 596.46 195.391 594.598 195.391C592.723 195.391 591.219 194.85 590.086 193.77C588.953 192.689 588.387 191.257 588.387 189.473V188.027ZM592.137 189.551C592.137 190.267 592.371 190.879 592.84 191.387C593.309 191.895 593.895 192.148 594.598 192.148C596.186 192.148 596.98 191.27 596.98 189.512V188.027C596.98 187.246 596.759 186.621 596.316 186.152C595.874 185.671 595.288 185.43 594.559 185.43C593.829 185.43 593.243 185.671 592.801 186.152C592.358 186.621 592.137 187.266 592.137 188.086V189.551ZM582.098 192.871L579.344 191.387L593.23 169.16L595.984 170.645L582.098 192.871Z" fill="#F39C12"/>
<path d="M421.27 169.727L410.273 195H404.316L415.332 171.133H401.191V166.562H421.27V169.727ZM444.043 183.242C444.043 187.174 443.229 190.182 441.602 192.266C439.974 194.349 437.591 195.391 434.453 195.391C431.354 195.391 428.984 194.368 427.344 192.324C425.703 190.28 424.863 187.35 424.824 183.535V178.301C424.824 174.329 425.645 171.315 427.285 169.258C428.939 167.201 431.315 166.172 434.414 166.172C437.513 166.172 439.883 167.194 441.523 169.238C443.164 171.27 444.004 174.193 444.043 178.008V183.242ZM438.398 177.5C438.398 175.143 438.073 173.431 437.422 172.363C436.784 171.283 435.781 170.742 434.414 170.742C433.086 170.742 432.103 171.257 431.465 172.285C430.84 173.301 430.508 174.896 430.469 177.07V183.984C430.469 186.302 430.781 188.027 431.406 189.16C432.044 190.28 433.06 190.84 434.453 190.84C435.833 190.84 436.829 190.299 437.441 189.219C438.053 188.138 438.372 186.484 438.398 184.258V177.5ZM447.793 172.031C447.793 170.286 448.359 168.874 449.492 167.793C450.625 166.699 452.109 166.152 453.945 166.152C455.807 166.152 457.305 166.693 458.438 167.773C459.57 168.841 460.137 170.293 460.137 172.129V173.535C460.137 175.293 459.57 176.706 458.438 177.773C457.305 178.841 455.82 179.375 453.984 179.375C452.135 179.375 450.638 178.841 449.492 177.773C448.359 176.693 447.793 175.241 447.793 173.418V172.031ZM451.543 173.535C451.543 174.316 451.764 174.948 452.207 175.43C452.663 175.898 453.255 176.133 453.984 176.133C454.714 176.133 455.293 175.892 455.723 175.41C456.152 174.928 456.367 174.284 456.367 173.477V172.031C456.367 171.25 456.152 170.618 455.723 170.137C455.293 169.655 454.701 169.414 453.945 169.414C453.229 169.414 452.65 169.655 452.207 170.137C451.764 170.605 451.543 171.263 451.543 172.109V173.535ZM461.387 188.027C461.387 186.27 461.96 184.857 463.105 183.789C464.251 182.708 465.736 182.168 467.559 182.168C469.408 182.168 470.898 182.702 472.031 183.77C473.177 184.824 473.75 186.283 473.75 188.145V189.551C473.75 191.296 473.19 192.708 472.07 193.789C470.951 194.857 469.46 195.391 467.598 195.391C465.723 195.391 464.219 194.85 463.086 193.77C461.953 192.689 461.387 191.257 461.387 189.473V188.027ZM465.137 189.551C465.137 190.267 465.371 190.879 465.84 191.387C466.309 191.895 466.895 192.148 467.598 192.148C469.186 192.148 469.98 191.27 469.98 189.512V188.027C469.98 187.246 469.759 186.621 469.316 186.152C468.874 185.671 468.288 185.43 467.559 185.43C466.829 185.43 466.243 185.671 465.801 186.152C465.358 186.621 465.137 187.266 465.137 188.086V189.551ZM455.098 192.871L452.344 191.387L466.23 169.16L468.984 170.645L455.098 192.871Z" fill="#15A1FF"/>
<path d="M532.906 223.703C532.906 223.365 532.766 223.107 532.484 222.93C532.208 222.753 531.747 222.596 531.102 222.461C530.456 222.326 529.917 222.154 529.484 221.945C528.536 221.487 528.062 220.823 528.062 219.953C528.062 219.224 528.37 218.615 528.984 218.125C529.599 217.635 530.38 217.391 531.328 217.391C532.339 217.391 533.154 217.641 533.773 218.141C534.398 218.641 534.711 219.289 534.711 220.086H532.812C532.812 219.721 532.677 219.419 532.406 219.18C532.135 218.935 531.776 218.812 531.328 218.812C530.911 218.812 530.57 218.909 530.305 219.102C530.044 219.294 529.914 219.552 529.914 219.875C529.914 220.167 530.036 220.393 530.281 220.555C530.526 220.716 531.021 220.88 531.766 221.047C532.51 221.208 533.094 221.404 533.516 221.633C533.943 221.857 534.258 222.128 534.461 222.445C534.669 222.763 534.773 223.148 534.773 223.602C534.773 224.362 534.458 224.979 533.828 225.453C533.198 225.922 532.372 226.156 531.352 226.156C530.659 226.156 530.042 226.031 529.5 225.781C528.958 225.531 528.536 225.188 528.234 224.75C527.932 224.312 527.781 223.841 527.781 223.336H529.625C529.651 223.784 529.82 224.13 530.133 224.375C530.445 224.615 530.859 224.734 531.375 224.734C531.875 224.734 532.255 224.641 532.516 224.453C532.776 224.26 532.906 224.01 532.906 223.703ZM538.305 218.469C538.924 217.75 539.708 217.391 540.656 217.391C542.458 217.391 543.372 218.419 543.398 220.477V226H541.5V220.547C541.5 219.964 541.372 219.552 541.117 219.312C540.867 219.068 540.497 218.945 540.008 218.945C539.247 218.945 538.68 219.284 538.305 219.961V226H536.406V214H538.305V218.469ZM544.969 221.695C544.969 220.867 545.133 220.122 545.461 219.461C545.789 218.794 546.25 218.284 546.844 217.93C547.438 217.57 548.12 217.391 548.891 217.391C550.031 217.391 550.956 217.758 551.664 218.492C552.378 219.227 552.763 220.201 552.82 221.414L552.828 221.859C552.828 222.693 552.667 223.438 552.344 224.094C552.026 224.75 551.568 225.258 550.969 225.617C550.375 225.977 549.688 226.156 548.906 226.156C547.714 226.156 546.758 225.76 546.039 224.969C545.326 224.172 544.969 223.112 544.969 221.789V221.695ZM546.867 221.859C546.867 222.729 547.047 223.411 547.406 223.906C547.766 224.396 548.266 224.641 548.906 224.641C549.547 224.641 550.044 224.391 550.398 223.891C550.758 223.391 550.938 222.659 550.938 221.695C550.938 220.841 550.753 220.164 550.383 219.664C550.018 219.164 549.521 218.914 548.891 218.914C548.271 218.914 547.779 219.161 547.414 219.656C547.049 220.146 546.867 220.88 546.867 221.859ZM558.859 219.281C558.609 219.24 558.352 219.219 558.086 219.219C557.216 219.219 556.63 219.552 556.328 220.219V226H554.43V217.547H556.242L556.289 218.492C556.747 217.758 557.383 217.391 558.195 217.391C558.466 217.391 558.69 217.427 558.867 217.5L558.859 219.281ZM562.828 215.492V217.547H564.32V218.953H562.828V223.672C562.828 223.995 562.891 224.229 563.016 224.375C563.146 224.516 563.375 224.586 563.703 224.586C563.922 224.586 564.143 224.56 564.367 224.508V225.977C563.935 226.096 563.518 226.156 563.117 226.156C561.659 226.156 560.93 225.352 560.93 223.742V218.953H559.539V217.547H560.93V215.492H562.828Z" fill="#F39C12"/>
<path d="M404.398 226H402.5V214H404.398V226ZM406.117 221.695C406.117 220.867 406.281 220.122 406.609 219.461C406.938 218.794 407.398 218.284 407.992 217.93C408.586 217.57 409.268 217.391 410.039 217.391C411.18 217.391 412.104 217.758 412.812 218.492C413.526 219.227 413.911 220.201 413.969 221.414L413.977 221.859C413.977 222.693 413.815 223.438 413.492 224.094C413.174 224.75 412.716 225.258 412.117 225.617C411.523 225.977 410.836 226.156 410.055 226.156C408.862 226.156 407.906 225.76 407.188 224.969C406.474 224.172 406.117 223.112 406.117 221.789V221.695ZM408.016 221.859C408.016 222.729 408.195 223.411 408.555 223.906C408.914 224.396 409.414 224.641 410.055 224.641C410.695 224.641 411.193 224.391 411.547 223.891C411.906 223.391 412.086 222.659 412.086 221.695C412.086 220.841 411.901 220.164 411.531 219.664C411.167 219.164 410.669 218.914 410.039 218.914C409.419 218.914 408.927 219.161 408.562 219.656C408.198 220.146 408.016 220.88 408.016 221.859ZM417.344 217.547L417.398 218.523C418.023 217.768 418.844 217.391 419.859 217.391C421.62 217.391 422.516 218.398 422.547 220.414V226H420.648V220.523C420.648 219.987 420.531 219.591 420.297 219.336C420.068 219.076 419.69 218.945 419.164 218.945C418.398 218.945 417.828 219.292 417.453 219.984V226H415.555V217.547H417.344ZM424.156 221.711C424.156 220.398 424.464 219.352 425.078 218.57C425.698 217.784 426.518 217.391 427.539 217.391C428.503 217.391 429.26 217.727 429.812 218.398L429.898 217.547H431.609V225.742C431.609 226.852 431.263 227.727 430.57 228.367C429.883 229.008 428.953 229.328 427.781 229.328C427.161 229.328 426.555 229.198 425.961 228.938C425.372 228.682 424.924 228.346 424.617 227.93L425.516 226.789C426.099 227.482 426.818 227.828 427.672 227.828C428.302 227.828 428.799 227.656 429.164 227.312C429.529 226.974 429.711 226.474 429.711 225.812V225.242C429.164 225.852 428.435 226.156 427.523 226.156C426.534 226.156 425.724 225.763 425.094 224.977C424.469 224.19 424.156 223.102 424.156 221.711ZM426.047 221.875C426.047 222.724 426.219 223.393 426.562 223.883C426.911 224.367 427.393 224.609 428.008 224.609C428.773 224.609 429.341 224.281 429.711 223.625V219.906C429.352 219.266 428.789 218.945 428.023 218.945C427.398 218.945 426.911 219.193 426.562 219.688C426.219 220.182 426.047 220.911 426.047 221.875Z" fill="#15A1FF"/>
<path d="M412.852 94H409.912V82.1543H404.219V94H401.289V79.7812H412.852V94ZM424.756 88.8145C424.756 90.4421 424.385 91.7474 423.643 92.7305C422.907 93.707 421.911 94.1953 420.654 94.1953C419.587 94.1953 418.724 93.8242 418.066 93.082V98.0625H415.244V83.4336H417.861L417.959 84.4688C418.643 83.6484 419.535 83.2383 420.635 83.2383C421.937 83.2383 422.949 83.7201 423.672 84.6836C424.395 85.6471 424.756 86.9753 424.756 88.668V88.8145ZM421.934 88.6094C421.934 87.6263 421.758 86.8678 421.406 86.334C421.061 85.8001 420.557 85.5332 419.893 85.5332C419.007 85.5332 418.398 85.8717 418.066 86.5488V90.875C418.411 91.5716 419.027 91.9199 419.912 91.9199C421.26 91.9199 421.934 90.8164 421.934 88.6094ZM432.881 83.4336H435.703V94H432.881V87.4766L429.346 94H426.514V83.4336H429.346V89.9473L432.881 83.4336ZM443.105 84.0195C444.46 84.0195 445.54 84.4688 446.348 85.3672C447.155 86.2656 447.559 87.4863 447.559 89.0293V89.166C447.559 90.6895 447.109 91.9102 446.211 92.8281C445.312 93.7461 444.105 94.2051 442.588 94.2051C441.064 94.2051 439.85 93.7103 438.945 92.7207C438.047 91.7246 437.598 90.3737 437.598 88.668V88.1992C437.611 85.8229 438.011 83.9642 438.799 82.623C439.593 81.2754 440.785 80.4258 442.373 80.0742C443.206 79.8919 443.743 79.7129 443.984 79.5371C444.225 79.3548 444.346 79.1042 444.346 78.7852H446.631C446.631 79.8073 446.354 80.5755 445.801 81.0898C445.254 81.6042 444.277 82.0013 442.871 82.2812C442.038 82.4505 441.38 82.7793 440.898 83.2676C440.417 83.7559 440.091 84.4427 439.922 85.3281C440.82 84.4557 441.882 84.0195 443.105 84.0195ZM442.568 86.3047C441.898 86.3047 441.37 86.5293 440.986 86.9785C440.609 87.4277 440.42 88.1569 440.42 89.166C440.42 90.0645 440.605 90.7513 440.977 91.2266C441.348 91.6953 441.885 91.9297 442.588 91.9297C443.271 91.9297 443.799 91.6986 444.17 91.2363C444.541 90.7741 444.73 90.0938 444.736 89.1953V88.9609C444.736 88.0951 444.544 87.4375 444.16 86.9883C443.783 86.5326 443.252 86.3047 442.568 86.3047ZM452.266 86.5293H454.287C455.199 86.5293 455.999 86.6823 456.689 86.9883C457.38 87.2943 457.907 87.7337 458.271 88.3066C458.643 88.873 458.828 89.5339 458.828 90.2891C458.828 91.4023 458.415 92.3008 457.588 92.9844C456.768 93.6615 455.648 94 454.229 94H449.434V83.4336H452.266V86.5293ZM463.32 94H460.498V83.4336H463.32V94ZM452.266 88.7949V91.7441H454.268C454.827 91.7441 455.257 91.6139 455.557 91.3535C455.856 91.0931 456.006 90.7383 456.006 90.2891C456.006 89.8333 455.859 89.472 455.566 89.2051C455.273 88.9316 454.84 88.7949 454.268 88.7949H452.266ZM475 83.4336V94H472.178V85.7188H469.688L469.512 88.9805C469.401 90.7188 469.059 91.985 468.486 92.7793C467.913 93.5736 467.061 93.9805 465.928 94H464.971L464.941 91.7051L465.293 91.6758C465.801 91.6367 466.172 91.3372 466.406 90.7773C466.641 90.2174 466.787 89.2637 466.846 87.916L467.041 83.4336H475ZM480.195 86.5293H482.217C483.128 86.5293 483.929 86.6823 484.619 86.9883C485.309 87.2943 485.837 87.7337 486.201 88.3066C486.572 88.873 486.758 89.5339 486.758 90.2891C486.758 91.4023 486.344 92.3008 485.518 92.9844C484.697 93.6615 483.577 94 482.158 94H477.363V83.4336H480.195V86.5293ZM480.195 88.7949V91.7441H482.197C482.757 91.7441 483.187 91.6139 483.486 91.3535C483.786 91.0931 483.936 90.7383 483.936 90.2891C483.936 89.8333 483.789 89.472 483.496 89.2051C483.203 88.9316 482.77 88.7949 482.197 88.7949H480.195ZM497.51 94H494.678V89.9375H491.172V94H488.35V83.4336H491.172V87.6719H494.678V83.4336H497.51V94ZM502.715 86.5293H504.736C505.648 86.5293 506.449 86.6823 507.139 86.9883C507.829 87.2943 508.356 87.7337 508.721 88.3066C509.092 88.873 509.277 89.5339 509.277 90.2891C509.277 91.4023 508.864 92.3008 508.037 92.9844C507.217 93.6615 506.097 94 504.678 94H499.883V83.4336H502.715V86.5293ZM513.77 94H510.947V83.4336H513.77V94ZM502.715 88.7949V91.7441H504.717C505.277 91.7441 505.706 91.6139 506.006 91.3535C506.305 91.0931 506.455 90.7383 506.455 90.2891C506.455 89.8333 506.309 89.472 506.016 89.2051C505.723 88.9316 505.29 88.7949 504.717 88.7949H502.715ZM521.123 94.1953C519.574 94.1953 518.311 93.7201 517.334 92.7695C516.364 91.819 515.879 90.5527 515.879 88.9707V88.6973C515.879 87.6361 516.084 86.6888 516.494 85.8555C516.904 85.0156 517.484 84.3711 518.232 83.9219C518.988 83.4661 519.847 83.2383 520.811 83.2383C522.256 83.2383 523.392 83.694 524.219 84.6055C525.052 85.5169 525.469 86.8092 525.469 88.4824V89.6348H518.74C518.831 90.3249 519.105 90.8783 519.561 91.2949C520.023 91.7116 520.605 91.9199 521.309 91.9199C522.396 91.9199 523.245 91.526 523.857 90.7383L525.244 92.291C524.821 92.89 524.248 93.3587 523.525 93.6973C522.803 94.0293 522.002 94.1953 521.123 94.1953ZM520.801 85.5234C520.241 85.5234 519.785 85.7122 519.434 86.0898C519.089 86.4674 518.867 87.0078 518.77 87.7109H522.695V87.4863C522.682 86.8613 522.513 86.3796 522.188 86.041C521.862 85.696 521.4 85.5234 520.801 85.5234ZM405.479 117.92C405.999 117.92 406.423 117.777 406.748 117.49C407.074 117.204 407.243 116.823 407.256 116.348H409.902C409.896 117.064 409.701 117.721 409.316 118.32C408.932 118.913 408.405 119.375 407.734 119.707C407.07 120.033 406.335 120.195 405.527 120.195C404.017 120.195 402.826 119.717 401.953 118.76C401.081 117.796 400.645 116.468 400.645 114.775V114.59C400.645 112.962 401.077 111.663 401.943 110.693C402.809 109.723 403.997 109.238 405.508 109.238C406.829 109.238 407.887 109.616 408.682 110.371C409.482 111.12 409.889 112.119 409.902 113.369H407.256C407.243 112.822 407.074 112.38 406.748 112.041C406.423 111.696 405.993 111.523 405.459 111.523C404.801 111.523 404.303 111.764 403.965 112.246C403.633 112.721 403.467 113.496 403.467 114.57V114.863C403.467 115.951 403.633 116.732 403.965 117.207C404.297 117.682 404.801 117.92 405.479 117.92ZM411.66 117.725C412.298 117.048 412.731 116.377 412.959 115.713C413.187 115.049 413.314 114.108 413.34 112.891L413.418 109.434H421.191V117.725H422.715V123.174H419.893V120H413.633V123.174H410.752V117.725H411.66ZM414.99 117.725H418.379V111.768H416.182L416.162 113.037C416.104 114.977 415.713 116.54 414.99 117.725ZM429.014 120.195C427.464 120.195 426.201 119.72 425.225 118.77C424.255 117.819 423.77 116.553 423.77 114.971V114.697C423.77 113.636 423.975 112.689 424.385 111.855C424.795 111.016 425.374 110.371 426.123 109.922C426.878 109.466 427.738 109.238 428.701 109.238C430.146 109.238 431.283 109.694 432.109 110.605C432.943 111.517 433.359 112.809 433.359 114.482V115.635H426.631C426.722 116.325 426.995 116.878 427.451 117.295C427.913 117.712 428.496 117.92 429.199 117.92C430.286 117.92 431.136 117.526 431.748 116.738L433.135 118.291C432.712 118.89 432.139 119.359 431.416 119.697C430.693 120.029 429.893 120.195 429.014 120.195ZM428.691 111.523C428.132 111.523 427.676 111.712 427.324 112.09C426.979 112.467 426.758 113.008 426.66 113.711H430.586V113.486C430.573 112.861 430.404 112.38 430.078 112.041C429.753 111.696 429.29 111.523 428.691 111.523ZM444.16 109.434V120H441.338V111.719H438.848L438.672 114.98C438.561 116.719 438.219 117.985 437.646 118.779C437.074 119.574 436.221 119.98 435.088 120H434.131L434.102 117.705L434.453 117.676C434.961 117.637 435.332 117.337 435.566 116.777C435.801 116.217 435.947 115.264 436.006 113.916L436.201 109.434H444.16ZM450.479 116.104H449.346V120H446.523V109.434H449.346V113.408H450.352L452.656 109.434H456.221L452.764 114.463L456.543 120H452.783L450.479 116.104ZM463.975 109.434H466.797V120H463.975V113.477L460.439 120H457.607V109.434H460.439V115.947L463.975 109.434ZM469.092 118.613C469.092 118.164 469.242 117.799 469.541 117.52C469.847 117.24 470.228 117.1 470.684 117.1C471.146 117.1 471.527 117.24 471.826 117.52C472.132 117.799 472.285 118.164 472.285 118.613C472.285 119.056 472.135 119.417 471.836 119.697C471.536 119.971 471.152 120.107 470.684 120.107C470.221 120.107 469.84 119.971 469.541 119.697C469.242 119.417 469.092 119.056 469.092 118.613ZM469.092 110.615C469.092 110.166 469.242 109.801 469.541 109.521C469.847 109.242 470.228 109.102 470.684 109.102C471.146 109.102 471.527 109.242 471.826 109.521C472.132 109.801 472.285 110.166 472.285 110.615C472.285 111.058 472.135 111.419 471.836 111.699C471.536 111.973 471.152 112.109 470.684 112.109C470.221 112.109 469.84 111.973 469.541 111.699C469.242 111.419 469.092 111.058 469.092 110.615Z" fill="black"/>
</svg>
