<svg width="603" height="315" fill="none" xmlns="http://www.w3.org/2000/svg"><mask id="a" maskUnits="userSpaceOnUse" x="0" y="0" width="315" height="315"><circle cx="157.5" cy="157.5" r="147.5" stroke="#000" stroke-width="20"/></mask><g mask="url(#a)"><circle opacity=".2" cx="157.5" cy="157.5" r="147.5" stroke="#A5A5A5" stroke-width="20"/><path d="M157.5-8.277h223.816V349.83L21.724 324.052 302 369.5 157.5 170.776V-8.277z" fill="#15A1FF"/><path d="M268.5 312L378 77.5l-8.408 268.605L10 320.328l97.5 46.172 38.276-199.447L268.5 312z" fill="#F39C12"/></g><path d="M140.246 115.27v4.648h-.547c-2.552.039-4.609.703-6.172 1.992-1.549 1.289-2.48 3.08-2.793 5.371 1.511-1.536 3.418-2.304 5.723-2.304 2.474 0 4.44.885 5.898 2.656 1.459 1.771 2.188 4.101 2.188 6.992 0 1.849-.404 3.522-1.211 5.02a8.539 8.539 0 01-3.398 3.496c-1.459.833-3.112 1.25-4.961 1.25-2.995 0-5.417-1.042-7.266-3.125-1.836-2.084-2.754-4.864-2.754-8.34v-2.031c0-3.086.58-5.808 1.738-8.165 1.172-2.369 2.845-4.199 5.02-5.488 2.187-1.302 4.72-1.959 7.598-1.972h.937zm-5.508 14.238c-.911 0-1.738.241-2.48.722a4.241 4.241 0 00-1.641 1.875v1.719c0 1.888.371 3.366 1.113 4.434.743 1.054 1.784 1.582 3.125 1.582 1.211 0 2.188-.475 2.93-1.426.755-.963 1.133-2.207 1.133-3.73 0-1.55-.378-2.8-1.133-3.75-.755-.951-1.771-1.426-3.047-1.426zm32.305 2.734c0 3.932-.814 6.94-2.441 9.024-1.628 2.083-4.011 3.125-7.149 3.125-3.099 0-5.469-1.023-7.109-3.067-1.641-2.044-2.481-4.974-2.52-8.789v-5.234c0-3.972.821-6.986 2.461-9.043 1.654-2.057 4.03-3.086 7.129-3.086 3.099 0 5.469 1.022 7.109 3.066 1.641 2.032 2.481 4.955 2.52 8.77v5.234zm-5.645-5.742c0-2.357-.325-4.069-.976-5.137-.638-1.08-1.641-1.621-3.008-1.621-1.328 0-2.311.515-2.949 1.543-.625 1.016-.957 2.611-.996 4.785v6.914c0 2.318.312 4.043.937 5.176.638 1.12 1.654 1.68 3.047 1.68 1.38 0 2.376-.541 2.988-1.621.612-1.081.931-2.735.957-4.961V126.5zm9.395-5.469c0-1.745.566-3.157 1.699-4.238 1.133-1.094 2.617-1.641 4.453-1.641 1.862 0 3.36.541 4.493 1.621 1.132 1.068 1.699 2.52 1.699 4.356v1.406c0 1.758-.567 3.171-1.699 4.238-1.133 1.068-2.618 1.602-4.454 1.602-1.849 0-3.346-.534-4.492-1.602-1.133-1.08-1.699-2.532-1.699-4.355v-1.387zm3.75 1.504c0 .781.221 1.413.664 1.895.456.468 1.048.703 1.777.703.73 0 1.309-.241 1.739-.723.429-.482.644-1.126.644-1.933v-1.446c0-.781-.215-1.413-.644-1.894-.43-.482-1.022-.723-1.778-.723-.716 0-1.295.241-1.738.723-.443.468-.664 1.126-.664 1.972v1.426zm9.844 14.492c0-1.757.573-3.17 1.718-4.238 1.146-1.081 2.631-1.621 4.454-1.621 1.849 0 3.339.534 4.472 1.602 1.146 1.054 1.719 2.513 1.719 4.375v1.406c0 1.745-.56 3.157-1.68 4.238-1.119 1.068-2.61 1.602-4.472 1.602-1.875 0-3.379-.541-4.512-1.621-1.133-1.081-1.699-2.513-1.699-4.297v-1.446zm3.75 1.524c0 .716.234 1.328.703 1.836s1.055.761 1.758.761c1.588 0 2.382-.878 2.382-2.636v-1.485c0-.781-.221-1.406-.664-1.875-.442-.481-1.028-.722-1.757-.722-.73 0-1.316.241-1.758.722-.443.469-.664 1.114-.664 1.934v1.465zm-10.039 3.32l-2.754-1.484 13.886-22.227 2.754 1.485-13.886 22.226zM117.867 183h-1.969v-9.781h-5.007V183h-1.969v-11.375h8.945V183zm9.61-4.141c0 1.308-.297 2.352-.891 3.133-.594.776-1.391 1.164-2.391 1.164-.927 0-1.669-.304-2.226-.914v4.008h-1.899v-11.703h1.75l.078.859c.558-.677 1.316-1.015 2.274-1.015 1.031 0 1.838.385 2.422 1.156.588.765.883 1.831.883 3.195v.117zm-1.891-.164c0-.843-.169-1.513-.508-2.007-.333-.495-.812-.743-1.437-.743-.776 0-1.334.321-1.672.961v3.75c.343.656.906.985 1.687.985.604 0 1.076-.243 1.414-.727.344-.49.516-1.229.516-2.219zm8.781-4.148h1.891V183h-1.891v-5.641L131.055 183h-1.891v-8.453h1.891v5.641l3.312-5.641zm7.891.469c1.062 0 1.914.356 2.554 1.07.641.708.961 1.672.961 2.891v.093c0 1.219-.349 2.206-1.046 2.961-.693.755-1.636 1.133-2.829 1.133-1.161 0-2.099-.385-2.812-1.156-.714-.771-1.07-1.823-1.07-3.156v-.547c0-1.823.323-3.266.968-4.328.646-1.063 1.61-1.727 2.891-1.993.719-.145 1.182-.299 1.391-.461a.807.807 0 00.32-.671h1.531c0 .526-.086.953-.258 1.281a2.018 2.018 0 01-.789.805c-.354.203-.963.395-1.828.578-.791.166-1.396.463-1.812.89-.412.427-.688 1.018-.828 1.774.755-.776 1.64-1.164 2.656-1.164zm-.375 1.523c-.615 0-1.097.208-1.445.625-.349.412-.524 1.047-.524 1.906 0 .813.172 1.446.516 1.899.343.453.833.679 1.468.679.631 0 1.118-.226 1.461-.679.349-.459.524-1.146.524-2.063 0-.729-.175-1.304-.524-1.726-.343-.427-.836-.641-1.476-.641zm7.422.695h1.859c.693 0 1.297.12 1.813.36.515.239.906.575 1.171 1.008.271.432.407.934.407 1.507 0 .87-.308 1.568-.922 2.094-.615.526-1.432.792-2.453.797h-3.774v-8.453h1.899v2.687zm8.554 5.766h-1.898v-8.453h1.898V183zm-8.554-4.242v2.726h1.851c.464 0 .828-.114 1.094-.343.271-.235.406-.565.406-.993 0-.427-.133-.763-.398-1.007-.261-.25-.615-.378-1.063-.383h-1.89zm18.015-4.211V183h-1.898v-6.922h-2.391l-.156 2.945c-.099 1.417-.372 2.435-.82 3.055-.443.615-1.123.922-2.039.922h-.586l-.008-1.578.39-.039c.417-.057.719-.31.907-.758.192-.453.315-1.276.367-2.469l.156-3.609h6.078zm4.063 2.687h1.859c.693 0 1.297.12 1.813.36.515.239.906.575 1.172 1.008.27.432.406.934.406 1.507 0 .87-.307 1.568-.922 2.094-.615.526-1.432.792-2.453.797h-3.774v-8.453h1.899v2.687zm0 1.524v2.726h1.851c.464 0 .828-.114 1.094-.343.271-.235.406-.565.406-.993 0-.427-.132-.763-.398-1.007-.26-.25-.615-.378-1.063-.383h-1.89zM185.312 183h-1.898v-3.414h-3.289V183h-1.898v-8.453h1.898v3.523h3.289v-3.523h1.898V183zm4.071-5.766h1.859c.693 0 1.297.12 1.813.36.515.239.906.575 1.172 1.008.27.432.406.934.406 1.507 0 .87-.307 1.568-.922 2.094-.615.526-1.432.792-2.453.797h-3.774v-8.453h1.899v2.687zm8.555 5.766h-1.899v-8.453h1.899V183zm-8.555-4.242v2.726h1.851c.464 0 .828-.114 1.094-.343.271-.235.406-.565.406-.993 0-.427-.132-.763-.398-1.007-.26-.25-.615-.378-1.063-.383h-1.89zm13.867-1.43l1.609-2.781h2.11l-2.586 4.164 2.672 4.289h-2.094l-1.688-2.891-1.679 2.891h-2.11l2.672-4.289-2.578-4.164h2.094l1.578 2.781zm-68.336 25.313c.474 0 .867-.138 1.18-.414.312-.276.479-.618.5-1.024h1.789a2.816 2.816 0 01-.492 1.477 3.25 3.25 0 01-1.25 1.078 3.733 3.733 0 01-1.703.398c-1.183 0-2.12-.383-2.813-1.148-.693-.766-1.039-1.823-1.039-3.172v-.195c0-1.287.344-2.315 1.031-3.086.688-.776 1.625-1.164 2.813-1.164 1.005 0 1.823.294 2.453.882.635.584.969 1.352 1 2.305h-1.789c-.021-.484-.188-.883-.5-1.195-.308-.313-.701-.469-1.18-.469-.615 0-1.088.224-1.422.672-.333.443-.502 1.117-.508 2.023v.305c0 .917.164 1.602.493 2.055.333.448.812.672 1.437.672zm4.938-.157c.526-.588.877-1.145 1.054-1.672.183-.531.292-1.208.328-2.031l.11-3.234h5.867v6.937h1.172v4.032h-1.891V204h-5.422v2.516h-1.922l.008-4.032h.696zm2.226 0h3.242v-5.304h-2.132l-.055 1.617c-.073 1.552-.425 2.781-1.055 3.687zm11.383 1.672c-1.203 0-2.18-.377-2.93-1.133-.745-.76-1.117-1.77-1.117-3.031v-.234c0-.844.162-1.597.484-2.258.329-.667.787-1.185 1.375-1.555a3.633 3.633 0 011.969-.554c1.151 0 2.039.367 2.664 1.101.63.735.946 1.774.946 3.117v.766h-5.524c.057.698.289 1.25.695 1.656.412.407.928.61 1.547.61.87 0 1.578-.352 2.125-1.055l1.024.976a3.436 3.436 0 01-1.36 1.18c-.562.276-1.195.414-1.898.414zm-.227-7.242c-.52 0-.942.182-1.265.547-.318.365-.521.872-.61 1.523h3.618v-.14c-.042-.636-.211-1.115-.508-1.438-.297-.328-.709-.492-1.235-.492zm12.282-1.367V204h-1.899v-6.922h-2.39l-.157 2.945c-.099 1.417-.372 2.435-.82 3.055-.443.615-1.122.922-2.039.922h-.586l-.008-1.578.391-.039c.416-.057.719-.31.906-.758.193-.453.315-1.276.367-2.469l.157-3.609h6.078zm1.664 4.148c0-.828.164-1.573.492-2.234.328-.667.789-1.177 1.383-1.531.593-.36 1.276-.539 2.047-.539 1.14 0 2.065.367 2.773 1.101.714.735 1.099 1.709 1.156 2.922l.008.445c0 .834-.161 1.579-.484 2.235a3.519 3.519 0 01-1.375 1.523c-.594.36-1.282.539-2.063.539-1.193 0-2.148-.396-2.867-1.187-.714-.797-1.07-1.857-1.07-3.18v-.094zm1.898.164c0 .87.18 1.552.539 2.047.36.49.86.735 1.5.735.641 0 1.138-.25 1.492-.75.36-.5.539-1.232.539-2.196 0-.854-.184-1.531-.554-2.031-.365-.5-.862-.75-1.492-.75-.62 0-1.112.247-1.477.742-.365.49-.547 1.224-.547 2.203zm10.57.797h-.96V204h-1.899v-8.453h1.899v3.375h.835l2.336-3.375h2.344l-3.055 4.047 3.313 4.406h-2.469l-2.344-3.344z" fill="#15A1FF"/><path d="M534.676 178.281h3.008c1.432 0 2.493-.358 3.183-1.074.69-.716 1.035-1.667 1.035-2.852 0-1.145-.345-2.037-1.035-2.675-.677-.638-1.614-.957-2.812-.957-1.081 0-1.986.299-2.715.898-.729.586-1.094 1.354-1.094 2.305h-5.644c0-1.485.397-2.813 1.191-3.985.807-1.184 1.927-2.109 3.359-2.773 1.446-.664 3.034-.996 4.766-.996 3.008 0 5.365.723 7.07 2.168 1.706 1.432 2.559 3.411 2.559 5.937 0 1.302-.397 2.5-1.192 3.594-.794 1.094-1.835 1.934-3.125 2.52 1.602.573 2.793 1.432 3.575 2.578.794 1.146 1.191 2.5 1.191 4.062 0 2.526-.924 4.551-2.773 6.074-1.836 1.524-4.271 2.286-7.305 2.286-2.839 0-5.163-.749-6.973-2.246-1.797-1.498-2.695-3.477-2.695-5.938h5.645c0 1.068.397 1.94 1.191 2.617.807.677 1.797 1.016 2.969 1.016 1.341 0 2.389-.352 3.144-1.055.768-.716 1.153-1.66 1.153-2.832 0-2.838-1.563-4.258-4.688-4.258h-2.988v-4.414zm36.367 4.961c0 3.932-.814 6.94-2.441 9.024-1.628 2.083-4.011 3.125-7.149 3.125-3.099 0-5.469-1.023-7.109-3.067-1.641-2.044-2.481-4.974-2.52-8.789v-5.234c0-3.972.821-6.986 2.461-9.043 1.654-2.057 4.03-3.086 7.129-3.086 3.099 0 5.469 1.022 7.109 3.066 1.641 2.032 2.481 4.955 2.52 8.77v5.234zm-5.645-5.742c0-2.357-.325-4.069-.976-5.137-.638-1.08-1.641-1.621-3.008-1.621-1.328 0-2.311.515-2.949 1.543-.625 1.016-.957 2.611-.996 4.785v6.914c0 2.318.312 4.043.937 5.176.638 1.12 1.654 1.68 3.047 1.68 1.38 0 2.376-.541 2.988-1.621.612-1.081.931-2.735.957-4.961V177.5zm9.395-5.469c0-1.745.566-3.157 1.699-4.238 1.133-1.094 2.617-1.641 4.453-1.641 1.862 0 3.36.541 4.493 1.621 1.132 1.068 1.699 2.52 1.699 4.356v1.406c0 1.758-.567 3.171-1.699 4.238-1.133 1.068-2.618 1.602-4.454 1.602-1.849 0-3.346-.534-4.492-1.602-1.133-1.08-1.699-2.532-1.699-4.355v-1.387zm3.75 1.504c0 .781.221 1.413.664 1.895.456.468 1.048.703 1.777.703.73 0 1.309-.241 1.739-.723.429-.482.644-1.126.644-1.933v-1.446c0-.781-.215-1.413-.644-1.894-.43-.482-1.022-.723-1.778-.723-.716 0-1.295.241-1.738.723-.443.468-.664 1.126-.664 1.972v1.426zm9.844 14.492c0-1.757.573-3.17 1.718-4.238 1.146-1.081 2.631-1.621 4.454-1.621 1.849 0 3.339.534 4.472 1.602 1.146 1.054 1.719 2.513 1.719 4.375v1.406c0 1.745-.56 3.157-1.68 4.238-1.119 1.068-2.61 1.602-4.472 1.602-1.875 0-3.379-.541-4.512-1.621-1.133-1.081-1.699-2.513-1.699-4.297v-1.446zm3.75 1.524c0 .716.234 1.328.703 1.836s1.055.761 1.758.761c1.588 0 2.382-.878 2.382-2.636v-1.485c0-.781-.221-1.406-.664-1.875-.442-.481-1.028-.722-1.757-.722-.73 0-1.316.241-1.758.722-.443.469-.664 1.114-.664 1.934v1.465zm-10.039 3.32l-2.754-1.484 13.886-22.227 2.754 1.485-13.886 22.226z" fill="#F39C12"/><path d="M421.27 169.727L410.273 195h-5.957l11.016-23.867h-14.141v-4.571h20.079v3.165zm22.773 13.515c0 3.932-.814 6.94-2.441 9.024-1.628 2.083-4.011 3.125-7.149 3.125-3.099 0-5.469-1.023-7.109-3.067-1.641-2.044-2.481-4.974-2.52-8.789v-5.234c0-3.972.821-6.986 2.461-9.043 1.654-2.057 4.03-3.086 7.129-3.086 3.099 0 5.469 1.022 7.109 3.066 1.641 2.032 2.481 4.955 2.52 8.77v5.234zm-5.645-5.742c0-2.357-.325-4.069-.976-5.137-.638-1.08-1.641-1.621-3.008-1.621-1.328 0-2.311.515-2.949 1.543-.625 1.016-.957 2.611-.996 4.785v6.914c0 2.318.312 4.043.937 5.176.638 1.12 1.654 1.68 3.047 1.68 1.38 0 2.376-.541 2.988-1.621.612-1.081.931-2.735.957-4.961V177.5zm9.395-5.469c0-1.745.566-3.157 1.699-4.238 1.133-1.094 2.617-1.641 4.453-1.641 1.862 0 3.36.541 4.493 1.621 1.132 1.068 1.699 2.52 1.699 4.356v1.406c0 1.758-.567 3.171-1.699 4.238-1.133 1.068-2.618 1.602-4.454 1.602-1.849 0-3.346-.534-4.492-1.602-1.133-1.08-1.699-2.532-1.699-4.355v-1.387zm3.75 1.504c0 .781.221 1.413.664 1.895.456.468 1.048.703 1.777.703.73 0 1.309-.241 1.739-.723.429-.482.644-1.126.644-1.933v-1.446c0-.781-.215-1.413-.644-1.894-.43-.482-1.022-.723-1.778-.723-.716 0-1.295.241-1.738.723-.443.468-.664 1.126-.664 1.972v1.426zm9.844 14.492c0-1.757.573-3.17 1.718-4.238 1.146-1.081 2.631-1.621 4.454-1.621 1.849 0 3.339.534 4.472 1.602 1.146 1.054 1.719 2.513 1.719 4.375v1.406c0 1.745-.56 3.157-1.68 4.238-1.119 1.068-2.61 1.602-4.472 1.602-1.875 0-3.379-.541-4.512-1.621-1.133-1.081-1.699-2.513-1.699-4.297v-1.446zm3.75 1.524c0 .716.234 1.328.703 1.836s1.055.761 1.758.761c1.588 0 2.382-.878 2.382-2.636v-1.485c0-.781-.221-1.406-.664-1.875-.442-.481-1.028-.722-1.757-.722-.73 0-1.316.241-1.758.722-.443.469-.664 1.114-.664 1.934v1.465zm-10.039 3.32l-2.754-1.484 13.886-22.227 2.754 1.485-13.886 22.226z" fill="#15A1FF"/><path d="M532.906 223.703a.857.857 0 00-.422-.773c-.276-.177-.737-.334-1.382-.469-.646-.135-1.185-.307-1.618-.516-.948-.458-1.422-1.122-1.422-1.992 0-.729.308-1.338.922-1.828.615-.49 1.396-.734 2.344-.734 1.011 0 1.826.25 2.445.75.625.5.938 1.148.938 1.945h-1.899c0-.365-.135-.667-.406-.906-.271-.245-.63-.368-1.078-.368-.417 0-.758.097-1.023.29a.911.911 0 00-.391.773.77.77 0 00.367.68c.245.161.74.325 1.485.492.744.161 1.328.357 1.75.586.427.224.742.495.945.812.208.318.312.703.312 1.157 0 .76-.315 1.377-.945 1.851-.63.469-1.456.703-2.476.703-.693 0-1.31-.125-1.852-.375s-.964-.593-1.266-1.031a2.443 2.443 0 01-.453-1.414h1.844c.026.448.195.794.508 1.039.312.24.726.359 1.242.359.5 0 .88-.093 1.141-.281a.894.894 0 00.39-.75zm5.399-5.234c.619-.719 1.403-1.078 2.351-1.078 1.802 0 2.716 1.028 2.742 3.086V226H541.5v-5.453c0-.583-.128-.995-.383-1.235-.25-.244-.62-.367-1.109-.367-.761 0-1.328.339-1.703 1.016V226h-1.899v-12h1.899v4.469zm6.664 3.226c0-.828.164-1.573.492-2.234.328-.667.789-1.177 1.383-1.531.594-.36 1.276-.539 2.047-.539 1.14 0 2.065.367 2.773 1.101.714.735 1.099 1.709 1.156 2.922l.008.445c0 .834-.161 1.579-.484 2.235a3.519 3.519 0 01-1.375 1.523c-.594.36-1.281.539-2.063.539-1.192 0-2.148-.396-2.867-1.187-.713-.797-1.07-1.857-1.07-3.18v-.094zm1.898.164c0 .87.18 1.552.539 2.047.36.49.86.735 1.5.735.641 0 1.138-.25 1.492-.75.36-.5.54-1.232.54-2.196 0-.854-.185-1.531-.555-2.031-.365-.5-.862-.75-1.492-.75-.62 0-1.112.247-1.477.742-.365.49-.547 1.224-.547 2.203zm11.992-2.578a4.763 4.763 0 00-.773-.062c-.87 0-1.456.333-1.758 1V226h-1.898v-8.453h1.812l.047.945c.458-.734 1.094-1.101 1.906-1.101.271 0 .495.036.672.109l-.008 1.781zm3.969-3.789v2.055h1.492v1.406h-1.492v4.719c0 .323.063.557.188.703.13.141.359.211.687.211.219 0 .44-.026.664-.078v1.469a4.704 4.704 0 01-1.25.179c-1.458 0-2.187-.804-2.187-2.414v-4.789h-1.391v-1.406h1.391v-2.055h1.898z" fill="#F39C12"/><path d="M404.398 226H402.5v-12h1.898v12zm1.719-4.305c0-.828.164-1.573.492-2.234.329-.667.789-1.177 1.383-1.531.594-.36 1.276-.539 2.047-.539 1.141 0 2.065.367 2.773 1.101.714.735 1.099 1.709 1.157 2.922l.008.445c0 .834-.162 1.579-.485 2.235a3.519 3.519 0 01-1.375 1.523c-.594.36-1.281.539-2.062.539-1.193 0-2.149-.396-2.867-1.187-.714-.797-1.071-1.857-1.071-3.18v-.094zm1.899.164c0 .87.179 1.552.539 2.047.359.49.859.735 1.5.735.64 0 1.138-.25 1.492-.75.359-.5.539-1.232.539-2.196 0-.854-.185-1.531-.555-2.031-.364-.5-.862-.75-1.492-.75-.62 0-1.112.247-1.477.742-.364.49-.546 1.224-.546 2.203zm9.328-4.312l.054.976c.625-.755 1.446-1.132 2.461-1.132 1.761 0 2.657 1.007 2.688 3.023V226h-1.899v-5.477c0-.536-.117-.932-.351-1.187-.229-.26-.607-.391-1.133-.391-.766 0-1.336.347-1.711 1.039V226h-1.898v-8.453h1.789zm6.812 4.164c0-1.313.308-2.359.922-3.141.62-.786 1.44-1.179 2.461-1.179.964 0 1.721.336 2.273 1.007l.086-.851h1.711v8.195c0 1.11-.346 1.985-1.039 2.625-.687.641-1.617.961-2.789.961-.62 0-1.226-.13-1.82-.39-.589-.256-1.037-.592-1.344-1.008l.899-1.141c.583.693 1.302 1.039 2.156 1.039.63 0 1.127-.172 1.492-.516.365-.338.547-.838.547-1.5v-.57c-.547.61-1.276.914-2.188.914-.989 0-1.799-.393-2.429-1.179-.625-.787-.938-1.875-.938-3.266zm1.891.164c0 .849.172 1.518.515 2.008.349.484.831.726 1.446.726.765 0 1.333-.328 1.703-.984v-3.719c-.359-.64-.922-.961-1.688-.961-.625 0-1.112.248-1.461.743-.343.494-.515 1.223-.515 2.187z" fill="#15A1FF"/><path d="M412.852 94h-2.94V82.154h-5.693V94h-2.93V79.781h11.563V94zm11.904-5.186c0 1.628-.371 2.933-1.113 3.917-.736.976-1.732 1.464-2.989 1.464-1.067 0-1.93-.37-2.588-1.113v4.98h-2.822V83.434h2.617l.098 1.035c.684-.82 1.576-1.23 2.676-1.23 1.302 0 2.314.481 3.037 1.445.723.963 1.084 2.291 1.084 3.984v.146zm-2.822-.205c0-.983-.176-1.741-.528-2.275-.345-.534-.849-.8-1.513-.8-.886 0-1.495.338-1.827 1.015v4.326c.345.697.961 1.045 1.846 1.045 1.348 0 2.022-1.104 2.022-3.31zm10.947-5.175h2.822V94h-2.822v-6.523L429.346 94h-2.832V83.434h2.832v6.513l3.535-6.513zm10.224.585c1.355 0 2.435.45 3.243 1.348.807.899 1.211 2.12 1.211 3.662v.137c0 1.523-.45 2.744-1.348 3.662-.899.918-2.106 1.377-3.623 1.377-1.524 0-2.738-.495-3.643-1.484-.898-.996-1.347-2.347-1.347-4.053v-.469c.013-2.376.413-4.235 1.201-5.576.794-1.348 1.986-2.197 3.574-2.549.833-.182 1.37-.361 1.611-.537a.891.891 0 00.362-.752h2.285c0 1.022-.277 1.79-.83 2.305-.547.514-1.524.911-2.93 1.191-.833.17-1.491.498-1.973.987-.481.488-.807 1.175-.976 2.06.898-.872 1.96-1.309 3.183-1.309zm-.537 2.286c-.67 0-1.198.224-1.582.673-.377.45-.566 1.179-.566 2.188 0 .898.185 1.585.557 2.06.371.47.908.704 1.611.704.683 0 1.211-.231 1.582-.694.371-.462.56-1.142.566-2.04v-.235c0-.866-.192-1.523-.576-1.973-.377-.455-.908-.683-1.592-.683zm9.698.224h2.021c.912 0 1.712.153 2.402.46.691.305 1.218.745 1.582 1.318.372.566.557 1.227.557 1.982 0 1.113-.413 2.012-1.24 2.695-.82.678-1.94 1.016-3.359 1.016h-4.795V83.434h2.832v3.095zM463.32 94h-2.822V83.434h2.822V94zm-11.054-5.205v2.95h2.002c.559 0 .989-.131 1.289-.392.299-.26.449-.615.449-1.064 0-.456-.147-.817-.44-1.084-.293-.273-.726-.41-1.298-.41h-2.002zM475 83.434V94h-2.822v-8.281h-2.49l-.176 3.262c-.111 1.738-.453 3.004-1.026 3.798-.573.795-1.425 1.202-2.558 1.221h-.957l-.03-2.295.352-.03c.508-.038.879-.338 1.113-.898.235-.56.381-1.513.44-2.861l.195-4.482H475zm5.195 3.095h2.022c.911 0 1.712.153 2.402.46.69.305 1.218.745 1.582 1.318.371.566.557 1.227.557 1.982 0 1.113-.414 2.012-1.24 2.695-.821.678-1.941 1.016-3.36 1.016h-4.795V83.434h2.832v3.095zm0 2.266v2.95h2.002c.56 0 .99-.131 1.289-.392.3-.26.45-.615.45-1.064 0-.456-.147-.817-.44-1.084-.293-.273-.726-.41-1.299-.41h-2.002zM497.51 94h-2.832v-4.063h-3.506V94h-2.822V83.434h2.822v4.238h3.506v-4.238h2.832V94zm5.205-7.47h2.021c.912 0 1.713.152 2.403.458.69.306 1.217.746 1.582 1.319.371.566.556 1.227.556 1.982 0 1.113-.413 2.012-1.24 2.695-.82.678-1.94 1.016-3.359 1.016h-4.795V83.434h2.832v3.095zM513.77 94h-2.823V83.434h2.823V94zm-11.055-5.205v2.95h2.002c.56 0 .989-.131 1.289-.392.299-.26.449-.615.449-1.064 0-.456-.146-.817-.439-1.084-.293-.273-.726-.41-1.299-.41h-2.002zm18.408 5.4c-1.549 0-2.812-.475-3.789-1.425-.97-.951-1.455-2.217-1.455-3.8v-.273c0-1.06.205-2.008.615-2.841.41-.84.99-1.485 1.738-1.934.756-.456 1.615-.684 2.579-.684 1.445 0 2.581.456 3.408 1.368.833.91 1.25 2.203 1.25 3.876v1.153h-6.729c.091.69.365 1.243.821 1.66.462.417 1.044.625 1.748.625 1.087 0 1.936-.394 2.548-1.182l1.387 1.553c-.423.599-.996 1.068-1.719 1.406-.722.332-1.523.498-2.402.498zm-.322-8.672c-.56 0-1.016.19-1.367.567-.345.377-.567.918-.664 1.62h3.925v-.224c-.013-.625-.182-1.106-.507-1.445-.326-.345-.788-.518-1.387-.518zM405.479 117.92c.52 0 .944-.143 1.269-.43.326-.286.495-.667.508-1.142h2.646a3.631 3.631 0 01-.586 1.972 3.9 3.9 0 01-1.582 1.387c-.664.326-1.399.488-2.207.488-1.51 0-2.701-.478-3.574-1.435-.872-.964-1.308-2.292-1.308-3.985v-.185c0-1.628.432-2.927 1.298-3.897.866-.97 2.054-1.455 3.565-1.455 1.321 0 2.379.378 3.174 1.133.8.749 1.207 1.748 1.22 2.998h-2.646c-.013-.547-.182-.989-.508-1.328-.325-.345-.755-.518-1.289-.518-.658 0-1.156.241-1.494.723-.332.475-.498 1.25-.498 2.324v.293c0 1.088.166 1.869.498 2.344.332.475.836.713 1.514.713zm6.181-.195c.638-.677 1.071-1.348 1.299-2.012.228-.664.355-1.605.381-2.822l.078-3.457h7.773v8.291h1.524v5.449h-2.822V120h-6.26v3.174h-2.881v-5.449h.908zm3.33 0h3.389v-5.957h-2.197l-.02 1.269c-.058 1.94-.449 3.503-1.172 4.688zm14.024 2.47c-1.55 0-2.813-.475-3.789-1.425-.97-.951-1.455-2.217-1.455-3.799v-.274c0-1.061.205-2.008.615-2.842.41-.839.989-1.484 1.738-1.933.755-.456 1.615-.684 2.578-.684 1.445 0 2.582.456 3.408 1.367.834.912 1.25 2.204 1.25 3.877v1.153h-6.728c.091.69.364 1.243.82 1.66.462.417 1.045.625 1.748.625 1.087 0 1.937-.394 2.549-1.182l1.387 1.553c-.423.599-.996 1.068-1.719 1.406-.723.332-1.523.498-2.402.498zm-.323-8.672c-.559 0-1.015.189-1.367.567-.345.377-.566.918-.664 1.621h3.926v-.225c-.013-.625-.182-1.106-.508-1.445-.325-.345-.788-.518-1.387-.518zm15.469-2.089V120h-2.822v-8.281h-2.49l-.176 3.261c-.111 1.739-.453 3.005-1.026 3.799-.572.795-1.425 1.201-2.558 1.221h-.957l-.029-2.295.351-.029c.508-.039.879-.339 1.113-.899.235-.56.381-1.513.44-2.861l.195-4.482h7.959zm6.319 6.67h-1.133V120h-2.823v-10.566h2.823v3.974h1.006l2.304-3.974h3.565l-3.457 5.029 3.779 5.537h-3.76l-2.304-3.896zm13.496-6.67h2.822V120h-2.822v-6.523L460.439 120h-2.832v-10.566h2.832v6.513l3.536-6.513zm5.117 9.179c0-.449.15-.814.449-1.093.306-.28.687-.42 1.143-.42.462 0 .843.14 1.142.42.306.279.459.644.459 1.093 0 .443-.15.804-.449 1.084-.3.274-.684.41-1.152.41-.463 0-.844-.136-1.143-.41-.299-.28-.449-.641-.449-1.084zm0-7.998c0-.449.15-.814.449-1.094.306-.279.687-.419 1.143-.419.462 0 .843.14 1.142.419.306.28.459.645.459 1.094 0 .443-.15.804-.449 1.084-.3.274-.684.41-1.152.41-.463 0-.844-.136-1.143-.41-.299-.28-.449-.641-.449-1.084z" fill="#000"/></svg>