<svg width="587" height="358" viewBox="0 0 587 358" fill="none" xmlns="http://www.w3.org/2000/svg">
<g opacity="0.5">
<line x1="569.318" y1="25.4854" x2="31.9822" y2="25.4853" stroke="#8C8C8C" stroke-width="0.5" stroke-dasharray="3 3"/>
<line x1="569.318" y1="50.1912" x2="31.9822" y2="50.1911" stroke="#8C8C8C" stroke-width="0.5" stroke-dasharray="3 3"/>
<line x1="569.318" y1="77.3677" x2="31.9822" y2="77.3676" stroke="#8C8C8C" stroke-width="0.5" stroke-dasharray="3 3"/>
<line x1="569.318" y1="104.544" x2="31.9822" y2="104.544" stroke="#8C8C8C" stroke-width="0.5" stroke-dasharray="3 3"/>
<line x1="569.336" y1="131.72" x2="31.0002" y2="131.72" stroke="#8C8C8C" stroke-width="0.5" stroke-dasharray="3 3"/>
<line x1="569.336" y1="158.897" x2="31.0002" y2="158.897" stroke="#8C8C8C" stroke-width="0.5" stroke-dasharray="3 3"/>
<line x1="569.318" y1="186.073" x2="31.9822" y2="186.073" stroke="#8C8C8C" stroke-width="0.5" stroke-dasharray="3 3"/>
<line x1="569.318" y1="213.25" x2="31.9822" y2="213.25" stroke="#8C8C8C" stroke-width="0.5" stroke-dasharray="3 3"/>
<line x1="569.318" y1="240.427" x2="31.9822" y2="240.426" stroke="#8C8C8C" stroke-width="0.5" stroke-dasharray="3 3"/>
<line x1="569.318" y1="267.603" x2="32.9645" y2="267.603" stroke="#8C8C8C" stroke-width="0.5" stroke-dasharray="3 3"/>
</g>
<line opacity="0.5" x1="75.9375" y1="282.177" x2="75.9375" y2="25.2354" stroke="#8C8C8C" stroke-width="0.5" stroke-dasharray="3 3"/>
<line opacity="0.5" x1="125.054" y1="282.177" x2="125.054" y2="25.2354" stroke="#8C8C8C" stroke-width="0.5" stroke-dasharray="3 3"/>
<line opacity="0.5" x1="164.347" y1="282.177" x2="164.347" y2="25.2354" stroke="#8C8C8C" stroke-width="0.5" stroke-dasharray="3 3"/>
<line opacity="0.5" x1="218.375" y1="282.177" x2="218.375" y2="25.2354" stroke="#8C8C8C" stroke-width="0.5" stroke-dasharray="3 3"/>
<line opacity="0.5" x1="256.687" y1="282.177" x2="256.687" y2="25.2354" stroke="#8C8C8C" stroke-width="0.5" stroke-dasharray="3 3"/>
<line opacity="0.5" x1="309.732" y1="282.177" x2="309.732" y2="25.2354" stroke="#8C8C8C" stroke-width="0.5" stroke-dasharray="3 3"/>
<line opacity="0.5" x1="348.043" y1="282.177" x2="348.043" y2="25.2354" stroke="#8C8C8C" stroke-width="0.5" stroke-dasharray="3 3"/>
<line opacity="0.5" x1="399.125" y1="282.177" x2="399.125" y2="25.2354" stroke="#8C8C8C" stroke-width="0.5" stroke-dasharray="3 3"/>
<line opacity="0.5" x1="437.436" y1="282.177" x2="437.436" y2="25.2354" stroke="#8C8C8C" stroke-width="0.5" stroke-dasharray="3 3"/>
<line opacity="0.5" x1="490.481" y1="282.177" x2="490.481" y2="25.2354" stroke="#8C8C8C" stroke-width="0.5" stroke-dasharray="3 3"/>
<line opacity="0.5" x1="529.775" y1="282.177" x2="529.775" y2="25.2354" stroke="#8C8C8C" stroke-width="0.5" stroke-dasharray="3 3"/>
<line opacity="0.5" x1="569.068" y1="282.177" x2="569.068" y2="25.2354" stroke="#8C8C8C" stroke-width="0.5" stroke-dasharray="3 3"/>
<line opacity="0.5" x1="587" y1="282.25" x2="32" y2="282.25" stroke="#8C8C8C" stroke-width="0.5"/>
<line opacity="0.5" x1="31.75" y1="282" x2="31.75" y2="3" stroke="#8C8C8C" stroke-width="0.5"/>
<rect y="67" width="31" height="18" rx="9" fill="#15A1FF"/>
<rect y="96" width="31" height="18" rx="9" fill="#F39C12"/>
<path d="M5.00586 23.4355L5.36719 19.8906H9.00977V20.7256H6.13379L5.91895 22.6641C6.26725 22.459 6.66276 22.3564 7.10547 22.3564C7.75326 22.3564 8.26758 22.5713 8.64844 23.001C9.0293 23.4274 9.21973 24.0052 9.21973 24.7344C9.21973 25.4668 9.02116 26.0446 8.62402 26.4678C8.23014 26.8877 7.67839 27.0977 6.96875 27.0977C6.34049 27.0977 5.8278 26.9235 5.43066 26.5752C5.03353 26.2269 4.80729 25.7451 4.75195 25.1299H5.60645C5.66178 25.5368 5.80664 25.8444 6.04102 26.0527C6.27539 26.2578 6.58464 26.3604 6.96875 26.3604C7.38867 26.3604 7.71745 26.2171 7.95508 25.9307C8.19596 25.6442 8.31641 25.2487 8.31641 24.7441C8.31641 24.2689 8.1862 23.888 7.92578 23.6016C7.66862 23.3118 7.3252 23.167 6.89551 23.167C6.50163 23.167 6.19238 23.2533 5.96777 23.4258L5.72852 23.6211L5.00586 23.4355ZM13.251 19.8857V20.6523H13.085C12.3818 20.6654 11.8219 20.8737 11.4053 21.2773C10.9886 21.681 10.7477 22.249 10.6826 22.9814C11.057 22.5518 11.568 22.3369 12.2158 22.3369C12.8343 22.3369 13.3275 22.555 13.6953 22.9912C14.0664 23.4274 14.252 23.9906 14.252 24.6807C14.252 25.4131 14.0518 25.999 13.6514 26.4385C13.2542 26.8779 12.7204 27.0977 12.0498 27.0977C11.3695 27.0977 10.8177 26.8372 10.3945 26.3164C9.97135 25.7923 9.75977 25.1185 9.75977 24.2949V23.9482C9.75977 22.6396 10.0381 21.6403 10.5947 20.9502C11.1546 20.2568 11.9863 19.902 13.0898 19.8857H13.251ZM12.0645 23.0889C11.7552 23.0889 11.4704 23.1816 11.21 23.3672C10.9495 23.5527 10.7689 23.7855 10.668 24.0654V24.3975C10.668 24.9834 10.7998 25.4554 11.0635 25.8135C11.3271 26.1715 11.6559 26.3506 12.0498 26.3506C12.4567 26.3506 12.7757 26.2008 13.0068 25.9014C13.2412 25.6019 13.3584 25.2096 13.3584 24.7246C13.3584 24.2363 13.2396 23.8424 13.002 23.543C12.7676 23.2402 12.4551 23.0889 12.0645 23.0889ZM14.9336 26.5264C14.9336 26.3701 14.9792 26.2399 15.0703 26.1357C15.1647 26.0316 15.3047 25.9795 15.4902 25.9795C15.6758 25.9795 15.8158 26.0316 15.9102 26.1357C16.0078 26.2399 16.0566 26.3701 16.0566 26.5264C16.0566 26.6761 16.0078 26.8014 15.9102 26.9023C15.8158 27.0033 15.6758 27.0537 15.4902 27.0537C15.3047 27.0537 15.1647 27.0033 15.0703 26.9023C14.9792 26.8014 14.9336 26.6761 14.9336 26.5264ZM21.416 23.9678C21.416 25.0257 21.2354 25.8118 20.874 26.3262C20.5127 26.8405 19.9479 27.0977 19.1797 27.0977C18.4212 27.0977 17.8597 26.847 17.4951 26.3457C17.1305 25.8411 16.9417 25.0892 16.9287 24.0898V22.8838C16.9287 21.8389 17.1094 21.0625 17.4707 20.5547C17.832 20.0469 18.3984 19.793 19.1699 19.793C19.9349 19.793 20.498 20.0387 20.8594 20.5303C21.2207 21.0186 21.4062 21.7738 21.416 22.7959V23.9678ZM20.5127 22.7324C20.5127 21.9674 20.4053 21.4108 20.1904 21.0625C19.9756 20.7109 19.6354 20.5352 19.1699 20.5352C18.7077 20.5352 18.3708 20.7093 18.1592 21.0576C17.9476 21.4059 17.8385 21.9414 17.832 22.6641V24.1094C17.832 24.8776 17.9427 25.4456 18.1641 25.8135C18.3887 26.1781 18.7272 26.3604 19.1797 26.3604C19.6257 26.3604 19.9561 26.1878 20.1709 25.8428C20.389 25.4977 20.5029 24.9541 20.5127 24.2119V22.7324ZM26.5312 23.9678C26.5312 25.0257 26.3506 25.8118 25.9893 26.3262C25.6279 26.8405 25.0632 27.0977 24.2949 27.0977C23.5365 27.0977 22.9749 26.847 22.6104 26.3457C22.2458 25.8411 22.057 25.0892 22.0439 24.0898V22.8838C22.0439 21.8389 22.2246 21.0625 22.5859 20.5547C22.9473 20.0469 23.5137 19.793 24.2852 19.793C25.0501 19.793 25.6133 20.0387 25.9746 20.5303C26.3359 21.0186 26.5215 21.7738 26.5312 22.7959V23.9678ZM25.6279 22.7324C25.6279 21.9674 25.5205 21.4108 25.3057 21.0625C25.0908 20.7109 24.7507 20.5352 24.2852 20.5352C23.8229 20.5352 23.486 20.7093 23.2744 21.0576C23.0628 21.4059 22.9538 21.9414 22.9473 22.6641V24.1094C22.9473 24.8776 23.0579 25.4456 23.2793 25.8135C23.5039 26.1781 23.8424 26.3604 24.2949 26.3604C24.7409 26.3604 25.0713 26.1878 25.2861 25.8428C25.5042 25.4977 25.6182 24.9541 25.6279 24.2119V22.7324Z" fill="#8C8C8C"/>
<path d="M5.00586 50.4355L5.36719 46.8906H9.00977V47.7256H6.13379L5.91895 49.6641C6.26725 49.459 6.66276 49.3564 7.10547 49.3564C7.75326 49.3564 8.26758 49.5713 8.64844 50.001C9.0293 50.4274 9.21973 51.0052 9.21973 51.7344C9.21973 52.4668 9.02116 53.0446 8.62402 53.4678C8.23014 53.8877 7.67839 54.0977 6.96875 54.0977C6.34049 54.0977 5.8278 53.9235 5.43066 53.5752C5.03353 53.2269 4.80729 52.7451 4.75195 52.1299H5.60645C5.66178 52.5368 5.80664 52.8444 6.04102 53.0527C6.27539 53.2578 6.58464 53.3604 6.96875 53.3604C7.38867 53.3604 7.71745 53.2171 7.95508 52.9307C8.19596 52.6442 8.31641 52.2487 8.31641 51.7441C8.31641 51.2689 8.1862 50.888 7.92578 50.6016C7.66862 50.3118 7.3252 50.167 6.89551 50.167C6.50163 50.167 6.19238 50.2533 5.96777 50.4258L5.72852 50.6211L5.00586 50.4355ZM14.3643 54H9.70605V53.3506L12.167 50.6162C12.5316 50.2028 12.7822 49.8675 12.9189 49.6104C13.0589 49.3499 13.1289 49.0814 13.1289 48.8047C13.1289 48.4336 13.0166 48.1292 12.792 47.8916C12.5674 47.654 12.2679 47.5352 11.8936 47.5352C11.4443 47.5352 11.0944 47.6637 10.8438 47.9209C10.5964 48.1748 10.4727 48.5296 10.4727 48.9854H9.56934C9.56934 48.3311 9.7793 47.8021 10.1992 47.3984C10.6224 46.9948 11.1872 46.793 11.8936 46.793C12.5544 46.793 13.0768 46.9671 13.4609 47.3154C13.8451 47.6605 14.0371 48.1211 14.0371 48.6973C14.0371 49.3971 13.5911 50.2305 12.6992 51.1973L10.7949 53.2627H14.3643V54ZM14.9336 53.5264C14.9336 53.3701 14.9792 53.2399 15.0703 53.1357C15.1647 53.0316 15.3047 52.9795 15.4902 52.9795C15.6758 52.9795 15.8158 53.0316 15.9102 53.1357C16.0078 53.2399 16.0566 53.3701 16.0566 53.5264C16.0566 53.6761 16.0078 53.8014 15.9102 53.9023C15.8158 54.0033 15.6758 54.0537 15.4902 54.0537C15.3047 54.0537 15.1647 54.0033 15.0703 53.9023C14.9792 53.8014 14.9336 53.6761 14.9336 53.5264ZM21.416 50.9678C21.416 52.0257 21.2354 52.8118 20.874 53.3262C20.5127 53.8405 19.9479 54.0977 19.1797 54.0977C18.4212 54.0977 17.8597 53.847 17.4951 53.3457C17.1305 52.8411 16.9417 52.0892 16.9287 51.0898V49.8838C16.9287 48.8389 17.1094 48.0625 17.4707 47.5547C17.832 47.0469 18.3984 46.793 19.1699 46.793C19.9349 46.793 20.498 47.0387 20.8594 47.5303C21.2207 48.0186 21.4062 48.7738 21.416 49.7959V50.9678ZM20.5127 49.7324C20.5127 48.9674 20.4053 48.4108 20.1904 48.0625C19.9756 47.7109 19.6354 47.5352 19.1699 47.5352C18.7077 47.5352 18.3708 47.7093 18.1592 48.0576C17.9476 48.4059 17.8385 48.9414 17.832 49.6641V51.1094C17.832 51.8776 17.9427 52.4456 18.1641 52.8135C18.3887 53.1781 18.7272 53.3604 19.1797 53.3604C19.6257 53.3604 19.9561 53.1878 20.1709 52.8428C20.389 52.4977 20.5029 51.9541 20.5127 51.2119V49.7324ZM26.5312 50.9678C26.5312 52.0257 26.3506 52.8118 25.9893 53.3262C25.6279 53.8405 25.0632 54.0977 24.2949 54.0977C23.5365 54.0977 22.9749 53.847 22.6104 53.3457C22.2458 52.8411 22.057 52.0892 22.0439 51.0898V49.8838C22.0439 48.8389 22.2246 48.0625 22.5859 47.5547C22.9473 47.0469 23.5137 46.793 24.2852 46.793C25.0501 46.793 25.6133 47.0387 25.9746 47.5303C26.3359 48.0186 26.5215 48.7738 26.5312 49.7959V50.9678ZM25.6279 49.7324C25.6279 48.9674 25.5205 48.4108 25.3057 48.0625C25.0908 47.7109 24.7507 47.5352 24.2852 47.5352C23.8229 47.5352 23.486 47.7093 23.2744 48.0576C23.0628 48.4059 22.9538 48.9414 22.9473 49.6641V51.1094C22.9473 51.8776 23.0579 52.4456 23.2793 52.8135C23.5039 53.1781 23.8424 53.3604 24.2949 53.3604C24.7409 53.3604 25.0713 53.1878 25.2861 52.8428C25.5042 52.4977 25.6182 51.9541 25.6279 51.2119V49.7324Z" fill="#8C8C8C"/>
<path d="M8.4043 76.6123H9.39062V77.3496H8.4043V79H7.49609V77.3496H4.25879V76.8174L7.44238 71.8906H8.4043V76.6123ZM5.28418 76.6123H7.49609V73.126L7.38867 73.3213L5.28418 76.6123ZM14.0176 73.7461C14.0176 74.1009 13.9232 74.4167 13.7344 74.6934C13.5488 74.9701 13.2965 75.1865 12.9775 75.3428C13.3486 75.5023 13.6416 75.735 13.8564 76.041C14.0745 76.347 14.1836 76.6937 14.1836 77.0811C14.1836 77.6963 13.9753 78.1862 13.5586 78.5508C13.1452 78.9154 12.5999 79.0977 11.9229 79.0977C11.2393 79.0977 10.6908 78.9154 10.2773 78.5508C9.86719 78.1829 9.66211 77.693 9.66211 77.0811C9.66211 76.6969 9.76628 76.3503 9.97461 76.041C10.1862 75.7318 10.4775 75.4974 10.8486 75.3379C10.5329 75.1816 10.2839 74.9652 10.1016 74.6885C9.91927 74.4118 9.82812 74.0977 9.82812 73.7461C9.82812 73.1471 10.0202 72.6719 10.4043 72.3203C10.7884 71.9688 11.2946 71.793 11.9229 71.793C12.5479 71.793 13.0524 71.9688 13.4365 72.3203C13.8239 72.6719 14.0176 73.1471 14.0176 73.7461ZM13.2803 77.0615C13.2803 76.6644 13.1533 76.3405 12.8994 76.0898C12.6488 75.8392 12.32 75.7139 11.9131 75.7139C11.5062 75.7139 11.179 75.8376 10.9316 76.085C10.6875 76.3324 10.5654 76.6579 10.5654 77.0615C10.5654 77.4652 10.6842 77.7826 10.9219 78.0137C11.1628 78.2448 11.4964 78.3604 11.9229 78.3604C12.346 78.3604 12.6781 78.2448 12.9189 78.0137C13.1598 77.7793 13.2803 77.4619 13.2803 77.0615ZM11.9229 72.5352C11.568 72.5352 11.2799 72.6458 11.0586 72.8672C10.8405 73.0853 10.7314 73.3831 10.7314 73.7607C10.7314 74.1221 10.8389 74.415 11.0537 74.6396C11.2718 74.861 11.5615 74.9717 11.9229 74.9717C12.2842 74.9717 12.5723 74.861 12.7871 74.6396C13.0052 74.415 13.1143 74.1221 13.1143 73.7607C13.1143 73.3994 13.002 73.1048 12.7773 72.877C12.5527 72.6491 12.2679 72.5352 11.9229 72.5352ZM14.9336 78.5264C14.9336 78.3701 14.9792 78.2399 15.0703 78.1357C15.1647 78.0316 15.3047 77.9795 15.4902 77.9795C15.6758 77.9795 15.8158 78.0316 15.9102 78.1357C16.0078 78.2399 16.0566 78.3701 16.0566 78.5264C16.0566 78.6761 16.0078 78.8014 15.9102 78.9023C15.8158 79.0033 15.6758 79.0537 15.4902 79.0537C15.3047 79.0537 15.1647 79.0033 15.0703 78.9023C14.9792 78.8014 14.9336 78.6761 14.9336 78.5264ZM19.9268 79H19.0186V72.9795L17.1973 73.6484V72.8281L19.7852 71.8564H19.9268V79ZM26.6631 72.3984L23.7188 79H22.7715L25.7061 72.6328H21.8584V71.8906H26.6631V72.3984Z" fill="white"/>
<path d="M8.4043 105.612H9.39062V106.35H8.4043V108H7.49609V106.35H4.25879V105.817L7.44238 100.891H8.4043V105.612ZM5.28418 105.612H7.49609V102.126L7.38867 102.321L5.28418 105.612ZM11.0195 104.006H11.6982C12.1247 103.999 12.46 103.887 12.7041 103.669C12.9482 103.451 13.0703 103.156 13.0703 102.785C13.0703 101.952 12.6553 101.535 11.8252 101.535C11.4346 101.535 11.1221 101.647 10.8877 101.872C10.6566 102.093 10.541 102.388 10.541 102.756H9.6377C9.6377 102.193 9.84277 101.726 10.2529 101.354C10.6663 100.98 11.1904 100.793 11.8252 100.793C12.4958 100.793 13.0215 100.97 13.4023 101.325C13.7832 101.68 13.9736 102.173 13.9736 102.805C13.9736 103.114 13.8727 103.413 13.6709 103.703C13.4723 103.993 13.2005 104.209 12.8555 104.353C13.2461 104.476 13.5472 104.681 13.7588 104.968C13.9736 105.254 14.0811 105.604 14.0811 106.018C14.0811 106.656 13.8727 107.162 13.4561 107.536C13.0394 107.91 12.4974 108.098 11.8301 108.098C11.1628 108.098 10.6191 107.917 10.1992 107.556C9.78255 107.194 9.57422 106.717 9.57422 106.125H10.4824C10.4824 106.499 10.6045 106.799 10.8486 107.023C11.0928 107.248 11.4199 107.36 11.8301 107.36C12.2663 107.36 12.5999 107.246 12.8311 107.019C13.0622 106.791 13.1777 106.464 13.1777 106.037C13.1777 105.624 13.0508 105.306 12.7969 105.085C12.543 104.864 12.1768 104.75 11.6982 104.743H11.0195V104.006ZM14.9336 107.526C14.9336 107.37 14.9792 107.24 15.0703 107.136C15.1647 107.032 15.3047 106.979 15.4902 106.979C15.6758 106.979 15.8158 107.032 15.9102 107.136C16.0078 107.24 16.0566 107.37 16.0566 107.526C16.0566 107.676 16.0078 107.801 15.9102 107.902C15.8158 108.003 15.6758 108.054 15.4902 108.054C15.3047 108.054 15.1647 108.003 15.0703 107.902C14.9792 107.801 14.9336 107.676 14.9336 107.526ZM21.2695 102.746C21.2695 103.101 21.1751 103.417 20.9863 103.693C20.8008 103.97 20.5485 104.187 20.2295 104.343C20.6006 104.502 20.8936 104.735 21.1084 105.041C21.3265 105.347 21.4355 105.694 21.4355 106.081C21.4355 106.696 21.2272 107.186 20.8105 107.551C20.3971 107.915 19.8519 108.098 19.1748 108.098C18.4912 108.098 17.9427 107.915 17.5293 107.551C17.1191 107.183 16.9141 106.693 16.9141 106.081C16.9141 105.697 17.0182 105.35 17.2266 105.041C17.4382 104.732 17.7295 104.497 18.1006 104.338C17.7848 104.182 17.5358 103.965 17.3535 103.688C17.1712 103.412 17.0801 103.098 17.0801 102.746C17.0801 102.147 17.2721 101.672 17.6562 101.32C18.0404 100.969 18.5465 100.793 19.1748 100.793C19.7998 100.793 20.3044 100.969 20.6885 101.32C21.0758 101.672 21.2695 102.147 21.2695 102.746ZM20.5322 106.062C20.5322 105.664 20.4053 105.34 20.1514 105.09C19.9007 104.839 19.5719 104.714 19.165 104.714C18.7581 104.714 18.431 104.838 18.1836 105.085C17.9395 105.332 17.8174 105.658 17.8174 106.062C17.8174 106.465 17.9362 106.783 18.1738 107.014C18.4147 107.245 18.7484 107.36 19.1748 107.36C19.598 107.36 19.93 107.245 20.1709 107.014C20.4118 106.779 20.5322 106.462 20.5322 106.062ZM19.1748 101.535C18.82 101.535 18.5319 101.646 18.3105 101.867C18.0924 102.085 17.9834 102.383 17.9834 102.761C17.9834 103.122 18.0908 103.415 18.3057 103.64C18.5238 103.861 18.8135 103.972 19.1748 103.972C19.5361 103.972 19.8242 103.861 20.0391 103.64C20.2572 103.415 20.3662 103.122 20.3662 102.761C20.3662 102.399 20.2539 102.105 20.0293 101.877C19.8047 101.649 19.5199 101.535 19.1748 101.535ZM23.3867 104.006H24.0654C24.4919 103.999 24.8271 103.887 25.0713 103.669C25.3154 103.451 25.4375 103.156 25.4375 102.785C25.4375 101.952 25.0225 101.535 24.1924 101.535C23.8018 101.535 23.4893 101.647 23.2549 101.872C23.0238 102.093 22.9082 102.388 22.9082 102.756H22.0049C22.0049 102.193 22.21 101.726 22.6201 101.354C23.0335 100.98 23.5576 100.793 24.1924 100.793C24.863 100.793 25.3887 100.97 25.7695 101.325C26.1504 101.68 26.3408 102.173 26.3408 102.805C26.3408 103.114 26.2399 103.413 26.0381 103.703C25.8395 103.993 25.5677 104.209 25.2227 104.353C25.6133 104.476 25.9144 104.681 26.126 104.968C26.3408 105.254 26.4482 105.604 26.4482 106.018C26.4482 106.656 26.2399 107.162 25.8232 107.536C25.4066 107.91 24.8646 108.098 24.1973 108.098C23.5299 108.098 22.9863 107.917 22.5664 107.556C22.1497 107.194 21.9414 106.717 21.9414 106.125H22.8496C22.8496 106.499 22.9717 106.799 23.2158 107.023C23.46 107.248 23.7871 107.36 24.1973 107.36C24.6335 107.36 24.9671 107.246 25.1982 107.019C25.4294 106.791 25.5449 106.464 25.5449 106.037C25.5449 105.624 25.418 105.306 25.1641 105.085C24.9102 104.864 24.5439 104.75 24.0654 104.743H23.3867V104.006Z" fill="white"/>
<path d="M8.4043 132.612H9.39062V133.35H8.4043V135H7.49609V133.35H4.25879V132.817L7.44238 127.891H8.4043V132.612ZM5.28418 132.612H7.49609V129.126L7.38867 129.321L5.28418 132.612ZM14.1641 131.968C14.1641 133.026 13.9834 133.812 13.6221 134.326C13.2607 134.84 12.696 135.098 11.9277 135.098C11.1693 135.098 10.6077 134.847 10.2432 134.346C9.87858 133.841 9.68978 133.089 9.67676 132.09V130.884C9.67676 129.839 9.85742 129.062 10.2188 128.555C10.5801 128.047 11.1465 127.793 11.918 127.793C12.6829 127.793 13.2461 128.039 13.6074 128.53C13.9688 129.019 14.1543 129.774 14.1641 130.796V131.968ZM13.2607 130.732C13.2607 129.967 13.1533 129.411 12.9385 129.062C12.7236 128.711 12.3835 128.535 11.918 128.535C11.4557 128.535 11.1188 128.709 10.9072 129.058C10.6956 129.406 10.5866 129.941 10.5801 130.664V132.109C10.5801 132.878 10.6908 133.446 10.9121 133.813C11.1367 134.178 11.4753 134.36 11.9277 134.36C12.3737 134.36 12.7041 134.188 12.9189 133.843C13.137 133.498 13.251 132.954 13.2607 132.212V130.732ZM14.9336 134.526C14.9336 134.37 14.9792 134.24 15.0703 134.136C15.1647 134.032 15.3047 133.979 15.4902 133.979C15.6758 133.979 15.8158 134.032 15.9102 134.136C16.0078 134.24 16.0566 134.37 16.0566 134.526C16.0566 134.676 16.0078 134.801 15.9102 134.902C15.8158 135.003 15.6758 135.054 15.4902 135.054C15.3047 135.054 15.1647 135.003 15.0703 134.902C14.9792 134.801 14.9336 134.676 14.9336 134.526ZM21.416 131.968C21.416 133.026 21.2354 133.812 20.874 134.326C20.5127 134.84 19.9479 135.098 19.1797 135.098C18.4212 135.098 17.8597 134.847 17.4951 134.346C17.1305 133.841 16.9417 133.089 16.9287 132.09V130.884C16.9287 129.839 17.1094 129.062 17.4707 128.555C17.832 128.047 18.3984 127.793 19.1699 127.793C19.9349 127.793 20.498 128.039 20.8594 128.53C21.2207 129.019 21.4062 129.774 21.416 130.796V131.968ZM20.5127 130.732C20.5127 129.967 20.4053 129.411 20.1904 129.062C19.9756 128.711 19.6354 128.535 19.1699 128.535C18.7077 128.535 18.3708 128.709 18.1592 129.058C17.9476 129.406 17.8385 129.941 17.832 130.664V132.109C17.832 132.878 17.9427 133.446 18.1641 133.813C18.3887 134.178 18.7272 134.36 19.1797 134.36C19.6257 134.36 19.9561 134.188 20.1709 133.843C20.389 133.498 20.5029 132.954 20.5127 132.212V130.732ZM26.5312 131.968C26.5312 133.026 26.3506 133.812 25.9893 134.326C25.6279 134.84 25.0632 135.098 24.2949 135.098C23.5365 135.098 22.9749 134.847 22.6104 134.346C22.2458 133.841 22.057 133.089 22.0439 132.09V130.884C22.0439 129.839 22.2246 129.062 22.5859 128.555C22.9473 128.047 23.5137 127.793 24.2852 127.793C25.0501 127.793 25.6133 128.039 25.9746 128.53C26.3359 129.019 26.5215 129.774 26.5312 130.796V131.968ZM25.6279 130.732C25.6279 129.967 25.5205 129.411 25.3057 129.062C25.0908 128.711 24.7507 128.535 24.2852 128.535C23.8229 128.535 23.486 128.709 23.2744 129.058C23.0628 129.406 22.9538 129.941 22.9473 130.664V132.109C22.9473 132.878 23.0579 133.446 23.2793 133.813C23.5039 134.178 23.8424 134.36 24.2949 134.36C24.7409 134.36 25.0713 134.188 25.2861 133.843C25.5042 133.498 25.6182 132.954 25.6279 132.212V130.732Z" fill="#8C8C8C"/>
<path d="M5.9043 158.006H6.58301C7.00944 157.999 7.34473 157.887 7.58887 157.669C7.83301 157.451 7.95508 157.156 7.95508 156.785C7.95508 155.952 7.54004 155.535 6.70996 155.535C6.31934 155.535 6.00684 155.647 5.77246 155.872C5.54134 156.093 5.42578 156.388 5.42578 156.756H4.52246C4.52246 156.193 4.72754 155.726 5.1377 155.354C5.55111 154.98 6.0752 154.793 6.70996 154.793C7.38053 154.793 7.90625 154.97 8.28711 155.325C8.66797 155.68 8.8584 156.173 8.8584 156.805C8.8584 157.114 8.75749 157.413 8.55566 157.703C8.3571 157.993 8.08529 158.209 7.74023 158.353C8.13086 158.476 8.43197 158.681 8.64355 158.968C8.8584 159.254 8.96582 159.604 8.96582 160.018C8.96582 160.656 8.75749 161.162 8.34082 161.536C7.92415 161.91 7.38216 162.098 6.71484 162.098C6.04753 162.098 5.50391 161.917 5.08398 161.556C4.66732 161.194 4.45898 160.717 4.45898 160.125H5.36719C5.36719 160.499 5.48926 160.799 5.7334 161.023C5.97754 161.248 6.30469 161.36 6.71484 161.36C7.15104 161.36 7.4847 161.246 7.71582 161.019C7.94694 160.791 8.0625 160.464 8.0625 160.037C8.0625 159.624 7.93555 159.306 7.68164 159.085C7.42773 158.864 7.06152 158.75 6.58301 158.743H5.9043V158.006ZM13.251 154.886V155.652H13.085C12.3818 155.665 11.8219 155.874 11.4053 156.277C10.9886 156.681 10.7477 157.249 10.6826 157.981C11.057 157.552 11.568 157.337 12.2158 157.337C12.8343 157.337 13.3275 157.555 13.6953 157.991C14.0664 158.427 14.252 158.991 14.252 159.681C14.252 160.413 14.0518 160.999 13.6514 161.438C13.2542 161.878 12.7204 162.098 12.0498 162.098C11.3695 162.098 10.8177 161.837 10.3945 161.316C9.97135 160.792 9.75977 160.118 9.75977 159.295V158.948C9.75977 157.64 10.0381 156.64 10.5947 155.95C11.1546 155.257 11.9863 154.902 13.0898 154.886H13.251ZM12.0645 158.089C11.7552 158.089 11.4704 158.182 11.21 158.367C10.9495 158.553 10.7689 158.785 10.668 159.065V159.397C10.668 159.983 10.7998 160.455 11.0635 160.813C11.3271 161.172 11.6559 161.351 12.0498 161.351C12.4567 161.351 12.7757 161.201 13.0068 160.901C13.2412 160.602 13.3584 160.21 13.3584 159.725C13.3584 159.236 13.2396 158.842 13.002 158.543C12.7676 158.24 12.4551 158.089 12.0645 158.089ZM14.9336 161.526C14.9336 161.37 14.9792 161.24 15.0703 161.136C15.1647 161.032 15.3047 160.979 15.4902 160.979C15.6758 160.979 15.8158 161.032 15.9102 161.136C16.0078 161.24 16.0566 161.37 16.0566 161.526C16.0566 161.676 16.0078 161.801 15.9102 161.902C15.8158 162.003 15.6758 162.054 15.4902 162.054C15.3047 162.054 15.1647 162.003 15.0703 161.902C14.9792 161.801 14.9336 161.676 14.9336 161.526ZM21.416 158.968C21.416 160.026 21.2354 160.812 20.874 161.326C20.5127 161.84 19.9479 162.098 19.1797 162.098C18.4212 162.098 17.8597 161.847 17.4951 161.346C17.1305 160.841 16.9417 160.089 16.9287 159.09V157.884C16.9287 156.839 17.1094 156.062 17.4707 155.555C17.832 155.047 18.3984 154.793 19.1699 154.793C19.9349 154.793 20.498 155.039 20.8594 155.53C21.2207 156.019 21.4062 156.774 21.416 157.796V158.968ZM20.5127 157.732C20.5127 156.967 20.4053 156.411 20.1904 156.062C19.9756 155.711 19.6354 155.535 19.1699 155.535C18.7077 155.535 18.3708 155.709 18.1592 156.058C17.9476 156.406 17.8385 156.941 17.832 157.664V159.109C17.832 159.878 17.9427 160.446 18.1641 160.813C18.3887 161.178 18.7272 161.36 19.1797 161.36C19.6257 161.36 19.9561 161.188 20.1709 160.843C20.389 160.498 20.5029 159.954 20.5127 159.212V157.732ZM26.5312 158.968C26.5312 160.026 26.3506 160.812 25.9893 161.326C25.6279 161.84 25.0632 162.098 24.2949 162.098C23.5365 162.098 22.9749 161.847 22.6104 161.346C22.2458 160.841 22.057 160.089 22.0439 159.09V157.884C22.0439 156.839 22.2246 156.062 22.5859 155.555C22.9473 155.047 23.5137 154.793 24.2852 154.793C25.0501 154.793 25.6133 155.039 25.9746 155.53C26.3359 156.019 26.5215 156.774 26.5312 157.796V158.968ZM25.6279 157.732C25.6279 156.967 25.5205 156.411 25.3057 156.062C25.0908 155.711 24.7507 155.535 24.2852 155.535C23.8229 155.535 23.486 155.709 23.2744 156.058C23.0628 156.406 22.9538 156.941 22.9473 157.664V159.109C22.9473 159.878 23.0579 160.446 23.2793 160.813C23.5039 161.178 23.8424 161.36 24.2949 161.36C24.7409 161.36 25.0713 161.188 25.2861 160.843C25.5042 160.498 25.6182 159.954 25.6279 159.212V157.732Z" fill="#8C8C8C"/>
<path d="M5.9043 185.006H6.58301C7.00944 184.999 7.34473 184.887 7.58887 184.669C7.83301 184.451 7.95508 184.156 7.95508 183.785C7.95508 182.952 7.54004 182.535 6.70996 182.535C6.31934 182.535 6.00684 182.647 5.77246 182.872C5.54134 183.093 5.42578 183.388 5.42578 183.756H4.52246C4.52246 183.193 4.72754 182.726 5.1377 182.354C5.55111 181.98 6.0752 181.793 6.70996 181.793C7.38053 181.793 7.90625 181.97 8.28711 182.325C8.66797 182.68 8.8584 183.173 8.8584 183.805C8.8584 184.114 8.75749 184.413 8.55566 184.703C8.3571 184.993 8.08529 185.209 7.74023 185.353C8.13086 185.476 8.43197 185.681 8.64355 185.968C8.8584 186.254 8.96582 186.604 8.96582 187.018C8.96582 187.656 8.75749 188.162 8.34082 188.536C7.92415 188.91 7.38216 189.098 6.71484 189.098C6.04753 189.098 5.50391 188.917 5.08398 188.556C4.66732 188.194 4.45898 187.717 4.45898 187.125H5.36719C5.36719 187.499 5.48926 187.799 5.7334 188.023C5.97754 188.248 6.30469 188.36 6.71484 188.36C7.15104 188.36 7.4847 188.246 7.71582 188.019C7.94694 187.791 8.0625 187.464 8.0625 187.037C8.0625 186.624 7.93555 186.306 7.68164 186.085C7.42773 185.864 7.06152 185.75 6.58301 185.743H5.9043V185.006ZM14.3643 189H9.70605V188.351L12.167 185.616C12.5316 185.203 12.7822 184.868 12.9189 184.61C13.0589 184.35 13.1289 184.081 13.1289 183.805C13.1289 183.434 13.0166 183.129 12.792 182.892C12.5674 182.654 12.2679 182.535 11.8936 182.535C11.4443 182.535 11.0944 182.664 10.8438 182.921C10.5964 183.175 10.4727 183.53 10.4727 183.985H9.56934C9.56934 183.331 9.7793 182.802 10.1992 182.398C10.6224 181.995 11.1872 181.793 11.8936 181.793C12.5544 181.793 13.0768 181.967 13.4609 182.315C13.8451 182.66 14.0371 183.121 14.0371 183.697C14.0371 184.397 13.5911 185.23 12.6992 186.197L10.7949 188.263H14.3643V189ZM14.9336 188.526C14.9336 188.37 14.9792 188.24 15.0703 188.136C15.1647 188.032 15.3047 187.979 15.4902 187.979C15.6758 187.979 15.8158 188.032 15.9102 188.136C16.0078 188.24 16.0566 188.37 16.0566 188.526C16.0566 188.676 16.0078 188.801 15.9102 188.902C15.8158 189.003 15.6758 189.054 15.4902 189.054C15.3047 189.054 15.1647 189.003 15.0703 188.902C14.9792 188.801 14.9336 188.676 14.9336 188.526ZM21.416 185.968C21.416 187.026 21.2354 187.812 20.874 188.326C20.5127 188.84 19.9479 189.098 19.1797 189.098C18.4212 189.098 17.8597 188.847 17.4951 188.346C17.1305 187.841 16.9417 187.089 16.9287 186.09V184.884C16.9287 183.839 17.1094 183.062 17.4707 182.555C17.832 182.047 18.3984 181.793 19.1699 181.793C19.9349 181.793 20.498 182.039 20.8594 182.53C21.2207 183.019 21.4062 183.774 21.416 184.796V185.968ZM20.5127 184.732C20.5127 183.967 20.4053 183.411 20.1904 183.062C19.9756 182.711 19.6354 182.535 19.1699 182.535C18.7077 182.535 18.3708 182.709 18.1592 183.058C17.9476 183.406 17.8385 183.941 17.832 184.664V186.109C17.832 186.878 17.9427 187.446 18.1641 187.813C18.3887 188.178 18.7272 188.36 19.1797 188.36C19.6257 188.36 19.9561 188.188 20.1709 187.843C20.389 187.498 20.5029 186.954 20.5127 186.212V184.732ZM26.5312 185.968C26.5312 187.026 26.3506 187.812 25.9893 188.326C25.6279 188.84 25.0632 189.098 24.2949 189.098C23.5365 189.098 22.9749 188.847 22.6104 188.346C22.2458 187.841 22.057 187.089 22.0439 186.09V184.884C22.0439 183.839 22.2246 183.062 22.5859 182.555C22.9473 182.047 23.5137 181.793 24.2852 181.793C25.0501 181.793 25.6133 182.039 25.9746 182.53C26.3359 183.019 26.5215 183.774 26.5312 184.796V185.968ZM25.6279 184.732C25.6279 183.967 25.5205 183.411 25.3057 183.062C25.0908 182.711 24.7507 182.535 24.2852 182.535C23.8229 182.535 23.486 182.709 23.2744 183.058C23.0628 183.406 22.9538 183.941 22.9473 184.664V186.109C22.9473 186.878 23.0579 187.446 23.2793 187.813C23.5039 188.178 23.8424 188.36 24.2949 188.36C24.7409 188.36 25.0713 188.188 25.2861 187.843C25.5042 187.498 25.6182 186.954 25.6279 186.212V184.732Z" fill="#8C8C8C"/>
<path d="M9.24902 216H4.59082V215.351L7.05176 212.616C7.41634 212.203 7.66699 211.868 7.80371 211.61C7.94368 211.35 8.01367 211.081 8.01367 210.805C8.01367 210.434 7.90137 210.129 7.67676 209.892C7.45215 209.654 7.15267 209.535 6.77832 209.535C6.3291 209.535 5.97917 209.664 5.72852 209.921C5.48112 210.175 5.35742 210.53 5.35742 210.985H4.4541C4.4541 210.331 4.66406 209.802 5.08398 209.398C5.50716 208.995 6.07194 208.793 6.77832 208.793C7.43913 208.793 7.96159 208.967 8.3457 209.315C8.72982 209.66 8.92188 210.121 8.92188 210.697C8.92188 211.397 8.47591 212.23 7.58398 213.197L5.67969 215.263H9.24902V216ZM14.0176 210.746C14.0176 211.101 13.9232 211.417 13.7344 211.693C13.5488 211.97 13.2965 212.187 12.9775 212.343C13.3486 212.502 13.6416 212.735 13.8564 213.041C14.0745 213.347 14.1836 213.694 14.1836 214.081C14.1836 214.696 13.9753 215.186 13.5586 215.551C13.1452 215.915 12.5999 216.098 11.9229 216.098C11.2393 216.098 10.6908 215.915 10.2773 215.551C9.86719 215.183 9.66211 214.693 9.66211 214.081C9.66211 213.697 9.76628 213.35 9.97461 213.041C10.1862 212.732 10.4775 212.497 10.8486 212.338C10.5329 212.182 10.2839 211.965 10.1016 211.688C9.91927 211.412 9.82812 211.098 9.82812 210.746C9.82812 210.147 10.0202 209.672 10.4043 209.32C10.7884 208.969 11.2946 208.793 11.9229 208.793C12.5479 208.793 13.0524 208.969 13.4365 209.32C13.8239 209.672 14.0176 210.147 14.0176 210.746ZM13.2803 214.062C13.2803 213.664 13.1533 213.34 12.8994 213.09C12.6488 212.839 12.32 212.714 11.9131 212.714C11.5062 212.714 11.179 212.838 10.9316 213.085C10.6875 213.332 10.5654 213.658 10.5654 214.062C10.5654 214.465 10.6842 214.783 10.9219 215.014C11.1628 215.245 11.4964 215.36 11.9229 215.36C12.346 215.36 12.6781 215.245 12.9189 215.014C13.1598 214.779 13.2803 214.462 13.2803 214.062ZM11.9229 209.535C11.568 209.535 11.2799 209.646 11.0586 209.867C10.8405 210.085 10.7314 210.383 10.7314 210.761C10.7314 211.122 10.8389 211.415 11.0537 211.64C11.2718 211.861 11.5615 211.972 11.9229 211.972C12.2842 211.972 12.5723 211.861 12.7871 211.64C13.0052 211.415 13.1143 211.122 13.1143 210.761C13.1143 210.399 13.002 210.105 12.7773 209.877C12.5527 209.649 12.2679 209.535 11.9229 209.535ZM14.9336 215.526C14.9336 215.37 14.9792 215.24 15.0703 215.136C15.1647 215.032 15.3047 214.979 15.4902 214.979C15.6758 214.979 15.8158 215.032 15.9102 215.136C16.0078 215.24 16.0566 215.37 16.0566 215.526C16.0566 215.676 16.0078 215.801 15.9102 215.902C15.8158 216.003 15.6758 216.054 15.4902 216.054C15.3047 216.054 15.1647 216.003 15.0703 215.902C14.9792 215.801 14.9336 215.676 14.9336 215.526ZM21.416 212.968C21.416 214.026 21.2354 214.812 20.874 215.326C20.5127 215.84 19.9479 216.098 19.1797 216.098C18.4212 216.098 17.8597 215.847 17.4951 215.346C17.1305 214.841 16.9417 214.089 16.9287 213.09V211.884C16.9287 210.839 17.1094 210.062 17.4707 209.555C17.832 209.047 18.3984 208.793 19.1699 208.793C19.9349 208.793 20.498 209.039 20.8594 209.53C21.2207 210.019 21.4062 210.774 21.416 211.796V212.968ZM20.5127 211.732C20.5127 210.967 20.4053 210.411 20.1904 210.062C19.9756 209.711 19.6354 209.535 19.1699 209.535C18.7077 209.535 18.3708 209.709 18.1592 210.058C17.9476 210.406 17.8385 210.941 17.832 211.664V213.109C17.832 213.878 17.9427 214.446 18.1641 214.813C18.3887 215.178 18.7272 215.36 19.1797 215.36C19.6257 215.36 19.9561 215.188 20.1709 214.843C20.389 214.498 20.5029 213.954 20.5127 213.212V211.732ZM26.5312 212.968C26.5312 214.026 26.3506 214.812 25.9893 215.326C25.6279 215.84 25.0632 216.098 24.2949 216.098C23.5365 216.098 22.9749 215.847 22.6104 215.346C22.2458 214.841 22.057 214.089 22.0439 213.09V211.884C22.0439 210.839 22.2246 210.062 22.5859 209.555C22.9473 209.047 23.5137 208.793 24.2852 208.793C25.0501 208.793 25.6133 209.039 25.9746 209.53C26.3359 210.019 26.5215 210.774 26.5312 211.796V212.968ZM25.6279 211.732C25.6279 210.967 25.5205 210.411 25.3057 210.062C25.0908 209.711 24.7507 209.535 24.2852 209.535C23.8229 209.535 23.486 209.709 23.2744 210.058C23.0628 210.406 22.9538 210.941 22.9473 211.664V213.109C22.9473 213.878 23.0579 214.446 23.2793 214.813C23.5039 215.178 23.8424 215.36 24.2949 215.36C24.7409 215.36 25.0713 215.188 25.2861 214.843C25.5042 214.498 25.6182 213.954 25.6279 213.212V211.732Z" fill="#8C8C8C"/>
<path d="M9.24902 243H4.59082V242.351L7.05176 239.616C7.41634 239.203 7.66699 238.868 7.80371 238.61C7.94368 238.35 8.01367 238.081 8.01367 237.805C8.01367 237.434 7.90137 237.129 7.67676 236.892C7.45215 236.654 7.15267 236.535 6.77832 236.535C6.3291 236.535 5.97917 236.664 5.72852 236.921C5.48112 237.175 5.35742 237.53 5.35742 237.985H4.4541C4.4541 237.331 4.66406 236.802 5.08398 236.398C5.50716 235.995 6.07194 235.793 6.77832 235.793C7.43913 235.793 7.96159 235.967 8.3457 236.315C8.72982 236.66 8.92188 237.121 8.92188 237.697C8.92188 238.397 8.47591 239.23 7.58398 240.197L5.67969 242.263H9.24902V243ZM13.5195 240.612H14.5059V241.35H13.5195V243H12.6113V241.35H9.37402V240.817L12.5576 235.891H13.5195V240.612ZM10.3994 240.612H12.6113V237.126L12.5039 237.321L10.3994 240.612ZM14.9336 242.526C14.9336 242.37 14.9792 242.24 15.0703 242.136C15.1647 242.032 15.3047 241.979 15.4902 241.979C15.6758 241.979 15.8158 242.032 15.9102 242.136C16.0078 242.24 16.0566 242.37 16.0566 242.526C16.0566 242.676 16.0078 242.801 15.9102 242.902C15.8158 243.003 15.6758 243.054 15.4902 243.054C15.3047 243.054 15.1647 243.003 15.0703 242.902C14.9792 242.801 14.9336 242.676 14.9336 242.526ZM21.416 239.968C21.416 241.026 21.2354 241.812 20.874 242.326C20.5127 242.84 19.9479 243.098 19.1797 243.098C18.4212 243.098 17.8597 242.847 17.4951 242.346C17.1305 241.841 16.9417 241.089 16.9287 240.09V238.884C16.9287 237.839 17.1094 237.062 17.4707 236.555C17.832 236.047 18.3984 235.793 19.1699 235.793C19.9349 235.793 20.498 236.039 20.8594 236.53C21.2207 237.019 21.4062 237.774 21.416 238.796V239.968ZM20.5127 238.732C20.5127 237.967 20.4053 237.411 20.1904 237.062C19.9756 236.711 19.6354 236.535 19.1699 236.535C18.7077 236.535 18.3708 236.709 18.1592 237.058C17.9476 237.406 17.8385 237.941 17.832 238.664V240.109C17.832 240.878 17.9427 241.446 18.1641 241.813C18.3887 242.178 18.7272 242.36 19.1797 242.36C19.6257 242.36 19.9561 242.188 20.1709 241.843C20.389 241.498 20.5029 240.954 20.5127 240.212V238.732ZM26.5312 239.968C26.5312 241.026 26.3506 241.812 25.9893 242.326C25.6279 242.84 25.0632 243.098 24.2949 243.098C23.5365 243.098 22.9749 242.847 22.6104 242.346C22.2458 241.841 22.057 241.089 22.0439 240.09V238.884C22.0439 237.839 22.2246 237.062 22.5859 236.555C22.9473 236.047 23.5137 235.793 24.2852 235.793C25.0501 235.793 25.6133 236.039 25.9746 236.53C26.3359 237.019 26.5215 237.774 26.5312 238.796V239.968ZM25.6279 238.732C25.6279 237.967 25.5205 237.411 25.3057 237.062C25.0908 236.711 24.7507 236.535 24.2852 236.535C23.8229 236.535 23.486 236.709 23.2744 237.058C23.0628 237.406 22.9538 237.941 22.9473 238.664V240.109C22.9473 240.878 23.0579 241.446 23.2793 241.813C23.5039 242.178 23.8424 242.36 24.2949 242.36C24.7409 242.36 25.0713 242.188 25.2861 241.843C25.5042 241.498 25.6182 240.954 25.6279 240.212V238.732Z" fill="#8C8C8C"/>
<path d="M9.24902 269H4.59082V268.351L7.05176 265.616C7.41634 265.203 7.66699 264.868 7.80371 264.61C7.94368 264.35 8.01367 264.081 8.01367 263.805C8.01367 263.434 7.90137 263.129 7.67676 262.892C7.45215 262.654 7.15267 262.535 6.77832 262.535C6.3291 262.535 5.97917 262.664 5.72852 262.921C5.48112 263.175 5.35742 263.53 5.35742 263.985H4.4541C4.4541 263.331 4.66406 262.802 5.08398 262.398C5.50716 261.995 6.07194 261.793 6.77832 261.793C7.43913 261.793 7.96159 261.967 8.3457 262.315C8.72982 262.66 8.92188 263.121 8.92188 263.697C8.92188 264.397 8.47591 265.23 7.58398 266.197L5.67969 268.263H9.24902V269ZM14.1641 265.968C14.1641 267.026 13.9834 267.812 13.6221 268.326C13.2607 268.84 12.696 269.098 11.9277 269.098C11.1693 269.098 10.6077 268.847 10.2432 268.346C9.87858 267.841 9.68978 267.089 9.67676 266.09V264.884C9.67676 263.839 9.85742 263.062 10.2188 262.555C10.5801 262.047 11.1465 261.793 11.918 261.793C12.6829 261.793 13.2461 262.039 13.6074 262.53C13.9688 263.019 14.1543 263.774 14.1641 264.796V265.968ZM13.2607 264.732C13.2607 263.967 13.1533 263.411 12.9385 263.062C12.7236 262.711 12.3835 262.535 11.918 262.535C11.4557 262.535 11.1188 262.709 10.9072 263.058C10.6956 263.406 10.5866 263.941 10.5801 264.664V266.109C10.5801 266.878 10.6908 267.446 10.9121 267.813C11.1367 268.178 11.4753 268.36 11.9277 268.36C12.3737 268.36 12.7041 268.188 12.9189 267.843C13.137 267.498 13.251 266.954 13.2607 266.212V264.732ZM14.9336 268.526C14.9336 268.37 14.9792 268.24 15.0703 268.136C15.1647 268.032 15.3047 267.979 15.4902 267.979C15.6758 267.979 15.8158 268.032 15.9102 268.136C16.0078 268.24 16.0566 268.37 16.0566 268.526C16.0566 268.676 16.0078 268.801 15.9102 268.902C15.8158 269.003 15.6758 269.054 15.4902 269.054C15.3047 269.054 15.1647 269.003 15.0703 268.902C14.9792 268.801 14.9336 268.676 14.9336 268.526ZM21.416 265.968C21.416 267.026 21.2354 267.812 20.874 268.326C20.5127 268.84 19.9479 269.098 19.1797 269.098C18.4212 269.098 17.8597 268.847 17.4951 268.346C17.1305 267.841 16.9417 267.089 16.9287 266.09V264.884C16.9287 263.839 17.1094 263.062 17.4707 262.555C17.832 262.047 18.3984 261.793 19.1699 261.793C19.9349 261.793 20.498 262.039 20.8594 262.53C21.2207 263.019 21.4062 263.774 21.416 264.796V265.968ZM20.5127 264.732C20.5127 263.967 20.4053 263.411 20.1904 263.062C19.9756 262.711 19.6354 262.535 19.1699 262.535C18.7077 262.535 18.3708 262.709 18.1592 263.058C17.9476 263.406 17.8385 263.941 17.832 264.664V266.109C17.832 266.878 17.9427 267.446 18.1641 267.813C18.3887 268.178 18.7272 268.36 19.1797 268.36C19.6257 268.36 19.9561 268.188 20.1709 267.843C20.389 267.498 20.5029 266.954 20.5127 266.212V264.732ZM26.5312 265.968C26.5312 267.026 26.3506 267.812 25.9893 268.326C25.6279 268.84 25.0632 269.098 24.2949 269.098C23.5365 269.098 22.9749 268.847 22.6104 268.346C22.2458 267.841 22.057 267.089 22.0439 266.09V264.884C22.0439 263.839 22.2246 263.062 22.5859 262.555C22.9473 262.047 23.5137 261.793 24.2852 261.793C25.0501 261.793 25.6133 262.039 25.9746 262.53C26.3359 263.019 26.5215 263.774 26.5312 264.796V265.968ZM25.6279 264.732C25.6279 263.967 25.5205 263.411 25.3057 263.062C25.0908 262.711 24.7507 262.535 24.2852 262.535C23.8229 262.535 23.486 262.709 23.2744 263.058C23.0628 263.406 22.9538 263.941 22.9473 264.664V266.109C22.9473 266.878 23.0579 267.446 23.2793 267.813C23.5039 268.178 23.8424 268.36 24.2949 268.36C24.7409 268.36 25.0713 268.188 25.2861 267.843C25.5042 267.498 25.6182 266.954 25.6279 266.212V264.732Z" fill="#8C8C8C"/>
<path d="M32 249.653H32.9837L35.9347 245.949L38.8857 239.159L41.8367 228.664L44.7877 231.134L47.7387 208.91H53.6407L56.5917 199.032L62.4938 210.144L65.4448 262L68.3958 250.271H74.2978L77.2488 243.48L80.1998 228.047L83.1508 231.134L86.1018 230.516L89.0528 235.455H94.9548L97.9059 229.899L100.857 226.195L104.3 247.801L106.759 239.159L109.71 258.913H116.104L122.006 234.22L124.957 230.516H136.761L139.712 212.614L142.663 221.874L145.614 215.7L148.565 220.639L151.516 211.379H157.418L160.369 218.787L163.32 208.292L166.271 200.267L169.222 203.354L172.173 200.884H178.075L181.518 192.859L183.977 192.242L187.42 186.686L189.879 196.563L193.322 203.354H199.224L202.175 196.563L205.126 202.736L208.077 191.625L211.028 194.711L213.979 187.921H219.881L222.832 181.747L225.783 178.043L231.685 166.931L234.636 166.314H240.538L243.489 163.845L246.44 170.635L249.391 158.289L252.342 160.141H261.687L267.097 155.819L270.54 159.523L276.442 153.968H282.344L285.787 144.09L288.246 141.004L291.197 131.744L294.148 129.892L297.099 123.718H303.001L305.952 125.57L308.411 120.014L311.854 103.964L314.805 137.917L317.756 145.942H327.101L330.052 171.87L333.003 152.116L335.954 169.401L344.315 168.783L347.266 158.289L350.709 152.733L354.152 157.671L359.562 174.957H365.464L368.415 184.834L371.366 176.191L374.317 197.181L377.76 194.094L380.219 181.13L386.121 180.513L389.072 165.697L392.023 170.635L395.466 162.61L398.417 158.289L400.876 166.931H406.778L410.221 150.881L413.172 163.227L416.123 147.177L421.533 132.361H427.435L430.878 116.928L434.813 124.953L437.272 129.274L439.731 130.509H448.584L451.535 145.942L454.486 141.004L457.437 143.473L460.388 138.534L463.831 135.448H469.241L472.192 152.733L475.635 155.819L478.586 188.538L481.045 178.043L484.488 188.538H489.898L493.833 174.339L497.276 154.585L500.719 131.126L502.194 123.101H510.555L513.998 111.372L516.949 113.224L519.9 105.816L522.851 115.693L526.294 102.112H531.704L534.655 91L537.606 95.3213L540.557 107.668H544" stroke="#F39C12" stroke-width="1.5"/>
<path d="M32 259.146H32.9837L35.9347 249.258L38.8857 248.64L41.8367 242.461L44.7877 250.494L47.7387 214.034L50.6897 217.124H53.6407L56.5917 202.292L62.4938 215.27L65.4448 261L68.3958 228.865L71.3468 232.573H74.7896L77.7406 228.247L80.1998 209.708L83.1508 217.124L86.5937 219.595L92.0038 230.719H95.4467L101.349 211.562L104.3 235.663L107.251 223.921L110.202 253.584L113.153 247.404H116.104L119.055 228.247L122.006 222.685L124.957 206L127.908 202.91L130.859 204.764L133.81 199.202H136.761L140.204 180.663L143.155 188.079L145.614 184.371L148.565 188.079L152.008 176.955L157.418 176.337L160.861 187.461L163.812 184.989L166.763 162.124L169.714 172.629L172.665 163.978L175.616 160.27H178.567L181.518 146.056H184.469L187.42 150.382L190.371 163.978L193.322 165.213L196.273 163.36H199.224L202.175 154.708L205.126 160.888L208.077 142.966L211.028 144.82L213.979 128.135L216.93 118.865H219.881L223.324 110.213L226.275 118.247L232.177 100.944L235.128 103.416L238.079 99.0899H241.03L243.981 96.618L246.932 100.944L249.883 94.764L252.834 80.5506L255.785 91.0562L258.244 92.2921H261.687L264.638 87.9663L267.589 75.6067L270.54 76.2247L273.983 66.9551L276.442 50.2697L279.393 41H282.344L285.787 151.618L288.738 144.202L291.689 128.135L294.64 128.753L297.591 127.517L300.542 136.169H303.493L305.952 134.933L308.903 134.315L312.346 123.191L315.297 133.079L318.248 136.169L321.199 144.202H324.15L327.101 138.64L330.052 162.742L333.003 152.854L335.954 166.449L338.905 172.629L341.856 175.719H344.807L347.758 168.303L350.709 163.36L354.152 164.595L359.562 191.169L363.005 186.225H365.956L368.907 204.764L371.858 188.079L374.809 194.258L377.76 193.022L380.219 178.809L383.662 170.157H386.613L389.072 155.944L392.515 147.91L395.466 147.292L398.417 154.09L401.368 173.865L404.319 167.067H407.27L410.221 157.18L413.172 165.831L422.025 157.798L424.976 162.742H427.927L430.878 151.618L434.321 163.978H440.223L443.174 168.303L445.633 169.539H449.076L452.027 180.663L460.388 158.416L463.831 151.618L469.733 151L472.684 170.157L475.635 159.034L478.586 188.079L481.537 170.157L484.488 161.506L487.439 160.888H490.39L493.341 144.82L496.784 150.382L499.243 132.461L502.194 127.517L505.637 108.36H511.539L514.49 75.6067L517.441 74.3708L520.392 80.5506L526.294 70.0449L529.737 71.8989H532.196L535.147 76.8427L537.606 68.191H541.049L544 78.6966" stroke="#15A1FF" stroke-width="1.5"/>
<g filter="url(#filter0_d)">
<rect x="269" y="6.70581" width="46" height="25.9412" rx="12.9706" fill="white"/>
</g>
<g filter="url(#filter1_d)">
<rect x="414" y="84.5293" width="46" height="25.9412" rx="12.9706" fill="white"/>
</g>
<g filter="url(#filter2_d)">
<rect x="305" y="70.9412" width="46" height="25.9412" rx="12.9706" fill="white"/>
</g>
<g filter="url(#filter3_d)">
<rect x="144" y="114.177" width="46" height="25.9412" rx="12.9706" fill="white"/>
</g>
<path d="M278.006 19.4355L278.367 15.8906H282.01V16.7256H279.134L278.919 18.6641C279.267 18.459 279.663 18.3564 280.105 18.3564C280.753 18.3564 281.268 18.5713 281.648 19.001C282.029 19.4274 282.22 20.0052 282.22 20.7344C282.22 21.4668 282.021 22.0446 281.624 22.4678C281.23 22.8877 280.678 23.0977 279.969 23.0977C279.34 23.0977 278.828 22.9235 278.431 22.5752C278.034 22.2269 277.807 21.7451 277.752 21.1299H278.606C278.662 21.5368 278.807 21.8444 279.041 22.0527C279.275 22.2578 279.585 22.3604 279.969 22.3604C280.389 22.3604 280.717 22.2171 280.955 21.9307C281.196 21.6442 281.316 21.2487 281.316 20.7441C281.316 20.2689 281.186 19.888 280.926 19.6016C280.669 19.3118 280.325 19.167 279.896 19.167C279.502 19.167 279.192 19.2533 278.968 19.4258L278.729 19.6211L278.006 19.4355ZM284.02 19.0059H284.698C285.125 18.9993 285.46 18.887 285.704 18.6689C285.948 18.4508 286.07 18.1562 286.07 17.7852C286.07 16.9518 285.655 16.5352 284.825 16.5352C284.435 16.5352 284.122 16.6475 283.888 16.8721C283.657 17.0934 283.541 17.388 283.541 17.7559H282.638C282.638 17.1927 282.843 16.7256 283.253 16.3545C283.666 15.9801 284.19 15.793 284.825 15.793C285.496 15.793 286.021 15.9704 286.402 16.3252C286.783 16.68 286.974 17.1732 286.974 17.8047C286.974 18.1139 286.873 18.4134 286.671 18.7031C286.472 18.9928 286.201 19.2093 285.855 19.3525C286.246 19.4762 286.547 19.6813 286.759 19.9678C286.974 20.2542 287.081 20.6042 287.081 21.0176C287.081 21.6556 286.873 22.1618 286.456 22.5361C286.039 22.9105 285.497 23.0977 284.83 23.0977C284.163 23.0977 283.619 22.917 283.199 22.5557C282.783 22.1943 282.574 21.7174 282.574 21.125H283.482C283.482 21.4993 283.604 21.7988 283.849 22.0234C284.093 22.248 284.42 22.3604 284.83 22.3604C285.266 22.3604 285.6 22.2464 285.831 22.0186C286.062 21.7907 286.178 21.4635 286.178 21.0371C286.178 20.6237 286.051 20.3063 285.797 20.085C285.543 19.8636 285.177 19.7497 284.698 19.7432H284.02V19.0059ZM287.934 22.5264C287.934 22.3701 287.979 22.2399 288.07 22.1357C288.165 22.0316 288.305 21.9795 288.49 21.9795C288.676 21.9795 288.816 22.0316 288.91 22.1357C289.008 22.2399 289.057 22.3701 289.057 22.5264C289.057 22.6761 289.008 22.8014 288.91 22.9023C288.816 23.0033 288.676 23.0537 288.49 23.0537C288.305 23.0537 288.165 23.0033 288.07 22.9023C287.979 22.8014 287.934 22.6761 287.934 22.5264ZM294.548 16.3984L291.604 23H290.656L293.591 16.6328H289.743V15.8906H294.548V16.3984ZM295.488 19.4355L295.85 15.8906H299.492V16.7256H296.616L296.401 18.6641C296.75 18.459 297.145 18.3564 297.588 18.3564C298.236 18.3564 298.75 18.5713 299.131 19.001C299.512 19.4274 299.702 20.0052 299.702 20.7344C299.702 21.4668 299.504 22.0446 299.106 22.4678C298.713 22.8877 298.161 23.0977 297.451 23.0977C296.823 23.0977 296.31 22.9235 295.913 22.5752C295.516 22.2269 295.29 21.7451 295.234 21.1299H296.089C296.144 21.5368 296.289 21.8444 296.523 22.0527C296.758 22.2578 297.067 22.3604 297.451 22.3604C297.871 22.3604 298.2 22.2171 298.438 21.9307C298.678 21.6442 298.799 21.2487 298.799 20.7441C298.799 20.2689 298.669 19.888 298.408 19.6016C298.151 19.3118 297.808 19.167 297.378 19.167C296.984 19.167 296.675 19.2533 296.45 19.4258L296.211 19.6211L295.488 19.4355ZM300.11 17.2578C300.11 16.8314 300.245 16.4798 300.516 16.2031C300.789 15.9264 301.139 15.7881 301.565 15.7881C301.998 15.7881 302.348 15.9281 302.615 16.208C302.885 16.4847 303.021 16.8444 303.021 17.2871V17.6338C303.021 18.0635 302.884 18.415 302.61 18.6885C302.34 18.9587 301.995 19.0938 301.575 19.0938C301.152 19.0938 300.802 18.9587 300.525 18.6885C300.249 18.415 300.11 18.0521 300.11 17.5996V17.2578ZM300.784 17.6338C300.784 17.8877 300.856 18.0977 300.999 18.2637C301.142 18.4264 301.334 18.5078 301.575 18.5078C301.806 18.5078 301.992 18.4281 302.132 18.2686C302.275 18.109 302.347 17.891 302.347 17.6143V17.2578C302.347 17.0039 302.277 16.7939 302.137 16.6279C301.997 16.4619 301.806 16.3789 301.565 16.3789C301.325 16.3789 301.134 16.4619 300.994 16.6279C300.854 16.7939 300.784 17.0104 300.784 17.2773V17.6338ZM303.572 21.2568C303.572 20.8304 303.707 20.4805 303.978 20.207C304.251 19.9303 304.601 19.792 305.027 19.792C305.454 19.792 305.804 19.9287 306.077 20.2021C306.351 20.4756 306.487 20.8385 306.487 21.291V21.6377C306.487 22.0641 306.351 22.4157 306.077 22.6924C305.807 22.9658 305.46 23.1025 305.037 23.1025C304.614 23.1025 304.264 22.9674 303.987 22.6973C303.711 22.4238 303.572 22.0609 303.572 21.6084V21.2568ZM304.246 21.6377C304.246 21.8949 304.318 22.1064 304.461 22.2725C304.604 22.4352 304.796 22.5166 305.037 22.5166C305.271 22.5166 305.459 22.4368 305.599 22.2773C305.739 22.1146 305.809 21.8949 305.809 21.6182V21.2568C305.809 20.9997 305.737 20.7897 305.594 20.627C305.454 20.4642 305.265 20.3828 305.027 20.3828C304.796 20.3828 304.607 20.4642 304.461 20.627C304.318 20.7865 304.246 21.0029 304.246 21.2764V21.6377ZM301.78 22.4629L301.268 22.1406L304.739 16.584L305.252 16.9062L301.78 22.4629Z" fill="#15A1FF"/>
<path d="M153.904 126.006H154.583C155.009 125.999 155.345 125.887 155.589 125.669C155.833 125.451 155.955 125.156 155.955 124.785C155.955 123.952 155.54 123.535 154.71 123.535C154.319 123.535 154.007 123.647 153.772 123.872C153.541 124.093 153.426 124.388 153.426 124.756H152.522C152.522 124.193 152.728 123.726 153.138 123.354C153.551 122.98 154.075 122.793 154.71 122.793C155.381 122.793 155.906 122.97 156.287 123.325C156.668 123.68 156.858 124.173 156.858 124.805C156.858 125.114 156.757 125.413 156.556 125.703C156.357 125.993 156.085 126.209 155.74 126.353C156.131 126.476 156.432 126.681 156.644 126.968C156.858 127.254 156.966 127.604 156.966 128.018C156.966 128.656 156.757 129.162 156.341 129.536C155.924 129.91 155.382 130.098 154.715 130.098C154.048 130.098 153.504 129.917 153.084 129.556C152.667 129.194 152.459 128.717 152.459 128.125H153.367C153.367 128.499 153.489 128.799 153.733 129.023C153.978 129.248 154.305 129.36 154.715 129.36C155.151 129.36 155.485 129.246 155.716 129.019C155.947 128.791 156.062 128.464 156.062 128.037C156.062 127.624 155.936 127.306 155.682 127.085C155.428 126.864 155.062 126.75 154.583 126.743H153.904V126.006ZM162.296 123.398L159.352 130H158.404L161.339 123.633H157.491V122.891H162.296V123.398ZM162.934 129.526C162.934 129.37 162.979 129.24 163.07 129.136C163.165 129.032 163.305 128.979 163.49 128.979C163.676 128.979 163.816 129.032 163.91 129.136C164.008 129.24 164.057 129.37 164.057 129.526C164.057 129.676 164.008 129.801 163.91 129.902C163.816 130.003 163.676 130.054 163.49 130.054C163.305 130.054 163.165 130.003 163.07 129.902C162.979 129.801 162.934 129.676 162.934 129.526ZM168.42 126.875C168.231 127.1 168.005 127.28 167.741 127.417C167.481 127.554 167.194 127.622 166.882 127.622C166.472 127.622 166.114 127.521 165.808 127.319C165.505 127.118 165.271 126.834 165.104 126.47C164.938 126.102 164.855 125.697 164.855 125.254C164.855 124.779 164.945 124.351 165.124 123.97C165.306 123.589 165.563 123.298 165.896 123.096C166.228 122.894 166.615 122.793 167.058 122.793C167.761 122.793 168.314 123.057 168.718 123.584C169.125 124.108 169.328 124.824 169.328 125.732V125.996C169.328 127.38 169.055 128.39 168.508 129.028C167.961 129.663 167.136 129.989 166.032 130.005H165.856V129.243H166.047C166.792 129.23 167.365 129.036 167.766 128.662C168.166 128.285 168.384 127.689 168.42 126.875ZM167.028 126.875C167.331 126.875 167.609 126.782 167.863 126.597C168.12 126.411 168.308 126.182 168.425 125.908V125.547C168.425 124.954 168.296 124.473 168.039 124.102C167.782 123.73 167.456 123.545 167.062 123.545C166.665 123.545 166.346 123.698 166.105 124.004C165.865 124.307 165.744 124.707 165.744 125.205C165.744 125.69 165.86 126.09 166.091 126.406C166.325 126.719 166.638 126.875 167.028 126.875ZM173.887 127.612H174.873V128.35H173.887V130H172.979V128.35H169.741V127.817L172.925 122.891H173.887V127.612ZM170.767 127.612H172.979V124.126L172.871 124.321L170.767 127.612ZM175.11 124.258C175.11 123.831 175.245 123.48 175.516 123.203C175.789 122.926 176.139 122.788 176.565 122.788C176.998 122.788 177.348 122.928 177.615 123.208C177.885 123.485 178.021 123.844 178.021 124.287V124.634C178.021 125.063 177.884 125.415 177.61 125.688C177.34 125.959 176.995 126.094 176.575 126.094C176.152 126.094 175.802 125.959 175.525 125.688C175.249 125.415 175.11 125.052 175.11 124.6V124.258ZM175.784 124.634C175.784 124.888 175.856 125.098 175.999 125.264C176.142 125.426 176.334 125.508 176.575 125.508C176.806 125.508 176.992 125.428 177.132 125.269C177.275 125.109 177.347 124.891 177.347 124.614V124.258C177.347 124.004 177.277 123.794 177.137 123.628C176.997 123.462 176.806 123.379 176.565 123.379C176.325 123.379 176.134 123.462 175.994 123.628C175.854 123.794 175.784 124.01 175.784 124.277V124.634ZM178.572 128.257C178.572 127.83 178.707 127.48 178.978 127.207C179.251 126.93 179.601 126.792 180.027 126.792C180.454 126.792 180.804 126.929 181.077 127.202C181.351 127.476 181.487 127.839 181.487 128.291V128.638C181.487 129.064 181.351 129.416 181.077 129.692C180.807 129.966 180.46 130.103 180.037 130.103C179.614 130.103 179.264 129.967 178.987 129.697C178.711 129.424 178.572 129.061 178.572 128.608V128.257ZM179.246 128.638C179.246 128.895 179.318 129.106 179.461 129.272C179.604 129.435 179.796 129.517 180.037 129.517C180.271 129.517 180.459 129.437 180.599 129.277C180.739 129.115 180.809 128.895 180.809 128.618V128.257C180.809 128 180.737 127.79 180.594 127.627C180.454 127.464 180.265 127.383 180.027 127.383C179.796 127.383 179.607 127.464 179.461 127.627C179.318 127.786 179.246 128.003 179.246 128.276V128.638ZM176.78 129.463L176.268 129.141L179.739 123.584L180.252 123.906L176.78 129.463Z" fill="#15A1FF"/>
<path d="M317.404 85.6123H318.391V86.3496H317.404V88H316.496V86.3496H313.259V85.8174L316.442 80.8906H317.404V85.6123ZM314.284 85.6123H316.496V82.126L316.389 82.3213L314.284 85.6123ZM320.02 84.0059H320.698C321.125 83.9993 321.46 83.887 321.704 83.6689C321.948 83.4508 322.07 83.1562 322.07 82.7852C322.07 81.9518 321.655 81.5352 320.825 81.5352C320.435 81.5352 320.122 81.6475 319.888 81.8721C319.657 82.0934 319.541 82.388 319.541 82.7559H318.638C318.638 82.1927 318.843 81.7256 319.253 81.3545C319.666 80.9801 320.19 80.793 320.825 80.793C321.496 80.793 322.021 80.9704 322.402 81.3252C322.783 81.68 322.974 82.1732 322.974 82.8047C322.974 83.1139 322.873 83.4134 322.671 83.7031C322.472 83.9928 322.201 84.2093 321.855 84.3525C322.246 84.4762 322.547 84.6813 322.759 84.9678C322.974 85.2542 323.081 85.6042 323.081 86.0176C323.081 86.6556 322.873 87.1618 322.456 87.5361C322.039 87.9105 321.497 88.0977 320.83 88.0977C320.163 88.0977 319.619 87.917 319.199 87.5557C318.783 87.1943 318.574 86.7174 318.574 86.125H319.482C319.482 86.4993 319.604 86.7988 319.849 87.0234C320.093 87.248 320.42 87.3604 320.83 87.3604C321.266 87.3604 321.6 87.2464 321.831 87.0186C322.062 86.7907 322.178 86.4635 322.178 86.0371C322.178 85.6237 322.051 85.3063 321.797 85.085C321.543 84.8636 321.177 84.7497 320.698 84.7432H320.02V84.0059ZM323.934 87.5264C323.934 87.3701 323.979 87.2399 324.07 87.1357C324.165 87.0316 324.305 86.9795 324.49 86.9795C324.676 86.9795 324.816 87.0316 324.91 87.1357C325.008 87.2399 325.057 87.3701 325.057 87.5264C325.057 87.6761 325.008 87.8014 324.91 87.9023C324.816 88.0033 324.676 88.0537 324.49 88.0537C324.305 88.0537 324.165 88.0033 324.07 87.9023C323.979 87.8014 323.934 87.6761 323.934 87.5264ZM330.27 82.7461C330.27 83.1009 330.175 83.4167 329.986 83.6934C329.801 83.9701 329.549 84.1865 329.229 84.3428C329.601 84.5023 329.894 84.735 330.108 85.041C330.326 85.347 330.436 85.6937 330.436 86.0811C330.436 86.6963 330.227 87.1862 329.811 87.5508C329.397 87.9154 328.852 88.0977 328.175 88.0977C327.491 88.0977 326.943 87.9154 326.529 87.5508C326.119 87.1829 325.914 86.693 325.914 86.0811C325.914 85.6969 326.018 85.3503 326.227 85.041C326.438 84.7318 326.729 84.4974 327.101 84.3379C326.785 84.1816 326.536 83.9652 326.354 83.6885C326.171 83.4118 326.08 83.0977 326.08 82.7461C326.08 82.1471 326.272 81.6719 326.656 81.3203C327.04 80.9688 327.547 80.793 328.175 80.793C328.8 80.793 329.304 80.9688 329.688 81.3203C330.076 81.6719 330.27 82.1471 330.27 82.7461ZM329.532 86.0615C329.532 85.6644 329.405 85.3405 329.151 85.0898C328.901 84.8392 328.572 84.7139 328.165 84.7139C327.758 84.7139 327.431 84.8376 327.184 85.085C326.939 85.3324 326.817 85.6579 326.817 86.0615C326.817 86.4652 326.936 86.7826 327.174 87.0137C327.415 87.2448 327.748 87.3604 328.175 87.3604C328.598 87.3604 328.93 87.2448 329.171 87.0137C329.412 86.7793 329.532 86.4619 329.532 86.0615ZM328.175 81.5352C327.82 81.5352 327.532 81.6458 327.311 81.8672C327.092 82.0853 326.983 82.3831 326.983 82.7607C326.983 83.1221 327.091 83.415 327.306 83.6396C327.524 83.861 327.813 83.9717 328.175 83.9717C328.536 83.9717 328.824 83.861 329.039 83.6396C329.257 83.415 329.366 83.1221 329.366 82.7607C329.366 82.3994 329.254 82.1048 329.029 81.877C328.805 81.6491 328.52 81.5352 328.175 81.5352ZM332.387 84.0059H333.065C333.492 83.9993 333.827 83.887 334.071 83.6689C334.315 83.4508 334.438 83.1562 334.438 82.7852C334.438 81.9518 334.022 81.5352 333.192 81.5352C332.802 81.5352 332.489 81.6475 332.255 81.8721C332.024 82.0934 331.908 82.388 331.908 82.7559H331.005C331.005 82.1927 331.21 81.7256 331.62 81.3545C332.034 80.9801 332.558 80.793 333.192 80.793C333.863 80.793 334.389 80.9704 334.77 81.3252C335.15 81.68 335.341 82.1732 335.341 82.8047C335.341 83.1139 335.24 83.4134 335.038 83.7031C334.84 83.9928 334.568 84.2093 334.223 84.3525C334.613 84.4762 334.914 84.6813 335.126 84.9678C335.341 85.2542 335.448 85.6042 335.448 86.0176C335.448 86.6556 335.24 87.1618 334.823 87.5361C334.407 87.9105 333.865 88.0977 333.197 88.0977C332.53 88.0977 331.986 87.917 331.566 87.5557C331.15 87.1943 330.941 86.7174 330.941 86.125H331.85C331.85 86.4993 331.972 86.7988 332.216 87.0234C332.46 87.248 332.787 87.3604 333.197 87.3604C333.633 87.3604 333.967 87.2464 334.198 87.0186C334.429 86.7907 334.545 86.4635 334.545 86.0371C334.545 85.6237 334.418 85.3063 334.164 85.085C333.91 84.8636 333.544 84.7497 333.065 84.7432H332.387V84.0059ZM336.11 82.2578C336.11 81.8314 336.245 81.4798 336.516 81.2031C336.789 80.9264 337.139 80.7881 337.565 80.7881C337.998 80.7881 338.348 80.9281 338.615 81.208C338.885 81.4847 339.021 81.8444 339.021 82.2871V82.6338C339.021 83.0635 338.884 83.415 338.61 83.6885C338.34 83.9587 337.995 84.0938 337.575 84.0938C337.152 84.0938 336.802 83.9587 336.525 83.6885C336.249 83.415 336.11 83.0521 336.11 82.5996V82.2578ZM336.784 82.6338C336.784 82.8877 336.856 83.0977 336.999 83.2637C337.142 83.4264 337.334 83.5078 337.575 83.5078C337.806 83.5078 337.992 83.4281 338.132 83.2686C338.275 83.109 338.347 82.891 338.347 82.6143V82.2578C338.347 82.0039 338.277 81.7939 338.137 81.6279C337.997 81.4619 337.806 81.3789 337.565 81.3789C337.325 81.3789 337.134 81.4619 336.994 81.6279C336.854 81.7939 336.784 82.0104 336.784 82.2773V82.6338ZM339.572 86.2568C339.572 85.8304 339.707 85.4805 339.978 85.207C340.251 84.9303 340.601 84.792 341.027 84.792C341.454 84.792 341.804 84.9287 342.077 85.2021C342.351 85.4756 342.487 85.8385 342.487 86.291V86.6377C342.487 87.0641 342.351 87.4157 342.077 87.6924C341.807 87.9658 341.46 88.1025 341.037 88.1025C340.614 88.1025 340.264 87.9674 339.987 87.6973C339.711 87.4238 339.572 87.0609 339.572 86.6084V86.2568ZM340.246 86.6377C340.246 86.8949 340.318 87.1064 340.461 87.2725C340.604 87.4352 340.796 87.5166 341.037 87.5166C341.271 87.5166 341.459 87.4368 341.599 87.2773C341.739 87.1146 341.809 86.8949 341.809 86.6182V86.2568C341.809 85.9997 341.737 85.7897 341.594 85.627C341.454 85.4642 341.265 85.3828 341.027 85.3828C340.796 85.3828 340.607 85.4642 340.461 85.627C340.318 85.7865 340.246 86.0029 340.246 86.2764V86.6377ZM337.78 87.4629L337.268 87.1406L340.739 81.584L341.252 81.9062L337.78 87.4629Z" fill="#F39C12"/>
<path d="M427.404 98.6123H428.391V99.3496H427.404V101H426.496V99.3496H423.259V98.8174L426.442 93.8906H427.404V98.6123ZM424.284 98.6123H426.496V95.126L426.389 95.3213L424.284 98.6123ZM431.675 101H430.767V94.9795L428.945 95.6484V94.8281L431.533 93.8564H431.675V101ZM433.934 100.526C433.934 100.37 433.979 100.24 434.07 100.136C434.165 100.032 434.305 99.9795 434.49 99.9795C434.676 99.9795 434.816 100.032 434.91 100.136C435.008 100.24 435.057 100.37 435.057 100.526C435.057 100.676 435.008 100.801 434.91 100.902C434.816 101.003 434.676 101.054 434.49 101.054C434.305 101.054 434.165 101.003 434.07 100.902C433.979 100.801 433.934 100.676 433.934 100.526ZM440.416 97.9678C440.416 99.0257 440.235 99.8118 439.874 100.326C439.513 100.84 438.948 101.098 438.18 101.098C437.421 101.098 436.86 100.847 436.495 100.346C436.131 99.8411 435.942 99.0892 435.929 98.0898V96.8838C435.929 95.8389 436.109 95.0625 436.471 94.5547C436.832 94.0469 437.398 93.793 438.17 93.793C438.935 93.793 439.498 94.0387 439.859 94.5303C440.221 95.0186 440.406 95.7738 440.416 96.7959V97.9678ZM439.513 96.7324C439.513 95.9674 439.405 95.4108 439.19 95.0625C438.976 94.7109 438.635 94.5352 438.17 94.5352C437.708 94.5352 437.371 94.7093 437.159 95.0576C436.948 95.4059 436.839 95.9414 436.832 96.6641V98.1094C436.832 98.8776 436.943 99.4456 437.164 99.8135C437.389 100.178 437.727 100.36 438.18 100.36C438.626 100.36 438.956 100.188 439.171 99.8428C439.389 99.4977 439.503 98.9541 439.513 98.2119V96.7324ZM445.731 101H441.073V100.351L443.534 97.6162C443.899 97.2028 444.149 96.8675 444.286 96.6104C444.426 96.3499 444.496 96.0814 444.496 95.8047C444.496 95.4336 444.384 95.1292 444.159 94.8916C443.935 94.654 443.635 94.5352 443.261 94.5352C442.812 94.5352 442.462 94.6637 442.211 94.9209C441.964 95.1748 441.84 95.5296 441.84 95.9854H440.937C440.937 95.3311 441.146 94.8021 441.566 94.3984C441.99 93.9948 442.554 93.793 443.261 93.793C443.922 93.793 444.444 93.9671 444.828 94.3154C445.212 94.6605 445.404 95.1211 445.404 95.6973C445.404 96.3971 444.958 97.2305 444.066 98.1973L442.162 100.263H445.731V101ZM446.11 95.2578C446.11 94.8314 446.245 94.4798 446.516 94.2031C446.789 93.9264 447.139 93.7881 447.565 93.7881C447.998 93.7881 448.348 93.9281 448.615 94.208C448.885 94.4847 449.021 94.8444 449.021 95.2871V95.6338C449.021 96.0635 448.884 96.415 448.61 96.6885C448.34 96.9587 447.995 97.0938 447.575 97.0938C447.152 97.0938 446.802 96.9587 446.525 96.6885C446.249 96.415 446.11 96.0521 446.11 95.5996V95.2578ZM446.784 95.6338C446.784 95.8877 446.856 96.0977 446.999 96.2637C447.142 96.4264 447.334 96.5078 447.575 96.5078C447.806 96.5078 447.992 96.4281 448.132 96.2686C448.275 96.109 448.347 95.891 448.347 95.6143V95.2578C448.347 95.0039 448.277 94.7939 448.137 94.6279C447.997 94.4619 447.806 94.3789 447.565 94.3789C447.325 94.3789 447.134 94.4619 446.994 94.6279C446.854 94.7939 446.784 95.0104 446.784 95.2773V95.6338ZM449.572 99.2568C449.572 98.8304 449.707 98.4805 449.978 98.207C450.251 97.9303 450.601 97.792 451.027 97.792C451.454 97.792 451.804 97.9287 452.077 98.2021C452.351 98.4756 452.487 98.8385 452.487 99.291V99.6377C452.487 100.064 452.351 100.416 452.077 100.692C451.807 100.966 451.46 101.103 451.037 101.103C450.614 101.103 450.264 100.967 449.987 100.697C449.711 100.424 449.572 100.061 449.572 99.6084V99.2568ZM450.246 99.6377C450.246 99.8949 450.318 100.106 450.461 100.272C450.604 100.435 450.796 100.517 451.037 100.517C451.271 100.517 451.459 100.437 451.599 100.277C451.739 100.115 451.809 99.8949 451.809 99.6182V99.2568C451.809 98.9997 451.737 98.7897 451.594 98.627C451.454 98.4642 451.265 98.3828 451.027 98.3828C450.796 98.3828 450.607 98.4642 450.461 98.627C450.318 98.7865 450.246 99.0029 450.246 99.2764V99.6377ZM447.78 100.463L447.268 100.141L450.739 94.584L451.252 94.9062L447.78 100.463Z" fill="#F39C12"/>
<path d="M73.6943 298.353H72.7861V292.333L70.9648 293.001V292.181L73.5527 291.209H73.6943V298.353ZM79.6543 295.965H80.6406V296.703H79.6543V298.353H78.7461V296.703H75.5088V296.17L78.6924 291.244H79.6543V295.965ZM76.5342 295.965H78.7461V292.479L78.6387 292.674L76.5342 295.965Z" fill="#8C8C8C"/>
<path d="M162.694 298.353H161.786V292.333L159.965 293.001V292.181L162.553 291.209H162.694V298.353ZM168.654 295.965H169.641V296.703H168.654V298.353H167.746V296.703H164.509V296.17L167.692 291.244H168.654V295.965ZM165.534 295.965H167.746V292.479L167.639 292.674L165.534 295.965Z" fill="#8C8C8C"/>
<path d="M254.694 298.353H253.786V292.333L251.965 293.001V292.181L254.553 291.209H254.694V298.353ZM260.654 295.965H261.641V296.703H260.654V298.353H259.746V296.703H256.509V296.17L259.692 291.244H260.654V295.965ZM257.534 295.965H259.746V292.479L259.639 292.674L257.534 295.965Z" fill="#8C8C8C"/>
<path d="M345.694 298.353H344.786V292.333L342.965 293.001V292.181L345.553 291.209H345.694V298.353ZM351.654 295.965H352.641V296.703H351.654V298.353H350.746V296.703H347.509V296.17L350.692 291.244H351.654V295.965ZM348.534 295.965H350.746V292.479L350.639 292.674L348.534 295.965Z" fill="#8C8C8C"/>
<path d="M435.694 298.353H434.786V292.333L432.965 293.001V292.181L435.553 291.209H435.694V298.353ZM441.654 295.965H442.641V296.703H441.654V298.353H440.746V296.703H437.509V296.17L440.692 291.244H441.654V295.965ZM438.534 295.965H440.746V292.479L440.639 292.674L438.534 295.965Z" fill="#8C8C8C"/>
<path d="M527.694 298.353H526.786V292.333L524.965 293.001V292.181L527.553 291.209H527.694V298.353ZM533.654 295.965H534.641V296.703H533.654V298.353H532.746V296.703H529.509V296.17L532.692 291.244H533.654V295.965ZM530.534 295.965H532.746V292.479L532.639 292.674L530.534 295.965Z" fill="#8C8C8C"/>
<path d="M569.519 298.353H564.86V297.704L567.321 294.969C567.686 294.556 567.937 294.221 568.073 293.963C568.213 293.703 568.283 293.434 568.283 293.158C568.283 292.787 568.171 292.482 567.946 292.245C567.722 292.007 567.422 291.888 567.048 291.888C566.599 291.888 566.249 292.017 565.998 292.274C565.751 292.528 565.627 292.883 565.627 293.338H564.724C564.724 292.684 564.934 292.155 565.354 291.751C565.777 291.348 566.341 291.146 567.048 291.146C567.709 291.146 568.231 291.32 568.615 291.668C568.999 292.014 569.191 292.474 569.191 293.05C569.191 293.75 568.745 294.583 567.854 295.55L565.949 297.616H569.519V298.353ZM574.565 291.751L571.621 298.353H570.674L573.608 291.986H569.761V291.244H574.565V291.751Z" fill="#8C8C8C"/>
<path d="M27.6301 290.297H28.6667V295.835C28.6667 296.583 28.4411 297.169 27.9899 297.591C27.5424 298.014 26.9444 298.225 26.196 298.225C25.419 298.225 24.8138 298.026 24.3806 297.629C23.9473 297.231 23.7307 296.675 23.7307 295.958H24.7619C24.7619 296.406 24.8837 296.755 25.1271 297.006C25.3742 297.257 25.7305 297.382 26.196 297.382C26.6221 297.382 26.9659 297.248 27.2272 296.979C27.4922 296.71 27.6265 296.334 27.6301 295.851V290.297ZM33.3052 297.543C32.9185 297.998 32.3509 298.225 31.6025 298.225C30.9831 298.225 30.5104 298.046 30.1846 297.688C29.8623 297.326 29.6994 296.793 29.6958 296.087V292.306H30.6895V296.061C30.6895 296.941 31.0475 297.382 31.7637 297.382C32.5228 297.382 33.0277 297.099 33.2783 296.533V292.306H34.272V298.118H33.3267L33.3052 297.543ZM36.1766 292.306L36.2088 293.037C36.6528 292.478 37.2329 292.199 37.949 292.199C39.1772 292.199 39.7967 292.892 39.8074 294.277V298.118H38.8138V294.272C38.8102 293.853 38.7135 293.543 38.5237 293.343C38.3375 293.142 38.0457 293.042 37.6482 293.042C37.326 293.042 37.0431 293.128 36.7996 293.3C36.5561 293.472 36.3663 293.697 36.2303 293.977V298.118H35.2366V292.306H36.1766Z" fill="#8C8C8C"/>
<path d="M122.327 290.297H123.364V295.835C123.364 296.583 123.138 297.169 122.687 297.591C122.24 298.014 121.642 298.225 120.893 298.225C120.116 298.225 119.511 298.026 119.078 297.629C118.645 297.231 118.428 296.675 118.428 295.958H119.459C119.459 296.406 119.581 296.755 119.824 297.006C120.071 297.257 120.428 297.382 120.893 297.382C121.319 297.382 121.663 297.248 121.925 296.979C122.189 296.71 122.324 296.334 122.327 295.851V290.297ZM128.002 297.543C127.616 297.998 127.048 298.225 126.3 298.225C125.68 298.225 125.208 298.046 124.882 297.688C124.56 297.326 124.397 296.793 124.393 296.087V292.306H125.387V296.061C125.387 296.941 125.745 297.382 126.461 297.382C127.22 297.382 127.725 297.099 127.976 296.533V292.306H128.969V298.118H128.024L128.002 297.543ZM131.013 298.118H130.02V289.868H131.013V298.118Z" fill="#8C8C8C"/>
<path d="M214.597 296.077H211.321L210.585 298.118H209.522L212.508 290.297H213.41L216.402 298.118H215.344L214.597 296.077ZM211.633 295.228H214.291L212.959 291.57L211.633 295.228ZM220.272 297.543C219.886 297.998 219.318 298.225 218.57 298.225C217.95 298.225 217.478 298.046 217.152 297.688C216.83 297.326 216.667 296.793 216.663 296.087V292.306H217.657V296.061C217.657 296.941 218.015 297.382 218.731 297.382C219.49 297.382 219.995 297.099 220.246 296.533V292.306H221.239V298.118H220.294L220.272 297.543ZM221.968 295.164C221.968 294.258 222.177 293.538 222.596 293.004C223.015 292.467 223.57 292.199 224.261 292.199C224.97 292.199 225.523 292.449 225.921 292.951L225.969 292.306H226.877V297.978C226.877 298.73 226.653 299.323 226.205 299.756C225.761 300.189 225.163 300.406 224.411 300.406C223.992 300.406 223.582 300.316 223.181 300.137C222.78 299.958 222.474 299.713 222.263 299.401L222.779 298.805C223.205 299.332 223.726 299.595 224.342 299.595C224.825 299.595 225.201 299.459 225.47 299.187C225.742 298.914 225.878 298.531 225.878 298.037V297.538C225.48 297.996 224.938 298.225 224.25 298.225C223.57 298.225 223.019 297.951 222.596 297.403C222.177 296.855 221.968 296.109 221.968 295.164ZM222.967 295.276C222.967 295.932 223.101 296.447 223.369 296.823C223.638 297.196 224.014 297.382 224.497 297.382C225.124 297.382 225.584 297.097 225.878 296.528V293.875C225.573 293.319 225.117 293.042 224.508 293.042C224.025 293.042 223.647 293.23 223.375 293.606C223.103 293.982 222.967 294.539 222.967 295.276Z" fill="#8C8C8C"/>
<path d="M304.491 294.632C303.607 294.378 302.962 294.066 302.558 293.697C302.157 293.325 301.956 292.867 301.956 292.322C301.956 291.706 302.202 291.198 302.692 290.797C303.186 290.392 303.827 290.19 304.615 290.19C305.152 290.19 305.63 290.294 306.049 290.501C306.472 290.709 306.797 290.996 307.027 291.361C307.259 291.726 307.376 292.125 307.376 292.559H306.339C306.339 292.086 306.189 291.715 305.888 291.447C305.587 291.175 305.163 291.039 304.615 291.039C304.106 291.039 303.709 291.151 303.423 291.377C303.14 291.599 302.998 291.909 302.998 292.306C302.998 292.625 303.133 292.895 303.401 293.117C303.673 293.336 304.133 293.536 304.781 293.719C305.433 293.901 305.942 294.104 306.307 294.326C306.676 294.544 306.948 294.8 307.123 295.094C307.302 295.387 307.392 295.733 307.392 296.13C307.392 296.764 307.145 297.273 306.651 297.656C306.156 298.035 305.496 298.225 304.669 298.225C304.132 298.225 303.63 298.123 303.165 297.919C302.699 297.711 302.339 297.428 302.085 297.07C301.835 296.712 301.709 296.306 301.709 295.851H302.746C302.746 296.324 302.919 296.698 303.267 296.974C303.618 297.246 304.085 297.382 304.669 297.382C305.213 297.382 305.63 297.271 305.92 297.049C306.21 296.827 306.355 296.524 306.355 296.141C306.355 295.758 306.221 295.463 305.952 295.255C305.684 295.044 305.197 294.836 304.491 294.632ZM310.424 298.225C309.637 298.225 308.996 297.967 308.501 297.452C308.007 296.932 307.76 296.24 307.76 295.373V295.19C307.76 294.614 307.869 294.1 308.088 293.649C308.31 293.194 308.618 292.84 309.012 292.585C309.409 292.328 309.839 292.199 310.301 292.199C311.056 292.199 311.644 292.448 312.062 292.945C312.481 293.443 312.691 294.156 312.691 295.083V295.497H308.754C308.768 296.069 308.935 296.533 309.253 296.888C309.576 297.239 309.984 297.414 310.478 297.414C310.829 297.414 311.126 297.342 311.37 297.199C311.613 297.056 311.826 296.866 312.009 296.63L312.616 297.103C312.129 297.851 311.398 298.225 310.424 298.225ZM310.301 293.015C309.9 293.015 309.563 293.162 309.291 293.456C309.019 293.746 308.851 294.154 308.786 294.68H311.697V294.605C311.669 294.1 311.533 293.71 311.289 293.434C311.046 293.155 310.716 293.015 310.301 293.015ZM318.205 295.276C318.205 296.161 318.003 296.873 317.598 297.414C317.193 297.955 316.645 298.225 315.954 298.225C315.249 298.225 314.694 298.001 314.289 297.554V300.352H313.296V292.306H314.203L314.252 292.951C314.656 292.449 315.219 292.199 315.938 292.199C316.637 292.199 317.188 292.462 317.593 292.988C318.001 293.515 318.205 294.247 318.205 295.185V295.276ZM317.211 295.164C317.211 294.508 317.072 293.991 316.792 293.611C316.513 293.232 316.13 293.042 315.643 293.042C315.041 293.042 314.59 293.309 314.289 293.842V296.619C314.587 297.149 315.041 297.414 315.654 297.414C316.13 297.414 316.508 297.226 316.787 296.85C317.07 296.471 317.211 295.908 317.211 295.164Z" fill="#8C8C8C"/>
<path d="M398.014 294.46C398.014 295.226 397.885 295.896 397.627 296.469C397.369 297.038 397.004 297.473 396.531 297.774C396.059 298.075 395.507 298.225 394.877 298.225C394.261 298.225 393.715 298.075 393.239 297.774C392.763 297.47 392.392 297.038 392.127 296.479C391.866 295.917 391.731 295.267 391.724 294.53V293.966C391.724 293.214 391.855 292.55 392.116 291.973C392.378 291.397 392.747 290.956 393.223 290.652C393.703 290.344 394.251 290.19 394.866 290.19C395.493 290.19 396.044 290.342 396.521 290.646C397.001 290.947 397.369 291.386 397.627 291.962C397.885 292.535 398.014 293.203 398.014 293.966V294.46ZM396.988 293.955C396.988 293.028 396.802 292.317 396.429 291.823C396.057 291.325 395.536 291.076 394.866 291.076C394.215 291.076 393.701 291.325 393.325 291.823C392.953 292.317 392.761 293.004 392.75 293.885V294.46C392.75 295.359 392.938 296.066 393.314 296.582C393.694 297.094 394.215 297.35 394.877 297.35C395.543 297.35 396.059 297.108 396.424 296.625C396.789 296.138 396.977 295.441 396.988 294.535V293.955ZM401.186 297.414C401.541 297.414 401.85 297.307 402.115 297.092C402.38 296.877 402.527 296.608 402.556 296.286H403.496C403.478 296.619 403.363 296.936 403.152 297.237C402.941 297.538 402.658 297.778 402.303 297.957C401.952 298.136 401.58 298.225 401.186 298.225C400.395 298.225 399.764 297.962 399.295 297.436C398.83 296.906 398.597 296.182 398.597 295.266V295.099C398.597 294.533 398.701 294.03 398.909 293.59C399.116 293.149 399.414 292.807 399.8 292.564C400.191 292.32 400.651 292.199 401.181 292.199C401.832 292.199 402.373 292.394 402.803 292.784C403.236 293.174 403.467 293.681 403.496 294.304H402.556C402.527 293.928 402.384 293.62 402.126 293.38C401.872 293.137 401.557 293.015 401.181 293.015C400.676 293.015 400.284 293.198 400.004 293.563C399.729 293.925 399.591 294.449 399.591 295.137V295.325C399.591 295.994 399.729 296.51 400.004 296.872C400.28 297.233 400.674 297.414 401.186 297.414ZM405.411 290.899V292.306H406.496V293.074H405.411V296.678C405.411 296.911 405.459 297.086 405.556 297.205C405.653 297.319 405.817 297.376 406.05 297.376C406.165 297.376 406.322 297.355 406.523 297.312V298.118C406.261 298.189 406.007 298.225 405.76 298.225C405.316 298.225 404.981 298.091 404.756 297.822C404.53 297.554 404.417 297.172 404.417 296.678V293.074H403.359V292.306H404.417V290.899H405.411Z" fill="#8C8C8C"/>
<path d="M488.289 298.118H487.253L483.316 292.091V298.118H482.279V290.297H483.316L487.263 296.351V290.297H488.289V298.118ZM489.152 295.158C489.152 294.589 489.263 294.077 489.485 293.622C489.71 293.167 490.022 292.816 490.419 292.569C490.82 292.322 491.277 292.199 491.789 292.199C492.58 292.199 493.22 292.473 493.707 293.021C494.197 293.568 494.442 294.297 494.442 295.207V295.276C494.442 295.842 494.333 296.351 494.115 296.802C493.9 297.249 493.59 297.598 493.186 297.849C492.785 298.1 492.323 298.225 491.8 298.225C491.012 298.225 490.373 297.951 489.882 297.403C489.395 296.855 489.152 296.13 489.152 295.228V295.158ZM490.151 295.276C490.151 295.921 490.299 296.438 490.597 296.829C490.897 297.219 491.299 297.414 491.8 297.414C492.305 297.414 492.706 297.217 493.003 296.823C493.3 296.426 493.449 295.871 493.449 295.158C493.449 294.521 493.297 294.005 492.992 293.611C492.691 293.214 492.29 293.015 491.789 293.015C491.299 293.015 490.903 293.21 490.602 293.601C490.301 293.991 490.151 294.549 490.151 295.276ZM496.97 296.77L498.409 292.306H499.425L497.341 298.118H496.583L494.478 292.306H495.493L496.97 296.77Z" fill="#8C8C8C"/>
<circle cx="4.5" cy="345.5" r="4.5" fill="#15A1FF"/>
<circle cx="97.5" cy="345.5" r="4.5" fill="#F39C12"/>
<path d="M27.4922 339.625H28.9922V351H27.4922V342.234L21.8906 351H20.3828V339.625H21.8906V348.391L27.4922 339.625ZM38.8984 339.625H40.3984V351H38.8984V342.234L33.2969 351H31.7891V339.625H33.2969V348.391L38.8984 339.625ZM51.5 347.391C51.3594 348.594 50.9141 349.523 50.1641 350.18C49.4193 350.831 48.4271 351.156 47.1875 351.156C45.8438 351.156 44.7656 350.674 43.9531 349.711C43.1458 348.747 42.7422 347.458 42.7422 345.844V344.75C42.7422 343.693 42.9297 342.763 43.3047 341.961C43.6849 341.159 44.2214 340.544 44.9141 340.117C45.6068 339.685 46.4089 339.469 47.3203 339.469C48.5286 339.469 49.4974 339.807 50.2266 340.484C50.9557 341.156 51.3802 342.089 51.5 343.281H49.9922C49.862 342.375 49.5781 341.719 49.1406 341.312C48.7083 340.906 48.1016 340.703 47.3203 340.703C46.362 340.703 45.6094 341.057 45.0625 341.766C44.5208 342.474 44.25 343.482 44.25 344.789V345.891C44.25 347.125 44.5078 348.107 45.0234 348.836C45.5391 349.565 46.2604 349.93 47.1875 349.93C48.0208 349.93 48.6589 349.742 49.1016 349.367C49.5495 348.987 49.8464 348.328 49.9922 347.391H51.5Z" fill="#212121"/>
<path d="M116.672 345.93C115.385 345.56 114.448 345.107 113.859 344.57C113.276 344.029 112.984 343.362 112.984 342.57C112.984 341.674 113.341 340.935 114.055 340.352C114.773 339.763 115.706 339.469 116.852 339.469C117.633 339.469 118.328 339.62 118.938 339.922C119.552 340.224 120.026 340.641 120.359 341.172C120.698 341.703 120.867 342.284 120.867 342.914H119.359C119.359 342.227 119.141 341.688 118.703 341.297C118.266 340.901 117.648 340.703 116.852 340.703C116.112 340.703 115.534 340.867 115.117 341.195C114.706 341.518 114.5 341.969 114.5 342.547C114.5 343.01 114.695 343.404 115.086 343.727C115.482 344.044 116.151 344.336 117.094 344.602C118.042 344.867 118.781 345.161 119.312 345.484C119.849 345.802 120.245 346.174 120.5 346.602C120.76 347.029 120.891 347.531 120.891 348.109C120.891 349.031 120.531 349.771 119.812 350.328C119.094 350.88 118.133 351.156 116.93 351.156C116.148 351.156 115.419 351.008 114.742 350.711C114.065 350.409 113.542 349.997 113.172 349.477C112.807 348.956 112.625 348.365 112.625 347.703H114.133C114.133 348.391 114.385 348.935 114.891 349.336C115.401 349.732 116.081 349.93 116.93 349.93C117.721 349.93 118.328 349.768 118.75 349.445C119.172 349.122 119.383 348.682 119.383 348.125C119.383 347.568 119.188 347.138 118.797 346.836C118.406 346.529 117.698 346.227 116.672 345.93ZM122.289 347.945C122.289 347.398 122.44 346.896 122.742 346.438C123.049 345.979 123.633 345.445 124.492 344.836C123.987 344.221 123.648 343.727 123.477 343.352C123.305 342.977 123.219 342.604 123.219 342.234C123.219 341.37 123.474 340.693 123.984 340.203C124.495 339.714 125.188 339.469 126.062 339.469C126.844 339.469 127.49 339.698 128 340.156C128.51 340.609 128.766 341.182 128.766 341.875C128.766 342.333 128.648 342.758 128.414 343.148C128.185 343.534 127.781 343.94 127.203 344.367L126.367 344.984L128.898 348.008C129.253 347.331 129.43 346.578 129.43 345.75H130.734C130.734 347.078 130.414 348.18 129.773 349.055L131.398 351H129.664L128.906 350.102C128.521 350.445 128.068 350.708 127.547 350.891C127.031 351.068 126.505 351.156 125.969 351.156C124.859 351.156 123.969 350.862 123.297 350.273C122.625 349.685 122.289 348.909 122.289 347.945ZM125.969 349.977C126.734 349.977 127.435 349.685 128.07 349.102L125.297 345.781L125.039 345.969C124.169 346.609 123.734 347.268 123.734 347.945C123.734 348.56 123.932 349.052 124.328 349.422C124.729 349.792 125.276 349.977 125.969 349.977ZM124.664 342.188C124.664 342.688 124.971 343.312 125.586 344.062L126.508 343.414C126.862 343.164 127.104 342.927 127.234 342.703C127.365 342.474 127.43 342.198 127.43 341.875C127.43 341.526 127.299 341.237 127.039 341.008C126.779 340.773 126.451 340.656 126.055 340.656C125.628 340.656 125.289 340.802 125.039 341.094C124.789 341.38 124.664 341.745 124.664 342.188ZM134.273 346.547V351H132.773V339.625H136.969C138.214 339.625 139.188 339.943 139.891 340.578C140.599 341.214 140.953 342.055 140.953 343.102C140.953 344.206 140.607 345.057 139.914 345.656C139.227 346.25 138.24 346.547 136.953 346.547H134.273ZM134.273 345.32H136.969C137.771 345.32 138.385 345.133 138.812 344.758C139.24 344.378 139.453 343.831 139.453 343.117C139.453 342.44 139.24 341.898 138.812 341.492C138.385 341.086 137.799 340.875 137.055 340.859H134.273V345.32ZM143.156 345.297L143.734 339.625H149.562V340.961H144.961L144.617 344.062C145.174 343.734 145.807 343.57 146.516 343.57C147.552 343.57 148.375 343.914 148.984 344.602C149.594 345.284 149.898 346.208 149.898 347.375C149.898 348.547 149.581 349.471 148.945 350.148C148.315 350.82 147.432 351.156 146.297 351.156C145.292 351.156 144.471 350.878 143.836 350.32C143.201 349.763 142.839 348.992 142.75 348.008H144.117C144.206 348.659 144.438 349.151 144.812 349.484C145.188 349.812 145.682 349.977 146.297 349.977C146.969 349.977 147.495 349.747 147.875 349.289C148.26 348.831 148.453 348.198 148.453 347.391C148.453 346.63 148.245 346.021 147.828 345.562C147.417 345.099 146.867 344.867 146.18 344.867C145.549 344.867 145.055 345.005 144.695 345.281L144.312 345.594L143.156 345.297ZM158.609 346.148C158.609 347.841 158.32 349.099 157.742 349.922C157.164 350.745 156.26 351.156 155.031 351.156C153.818 351.156 152.919 350.755 152.336 349.953C151.753 349.146 151.451 347.943 151.43 346.344V344.414C151.43 342.742 151.719 341.5 152.297 340.688C152.875 339.875 153.781 339.469 155.016 339.469C156.24 339.469 157.141 339.862 157.719 340.648C158.297 341.43 158.594 342.638 158.609 344.273V346.148ZM157.164 344.172C157.164 342.948 156.992 342.057 156.648 341.5C156.305 340.938 155.76 340.656 155.016 340.656C154.276 340.656 153.737 340.935 153.398 341.492C153.06 342.049 152.885 342.906 152.875 344.062V346.375C152.875 347.604 153.052 348.513 153.406 349.102C153.766 349.685 154.307 349.977 155.031 349.977C155.745 349.977 156.273 349.701 156.617 349.148C156.966 348.596 157.148 347.727 157.164 346.539V344.172ZM167.594 346.148C167.594 347.841 167.305 349.099 166.727 349.922C166.148 350.745 165.245 351.156 164.016 351.156C162.802 351.156 161.904 350.755 161.32 349.953C160.737 349.146 160.435 347.943 160.414 346.344V344.414C160.414 342.742 160.703 341.5 161.281 340.688C161.859 339.875 162.766 339.469 164 339.469C165.224 339.469 166.125 339.862 166.703 340.648C167.281 341.43 167.578 342.638 167.594 344.273V346.148ZM166.148 344.172C166.148 342.948 165.977 342.057 165.633 341.5C165.289 340.938 164.745 340.656 164 340.656C163.26 340.656 162.721 340.935 162.383 341.492C162.044 342.049 161.87 342.906 161.859 344.062V346.375C161.859 347.604 162.036 348.513 162.391 349.102C162.75 349.685 163.292 349.977 164.016 349.977C164.729 349.977 165.258 349.701 165.602 349.148C165.951 348.596 166.133 347.727 166.148 346.539V344.172Z" fill="#212121"/>
<defs>
<filter id="filter0_d" x="259" y="0.705811" width="66" height="45.9412" filterUnits="userSpaceOnUse" color-interpolation-filters="sRGB">
<feFlood flood-opacity="0" result="BackgroundImageFix"/>
<feColorMatrix in="SourceAlpha" type="matrix" values="0 0 0 0 0 0 0 0 0 0 0 0 0 0 0 0 0 0 127 0"/>
<feOffset dy="4"/>
<feGaussianBlur stdDeviation="5"/>
<feColorMatrix type="matrix" values="0 0 0 0 0 0 0 0 0 0 0 0 0 0 0 0 0 0 0.15 0"/>
<feBlend mode="normal" in2="BackgroundImageFix" result="effect1_dropShadow"/>
<feBlend mode="normal" in="SourceGraphic" in2="effect1_dropShadow" result="shape"/>
</filter>
<filter id="filter1_d" x="404" y="78.5293" width="66" height="45.9412" filterUnits="userSpaceOnUse" color-interpolation-filters="sRGB">
<feFlood flood-opacity="0" result="BackgroundImageFix"/>
<feColorMatrix in="SourceAlpha" type="matrix" values="0 0 0 0 0 0 0 0 0 0 0 0 0 0 0 0 0 0 127 0"/>
<feOffset dy="4"/>
<feGaussianBlur stdDeviation="5"/>
<feColorMatrix type="matrix" values="0 0 0 0 0 0 0 0 0 0 0 0 0 0 0 0 0 0 0.15 0"/>
<feBlend mode="normal" in2="BackgroundImageFix" result="effect1_dropShadow"/>
<feBlend mode="normal" in="SourceGraphic" in2="effect1_dropShadow" result="shape"/>
</filter>
<filter id="filter2_d" x="295" y="64.9412" width="66" height="45.9412" filterUnits="userSpaceOnUse" color-interpolation-filters="sRGB">
<feFlood flood-opacity="0" result="BackgroundImageFix"/>
<feColorMatrix in="SourceAlpha" type="matrix" values="0 0 0 0 0 0 0 0 0 0 0 0 0 0 0 0 0 0 127 0"/>
<feOffset dy="4"/>
<feGaussianBlur stdDeviation="5"/>
<feColorMatrix type="matrix" values="0 0 0 0 0 0 0 0 0 0 0 0 0 0 0 0 0 0 0.15 0"/>
<feBlend mode="normal" in2="BackgroundImageFix" result="effect1_dropShadow"/>
<feBlend mode="normal" in="SourceGraphic" in2="effect1_dropShadow" result="shape"/>
</filter>
<filter id="filter3_d" x="134" y="108.177" width="66" height="45.9412" filterUnits="userSpaceOnUse" color-interpolation-filters="sRGB">
<feFlood flood-opacity="0" result="BackgroundImageFix"/>
<feColorMatrix in="SourceAlpha" type="matrix" values="0 0 0 0 0 0 0 0 0 0 0 0 0 0 0 0 0 0 127 0"/>
<feOffset dy="4"/>
<feGaussianBlur stdDeviation="5"/>
<feColorMatrix type="matrix" values="0 0 0 0 0 0 0 0 0 0 0 0 0 0 0 0 0 0 0.15 0"/>
<feBlend mode="normal" in2="BackgroundImageFix" result="effect1_dropShadow"/>
<feBlend mode="normal" in="SourceGraphic" in2="effect1_dropShadow" result="shape"/>
</filter>
</defs>
</svg>
