<svg width="754" height="370" fill="none" xmlns="http://www.w3.org/2000/svg"><path d="M196.496-592l843.464 225.143-230.792 726.991c-43.516-68.729-35.516-139.649-235.916-160.253-250.499-25.755-40.848-255.677-75.115-363.361-28.928-125.204-176.872-177.279-212.226-244.308L196.496-592z" fill="#8E44AD"/><path d="M616.711 106.947c0 9.603-2.165 17.009-6.494 22.217-4.297 5.208-10.368 7.813-18.213 7.813-7.91 0-14.03-2.621-18.359-7.862-4.33-5.241-6.495-12.63-6.495-22.168V93.959c0-9.603 2.149-17.008 6.446-22.217 4.329-5.208 10.433-7.812 18.31-7.812 7.878 0 13.981 2.62 18.311 7.861 4.329 5.24 6.494 12.647 6.494 22.217v12.939zm-16.455-15.088c0-5.11-.667-8.919-2.002-11.425-1.335-2.54-3.451-3.809-6.348-3.809-2.832 0-4.899 1.172-6.201 3.516-1.269 2.343-1.953 5.892-2.051 10.644v18.164c0 5.306.668 9.196 2.002 11.67 1.335 2.442 3.451 3.662 6.348 3.662 2.799 0 4.866-1.188 6.201-3.564 1.335-2.409 2.018-6.169 2.051-11.279V91.859zm44.248 37.486h-9.276V136h-7.26v-6.655h-5.906v-5.848h5.906v-3.082h-5.906v-5.849h5.906V94.055h16.047c4.628 0 8.325 1.21 11.091 3.63 2.766 2.4 4.148 5.598 4.148 9.593 0 4.071-1.315 7.269-3.946 9.593-2.632 2.305-6.29 3.486-10.976 3.544h-9.104v3.082h9.276v5.848zm-9.276-14.779h8.671c2.612 0 4.61-.605 5.993-1.815 1.382-1.209 2.074-3.015 2.074-5.416 0-2.151-.682-3.908-2.046-5.272-1.344-1.363-3.207-2.074-5.588-2.131h-9.104v14.634z" fill="#fff"/></svg>