<svg width="35" height="20" fill="none" xmlns="http://www.w3.org/2000/svg"><path d="M28.45 11.469c-.554-.7-.396-1.012 0-1.638.007-.007 4.583-6.33 5.054-8.474l.003-.001C33.741.574 33.507 0 32.374 0h-3.748c-.955 0-1.395.493-1.63 1.044 0 0-1.909 4.569-4.609 7.53-.871.856-1.274 1.13-1.75 1.13-.234 0-.598-.274-.598-1.055V1.356C20.039.419 19.77 0 18.98 0h-5.894c-.598 0-.954.437-.954.844 0 .889 1.35 1.093 1.49 3.593v5.424c0 1.189-.216 1.408-.694 1.408-1.275 0-4.368-4.588-6.2-9.838C6.359.413 5.997.001 5.036.001h-3.75C.216.001 0 .494 0 1.046c0 .974 1.274 5.818 5.926 12.218C9.026 17.633 13.39 20 17.363 20c2.387 0 2.678-.526 2.678-1.43 0-4.174-.215-4.569.98-4.569.555 0 1.509.275 3.738 2.382C27.306 18.88 27.724 20 29.15 20h3.749c1.068 0 1.61-.526 1.298-1.563-.713-2.181-5.53-6.668-5.747-6.968z" fill="#fff"/></svg>