<svg width="29" height="29" fill="none" xmlns="http://www.w3.org/2000/svg"><circle cx="14.247" cy="14.009" r="14.009" fill="url(#paint0_linear)"/><g clip-path="url(#clip0)" fill="#fff"><path d="M22.014 10.643c-.039-.868-.18-1.465-.38-1.983a3.988 3.988 0 00-.945-1.45 4.02 4.02 0 00-1.447-.941c-.52-.201-1.114-.342-1.982-.38-.875-.042-1.153-.051-3.372-.051s-2.496.01-3.368.048c-.869.038-1.466.179-1.983.38a3.986 3.986 0 00-1.45.945 4.024 4.024 0 00-.941 1.446c-.201.52-.342 1.114-.38 1.983-.042.875-.051 1.152-.051 3.371 0 2.22.01 2.497.048 3.369.038.868.179 1.465.38 1.982.207.55.53 1.041.945 1.45.408.415.903.737 1.446.941.52.202 1.114.342 1.983.38.871.039 1.15.048 3.368.048 2.219 0 2.497-.01 3.368-.048.869-.038 1.466-.178 1.983-.38a4.18 4.18 0 002.391-2.39c.201-.521.342-1.115.38-1.983.038-.872.048-1.15.048-3.369 0-2.219-.003-2.496-.041-3.368zm-1.472 6.673c-.035.798-.17 1.229-.281 1.516a2.711 2.711 0 01-1.552 1.552c-.287.112-.721.246-1.516.28-.862.04-1.12.049-3.302.049-2.18 0-2.442-.01-3.3-.048-.8-.035-1.23-.17-1.517-.281a2.515 2.515 0 01-.94-.61 2.542 2.542 0 01-.609-.939c-.112-.287-.246-.721-.28-1.516-.04-.862-.049-1.12-.049-3.301s.01-2.443.048-3.302c.035-.798.17-1.229.281-1.516a2.49 2.49 0 01.613-.939c.265-.271.584-.479.939-.61.287-.111.721-.245 1.516-.28.862-.039 1.121-.049 3.302-.049 2.183 0 2.442.01 3.3.048.799.036 1.23.17 1.517.281.355.131.677.339.939.61.271.265.479.584.61.939.112.287.246.721.28 1.516.04.862.049 1.12.049 3.302 0 2.18-.01 2.436-.048 3.298z"/><path d="M13.888 9.813a4.2 4.2 0 000 8.396 4.2 4.2 0 000-8.396zm0 6.921a2.724 2.724 0 110-5.447 2.724 2.724 0 010 5.447zm5.344-7.088a.98.98 0 11-1.96 0 .98.98 0 011.96 0z"/></g><defs><linearGradient id="paint0_linear" x1="28.256" y1="0" x2="14.247" y2="28.017" gradientUnits="userSpaceOnUse"><stop stop-color="#9234C0"/><stop offset=".322" stop-color="#B92480"/><stop offset=".525" stop-color="#DC2C77"/><stop offset=".816" stop-color="#F56038"/><stop offset="1" stop-color="#FDB859"/></linearGradient><clipPath id="clip0"><path fill="#fff" transform="translate(5.686 5.838)" d="M0 0h16.343v16.343H0z"/></clipPath></defs></svg>