<svg width="148" height="52" fill="none" xmlns="http://www.w3.org/2000/svg"><g clip-path="url(#clip0)"><path fill-rule="evenodd" clip-rule="evenodd" d="M16.093 11.844c2.772 0 5.019 2.232 5.019 4.986v26.804c0 2.754-2.247 4.986-5.02 4.986-2.77 0-5.018-2.232-5.018-4.986V16.83c0-2.754 2.247-4.986 5.019-4.986z" fill="#19A15F"/><path d="M30.837 7.355c1.71-2.327 1.325-5.749-1.38-6.66a13.226 13.226 0 00-4.83-.681c-3.345.153-6.53 1.575-8.98 4.012-2.448 2.436-4.002 5.726-4.379 9.276-.102.963-.153 1.81-.178 2.794-.041 1.65-.055 3.582 1.332 4.49 1.355.888 3.414.834 5.044-.049.399-.216.82-.4 1.27-.466 1.38-.201 2.4-1.379 2.492-2.762.063-.97.154-1.921.243-2.763.1-.934.59-1.8 1.235-2.442a3.583 3.583 0 012.364-1.056c1.434-.065 3.158-.14 4.019-1.313l1.748-2.38z" fill="#19A15F"/><path fill-rule="evenodd" clip-rule="evenodd" d="M31.144 19.413c.522 2.705-1.26 5.318-3.983 5.837L5.965 29.29c-2.722.52-5.352-1.253-5.874-3.958-.522-2.704 1.261-5.318 3.983-5.836l21.196-4.04c2.722-.52 5.352 1.253 5.874 3.957z" fill="#8BD710"/><path opacity=".93" fill-rule="evenodd" clip-rule="evenodd" d="M31.144 19.413c.522 2.705-1.26 5.318-3.983 5.837L5.965 29.29c-2.722.52-5.352-1.253-5.874-3.958-.522-2.704 1.261-5.318 3.983-5.836l21.196-4.04c2.722-.52 5.352 1.253 5.874 3.957z" fill="#8BD710"/><path fill-rule="evenodd" clip-rule="evenodd" d="M16.23 20.671a.734.734 0 001.005-.24.724.724 0 00-.242-1 .734.734 0 00-1.005.24.724.724 0 00.242 1zm-2.298.55a.734.734 0 001.005-.24.724.724 0 00-.242-1 .734.734 0 00-1.005.241.724.724 0 00.242 1zm.485 1.999a.734.734 0 001.005-.241.724.724 0 00-.242-1 .734.734 0 00-1.006.242.724.724 0 00.243.999zm1.49 1.757a.734.734 0 01-1.006.24.724.724 0 01-.242-.998.734.734 0 011.005-.241c.345.21.454.656.243.999zm1.813-2.549a.734.734 0 01-1.005.241.724.724 0 01-.242-.999.734.734 0 011.005-.24.722.722 0 01.242.998zm-.52 2.24a.734.734 0 001.005-.241.724.724 0 00-.242-1 .734.734 0 00-1.005.241.724.724 0 00.242 1z" fill="#19A15F"/><path opacity=".93" fill-rule="evenodd" clip-rule="evenodd" d="M38.991 18.389c2.772 0 5.02 2.232 5.02 4.986v20.259c0 2.754-2.248 4.986-5.02 4.986-2.771 0-5.018-2.232-5.018-4.986V23.375c0-2.754 2.247-4.986 5.018-4.986z" fill="#1DA05E"/><path opacity=".93" fill-rule="evenodd" clip-rule="evenodd" d="M83.433 18.914a4.964 4.964 0 010 7.052l-21.76 21.62a5.042 5.042 0 01-7.098 0 4.964 4.964 0 010-7.051l21.76-21.621a5.041 5.041 0 017.098 0z" fill="#19A15F"/><path opacity=".93" fill-rule="evenodd" clip-rule="evenodd" d="M53.634 19.109a5.042 5.042 0 017.098 0l22.387 22.244a4.964 4.964 0 010 7.053 5.042 5.042 0 01-7.098 0L53.634 26.16a4.964 4.964 0 010-7.052z" fill="#83D10F"/><path d="M134.005 27.42c-.504 0-.989.065-1.456.195a3.672 3.672 0 00-1.288.588 3.301 3.301 0 00-.952 1.064c-.262.43-.44.971-.534 1.625.709.318 1.4.543 2.072.674.671.112 1.381.169 2.127.17 1.101 0 1.913-.13 2.436-.391.541-.28.812-.775.813-1.485 0-.654-.251-1.224-.755-1.71-.485-.486-1.306-.73-2.463-.73z" fill="#272727"/><path fill-rule="evenodd" clip-rule="evenodd" d="M141.722 44.581c3.467 0 6.278-2.791 6.278-6.234v-14.63c0-3.443-2.811-6.235-6.278-6.235H99.341c-3.468 0-6.278 2.792-6.278 6.235v14.63c0 3.443 2.81 6.234 6.278 6.234h1.267c.561 0 .997.485.936 1.039l-.578 5.164a.628.628 0 00.964.593l9.857-6.3a3.158 3.158 0 011.699-.496h28.236zm-21.464-7.419c.037.392.111.748.223 1.065.112.3.252.514.42.645.168.112.41.168.727.169.336 0 .588-.056.757-.168.186-.13.326-.299.42-.504.093-.206.15-.458.168-.757a8 8 0 00.057-.98l.001-1.43a57.01 57.01 0 00.029-1.961l.001-.98c0-.281-.009-.552-.028-.813 0-.262-.009-.524-.027-.785 0-.28-.009-.598-.027-.953-.055-1.12-.242-2.008-.558-2.662-.299-.673-.671-1.187-1.119-1.542a3.25 3.25 0 00-1.483-.674 7.329 7.329 0 00-1.54-.17c-1.064 0-1.96.149-2.687.447-.728.299-1.326.69-1.793 1.176a4.936 4.936 0 00-1.037 1.625 7.89 7.89 0 00-.449 1.82 8.296 8.296 0 00-.447-1.877 4.517 4.517 0 00-.978-1.654c-.429-.486-.989-.879-1.679-1.178-.69-.3-1.54-.45-2.547-.45-.467 0-.98.055-1.54.167a3.643 3.643 0 00-1.568.671c-.485.355-.906.878-1.261 1.569-.355.672-.561 1.578-.618 2.717a55.29 55.29 0 01-.057.953c0 .262-.009.523-.028.785l-.003 3.755c.019.523.028 1 .027 1.429.018.785.111 1.383.279 1.794.168.41.541.617 1.119.617.187 0 .392-.037.616-.112.224-.093.402-.326.533-.7.112-.318.178-.7.197-1.149.037-.448.056-.98.057-1.597 0-.43-.009-.747-.028-.953l.001-.504c0-.131-.009-.271-.028-.42l.001-.757c0-.673.01-1.336.029-1.99a7.2 7.2 0 01.309-1.793c.169-.541.43-.971.785-1.288.373-.336.896-.504 1.568-.504.709 0 1.287.188 1.735.562.467.374.83.878 1.091 1.514.279.616.475 1.336.586 2.158.13.822.223 1.681.278 2.578.056.822.083 1.541.083 2.158.018.616.064 1.14.139 1.57.093.43.232.756.419.98.186.206.485.309.895.31.448 0 .766-.122.952-.364.206-.243.346-.58.421-1.009.075-.448.113-.98.113-1.597s.02-1.298.057-2.046c.133-2.372.517-4.1 1.152-5.183.635-1.083 1.522-1.624 2.66-1.623.672 0 1.185.169 1.54.505.354.336.615.776.783 1.318.167.523.26 1.12.278 1.793.037.654.055 1.308.055 1.962 0 .317-.01.57-.028.756l-.001.533c0 .168-.009.373-.029.616v.953c0 .58.009 1.065.027 1.457zm11.866-3.382c.729.093 1.419.14 2.072.141.877 0 1.671-.073 2.38-.222.728-.15 1.343-.382 1.848-.7a3.252 3.252 0 001.204-1.26c.281-.523.421-1.158.421-1.905.002-.84-.176-1.57-.53-2.186a4.436 4.436 0 00-1.371-1.57 5.936 5.936 0 00-1.958-.927 8.31 8.31 0 00-2.268-.31c-1.008 0-1.95.158-2.827.475a6.319 6.319 0 00-2.241 1.4c-.634.616-1.139 1.372-1.513 2.268-.355.897-.533 1.924-.534 3.083-.001 1.195.185 2.242.558 3.139a6.322 6.322 0 001.566 2.27 6.62 6.62 0 002.379 1.347c.932.3 1.949.45 3.05.45.467 0 1.008-.036 1.624-.11a8.41 8.41 0 001.736-.335c.56-.187 1.027-.43 1.4-.728.392-.299.588-.682.589-1.149 0-.373-.121-.635-.364-.785a1.307 1.307 0 00-.755-.252c-.206 0-.43.037-.672.111-.243.056-.523.13-.84.224-.317.075-.691.149-1.12.223-.41.056-.877.084-1.4.084-1.456-.002-2.575-.292-3.359-.871-.765-.58-1.23-1.44-1.398-2.58.84.337 1.614.562 2.323.675z" fill="#272727"/></g><defs><clipPath id="clip0"><path fill="#fff" d="M0 0h148v52H0z"/></clipPath></defs></svg>