<svg width="57" height="57" fill="none" xmlns="http://www.w3.org/2000/svg"><circle cx="28.746" cy="28.113" r="28.113" fill="#FF0D56"/><g clip-path="url(#clip0)" fill="#fff"><path d="M23.076 39.535a.732.732 0 01-.732-.732v-.488a.732.732 0 111.465 0v.488a.732.732 0 01-.733.732z"/><path d="M23.076 39.584a.732.732 0 01-.732-.732v-.489a.732.732 0 111.465 0v.489a.732.732 0 01-.733.732zm-.732-11.524v.538a.732.732 0 101.465 0v-.537a.732.732 0 10-1.465 0zm.732 2.686a.732.732 0 00-.732.733v.537a.732.732 0 101.465 0v-.537a.732.732 0 00-.733-.733zm0 3.418a.732.732 0 00-.732.733v.537a.732.732 0 101.465 0v-.537a.732.732 0 00-.733-.733zM34.421 31.9l-1.975-.301-.89-1.896a.733.733 0 00-1.326 0l-.89 1.896-1.976.302a.733.733 0 00-.414 1.235l1.451 1.487-.344 2.109a.732.732 0 001.078.759l1.757-.972 1.759.972a.733.733 0 001.077-.76l-.344-2.108 1.45-1.487a.732.732 0 00-.413-1.235zm-2.344 1.965a.732.732 0 00-.198.63l.16.984-.792-.438a.732.732 0 00-.709 0l-.792.438.16-.985a.732.732 0 00-.198-.63l-.714-.73.953-.146a.733.733 0 00.552-.413l.393-.838.394.838a.733.733 0 00.552.413l.953.145-.714.732z"/><path d="M41 26.4a.732.732 0 00-.215-.518 2.2 2.2 0 010-3.108.732.732 0 000-1.035l-5.524-5.524a.732.732 0 00-1.036 0 2.2 2.2 0 01-3.107 0 .732.732 0 00-1.036 0l-9.649 9.648h-.77a.732.732 0 00-.733.733 2.2 2.2 0 01-2.198 2.197.732.732 0 00-.732.732v7.813c0 .404.328.732.732.732a2.2 2.2 0 012.198 2.198c0 .404.328.732.732.732h17.676a.732.732 0 00.732-.732 2.2 2.2 0 012.198-2.198.732.732 0 00.732-.732v-7.813a.732.732 0 00-.732-.732c-.39 0-.757-.103-1.076-.282l1.593-1.593A.732.732 0 0041 26.4zm-1.465 10.28a3.673 3.673 0 00-2.856 2.855H20.321a3.673 3.673 0 00-2.856-2.856v-6.495a3.673 3.673 0 002.856-2.856h16.358a3.673 3.673 0 002.856 2.856v6.495zm-9.473-10.953l-.315-.87.87.314c.23.083.486.046.683-.099l.777-.57.012 1.021a.73.73 0 00.09.34h-2.083a.744.744 0 00-.034-.136zm9.221.622l-1.057 1.057a2.184 2.184 0 01-.156-.81.732.732 0 00-.732-.733H34.56l-1.011-.727-.026-2.078a.733.733 0 00-1.166-.581l-1.61 1.183-1.97-.711a.733.733 0 00-.938.938l.711 1.97-.004.006h-6.042l8.146-8.146a3.643 3.643 0 002.02.606c.73 0 1.427-.212 2.02-.606l4.592 4.591a3.637 3.637 0 00-.606 2.02c0 .73.212 1.426.606 2.02z"/></g><defs><clipPath id="clip0"><path fill="#fff" transform="translate(16 16)" d="M0 0h25v25H0z"/></clipPath></defs></svg>