<svg width="57" height="57" fill="none" xmlns="http://www.w3.org/2000/svg"><circle cx="28.156" cy="28.113" r="28.113" fill="#19A15F"/><path d="M37.803 21.86h-2.98a3.65 3.65 0 00.734-2.198A3.666 3.666 0 0031.894 16c-1.216 0-2.113.436-2.822 1.371-.594.783-1.028 1.876-1.572 3.257-.544-1.38-.978-2.474-1.572-3.257-.71-.935-1.606-1.371-2.823-1.371a3.666 3.666 0 00-3.662 3.662c0 .824.274 1.585.735 2.197h-2.98A2.2 2.2 0 0015 24.057v1.465a2.2 2.2 0 001.465 2.07v11.21A2.2 2.2 0 0018.662 41h17.676a2.2 2.2 0 002.197-2.197v-11.21A2.2 2.2 0 0040 25.52v-1.464a2.2 2.2 0 00-2.197-2.198zm-8.959-.648c1.122-2.847 1.549-3.747 3.05-3.747a2.2 2.2 0 012.198 2.197 2.2 2.2 0 01-2.197 2.197h-3.307c.09-.225.176-.442.256-.647zm-5.739-3.747c1.502 0 1.928.9 3.05 3.747l.257.647h-3.306a2.2 2.2 0 01-2.198-2.197 2.2 2.2 0 012.197-2.197zm1.465 22.07h-5.908a.733.733 0 01-.732-.732V27.719h6.64v11.816zm0-13.281h-7.373a.733.733 0 01-.732-.733v-1.464c0-.404.328-.733.732-.733h7.373v2.93zm4.395 13.281h-2.93v-16.21h2.93v16.21zm8.105-.732a.733.733 0 01-.732.732H30.43V27.72h6.64v11.084zm1.465-13.281a.733.733 0 01-.732.732H30.43v-2.93h7.373c.404 0 .732.329.732.733v1.465z" fill="#fff"/></svg>