<svg width="58" height="58" fill="none" xmlns="http://www.w3.org/2000/svg"><circle cx="28.95" cy="28.509" r="28.509" fill="#FF9E0D"/><path d="M35.819 24.87c-2.12-2.342-3.38-4.403-4.063-5.72-.74-1.425-.983-2.31-.985-2.317l-.22-.833-.787.351c-.092.041-2.266 1.033-3.485 3.47-.611 1.223-.734 2.585-.729 3.512a1.132 1.132 0 01-1.93.805l-1.466-1.466-.504.695c-.052.072-1.285 1.772-1.51 2.111a9.966 9.966 0 00-1.651 5.588A9.95 9.95 0 0021.44 38.1 9.953 9.953 0 0028.5 41c5.52 0 10.01-4.49 10.01-10.01 0-2.002-.98-4.233-2.69-6.12zm-7.32 14.664a8.496 8.496 0 01-6.025-2.474 8.493 8.493 0 01-2.52-6.005 8.504 8.504 0 011.41-4.768c.114-.173.572-.812.97-1.363l.25.25a2.588 2.588 0 002.345.71 2.6 2.6 0 002.088-2.56c-.005-.767.091-1.884.574-2.848.586-1.174 1.464-1.94 2.073-2.367.552 1.402 1.95 4.3 5.068 7.744.695.768 2.311 2.804 2.311 5.137 0 4.71-3.833 8.544-8.544 8.544z" fill="#fff"/><path d="M29.988 28.438l-4.597 6.731h1.625l4.597-6.731h-1.625zm.98 3.076c-1.019 0-1.788.683-1.788 1.875 0 1.202.769 1.875 1.788 1.875 1.02 0 1.79-.673 1.79-1.875 0-1.193-.77-1.875-1.79-1.875zm0 2.712c-.211 0-.423-.193-.423-.837 0-.644.212-.837.423-.837.212 0 .424.193.424.837 0 .644-.212.837-.424.837zm-3.144-4.008c0-1.192-.77-1.875-1.79-1.875-1.019 0-1.788.683-1.788 1.875 0 1.202.77 1.875 1.789 1.875 1.02 0 1.789-.673 1.789-1.875zm-2.212 0c0-.644.211-.837.423-.837.211 0 .423.193.423.837 0 .644-.212.837-.423.837-.212 0-.423-.193-.423-.837z" fill="#fff"/></svg>