<svg width="23" height="23" fill="none" xmlns="http://www.w3.org/2000/svg"><rect width="23" height="23" rx="11.5" fill="#FF0D56"/><path d="M14.03 4l-.29.29a2.054 2.054 0 00-.301 2.515l-2.934 1.983-.051-.05a2.874 2.874 0 00-4.06 0l-.29.29 3.644 3.644L5 17.42l.58.58 4.748-4.748 3.645 3.644.29-.29a2.874 2.874 0 000-4.06l-.05-.05 1.982-2.935c.789.48 1.834.38 2.515-.302l.29-.29L14.03 4zm-.086 11.707l-6.651-6.65a2.054 2.054 0 012.58.26l3.81 3.81c.7.7.787 1.784.26 2.58zm-.323-3.803L11.095 9.38l2.885-1.95 1.59 1.59-1.949 2.886zM16.39 8.68l-2.07-2.07a1.233 1.233 0 01-.24-1.4l3.71 3.71a1.233 1.233 0 01-1.401-.24z" fill="#fff"/></svg>