<svg width="29" height="28" fill="none" xmlns="http://www.w3.org/2000/svg"><circle cx="14.56" cy="13.814" r="13.814" fill="#039BE5"/><g clip-path="url(#clip0)"><path d="M12.72 16.081l-.282 3.98c.405 0 .58-.174.79-.383l1.898-1.814 3.932 2.88c.721.402 1.23.19 1.424-.664l2.581-12.094v-.001c.23-1.066-.385-1.483-1.087-1.222L6.804 12.572c-1.036.402-1.02.98-.176 1.24l3.879 1.207 9.01-5.637c.424-.281.809-.126.492.155L12.72 16.08z" fill="#fff"/></g><defs><clipPath id="clip0"><path fill="#fff" transform="translate(6.01 5.262)" d="M0 0h17.103v17.103H0z"/></clipPath></defs></svg>