<svg width="29" height="28" fill="none" xmlns="http://www.w3.org/2000/svg"><circle cx="14.304" cy="13.814" r="13.814" fill="#4B76A3"/><g clip-path="url(#clip0)"><path d="M19.89 15.098c-.264-.334-.189-.482 0-.78.003-.004 2.184-3.018 2.41-4.04.112-.373 0-.647-.54-.647h-1.786c-.455 0-.665.235-.777.498 0 0-.91 2.177-2.197 3.59-.416.407-.608.538-.834.538-.112 0-.286-.131-.286-.503v-3.477c0-.447-.127-.646-.504-.646h-2.81c-.285 0-.454.208-.454.402 0 .424.643.521.71 1.713v2.586c0 .566-.103.67-.331.67-.607 0-2.082-2.186-2.955-4.689-.177-.485-.35-.681-.807-.681H6.94c-.51 0-.613.234-.613.497 0 .465.608 2.774 2.825 5.825 1.477 2.082 3.559 3.21 5.452 3.21 1.138 0 1.277-.25 1.277-.681 0-1.99-.103-2.178.467-2.178.264 0 .719.13 1.781 1.135 1.214 1.191 1.414 1.725 2.094 1.725h1.786c.51 0 .768-.251.62-.745-.34-1.04-2.637-3.18-2.74-3.322z" fill="#fff"/></g><defs><clipPath id="clip0"><path fill="#fff" transform="translate(6.328 6.227)" d="M0 0h16.343v16.343H0z"/></clipPath></defs></svg>