<svg width="28" height="28" fill="none" xmlns="http://www.w3.org/2000/svg"><circle cx="13.814" cy="13.814" r="13.814" fill="#12AF0A"/><g clip-path="url(#clip0)"><path fill-rule="evenodd" clip-rule="evenodd" d="M19.486 8.117a7.894 7.894 0 00-5.62-2.33c-4.38 0-7.944 3.564-7.946 7.945 0 1.4.365 2.767 1.06 3.972l-1.126 4.117 4.212-1.105a7.937 7.937 0 003.796.968h.004c4.379 0 7.943-3.565 7.945-7.946a7.898 7.898 0 00-2.325-5.62zm-5.62 12.225h-.003a6.595 6.595 0 01-3.361-.92l-.241-.144-2.5.656.667-2.437-.157-.25a6.587 6.587 0 01-1.01-3.515 6.613 6.613 0 016.607-6.603c1.764 0 3.422.688 4.67 1.937a6.565 6.565 0 011.932 4.672c-.002 3.641-2.964 6.604-6.604 6.604zm3.622-4.946c-.198-.1-1.174-.58-1.357-.646-.181-.066-.314-.1-.446.1a11.56 11.56 0 01-.629.778c-.116.132-.231.149-.43.05-.198-.1-.838-.31-1.596-.986-.59-.527-.989-1.177-1.105-1.375-.116-.2 0-.296.087-.405.215-.267.43-.547.496-.68.067-.132.034-.248-.016-.347-.05-.1-.447-1.077-.612-1.474-.161-.387-.325-.335-.447-.341a7.899 7.899 0 00-.38-.007.73.73 0 00-.53.248c-.182.199-.695.68-.695 1.656 0 .978.712 1.922.811 2.054.1.133 1.4 2.138 3.392 2.998.473.205.843.327 1.131.418.476.151.909.13 1.25.079.382-.057 1.175-.48 1.34-.944.166-.464.166-.861.116-.944-.05-.083-.181-.133-.38-.232z" fill="#fff"/></g><defs><clipPath id="clip0"><path fill="#fff" transform="translate(5.262 5.262)" d="M0 0h17.103v17.103H0z"/></clipPath></defs></svg>