<svg width="28" height="28" fill="none" xmlns="http://www.w3.org/2000/svg"><circle cx="14.185" cy="13.814" r="13.814" fill="red"/><g clip-path="url(#clip0)"><path d="M21.864 9.806a2.009 2.009 0 00-1.413-1.414c-1.255-.343-6.274-.343-6.274-.343s-5.019 0-6.273.33A2.05 2.05 0 006.49 9.806c-.33 1.254-.33 3.856-.33 3.856s0 2.615.33 3.857a2.009 2.009 0 001.414 1.413c1.267.343 6.273.343 6.273.343s5.02 0 6.274-.33a2.009 2.009 0 001.413-1.413c.33-1.255.33-3.857.33-3.857s.014-2.615-.33-3.87zm-9.285 6.26v-4.808l4.174 2.404-4.174 2.404z" fill="#fff"/></g><defs><clipPath id="clip0"><path fill="#fff" transform="translate(5.633 5.262)" d="M0 0h17.103v17.103H0z"/></clipPath></defs></svg>