<svg width="58" height="58" fill="none" xmlns="http://www.w3.org/2000/svg"><g clip-path="url(#clip0)"><path d="M56.025 15.741a7.088 7.088 0 00-4.964-5.008c-4.408-1.216-22.04-1.216-22.04-1.216s-17.63 0-22.038 1.17c-2.366.655-4.314 2.62-4.964 5.054C.86 20.187.86 29.407.86 29.407s0 9.266 1.16 13.665a7.09 7.09 0 004.965 5.008c4.454 1.217 22.038 1.217 22.038 1.217s17.63 0 22.039-1.17a7.088 7.088 0 004.964-5.008c1.16-4.446 1.16-13.666 1.16-13.666s.046-9.266-1.16-13.712z" fill="red"/><path d="M23.408 37.924l14.661-8.518-14.66-8.517v17.035z" fill="#fff"/></g><defs><clipPath id="clip0"><path fill="#fff" transform="translate(.86 .972)" d="M0 0h56.326v56.816H0z"/></clipPath></defs></svg>