<svg width="1050" height="102" fill="none" xmlns="http://www.w3.org/2000/svg"><path d="M10.756 10.122v39.356h52.616v9.16H10.756v42.503H0V.963h69.767v9.16H10.756zM135.177 102c-10.077 0-19.234-2.195-27.471-6.583-8.14-4.484-14.535-10.59-19.186-18.319-4.554-7.727-6.831-16.41-6.831-26.046s2.277-18.318 6.831-26.046c4.651-7.728 11.047-13.787 19.186-18.175C115.943 2.347 125.1.104 135.177.104c10.078 0 19.138 2.195 27.18 6.584 8.14 4.388 14.535 10.495 19.186 18.318 4.651 7.728 6.977 16.41 6.977 26.046s-2.326 18.366-6.977 26.19c-4.651 7.728-11.046 13.786-19.186 18.175-8.042 4.388-17.102 6.583-27.18 6.583zm0-9.445c8.043 0 15.31-1.766 21.802-5.296 6.492-3.625 11.58-8.586 15.262-14.883 3.682-6.392 5.523-13.5 5.523-21.324 0-7.823-1.841-14.883-5.523-21.18-3.682-6.393-8.77-11.354-15.262-14.884-6.492-3.625-13.759-5.438-21.802-5.438s-15.358 1.813-21.947 5.438c-6.493 3.53-11.628 8.491-15.407 14.884-3.682 6.297-5.524 13.357-5.524 21.18 0 7.824 1.841 14.932 5.524 21.324 3.779 6.297 8.914 11.258 15.407 14.883 6.589 3.53 13.904 5.296 21.947 5.296zm146.928 8.586l-23.256-32.2a74.84 74.84 0 01-8.14.43h-27.325v31.77h-10.756V.963h38.081c12.985 0 23.159 3.053 30.524 9.16 7.364 6.105 11.046 14.501 11.046 25.187 0 7.823-2.035 14.454-6.105 19.892-3.972 5.343-9.689 9.207-17.151 11.592l24.855 34.347h-11.773zm-31.686-40.787c10.077 0 17.781-2.194 23.11-6.583 5.33-4.388 7.994-10.542 7.994-18.461 0-8.11-2.664-14.311-7.994-18.605-5.329-4.388-13.033-6.583-23.11-6.583h-27.035v50.232h27.035zm139.193 31.628v9.159h-71.947V.963h69.767v9.16h-59.011v35.634h52.616v9.016h-52.616v37.21h61.191zM442.947 102c-7.558 0-14.826-1.193-21.802-3.578-6.88-2.385-12.209-5.534-15.989-9.445l4.216-8.158c3.682 3.626 8.575 6.584 14.68 8.873a55.442 55.442 0 0018.895 3.292c9.108 0 15.94-1.622 20.494-4.866 4.554-3.34 6.831-7.632 6.831-12.88 0-4.007-1.259-7.203-3.779-9.588-2.422-2.386-5.426-4.198-9.011-5.439-3.585-1.335-8.576-2.767-14.971-4.293-7.655-1.908-13.76-3.72-18.314-5.438a31.388 31.388 0 01-11.773-8.158c-3.198-3.625-4.797-8.539-4.797-14.74 0-5.057 1.357-9.636 4.07-13.739 2.713-4.198 6.88-7.537 12.5-10.018 5.62-2.48 12.597-3.72 20.93-3.72 5.814 0 11.483.81 17.006 2.432 5.62 1.527 10.465 3.674 14.535 6.44l-3.634 8.444a48.783 48.783 0 00-13.663-6.154c-4.845-1.43-9.593-2.146-14.244-2.146-8.914 0-15.649 1.717-20.203 5.152-4.458 3.339-6.686 7.68-6.686 13.023 0 4.007 1.211 7.25 3.634 9.731 2.519 2.385 5.62 4.246 9.302 5.582 3.779 1.24 8.818 2.623 15.116 4.15 7.461 1.813 13.469 3.625 18.023 5.438 4.651 1.717 8.576 4.389 11.773 8.014 3.198 3.53 4.797 8.349 4.797 14.455 0 5.056-1.405 9.684-4.215 13.881-2.713 4.103-6.929 7.395-12.646 9.875-5.717 2.385-12.742 3.578-21.075 3.578zm79.719-91.878H486.91V.963h82.267v9.16h-35.755v91.018h-10.756V10.122zm171.211 91.019l-23.256-32.2c-2.616.286-5.329.43-8.139.43h-27.326v31.77H624.4V.963h38.082c12.984 0 23.158 3.053 30.523 9.16 7.364 6.105 11.046 14.501 11.046 25.187 0 7.823-2.035 14.454-6.105 19.892-3.972 5.343-9.689 9.207-17.151 11.592l24.855 34.347h-11.773zm-31.686-40.787c10.077 0 17.781-2.194 23.11-6.583 5.33-4.388 7.994-10.542 7.994-18.461 0-8.11-2.664-14.311-7.994-18.605-5.329-4.388-13.033-6.583-23.11-6.583h-27.035v50.232h27.035zM729.437.963h10.756v100.178h-10.756V.963zm127.317 0l-45.058 100.178h-10.61L756.028.963h11.628l38.953 87.012L845.853.963h10.901zm86.714 91.019v9.159H871.52V.963h69.767v9.16h-59.011v35.634h52.616v9.016h-52.616v37.21h61.192zm94.762 9.159l-23.26-32.2c-2.62.286-5.33.43-8.14.43h-27.324v31.77H968.75V.963h38.08c12.99 0 23.16 3.053 30.52 9.16 7.37 6.105 11.05 14.501 11.05 25.187 0 7.823-2.03 14.454-6.1 19.892-3.98 5.343-9.69 9.207-17.15 11.592l24.85 34.347h-11.77zm-31.69-40.787c10.08 0 17.78-2.194 23.11-6.583 5.33-4.388 8-10.542 8-18.461 0-8.11-2.67-14.311-8-18.605-5.33-4.388-13.03-6.583-23.11-6.583h-27.034v50.232h27.034z" opacity=".5" fill="#F5F2F2"/></svg>