<svg width="1141" height="103" fill="none" xmlns="http://www.w3.org/2000/svg"><path d="M10.756 10.877v39.355h52.616v9.16H10.756v42.504H0V1.718h69.767v9.159H10.756zm124.421 91.877c-10.077 0-19.234-2.194-27.471-6.583-8.14-4.484-14.535-10.59-19.186-18.318-4.554-7.728-6.831-16.41-6.831-26.046 0-9.637 2.277-18.319 6.831-26.047 4.651-7.728 11.047-13.786 19.186-18.175C115.943 3.101 125.1.86 135.177.86c10.078 0 19.138 2.194 27.18 6.583 8.14 4.389 14.535 10.495 19.186 18.318 4.651 7.728 6.977 16.41 6.977 26.047 0 9.636-2.326 18.366-6.977 26.189-4.651 7.728-11.046 13.786-19.186 18.175-8.042 4.389-17.102 6.583-27.18 6.583zm0-9.445c8.043 0 15.31-1.765 21.802-5.295 6.492-3.626 11.58-8.587 15.262-14.884 3.682-6.392 5.523-13.5 5.523-21.323 0-7.824-1.841-14.884-5.523-21.18-3.682-6.393-8.77-11.354-15.262-14.884-6.492-3.626-13.759-5.439-21.802-5.439s-15.358 1.813-21.947 5.438c-6.493 3.53-11.628 8.492-15.407 14.884-3.682 6.297-5.524 13.357-5.524 21.18 0 7.824 1.841 14.932 5.524 21.324 3.779 6.297 8.914 11.258 15.407 14.884 6.589 3.53 13.904 5.295 21.947 5.295zm146.928 8.587l-23.256-32.2a74.893 74.893 0 01-8.14.429h-27.325v31.771h-10.756V1.718h38.081c12.985 0 23.159 3.053 30.524 9.159 7.364 6.106 11.046 14.502 11.046 25.187 0 7.824-2.035 14.455-6.105 19.893-3.972 5.343-9.689 9.207-17.151 11.592l24.855 34.347h-11.773zm-31.686-40.787c10.077 0 17.781-2.195 23.11-6.583 5.33-4.389 7.994-10.543 7.994-18.462 0-8.11-2.664-14.31-7.994-18.604-5.329-4.389-13.033-6.583-23.11-6.583h-27.035v50.232h27.035zm139.193 31.628v9.159h-71.947V1.718h69.767v9.159h-59.011V46.51h52.616v9.017h-52.616v37.209h61.191zm53.335 10.017c-7.558 0-14.826-1.192-21.802-3.578-6.88-2.385-12.209-5.533-15.989-9.445l4.216-8.157c3.682 3.625 8.575 6.583 14.68 8.873a55.442 55.442 0 0018.895 3.291c9.108 0 15.94-1.622 20.494-4.865 4.554-3.34 6.831-7.633 6.831-12.88 0-4.008-1.259-7.204-3.779-9.589-2.422-2.385-5.426-4.198-9.011-5.438-3.585-1.336-8.576-2.767-14.971-4.294-7.655-1.908-13.76-3.72-18.314-5.438a31.388 31.388 0 01-11.773-8.157c-3.198-3.626-4.797-8.54-4.797-14.74 0-5.057 1.357-9.637 4.07-13.74 2.713-4.197 6.88-7.537 12.5-10.017 5.62-2.48 12.597-3.721 20.93-3.721 5.814 0 11.483.81 17.006 2.433 5.62 1.526 10.465 3.673 14.535 6.44l-3.634 8.443a48.783 48.783 0 00-13.663-6.153c-4.845-1.431-9.593-2.147-14.244-2.147-8.914 0-15.649 1.717-20.203 5.152-4.458 3.34-6.686 7.68-6.686 13.023 0 4.007 1.211 7.251 3.634 9.732 2.519 2.385 5.62 4.245 9.302 5.581 3.779 1.24 8.818 2.624 15.116 4.15 7.461 1.813 13.469 3.626 18.023 5.439 4.651 1.717 8.576 4.388 11.773 8.014 3.198 3.53 4.797 8.348 4.797 14.454 0 5.057-1.405 9.684-4.215 13.882-2.713 4.102-6.929 7.394-12.646 9.874-5.717 2.386-12.742 3.578-21.075 3.578zm79.719-91.877H486.91v-9.16h82.267v9.16h-35.755v91.019h-10.756v-91.02zm171.211 91.019l-23.256-32.2a74.81 74.81 0 01-8.139.429h-27.326v31.771H624.4V1.718h38.082c12.984 0 23.158 3.053 30.523 9.159 7.364 6.106 11.046 14.502 11.046 25.187 0 7.824-2.035 14.455-6.105 19.893-3.972 5.343-9.689 9.207-17.151 11.592l24.855 34.347h-11.773zm-31.686-40.787c10.077 0 17.781-2.195 23.11-6.583 5.33-4.389 7.994-10.543 7.994-18.462 0-8.11-2.664-14.31-7.994-18.604-5.329-4.389-13.033-6.583-23.11-6.583h-27.035v50.232h27.035zm67.246-59.391h10.756v100.178h-10.756V1.718zm127.317 0l-45.058 100.178h-10.61L756.028 1.718h11.628l38.953 87.011 39.244-87.011h10.901zm86.714 91.019v9.159H871.52V1.718h69.767v9.159h-59.011V46.51h52.616v9.017h-52.616v37.209h61.192zm94.762 9.159l-23.26-32.2a74.96 74.96 0 01-8.14.429h-27.324v31.771H968.75V1.718h38.08c12.99 0 23.16 3.053 30.52 9.159 7.37 6.106 11.05 14.502 11.05 25.187 0 7.824-2.03 14.455-6.1 19.893-3.98 5.343-9.69 9.207-17.15 11.592l24.85 34.347h-11.77zm-31.69-40.787c10.08 0 17.78-2.195 23.11-6.583 5.33-4.389 8-10.543 8-18.462 0-8.11-2.67-14.31-8-18.604-5.33-4.389-13.03-6.583-23.11-6.583h-27.034v50.232h27.034zm96.52 40.786c-7.55 0-14.82-1.192-21.8-3.577-6.88-2.386-12.21-5.534-15.99-9.446l4.22-8.157c3.68 3.625 8.57 6.583 14.68 8.873a55.406 55.406 0 0018.89 3.291c9.11 0 15.94-1.622 20.5-4.865 4.55-3.34 6.83-7.633 6.83-12.88 0-4.008-1.26-7.204-3.78-9.589-2.42-2.385-5.43-4.198-9.01-5.438-3.59-1.336-8.58-2.767-14.97-4.294-7.66-1.908-13.76-3.72-18.32-5.438a31.465 31.465 0 01-11.77-8.157c-3.2-3.626-4.8-8.54-4.8-14.74 0-5.057 1.36-9.637 4.07-13.74 2.72-4.197 6.88-7.536 12.5-10.017 5.62-2.48 12.6-3.721 20.93-3.721 5.82 0 11.49.811 17.01 2.433 5.62 1.526 10.47 3.673 14.53 6.44l-3.63 8.444a48.779 48.779 0 00-13.66-6.154c-4.85-1.431-9.59-2.147-14.25-2.147-8.91 0-15.64 1.717-20.2 5.152-4.46 3.34-6.69 7.68-6.69 13.023 0 4.007 1.22 7.251 3.64 9.732 2.52 2.385 5.62 4.245 9.3 5.581 3.78 1.24 8.82 2.624 15.12 4.15 7.46 1.813 13.47 3.626 18.02 5.439 4.65 1.717 8.58 4.388 11.77 8.014 3.2 3.53 4.8 8.348 4.8 14.454 0 5.057-1.41 9.684-4.22 13.882-2.71 4.102-6.92 7.394-12.64 9.875-5.72 2.385-12.74 3.577-21.08 3.577z" opacity=".5" fill="#F5F2F2"/></svg>