<svg width="96" height="45" fill="none" xmlns="http://www.w3.org/2000/svg"><path d="M56.988 17.499h2.59v1.825h-2.59v5.271H54.98v-12.77h5.308v1.825h-3.301v3.85zm4.286-2.61c0-2.043 1.077-3.21 3.047-3.21 1.97 0 3.046 1.167 3.046 3.21v6.64c0 2.042-1.076 3.21-3.046 3.21-1.97 0-3.047-1.168-3.047-3.21v-6.64zm2.007 6.769c0 .912.401 1.259 1.04 1.259.638 0 1.04-.347 1.04-1.26v-6.894c0-.913-.402-1.26-1.04-1.26-.639 0-1.04.347-1.04 1.26v6.895zm9.759 2.936c-.108-.328-.182-.53-.182-1.568v-2.007c0-1.185-.402-1.623-1.313-1.623h-.693v5.2h-2.006v-12.77h3.027c2.08 0 2.974.967 2.974 2.937v1.004c0 1.313-.42 2.17-1.313 2.59 1.004.42 1.332 1.388 1.332 2.72v1.97c0 .62.019 1.076.219 1.55h-2.044v-.003zm-2.188-10.946v3.923h.785c.748 0 1.204-.328 1.204-1.35v-1.26c0-.912-.31-1.313-1.021-1.313h-.968zm7.515 3.558h2.755v1.825h-2.755v3.74h3.466v1.824h-5.474v-12.77h5.474v1.825h-3.466v3.556zm7.589-5.528c1.952 0 2.954 1.168 2.954 3.21v.403h-1.897v-.53c0-.912-.366-1.26-1.004-1.26s-1.004.348-1.004 1.26c0 2.627 3.923 3.119 3.923 6.767 0 2.043-1.022 3.21-2.992 3.21s-2.99-1.167-2.99-3.21v-.785h1.897v.913c0 .912.402 1.24 1.04 1.24s1.04-.328 1.04-1.24c0-2.627-3.922-3.119-3.922-6.767 0-2.043 1.003-3.21 2.954-3.21zm3.722.147h6.203v1.825h-2.098v10.945h-2.006V13.65H89.68v-1.824h-.002zM59.177 39.047c-.11-.328-.183-.53-.183-1.568v-2.006c0-1.185-.402-1.623-1.313-1.623h-.693v5.199H54.98v-12.77h3.03c2.08 0 2.973.966 2.973 2.938v1.003c0 1.313-.419 2.17-1.312 2.591 1.004.42 1.331 1.387 1.331 2.719v1.97c0 .62.02 1.076.22 1.55h-2.046v-.003zm-2.19-10.945v3.923h.785c.75 0 1.205-.328 1.205-1.35v-1.26c0-.913-.311-1.313-1.022-1.313h-.967zm5.731-1.825h2.006v12.77h-2.006v-12.77zm7.122 10.417l1.531-10.417h1.842l-1.97 12.77h-2.99l-1.97-12.77h2.024l1.532 10.417zm6.493-5.034h2.755v1.824h-2.755v3.74H79.8v1.825h-5.474v-12.77H79.8v1.825h-3.466v3.555zm9.307 7.387c-.11-.328-.183-.53-.183-1.568v-2.006c0-1.185-.402-1.623-1.313-1.623h-.694v5.199h-2.006v-12.77h3.028c2.08 0 2.974.966 2.974 2.938v1.003c0 1.313-.42 2.17-1.313 2.591 1.004.42 1.332 1.387 1.332 2.719v1.97c0 .62.019 1.076.219 1.55H85.64v-.003zm-2.19-10.945v3.923h.785c.749 0 1.204-.328 1.204-1.35v-1.26c0-.913-.31-1.313-1.02-1.313h-.968zm8.098-1.97c1.953 0 2.955 1.168 2.955 3.21v.402h-1.897v-.53c0-.912-.364-1.258-1.004-1.258-.639 0-1.004.346-1.004 1.259 0 2.627 3.922 3.119 3.922 6.767 0 2.043-1.02 3.21-2.99 3.21-1.97 0-2.992-1.167-2.992-3.21v-.785h1.898v.913c0 .912.401 1.24 1.04 1.24.638 0 1.04-.328 1.04-1.24 0-2.627-3.923-3.12-3.923-6.767 0-2.045 1.004-3.21 2.955-3.21zm-80.242-2.035c-.124-.207-.042-.288-.33 0-.288.288-.165.246-.207.536-.041.288.288.288.247.578-.041.288-.166.371-.578.454-.412.083-.288.165-.62 0-.329-.166-.329-.454-.329-.454s-.33.166-.453.166c-.124 0-.247-.042-.247.37 0 .413.166.372.207.579.041.206.454.165.495.495.042.329-.207.741.083.948.288.207.66-.246.742 0 .082.247.412-.207.412-.207l.288-.578.454-.246s-.825.083-.99-.042c-.166-.124-.166-.37-.166-.37s.907-.62.99-.454c.083.165.578 0 .578 0v-1.237c0-.002-.454-.331-.576-.538zm9.774-6.174l-.04-.014s0 .056.04.014zm-3.218 6.876c-.207.082-.207-.125-.702-.166-.495-.041-.207.207-.37.247-.165.04-.125.207-.125.207l-.288.207-.247.702-.453.33s-.288.04-.492-.099c-.203-.14-.003-.19 0-.235.004-.044.162-.16-.003-.572-.166-.413.495-.33.495-.33v-.288l-.207-.165h-.288s-.288.124-.33.165c-.041.041-.578.33-.7.537-.124.207-.288.33-.454.495-.165.165 0 .412 0 .412v.247l-.33.288h-.412l-.246.288s-.288.246-.247.37c.042.125 0 .289.33.496l.027.017c.102-.085.45-.373.59-.512.166-.166.247.453.288.495.042.041.702-.33.702-.33s.288.042.437-.146c.148-.187.183-.06.346-.268.166-.207.371 0 .371 0l.371-.124.33.37.55.372s.317.205.359.124c.041-.083.453-.288.37-.33-.082-.04.33 0 0-.412-.329-.412-.04-.041-.09-.612-.003-.048.173-.17.09-.337-.082-.165.33-.246.33-.246s.578-.288.7-.64c.125-.35 0-.557 0-.557s-.495-.083-.702 0zm5.61-17.861c0 .247.537.207.537.207l.33-.207-.454-.742-.208-.453.207-.454.247-.207.207-.37.288-.125s.371.124.288-.247c-.083-.37-.578-.578-.578-.578-.124.042-.246.207-.577.413-.33.207-.413.207-.578.495-.166.288.207.33 0 .578-.207.246.041.33-.042.619-.082.288-.124.412-.041.62.086.203.374.203.374.451zm-2.221 21.651l.083.026a1.322 1.322 0 00-.083-.026zm-.706-8.351c-.124-.059-.004-.183-.373-.183s-.63-.041-.685 0c-.055.041.204-.047-.193.183-.398.23-.191-.1-.398.27-.207.372.165.247-.166.33-.33.083-.454-.37-.742 0-.288.371-.453-.124-.619 0-.166.124-.274-.083-.447.207-.172.288.01.299-.348.5-.359.202-.359.088-.607.29-.249.202-.866-.17-.95-.005-.082.166-1.198.447-1.32.554-.123.107-.494.436-.494.436s-.074.468.231.523c.306.055.677-.07.842.096.166.166.58-.15.723.07.143.219.52.391.621.18.1-.21.183-.869.183-.869s.516-.309.516-.433-.014-.13.24-.003l.667.333.017-.806.314-.06.186-.306.228.842s.041.083.207 0c.166-.083.33-.742.33-.742s.33-.495.37-.453c.042.041.413-.124.516.02.104.145.263-.227.452 0 .19.228.476.27.6.352.125.083.211-.234.373-.241.164-.007.292-.48.292-.48l-.292-.272c-.005-.002-.15-.274-.274-.333z" fill="#4E4E4E"/><path d="M12.819 27.95l-.028.025s.309.155.028-.025zm3.187-9.05c.083.287.33.082.33.329s-.207.33-.247.412c-.041.083-.207.37-.041.412.165.042.702-.33.702-.33s.62-.165.412-.287c-.207-.124-.247-.371-.247-.537 0-.165.207-.866.247-.619.041.247.33.041.537 0 .207-.041.453-.37.453-.37s0-.289-.288-.289-.702.288-.702.288-.165-.124-.495-.041c-.33.083-.33-.247-.62.041-.289.288-.287.454-.287.371 0-.083-.33.412-.207.495.124.083.372-.164.453.124zm8.414-9.735s.166.124 0 .288c-.165.166-.246-.041 0 .288.247.33.661.454.742.62.083.165.207.246.371.329.166.083.495-.207.495-.207v-.247s-.165-.288 0-.495c.166-.207 0-.578 0-.578s.207-.453 0-.453-.536-.083-.495 0c.042.082.166.082 0 .412a.593.593 0 000 .578l-.165-.247s-.247-.33-.454-.288c-.207.041-.493 0-.493 0zm-6.557-4.826c.124.165.453-.207.453 0s.33-.33.288.288c-.041.619.495-.166-.165.7s-.288.537-.578.907c-.288.371-.023.018-.383.504-.36.487-.236.404-.607.61-.371.208.124-.165-.371.208-.495.372-.412.165-.742.37-.33.208-.32-.536-.51 0-.19.537-.19 0-.356.289-.165.288.083-.247-.165.246-.247.495.291-.2-.02.354-.31.554-.475.1-.722.512-.247.413-.33-.246-.578 0-.247.247-.247-.33-.495 0-.247.33.165.33-.247.33-.412 0-.165.246 0 .454.166.207.578 0 .742.329.166.33 0-.124.37.247.372.37.084.124.372.246.288.124.207-.536.578-.246.37.288-.075.179.705.048.78-.131.697-.71.573-.71s-.866-.824-.412-1.113c.453-.288.783-.454.783-.454s.331.014.372.502c.042.488.247.654.288.942.042.288-.082.288.207.536.289.247.56-.133.878.057.32.19.732-.057.732-.057l.246-.783v-.907s.083-.742.289-.495c.207.246.246-.33.495 0 .248.33.412-.042.495.495.082.536.165 1.155.165 1.155s0-.082.207.125c.207.207.207 0 .413.082.207.083.395-.403.733-.326a.845.845 0 00.447-.03c-.17-.394-.604-1.17-.604-1.17l-.41-.335-.127-.324s-.083-.371-.246-.33c-.166.042-.413-.37-.62-.207-.207.164-.741-.288-.783 0-.041.288-.578-.165-.702.247-.124.412-.412.166-.412.537 0 .37-.99.207-.949.288.042.082-.247-.207-.247-.207s-.124-.247 0-.33c.125-.083 0-.412.247-.454.247-.04.371-.288.371-.288s.286-.238.42-.353c-.063.07.016.074.156-.1.166-.207.412-.247.412-.454 0-.207.063-.624.063-.624s.001-.037.03-.325c.03-.288.402-.13.34-.23s.556-.801.597-.967c.042-.165 0-.866 0-.702 0 .164-.259-.143-.52-.07-.263.07-.51-.384-.8-.011-.288.37-.124-.124-.412.33-.288.453.083 0-.288.453a2.37 2.37 0 00-.174.247c.08-.057.143-.083.178-.036zM14.411 6.42c-.03-.022-.024-.006 0 0z" fill="#4E4E4E"/><path d="M17.69 4.378c-.138.112-.312.347-.395.466.186.026.216-.17.395-.466zm4.876 5.282s-.09.055-.221.098c.026.06.045.113.057.15.082.289.163-.248.163-.248zM12.46 5.906l-.023.044c.004.073.023-.044.023-.044zM5.365 17.21c.002 0 .004-.003.006-.005-.008.002-.012.004-.006.004zm4.909-.703c-.082-.33-.37.288-.536.288-.05 0-.119.044-.193.108-.176.145-.392.387-.507.387-.166 0-.33.082-.495 0-.166-.083-.207-.166-.33-.5-.124-.335-.041-.285 0-.682.042-.397.042-.181 0-.428-.041-.246.207 0 .33-.33.124-.329.412-.04.907-.287.495-.247.166-.247.288-.66.123-.415.083-.248.09-.577.007-.328-.049-.25-.378-.785-.33-.536-.33-.041-.66-.288-.33-.247-.042.124-.266.014-.225-.109-.437.357-.808.481-.37.124-.246.288-.246.288l.134.497.485.37s-.124.662-.37.579c-.248-.083-.208.207-.353.017a123.73 123.73 0 01-.514-.678l.33-.288c0-.33-.33.288-.52.002-.19-.288-.14.493-.14.493v.495l.125.66s0 .372-.135.268c-.134-.103-.277.35-.402.385-.124.034-.37.253-.495.17-.119-.079-.2.646-.243.7.057-.018.445-.1.738-.246.33-.165.288-.124.537-.165.247-.042.578-.083.536 0-.041.082.288.246.166.412-.124.165-.041.288-.166.412-.124.124-.33.66-.33.66l.015.484s.522.3.935.012c.412-.288.288.083.412-.247s.247-.288.33-.453c.082-.166.577.082.907-.166.33-.247.453 0 .824-.288.371-.288.166-.207 0-.825-.167-.619.081.042-.002-.29zm1.649-4.042c-.165.083-.124-.288-.124-.288s0-.207.083-.412c.083-.207.165-.413.041-.413s-.124-.041-.33 0c-.206.042-.206-.041-.37 0-.166.042-.37.207-.37.207s.123.207-.125.454c-.247.247-.166-.041-.247.247-.08.288.083.246.124.37l.454.208s.083.041.166.165c.082.124.412.207.412.207l.247-.207.246-.33c0-.003-.041-.29-.207-.208zM9.51 10.25l.058.06a.808.808 0 00-.057-.06zm33.887 7.042s.034-.092.167-.254a1.897 1.897 0 01-.167-.076c-.578-.29 0 .33 0 .33zm-9.447-.083s.496.288.703.412c.207.124.124.042.246-.247.124-.288.288-.041.321-.15.031-.108.299-.179.423-.427.124-.247.165.124.302.175.136.054-.013.4-.013.4s0 .042.083.247c.083.207.124.247.537 0 .412-.246.083.083.288 0 .207-.082.083-.33.33-.412.246-.083.082-.207.287-.412.207-.207.33.207.371.165.042-.041.207.413.207.413l-.207.702v.207s.288-.124.33-.207c.041-.083.412-.866.453-.866.042 0-.04 0 0-.412.042-.413-.082-.661.083-.703.166-.04-.907-.329-.866-.329.042 0-.37-.083-.37-.083s-.33.288-.62.412c-.12.052-.742.247-.742.247s-.288.207-.453.166c-.166-.042-.371.083-.578 0-.207-.083-.33-.124-.395-.421-.066-.299-.43-.073-.72-.321-.288-.247-.329.041-.602.019-.272-.022-.263.354-.346.435-.083.082.536.293.536.293l.413-.005v.702zm-.659-2.888c-.207-.124-.453-.37-.453-.37.041 0-.268-.122-.36-.123-.094-.002-.011-.373-.218-.29-.207.083-.62-.043-.62-.043s-.329-.164-.577-.04c-.249.124-.33.083-.33.083s-.082-.247-.207-.124c-.124.122-.33.207-.412.412-.083.207-.174.412-.252.599-.077.186-.11.305-.196.452-.088.146-.006.434-.006.434s.185-.284.545-.307c.363-.022.527-.353.527-.353s.37-.207.536-.125c.166.083.028.082.385.083.357.002.65-.219.876-.069.224.152.554-.014.554-.014s.414-.08.208-.205zm7.342 11.549c-.537.041-.083.041-.454.412-.37.371-.702.784-.702.784H38.32s-.246-.166-.536-.289c-.288-.124-1.237-.207-1.237-.207.041.288.66.578.907.825s.33-.083.578.207c.247.288.33 0 .66.247.33.246.537-.125.867 0 .33.124.619-.247.619-.247l.454-.207v-1.239c0 .004.536-.327 0-.286zm-4.083-3.051c-.042 0 0-.33 0-.33s-.413.166-.288-.124c.124-.288.206-.825.288-.702.08.122.33-.125.33-.125s.082-.082.287 0c.207.083.742-.124.66-.124-.08 0 .084-.083.208.124.124.207.412.125.412.125l.166-.454-.454-.37h-.702s-.12.022-.204-.072c-.084-.093-.167-.217-.374-.258-.207-.042.083-.207-.33.124-.412.331-.246.083-.453.412-.207.33-.09.32-.436.324-.347.006-.06-.243-.306.006-.246.246-.495-.166-.288.288.207.453.66.495.578.702-.083.207.62-.083.124.33-.495.412-.495-.166-.866.123a1.83 1.83 0 00-.103.085c.012-.03-.009-.059-.145-.043-.371.041-.495-.412-.702-.041-.207.37-.042.865-.042.865s.454-.329.413.083c-.042.413.578.207.536.288-.041.083.495 0 .495 0l.454-.288.742-.33c0-.001.04-.619 0-.619zm-4.91-4.208c-.083-.165.041-.66-.166-.495-.207.166-.247-.412-.288-.207-.041.207-.166.288-.166.62v.494c0 .33-.04.247-.124.413-.082.165-.288-.537-.288-.537l-.165-.124s.041.166 0 .288c-.042.124.082.7 0 .99-.083.288.082.125 0 .288-.083.166 0 .083.041.247.041.164.33.247.495.371.166.124.495 0 .495 0l.166-.166v-.577s-.166-.454-.166-.578c0-.125.207-.537.166-.578-.042-.037.083-.285 0-.449zm.33-7.095c-.124.042-.33.166-.33.371 0 .207.413.33.62.33.207 0 .247.124.536 0 .29-.125.454-.289.495-.33.042-.041-.041-.536 0-.742.042-.207-.453-.246-.453-.207 0 .042-.578 0-.578 0s-.247-.246-.371-.246-.247.453-.247.453v.042c0 .083.661.124.454.33-.209.205-.002-.042-.126 0zm11.88 1.154c.246.125.37.042.37.042v-.207s-.453-.454-.702-.495c-.246-.042-1.402-.371-1.568-.166-.165.207-.412.62-.412.62s.247.329.412.206c.166-.124.288-.37.537-.207.246.166.412.207.66.166.249-.04.454-.081.703.041zm3.34 8.746c-.206-.083-.287-.578-.453-.412-.165.165-.536 0-.536 0l-.454.412s.33.247.454.207c.124-.041.082-.083.412 0l.825.207s-.042-.331-.247-.414zm-.989-3.878l-.62-.578-.577-.246s-.578-.371-.783-.288a3.918 3.918 0 00-.657.612c.432.172.553.024 1.069.172.578.166.783.042.949.207.165.163.619.121.619.121z" fill="#4E4E4E"/><path d="M52.054 22.394l-.007-.034c-.048-.235-.076-.492-.107-.764-.015-.135-.03-.27-.048-.402a6.705 6.705 0 01-.038-.542c-.024-.56-.055-1.258-.421-1.87-.143-.24-.16-.507-.18-.96a7.894 7.894 0 00-.043-.624c-.088-.747-.234-1.607-.862-2.39l-.055-.07c-.135-.167-.302-.375-.342-.49a15.6 15.6 0 00-2.67-4.83l-.14-.172c-.971-1.197-2.066-2.548-3.859-3.115-.167-.205-.341-.39-.5-.56-.336-.358-.628-.667-.655-.922l-.61-.878-.351-.178c-.318-.16-.6-.305-.887-.448a1.386 1.386 0 00-.802-.204c-.102.007-.164-.022-.514-.41a4.901 4.901 0 00-.618-.604l-.06-.057c-.19-.183-.631-.612-1.285-.495-.406.072-.852-.03-1.37-.148l-.167-.038c-.525-.12-.95.103-1.192.24-.447-.29-.932-.337-1.24-.368a2.46 2.46 0 01-.273-.036c-.645-.354-1.444-.085-1.937.28l-.288-.177a15.023 15.023 0 01-.335-.04 7.234 7.234 0 00-.859-.074 4.675 4.675 0 00-.409-.003l-.164.009a3.728 3.728 0 00-.25.024 2.007 2.007 0 00-.191-.233c-.8-.83-1.88-.913-2.688-.202l.012.542c-.012.012-.019.017-.03.03a3.682 3.682 0 00-.861.035 4.582 4.582 0 01-.397-.09c-.123-.03-.245-.06-.37-.087l-1.31.786-.018.057a2.201 2.201 0 01-.105-.02 5.143 5.143 0 01-.733-.24c-.17-.064-.347-.131-.535-.192a59.886 59.886 0 00-1.908-.597c-.45-.13-.83.018-1.01.088l-.03.01c-.945.358-1.495 1.034-1.916 1.66l-.816.473-.1.269a1.186 1.186 0 00-.56-.109c-.189.01-.487.073-.751.328a1.25 1.25 0 00-.281.147l.202-.464a2.029 2.029 0 00-.844-.171 1.145 1.145 0 00-.802-.07c-.3.082-.98.453-1.168 1.08a4.07 4.07 0 00-.102.432l.205.038-.229.937a.153.153 0 01-.014-.037s.004.018 0 .055l-.003.054c-.613.11-.992.652-1.253 1.023l-.046.065a1.236 1.236 0 00-.235.939c-.39.062-.688.303-.888.717-.097.038-.186.09-.27.152a1.225 1.225 0 00-.45.137 1.154 1.154 0 00-1.015.32c-.404.404-.406.99-.275 1.473a1.307 1.307 0 00-.948.271 1.565 1.565 0 00-.358.392l-.686.452-.043.1c-.149.16-.342.385-.466.59-.37.616-.17 1.513.183 2.184-.02.024-.02.026-.042.051a1.112 1.112 0 00-.698.007c-.281-.201-.84-.465-1.558-.093l-.58.756a9.593 9.593 0 00-.082.422c-.14.371-.273.742-.402 1.104l-.15.421.272.52a17.852 17.852 0 00-.248 1.821c-.016.183-.002.371.038.557-.045.24-.074.483-.095.73-.27.386-.366.899-.281 1.537.036.274.095.528.152.766l.019.08c.051.216.101.422.127.608-.593.894-.495 1.934.252 2.607.02.019.042.036.06.055.045.226.12.448.221.66l.418-.086-.154.17c.162.148.276.224.394.301l.203.138c.252.178.504.247.712.267.468.397 1.122.43 1.62.21l.34-.522c.074-.01.147-.026.216-.041.012.012.022.026.034.036a1.832 1.832 0 00-.226.19l-.165.165 1.199 1.574a.894.894 0 01-.182-.23c.092.166.195.292.304.388l.026.035s-.009.007-.023.012c-.151.057-.269.157.076.21.133.021.256.018.368 0 .04.012.076.023.112.03.266.057.523.027.773-.092l.008.004c.052.114.114.236.18.346v.002c.058.13.133.228.188.3a1.21 1.21 0 001.074.492c.228.104.442.12.625.1l.241.992c.176.041.335.067.485.08l.114.023c.24.05.447.087.652.114.498.067.983.031 1.432-.103 1.93 1.03 3.627.786 5.323-.763.164-.15.333-.293.509-.434.417.503 1.154.626 1.606.538.433-.085.847-.209 1.214-.316l.385-.112.383-.664h.043c.357-.004.892-.007 1.349-.352.072.038.16.093.197.116.1.062.207.122.315.18.093.052.228.127.297.177.176.422-.024 1.116-.412 1.373-.402.265-.994.626-1.475.693-1.884.26-3.755.459-5.737.668-.744.077-1.494.157-2.253.241l-.394.099c-1.078.267-1.054 1.807.033 2.04l.454.097c1.366.036 2.893.08 4.483.128-4.066.669-6.04 1.657-6.04 3.33 0 .052 0 .102.004.139.187 3.094 6.481 5.34 14.968 5.34 9.17 0 13.647-3.172 13.833-3.307.505-.591.33-1.5-.36-1.861l-.321-.167c-2.76.055-5.872-.047-7.953-.278.544-.145 1.106-.29 1.606-.418 4.846-1.243 6.523-1.745 6.523-3.17 0-.9-.796-1.444-2.836-1.939-1.762-.428-4.268-.737-7.254-.894-.378-.144-.574-.355-.704-.743l-.074-.217c-.081-.232-.166-.471-.17-.62l-.02-.383c-.053-.904-.01-1.085.295-1.286l.018-.012.341.122.012.036c.05.159.112.355.22.554l1.045.578.038-.002.04.057c.296.423.717.675 1.188.707.27.02.536-.034.778-.157.326.145.65.152.84.157a5.476 5.476 0 00.435.007 2.66 2.66 0 01.206.002c.306.133.616.32.944.517l.264.16c.847.501 1.73.534 2.565.097.5.2.949.183 1.334-.055.09-.057.174-.122.246-.197.635.16 1.296-.008 1.87-.505.14-.12.26-.243.368-.352a5.12 5.12 0 01.222-.219c1.38-.107 2.648-.376 3.773-.804.714-.27 1.61-.71 2.204-1.71a3.17 3.17 0 00.204-.408c.878-.236 1.494-.849 1.749-1.753.146-.519.227-1.031.303-1.528.028-.18.056-.352.085-.52.37-.304.662-.813.483-1.695zm-1.206.916c-.09.033-.14.245-.165.383-.135.709-.202 1.437-.397 2.127-.155.545-.51.92-1.175 1.02-.162.024-.305.17-.447.341a1.888 1.888 0 01-.217.535c-.381.642-.963.976-1.639 1.233-1.199.455-2.503.683-3.791.757-.075.054-.149.11-.22.166-.248.193-.45.447-.69.654-.465.403-.926.38-1.381-.035-.085-.077-.22-.1-.33-.148-.048.116-.138.231-.136.347.005.477-.143.566-.581.34-.181-.094-.516-.06-.699.05-.547.327-1.05.301-1.578-.01-.454-.27-.902-.56-1.387-.763-.259-.109-.585-.059-.882-.074-.383-.021-.824.06-.762-.67a23.34 23.34 0 00-.195.078c-.124.141-.247.285-.374.423-.263.277-.535.184-.711-.064-.39-.558-.373-.57-1.06-.532-.234-.426-.178-1.288-1.074-.759-.295-.803-.404-.803-1.116-.336-1.026.674-.816 1.69-.781 2.648.014.388.176.774.302 1.152.288.863.857 1.28 1.552 1.5 6.966.355 9.184 1.396 9.184 1.72 0 1.167-10.17 2.778-10.17 3.632 0 1.577 11.14 1.358 11.14 1.358s-4.263 3.092-13.174 3.092c-8.805 0-13.731-2.342-13.849-4.286a.935.935 0 01-.003-.071c0-3.096 18.937-3.17 21.645-3.628.506-.377-21.18-.952-21.18-.952 2.76-.303 5.4-.548 8.022-.912.676-.093 1.352-.482 1.939-.87.892-.588 1.25-1.978.754-2.898-.175-.324-.635-.505-.982-.72-.46-.286-.893-.515-1.45-.068-.246.197-.717.105-1.082.155-.162.023-.323.073-.483.109l.148.578c-.474.133-.985.305-1.511.407-.174.034-.485-.059-.549-.186-.065-.13.038-.432.168-.556.265-.259.343-.47-.052-.831-.737.57-1.525 1.105-2.222 1.74-1.376 1.256-2.567 1.44-4.183.523a6.4 6.4 0 00-.214-.116 2.303 2.303 0 01-.159-.026c-.396.207-.841.262-1.293.202a7.995 7.995 0 01-.575-.1l-.193-.04a1.86 1.86 0 01-.374-.055c.019-.015.038-.032.058-.05.125 0 .371-.207.371-.207h.288s.083-.083.289-.083c.207 0 .165.207.412-.041.246-.247.207.166.453 0 .247-.166.371 0 .371 0h.33s.412-.166.403-.417c-.008-.254-.115-.037-.182-.032-.068.006-.347-.046-.223-.293.124-.246-.495.207-.918.155-.422-.051-.567.177-.938.135-.37-.041-.412-.207-.91-.266-.5-.058-.327.225-.586 0-.258-.224-.402.1-.526-.063-.124-.164 0 0-.124-.207s-.247-.537-.247-.537-.412-.247-.453-.33c-.042-.082-.578 0-.723-.017-.145-.017-.226.266-.381-.015-.156-.281-.34.281-.533 0-.194-.281-.673-.009-.673-.009l.166-.165c.165-.166.536-.288.619-.495.083-.207.083-.207.083-.495 0-.289-.125-.33-.125-.454s-.246-.166-.412-.412c-.165-.247-.33-.042-.288-.33.041-.288-.825.207-.99.083-.166-.124-.495.124-.495.165l.002.456s-.373.164-.537-.166c-.166-.33-.412 0-.697-.2-.284-.2-.334-.212-.486-.352l-.01.259a1.572 1.572 0 01-.16-.631v-.107a7.748 7.748 0 01-.382-.325c-.352-.317-.349-.753-.047-1.185.13-.184.19-.472.16-.698-.036-.283-.106-.563-.172-.84a6.644 6.644 0 01-.131-.654c-.047-.347-.052-.714.25-.895l.005.04v.66l-.124.85c.002.002.907.47 1.01.642.104.173.434.283.774.136.34-.145.553-.043.553-.043s.385.393.306.595c-.08.202-.31.416-.31.416l.636.447s.414-.323.628-.46c.214-.139.486-.48.528-1.1.04-.619 0-.041-.2-.634-.2-.594-.213-.107-.09-.644.124-.536-.083-.412.09-.564.17-.152.324-.26.58-.281.258-.02.403.104.527-.02.124-.125.288.329.33.66.04.331.124.412 0 .62-.125.206-.247.577-.323.967-.074.39.32.362.32.362s.703-.01.877-.108c.174-.1.443-.025.431 0-.014.024.207.608.207.608s.59.316.673-.013c.083-.33-.166-.288-.188-.596-.023-.305.064-.312.23-.56.165-.247.04-.371.412-.742.37-.37.453-.246.536-.495.083-.247.702 0 .702 0s.907-.166 1.196-.041c.288.124.207-.288.476-.421.27-.133.265-.692.215-.839-.051-.145-.155-.348-.353-.78-.199-.429-.256-.353-.338-.724-.083-.37-.495-.412-.371-.783.124-.37.165-.288.37 0 .208.288.166.37.537.495.37.124.247-.166.62-.041.37.124.165-.62.453-.866.288-.247-.124-.288-.166-.495-.041-.207-.246-.371-.207-.62.042-.246-.207-.577 0-.824s.247-.288.247-.288l.91.288.348.309 1.03-.176s.743-.444.826-.402l.495.246s.702.083.764.144c.064.06.597-.143.597-.143l.612-.556s.46-.435.666-.352c.207.083.041-.33-.162-.481-.204-.152-.17-.21-.17-.21l.177-.394s.878-1.206.59-1.287c-.288-.083-.454.207-.783.124-.33-.082-.413.247-.413.247l-.246.454v.578l-.288.578s-.537.329-.896.267c-.227-.04.318-.431.194-.721-.125-.29.412-.742 0-.908-.413-.165-.207 0-.207 0s-.496.62-.578.784c-.083.165-.247.66-.578.578-.33-.083-.371 0-.371 0s-.866-.125-.949-.288c-.083-.166-.041-.289-.041-.289s-.166-.741-.247-.577c-.083.165-.37.04-.37.04v.662s-.247.453-.496.37c-.247-.082-.412-.082-.37-.207.04-.124-.289-.288-.289-.288l-.246-.577-.33.577s-.041.537-.083.578c-.041.042-.536 1.278-.502 1.332.035.052.007.278.007.278s.083.578-.454.536c-.536-.041-.453 0-.453 0s-.031.102-.08.243c-.108.32-.302.842-.415.872-.166.04-.454 0-.525.086-.07.086-.63.657-.59.862.042.207.288.33.433.24.145-.091.763.174 1.175.297.412.122.47.681.47.681l-.156.585-.714.145s-.383-.174-.302-.133c.083.041-.37-.124-.597-.012-.226.11-.022.385-.022.385s-.454.165-.702.165c-.247 0-.166-.33-.166-.33l-.355-.218s-.347-.235-.306-.318c.042-.083-.453-.041-.702-.246-.246-.207-.246 0-.246 0s-.166-.371-.454-.207c-.288.163-.521.367-.521.367s-.22.126-.285.207c-.063.08-.183.086-.719.045-.536-.042-.454 0-.454 0s-.741.949-1.031 1.073c-.29.124 0 .246 0 .495 0 0-.288.536-.392.643-.102.107-.269.14-.516.016-.246-.124 0-.083-.034-.333a6.808 6.808 0 00-.14-.733c-.091-.406-.033-.212-.033-.46 0-.154-.662-.196-1.1-.235a6.29 6.29 0 01.15-1.077.85.85 0 01-.076-.414c.055-.662.15-1.318.285-1.965a1.985 1.985 0 01-.171-.036l-.198-.053c.193-.538.38-1.077.584-1.611.026-.16.056-.32.09-.477.117-.06.245-.115.416.03.288.246.246.124.578.246.33.125.536-.412.33.125-.208.536-.353.38-.28.788.072.409-.216.119-.01.448.206.33.165.661.494.661.33 0 .413-.288.62-.246.207.04.165-.578.165-.578l.202-.285s-.08-.128.004-.376c.082-.247.288-.412.288-.412v-.909c0-.125.619-.166.207-.62-.413-.453-.578-1.237-.454-1.444.124-.207.454-.536.454-.536l.124-.288h.578c-.166 0 .082-.578.33-.412.246.165.206.207.494.37.288.164.742-.329.742 0 0 .33.207-.288.454.042.246.33.246.083.495.083.248 0 .412-.537.412-.537s-.825-.33-.907-.536c-.083-.207-.413-.537-.454-.578-.041-.042-.288-.907 0-.62.288.289.62-.287.702-.165.083.122.17-.18.435.18.265.357.183.234.265.398.014.03.031.062.049.097l.029.056.005.012-.005-.012a.763.763 0 00-.03-.056l.044.001-.043-.002c-.176-.353-.476-.998-.09-.92.412.082.454-.825.578-.62.124.207.228-.08.547.27.319.35 1.638.267 1.514.513-.124.247.345-.112.688-.18.344-.066.425-.479.425-.479s-.521-.06-.425-.153c.095-.093-.167-.181-.167-.181s.264-.573.594-.614c.33-.042.536-.496.741-.289.207.207.33-.207.33-.207s-.371-1.031-.578-.824c-.207.207-.33-.042-.702.247-.371.288-.33.619-.742.783-.412.165-.614-.09-.843.058-.23.149-.6-.18-.476-.346.124-.166.536-.825.702-.62.165.206.329-.124.453-.207.102-.067.287-.412.35-.534a4.175 4.175 0 01.02-.373c.029-.4-.1-.628-.216-.783.076-.035.155-.066.24-.088.018-.105.043-.209.072-.31.043-.144.385-.347.409-.325.072.067.143.117.214.157a.943.943 0 01.669.033c.04-.014.08-.031.117-.048-.141.464-.141.153-.141.622 0 .495 0 .042.165.288.166.247.661.207.578 0-.082-.207.131-.66.333-.495.204.166.168-.628.454-.108.286.52.533.272.452.767-.081.495-.041.866-.33.949-.288.083-.288-.083-.578 0-.288.083-.165-.166-.329.083-.064.096-.122.105-.152.1a.938.938 0 01.152.148c.288.33.378.017.333.174-.045.157.209-.322 0 .392s-.086.466-.004.424c.083-.041.458-.396.518-.424.06-.03.143-.524.39-.564.247-.042.578-.99.578-.866s.165-.454.37-.37c.208.082.496-.413.496-.413l.05-.073a.326.326 0 01-.05-.01c-.288-.083-.742-.536-.742-.33V4.35l.247-.66.084-.225c.155.026.307.07.449.138.419-.652.83-1.313 1.63-1.615.105-.04.234-.1.33-.072.627.183 1.252.383 1.873.586.462.152.912.364 1.385.464.914.194 1.195-.006 1.43-.822.352.074.693.19 1.038.212.245-.052.494-.067.74-.05.135-.02.273-.04.416-.055-.003.04-.007.077-.012.113.172.038.341.094.507.163.007-.073.012-.145.02-.218.023-.243.039-.486.06-.73l-.15-.118c.415-.366.841-.171 1.141.138.218.226.216.476.13.709a5.95 5.95 0 01.888-.125 2.666 2.666 0 01.435-.045c.105-.003.21-.001.317.004l.057.005c.343.004.688.066 1.075.105.41.635.433.611.968.049.188-.197.658-.383.834-.283.542.308 1.317-.018 1.718.657.035.059.389-.048.584-.112.24-.08.495-.318.695-.271.657.148 1.293.32 1.982.197.124-.023.296.207.445.324.602.473.952 1.33 1.916 1.257.07-.005.147.054.218.088l1.235.625c.101.924.997 1.492 1.56 2.275.03.045.096.076.15.092 1.681.44 2.678 1.749 3.689 2.99a14.46 14.46 0 012.479 4.484c.112.328.36.621.585.899.432.538.543 1.138.622 1.82.078.662-.03 1.35.375 2.028.317.531.222 1.311.308 1.98.054.415.085.835.168 1.244.063.306.136.571-.273.716z" fill="#4E4E4E"/><path d="M44.22 16.424c.703-.535-.205.083 0 0zm-9.487-4.166c-.041.124.154.2.154.2l.341.005h.247s.041-.165 0-.246a5.958 5.958 0 01-.124-.289v-.37s-.454.39-.62.38c-.162-.01.043.197.002.32zm6.754 7.609a5.467 5.467 0 01-.882-.178c-.233-.076-.262-.007-.438.131l.383.235-.22.535s.261.126.482.177c.22.052.11.03.276-.175.166-.207.537 0 .737-.002.2-.002.13-.288.136-.535.005-.248-.255-.166-.474-.188zm-18.015 3.115c.083-.288-.083-.37 0-.702.083-.331-.495-.207-.412-.37.082-.166-.495-.042-.495 0l-.371.165.37.207s.208.37 0 .702c-.098.157-.453.288-.701.247-.247-.042 0 .288 0 .288l.329.37s.33.33.37.208c.042-.125.579.082.703-.125.124-.207.124-.207.207-.412.083-.205-.081-.288 0-.578zm4.621-10.27l-1.195.041-1.116 1.133-1.977-.35-1.939 1.774.813-.028s-.131.42-.007.378c.124-.042.66-.166.824-.288.166-.125.083-.495.33-.742s.247-.288.247-.288.757.217.822.21c.02.054.204.378.168.449-.042.083.288.949.288.949s.124-.454.207-.577c.082-.122.302-.833.302-.833l.605-.364s.825.371 1.002.238c.178-.133.4-.569.4-.569l1.382-.392-.165-.741h-.99zm.084-3.595c.107-.468-.075-.064 0 0zm-1.532 14.896l.005.001s.007-.049-.005-.001zm.788-6.393c-.288-.04-.495 0-.495 0s-.207.289-.453.248c-.247-.042-.454-.083-.702.041-.247.124-.207-.288-.578-.041-.371.246-.371.082-.702.412-.33.33-.578.99-.578.99s-.413-.041-.371.37c.041.413-.041.62 0 .784.041.166.166.083.207.37.041.289.288.33.37.579.084.246.33.083.33.33 0 .246.454 0 .454 0v-1.281s-.083-.165 0-.207l.33-.165s.206-.33.287-.413c.083-.082.62-.37.496-.207-.125.164 0 .207 0 .207s-.249.145-.249.366v.047c.042.246.124.66.247.741.124.083.454-.37.454-.37v-1.237l.165-.413.288-.246.495-.247s.042-.33 0-.412c-.036-.08.293-.204.005-.245z" fill="#4E4E4E"/><path d="M28.216 9.124a.042.042 0 01-.04-.007l-.001.007c-.124.536-.041.288 0 .619.041.33.124.37.207.495.083.124-.041.083.288.207.33.124.578-.207.578-.207s-.124-.536-.247-.495c-.124.041-.33-.288-.33-.288v-.33l.33-.246.247-.207v-.247s-.907.207-1.032.288c-.122.081.166.37 0 .41zm-1.868 14.921c-.055.114-.276.257-.395.15-.12-.107-.335.19-.457.19-.123 0-.578.412-.578.412v.33s-.042.329 0 .453c.041.124.247.537.247.537l.37.288-.041-.288s-.083-.33-.166-.33c-.082 0 .042-.246.247-.66.207-.413.33.124.537-.33.207-.454.37-.083.465-.502.038-.172.057-.25.066-.283-.03-.009-.245-.072-.295.033zm8.509-13.533c.166.221.337.464.499.445.162-.019.369.023.574-.019.207-.041.181-.179.606-.193.424-.014.507.316.631.193.124-.124.247-.041.288-.165.041-.124-.288-.62-.288-.62 0-.04-.255-.15-.478-.24-.222-.089-.569-.14-.747-.156-.177-.016-.548.067-.714.191a2.664 2.664 0 00-.37.33c-.165.165-.165.012 0 .234zm2.6 3.314c-.33.124-.246 0-.288 0-.041 0-.62.536-.62.536l.325.18.417-.138h.537l.207.246s0 .289.124.371c.124.083.45.288.45.288s.953-.163.828-.495c-.124-.33.247-.246-.082-.412-.33-.165.041 0 0-.207-.042-.207-.661-.37-.661-.37l-.537-.289c0 .002-.37.166-.7.29zm-.907-5.939c.165-.247.247.165.62.288.37.124.328.124.679.238.35.115.145-.157.598-.116.454.042-.083-.165-.017-.574.066-.409-.148-.17-.273-.416-.124-.246-.458-.014-.458-.014s-.404-.136-.41-.15c-.056.01-.751.097-.751.097s-.276.233-.273.412c.004.181-.003.521-.003.521s.122-.04.288-.286zM22.319 18.28v-.742l-.866-.495s0 .124-.207.578c-.087.19-.137.27-.166.302.128.043.516.186.62.359.124.205.619-.002.619-.002z" fill="#4E4E4E"/></svg>