<svg width="242" height="113" fill="none" xmlns="http://www.w3.org/2000/svg"><path d="M143.227 44.326h6.547v4.611h-6.547v13.32h-5.069V29.991h13.412v4.611h-8.343v9.724zm10.832-6.594c0-5.16 2.719-8.111 7.697-8.111 4.977 0 7.697 2.95 7.697 8.11v16.777c0 5.16-2.72 8.111-7.697 8.111-4.978 0-7.697-2.95-7.697-8.11V37.731zm5.069 17.103c0 2.306 1.015 3.182 2.628 3.182 1.613 0 2.628-.876 2.628-3.182V37.414c0-2.306-1.015-3.182-2.628-3.182-1.613 0-2.628.876-2.628 3.182v17.421zm24.66 7.418c-.275-.828-.462-1.338-.462-3.962v-5.07c0-2.993-1.016-4.1-3.317-4.1h-1.752v13.136h-5.069V29.991h7.649c5.256 0 7.514 2.445 7.514 7.422v2.537c0 3.317-1.059 5.483-3.317 6.547 2.537 1.059 3.365 3.504 3.365 6.869v4.977c0 1.57.048 2.72.553 3.919h-5.164v-.01zm-5.531-27.655v9.911h1.983c1.891 0 3.042-.828 3.042-3.413v-3.181c0-2.306-.785-3.317-2.58-3.317h-2.445zm18.99 8.987h6.961v4.611h-6.961v9.45h8.757v4.611h-13.83V29.991h13.83v4.611h-8.757v8.983zM216.42 29.62c4.934 0 7.466 2.951 7.466 8.112v1.016h-4.794v-1.339c0-2.305-.924-3.181-2.537-3.181-1.612 0-2.536.876-2.536 3.181 0 6.639 9.911 7.88 9.911 17.1 0 5.16-2.58 8.11-7.558 8.11-4.977 0-7.558-2.95-7.558-8.11v-1.984h4.795v2.306c0 2.305 1.015 3.133 2.628 3.133 1.613 0 2.628-.828 2.628-3.133 0-6.639-9.911-7.88-9.911-17.1 0-5.16 2.537-8.11 7.466-8.11zm9.406.37H241.5v4.612h-5.3v27.655h-5.069v-27.66h-5.3v-4.606h-.005zm-77.068 68.784c-.279-.828-.462-1.338-.462-3.962v-5.07c0-2.993-1.015-4.1-3.317-4.1h-1.752v13.136h-5.069V66.512h7.654c5.256 0 7.514 2.44 7.514 7.422v2.537c0 3.317-1.059 5.483-3.317 6.547 2.537 1.059 3.365 3.504 3.365 6.869v4.977c0 1.57.048 2.72.554 3.919h-5.17v-.01zm-5.531-27.655v9.911h1.983c1.892 0 3.043-.828 3.043-3.413v-3.181c0-2.306-.785-3.317-2.581-3.317h-2.445zm14.479-4.613h5.069v32.267h-5.069V66.506zm17.992 26.322l3.871-26.322h4.655l-4.978 32.267h-7.558l-4.977-32.267h5.117l3.87 26.322zm16.411-12.722h6.96v4.611h-6.96v9.45h8.756v4.611h-13.83V66.512h13.83v4.611h-8.756v8.983zm23.514 18.668c-.274-.828-.462-1.338-.462-3.962v-5.07c0-2.993-1.015-4.1-3.316-4.1h-1.753v13.136h-5.069V66.512h7.65c5.256 0 7.514 2.44 7.514 7.422v2.537c0 3.317-1.059 5.483-3.317 6.547 2.537 1.059 3.365 3.504 3.365 6.869v4.977c0 1.57.048 2.72.553 3.919h-5.165v-.01zm-5.531-27.655v9.911h1.984c1.891 0 3.042-.828 3.042-3.413v-3.181c0-2.306-.785-3.317-2.58-3.317h-2.446zm20.459-4.977c4.934 0 7.466 2.95 7.466 8.11v1.016h-4.794V73.93c0-2.305-.92-3.181-2.537-3.181-1.613 0-2.537.876-2.537 3.181 0 6.638 9.912 7.88 9.912 17.099 0 5.16-2.58 8.111-7.558 8.111-4.977 0-7.558-2.95-7.558-8.111v-1.983h4.795v2.306c0 2.305 1.015 3.133 2.628 3.133 1.613 0 2.628-.828 2.628-3.133 0-6.639-9.911-7.88-9.911-17.1 0-5.164 2.536-8.11 7.466-8.11zM27.803 60.997c-.313-.523-.104-.728-.832 0s-.418.623-.523 1.356c-.105.727.728.727.623 1.46-.104.728-.418.937-1.46 1.146-1.042.21-.728.418-1.565 0-.832-.418-.832-1.146-.832-1.146s-.833.418-1.146.418c-.314 0-.624-.104-.624.937 0 1.042.419.937.523 1.46.105.523 1.147.419 1.251 1.251.105.833-.523 1.874.21 2.397.727.523 1.669-.623 1.874 0 .209.624 1.041-.522 1.041-.522l.728-1.46 1.146-.624s-2.083.21-2.501-.105c-.419-.313-.419-.937-.419-.937s2.293-1.564 2.502-1.146c.21.418 1.46 0 1.46 0v-3.125c0-.004-1.146-.837-1.456-1.36zM52.5 45.398a3.194 3.194 0 01-.102-.036s0 .142.102.036zm-8.13 17.373c-.523.21-.523-.314-1.774-.419-1.25-.104-.523.524-.937.624-.414.1-.313.523-.313.523l-.728.523-.624 1.774-1.146.832s-.728.105-1.242-.248-.009-.48 0-.593c.009-.113.41-.405-.009-1.447-.418-1.042 1.251-.832 1.251-.832v-.728l-.523-.419h-.728s-.728.314-.832.419c-.105.104-1.46.832-1.77 1.355-.314.523-.728.833-1.146 1.251-.419.419 0 1.042 0 1.042v.623l-.833.728h-1.041l-.624.728s-.727.623-.623.937c.105.314 0 .728.832 1.25l.07.044c.257-.213 1.138-.941 1.49-1.294.42-.419.624 1.146.729 1.25.104.105 1.774-.832 1.774-.832s.728.105 1.102-.37c.375-.47.462-.153.877-.676.418-.523.937 0 .937 0l.937-.314.832.938 1.39.937s.803.518.907.314c.105-.21 1.147-.728.937-.833-.209-.105.833 0 0-1.042-.832-1.041-.104-.104-.226-1.547-.01-.122.435-.431.226-.85-.209-.418.833-.623.833-.623s1.46-.728 1.77-1.617c.313-.885 0-1.408 0-1.408s-1.252-.21-1.775 0zm14.174-45.129c0 .624 1.356.523 1.356.523l.832-.523-1.146-1.874-.523-1.146.523-1.146.623-.524.523-.937.728-.313s.937.313.728-.624c-.21-.937-1.46-1.46-1.46-1.46-.314.105-.623.523-1.46 1.042-.833.523-1.042.523-1.46 1.25-.419.729.523.833 0 1.46-.523.624.104.833-.105 1.566-.21.728-.314 1.041-.105 1.564.218.515.946.515.946 1.142zM52.93 72.346l.21.066-.21-.066zm-1.782-21.098c-.314-.148-.009-.462-.941-.462-.933 0-1.591-.105-1.73 0-.14.104.514-.118-.489.462-1.007.58-.483-.253-1.007.684-.523.937.419.623-.418.832-.833.21-1.146-.937-1.874 0-.728.938-1.147-.313-1.565 0-.418.314-.693-.209-1.129.524-.436.728.026.754-.88 1.264-.907.51-.907.222-1.534.732-.628.51-2.188-.432-2.398-.013-.209.418-3.029 1.129-3.338 1.399-.31.27-1.247 1.102-1.247 1.102s-.187 1.182.584 1.321c.772.14 1.709-.174 2.127.244.419.419 1.465-.379 1.826.175.362.553 1.317.989 1.57.457.252-.532.462-2.197.462-2.197s1.303-.78 1.303-1.093c0-.314-.035-.332.606-.01.64.323 1.686.842 1.686.842l.044-2.035.793-.153.47-.771.576 2.127s.105.209.523 0c.419-.21.833-1.875.833-1.875s.832-1.25.937-1.146c.104.105 1.042-.314 1.303.052.262.367.663-.575 1.142 0 .48.576 1.203.68 1.517.89.314.209.532-.593.941-.61.414-.018.737-1.212.737-1.212l-.737-.689c-.013-.004-.379-.693-.693-.841z" fill="#E7E7E7"/><path d="M31.626 70.735c-.043.04-.07.06-.07.06s.78.393.07-.06zm8.055-22.871c.21.728.833.21.833.833s-.524.832-.624 1.041c-.104.21-.523.937-.104 1.042.418.105 1.774-.833 1.774-.833s1.564-.418 1.041-.728c-.523-.313-.623-.937-.623-1.355 0-.418.523-2.188.623-1.565.105.623.833.105 1.356 0 .523-.104 1.146-.937 1.146-.937s0-.728-.728-.728-1.774.728-1.774.728-.418-.314-1.25-.104c-.833.209-.833-.624-1.565.104-.733.728-.728 1.146-.728.937 0-.209-.833 1.042-.523 1.251.314.21.941-.414 1.146.314zm21.261-24.593s.419.314 0 .728c-.418.419-.623-.104 0 .728.623.833 1.67 1.146 1.874 1.565.21.418.523.623.937.832.419.21 1.251-.523 1.251-.523v-.623s-.418-.728 0-1.25c.419-.524 0-1.46 0-1.46s.523-1.147 0-1.147-1.355-.21-1.25 0c.104.209.418.209 0 1.042-.419.832 0 1.46 0 1.46l-.419-.624s-.623-.832-1.146-.727c-.523.104-1.247 0-1.247 0zM44.37 11.074c.315.418 1.147-.523 1.147 0s.833-.833.728.728c-.104 1.564 1.251-.419-.418 1.77-1.67 2.187-.728 1.355-1.46 2.292-.728.937-.057.043-.968 1.273-.911 1.229-.597 1.02-1.534 1.543-.937.523.314-.419-.937.523-1.251.941-1.042.418-1.874.937-.833.523-.811-1.356-1.29 0-.48 1.355-.48 0-.899.727-.418.728.21-.623-.418.624-.623 1.25.737-.506-.048.893-.784 1.4-1.203.253-1.826 1.295-.623 1.042-.833-.623-1.46 0-.623.623-.623-.833-1.251 0-.623.832.418.832-.623.832-1.042 0-.419.623 0 1.147.418.523 1.46 0 1.874.832.418.833 0-.314.937.623s.209.314.937.624c.728.313.523-1.356 1.46-.624.937.728-.187.454 1.783.122 1.97-.33 1.76-1.791 1.447-1.791-.314 0-2.188-2.083-1.042-2.816 1.146-.727 1.979-1.146 1.979-1.146s.837.035.941 1.268c.105 1.234.624 1.652.728 2.38.105.728-.209.728.523 1.356.728.623 1.412-.336 2.219.143.806.48 1.848-.143 1.848-.143l.623-1.98v-2.292s.21-1.874.728-1.25c.523.623.623-.833 1.25 0 .628.832 1.043-.105 1.252 1.25.209 1.356.418 2.92.418 2.92s0-.209.523.314.523 0 1.042.21c.523.209.998-1.02 1.852-.824.414.096.82.022 1.13-.079-.428-.993-1.526-2.955-1.526-2.955l-1.038-.845-.318-.82s-.21-.937-.623-.832c-.419.104-1.042-.937-1.565-.523-.523.414-1.874-.728-1.979 0-.104.728-1.46-.419-1.774.623-.313 1.042-1.041.418-1.041 1.356 0 .937-2.502.523-2.398.727.105.21-.623-.523-.623-.523s-.314-.623 0-.832c.314-.21 0-1.042.623-1.146.624-.105.938-.728.938-.728s.723-.602 1.059-.894c-.157.179.043.188.396-.253.419-.523 1.042-.623 1.042-1.146 0-.523.157-1.578.157-1.578s.004-.091.078-.82c.075-.727 1.016-.33.859-.583-.157-.249 1.404-2.023 1.508-2.44.105-.42 0-2.189 0-1.775 0 .414-.654-.362-1.316-.179-.663.18-1.286-.967-2.018-.026-.728.937-.314-.314-1.042.833-.728 1.146.21 0-.728 1.146a6.006 6.006 0 00-.44.623c.2-.143.362-.209.449-.091zm-8.72 5.258c-.075-.053-.062-.013 0 0z" fill="#E7E7E7"/><path d="M43.935 11.175c-.349.283-.79.876-.998 1.177.47.065.544-.432.998-1.177zm12.317 13.347s-.226.14-.558.248c.066.153.114.284.144.38.21.728.414-.628.414-.628zM30.72 15.038s-.022.04-.057.11c.009.184.057-.11.057-.11zM12.793 43.596c.005 0 .01-.005.015-.01-.02.005-.03.01-.015.01zm12.404-1.776c-.21-.832-.938.728-1.356.728-.126 0-.3.114-.488.275-.445.366-.99.976-1.282.976-.418 0-.832.21-1.25 0-.419-.209-.523-.418-.833-1.264-.314-.845-.104-.719 0-1.721.105-1.003.105-.458 0-1.081-.104-.624.523 0 .833-.833.313-.832 1.041-.104 2.292-.728 1.251-.623.419-.623.728-1.669.31-1.046.21-.623.227-1.456.017-.828-.122-.632-.955-1.983-.832-1.355-.832-.105-1.67-.728-.832-.623-.104.314-.67.035-.567-.275-1.103.902-2.04 1.216-.937.314-.623.728-.623.728l.34 1.255 1.224.937s-.314 1.67-.937 1.46c-.623-.209-.523.523-.889.044-.366-.475-1.299-1.713-1.299-1.713l.833-.728c0-.832-.833.728-1.312.005-.48-.728-.353 1.246-.353 1.246v1.251l.314 1.67s0 .937-.34.675c-.34-.261-.702.885-1.016.972-.314.087-.937.64-1.25.431-.302-.2-.507 1.63-.615 1.766.143-.044 1.124-.249 1.865-.62.832-.418.728-.313 1.356-.418.623-.104 1.46-.209 1.355 0-.104.21.728.624.419 1.042-.314.418-.105.728-.419 1.042-.314.314-.832 1.67-.832 1.67l.034 1.22s1.321.758 2.363.03c1.041-.728.728.21 1.041-.623.314-.833.624-.728.833-1.147.21-.418 1.46.21 2.293-.418.832-.623 1.146 0 2.083-.728.937-.728.418-.523 0-2.083-.423-1.565.205.104-.004-.733zm4.167-10.212c-.419.21-.314-.728-.314-.728s0-.523.21-1.041c.209-.523.418-1.042.104-1.042s-.314-.105-.832 0c-.524.105-.523-.105-.938 0-.418.105-.937.523-.937.523s.314.523-.314 1.146c-.623.624-.418-.104-.623.624-.205.727.21.623.314.937l1.146.523s.21.104.419.418 1.041.523 1.041.523l.624-.523.623-.832c0-.01-.105-.737-.523-.528zm-6.097-5.596c.048.049.096.101.145.15-.049-.053-.093-.101-.145-.15zm85.619 17.792s.087-.231.423-.64a4.884 4.884 0 01-.423-.193c-1.46-.732 0 .833 0 .833zm-23.868-.211s1.25.728 1.774 1.042c.523.314.314.105.623-.623.314-.728.728-.105.81-.38.08-.274.755-.453 1.069-1.08.314-.624.418.313.763.444.344.135-.031 1.011-.031 1.011s0 .105.21.624c.208.523.313.623 1.355 0 1.041-.624.209.209.728 0 .523-.21.209-.833.832-1.042.623-.21.21-.523.728-1.042.523-.523.832.523.937.419.105-.105.523 1.041.523 1.041l-.523 1.774v.523s.728-.313.833-.523c.104-.209 1.041-2.188 1.146-2.188.105 0-.105 0 0-1.041.105-1.042-.21-1.67.21-1.774.418-.105-2.293-.833-2.189-.833.105 0-.937-.209-.937-.209s-.833.728-1.565 1.042c-.305.13-1.874.623-1.874.623s-.728.523-1.146.418c-.419-.104-.937.21-1.46 0-.523-.209-.833-.313-.998-1.063-.166-.754-1.086-.183-1.818-.81-.728-.624-.832.104-1.521.047-.689-.056-.667.894-.876 1.099-.21.209 1.355.74 1.355.74l1.042-.013v1.774zm-1.664-7.295c-.523-.314-1.147-.937-1.147-.937.105 0-.675-.305-.91-.31-.236-.004-.027-.941-.55-.732-.523.21-1.564-.109-1.564-.109s-.833-.414-1.46-.1c-.628.314-.833.209-.833.209s-.21-.623-.523-.314c-.314.31-.832.523-1.042 1.042-.209.523-.44 1.042-.636 1.512-.196.471-.279.772-.497 1.142-.222.37-.013 1.099-.013 1.099s.466-.72 1.377-.776c.916-.057 1.33-.894 1.33-.894s.937-.523 1.355-.314c.419.21.07.205.972.21.902.004 1.643-.554 2.214-.175.567.384 1.4-.035 1.4-.035s1.046-.204.527-.518zm18.55 29.181c-1.355.104-.209.104-1.146 1.041-.937.938-1.774 1.98-1.774 1.98h-2.92s-.624-.42-1.356-.729c-.728-.314-3.125-.523-3.125-.523.105.728 1.67 1.46 2.293 2.084.623.623.832-.21 1.46.523.623.728.832 0 1.67.623.832.623 1.355-.314 2.187 0 .833.314 1.565-.623 1.565-.623l1.146-.523v-3.13c0 .009 1.356-.828 0-.723zm-10.317-7.712c-.105 0 0-.832 0-.832s-1.042.418-.728-.314c.314-.728.523-2.084.728-1.774.205.31.832-.314.832-.314s.21-.21.728 0c.523.21 1.874-.314 1.67-.314-.205 0 .209-.209.523.314.313.523 1.041.314 1.041.314l.419-1.146-1.147-.937H93.88s-.3.056-.514-.18c-.213-.235-.423-.548-.946-.653-.523-.104.21-.523-.832.314s-.624.21-1.147 1.042c-.522.832-.226.806-1.102.819-.876.013-.148-.614-.772.013-.623.623-1.25-.418-.728.728.524 1.146 1.67 1.25 1.46 1.774-.209.523 1.565-.21.314.832-1.25 1.042-1.25-.418-2.188.314a4.508 4.508 0 00-.261.214c.03-.074-.022-.148-.366-.11-.937.105-1.251-1.04-1.774-.104-.523.937-.105 2.188-.105 2.188s1.146-.832 1.042.21c-.105 1.041 1.46.523 1.355.727-.104.21 1.251 0 1.251 0l1.147-.728 1.874-.832c0-.004.1-1.565 0-1.565zM79.183 47.14c-.21-.42.104-1.67-.419-1.252-.523.419-.623-1.041-.728-.523-.104.523-.418.728-.418 1.565v1.251c0 .833-.105.623-.314 1.042-.209.418-.728-1.356-.728-1.356l-.418-.314s.105.419 0 .728c-.105.314.21 1.77 0 2.502-.21.728.21.314 0 .728-.21.418 0 .21.105.623.104.414.832.623 1.25.937.419.314 1.251 0 1.251 0l.419-.418v-1.46s-.419-1.146-.419-1.46c0-.314.523-1.356.419-1.46-.105-.092.209-.72 0-1.134zm.832-17.93c-.314.105-.832.42-.832.938 0 .523 1.041.832 1.564.832.523 0 .624.314 1.356 0a3.903 3.903 0 001.25-.832c.105-.105-.104-1.356 0-1.874.105-.523-1.145-.623-1.145-.523 0 .104-1.46 0-1.46 0s-.624-.624-.938-.624c-.314 0-.623 1.147-.623 1.147v.104c0 .21 1.67.314 1.146.833-.527.519-.004-.105-.318 0zm30.017 2.915c.623.314.937.105.937.105v-.523s-1.146-1.146-1.774-1.251c-.623-.105-3.543-.937-3.962-.419-.418.524-1.042 1.565-1.042 1.565s.624.833 1.042.523c.419-.314.728-.937 1.356-.523.623.419 1.041.523 1.669.419.628-.1 1.146-.205 1.774.104zm8.443 22.1c-.523-.21-.728-1.46-1.146-1.042-.418.419-1.356 0-1.356 0l-1.146 1.042s.833.623 1.146.523c.314-.105.21-.21 1.042 0l2.084.523s-.105-.837-.624-1.046zm-2.502-9.798l-1.565-1.46-1.46-.624s-1.46-.937-1.979-.728c-.841.645-1.355 1.173-1.66 1.548 1.094.436 1.399.06 2.702.436 1.46.418 1.979.104 2.397.523.419.41 1.565.305 1.565.305z" fill="#E7E7E7"/><path d="M130.762 56.696l-.018-.087c-.122-.593-.192-1.242-.27-1.931-.039-.34-.074-.68-.122-1.016a17.088 17.088 0 01-.096-1.368c-.061-1.417-.139-3.178-1.063-4.725-.362-.606-.406-1.281-.454-2.428-.022-.5-.043-1.015-.109-1.573-.222-1.887-.592-4.062-2.179-6.041l-.139-.174c-.34-.423-.763-.95-.863-1.238a39.378 39.378 0 00-6.748-12.204l-.353-.436c-2.453-3.025-5.221-6.438-9.75-7.872-.422-.518-.863-.985-1.264-1.412-.85-.906-1.586-1.687-1.656-2.332l-1.538-2.218-.89-.45c-.802-.404-1.516-.77-2.24-1.132-.309-.175-1.033-.584-2.027-.515-.257.018-.414-.056-1.299-1.037-.444-.492-.945-1.046-1.56-1.525-.048-.044-.1-.096-.152-.144-.48-.462-1.596-1.548-3.248-1.251-1.024.183-2.153-.074-3.46-.375l-.423-.096c-1.325-.3-2.402.262-3.012.606-1.129-.732-2.353-.85-3.134-.928a6.229 6.229 0 01-.688-.092c-1.63-.893-3.648-.214-4.895.706l-.728-.444c-.292-.031-.57-.066-.845-.1-.645-.084-1.312-.166-2.018-.18a11.813 11.813 0 00-1.186-.017c-.135.005-.274.013-.414.022a9.425 9.425 0 00-.632.061 5.093 5.093 0 00-.484-.588c-2.022-2.097-4.75-2.306-6.79-.51l.03 1.368c-.03.03-.048.044-.078.074a9.302 9.302 0 00-2.175.092 12.31 12.31 0 01-1.003-.227c-.31-.078-.619-.152-.933-.222l-3.312 1.987c-.013.053-.03.1-.044.144a5.595 5.595 0 01-.266-.052c-.562-.118-1.19-.353-1.852-.606-.431-.161-.876-.331-1.351-.484a151.328 151.328 0 00-4.82-1.508c-1.138-.331-2.097.044-2.555.223l-.074.026c-2.388.902-3.779 2.61-4.842 4.193l-2.062 1.194-.253.68a2.996 2.996 0 00-1.412-.275 2.938 2.938 0 00-1.9.828 3.157 3.157 0 00-.71.37l.51-1.172a5.124 5.124 0 00-2.132-.431 2.892 2.892 0 00-2.027-.179c-.758.21-2.475 1.146-2.95 2.733-.1.336-.183.689-.258 1.09l.52.096-.58 2.366a.395.395 0 01-.035-.091s.008.043 0 .14c-.005.047-.01.09-.01.134-1.546.28-2.505 1.648-3.163 2.585a7.358 7.358 0 00-.118.165 3.123 3.123 0 00-.593 2.372c-.985.157-1.739.767-2.245 1.813a3.03 3.03 0 00-.684.383 3.098 3.098 0 00-1.133.345 2.916 2.916 0 00-2.567.81c-1.02 1.02-1.025 2.502-.693 3.723a3.301 3.301 0 00-2.398.684 3.95 3.95 0 00-.902.99l-1.735 1.141-.109.253c-.374.405-.863.972-1.176 1.49-.933 1.557-.432 3.823.462 5.519l-.105.13a2.812 2.812 0 00-1.765.018c-.71-.51-2.123-1.177-3.936-.236l-1.464 1.91c-.079.357-.149.714-.21 1.067a170.28 170.28 0 00-1.015 2.79l-.38 1.063.69 1.312a45.097 45.097 0 00-.628 4.603c-.04.462-.005.937.096 1.408-.114.605-.188 1.22-.24 1.843-.68.977-.924 2.271-.71 3.884.09.693.24 1.334.383 1.935l.048.2c.13.55.257 1.068.322 1.54-1.499 2.257-1.25 4.885.637 6.585.052.048.104.091.152.14.114.57.301 1.133.558 1.669l1.055-.218-.388.427c.41.375.697.566.994.763.126.083.288.191.514.348a3.73 3.73 0 001.8.676c1.181 1.002 2.833 1.085 4.093.527l.859-1.316c.187-.026.37-.065.544-.105.03.03.057.066.088.092a4.628 4.628 0 00-.571.48l-.419.418 3.03 3.975a2.256 2.256 0 01-.458-.58c.23.419.492.737.767.98l.065.088s-.022.017-.056.03c-.384.144-.68.397.191.532.336.053.645.044.929 0 .1.03.192.057.283.074.671.144 1.32.07 1.953-.23l.021.008c.131.288.288.597.454.876v.004c.148.327.335.576.475.759.545.728 1.495 1.342 2.715 1.242a2.954 2.954 0 001.578.253l.61 2.506c.445.105.846.17 1.225.2.096.022.196.04.288.062.605.126 1.128.218 1.647.287 1.26.17 2.485.079 3.618-.261 4.877 2.602 9.166 1.987 13.45-1.927.414-.379.842-.74 1.286-1.098 1.055 1.273 2.916 1.582 4.058 1.36 1.094-.214 2.14-.528 3.068-.798.332-.096.654-.192.972-.283l.968-1.678h.109c.902-.009 2.253-.018 3.408-.89.183.097.406.236.497.293.253.157.523.31.798.457.235.131.575.319.75.445.444 1.068-.062 2.82-1.042 3.47-1.016.67-2.51 1.581-3.727 1.751-4.76.659-9.488 1.16-14.496 1.687-1.879.196-3.775.397-5.693.61l-.993.249c-2.725.675-2.663 4.568.082 5.156l1.147.244c3.452.092 7.309.2 11.328.323-10.274 1.69-15.264 4.188-15.264 8.416 0 .13.004.257.013.349.47 7.819 16.375 13.494 37.82 13.494 23.17 0 34.48-8.016 34.951-8.356a3.063 3.063 0 00-.911-4.702l-.811-.423c-6.974.14-14.837-.118-20.093-.702 1.373-.366 2.794-.732 4.058-1.055 12.243-3.142 16.48-4.41 16.48-8.01 0-2.276-2.01-3.649-7.166-4.9-4.45-1.08-10.783-1.86-18.328-2.258-.954-.366-1.451-.897-1.778-1.878-.061-.183-.126-.366-.187-.55-.205-.583-.419-1.19-.432-1.564a62.7 62.7 0 00-.048-.968c-.135-2.284-.026-2.741.745-3.251.014-.009.031-.017.044-.03l.863.309.03.091c.127.401.284.898.558 1.4l2.637 1.46c.03 0 .061-.005.096-.005l.1.144c.75 1.068 1.814 1.704 3.004 1.787a3.699 3.699 0 001.965-.397c.824.367 1.643.384 2.123.397.083 0 .161.004.24.009.279.013.57.013.858.009.166-.005.401-.005.523.004.772.336 1.556.81 2.384 1.308.223.135.445.27.667.4 2.14 1.269 4.372 1.352 6.482.249 1.264.505 2.397.462 3.369-.14.231-.143.44-.309.623-.496 1.604.4 3.273-.022 4.725-1.278.353-.305.658-.614.928-.889.2-.205.392-.4.562-.553 3.487-.27 6.691-.95 9.532-2.031 1.805-.685 4.071-1.796 5.571-4.32.196-.33.366-.675.514-1.033 2.219-.597 3.775-2.144 4.42-4.428.37-1.312.575-2.606.767-3.862.069-.453.139-.889.213-1.316.933-.767 1.674-2.053 1.221-4.28zm-3.047 2.314c-.227.083-.353.62-.418.968-.34 1.791-.51 3.63-1.003 5.374-.392 1.377-1.29 2.323-2.968 2.576-.41.061-.772.431-1.129.863a4.76 4.76 0 01-.549 1.351c-.963 1.622-2.432 2.467-4.141 3.117-3.029 1.15-6.324 1.726-9.58 1.913-.187.135-.375.279-.553.418-.628.489-1.138 1.13-1.744 1.652-1.177 1.02-2.34.96-3.491-.087-.214-.196-.554-.253-.833-.375-.122.292-.348.584-.344.876.013 1.208-.362 1.43-1.469.859-.457-.235-1.303-.153-1.765.126-1.382.828-2.654.763-3.988-.026-1.146-.68-2.28-1.412-3.504-1.926-.654-.275-1.478-.148-2.228-.188-.967-.052-2.083.153-1.926-1.69-.166.065-.331.13-.492.195-.314.358-.624.72-.946 1.068-.663.702-1.352.467-1.796-.161-.985-1.408-.942-1.438-2.676-1.343-.593-1.076-.453-3.255-2.716-1.917-.745-2.031-1.02-2.031-2.82-.85-2.593 1.704-2.061 4.271-1.974 6.69.035.98.444 1.957.763 2.912.728 2.179 2.166 3.234 3.922 3.787 17.6.898 23.205 3.53 23.205 4.35 0 2.947-25.698 7.017-25.698 9.175 0 3.984 28.148 3.43 28.148 3.43s-10.77 7.815-33.286 7.815c-22.247 0-34.695-5.919-34.991-10.831a2.314 2.314 0 01-.009-.179c0-7.823 47.849-8.01 54.692-9.166 1.277-.954-53.515-2.406-53.515-2.406 6.974-.767 13.642-1.386 20.267-2.305 1.709-.236 3.418-1.216 4.9-2.197 2.253-1.486 3.16-5 1.904-7.323-.44-.819-1.604-1.277-2.48-1.821-1.164-.72-2.258-1.3-3.665-.17-.62.497-1.81.266-2.733.392-.41.057-.815.183-1.22.275l.374 1.46c-1.198.335-2.489.771-3.818 1.028-.44.087-1.225-.148-1.386-.47-.166-.327.096-1.09.423-1.404.671-.654.867-1.19-.131-2.1-1.861 1.442-3.853 2.793-5.614 4.397-3.478 3.173-6.485 3.64-10.57 1.32-.178-.1-.361-.2-.54-.291a5.996 5.996 0 01-.4-.066c-1.003.523-2.128.663-3.27.51a20.118 20.118 0 01-1.451-.253c-.161-.034-.323-.07-.488-.1a4.722 4.722 0 01-.946-.14c.048-.038.096-.082.148-.126.314 0 .937-.523.937-.523h.728s.21-.209.728-.209c.523 0 .418.523 1.042-.105.623-.623.523.419 1.146 0 .623-.418.937 0 .937 0h.833s1.041-.418 1.02-1.054c-.022-.641-.293-.092-.462-.079-.17.013-.877-.117-.563-.74.314-.624-1.25.522-2.319.392-1.067-.131-1.433.444-2.37.34-.938-.105-1.042-.523-2.302-.672-1.26-.148-.824.567-1.477 0-.654-.566-1.016.253-1.33-.161-.314-.414 0 0-.314-.523s-.623-1.356-.623-1.356-1.042-.623-1.146-.832c-.105-.21-1.46 0-1.826-.044-.367-.043-.571.672-.964-.039-.392-.71-.858.71-1.347 0-.488-.71-1.7-.022-1.7-.022l.42-.418c.418-.418 1.355-.728 1.564-1.25.209-.524.209-.524.209-1.252s-.314-.832-.314-1.146c0-.314-.623-.419-1.042-1.042-.418-.623-.832-.104-.727-.832.104-.728-2.084.523-2.502.209-.419-.314-1.251.314-1.251.418l.004 1.151s-.941.414-1.355-.418c-.419-.833-1.042 0-1.761-.506-.72-.506-.846-.536-1.23-.89l-.025.655a3.973 3.973 0 01-.401-1.596c-.005-.091 0-.178 0-.27a19.537 19.537 0 01-.968-.82c-.89-.801-.88-1.904-.118-2.994.327-.466.48-1.194.406-1.765-.092-.715-.27-1.42-.436-2.123a16.687 16.687 0 01-.331-1.651c-.118-.876-.131-1.805.632-2.263l.013.1v1.67l-.314 2.149c.004.004 2.292 1.185 2.554 1.621.261.436 1.094.715 1.953.345.858-.367 1.399-.11 1.399-.11s.972.994.771 1.504c-.2.51-.784 1.05-.784 1.05l1.608 1.13s1.046-.815 1.586-1.164 1.23-1.212 1.334-2.776c.105-1.565 0-.105-.505-1.605-.506-1.499-.537-.27-.227-1.625.314-1.356-.21-1.042.226-1.425.432-.384.82-.659 1.47-.71.649-.053 1.015.26 1.329-.053.314-.314.728.832.832 1.67.105.836.314 1.04 0 1.564-.314.523-.623 1.46-.815 2.445-.187.985.81.915.81.915s1.775-.026 2.215-.274c.44-.253 1.12-.061 1.09 0-.035.06.523 1.538.523 1.538s1.49.798 1.7-.035c.209-.832-.419-.727-.476-1.503-.056-.772.162-.79.58-1.417.419-.623.105-.937 1.042-1.874s1.146-.623 1.355-1.25c.21-.624 1.774 0 1.774 0s2.293-.42 3.02-.105c.729.313.524-.728 1.204-1.064.684-.336.671-1.748.545-2.118-.131-.366-.393-.88-.894-1.97-.501-1.086-.645-.894-.854-1.83-.21-.938-1.251-1.043-.937-1.98.314-.937.418-.728.937 0 .523.728.418.937 1.355 1.251.937.314.624-.418 1.565-.104.937.313.418-1.565 1.146-2.188.728-.624-.313-.728-.418-1.251-.105-.523-.623-.937-.523-1.565.105-.623-.523-1.46 0-2.084.523-.623.623-.727.623-.727l2.301.727.877.78 2.602-.444s1.878-1.12 2.087-1.015l1.251.623s1.774.21 1.931.362c.161.152 1.508-.362 1.508-.362l1.547-1.404s1.164-1.098 1.683-.889c.523.21.105-.832-.41-1.216-.514-.383-.427-.531-.427-.531l.445-.994s2.218-3.047 1.49-3.252c-.728-.209-1.146.523-1.978.314-.833-.21-1.042.623-1.042.623l-.623 1.147v1.46l-.728 1.46s-1.356.832-2.262.675c-.576-.1.802-1.09.488-1.821-.314-.733 1.041-1.875 0-2.293-1.042-.419-.523 0-.523 0s-1.251 1.565-1.46 1.979c-.21.418-.624 1.67-1.46 1.46-.833-.21-.938 0-.938 0s-2.188-.314-2.397-.728c-.21-.418-.104-.728-.104-.728s-.419-1.874-.624-1.46c-.209.418-.937.105-.937.105v1.669s-.623 1.146-1.25.937c-.624-.21-1.042-.21-.938-.523.105-.314-.728-.728-.728-.728l-.623-1.46-.832 1.46s-.105 1.356-.21 1.46c-.104.105-1.355 3.23-1.268 3.365.087.13.017.702.017.702s.21 1.46-1.146 1.355c-1.355-.104-1.146 0-1.146 0s-.079.257-.2.615c-.275.806-.764 2.127-1.051 2.2-.419.105-1.146 0-1.325.219-.179.218-1.591 1.66-1.49 2.18.104.522.727.832 1.093.605.366-.231 1.927.44 2.968.75 1.042.31 1.186 1.721 1.186 1.721l-.392 1.478-1.805.366s-.967-.44-.763-.336c.21.105-.937-.313-1.508-.03-.57.279-.056.972-.056.972s-1.147.418-1.774.418c-.623 0-.419-.832-.419-.832l-.897-.554s-.877-.593-.772-.802c.105-.209-1.146-.104-1.774-.623-.623-.523-.623 0-.623 0s-.419-.937-1.146-.523c-.728.414-1.317.928-1.317.928s-.558.319-.719.523c-.161.2-.462.218-1.818.114-1.355-.105-1.146 0-1.146 0s-1.874 2.397-2.606 2.71c-.732.315 0 .624 0 1.252 0 0-.728 1.355-.99 1.625-.257.27-.68.353-1.303.04-.623-.314 0-.21-.087-.842s-.122-.823-.353-1.852c-.231-1.024-.083-.536-.083-1.164 0-.388-1.674-.492-2.78-.592.047-.916.174-1.827.379-2.72a2.15 2.15 0 01-.192-1.046c.14-1.674.379-3.33.719-4.965a4.937 4.937 0 01-.432-.091c-.165-.044-.335-.092-.5-.135.487-1.36.963-2.72 1.477-4.071a21.7 21.7 0 01.226-1.203c.297-.153.62-.292 1.05.074.729.623.624.314 1.461.623.832.314 1.356-1.042.832.314-.523 1.355-.889.959-.706 1.992.183 1.033-.544.3-.026 1.133.523.833.419 1.67 1.251 1.67.833 0 1.042-.729 1.565-.624.523.105.418-1.46.418-1.46l.51-.72s-.2-.322.009-.95c.21-.623.728-1.041.728-1.041v-2.297c0-.314 1.565-.419.523-1.565-1.042-1.146-1.46-3.125-1.146-3.648.313-.523 1.146-1.355 1.146-1.355l.314-.728h1.46c-.419 0 .209-1.46.832-1.042.624.418.523.523 1.251.937.728.414 1.874-.832 1.874 0 0 .833.523-.728 1.147.105.623.832.623.209 1.25.209.628 0 1.042-1.356 1.042-1.356s-2.083-.832-2.292-1.355c-.21-.523-1.042-1.356-1.147-1.46-.104-.105-.727-2.293 0-1.565.728.728 1.565-.728 1.774-.418.21.31.427-.454 1.099.453.67.902.462.593.67 1.007.036.074.08.157.123.244.026.048.048.096.074.144.004.008.009.017.013.03-.004-.009-.009-.017-.013-.03-.022-.048-.048-.096-.074-.144.035 0 .07.004.109.004-.035 0-.07-.004-.11-.004-.444-.894-1.202-2.524-.226-2.328 1.042.21 1.147-2.083 1.46-1.564.314.523.576-.2 1.382.68.806.884 4.14.675 3.827 1.298-.314.624.872-.283 1.739-.453.867-.17 1.072-1.212 1.072-1.212s-1.316-.152-1.072-.387c.24-.236-.423-.458-.423-.458s.667-1.447 1.5-1.552c.832-.104 1.355-1.25 1.874-.728.523.523.832-.523.832-.523s-.937-2.606-1.46-2.083c-.523.523-.832-.105-1.774.623-.937.728-.832 1.565-1.874 1.979-1.042.418-1.552-.227-2.131.148-.58.375-1.517-.458-1.203-.876.314-.418 1.355-2.083 1.774-1.565.418.519.832-.313 1.146-.523.257-.17.723-1.041.885-1.35-.005-.105.004-.371.048-.942.074-1.011-.253-1.587-.545-1.98.192-.086.392-.165.606-.221a7.92 7.92 0 01.183-.785c.109-.362.972-.876 1.033-.82.183.17.361.297.54.397a2.384 2.384 0 011.691.083c.1-.035.2-.078.297-.122-.358 1.173-.358.388-.358 1.574 0 1.25 0 .104.419.727.418.624 1.669.524 1.46 0-.21-.523.331-1.669.841-1.25.514.418.423-1.587 1.146-.275.724 1.316 1.347.689 1.142 1.94-.205 1.25-.104 2.188-.832 2.397-.728.209-.728-.21-1.46 0-.728.209-.419-.419-.833.209-.161.244-.31.266-.383.253.06.043.183.143.383.375.728.832.955.043.841.44-.113.396.528-.815 0 .99-.527 1.804-.218 1.176-.008 1.071.209-.104 1.155-1.002 1.307-1.072.153-.074.362-1.325.985-1.425.623-.105 1.46-2.502 1.46-2.188 0 .314.419-1.146.938-.937.523.209 1.25-1.042 1.25-1.042l.127-.183a.82.82 0 01-.127-.026c-.727-.21-1.874-1.356-1.874-.833v-.418l.623-1.67.214-.566c.392.065.776.179 1.133.349 1.06-1.648 2.097-3.317 4.12-4.08.265-.1.592-.253.832-.183 1.586.462 3.164.968 4.733 1.482 1.168.384 2.306.92 3.5 1.172 2.31.489 3.02-.017 3.613-2.079.89.188 1.752.48 2.624.536a6.751 6.751 0 011.87-.126c.34-.048.689-.1 1.05-.14-.008.1-.017.197-.03.288a7.55 7.55 0 011.281.41c.018-.183.03-.366.048-.55.061-.614.1-1.228.153-1.843l-.38-.3c1.05-.925 2.127-.432 2.886.348.55.571.545 1.203.327 1.791.74-.16 1.49-.265 2.244-.313a7.977 7.977 0 011.098-.113c.267-.01.532-.005.803.008l.144.013c.867.009 1.739.166 2.715.266 1.037 1.604 1.094 1.543 2.445.122.475-.497 1.665-.968 2.11-.715 1.368.78 3.325-.043 4.34 1.66.088.149.981-.121 1.474-.282.606-.201 1.25-.802 1.756-.685 1.661.375 3.27.81 5.008.497.314-.057.75.523 1.125.82 1.521 1.194 2.406 3.36 4.842 3.177.175-.013.37.135.55.222.972.488 1.944.98 3.12 1.578.257 2.336 2.52 3.77 3.94 5.749.079.113.245.192.384.231 4.245 1.111 6.765 4.42 9.319 7.558a36.542 36.542 0 016.263 11.328c.283.828.911 1.569 1.477 2.27 1.094 1.36 1.373 2.877 1.574 4.599.196 1.673-.079 3.413.946 5.125.802 1.343.562 3.313.78 5.004.135 1.046.213 2.11.423 3.143.161.771.344 1.442-.689 1.808z" fill="#E7E7E7"/><path d="M110.969 41.611c1.774-1.35-.519.21 0 0zM86.997 31.085c-.104.314.388.506.388.506l.863.013h.624s.104-.418 0-.623c-.105-.21-.314-.728-.314-.728v-.937s-1.147.985-1.565.963c-.41-.026.109.497.004.806zm17.064 19.225c-.549-.056-1.639-.257-2.227-.449-.589-.191-.663-.017-1.107.332l.967.592-.553 1.352s.658.318 1.216.449c.553.13.279.074.697-.445.418-.523 1.355 0 1.861-.004.506-.005.327-.728.344-1.352.013-.627-.645-.418-1.198-.475zm-45.516 7.873c.209-.728-.21-.937 0-1.774.209-.837-1.251-.523-1.042-.937.21-.419-1.25-.105-1.25 0l-.938.418.937.523s.523.937 0 1.774c-.248.397-1.146.728-1.774.623-.623-.104 0 .728 0 .728l.833.937s.832.833.937.523c.104-.313 1.46.21 1.774-.313.314-.524.314-.524.523-1.042.209-.519-.205-.728 0-1.46zM70.22 32.231l-3.02.105-2.82 2.864-4.995-.885-4.899 4.48 2.053-.07s-.331 1.06-.017.955c.314-.104 1.67-.418 2.083-.728.419-.313.21-1.25.833-1.874.623-.623.623-.728.623-.728s1.913.55 2.079.532c.048.135.514.955.423 1.133-.105.21.728 2.398.728 2.398s.314-1.147.523-1.456c.209-.31.762-2.105.762-2.105l1.53-.92s2.084.937 2.533.601c.449-.335 1.01-1.438 1.01-1.438l3.492-.99-.418-1.874H70.22zm.21-9.083c.27-1.181-.187-.161 0 0zm-3.87 37.637c.008 0 .013.004.013.004s.018-.125-.013-.004zm1.991-16.148c-.728-.105-1.25 0-1.25 0s-.524.728-1.147.623c-.623-.104-1.146-.21-1.774.105-.623.313-.523-.728-1.46-.105-.937.623-.937.21-1.774 1.042-.832.832-1.46 2.502-1.46 2.502s-1.042-.105-.937.937c.105 1.041-.105 1.564 0 1.978.105.419.418.21.523.938.105.728.728.832.937 1.46.21.623.833.209.833.832s1.146 0 1.146 0v-3.234s-.21-.418 0-.523l.832-.418s.523-.833.728-1.042c.21-.21 1.565-.937 1.251-.523-.314.414 0 .523 0 .523s-.627.366-.627.924v.118c.104.623.313 1.669.623 1.874.314.21 1.146-.937 1.146-.937v-3.125l.418-1.042.728-.623 1.251-.624s.105-.832 0-1.041c-.091-.2.741-.515.013-.62z" fill="#E7E7E7"/><path d="M70.53 23.167c-.043.013-.078.004-.1-.018 0 .005-.005.009-.005.018-.313 1.355-.104.727 0 1.564.105.833.314.937.523 1.251.21.314-.104.21.728.523.833.314 1.46-.523 1.46-.523s-.313-1.355-.623-1.25c-.314.104-.832-.729-.832-.729v-.832l.832-.623.623-.523V21.4s-2.292.523-2.606.728c-.31.205.418.933 0 1.038zm-4.72 37.7c-.14.287-.697.649-.998.379-.305-.27-.845.48-1.155.48-.31 0-1.46 1.04-1.46 1.04v.833s-.105.833 0 1.147c.104.314.623 1.355.623 1.355l.937.728-.104-.728s-.21-.832-.419-.832.105-.624.623-1.67c.523-1.041.833.314 1.356-.832.523-1.147.937-.21 1.177-1.269.096-.435.144-.631.165-.714-.074-.022-.619-.183-.745.083zm21.501-34.192c.419.558.85 1.172 1.26 1.124.41-.047.933.057 1.451-.047.524-.105.458-.454 1.53-.489 1.073-.034 1.282.798 1.596.489.314-.314.623-.105.728-.419.104-.314-.728-1.565-.728-1.565 0-.104-.645-.379-1.208-.605-.562-.227-1.438-.358-1.887-.397-.449-.04-1.386.17-1.804.484-.419.314-.523.418-.938.832-.414.419-.414.03 0 .593zm6.569 8.372c-.833.314-.624 0-.728 0-.105 0-1.565 1.356-1.565 1.356l.82.453 1.054-.349h1.356l.523.624s0 .727.313.937c.314.209 1.138.728 1.138.728s2.406-.414 2.092-1.251c-.314-.833.623-.624-.21-1.042-.832-.419.105 0 0-.523-.104-.523-1.668-.937-1.668-.937l-1.356-.728c0 .004-.937.418-1.77.732zM91.587 20.04c.419-.623.623.419 1.565.728.937.314.832.314 1.717.601.885.293.366-.396 1.513-.291 1.146.104-.21-.419-.044-1.452.166-1.033-.375-.427-.689-1.05-.313-.624-1.159-.035-1.159-.035s-1.02-.345-1.033-.38c-.144.027-1.9.245-1.9.245s-.698.588-.689 1.041c.009.458-.009 1.317-.009 1.317s.31-.1.728-.724zM55.629 46.301v-1.874l-2.188-1.25s0 .313-.524 1.46c-.218.479-.344.684-.418.762.323.11 1.303.47 1.565.907.314.518 1.565-.005 1.565-.005z" fill="#E7E7E7"/></svg>